<?xml version="1.0" encoding="UTF-8" standalone="no"?>
<!DOCTYPE svg PUBLIC "-//W3C//DTD SVG 1.1//EN"
 "http://www.w3.org/Graphics/SVG/1.1/DTD/svg11.dtd">
<!-- Generated by graphviz version 2.40.1 (20161225.0304)
 -->
<!-- Title: o2::soa::DefaultIndexPolicy Pages: 1 -->
<svg width="240pt" height="409pt"
 viewBox="0.00 0.00 240.00 409.00" xmlns="http://www.w3.org/2000/svg" xmlns:xlink="http://www.w3.org/1999/xlink">
<g id="graph0" class="graph" transform="scale(1 1) rotate(0) translate(4 405)">
<title>o2::soa::DefaultIndexPolicy</title>
<!-- Node2 -->
<g id="node1" class="node">
<title>Node2</title>
<polygon fill="#bfbfbf" stroke="#000000" points="58,-.5 58,-200.5 208,-200.5 208,-.5 58,-.5"/>
<text text-anchor="middle" x="133" y="-188.5" font-family="Helvetica,sans-Serif" font-size="10.00" fill="#000000">o2::soa::DefaultIndexPolicy</text>
<polyline fill="none" stroke="#000000" points="58,-181.5 208,-181.5 "/>
<text text-anchor="middle" x="133" y="-169.5" font-family="Helvetica,sans-Serif" font-size="10.00" fill="#000000"> </text>
<polyline fill="none" stroke="#000000" points="58,-162.5 208,-162.5 "/>
<text text-anchor="start" x="66" y="-150.5" font-family="Helvetica,sans-Serif" font-size="10.00" fill="#000000">+ DefaultIndexPolicy()</text>
<text text-anchor="start" x="66" y="-139.5" font-family="Helvetica,sans-Serif" font-size="10.00" fill="#000000">+ DefaultIndexPolicy()</text>
<text text-anchor="start" x="66" y="-128.5" font-family="Helvetica,sans-Serif" font-size="10.00" fill="#000000">+ DefaultIndexPolicy()</text>
<text text-anchor="start" x="66" y="-117.5" font-family="Helvetica,sans-Serif" font-size="10.00" fill="#000000">+ operator=()</text>
<text text-anchor="start" x="66" y="-106.5" font-family="Helvetica,sans-Serif" font-size="10.00" fill="#000000">+ operator=()</text>
<text text-anchor="start" x="66" y="-95.5" font-family="Helvetica,sans-Serif" font-size="10.00" fill="#000000">+ DefaultIndexPolicy()</text>
<text text-anchor="start" x="66" y="-84.5" font-family="Helvetica,sans-Serif" font-size="10.00" fill="#000000">+ limitRange()</text>
<text text-anchor="start" x="66" y="-73.5" font-family="Helvetica,sans-Serif" font-size="10.00" fill="#000000">+ getIndices()</text>
<text text-anchor="start" x="66" y="-62.5" font-family="Helvetica,sans-Serif" font-size="10.00" fill="#000000">+ getOffsets()</text>
<text text-anchor="start" x="66" y="-51.5" font-family="Helvetica,sans-Serif" font-size="10.00" fill="#000000">+ setCursor()</text>
<text text-anchor="start" x="66" y="-40.5" font-family="Helvetica,sans-Serif" font-size="10.00" fill="#000000">+ moveByIndex()</text>
<text text-anchor="start" x="66" y="-29.5" font-family="Helvetica,sans-Serif" font-size="10.00" fill="#000000">+ moveToEnd()</text>
<text text-anchor="start" x="66" y="-18.5" font-family="Helvetica,sans-Serif" font-size="10.00" fill="#000000">+ operator!=()</text>
<text text-anchor="start" x="66" y="-7.5" font-family="Helvetica,sans-Serif" font-size="10.00" fill="#000000">+ operator==()</text>
</g>
<!-- Node3 -->
<g id="node2" class="node">
<title>Node3</title>
<g id="a_node2"><a xlink:href="../../d9/d4f/structo2_1_1soa_1_1IndexPolicyBase.html" target="_top" xlink:title="{o2::soa::IndexPolicyBase\n||}">
<polygon fill="none" stroke="#000000" points="12,-238.5 12,-295.5 150,-295.5 150,-238.5 12,-238.5"/>
<text text-anchor="middle" x="81" y="-283.5" font-family="Helvetica,sans-Serif" font-size="10.00" fill="#000000">o2::soa::IndexPolicyBase</text>
<polyline fill="none" stroke="#000000" points="12,-276.5 150,-276.5 "/>
<text text-anchor="middle" x="81" y="-264.5" font-family="Helvetica,sans-Serif" font-size="10.00" fill="#000000"> </text>
<polyline fill="none" stroke="#000000" points="12,-257.5 150,-257.5 "/>
<text text-anchor="middle" x="81" y="-245.5" font-family="Helvetica,sans-Serif" font-size="10.00" fill="#000000"> </text>
</a>
</g>
</g>
<!-- Node3&#45;&gt;Node2 -->
<g id="edge1" class="edge">
<title>Node3&#45;&gt;Node2</title>
<path fill="none" stroke="#191970" d="M92.9598,-228.7055C95.6549,-220.076 98.6375,-210.5259 101.7237,-200.6444"/>
<polygon fill="none" stroke="#191970" points="89.5794,-227.7889 89.9391,-238.3776 96.2612,-229.8757 89.5794,-227.7889"/>
</g>
<!-- Node4 -->
<g id="node3" class="node">
<title>Node4</title>
<polygon fill="none" stroke="#bfbfbf" points="0,-343.5 0,-400.5 56,-400.5 56,-343.5 0,-343.5"/>
<text text-anchor="middle" x="28" y="-388.5" font-family="Helvetica,sans-Serif" font-size="10.00" fill="#000000">uint64_t</text>
<polyline fill="none" stroke="#bfbfbf" points="0,-381.5 56,-381.5 "/>
<text text-anchor="middle" x="28" y="-369.5" font-family="Helvetica,sans-Serif" font-size="10.00" fill="#000000"> </text>
<polyline fill="none" stroke="#bfbfbf" points="0,-362.5 56,-362.5 "/>
<text text-anchor="middle" x="28" y="-350.5" font-family="Helvetica,sans-Serif" font-size="10.00" fill="#000000"> </text>
</g>
<!-- Node4&#45;&gt;Node3 -->
<g id="edge2" class="edge">
<title>Node4&#45;&gt;Node3</title>
<path fill="none" stroke="#404040" d="M24.0063,-343.2593C23.8131,-333.5907 24.9167,-322.9852 29,-314 30.4396,-310.8322 32.2063,-307.7858 34.2092,-304.873"/>
<polygon fill="none" stroke="#404040" points="34.2447,-304.8291 34.9117,-297.6489 41.7961,-295.5029 41.1291,-302.6831 34.2447,-304.8291"/>
<text text-anchor="middle" x="54.5" y="-317" font-family="Helvetica,sans-Serif" font-size="10.00" fill="#000000"> +mOffset</text>
</g>
<!-- Node5 -->
<g id="node4" class="node">
<title>Node5</title>
<polygon fill="none" stroke="#bfbfbf" points="119,-343.5 119,-400.5 169,-400.5 169,-343.5 119,-343.5"/>
<text text-anchor="middle" x="144" y="-388.5" font-family="Helvetica,sans-Serif" font-size="10.00" fill="#000000">int64_t</text>
<polyline fill="none" stroke="#bfbfbf" points="119,-381.5 169,-381.5 "/>
<text text-anchor="middle" x="144" y="-369.5" font-family="Helvetica,sans-Serif" font-size="10.00" fill="#000000"> </text>
<polyline fill="none" stroke="#bfbfbf" points="119,-362.5 169,-362.5 "/>
<text text-anchor="middle" x="144" y="-350.5" font-family="Helvetica,sans-Serif" font-size="10.00" fill="#000000"> </text>
</g>
<!-- Node5&#45;&gt;Node2 -->
<g id="edge4" class="edge">
<title>Node5&#45;&gt;Node2</title>
<path fill="none" stroke="#404040" d="M164.3492,-343.2615C167.5066,-337.462 170.2857,-331.227 172,-325 173.2976,-320.2865 172.4136,-318.8714 172,-314 169.1821,-280.813 163.6604,-245.0896 157.638,-212.5381"/>
<polygon fill="none" stroke="#404040" points="157.6292,-212.4909 152.5845,-207.338 155.4007,-200.6996 160.4453,-205.8524 157.6292,-212.4909"/>
<text text-anchor="middle" x="201" y="-264.5" font-family="Helvetica,sans-Serif" font-size="10.00" fill="#000000"> +mMaxRow</text>
</g>
<!-- Node5&#45;&gt;Node3 -->
<g id="edge3" class="edge">
<title>Node5&#45;&gt;Node3</title>
<path fill="none" stroke="#404040" d="M118.8238,-346.4366C113.127,-339.8063 107.4532,-332.4302 103,-325 99.6938,-319.4835 96.7329,-313.3845 94.1361,-307.275"/>
<polygon fill="none" stroke="#404040" points="93.966,-306.8397 88.0557,-302.7082 89.5962,-295.6636 95.5064,-299.795 93.966,-306.8397"/>
<text text-anchor="middle" x="137.5" y="-317" font-family="Helvetica,sans-Serif" font-size="10.00" fill="#000000"> +mRowIndex</text>
</g>
</g>
</svg>
