<?xml version="1.0" encoding="UTF-8" standalone="no"?>
<!DOCTYPE svg PUBLIC "-//W3C//DTD SVG 1.1//EN"
 "http://www.w3.org/Graphics/SVG/1.1/DTD/svg11.dtd">
<!-- Generated by graphviz version 2.40.1 (20161225.0304)
 -->
<!-- Title: /home/travis/build/AliceO2Group/AliceO2/DataFormats/simulation/include/SimulationDataFormat/MCTruthContainer.h Pages: 1 -->
<svg width="661pt" height="128pt"
 viewBox="0.00 0.00 661.00 128.00" xmlns="http://www.w3.org/2000/svg" xmlns:xlink="http://www.w3.org/1999/xlink">
<g id="graph0" class="graph" transform="scale(1 1) rotate(0) translate(4 124)">
<title>/home/travis/build/AliceO2Group/AliceO2/DataFormats/simulation/include/SimulationDataFormat/MCTruthContainer.h</title>
<!-- Node0 -->
<g id="node1" class="node">
<title>Node0</title>
<polygon fill="#bfbfbf" stroke="#000000" points="247.5,-56.5 247.5,-119.5 415.5,-119.5 415.5,-56.5 247.5,-56.5"/>
<text text-anchor="start" x="255.5" y="-107.5" font-family="Helvetica,sans-Serif" font-size="10.00" fill="#000000">/home/travis/build</text>
<text text-anchor="start" x="255.5" y="-96.5" font-family="Helvetica,sans-Serif" font-size="10.00" fill="#000000">/AliceO2Group/AliceO2</text>
<text text-anchor="start" x="255.5" y="-85.5" font-family="Helvetica,sans-Serif" font-size="10.00" fill="#000000">/DataFormats/simulation</text>
<text text-anchor="start" x="255.5" y="-74.5" font-family="Helvetica,sans-Serif" font-size="10.00" fill="#000000">/include/SimulationDataFormat</text>
<text text-anchor="middle" x="331.5" y="-63.5" font-family="Helvetica,sans-Serif" font-size="10.00" fill="#000000">/MCTruthContainer.h</text>
</g>
<!-- Node1 -->
<g id="node2" class="node">
<title>Node1</title>
<polygon fill="none" stroke="#bfbfbf" points="0,-.5 0,-19.5 67,-19.5 67,-.5 0,-.5"/>
<text text-anchor="middle" x="33.5" y="-7.5" font-family="Helvetica,sans-Serif" font-size="10.00" fill="#000000">TNamed.h</text>
</g>
<!-- Node0&#45;&gt;Node1 -->
<g id="edge1" class="edge">
<title>Node0&#45;&gt;Node1</title>
<path fill="none" stroke="#191970" d="M247.3001,-65.9611C191.8927,-51.4585 121.6381,-33.0697 77.1114,-21.4151"/>
<polygon fill="#191970" stroke="#191970" points="77.7541,-17.9654 67.1937,-18.8191 75.9815,-24.7373 77.7541,-17.9654"/>
</g>
<!-- Node2 -->
<g id="node3" class="node">
<title>Node2</title>
<polygon fill="none" stroke="#bfbfbf" points="85.5,-.5 85.5,-19.5 135.5,-19.5 135.5,-.5 85.5,-.5"/>
<text text-anchor="middle" x="110.5" y="-7.5" font-family="Helvetica,sans-Serif" font-size="10.00" fill="#000000">cstdint</text>
</g>
<!-- Node0&#45;&gt;Node2 -->
<g id="edge2" class="edge">
<title>Node0&#45;&gt;Node2</title>
<path fill="none" stroke="#191970" d="M247.3189,-58.289C211.7937,-45.7507 172.4151,-31.8524 145.061,-22.198"/>
<polygon fill="#191970" stroke="#191970" points="146.1515,-18.8713 135.5567,-18.8435 143.8217,-25.4723 146.1515,-18.8713"/>
</g>
<!-- Node3 -->
<g id="node4" class="node">
<title>Node3</title>
<polygon fill="none" stroke="#bfbfbf" points="153.5,-.5 153.5,-19.5 205.5,-19.5 205.5,-.5 153.5,-.5"/>
<text text-anchor="middle" x="179.5" y="-7.5" font-family="Helvetica,sans-Serif" font-size="10.00" fill="#000000">cassert</text>
</g>
<!-- Node0&#45;&gt;Node3 -->
<g id="edge3" class="edge">
<title>Node0&#45;&gt;Node3</title>
<path fill="none" stroke="#191970" d="M270.1139,-56.4992C248.2847,-45.2974 224.784,-33.2378 207.1866,-24.2076"/>
<polygon fill="#191970" stroke="#191970" points="208.5606,-20.9788 198.0657,-19.5271 205.3647,-27.2067 208.5606,-20.9788"/>
</g>
<!-- Node4 -->
<g id="node5" class="node">
<title>Node4</title>
<polygon fill="none" stroke="#bfbfbf" points="224,-.5 224,-19.5 289,-19.5 289,-.5 224,-.5"/>
<text text-anchor="middle" x="256.5" y="-7.5" font-family="Helvetica,sans-Serif" font-size="10.00" fill="#000000">stdexcept</text>
</g>
<!-- Node0&#45;&gt;Node4 -->
<g id="edge4" class="edge">
<title>Node0&#45;&gt;Node4</title>
<path fill="none" stroke="#191970" d="M300.9946,-56.2744C291.3071,-46.1993 280.9738,-35.4527 272.7061,-26.8543"/>
<polygon fill="#191970" stroke="#191970" points="275.2257,-24.425 265.7717,-19.6426 270.1799,-29.2768 275.2257,-24.425"/>
</g>
<!-- Node5 -->
<g id="node6" class="node">
<title>Node5</title>
<polygon fill="none" stroke="#bfbfbf" points="307.5,-.5 307.5,-19.5 355.5,-19.5 355.5,-.5 307.5,-.5"/>
<text text-anchor="middle" x="331.5" y="-7.5" font-family="Helvetica,sans-Serif" font-size="10.00" fill="#000000">gsl/gsl</text>
</g>
<!-- Node0&#45;&gt;Node5 -->
<g id="edge5" class="edge">
<title>Node0&#45;&gt;Node5</title>
<path fill="none" stroke="#191970" d="M331.5,-56.2744C331.5,-47.3302 331.5,-37.8568 331.5,-29.8269"/>
<polygon fill="#191970" stroke="#191970" points="335.0001,-29.6425 331.5,-19.6426 328.0001,-29.6426 335.0001,-29.6425"/>
</g>
<!-- Node6 -->
<g id="node7" class="node">
<title>Node6</title>
<polygon fill="none" stroke="#bfbfbf" points="374,-.5 374,-19.5 443,-19.5 443,-.5 374,-.5"/>
<text text-anchor="middle" x="408.5" y="-7.5" font-family="Helvetica,sans-Serif" font-size="10.00" fill="#000000">type_traits</text>
</g>
<!-- Node0&#45;&gt;Node6 -->
<g id="edge6" class="edge">
<title>Node0&#45;&gt;Node6</title>
<path fill="none" stroke="#191970" d="M362.8188,-56.2744C372.7648,-46.1993 383.3736,-35.4527 391.8618,-26.8543"/>
<polygon fill="#191970" stroke="#191970" points="394.4465,-29.218 398.9811,-19.6426 389.4649,-24.3003 394.4465,-29.218"/>
</g>
<!-- Node7 -->
<g id="node8" class="node">
<title>Node7</title>
<polygon fill="none" stroke="#bfbfbf" points="461.5,-.5 461.5,-19.5 511.5,-19.5 511.5,-.5 461.5,-.5"/>
<text text-anchor="middle" x="486.5" y="-7.5" font-family="Helvetica,sans-Serif" font-size="10.00" fill="#000000">cstring</text>
</g>
<!-- Node0&#45;&gt;Node7 -->
<g id="edge7" class="edge">
<title>Node0&#45;&gt;Node7</title>
<path fill="none" stroke="#191970" d="M394.0977,-56.4992C416.3577,-45.2974 440.3223,-33.2378 458.267,-24.2076"/>
<polygon fill="#191970" stroke="#191970" points="460.2085,-27.1488 467.5679,-19.5271 457.0618,-20.8959 460.2085,-27.1488"/>
</g>
<!-- Node8 -->
<g id="node9" class="node">
<title>Node8</title>
<polygon fill="none" stroke="#bfbfbf" points="529.5,-.5 529.5,-19.5 587.5,-19.5 587.5,-.5 529.5,-.5"/>
<text text-anchor="middle" x="558.5" y="-7.5" font-family="Helvetica,sans-Serif" font-size="10.00" fill="#000000">memory</text>
</g>
<!-- Node0&#45;&gt;Node8 -->
<g id="edge8" class="edge">
<title>Node0&#45;&gt;Node8</title>
<path fill="none" stroke="#191970" d="M415.7038,-59.0665C451.9345,-46.6172 492.4403,-32.6989 521.0304,-22.875"/>
<polygon fill="#191970" stroke="#191970" points="522.2997,-26.1398 530.6196,-19.58 520.0249,-19.5197 522.2997,-26.1398"/>
</g>
<!-- Node9 -->
<g id="node10" class="node">
<title>Node9</title>
<polygon fill="none" stroke="#bfbfbf" points="606,-.5 606,-19.5 653,-19.5 653,-.5 606,-.5"/>
<text text-anchor="middle" x="629.5" y="-7.5" font-family="Helvetica,sans-Serif" font-size="10.00" fill="#000000">vector</text>
</g>
<!-- Node0&#45;&gt;Node9 -->
<g id="edge9" class="edge">
<title>Node0&#45;&gt;Node9</title>
<path fill="none" stroke="#191970" d="M415.5895,-67.405C465.3636,-54.9827 529.8556,-38.4872 595.9768,-20.0644"/>
<polygon fill="#191970" stroke="#191970" points="597.0553,-23.3972 605.7427,-17.3326 595.1695,-16.656 597.0553,-23.3972"/>
</g>
</g>
</svg>
