<?xml version="1.0" encoding="UTF-8" standalone="no"?>
<!DOCTYPE svg PUBLIC "-//W3C//DTD SVG 1.1//EN"
 "http://www.w3.org/Graphics/SVG/1.1/DTD/svg11.dtd">
<!-- Generated by graphviz version 2.40.1 (20161225.0304)
 -->
<!-- Title: /home/travis/build/AliceO2Group/AliceO2/Framework/Core/test/benchmark_TableBuilder.cxx Pages: 1 -->
<!--zoomable 341 -->
<svg id="main" version="1.1" xmlns="http://www.w3.org/2000/svg" xmlns:xlink="http://www.w3.org/1999/xlink" xml:space="preserve" onload="init(evt)">
<style type="text/css"><![CDATA[
.edge:hover path { stroke: red; }
.edge:hover polygon { stroke: red; fill: red; }
]]></style>
<script type="text/javascript"><![CDATA[
var edges = document.getElementsByTagName('g');
if (edges && edges.length) {
  for (var i=0;i<edges.length;i++) {
    if (edges[i].id.substr(0,4)=='edge') {
      edges[i].setAttribute('class','edge');
    }
  }
}
]]></script>
        <defs>
                <circle id="rim" cx="0" cy="0" r="7"/>
                <circle id="rim2" cx="0" cy="0" r="3.5"/>
                <g id="zoomPlus">
                        <use xlink:href="#rim" fill="#404040">
                                <set attributeName="fill" to="#808080" begin="zoomplus.mouseover" end="zoomplus.mouseout"/>
                        </use>
                        <path d="M-4,0h8M0,-4v8" fill="none" stroke="white" stroke-width="1.5" pointer-events="none"/>
                </g>
                <g id="zoomMin">
                        <use xlink:href="#rim" fill="#404040">
                                <set attributeName="fill" to="#808080" begin="zoomminus.mouseover" end="zoomminus.mouseout"/>
                        </use>
                        <path d="M-4,0h8" fill="none" stroke="white" stroke-width="1.5" pointer-events="none"/>
                </g>
                <g id="dirArrow">
                        <path fill="none" stroke="white" stroke-width="1.5" d="M0,-3.0v7 M-2.5,-0.5L0,-3.0L2.5,-0.5"/>
                </g>
               <g id="resetDef">
                       <use xlink:href="#rim2" fill="#404040">
                               <set attributeName="fill" to="#808080" begin="reset.mouseover" end="reset.mouseout"/>
                       </use>
               </g>
        </defs>

<script type="text/javascript">
var viewWidth = 1991;
var viewHeight = 341;
var sectionId = 'dynsection-0';
</script>
<script xlink:href="../../svgpan.js"/>
<svg id="graph" class="graph">
<g id="viewport">
<title>/home/travis/build/AliceO2Group/AliceO2/Framework/Core/test/benchmark_TableBuilder.cxx</title>
<!-- Node0 -->
<g id="node1" class="node">
<title>Node0</title>
<polygon fill="#bfbfbf" stroke="#000000" points="1658.0413,-280.5 1658.0413,-332.5 1837.0413,-332.5 1837.0413,-280.5 1658.0413,-280.5"/>
<text text-anchor="start" x="1666.0413" y="-320.5" font-family="Helvetica,sans-Serif" font-size="10.00" fill="#000000">/home/travis/build</text>
<text text-anchor="start" x="1666.0413" y="-309.5" font-family="Helvetica,sans-Serif" font-size="10.00" fill="#000000">/AliceO2Group/AliceO2</text>
<text text-anchor="start" x="1666.0413" y="-298.5" font-family="Helvetica,sans-Serif" font-size="10.00" fill="#000000">/Framework/Core/test/benchmark</text>
<text text-anchor="middle" x="1747.5413" y="-287.5" font-family="Helvetica,sans-Serif" font-size="10.00" fill="#000000">_TableBuilder.cxx</text>
</g>
<!-- Node1 -->
<g id="node2" class="node">
<title>Node1</title>
<g id="a_node2"><a xlink:href="../../d5/d98/TableBuilder_8h.html" target="_top" xlink:title="Framework/TableBuilder.h">
<polygon fill="none" stroke="#000000" points="1363.5413,-224.5 1363.5413,-243.5 1505.5413,-243.5 1505.5413,-224.5 1363.5413,-224.5"/>
<text text-anchor="middle" x="1434.5413" y="-231.5" font-family="Helvetica,sans-Serif" font-size="10.00" fill="#000000">Framework/TableBuilder.h</text>
</a>
</g>
</g>
<!-- Node0&#45;&gt;Node1 -->
<g id="edge1" class="edge">
<title>Node0&#45;&gt;Node1</title>
<path fill="none" stroke="#191970" d="M1657.8481,-285.7244C1601.9733,-272.7822 1532.1119,-256.6002 1485.5543,-245.8161"/>
<polygon fill="#191970" stroke="#191970" points="1486.2287,-242.3797 1475.6969,-243.5328 1484.6491,-249.1992 1486.2287,-242.3797"/>
</g>
<!-- Node32 -->
<g id="node33" class="node">
<title>Node32</title>
<g id="a_node33"><a xlink:href="../../dc/d03/TableConsumer_8h.html" target="_top" xlink:title="Framework/TableConsumer.h">
<polygon fill="none" stroke="#000000" points="1669.0413,-224.5 1669.0413,-243.5 1826.0413,-243.5 1826.0413,-224.5 1669.0413,-224.5"/>
<text text-anchor="middle" x="1747.5413" y="-231.5" font-family="Helvetica,sans-Serif" font-size="10.00" fill="#000000">Framework/TableConsumer.h</text>
</a>
</g>
</g>
<!-- Node0&#45;&gt;Node32 -->
<g id="edge45" class="edge">
<title>Node0&#45;&gt;Node32</title>
<path fill="none" stroke="#191970" d="M1747.5413,-280.3258C1747.5413,-271.5142 1747.5413,-261.8397 1747.5413,-253.621"/>
<polygon fill="#191970" stroke="#191970" points="1751.0414,-253.534 1747.5413,-243.534 1744.0414,-253.534 1751.0414,-253.534"/>
</g>
<!-- Node33 -->
<g id="node34" class="node">
<title>Node33</title>
<polygon fill="none" stroke="#bfbfbf" points="1844.5413,-224.5 1844.5413,-243.5 1982.5413,-243.5 1982.5413,-224.5 1844.5413,-224.5"/>
<text text-anchor="middle" x="1913.5413" y="-231.5" font-family="Helvetica,sans-Serif" font-size="10.00" fill="#000000">benchmark/benchmark.h</text>
</g>
<!-- Node0&#45;&gt;Node33 -->
<g id="edge47" class="edge">
<title>Node0&#45;&gt;Node33</title>
<path fill="none" stroke="#191970" d="M1807.4711,-280.3258C1832.8054,-269.2612 1861.2546,-256.8361 1882.3075,-247.6413"/>
<polygon fill="#191970" stroke="#191970" points="1883.9485,-250.7439 1891.7117,-243.534 1881.1467,-244.329 1883.9485,-250.7439"/>
</g>
<!-- Node2 -->
<g id="node3" class="node">
<title>Node2</title>
<g id="a_node3"><a xlink:href="../../de/d33/ASoA_8h.html" target="_top" xlink:title="Framework/ASoA.h">
<polygon fill="none" stroke="#000000" points="965.5413,-168.5 965.5413,-187.5 1073.5413,-187.5 1073.5413,-168.5 965.5413,-168.5"/>
<text text-anchor="middle" x="1019.5413" y="-175.5" font-family="Helvetica,sans-Serif" font-size="10.00" fill="#000000">Framework/ASoA.h</text>
</a>
</g>
</g>
<!-- Node1&#45;&gt;Node2 -->
<g id="edge2" class="edge">
<title>Node1&#45;&gt;Node2</title>
<path fill="none" stroke="#191970" d="M1363.6718,-224.4369C1285.1805,-213.8453 1159.7351,-196.9177 1083.9432,-186.6904"/>
<polygon fill="#191970" stroke="#191970" points="1083.9665,-183.1619 1073.5882,-185.2931 1083.0303,-190.099 1083.9665,-183.1619"/>
</g>
<!-- Node3 -->
<g id="node4" class="node">
<title>Node3</title>
<g id="a_node4"><a xlink:href="../../de/d9b/FunctionalHelpers_8h.html" target="_top" xlink:title="Framework/FunctionalHelpers.h">
<polygon fill="none" stroke="#000000" points="13.5413,-56.5 13.5413,-75.5 183.5413,-75.5 183.5413,-56.5 13.5413,-56.5"/>
<text text-anchor="middle" x="98.5413" y="-63.5" font-family="Helvetica,sans-Serif" font-size="10.00" fill="#000000">Framework/FunctionalHelpers.h</text>
</a>
</g>
</g>
<!-- Node1&#45;&gt;Node3 -->
<g id="edge34" class="edge">
<title>Node1&#45;&gt;Node3</title>
<path fill="none" stroke="#191970" d="M1363.451,-229.9648C1147.5912,-217.344 501.9806,-176.7805 296.5413,-132 237.0682,-119.0364 170.3885,-94.6665 131.5696,-79.4422"/>
<polygon fill="#191970" stroke="#191970" points="132.4414,-76.023 121.8553,-75.5945 129.8637,-82.5311 132.4414,-76.023"/>
</g>
<!-- Node4 -->
<g id="node5" class="node">
<title>Node4</title>
<polygon fill="none" stroke="#bfbfbf" points="9.0413,-.5 9.0413,-19.5 74.0413,-19.5 74.0413,-.5 9.0413,-.5"/>
<text text-anchor="middle" x="41.5413" y="-7.5" font-family="Helvetica,sans-Serif" font-size="10.00" fill="#000000">functional</text>
</g>
<!-- Node1&#45;&gt;Node4 -->
<g id="edge40" class="edge">
<title>Node1&#45;&gt;Node4</title>
<path fill="none" stroke="#191970" d="M1363.2846,-232.8601C1214.4864,-229.9022 860.0425,-219.8388 564.5413,-188 410.9673,-171.4532 372.7004,-163.7756 221.5413,-132 124.0675,-111.5098 65.5411,-154.7402 4.5413,-76 -7.4731,-60.4915 7.1223,-40.616 21.3694,-26.7467"/>
<polygon fill="#191970" stroke="#191970" points="24.0417,-29.0469 29.0774,-19.7253 19.3277,-23.872 24.0417,-29.0469"/>
</g>
<!-- Node11 -->
<g id="node12" class="node">
<title>Node11</title>
<polygon fill="none" stroke="#bfbfbf" points="1746.0413,-56.5 1746.0413,-75.5 1827.0413,-75.5 1827.0413,-56.5 1746.0413,-56.5"/>
<text text-anchor="middle" x="1786.5413" y="-63.5" font-family="Helvetica,sans-Serif" font-size="10.00" fill="#000000">arrow/table.h</text>
</g>
<!-- Node1&#45;&gt;Node11 -->
<g id="edge38" class="edge">
<title>Node1&#45;&gt;Node11</title>
<path fill="none" stroke="#191970" d="M1383.6845,-224.4297C1342.5346,-214.404 1294.8587,-196.146 1317.5413,-168 1320.8635,-163.8776 1614.7575,-101.9611 1735.5634,-76.655"/>
<polygon fill="#191970" stroke="#191970" points="1736.6034,-80.0132 1745.6738,-74.538 1735.1687,-73.1618 1736.6034,-80.0132"/>
</g>
<!-- Node16 -->
<g id="node17" class="node">
<title>Node16</title>
<polygon fill="none" stroke="#bfbfbf" points="865.5413,-56.5 865.5413,-75.5 909.5413,-75.5 909.5413,-56.5 865.5413,-56.5"/>
<text text-anchor="middle" x="887.5413" y="-63.5" font-family="Helvetica,sans-Serif" font-size="10.00" fill="#000000">string</text>
</g>
<!-- Node1&#45;&gt;Node16 -->
<g id="edge42" class="edge">
<title>Node1&#45;&gt;Node16</title>
<path fill="none" stroke="#191970" d="M1363.5037,-229.3829C1189.9524,-217.3535 755.606,-182.4418 715.5413,-132 656.7536,-57.9859 620.4774,-142.0672 855.3185,-76.2024"/>
<polygon fill="#191970" stroke="#191970" points="856.5823,-79.4817 865.2411,-73.3763 854.6648,-72.7495 856.5823,-79.4817"/>
</g>
<!-- Node17 -->
<g id="node18" class="node">
<title>Node17</title>
<polygon fill="none" stroke="#bfbfbf" points="1845.5413,-56.5 1845.5413,-75.5 1903.5413,-75.5 1903.5413,-56.5 1845.5413,-56.5"/>
<text text-anchor="middle" x="1874.5413" y="-63.5" font-family="Helvetica,sans-Serif" font-size="10.00" fill="#000000">memory</text>
</g>
<!-- Node1&#45;&gt;Node17 -->
<g id="edge43" class="edge">
<title>Node1&#45;&gt;Node17</title>
<path fill="none" stroke="#191970" d="M1505.701,-230.0472C1614.33,-223.3932 1811.6143,-208.6314 1836.5413,-188 1867.0327,-162.7631 1873.4803,-113.4443 1874.5878,-85.8695"/>
<polygon fill="#191970" stroke="#191970" points="1878.0878,-85.8987 1874.7904,-75.8301 1871.0892,-85.7574 1878.0878,-85.8987"/>
</g>
<!-- Node26 -->
<g id="node27" class="node">
<title>Node26</title>
<polygon fill="none" stroke="#bfbfbf" points="1326.5413,-168.5 1326.5413,-187.5 1382.5413,-187.5 1382.5413,-168.5 1326.5413,-168.5"/>
<text text-anchor="middle" x="1354.5413" y="-175.5" font-family="Helvetica,sans-Serif" font-size="10.00" fill="#000000">sstream</text>
</g>
<!-- Node1&#45;&gt;Node26 -->
<g id="edge35" class="edge">
<title>Node1&#45;&gt;Node26</title>
<path fill="none" stroke="#191970" d="M1420.6064,-224.2455C1408.4466,-215.7337 1390.5948,-203.2375 1376.5128,-193.3801"/>
<polygon fill="#191970" stroke="#191970" points="1378.516,-190.51 1368.3165,-187.6427 1374.5018,-196.2447 1378.516,-190.51"/>
</g>
<!-- Node27 -->
<g id="node28" class="node">
<title>Node27</title>
<polygon fill="none" stroke="#bfbfbf" points="1400.5413,-168.5 1400.5413,-187.5 1468.5413,-187.5 1468.5413,-168.5 1400.5413,-168.5"/>
<text text-anchor="middle" x="1434.5413" y="-175.5" font-family="Helvetica,sans-Serif" font-size="10.00" fill="#000000">arrow/stl.h</text>
</g>
<!-- Node1&#45;&gt;Node27 -->
<g id="edge36" class="edge">
<title>Node1&#45;&gt;Node27</title>
<path fill="none" stroke="#191970" d="M1434.5413,-224.2455C1434.5413,-216.9382 1434.5413,-206.6944 1434.5413,-197.7046"/>
<polygon fill="#191970" stroke="#191970" points="1438.0414,-197.6426 1434.5413,-187.6427 1431.0414,-197.6427 1438.0414,-197.6426"/>
</g>
<!-- Node28 -->
<g id="node29" class="node">
<title>Node28</title>
<polygon fill="none" stroke="#bfbfbf" points="1487.0413,-168.5 1487.0413,-187.5 1596.0413,-187.5 1596.0413,-168.5 1487.0413,-168.5"/>
<text text-anchor="middle" x="1541.5413" y="-175.5" font-family="Helvetica,sans-Serif" font-size="10.00" fill="#000000">arrow/type_traits.h</text>
</g>
<!-- Node1&#45;&gt;Node28 -->
<g id="edge37" class="edge">
<title>Node1&#45;&gt;Node28</title>
<path fill="none" stroke="#191970" d="M1453.1793,-224.2455C1469.9799,-215.4527 1494.9047,-202.4079 1514.0031,-192.4125"/>
<polygon fill="#191970" stroke="#191970" points="1515.8799,-195.3807 1523.1169,-187.6427 1512.634,-189.1787 1515.8799,-195.3807"/>
</g>
<!-- Node29 -->
<g id="node30" class="node">
<title>Node29</title>
<polygon fill="none" stroke="#bfbfbf" points="1614.0413,-168.5 1614.0413,-187.5 1703.0413,-187.5 1703.0413,-168.5 1614.0413,-168.5"/>
<text text-anchor="middle" x="1658.5413" y="-175.5" font-family="Helvetica,sans-Serif" font-size="10.00" fill="#000000">arrow/builder.h</text>
</g>
<!-- Node1&#45;&gt;Node29 -->
<g id="edge39" class="edge">
<title>Node1&#45;&gt;Node29</title>
<path fill="none" stroke="#191970" d="M1472.7938,-224.4369C1510.888,-214.9133 1569.4726,-200.2672 1610.64,-189.9753"/>
<polygon fill="#191970" stroke="#191970" points="1611.5941,-193.3446 1620.4466,-187.5237 1609.8963,-186.5536 1611.5941,-193.3446"/>
</g>
<!-- Node30 -->
<g id="node31" class="node">
<title>Node30</title>
<polygon fill="none" stroke="#bfbfbf" points="1721.0413,-168.5 1721.0413,-187.5 1768.0413,-187.5 1768.0413,-168.5 1721.0413,-168.5"/>
<text text-anchor="middle" x="1744.5413" y="-175.5" font-family="Helvetica,sans-Serif" font-size="10.00" fill="#000000">vector</text>
</g>
<!-- Node1&#45;&gt;Node30 -->
<g id="edge41" class="edge">
<title>Node1&#45;&gt;Node30</title>
<path fill="none" stroke="#191970" d="M1505.6363,-225.0109C1559.7016,-217.5388 1636.0366,-205.6283 1710.8166,-188.1809"/>
<polygon fill="#191970" stroke="#191970" points="1711.9538,-191.5084 1720.8775,-185.7972 1710.3399,-184.697 1711.9538,-191.5084"/>
</g>
<!-- Node31 -->
<g id="node32" class="node">
<title>Node31</title>
<polygon fill="none" stroke="#bfbfbf" points="1786.0413,-168.5 1786.0413,-187.5 1827.0413,-187.5 1827.0413,-168.5 1786.0413,-168.5"/>
<text text-anchor="middle" x="1806.5413" y="-175.5" font-family="Helvetica,sans-Serif" font-size="10.00" fill="#000000">tuple</text>
</g>
<!-- Node1&#45;&gt;Node31 -->
<g id="edge44" class="edge">
<title>Node1&#45;&gt;Node31</title>
<path fill="none" stroke="#191970" d="M1505.5801,-228.621C1573.2217,-222.562 1677.8678,-210.7522 1775.9984,-188.0207"/>
<polygon fill="#191970" stroke="#191970" points="1776.8492,-191.4161 1785.7783,-185.7133 1775.2418,-184.6032 1776.8492,-191.4161"/>
</g>
<!-- Node2&#45;&gt;Node3 -->
<g id="edge3" class="edge">
<title>Node2&#45;&gt;Node3</title>
<path fill="none" stroke="#191970" d="M965.3733,-176.2645C859.0886,-172.3352 615.9358,-160.7591 413.5413,-132 317.6455,-118.3738 207.1845,-92.9386 145.8547,-77.9353"/>
<polygon fill="#191970" stroke="#191970" points="146.6264,-74.5209 136.0798,-75.5304 144.9541,-81.3182 146.6264,-74.5209"/>
</g>
<!-- Node5 -->
<g id="node6" class="node">
<title>Node5</title>
<g id="a_node6"><a xlink:href="../../d9/de8/CompilerBuiltins_8h.html" target="_top" xlink:title="Framework/CompilerBuiltins.h">
<polygon fill="none" stroke="#000000" points="1015.5413,-56.5 1015.5413,-75.5 1179.5413,-75.5 1179.5413,-56.5 1015.5413,-56.5"/>
<text text-anchor="middle" x="1097.5413" y="-63.5" font-family="Helvetica,sans-Serif" font-size="10.00" fill="#000000">Framework/CompilerBuiltins.h</text>
</a>
</g>
</g>
<!-- Node2&#45;&gt;Node5 -->
<g id="edge5" class="edge">
<title>Node2&#45;&gt;Node5</title>
<path fill="none" stroke="#191970" d="M1072.7141,-168.463C1110.634,-160.4538 1156.8879,-147.7939 1168.5413,-132 1183.6036,-111.5862 1156.3097,-92.3291 1131.3188,-79.9445"/>
<polygon fill="#191970" stroke="#191970" points="1132.4864,-76.6262 1121.9467,-75.5464 1129.5126,-82.9632 1132.4864,-76.6262"/>
</g>
<!-- Node6 -->
<g id="node7" class="node">
<title>Node6</title>
<g id="a_node7"><a xlink:href="../../db/d31/Traits_8h.html" target="_top" xlink:title="Framework/Traits.h">
<polygon fill="none" stroke="#000000" points="724.0413,-112.5 724.0413,-131.5 833.0413,-131.5 833.0413,-112.5 724.0413,-112.5"/>
<text text-anchor="middle" x="778.5413" y="-119.5" font-family="Helvetica,sans-Serif" font-size="10.00" fill="#000000">Framework/Traits.h</text>
</a>
</g>
</g>
<!-- Node2&#45;&gt;Node6 -->
<g id="edge6" class="edge">
<title>Node2&#45;&gt;Node6</title>
<path fill="none" stroke="#191970" d="M978.3858,-168.4369C937.2271,-158.8731 873.8363,-144.1432 829.5171,-133.845"/>
<polygon fill="#191970" stroke="#191970" points="830.0598,-130.3779 819.5271,-131.5237 828.4754,-137.1963 830.0598,-130.3779"/>
</g>
<!-- Node8 -->
<g id="node9" class="node">
<title>Node8</title>
<g id="a_node9"><a xlink:href="../../d0/d91/Expressions_8h.html" target="_top" xlink:title="Framework/Expressions.h">
<polygon fill="none" stroke="#000000" points="1216.0413,-112.5 1216.0413,-131.5 1357.0413,-131.5 1357.0413,-112.5 1216.0413,-112.5"/>
<text text-anchor="middle" x="1286.5413" y="-119.5" font-family="Helvetica,sans-Serif" font-size="10.00" fill="#000000">Framework/Expressions.h</text>
</a>
</g>
</g>
<!-- Node2&#45;&gt;Node8 -->
<g id="edge8" class="edge">
<title>Node2&#45;&gt;Node8</title>
<path fill="none" stroke="#191970" d="M1065.1369,-168.4369C1111.1198,-158.7925 1182.1501,-143.8948 1231.3019,-133.5858"/>
<polygon fill="#191970" stroke="#191970" points="1232.0652,-137.0019 1241.1338,-131.5237 1230.6283,-130.151 1232.0652,-137.0019"/>
</g>
<!-- Node2&#45;&gt;Node11 -->
<g id="edge27" class="edge">
<title>Node2&#45;&gt;Node11</title>
<path fill="none" stroke="#191970" d="M1073.6238,-176.4082C1148.5038,-173.101 1287.4346,-162.9647 1401.5413,-132 1423.0564,-126.1615 1426.0369,-117.8779 1447.5413,-112 1569.6428,-78.6255 1607.4591,-96.0583 1735.7317,-76.1704"/>
<polygon fill="#191970" stroke="#191970" points="1736.6219,-79.5726 1745.9443,-74.5384 1735.5172,-72.6603 1736.6219,-79.5726"/>
</g>
<!-- Node12 -->
<g id="node13" class="node">
<title>Node12</title>
<polygon fill="none" stroke="#bfbfbf" points="1581.0413,-56.5 1581.0413,-75.5 1728.0413,-75.5 1728.0413,-56.5 1581.0413,-56.5"/>
<text text-anchor="middle" x="1654.5413" y="-63.5" font-family="Helvetica,sans-Serif" font-size="10.00" fill="#000000">gandiva/selection_vector.h</text>
</g>
<!-- Node2&#45;&gt;Node12 -->
<g id="edge32" class="edge">
<title>Node2&#45;&gt;Node12</title>
<path fill="none" stroke="#191970" d="M1073.787,-175.8887C1142.9796,-172.0502 1265.7537,-161.3724 1366.5413,-132 1386.7767,-126.1028 1389.4719,-118.4393 1409.5413,-112 1462.0559,-95.1507 1522.9985,-83.6776 1570.9651,-76.4034"/>
<polygon fill="#191970" stroke="#191970" points="1571.6183,-79.8449 1580.996,-74.9145 1570.5905,-72.9208 1571.6183,-79.8449"/>
</g>
<!-- Node18 -->
<g id="node19" class="node">
<title>Node18</title>
<g id="a_node19"><a xlink:href="../../d0/d92/Kernels_8h.html" target="_top" xlink:title="Framework/Kernels.h">
<polygon fill="none" stroke="#000000" points="510.0413,-112.5 510.0413,-131.5 629.0413,-131.5 629.0413,-112.5 510.0413,-112.5"/>
<text text-anchor="middle" x="569.5413" y="-119.5" font-family="Helvetica,sans-Serif" font-size="10.00" fill="#000000">Framework/Kernels.h</text>
</a>
</g>
</g>
<!-- Node2&#45;&gt;Node18 -->
<g id="edge20" class="edge">
<title>Node2&#45;&gt;Node18</title>
<path fill="none" stroke="#191970" d="M965.2608,-171.2451C883.6666,-161.0911 729.4083,-141.8946 639.483,-130.7039"/>
<polygon fill="#191970" stroke="#191970" points="639.7362,-127.2084 629.3805,-129.4467 638.8717,-134.1549 639.7362,-127.2084"/>
</g>
<!-- Node19 -->
<g id="node20" class="node">
<title>Node19</title>
<polygon fill="none" stroke="#bfbfbf" points="202.0413,-56.5 202.0413,-75.5 335.0413,-75.5 335.0413,-56.5 202.0413,-56.5"/>
<text text-anchor="middle" x="268.5413" y="-63.5" font-family="Helvetica,sans-Serif" font-size="10.00" fill="#000000">arrow/compute/kernel.h</text>
</g>
<!-- Node2&#45;&gt;Node19 -->
<g id="edge31" class="edge">
<title>Node2&#45;&gt;Node19</title>
<path fill="none" stroke="#191970" d="M965.2931,-176.5565C870.3529,-173.2843 668.2131,-162.9931 500.5413,-132 430.292,-119.0148 350.6428,-94.0266 305.3185,-78.7994"/>
<polygon fill="#191970" stroke="#191970" points="306.2371,-75.4153 295.6428,-75.5215 303.991,-82.0452 306.2371,-75.4153"/>
</g>
<!-- Node22 -->
<g id="node23" class="node">
<title>Node22</title>
<polygon fill="none" stroke="#bfbfbf" points="591.5413,-56.5 591.5413,-75.5 701.5413,-75.5 701.5413,-56.5 591.5413,-56.5"/>
<text text-anchor="middle" x="646.5413" y="-63.5" font-family="Helvetica,sans-Serif" font-size="10.00" fill="#000000">arrow/util/variant.h</text>
</g>
<!-- Node2&#45;&gt;Node22 -->
<g id="edge29" class="edge">
<title>Node2&#45;&gt;Node22</title>
<path fill="none" stroke="#191970" d="M965.5303,-173.7639C890.3304,-167.2021 758.4793,-153.0962 715.5413,-132 692.6569,-120.7565 672.363,-99.198 659.8079,-83.7786"/>
<polygon fill="#191970" stroke="#191970" points="662.271,-81.2473 653.3488,-75.5337 656.7605,-85.5642 662.271,-81.2473"/>
</g>
<!-- Node23 -->
<g id="node24" class="node">
<title>Node23</title>
<polygon fill="none" stroke="#bfbfbf" points="851.5413,-112.5 851.5413,-131.5 931.5413,-131.5 931.5413,-112.5 851.5413,-112.5"/>
<text text-anchor="middle" x="891.5413" y="-119.5" font-family="Helvetica,sans-Serif" font-size="10.00" fill="#000000">arrow/array.h</text>
</g>
<!-- Node2&#45;&gt;Node23 -->
<g id="edge28" class="edge">
<title>Node2&#45;&gt;Node23</title>
<path fill="none" stroke="#191970" d="M997.5373,-168.3733C976.8978,-159.3435 945.8255,-145.7494 922.6524,-135.6111"/>
<polygon fill="#191970" stroke="#191970" points="923.8226,-132.3028 913.2581,-131.5011 921.0168,-138.7159 923.8226,-132.3028"/>
</g>
<!-- Node24 -->
<g id="node25" class="node">
<title>Node24</title>
<polygon fill="none" stroke="#bfbfbf" points="950.0413,-112.5 950.0413,-131.5 1089.0413,-131.5 1089.0413,-112.5 950.0413,-112.5"/>
<text text-anchor="middle" x="1019.5413" y="-119.5" font-family="Helvetica,sans-Serif" font-size="10.00" fill="#000000">arrow/compute/context.h</text>
</g>
<!-- Node2&#45;&gt;Node24 -->
<g id="edge30" class="edge">
<title>Node2&#45;&gt;Node24</title>
<path fill="none" stroke="#191970" d="M1019.5413,-168.2455C1019.5413,-160.9382 1019.5413,-150.6944 1019.5413,-141.7046"/>
<polygon fill="#191970" stroke="#191970" points="1023.0414,-141.6426 1019.5413,-131.6427 1016.0414,-141.6427 1023.0414,-141.6426"/>
</g>
<!-- Node25 -->
<g id="node26" class="node">
<title>Node25</title>
<polygon fill="none" stroke="#bfbfbf" points="1107.5413,-112.5 1107.5413,-131.5 1159.5413,-131.5 1159.5413,-112.5 1107.5413,-112.5"/>
<text text-anchor="middle" x="1133.5413" y="-119.5" font-family="Helvetica,sans-Serif" font-size="10.00" fill="#000000">cassert</text>
</g>
<!-- Node2&#45;&gt;Node25 -->
<g id="edge33" class="edge">
<title>Node2&#45;&gt;Node25</title>
<path fill="none" stroke="#191970" d="M1039.1386,-168.3733C1057.2744,-159.4644 1084.4548,-146.1127 1105,-136.0203"/>
<polygon fill="#191970" stroke="#191970" points="1106.7674,-139.0517 1114.1997,-131.5011 1103.681,-132.7688 1106.7674,-139.0517"/>
</g>
<!-- Node3&#45;&gt;Node4 -->
<g id="edge4" class="edge">
<title>Node3&#45;&gt;Node4</title>
<path fill="none" stroke="#191970" d="M88.6127,-56.2455C80.3575,-48.1352 68.4204,-36.4075 58.6331,-26.7919"/>
<polygon fill="#191970" stroke="#191970" points="60.9424,-24.1542 51.3562,-19.6427 56.0367,-29.1476 60.9424,-24.1542"/>
</g>
<!-- Node7 -->
<g id="node8" class="node">
<title>Node7</title>
<polygon fill="none" stroke="#bfbfbf" points="928.0413,-56.5 928.0413,-75.5 997.0413,-75.5 997.0413,-56.5 928.0413,-56.5"/>
<text text-anchor="middle" x="962.5413" y="-63.5" font-family="Helvetica,sans-Serif" font-size="10.00" fill="#000000">type_traits</text>
</g>
<!-- Node6&#45;&gt;Node7 -->
<g id="edge7" class="edge">
<title>Node6&#45;&gt;Node7</title>
<path fill="none" stroke="#191970" d="M810.172,-112.3733C840.9009,-103.021 887.7173,-88.7725 921.3435,-78.5385"/>
<polygon fill="#191970" stroke="#191970" points="922.7757,-81.7612 931.3233,-75.5011 920.7375,-75.0644 922.7757,-81.7612"/>
</g>
<!-- Node8&#45;&gt;Node3 -->
<g id="edge11" class="edge">
<title>Node8&#45;&gt;Node3</title>
<path fill="none" stroke="#191970" d="M1215.76,-115.4491C1200.2135,-114.1646 1183.8299,-112.9293 1168.5413,-112 738.5473,-85.8646 627.1872,-106.658 193.5496,-76.0219"/>
<polygon fill="#191970" stroke="#191970" points="193.7954,-72.5306 183.5722,-75.312 193.2986,-79.513 193.7954,-72.5306"/>
</g>
<!-- Node8&#45;&gt;Node5 -->
<g id="edge10" class="edge">
<title>Node8&#45;&gt;Node5</title>
<path fill="none" stroke="#191970" d="M1254.051,-112.3733C1222.3511,-102.9807 1173.9837,-88.6496 1139.4127,-78.4064"/>
<polygon fill="#191970" stroke="#191970" points="1140.1899,-74.9863 1129.6076,-75.5011 1138.2012,-81.6979 1140.1899,-74.9863"/>
</g>
<!-- Node9 -->
<g id="node10" class="node">
<title>Node9</title>
<g id="a_node10"><a xlink:href="../../dd/dc2/BasicOps_8h.html" target="_top" xlink:title="Framework/BasicOps.h">
<polygon fill="none" stroke="#000000" points="719.5413,-56.5 719.5413,-75.5 847.5413,-75.5 847.5413,-56.5 719.5413,-56.5"/>
<text text-anchor="middle" x="783.5413" y="-63.5" font-family="Helvetica,sans-Serif" font-size="10.00" fill="#000000">Framework/BasicOps.h</text>
</a>
</g>
</g>
<!-- Node8&#45;&gt;Node9 -->
<g id="edge9" class="edge">
<title>Node8&#45;&gt;Node9</title>
<path fill="none" stroke="#191970" d="M1215.7049,-115.0702C1132.5804,-106.7924 990.3165,-92.1717 857.9458,-76.1428"/>
<polygon fill="#191970" stroke="#191970" points="857.9709,-72.6201 847.6215,-74.8872 857.1258,-79.5689 857.9709,-72.6201"/>
</g>
<!-- Node10 -->
<g id="node11" class="node">
<title>Node10</title>
<polygon fill="none" stroke="#bfbfbf" points="1374.5413,-56.5 1374.5413,-75.5 1452.5413,-75.5 1452.5413,-56.5 1374.5413,-56.5"/>
<text text-anchor="middle" x="1413.5413" y="-63.5" font-family="Helvetica,sans-Serif" font-size="10.00" fill="#000000">arrow/type.h</text>
</g>
<!-- Node8&#45;&gt;Node10 -->
<g id="edge12" class="edge">
<title>Node8&#45;&gt;Node10</title>
<path fill="none" stroke="#191970" d="M1308.3734,-112.3733C1328.8516,-103.3435 1359.6812,-89.7494 1382.6732,-79.6111"/>
<polygon fill="#191970" stroke="#191970" points="1384.2563,-82.7383 1391.9941,-75.5011 1381.432,-76.3333 1384.2563,-82.7383"/>
</g>
<!-- Node8&#45;&gt;Node11 -->
<g id="edge13" class="edge">
<title>Node8&#45;&gt;Node11</title>
<path fill="none" stroke="#191970" d="M1357.3932,-115.6435C1461.1673,-106.191 1650.6129,-88.3604 1736.0627,-76.0769"/>
<polygon fill="#191970" stroke="#191970" points="1736.578,-79.5388 1745.9552,-74.6073 1735.5494,-72.6148 1736.578,-79.5388"/>
</g>
<!-- Node8&#45;&gt;Node12 -->
<g id="edge14" class="edge">
<title>Node8&#45;&gt;Node12</title>
<path fill="none" stroke="#191970" d="M1349.3846,-112.4369C1413.8204,-102.6314 1513.941,-87.3957 1581.7749,-77.0731"/>
<polygon fill="#191970" stroke="#191970" points="1582.5976,-80.4883 1591.9572,-75.5237 1581.5444,-73.568 1582.5976,-80.4883"/>
</g>
<!-- Node13 -->
<g id="node14" class="node">
<title>Node13</title>
<polygon fill="none" stroke="#bfbfbf" points="1470.5413,-56.5 1470.5413,-75.5 1562.5413,-75.5 1562.5413,-56.5 1470.5413,-56.5"/>
<text text-anchor="middle" x="1516.5413" y="-63.5" font-family="Helvetica,sans-Serif" font-size="10.00" fill="#000000">gandiva/node.h</text>
</g>
<!-- Node8&#45;&gt;Node13 -->
<g id="edge15" class="edge">
<title>Node8&#45;&gt;Node13</title>
<path fill="none" stroke="#191970" d="M1325.8184,-112.4369C1365.0157,-102.8932 1425.3413,-88.2052 1467.6248,-77.9101"/>
<polygon fill="#191970" stroke="#191970" points="1468.5381,-81.2901 1477.4262,-75.5237 1466.8821,-74.4888 1468.5381,-81.2901"/>
</g>
<!-- Node14 -->
<g id="node15" class="node">
<title>Node14</title>
<polygon fill="none" stroke="#bfbfbf" points="1198.0413,-56.5 1198.0413,-75.5 1287.0413,-75.5 1287.0413,-56.5 1198.0413,-56.5"/>
<text text-anchor="middle" x="1242.5413" y="-63.5" font-family="Helvetica,sans-Serif" font-size="10.00" fill="#000000">gandiva/filter.h</text>
</g>
<!-- Node8&#45;&gt;Node14 -->
<g id="edge16" class="edge">
<title>Node8&#45;&gt;Node14</title>
<path fill="none" stroke="#191970" d="M1278.8771,-112.2455C1272.694,-104.3761 1263.835,-93.101 1256.4124,-83.6542"/>
<polygon fill="#191970" stroke="#191970" points="1259.0481,-81.3435 1250.1177,-75.6427 1253.5438,-85.6683 1259.0481,-81.3435"/>
</g>
<!-- Node15 -->
<g id="node16" class="node">
<title>Node15</title>
<polygon fill="none" stroke="#bfbfbf" points="1305.0413,-56.5 1305.0413,-75.5 1356.0413,-75.5 1356.0413,-56.5 1305.0413,-56.5"/>
<text text-anchor="middle" x="1330.5413" y="-63.5" font-family="Helvetica,sans-Serif" font-size="10.00" fill="#000000">variant</text>
</g>
<!-- Node8&#45;&gt;Node15 -->
<g id="edge17" class="edge">
<title>Node8&#45;&gt;Node15</title>
<path fill="none" stroke="#191970" d="M1294.2055,-112.2455C1300.3886,-104.3761 1309.2476,-93.101 1316.6701,-83.6542"/>
<polygon fill="#191970" stroke="#191970" points="1319.5388,-85.6683 1322.9649,-75.6427 1314.0345,-81.3435 1319.5388,-85.6683"/>
</g>
<!-- Node8&#45;&gt;Node16 -->
<g id="edge18" class="edge">
<title>Node8&#45;&gt;Node16</title>
<path fill="none" stroke="#191970" d="M1215.6712,-114.6376C1125.3548,-104.9906 974.3708,-87.9038 919.5413,-76 919.4418,-75.9784 919.3421,-75.9566 919.2423,-75.9347"/>
<polygon fill="#191970" stroke="#191970" points="920.3412,-72.6033 909.7851,-73.5076 918.6011,-79.3836 920.3412,-72.6033"/>
</g>
<!-- Node8&#45;&gt;Node17 -->
<g id="edge19" class="edge">
<title>Node8&#45;&gt;Node17</title>
<path fill="none" stroke="#191970" d="M1357.3627,-120.0091C1460.626,-116.2373 1658.5731,-105.7259 1835.1997,-75.9707"/>
<polygon fill="#191970" stroke="#191970" points="1835.9264,-79.3973 1845.1937,-74.2624 1834.7469,-72.4974 1835.9264,-79.3973"/>
</g>
<!-- Node18&#45;&gt;Node9 -->
<g id="edge21" class="edge">
<title>Node18&#45;&gt;Node9</title>
<path fill="none" stroke="#191970" d="M606.3292,-112.3733C642.6074,-102.8799 698.1649,-88.3415 737.3859,-78.0781"/>
<polygon fill="#191970" stroke="#191970" points="738.4453,-81.4188 747.2334,-75.5011 736.6731,-74.6468 738.4453,-81.4188"/>
</g>
<!-- Node18&#45;&gt;Node16 -->
<g id="edge26" class="edge">
<title>Node18&#45;&gt;Node16</title>
<path fill="none" stroke="#191970" d="M629.2638,-113.5282C695.9926,-103.881 800.851,-88.136 855.4082,-75.9351"/>
<polygon fill="#191970" stroke="#191970" points="856.3646,-79.306 865.3062,-73.6228 854.7722,-72.4895 856.3646,-79.306"/>
</g>
<!-- Node18&#45;&gt;Node19 -->
<g id="edge22" class="edge">
<title>Node18&#45;&gt;Node19</title>
<path fill="none" stroke="#191970" d="M518.1396,-112.4369C465.9764,-102.7321 385.2216,-87.708 329.7767,-77.3926"/>
<polygon fill="#191970" stroke="#191970" points="330.2025,-73.9119 319.731,-75.5237 328.9221,-80.7938 330.2025,-73.9119"/>
</g>
<!-- Node20 -->
<g id="node21" class="node">
<title>Node20</title>
<polygon fill="none" stroke="#bfbfbf" points="353.5413,-56.5 353.5413,-75.5 439.5413,-75.5 439.5413,-56.5 353.5413,-56.5"/>
<text text-anchor="middle" x="396.5413" y="-63.5" font-family="Helvetica,sans-Serif" font-size="10.00" fill="#000000">arrow/status.h</text>
</g>
<!-- Node18&#45;&gt;Node20 -->
<g id="edge23" class="edge">
<title>Node18&#45;&gt;Node20</title>
<path fill="none" stroke="#191970" d="M539.8015,-112.3733C511.0343,-103.0613 467.2713,-88.8953 435.6857,-78.671"/>
<polygon fill="#191970" stroke="#191970" points="436.4849,-75.251 425.893,-75.5011 434.329,-81.9107 436.4849,-75.251"/>
</g>
<!-- Node21 -->
<g id="node22" class="node">
<title>Node21</title>
<polygon fill="none" stroke="#bfbfbf" points="457.5413,-56.5 457.5413,-75.5 573.5413,-75.5 573.5413,-56.5 457.5413,-56.5"/>
<text text-anchor="middle" x="515.5413" y="-63.5" font-family="Helvetica,sans-Serif" font-size="10.00" fill="#000000">arrow/util/visibility.h</text>
</g>
<!-- Node18&#45;&gt;Node21 -->
<g id="edge24" class="edge">
<title>Node18&#45;&gt;Node21</title>
<path fill="none" stroke="#191970" d="M560.1352,-112.2455C552.392,-104.2155 541.2293,-92.6394 532.0095,-83.0781"/>
<polygon fill="#191970" stroke="#191970" points="534.3004,-80.4117 524.8396,-75.6427 529.2615,-85.2706 534.3004,-80.4117"/>
</g>
<!-- Node18&#45;&gt;Node22 -->
<g id="edge25" class="edge">
<title>Node18&#45;&gt;Node22</title>
<path fill="none" stroke="#191970" d="M582.9537,-112.2455C594.547,-103.814 611.516,-91.4729 625.0091,-81.6598"/>
<polygon fill="#191970" stroke="#191970" points="627.2539,-84.355 633.2826,-75.6427 623.1366,-78.6938 627.2539,-84.355"/>
</g>
<!-- Node32&#45;&gt;Node17 -->
<g id="edge46" class="edge">
<title>Node32&#45;&gt;Node17</title>
<path fill="none" stroke="#191970" d="M1785.9729,-224.4696C1817.804,-215.7264 1859.401,-202.0371 1869.5413,-188 1891.3732,-157.7782 1885.5675,-111.4997 1879.7946,-85.491"/>
<polygon fill="#191970" stroke="#191970" points="1883.1742,-84.5764 1877.4031,-75.6913 1876.3737,-86.236 1883.1742,-84.5764"/>
</g>
</g>
</svg>
        <g id="navigator" transform="translate(0 0)" fill="#404254">
                <rect fill="#f2f5e9" fill-opacity="0.5" stroke="#606060" stroke-width=".5" x="0" y="0" width="60" height="60"/>
                <use id="zoomplus" xlink:href="#zoomPlus" x="17" y="9" onmousedown="handleZoom(evt,'in')"/>
                <use id="zoomminus" xlink:href="#zoomMin" x="42" y="9" onmousedown="handleZoom(evt,'out')"/>
                <use id="reset" xlink:href="#resetDef" x="30" y="36" onmousedown="handleReset()"/>
                <g id="arrowUp" xlink:href="#dirArrow" transform="translate(30 24)" onmousedown="handlePan(0,-1)">
                  <use xlink:href="#rim" fill="#404040">
                        <set attributeName="fill" to="#808080" begin="arrowUp.mouseover" end="arrowUp.mouseout"/>
                  </use>
                  <path fill="none" stroke="white" stroke-width="1.5" d="M0,-3.0v7 M-2.5,-0.5L0,-3.0L2.5,-0.5"/>
                </g>
                <g id="arrowRight" xlink:href="#dirArrow" transform="rotate(90) translate(36 -43)" onmousedown="handlePan(1,0)">
                  <use xlink:href="#rim" fill="#404040">
                        <set attributeName="fill" to="#808080" begin="arrowRight.mouseover" end="arrowRight.mouseout"/>
                  </use>
                  <path fill="none" stroke="white" stroke-width="1.5" d="M0,-3.0v7 M-2.5,-0.5L0,-3.0L2.5,-0.5"/>
                </g>
                <g id="arrowDown" xlink:href="#dirArrow" transform="rotate(180) translate(-30 -48)" onmousedown="handlePan(0,1)">
                  <use xlink:href="#rim" fill="#404040">
                        <set attributeName="fill" to="#808080" begin="arrowDown.mouseover" end="arrowDown.mouseout"/>
                  </use>
                  <path fill="none" stroke="white" stroke-width="1.5" d="M0,-3.0v7 M-2.5,-0.5L0,-3.0L2.5,-0.5"/>
                </g>
                <g id="arrowLeft" xlink:href="#dirArrow" transform="rotate(270) translate(-36 17)" onmousedown="handlePan(-1,0)">
                  <use xlink:href="#rim" fill="#404040">
                        <set attributeName="fill" to="#808080" begin="arrowLeft.mouseover" end="arrowLeft.mouseout"/>
                  </use>
                  <path fill="none" stroke="white" stroke-width="1.5" d="M0,-3.0v7 M-2.5,-0.5L0,-3.0L2.5,-0.5"/>
                </g>
        </g>
        <svg viewBox="0 0 15 15" width="100%" height="30px" preserveAspectRatio="xMaxYMin meet">
         <g id="arrow_out" transform="scale(0.3 0.3)">
          <a xlink:href="benchmark__TableBuilder_8cxx__incl_org.svg" target="_base">
           <rect id="button" ry="5" rx="5" y="6" x="6" height="38" width="38"
                fill="#f2f5e9" fill-opacity="0.5" stroke="#606060" stroke-width="1.0"/>
           <path id="arrow"
             d="M 11.500037,31.436501 C 11.940474,20.09759 22.043105,11.32322 32.158766,21.979434 L 37.068811,17.246167 C 37.068811,17.246167 37.088388,32 37.088388,32 L 22.160133,31.978069 C 22.160133,31.978069 26.997745,27.140456 26.997745,27.140456 C 18.528582,18.264221 13.291696,25.230495 11.500037,31.436501 z"
             style="fill:#404040;"/>
          </a>
         </g>
        </svg>
</svg>
