<?xml version="1.0" encoding="UTF-8" standalone="no"?>
<!DOCTYPE svg PUBLIC "-//W3C//DTD SVG 1.1//EN"
 "http://www.w3.org/Graphics/SVG/1.1/DTD/svg11.dtd">
<!-- Generated by graphviz version 2.40.1 (20161225.0304)
 -->
<!-- Title: /home/travis/build/AliceO2Group/AliceO2/Detectors/MUON/MCH/Mapping/Impl3/src/CathodeSegmentationImpl3.cxx Pages: 1 -->
<!--zoomable 307 -->
<svg id="main" version="1.1" xmlns="http://www.w3.org/2000/svg" xmlns:xlink="http://www.w3.org/1999/xlink" xml:space="preserve" onload="init(evt)">
<style type="text/css"><![CDATA[
.edge:hover path { stroke: red; }
.edge:hover polygon { stroke: red; fill: red; }
]]></style>
<script type="text/javascript"><![CDATA[
var edges = document.getElementsByTagName('g');
if (edges && edges.length) {
  for (var i=0;i<edges.length;i++) {
    if (edges[i].id.substr(0,4)=='edge') {
      edges[i].setAttribute('class','edge');
    }
  }
}
]]></script>
        <defs>
                <circle id="rim" cx="0" cy="0" r="7"/>
                <circle id="rim2" cx="0" cy="0" r="3.5"/>
                <g id="zoomPlus">
                        <use xlink:href="#rim" fill="#404040">
                                <set attributeName="fill" to="#808080" begin="zoomplus.mouseover" end="zoomplus.mouseout"/>
                        </use>
                        <path d="M-4,0h8M0,-4v8" fill="none" stroke="white" stroke-width="1.5" pointer-events="none"/>
                </g>
                <g id="zoomMin">
                        <use xlink:href="#rim" fill="#404040">
                                <set attributeName="fill" to="#808080" begin="zoomminus.mouseover" end="zoomminus.mouseout"/>
                        </use>
                        <path d="M-4,0h8" fill="none" stroke="white" stroke-width="1.5" pointer-events="none"/>
                </g>
                <g id="dirArrow">
                        <path fill="none" stroke="white" stroke-width="1.5" d="M0,-3.0v7 M-2.5,-0.5L0,-3.0L2.5,-0.5"/>
                </g>
               <g id="resetDef">
                       <use xlink:href="#rim2" fill="#404040">
                               <set attributeName="fill" to="#808080" begin="reset.mouseover" end="reset.mouseout"/>
                       </use>
               </g>
        </defs>

<script type="text/javascript">
var viewWidth = 1324;
var viewHeight = 307;
var sectionId = 'dynsection-0';
</script>
<script xlink:href="../../svgpan.js"/>
<svg id="graph" class="graph">
<g id="viewport">
<title>/home/travis/build/AliceO2Group/AliceO2/Detectors/MUON/MCH/Mapping/Impl3/src/CathodeSegmentationImpl3.cxx</title>
<!-- Node0 -->
<g id="node1" class="node">
<title>Node0</title>
<polygon fill="#bfbfbf" stroke="#000000" points="650,-246.5 650,-298.5 874,-298.5 874,-246.5 650,-246.5"/>
<text text-anchor="start" x="658" y="-286.5" font-family="Helvetica,sans-Serif" font-size="10.00" fill="#000000">/home/travis/build</text>
<text text-anchor="start" x="658" y="-275.5" font-family="Helvetica,sans-Serif" font-size="10.00" fill="#000000">/AliceO2Group/AliceO2</text>
<text text-anchor="start" x="658" y="-264.5" font-family="Helvetica,sans-Serif" font-size="10.00" fill="#000000">/Detectors/MUON/MCH/Mapping</text>
<text text-anchor="middle" x="762" y="-253.5" font-family="Helvetica,sans-Serif" font-size="10.00" fill="#000000">/Impl3/src/CathodeSegmentationImpl3.cxx</text>
</g>
<!-- Node1 -->
<g id="node2" class="node">
<title>Node1</title>
<g id="a_node2"><a xlink:href="../../d2/db3/CathodeSegmentationImpl3_8h.html" target="_top" xlink:title="CathodeSegmentationImpl3.h">
<polygon fill="none" stroke="#000000" points="95,-123.5 95,-142.5 257,-142.5 257,-123.5 95,-123.5"/>
<text text-anchor="middle" x="176" y="-130.5" font-family="Helvetica,sans-Serif" font-size="10.00" fill="#000000">CathodeSegmentationImpl3.h</text>
</a>
</g>
</g>
<!-- Node0&#45;&gt;Node1 -->
<g id="edge1" class="edge">
<title>Node0&#45;&gt;Node1</title>
<path fill="none" stroke="#191970" d="M649.6747,-270.0924C468.8563,-265.042 129.6755,-250.2615 93,-210 83.7218,-199.8146 86.0068,-190.8711 93,-179 101.7946,-164.071 117.3717,-153.6447 132.6742,-146.541"/>
<polygon fill="#191970" stroke="#191970" points="134.2671,-149.6672 142.1035,-142.5368 131.531,-143.224 134.2671,-149.6672"/>
</g>
<!-- Node2 -->
<g id="node3" class="node">
<title>Node2</title>
<g id="a_node3"><a xlink:href="../../dc/d0f/PadGroup_8h.html" target="_top" xlink:title="PadGroup.h">
<polygon fill="none" stroke="#000000" points="0,-62 0,-81 72,-81 72,-62 0,-62"/>
<text text-anchor="middle" x="36" y="-69" font-family="Helvetica,sans-Serif" font-size="10.00" fill="#000000">PadGroup.h</text>
</a>
</g>
</g>
<!-- Node0&#45;&gt;Node2 -->
<g id="edge13" class="edge">
<title>Node0&#45;&gt;Node2</title>
<path fill="none" stroke="#191970" d="M649.7157,-268.7806C468.2727,-261.7981 126.4283,-244.245 83,-210 46.4023,-181.1412 38.1235,-122.4653 36.3688,-91.5655"/>
<polygon fill="#191970" stroke="#191970" points="39.8521,-91.061 35.9703,-81.2029 32.8572,-91.3301 39.8521,-91.061"/>
</g>
<!-- Node5 -->
<g id="node6" class="node">
<title>Node5</title>
<polygon fill="none" stroke="#bfbfbf" points="436.5,-.5 436.5,-19.5 483.5,-19.5 483.5,-.5 436.5,-.5"/>
<text text-anchor="middle" x="460" y="-7.5" font-family="Helvetica,sans-Serif" font-size="10.00" fill="#000000">vector</text>
</g>
<!-- Node0&#45;&gt;Node5 -->
<g id="edge32" class="edge">
<title>Node0&#45;&gt;Node5</title>
<path fill="none" stroke="#191970" d="M780.6934,-246.2372C798.5751,-221.8173 824.8519,-187.9059 839,-179 897.8159,-141.9768 1028.6675,-177.0664 985,-123 922.5593,-45.6897 600.056,-18.778 493.9123,-11.938"/>
<polygon fill="#191970" stroke="#191970" points="493.9602,-8.4343 483.7612,-11.3031 493.5232,-15.4206 493.9602,-8.4343"/>
</g>
<!-- Node6 -->
<g id="node7" class="node">
<title>Node6</title>
<polygon fill="none" stroke="#bfbfbf" points="422,-62 422,-81 454,-81 454,-62 422,-62"/>
<text text-anchor="middle" x="438" y="-69" font-family="Helvetica,sans-Serif" font-size="10.00" fill="#000000">set</text>
</g>
<!-- Node0&#45;&gt;Node6 -->
<g id="edge29" class="edge">
<title>Node0&#45;&gt;Node6</title>
<path fill="none" stroke="#191970" d="M649.9087,-257.8657C526.8676,-239.0434 341.816,-201.6155 305,-143 267.2143,-82.8406 346.4628,-111.943 406,-87 408.2098,-86.0742 410.4851,-85.0729 412.7552,-84.0401"/>
<polygon fill="#191970" stroke="#191970" points="414.3298,-87.1672 421.877,-79.7315 411.3401,-80.8378 414.3298,-87.1672"/>
</g>
<!-- Node8 -->
<g id="node9" class="node">
<title>Node8</title>
<polygon fill="none" stroke="#bfbfbf" points="313.5,-123.5 313.5,-142.5 414.5,-142.5 414.5,-123.5 313.5,-123.5"/>
<text text-anchor="middle" x="364" y="-130.5" font-family="Helvetica,sans-Serif" font-size="10.00" fill="#000000">boost/format.hpp</text>
</g>
<!-- Node0&#45;&gt;Node8 -->
<g id="edge11" class="edge">
<title>Node0&#45;&gt;Node8</title>
<path fill="none" stroke="#191970" d="M649.7528,-249.2627C607.5113,-239.1198 559.4498,-225.8822 517,-210 470.0044,-192.417 418.4896,-164.5599 388.8307,-147.6118"/>
<polygon fill="#191970" stroke="#191970" points="390.4136,-144.4843 380.0026,-142.5193 386.9158,-150.5478 390.4136,-144.4843"/>
</g>
<!-- Node9 -->
<g id="node10" class="node">
<title>Node9</title>
<g id="a_node10"><a xlink:href="../../dc/de3/GenDetElemId2SegType_8h.html" target="_top" xlink:title="GenDetElemId2SegType.h">
<polygon fill="none" stroke="#000000" points="847.5,-185 847.5,-204 990.5,-204 990.5,-185 847.5,-185"/>
<text text-anchor="middle" x="919" y="-192" font-family="Helvetica,sans-Serif" font-size="10.00" fill="#000000">GenDetElemId2SegType.h</text>
</a>
</g>
</g>
<!-- Node0&#45;&gt;Node9 -->
<g id="edge12" class="edge">
<title>Node0&#45;&gt;Node9</title>
<path fill="none" stroke="#191970" d="M814.7155,-246.3101C840.0538,-233.7217 869.4242,-219.13 890.5265,-208.6461"/>
<polygon fill="#191970" stroke="#191970" points="892.1978,-211.724 899.5962,-204.1401 889.0832,-205.455 892.1978,-211.724"/>
</g>
<!-- Node10 -->
<g id="node11" class="node">
<title>Node10</title>
<g id="a_node11"><a xlink:href="../../d4/dec/PadSize_8h.html" target="_top" xlink:title="PadSize.h">
<polygon fill="none" stroke="#000000" points="1008.5,-185 1008.5,-204 1071.5,-204 1071.5,-185 1008.5,-185"/>
<text text-anchor="middle" x="1040" y="-192" font-family="Helvetica,sans-Serif" font-size="10.00" fill="#000000">PadSize.h</text>
</a>
</g>
</g>
<!-- Node0&#45;&gt;Node10 -->
<g id="edge14" class="edge">
<title>Node0&#45;&gt;Node10</title>
<path fill="none" stroke="#191970" d="M871.7549,-246.4368C912.3421,-236.077 958.5456,-223.4275 1000,-210 1002.2717,-209.2642 1004.6018,-208.4695 1006.94,-207.6424"/>
<polygon fill="#191970" stroke="#191970" points="1008.2994,-210.8715 1016.4694,-204.126 1005.876,-204.3043 1008.2994,-210.8715"/>
</g>
<!-- Node11 -->
<g id="node12" class="node">
<title>Node11</title>
<g id="a_node12"><a xlink:href="../../df/db6/CathodeSegmentation_8h.html" target="_top" xlink:title="MCHMappingInterface\l/CathodeSegmentation.h">
<polygon fill="none" stroke="#000000" points="577.5,-179.5 577.5,-209.5 714.5,-209.5 714.5,-179.5 577.5,-179.5"/>
<text text-anchor="start" x="585.5" y="-197.5" font-family="Helvetica,sans-Serif" font-size="10.00" fill="#000000">MCHMappingInterface</text>
<text text-anchor="middle" x="646" y="-186.5" font-family="Helvetica,sans-Serif" font-size="10.00" fill="#000000">/CathodeSegmentation.h</text>
</a>
</g>
</g>
<!-- Node0&#45;&gt;Node11 -->
<g id="edge15" class="edge">
<title>Node0&#45;&gt;Node11</title>
<path fill="none" stroke="#191970" d="M723.051,-246.3101C708.0073,-236.1945 691.04,-224.7855 676.8645,-215.2537"/>
<polygon fill="#191970" stroke="#191970" points="678.6926,-212.2653 668.4411,-209.5897 674.7866,-218.0742 678.6926,-212.2653"/>
</g>
<!-- Node13 -->
<g id="node14" class="node">
<title>Node13</title>
<polygon fill="none" stroke="#bfbfbf" points="432.5,-123.5 432.5,-142.5 497.5,-142.5 497.5,-123.5 432.5,-123.5"/>
<text text-anchor="middle" x="465" y="-130.5" font-family="Helvetica,sans-Serif" font-size="10.00" fill="#000000">stdexcept</text>
</g>
<!-- Node0&#45;&gt;Node13 -->
<g id="edge30" class="edge">
<title>Node0&#45;&gt;Node13</title>
<path fill="none" stroke="#191970" d="M660.3401,-246.3539C630.1234,-236.8013 597.4984,-224.6649 569,-210 536.3142,-193.1804 502.9247,-166.4051 483.084,-149.272"/>
<polygon fill="#191970" stroke="#191970" points="485.2774,-146.5403 475.4519,-142.5767 480.6611,-151.8025 485.2774,-146.5403"/>
</g>
<!-- Node14 -->
<g id="node15" class="node">
<title>Node14</title>
<polygon fill="none" stroke="#bfbfbf" points="840,-123.5 840,-142.5 898,-142.5 898,-123.5 840,-123.5"/>
<text text-anchor="middle" x="869" y="-130.5" font-family="Helvetica,sans-Serif" font-size="10.00" fill="#000000">memory</text>
</g>
<!-- Node0&#45;&gt;Node14 -->
<g id="edge28" class="edge">
<title>Node0&#45;&gt;Node14</title>
<path fill="none" stroke="#191970" d="M756.5504,-246.394C753.8526,-226.2418 753.5936,-198.5844 767,-179 774.7354,-167.6999 804.888,-154.8943 830.4198,-145.6689"/>
<polygon fill="#191970" stroke="#191970" points="831.6549,-148.9447 839.9224,-142.3191 829.3276,-142.3428 831.6549,-148.9447"/>
</g>
<!-- Node15 -->
<g id="node16" class="node">
<title>Node15</title>
<polygon fill="none" stroke="#bfbfbf" points="916,-123.5 916,-142.5 976,-142.5 976,-123.5 916,-123.5"/>
<text text-anchor="middle" x="946" y="-130.5" font-family="Helvetica,sans-Serif" font-size="10.00" fill="#000000">iostream</text>
</g>
<!-- Node0&#45;&gt;Node15 -->
<g id="edge26" class="edge">
<title>Node0&#45;&gt;Node15</title>
<path fill="none" stroke="#191970" d="M767.8368,-246.4305C773.8138,-225.474 785.1187,-196.7046 805,-179 812.7669,-172.0835 866.8895,-155.5756 905.7638,-144.3375"/>
<polygon fill="#191970" stroke="#191970" points="907.1311,-147.5863 915.7762,-141.4615 905.1985,-140.8584 907.1311,-147.5863"/>
</g>
<!-- Node17 -->
<g id="node18" class="node">
<title>Node17</title>
<g id="a_node18"><a xlink:href="../../d4/d1d/CathodeSegmentationCreator_8h.html" target="_top" xlink:title="CathodeSegmentationCreator.h">
<polygon fill="none" stroke="#000000" points="102,-185 102,-204 272,-204 272,-185 102,-185"/>
<text text-anchor="middle" x="187" y="-192" font-family="Helvetica,sans-Serif" font-size="10.00" fill="#000000">CathodeSegmentationCreator.h</text>
</a>
</g>
</g>
<!-- Node0&#45;&gt;Node17 -->
<g id="edge23" class="edge">
<title>Node0&#45;&gt;Node17</title>
<path fill="none" stroke="#191970" d="M649.848,-258.5693C553.322,-246.3895 410.3662,-227.8977 286,-210 276.314,-208.6061 266.1049,-207.0764 256.0702,-205.5379"/>
<polygon fill="#191970" stroke="#191970" points="256.5364,-202.0685 246.1194,-204.0011 255.468,-208.9865 256.5364,-202.0685"/>
</g>
<!-- Node18 -->
<g id="node19" class="node">
<title>Node18</title>
<polygon fill="none" stroke="#bfbfbf" points="1090,-185 1090,-204 1132,-204 1132,-185 1090,-185"/>
<text text-anchor="middle" x="1111" y="-192" font-family="Helvetica,sans-Serif" font-size="10.00" fill="#000000">array</text>
</g>
<!-- Node0&#45;&gt;Node18 -->
<g id="edge25" class="edge">
<title>Node0&#45;&gt;Node18</title>
<path fill="none" stroke="#191970" d="M874.0304,-258.497C936.1441,-248.7732 1014.1157,-233.2976 1081,-210 1082.4186,-209.5058 1083.8539,-208.9553 1085.2881,-208.3647"/>
<polygon fill="#191970" stroke="#191970" points="1086.9618,-211.4464 1094.5538,-204.0563 1084.0104,-205.099 1086.9618,-211.4464"/>
</g>
<!-- Node19 -->
<g id="node20" class="node">
<title>Node19</title>
<polygon fill="none" stroke="#bfbfbf" points="1150,-185 1150,-204 1188,-204 1188,-185 1150,-185"/>
<text text-anchor="middle" x="1169" y="-192" font-family="Helvetica,sans-Serif" font-size="10.00" fill="#000000">map</text>
</g>
<!-- Node0&#45;&gt;Node19 -->
<g id="edge27" class="edge">
<title>Node0&#45;&gt;Node19</title>
<path fill="none" stroke="#191970" d="M874.3491,-264.118C951.1051,-255.9575 1054.23,-240.1587 1141,-210 1142.2399,-209.569 1143.4894,-209.0856 1144.7362,-208.5631"/>
<polygon fill="#191970" stroke="#191970" points="1146.5912,-211.5521 1154.0358,-204.0136 1143.5151,-205.2642 1146.5912,-211.5521"/>
</g>
<!-- Node20 -->
<g id="node21" class="node">
<title>Node20</title>
<polygon fill="none" stroke="#bfbfbf" points="1206,-185 1206,-204 1250,-204 1250,-185 1206,-185"/>
<text text-anchor="middle" x="1228" y="-192" font-family="Helvetica,sans-Serif" font-size="10.00" fill="#000000">string</text>
</g>
<!-- Node0&#45;&gt;Node20 -->
<g id="edge31" class="edge">
<title>Node0&#45;&gt;Node20</title>
<path fill="none" stroke="#191970" d="M874.1235,-266.2937C963.2843,-259.0153 1090.3235,-243.3703 1197,-210 1198.6582,-209.4813 1200.3368,-208.8824 1202.01,-208.228"/>
<polygon fill="#191970" stroke="#191970" points="1203.6578,-211.3251 1211.3554,-204.0451 1200.7981,-204.9359 1203.6578,-211.3251"/>
</g>
<!-- Node21 -->
<g id="node22" class="node">
<title>Node21</title>
<polygon fill="none" stroke="#bfbfbf" points="1268,-185 1268,-204 1316,-204 1316,-185 1268,-185"/>
<text text-anchor="middle" x="1292" y="-192" font-family="Helvetica,sans-Serif" font-size="10.00" fill="#000000">gsl/gsl</text>
</g>
<!-- Node0&#45;&gt;Node21 -->
<g id="edge33" class="edge">
<title>Node0&#45;&gt;Node21</title>
<path fill="none" stroke="#191970" d="M874.0682,-268.4258C976.1448,-262.3751 1130.16,-247.3423 1259,-210 1260.915,-209.445 1262.8584,-208.7918 1264.7942,-208.0732"/>
<polygon fill="#191970" stroke="#191970" points="1266.3916,-211.198 1274.2431,-204.0843 1263.6691,-204.7491 1266.3916,-211.198"/>
</g>
<!-- Node1&#45;&gt;Node2 -->
<g id="edge2" class="edge">
<title>Node1&#45;&gt;Node2</title>
<path fill="none" stroke="#191970" d="M154.125,-123.3906C130.7004,-113.1005 93.3404,-96.6888 66.9159,-85.0809"/>
<polygon fill="#191970" stroke="#191970" points="68.2846,-81.8594 57.7214,-81.0419 65.4693,-88.2683 68.2846,-81.8594"/>
</g>
<!-- Node3 -->
<g id="node4" class="node">
<title>Node3</title>
<polygon fill="none" stroke="#bfbfbf" points="71.5,-.5 71.5,-19.5 128.5,-19.5 128.5,-.5 71.5,-.5"/>
<text text-anchor="middle" x="100" y="-7.5" font-family="Helvetica,sans-Serif" font-size="10.00" fill="#000000">ostream</text>
</g>
<!-- Node1&#45;&gt;Node3 -->
<g id="edge9" class="edge">
<title>Node1&#45;&gt;Node3</title>
<path fill="none" stroke="#191970" d="M158.9942,-123.4947C146.1072,-115.4214 128.9695,-102.662 119,-87 107.9464,-69.6349 103.3233,-46.2918 101.3898,-29.8749"/>
<polygon fill="#191970" stroke="#191970" points="104.8607,-29.4008 100.435,-19.7746 97.8918,-30.0596 104.8607,-29.4008"/>
</g>
<!-- Node4 -->
<g id="node5" class="node">
<title>Node4</title>
<g id="a_node5"><a xlink:href="../../dd/d31/PadGroupType_8h.html" target="_top" xlink:title="PadGroupType.h">
<polygon fill="none" stroke="#000000" points="128.5,-62 128.5,-81 223.5,-81 223.5,-62 128.5,-62"/>
<text text-anchor="middle" x="176" y="-69" font-family="Helvetica,sans-Serif" font-size="10.00" fill="#000000">PadGroupType.h</text>
</a>
</g>
</g>
<!-- Node1&#45;&gt;Node4 -->
<g id="edge4" class="edge">
<title>Node1&#45;&gt;Node4</title>
<path fill="none" stroke="#191970" d="M176,-123.3906C176,-114.8657 176,-102.1392 176,-91.4235"/>
<polygon fill="#191970" stroke="#191970" points="179.5001,-91.2448 176,-81.2449 172.5001,-91.2449 179.5001,-91.2448"/>
</g>
<!-- Node1&#45;&gt;Node5 -->
<g id="edge7" class="edge">
<title>Node1&#45;&gt;Node5</title>
<path fill="none" stroke="#191970" d="M257.2294,-123.7845C294.6506,-117.1873 338.7029,-105.9711 375,-87 382.7744,-82.9367 420.1229,-47.9808 442.6459,-26.5888"/>
<polygon fill="#191970" stroke="#191970" points="445.0931,-29.0915 449.9214,-19.6607 440.2659,-24.0221 445.0931,-29.0915"/>
</g>
<!-- Node1&#45;&gt;Node6 -->
<g id="edge8" class="edge">
<title>Node1&#45;&gt;Node6</title>
<path fill="none" stroke="#191970" d="M251.8675,-123.4645C297.8893,-116.3365 357.3194,-104.7177 408,-87 409.4527,-86.4922 410.9229,-85.9255 412.3917,-85.3174"/>
<polygon fill="#191970" stroke="#191970" points="414.2892,-88.2939 421.8656,-80.8879 411.3244,-81.9528 414.2892,-88.2939"/>
</g>
<!-- Node7 -->
<g id="node8" class="node">
<title>Node7</title>
<polygon fill="none" stroke="#bfbfbf" points="242,-56.5 242,-86.5 366,-86.5 366,-56.5 242,-56.5"/>
<text text-anchor="start" x="250" y="-74.5" font-family="Helvetica,sans-Serif" font-size="10.00" fill="#000000">boost/geometry/index</text>
<text text-anchor="middle" x="304" y="-63.5" font-family="Helvetica,sans-Serif" font-size="10.00" fill="#000000">/rtree.hpp</text>
</g>
<!-- Node1&#45;&gt;Node7 -->
<g id="edge10" class="edge">
<title>Node1&#45;&gt;Node7</title>
<path fill="none" stroke="#191970" d="M196,-123.3906C214.045,-114.7205 241.1352,-101.7046 263.6688,-90.8779"/>
<polygon fill="#191970" stroke="#191970" points="265.1899,-94.0302 272.6877,-86.5446 262.1583,-87.7206 265.1899,-94.0302"/>
</g>
<!-- Node2&#45;&gt;Node3 -->
<g id="edge3" class="edge">
<title>Node2&#45;&gt;Node3</title>
<path fill="none" stroke="#191970" d="M46,-61.8906C55.7119,-52.5581 70.6639,-38.1902 82.3741,-26.9374"/>
<polygon fill="#191970" stroke="#191970" points="85.0736,-29.1974 89.859,-19.7449 80.2234,-24.15 85.0736,-29.1974"/>
</g>
<!-- Node4&#45;&gt;Node3 -->
<g id="edge6" class="edge">
<title>Node4&#45;&gt;Node3</title>
<path fill="none" stroke="#191970" d="M164.125,-61.8906C152.3703,-52.3786 134.1514,-37.6357 120.1328,-26.2917"/>
<polygon fill="#191970" stroke="#191970" points="122.0178,-23.3146 112.0424,-19.7449 117.6144,-28.7562 122.0178,-23.3146"/>
</g>
<!-- Node4&#45;&gt;Node5 -->
<g id="edge5" class="edge">
<title>Node4&#45;&gt;Node5</title>
<path fill="none" stroke="#191970" d="M209.6638,-61.9531C217.3116,-59.8938 225.4162,-57.7975 233,-56 301.28,-39.8165 381.9537,-24.3213 426.3952,-16.0963"/>
<polygon fill="#191970" stroke="#191970" points="427.1591,-19.5146 436.3601,-14.2617 425.8916,-12.6303 427.1591,-19.5146"/>
</g>
<!-- Node11&#45;&gt;Node5 -->
<g id="edge20" class="edge">
<title>Node11&#45;&gt;Node5</title>
<path fill="none" stroke="#191970" d="M604.5892,-179.3436C585.0035,-170.7674 562.2009,-158.6063 545,-143 508.2887,-109.692 481.0185,-57.0497 468.1767,-29.0268"/>
<polygon fill="#191970" stroke="#191970" points="471.2371,-27.2953 463.9719,-19.5838 464.8424,-30.1428 471.2371,-27.2953"/>
</g>
<!-- Node11&#45;&gt;Node8 -->
<g id="edge21" class="edge">
<title>Node11&#45;&gt;Node8</title>
<path fill="none" stroke="#191970" d="M577.3756,-179.534C528.2671,-168.8242 463.0883,-154.6097 417.7454,-144.7211"/>
<polygon fill="#191970" stroke="#191970" points="418.3296,-141.2663 407.8135,-142.5551 416.838,-148.1055 418.3296,-141.2663"/>
</g>
<!-- Node12 -->
<g id="node13" class="node">
<title>Node12</title>
<g id="a_node13"><a xlink:href="../../d0/dc7/CathodeSegmentationCInterface_8h.html" target="_top" xlink:title="CathodeSegmentationCInterface.h">
<polygon fill="none" stroke="#000000" points="553.5,-123.5 553.5,-142.5 738.5,-142.5 738.5,-123.5 553.5,-123.5"/>
<text text-anchor="middle" x="646" y="-130.5" font-family="Helvetica,sans-Serif" font-size="10.00" fill="#000000">CathodeSegmentationCInterface.h</text>
</a>
</g>
</g>
<!-- Node11&#45;&gt;Node12 -->
<g id="edge16" class="edge">
<title>Node11&#45;&gt;Node12</title>
<path fill="none" stroke="#191970" d="M646,-179.2977C646,-171.3834 646,-161.6043 646,-153.0759"/>
<polygon fill="#191970" stroke="#191970" points="649.5001,-152.8469 646,-142.8469 642.5001,-152.847 649.5001,-152.8469"/>
</g>
<!-- Node11&#45;&gt;Node13 -->
<g id="edge17" class="edge">
<title>Node11&#45;&gt;Node13</title>
<path fill="none" stroke="#191970" d="M601.7224,-179.4554C571.3896,-169.149 531.5871,-155.6249 502.7556,-145.8286"/>
<polygon fill="#191970" stroke="#191970" points="503.643,-142.4336 493.0486,-142.5303 501.3909,-149.0615 503.643,-142.4336"/>
</g>
<!-- Node11&#45;&gt;Node14 -->
<g id="edge18" class="edge">
<title>Node11&#45;&gt;Node14</title>
<path fill="none" stroke="#191970" d="M700.5519,-179.4554C740.5711,-168.4187 793.9694,-153.6923 829.8214,-143.8049"/>
<polygon fill="#191970" stroke="#191970" points="831.1862,-147.0592 839.8958,-141.0265 829.3252,-140.3111 831.1862,-147.0592"/>
</g>
<!-- Node11&#45;&gt;Node15 -->
<g id="edge19" class="edge">
<title>Node11&#45;&gt;Node15</title>
<path fill="none" stroke="#191970" d="M714.6388,-182.0468C765.0342,-172.6519 835.3647,-159.02 905.8606,-143.1711"/>
<polygon fill="#191970" stroke="#191970" points="906.8261,-146.5412 915.8069,-140.9203 905.281,-139.7139 906.8261,-146.5412"/>
</g>
<!-- Node16 -->
<g id="node17" class="node">
<title>Node16</title>
<polygon fill="none" stroke="#bfbfbf" points="756.5,-123.5 756.5,-142.5 821.5,-142.5 821.5,-123.5 756.5,-123.5"/>
<text text-anchor="middle" x="789" y="-130.5" font-family="Helvetica,sans-Serif" font-size="10.00" fill="#000000">functional</text>
</g>
<!-- Node11&#45;&gt;Node16 -->
<g id="edge22" class="edge">
<title>Node11&#45;&gt;Node16</title>
<path fill="none" stroke="#191970" d="M680.9817,-179.4554C704.3184,-169.419 734.7498,-156.3314 757.363,-146.6061"/>
<polygon fill="#191970" stroke="#191970" points="759.0364,-149.6965 766.8401,-142.5303 756.2708,-143.2659 759.0364,-149.6965"/>
</g>
<!-- Node17&#45;&gt;Node1 -->
<g id="edge24" class="edge">
<title>Node17&#45;&gt;Node1</title>
<path fill="none" stroke="#191970" d="M185.2813,-184.8906C183.7565,-176.3657 181.4802,-163.6392 179.5636,-152.9235"/>
<polygon fill="#191970" stroke="#191970" points="182.9491,-151.9724 177.743,-142.7449 176.0584,-153.2049 182.9491,-151.9724"/>
</g>
</g>
</svg>
        <g id="navigator" transform="translate(0 0)" fill="#404254">
                <rect fill="#f2f5e9" fill-opacity="0.5" stroke="#606060" stroke-width=".5" x="0" y="0" width="60" height="60"/>
                <use id="zoomplus" xlink:href="#zoomPlus" x="17" y="9" onmousedown="handleZoom(evt,'in')"/>
                <use id="zoomminus" xlink:href="#zoomMin" x="42" y="9" onmousedown="handleZoom(evt,'out')"/>
                <use id="reset" xlink:href="#resetDef" x="30" y="36" onmousedown="handleReset()"/>
                <g id="arrowUp" xlink:href="#dirArrow" transform="translate(30 24)" onmousedown="handlePan(0,-1)">
                  <use xlink:href="#rim" fill="#404040">
                        <set attributeName="fill" to="#808080" begin="arrowUp.mouseover" end="arrowUp.mouseout"/>
                  </use>
                  <path fill="none" stroke="white" stroke-width="1.5" d="M0,-3.0v7 M-2.5,-0.5L0,-3.0L2.5,-0.5"/>
                </g>
                <g id="arrowRight" xlink:href="#dirArrow" transform="rotate(90) translate(36 -43)" onmousedown="handlePan(1,0)">
                  <use xlink:href="#rim" fill="#404040">
                        <set attributeName="fill" to="#808080" begin="arrowRight.mouseover" end="arrowRight.mouseout"/>
                  </use>
                  <path fill="none" stroke="white" stroke-width="1.5" d="M0,-3.0v7 M-2.5,-0.5L0,-3.0L2.5,-0.5"/>
                </g>
                <g id="arrowDown" xlink:href="#dirArrow" transform="rotate(180) translate(-30 -48)" onmousedown="handlePan(0,1)">
                  <use xlink:href="#rim" fill="#404040">
                        <set attributeName="fill" to="#808080" begin="arrowDown.mouseover" end="arrowDown.mouseout"/>
                  </use>
                  <path fill="none" stroke="white" stroke-width="1.5" d="M0,-3.0v7 M-2.5,-0.5L0,-3.0L2.5,-0.5"/>
                </g>
                <g id="arrowLeft" xlink:href="#dirArrow" transform="rotate(270) translate(-36 17)" onmousedown="handlePan(-1,0)">
                  <use xlink:href="#rim" fill="#404040">
                        <set attributeName="fill" to="#808080" begin="arrowLeft.mouseover" end="arrowLeft.mouseout"/>
                  </use>
                  <path fill="none" stroke="white" stroke-width="1.5" d="M0,-3.0v7 M-2.5,-0.5L0,-3.0L2.5,-0.5"/>
                </g>
        </g>
        <svg viewBox="0 0 15 15" width="100%" height="30px" preserveAspectRatio="xMaxYMin meet">
         <g id="arrow_out" transform="scale(0.3 0.3)">
          <a xlink:href="CathodeSegmentationImpl3_8cxx__incl_org.svg" target="_base">
           <rect id="button" ry="5" rx="5" y="6" x="6" height="38" width="38"
                fill="#f2f5e9" fill-opacity="0.5" stroke="#606060" stroke-width="1.0"/>
           <path id="arrow"
             d="M 11.500037,31.436501 C 11.940474,20.09759 22.043105,11.32322 32.158766,21.979434 L 37.068811,17.246167 C 37.068811,17.246167 37.088388,32 37.088388,32 L 22.160133,31.978069 C 22.160133,31.978069 26.997745,27.140456 26.997745,27.140456 C 18.528582,18.264221 13.291696,25.230495 11.500037,31.436501 z"
             style="fill:#404040;"/>
          </a>
         </g>
        </svg>
</svg>
