<?xml version="1.0" encoding="UTF-8" standalone="no"?>
<!DOCTYPE svg PUBLIC "-//W3C//DTD SVG 1.1//EN"
 "http://www.w3.org/Graphics/SVG/1.1/DTD/svg11.dtd">
<!-- Generated by graphviz version 2.40.1 (20161225.0304)
 -->
<!-- Title: /home/travis/build/AliceO2Group/AliceO2/Detectors/MUON/MCH/Raw/Encoder/Payload/ElinkEncoderMerger.h Pages: 1 -->
<svg width="458pt" height="339pt"
 viewBox="0.00 0.00 457.50 339.00" xmlns="http://www.w3.org/2000/svg" xmlns:xlink="http://www.w3.org/1999/xlink">
<g id="graph0" class="graph" transform="scale(1 1) rotate(0) translate(4 335)">
<title>/home/travis/build/AliceO2Group/AliceO2/Detectors/MUON/MCH/Raw/Encoder/Payload/ElinkEncoderMerger.h</title>
<!-- Node4 -->
<g id="node1" class="node">
<title>Node4</title>
<polygon fill="#bfbfbf" stroke="#000000" points="88,-278.5 88,-330.5 296,-330.5 296,-278.5 88,-278.5"/>
<text text-anchor="start" x="96" y="-318.5" font-family="Helvetica,sans-Serif" font-size="10.00" fill="#000000">/home/travis/build</text>
<text text-anchor="start" x="96" y="-307.5" font-family="Helvetica,sans-Serif" font-size="10.00" fill="#000000">/AliceO2Group/AliceO2</text>
<text text-anchor="start" x="96" y="-296.5" font-family="Helvetica,sans-Serif" font-size="10.00" fill="#000000">/Detectors/MUON/MCH/Raw</text>
<text text-anchor="middle" x="192" y="-285.5" font-family="Helvetica,sans-Serif" font-size="10.00" fill="#000000">/Encoder/Payload/ElinkEncoderMerger.h</text>
</g>
<!-- Node5 -->
<g id="node2" class="node">
<title>Node5</title>
<g id="a_node2"><a xlink:href="../../d8/d2e/BareElinkEncoderMerger_8h.html" target="_top" xlink:title="/home/travis/build\l/AliceO2Group/AliceO2\l/Detectors/MUON/MCH/Raw\l/Encoder/Payload/BareElinkEncoder\lMerger.h">
<polygon fill="none" stroke="#000000" points="0,-178.5 0,-241.5 188,-241.5 188,-178.5 0,-178.5"/>
<text text-anchor="start" x="8" y="-229.5" font-family="Helvetica,sans-Serif" font-size="10.00" fill="#000000">/home/travis/build</text>
<text text-anchor="start" x="8" y="-218.5" font-family="Helvetica,sans-Serif" font-size="10.00" fill="#000000">/AliceO2Group/AliceO2</text>
<text text-anchor="start" x="8" y="-207.5" font-family="Helvetica,sans-Serif" font-size="10.00" fill="#000000">/Detectors/MUON/MCH/Raw</text>
<text text-anchor="start" x="8" y="-196.5" font-family="Helvetica,sans-Serif" font-size="10.00" fill="#000000">/Encoder/Payload/BareElinkEncoder</text>
<text text-anchor="middle" x="94" y="-185.5" font-family="Helvetica,sans-Serif" font-size="10.00" fill="#000000">Merger.h</text>
</a>
</g>
</g>
<!-- Node4&#45;&gt;Node5 -->
<g id="edge1" class="edge">
<title>Node4&#45;&gt;Node5</title>
<path fill="none" stroke="#191970" d="M157.547,-271.2774C147.5857,-261.6719 136.7424,-251.2158 126.8796,-241.7054"/>
<polygon fill="#191970" stroke="#191970" points="155.3337,-274.0054 164.9616,-278.4273 160.1927,-268.9665 155.3337,-274.0054"/>
</g>
<!-- Node8 -->
<g id="node5" class="node">
<title>Node8</title>
<g id="a_node5"><a xlink:href="../../d4/d54/GBTEncoder_8h.html" target="_top" xlink:title="/home/travis/build\l/AliceO2Group/AliceO2\l/Detectors/MUON/MCH/Raw\l/Encoder/Payload/GBTEncoder.h">
<polygon fill="none" stroke="#000000" points="206,-184 206,-236 376,-236 376,-184 206,-184"/>
<text text-anchor="start" x="214" y="-224" font-family="Helvetica,sans-Serif" font-size="10.00" fill="#000000">/home/travis/build</text>
<text text-anchor="start" x="214" y="-213" font-family="Helvetica,sans-Serif" font-size="10.00" fill="#000000">/AliceO2Group/AliceO2</text>
<text text-anchor="start" x="214" y="-202" font-family="Helvetica,sans-Serif" font-size="10.00" fill="#000000">/Detectors/MUON/MCH/Raw</text>
<text text-anchor="middle" x="291" y="-191" font-family="Helvetica,sans-Serif" font-size="10.00" fill="#000000">/Encoder/Payload/GBTEncoder.h</text>
</a>
</g>
</g>
<!-- Node4&#45;&gt;Node8 -->
<g id="edge4" class="edge">
<title>Node4&#45;&gt;Node8</title>
<path fill="none" stroke="#191970" d="M226.6225,-271.4512C238.676,-259.9457 252.0269,-247.2016 263.4312,-236.3157"/>
<polygon fill="#191970" stroke="#191970" points="224.1312,-268.9908 219.3143,-278.4273 228.9645,-274.0543 224.1312,-268.9908"/>
</g>
<!-- Node6 -->
<g id="node3" class="node">
<title>Node6</title>
<g id="a_node3"><a xlink:href="../../d6/d9c/MUON_2MCH_2Raw_2Encoder_2Payload_2Encoder_8cxx.html" target="_top" xlink:title="/home/travis/build\l/AliceO2Group/AliceO2\l/Detectors/MUON/MCH/Raw\l/Encoder/Payload/Encoder.cxx">
<polygon fill="none" stroke="#000000" points="115.5,-.5 115.5,-52.5 276.5,-52.5 276.5,-.5 115.5,-.5"/>
<text text-anchor="start" x="123.5" y="-40.5" font-family="Helvetica,sans-Serif" font-size="10.00" fill="#000000">/home/travis/build</text>
<text text-anchor="start" x="123.5" y="-29.5" font-family="Helvetica,sans-Serif" font-size="10.00" fill="#000000">/AliceO2Group/AliceO2</text>
<text text-anchor="start" x="123.5" y="-18.5" font-family="Helvetica,sans-Serif" font-size="10.00" fill="#000000">/Detectors/MUON/MCH/Raw</text>
<text text-anchor="middle" x="196" y="-7.5" font-family="Helvetica,sans-Serif" font-size="10.00" fill="#000000">/Encoder/Payload/Encoder.cxx</text>
</a>
</g>
</g>
<!-- Node5&#45;&gt;Node6 -->
<g id="edge2" class="edge">
<title>Node5&#45;&gt;Node6</title>
<path fill="none" stroke="#191970" d="M61.2076,-169.9212C45.2266,-145.26 32.6301,-113.7481 49,-89 64.2229,-65.986 89.819,-51.4202 115.4252,-42.212"/>
<polygon fill="#191970" stroke="#191970" points="58.4269,-172.0555 66.9595,-178.3361 64.2059,-168.1054 58.4269,-172.0555"/>
</g>
<!-- Node7 -->
<g id="node4" class="node">
<title>Node7</title>
<g id="a_node4"><a xlink:href="../../d5/dd6/testGBTEncoder_8cxx.html" target="_top" xlink:title="/home/travis/build\l/AliceO2Group/AliceO2\l/Detectors/MUON/MCH/Raw\l/Encoder/Payload/testGBTEncoder.cxx">
<polygon fill="none" stroke="#000000" points="58,-89.5 58,-141.5 258,-141.5 258,-89.5 58,-89.5"/>
<text text-anchor="start" x="66" y="-129.5" font-family="Helvetica,sans-Serif" font-size="10.00" fill="#000000">/home/travis/build</text>
<text text-anchor="start" x="66" y="-118.5" font-family="Helvetica,sans-Serif" font-size="10.00" fill="#000000">/AliceO2Group/AliceO2</text>
<text text-anchor="start" x="66" y="-107.5" font-family="Helvetica,sans-Serif" font-size="10.00" fill="#000000">/Detectors/MUON/MCH/Raw</text>
<text text-anchor="middle" x="158" y="-96.5" font-family="Helvetica,sans-Serif" font-size="10.00" fill="#000000">/Encoder/Payload/testGBTEncoder.cxx</text>
</a>
</g>
</g>
<!-- Node5&#45;&gt;Node7 -->
<g id="edge3" class="edge">
<title>Node5&#45;&gt;Node7</title>
<path fill="none" stroke="#191970" d="M121.2918,-169.702C127.7231,-160.2058 134.4137,-150.3266 140.2939,-141.6442"/>
<polygon fill="#191970" stroke="#191970" points="118.1987,-168.0275 115.4891,-178.27 123.9946,-171.9528 118.1987,-168.0275"/>
</g>
<!-- Node8&#45;&gt;Node7 -->
<g id="edge7" class="edge">
<title>Node8&#45;&gt;Node7</title>
<path fill="none" stroke="#191970" d="M245.8575,-177.925C229.3112,-166.1685 210.7914,-153.0097 195.0369,-141.8157"/>
<polygon fill="#191970" stroke="#191970" points="244.126,-180.9883 254.3051,-183.9273 248.1805,-175.2821 244.126,-180.9883"/>
</g>
<!-- Node9 -->
<g id="node6" class="node">
<title>Node9</title>
<g id="a_node6"><a xlink:href="../../df/da6/EncoderImpl_8h.html" target="_top" xlink:title="/home/travis/build\l/AliceO2Group/AliceO2\l/Detectors/MUON/MCH/Raw\l/Encoder/Payload/EncoderImpl.h">
<polygon fill="none" stroke="#000000" points="276.5,-89.5 276.5,-141.5 449.5,-141.5 449.5,-89.5 276.5,-89.5"/>
<text text-anchor="start" x="284.5" y="-129.5" font-family="Helvetica,sans-Serif" font-size="10.00" fill="#000000">/home/travis/build</text>
<text text-anchor="start" x="284.5" y="-118.5" font-family="Helvetica,sans-Serif" font-size="10.00" fill="#000000">/AliceO2Group/AliceO2</text>
<text text-anchor="start" x="284.5" y="-107.5" font-family="Helvetica,sans-Serif" font-size="10.00" fill="#000000">/Detectors/MUON/MCH/Raw</text>
<text text-anchor="middle" x="363" y="-96.5" font-family="Helvetica,sans-Serif" font-size="10.00" fill="#000000">/Encoder/Payload/EncoderImpl.h</text>
</a>
</g>
</g>
<!-- Node8&#45;&gt;Node9 -->
<g id="edge5" class="edge">
<title>Node8&#45;&gt;Node9</title>
<path fill="none" stroke="#191970" d="M316.9265,-175.9714C325.4946,-164.7258 334.8907,-152.3935 342.95,-141.8157"/>
<polygon fill="#191970" stroke="#191970" points="314.1414,-173.8518 310.8649,-183.9273 319.7094,-178.0941 314.1414,-173.8518"/>
</g>
<!-- Node9&#45;&gt;Node6 -->
<g id="edge6" class="edge">
<title>Node9&#45;&gt;Node6</title>
<path fill="none" stroke="#191970" d="M304.953,-84.5648C285.3473,-74.1162 263.6714,-62.5644 244.8506,-52.5341"/>
<polygon fill="#191970" stroke="#191970" points="303.3266,-87.664 313.7977,-89.2784 306.6189,-81.4865 303.3266,-87.664"/>
</g>
</g>
</svg>
