<?xml version="1.0" encoding="UTF-8" standalone="no"?>
<!DOCTYPE svg PUBLIC "-//W3C//DTD SVG 1.1//EN"
 "http://www.w3.org/Graphics/SVG/1.1/DTD/svg11.dtd">
<!-- Generated by graphviz version 2.40.1 (20161225.0304)
 -->
<!-- Title: /home/travis/build/AliceO2Group/AliceO2/Detectors/CPV/reconstruction/src/FullCluster.cxx Pages: 1 -->
<svg width="948pt" height="430pt"
 viewBox="0.00 0.00 947.50 430.00" xmlns="http://www.w3.org/2000/svg" xmlns:xlink="http://www.w3.org/1999/xlink">
<g id="graph0" class="graph" transform="scale(1 1) rotate(0) translate(4 426)">
<title>/home/travis/build/AliceO2Group/AliceO2/Detectors/CPV/reconstruction/src/FullCluster.cxx</title>
<!-- Node0 -->
<g id="node1" class="node">
<title>Node0</title>
<polygon fill="#bfbfbf" stroke="#000000" points="355.5,-369.5 355.5,-421.5 517.5,-421.5 517.5,-369.5 355.5,-369.5"/>
<text text-anchor="start" x="363.5" y="-409.5" font-family="Helvetica,sans-Serif" font-size="10.00" fill="#000000">/home/travis/build</text>
<text text-anchor="start" x="363.5" y="-398.5" font-family="Helvetica,sans-Serif" font-size="10.00" fill="#000000">/AliceO2Group/AliceO2</text>
<text text-anchor="start" x="363.5" y="-387.5" font-family="Helvetica,sans-Serif" font-size="10.00" fill="#000000">/Detectors/CPV/reconstruction</text>
<text text-anchor="middle" x="436.5" y="-376.5" font-family="Helvetica,sans-Serif" font-size="10.00" fill="#000000">/src/FullCluster.cxx</text>
</g>
<!-- Node1 -->
<g id="node2" class="node">
<title>Node1</title>
<g id="a_node2"><a xlink:href="../../d1/d8b/DataFormats_2Detectors_2CPV_2include_2DataFormatsCPV_2Cluster_8h.html" target="_top" xlink:title="DataFormatsCPV/Cluster.h">
<polygon fill="none" stroke="#000000" points="31,-252 31,-271 176,-271 176,-252 31,-252"/>
<text text-anchor="middle" x="103.5" y="-259" font-family="Helvetica,sans-Serif" font-size="10.00" fill="#000000">DataFormatsCPV/Cluster.h</text>
</a>
</g>
</g>
<!-- Node0&#45;&gt;Node1 -->
<g id="edge1" class="edge">
<title>Node0&#45;&gt;Node1</title>
<path fill="none" stroke="#191970" d="M355.2273,-382.9179C286.5358,-371.2105 194.3742,-352.6555 162.5,-333 141.2009,-319.8657 124.0099,-296.3105 113.7938,-279.838"/>
<polygon fill="#191970" stroke="#191970" points="116.7175,-277.9062 108.6064,-271.0899 110.6964,-281.4766 116.7175,-277.9062"/>
</g>
<!-- Node7 -->
<g id="node8" class="node">
<title>Node7</title>
<g id="a_node8"><a xlink:href="../../db/d2a/CPV_2reconstruction_2include_2CPVReconstruction_2FullCluster_8h.html" target="_top" xlink:title="CPVReconstruction/FullCluster.h">
<polygon fill="none" stroke="#000000" points="171.5,-313.5 171.5,-332.5 341.5,-332.5 341.5,-313.5 171.5,-313.5"/>
<text text-anchor="middle" x="256.5" y="-320.5" font-family="Helvetica,sans-Serif" font-size="10.00" fill="#000000">CPVReconstruction/FullCluster.h</text>
</a>
</g>
</g>
<!-- Node0&#45;&gt;Node7 -->
<g id="edge7" class="edge">
<title>Node0&#45;&gt;Node7</title>
<path fill="none" stroke="#191970" d="M371.7702,-369.4283C343.9019,-358.2035 312.5159,-345.5619 289.5391,-336.3074"/>
<polygon fill="#191970" stroke="#191970" points="290.8251,-333.0522 280.2416,-332.5626 288.2098,-339.5453 290.8251,-333.0522"/>
</g>
<!-- Node10 -->
<g id="node11" class="node">
<title>Node10</title>
<g id="a_node11"><a xlink:href="../../de/ddd/CPV_2base_2include_2CPVBase_2Geometry_8h.html" target="_top" xlink:title="CPVBase/Geometry.h">
<polygon fill="none" stroke="#000000" points="377,-313.5 377,-332.5 496,-332.5 496,-313.5 377,-313.5"/>
<text text-anchor="middle" x="436.5" y="-320.5" font-family="Helvetica,sans-Serif" font-size="10.00" fill="#000000">CPVBase/Geometry.h</text>
</a>
</g>
</g>
<!-- Node0&#45;&gt;Node10 -->
<g id="edge13" class="edge">
<title>Node0&#45;&gt;Node10</title>
<path fill="none" stroke="#191970" d="M436.5,-369.3258C436.5,-360.5142 436.5,-350.8397 436.5,-342.621"/>
<polygon fill="#191970" stroke="#191970" points="440.0001,-342.534 436.5,-332.534 433.0001,-342.534 440.0001,-342.534"/>
</g>
<!-- Node14 -->
<g id="node15" class="node">
<title>Node14</title>
<g id="a_node15"><a xlink:href="../../de/d2a/CPVSimParams_8h.html" target="_top" xlink:title="CPVBase/CPVSimParams.h">
<polygon fill="none" stroke="#000000" points="514.5,-313.5 514.5,-332.5 660.5,-332.5 660.5,-313.5 514.5,-313.5"/>
<text text-anchor="middle" x="587.5" y="-320.5" font-family="Helvetica,sans-Serif" font-size="10.00" fill="#000000">CPVBase/CPVSimParams.h</text>
</a>
</g>
</g>
<!-- Node0&#45;&gt;Node14 -->
<g id="edge17" class="edge">
<title>Node0&#45;&gt;Node14</title>
<path fill="none" stroke="#191970" d="M491.0145,-369.3258C513.8509,-358.3613 539.4698,-346.0608 558.567,-336.8917"/>
<polygon fill="#191970" stroke="#191970" points="560.1431,-340.0175 567.643,-332.534 557.1133,-333.7072 560.1431,-340.0175"/>
</g>
<!-- Node26 -->
<g id="node27" class="node">
<title>Node26</title>
<polygon fill="none" stroke="#bfbfbf" points="679,-313.5 679,-332.5 754,-332.5 754,-313.5 679,-313.5"/>
<text text-anchor="middle" x="716.5" y="-320.5" font-family="Helvetica,sans-Serif" font-size="10.00" fill="#000000">FairLogger.h</text>
</g>
<!-- Node0&#45;&gt;Node26 -->
<g id="edge31" class="edge">
<title>Node0&#45;&gt;Node26</title>
<path fill="none" stroke="#191970" d="M517.8637,-374.4326C567.238,-361.6482 628.4885,-345.7887 669.8176,-335.0874"/>
<polygon fill="#191970" stroke="#191970" points="670.8131,-338.4451 679.6165,-332.5502 669.0584,-331.6686 670.8131,-338.4451"/>
</g>
<!-- Node2 -->
<g id="node3" class="node">
<title>Node2</title>
<g id="a_node3"><a xlink:href="../../de/dfb/DataFormats_2Detectors_2CPV_2include_2DataFormatsCPV_2Digit_8h.html" target="_top" xlink:title="DataFormatsCPV/Digit.h">
<polygon fill="none" stroke="#000000" points="64.5,-185 64.5,-204 198.5,-204 198.5,-185 64.5,-185"/>
<text text-anchor="middle" x="131.5" y="-192" font-family="Helvetica,sans-Serif" font-size="10.00" fill="#000000">DataFormatsCPV/Digit.h</text>
</a>
</g>
</g>
<!-- Node1&#45;&gt;Node2 -->
<g id="edge2" class="edge">
<title>Node1&#45;&gt;Node2</title>
<path fill="none" stroke="#191970" d="M107.5117,-251.9005C111.6702,-241.95 118.2818,-226.1292 123.5117,-213.6147"/>
<polygon fill="#191970" stroke="#191970" points="126.8691,-214.658 127.4957,-204.0817 120.4104,-211.9588 126.8691,-214.658"/>
</g>
<!-- Node3 -->
<g id="node4" class="node">
<title>Node3</title>
<polygon fill="none" stroke="#bfbfbf" points="0,-118 0,-137 47,-137 47,-118 0,-118"/>
<text text-anchor="middle" x="23.5" y="-125" font-family="Helvetica,sans-Serif" font-size="10.00" fill="#000000">cmath</text>
</g>
<!-- Node2&#45;&gt;Node3 -->
<g id="edge3" class="edge">
<title>Node2&#45;&gt;Node3</title>
<path fill="none" stroke="#191970" d="M116.0262,-184.9005C98.142,-173.8057 68.4938,-155.4128 47.5862,-142.4424"/>
<polygon fill="#191970" stroke="#191970" points="49.2878,-139.3792 38.9451,-137.0817 45.5976,-145.3275 49.2878,-139.3792"/>
</g>
<!-- Node4 -->
<g id="node5" class="node">
<title>Node4</title>
<g id="a_node5"><a xlink:href="../../df/d5d/common_2include_2CommonDataFormat_2TimeStamp_8h.html" target="_top" xlink:title="CommonDataFormat/TimeStamp.h">
<polygon fill="none" stroke="#000000" points="65,-118 65,-137 252,-137 252,-118 65,-118"/>
<text text-anchor="middle" x="158.5" y="-125" font-family="Helvetica,sans-Serif" font-size="10.00" fill="#000000">CommonDataFormat/TimeStamp.h</text>
</a>
</g>
</g>
<!-- Node2&#45;&gt;Node4 -->
<g id="edge4" class="edge">
<title>Node2&#45;&gt;Node4</title>
<path fill="none" stroke="#191970" d="M135.3684,-184.9005C139.3784,-174.95 145.7539,-159.1292 150.797,-146.6147"/>
<polygon fill="#191970" stroke="#191970" points="154.1472,-147.6651 154.6387,-137.0817 147.6546,-145.0486 154.1472,-147.6651"/>
</g>
<!-- Node5 -->
<g id="node6" class="node">
<title>Node5</title>
<g id="a_node6"><a xlink:href="../../d2/d45/GPUCommonRtypes_8h.html" target="_top" xlink:title="GPUCommonRtypes.h">
<polygon fill="none" stroke="#000000" points="156,-56.5 156,-75.5 281,-75.5 281,-56.5 156,-56.5"/>
<text text-anchor="middle" x="218.5" y="-63.5" font-family="Helvetica,sans-Serif" font-size="10.00" fill="#000000">GPUCommonRtypes.h</text>
</a>
</g>
</g>
<!-- Node4&#45;&gt;Node5 -->
<g id="edge5" class="edge">
<title>Node4&#45;&gt;Node5</title>
<path fill="none" stroke="#191970" d="M167.875,-117.8906C176.9799,-108.5581 190.9974,-94.1902 201.9757,-82.9374"/>
<polygon fill="#191970" stroke="#191970" points="204.5148,-85.3468 208.9928,-75.7449 199.5043,-80.4586 204.5148,-85.3468"/>
</g>
<!-- Node6 -->
<g id="node7" class="node">
<title>Node6</title>
<polygon fill="none" stroke="#bfbfbf" points="189,-.5 189,-19.5 248,-19.5 248,-.5 189,-.5"/>
<text text-anchor="middle" x="218.5" y="-7.5" font-family="Helvetica,sans-Serif" font-size="10.00" fill="#000000">Rtypes.h</text>
</g>
<!-- Node5&#45;&gt;Node6 -->
<g id="edge6" class="edge">
<title>Node5&#45;&gt;Node6</title>
<path fill="none" stroke="#191970" d="M218.5,-56.2455C218.5,-48.9382 218.5,-38.6944 218.5,-29.7046"/>
<polygon fill="#191970" stroke="#191970" points="222.0001,-29.6426 218.5,-19.6427 215.0001,-29.6427 222.0001,-29.6426"/>
</g>
<!-- Node7&#45;&gt;Node1 -->
<g id="edge10" class="edge">
<title>Node7&#45;&gt;Node1</title>
<path fill="none" stroke="#191970" d="M232.5938,-313.3906C206.7695,-303.0103 165.4473,-286.4004 136.5295,-274.7766"/>
<polygon fill="#191970" stroke="#191970" points="137.8222,-271.5241 127.2384,-271.0419 135.2115,-278.019 137.8222,-271.5241"/>
</g>
<!-- Node7&#45;&gt;Node2 -->
<g id="edge9" class="edge">
<title>Node7&#45;&gt;Node2</title>
<path fill="none" stroke="#191970" d="M247.7769,-313.3784C234.3765,-298.665 207.8261,-269.7781 184.5,-246 172.9014,-234.1766 159.5231,-221.1817 149.1094,-211.2033"/>
<polygon fill="#191970" stroke="#191970" points="151.4533,-208.6021 141.8025,-204.2302 146.6205,-213.6662 151.4533,-208.6021"/>
</g>
<!-- Node8 -->
<g id="node9" class="node">
<title>Node8</title>
<polygon fill="none" stroke="#bfbfbf" points="232.5,-252 232.5,-271 280.5,-271 280.5,-252 232.5,-252"/>
<text text-anchor="middle" x="256.5" y="-259" font-family="Helvetica,sans-Serif" font-size="10.00" fill="#000000">gsl/gsl</text>
</g>
<!-- Node7&#45;&gt;Node8 -->
<g id="edge8" class="edge">
<title>Node7&#45;&gt;Node8</title>
<path fill="none" stroke="#191970" d="M256.5,-313.3906C256.5,-304.8657 256.5,-292.1392 256.5,-281.4235"/>
<polygon fill="#191970" stroke="#191970" points="260.0001,-281.2448 256.5,-271.2449 253.0001,-281.2449 260.0001,-281.2448"/>
</g>
<!-- Node9 -->
<g id="node10" class="node">
<title>Node9</title>
<g id="a_node10"><a xlink:href="../../d7/dcd/MCCompLabel_8h.html" target="_top" xlink:title="SimulationDataFormat\l/MCCompLabel.h">
<polygon fill="none" stroke="#000000" points="235,-179.5 235,-209.5 362,-209.5 362,-179.5 235,-179.5"/>
<text text-anchor="start" x="243" y="-197.5" font-family="Helvetica,sans-Serif" font-size="10.00" fill="#000000">SimulationDataFormat</text>
<text text-anchor="middle" x="298.5" y="-186.5" font-family="Helvetica,sans-Serif" font-size="10.00" fill="#000000">/MCCompLabel.h</text>
</a>
</g>
</g>
<!-- Node7&#45;&gt;Node9 -->
<g id="edge11" class="edge">
<title>Node7&#45;&gt;Node9</title>
<path fill="none" stroke="#191970" d="M265.7701,-313.3012C273.528,-304.5534 284.1606,-290.9527 289.5,-277 296.512,-258.6763 298.6108,-236.5036 299.0393,-219.7611"/>
<polygon fill="#191970" stroke="#191970" points="302.54,-219.6638 299.1145,-209.6381 295.5402,-219.6117 302.54,-219.6638"/>
</g>
<!-- Node9&#45;&gt;Node5 -->
<g id="edge12" class="edge">
<title>Node9&#45;&gt;Node5</title>
<path fill="none" stroke="#191970" d="M293.1941,-179.4758C286.7945,-162.3659 275.0597,-133.9438 260.5,-112 253.6131,-101.6204 244.4206,-91.2684 236.3916,-83.0206"/>
<polygon fill="#191970" stroke="#191970" points="238.7199,-80.3998 229.1634,-75.8255 233.7815,-85.3609 238.7199,-80.3998"/>
</g>
<!-- Node11 -->
<g id="node12" class="node">
<title>Node11</title>
<polygon fill="none" stroke="#bfbfbf" points="336.5,-252 336.5,-271 380.5,-271 380.5,-252 336.5,-252"/>
<text text-anchor="middle" x="358.5" y="-259" font-family="Helvetica,sans-Serif" font-size="10.00" fill="#000000">string</text>
</g>
<!-- Node10&#45;&gt;Node11 -->
<g id="edge14" class="edge">
<title>Node10&#45;&gt;Node11</title>
<path fill="none" stroke="#191970" d="M424.3125,-313.3906C412.063,-303.7324 392.9737,-288.6812 378.5023,-277.271"/>
<polygon fill="#191970" stroke="#191970" points="380.6217,-274.485 370.6019,-271.0419 376.2876,-279.9819 380.6217,-274.485"/>
</g>
<!-- Node12 -->
<g id="node13" class="node">
<title>Node12</title>
<polygon fill="none" stroke="#bfbfbf" points="398.5,-252 398.5,-271 482.5,-271 482.5,-252 398.5,-252"/>
<text text-anchor="middle" x="440.5" y="-259" font-family="Helvetica,sans-Serif" font-size="10.00" fill="#000000">RStringView.h</text>
</g>
<!-- Node10&#45;&gt;Node12 -->
<g id="edge15" class="edge">
<title>Node10&#45;&gt;Node12</title>
<path fill="none" stroke="#191970" d="M437.125,-313.3906C437.6795,-304.8657 438.5072,-292.1392 439.2042,-281.4235"/>
<polygon fill="#191970" stroke="#191970" points="442.7097,-281.451 439.8662,-271.2449 435.7244,-280.9966 442.7097,-281.451"/>
</g>
<!-- Node13 -->
<g id="node14" class="node">
<title>Node13</title>
<polygon fill="none" stroke="#bfbfbf" points="500.5,-252 500.5,-271 556.5,-271 556.5,-252 500.5,-252"/>
<text text-anchor="middle" x="528.5" y="-259" font-family="Helvetica,sans-Serif" font-size="10.00" fill="#000000">TMath.h</text>
</g>
<!-- Node10&#45;&gt;Node13 -->
<g id="edge16" class="edge">
<title>Node10&#45;&gt;Node13</title>
<path fill="none" stroke="#191970" d="M450.875,-313.3906C465.5931,-303.5519 488.6832,-288.1167 505.8589,-276.6351"/>
<polygon fill="#191970" stroke="#191970" points="507.8575,-279.5091 514.2259,-271.0419 503.9673,-273.6896 507.8575,-279.5091"/>
</g>
<!-- Node15 -->
<g id="node16" class="node">
<title>Node15</title>
<g id="a_node16"><a xlink:href="../../db/d2c/ConfigurableParam_8h.html" target="_top" xlink:title="SimConfig/ConfigurableParam.h">
<polygon fill="none" stroke="#000000" points="502.5,-185 502.5,-204 672.5,-204 672.5,-185 502.5,-185"/>
<text text-anchor="middle" x="587.5" y="-192" font-family="Helvetica,sans-Serif" font-size="10.00" fill="#000000">SimConfig/ConfigurableParam.h</text>
</a>
</g>
</g>
<!-- Node14&#45;&gt;Node15 -->
<g id="edge18" class="edge">
<title>Node14&#45;&gt;Node15</title>
<path fill="none" stroke="#191970" d="M587.5,-313.3416C587.5,-292.4114 587.5,-242.504 587.5,-214.4762"/>
<polygon fill="#191970" stroke="#191970" points="591.0001,-214.2704 587.5,-204.2705 584.0001,-214.2705 591.0001,-214.2704"/>
</g>
<!-- Node22 -->
<g id="node23" class="node">
<title>Node22</title>
<g id="a_node23"><a xlink:href="../../da/d6b/ConfigurableParamHelper_8h.html" target="_top" xlink:title="SimConfig/ConfigurableParam\lHelper.h">
<polygon fill="none" stroke="#000000" points="649,-246.5 649,-276.5 810,-276.5 810,-246.5 649,-246.5"/>
<text text-anchor="start" x="657" y="-264.5" font-family="Helvetica,sans-Serif" font-size="10.00" fill="#000000">SimConfig/ConfigurableParam</text>
<text text-anchor="middle" x="729.5" y="-253.5" font-family="Helvetica,sans-Serif" font-size="10.00" fill="#000000">Helper.h</text>
</a>
</g>
</g>
<!-- Node14&#45;&gt;Node22 -->
<g id="edge25" class="edge">
<title>Node14&#45;&gt;Node22</title>
<path fill="none" stroke="#191970" d="M609.6875,-313.3906C629.8842,-304.6435 660.2944,-291.4728 685.423,-280.5897"/>
<polygon fill="#191970" stroke="#191970" points="686.9776,-283.7306 694.7629,-276.5446 684.1955,-277.3072 686.9776,-283.7306"/>
</g>
<!-- Node16 -->
<g id="node17" class="node">
<title>Node16</title>
<polygon fill="none" stroke="#bfbfbf" points="308,-118 308,-137 355,-137 355,-118 308,-118"/>
<text text-anchor="middle" x="331.5" y="-125" font-family="Helvetica,sans-Serif" font-size="10.00" fill="#000000">vector</text>
</g>
<!-- Node15&#45;&gt;Node16 -->
<g id="edge19" class="edge">
<title>Node15&#45;&gt;Node16</title>
<path fill="none" stroke="#191970" d="M531.1303,-184.9138C485.48,-176.3376 419.8878,-162.1599 364.5,-143 362.855,-142.431 361.1826,-141.8053 359.5077,-141.1418"/>
<polygon fill="#191970" stroke="#191970" points="360.6284,-137.8132 350.0605,-137.0577 357.8506,-144.2385 360.6284,-137.8132"/>
</g>
<!-- Node17 -->
<g id="node18" class="node">
<title>Node17</title>
<polygon fill="none" stroke="#bfbfbf" points="373.5,-118 373.5,-137 411.5,-137 411.5,-118 373.5,-118"/>
<text text-anchor="middle" x="392.5" y="-125" font-family="Helvetica,sans-Serif" font-size="10.00" fill="#000000">map</text>
</g>
<!-- Node15&#45;&gt;Node17 -->
<g id="edge20" class="edge">
<title>Node15&#45;&gt;Node17</title>
<path fill="none" stroke="#191970" d="M548.5578,-184.9374C514.1871,-175.9258 463.0741,-161.1184 420.5,-143 419.5031,-142.5757 418.4955,-142.1262 417.4848,-141.6576"/>
<polygon fill="#191970" stroke="#191970" points="419.0034,-138.5034 408.5021,-137.0986 415.8354,-144.7455 419.0034,-138.5034"/>
</g>
<!-- Node18 -->
<g id="node19" class="node">
<title>Node18</title>
<polygon fill="none" stroke="#bfbfbf" points="430,-118 430,-137 523,-137 523,-118 430,-118"/>
<text text-anchor="middle" x="476.5" y="-125" font-family="Helvetica,sans-Serif" font-size="10.00" fill="#000000">unordered_map</text>
</g>
<!-- Node15&#45;&gt;Node18 -->
<g id="edge21" class="edge">
<title>Node15&#45;&gt;Node18</title>
<path fill="none" stroke="#191970" d="M571.5964,-184.9005C553.133,-173.7559 522.4701,-155.2477 500.9668,-142.2682"/>
<polygon fill="#191970" stroke="#191970" points="502.7441,-139.2529 492.3741,-137.0817 499.1267,-145.2458 502.7441,-139.2529"/>
</g>
<!-- Node19 -->
<g id="node20" class="node">
<title>Node19</title>
<polygon fill="none" stroke="#bfbfbf" points="541,-112.5 541,-142.5 654,-142.5 654,-112.5 541,-112.5"/>
<text text-anchor="start" x="549" y="-130.5" font-family="Helvetica,sans-Serif" font-size="10.00" fill="#000000">boost/property_tree</text>
<text text-anchor="middle" x="597.5" y="-119.5" font-family="Helvetica,sans-Serif" font-size="10.00" fill="#000000">/ptree.hpp</text>
</g>
<!-- Node15&#45;&gt;Node19 -->
<g id="edge22" class="edge">
<title>Node15&#45;&gt;Node19</title>
<path fill="none" stroke="#191970" d="M588.9328,-184.9005C590.1851,-176.5099 592.0604,-163.9451 593.7375,-152.7085"/>
<polygon fill="#191970" stroke="#191970" points="597.2433,-152.9289 595.2579,-142.5218 590.32,-151.8955 597.2433,-152.9289"/>
</g>
<!-- Node20 -->
<g id="node21" class="node">
<title>Node20</title>
<polygon fill="none" stroke="#bfbfbf" points="751,-118 751,-137 808,-137 808,-118 751,-118"/>
<text text-anchor="middle" x="779.5" y="-125" font-family="Helvetica,sans-Serif" font-size="10.00" fill="#000000">typeinfo</text>
</g>
<!-- Node15&#45;&gt;Node20 -->
<g id="edge23" class="edge">
<title>Node15&#45;&gt;Node20</title>
<path fill="none" stroke="#191970" d="M618.0916,-184.9127C649.3135,-174.9776 699.0741,-158.7279 741.5,-143 743.3539,-142.3127 745.2524,-141.5923 747.164,-140.8541"/>
<polygon fill="#191970" stroke="#191970" points="748.6764,-144.0197 756.6859,-137.0844 746.0997,-137.5112 748.6764,-144.0197"/>
</g>
<!-- Node21 -->
<g id="node22" class="node">
<title>Node21</title>
<polygon fill="none" stroke="#bfbfbf" points="672.5,-118 672.5,-137 732.5,-137 732.5,-118 672.5,-118"/>
<text text-anchor="middle" x="702.5" y="-125" font-family="Helvetica,sans-Serif" font-size="10.00" fill="#000000">iostream</text>
</g>
<!-- Node15&#45;&gt;Node21 -->
<g id="edge24" class="edge">
<title>Node15&#45;&gt;Node21</title>
<path fill="none" stroke="#191970" d="M603.9767,-184.9005C623.1055,-173.7559 654.8733,-155.2477 677.1516,-142.2682"/>
<polygon fill="#191970" stroke="#191970" points="679.1753,-145.1399 686.0539,-137.0817 675.6514,-139.0916 679.1753,-145.1399"/>
</g>
<!-- Node22&#45;&gt;Node15 -->
<g id="edge26" class="edge">
<title>Node22&#45;&gt;Node15</title>
<path fill="none" stroke="#191970" d="M697.6324,-246.4639C673.4847,-235.0702 640.5543,-219.5327 617.0061,-208.4219"/>
<polygon fill="#191970" stroke="#191970" points="618.392,-205.2058 607.8546,-204.1039 615.4049,-211.5365 618.392,-205.2058"/>
</g>
<!-- Node22&#45;&gt;Node20 -->
<g id="edge29" class="edge">
<title>Node22&#45;&gt;Node20</title>
<path fill="none" stroke="#191970" d="M723.3831,-246.4618C717.4077,-229.3388 710.5444,-200.9049 720.5,-179 727.3563,-163.9144 741.0565,-151.5202 753.5303,-142.674"/>
<polygon fill="#191970" stroke="#191970" points="755.4824,-145.5791 761.8709,-137.1269 751.606,-139.7504 755.4824,-145.5791"/>
</g>
<!-- Node23 -->
<g id="node24" class="node">
<title>Node23</title>
<polygon fill="none" stroke="#bfbfbf" points="729,-185 729,-204 786,-204 786,-185 729,-185"/>
<text text-anchor="middle" x="757.5" y="-192" font-family="Helvetica,sans-Serif" font-size="10.00" fill="#000000">TClass.h</text>
</g>
<!-- Node22&#45;&gt;Node23 -->
<g id="edge27" class="edge">
<title>Node22&#45;&gt;Node23</title>
<path fill="none" stroke="#191970" d="M735.8536,-246.2967C739.9197,-236.5672 745.227,-223.8675 749.5687,-213.4784"/>
<polygon fill="#191970" stroke="#191970" points="752.8802,-214.6313 753.5069,-204.055 746.4215,-211.9321 752.8802,-214.6313"/>
</g>
<!-- Node24 -->
<g id="node25" class="node">
<title>Node24</title>
<polygon fill="none" stroke="#bfbfbf" points="804,-185 804,-204 873,-204 873,-185 804,-185"/>
<text text-anchor="middle" x="838.5" y="-192" font-family="Helvetica,sans-Serif" font-size="10.00" fill="#000000">type_traits</text>
</g>
<!-- Node22&#45;&gt;Node24 -->
<g id="edge28" class="edge">
<title>Node22&#45;&gt;Node24</title>
<path fill="none" stroke="#191970" d="M753.9617,-246.4639C771.921,-235.4247 796.2089,-220.4954 814.1434,-209.4715"/>
<polygon fill="#191970" stroke="#191970" points="816.1893,-212.3223 822.8757,-204.1039 812.5236,-206.3588 816.1893,-212.3223"/>
</g>
<!-- Node25 -->
<g id="node26" class="node">
<title>Node25</title>
<polygon fill="none" stroke="#bfbfbf" points="891.5,-185 891.5,-204 939.5,-204 939.5,-185 891.5,-185"/>
<text text-anchor="middle" x="915.5" y="-192" font-family="Helvetica,sans-Serif" font-size="10.00" fill="#000000">TFile.h</text>
</g>
<!-- Node22&#45;&gt;Node25 -->
<g id="edge30" class="edge">
<title>Node22&#45;&gt;Node25</title>
<path fill="none" stroke="#191970" d="M778.9421,-246.4421C809.1643,-236.8481 848.4298,-223.6832 882.5,-210 883.895,-209.4397 885.3152,-208.85 886.7439,-208.2412"/>
<polygon fill="#191970" stroke="#191970" points="888.4159,-211.3277 896.1192,-204.0538 885.5612,-204.9362 888.4159,-211.3277"/>
</g>
</g>
</svg>
