<?xml version="1.0" encoding="UTF-8" standalone="no"?>
<!DOCTYPE svg PUBLIC "-//W3C//DTD SVG 1.1//EN"
 "http://www.w3.org/Graphics/SVG/1.1/DTD/svg11.dtd">
<!-- Generated by graphviz version 2.40.1 (20161225.0304)
 -->
<!-- Title: /home/travis/build/AliceO2Group/AliceO2/Detectors/EMCAL/simulation/include/EMCALSimulation/LabeledDigit.h Pages: 1 -->
<!--zoomable 296 -->
<svg id="main" version="1.1" xmlns="http://www.w3.org/2000/svg" xmlns:xlink="http://www.w3.org/1999/xlink" xml:space="preserve" onload="init(evt)">
<style type="text/css"><![CDATA[
.edge:hover path { stroke: red; }
.edge:hover polygon { stroke: red; fill: red; }
]]></style>
<script type="text/javascript"><![CDATA[
var edges = document.getElementsByTagName('g');
if (edges && edges.length) {
  for (var i=0;i<edges.length;i++) {
    if (edges[i].id.substr(0,4)=='edge') {
      edges[i].setAttribute('class','edge');
    }
  }
}
]]></script>
        <defs>
                <circle id="rim" cx="0" cy="0" r="7"/>
                <circle id="rim2" cx="0" cy="0" r="3.5"/>
                <g id="zoomPlus">
                        <use xlink:href="#rim" fill="#404040">
                                <set attributeName="fill" to="#808080" begin="zoomplus.mouseover" end="zoomplus.mouseout"/>
                        </use>
                        <path d="M-4,0h8M0,-4v8" fill="none" stroke="white" stroke-width="1.5" pointer-events="none"/>
                </g>
                <g id="zoomMin">
                        <use xlink:href="#rim" fill="#404040">
                                <set attributeName="fill" to="#808080" begin="zoomminus.mouseover" end="zoomminus.mouseout"/>
                        </use>
                        <path d="M-4,0h8" fill="none" stroke="white" stroke-width="1.5" pointer-events="none"/>
                </g>
                <g id="dirArrow">
                        <path fill="none" stroke="white" stroke-width="1.5" d="M0,-3.0v7 M-2.5,-0.5L0,-3.0L2.5,-0.5"/>
                </g>
               <g id="resetDef">
                       <use xlink:href="#rim2" fill="#404040">
                               <set attributeName="fill" to="#808080" begin="reset.mouseover" end="reset.mouseout"/>
                       </use>
               </g>
        </defs>

<script type="text/javascript">
var viewWidth = 822;
var viewHeight = 296;
var sectionId = 'dynsection-0';
</script>
<script xlink:href="../../svgpan.js"/>
<svg id="graph" class="graph">
<g id="viewport">
<title>/home/travis/build/AliceO2Group/AliceO2/Detectors/EMCAL/simulation/include/EMCALSimulation/LabeledDigit.h</title>
<!-- Node0 -->
<g id="node1" class="node">
<title>Node0</title>
<polygon fill="#bfbfbf" stroke="#000000" points="148.8255,-235.5 148.8255,-287.5 365.8255,-287.5 365.8255,-235.5 148.8255,-235.5"/>
<text text-anchor="start" x="156.8255" y="-275.5" font-family="Helvetica,sans-Serif" font-size="10.00" fill="#000000">/home/travis/build</text>
<text text-anchor="start" x="156.8255" y="-264.5" font-family="Helvetica,sans-Serif" font-size="10.00" fill="#000000">/AliceO2Group/AliceO2</text>
<text text-anchor="start" x="156.8255" y="-253.5" font-family="Helvetica,sans-Serif" font-size="10.00" fill="#000000">/Detectors/EMCAL/simulation</text>
<text text-anchor="middle" x="257.3255" y="-242.5" font-family="Helvetica,sans-Serif" font-size="10.00" fill="#000000">/include/EMCALSimulation/LabeledDigit.h</text>
</g>
<!-- Node1 -->
<g id="node2" class="node">
<title>Node1</title>
<polygon fill="none" stroke="#bfbfbf" points="60.8255,-56.5 60.8255,-75.5 109.8255,-75.5 109.8255,-56.5 60.8255,-56.5"/>
<text text-anchor="middle" x="85.3255" y="-63.5" font-family="Helvetica,sans-Serif" font-size="10.00" fill="#000000">iosfwd</text>
</g>
<!-- Node0&#45;&gt;Node1 -->
<g id="edge1" class="edge">
<title>Node0&#45;&gt;Node1</title>
<path fill="none" stroke="#191970" d="M148.6604,-237.0404C98.3375,-219.688 43.1871,-190.6994 13.3255,-143 6.0146,-131.3219 6.7063,-124.0836 13.3255,-112 21.5096,-97.0595 36.8407,-86.2664 51.2594,-78.9064"/>
<polygon fill="#191970" stroke="#191970" points="52.9558,-81.9764 60.5185,-74.5564 49.9793,-75.6408 52.9558,-81.9764"/>
</g>
<!-- Node2 -->
<g id="node3" class="node">
<title>Node2</title>
<polygon fill="none" stroke="#bfbfbf" points="22.8255,-118 22.8255,-137 69.8255,-137 69.8255,-118 22.8255,-118"/>
<text text-anchor="middle" x="46.3255" y="-125" font-family="Helvetica,sans-Serif" font-size="10.00" fill="#000000">cmath</text>
</g>
<!-- Node0&#45;&gt;Node2 -->
<g id="edge2" class="edge">
<title>Node0&#45;&gt;Node2</title>
<path fill="none" stroke="#191970" d="M216.1417,-235.3453C172.7649,-207.798 105.9315,-165.3541 70.4267,-142.806"/>
<polygon fill="#191970" stroke="#191970" points="72.0159,-139.6691 61.698,-137.2626 68.2632,-145.5782 72.0159,-139.6691"/>
</g>
<!-- Node3 -->
<g id="node4" class="node">
<title>Node3</title>
<polygon fill="none" stroke="#bfbfbf" points="203.8255,-.5 203.8255,-19.5 262.8255,-19.5 262.8255,-.5 203.8255,-.5"/>
<text text-anchor="middle" x="233.3255" y="-7.5" font-family="Helvetica,sans-Serif" font-size="10.00" fill="#000000">Rtypes.h</text>
</g>
<!-- Node0&#45;&gt;Node3 -->
<g id="edge3" class="edge">
<title>Node0&#45;&gt;Node3</title>
<path fill="none" stroke="#191970" d="M148.5409,-247.61C88.9076,-233.1182 23.3187,-203.5065 4.3255,-143 -8.8368,-101.069 14.0914,-79.347 51.3255,-56 95.1149,-28.5427 154.4961,-17.4511 193.346,-12.9857"/>
<polygon fill="#191970" stroke="#191970" points="194.1501,-16.4205 203.7292,-11.8938 193.418,-9.4589 194.1501,-16.4205"/>
</g>
<!-- Node4 -->
<g id="node5" class="node">
<title>Node4</title>
<g id="a_node5"><a xlink:href="../../df/d5d/common_2include_2CommonDataFormat_2TimeStamp_8h.html" target="_top" xlink:title="CommonDataFormat/TimeStamp.h">
<polygon fill="none" stroke="#000000" points="481.8255,-118 481.8255,-137 668.8255,-137 668.8255,-118 481.8255,-118"/>
<text text-anchor="middle" x="575.3255" y="-125" font-family="Helvetica,sans-Serif" font-size="10.00" fill="#000000">CommonDataFormat/TimeStamp.h</text>
</a>
</g>
</g>
<!-- Node0&#45;&gt;Node4 -->
<g id="edge4" class="edge">
<title>Node0&#45;&gt;Node4</title>
<path fill="none" stroke="#191970" d="M322.6691,-235.4104C350.1153,-224.3407 382.3369,-211.1992 411.3255,-199 457.8964,-179.4016 511.5015,-155.84 544.3968,-141.2654"/>
<polygon fill="#191970" stroke="#191970" points="546.1885,-144.2996 553.9101,-137.0451 543.3499,-137.9009 546.1885,-144.2996"/>
</g>
<!-- Node6 -->
<g id="node7" class="node">
<title>Node6</title>
<g id="a_node7"><a xlink:href="../../dd/dda/DataFormats_2Detectors_2EMCAL_2include_2DataFormatsEMCAL_2Constants_8h.html" target="_top" xlink:title="DataFormatsEMCAL/Constants.h">
<polygon fill="none" stroke="#000000" points="126.8255,-118 126.8255,-137 299.8255,-137 299.8255,-118 126.8255,-118"/>
<text text-anchor="middle" x="213.3255" y="-125" font-family="Helvetica,sans-Serif" font-size="10.00" fill="#000000">DataFormatsEMCAL/Constants.h</text>
</a>
</g>
</g>
<!-- Node0&#45;&gt;Node6 -->
<g id="edge7" class="edge">
<title>Node0&#45;&gt;Node6</title>
<path fill="none" stroke="#191970" d="M241.5899,-235.2126C235.6883,-224.3326 229.4254,-211.3825 225.3255,-199 219.7687,-182.2174 216.6972,-162.3279 215.0565,-147.7924"/>
<polygon fill="#191970" stroke="#191970" points="218.5,-147.0492 214.0274,-137.4447 211.5344,-147.742 218.5,-147.0492"/>
</g>
<!-- Node9 -->
<g id="node10" class="node">
<title>Node9</title>
<g id="a_node10"><a xlink:href="../../d3/d6e/DataFormats_2Detectors_2EMCAL_2include_2DataFormatsEMCAL_2Digit_8h.html" target="_top" xlink:title="DataFormatsEMCAL/Digit.h">
<polygon fill="none" stroke="#000000" points="234.3255,-179.5 234.3255,-198.5 382.3255,-198.5 382.3255,-179.5 234.3255,-179.5"/>
<text text-anchor="middle" x="308.3255" y="-186.5" font-family="Helvetica,sans-Serif" font-size="10.00" fill="#000000">DataFormatsEMCAL/Digit.h</text>
</a>
</g>
</g>
<!-- Node0&#45;&gt;Node9 -->
<g id="edge12" class="edge">
<title>Node0&#45;&gt;Node9</title>
<path fill="none" stroke="#191970" d="M275.7377,-235.3258C282.3588,-225.9134 289.6726,-215.5164 295.6909,-206.961"/>
<polygon fill="#191970" stroke="#191970" points="298.7279,-208.7268 301.6188,-198.534 293.0026,-204.6993 298.7279,-208.7268"/>
</g>
<!-- Node10 -->
<g id="node11" class="node">
<title>Node10</title>
<polygon fill="none" stroke="#bfbfbf" points="356.8255,-112.5 356.8255,-142.5 463.8255,-142.5 463.8255,-112.5 356.8255,-112.5"/>
<text text-anchor="start" x="364.8255" y="-130.5" font-family="Helvetica,sans-Serif" font-size="10.00" fill="#000000">boost/serialization</text>
<text text-anchor="middle" x="410.3255" y="-119.5" font-family="Helvetica,sans-Serif" font-size="10.00" fill="#000000">/base_object.hpp</text>
</g>
<!-- Node0&#45;&gt;Node10 -->
<g id="edge22" class="edge">
<title>Node0&#45;&gt;Node10</title>
<path fill="none" stroke="#191970" d="M342.2486,-235.4813C360.5625,-226.4531 378.307,-214.5489 391.3255,-199 402.1404,-186.083 406.8608,-167.6327 408.8928,-152.71"/>
<polygon fill="#191970" stroke="#191970" points="412.3913,-152.9057 409.946,-142.597 405.4289,-152.1806 412.3913,-152.9057"/>
</g>
<!-- Node11 -->
<g id="node12" class="node">
<title>Node11</title>
<g id="a_node12"><a xlink:href="../../d3/dc8/DataFormats_2Detectors_2EMCAL_2include_2DataFormatsEMCAL_2MCLabel_8h.html" target="_top" xlink:title="DataFormatsEMCAL/MCLabel.h">
<polygon fill="none" stroke="#000000" points="603.3255,-179.5 603.3255,-198.5 769.3255,-198.5 769.3255,-179.5 603.3255,-179.5"/>
<text text-anchor="middle" x="686.3255" y="-186.5" font-family="Helvetica,sans-Serif" font-size="10.00" fill="#000000">DataFormatsEMCAL/MCLabel.h</text>
</a>
</g>
</g>
<!-- Node0&#45;&gt;Node11 -->
<g id="edge19" class="edge">
<title>Node0&#45;&gt;Node11</title>
<path fill="none" stroke="#191970" d="M365.8575,-243.1583C445.8974,-229.6318 552.2271,-211.6623 619.9874,-200.211"/>
<polygon fill="#191970" stroke="#191970" points="620.8322,-203.6179 630.1091,-198.5004 619.6657,-196.7158 620.8322,-203.6179"/>
</g>
<!-- Node5 -->
<g id="node6" class="node">
<title>Node5</title>
<g id="a_node6"><a xlink:href="../../d2/d45/GPUCommonRtypes_8h.html" target="_top" xlink:title="GPUCommonRtypes.h">
<polygon fill="none" stroke="#000000" points="512.8255,-56.5 512.8255,-75.5 637.8255,-75.5 637.8255,-56.5 512.8255,-56.5"/>
<text text-anchor="middle" x="575.3255" y="-63.5" font-family="Helvetica,sans-Serif" font-size="10.00" fill="#000000">GPUCommonRtypes.h</text>
</a>
</g>
</g>
<!-- Node4&#45;&gt;Node5 -->
<g id="edge5" class="edge">
<title>Node4&#45;&gt;Node5</title>
<path fill="none" stroke="#191970" d="M575.3255,-117.8906C575.3255,-109.3657 575.3255,-96.6392 575.3255,-85.9235"/>
<polygon fill="#191970" stroke="#191970" points="578.8256,-85.7448 575.3255,-75.7449 571.8256,-85.7449 578.8256,-85.7448"/>
</g>
<!-- Node5&#45;&gt;Node3 -->
<g id="edge6" class="edge">
<title>Node5&#45;&gt;Node3</title>
<path fill="none" stroke="#191970" d="M516.9222,-56.4369C447.4522,-45.0617 333.3504,-26.3783 273.2402,-16.5357"/>
<polygon fill="#191970" stroke="#191970" points="273.4523,-13.0239 263.0181,-14.862 272.3211,-19.9319 273.4523,-13.0239"/>
</g>
<!-- Node6&#45;&gt;Node1 -->
<g id="edge9" class="edge">
<title>Node6&#45;&gt;Node1</title>
<path fill="none" stroke="#191970" d="M193.3255,-117.8906C172.0966,-107.6908 138.3492,-91.4763 114.2295,-79.8875"/>
<polygon fill="#191970" stroke="#191970" points="115.7144,-76.7179 105.185,-75.5419 112.6829,-83.0275 115.7144,-76.7179"/>
</g>
<!-- Node6&#45;&gt;Node3 -->
<g id="edge8" class="edge">
<title>Node6&#45;&gt;Node3</title>
<path fill="none" stroke="#191970" d="M196.3452,-117.9992C175.278,-104.9042 143.6995,-80.1748 157.3255,-56 165.4635,-41.5618 180.161,-31.1395 194.4771,-23.9057"/>
<polygon fill="#191970" stroke="#191970" points="196.1574,-26.9846 203.757,-19.6024 193.2125,-20.6342 196.1574,-26.9846"/>
</g>
<!-- Node7 -->
<g id="node8" class="node">
<title>Node7</title>
<polygon fill="none" stroke="#bfbfbf" points="166.8255,-56.5 166.8255,-75.5 231.8255,-75.5 231.8255,-56.5 166.8255,-56.5"/>
<text text-anchor="middle" x="199.3255" y="-63.5" font-family="Helvetica,sans-Serif" font-size="10.00" fill="#000000">exception</text>
</g>
<!-- Node6&#45;&gt;Node7 -->
<g id="edge10" class="edge">
<title>Node6&#45;&gt;Node7</title>
<path fill="none" stroke="#191970" d="M211.138,-117.8906C209.1769,-109.276 206.2392,-96.3708 203.784,-85.5858"/>
<polygon fill="#191970" stroke="#191970" points="207.1762,-84.7185 201.5438,-75.7449 200.3508,-86.2723 207.1762,-84.7185"/>
</g>
<!-- Node8 -->
<g id="node9" class="node">
<title>Node8</title>
<polygon fill="none" stroke="#bfbfbf" points="250.3255,-56.5 250.3255,-75.5 300.3255,-75.5 300.3255,-56.5 250.3255,-56.5"/>
<text text-anchor="middle" x="275.3255" y="-63.5" font-family="Helvetica,sans-Serif" font-size="10.00" fill="#000000">cstdint</text>
</g>
<!-- Node6&#45;&gt;Node8 -->
<g id="edge11" class="edge">
<title>Node6&#45;&gt;Node8</title>
<path fill="none" stroke="#191970" d="M223.013,-117.8906C232.4214,-108.5581 246.9061,-94.1902 258.2504,-82.9374"/>
<polygon fill="#191970" stroke="#191970" points="260.8666,-85.2722 265.5014,-75.7449 255.9369,-80.3024 260.8666,-85.2722"/>
</g>
<!-- Node9&#45;&gt;Node1 -->
<g id="edge13" class="edge">
<title>Node9&#45;&gt;Node1</title>
<path fill="none" stroke="#191970" d="M241.3634,-179.4458C194.1018,-171.5063 136.0029,-158.9447 117.3255,-143 100.3458,-128.5046 92.2108,-103.53 88.4262,-85.9623"/>
<polygon fill="#191970" stroke="#191970" points="91.7827,-84.8663 86.5181,-75.672 84.9,-86.1426 91.7827,-84.8663"/>
</g>
<!-- Node9&#45;&gt;Node2 -->
<g id="edge14" class="edge">
<title>Node9&#45;&gt;Node2</title>
<path fill="none" stroke="#191970" d="M246.2365,-179.4244C200.8426,-171.6598 138.0762,-159.3282 84.3255,-143 82.0246,-142.3011 79.67,-141.517 77.3157,-140.6824"/>
<polygon fill="#191970" stroke="#191970" points="78.3697,-137.3388 67.7786,-137.0558 75.8816,-143.8817 78.3697,-137.3388"/>
</g>
<!-- Node9&#45;&gt;Node3 -->
<g id="edge15" class="edge">
<title>Node9&#45;&gt;Node3</title>
<path fill="none" stroke="#191970" d="M311.4974,-179.1671C318.365,-155.9507 332.2284,-96.6336 309.3255,-56 301.1875,-41.5618 286.4899,-31.1395 272.1739,-23.9057"/>
<polygon fill="#191970" stroke="#191970" points="273.4385,-20.6342 262.894,-19.6024 270.4936,-26.9846 273.4385,-20.6342"/>
</g>
<!-- Node9&#45;&gt;Node4 -->
<g id="edge16" class="edge">
<title>Node9&#45;&gt;Node4</title>
<path fill="none" stroke="#191970" d="M349.7513,-179.4581C396.7149,-168.6406 473.3188,-150.9959 524.0234,-139.3168"/>
<polygon fill="#191970" stroke="#191970" points="524.8433,-142.7196 533.8025,-137.0643 523.272,-135.8983 524.8433,-142.7196"/>
</g>
<!-- Node9&#45;&gt;Node6 -->
<g id="edge17" class="edge">
<title>Node9&#45;&gt;Node6</title>
<path fill="none" stroke="#191970" d="M293.4817,-179.3906C278.2837,-169.5519 254.4406,-154.1167 236.7048,-142.6351"/>
<polygon fill="#191970" stroke="#191970" points="238.3616,-139.5382 228.065,-137.0419 234.5575,-145.4144 238.3616,-139.5382"/>
</g>
<!-- Node9&#45;&gt;Node10 -->
<g id="edge18" class="edge">
<title>Node9&#45;&gt;Node10</title>
<path fill="none" stroke="#191970" d="M324.263,-179.3906C338.1953,-170.9903 358.8938,-158.5103 376.5004,-147.8945"/>
<polygon fill="#191970" stroke="#191970" points="378.6169,-150.7054 385.3735,-142.5446 375.0024,-144.7108 378.6169,-150.7054"/>
</g>
<!-- Node12 -->
<g id="node13" class="node">
<title>Node12</title>
<g id="a_node13"><a xlink:href="../../d7/dcd/MCCompLabel_8h.html" target="_top" xlink:title="SimulationDataFormat\l/MCCompLabel.h">
<polygon fill="none" stroke="#000000" points="686.8255,-112.5 686.8255,-142.5 813.8255,-142.5 813.8255,-112.5 686.8255,-112.5"/>
<text text-anchor="start" x="694.8255" y="-130.5" font-family="Helvetica,sans-Serif" font-size="10.00" fill="#000000">SimulationDataFormat</text>
<text text-anchor="middle" x="750.3255" y="-119.5" font-family="Helvetica,sans-Serif" font-size="10.00" fill="#000000">/MCCompLabel.h</text>
</a>
</g>
</g>
<!-- Node11&#45;&gt;Node12 -->
<g id="edge20" class="edge">
<title>Node11&#45;&gt;Node12</title>
<path fill="none" stroke="#191970" d="M696.3255,-179.3906C704.5861,-171.4527 716.6377,-159.8718 727.261,-149.6635"/>
<polygon fill="#191970" stroke="#191970" points="729.8839,-151.9971 734.6693,-142.5446 725.0337,-146.9498 729.8839,-151.9971"/>
</g>
<!-- Node12&#45;&gt;Node5 -->
<g id="edge21" class="edge">
<title>Node12&#45;&gt;Node5</title>
<path fill="none" stroke="#191970" d="M707.5157,-112.4554C678.3165,-102.194 640.0412,-88.7429 612.1953,-78.9571"/>
<polygon fill="#191970" stroke="#191970" points="613.0391,-75.5439 602.4443,-75.5303 610.7182,-82.1479 613.0391,-75.5439"/>
</g>
</g>
</svg>
        <g id="navigator" transform="translate(0 0)" fill="#404254">
                <rect fill="#f2f5e9" fill-opacity="0.5" stroke="#606060" stroke-width=".5" x="0" y="0" width="60" height="60"/>
                <use id="zoomplus" xlink:href="#zoomPlus" x="17" y="9" onmousedown="handleZoom(evt,'in')"/>
                <use id="zoomminus" xlink:href="#zoomMin" x="42" y="9" onmousedown="handleZoom(evt,'out')"/>
                <use id="reset" xlink:href="#resetDef" x="30" y="36" onmousedown="handleReset()"/>
                <g id="arrowUp" xlink:href="#dirArrow" transform="translate(30 24)" onmousedown="handlePan(0,-1)">
                  <use xlink:href="#rim" fill="#404040">
                        <set attributeName="fill" to="#808080" begin="arrowUp.mouseover" end="arrowUp.mouseout"/>
                  </use>
                  <path fill="none" stroke="white" stroke-width="1.5" d="M0,-3.0v7 M-2.5,-0.5L0,-3.0L2.5,-0.5"/>
                </g>
                <g id="arrowRight" xlink:href="#dirArrow" transform="rotate(90) translate(36 -43)" onmousedown="handlePan(1,0)">
                  <use xlink:href="#rim" fill="#404040">
                        <set attributeName="fill" to="#808080" begin="arrowRight.mouseover" end="arrowRight.mouseout"/>
                  </use>
                  <path fill="none" stroke="white" stroke-width="1.5" d="M0,-3.0v7 M-2.5,-0.5L0,-3.0L2.5,-0.5"/>
                </g>
                <g id="arrowDown" xlink:href="#dirArrow" transform="rotate(180) translate(-30 -48)" onmousedown="handlePan(0,1)">
                  <use xlink:href="#rim" fill="#404040">
                        <set attributeName="fill" to="#808080" begin="arrowDown.mouseover" end="arrowDown.mouseout"/>
                  </use>
                  <path fill="none" stroke="white" stroke-width="1.5" d="M0,-3.0v7 M-2.5,-0.5L0,-3.0L2.5,-0.5"/>
                </g>
                <g id="arrowLeft" xlink:href="#dirArrow" transform="rotate(270) translate(-36 17)" onmousedown="handlePan(-1,0)">
                  <use xlink:href="#rim" fill="#404040">
                        <set attributeName="fill" to="#808080" begin="arrowLeft.mouseover" end="arrowLeft.mouseout"/>
                  </use>
                  <path fill="none" stroke="white" stroke-width="1.5" d="M0,-3.0v7 M-2.5,-0.5L0,-3.0L2.5,-0.5"/>
                </g>
        </g>
        <svg viewBox="0 0 15 15" width="100%" height="30px" preserveAspectRatio="xMaxYMin meet">
         <g id="arrow_out" transform="scale(0.3 0.3)">
          <a xlink:href="LabeledDigit_8h__incl_org.svg" target="_base">
           <rect id="button" ry="5" rx="5" y="6" x="6" height="38" width="38"
                fill="#f2f5e9" fill-opacity="0.5" stroke="#606060" stroke-width="1.0"/>
           <path id="arrow"
             d="M 11.500037,31.436501 C 11.940474,20.09759 22.043105,11.32322 32.158766,21.979434 L 37.068811,17.246167 C 37.068811,17.246167 37.088388,32 37.088388,32 L 22.160133,31.978069 C 22.160133,31.978069 26.997745,27.140456 26.997745,27.140456 C 18.528582,18.264221 13.291696,25.230495 11.500037,31.436501 z"
             style="fill:#404040;"/>
          </a>
         </g>
        </svg>
</svg>
