<?xml version="1.0" encoding="UTF-8" standalone="no"?>
<!DOCTYPE svg PUBLIC "-//W3C//DTD SVG 1.1//EN"
 "http://www.w3.org/Graphics/SVG/1.1/DTD/svg11.dtd">
<!-- Generated by graphviz version 2.40.1 (20161225.0304)
 -->
<!-- Title: /home/travis/build/AliceO2Group/AliceO2/Framework/Core/include/Framework/LocalRootFileService.h Pages: 1 -->
<svg width="532pt" height="229pt"
 viewBox="0.00 0.00 532.00 229.00" xmlns="http://www.w3.org/2000/svg" xmlns:xlink="http://www.w3.org/1999/xlink">
<g id="graph0" class="graph" transform="scale(1 1) rotate(0) translate(4 225)">
<title>/home/travis/build/AliceO2Group/AliceO2/Framework/Core/include/Framework/LocalRootFileService.h</title>
<!-- Node0 -->
<g id="node1" class="node">
<title>Node0</title>
<polygon fill="#bfbfbf" stroke="#000000" points="210,-168.5 210,-220.5 395,-220.5 395,-168.5 210,-168.5"/>
<text text-anchor="start" x="218" y="-208.5" font-family="Helvetica,sans-Serif" font-size="10.00" fill="#000000">/home/travis/build</text>
<text text-anchor="start" x="218" y="-197.5" font-family="Helvetica,sans-Serif" font-size="10.00" fill="#000000">/AliceO2Group/AliceO2</text>
<text text-anchor="start" x="218" y="-186.5" font-family="Helvetica,sans-Serif" font-size="10.00" fill="#000000">/Framework/Core/include</text>
<text text-anchor="middle" x="302.5" y="-175.5" font-family="Helvetica,sans-Serif" font-size="10.00" fill="#000000">/Framework/LocalRootFileService.h</text>
</g>
<!-- Node1 -->
<g id="node2" class="node">
<title>Node1</title>
<g id="a_node2"><a xlink:href="../../d9/d9b/RootFileService_8h.html" target="_top" xlink:title="Framework/RootFileService.h">
<polygon fill="none" stroke="#000000" points="171,-112.5 171,-131.5 328,-131.5 328,-112.5 171,-112.5"/>
<text text-anchor="middle" x="249.5" y="-119.5" font-family="Helvetica,sans-Serif" font-size="10.00" fill="#000000">Framework/RootFileService.h</text>
</a>
</g>
</g>
<!-- Node0&#45;&gt;Node1 -->
<g id="edge1" class="edge">
<title>Node0&#45;&gt;Node1</title>
<path fill="none" stroke="#191970" d="M283.3658,-168.3258C276.4117,-158.8132 268.7226,-148.2951 262.431,-139.6886"/>
<polygon fill="#191970" stroke="#191970" points="265.1968,-137.5414 256.4697,-131.534 259.5458,-141.6725 265.1968,-137.5414"/>
</g>
<!-- Node10 -->
<g id="node11" class="node">
<title>Node10</title>
<polygon fill="none" stroke="#bfbfbf" points="47.5,-56.5 47.5,-75.5 95.5,-75.5 95.5,-56.5 47.5,-56.5"/>
<text text-anchor="middle" x="71.5" y="-63.5" font-family="Helvetica,sans-Serif" font-size="10.00" fill="#000000">TFile.h</text>
</g>
<!-- Node0&#45;&gt;Node10 -->
<g id="edge15" class="edge">
<title>Node0&#45;&gt;Node10</title>
<path fill="none" stroke="#191970" d="M222.2182,-168.3512C197.0998,-158.6095 169.8615,-146.3667 146.5,-132 124.0614,-118.2008 101.8498,-97.5454 87.4933,-83.0255"/>
<polygon fill="#191970" stroke="#191970" points="89.8446,-80.4224 80.374,-75.6727 84.8156,-85.2916 89.8446,-80.4224"/>
</g>
<!-- Node11 -->
<g id="node12" class="node">
<title>Node11</title>
<polygon fill="none" stroke="#bfbfbf" points="113.5,-56.5 113.5,-75.5 171.5,-75.5 171.5,-56.5 113.5,-56.5"/>
<text text-anchor="middle" x="142.5" y="-63.5" font-family="Helvetica,sans-Serif" font-size="10.00" fill="#000000">memory</text>
</g>
<!-- Node0&#45;&gt;Node11 -->
<g id="edge19" class="edge">
<title>Node0&#45;&gt;Node11</title>
<path fill="none" stroke="#191970" d="M211.9651,-168.3576C193.2013,-159.3891 175.0473,-147.5422 161.5,-132 150.3722,-119.2337 145.7436,-100.3174 143.8278,-86.0049"/>
<polygon fill="#191970" stroke="#191970" points="147.2771,-85.3218 142.8006,-75.7191 140.3117,-86.0174 147.2771,-85.3218"/>
</g>
<!-- Node12 -->
<g id="node13" class="node">
<title>Node12</title>
<polygon fill="none" stroke="#bfbfbf" points="325.5,-56.5 325.5,-75.5 363.5,-75.5 363.5,-56.5 325.5,-56.5"/>
<text text-anchor="middle" x="344.5" y="-63.5" font-family="Helvetica,sans-Serif" font-size="10.00" fill="#000000">map</text>
</g>
<!-- Node0&#45;&gt;Node12 -->
<g id="edge16" class="edge">
<title>Node0&#45;&gt;Node12</title>
<path fill="none" stroke="#191970" d="M319.5558,-168.4229C325.8753,-157.5734 332.4753,-144.5893 336.5,-132 341.2844,-117.0343 343.2427,-99.3231 344.0276,-86.0176"/>
<polygon fill="#191970" stroke="#191970" points="347.5405,-85.7749 344.4568,-75.6388 340.5465,-85.4856 347.5405,-85.7749"/>
</g>
<!-- Node13 -->
<g id="node14" class="node">
<title>Node13</title>
<polygon fill="none" stroke="#bfbfbf" points="381.5,-56.5 381.5,-75.5 425.5,-75.5 425.5,-56.5 381.5,-56.5"/>
<text text-anchor="middle" x="403.5" y="-63.5" font-family="Helvetica,sans-Serif" font-size="10.00" fill="#000000">string</text>
</g>
<!-- Node0&#45;&gt;Node13 -->
<g id="edge17" class="edge">
<title>Node0&#45;&gt;Node13</title>
<path fill="none" stroke="#191970" d="M324.3021,-168.2128C333.4175,-157.1112 344.0639,-143.9995 353.5,-132 366.0624,-116.0249 379.9985,-97.5657 389.9599,-84.2382"/>
<polygon fill="#191970" stroke="#191970" points="392.9861,-86.0346 396.1554,-75.9249 387.3734,-81.8516 392.9861,-86.0346"/>
</g>
<!-- Node14 -->
<g id="node15" class="node">
<title>Node14</title>
<polygon fill="none" stroke="#bfbfbf" points="444,-56.5 444,-75.5 491,-75.5 491,-56.5 444,-56.5"/>
<text text-anchor="middle" x="467.5" y="-63.5" font-family="Helvetica,sans-Serif" font-size="10.00" fill="#000000">vector</text>
</g>
<!-- Node0&#45;&gt;Node14 -->
<g id="edge18" class="edge">
<title>Node0&#45;&gt;Node14</title>
<path fill="none" stroke="#191970" d="M335.8902,-168.4961C369.1988,-142.5558 419.2996,-103.5379 447.093,-81.8928"/>
<polygon fill="#191970" stroke="#191970" points="449.5442,-84.42 455.2834,-75.5142 445.2432,-78.8972 449.5442,-84.42"/>
</g>
<!-- Node2 -->
<g id="node3" class="node">
<title>Node2</title>
<g id="a_node3"><a xlink:href="../../de/d56/Variant_8h.html" target="_top" xlink:title="Framework/Variant.h">
<polygon fill="none" stroke="#000000" points="190,-56.5 190,-75.5 307,-75.5 307,-56.5 190,-56.5"/>
<text text-anchor="middle" x="248.5" y="-63.5" font-family="Helvetica,sans-Serif" font-size="10.00" fill="#000000">Framework/Variant.h</text>
</a>
</g>
</g>
<!-- Node1&#45;&gt;Node2 -->
<g id="edge2" class="edge">
<title>Node1&#45;&gt;Node2</title>
<path fill="none" stroke="#191970" d="M249.3258,-112.2455C249.1953,-104.9382 249.0124,-94.6944 248.8519,-85.7046"/>
<polygon fill="#191970" stroke="#191970" points="252.3503,-85.5786 248.6722,-75.6427 245.3514,-85.7036 252.3503,-85.5786"/>
</g>
<!-- Node1&#45;&gt;Node10 -->
<g id="edge10" class="edge">
<title>Node1&#45;&gt;Node10</title>
<path fill="none" stroke="#191970" d="M218.9007,-112.3733C187.2822,-102.4259 138.0569,-86.9393 105.3065,-76.6358"/>
<polygon fill="#191970" stroke="#191970" points="106.2987,-73.2788 95.7092,-73.6164 104.1979,-79.9562 106.2987,-73.2788"/>
</g>
<!-- Node1&#45;&gt;Node11 -->
<g id="edge11" class="edge">
<title>Node1&#45;&gt;Node11</title>
<path fill="none" stroke="#191970" d="M230.862,-112.2455C214.0614,-103.4527 189.1366,-90.4079 170.0382,-80.4125"/>
<polygon fill="#191970" stroke="#191970" points="171.4073,-77.1787 160.9244,-75.6427 168.1614,-83.3807 171.4073,-77.1787"/>
</g>
<!-- Node1&#45;&gt;Node12 -->
<g id="edge12" class="edge">
<title>Node1&#45;&gt;Node12</title>
<path fill="none" stroke="#191970" d="M266.0477,-112.2455C280.7599,-103.5731 302.4888,-90.7645 319.3505,-80.825"/>
<polygon fill="#191970" stroke="#191970" points="321.3046,-83.736 328.1419,-75.6427 317.7498,-77.7057 321.3046,-83.736"/>
</g>
<!-- Node1&#45;&gt;Node13 -->
<g id="edge13" class="edge">
<title>Node1&#45;&gt;Node13</title>
<path fill="none" stroke="#191970" d="M275.9735,-112.3733C302.5905,-102.6944 343.6291,-87.7712 371.9267,-77.4812"/>
<polygon fill="#191970" stroke="#191970" points="373.1582,-80.7577 381.36,-74.0509 370.766,-74.1791 373.1582,-80.7577"/>
</g>
<!-- Node1&#45;&gt;Node14 -->
<g id="edge14" class="edge">
<title>Node1&#45;&gt;Node14</title>
<path fill="none" stroke="#191970" d="M290.4374,-112.4487C325.8988,-104.0348 378.7909,-91.1513 433.8173,-76.0899"/>
<polygon fill="#191970" stroke="#191970" points="435.0374,-79.3842 443.7486,-73.3539 433.1782,-72.6357 435.0374,-79.3842"/>
</g>
<!-- Node3 -->
<g id="node4" class="node">
<title>Node3</title>
<polygon fill="none" stroke="#bfbfbf" points="0,-.5 0,-19.5 69,-19.5 69,-.5 0,-.5"/>
<text text-anchor="middle" x="34.5" y="-7.5" font-family="Helvetica,sans-Serif" font-size="10.00" fill="#000000">type_traits</text>
</g>
<!-- Node2&#45;&gt;Node3 -->
<g id="edge3" class="edge">
<title>Node2&#45;&gt;Node3</title>
<path fill="none" stroke="#191970" d="M211.7121,-56.3733C174.8843,-46.7361 118.1885,-31.8998 78.884,-21.6145"/>
<polygon fill="#191970" stroke="#191970" points="79.6001,-18.1841 69.0397,-19.0384 77.8279,-24.9561 79.6001,-18.1841"/>
</g>
<!-- Node4 -->
<g id="node5" class="node">
<title>Node4</title>
<polygon fill="none" stroke="#bfbfbf" points="87.5,-.5 87.5,-19.5 137.5,-19.5 137.5,-.5 87.5,-.5"/>
<text text-anchor="middle" x="112.5" y="-7.5" font-family="Helvetica,sans-Serif" font-size="10.00" fill="#000000">cstring</text>
</g>
<!-- Node2&#45;&gt;Node4 -->
<g id="edge4" class="edge">
<title>Node2&#45;&gt;Node4</title>
<path fill="none" stroke="#191970" d="M225.1208,-56.3733C202.9955,-47.2629 169.5866,-33.5062 144.8981,-23.3404"/>
<polygon fill="#191970" stroke="#191970" points="146.1536,-20.0723 135.5742,-19.5011 143.4883,-26.5451 146.1536,-20.0723"/>
</g>
<!-- Node5 -->
<g id="node6" class="node">
<title>Node5</title>
<polygon fill="none" stroke="#bfbfbf" points="155.5,-.5 155.5,-19.5 205.5,-19.5 205.5,-.5 155.5,-.5"/>
<text text-anchor="middle" x="180.5" y="-7.5" font-family="Helvetica,sans-Serif" font-size="10.00" fill="#000000">cstdint</text>
</g>
<!-- Node2&#45;&gt;Node5 -->
<g id="edge5" class="edge">
<title>Node2&#45;&gt;Node5</title>
<path fill="none" stroke="#191970" d="M236.6553,-56.2455C226.612,-47.9746 212.0005,-35.9416 200.1996,-26.2232"/>
<polygon fill="#191970" stroke="#191970" points="202.1533,-23.298 192.209,-19.6427 197.7033,-28.7015 202.1533,-23.298"/>
</g>
<!-- Node6 -->
<g id="node7" class="node">
<title>Node6</title>
<polygon fill="none" stroke="#bfbfbf" points="224,-.5 224,-19.5 273,-19.5 273,-.5 224,-.5"/>
<text text-anchor="middle" x="248.5" y="-7.5" font-family="Helvetica,sans-Serif" font-size="10.00" fill="#000000">cstdlib</text>
</g>
<!-- Node2&#45;&gt;Node6 -->
<g id="edge6" class="edge">
<title>Node2&#45;&gt;Node6</title>
<path fill="none" stroke="#191970" d="M248.5,-56.2455C248.5,-48.9382 248.5,-38.6944 248.5,-29.7046"/>
<polygon fill="#191970" stroke="#191970" points="252.0001,-29.6426 248.5,-19.6427 245.0001,-29.6427 252.0001,-29.6426"/>
</g>
<!-- Node7 -->
<g id="node8" class="node">
<title>Node7</title>
<polygon fill="none" stroke="#bfbfbf" points="291,-.5 291,-19.5 356,-19.5 356,-.5 291,-.5"/>
<text text-anchor="middle" x="323.5" y="-7.5" font-family="Helvetica,sans-Serif" font-size="10.00" fill="#000000">stdexcept</text>
</g>
<!-- Node2&#45;&gt;Node7 -->
<g id="edge7" class="edge">
<title>Node2&#45;&gt;Node7</title>
<path fill="none" stroke="#191970" d="M261.564,-56.2455C272.8562,-47.814 289.3845,-35.4729 302.5271,-25.6598"/>
<polygon fill="#191970" stroke="#191970" points="304.6669,-28.4301 310.5857,-19.6427 300.4789,-22.8211 304.6669,-28.4301"/>
</g>
<!-- Node8 -->
<g id="node9" class="node">
<title>Node8</title>
<polygon fill="none" stroke="#bfbfbf" points="374,-.5 374,-19.5 423,-19.5 423,-.5 374,-.5"/>
<text text-anchor="middle" x="398.5" y="-7.5" font-family="Helvetica,sans-Serif" font-size="10.00" fill="#000000">iosfwd</text>
</g>
<!-- Node2&#45;&gt;Node8 -->
<g id="edge8" class="edge">
<title>Node2&#45;&gt;Node8</title>
<path fill="none" stroke="#191970" d="M274.2859,-56.3733C299.0539,-47.1265 336.6424,-33.0935 363.9827,-22.8865"/>
<polygon fill="#191970" stroke="#191970" points="365.4047,-26.0916 373.549,-19.315 362.9564,-19.5337 365.4047,-26.0916"/>
</g>
<!-- Node9 -->
<g id="node10" class="node">
<title>Node9</title>
<polygon fill="none" stroke="#bfbfbf" points="441,-.5 441,-19.5 524,-19.5 524,-.5 441,-.5"/>
<text text-anchor="middle" x="482.5" y="-7.5" font-family="Helvetica,sans-Serif" font-size="10.00" fill="#000000">initializer_list</text>
</g>
<!-- Node2&#45;&gt;Node9 -->
<g id="edge9" class="edge">
<title>Node2&#45;&gt;Node9</title>
<path fill="none" stroke="#191970" d="M288.4602,-56.4369C328.3392,-46.8932 389.7139,-32.2052 432.7328,-21.9101"/>
<polygon fill="#191970" stroke="#191970" points="433.7939,-25.2551 442.7047,-19.5237 432.1646,-18.4473 433.7939,-25.2551"/>
</g>
</g>
</svg>
