<?xml version="1.0" encoding="UTF-8" standalone="no"?>
<!DOCTYPE svg PUBLIC "-//W3C//DTD SVG 1.1//EN"
 "http://www.w3.org/Graphics/SVG/1.1/DTD/svg11.dtd">
<!-- Generated by graphviz version 2.40.1 (20161225.0304)
 -->
<!-- Title: o2::tpc::TPCClusterResiduals Pages: 1 -->
<svg width="163pt" height="292pt"
 viewBox="0.00 0.00 163.00 292.00" xmlns="http://www.w3.org/2000/svg" xmlns:xlink="http://www.w3.org/1999/xlink">
<g id="graph0" class="graph" transform="scale(1 1) rotate(0) translate(4 288)">
<title>o2::tpc::TPCClusterResiduals</title>
<!-- Node1 -->
<g id="node1" class="node">
<title>Node1</title>
<polygon fill="#bfbfbf" stroke="#000000" points="0,-.5 0,-112.5 155,-112.5 155,-.5 0,-.5"/>
<text text-anchor="middle" x="77.5" y="-100.5" font-family="Helvetica,sans-Serif" font-size="10.00" fill="#000000">o2::tpc::TPCClusterResiduals</text>
<polyline fill="none" stroke="#000000" points="0,-93.5 155,-93.5 "/>
<text text-anchor="middle" x="77.5" y="-81.5" font-family="Helvetica,sans-Serif" font-size="10.00" fill="#000000"> </text>
<polyline fill="none" stroke="#000000" points="0,-74.5 155,-74.5 "/>
<text text-anchor="start" x="8" y="-62.5" font-family="Helvetica,sans-Serif" font-size="10.00" fill="#000000">+ setDY()</text>
<text text-anchor="start" x="8" y="-51.5" font-family="Helvetica,sans-Serif" font-size="10.00" fill="#000000">+ setDZ()</text>
<text text-anchor="start" x="8" y="-40.5" font-family="Helvetica,sans-Serif" font-size="10.00" fill="#000000">+ setY()</text>
<text text-anchor="start" x="8" y="-29.5" font-family="Helvetica,sans-Serif" font-size="10.00" fill="#000000">+ setZ()</text>
<text text-anchor="start" x="8" y="-18.5" font-family="Helvetica,sans-Serif" font-size="10.00" fill="#000000">+ setPhi()</text>
<text text-anchor="start" x="8" y="-7.5" font-family="Helvetica,sans-Serif" font-size="10.00" fill="#000000">+ setTgl()</text>
</g>
<!-- Node2 -->
<g id="node2" class="node">
<title>Node2</title>
<g id="a_node2"><a xlink:href="../../dc/d10/classshort.html" target="_top" xlink:title="{short\n||}">
<polygon fill="none" stroke="#000000" points="23,-226.5 23,-283.5 64,-283.5 64,-226.5 23,-226.5"/>
<text text-anchor="middle" x="43.5" y="-271.5" font-family="Helvetica,sans-Serif" font-size="10.00" fill="#000000">short</text>
<polyline fill="none" stroke="#000000" points="23,-264.5 64,-264.5 "/>
<text text-anchor="middle" x="43.5" y="-252.5" font-family="Helvetica,sans-Serif" font-size="10.00" fill="#000000"> </text>
<polyline fill="none" stroke="#000000" points="23,-245.5 64,-245.5 "/>
<text text-anchor="middle" x="43.5" y="-233.5" font-family="Helvetica,sans-Serif" font-size="10.00" fill="#000000"> </text>
</a>
</g>
</g>
<!-- Node2&#45;&gt;Node1 -->
<g id="edge1" class="edge">
<title>Node2&#45;&gt;Node1</title>
<path fill="none" stroke="#404040" d="M47.8982,-226.3994C51.8179,-201.244 57.7999,-163.6513 63.5,-131 63.8741,-128.8568 64.2583,-126.6798 64.6497,-124.4822"/>
<polygon fill="none" stroke="#404040" points="64.6613,-124.418 61.7921,-117.8022 66.7953,-112.6092 69.6645,-119.2249 64.6613,-124.418"/>
<text text-anchor="middle" x="77" y="-200" font-family="Helvetica,sans-Serif" font-size="10.00" fill="#000000"> +phi</text>
<text text-anchor="middle" x="77" y="-189" font-family="Helvetica,sans-Serif" font-size="10.00" fill="#000000">+tgl</text>
<text text-anchor="middle" x="77" y="-178" font-family="Helvetica,sans-Serif" font-size="10.00" fill="#000000">+y</text>
<text text-anchor="middle" x="77" y="-167" font-family="Helvetica,sans-Serif" font-size="10.00" fill="#000000">+row</text>
<text text-anchor="middle" x="77" y="-156" font-family="Helvetica,sans-Serif" font-size="10.00" fill="#000000">+z</text>
<text text-anchor="middle" x="77" y="-145" font-family="Helvetica,sans-Serif" font-size="10.00" fill="#000000">+dy</text>
<text text-anchor="middle" x="77" y="-134" font-family="Helvetica,sans-Serif" font-size="10.00" fill="#000000">+dz</text>
</g>
<!-- Node3 -->
<g id="node3" class="node">
<title>Node3</title>
<polygon fill="none" stroke="#bfbfbf" points="82,-226.5 82,-283.5 143,-283.5 143,-226.5 82,-226.5"/>
<text text-anchor="middle" x="112.5" y="-271.5" font-family="Helvetica,sans-Serif" font-size="10.00" fill="#000000">unsigned</text>
<polyline fill="none" stroke="#bfbfbf" points="82,-264.5 143,-264.5 "/>
<text text-anchor="middle" x="112.5" y="-252.5" font-family="Helvetica,sans-Serif" font-size="10.00" fill="#000000"> </text>
<polyline fill="none" stroke="#bfbfbf" points="82,-245.5 143,-245.5 "/>
<text text-anchor="middle" x="112.5" y="-233.5" font-family="Helvetica,sans-Serif" font-size="10.00" fill="#000000"> </text>
</g>
<!-- Node3&#45;&gt;Node1 -->
<g id="edge2" class="edge">
<title>Node3&#45;&gt;Node1</title>
<path fill="none" stroke="#404040" d="M107.4107,-226.1364C102.7468,-199.6853 95.6599,-159.4923 89.5549,-124.8684"/>
<polygon fill="none" stroke="#404040" points="89.5258,-124.7031 84.5447,-119.4888 87.442,-112.8854 92.4231,-118.0996 89.5258,-124.7031"/>
<text text-anchor="middle" x="121" y="-172.5" font-family="Helvetica,sans-Serif" font-size="10.00" fill="#000000"> +sec</text>
<text text-anchor="middle" x="121" y="-161.5" font-family="Helvetica,sans-Serif" font-size="10.00" fill="#000000">+dRow</text>
</g>
</g>
</svg>
