<?xml version="1.0" encoding="UTF-8" standalone="no"?>
<!DOCTYPE svg PUBLIC "-//W3C//DTD SVG 1.1//EN"
 "http://www.w3.org/Graphics/SVG/1.1/DTD/svg11.dtd">
<!-- Generated by graphviz version 2.40.1 (20161225.0304)
 -->
<!-- Title: /home/travis/build/AliceO2Group/AliceO2/Detectors/ITSMFT/common/reconstruction/include/ITSMFTReconstruction/ChipMappingITS.h Pages: 1 -->
<svg width="350pt" height="195pt"
 viewBox="0.00 0.00 350.27 195.00" xmlns="http://www.w3.org/2000/svg" xmlns:xlink="http://www.w3.org/1999/xlink">
<g id="graph0" class="graph" transform="scale(1 1) rotate(0) translate(4 191)">
<title>/home/travis/build/AliceO2Group/AliceO2/Detectors/ITSMFT/common/reconstruction/include/ITSMFTReconstruction/ChipMappingITS.h</title>
<!-- Node0 -->
<g id="node1" class="node">
<title>Node0</title>
<polygon fill="#bfbfbf" stroke="#000000" points="43.7926,-123.5 43.7926,-186.5 259.7926,-186.5 259.7926,-123.5 43.7926,-123.5"/>
<text text-anchor="start" x="51.7926" y="-174.5" font-family="Helvetica,sans-Serif" font-size="10.00" fill="#000000">/home/travis/build</text>
<text text-anchor="start" x="51.7926" y="-163.5" font-family="Helvetica,sans-Serif" font-size="10.00" fill="#000000">/AliceO2Group/AliceO2</text>
<text text-anchor="start" x="51.7926" y="-152.5" font-family="Helvetica,sans-Serif" font-size="10.00" fill="#000000">/Detectors/ITSMFT/common</text>
<text text-anchor="start" x="51.7926" y="-141.5" font-family="Helvetica,sans-Serif" font-size="10.00" fill="#000000">/reconstruction/include</text>
<text text-anchor="middle" x="151.7926" y="-130.5" font-family="Helvetica,sans-Serif" font-size="10.00" fill="#000000">/ITSMFTReconstruction/ChipMappingITS.h</text>
</g>
<!-- Node1 -->
<g id="node2" class="node">
<title>Node1</title>
<polygon fill="none" stroke="#bfbfbf" points="101.2926,-.5 101.2926,-19.5 160.2926,-19.5 160.2926,-.5 101.2926,-.5"/>
<text text-anchor="middle" x="130.7926" y="-7.5" font-family="Helvetica,sans-Serif" font-size="10.00" fill="#000000">Rtypes.h</text>
</g>
<!-- Node0&#45;&gt;Node1 -->
<g id="edge1" class="edge">
<title>Node0&#45;&gt;Node1</title>
<path fill="none" stroke="#191970" d="M45.2,-123.3058C29.5636,-114.0701 15.4864,-102.2086 5.7926,-87 -1.6128,-75.3816 -2.0899,-67.3001 5.7926,-56 15.9238,-41.4764 58.673,-27.8663 91.3856,-19.275"/>
<polygon fill="#191970" stroke="#191970" points="92.3466,-22.642 101.1683,-16.7744 90.613,-15.86 92.3466,-22.642"/>
</g>
<!-- Node2 -->
<g id="node3" class="node">
<title>Node2</title>
<polygon fill="none" stroke="#bfbfbf" points="14.7926,-62 14.7926,-81 56.7926,-81 56.7926,-62 14.7926,-62"/>
<text text-anchor="middle" x="35.7926" y="-69" font-family="Helvetica,sans-Serif" font-size="10.00" fill="#000000">array</text>
</g>
<!-- Node0&#45;&gt;Node2 -->
<g id="edge2" class="edge">
<title>Node0&#45;&gt;Node2</title>
<path fill="none" stroke="#191970" d="M107.938,-123.4322C90.6172,-110.9642 71.504,-97.206 57.3042,-86.9846"/>
<polygon fill="#191970" stroke="#191970" points="59.3185,-84.1221 49.1577,-81.1205 55.229,-89.8033 59.3185,-84.1221"/>
</g>
<!-- Node3 -->
<g id="node4" class="node">
<title>Node3</title>
<polygon fill="none" stroke="#bfbfbf" points="75.2926,-62 75.2926,-81 124.2926,-81 124.2926,-62 75.2926,-62"/>
<text text-anchor="middle" x="99.7926" y="-69" font-family="Helvetica,sans-Serif" font-size="10.00" fill="#000000">cstdlib</text>
</g>
<!-- Node0&#45;&gt;Node3 -->
<g id="edge3" class="edge">
<title>Node0&#45;&gt;Node3</title>
<path fill="none" stroke="#191970" d="M132.1337,-123.4322C125.072,-112.0928 117.3457,-99.6862 111.2162,-89.8437"/>
<polygon fill="#191970" stroke="#191970" points="114.1599,-87.9495 105.9026,-81.3112 108.2179,-91.65 114.1599,-87.9495"/>
</g>
<!-- Node4 -->
<g id="node5" class="node">
<title>Node4</title>
<polygon fill="none" stroke="#bfbfbf" points="250.7926,-.5 250.7926,-19.5 300.7926,-19.5 300.7926,-.5 250.7926,-.5"/>
<text text-anchor="middle" x="275.7926" y="-7.5" font-family="Helvetica,sans-Serif" font-size="10.00" fill="#000000">cstdint</text>
</g>
<!-- Node0&#45;&gt;Node4 -->
<g id="edge4" class="edge">
<title>Node0&#45;&gt;Node4</title>
<path fill="none" stroke="#191970" d="M259.989,-126.7347C294.6348,-115.3494 326.683,-101.4868 336.7926,-87 344.6773,-75.7014 342.9381,-68.3313 336.7926,-56 330.1923,-42.756 317.7599,-32.3192 305.8322,-24.7581"/>
<polygon fill="#191970" stroke="#191970" points="307.3125,-21.5691 296.9142,-19.5378 303.7762,-27.6102 307.3125,-21.5691"/>
</g>
<!-- Node5 -->
<g id="node6" class="node">
<title>Node5</title>
<polygon fill="none" stroke="#bfbfbf" points="283.7926,-62 283.7926,-81 327.7926,-81 327.7926,-62 283.7926,-62"/>
<text text-anchor="middle" x="305.7926" y="-69" font-family="Helvetica,sans-Serif" font-size="10.00" fill="#000000">string</text>
</g>
<!-- Node0&#45;&gt;Node5 -->
<g id="edge5" class="edge">
<title>Node0&#45;&gt;Node5</title>
<path fill="none" stroke="#191970" d="M210.0134,-123.4322C233.7675,-110.5526 260.061,-96.296 279.0799,-85.9838"/>
<polygon fill="#191970" stroke="#191970" points="280.9267,-88.9639 288.0494,-81.1205 277.5901,-82.8103 280.9267,-88.9639"/>
</g>
<!-- Node6 -->
<g id="node7" class="node">
<title>Node6</title>
<g id="a_node7"><a xlink:href="../../dc/dd8/RUInfo_8h.html" target="_top" xlink:title="ITSMFTReconstruction\l/RUInfo.h">
<polygon fill="none" stroke="#000000" points="142.2926,-56.5 142.2926,-86.5 265.2926,-86.5 265.2926,-56.5 142.2926,-56.5"/>
<text text-anchor="start" x="150.2926" y="-74.5" font-family="Helvetica,sans-Serif" font-size="10.00" fill="#000000">ITSMFTReconstruction</text>
<text text-anchor="middle" x="203.7926" y="-63.5" font-family="Helvetica,sans-Serif" font-size="10.00" fill="#000000">/RUInfo.h</text>
</a>
</g>
</g>
<!-- Node0&#45;&gt;Node6 -->
<g id="edge6" class="edge">
<title>Node0&#45;&gt;Node6</title>
<path fill="none" stroke="#191970" d="M171.4516,-123.4322C177.2577,-114.109 183.513,-104.0643 188.9608,-95.3165"/>
<polygon fill="#191970" stroke="#191970" points="191.9775,-97.0932 194.2928,-86.7545 186.0355,-93.3928 191.9775,-97.0932"/>
</g>
<!-- Node6&#45;&gt;Node1 -->
<g id="edge7" class="edge">
<title>Node6&#45;&gt;Node1</title>
<path fill="none" stroke="#191970" d="M185.7477,-56.2977C174.9812,-47.2274 161.3075,-35.7077 150.2931,-26.4285"/>
<polygon fill="#191970" stroke="#191970" points="152.3837,-23.6132 142.4809,-19.8469 147.8736,-28.9667 152.3837,-23.6132"/>
</g>
<!-- Node6&#45;&gt;Node4 -->
<g id="edge8" class="edge">
<title>Node6&#45;&gt;Node4</title>
<path fill="none" stroke="#191970" d="M221.5904,-56.2977C232.2094,-47.2274 245.6958,-35.7077 256.5593,-26.4285"/>
<polygon fill="#191970" stroke="#191970" points="258.934,-29.0031 264.2645,-19.8469 254.3875,-23.6805 258.934,-29.0031"/>
</g>
</g>
</svg>
