<?xml version="1.0" encoding="UTF-8" standalone="no"?>
<!DOCTYPE svg PUBLIC "-//W3C//DTD SVG 1.1//EN"
 "http://www.w3.org/Graphics/SVG/1.1/DTD/svg11.dtd">
<!-- Generated by graphviz version 2.40.1 (20161225.0304)
 -->
<!-- Title: /home/travis/build/AliceO2Group/AliceO2/Framework/Core/src/InputRecord.cxx Pages: 1 -->
<svg width="4575pt" height="486pt"
 viewBox="0.00 0.00 4575.21 486.00" xmlns="http://www.w3.org/2000/svg" xmlns:xlink="http://www.w3.org/1999/xlink">
<g id="graph0" class="graph" transform="scale(1 1) rotate(0) translate(4 482)">
<title>/home/travis/build/AliceO2Group/AliceO2/Framework/Core/src/InputRecord.cxx</title>
<!-- Node0 -->
<g id="node1" class="node">
<title>Node0</title>
<polygon fill="#bfbfbf" stroke="#000000" points="3876.709,-436.5 3876.709,-477.5 4073.709,-477.5 4073.709,-436.5 3876.709,-436.5"/>
<text text-anchor="start" x="3884.709" y="-465.5" font-family="Helvetica,sans-Serif" font-size="10.00" fill="#000000">/home/travis/build</text>
<text text-anchor="start" x="3884.709" y="-454.5" font-family="Helvetica,sans-Serif" font-size="10.00" fill="#000000">/AliceO2Group/AliceO2</text>
<text text-anchor="middle" x="3975.209" y="-443.5" font-family="Helvetica,sans-Serif" font-size="10.00" fill="#000000">/Framework/Core/src/InputRecord.cxx</text>
</g>
<!-- Node1 -->
<g id="node2" class="node">
<title>Node1</title>
<g id="a_node2"><a xlink:href="../../d6/d5c/InputRecord_8h.html" target="_top" xlink:title="Framework/InputRecord.h">
<polygon fill="none" stroke="#000000" points="2412.209,-380.5 2412.209,-399.5 2552.209,-399.5 2552.209,-380.5 2412.209,-380.5"/>
<text text-anchor="middle" x="2482.209" y="-387.5" font-family="Helvetica,sans-Serif" font-size="10.00" fill="#000000">Framework/InputRecord.h</text>
</a>
</g>
</g>
<!-- Node0&#45;&gt;Node1 -->
<g id="edge1" class="edge">
<title>Node0&#45;&gt;Node1</title>
<path fill="none" stroke="#191970" d="M3876.6717,-452.578C3599.3861,-440.1345 2816.1419,-404.9856 2562.5332,-393.6046"/>
<polygon fill="#191970" stroke="#191970" points="2562.4421,-390.0971 2552.2952,-393.1452 2562.1282,-397.0901 2562.4421,-390.0971"/>
</g>
<!-- Node5 -->
<g id="node6" class="node">
<title>Node5</title>
<polygon fill="none" stroke="#bfbfbf" points="166.709,-140 166.709,-159 303.709,-159 303.709,-140 166.709,-140"/>
<text text-anchor="middle" x="235.209" y="-147" font-family="Helvetica,sans-Serif" font-size="10.00" fill="#000000">fairmq/FairMQMessage.h</text>
</g>
<!-- Node0&#45;&gt;Node5 -->
<g id="edge129" class="edge">
<title>Node0&#45;&gt;Node5</title>
<path fill="none" stroke="#191970" d="M3876.5811,-454.3467C3461.249,-442.9279 1852.8015,-396.1816 1348.209,-344 1023.4571,-310.4163 943.327,-290.9477 622.209,-232 501.2098,-209.7882 360.1232,-178.282 286.2607,-161.3535"/>
<polygon fill="#191970" stroke="#191970" points="286.8234,-157.8917 276.2936,-159.0641 285.2562,-164.714 286.8234,-157.8917"/>
</g>
<!-- Node51 -->
<g id="node52" class="node">
<title>Node51</title>
<polygon fill="none" stroke="#bfbfbf" points="3757.209,-6 3757.209,-25 3809.209,-25 3809.209,-6 3757.209,-6"/>
<text text-anchor="middle" x="3783.209" y="-13" font-family="Helvetica,sans-Serif" font-size="10.00" fill="#000000">cassert</text>
</g>
<!-- Node0&#45;&gt;Node51 -->
<g id="edge130" class="edge">
<title>Node0&#45;&gt;Node51</title>
<path fill="none" stroke="#191970" d="M3911.2961,-436.4793C3892.6385,-427.7924 3873.6698,-415.9026 3860.209,-400 3840.4063,-376.6053 3840.209,-364.6506 3840.209,-334 3840.209,-334 3840.209,-334 3840.209,-149.5 3840.209,-105.1138 3813.3989,-58.5826 3796.5527,-33.7256"/>
<polygon fill="#191970" stroke="#191970" points="3799.2632,-31.4944 3790.6607,-25.3099 3793.5288,-35.5091 3799.2632,-31.4944"/>
</g>
<!-- Node62 -->
<g id="node63" class="node">
<title>Node62</title>
<g id="a_node63"><a xlink:href="../../d5/d3f/InputSpec_8h.html" target="_top" xlink:title="Framework/InputSpec.h">
<polygon fill="none" stroke="#000000" points="3336.709,-268.5 3336.709,-287.5 3467.709,-287.5 3467.709,-268.5 3336.709,-268.5"/>
<text text-anchor="middle" x="3402.209" y="-275.5" font-family="Helvetica,sans-Serif" font-size="10.00" fill="#000000">Framework/InputSpec.h</text>
</a>
</g>
</g>
<!-- Node0&#45;&gt;Node62 -->
<g id="edge128" class="edge">
<title>Node0&#45;&gt;Node62</title>
<path fill="none" stroke="#191970" d="M3909.4786,-436.4664C3789.9506,-399.127 3540.3409,-321.1512 3442.6464,-290.6323"/>
<polygon fill="#191970" stroke="#191970" points="3443.4464,-287.2154 3432.8576,-287.5744 3441.3591,-293.897 3443.4464,-287.2154"/>
</g>
<!-- Node78 -->
<g id="node79" class="node">
<title>Node78</title>
<polygon fill="none" stroke="#bfbfbf" points="3868.709,-380.5 3868.709,-399.5 3957.709,-399.5 3957.709,-380.5 3868.709,-380.5"/>
<text text-anchor="middle" x="3913.209" y="-387.5" font-family="Helvetica,sans-Serif" font-size="10.00" fill="#000000">arrow/builder.h</text>
</g>
<!-- Node0&#45;&gt;Node78 -->
<g id="edge131" class="edge">
<title>Node0&#45;&gt;Node78</title>
<path fill="none" stroke="#191970" d="M3955.9316,-436.168C3947.3314,-426.8742 3937.3195,-416.0549 3929.1504,-407.227"/>
<polygon fill="#191970" stroke="#191970" points="3931.6204,-404.743 3922.2595,-399.7805 3926.4826,-409.4973 3931.6204,-404.743"/>
</g>
<!-- Node79 -->
<g id="node80" class="node">
<title>Node79</title>
<polygon fill="none" stroke="#bfbfbf" points="3975.209,-380.5 3975.209,-399.5 4099.209,-399.5 4099.209,-380.5 3975.209,-380.5"/>
<text text-anchor="middle" x="4037.209" y="-387.5" font-family="Helvetica,sans-Serif" font-size="10.00" fill="#000000">arrow/memory_pool.h</text>
</g>
<!-- Node0&#45;&gt;Node79 -->
<g id="edge132" class="edge">
<title>Node0&#45;&gt;Node79</title>
<path fill="none" stroke="#191970" d="M3994.4863,-436.168C4003.0865,-426.8742 4013.0984,-416.0549 4021.2676,-407.227"/>
<polygon fill="#191970" stroke="#191970" points="4023.9353,-409.4973 4028.1584,-399.7805 4018.7976,-404.743 4023.9353,-409.4973"/>
</g>
<!-- Node80 -->
<g id="node81" class="node">
<title>Node80</title>
<polygon fill="none" stroke="#bfbfbf" points="4117.709,-380.5 4117.709,-399.5 4236.709,-399.5 4236.709,-380.5 4117.709,-380.5"/>
<text text-anchor="middle" x="4177.209" y="-387.5" font-family="Helvetica,sans-Serif" font-size="10.00" fill="#000000">arrow/record_batch.h</text>
</g>
<!-- Node0&#45;&gt;Node80 -->
<g id="edge133" class="edge">
<title>Node0&#45;&gt;Node80</title>
<path fill="none" stroke="#191970" d="M4037.1884,-436.4425C4070.386,-425.4314 4110.2299,-412.2158 4138.9117,-402.7026"/>
<polygon fill="#191970" stroke="#191970" points="4140.1725,-405.972 4148.5621,-399.5017 4137.9687,-399.3279 4140.1725,-405.972"/>
</g>
<!-- Node81 -->
<g id="node82" class="node">
<title>Node81</title>
<polygon fill="none" stroke="#bfbfbf" points="4254.709,-380.5 4254.709,-399.5 4335.709,-399.5 4335.709,-380.5 4254.709,-380.5"/>
<text text-anchor="middle" x="4295.209" y="-387.5" font-family="Helvetica,sans-Serif" font-size="10.00" fill="#000000">arrow/table.h</text>
</g>
<!-- Node0&#45;&gt;Node81 -->
<g id="edge134" class="edge">
<title>Node0&#45;&gt;Node81</title>
<path fill="none" stroke="#191970" d="M4073.3942,-436.4425C4129.9302,-424.6052 4198.634,-410.2204 4244.4564,-400.6263"/>
<polygon fill="#191970" stroke="#191970" points="4245.3748,-404.01 4254.4453,-398.5349 4243.9403,-397.1586 4245.3748,-404.01"/>
</g>
<!-- Node82 -->
<g id="node83" class="node">
<title>Node82</title>
<polygon fill="none" stroke="#bfbfbf" points="4353.709,-380.5 4353.709,-399.5 4462.709,-399.5 4462.709,-380.5 4353.709,-380.5"/>
<text text-anchor="middle" x="4408.209" y="-387.5" font-family="Helvetica,sans-Serif" font-size="10.00" fill="#000000">arrow/type_traits.h</text>
</g>
<!-- Node0&#45;&gt;Node82 -->
<g id="edge135" class="edge">
<title>Node0&#45;&gt;Node82</title>
<path fill="none" stroke="#191970" d="M4073.7742,-441.9407C4145.8531,-430.8988 4246.2911,-415.4519 4343.5659,-400.2525"/>
<polygon fill="#191970" stroke="#191970" points="4344.2363,-403.6903 4353.5756,-398.6876 4343.155,-396.7743 4344.2363,-403.6903"/>
</g>
<!-- Node83 -->
<g id="node84" class="node">
<title>Node83</title>
<polygon fill="none" stroke="#bfbfbf" points="4481.209,-380.5 4481.209,-399.5 4567.209,-399.5 4567.209,-380.5 4481.209,-380.5"/>
<text text-anchor="middle" x="4524.209" y="-387.5" font-family="Helvetica,sans-Serif" font-size="10.00" fill="#000000">arrow/status.h</text>
</g>
<!-- Node0&#45;&gt;Node83 -->
<g id="edge136" class="edge">
<title>Node0&#45;&gt;Node83</title>
<path fill="none" stroke="#191970" d="M4074.0448,-447.8924C4172.2941,-438.3282 4327.4765,-421.8469 4471.232,-400.057"/>
<polygon fill="#191970" stroke="#191970" points="4471.7653,-403.5162 4481.1223,-398.5466 4470.7085,-396.5964 4471.7653,-403.5162"/>
</g>
<!-- Node2 -->
<g id="node3" class="node">
<title>Node2</title>
<g id="a_node3"><a xlink:href="../../d5/dfb/DataRef_8h.html" target="_top" xlink:title="Framework/DataRef.h">
<polygon fill="none" stroke="#000000" points="1418.709,-207 1418.709,-226 1539.709,-226 1539.709,-207 1418.709,-207"/>
<text text-anchor="middle" x="1479.209" y="-214" font-family="Helvetica,sans-Serif" font-size="10.00" fill="#000000">Framework/DataRef.h</text>
</a>
</g>
</g>
<!-- Node1&#45;&gt;Node2 -->
<g id="edge2" class="edge">
<title>Node1&#45;&gt;Node2</title>
<path fill="none" stroke="#191970" d="M2411.8886,-388.3337C2201.7502,-383.1152 1590.7353,-366.1091 1554.209,-344 1514.0778,-319.709 1493.0318,-265.1691 1484.2671,-235.9145"/>
<polygon fill="#191970" stroke="#191970" points="1487.5714,-234.7355 1481.4951,-226.0563 1480.8327,-236.6304 1487.5714,-234.7355"/>
</g>
<!-- Node3 -->
<g id="node4" class="node">
<title>Node3</title>
<g id="a_node4"><a xlink:href="../../d5/db8/DataRefUtils_8h.html" target="_top" xlink:title="Framework/DataRefUtils.h">
<polygon fill="none" stroke="#000000" points="1033.209,-268.5 1033.209,-287.5 1177.209,-287.5 1177.209,-268.5 1033.209,-268.5"/>
<text text-anchor="middle" x="1105.209" y="-275.5" font-family="Helvetica,sans-Serif" font-size="10.00" fill="#000000">Framework/DataRefUtils.h</text>
</a>
</g>
</g>
<!-- Node1&#45;&gt;Node3 -->
<g id="edge3" class="edge">
<title>Node1&#45;&gt;Node3</title>
<path fill="none" stroke="#191970" d="M2411.9372,-387.8717C2216.5095,-381.7725 1669.2166,-363.4189 1490.209,-344 1371.7292,-331.1473 1234.4895,-304.8391 1160.0771,-289.6055"/>
<polygon fill="#191970" stroke="#191970" points="1160.5029,-286.1198 1150.0026,-287.532 1159.0917,-292.9761 1160.5029,-286.1198"/>
</g>
<!-- Node12 -->
<g id="node13" class="node">
<title>Node12</title>
<polygon fill="none" stroke="#bfbfbf" points="1278.209,-6 1278.209,-25 1336.209,-25 1336.209,-6 1278.209,-6"/>
<text text-anchor="middle" x="1307.209" y="-13" font-family="Helvetica,sans-Serif" font-size="10.00" fill="#000000">memory</text>
</g>
<!-- Node1&#45;&gt;Node12 -->
<g id="edge126" class="edge">
<title>Node1&#45;&gt;Node12</title>
<path fill="none" stroke="#191970" d="M2412.1085,-381.2636C2349.6904,-373.0649 2256.0148,-359.7291 2175.209,-344 2171.6196,-343.3013 1153.4726,-100.8718 1151.209,-98 1116.4821,-53.9426 1211.2384,-30.7038 1268.0182,-21.0415"/>
<polygon fill="#191970" stroke="#191970" points="1268.8311,-24.4554 1278.1385,-19.3934 1267.7059,-17.5464 1268.8311,-24.4554"/>
</g>
<!-- Node14 -->
<g id="node15" class="node">
<title>Node14</title>
<g id="a_node15"><a xlink:href="../../dc/d03/MemoryResources_8h.html" target="_top" xlink:title="MemoryResources/MemoryResources.h">
<polygon fill="none" stroke="#000000" points="2662.709,-73 2662.709,-92 2869.709,-92 2869.709,-73 2662.709,-73"/>
<text text-anchor="middle" x="2766.209" y="-80" font-family="Helvetica,sans-Serif" font-size="10.00" fill="#000000">MemoryResources/MemoryResources.h</text>
</a>
</g>
</g>
<!-- Node1&#45;&gt;Node14 -->
<g id="edge116" class="edge">
<title>Node1&#45;&gt;Node14</title>
<path fill="none" stroke="#191970" d="M2487.816,-380.4834C2498.3863,-361.6141 2520.209,-317.8343 2520.209,-278 2520.209,-278 2520.209,-278 2520.209,-216.5 2520.209,-178.3133 2516.4727,-160.2474 2544.209,-134 2563.7821,-115.4775 2625.3829,-102.0852 2678.7424,-93.608"/>
<polygon fill="#191970" stroke="#191970" points="2679.5958,-97.0177 2688.9432,-92.0301 2678.5257,-90.0999 2679.5958,-97.0177"/>
</g>
<!-- Node19 -->
<g id="node20" class="node">
<title>Node19</title>
<polygon fill="none" stroke="#bfbfbf" points="3196.209,-6 3196.209,-25 3246.209,-25 3246.209,-6 3196.209,-6"/>
<text text-anchor="middle" x="3221.209" y="-13" font-family="Helvetica,sans-Serif" font-size="10.00" fill="#000000">cstring</text>
</g>
<!-- Node1&#45;&gt;Node19 -->
<g id="edge123" class="edge">
<title>Node1&#45;&gt;Node19</title>
<path fill="none" stroke="#191970" d="M2494.7588,-380.4082C2516.3449,-362.7155 2558.209,-322.6472 2558.209,-278 2558.209,-278 2558.209,-278 2558.209,-216.5 2558.209,-160.579 2602.5319,-157.6432 2653.209,-134 2745.3818,-90.9971 2779.254,-116.8173 2879.209,-98 3016.8809,-72.0822 3054.2729,-75.196 3187.209,-31 3189.0557,-30.386 3190.9366,-29.7031 3192.8182,-28.9758"/>
<polygon fill="#191970" stroke="#191970" points="3194.2155,-32.1851 3202.0778,-25.0834 3191.5029,-25.7321 3194.2155,-32.1851"/>
</g>
<!-- Node20 -->
<g id="node21" class="node">
<title>Node20</title>
<polygon fill="none" stroke="#bfbfbf" points="3623.209,-6 3623.209,-25 3667.209,-25 3667.209,-6 3623.209,-6"/>
<text text-anchor="middle" x="3645.209" y="-13" font-family="Helvetica,sans-Serif" font-size="10.00" fill="#000000">string</text>
</g>
<!-- Node1&#45;&gt;Node20 -->
<g id="edge121" class="edge">
<title>Node1&#45;&gt;Node20</title>
<path fill="none" stroke="#191970" d="M2552.6561,-387.3776C2815.8164,-377.1238 3726.209,-337.3615 3726.209,-278 3726.209,-278 3726.209,-278 3726.209,-149.5 3726.209,-101.3867 3687.4909,-55.7501 3663.5923,-32.1637"/>
<polygon fill="#191970" stroke="#191970" points="3665.7817,-29.4149 3656.133,-25.0384 3660.9466,-34.4767 3665.7817,-29.4149"/>
</g>
<!-- Node21 -->
<g id="node22" class="node">
<title>Node21</title>
<polygon fill="none" stroke="#bfbfbf" points="375.709,-6 375.709,-25 444.709,-25 444.709,-6 375.709,-6"/>
<text text-anchor="middle" x="410.209" y="-13" font-family="Helvetica,sans-Serif" font-size="10.00" fill="#000000">type_traits</text>
</g>
<!-- Node1&#45;&gt;Node21 -->
<g id="edge127" class="edge">
<title>Node1&#45;&gt;Node21</title>
<path fill="none" stroke="#191970" d="M2412.0455,-389.2663C2037.9078,-385.2694 290.4389,-365.5104 178.209,-344 96.161,-328.2744 2.209,-361.5414 2.209,-278 2.209,-278 2.209,-278 2.209,-149.5 2.209,-111.8735 -6.6269,-92.3164 21.209,-67 46.3425,-44.1414 268.5039,-25.6364 365.3744,-18.5797"/>
<polygon fill="#191970" stroke="#191970" points="365.7261,-22.0635 375.4489,-17.8543 365.2233,-15.0816 365.7261,-22.0635"/>
</g>
<!-- Node23 -->
<g id="node24" class="node">
<title>Node23</title>
<polygon fill="none" stroke="#bfbfbf" points="1609.709,-6 1609.709,-25 1656.709,-25 1656.709,-6 1609.709,-6"/>
<text text-anchor="middle" x="1633.209" y="-13" font-family="Helvetica,sans-Serif" font-size="10.00" fill="#000000">vector</text>
</g>
<!-- Node1&#45;&gt;Node23 -->
<g id="edge122" class="edge">
<title>Node1&#45;&gt;Node23</title>
<path fill="none" stroke="#191970" d="M2476.6019,-380.4834C2466.0316,-361.6141 2444.209,-317.8343 2444.209,-278 2444.209,-278 2444.209,-278 2444.209,-216.5 2444.209,-144.5683 2441.0043,-108.4401 2382.209,-67 2317.0999,-21.1099 1743.4925,-50.296 1666.209,-31 1664.0135,-30.4518 1661.7877,-29.7545 1659.5828,-28.9604"/>
<polygon fill="#191970" stroke="#191970" points="1660.7844,-25.6689 1650.2094,-25.0213 1658.0724,-32.1222 1660.7844,-25.6689"/>
</g>
<!-- Node31 -->
<g id="node32" class="node">
<title>Node31</title>
<g id="a_node32"><a xlink:href="../../d0/d95/TypeTraits_8h.html" target="_top" xlink:title="Framework/TypeTraits.h">
<polygon fill="none" stroke="#000000" points="1028.709,-140 1028.709,-159 1159.709,-159 1159.709,-140 1028.709,-140"/>
<text text-anchor="middle" x="1094.209" y="-147" font-family="Helvetica,sans-Serif" font-size="10.00" fill="#000000">Framework/TypeTraits.h</text>
</a>
</g>
</g>
<!-- Node1&#45;&gt;Node31 -->
<g id="edge111" class="edge">
<title>Node1&#45;&gt;Node31</title>
<path fill="none" stroke="#191970" d="M2411.9894,-388.5624C2207.4149,-384.0863 1624.2977,-369.1711 1592.209,-344 1539.9908,-303.039 1600.1523,-243.5361 1549.209,-201 1520.7191,-177.2118 1291.6632,-160.724 1169.8251,-153.5446"/>
<polygon fill="#191970" stroke="#191970" points="1169.9973,-150.0488 1159.8107,-152.9612 1169.5902,-157.0369 1169.9973,-150.0488"/>
</g>
<!-- Node32 -->
<g id="node33" class="node">
<title>Node32</title>
<g id="a_node33"><a xlink:href="../../db/d31/Traits_8h.html" target="_top" xlink:title="Framework/Traits.h">
<polygon fill="none" stroke="#000000" points="30.709,-73 30.709,-92 139.709,-92 139.709,-73 30.709,-73"/>
<text text-anchor="middle" x="85.209" y="-80" font-family="Helvetica,sans-Serif" font-size="10.00" fill="#000000">Framework/Traits.h</text>
</a>
</g>
</g>
<!-- Node1&#45;&gt;Node32 -->
<g id="edge115" class="edge">
<title>Node1&#45;&gt;Node32</title>
<path fill="none" stroke="#191970" d="M2412.1885,-389.4617C2108.6079,-386.9572 904.5727,-375.2159 527.209,-344 351.3785,-329.4552 264.6009,-406.8522 134.209,-288 80.6906,-239.2181 80.5775,-143.4475 83.3264,-102.1835"/>
<polygon fill="#191970" stroke="#191970" points="86.8265,-102.322 84.1357,-92.0746 79.8488,-101.7634 86.8265,-102.322"/>
</g>
<!-- Node35 -->
<g id="node36" class="node">
<title>Node35</title>
<polygon fill="none" stroke="#bfbfbf" points="598.209,-73 598.209,-92 646.209,-92 646.209,-73 598.209,-73"/>
<text text-anchor="middle" x="622.209" y="-80" font-family="Helvetica,sans-Serif" font-size="10.00" fill="#000000">gsl/gsl</text>
</g>
<!-- Node1&#45;&gt;Node35 -->
<g id="edge119" class="edge">
<title>Node1&#45;&gt;Node35</title>
<path fill="none" stroke="#191970" d="M2412.0577,-388.5266C2022.0448,-380.1111 138.209,-336.4377 138.209,-278 138.209,-278 138.209,-278 138.209,-216.5 138.209,-178.8735 129.1048,-159.0182 157.209,-134 189.289,-105.4425 485.7925,-88.9184 587.8711,-84.0379"/>
<polygon fill="#191970" stroke="#191970" points="588.1333,-87.5295 597.9578,-83.5634 587.8043,-80.5372 588.1333,-87.5295"/>
</g>
<!-- Node36 -->
<g id="node37" class="node">
<title>Node36</title>
<g id="a_node37"><a xlink:href="../../d7/d91/BoostSerializer_8h.html" target="_top" xlink:title="Templatised boost serializer/deserializer for containers and base types. ">
<polygon fill="none" stroke="#000000" points="1593.209,-140 1593.209,-159 1761.209,-159 1761.209,-140 1593.209,-140"/>
<text text-anchor="middle" x="1677.209" y="-147" font-family="Helvetica,sans-Serif" font-size="10.00" fill="#000000">CommonUtils/BoostSerializer.h</text>
</a>
</g>
</g>
<!-- Node1&#45;&gt;Node36 -->
<g id="edge118" class="edge">
<title>Node1&#45;&gt;Node36</title>
<path fill="none" stroke="#191970" d="M2423.0775,-380.4873C2375.8981,-372.3681 2308.3197,-359.5513 2250.209,-344 2041.5835,-288.1687 1798.517,-196.5799 1710.8598,-162.6665"/>
<polygon fill="#191970" stroke="#191970" points="1712.0173,-159.3614 1701.4283,-159.0078 1709.4856,-165.8876 1712.0173,-159.3614"/>
</g>
<!-- Node49 -->
<g id="node50" class="node">
<title>Node49</title>
<g id="a_node50"><a xlink:href="../../dc/dcd/DataHeader_8h.html" target="_top" xlink:title="Headers/DataHeader.h">
<polygon fill="none" stroke="#000000" points="3203.709,-73 3203.709,-92 3330.709,-92 3330.709,-73 3203.709,-73"/>
<text text-anchor="middle" x="3267.209" y="-80" font-family="Helvetica,sans-Serif" font-size="10.00" fill="#000000">Headers/DataHeader.h</text>
</a>
</g>
</g>
<!-- Node1&#45;&gt;Node49 -->
<g id="edge117" class="edge">
<title>Node1&#45;&gt;Node49</title>
<path fill="none" stroke="#191970" d="M2541.9069,-380.4917C2630.4397,-364.6791 2786.209,-329.5351 2786.209,-278 2786.209,-278 2786.209,-278 2786.209,-216.5 2786.209,-178.8735 2777.1137,-159.0282 2805.209,-134 2819.5104,-121.2598 3066.7089,-99.0906 3193.4895,-88.4856"/>
<polygon fill="#191970" stroke="#191970" points="3193.8429,-91.9683 3203.5176,-87.6498 3193.2615,-84.9925 3193.8429,-91.9683"/>
</g>
<!-- Node1&#45;&gt;Node51 -->
<g id="edge124" class="edge">
<title>Node1&#45;&gt;Node51</title>
<path fill="none" stroke="#191970" d="M2552.2449,-387.9367C2744.365,-382.0753 3276.9303,-364.4223 3451.209,-344 3608.8641,-325.5257 3802.209,-436.7339 3802.209,-278 3802.209,-278 3802.209,-278 3802.209,-149.5 3802.209,-108.5645 3793.4093,-61.2853 3787.7871,-35.2554"/>
<polygon fill="#191970" stroke="#191970" points="3791.1337,-34.182 3785.5387,-25.1849 3784.3019,-35.7073 3791.1337,-34.182"/>
</g>
<!-- Node58 -->
<g id="node59" class="node">
<title>Node58</title>
<g id="a_node59"><a xlink:href="../../d5/d19/InputRoute_8h.html" target="_top" xlink:title="Framework/InputRoute.h">
<polygon fill="none" stroke="#000000" points="2830.709,-324.5 2830.709,-343.5 2965.709,-343.5 2965.709,-324.5 2830.709,-324.5"/>
<text text-anchor="middle" x="2898.209" y="-331.5" font-family="Helvetica,sans-Serif" font-size="10.00" fill="#000000">Framework/InputRoute.h</text>
</a>
</g>
</g>
<!-- Node1&#45;&gt;Node58 -->
<g id="edge76" class="edge">
<title>Node1&#45;&gt;Node58</title>
<path fill="none" stroke="#191970" d="M2552.3073,-380.5637C2626.5455,-370.5701 2743.44,-354.8343 2820.4604,-344.4662"/>
<polygon fill="#191970" stroke="#191970" points="2821.1423,-347.906 2830.586,-343.1031 2820.2084,-340.9686 2821.1423,-347.906"/>
</g>
<!-- Node74 -->
<g id="node75" class="node">
<title>Node74</title>
<g id="a_node75"><a xlink:href="../../da/d0f/InputSpan_8h.html" target="_top" xlink:title="Framework/InputSpan.h">
<polygon fill="none" stroke="#000000" points="2983.709,-324.5 2983.709,-343.5 3114.709,-343.5 3114.709,-324.5 2983.709,-324.5"/>
<text text-anchor="middle" x="3049.209" y="-331.5" font-family="Helvetica,sans-Serif" font-size="10.00" fill="#000000">Framework/InputSpan.h</text>
</a>
</g>
</g>
<!-- Node1&#45;&gt;Node74 -->
<g id="edge112" class="edge">
<title>Node1&#45;&gt;Node74</title>
<path fill="none" stroke="#191970" d="M2552.5141,-384.3589C2646.1849,-376.6379 2817.3392,-361.8161 2973.2149,-344.1933"/>
<polygon fill="#191970" stroke="#191970" points="2973.9185,-347.6359 2983.459,-343.0285 2973.1276,-340.6807 2973.9185,-347.6359"/>
</g>
<!-- Node75 -->
<g id="node76" class="node">
<title>Node75</title>
<g id="a_node76"><a xlink:href="../../dc/d03/TableConsumer_8h.html" target="_top" xlink:title="Framework/TableConsumer.h">
<polygon fill="none" stroke="#000000" points="2258.709,-324.5 2258.709,-343.5 2415.709,-343.5 2415.709,-324.5 2258.709,-324.5"/>
<text text-anchor="middle" x="2337.209" y="-331.5" font-family="Helvetica,sans-Serif" font-size="10.00" fill="#000000">Framework/TableConsumer.h</text>
</a>
</g>
</g>
<!-- Node1&#45;&gt;Node75 -->
<g id="edge113" class="edge">
<title>Node1&#45;&gt;Node75</title>
<path fill="none" stroke="#191970" d="M2457.2826,-380.3733C2433.5888,-371.2226 2397.7579,-357.3844 2371.4022,-347.2057"/>
<polygon fill="#191970" stroke="#191970" points="2372.3995,-343.8389 2361.8101,-343.5011 2369.8776,-350.3689 2372.3995,-343.8389"/>
</g>
<!-- Node76 -->
<g id="node77" class="node">
<title>Node76</title>
<polygon fill="none" stroke="#bfbfbf" points="3132.709,-324.5 3132.709,-343.5 3185.709,-343.5 3185.709,-324.5 3132.709,-324.5"/>
<text text-anchor="middle" x="3159.209" y="-331.5" font-family="Helvetica,sans-Serif" font-size="10.00" fill="#000000">iterator</text>
</g>
<!-- Node1&#45;&gt;Node76 -->
<g id="edge120" class="edge">
<title>Node1&#45;&gt;Node76</title>
<path fill="none" stroke="#191970" d="M2552.3365,-386.8096C2691.3853,-380.1909 2998.6197,-364.0339 3122.5769,-343.925"/>
<polygon fill="#191970" stroke="#191970" points="3123.3184,-347.3492 3132.5888,-342.2198 3122.1431,-340.4485 3123.3184,-347.3492"/>
</g>
<!-- Node77 -->
<g id="node78" class="node">
<title>Node77</title>
<polygon fill="none" stroke="#bfbfbf" points="3203.709,-324.5 3203.709,-343.5 3268.709,-343.5 3268.709,-324.5 3203.709,-324.5"/>
<text text-anchor="middle" x="3236.209" y="-331.5" font-family="Helvetica,sans-Serif" font-size="10.00" fill="#000000">exception</text>
</g>
<!-- Node1&#45;&gt;Node77 -->
<g id="edge125" class="edge">
<title>Node1&#45;&gt;Node77</title>
<path fill="none" stroke="#191970" d="M2552.3244,-387.04C2703.0695,-380.4277 3054.9337,-363.5979 3193.6323,-343.9672"/>
<polygon fill="#191970" stroke="#191970" points="3194.2574,-347.413 3203.6381,-342.4883 3193.2338,-340.4882 3194.2574,-347.413"/>
</g>
<!-- Node3&#45;&gt;Node2 -->
<g id="edge4" class="edge">
<title>Node3&#45;&gt;Node2</title>
<path fill="none" stroke="#191970" d="M1173.657,-268.4857C1234.3677,-259.805 1325.3839,-246.1991 1404.209,-232 1410.8907,-230.7964 1417.8908,-229.4563 1424.8165,-228.0819"/>
<polygon fill="#191970" stroke="#191970" points="1425.7535,-231.4635 1434.8643,-226.0559 1424.3698,-224.6016 1425.7535,-231.4635"/>
</g>
<!-- Node4 -->
<g id="node5" class="node">
<title>Node4</title>
<g id="a_node5"><a xlink:href="../../d8/d3c/TMessageSerializer_8h.html" target="_top" xlink:title="Framework/TMessageSerializer.h">
<polygon fill="none" stroke="#000000" points="631.209,-207 631.209,-226 807.209,-226 807.209,-207 631.209,-207"/>
<text text-anchor="middle" x="719.209" y="-214" font-family="Helvetica,sans-Serif" font-size="10.00" fill="#000000">Framework/TMessageSerializer.h</text>
</a>
</g>
</g>
<!-- Node3&#45;&gt;Node4 -->
<g id="edge5" class="edge">
<title>Node3&#45;&gt;Node4</title>
<path fill="none" stroke="#191970" d="M1045.32,-268.4581C976.0508,-257.4217 862.1789,-239.2789 788.9719,-227.6151"/>
<polygon fill="#191970" stroke="#191970" points="789.347,-224.1308 778.9208,-226.0137 788.2456,-231.0436 789.347,-224.1308"/>
</g>
<!-- Node3&#45;&gt;Node21 -->
<g id="edge75" class="edge">
<title>Node3&#45;&gt;Node21</title>
<path fill="none" stroke="#191970" d="M1032.9367,-274.8787C821.3456,-264.9982 214.455,-231.0856 157.209,-165 91.3513,-88.9731 276.983,-41.3793 365.8075,-23.5155"/>
<polygon fill="#191970" stroke="#191970" points="366.4903,-26.9484 375.626,-21.5827 365.1382,-20.0802 366.4903,-26.9484"/>
</g>
<!-- Node30 -->
<g id="node31" class="node">
<title>Node30</title>
<g id="a_node31"><a xlink:href="../../d1/d53/SerializationMethods_8h.html" target="_top" xlink:title="Type wrappers for enfording a specific serialization method. ">
<polygon fill="none" stroke="#000000" points="1170.709,-207 1170.709,-226 1355.709,-226 1355.709,-207 1170.709,-207"/>
<text text-anchor="middle" x="1263.209" y="-214" font-family="Helvetica,sans-Serif" font-size="10.00" fill="#000000">Framework/SerializationMethods.h</text>
</a>
</g>
</g>
<!-- Node3&#45;&gt;Node30 -->
<g id="edge31" class="edge">
<title>Node3&#45;&gt;Node30</title>
<path fill="none" stroke="#191970" d="M1129.8965,-268.3906C1156.5647,-258.0103 1199.2372,-241.4004 1229.1001,-229.7766"/>
<polygon fill="#191970" stroke="#191970" points="1230.6455,-232.9309 1238.6948,-226.0419 1228.1063,-226.4076 1230.6455,-232.9309"/>
</g>
<!-- Node3&#45;&gt;Node31 -->
<g id="edge59" class="edge">
<title>Node3&#45;&gt;Node31</title>
<path fill="none" stroke="#191970" d="M1109.4309,-268.4591C1115.3359,-253.8511 1124.7494,-225.1001 1119.209,-201 1116.5647,-189.4978 1110.9943,-177.5851 1105.7814,-168.1178"/>
<polygon fill="#191970" stroke="#191970" points="1108.676,-166.1335 1100.6161,-159.2568 1102.6284,-169.6588 1108.676,-166.1335"/>
</g>
<!-- Node3&#45;&gt;Node35 -->
<g id="edge72" class="edge">
<title>Node3&#45;&gt;Node35</title>
<path fill="none" stroke="#191970" d="M1039.6157,-268.4797C997.762,-260.9101 949.041,-248.7916 936.209,-232 909.7568,-197.3855 967.0331,-166.6656 938.209,-134 895.6802,-85.8034 712.4653,-117.4748 651.209,-98 649.7809,-97.546 648.3407,-97.0221 646.906,-96.4474"/>
<polygon fill="#191970" stroke="#191970" points="648.2412,-93.2077 637.7022,-92.1211 645.2633,-99.5427 648.2412,-93.2077"/>
</g>
<!-- Node3&#45;&gt;Node49 -->
<g id="edge60" class="edge">
<title>Node3&#45;&gt;Node49</title>
<path fill="none" stroke="#191970" d="M1177.2218,-273.2825C1230.4629,-267.8924 1303.8796,-256.4038 1364.209,-232 1387.0636,-222.7551 1386.8661,-208.9317 1410.209,-201 1532.2701,-159.5249 1860.5519,-173.1524 1989.209,-165 2446.9908,-135.9927 2996.9406,-100.1582 3193.1908,-87.3397"/>
<polygon fill="#191970" stroke="#191970" points="3193.6323,-90.8184 3203.3828,-86.6739 3193.1759,-83.8333 3193.6323,-90.8184"/>
</g>
<!-- Node53 -->
<g id="node54" class="node">
<title>Node53</title>
<polygon fill="none" stroke="#bfbfbf" points="1674.709,-6 1674.709,-25 1739.709,-25 1739.709,-6 1674.709,-6"/>
<text text-anchor="middle" x="1707.209" y="-13" font-family="Helvetica,sans-Serif" font-size="10.00" fill="#000000">stdexcept</text>
</g>
<!-- Node3&#45;&gt;Node53 -->
<g id="edge73" class="edge">
<title>Node3&#45;&gt;Node53</title>
<path fill="none" stroke="#191970" d="M1105.2771,-268.3909C1104.9016,-252.6531 1102.0492,-221.1241 1086.209,-201 1083.7115,-197.8272 961.0235,-135.3241 957.209,-134 876.8398,-106.1015 823.4139,-163.5695 769.209,-98 760.4304,-87.381 759.6639,-76.9358 769.209,-67 803.7605,-31.034 1617.3374,-40.9463 1666.209,-31 1669.49,-30.3323 1672.8543,-29.4362 1676.1764,-28.4099"/>
<polygon fill="#191970" stroke="#191970" points="1677.5905,-31.624 1685.8905,-25.0391 1675.2957,-25.0109 1677.5905,-31.624"/>
</g>
<!-- Node56 -->
<g id="node57" class="node">
<title>Node56</title>
<polygon fill="none" stroke="#bfbfbf" points="945.709,-207 945.709,-226 1002.709,-226 1002.709,-207 945.709,-207"/>
<text text-anchor="middle" x="974.209" y="-214" font-family="Helvetica,sans-Serif" font-size="10.00" fill="#000000">TClass.h</text>
</g>
<!-- Node3&#45;&gt;Node56 -->
<g id="edge71" class="edge">
<title>Node3&#45;&gt;Node56</title>
<path fill="none" stroke="#191970" d="M1084.7402,-268.3906C1063.0138,-258.1908 1028.4755,-241.9763 1003.7904,-230.3875"/>
<polygon fill="#191970" stroke="#191970" points="1005.0735,-227.1234 994.534,-226.0419 1002.0987,-233.4598 1005.0735,-227.1234"/>
</g>
<!-- Node57 -->
<g id="node58" class="node">
<title>Node57</title>
<polygon fill="none" stroke="#bfbfbf" points="1021.209,-207 1021.209,-226 1077.209,-226 1077.209,-207 1021.209,-207"/>
<text text-anchor="middle" x="1049.209" y="-214" font-family="Helvetica,sans-Serif" font-size="10.00" fill="#000000">sstream</text>
</g>
<!-- Node3&#45;&gt;Node57 -->
<g id="edge74" class="edge">
<title>Node3&#45;&gt;Node57</title>
<path fill="none" stroke="#191970" d="M1096.459,-268.3906C1088.0427,-259.1478 1075.1292,-244.966 1064.928,-233.7628"/>
<polygon fill="#191970" stroke="#191970" points="1067.403,-231.2824 1058.0823,-226.2449 1062.2272,-235.9953 1067.403,-231.2824"/>
</g>
<!-- Node4&#45;&gt;Node5 -->
<g id="edge6" class="edge">
<title>Node4&#45;&gt;Node5</title>
<path fill="none" stroke="#191970" d="M631.043,-207.118C548.6304,-197.922 422.2613,-182.7295 313.209,-165 305.8182,-163.7984 298.0581,-162.4103 290.417,-160.9686"/>
<polygon fill="#191970" stroke="#191970" points="290.9632,-157.5095 280.4815,-159.0536 289.6383,-164.383 290.9632,-157.5095"/>
</g>
<!-- Node6 -->
<g id="node7" class="node">
<title>Node6</title>
<polygon fill="none" stroke="#bfbfbf" points="846.709,-140 846.709,-159 895.709,-159 895.709,-140 846.709,-140"/>
<text text-anchor="middle" x="871.209" y="-147" font-family="Helvetica,sans-Serif" font-size="10.00" fill="#000000">TList.h</text>
</g>
<!-- Node4&#45;&gt;Node6 -->
<g id="edge7" class="edge">
<title>Node4&#45;&gt;Node6</title>
<path fill="none" stroke="#191970" d="M741.4394,-206.9253C765.1955,-196.6638 803.9358,-179.844 837.209,-165 838.4087,-164.4648 839.6313,-163.9173 840.8657,-163.3627"/>
<polygon fill="#191970" stroke="#191970" points="842.7059,-166.3719 850.3753,-159.0622 839.8215,-159.9937 842.7059,-166.3719"/>
</g>
<!-- Node7 -->
<g id="node8" class="node">
<title>Node7</title>
<polygon fill="none" stroke="#bfbfbf" points="322.209,-140 322.209,-159 396.209,-159 396.209,-140 322.209,-140"/>
<text text-anchor="middle" x="359.209" y="-147" font-family="Helvetica,sans-Serif" font-size="10.00" fill="#000000">TMessage.h</text>
</g>
<!-- Node4&#45;&gt;Node7 -->
<g id="edge8" class="edge">
<title>Node4&#45;&gt;Node7</title>
<path fill="none" stroke="#191970" d="M638.7883,-206.9725C574.9138,-198.5291 483.6118,-184.5014 405.209,-165 401.8355,-164.1609 398.3548,-163.1898 394.8891,-162.151"/>
<polygon fill="#191970" stroke="#191970" points="395.8532,-158.785 385.263,-159.0975 393.7367,-165.4573 395.8532,-158.785"/>
</g>
<!-- Node8 -->
<g id="node9" class="node">
<title>Node8</title>
<polygon fill="none" stroke="#bfbfbf" points="480.709,-140 480.709,-159 553.709,-159 553.709,-140 480.709,-140"/>
<text text-anchor="middle" x="517.209" y="-147" font-family="Helvetica,sans-Serif" font-size="10.00" fill="#000000">TObjArray.h</text>
</g>
<!-- Node4&#45;&gt;Node8 -->
<g id="edge9" class="edge">
<title>Node4&#45;&gt;Node8</title>
<path fill="none" stroke="#191970" d="M689.651,-206.9479C658.0598,-196.7052 606.5291,-179.9011 562.209,-165 559.6537,-164.1409 557.0189,-163.249 554.3663,-162.3467"/>
<polygon fill="#191970" stroke="#191970" points="555.3875,-158.997 544.7929,-159.0731 553.1226,-165.6204 555.3875,-158.997"/>
</g>
<!-- Node9 -->
<g id="node10" class="node">
<title>Node9</title>
<polygon fill="none" stroke="#bfbfbf" points="571.709,-140 571.709,-159 666.709,-159 666.709,-140 571.709,-140"/>
<text text-anchor="middle" x="619.209" y="-147" font-family="Helvetica,sans-Serif" font-size="10.00" fill="#000000">TStreamerInfo.h</text>
</g>
<!-- Node4&#45;&gt;Node9 -->
<g id="edge10" class="edge">
<title>Node4&#45;&gt;Node9</title>
<path fill="none" stroke="#191970" d="M704.8814,-206.9005C688.4704,-195.9052 661.3614,-177.7422 642.0338,-164.7927"/>
<polygon fill="#191970" stroke="#191970" points="643.7658,-161.7402 633.5099,-159.0817 639.8695,-167.5556 643.7658,-161.7402"/>
</g>
<!-- Node10 -->
<g id="node11" class="node">
<title>Node10</title>
<polygon fill="none" stroke="#bfbfbf" points="684.709,-140 684.709,-159 753.709,-159 753.709,-140 684.709,-140"/>
<text text-anchor="middle" x="719.209" y="-147" font-family="Helvetica,sans-Serif" font-size="10.00" fill="#000000">gsl/gsl_util</text>
</g>
<!-- Node4&#45;&gt;Node10 -->
<g id="edge11" class="edge">
<title>Node4&#45;&gt;Node10</title>
<path fill="none" stroke="#191970" d="M719.209,-206.9005C719.209,-197.149 719.209,-181.7597 719.209,-169.3695"/>
<polygon fill="#191970" stroke="#191970" points="722.7091,-169.0816 719.209,-159.0817 715.7091,-169.0817 722.7091,-169.0816"/>
</g>
<!-- Node11 -->
<g id="node12" class="node">
<title>Node11</title>
<polygon fill="none" stroke="#bfbfbf" points="771.709,-140 771.709,-159 828.709,-159 828.709,-140 771.709,-140"/>
<text text-anchor="middle" x="800.209" y="-147" font-family="Helvetica,sans-Serif" font-size="10.00" fill="#000000">gsl/span</text>
</g>
<!-- Node4&#45;&gt;Node11 -->
<g id="edge12" class="edge">
<title>Node4&#45;&gt;Node11</title>
<path fill="none" stroke="#191970" d="M730.8143,-206.9005C743.8064,-196.1539 765.0763,-178.5603 780.6487,-165.6794"/>
<polygon fill="#191970" stroke="#191970" points="783.1504,-168.1524 788.6252,-159.0817 778.6888,-162.7585 783.1504,-168.1524"/>
</g>
<!-- Node4&#45;&gt;Node12 -->
<g id="edge13" class="edge">
<title>Node4&#45;&gt;Node12</title>
<path fill="none" stroke="#191970" d="M800.4526,-206.9965C865.5097,-196.1974 940.3813,-174.5418 904.209,-134 810.3969,-28.8559 683.0211,-203.1441 589.209,-98 580.0364,-87.7194 579.8216,-77.0848 589.209,-67 612.4947,-41.9842 1120.3541,-22.1132 1267.557,-16.8633"/>
<polygon fill="#191970" stroke="#191970" points="1268.0474,-20.3482 1277.9174,-16.4967 1267.7999,-13.3526 1268.0474,-20.3482"/>
</g>
<!-- Node13 -->
<g id="node14" class="node">
<title>Node13</title>
<polygon fill="none" stroke="#bfbfbf" points="414.209,-140 414.209,-159 462.209,-159 462.209,-140 414.209,-140"/>
<text text-anchor="middle" x="438.209" y="-147" font-family="Helvetica,sans-Serif" font-size="10.00" fill="#000000">mutex</text>
</g>
<!-- Node4&#45;&gt;Node13 -->
<g id="edge14" class="edge">
<title>Node4&#45;&gt;Node13</title>
<path fill="none" stroke="#191970" d="M652.3032,-206.9717C601.7459,-198.73 531.0699,-184.9657 471.209,-165 469.5577,-164.4493 467.8804,-163.838 466.2018,-163.1855"/>
<polygon fill="#191970" stroke="#191970" points="467.3141,-159.8544 456.7438,-159.1332 464.5572,-166.2887 467.3141,-159.8544"/>
</g>
<!-- Node4&#45;&gt;Node14 -->
<g id="edge15" class="edge">
<title>Node4&#45;&gt;Node14</title>
<path fill="none" stroke="#191970" d="M807.3327,-209.6399C846.7439,-206.7177 893.7877,-203.4301 936.209,-201 1306.6135,-179.7811 1399.9306,-188.3178 1770.209,-165 2092.9068,-144.6785 2473.5701,-110.2264 2656.8133,-92.9843"/>
<polygon fill="#191970" stroke="#191970" points="2657.3653,-96.4479 2666.9928,-92.0251 2656.7085,-89.4788 2657.3653,-96.4479"/>
</g>
<!-- Node15 -->
<g id="node16" class="node">
<title>Node15</title>
<polygon fill="none" stroke="#bfbfbf" points="2325.709,-.5 2325.709,-30.5 2436.709,-30.5 2436.709,-.5 2325.709,-.5"/>
<text text-anchor="start" x="2333.709" y="-18.5" font-family="Helvetica,sans-Serif" font-size="10.00" fill="#000000">boost/container/flat</text>
<text text-anchor="middle" x="2381.209" y="-7.5" font-family="Helvetica,sans-Serif" font-size="10.00" fill="#000000">_map.hpp</text>
</g>
<!-- Node14&#45;&gt;Node15 -->
<g id="edge16" class="edge">
<title>Node14&#45;&gt;Node15</title>
<path fill="none" stroke="#191970" d="M2697.5912,-72.9678C2634.834,-63.9054 2539.2409,-49.2393 2446.637,-30.9986"/>
<polygon fill="#191970" stroke="#191970" points="2447.3085,-27.5636 2436.8183,-29.0486 2445.9449,-34.4296 2447.3085,-27.5636"/>
</g>
<!-- Node16 -->
<g id="node17" class="node">
<title>Node16</title>
<polygon fill="none" stroke="#bfbfbf" points="1820.709,-.5 1820.709,-30.5 1949.709,-30.5 1949.709,-.5 1820.709,-.5"/>
<text text-anchor="start" x="1828.709" y="-18.5" font-family="Helvetica,sans-Serif" font-size="10.00" fill="#000000">boost/container/pmr</text>
<text text-anchor="middle" x="1885.209" y="-7.5" font-family="Helvetica,sans-Serif" font-size="10.00" fill="#000000">/memory_resource.hpp</text>
</g>
<!-- Node14&#45;&gt;Node16 -->
<g id="edge17" class="edge">
<title>Node14&#45;&gt;Node16</title>
<path fill="none" stroke="#191970" d="M2700.775,-72.9761C2683.6948,-70.745 2665.2869,-68.5654 2648.209,-67 2346.1293,-39.3112 2265.0231,-69.8791 1960.0975,-30.9717"/>
<polygon fill="#191970" stroke="#191970" points="1960.4501,-27.4882 1950.0844,-29.6795 1959.5541,-34.4307 1960.4501,-27.4882"/>
</g>
<!-- Node17 -->
<g id="node18" class="node">
<title>Node17</title>
<polygon fill="none" stroke="#bfbfbf" points="1967.709,-.5 1967.709,-30.5 2140.709,-30.5 2140.709,-.5 1967.709,-.5"/>
<text text-anchor="start" x="1975.709" y="-18.5" font-family="Helvetica,sans-Serif" font-size="10.00" fill="#000000">boost/container/pmr</text>
<text text-anchor="middle" x="2054.209" y="-7.5" font-family="Helvetica,sans-Serif" font-size="10.00" fill="#000000">/monotonic_buffer_resource.hpp</text>
</g>
<!-- Node14&#45;&gt;Node17 -->
<g id="edge18" class="edge">
<title>Node14&#45;&gt;Node17</title>
<path fill="none" stroke="#191970" d="M2698.8953,-72.9672C2682.344,-70.8141 2664.6538,-68.673 2648.209,-67 2430.6716,-44.8689 2372.325,-56.3613 2150.7581,-30.9907"/>
<polygon fill="#191970" stroke="#191970" points="2151.1033,-27.5074 2140.7672,-29.8345 2150.2985,-34.461 2151.1033,-27.5074"/>
</g>
<!-- Node18 -->
<g id="node19" class="node">
<title>Node18</title>
<polygon fill="none" stroke="#bfbfbf" points="2158.709,-.5 2158.709,-30.5 2307.709,-30.5 2307.709,-.5 2158.709,-.5"/>
<text text-anchor="start" x="2166.709" y="-18.5" font-family="Helvetica,sans-Serif" font-size="10.00" fill="#000000">boost/container/pmr</text>
<text text-anchor="middle" x="2233.209" y="-7.5" font-family="Helvetica,sans-Serif" font-size="10.00" fill="#000000">/polymorphic_allocator.hpp</text>
</g>
<!-- Node14&#45;&gt;Node18 -->
<g id="edge19" class="edge">
<title>Node14&#45;&gt;Node18</title>
<path fill="none" stroke="#191970" d="M2695.7329,-72.9815C2680.0939,-70.9422 2663.5951,-68.847 2648.209,-67 2504.5852,-49.7589 2465.3729,-52.313 2318.139,-31.0663"/>
<polygon fill="#191970" stroke="#191970" points="2318.2163,-27.5407 2307.8163,-29.5635 2317.2078,-34.4677 2318.2163,-27.5407"/>
</g>
<!-- Node14&#45;&gt;Node19 -->
<g id="edge20" class="edge">
<title>Node14&#45;&gt;Node19</title>
<path fill="none" stroke="#191970" d="M2837.6384,-72.9731C2852.9966,-70.9651 2869.1397,-68.8848 2884.209,-67 3018.7743,-50.1687 3056.6173,-67.5639 3187.209,-31 3189.1768,-30.449 3191.1751,-29.799 3193.1666,-29.0826"/>
<polygon fill="#191970" stroke="#191970" points="3194.9671,-32.1275 3202.895,-25.099 3192.3144,-25.6495 3194.9671,-32.1275"/>
</g>
<!-- Node14&#45;&gt;Node20 -->
<g id="edge21" class="edge">
<title>Node14&#45;&gt;Node20</title>
<path fill="none" stroke="#191970" d="M2869.7763,-78.3109C3079.6176,-69.514 3541.063,-48.4862 3611.209,-31 3613.4081,-30.4518 3615.6403,-29.7645 3617.8555,-28.9863"/>
<polygon fill="#191970" stroke="#191970" points="3619.3599,-32.1529 3627.3036,-25.1423 3616.7218,-25.669 3619.3599,-32.1529"/>
</g>
<!-- Node14&#45;&gt;Node21 -->
<g id="edge22" class="edge">
<title>Node14&#45;&gt;Node21</title>
<path fill="none" stroke="#191970" d="M2663.2872,-72.9683C2635.3784,-70.6816 2605.1542,-68.4767 2577.209,-67 2358.5432,-55.445 746.249,-22.3312 455.1786,-16.4114"/>
<polygon fill="#191970" stroke="#191970" points="455.0671,-12.9085 444.998,-16.2045 454.9248,-19.907 455.0671,-12.9085"/>
</g>
<!-- Node22 -->
<g id="node23" class="node">
<title>Node22</title>
<polygon fill="none" stroke="#bfbfbf" points="1757.709,-6 1757.709,-25 1802.709,-25 1802.709,-6 1757.709,-6"/>
<text text-anchor="middle" x="1780.209" y="-13" font-family="Helvetica,sans-Serif" font-size="10.00" fill="#000000">utility</text>
</g>
<!-- Node14&#45;&gt;Node22 -->
<g id="edge23" class="edge">
<title>Node14&#45;&gt;Node22</title>
<path fill="none" stroke="#191970" d="M2701.7093,-72.9898C2684.3701,-70.7172 2665.6027,-68.514 2648.209,-67 2462.9594,-50.8757 1992.513,-76.4735 1812.209,-31 1810.2337,-30.5018 1808.236,-29.8745 1806.2544,-29.1597"/>
<polygon fill="#191970" stroke="#191970" points="1807.2298,-25.7699 1796.6595,-25.0482 1804.4727,-32.2041 1807.2298,-25.7699"/>
</g>
<!-- Node14&#45;&gt;Node23 -->
<g id="edge24" class="edge">
<title>Node14&#45;&gt;Node23</title>
<path fill="none" stroke="#191970" d="M2702.3307,-72.9956C2684.8209,-70.6945 2665.8133,-68.4756 2648.209,-67 2430.6033,-48.76 1878.4285,-82.4566 1666.209,-31 1664.0098,-30.4668 1661.7813,-29.7802 1659.5746,-28.9935"/>
<polygon fill="#191970" stroke="#191970" points="1660.7736,-25.7012 1650.1977,-25.0688 1658.0709,-32.1584 1660.7736,-25.7012"/>
</g>
<!-- Node24 -->
<g id="node25" class="node">
<title>Node24</title>
<polygon fill="none" stroke="#bfbfbf" points="2454.709,-6 2454.709,-25 2547.709,-25 2547.709,-6 2454.709,-6"/>
<text text-anchor="middle" x="2501.209" y="-13" font-family="Helvetica,sans-Serif" font-size="10.00" fill="#000000">unordered_map</text>
</g>
<!-- Node14&#45;&gt;Node24 -->
<g id="edge25" class="edge">
<title>Node14&#45;&gt;Node24</title>
<path fill="none" stroke="#191970" d="M2726.0566,-72.9644C2683.9153,-62.8727 2615.7784,-46.3184 2557.209,-31 2553.2015,-29.9519 2549.0388,-28.8412 2544.8738,-27.715"/>
<polygon fill="#191970" stroke="#191970" points="2545.7921,-24.3377 2535.2234,-25.0812 2543.949,-31.0907 2545.7921,-24.3377"/>
</g>
<!-- Node25 -->
<g id="node26" class="node">
<title>Node25</title>
<polygon fill="none" stroke="#bfbfbf" points="2565.709,-6 2565.709,-25 2666.709,-25 2666.709,-6 2565.709,-6"/>
<text text-anchor="middle" x="2616.209" y="-13" font-family="Helvetica,sans-Serif" font-size="10.00" fill="#000000">FairMQMessage.h</text>
</g>
<!-- Node14&#45;&gt;Node25 -->
<g id="edge26" class="edge">
<title>Node14&#45;&gt;Node25</title>
<path fill="none" stroke="#191970" d="M2744.7176,-72.9005C2719.0987,-61.4574 2676.0991,-42.2509 2646.9643,-29.2374"/>
<polygon fill="#191970" stroke="#191970" points="2648.2184,-25.9643 2637.6604,-25.0817 2645.3636,-32.3557 2648.2184,-25.9643"/>
</g>
<!-- Node26 -->
<g id="node27" class="node">
<title>Node26</title>
<polygon fill="none" stroke="#bfbfbf" points="2684.709,-6 2684.709,-25 2821.709,-25 2821.709,-6 2684.709,-6"/>
<text text-anchor="middle" x="2753.209" y="-13" font-family="Helvetica,sans-Serif" font-size="10.00" fill="#000000">FairMQTransportFactory.h</text>
</g>
<!-- Node14&#45;&gt;Node26 -->
<g id="edge27" class="edge">
<title>Node14&#45;&gt;Node26</title>
<path fill="none" stroke="#191970" d="M2764.3464,-72.9005C2762.435,-63.0495 2759.4073,-47.4451 2756.9908,-34.9912"/>
<polygon fill="#191970" stroke="#191970" points="2760.4089,-34.2319 2755.0681,-25.0817 2753.537,-35.5653 2760.4089,-34.2319"/>
</g>
<!-- Node27 -->
<g id="node28" class="node">
<title>Node27</title>
<polygon fill="none" stroke="#bfbfbf" points="2840.209,-6 2840.209,-25 2990.209,-25 2990.209,-6 2840.209,-6"/>
<text text-anchor="middle" x="2915.209" y="-13" font-family="Helvetica,sans-Serif" font-size="10.00" fill="#000000">fairmq/MemoryResources.h</text>
</g>
<!-- Node14&#45;&gt;Node27 -->
<g id="edge28" class="edge">
<title>Node14&#45;&gt;Node27</title>
<path fill="none" stroke="#191970" d="M2787.557,-72.9005C2813.0052,-61.4574 2855.7181,-42.2509 2884.6587,-29.2374"/>
<polygon fill="#191970" stroke="#191970" points="2886.2155,-32.3749 2893.9005,-25.0817 2883.3447,-25.9907 2886.2155,-32.3749"/>
</g>
<!-- Node28 -->
<g id="node29" class="node">
<title>Node28</title>
<polygon fill="none" stroke="#bfbfbf" points="3008.209,-6 3008.209,-25 3178.209,-25 3178.209,-6 3008.209,-6"/>
<text text-anchor="middle" x="3093.209" y="-13" font-family="Helvetica,sans-Serif" font-size="10.00" fill="#000000">fairmq/MemoryResourceTools.h</text>
</g>
<!-- Node14&#45;&gt;Node28 -->
<g id="edge29" class="edge">
<title>Node14&#45;&gt;Node28</title>
<path fill="none" stroke="#191970" d="M2812.7128,-72.9717C2871.7114,-60.8833 2973.3919,-40.0497 3036.7705,-27.0638"/>
<polygon fill="#191970" stroke="#191970" points="3037.5072,-30.4857 3046.6011,-25.0496 3036.1021,-23.6282 3037.5072,-30.4857"/>
</g>
<!-- Node29 -->
<g id="node30" class="node">
<title>Node29</title>
<g id="a_node30"><a xlink:href="../../d7/df8/Types_8h.html" target="_top" xlink:title="Types.h">
<polygon fill="none" stroke="#000000" points="3264.709,-6 3264.709,-25 3317.709,-25 3317.709,-6 3264.709,-6"/>
<text text-anchor="middle" x="3291.209" y="-13" font-family="Helvetica,sans-Serif" font-size="10.00" fill="#000000">Types.h</text>
</a>
</g>
</g>
<!-- Node14&#45;&gt;Node29 -->
<g id="edge30" class="edge">
<title>Node14&#45;&gt;Node29</title>
<path fill="none" stroke="#191970" d="M2869.8507,-75.2639C2991.2703,-66.1412 3184.802,-49.4096 3255.209,-31 3257.5419,-30.39 3259.9189,-29.6518 3262.2829,-28.8327"/>
<polygon fill="#191970" stroke="#191970" points="3263.7359,-32.0229 3271.7823,-25.1305 3261.1939,-25.5008 3263.7359,-32.0229"/>
</g>
<!-- Node30&#45;&gt;Node31 -->
<g id="edge32" class="edge">
<title>Node30&#45;&gt;Node31</title>
<path fill="none" stroke="#191970" d="M1238.9954,-206.9005C1209.8804,-195.3579 1160.8411,-175.9163 1128.0072,-162.8993"/>
<polygon fill="#191970" stroke="#191970" points="1128.9637,-159.5135 1118.3776,-159.0817 1126.3838,-166.0208 1128.9637,-159.5135"/>
</g>
<!-- Node30&#45;&gt;Node36 -->
<g id="edge41" class="edge">
<title>Node30&#45;&gt;Node36</title>
<path fill="none" stroke="#191970" d="M1322.0854,-206.9717C1397.5493,-194.7589 1528.1685,-173.6201 1608.2158,-160.6656"/>
<polygon fill="#191970" stroke="#191970" points="1608.8885,-164.1023 1618.2008,-159.0496 1607.7701,-157.1922 1608.8885,-164.1023"/>
</g>
<!-- Node31&#45;&gt;Node12 -->
<g id="edge35" class="edge">
<title>Node31&#45;&gt;Node12</title>
<path fill="none" stroke="#191970" d="M1028.3378,-140.1503C934.5777,-126.6895 773.4117,-102.9211 769.209,-98 760.2614,-87.523 759.9424,-77.196 769.209,-67 802.6714,-30.1814 1149.9849,-19.0209 1268.1221,-16.2758"/>
<polygon fill="#191970" stroke="#191970" points="1268.2587,-19.7737 1278.1775,-16.0498 1268.1013,-12.7755 1268.2587,-19.7737"/>
</g>
<!-- Node31&#45;&gt;Node21 -->
<g id="edge33" class="edge">
<title>Node31&#45;&gt;Node21</title>
<path fill="none" stroke="#191970" d="M1028.4885,-140.4891C945.9679,-128.9844 809.156,-109.2276 759.209,-98 712.1513,-87.4219 701.9601,-78.8598 655.209,-67 585.7878,-49.3892 504.2292,-33.1125 454.92,-23.7488"/>
<polygon fill="#191970" stroke="#191970" points="455.3792,-20.2737 444.9035,-21.8576 454.0805,-27.1522 455.3792,-20.2737"/>
</g>
<!-- Node31&#45;&gt;Node23 -->
<g id="edge34" class="edge">
<title>Node31&#45;&gt;Node23</title>
<path fill="none" stroke="#191970" d="M1097.7279,-139.8118C1104.7804,-121.946 1122.4768,-84.0795 1151.209,-67 1189.6365,-44.1572 1496.3254,-23.755 1599.488,-17.4785"/>
<polygon fill="#191970" stroke="#191970" points="1599.8837,-20.9611 1609.655,-16.8657 1599.4625,-13.9738 1599.8837,-20.9611"/>
</g>
<!-- Node31&#45;&gt;Node32 -->
<g id="edge36" class="edge">
<title>Node31&#45;&gt;Node32</title>
<path fill="none" stroke="#191970" d="M1028.284,-143.8187C991.7377,-140.7455 945.4711,-136.9801 904.209,-134 623.4852,-113.725 288.2963,-94.073 149.8826,-86.1567"/>
<polygon fill="#191970" stroke="#191970" points="150.0481,-82.6606 139.8648,-85.5846 149.649,-89.6492 150.0481,-82.6606"/>
</g>
<!-- Node33 -->
<g id="node34" class="node">
<title>Node33</title>
<polygon fill="none" stroke="#bfbfbf" points="912.209,-67.5 912.209,-97.5 1028.209,-97.5 1028.209,-67.5 912.209,-67.5"/>
<text text-anchor="start" x="920.209" y="-85.5" font-family="Helvetica,sans-Serif" font-size="10.00" fill="#000000">boost/archive/binary</text>
<text text-anchor="middle" x="970.209" y="-74.5" font-family="Helvetica,sans-Serif" font-size="10.00" fill="#000000">_iarchive.hpp</text>
</g>
<!-- Node31&#45;&gt;Node33 -->
<g id="edge38" class="edge">
<title>Node31&#45;&gt;Node33</title>
<path fill="none" stroke="#191970" d="M1076.4428,-139.9005C1058.3523,-130.1258 1029.778,-114.6865 1006.8189,-102.2812"/>
<polygon fill="#191970" stroke="#191970" points="1008.4721,-99.1962 998.0104,-97.5218 1005.1445,-105.3548 1008.4721,-99.1962"/>
</g>
<!-- Node34 -->
<g id="node35" class="node">
<title>Node34</title>
<polygon fill="none" stroke="#bfbfbf" points="778.209,-67.5 778.209,-97.5 894.209,-97.5 894.209,-67.5 778.209,-67.5"/>
<text text-anchor="start" x="786.209" y="-85.5" font-family="Helvetica,sans-Serif" font-size="10.00" fill="#000000">boost/archive/binary</text>
<text text-anchor="middle" x="836.209" y="-74.5" font-family="Helvetica,sans-Serif" font-size="10.00" fill="#000000">_oarchive.hpp</text>
</g>
<!-- Node31&#45;&gt;Node34 -->
<g id="edge39" class="edge">
<title>Node31&#45;&gt;Node34</title>
<path fill="none" stroke="#191970" d="M1057.5178,-139.9717C1017.6911,-129.6291 953.2131,-112.8848 904.1018,-100.1311"/>
<polygon fill="#191970" stroke="#191970" points="904.742,-96.6813 894.1833,-97.5553 902.9825,-103.4566 904.742,-96.6813"/>
</g>
<!-- Node31&#45;&gt;Node35 -->
<g id="edge40" class="edge">
<title>Node31&#45;&gt;Node35</title>
<path fill="none" stroke="#191970" d="M1028.6984,-140.6913C1011.6192,-138.4506 993.231,-136.0874 976.209,-134 835.9071,-116.7947 797.1548,-133.0212 660.209,-98 657.5816,-97.3281 654.8955,-96.5134 652.2261,-95.6131"/>
<polygon fill="#191970" stroke="#191970" points="653.3601,-92.3005 642.7676,-92.0806 650.911,-98.8581 653.3601,-92.3005"/>
</g>
<!-- Node32&#45;&gt;Node21 -->
<g id="edge37" class="edge">
<title>Node32&#45;&gt;Node21</title>
<path fill="none" stroke="#191970" d="M127.138,-72.9231C136.0652,-70.9284 145.4427,-68.8661 154.209,-67 228.0493,-51.2811 314.1494,-34.2203 365.314,-24.2149"/>
<polygon fill="#191970" stroke="#191970" points="366.232,-27.6018 375.3758,-22.2502 364.8904,-20.7316 366.232,-27.6018"/>
</g>
<!-- Node36&#45;&gt;Node21 -->
<g id="edge43" class="edge">
<title>Node36&#45;&gt;Node21</title>
<path fill="none" stroke="#191970" d="M1592.7912,-145.6072C1488.3817,-139.7913 1305.5331,-126.3301 1151.209,-98 1099.5654,-88.5195 1088.9251,-76.0762 1037.209,-67 821.1392,-29.0796 558.1586,-18.9607 454.8823,-16.3609"/>
<polygon fill="#191970" stroke="#191970" points="454.8964,-12.8603 444.8151,-16.1188 454.7281,-19.8583 454.8964,-12.8603"/>
</g>
<!-- Node36&#45;&gt;Node22 -->
<g id="edge42" class="edge">
<title>Node36&#45;&gt;Node22</title>
<path fill="none" stroke="#191970" d="M1761.3411,-146.384C1943.8178,-139.2171 2361.3459,-120.4427 2382.209,-98 2469.0451,-4.5891 1935.5566,-63.4267 1812.209,-31 1810.2836,-30.4938 1808.3355,-29.8692 1806.4009,-29.164"/>
<polygon fill="#191970" stroke="#191970" points="1807.5794,-25.8613 1797.009,-25.1419 1804.8236,-32.2961 1807.5794,-25.8613"/>
</g>
<!-- Node36&#45;&gt;Node23 -->
<g id="edge45" class="edge">
<title>Node36&#45;&gt;Node23</title>
<path fill="none" stroke="#191970" d="M1761.3304,-146.2258C1940.4508,-138.8454 2344.9423,-119.8404 2365.209,-98 2374.5807,-87.9006 2374.6975,-76.9898 2365.209,-67 2311.6504,-10.6121 1741.6508,-49.885 1666.209,-31 1664.0138,-30.4505 1661.7882,-29.7522 1659.5835,-28.9574"/>
<polygon fill="#191970" stroke="#191970" points="1660.7854,-25.666 1650.2104,-25.017 1658.0726,-32.119 1660.7854,-25.666"/>
</g>
<!-- Node36&#45;&gt;Node33 -->
<g id="edge49" class="edge">
<title>Node36&#45;&gt;Node33</title>
<path fill="none" stroke="#191970" d="M1592.8922,-142.0621C1483.4323,-132.3305 1286.4882,-114.563 1118.209,-98 1092.222,-95.4422 1063.6847,-92.488 1038.6618,-89.8491"/>
<polygon fill="#191970" stroke="#191970" points="1038.8476,-86.3493 1028.535,-88.7781 1038.1114,-93.3105 1038.8476,-86.3493"/>
</g>
<!-- Node36&#45;&gt;Node34 -->
<g id="edge50" class="edge">
<title>Node36&#45;&gt;Node34</title>
<path fill="none" stroke="#191970" d="M1593.1278,-148.3261C1452.3777,-145.3886 1160.1685,-135.1351 904.7843,-98.0829"/>
<polygon fill="#191970" stroke="#191970" points="904.9711,-94.573 894.5688,-96.5835 903.9545,-101.4987 904.9711,-94.573"/>
</g>
<!-- Node37 -->
<g id="node38" class="node">
<title>Node37</title>
<polygon fill="none" stroke="#bfbfbf" points="2526.209,-73 2526.209,-92 2568.209,-92 2568.209,-73 2526.209,-73"/>
<text text-anchor="middle" x="2547.209" y="-80" font-family="Helvetica,sans-Serif" font-size="10.00" fill="#000000">array</text>
</g>
<!-- Node36&#45;&gt;Node37 -->
<g id="edge44" class="edge">
<title>Node36&#45;&gt;Node37</title>
<path fill="none" stroke="#191970" d="M1761.3749,-148.0581C1907.1935,-144.67 2215.9725,-133.5684 2474.209,-98 2488.0838,-96.0889 2503.2576,-93.028 2516.1593,-90.1291"/>
<polygon fill="#191970" stroke="#191970" points="2516.9969,-93.5278 2525.9508,-87.864 2515.4192,-86.7079 2516.9969,-93.5278"/>
</g>
<!-- Node38 -->
<g id="node39" class="node">
<title>Node38</title>
<polygon fill="none" stroke="#bfbfbf" points="1298.209,-73 1298.209,-92 1330.209,-92 1330.209,-73 1298.209,-73"/>
<text text-anchor="middle" x="1314.209" y="-80" font-family="Helvetica,sans-Serif" font-size="10.00" fill="#000000">list</text>
</g>
<!-- Node36&#45;&gt;Node38 -->
<g id="edge46" class="edge">
<title>Node36&#45;&gt;Node38</title>
<path fill="none" stroke="#191970" d="M1614.5177,-139.9678C1516.9011,-125.1224 1339.6125,-98.1487 1339.209,-98 1338.3285,-97.6755 1337.4456,-97.3177 1336.5652,-96.9331"/>
<polygon fill="#191970" stroke="#191970" points="1337.9213,-93.69 1327.4495,-92.0798 1334.6315,-99.8688 1337.9213,-93.69"/>
</g>
<!-- Node39 -->
<g id="node40" class="node">
<title>Node39</title>
<polygon fill="none" stroke="#bfbfbf" points="1348.209,-73 1348.209,-92 1386.209,-92 1386.209,-73 1348.209,-73"/>
<text text-anchor="middle" x="1367.209" y="-80" font-family="Helvetica,sans-Serif" font-size="10.00" fill="#000000">map</text>
</g>
<!-- Node36&#45;&gt;Node39 -->
<g id="edge47" class="edge">
<title>Node36&#45;&gt;Node39</title>
<path fill="none" stroke="#191970" d="M1619.4668,-139.9844C1543.1753,-127.2533 1415.977,-105.4191 1395.209,-98 1394.0022,-97.5689 1392.7857,-97.0897 1391.5709,-96.5745"/>
<polygon fill="#191970" stroke="#191970" points="1393.0047,-93.3796 1382.4846,-92.1236 1389.9253,-99.6659 1393.0047,-93.3796"/>
</g>
<!-- Node40 -->
<g id="node41" class="node">
<title>Node40</title>
<polygon fill="none" stroke="#bfbfbf" points="1404.209,-73 1404.209,-92 1436.209,-92 1436.209,-73 1404.209,-73"/>
<text text-anchor="middle" x="1420.209" y="-80" font-family="Helvetica,sans-Serif" font-size="10.00" fill="#000000">set</text>
</g>
<!-- Node36&#45;&gt;Node40 -->
<g id="edge48" class="edge">
<title>Node36&#45;&gt;Node40</title>
<path fill="none" stroke="#191970" d="M1625.7139,-139.9974C1568.0082,-129.0011 1478.3287,-110.7721 1446.209,-98 1445.333,-97.6517 1444.4522,-97.2761 1443.5715,-96.8788"/>
<polygon fill="#191970" stroke="#191970" points="1444.8458,-93.5946 1434.3655,-92.0411 1441.5896,-99.7912 1444.8458,-93.5946"/>
</g>
<!-- Node41 -->
<g id="node42" class="node">
<title>Node41</title>
<polygon fill="none" stroke="#bfbfbf" points="1454.709,-67.5 1454.709,-97.5 1605.709,-97.5 1605.709,-67.5 1454.709,-67.5"/>
<text text-anchor="start" x="1462.709" y="-85.5" font-family="Helvetica,sans-Serif" font-size="10.00" fill="#000000">boost/serialization</text>
<text text-anchor="middle" x="1530.209" y="-74.5" font-family="Helvetica,sans-Serif" font-size="10.00" fill="#000000">/is_bitwise_serializable.hpp</text>
</g>
<!-- Node36&#45;&gt;Node41 -->
<g id="edge51" class="edge">
<title>Node36&#45;&gt;Node41</title>
<path fill="none" stroke="#191970" d="M1656.1474,-139.9005C1634.4168,-129.9961 1599.9256,-114.2756 1572.5292,-101.7888"/>
<polygon fill="#191970" stroke="#191970" points="1573.7182,-98.4844 1563.1672,-97.5218 1570.815,-104.854 1573.7182,-98.4844"/>
</g>
<!-- Node42 -->
<g id="node43" class="node">
<title>Node42</title>
<polygon fill="none" stroke="#bfbfbf" points="1623.709,-67.5 1623.709,-97.5 1730.709,-97.5 1730.709,-67.5 1623.709,-67.5"/>
<text text-anchor="start" x="1631.709" y="-85.5" font-family="Helvetica,sans-Serif" font-size="10.00" fill="#000000">boost/serialization</text>
<text text-anchor="middle" x="1677.209" y="-74.5" font-family="Helvetica,sans-Serif" font-size="10.00" fill="#000000">/serialization.hpp</text>
</g>
<!-- Node36&#45;&gt;Node42 -->
<g id="edge52" class="edge">
<title>Node36&#45;&gt;Node42</title>
<path fill="none" stroke="#191970" d="M1677.209,-139.9005C1677.209,-131.5099 1677.209,-118.9451 1677.209,-107.7085"/>
<polygon fill="#191970" stroke="#191970" points="1680.7091,-107.5217 1677.209,-97.5218 1673.7091,-107.5218 1680.7091,-107.5217"/>
</g>
<!-- Node43 -->
<g id="node44" class="node">
<title>Node43</title>
<polygon fill="none" stroke="#bfbfbf" points="1748.709,-67.5 1748.709,-97.5 1855.709,-97.5 1855.709,-67.5 1748.709,-67.5"/>
<text text-anchor="start" x="1756.709" y="-85.5" font-family="Helvetica,sans-Serif" font-size="10.00" fill="#000000">boost/serialization</text>
<text text-anchor="middle" x="1802.209" y="-74.5" font-family="Helvetica,sans-Serif" font-size="10.00" fill="#000000">/array.hpp</text>
</g>
<!-- Node36&#45;&gt;Node43 -->
<g id="edge53" class="edge">
<title>Node36&#45;&gt;Node43</title>
<path fill="none" stroke="#191970" d="M1695.1184,-139.9005C1713.3548,-130.1258 1742.1595,-114.6865 1765.3037,-102.2812"/>
<polygon fill="#191970" stroke="#191970" points="1767.023,-105.3308 1774.1833,-97.5218 1763.716,-99.1612 1767.023,-105.3308"/>
</g>
<!-- Node44 -->
<g id="node45" class="node">
<title>Node44</title>
<polygon fill="none" stroke="#bfbfbf" points="1873.709,-67.5 1873.709,-97.5 1980.709,-97.5 1980.709,-67.5 1873.709,-67.5"/>
<text text-anchor="start" x="1881.709" y="-85.5" font-family="Helvetica,sans-Serif" font-size="10.00" fill="#000000">boost/serialization</text>
<text text-anchor="middle" x="1927.209" y="-74.5" font-family="Helvetica,sans-Serif" font-size="10.00" fill="#000000">/vector.hpp</text>
</g>
<!-- Node36&#45;&gt;Node44 -->
<g id="edge54" class="edge">
<title>Node36&#45;&gt;Node44</title>
<path fill="none" stroke="#191970" d="M1712.7624,-139.9717C1751.9029,-129.482 1815.6144,-112.4074 1863.4421,-99.5895"/>
<polygon fill="#191970" stroke="#191970" points="1864.6393,-102.8923 1873.3923,-96.9229 1862.8272,-96.1309 1864.6393,-102.8923"/>
</g>
<!-- Node45 -->
<g id="node46" class="node">
<title>Node45</title>
<polygon fill="none" stroke="#bfbfbf" points="1998.709,-67.5 1998.709,-97.5 2105.709,-97.5 2105.709,-67.5 1998.709,-67.5"/>
<text text-anchor="start" x="2006.709" y="-85.5" font-family="Helvetica,sans-Serif" font-size="10.00" fill="#000000">boost/serialization</text>
<text text-anchor="middle" x="2052.209" y="-74.5" font-family="Helvetica,sans-Serif" font-size="10.00" fill="#000000">/list.hpp</text>
</g>
<!-- Node36&#45;&gt;Node45 -->
<g id="edge55" class="edge">
<title>Node36&#45;&gt;Node45</title>
<path fill="none" stroke="#191970" d="M1744.9714,-139.9878C1806.2702,-131.0104 1899.203,-116.4763 1988.4793,-98.2749"/>
<polygon fill="#191970" stroke="#191970" points="1989.4128,-101.6563 1998.5022,-96.2126 1988.002,-94.7999 1989.4128,-101.6563"/>
</g>
<!-- Node46 -->
<g id="node47" class="node">
<title>Node46</title>
<polygon fill="none" stroke="#bfbfbf" points="2123.709,-67.5 2123.709,-97.5 2230.709,-97.5 2230.709,-67.5 2123.709,-67.5"/>
<text text-anchor="start" x="2131.709" y="-85.5" font-family="Helvetica,sans-Serif" font-size="10.00" fill="#000000">boost/serialization</text>
<text text-anchor="middle" x="2177.209" y="-74.5" font-family="Helvetica,sans-Serif" font-size="10.00" fill="#000000">/map.hpp</text>
</g>
<!-- Node36&#45;&gt;Node46 -->
<g id="edge56" class="edge">
<title>Node36&#45;&gt;Node46</title>
<path fill="none" stroke="#191970" d="M1761.2433,-142.8362C1847.5212,-135.264 1985.7723,-121.1061 2113.5665,-98.1757"/>
<polygon fill="#191970" stroke="#191970" points="2114.3186,-101.5965 2123.5321,-96.3657 2113.0675,-94.7092 2114.3186,-101.5965"/>
</g>
<!-- Node47 -->
<g id="node48" class="node">
<title>Node47</title>
<polygon fill="none" stroke="#bfbfbf" points="2248.709,-67.5 2248.709,-97.5 2355.709,-97.5 2355.709,-67.5 2248.709,-67.5"/>
<text text-anchor="start" x="2256.709" y="-85.5" font-family="Helvetica,sans-Serif" font-size="10.00" fill="#000000">boost/serialization</text>
<text text-anchor="middle" x="2302.209" y="-74.5" font-family="Helvetica,sans-Serif" font-size="10.00" fill="#000000">/set.hpp</text>
</g>
<!-- Node36&#45;&gt;Node47 -->
<g id="edge57" class="edge">
<title>Node36&#45;&gt;Node47</title>
<path fill="none" stroke="#191970" d="M1761.6695,-145.8282C1870.1455,-140.2058 2064.2643,-127.0857 2238.4277,-98.1546"/>
<polygon fill="#191970" stroke="#191970" points="2239.2667,-101.5627 2248.5473,-96.4518 2238.1051,-94.6598 2239.2667,-101.5627"/>
</g>
<!-- Node48 -->
<g id="node49" class="node">
<title>Node48</title>
<polygon fill="none" stroke="#bfbfbf" points="1160.209,-73 1160.209,-92 1280.209,-92 1280.209,-73 1160.209,-73"/>
<text text-anchor="middle" x="1220.209" y="-80" font-family="Helvetica,sans-Serif" font-size="10.00" fill="#000000">boost/type_traits.hpp</text>
</g>
<!-- Node36&#45;&gt;Node48 -->
<g id="edge58" class="edge">
<title>Node36&#45;&gt;Node48</title>
<path fill="none" stroke="#191970" d="M1616.2981,-139.9832C1602.7792,-137.9437 1588.5149,-135.8481 1575.209,-134 1448.313,-116.3749 1415.4087,-120.065 1289.209,-98 1282.8595,-96.8898 1276.2124,-95.5831 1269.6567,-94.2072"/>
<polygon fill="#191970" stroke="#191970" points="1270.0002,-90.7006 1259.4862,-92.0063 1268.5196,-97.5422 1270.0002,-90.7006"/>
</g>
<!-- Node49&#45;&gt;Node12 -->
<g id="edge62" class="edge">
<title>Node49&#45;&gt;Node12</title>
<path fill="none" stroke="#191970" d="M3203.7059,-79.7337C3126.8719,-76.4398 2993.5793,-70.8952 2879.209,-67 2311.3129,-47.6588 2168.9702,-53.9597 1601.209,-31 1510.0496,-27.3136 1403.0815,-21.2324 1346.6679,-17.8882"/>
<polygon fill="#191970" stroke="#191970" points="1346.5987,-14.3779 1336.4082,-17.2771 1346.1824,-21.3656 1346.5987,-14.3779"/>
</g>
<!-- Node49&#45;&gt;Node19 -->
<g id="edge64" class="edge">
<title>Node49&#45;&gt;Node19</title>
<path fill="none" stroke="#191970" d="M3260.6183,-72.9005C3253.5816,-62.6515 3242.2692,-46.1747 3233.5655,-33.4976"/>
<polygon fill="#191970" stroke="#191970" points="3236.3329,-31.3446 3227.7874,-25.0817 3230.5621,-35.3067 3236.3329,-31.3446"/>
</g>
<!-- Node49&#45;&gt;Node20 -->
<g id="edge67" class="edge">
<title>Node49&#45;&gt;Node20</title>
<path fill="none" stroke="#191970" d="M3330.9779,-73.9325C3423.0037,-61.4194 3584.9379,-38.7873 3611.209,-31 3613.1215,-30.4331 3615.0652,-29.7787 3617.0049,-29.0661"/>
<polygon fill="#191970" stroke="#191970" points="3618.594,-32.1969 3626.5079,-25.1526 3615.9285,-25.7242 3618.594,-32.1969"/>
</g>
<!-- Node49&#45;&gt;Node29 -->
<g id="edge69" class="edge">
<title>Node49&#45;&gt;Node29</title>
<path fill="none" stroke="#191970" d="M3270.6476,-72.9005C3274.2119,-62.95 3279.8791,-47.1292 3284.3619,-34.6147"/>
<polygon fill="#191970" stroke="#191970" points="3287.6994,-35.6762 3287.7767,-25.0817 3281.1094,-33.3156 3287.6994,-35.6762"/>
</g>
<!-- Node50 -->
<g id="node51" class="node">
<title>Node50</title>
<polygon fill="none" stroke="#bfbfbf" points="3552.209,-6 3552.209,-25 3602.209,-25 3602.209,-6 3552.209,-6"/>
<text text-anchor="middle" x="3577.209" y="-13" font-family="Helvetica,sans-Serif" font-size="10.00" fill="#000000">cstdint</text>
</g>
<!-- Node49&#45;&gt;Node50 -->
<g id="edge61" class="edge">
<title>Node49&#45;&gt;Node50</title>
<path fill="none" stroke="#191970" d="M3318.1262,-72.9896C3328.7292,-71.0097 3339.8338,-68.9364 3350.209,-67 3435.985,-50.9909 3460.007,-57.292 3543.209,-31 3545.1111,-30.3989 3547.0468,-29.7186 3548.9806,-28.9868"/>
<polygon fill="#191970" stroke="#191970" points="3550.5889,-32.1082 3558.4692,-25.0264 3547.8927,-25.6483 3550.5889,-32.1082"/>
</g>
<!-- Node49&#45;&gt;Node51 -->
<g id="edge63" class="edge">
<title>Node49&#45;&gt;Node51</title>
<path fill="none" stroke="#191970" d="M3330.7093,-73.8917C3347.7542,-71.6147 3366.1798,-69.1838 3383.209,-67 3513.3447,-50.3114 3546.1672,-48.4058 3676.209,-31 3699.7638,-27.8472 3726.1917,-24.0217 3746.8892,-20.9601"/>
<polygon fill="#191970" stroke="#191970" points="3747.4705,-24.4122 3756.8476,-19.4806 3746.4418,-17.4882 3747.4705,-24.4122"/>
</g>
<!-- Node52 -->
<g id="node53" class="node">
<title>Node52</title>
<polygon fill="none" stroke="#bfbfbf" points="3336.209,-6 3336.209,-25 3400.209,-25 3400.209,-6 3336.209,-6"/>
<text text-anchor="middle" x="3368.209" y="-13" font-family="Helvetica,sans-Serif" font-size="10.00" fill="#000000">algorithm</text>
</g>
<!-- Node49&#45;&gt;Node52 -->
<g id="edge65" class="edge">
<title>Node49&#45;&gt;Node52</title>
<path fill="none" stroke="#191970" d="M3281.6798,-72.9005C3298.3299,-61.8554 3325.883,-43.5776 3345.4203,-30.6172"/>
<polygon fill="#191970" stroke="#191970" points="3347.3666,-33.5263 3353.765,-25.0817 3343.497,-27.693 3347.3666,-33.5263"/>
</g>
<!-- Node49&#45;&gt;Node53 -->
<g id="edge66" class="edge">
<title>Node49&#45;&gt;Node53</title>
<path fill="none" stroke="#191970" d="M3203.7034,-79.8055C3126.867,-76.5818 2993.572,-71.106 2879.209,-67 2628.1322,-57.9856 1995.7975,-79.1133 1749.209,-31 1745.7475,-30.3246 1742.1937,-29.4017 1738.6889,-28.3402"/>
<polygon fill="#191970" stroke="#191970" points="1739.6534,-24.9715 1729.059,-25.0723 1737.4038,-31.6003 1739.6534,-24.9715"/>
</g>
<!-- Node54 -->
<g id="node55" class="node">
<title>Node54</title>
<polygon fill="none" stroke="#bfbfbf" points="3418.209,-6 3418.209,-25 3468.209,-25 3468.209,-6 3418.209,-6"/>
<text text-anchor="middle" x="3443.209" y="-13" font-family="Helvetica,sans-Serif" font-size="10.00" fill="#000000">climits</text>
</g>
<!-- Node49&#45;&gt;Node54 -->
<g id="edge68" class="edge">
<title>Node49&#45;&gt;Node54</title>
<path fill="none" stroke="#191970" d="M3295.482,-72.9918C3324.3224,-63.119 3370.2453,-46.9174 3409.209,-31 3410.5977,-30.4327 3412.013,-29.8414 3413.4387,-29.235"/>
<polygon fill="#191970" stroke="#191970" points="3415.0799,-32.3369 3422.8278,-25.1106 3412.2646,-25.928 3415.0799,-32.3369"/>
</g>
<!-- Node55 -->
<g id="node56" class="node">
<title>Node55</title>
<polygon fill="none" stroke="#bfbfbf" points="3486.709,-6 3486.709,-25 3533.709,-25 3533.709,-6 3486.709,-6"/>
<text text-anchor="middle" x="3510.209" y="-13" font-family="Helvetica,sans-Serif" font-size="10.00" fill="#000000">cerrno</text>
</g>
<!-- Node49&#45;&gt;Node55 -->
<g id="edge70" class="edge">
<title>Node49&#45;&gt;Node55</title>
<path fill="none" stroke="#191970" d="M3318.0996,-72.9762C3361.1474,-64.223 3424.1206,-49.7675 3477.209,-31 3478.8501,-30.4198 3480.5194,-29.7855 3482.192,-29.1152"/>
<polygon fill="#191970" stroke="#191970" points="3483.8565,-32.2081 3491.6324,-25.0119 3481.0661,-25.7883 3483.8565,-32.2081"/>
</g>
<!-- Node58&#45;&gt;Node20 -->
<g id="edge108" class="edge">
<title>Node58&#45;&gt;Node20</title>
<path fill="none" stroke="#191970" d="M2965.7897,-324.9997C2968.972,-324.6462 2972.1241,-324.3107 2975.209,-324 3197.7673,-301.5867 3257.9462,-332.2538 3477.209,-288 3574.2675,-268.4107 3688.209,-315.5156 3688.209,-216.5 3688.209,-216.5 3688.209,-216.5 3688.209,-149.5 3688.209,-106.7673 3668.1375,-59.8772 3655.4207,-34.4572"/>
<polygon fill="#191970" stroke="#191970" points="3658.3569,-32.5154 3650.6549,-25.24 3652.1388,-35.7304 3658.3569,-32.5154"/>
</g>
<!-- Node59 -->
<g id="node60" class="node">
<title>Node59</title>
<g id="a_node60"><a xlink:href="../../d2/dd9/ExpirationHandler_8h.html" target="_top" xlink:title="Framework/ExpirationHandler.h">
<polygon fill="none" stroke="#000000" points="2998.209,-268.5 2998.209,-287.5 3168.209,-287.5 3168.209,-268.5 2998.209,-268.5"/>
<text text-anchor="middle" x="3083.209" y="-275.5" font-family="Helvetica,sans-Serif" font-size="10.00" fill="#000000">Framework/ExpirationHandler.h</text>
</a>
</g>
</g>
<!-- Node58&#45;&gt;Node59 -->
<g id="edge77" class="edge">
<title>Node58&#45;&gt;Node59</title>
<path fill="none" stroke="#191970" d="M2930.0116,-324.3733C2961.0406,-314.9807 3008.3844,-300.6496 3042.2237,-290.4064"/>
<polygon fill="#191970" stroke="#191970" points="3043.2643,-293.7483 3051.8213,-287.5011 3041.2362,-287.0485 3043.2643,-293.7483"/>
</g>
<!-- Node61 -->
<g id="node62" class="node">
<title>Node61</title>
<polygon fill="none" stroke="#bfbfbf" points="2937.709,-207 2937.709,-226 3002.709,-226 3002.709,-207 2937.709,-207"/>
<text text-anchor="middle" x="2970.209" y="-214" font-family="Helvetica,sans-Serif" font-size="10.00" fill="#000000">functional</text>
</g>
<!-- Node58&#45;&gt;Node61 -->
<g id="edge109" class="edge">
<title>Node58&#45;&gt;Node61</title>
<path fill="none" stroke="#191970" d="M2913.9402,-324.1786C2925.878,-315.9309 2941.7924,-303.0914 2951.209,-288 2960.9616,-272.37 2965.7502,-251.8084 2968.0758,-236.7485"/>
<polygon fill="#191970" stroke="#191970" points="2971.5927,-236.846 2969.4155,-226.4773 2964.6515,-235.9406 2971.5927,-236.846"/>
</g>
<!-- Node58&#45;&gt;Node62 -->
<g id="edge81" class="edge">
<title>Node58&#45;&gt;Node62</title>
<path fill="none" stroke="#191970" d="M2965.8047,-325.1365C2968.983,-324.7464 2972.1301,-324.3657 2975.209,-324 3098.1174,-309.4003 3241.1725,-294.3927 3326.5656,-285.6451"/>
<polygon fill="#191970" stroke="#191970" points="3327.0963,-289.1091 3336.6883,-284.6098 3326.3841,-282.1455 3327.0963,-289.1091"/>
</g>
<!-- Node72 -->
<g id="node73" class="node">
<title>Node72</title>
<polygon fill="none" stroke="#bfbfbf" points="2814.709,-268.5 2814.709,-287.5 2867.709,-287.5 2867.709,-268.5 2814.709,-268.5"/>
<text text-anchor="middle" x="2841.209" y="-275.5" font-family="Helvetica,sans-Serif" font-size="10.00" fill="#000000">cstddef</text>
</g>
<!-- Node58&#45;&gt;Node72 -->
<g id="edge107" class="edge">
<title>Node58&#45;&gt;Node72</title>
<path fill="none" stroke="#191970" d="M2888.2803,-324.2455C2880.0252,-316.1352 2868.088,-304.4075 2858.3007,-294.7919"/>
<polygon fill="#191970" stroke="#191970" points="2860.6101,-292.1542 2851.0238,-287.6427 2855.7043,-297.1476 2860.6101,-292.1542"/>
</g>
<!-- Node73 -->
<g id="node74" class="node">
<title>Node73</title>
<polygon fill="none" stroke="#bfbfbf" points="2886.209,-268.5 2886.209,-287.5 2942.209,-287.5 2942.209,-268.5 2886.209,-268.5"/>
<text text-anchor="middle" x="2914.209" y="-275.5" font-family="Helvetica,sans-Serif" font-size="10.00" fill="#000000">optional</text>
</g>
<!-- Node58&#45;&gt;Node73 -->
<g id="edge110" class="edge">
<title>Node58&#45;&gt;Node73</title>
<path fill="none" stroke="#191970" d="M2900.9959,-324.2455C2903.1067,-316.8579 2906.075,-306.4689 2908.6636,-297.4087"/>
<polygon fill="#191970" stroke="#191970" points="2912.072,-298.2195 2911.4539,-287.6427 2905.3413,-296.2964 2912.072,-298.2195"/>
</g>
<!-- Node59&#45;&gt;Node50 -->
<g id="edge79" class="edge">
<title>Node59&#45;&gt;Node50</title>
<path fill="none" stroke="#191970" d="M3153.4227,-268.4703C3209.2424,-260.3627 3289.1479,-247.5695 3358.209,-232 3371.4524,-229.0143 3585.0306,-175.8359 3593.209,-165 3622.4538,-126.2519 3600.7634,-64.9024 3586.7095,-34.2397"/>
<polygon fill="#191970" stroke="#191970" points="3589.8028,-32.5958 3582.3207,-25.0945 3583.4919,-35.6244 3589.8028,-32.5958"/>
</g>
<!-- Node60 -->
<g id="node61" class="node">
<title>Node60</title>
<g id="a_node61"><a xlink:href="../../dc/dca/Lifetime_8h.html" target="_top" xlink:title="Framework/Lifetime.h">
<polygon fill="none" stroke="#000000" points="3021.709,-207 3021.709,-226 3144.709,-226 3144.709,-207 3021.709,-207"/>
<text text-anchor="middle" x="3083.209" y="-214" font-family="Helvetica,sans-Serif" font-size="10.00" fill="#000000">Framework/Lifetime.h</text>
</a>
</g>
</g>
<!-- Node59&#45;&gt;Node60 -->
<g id="edge78" class="edge">
<title>Node59&#45;&gt;Node60</title>
<path fill="none" stroke="#191970" d="M3083.209,-268.3906C3083.209,-259.8657 3083.209,-247.1392 3083.209,-236.4235"/>
<polygon fill="#191970" stroke="#191970" points="3086.7091,-236.2448 3083.209,-226.2449 3079.7091,-236.2449 3086.7091,-236.2448"/>
</g>
<!-- Node59&#45;&gt;Node61 -->
<g id="edge80" class="edge">
<title>Node59&#45;&gt;Node61</title>
<path fill="none" stroke="#191970" d="M3065.5527,-268.3906C3047.0604,-258.3262 3017.808,-242.4057 2996.5782,-230.8514"/>
<polygon fill="#191970" stroke="#191970" points="2998.1978,-227.7481 2987.7412,-226.0419 2994.8515,-233.8965 2998.1978,-227.7481"/>
</g>
<!-- Node62&#45;&gt;Node20 -->
<g id="edge104" class="edge">
<title>Node62&#45;&gt;Node20</title>
<path fill="none" stroke="#191970" d="M3458.9055,-268.4407C3504.5691,-259.8829 3564.3151,-246.4808 3584.209,-232 3647.5241,-185.9126 3649.0746,-79.1727 3646.7751,-35.0896"/>
<polygon fill="#191970" stroke="#191970" points="3650.2661,-34.8352 3646.1253,-25.0831 3643.2808,-35.2889 3650.2661,-34.8352"/>
</g>
<!-- Node62&#45;&gt;Node60 -->
<g id="edge82" class="edge">
<title>Node62&#45;&gt;Node60</title>
<path fill="none" stroke="#191970" d="M3350.4985,-268.4297C3301.2766,-259.2683 3225.1426,-244.9635 3159.209,-232 3152.8791,-230.7555 3146.2568,-229.4339 3139.6732,-228.1078"/>
<polygon fill="#191970" stroke="#191970" points="3139.9027,-224.5833 3129.4071,-226.0304 3138.5143,-231.4443 3139.9027,-224.5833"/>
</g>
<!-- Node63 -->
<g id="node64" class="node">
<title>Node63</title>
<g id="a_node64"><a xlink:href="../../d0/d1b/ConcreteDataMatcher_8h.html" target="_top" xlink:title="Framework/ConcreteDataMatcher.h">
<polygon fill="none" stroke="#000000" points="2814.209,-140 2814.209,-159 3002.209,-159 3002.209,-140 2814.209,-140"/>
<text text-anchor="middle" x="2908.209" y="-147" font-family="Helvetica,sans-Serif" font-size="10.00" fill="#000000">Framework/ConcreteDataMatcher.h</text>
</a>
</g>
</g>
<!-- Node62&#45;&gt;Node63 -->
<g id="edge83" class="edge">
<title>Node62&#45;&gt;Node63</title>
<path fill="none" stroke="#191970" d="M3336.6272,-271.3284C3294.1442,-265.1644 3238.4999,-253.5507 3193.209,-232 3173.2149,-222.4863 3174.2516,-210.4109 3154.209,-201 3123.7633,-186.7044 3040.7718,-170.9496 2979.564,-160.6777"/>
<polygon fill="#191970" stroke="#191970" points="2979.9956,-157.2015 2969.5571,-159.0144 2978.8478,-164.1068 2979.9956,-157.2015"/>
</g>
<!-- Node64 -->
<g id="node65" class="node">
<title>Node64</title>
<g id="a_node65"><a xlink:href="../../d3/da3/DataDescriptorMatcher_8h.html" target="_top" xlink:title="Framework/DataDescriptor\lMatcher.h">
<polygon fill="none" stroke="#000000" points="3201.709,-201.5 3201.709,-231.5 3348.709,-231.5 3348.709,-201.5 3201.709,-201.5"/>
<text text-anchor="start" x="3209.709" y="-219.5" font-family="Helvetica,sans-Serif" font-size="10.00" fill="#000000">Framework/DataDescriptor</text>
<text text-anchor="middle" x="3275.209" y="-208.5" font-family="Helvetica,sans-Serif" font-size="10.00" fill="#000000">Matcher.h</text>
</a>
</g>
</g>
<!-- Node62&#45;&gt;Node64 -->
<g id="edge85" class="edge">
<title>Node62&#45;&gt;Node64</title>
<path fill="none" stroke="#191970" d="M3382.3652,-268.3906C3364.5407,-259.7591 3337.8214,-246.8202 3315.5234,-236.0224"/>
<polygon fill="#191970" stroke="#191970" points="3316.8024,-232.7529 3306.2767,-231.5446 3313.7515,-239.0531 3316.8024,-232.7529"/>
</g>
<!-- Node69 -->
<g id="node70" class="node">
<title>Node69</title>
<polygon fill="none" stroke="#bfbfbf" points="3532.709,-140 3532.709,-159 3583.709,-159 3583.709,-140 3532.709,-140"/>
<text text-anchor="middle" x="3558.209" y="-147" font-family="Helvetica,sans-Serif" font-size="10.00" fill="#000000">variant</text>
</g>
<!-- Node62&#45;&gt;Node69 -->
<g id="edge106" class="edge">
<title>Node62&#45;&gt;Node69</title>
<path fill="none" stroke="#191970" d="M3464.5716,-268.4676C3505.4858,-260.7934 3553.6591,-248.5543 3566.209,-232 3580.0081,-213.7979 3573.6195,-186.4507 3566.7726,-168.2969"/>
<polygon fill="#191970" stroke="#191970" points="3570.0003,-166.943 3562.9424,-159.0414 3563.5323,-169.6198 3570.0003,-166.943"/>
</g>
<!-- Node71 -->
<g id="node72" class="node">
<title>Node71</title>
<polygon fill="none" stroke="#bfbfbf" points="3499.709,-207 3499.709,-226 3556.709,-226 3556.709,-207 3499.709,-207"/>
<text text-anchor="middle" x="3528.209" y="-214" font-family="Helvetica,sans-Serif" font-size="10.00" fill="#000000">ostream</text>
</g>
<!-- Node62&#45;&gt;Node71 -->
<g id="edge105" class="edge">
<title>Node62&#45;&gt;Node71</title>
<path fill="none" stroke="#191970" d="M3421.8965,-268.3906C3442.7012,-258.2359 3475.72,-242.1196 3499.4408,-230.5416"/>
<polygon fill="#191970" stroke="#191970" points="3501.2083,-233.5736 3508.6597,-226.0419 3498.1378,-227.283 3501.2083,-233.5736"/>
</g>
<!-- Node63&#45;&gt;Node49 -->
<g id="edge84" class="edge">
<title>Node63&#45;&gt;Node49</title>
<path fill="none" stroke="#191970" d="M2959.2637,-139.9717C3024.3024,-127.8335 3136.5862,-106.8781 3206.1043,-93.9039"/>
<polygon fill="#191970" stroke="#191970" points="3206.852,-97.3249 3216.0401,-92.0496 3205.5677,-90.4437 3206.852,-97.3249"/>
</g>
<!-- Node64&#45;&gt;Node20 -->
<g id="edge100" class="edge">
<title>Node64&#45;&gt;Node20</title>
<path fill="none" stroke="#191970" d="M3349.0527,-206.9285C3389.5382,-199.5216 3439.599,-186.7204 3480.209,-165 3513.9583,-146.9491 3594.2227,-67.3711 3628.8469,-32.2527"/>
<polygon fill="#191970" stroke="#191970" points="3631.3687,-34.6799 3635.8797,-25.0934 3626.3751,-29.7745 3631.3687,-34.6799"/>
</g>
<!-- Node64&#45;&gt;Node23 -->
<g id="edge102" class="edge">
<title>Node64&#45;&gt;Node23</title>
<path fill="none" stroke="#191970" d="M3201.6981,-206.4183C3186.042,-204.4576 3169.5928,-202.5368 3154.209,-201 3043.1414,-189.9044 2751.619,-217.6742 2653.209,-165 2604.614,-138.9894 2626.2169,-92.224 2577.209,-67 2487.1379,-20.6411 1764.6234,-55.0111 1666.209,-31 1664.0106,-30.4636 1661.7827,-29.7748 1659.5763,-28.9866"/>
<polygon fill="#191970" stroke="#191970" points="1660.7759,-25.6944 1650.2001,-25.0588 1658.0712,-32.1508 1660.7759,-25.6944"/>
</g>
<!-- Node64&#45;&gt;Node37 -->
<g id="edge97" class="edge">
<title>Node64&#45;&gt;Node37</title>
<path fill="none" stroke="#191970" d="M3201.7033,-206.3662C3186.0468,-204.409 3169.5961,-202.5028 3154.209,-201 3035.8362,-189.4387 2726.9469,-217.467 2620.209,-165 2591.7416,-151.0069 2569.5192,-120.5156 2557.399,-100.7778"/>
<polygon fill="#191970" stroke="#191970" points="2560.3647,-98.9163 2552.2776,-92.0716 2554.3312,-102.4655 2560.3647,-98.9163"/>
</g>
<!-- Node64&#45;&gt;Node49 -->
<g id="edge93" class="edge">
<title>Node64&#45;&gt;Node49</title>
<path fill="none" stroke="#191970" d="M3274.3068,-201.389C3272.8551,-177.0735 3270.0009,-129.2644 3268.3892,-102.2698"/>
<polygon fill="#191970" stroke="#191970" points="3271.8722,-101.8778 3267.7823,-92.1042 3264.8846,-102.295 3271.8722,-101.8778"/>
</g>
<!-- Node64&#45;&gt;Node50 -->
<g id="edge98" class="edge">
<title>Node64&#45;&gt;Node50</title>
<path fill="none" stroke="#191970" d="M3349.011,-204.2463C3381.2833,-196.5191 3418.475,-184.2312 3448.209,-165 3502.4697,-129.9055 3546.7641,-65.4374 3566.3502,-33.8804"/>
<polygon fill="#191970" stroke="#191970" points="3569.4156,-35.5756 3571.619,-25.2124 3563.4339,-31.9396 3569.4156,-35.5756"/>
</g>
<!-- Node64&#45;&gt;Node63 -->
<g id="edge86" class="edge">
<title>Node64&#45;&gt;Node63</title>
<path fill="none" stroke="#191970" d="M3201.3825,-203.0221C3133.5309,-190.6351 3034.0794,-172.4791 2970.239,-160.8243"/>
<polygon fill="#191970" stroke="#191970" points="2970.775,-157.3644 2960.309,-159.0115 2969.5178,-164.2506 2970.775,-157.3644"/>
</g>
<!-- Node65 -->
<g id="node66" class="node">
<title>Node65</title>
<g id="a_node66"><a xlink:href="../../d6/dc9/DataProcessingHeader_8h.html" target="_top" xlink:title="Framework/DataProcessing\lHeader.h">
<polygon fill="none" stroke="#000000" points="3289.709,-134.5 3289.709,-164.5 3438.709,-164.5 3438.709,-134.5 3289.709,-134.5"/>
<text text-anchor="start" x="3297.709" y="-152.5" font-family="Helvetica,sans-Serif" font-size="10.00" fill="#000000">Framework/DataProcessing</text>
<text text-anchor="middle" x="3364.209" y="-141.5" font-family="Helvetica,sans-Serif" font-size="10.00" fill="#000000">Header.h</text>
</a>
</g>
</g>
<!-- Node64&#45;&gt;Node65 -->
<g id="edge87" class="edge">
<title>Node64&#45;&gt;Node65</title>
<path fill="none" stroke="#191970" d="M3295.4044,-201.2967C3307.3526,-192.302 3322.6729,-180.7687 3335.8227,-170.8694"/>
<polygon fill="#191970" stroke="#191970" points="3338.2092,-173.4538 3344.0934,-164.6432 3333.9991,-167.8613 3338.2092,-173.4538"/>
</g>
<!-- Node67 -->
<g id="node68" class="node">
<title>Node67</title>
<g id="a_node68"><a xlink:href="../../d4/d00/Headers_2include_2Headers_2Stack_8h.html" target="_top" xlink:title="Headers/Stack.h">
<polygon fill="none" stroke="#000000" points="2662.209,-140 2662.209,-159 2758.209,-159 2758.209,-140 2662.209,-140"/>
<text text-anchor="middle" x="2710.209" y="-147" font-family="Helvetica,sans-Serif" font-size="10.00" fill="#000000">Headers/Stack.h</text>
</a>
</g>
</g>
<!-- Node64&#45;&gt;Node67 -->
<g id="edge94" class="edge">
<title>Node64&#45;&gt;Node67</title>
<path fill="none" stroke="#191970" d="M3201.6587,-206.7842C3186.0052,-204.7988 3169.567,-202.7755 3154.209,-201 2999.3065,-183.0921 2959.7812,-185.5639 2805.209,-165 2793.3027,-163.416 2780.5935,-161.4997 2768.4708,-159.5624"/>
<polygon fill="#191970" stroke="#191970" points="2768.8878,-156.0844 2758.4562,-157.9371 2767.7663,-162.994 2768.8878,-156.0844"/>
</g>
<!-- Node68 -->
<g id="node69" class="node">
<title>Node68</title>
<polygon fill="none" stroke="#bfbfbf" points="3020.709,-140 3020.709,-159 3069.709,-159 3069.709,-140 3020.709,-140"/>
<text text-anchor="middle" x="3045.209" y="-147" font-family="Helvetica,sans-Serif" font-size="10.00" fill="#000000">iosfwd</text>
</g>
<!-- Node64&#45;&gt;Node68 -->
<g id="edge99" class="edge">
<title>Node64&#45;&gt;Node68</title>
<path fill="none" stroke="#191970" d="M3206.3076,-201.4425C3168.3364,-192.3879 3120.6355,-179.7633 3079.209,-165 3077.5705,-164.4161 3075.9023,-163.7845 3074.2285,-163.1215"/>
<polygon fill="#191970" stroke="#191970" points="3075.3227,-159.7837 3064.7502,-159.0964 3072.5865,-166.2268 3075.3227,-159.7837"/>
</g>
<!-- Node64&#45;&gt;Node69 -->
<g id="edge101" class="edge">
<title>Node64&#45;&gt;Node69</title>
<path fill="none" stroke="#191970" d="M3348.8161,-204.0896C3397.4068,-195.1194 3462.2029,-181.6681 3518.209,-165 3520.6449,-164.275 3523.1421,-163.4679 3525.6411,-162.6135"/>
<polygon fill="#191970" stroke="#191970" points="3526.9565,-165.8595 3535.1616,-159.1567 3524.5675,-159.2798 3526.9565,-165.8595"/>
</g>
<!-- Node70 -->
<g id="node71" class="node">
<title>Node70</title>
<polygon fill="none" stroke="#bfbfbf" points="3088.209,-140 3088.209,-159 3234.209,-159 3234.209,-140 3088.209,-140"/>
<text text-anchor="middle" x="3161.209" y="-147" font-family="Helvetica,sans-Serif" font-size="10.00" fill="#000000">DataDescriptorMatcher.inc</text>
</g>
<!-- Node64&#45;&gt;Node70 -->
<g id="edge103" class="edge">
<title>Node64&#45;&gt;Node70</title>
<path fill="none" stroke="#191970" d="M3249.6251,-201.4639C3230.7559,-190.3741 3205.2068,-175.3584 3186.4251,-164.32"/>
<polygon fill="#191970" stroke="#191970" points="3187.9447,-161.1534 3177.55,-159.1039 3184.3978,-167.1883 3187.9447,-161.1534"/>
</g>
<!-- Node65&#45;&gt;Node12 -->
<g id="edge91" class="edge">
<title>Node65&#45;&gt;Node12</title>
<path fill="none" stroke="#191970" d="M3289.4217,-139.1319C3274.1527,-137.237 3258.1791,-135.4147 3243.209,-134 2982.1061,-109.3245 2910.0451,-155.7189 2654.209,-98 2618.2219,-89.881 2613.2915,-74.6834 2577.209,-67 2364.9319,-21.7978 1818.0279,-40.7136 1601.209,-31 1510.0665,-26.9168 1403.0918,-20.9922 1346.6726,-17.7791"/>
<polygon fill="#191970" stroke="#191970" points="1346.5952,-14.269 1336.4118,-17.1928 1346.1958,-21.2576 1346.5952,-14.269"/>
</g>
<!-- Node65&#45;&gt;Node49 -->
<g id="edge88" class="edge">
<title>Node65&#45;&gt;Node49</title>
<path fill="none" stroke="#191970" d="M3342.1982,-134.2967C3326.4982,-123.4524 3305.4562,-108.9182 3289.658,-98.006"/>
<polygon fill="#191970" stroke="#191970" points="3291.2595,-94.8585 3281.0423,-92.055 3287.2812,-100.6181 3291.2595,-94.8585"/>
</g>
<!-- Node65&#45;&gt;Node50 -->
<g id="edge89" class="edge">
<title>Node65&#45;&gt;Node50</title>
<path fill="none" stroke="#191970" d="M3363.2151,-134.4411C3362.8715,-115.9433 3365.2881,-84.8308 3383.209,-67 3434.879,-15.5899 3474.1247,-54.2412 3543.209,-31 3545.0535,-30.3794 3546.9327,-29.6915 3548.8131,-28.9604"/>
<polygon fill="#191970" stroke="#191970" points="3550.2142,-32.1681 3558.0695,-25.0586 3547.4952,-25.7177 3550.2142,-32.1681"/>
</g>
<!-- Node65&#45;&gt;Node51 -->
<g id="edge92" class="edge">
<title>Node65&#45;&gt;Node51</title>
<path fill="none" stroke="#191970" d="M3411.4591,-134.389C3496.1545,-107.3026 3672.0076,-51.0632 3747.5073,-26.9177"/>
<polygon fill="#191970" stroke="#191970" points="3748.5939,-30.2449 3757.0525,-23.8651 3746.4615,-23.5776 3748.5939,-30.2449"/>
</g>
<!-- Node66 -->
<g id="node67" class="node">
<title>Node66</title>
<polygon fill="none" stroke="#bfbfbf" points="3392.209,-73 3392.209,-92 3438.209,-92 3438.209,-73 3392.209,-73"/>
<text text-anchor="middle" x="3415.209" y="-80" font-family="Helvetica,sans-Serif" font-size="10.00" fill="#000000">cstdio</text>
</g>
<!-- Node65&#45;&gt;Node66 -->
<g id="edge90" class="edge">
<title>Node65&#45;&gt;Node66</title>
<path fill="none" stroke="#191970" d="M3375.7816,-134.2967C3383.4962,-124.1618 3393.6641,-110.804 3401.7418,-100.1921"/>
<polygon fill="#191970" stroke="#191970" points="3404.6639,-102.1319 3407.9358,-92.055 3399.0939,-97.8921 3404.6639,-102.1319"/>
</g>
<!-- Node67&#45;&gt;Node14 -->
<g id="edge95" class="edge">
<title>Node67&#45;&gt;Node14</title>
<path fill="none" stroke="#191970" d="M2718.2324,-139.9005C2726.9651,-129.4525 2741.1072,-112.5325 2751.7798,-99.7635"/>
<polygon fill="#191970" stroke="#191970" points="2754.4728,-101.9991 2758.2004,-92.0817 2749.1018,-97.5099 2754.4728,-101.9991"/>
</g>
<!-- Node67&#45;&gt;Node49 -->
<g id="edge96" class="edge">
<title>Node67&#45;&gt;Node49</title>
<path fill="none" stroke="#191970" d="M2744.7824,-139.9391C2753.6676,-137.7354 2763.2488,-135.578 2772.209,-134 2920.5501,-107.8756 3096.4043,-93.4493 3193.5094,-86.9035"/>
<polygon fill="#191970" stroke="#191970" points="3193.7725,-90.3939 3203.5182,-86.238 3193.308,-83.4093 3193.7725,-90.3939"/>
</g>
<!-- Node75&#45;&gt;Node12 -->
<g id="edge114" class="edge">
<title>Node75&#45;&gt;Node12</title>
<path fill="none" stroke="#191970" d="M2342.7674,-324.3107C2364.1108,-285.7071 2436.1485,-141.3609 2365.209,-67 2335.8785,-36.255 1643.6477,-33.1186 1601.209,-31 1510.0885,-26.4512 1403.1051,-20.7103 1346.6786,-17.6511"/>
<polygon fill="#191970" stroke="#191970" points="1346.5915,-14.1413 1336.4165,-17.094 1346.212,-21.131 1346.5915,-14.1413"/>
</g>
</g>
</svg>
