<?xml version="1.0" encoding="UTF-8" standalone="no"?>
<!DOCTYPE svg PUBLIC "-//W3C//DTD SVG 1.1//EN"
 "http://www.w3.org/Graphics/SVG/1.1/DTD/svg11.dtd">
<!-- Generated by graphviz version 2.40.1 (20161225.0304)
 -->
<!-- Title: o2::tpc::Digit Pages: 1 -->
<svg width="301pt" height="474pt"
 viewBox="0.00 0.00 301.00 474.00" xmlns="http://www.w3.org/2000/svg" xmlns:xlink="http://www.w3.org/1999/xlink">
<g id="graph0" class="graph" transform="scale(1 1) rotate(0) translate(4 470)">
<title>o2::tpc::Digit</title>
<!-- Node3 -->
<g id="node1" class="node">
<title>Node3</title>
<polygon fill="#bfbfbf" stroke="#000000" points="128.5,-.5 128.5,-145.5 238.5,-145.5 238.5,-.5 128.5,-.5"/>
<text text-anchor="middle" x="183.5" y="-133.5" font-family="Helvetica,sans-Serif" font-size="10.00" fill="#000000">o2::tpc::Digit</text>
<polyline fill="none" stroke="#000000" points="128.5,-126.5 238.5,-126.5 "/>
<text text-anchor="middle" x="183.5" y="-114.5" font-family="Helvetica,sans-Serif" font-size="10.00" fill="#000000"> </text>
<polyline fill="none" stroke="#000000" points="128.5,-107.5 238.5,-107.5 "/>
<text text-anchor="start" x="136.5" y="-95.5" font-family="Helvetica,sans-Serif" font-size="10.00" fill="#000000">+ Digit()</text>
<text text-anchor="start" x="136.5" y="-84.5" font-family="Helvetica,sans-Serif" font-size="10.00" fill="#000000">+ Digit()</text>
<text text-anchor="start" x="136.5" y="-73.5" font-family="Helvetica,sans-Serif" font-size="10.00" fill="#000000">+ ~Digit()</text>
<text text-anchor="start" x="136.5" y="-62.5" font-family="Helvetica,sans-Serif" font-size="10.00" fill="#000000">+ getCharge()</text>
<text text-anchor="start" x="136.5" y="-51.5" font-family="Helvetica,sans-Serif" font-size="10.00" fill="#000000">+ getChargeFloat()</text>
<text text-anchor="start" x="136.5" y="-40.5" font-family="Helvetica,sans-Serif" font-size="10.00" fill="#000000">+ getCRU()</text>
<text text-anchor="start" x="136.5" y="-29.5" font-family="Helvetica,sans-Serif" font-size="10.00" fill="#000000">+ getRow()</text>
<text text-anchor="start" x="136.5" y="-18.5" font-family="Helvetica,sans-Serif" font-size="10.00" fill="#000000">+ getPad()</text>
<text text-anchor="start" x="136.5" y="-7.5" font-family="Helvetica,sans-Serif" font-size="10.00" fill="#000000"># ClassDefNV()</text>
</g>
<!-- Node4 -->
<g id="node2" class="node">
<title>Node4</title>
<g id="a_node2"><a xlink:href="../../d0/d94/classo2_1_1dataformats_1_1TimeStamp.html" target="_top" xlink:title="{DigitBase\n||+ TimeStamp()\l+ TimeStamp()\l+ getTimeStamp()\l+ setTimeStamp()\l+ operator==()\l}">
<polygon fill="none" stroke="#000000" points="39,-215.5 39,-316.5 146,-316.5 146,-215.5 39,-215.5"/>
<text text-anchor="middle" x="92.5" y="-304.5" font-family="Helvetica,sans-Serif" font-size="10.00" fill="#000000">DigitBase</text>
<polyline fill="none" stroke="#000000" points="39,-297.5 146,-297.5 "/>
<text text-anchor="middle" x="92.5" y="-285.5" font-family="Helvetica,sans-Serif" font-size="10.00" fill="#000000"> </text>
<polyline fill="none" stroke="#000000" points="39,-278.5 146,-278.5 "/>
<text text-anchor="start" x="47" y="-266.5" font-family="Helvetica,sans-Serif" font-size="10.00" fill="#000000">+ TimeStamp()</text>
<text text-anchor="start" x="47" y="-255.5" font-family="Helvetica,sans-Serif" font-size="10.00" fill="#000000">+ TimeStamp()</text>
<text text-anchor="start" x="47" y="-244.5" font-family="Helvetica,sans-Serif" font-size="10.00" fill="#000000">+ getTimeStamp()</text>
<text text-anchor="start" x="47" y="-233.5" font-family="Helvetica,sans-Serif" font-size="10.00" fill="#000000">+ setTimeStamp()</text>
<text text-anchor="start" x="47" y="-222.5" font-family="Helvetica,sans-Serif" font-size="10.00" fill="#000000">+ operator==()</text>
</a>
</g>
</g>
<!-- Node4&#45;&gt;Node3 -->
<g id="edge1" class="edge">
<title>Node4&#45;&gt;Node3</title>
<path fill="none" stroke="#191970" d="M120.7534,-206.0779C129.7929,-186.9063 139.8983,-165.474 149.3135,-145.5053"/>
<polygon fill="none" stroke="#191970" points="117.5082,-204.7538 116.4092,-215.2915 123.8397,-207.7392 117.5082,-204.7538"/>
</g>
<!-- Node5 -->
<g id="node3" class="node">
<title>Node5</title>
<g id="a_node3"><a xlink:href="../../d0/d94/classo2_1_1dataformats_1_1TimeStamp.html" target="_top" xlink:title="{o2::dataformats::TimeStamp\&lt; T \&gt;\n||+ TimeStamp()\l+ TimeStamp()\l+ getTimeStamp()\l+ setTimeStamp()\l+ operator==()\l}">
<polygon fill="none" stroke="#000000" points="0,-364.5 0,-465.5 185,-465.5 185,-364.5 0,-364.5"/>
<text text-anchor="middle" x="92.5" y="-453.5" font-family="Helvetica,sans-Serif" font-size="10.00" fill="#000000">o2::dataformats::TimeStamp&lt; T &gt;</text>
<polyline fill="none" stroke="#000000" points="0,-446.5 185,-446.5 "/>
<text text-anchor="middle" x="92.5" y="-434.5" font-family="Helvetica,sans-Serif" font-size="10.00" fill="#000000"> </text>
<polyline fill="none" stroke="#000000" points="0,-427.5 185,-427.5 "/>
<text text-anchor="start" x="8" y="-415.5" font-family="Helvetica,sans-Serif" font-size="10.00" fill="#000000">+ TimeStamp()</text>
<text text-anchor="start" x="8" y="-404.5" font-family="Helvetica,sans-Serif" font-size="10.00" fill="#000000">+ TimeStamp()</text>
<text text-anchor="start" x="8" y="-393.5" font-family="Helvetica,sans-Serif" font-size="10.00" fill="#000000">+ getTimeStamp()</text>
<text text-anchor="start" x="8" y="-382.5" font-family="Helvetica,sans-Serif" font-size="10.00" fill="#000000">+ setTimeStamp()</text>
<text text-anchor="start" x="8" y="-371.5" font-family="Helvetica,sans-Serif" font-size="10.00" fill="#000000">+ operator==()</text>
</a>
</g>
</g>
<!-- Node5&#45;&gt;Node4 -->
<g id="edge2" class="edge">
<title>Node5&#45;&gt;Node4</title>
<path fill="none" stroke="#ffa500" d="M92.5,-353.8874C92.5,-341.5023 92.5,-328.6068 92.5,-316.6314"/>
<polygon fill="#ffa500" stroke="#ffa500" points="89.0001,-354.1394 92.5,-364.1394 96.0001,-354.1394 89.0001,-354.1394"/>
<text text-anchor="middle" x="112" y="-338" font-family="Helvetica,sans-Serif" font-size="10.00" fill="#000000"> &lt; int &gt;</text>
</g>
<!-- Node6 -->
<g id="node4" class="node">
<title>Node6</title>
<g id="a_node4"><a xlink:href="../../d4/dc3/classfloat.html" target="_top" xlink:title="{float\n||}">
<polygon fill="none" stroke="#000000" points="164.5,-237.5 164.5,-294.5 202.5,-294.5 202.5,-237.5 164.5,-237.5"/>
<text text-anchor="middle" x="183.5" y="-282.5" font-family="Helvetica,sans-Serif" font-size="10.00" fill="#000000">float</text>
<polyline fill="none" stroke="#000000" points="164.5,-275.5 202.5,-275.5 "/>
<text text-anchor="middle" x="183.5" y="-263.5" font-family="Helvetica,sans-Serif" font-size="10.00" fill="#000000"> </text>
<polyline fill="none" stroke="#000000" points="164.5,-256.5 202.5,-256.5 "/>
<text text-anchor="middle" x="183.5" y="-244.5" font-family="Helvetica,sans-Serif" font-size="10.00" fill="#000000"> </text>
</a>
</g>
</g>
<!-- Node6&#45;&gt;Node3 -->
<g id="edge3" class="edge">
<title>Node6&#45;&gt;Node3</title>
<path fill="none" stroke="#404040" d="M183.5,-237.1059C183.5,-216.0351 183.5,-186.3221 183.5,-157.9586"/>
<polygon fill="none" stroke="#404040" points="183.5001,-157.9145 179.5,-151.9146 183.5,-145.9145 187.5,-151.9145 183.5001,-157.9145"/>
<text text-anchor="middle" x="211.5" y="-178" font-family="Helvetica,sans-Serif" font-size="10.00" fill="#000000"> #mCharge</text>
</g>
<!-- Node7 -->
<g id="node5" class="node">
<title>Node7</title>
<polygon fill="none" stroke="#bfbfbf" points="232,-237.5 232,-294.5 293,-294.5 293,-237.5 232,-237.5"/>
<text text-anchor="middle" x="262.5" y="-282.5" font-family="Helvetica,sans-Serif" font-size="10.00" fill="#000000">unsigned</text>
<polyline fill="none" stroke="#bfbfbf" points="232,-275.5 293,-275.5 "/>
<text text-anchor="middle" x="262.5" y="-263.5" font-family="Helvetica,sans-Serif" font-size="10.00" fill="#000000"> </text>
<polyline fill="none" stroke="#bfbfbf" points="232,-256.5 293,-256.5 "/>
<text text-anchor="middle" x="262.5" y="-244.5" font-family="Helvetica,sans-Serif" font-size="10.00" fill="#000000"> </text>
</g>
<!-- Node7&#45;&gt;Node3 -->
<g id="edge4" class="edge">
<title>Node7&#45;&gt;Node3</title>
<path fill="none" stroke="#404040" d="M258.9919,-237.0685C255.814,-216.2029 250.1168,-187.6635 240.5,-164 239.4878,-161.5093 238.4087,-159.0104 237.2735,-156.5122"/>
<polygon fill="none" stroke="#404040" points="237.2118,-156.3849 230.9928,-152.7347 231.9702,-145.5902 238.1893,-149.2404 237.2118,-156.3849"/>
<text text-anchor="middle" x="270.5" y="-189" font-family="Helvetica,sans-Serif" font-size="10.00" fill="#000000"> #mPad</text>
<text text-anchor="middle" x="270.5" y="-178" font-family="Helvetica,sans-Serif" font-size="10.00" fill="#000000">#mCRU</text>
<text text-anchor="middle" x="270.5" y="-167" font-family="Helvetica,sans-Serif" font-size="10.00" fill="#000000">#mRow</text>
</g>
</g>
</svg>
