<?xml version="1.0" encoding="UTF-8" standalone="no"?>
<!DOCTYPE svg PUBLIC "-//W3C//DTD SVG 1.1//EN"
 "http://www.w3.org/Graphics/SVG/1.1/DTD/svg11.dtd">
<!-- Generated by graphviz version 2.40.1 (20161225.0304)
 -->
<!-- Title: /home/travis/build/AliceO2Group/AliceO2/DataFormats/simulation/src/RunContext.cxx Pages: 1 -->
<!--zoomable 251 -->
<svg id="main" version="1.1" xmlns="http://www.w3.org/2000/svg" xmlns:xlink="http://www.w3.org/1999/xlink" xml:space="preserve" onload="init(evt)">
<style type="text/css"><![CDATA[
.edge:hover path { stroke: red; }
.edge:hover polygon { stroke: red; fill: red; }
]]></style>
<script type="text/javascript"><![CDATA[
var edges = document.getElementsByTagName('g');
if (edges && edges.length) {
  for (var i=0;i<edges.length;i++) {
    if (edges[i].id.substr(0,4)=='edge') {
      edges[i].setAttribute('class','edge');
    }
  }
}
]]></script>
        <defs>
                <circle id="rim" cx="0" cy="0" r="7"/>
                <circle id="rim2" cx="0" cy="0" r="3.5"/>
                <g id="zoomPlus">
                        <use xlink:href="#rim" fill="#404040">
                                <set attributeName="fill" to="#808080" begin="zoomplus.mouseover" end="zoomplus.mouseout"/>
                        </use>
                        <path d="M-4,0h8M0,-4v8" fill="none" stroke="white" stroke-width="1.5" pointer-events="none"/>
                </g>
                <g id="zoomMin">
                        <use xlink:href="#rim" fill="#404040">
                                <set attributeName="fill" to="#808080" begin="zoomminus.mouseover" end="zoomminus.mouseout"/>
                        </use>
                        <path d="M-4,0h8" fill="none" stroke="white" stroke-width="1.5" pointer-events="none"/>
                </g>
                <g id="dirArrow">
                        <path fill="none" stroke="white" stroke-width="1.5" d="M0,-3.0v7 M-2.5,-0.5L0,-3.0L2.5,-0.5"/>
                </g>
               <g id="resetDef">
                       <use xlink:href="#rim2" fill="#404040">
                               <set attributeName="fill" to="#808080" begin="reset.mouseover" end="reset.mouseout"/>
                       </use>
               </g>
        </defs>

<script type="text/javascript">
var viewWidth = 711;
var viewHeight = 251;
var sectionId = 'dynsection-0';
</script>
<script xlink:href="../../svgpan.js"/>
<svg id="graph" class="graph">
<g id="viewport">
<title>/home/travis/build/AliceO2Group/AliceO2/DataFormats/simulation/src/RunContext.cxx</title>
<!-- Node0 -->
<g id="node1" class="node">
<title>Node0</title>
<polygon fill="#bfbfbf" stroke="#000000" points="162,-190.5 162,-242.5 299,-242.5 299,-190.5 162,-190.5"/>
<text text-anchor="start" x="170" y="-230.5" font-family="Helvetica,sans-Serif" font-size="10.00" fill="#000000">/home/travis/build</text>
<text text-anchor="start" x="170" y="-219.5" font-family="Helvetica,sans-Serif" font-size="10.00" fill="#000000">/AliceO2Group/AliceO2</text>
<text text-anchor="start" x="170" y="-208.5" font-family="Helvetica,sans-Serif" font-size="10.00" fill="#000000">/DataFormats/simulation</text>
<text text-anchor="middle" x="230.5" y="-197.5" font-family="Helvetica,sans-Serif" font-size="10.00" fill="#000000">/src/RunContext.cxx</text>
</g>
<!-- Node1 -->
<g id="node2" class="node">
<title>Node1</title>
<g id="a_node2"><a xlink:href="../../d5/d3f/RunContext_8h.html" target="_top" xlink:title="SimulationDataFormat\l/RunContext.h">
<polygon fill="none" stroke="#000000" points="111,-123.5 111,-153.5 238,-153.5 238,-123.5 111,-123.5"/>
<text text-anchor="start" x="119" y="-141.5" font-family="Helvetica,sans-Serif" font-size="10.00" fill="#000000">SimulationDataFormat</text>
<text text-anchor="middle" x="174.5" y="-130.5" font-family="Helvetica,sans-Serif" font-size="10.00" fill="#000000">/RunContext.h</text>
</a>
</g>
</g>
<!-- Node0&#45;&gt;Node1 -->
<g id="edge1" class="edge">
<title>Node0&#45;&gt;Node1</title>
<path fill="none" stroke="#191970" d="M211.541,-190.0928C204.9727,-180.9442 197.661,-170.7599 191.2805,-161.8728"/>
<polygon fill="#191970" stroke="#191970" points="193.9477,-159.5866 185.2725,-153.5046 188.2615,-163.669 193.9477,-159.5866"/>
</g>
<!-- Node14 -->
<g id="node15" class="node">
<title>Node14</title>
<polygon fill="none" stroke="#bfbfbf" points="256.5,-129 256.5,-148 316.5,-148 316.5,-129 256.5,-129"/>
<text text-anchor="middle" x="286.5" y="-136" font-family="Helvetica,sans-Serif" font-size="10.00" fill="#000000">iostream</text>
</g>
<!-- Node0&#45;&gt;Node14 -->
<g id="edge15" class="edge">
<title>Node0&#45;&gt;Node14</title>
<path fill="none" stroke="#191970" d="M249.459,-190.0928C257.4274,-178.994 266.49,-166.371 273.6566,-156.389"/>
<polygon fill="#191970" stroke="#191970" points="276.6303,-158.2484 279.6193,-148.0839 270.944,-154.1659 276.6303,-158.2484"/>
</g>
<!-- Node2 -->
<g id="node3" class="node">
<title>Node2</title>
<polygon fill="none" stroke="#bfbfbf" points="0,-62 0,-81 47,-81 47,-62 0,-62"/>
<text text-anchor="middle" x="23.5" y="-69" font-family="Helvetica,sans-Serif" font-size="10.00" fill="#000000">vector</text>
</g>
<!-- Node1&#45;&gt;Node2 -->
<g id="edge2" class="edge">
<title>Node1&#45;&gt;Node2</title>
<path fill="none" stroke="#191970" d="M138.6548,-123.458C114.943,-113.3923 83.2293,-99.709 55.5,-87 54.4899,-86.5371 53.4636,-86.0626 52.4285,-85.5805"/>
<polygon fill="#191970" stroke="#191970" points="53.6035,-82.2641 43.0683,-81.1415 50.604,-88.5889 53.6035,-82.2641"/>
</g>
<!-- Node3 -->
<g id="node4" class="node">
<title>Node3</title>
<polygon fill="none" stroke="#bfbfbf" points="65,-62 65,-81 124,-81 124,-62 65,-62"/>
<text text-anchor="middle" x="94.5" y="-69" font-family="Helvetica,sans-Serif" font-size="10.00" fill="#000000">TChain.h</text>
</g>
<!-- Node1&#45;&gt;Node3 -->
<g id="edge3" class="edge">
<title>Node1&#45;&gt;Node3</title>
<path fill="none" stroke="#191970" d="M156.3468,-123.2967C143.6404,-112.6551 126.6913,-98.4602 113.7498,-87.6217"/>
<polygon fill="#191970" stroke="#191970" points="115.8227,-84.7924 105.9089,-81.055 111.3282,-90.159 115.8227,-84.7924"/>
</g>
<!-- Node4 -->
<g id="node5" class="node">
<title>Node4</title>
<polygon fill="none" stroke="#bfbfbf" points="142,-62 142,-81 207,-81 207,-62 142,-62"/>
<text text-anchor="middle" x="174.5" y="-69" font-family="Helvetica,sans-Serif" font-size="10.00" fill="#000000">TBranch.h</text>
</g>
<!-- Node1&#45;&gt;Node4 -->
<g id="edge4" class="edge">
<title>Node1&#45;&gt;Node4</title>
<path fill="none" stroke="#191970" d="M174.5,-123.2967C174.5,-113.7699 174.5,-101.3954 174.5,-91.1306"/>
<polygon fill="#191970" stroke="#191970" points="178.0001,-91.0549 174.5,-81.055 171.0001,-91.055 178.0001,-91.0549"/>
</g>
<!-- Node5 -->
<g id="node6" class="node">
<title>Node5</title>
<g id="a_node6"><a xlink:href="../../d9/d80/InteractionRecord_8h.html" target="_top" xlink:title="CommonDataFormat/Interaction\lRecord.h">
<polygon fill="none" stroke="#000000" points="225.5,-56.5 225.5,-86.5 399.5,-86.5 399.5,-56.5 225.5,-56.5"/>
<text text-anchor="start" x="233.5" y="-74.5" font-family="Helvetica,sans-Serif" font-size="10.00" fill="#000000">CommonDataFormat/Interaction</text>
<text text-anchor="middle" x="312.5" y="-63.5" font-family="Helvetica,sans-Serif" font-size="10.00" fill="#000000">Record.h</text>
</a>
</g>
</g>
<!-- Node1&#45;&gt;Node5 -->
<g id="edge5" class="edge">
<title>Node1&#45;&gt;Node5</title>
<path fill="none" stroke="#191970" d="M205.4699,-123.4639C225.1292,-113.9191 250.7784,-101.4663 272.0393,-91.144"/>
<polygon fill="#191970" stroke="#191970" points="273.6888,-94.2339 281.156,-86.7177 270.6315,-87.9368 273.6888,-94.2339"/>
</g>
<!-- Node11 -->
<g id="node12" class="node">
<title>Node11</title>
<g id="a_node12"><a xlink:href="../../d4/d5f/BunchFilling_8h.html" target="_top" xlink:title="CommonDataFormat/BunchFilling.h">
<polygon fill="none" stroke="#000000" points="471,-62 471,-81 660,-81 660,-62 471,-62"/>
<text text-anchor="middle" x="565.5" y="-69" font-family="Helvetica,sans-Serif" font-size="10.00" fill="#000000">CommonDataFormat/BunchFilling.h</text>
</a>
</g>
</g>
<!-- Node1&#45;&gt;Node11 -->
<g id="edge11" class="edge">
<title>Node1&#45;&gt;Node11</title>
<path fill="none" stroke="#191970" d="M238.1647,-124.7916C241.3185,-124.1723 244.4435,-123.5716 247.5,-123 330.4706,-107.4825 426.1384,-92.3617 490.6936,-82.5634"/>
<polygon fill="#191970" stroke="#191970" points="491.4166,-85.9939 500.7805,-81.0373 490.3694,-79.0727 491.4166,-85.9939"/>
</g>
<!-- Node6 -->
<g id="node7" class="node">
<title>Node6</title>
<polygon fill="none" stroke="#bfbfbf" points="111,-.5 111,-19.5 170,-19.5 170,-.5 111,-.5"/>
<text text-anchor="middle" x="140.5" y="-7.5" font-family="Helvetica,sans-Serif" font-size="10.00" fill="#000000">Rtypes.h</text>
</g>
<!-- Node5&#45;&gt;Node6 -->
<g id="edge6" class="edge">
<title>Node5&#45;&gt;Node6</title>
<path fill="none" stroke="#191970" d="M270.4241,-56.4554C241.7254,-46.194 204.1063,-32.7429 176.7377,-22.9571"/>
<polygon fill="#191970" stroke="#191970" points="177.7485,-19.6015 167.1539,-19.5303 175.3917,-26.1929 177.7485,-19.6015"/>
</g>
<!-- Node7 -->
<g id="node8" class="node">
<title>Node7</title>
<polygon fill="none" stroke="#bfbfbf" points="188,-.5 188,-19.5 237,-19.5 237,-.5 188,-.5"/>
<text text-anchor="middle" x="212.5" y="-7.5" font-family="Helvetica,sans-Serif" font-size="10.00" fill="#000000">iosfwd</text>
</g>
<!-- Node5&#45;&gt;Node7 -->
<g id="edge7" class="edge">
<title>Node5&#45;&gt;Node7</title>
<path fill="none" stroke="#191970" d="M288.0372,-56.4554C272.3765,-46.8241 252.1468,-34.3828 236.5644,-24.7996"/>
<polygon fill="#191970" stroke="#191970" points="238.348,-21.7876 227.9965,-19.5303 234.681,-27.7503 238.348,-21.7876"/>
</g>
<!-- Node8 -->
<g id="node9" class="node">
<title>Node8</title>
<polygon fill="none" stroke="#bfbfbf" points="255,-.5 255,-19.5 302,-19.5 302,-.5 255,-.5"/>
<text text-anchor="middle" x="278.5" y="-7.5" font-family="Helvetica,sans-Serif" font-size="10.00" fill="#000000">cmath</text>
</g>
<!-- Node5&#45;&gt;Node8 -->
<g id="edge8" class="edge">
<title>Node5&#45;&gt;Node8</title>
<path fill="none" stroke="#191970" d="M304.0955,-56.2977C299.4743,-47.9388 293.7031,-37.4997 288.8111,-28.6509"/>
<polygon fill="#191970" stroke="#191970" points="291.8452,-26.9051 283.9438,-19.8469 285.7191,-30.292 291.8452,-26.9051"/>
</g>
<!-- Node9 -->
<g id="node10" class="node">
<title>Node9</title>
<polygon fill="none" stroke="#bfbfbf" points="320.5,-.5 320.5,-19.5 370.5,-19.5 370.5,-.5 320.5,-.5"/>
<text text-anchor="middle" x="345.5" y="-7.5" font-family="Helvetica,sans-Serif" font-size="10.00" fill="#000000">cstdint</text>
</g>
<!-- Node5&#45;&gt;Node9 -->
<g id="edge9" class="edge">
<title>Node5&#45;&gt;Node9</title>
<path fill="none" stroke="#191970" d="M320.6573,-56.2977C325.0949,-48.0277 330.625,-37.7215 335.3404,-28.9339"/>
<polygon fill="#191970" stroke="#191970" points="338.5721,-30.3134 340.2163,-19.8469 332.404,-27.0037 338.5721,-30.3134"/>
</g>
<!-- Node10 -->
<g id="node11" class="node">
<title>Node10</title>
<g id="a_node11"><a xlink:href="../../d4/dc6/LHCConstants_8h.html" target="_top" xlink:title="Header to collect LHC related constants. ">
<polygon fill="none" stroke="#000000" points="388.5,-.5 388.5,-19.5 578.5,-19.5 578.5,-.5 388.5,-.5"/>
<text text-anchor="middle" x="483.5" y="-7.5" font-family="Helvetica,sans-Serif" font-size="10.00" fill="#000000">CommonConstants/LHCConstants.h</text>
</a>
</g>
</g>
<!-- Node5&#45;&gt;Node10 -->
<g id="edge10" class="edge">
<title>Node5&#45;&gt;Node10</title>
<path fill="none" stroke="#191970" d="M354.3313,-56.4554C382.8631,-46.194 420.2635,-32.7429 447.4729,-22.9571"/>
<polygon fill="#191970" stroke="#191970" points="448.7757,-26.2081 457.0011,-19.5303 446.4066,-19.6212 448.7757,-26.2081"/>
</g>
<!-- Node11&#45;&gt;Node10 -->
<g id="edge12" class="edge">
<title>Node11&#45;&gt;Node10</title>
<path fill="none" stroke="#191970" d="M552.6875,-61.8906C539.8099,-52.2324 519.7416,-37.1812 504.528,-25.771"/>
<polygon fill="#191970" stroke="#191970" points="506.3226,-22.7419 496.2225,-19.5419 502.1225,-28.3419 506.3226,-22.7419"/>
</g>
<!-- Node12 -->
<g id="node13" class="node">
<title>Node12</title>
<polygon fill="none" stroke="#bfbfbf" points="596.5,-.5 596.5,-19.5 640.5,-19.5 640.5,-.5 596.5,-.5"/>
<text text-anchor="middle" x="618.5" y="-7.5" font-family="Helvetica,sans-Serif" font-size="10.00" fill="#000000">bitset</text>
</g>
<!-- Node11&#45;&gt;Node12 -->
<g id="edge13" class="edge">
<title>Node11&#45;&gt;Node12</title>
<path fill="none" stroke="#191970" d="M573.7813,-61.8906C581.6693,-52.7376 593.7314,-38.7409 603.3412,-27.59"/>
<polygon fill="#191970" stroke="#191970" points="606.2251,-29.6049 610.102,-19.7449 600.9225,-25.0352 606.2251,-29.6049"/>
</g>
<!-- Node13 -->
<g id="node14" class="node">
<title>Node13</title>
<polygon fill="none" stroke="#bfbfbf" points="658.5,-.5 658.5,-19.5 702.5,-19.5 702.5,-.5 658.5,-.5"/>
<text text-anchor="middle" x="680.5" y="-7.5" font-family="Helvetica,sans-Serif" font-size="10.00" fill="#000000">string</text>
</g>
<!-- Node11&#45;&gt;Node13 -->
<g id="edge14" class="edge">
<title>Node11&#45;&gt;Node13</title>
<path fill="none" stroke="#191970" d="M583.4688,-61.8906C602.2884,-51.8262 632.0585,-35.9057 653.6641,-24.3514"/>
<polygon fill="#191970" stroke="#191970" points="655.4898,-27.3442 662.6574,-19.5419 652.1886,-21.1714 655.4898,-27.3442"/>
</g>
</g>
</svg>
        <g id="navigator" transform="translate(0 0)" fill="#404254">
                <rect fill="#f2f5e9" fill-opacity="0.5" stroke="#606060" stroke-width=".5" x="0" y="0" width="60" height="60"/>
                <use id="zoomplus" xlink:href="#zoomPlus" x="17" y="9" onmousedown="handleZoom(evt,'in')"/>
                <use id="zoomminus" xlink:href="#zoomMin" x="42" y="9" onmousedown="handleZoom(evt,'out')"/>
                <use id="reset" xlink:href="#resetDef" x="30" y="36" onmousedown="handleReset()"/>
                <g id="arrowUp" xlink:href="#dirArrow" transform="translate(30 24)" onmousedown="handlePan(0,-1)">
                  <use xlink:href="#rim" fill="#404040">
                        <set attributeName="fill" to="#808080" begin="arrowUp.mouseover" end="arrowUp.mouseout"/>
                  </use>
                  <path fill="none" stroke="white" stroke-width="1.5" d="M0,-3.0v7 M-2.5,-0.5L0,-3.0L2.5,-0.5"/>
                </g>
                <g id="arrowRight" xlink:href="#dirArrow" transform="rotate(90) translate(36 -43)" onmousedown="handlePan(1,0)">
                  <use xlink:href="#rim" fill="#404040">
                        <set attributeName="fill" to="#808080" begin="arrowRight.mouseover" end="arrowRight.mouseout"/>
                  </use>
                  <path fill="none" stroke="white" stroke-width="1.5" d="M0,-3.0v7 M-2.5,-0.5L0,-3.0L2.5,-0.5"/>
                </g>
                <g id="arrowDown" xlink:href="#dirArrow" transform="rotate(180) translate(-30 -48)" onmousedown="handlePan(0,1)">
                  <use xlink:href="#rim" fill="#404040">
                        <set attributeName="fill" to="#808080" begin="arrowDown.mouseover" end="arrowDown.mouseout"/>
                  </use>
                  <path fill="none" stroke="white" stroke-width="1.5" d="M0,-3.0v7 M-2.5,-0.5L0,-3.0L2.5,-0.5"/>
                </g>
                <g id="arrowLeft" xlink:href="#dirArrow" transform="rotate(270) translate(-36 17)" onmousedown="handlePan(-1,0)">
                  <use xlink:href="#rim" fill="#404040">
                        <set attributeName="fill" to="#808080" begin="arrowLeft.mouseover" end="arrowLeft.mouseout"/>
                  </use>
                  <path fill="none" stroke="white" stroke-width="1.5" d="M0,-3.0v7 M-2.5,-0.5L0,-3.0L2.5,-0.5"/>
                </g>
        </g>
        <svg viewBox="0 0 15 15" width="100%" height="30px" preserveAspectRatio="xMaxYMin meet">
         <g id="arrow_out" transform="scale(0.3 0.3)">
          <a xlink:href="RunContext_8cxx__incl_org.svg" target="_base">
           <rect id="button" ry="5" rx="5" y="6" x="6" height="38" width="38"
                fill="#f2f5e9" fill-opacity="0.5" stroke="#606060" stroke-width="1.0"/>
           <path id="arrow"
             d="M 11.500037,31.436501 C 11.940474,20.09759 22.043105,11.32322 32.158766,21.979434 L 37.068811,17.246167 C 37.068811,17.246167 37.088388,32 37.088388,32 L 22.160133,31.978069 C 22.160133,31.978069 26.997745,27.140456 26.997745,27.140456 C 18.528582,18.264221 13.291696,25.230495 11.500037,31.436501 z"
             style="fill:#404040;"/>
          </a>
         </g>
        </svg>
</svg>
