<?xml version="1.0" encoding="UTF-8" standalone="no"?>
<!DOCTYPE svg PUBLIC "-//W3C//DTD SVG 1.1//EN"
 "http://www.w3.org/Graphics/SVG/1.1/DTD/svg11.dtd">
<!-- Generated by graphviz version 2.40.1 (20161225.0304)
 -->
<!-- Title: /home/travis/build/AliceO2Group/AliceO2/Utilities/Mergers/include/Mergers/MergeInterface.h Pages: 1 -->
<svg width="235pt" height="117pt"
 viewBox="0.00 0.00 234.50 117.00" xmlns="http://www.w3.org/2000/svg" xmlns:xlink="http://www.w3.org/1999/xlink">
<g id="graph0" class="graph" transform="scale(1 1) rotate(0) translate(4 113)">
<title>/home/travis/build/AliceO2Group/AliceO2/Utilities/Mergers/include/Mergers/MergeInterface.h</title>
<!-- Node0 -->
<g id="node1" class="node">
<title>Node0</title>
<polygon fill="#bfbfbf" stroke="#000000" points="24.5,-56.5 24.5,-108.5 168.5,-108.5 168.5,-56.5 24.5,-56.5"/>
<text text-anchor="start" x="32.5" y="-96.5" font-family="Helvetica,sans-Serif" font-size="10.00" fill="#000000">/home/travis/build</text>
<text text-anchor="start" x="32.5" y="-85.5" font-family="Helvetica,sans-Serif" font-size="10.00" fill="#000000">/AliceO2Group/AliceO2</text>
<text text-anchor="start" x="32.5" y="-74.5" font-family="Helvetica,sans-Serif" font-size="10.00" fill="#000000">/Utilities/Mergers/include</text>
<text text-anchor="middle" x="96.5" y="-63.5" font-family="Helvetica,sans-Serif" font-size="10.00" fill="#000000">/Mergers/MergeInterface.h</text>
</g>
<!-- Node1 -->
<g id="node2" class="node">
<title>Node1</title>
<polygon fill="none" stroke="#bfbfbf" points="0,-.5 0,-19.5 47,-19.5 47,-.5 0,-.5"/>
<text text-anchor="middle" x="23.5" y="-7.5" font-family="Helvetica,sans-Serif" font-size="10.00" fill="#000000">vector</text>
</g>
<!-- Node0&#45;&gt;Node1 -->
<g id="edge1" class="edge">
<title>Node0&#45;&gt;Node1</title>
<path fill="none" stroke="#191970" d="M70.1453,-56.3258C60.1638,-46.4127 49.0828,-35.4075 40.2264,-26.6118"/>
<polygon fill="#191970" stroke="#191970" points="42.6615,-24.0974 33.0998,-19.534 37.7287,-29.0641 42.6615,-24.0974"/>
</g>
<!-- Node2 -->
<g id="node3" class="node">
<title>Node2</title>
<polygon fill="none" stroke="#bfbfbf" points="65,-.5 65,-19.5 128,-19.5 128,-.5 65,-.5"/>
<text text-anchor="middle" x="96.5" y="-7.5" font-family="Helvetica,sans-Serif" font-size="10.00" fill="#000000">TObject.h</text>
</g>
<!-- Node0&#45;&gt;Node2 -->
<g id="edge2" class="edge">
<title>Node0&#45;&gt;Node2</title>
<path fill="none" stroke="#191970" d="M96.5,-56.3258C96.5,-47.5142 96.5,-37.8397 96.5,-29.621"/>
<polygon fill="#191970" stroke="#191970" points="100.0001,-29.534 96.5,-19.534 93.0001,-29.534 100.0001,-29.534"/>
</g>
<!-- Node3 -->
<g id="node4" class="node">
<title>Node3</title>
<polygon fill="none" stroke="#bfbfbf" points="146.5,-.5 146.5,-19.5 226.5,-19.5 226.5,-.5 146.5,-.5"/>
<text text-anchor="middle" x="186.5" y="-7.5" font-family="Helvetica,sans-Serif" font-size="10.00" fill="#000000">TCollection.h</text>
</g>
<!-- Node0&#45;&gt;Node3 -->
<g id="edge3" class="edge">
<title>Node0&#45;&gt;Node3</title>
<path fill="none" stroke="#191970" d="M128.9921,-56.3258C141.6709,-46.1123 155.7888,-34.7396 166.8634,-25.8184"/>
<polygon fill="#191970" stroke="#191970" points="169.0728,-28.533 174.6647,-19.534 164.6815,-23.0817 169.0728,-28.533"/>
</g>
</g>
</svg>
