<?xml version="1.0" encoding="UTF-8" standalone="no"?>
<!DOCTYPE svg PUBLIC "-//W3C//DTD SVG 1.1//EN"
 "http://www.w3.org/Graphics/SVG/1.1/DTD/svg11.dtd">
<!-- Generated by graphviz version 2.40.1 (20161225.0304)
 -->
<!-- Title: /home/travis/build/AliceO2Group/AliceO2/Detectors/TRD/base/include/TRDBase/PadCalibrations.h Pages: 1 -->
<svg width="886pt" height="417pt"
 viewBox="0.00 0.00 886.00 417.00" xmlns="http://www.w3.org/2000/svg" xmlns:xlink="http://www.w3.org/1999/xlink">
<g id="graph0" class="graph" transform="scale(1 1) rotate(0) translate(4 413)">
<title>/home/travis/build/AliceO2Group/AliceO2/Detectors/TRD/base/include/TRDBase/PadCalibrations.h</title>
<!-- Node43 -->
<g id="node1" class="node">
<title>Node43</title>
<polygon fill="#bfbfbf" stroke="#000000" points="343.5,-356.5 343.5,-408.5 498.5,-408.5 498.5,-356.5 343.5,-356.5"/>
<text text-anchor="start" x="351.5" y="-396.5" font-family="Helvetica,sans-Serif" font-size="10.00" fill="#000000">/home/travis/build</text>
<text text-anchor="start" x="351.5" y="-385.5" font-family="Helvetica,sans-Serif" font-size="10.00" fill="#000000">/AliceO2Group/AliceO2</text>
<text text-anchor="start" x="351.5" y="-374.5" font-family="Helvetica,sans-Serif" font-size="10.00" fill="#000000">/Detectors/TRD/base/include</text>
<text text-anchor="middle" x="421" y="-363.5" font-family="Helvetica,sans-Serif" font-size="10.00" fill="#000000">/TRDBase/PadCalibrations.h</text>
</g>
<!-- Node44 -->
<g id="node2" class="node">
<title>Node44</title>
<g id="a_node2"><a xlink:href="../../d2/d8d/LocalGainFactor_8h.html" target="_top" xlink:title="/home/travis/build\l/AliceO2Group/AliceO2\l/Detectors/TRD/base/include\l/TRDBase/LocalGainFactor.h">
<polygon fill="none" stroke="#000000" points="257.5,-267.5 257.5,-319.5 412.5,-319.5 412.5,-267.5 257.5,-267.5"/>
<text text-anchor="start" x="265.5" y="-307.5" font-family="Helvetica,sans-Serif" font-size="10.00" fill="#000000">/home/travis/build</text>
<text text-anchor="start" x="265.5" y="-296.5" font-family="Helvetica,sans-Serif" font-size="10.00" fill="#000000">/AliceO2Group/AliceO2</text>
<text text-anchor="start" x="265.5" y="-285.5" font-family="Helvetica,sans-Serif" font-size="10.00" fill="#000000">/Detectors/TRD/base/include</text>
<text text-anchor="middle" x="335" y="-274.5" font-family="Helvetica,sans-Serif" font-size="10.00" fill="#000000">/TRDBase/LocalGainFactor.h</text>
</a>
</g>
</g>
<!-- Node43&#45;&gt;Node44 -->
<g id="edge1" class="edge">
<title>Node43&#45;&gt;Node44</title>
<path fill="none" stroke="#191970" d="M388.632,-349.0029C379.2107,-339.2529 369.0629,-328.7511 360.1566,-319.5341"/>
<polygon fill="#191970" stroke="#191970" points="386.1965,-351.5193 395.6623,-356.2784 391.2304,-346.6551 386.1965,-351.5193"/>
</g>
<!-- Node51 -->
<g id="node9" class="node">
<title>Node51</title>
<g id="a_node9"><a xlink:href="../../d8/d53/LocalT0_8h.html" target="_top" xlink:title="/home/travis/build\l/AliceO2Group/AliceO2\l/Detectors/TRD/base/include\l/TRDBase/LocalT0.h">
<polygon fill="none" stroke="#000000" points="84.5,-267.5 84.5,-319.5 239.5,-319.5 239.5,-267.5 84.5,-267.5"/>
<text text-anchor="start" x="92.5" y="-307.5" font-family="Helvetica,sans-Serif" font-size="10.00" fill="#000000">/home/travis/build</text>
<text text-anchor="start" x="92.5" y="-296.5" font-family="Helvetica,sans-Serif" font-size="10.00" fill="#000000">/AliceO2Group/AliceO2</text>
<text text-anchor="start" x="92.5" y="-285.5" font-family="Helvetica,sans-Serif" font-size="10.00" fill="#000000">/Detectors/TRD/base/include</text>
<text text-anchor="middle" x="162" y="-274.5" font-family="Helvetica,sans-Serif" font-size="10.00" fill="#000000">/TRDBase/LocalT0.h</text>
</a>
</g>
</g>
<!-- Node43&#45;&gt;Node51 -->
<g id="edge10" class="edge">
<title>Node43&#45;&gt;Node51</title>
<path fill="none" stroke="#191970" d="M335.4084,-353.0882C303.9312,-342.2717 268.5283,-330.1062 237.9572,-319.6011"/>
<polygon fill="#191970" stroke="#191970" points="334.4468,-356.4586 345.0415,-356.3984 336.7217,-349.8386 334.4468,-356.4586"/>
</g>
<!-- Node53 -->
<g id="node11" class="node">
<title>Node53</title>
<g id="a_node11"><a xlink:href="../../d9/d59/LocalVDrift_8h.html" target="_top" xlink:title="/home/travis/build\l/AliceO2Group/AliceO2\l/Detectors/TRD/base/include\l/TRDBase/LocalVDrift.h">
<polygon fill="none" stroke="#000000" points="430.5,-267.5 430.5,-319.5 585.5,-319.5 585.5,-267.5 430.5,-267.5"/>
<text text-anchor="start" x="438.5" y="-307.5" font-family="Helvetica,sans-Serif" font-size="10.00" fill="#000000">/home/travis/build</text>
<text text-anchor="start" x="438.5" y="-296.5" font-family="Helvetica,sans-Serif" font-size="10.00" fill="#000000">/AliceO2Group/AliceO2</text>
<text text-anchor="start" x="438.5" y="-285.5" font-family="Helvetica,sans-Serif" font-size="10.00" fill="#000000">/Detectors/TRD/base/include</text>
<text text-anchor="middle" x="508" y="-274.5" font-family="Helvetica,sans-Serif" font-size="10.00" fill="#000000">/TRDBase/LocalVDrift.h</text>
</a>
</g>
</g>
<!-- Node43&#45;&gt;Node53 -->
<g id="edge14" class="edge">
<title>Node43&#45;&gt;Node53</title>
<path fill="none" stroke="#191970" d="M453.7444,-349.0029C463.2752,-339.2529 473.541,-328.7511 482.5509,-319.5341"/>
<polygon fill="#191970" stroke="#191970" points="451.1198,-346.6808 446.6323,-356.2784 456.1255,-351.5741 451.1198,-346.6808"/>
</g>
<!-- Node55 -->
<g id="node13" class="node">
<title>Node55</title>
<g id="a_node13"><a xlink:href="../../df/df7/PadStatus_8h.html" target="_top" xlink:title="/home/travis/build\l/AliceO2Group/AliceO2\l/Detectors/TRD/base/include\l/TRDBase/PadStatus.h">
<polygon fill="none" stroke="#000000" points="603.5,-267.5 603.5,-319.5 758.5,-319.5 758.5,-267.5 603.5,-267.5"/>
<text text-anchor="start" x="611.5" y="-307.5" font-family="Helvetica,sans-Serif" font-size="10.00" fill="#000000">/home/travis/build</text>
<text text-anchor="start" x="611.5" y="-296.5" font-family="Helvetica,sans-Serif" font-size="10.00" fill="#000000">/AliceO2Group/AliceO2</text>
<text text-anchor="start" x="611.5" y="-285.5" font-family="Helvetica,sans-Serif" font-size="10.00" fill="#000000">/Detectors/TRD/base/include</text>
<text text-anchor="middle" x="681" y="-274.5" font-family="Helvetica,sans-Serif" font-size="10.00" fill="#000000">/TRDBase/PadStatus.h</text>
</a>
</g>
</g>
<!-- Node43&#45;&gt;Node55 -->
<g id="edge18" class="edge">
<title>Node43&#45;&gt;Node55</title>
<path fill="none" stroke="#191970" d="M506.9221,-353.0882C538.5208,-342.2717 574.0604,-330.1062 604.7496,-319.6011"/>
<polygon fill="#191970" stroke="#191970" points="505.5793,-349.8484 497.2518,-356.3984 507.8464,-356.4711 505.5793,-349.8484"/>
</g>
<!-- Node45 -->
<g id="node3" class="node">
<title>Node45</title>
<g id="a_node3"><a xlink:href="../../d4/d17/Calibrations_8h.html" target="_top" xlink:title="/home/travis/build\l/AliceO2Group/AliceO2\l/Detectors/TRD/base/include\l/TRDBase/Calibrations.h">
<polygon fill="none" stroke="#000000" points="418.5,-178.5 418.5,-230.5 573.5,-230.5 573.5,-178.5 418.5,-178.5"/>
<text text-anchor="start" x="426.5" y="-218.5" font-family="Helvetica,sans-Serif" font-size="10.00" fill="#000000">/home/travis/build</text>
<text text-anchor="start" x="426.5" y="-207.5" font-family="Helvetica,sans-Serif" font-size="10.00" fill="#000000">/AliceO2Group/AliceO2</text>
<text text-anchor="start" x="426.5" y="-196.5" font-family="Helvetica,sans-Serif" font-size="10.00" fill="#000000">/Detectors/TRD/base/include</text>
<text text-anchor="middle" x="496" y="-185.5" font-family="Helvetica,sans-Serif" font-size="10.00" fill="#000000">/TRDBase/Calibrations.h</text>
</a>
</g>
</g>
<!-- Node44&#45;&gt;Node45 -->
<g id="edge2" class="edge">
<title>Node44&#45;&gt;Node45</title>
<path fill="none" stroke="#191970" d="M391.217,-262.4235C410.051,-252.0122 430.8416,-240.5192 448.9045,-230.5341"/>
<polygon fill="#191970" stroke="#191970" points="389.493,-259.3773 382.4345,-267.2784 392.8796,-265.5036 389.493,-259.3773"/>
</g>
<!-- Node46 -->
<g id="node4" class="node">
<title>Node46</title>
<g id="a_node4"><a xlink:href="../../dc/db4/Calibrations_8cxx.html" target="_top" xlink:title="/home/travis/build\l/AliceO2Group/AliceO2\l/Detectors/TRD/base/src\l/Calibrations.cxx">
<polygon fill="none" stroke="#000000" points="304,-89.5 304,-141.5 438,-141.5 438,-89.5 304,-89.5"/>
<text text-anchor="start" x="312" y="-129.5" font-family="Helvetica,sans-Serif" font-size="10.00" fill="#000000">/home/travis/build</text>
<text text-anchor="start" x="312" y="-118.5" font-family="Helvetica,sans-Serif" font-size="10.00" fill="#000000">/AliceO2Group/AliceO2</text>
<text text-anchor="start" x="312" y="-107.5" font-family="Helvetica,sans-Serif" font-size="10.00" fill="#000000">/Detectors/TRD/base/src</text>
<text text-anchor="middle" x="371" y="-96.5" font-family="Helvetica,sans-Serif" font-size="10.00" fill="#000000">/Calibrations.cxx</text>
</a>
</g>
</g>
<!-- Node44&#45;&gt;Node46 -->
<g id="edge8" class="edge">
<title>Node44&#45;&gt;Node46</title>
<path fill="none" stroke="#191970" d="M342.3541,-257.1378C349.3027,-222.7809 359.5551,-172.0886 365.7249,-141.5823"/>
<polygon fill="#191970" stroke="#191970" points="338.8638,-256.7401 340.3119,-267.2355 345.7249,-258.1278 338.8638,-256.7401"/>
</g>
<!-- Node50 -->
<g id="node8" class="node">
<title>Node50</title>
<g id="a_node8"><a xlink:href="../../d3/d93/LocalGainFactor_8cxx.html" target="_top" xlink:title="/home/travis/build\l/AliceO2Group/AliceO2\l/Detectors/TRD/base/src\l/LocalGainFactor.cxx">
<polygon fill="none" stroke="#000000" points="190,-178.5 190,-230.5 324,-230.5 324,-178.5 190,-178.5"/>
<text text-anchor="start" x="198" y="-218.5" font-family="Helvetica,sans-Serif" font-size="10.00" fill="#000000">/home/travis/build</text>
<text text-anchor="start" x="198" y="-207.5" font-family="Helvetica,sans-Serif" font-size="10.00" fill="#000000">/AliceO2Group/AliceO2</text>
<text text-anchor="start" x="198" y="-196.5" font-family="Helvetica,sans-Serif" font-size="10.00" fill="#000000">/Detectors/TRD/base/src</text>
<text text-anchor="middle" x="257" y="-185.5" font-family="Helvetica,sans-Serif" font-size="10.00" fill="#000000">/LocalGainFactor.cxx</text>
</a>
</g>
</g>
<!-- Node44&#45;&gt;Node50 -->
<g id="edge9" class="edge">
<title>Node44&#45;&gt;Node50</title>
<path fill="none" stroke="#191970" d="M305.3915,-259.7159C296.9177,-250.0472 287.8151,-239.6608 279.8164,-230.5341"/>
<polygon fill="#191970" stroke="#191970" points="302.796,-262.0648 312.0193,-267.2784 308.0604,-257.451 302.796,-262.0648"/>
</g>
<!-- Node45&#45;&gt;Node46 -->
<g id="edge3" class="edge">
<title>Node45&#45;&gt;Node46</title>
<path fill="none" stroke="#191970" d="M450.9593,-172.431C436.7101,-162.2856 421.1446,-151.203 407.5648,-141.5341"/>
<polygon fill="#191970" stroke="#191970" points="448.9958,-175.3295 459.172,-178.2784 453.0558,-169.6272 448.9958,-175.3295"/>
</g>
<!-- Node47 -->
<g id="node5" class="node">
<title>Node47</title>
<g id="a_node5"><a xlink:href="../../d4/dae/TRD_2simulation_2include_2TRDSimulation_2Digitizer_8h.html" target="_top" xlink:title="/home/travis/build\l/AliceO2Group/AliceO2\l/Detectors/TRD/simulation\l/include/TRDSimulation/Digitizer.h">
<polygon fill="none" stroke="#000000" points="509.5,-89.5 509.5,-141.5 692.5,-141.5 692.5,-89.5 509.5,-89.5"/>
<text text-anchor="start" x="517.5" y="-129.5" font-family="Helvetica,sans-Serif" font-size="10.00" fill="#000000">/home/travis/build</text>
<text text-anchor="start" x="517.5" y="-118.5" font-family="Helvetica,sans-Serif" font-size="10.00" fill="#000000">/AliceO2Group/AliceO2</text>
<text text-anchor="start" x="517.5" y="-107.5" font-family="Helvetica,sans-Serif" font-size="10.00" fill="#000000">/Detectors/TRD/simulation</text>
<text text-anchor="middle" x="601" y="-96.5" font-family="Helvetica,sans-Serif" font-size="10.00" fill="#000000">/include/TRDSimulation/Digitizer.h</text>
</a>
</g>
</g>
<!-- Node45&#45;&gt;Node47 -->
<g id="edge4" class="edge">
<title>Node45&#45;&gt;Node47</title>
<path fill="none" stroke="#191970" d="M534.8435,-171.5755C546.5353,-161.6653 559.1983,-150.9319 570.2856,-141.5341"/>
<polygon fill="#191970" stroke="#191970" points="532.3008,-169.1425 526.9356,-178.2784 536.827,-174.4824 532.3008,-169.1425"/>
</g>
<!-- Node49 -->
<g id="node7" class="node">
<title>Node49</title>
<g id="a_node7"><a xlink:href="../../d6/df2/TRDDigitizerSpec_8cxx.html" target="_top" xlink:title="/home/travis/build\l/AliceO2Group/AliceO2\l/Detectors/TRD/workflow\l/src/TRDDigitizerSpec.cxx">
<polygon fill="none" stroke="#000000" points="410,-.5 410,-52.5 552,-52.5 552,-.5 410,-.5"/>
<text text-anchor="start" x="418" y="-40.5" font-family="Helvetica,sans-Serif" font-size="10.00" fill="#000000">/home/travis/build</text>
<text text-anchor="start" x="418" y="-29.5" font-family="Helvetica,sans-Serif" font-size="10.00" fill="#000000">/AliceO2Group/AliceO2</text>
<text text-anchor="start" x="418" y="-18.5" font-family="Helvetica,sans-Serif" font-size="10.00" fill="#000000">/Detectors/TRD/workflow</text>
<text text-anchor="middle" x="481" y="-7.5" font-family="Helvetica,sans-Serif" font-size="10.00" fill="#000000">/src/TRDDigitizerSpec.cxx</text>
</a>
</g>
</g>
<!-- Node45&#45;&gt;Node49 -->
<g id="edge7" class="edge">
<title>Node45&#45;&gt;Node49</title>
<path fill="none" stroke="#191970" d="M492.9358,-168.1378C490.0405,-133.7809 485.7687,-83.0886 483.1979,-52.5823"/>
<polygon fill="#191970" stroke="#191970" points="489.4592,-168.5647 493.7867,-178.2355 496.4345,-167.9769 489.4592,-168.5647"/>
</g>
<!-- Node48 -->
<g id="node6" class="node">
<title>Node48</title>
<g id="a_node6"><a xlink:href="../../d7/d40/TRD_2simulation_2src_2Digitizer_8cxx.html" target="_top" xlink:title="/home/travis/build\l/AliceO2Group/AliceO2\l/Detectors/TRD/simulation\l/src/Digitizer.cxx">
<polygon fill="none" stroke="#000000" points="570.5,-.5 570.5,-52.5 715.5,-52.5 715.5,-.5 570.5,-.5"/>
<text text-anchor="start" x="578.5" y="-40.5" font-family="Helvetica,sans-Serif" font-size="10.00" fill="#000000">/home/travis/build</text>
<text text-anchor="start" x="578.5" y="-29.5" font-family="Helvetica,sans-Serif" font-size="10.00" fill="#000000">/AliceO2Group/AliceO2</text>
<text text-anchor="start" x="578.5" y="-18.5" font-family="Helvetica,sans-Serif" font-size="10.00" fill="#000000">/Detectors/TRD/simulation</text>
<text text-anchor="middle" x="643" y="-7.5" font-family="Helvetica,sans-Serif" font-size="10.00" fill="#000000">/src/Digitizer.cxx</text>
</a>
</g>
</g>
<!-- Node47&#45;&gt;Node48 -->
<g id="edge5" class="edge">
<title>Node47&#45;&gt;Node48</title>
<path fill="none" stroke="#191970" d="M617.7596,-79.9856C622.0861,-70.8176 626.6631,-61.1186 630.7142,-52.5341"/>
<polygon fill="#191970" stroke="#191970" points="614.4768,-78.7411 613.3742,-89.2784 620.8073,-81.7286 614.4768,-78.7411"/>
</g>
<!-- Node47&#45;&gt;Node49 -->
<g id="edge6" class="edge">
<title>Node47&#45;&gt;Node49</title>
<path fill="none" stroke="#191970" d="M557.3771,-83.1463C543.8026,-73.0786 529.017,-62.1126 516.1022,-52.5341"/>
<polygon fill="#191970" stroke="#191970" points="555.5281,-86.1325 565.6451,-89.2784 559.698,-80.5101 555.5281,-86.1325"/>
</g>
<!-- Node51&#45;&gt;Node45 -->
<g id="edge11" class="edge">
<title>Node51&#45;&gt;Node45</title>
<path fill="none" stroke="#191970" d="M249.6593,-266.5791C311.2811,-249.4778 371.8324,-234.2912 418.3698,-222.9645"/>
<polygon fill="#191970" stroke="#191970" points="248.454,-263.2816 239.7622,-269.3399 250.3349,-270.0242 248.454,-263.2816"/>
</g>
<!-- Node51&#45;&gt;Node46 -->
<g id="edge12" class="edge">
<title>Node51&#45;&gt;Node46</title>
<path fill="none" stroke="#191970" d="M158.7713,-257.1597C158.5501,-232.1289 162.4979,-199.6122 181,-178 197.316,-158.9413 255.7482,-141.4851 303.5529,-129.8946"/>
<polygon fill="#191970" stroke="#191970" points="155.2798,-257.4897 159.0911,-267.3753 162.2764,-257.2706 155.2798,-257.4897"/>
</g>
<!-- Node52 -->
<g id="node10" class="node">
<title>Node52</title>
<g id="a_node10"><a xlink:href="../../d6/dc2/LocalT0_8cxx.html" target="_top" xlink:title="/home/travis/build\l/AliceO2Group/AliceO2\l/Detectors/TRD/base/src\l/LocalT0.cxx">
<polygon fill="none" stroke="#000000" points="0,-178.5 0,-230.5 134,-230.5 134,-178.5 0,-178.5"/>
<text text-anchor="start" x="8" y="-218.5" font-family="Helvetica,sans-Serif" font-size="10.00" fill="#000000">/home/travis/build</text>
<text text-anchor="start" x="8" y="-207.5" font-family="Helvetica,sans-Serif" font-size="10.00" fill="#000000">/AliceO2Group/AliceO2</text>
<text text-anchor="start" x="8" y="-196.5" font-family="Helvetica,sans-Serif" font-size="10.00" fill="#000000">/Detectors/TRD/base/src</text>
<text text-anchor="middle" x="67" y="-185.5" font-family="Helvetica,sans-Serif" font-size="10.00" fill="#000000">/LocalT0.cxx</text>
</a>
</g>
</g>
<!-- Node51&#45;&gt;Node52 -->
<g id="edge13" class="edge">
<title>Node51&#45;&gt;Node52</title>
<path fill="none" stroke="#191970" d="M126.5505,-260.2894C116.0573,-250.459 104.7241,-239.8415 94.7893,-230.5341"/>
<polygon fill="#191970" stroke="#191970" points="124.32,-262.9958 134.0107,-267.2784 129.1058,-257.8873 124.32,-262.9958"/>
</g>
<!-- Node53&#45;&gt;Node45 -->
<g id="edge15" class="edge">
<title>Node53&#45;&gt;Node45</title>
<path fill="none" stroke="#191970" d="M503.0942,-257.1155C501.893,-248.2061 500.6311,-238.8475 499.5102,-230.5341"/>
<polygon fill="#191970" stroke="#191970" points="499.6596,-257.8358 504.4645,-267.2784 506.5968,-256.9004 499.6596,-257.8358"/>
</g>
<!-- Node53&#45;&gt;Node46 -->
<g id="edge16" class="edge">
<title>Node53&#45;&gt;Node46</title>
<path fill="none" stroke="#191970" d="M443.6097,-261.9922C430.7803,-253.3737 418.3872,-243.0266 409,-231 388.4781,-204.708 378.8129,-166.8739 374.4205,-141.7601"/>
<polygon fill="#191970" stroke="#191970" points="441.7659,-264.9676 452.0763,-267.4065 445.5372,-259.0703 441.7659,-264.9676"/>
</g>
<!-- Node54 -->
<g id="node12" class="node">
<title>Node54</title>
<g id="a_node12"><a xlink:href="../../dc/da9/LocalVDrift_8cxx.html" target="_top" xlink:title="/home/travis/build\l/AliceO2Group/AliceO2\l/Detectors/TRD/base/src\l/LocalVDrift.cxx">
<polygon fill="none" stroke="#000000" points="592,-178.5 592,-230.5 726,-230.5 726,-178.5 592,-178.5"/>
<text text-anchor="start" x="600" y="-218.5" font-family="Helvetica,sans-Serif" font-size="10.00" fill="#000000">/home/travis/build</text>
<text text-anchor="start" x="600" y="-207.5" font-family="Helvetica,sans-Serif" font-size="10.00" fill="#000000">/AliceO2Group/AliceO2</text>
<text text-anchor="start" x="600" y="-196.5" font-family="Helvetica,sans-Serif" font-size="10.00" fill="#000000">/Detectors/TRD/base/src</text>
<text text-anchor="middle" x="659" y="-185.5" font-family="Helvetica,sans-Serif" font-size="10.00" fill="#000000">/LocalVDrift.cxx</text>
</a>
</g>
</g>
<!-- Node53&#45;&gt;Node54 -->
<g id="edge17" class="edge">
<title>Node53&#45;&gt;Node54</title>
<path fill="none" stroke="#191970" d="M561.4456,-261.9989C578.9184,-251.7004 598.1187,-240.3837 614.8297,-230.5341"/>
<polygon fill="#191970" stroke="#191970" points="559.326,-259.1855 552.4883,-267.2784 562.8804,-265.2159 559.326,-259.1855"/>
</g>
<!-- Node55&#45;&gt;Node45 -->
<g id="edge19" class="edge">
<title>Node55&#45;&gt;Node45</title>
<path fill="none" stroke="#191970" d="M617.2829,-262.8469C595.4104,-252.3245 571.1532,-240.6548 550.1159,-230.5341"/>
<polygon fill="#191970" stroke="#191970" points="615.9657,-266.0972 626.4945,-267.2784 619.0004,-259.7891 615.9657,-266.0972"/>
</g>
<!-- Node56 -->
<g id="node14" class="node">
<title>Node56</title>
<g id="a_node14"><a xlink:href="../../d6/db7/PadStatus_8cxx.html" target="_top" xlink:title="/home/travis/build\l/AliceO2Group/AliceO2\l/Detectors/TRD/base/src\l/PadStatus.cxx">
<polygon fill="none" stroke="#000000" points="744,-178.5 744,-230.5 878,-230.5 878,-178.5 744,-178.5"/>
<text text-anchor="start" x="752" y="-218.5" font-family="Helvetica,sans-Serif" font-size="10.00" fill="#000000">/home/travis/build</text>
<text text-anchor="start" x="752" y="-207.5" font-family="Helvetica,sans-Serif" font-size="10.00" fill="#000000">/AliceO2Group/AliceO2</text>
<text text-anchor="start" x="752" y="-196.5" font-family="Helvetica,sans-Serif" font-size="10.00" fill="#000000">/Detectors/TRD/base/src</text>
<text text-anchor="middle" x="811" y="-185.5" font-family="Helvetica,sans-Serif" font-size="10.00" fill="#000000">/PadStatus.cxx</text>
</a>
</g>
</g>
<!-- Node55&#45;&gt;Node56 -->
<g id="edge20" class="edge">
<title>Node55&#45;&gt;Node56</title>
<path fill="none" stroke="#191970" d="M727.8423,-261.431C742.6615,-251.2856 758.8496,-240.203 772.9726,-230.5341"/>
<polygon fill="#191970" stroke="#191970" points="725.5755,-258.7412 719.3012,-267.2784 729.5299,-264.5173 725.5755,-258.7412"/>
</g>
</g>
</svg>
