<?xml version="1.0" encoding="UTF-8" standalone="no"?>
<!DOCTYPE svg PUBLIC "-//W3C//DTD SVG 1.1//EN"
 "http://www.w3.org/Graphics/SVG/1.1/DTD/svg11.dtd">
<!-- Generated by graphviz version 2.40.1 (20161225.0304)
 -->
<!-- Title: /home/travis/build/AliceO2Group/AliceO2/GPU/GPUTracking/Merger/GPUTPCGMPropagator.cxx Pages: 1 -->
<!--zoomable 464 -->
<svg id="main" version="1.1" xmlns="http://www.w3.org/2000/svg" xmlns:xlink="http://www.w3.org/1999/xlink" xml:space="preserve" onload="init(evt)">
<style type="text/css"><![CDATA[
.edge:hover path { stroke: red; }
.edge:hover polygon { stroke: red; fill: red; }
]]></style>
<script type="text/javascript"><![CDATA[
var edges = document.getElementsByTagName('g');
if (edges && edges.length) {
  for (var i=0;i<edges.length;i++) {
    if (edges[i].id.substr(0,4)=='edge') {
      edges[i].setAttribute('class','edge');
    }
  }
}
]]></script>
        <defs>
                <circle id="rim" cx="0" cy="0" r="7"/>
                <circle id="rim2" cx="0" cy="0" r="3.5"/>
                <g id="zoomPlus">
                        <use xlink:href="#rim" fill="#404040">
                                <set attributeName="fill" to="#808080" begin="zoomplus.mouseover" end="zoomplus.mouseout"/>
                        </use>
                        <path d="M-4,0h8M0,-4v8" fill="none" stroke="white" stroke-width="1.5" pointer-events="none"/>
                </g>
                <g id="zoomMin">
                        <use xlink:href="#rim" fill="#404040">
                                <set attributeName="fill" to="#808080" begin="zoomminus.mouseover" end="zoomminus.mouseout"/>
                        </use>
                        <path d="M-4,0h8" fill="none" stroke="white" stroke-width="1.5" pointer-events="none"/>
                </g>
                <g id="dirArrow">
                        <path fill="none" stroke="white" stroke-width="1.5" d="M0,-3.0v7 M-2.5,-0.5L0,-3.0L2.5,-0.5"/>
                </g>
               <g id="resetDef">
                       <use xlink:href="#rim2" fill="#404040">
                               <set attributeName="fill" to="#808080" begin="reset.mouseover" end="reset.mouseout"/>
                       </use>
               </g>
        </defs>

<script type="text/javascript">
var viewWidth = 1249;
var viewHeight = 464;
var sectionId = 'dynsection-0';
</script>
<script xlink:href="../../svgpan.js"/>
<svg id="graph" class="graph">
<g id="viewport">
<title>/home/travis/build/AliceO2Group/AliceO2/GPU/GPUTracking/Merger/GPUTPCGMPropagator.cxx</title>
<!-- Node0 -->
<g id="node1" class="node">
<title>Node0</title>
<polygon fill="#bfbfbf" stroke="#000000" points="809,-403.5 809,-455.5 957,-455.5 957,-403.5 809,-403.5"/>
<text text-anchor="start" x="817" y="-443.5" font-family="Helvetica,sans-Serif" font-size="10.00" fill="#000000">/home/travis/build</text>
<text text-anchor="start" x="817" y="-432.5" font-family="Helvetica,sans-Serif" font-size="10.00" fill="#000000">/AliceO2Group/AliceO2</text>
<text text-anchor="start" x="817" y="-421.5" font-family="Helvetica,sans-Serif" font-size="10.00" fill="#000000">/GPU/GPUTracking/Merger</text>
<text text-anchor="middle" x="883" y="-410.5" font-family="Helvetica,sans-Serif" font-size="10.00" fill="#000000">/GPUTPCGMPropagator.cxx</text>
</g>
<!-- Node1 -->
<g id="node2" class="node">
<title>Node1</title>
<g id="a_node2"><a xlink:href="../../d0/dd8/GPUTPCGMPropagator_8h.html" target="_top" xlink:title="GPUTPCGMPropagator.h">
<polygon fill="none" stroke="#000000" points="721,-347.5 721,-366.5 855,-366.5 855,-347.5 721,-347.5"/>
<text text-anchor="middle" x="788" y="-354.5" font-family="Helvetica,sans-Serif" font-size="10.00" fill="#000000">GPUTPCGMPropagator.h</text>
</a>
</g>
</g>
<!-- Node0&#45;&gt;Node1 -->
<g id="edge1" class="edge">
<title>Node0&#45;&gt;Node1</title>
<path fill="none" stroke="#191970" d="M848.7028,-403.3258C835.3196,-393.1123 820.4174,-381.7396 808.7276,-372.8184"/>
<polygon fill="#191970" stroke="#191970" points="810.5657,-369.8184 800.4928,-366.534 806.319,-375.3831 810.5657,-369.8184"/>
</g>
<!-- Node6 -->
<g id="node7" class="node">
<title>Node6</title>
<g id="a_node7"><a xlink:href="../../d6/d37/GPUTPCGMPhysicalTrackModel_8h.html" target="_top" xlink:title="GPUTPCGMPhysicalTrackModel.h">
<polygon fill="none" stroke="#000000" points="911,-286 911,-305 1087,-305 1087,-286 911,-286"/>
<text text-anchor="middle" x="999" y="-293" font-family="Helvetica,sans-Serif" font-size="10.00" fill="#000000">GPUTPCGMPhysicalTrackModel.h</text>
</a>
</g>
</g>
<!-- Node0&#45;&gt;Node6 -->
<g id="edge27" class="edge">
<title>Node0&#45;&gt;Node6</title>
<path fill="none" stroke="#191970" d="M905.6413,-403.3453C928.7779,-376.6186 964.0533,-335.8694 983.9607,-312.873"/>
<polygon fill="#191970" stroke="#191970" points="986.6499,-315.114 990.5488,-305.2626 981.3575,-310.5325 986.6499,-315.114"/>
</g>
<!-- Node15 -->
<g id="node16" class="node">
<title>Node15</title>
<g id="a_node16"><a xlink:href="../../d3/dcc/GPUTPCGMMergedTrackHit_8h.html" target="_top" xlink:title="GPUTPCGMMergedTrackHit.h">
<polygon fill="none" stroke="#000000" points="800.5,-168.5 800.5,-187.5 957.5,-187.5 957.5,-168.5 800.5,-168.5"/>
<text text-anchor="middle" x="879" y="-175.5" font-family="Helvetica,sans-Serif" font-size="10.00" fill="#000000">GPUTPCGMMergedTrackHit.h</text>
</a>
</g>
</g>
<!-- Node0&#45;&gt;Node15 -->
<g id="edge37" class="edge">
<title>Node0&#45;&gt;Node15</title>
<path fill="none" stroke="#191970" d="M882.5795,-403.0604C881.775,-352.4769 880.0343,-243.0318 879.3179,-197.9877"/>
<polygon fill="#191970" stroke="#191970" points="882.8141,-197.7129 879.1554,-187.7699 875.815,-197.8243 882.8141,-197.7129"/>
</g>
<!-- Node17 -->
<g id="node18" class="node">
<title>Node17</title>
<polygon fill="none" stroke="#bfbfbf" points="290.5,-112.5 290.5,-131.5 337.5,-131.5 337.5,-112.5 290.5,-112.5"/>
<text text-anchor="middle" x="314" y="-119.5" font-family="Helvetica,sans-Serif" font-size="10.00" fill="#000000">cmath</text>
</g>
<!-- Node0&#45;&gt;Node17 -->
<g id="edge46" class="edge">
<title>Node0&#45;&gt;Node17</title>
<path fill="none" stroke="#191970" d="M808.7468,-427.0791C657.1003,-420.11 326,-393.655 326,-295.5 326,-295.5 326,-295.5 326,-234 326,-201.3778 320.9046,-163.7135 317.3544,-141.4301"/>
<polygon fill="#191970" stroke="#191970" points="320.8053,-140.8456 315.7193,-131.5514 313.8993,-141.9887 320.8053,-140.8456"/>
</g>
<!-- Node22 -->
<g id="node23" class="node">
<title>Node22</title>
<g id="a_node23"><a xlink:href="../../df/d13/GPUParam_8h.html" target="_top" xlink:title="GPUParam.h">
<polygon fill="none" stroke="#000000" points="491.5,-286 491.5,-305 568.5,-305 568.5,-286 491.5,-286"/>
<text text-anchor="middle" x="530" y="-293" font-family="Helvetica,sans-Serif" font-size="10.00" fill="#000000">GPUParam.h</text>
</a>
</g>
</g>
<!-- Node0&#45;&gt;Node22 -->
<g id="edge28" class="edge">
<title>Node0&#45;&gt;Node22</title>
<path fill="none" stroke="#191970" d="M810.4698,-403.4244C779.9981,-392.357 744.2156,-379.2134 712,-367 659.9172,-347.2546 599.8352,-323.4493 563.4018,-308.899"/>
<polygon fill="#191970" stroke="#191970" points="564.3638,-305.5143 553.7791,-305.0515 561.765,-312.014 564.3638,-305.5143"/>
</g>
<!-- Node25 -->
<g id="node26" class="node">
<title>Node25</title>
<g id="a_node26"><a xlink:href="../../d5/d5c/GPUO2DataTypes_8h.html" target="_top" xlink:title="GPUO2DataTypes.h">
<polygon fill="none" stroke="#000000" points="1066.5,-224.5 1066.5,-243.5 1177.5,-243.5 1177.5,-224.5 1066.5,-224.5"/>
<text text-anchor="middle" x="1122" y="-231.5" font-family="Helvetica,sans-Serif" font-size="10.00" fill="#000000">GPUO2DataTypes.h</text>
</a>
</g>
</g>
<!-- Node0&#45;&gt;Node25 -->
<g id="edge38" class="edge">
<title>Node0&#45;&gt;Node25</title>
<path fill="none" stroke="#191970" d="M957.0388,-404.2089C1002.8449,-385.1132 1059.647,-354.6561 1096,-311 1109.6447,-294.6141 1116.2404,-270.7406 1119.3545,-253.9301"/>
<polygon fill="#191970" stroke="#191970" points="1122.8833,-254.0251 1120.998,-243.5994 1115.9703,-252.9253 1122.8833,-254.0251"/>
</g>
<!-- Node28 -->
<g id="node29" class="node">
<title>Node28</title>
<polygon fill="none" stroke="#bfbfbf" points="1143,-347.5 1143,-366.5 1229,-366.5 1229,-347.5 1143,-347.5"/>
<text text-anchor="middle" x="1186" y="-354.5" font-family="Helvetica,sans-Serif" font-size="10.00" fill="#000000">GPUParam.inc</text>
</g>
<!-- Node0&#45;&gt;Node28 -->
<g id="edge45" class="edge">
<title>Node0&#45;&gt;Node28</title>
<path fill="none" stroke="#191970" d="M957.1221,-411.7645C1012.7347,-398.4579 1087.3622,-380.6015 1136.0525,-368.9511"/>
<polygon fill="#191970" stroke="#191970" points="1137.1216,-372.2942 1146.0326,-366.5632 1135.4926,-365.4864 1137.1216,-372.2942"/>
</g>
<!-- Node2 -->
<g id="node3" class="node">
<title>Node2</title>
<g id="a_node3"><a xlink:href="../../df/d21/GPUCommonDef_8h.html" target="_top" xlink:title="GPUCommonDef.h">
<polygon fill="none" stroke="#000000" points="703.5,-56.5 703.5,-75.5 810.5,-75.5 810.5,-56.5 703.5,-56.5"/>
<text text-anchor="middle" x="757" y="-63.5" font-family="Helvetica,sans-Serif" font-size="10.00" fill="#000000">GPUCommonDef.h</text>
</a>
</g>
</g>
<!-- Node1&#45;&gt;Node2 -->
<g id="edge2" class="edge">
<title>Node1&#45;&gt;Node2</title>
<path fill="none" stroke="#191970" d="M796.7861,-347.2709C804.0686,-338.5036 813.8705,-324.8915 818,-311 821.9259,-297.7934 819.2157,-293.724 818,-280 815.7691,-254.816 815.6872,-248.0856 808,-224 802.62,-207.1435 797.175,-204.5818 791,-188 777.8246,-152.62 767.0279,-109.817 761.3461,-85.4645"/>
<polygon fill="#191970" stroke="#191970" points="764.7468,-84.6347 759.1053,-75.6667 757.923,-86.1954 764.7468,-84.6347"/>
</g>
<!-- Node5 -->
<g id="node6" class="node">
<title>Node5</title>
<g id="a_node6"><a xlink:href="../../d0/d79/GPUTPCGMOfflineStatisticalErrors_8h.html" target="_top" xlink:title="GPUTPCGMOfflineStatistical\lErrors.h">
<polygon fill="none" stroke="#000000" points="625.5,-280.5 625.5,-310.5 778.5,-310.5 778.5,-280.5 625.5,-280.5"/>
<text text-anchor="start" x="633.5" y="-298.5" font-family="Helvetica,sans-Serif" font-size="10.00" fill="#000000">GPUTPCGMOfflineStatistical</text>
<text text-anchor="middle" x="702" y="-287.5" font-family="Helvetica,sans-Serif" font-size="10.00" fill="#000000">Errors.h</text>
</a>
</g>
</g>
<!-- Node1&#45;&gt;Node5 -->
<g id="edge5" class="edge">
<title>Node1&#45;&gt;Node5</title>
<path fill="none" stroke="#191970" d="M774.5625,-347.3906C763.0312,-339.1444 746.0024,-326.9669 731.3389,-316.4807"/>
<polygon fill="#191970" stroke="#191970" points="733.208,-313.5145 723.038,-310.5446 729.1362,-319.2084 733.208,-313.5145"/>
</g>
<!-- Node1&#45;&gt;Node6 -->
<g id="edge6" class="edge">
<title>Node1&#45;&gt;Node6</title>
<path fill="none" stroke="#191970" d="M820.9688,-347.3906C857.5117,-336.7395 916.5571,-319.5296 956.535,-307.8772"/>
<polygon fill="#191970" stroke="#191970" points="957.6417,-311.2004 966.2628,-305.0419 955.6828,-304.48 957.6417,-311.2004"/>
</g>
<!-- Node16 -->
<g id="node17" class="node">
<title>Node16</title>
<g id="a_node17"><a xlink:href="../../d6/da2/GPUCommonMath_8h.html" target="_top" xlink:title="GPUCommonMath.h">
<polygon fill="none" stroke="#000000" points="411.5,-168.5 411.5,-187.5 526.5,-187.5 526.5,-168.5 411.5,-168.5"/>
<text text-anchor="middle" x="469" y="-175.5" font-family="Helvetica,sans-Serif" font-size="10.00" fill="#000000">GPUCommonMath.h</text>
</a>
</g>
</g>
<!-- Node1&#45;&gt;Node16 -->
<g id="edge26" class="edge">
<title>Node1&#45;&gt;Node16</title>
<path fill="none" stroke="#191970" d="M791.8173,-347.1739C800.5285,-322.921 818.8393,-259.6053 788,-224 771.7738,-205.2661 625.2153,-190.4302 536.4965,-183.0698"/>
<polygon fill="#191970" stroke="#191970" points="536.7596,-179.5797 526.5075,-182.2523 536.1886,-186.5564 536.7596,-179.5797"/>
</g>
<!-- Node21 -->
<g id="node22" class="node">
<title>Node21</title>
<g id="a_node22"><a xlink:href="../../d9/d9c/GPUTPCGMPolynomialField_8h.html" target="_top" xlink:title="GPUTPCGMPolynomialField.h">
<polygon fill="none" stroke="#000000" points="621,-224.5 621,-243.5 779,-243.5 779,-224.5 621,-224.5"/>
<text text-anchor="middle" x="700" y="-231.5" font-family="Helvetica,sans-Serif" font-size="10.00" fill="#000000">GPUTPCGMPolynomialField.h</text>
</a>
</g>
</g>
<!-- Node1&#45;&gt;Node21 -->
<g id="edge24" class="edge">
<title>Node1&#45;&gt;Node21</title>
<path fill="none" stroke="#191970" d="M720.7964,-347.5545C678.3097,-340.0504 629.0349,-327.9791 616,-311 607.61,-300.0713 608.9768,-291.8534 616,-280 624.8436,-265.0742 640.4332,-254.6736 655.8002,-247.589"/>
<polygon fill="#191970" stroke="#191970" points="657.4211,-250.7041 665.2773,-243.5956 654.7029,-244.2534 657.4211,-250.7041"/>
</g>
<!-- Node3 -->
<g id="node4" class="node">
<title>Node3</title>
<g id="a_node4"><a xlink:href="../../d5/d93/GPUCommonDefSettings_8h.html" target="_top" xlink:title="GPUCommonDefSettings.h">
<polygon fill="none" stroke="#000000" points="760,-.5 760,-19.5 908,-19.5 908,-.5 760,-.5"/>
<text text-anchor="middle" x="834" y="-7.5" font-family="Helvetica,sans-Serif" font-size="10.00" fill="#000000">GPUCommonDefSettings.h</text>
</a>
</g>
</g>
<!-- Node2&#45;&gt;Node3 -->
<g id="edge3" class="edge">
<title>Node2&#45;&gt;Node3</title>
<path fill="none" stroke="#191970" d="M770.4124,-56.2455C782.0057,-47.814 798.9748,-35.4729 812.4678,-25.6598"/>
<polygon fill="#191970" stroke="#191970" points="814.7126,-28.355 820.7413,-19.6427 810.5953,-22.6938 814.7126,-28.355"/>
</g>
<!-- Node4 -->
<g id="node5" class="node">
<title>Node4</title>
<g id="a_node5"><a xlink:href="../../da/d5a/GPUCommonDefAPI_8h.html" target="_top" xlink:title="GPUCommonDefAPI.h">
<polygon fill="none" stroke="#000000" points="618,-.5 618,-19.5 742,-19.5 742,-.5 618,-.5"/>
<text text-anchor="middle" x="680" y="-7.5" font-family="Helvetica,sans-Serif" font-size="10.00" fill="#000000">GPUCommonDefAPI.h</text>
</a>
</g>
</g>
<!-- Node2&#45;&gt;Node4 -->
<g id="edge4" class="edge">
<title>Node2&#45;&gt;Node4</title>
<path fill="none" stroke="#191970" d="M743.5876,-56.2455C731.9943,-47.814 715.0252,-35.4729 701.5322,-25.6598"/>
<polygon fill="#191970" stroke="#191970" points="703.4047,-22.6938 693.2587,-19.6427 699.2874,-28.355 703.4047,-22.6938"/>
</g>
<!-- Node7 -->
<g id="node8" class="node">
<title>Node7</title>
<g id="a_node8"><a xlink:href="../../d8/d33/GPUTPCGMTrackParam_8h.html" target="_top" xlink:title="GPUTPCGMTrackParam.h">
<polygon fill="none" stroke="#000000" points="911.5,-224.5 911.5,-243.5 1048.5,-243.5 1048.5,-224.5 911.5,-224.5"/>
<text text-anchor="middle" x="980" y="-231.5" font-family="Helvetica,sans-Serif" font-size="10.00" fill="#000000">GPUTPCGMTrackParam.h</text>
</a>
</g>
</g>
<!-- Node6&#45;&gt;Node7 -->
<g id="edge7" class="edge">
<title>Node6&#45;&gt;Node7</title>
<path fill="none" stroke="#191970" d="M996.0313,-285.8906C993.3698,-277.276 989.3829,-264.3708 986.0509,-253.5858"/>
<polygon fill="#191970" stroke="#191970" points="989.3065,-252.2661 983.0106,-243.7449 982.6184,-254.3324 989.3065,-252.2661"/>
</g>
<!-- Node8 -->
<g id="node9" class="node">
<title>Node8</title>
<g id="a_node9"><a xlink:href="../../da/dab/GPUTPCDef_8h.html" target="_top" xlink:title="GPUTPCDef.h">
<polygon fill="none" stroke="#000000" points="659,-168.5 659,-187.5 741,-187.5 741,-168.5 659,-168.5"/>
<text text-anchor="middle" x="700" y="-175.5" font-family="Helvetica,sans-Serif" font-size="10.00" fill="#000000">GPUTPCDef.h</text>
</a>
</g>
</g>
<!-- Node7&#45;&gt;Node8 -->
<g id="edge8" class="edge">
<title>Node7&#45;&gt;Node8</title>
<path fill="none" stroke="#191970" d="M932.1844,-224.4369C881.8119,-214.3624 802.7772,-198.5554 751.1734,-188.2347"/>
<polygon fill="#191970" stroke="#191970" points="751.7273,-184.7762 741.235,-186.247 750.3544,-191.6403 751.7273,-184.7762"/>
</g>
<!-- Node7&#45;&gt;Node15 -->
<g id="edge16" class="edge">
<title>Node7&#45;&gt;Node15</title>
<path fill="none" stroke="#191970" d="M962.4071,-224.2455C946.621,-215.4928 923.2361,-202.527 905.2413,-192.5496"/>
<polygon fill="#191970" stroke="#191970" points="906.8341,-189.4308 896.3913,-187.6427 903.4397,-195.5528 906.8341,-189.4308"/>
</g>
<!-- Node7&#45;&gt;Node16 -->
<g id="edge18" class="edge">
<title>Node7&#45;&gt;Node16</title>
<path fill="none" stroke="#191970" d="M911.3496,-226.4767C813.2921,-215.7306 634.2282,-196.1072 536.6983,-185.419"/>
<polygon fill="#191970" stroke="#191970" points="536.9791,-181.9289 526.6573,-184.3186 536.2164,-188.8872 536.9791,-181.9289"/>
</g>
<!-- Node19 -->
<g id="node20" class="node">
<title>Node19</title>
<g id="a_node20"><a xlink:href="../../d3/d1f/GPUdEdxInfo_8h.html" target="_top" xlink:title="GPUdEdxInfo.h">
<polygon fill="none" stroke="#000000" points="1014.5,-168.5 1014.5,-187.5 1103.5,-187.5 1103.5,-168.5 1014.5,-168.5"/>
<text text-anchor="middle" x="1059" y="-175.5" font-family="Helvetica,sans-Serif" font-size="10.00" fill="#000000">GPUdEdxInfo.h</text>
</a>
</g>
</g>
<!-- Node7&#45;&gt;Node19 -->
<g id="edge22" class="edge">
<title>Node7&#45;&gt;Node19</title>
<path fill="none" stroke="#191970" d="M993.7607,-224.2455C1005.6552,-215.814 1023.065,-203.4729 1036.9085,-193.6598"/>
<polygon fill="#191970" stroke="#191970" points="1039.2628,-196.2811 1045.3969,-187.6427 1035.2146,-190.5704 1039.2628,-196.2811"/>
</g>
<!-- Node20 -->
<g id="node21" class="node">
<title>Node20</title>
<polygon fill="none" stroke="#bfbfbf" points="998.5,-56.5 998.5,-75.5 1051.5,-75.5 1051.5,-56.5 998.5,-56.5"/>
<text text-anchor="middle" x="1025" y="-63.5" font-family="Helvetica,sans-Serif" font-size="10.00" fill="#000000">cstddef</text>
</g>
<!-- Node7&#45;&gt;Node20 -->
<g id="edge23" class="edge">
<title>Node7&#45;&gt;Node20</title>
<path fill="none" stroke="#191970" d="M981.2816,-224.3364C984.199,-203.4771 992.0989,-152.8187 1005,-112 1007.9106,-102.791 1012.053,-92.9276 1015.8137,-84.7052"/>
<polygon fill="#191970" stroke="#191970" points="1018.9879,-86.1799 1020.103,-75.6439 1012.6609,-83.1849 1018.9879,-86.1799"/>
</g>
<!-- Node9 -->
<g id="node10" class="node">
<title>Node9</title>
<g id="a_node10"><a xlink:href="../../d2/d6d/GPUDef_8h.html" target="_top" xlink:title="GPUDef.h">
<polygon fill="none" stroke="#000000" points="355.5,-112.5 355.5,-131.5 418.5,-131.5 418.5,-112.5 355.5,-112.5"/>
<text text-anchor="middle" x="387" y="-119.5" font-family="Helvetica,sans-Serif" font-size="10.00" fill="#000000">GPUDef.h</text>
</a>
</g>
</g>
<!-- Node8&#45;&gt;Node9 -->
<g id="edge9" class="edge">
<title>Node8&#45;&gt;Node9</title>
<path fill="none" stroke="#191970" d="M658.8169,-171.9763C607.3194,-164.2366 516.2637,-149.87 428.5782,-132.0019"/>
<polygon fill="#191970" stroke="#191970" points="429.2333,-128.5635 418.7333,-129.9778 427.8236,-135.4201 429.2333,-128.5635"/>
</g>
<!-- Node9&#45;&gt;Node2 -->
<g id="edge10" class="edge">
<title>Node9&#45;&gt;Node2</title>
<path fill="none" stroke="#191970" d="M418.7153,-113.9316C421.8434,-113.2361 424.9776,-112.5784 428,-112 519.5422,-94.4825 626.6152,-80.7505 693.1314,-73.0054"/>
<polygon fill="#191970" stroke="#191970" points="693.9175,-76.438 703.4501,-71.8141 693.1146,-69.4842 693.9175,-76.438"/>
</g>
<!-- Node10 -->
<g id="node11" class="node">
<title>Node10</title>
<g id="a_node11"><a xlink:href="../../d2/d37/GPUDefConstantsAndSettings_8h.html" target="_top" xlink:title="GPUDefConstantsAndSettings.h">
<polygon fill="none" stroke="#000000" points="483.5,-56.5 483.5,-75.5 654.5,-75.5 654.5,-56.5 483.5,-56.5"/>
<text text-anchor="middle" x="569" y="-63.5" font-family="Helvetica,sans-Serif" font-size="10.00" fill="#000000">GPUDefConstantsAndSettings.h</text>
</a>
</g>
</g>
<!-- Node9&#45;&gt;Node10 -->
<g id="edge11" class="edge">
<title>Node9&#45;&gt;Node10</title>
<path fill="none" stroke="#191970" d="M418.2869,-112.3733C448.6818,-103.021 494.9893,-88.7725 528.25,-78.5385"/>
<polygon fill="#191970" stroke="#191970" points="529.5929,-81.7873 538.1214,-75.5011 527.5342,-75.0968 529.5929,-81.7873"/>
</g>
<!-- Node11 -->
<g id="node12" class="node">
<title>Node11</title>
<g id="a_node12"><a xlink:href="../../dc/de9/GPUDefGPUParameters_8h.html" target="_top" xlink:title="GPUDefGPUParameters.h">
<polygon fill="none" stroke="#000000" points="0,-56.5 0,-75.5 140,-75.5 140,-56.5 0,-56.5"/>
<text text-anchor="middle" x="70" y="-63.5" font-family="Helvetica,sans-Serif" font-size="10.00" fill="#000000">GPUDefGPUParameters.h</text>
</a>
</g>
</g>
<!-- Node9&#45;&gt;Node11 -->
<g id="edge12" class="edge">
<title>Node9&#45;&gt;Node11</title>
<path fill="none" stroke="#191970" d="M355.2682,-114.0146C352.1435,-113.3023 349.0145,-112.618 346,-112 278.5765,-98.1788 201.2444,-85.5663 145.6232,-77.058"/>
<polygon fill="#191970" stroke="#191970" points="145.9101,-73.5615 135.4975,-75.5178 144.8574,-80.4819 145.9101,-73.5615"/>
</g>
<!-- Node12 -->
<g id="node13" class="node">
<title>Node12</title>
<g id="a_node13"><a xlink:href="../../d3/d4c/GPUDefOpenCL12Templates_8h.html" target="_top" xlink:title="GPUDefOpenCL12Templates.h">
<polygon fill="none" stroke="#000000" points="158,-56.5 158,-75.5 322,-75.5 322,-56.5 158,-56.5"/>
<text text-anchor="middle" x="240" y="-63.5" font-family="Helvetica,sans-Serif" font-size="10.00" fill="#000000">GPUDefOpenCL12Templates.h</text>
</a>
</g>
</g>
<!-- Node9&#45;&gt;Node12 -->
<g id="edge13" class="edge">
<title>Node9&#45;&gt;Node12</title>
<path fill="none" stroke="#191970" d="M361.7298,-112.3733C337.6034,-103.1822 301.0638,-89.2624 274.3123,-79.0713"/>
<polygon fill="#191970" stroke="#191970" points="275.5313,-75.7904 264.9404,-75.5011 273.0393,-82.3318 275.5313,-75.7904"/>
</g>
<!-- Node13 -->
<g id="node14" class="node">
<title>Node13</title>
<g id="a_node14"><a xlink:href="../../d2/d45/GPUCommonRtypes_8h.html" target="_top" xlink:title="GPUCommonRtypes.h">
<polygon fill="none" stroke="#000000" points="340.5,-56.5 340.5,-75.5 465.5,-75.5 465.5,-56.5 340.5,-56.5"/>
<text text-anchor="middle" x="403" y="-63.5" font-family="Helvetica,sans-Serif" font-size="10.00" fill="#000000">GPUCommonRtypes.h</text>
</a>
</g>
</g>
<!-- Node9&#45;&gt;Node13 -->
<g id="edge14" class="edge">
<title>Node9&#45;&gt;Node13</title>
<path fill="none" stroke="#191970" d="M389.787,-112.2455C391.8977,-104.8579 394.866,-94.4689 397.4547,-85.4087"/>
<polygon fill="#191970" stroke="#191970" points="400.863,-86.2195 400.245,-75.6427 394.1323,-84.2964 400.863,-86.2195"/>
</g>
<!-- Node14 -->
<g id="node15" class="node">
<title>Node14</title>
<polygon fill="none" stroke="#bfbfbf" points="373.5,-.5 373.5,-19.5 432.5,-19.5 432.5,-.5 373.5,-.5"/>
<text text-anchor="middle" x="403" y="-7.5" font-family="Helvetica,sans-Serif" font-size="10.00" fill="#000000">Rtypes.h</text>
</g>
<!-- Node13&#45;&gt;Node14 -->
<g id="edge15" class="edge">
<title>Node13&#45;&gt;Node14</title>
<path fill="none" stroke="#191970" d="M403,-56.2455C403,-48.9382 403,-38.6944 403,-29.7046"/>
<polygon fill="#191970" stroke="#191970" points="406.5001,-29.6426 403,-19.6427 399.5001,-29.6427 406.5001,-29.6426"/>
</g>
<!-- Node15&#45;&gt;Node2 -->
<g id="edge17" class="edge">
<title>Node15&#45;&gt;Node2</title>
<path fill="none" stroke="#191970" d="M868.5983,-168.4509C847.8,-149.3574 800.8653,-106.2697 774.9801,-82.5063"/>
<polygon fill="#191970" stroke="#191970" points="777.1088,-79.7093 767.3753,-75.5249 772.3749,-84.8659 777.1088,-79.7093"/>
</g>
<!-- Node16&#45;&gt;Node2 -->
<g id="edge19" class="edge">
<title>Node16&#45;&gt;Node2</title>
<path fill="none" stroke="#191970" d="M478.3573,-168.2775C492.9205,-153.7388 522.5166,-126.4955 553,-112 597.3751,-90.8986 651.8476,-79.2519 693.3383,-72.9608"/>
<polygon fill="#191970" stroke="#191970" points="693.9301,-76.4116 703.3237,-71.5115 692.9246,-69.4842 693.9301,-76.4116"/>
</g>
<!-- Node16&#45;&gt;Node17 -->
<g id="edge20" class="edge">
<title>Node16&#45;&gt;Node17</title>
<path fill="none" stroke="#191970" d="M442.3546,-168.3733C416.0293,-158.8622 375.6879,-144.2872 347.2714,-134.0207"/>
<polygon fill="#191970" stroke="#191970" points="348.3544,-130.6905 337.7601,-130.5843 345.9758,-137.274 348.3544,-130.6905"/>
</g>
<!-- Node18 -->
<g id="node19" class="node">
<title>Node18</title>
<polygon fill="none" stroke="#bfbfbf" points="437,-112.5 437,-131.5 501,-131.5 501,-112.5 437,-112.5"/>
<text text-anchor="middle" x="469" y="-119.5" font-family="Helvetica,sans-Serif" font-size="10.00" fill="#000000">algorithm</text>
</g>
<!-- Node16&#45;&gt;Node18 -->
<g id="edge21" class="edge">
<title>Node16&#45;&gt;Node18</title>
<path fill="none" stroke="#191970" d="M469,-168.2455C469,-160.9382 469,-150.6944 469,-141.7046"/>
<polygon fill="#191970" stroke="#191970" points="472.5001,-141.6426 469,-131.6427 465.5001,-141.6427 472.5001,-141.6426"/>
</g>
<!-- Node21&#45;&gt;Node8 -->
<g id="edge25" class="edge">
<title>Node21&#45;&gt;Node8</title>
<path fill="none" stroke="#191970" d="M700,-224.2455C700,-216.9382 700,-206.6944 700,-197.7046"/>
<polygon fill="#191970" stroke="#191970" points="703.5001,-197.6426 700,-187.6427 696.5001,-197.6427 703.5001,-197.6426"/>
</g>
<!-- Node22&#45;&gt;Node2 -->
<g id="edge29" class="edge">
<title>Node22&#45;&gt;Node2</title>
<path fill="none" stroke="#191970" d="M531.0483,-285.8837C534.866,-255.6074 550.7836,-161.3389 605,-112 619.2121,-99.0665 663.0136,-86.5792 699.9672,-77.8869"/>
<polygon fill="#191970" stroke="#191970" points="701.2171,-81.1909 710.1782,-75.5387 699.6481,-74.369 701.2171,-81.1909"/>
</g>
<!-- Node22&#45;&gt;Node9 -->
<g id="edge31" class="edge">
<title>Node22&#45;&gt;Node9</title>
<path fill="none" stroke="#191970" d="M496.3348,-285.9739C473.5822,-278.0186 444.2839,-264.6065 425,-244 398.208,-215.3703 390.2976,-168.1176 387.9676,-141.6053"/>
<polygon fill="#191970" stroke="#191970" points="391.4591,-141.3597 387.2719,-131.6274 384.476,-141.8467 391.4591,-141.3597"/>
</g>
<!-- Node22&#45;&gt;Node16 -->
<g id="edge30" class="edge">
<title>Node22&#45;&gt;Node16</title>
<path fill="none" stroke="#191970" d="M491.5384,-285.8957C469.9904,-278.3324 444.9207,-265.3861 432,-244 421.9126,-227.3036 435.9784,-207.7692 449.5701,-194.3076"/>
<polygon fill="#191970" stroke="#191970" points="451.9532,-196.871 456.9159,-187.5102 447.199,-191.7331 451.9532,-196.871"/>
</g>
<!-- Node22&#45;&gt;Node21 -->
<g id="edge36" class="edge">
<title>Node22&#45;&gt;Node21</title>
<path fill="none" stroke="#191970" d="M556.5625,-285.8906C585.5056,-275.42 631.9694,-258.6111 664.1356,-246.9745"/>
<polygon fill="#191970" stroke="#191970" points="665.4111,-250.2351 673.624,-243.5419 663.0298,-243.6526 665.4111,-250.2351"/>
</g>
<!-- Node23 -->
<g id="node24" class="node">
<title>Node23</title>
<g id="a_node24"><a xlink:href="../../dd/dc6/GPUSettings_8h.html" target="_top" xlink:title="GPUSettings.h">
<polygon fill="none" stroke="#000000" points="441,-224.5 441,-243.5 527,-243.5 527,-224.5 441,-224.5"/>
<text text-anchor="middle" x="484" y="-231.5" font-family="Helvetica,sans-Serif" font-size="10.00" fill="#000000">GPUSettings.h</text>
</a>
</g>
</g>
<!-- Node22&#45;&gt;Node23 -->
<g id="edge32" class="edge">
<title>Node22&#45;&gt;Node23</title>
<path fill="none" stroke="#191970" d="M522.8125,-285.8906C516.0334,-276.8273 505.7022,-263.0149 497.4027,-251.9188"/>
<polygon fill="#191970" stroke="#191970" points="500.0812,-249.6563 491.2888,-243.7449 494.4757,-253.849 500.0812,-249.6563"/>
</g>
<!-- Node24 -->
<g id="node25" class="node">
<title>Node24</title>
<g id="a_node25"><a xlink:href="../../d6/d1b/GPUTPCGeometry_8h.html" target="_top" xlink:title="GPUTPCGeometry.h">
<polygon fill="none" stroke="#000000" points="614.5,-112.5 614.5,-131.5 727.5,-131.5 727.5,-112.5 614.5,-112.5"/>
<text text-anchor="middle" x="671" y="-119.5" font-family="Helvetica,sans-Serif" font-size="10.00" fill="#000000">GPUTPCGeometry.h</text>
</a>
</g>
</g>
<!-- Node22&#45;&gt;Node24 -->
<g id="edge34" class="edge">
<title>Node22&#45;&gt;Node24</title>
<path fill="none" stroke="#191970" d="M537.7816,-285.9248C560.5504,-257.9079 627.285,-175.7912 656.7441,-139.5418"/>
<polygon fill="#191970" stroke="#191970" points="659.478,-141.7274 663.0686,-131.7595 654.0457,-137.3126 659.478,-141.7274"/>
</g>
<!-- Node23&#45;&gt;Node16 -->
<g id="edge33" class="edge">
<title>Node23&#45;&gt;Node16</title>
<path fill="none" stroke="#191970" d="M481.3872,-224.2455C479.4084,-216.8579 476.6256,-206.4689 474.1988,-197.4087"/>
<polygon fill="#191970" stroke="#191970" points="477.5511,-196.3966 471.5829,-187.6427 470.7895,-198.2078 477.5511,-196.3966"/>
</g>
<!-- Node24&#45;&gt;Node2 -->
<g id="edge35" class="edge">
<title>Node24&#45;&gt;Node2</title>
<path fill="none" stroke="#191970" d="M685.9801,-112.2455C699.1751,-103.6534 718.6051,-91.0014 733.8079,-81.1018"/>
<polygon fill="#191970" stroke="#191970" points="735.7215,-84.0325 742.1916,-75.6427 731.9017,-78.1665 735.7215,-84.0325"/>
</g>
<!-- Node25&#45;&gt;Node19 -->
<g id="edge44" class="edge">
<title>Node25&#45;&gt;Node19</title>
<path fill="none" stroke="#191970" d="M1111.0262,-224.2455C1101.8118,-216.0549 1088.4468,-204.1749 1077.5703,-194.5069"/>
<polygon fill="#191970" stroke="#191970" points="1079.6474,-191.6704 1069.848,-187.6427 1074.9968,-196.9023 1079.6474,-191.6704"/>
</g>
<!-- Node26 -->
<g id="node27" class="node">
<title>Node26</title>
<g id="a_node27"><a xlink:href="../../da/d28/GPUO2FakeClasses_8h.html" target="_top" xlink:title="GPUO2FakeClasses.h">
<polygon fill="none" stroke="#000000" points="1121,-168.5 1121,-187.5 1241,-187.5 1241,-168.5 1121,-168.5"/>
<text text-anchor="middle" x="1181" y="-175.5" font-family="Helvetica,sans-Serif" font-size="10.00" fill="#000000">GPUO2FakeClasses.h</text>
</a>
</g>
</g>
<!-- Node25&#45;&gt;Node26 -->
<g id="edge39" class="edge">
<title>Node25&#45;&gt;Node26</title>
<path fill="none" stroke="#191970" d="M1132.277,-224.2455C1140.8218,-216.1352 1153.1778,-204.4075 1163.3085,-194.7919"/>
<polygon fill="#191970" stroke="#191970" points="1165.9972,-197.0655 1170.8408,-187.6427 1161.1782,-191.9884 1165.9972,-197.0655"/>
</g>
<!-- Node26&#45;&gt;Node2 -->
<g id="edge40" class="edge">
<title>Node26&#45;&gt;Node2</title>
<path fill="none" stroke="#191970" d="M1144.2447,-168.4444C1108.6304,-159.1734 1053.0969,-144.6853 1005,-132 934.266,-113.3443 852.2507,-91.4699 802.5209,-78.1795"/>
<polygon fill="#191970" stroke="#191970" points="803.2814,-74.76 792.7167,-75.5587 801.4736,-81.5225 803.2814,-74.76"/>
</g>
<!-- Node27 -->
<g id="node28" class="node">
<title>Node27</title>
<g id="a_node28"><a xlink:href="../../d4/dc5/GPUDataTypes_8h.html" target="_top" xlink:title="GPUDataTypes.h">
<polygon fill="none" stroke="#000000" points="1014,-112.5 1014,-131.5 1112,-131.5 1112,-112.5 1014,-112.5"/>
<text text-anchor="middle" x="1063" y="-119.5" font-family="Helvetica,sans-Serif" font-size="10.00" fill="#000000">GPUDataTypes.h</text>
</a>
</g>
</g>
<!-- Node26&#45;&gt;Node27 -->
<g id="edge41" class="edge">
<title>Node26&#45;&gt;Node27</title>
<path fill="none" stroke="#191970" d="M1160.7151,-168.3733C1141.8579,-159.4241 1113.554,-145.9917 1092.2545,-135.8835"/>
<polygon fill="#191970" stroke="#191970" points="1093.5551,-132.6266 1083.0202,-131.5011 1090.5539,-138.9506 1093.5551,-132.6266"/>
</g>
<!-- Node27&#45;&gt;Node2 -->
<g id="edge42" class="edge">
<title>Node27&#45;&gt;Node2</title>
<path fill="none" stroke="#191970" d="M1013.8358,-113.0026C960.9235,-103.3193 876.6401,-87.8949 819.1648,-77.3766"/>
<polygon fill="#191970" stroke="#191970" points="819.5813,-73.8947 809.1146,-75.5373 818.3211,-80.7804 819.5813,-73.8947"/>
</g>
<!-- Node27&#45;&gt;Node20 -->
<g id="edge43" class="edge">
<title>Node27&#45;&gt;Node20</title>
<path fill="none" stroke="#191970" d="M1056.3809,-112.2455C1051.0954,-104.4564 1043.5459,-93.3308 1037.1762,-83.9439"/>
<polygon fill="#191970" stroke="#191970" points="1040.0545,-81.9522 1031.5432,-75.6427 1034.2621,-85.8827 1040.0545,-81.9522"/>
</g>
</g>
</svg>
        <g id="navigator" transform="translate(0 0)" fill="#404254">
                <rect fill="#f2f5e9" fill-opacity="0.5" stroke="#606060" stroke-width=".5" x="0" y="0" width="60" height="60"/>
                <use id="zoomplus" xlink:href="#zoomPlus" x="17" y="9" onmousedown="handleZoom(evt,'in')"/>
                <use id="zoomminus" xlink:href="#zoomMin" x="42" y="9" onmousedown="handleZoom(evt,'out')"/>
                <use id="reset" xlink:href="#resetDef" x="30" y="36" onmousedown="handleReset()"/>
                <g id="arrowUp" xlink:href="#dirArrow" transform="translate(30 24)" onmousedown="handlePan(0,-1)">
                  <use xlink:href="#rim" fill="#404040">
                        <set attributeName="fill" to="#808080" begin="arrowUp.mouseover" end="arrowUp.mouseout"/>
                  </use>
                  <path fill="none" stroke="white" stroke-width="1.5" d="M0,-3.0v7 M-2.5,-0.5L0,-3.0L2.5,-0.5"/>
                </g>
                <g id="arrowRight" xlink:href="#dirArrow" transform="rotate(90) translate(36 -43)" onmousedown="handlePan(1,0)">
                  <use xlink:href="#rim" fill="#404040">
                        <set attributeName="fill" to="#808080" begin="arrowRight.mouseover" end="arrowRight.mouseout"/>
                  </use>
                  <path fill="none" stroke="white" stroke-width="1.5" d="M0,-3.0v7 M-2.5,-0.5L0,-3.0L2.5,-0.5"/>
                </g>
                <g id="arrowDown" xlink:href="#dirArrow" transform="rotate(180) translate(-30 -48)" onmousedown="handlePan(0,1)">
                  <use xlink:href="#rim" fill="#404040">
                        <set attributeName="fill" to="#808080" begin="arrowDown.mouseover" end="arrowDown.mouseout"/>
                  </use>
                  <path fill="none" stroke="white" stroke-width="1.5" d="M0,-3.0v7 M-2.5,-0.5L0,-3.0L2.5,-0.5"/>
                </g>
                <g id="arrowLeft" xlink:href="#dirArrow" transform="rotate(270) translate(-36 17)" onmousedown="handlePan(-1,0)">
                  <use xlink:href="#rim" fill="#404040">
                        <set attributeName="fill" to="#808080" begin="arrowLeft.mouseover" end="arrowLeft.mouseout"/>
                  </use>
                  <path fill="none" stroke="white" stroke-width="1.5" d="M0,-3.0v7 M-2.5,-0.5L0,-3.0L2.5,-0.5"/>
                </g>
        </g>
        <svg viewBox="0 0 15 15" width="100%" height="30px" preserveAspectRatio="xMaxYMin meet">
         <g id="arrow_out" transform="scale(0.3 0.3)">
          <a xlink:href="GPUTPCGMPropagator_8cxx__incl_org.svg" target="_base">
           <rect id="button" ry="5" rx="5" y="6" x="6" height="38" width="38"
                fill="#f2f5e9" fill-opacity="0.5" stroke="#606060" stroke-width="1.0"/>
           <path id="arrow"
             d="M 11.500037,31.436501 C 11.940474,20.09759 22.043105,11.32322 32.158766,21.979434 L 37.068811,17.246167 C 37.068811,17.246167 37.088388,32 37.088388,32 L 22.160133,31.978069 C 22.160133,31.978069 26.997745,27.140456 26.997745,27.140456 C 18.528582,18.264221 13.291696,25.230495 11.500037,31.436501 z"
             style="fill:#404040;"/>
          </a>
         </g>
        </svg>
</svg>
