<?xml version="1.0" encoding="UTF-8" standalone="no"?>
<!DOCTYPE svg PUBLIC "-//W3C//DTD SVG 1.1//EN"
 "http://www.w3.org/Graphics/SVG/1.1/DTD/svg11.dtd">
<!-- Generated by graphviz version 2.40.1 (20161225.0304)
 -->
<!-- Title: /home/travis/build/AliceO2Group/AliceO2/Detectors/TOF/compression/src/Compressor.cxx Pages: 1 -->
<svg width="1312pt" height="240pt"
 viewBox="0.00 0.00 1311.50 240.00" xmlns="http://www.w3.org/2000/svg" xmlns:xlink="http://www.w3.org/1999/xlink">
<g id="graph0" class="graph" transform="scale(1 1) rotate(0) translate(4 236)">
<title>/home/travis/build/AliceO2Group/AliceO2/Detectors/TOF/compression/src/Compressor.cxx</title>
<!-- Node0 -->
<g id="node1" class="node">
<title>Node0</title>
<polygon fill="#bfbfbf" stroke="#000000" points="922.5,-179.5 922.5,-231.5 1076.5,-231.5 1076.5,-179.5 922.5,-179.5"/>
<text text-anchor="start" x="930.5" y="-219.5" font-family="Helvetica,sans-Serif" font-size="10.00" fill="#000000">/home/travis/build</text>
<text text-anchor="start" x="930.5" y="-208.5" font-family="Helvetica,sans-Serif" font-size="10.00" fill="#000000">/AliceO2Group/AliceO2</text>
<text text-anchor="start" x="930.5" y="-197.5" font-family="Helvetica,sans-Serif" font-size="10.00" fill="#000000">/Detectors/TOF/compression</text>
<text text-anchor="middle" x="999.5" y="-186.5" font-family="Helvetica,sans-Serif" font-size="10.00" fill="#000000">/src/Compressor.cxx</text>
</g>
<!-- Node1 -->
<g id="node2" class="node">
<title>Node1</title>
<g id="a_node2"><a xlink:href="../../d4/da7/Compressor_8h.html" target="_top" xlink:title="TOF raw data compressor. ">
<polygon fill="none" stroke="#000000" points="184,-123.5 184,-142.5 353,-142.5 353,-123.5 184,-123.5"/>
<text text-anchor="middle" x="268.5" y="-130.5" font-family="Helvetica,sans-Serif" font-size="10.00" fill="#000000">TOFCompression/Compressor.h</text>
</a>
</g>
</g>
<!-- Node0&#45;&gt;Node1 -->
<g id="edge1" class="edge">
<title>Node0&#45;&gt;Node1</title>
<path fill="none" stroke="#191970" d="M922.3073,-197.8441C787.5473,-184.4787 509.8091,-156.9328 363.4801,-142.4201"/>
<polygon fill="#191970" stroke="#191970" points="363.472,-138.9022 353.1753,-141.398 362.781,-145.868 363.472,-138.9022"/>
</g>
<!-- Node8 -->
<g id="node9" class="node">
<title>Node8</title>
<g id="a_node9"><a xlink:href="../../d4/d54/Geo_8h.html" target="_top" xlink:title="TOFBase/Geo.h">
<polygon fill="none" stroke="#000000" points="1138,-62 1138,-81 1229,-81 1229,-62 1138,-62"/>
<text text-anchor="middle" x="1183.5" y="-69" font-family="Helvetica,sans-Serif" font-size="10.00" fill="#000000">TOFBase/Geo.h</text>
</a>
</g>
</g>
<!-- Node0&#45;&gt;Node8 -->
<g id="edge11" class="edge">
<title>Node0&#45;&gt;Node8</title>
<path fill="none" stroke="#191970" d="M999.0534,-179.331C1000.1433,-161.3521 1004.5145,-138.0937 1018.5,-123 1033.5585,-106.7482 1086.1416,-92.1104 1127.9504,-82.6317"/>
<polygon fill="#191970" stroke="#191970" points="1128.7681,-86.0355 1137.7731,-80.4533 1127.2525,-79.2015 1128.7681,-86.0355"/>
</g>
<!-- Node11 -->
<g id="node12" class="node">
<title>Node11</title>
<g id="a_node12"><a xlink:href="../../d1/dec/HBFUtils_8h.html" target="_top" xlink:title="DetectorsRaw/HBFUtils.h">
<polygon fill="none" stroke="#000000" points="832,-123.5 832,-142.5 971,-142.5 971,-123.5 832,-123.5"/>
<text text-anchor="middle" x="901.5" y="-130.5" font-family="Helvetica,sans-Serif" font-size="10.00" fill="#000000">DetectorsRaw/HBFUtils.h</text>
</a>
</g>
</g>
<!-- Node0&#45;&gt;Node11 -->
<g id="edge14" class="edge">
<title>Node0&#45;&gt;Node11</title>
<path fill="none" stroke="#191970" d="M964.1198,-179.3258C950.1785,-169.0122 934.6395,-157.5165 922.5284,-148.5567"/>
<polygon fill="#191970" stroke="#191970" points="924.5082,-145.6677 914.3873,-142.534 920.345,-151.2951 924.5082,-145.6677"/>
</g>
<!-- Node16 -->
<g id="node17" class="node">
<title>Node16</title>
<polygon fill="none" stroke="#bfbfbf" points="1027.5,-123.5 1027.5,-142.5 1077.5,-142.5 1077.5,-123.5 1027.5,-123.5"/>
<text text-anchor="middle" x="1052.5" y="-130.5" font-family="Helvetica,sans-Serif" font-size="10.00" fill="#000000">cstring</text>
</g>
<!-- Node0&#45;&gt;Node16 -->
<g id="edge25" class="edge">
<title>Node0&#45;&gt;Node16</title>
<path fill="none" stroke="#191970" d="M1018.6342,-179.3258C1025.5883,-169.8132 1033.2774,-159.2951 1039.569,-150.6886"/>
<polygon fill="#191970" stroke="#191970" points="1042.4542,-152.6725 1045.5303,-142.534 1036.8032,-148.5414 1042.4542,-152.6725"/>
</g>
<!-- Node17 -->
<g id="node18" class="node">
<title>Node17</title>
<polygon fill="none" stroke="#bfbfbf" points="1095.5,-123.5 1095.5,-142.5 1155.5,-142.5 1155.5,-123.5 1095.5,-123.5"/>
<text text-anchor="middle" x="1125.5" y="-130.5" font-family="Helvetica,sans-Serif" font-size="10.00" fill="#000000">iostream</text>
</g>
<!-- Node0&#45;&gt;Node17 -->
<g id="edge26" class="edge">
<title>Node0&#45;&gt;Node17</title>
<path fill="none" stroke="#191970" d="M1044.9889,-179.3258C1063.6094,-168.6116 1084.4469,-156.6218 1100.2573,-147.5246"/>
<polygon fill="#191970" stroke="#191970" points="1102.0085,-150.555 1108.9306,-142.534 1098.5174,-144.4877 1102.0085,-150.555"/>
</g>
<!-- Node2 -->
<g id="node3" class="node">
<title>Node2</title>
<polygon fill="none" stroke="#bfbfbf" points="0,-62 0,-81 55,-81 55,-62 0,-62"/>
<text text-anchor="middle" x="27.5" y="-69" font-family="Helvetica,sans-Serif" font-size="10.00" fill="#000000">fstream</text>
</g>
<!-- Node1&#45;&gt;Node2 -->
<g id="edge2" class="edge">
<title>Node1&#45;&gt;Node2</title>
<path fill="none" stroke="#191970" d="M214.1218,-123.4264C172.6223,-115.4768 114.3005,-102.911 64.5,-87 62.3439,-86.3111 60.1389,-85.5474 57.9322,-84.7388"/>
<polygon fill="#191970" stroke="#191970" points="58.9805,-81.3905 48.3929,-81.0006 56.4265,-87.908 58.9805,-81.3905"/>
</g>
<!-- Node3 -->
<g id="node4" class="node">
<title>Node3</title>
<polygon fill="none" stroke="#bfbfbf" points="73.5,-62 73.5,-81 117.5,-81 117.5,-62 73.5,-62"/>
<text text-anchor="middle" x="95.5" y="-69" font-family="Helvetica,sans-Serif" font-size="10.00" fill="#000000">string</text>
</g>
<!-- Node1&#45;&gt;Node3 -->
<g id="edge3" class="edge">
<title>Node1&#45;&gt;Node3</title>
<path fill="none" stroke="#191970" d="M237.7718,-123.4842C209.8358,-114.644 167.5893,-100.801 131.5,-87 129.8832,-86.3817 128.2323,-85.7333 126.57,-85.0668"/>
<polygon fill="#191970" stroke="#191970" points="127.6614,-81.7305 117.0833,-81.1361 124.982,-88.1974 127.6614,-81.7305"/>
</g>
<!-- Node4 -->
<g id="node5" class="node">
<title>Node4</title>
<polygon fill="none" stroke="#bfbfbf" points="524.5,-.5 524.5,-19.5 574.5,-19.5 574.5,-.5 524.5,-.5"/>
<text text-anchor="middle" x="549.5" y="-7.5" font-family="Helvetica,sans-Serif" font-size="10.00" fill="#000000">cstdint</text>
</g>
<!-- Node1&#45;&gt;Node4 -->
<g id="edge4" class="edge">
<title>Node1&#45;&gt;Node4</title>
<path fill="none" stroke="#191970" d="M218.7965,-123.476C198.3633,-116.8489 176.6734,-105.6954 164.5,-87 156.982,-75.4541 155.3538,-66.3041 164.5,-56 187.5506,-30.0314 423.5413,-16.0414 514.248,-11.5902"/>
<polygon fill="#191970" stroke="#191970" points="514.4964,-15.0824 524.3168,-11.1062 514.1602,-8.0905 514.4964,-15.0824"/>
</g>
<!-- Node5 -->
<g id="node6" class="node">
<title>Node5</title>
<g id="a_node6"><a xlink:href="../../d4/d78/DataFormats_2Headers_2include_2Headers_2RAWDataHeader_8h.html" target="_top" xlink:title="Headers/RAWDataHeader.h">
<polygon fill="none" stroke="#000000" points="562,-62 562,-81 711,-81 711,-62 562,-62"/>
<text text-anchor="middle" x="636.5" y="-69" font-family="Helvetica,sans-Serif" font-size="10.00" fill="#000000">Headers/RAWDataHeader.h</text>
</a>
</g>
</g>
<!-- Node1&#45;&gt;Node5 -->
<g id="edge5" class="edge">
<title>Node1&#45;&gt;Node5</title>
<path fill="none" stroke="#191970" d="M329.7813,-123.471C387.3432,-114.4264 475.8474,-100.2783 552.5,-87 560.1028,-85.683 568.085,-84.2611 575.9785,-82.8312"/>
<polygon fill="#191970" stroke="#191970" points="576.6842,-86.2604 585.8941,-81.0232 575.4284,-79.3739 576.6842,-86.2604"/>
</g>
<!-- Node6 -->
<g id="node7" class="node">
<title>Node6</title>
<g id="a_node7"><a xlink:href="../../d6/de8/RawDataFormat_8h.html" target="_top" xlink:title="TOF raw data format. ">
<polygon fill="none" stroke="#000000" points="174,-62 174,-81 363,-81 363,-62 174,-62"/>
<text text-anchor="middle" x="268.5" y="-69" font-family="Helvetica,sans-Serif" font-size="10.00" fill="#000000">DataFormatsTOF/RawDataFormat.h</text>
</a>
</g>
</g>
<!-- Node1&#45;&gt;Node6 -->
<g id="edge7" class="edge">
<title>Node1&#45;&gt;Node6</title>
<path fill="none" stroke="#191970" d="M268.5,-123.3906C268.5,-114.8657 268.5,-102.1392 268.5,-91.4235"/>
<polygon fill="#191970" stroke="#191970" points="272.0001,-91.2448 268.5,-81.2449 265.0001,-91.2449 272.0001,-91.2448"/>
</g>
<!-- Node7 -->
<g id="node8" class="node">
<title>Node7</title>
<g id="a_node8"><a xlink:href="../../da/d2e/CompressedDataFormat_8h.html" target="_top" xlink:title="DataFormatsTOF/Compressed\lDataFormat.h">
<polygon fill="none" stroke="#000000" points="381.5,-56.5 381.5,-86.5 543.5,-86.5 543.5,-56.5 381.5,-56.5"/>
<text text-anchor="start" x="389.5" y="-74.5" font-family="Helvetica,sans-Serif" font-size="10.00" fill="#000000">DataFormatsTOF/Compressed</text>
<text text-anchor="middle" x="462.5" y="-63.5" font-family="Helvetica,sans-Serif" font-size="10.00" fill="#000000">DataFormat.h</text>
</a>
</g>
</g>
<!-- Node1&#45;&gt;Node7 -->
<g id="edge9" class="edge">
<title>Node1&#45;&gt;Node7</title>
<path fill="none" stroke="#191970" d="M298.8125,-123.3906C327.256,-114.3737 370.5271,-100.6563 405.4369,-89.5896"/>
<polygon fill="#191970" stroke="#191970" points="406.5675,-92.9029 415.0423,-86.5446 404.4521,-86.2302 406.5675,-92.9029"/>
</g>
<!-- Node5&#45;&gt;Node4 -->
<g id="edge6" class="edge">
<title>Node5&#45;&gt;Node4</title>
<path fill="none" stroke="#191970" d="M622.9063,-61.8906C609.1157,-52.1421 587.5528,-36.8994 571.359,-25.4521"/>
<polygon fill="#191970" stroke="#191970" points="573.1844,-22.4563 562.9983,-19.5419 569.1437,-28.1723 573.1844,-22.4563"/>
</g>
<!-- Node6&#45;&gt;Node4 -->
<g id="edge8" class="edge">
<title>Node6&#45;&gt;Node4</title>
<path fill="none" stroke="#191970" d="M312.0979,-61.9581C367.7668,-49.7744 463.0076,-28.9298 514.3055,-17.7027"/>
<polygon fill="#191970" stroke="#191970" points="515.2344,-21.0823 524.2548,-15.5252 513.7377,-14.2442 515.2344,-21.0823"/>
</g>
<!-- Node7&#45;&gt;Node4 -->
<g id="edge10" class="edge">
<title>Node7&#45;&gt;Node4</title>
<path fill="none" stroke="#191970" d="M484.0056,-56.2977C497.2968,-46.9022 514.3057,-34.8787 527.6588,-25.4395"/>
<polygon fill="#191970" stroke="#191970" points="529.6846,-28.2937 535.83,-19.6633 525.6439,-22.5776 529.6846,-28.2937"/>
</g>
<!-- Node9 -->
<g id="node10" class="node">
<title>Node9</title>
<polygon fill="none" stroke="#bfbfbf" points="1036,-.5 1036,-19.5 1095,-19.5 1095,-.5 1036,-.5"/>
<text text-anchor="middle" x="1065.5" y="-7.5" font-family="Helvetica,sans-Serif" font-size="10.00" fill="#000000">Rtypes.h</text>
</g>
<!-- Node8&#45;&gt;Node9 -->
<g id="edge12" class="edge">
<title>Node8&#45;&gt;Node9</title>
<path fill="none" stroke="#191970" d="M1165.0625,-61.8906C1145.6653,-51.7811 1114.931,-35.7628 1092.7383,-24.1962"/>
<polygon fill="#191970" stroke="#191970" points="1094.2936,-21.06 1083.808,-19.5419 1091.0582,-27.2675 1094.2936,-21.06"/>
</g>
<!-- Node10 -->
<g id="node11" class="node">
<title>Node10</title>
<g id="a_node11"><a xlink:href="../../d4/dc6/LHCConstants_8h.html" target="_top" xlink:title="Header to collect LHC related constants. ">
<polygon fill="none" stroke="#000000" points="1113.5,-.5 1113.5,-19.5 1303.5,-19.5 1303.5,-.5 1113.5,-.5"/>
<text text-anchor="middle" x="1208.5" y="-7.5" font-family="Helvetica,sans-Serif" font-size="10.00" fill="#000000">CommonConstants/LHCConstants.h</text>
</a>
</g>
</g>
<!-- Node8&#45;&gt;Node10 -->
<g id="edge13" class="edge">
<title>Node8&#45;&gt;Node10</title>
<path fill="none" stroke="#191970" d="M1187.4063,-61.8906C1190.9446,-53.1862 1196.2636,-40.1015 1200.675,-29.2494"/>
<polygon fill="#191970" stroke="#191970" points="1204.0152,-30.3268 1204.5387,-19.7449 1197.5305,-27.6907 1204.0152,-30.3268"/>
</g>
<!-- Node11&#45;&gt;Node5 -->
<g id="edge22" class="edge">
<title>Node11&#45;&gt;Node5</title>
<path fill="none" stroke="#191970" d="M860.3845,-123.4581C813.8698,-112.6632 738.0592,-95.0694 687.7327,-83.3899"/>
<polygon fill="#191970" stroke="#191970" points="688.2443,-79.9156 677.7119,-81.0643 686.6618,-86.7344 688.2443,-79.9156"/>
</g>
<!-- Node11&#45;&gt;Node9 -->
<g id="edge15" class="edge">
<title>Node11&#45;&gt;Node9</title>
<path fill="none" stroke="#191970" d="M971.2441,-125.0481C1018.756,-118.0289 1075.6333,-105.9191 1090.5,-87 1104.1286,-69.6565 1091.6522,-44.6397 1079.9556,-27.8756"/>
<polygon fill="#191970" stroke="#191970" points="1082.497,-25.4294 1073.7084,-19.5124 1076.8889,-29.6186 1082.497,-25.4294"/>
</g>
<!-- Node12 -->
<g id="node13" class="node">
<title>Node12</title>
<g id="a_node13"><a xlink:href="../../d9/d80/InteractionRecord_8h.html" target="_top" xlink:title="CommonDataFormat/Interaction\lRecord.h">
<polygon fill="none" stroke="#000000" points="907.5,-56.5 907.5,-86.5 1081.5,-86.5 1081.5,-56.5 907.5,-56.5"/>
<text text-anchor="start" x="915.5" y="-74.5" font-family="Helvetica,sans-Serif" font-size="10.00" fill="#000000">CommonDataFormat/Interaction</text>
<text text-anchor="middle" x="994.5" y="-63.5" font-family="Helvetica,sans-Serif" font-size="10.00" fill="#000000">Record.h</text>
</a>
</g>
</g>
<!-- Node11&#45;&gt;Node12 -->
<g id="edge16" class="edge">
<title>Node11&#45;&gt;Node12</title>
<path fill="none" stroke="#191970" d="M916.0313,-123.3906C928.6177,-115.0673 947.2607,-102.7389 963.217,-92.1872"/>
<polygon fill="#191970" stroke="#191970" points="965.3391,-94.98 971.7496,-86.5446 961.4779,-89.1411 965.3391,-94.98"/>
</g>
<!-- Node15 -->
<g id="node16" class="node">
<title>Node15</title>
<g id="a_node16"><a xlink:href="../../de/da4/Triggers_8h.html" target="_top" xlink:title="Definition of the 32 Central Trigger System (CTS) Trigger Types defined in https://twiki.cern.ch/twiki/pub/ALICE/NoteForFEDevelopers/CTS_CRU_FE_interface.pdf. ">
<polygon fill="none" stroke="#000000" points="729.5,-62 729.5,-81 889.5,-81 889.5,-62 729.5,-62"/>
<text text-anchor="middle" x="809.5" y="-69" font-family="Helvetica,sans-Serif" font-size="10.00" fill="#000000">CommonConstants/Triggers.h</text>
</a>
</g>
</g>
<!-- Node11&#45;&gt;Node15 -->
<g id="edge23" class="edge">
<title>Node11&#45;&gt;Node15</title>
<path fill="none" stroke="#191970" d="M887.125,-123.3906C872.4069,-113.5519 849.3168,-98.1167 832.1411,-86.6351"/>
<polygon fill="#191970" stroke="#191970" points="834.0327,-83.6896 823.7741,-81.0419 830.1425,-89.5091 834.0327,-83.6896"/>
</g>
<!-- Node12&#45;&gt;Node4 -->
<g id="edge20" class="edge">
<title>Node12&#45;&gt;Node4</title>
<path fill="none" stroke="#191970" d="M907.3961,-57.3233C904.3953,-56.8709 901.4232,-56.4285 898.5,-56 783.8919,-39.1984 647.6845,-22.0608 584.6834,-14.2945"/>
<polygon fill="#191970" stroke="#191970" points="584.8551,-10.7893 574.5026,-13.0426 584.0007,-17.737 584.8551,-10.7893"/>
</g>
<!-- Node12&#45;&gt;Node9 -->
<g id="edge17" class="edge">
<title>Node12&#45;&gt;Node9</title>
<path fill="none" stroke="#191970" d="M1012.0506,-56.2977C1022.5221,-47.2274 1035.8211,-35.7077 1046.5338,-26.4285"/>
<polygon fill="#191970" stroke="#191970" points="1048.8649,-29.0398 1054.132,-19.8469 1044.2818,-23.7487 1048.8649,-29.0398"/>
</g>
<!-- Node12&#45;&gt;Node10 -->
<g id="edge21" class="edge">
<title>Node12&#45;&gt;Node10</title>
<path fill="none" stroke="#191970" d="M1046.8503,-56.4554C1083.3398,-45.9689 1131.4201,-32.1515 1165.6351,-22.3187"/>
<polygon fill="#191970" stroke="#191970" points="1166.6933,-25.6563 1175.3376,-19.5303 1164.7599,-18.9286 1166.6933,-25.6563"/>
</g>
<!-- Node13 -->
<g id="node14" class="node">
<title>Node13</title>
<polygon fill="none" stroke="#bfbfbf" points="904,-.5 904,-19.5 953,-19.5 953,-.5 904,-.5"/>
<text text-anchor="middle" x="928.5" y="-7.5" font-family="Helvetica,sans-Serif" font-size="10.00" fill="#000000">iosfwd</text>
</g>
<!-- Node12&#45;&gt;Node13 -->
<g id="edge18" class="edge">
<title>Node12&#45;&gt;Node13</title>
<path fill="none" stroke="#191970" d="M978.1854,-56.2977C968.5467,-47.3163 956.3309,-35.9334 946.4241,-26.702"/>
<polygon fill="#191970" stroke="#191970" points="948.7696,-24.1036 939.0674,-19.8469 943.9975,-29.2249 948.7696,-24.1036"/>
</g>
<!-- Node14 -->
<g id="node15" class="node">
<title>Node14</title>
<polygon fill="none" stroke="#bfbfbf" points="971,-.5 971,-19.5 1018,-19.5 1018,-.5 971,-.5"/>
<text text-anchor="middle" x="994.5" y="-7.5" font-family="Helvetica,sans-Serif" font-size="10.00" fill="#000000">cmath</text>
</g>
<!-- Node12&#45;&gt;Node14 -->
<g id="edge19" class="edge">
<title>Node12&#45;&gt;Node14</title>
<path fill="none" stroke="#191970" d="M994.5,-56.2977C994.5,-48.3834 994.5,-38.6043 994.5,-30.0759"/>
<polygon fill="#191970" stroke="#191970" points="998.0001,-29.8469 994.5,-19.8469 991.0001,-29.847 998.0001,-29.8469"/>
</g>
<!-- Node15&#45;&gt;Node4 -->
<g id="edge24" class="edge">
<title>Node15&#45;&gt;Node4</title>
<path fill="none" stroke="#191970" d="M769.1603,-61.9581C718.5312,-49.9824 632.5272,-29.6391 584.5307,-18.2861"/>
<polygon fill="#191970" stroke="#191970" points="585.1455,-14.835 574.6084,-15.9391 583.5342,-21.6471 585.1455,-14.835"/>
</g>
</g>
</svg>
