<?xml version="1.0" encoding="UTF-8" standalone="no"?>
<!DOCTYPE svg PUBLIC "-//W3C//DTD SVG 1.1//EN"
 "http://www.w3.org/Graphics/SVG/1.1/DTD/svg11.dtd">
<!-- Generated by graphviz version 2.40.1 (20161225.0304)
 -->
<!-- Title: /home/travis/build/AliceO2Group/AliceO2/GPU/TPCFastTransformation/Spline2D.h Pages: 1 -->
<svg width="442pt" height="239pt"
 viewBox="0.00 0.00 442.00 239.00" xmlns="http://www.w3.org/2000/svg" xmlns:xlink="http://www.w3.org/1999/xlink">
<g id="graph0" class="graph" transform="scale(1 1) rotate(0) translate(4 235)">
<title>/home/travis/build/AliceO2Group/AliceO2/GPU/TPCFastTransformation/Spline2D.h</title>
<!-- Node12 -->
<g id="node1" class="node">
<title>Node12</title>
<polygon fill="#bfbfbf" stroke="#000000" points="106,-178.5 106,-230.5 261,-230.5 261,-178.5 106,-178.5"/>
<text text-anchor="start" x="114" y="-218.5" font-family="Helvetica,sans-Serif" font-size="10.00" fill="#000000">/home/travis/build</text>
<text text-anchor="start" x="114" y="-207.5" font-family="Helvetica,sans-Serif" font-size="10.00" fill="#000000">/AliceO2Group/AliceO2</text>
<text text-anchor="start" x="114" y="-196.5" font-family="Helvetica,sans-Serif" font-size="10.00" fill="#000000">/GPU/TPCFastTransformation</text>
<text text-anchor="middle" x="183.5" y="-185.5" font-family="Helvetica,sans-Serif" font-size="10.00" fill="#000000">/Spline2D.h</text>
</g>
<!-- Node13 -->
<g id="node2" class="node">
<title>Node13</title>
<g id="a_node2"><a xlink:href="../../d0/d29/Spline2D_8cxx.html" target="_top" xlink:title="Implementation of Spline2D class. ">
<polygon fill="none" stroke="#000000" points="0,-.5 0,-52.5 155,-52.5 155,-.5 0,-.5"/>
<text text-anchor="start" x="8" y="-40.5" font-family="Helvetica,sans-Serif" font-size="10.00" fill="#000000">/home/travis/build</text>
<text text-anchor="start" x="8" y="-29.5" font-family="Helvetica,sans-Serif" font-size="10.00" fill="#000000">/AliceO2Group/AliceO2</text>
<text text-anchor="start" x="8" y="-18.5" font-family="Helvetica,sans-Serif" font-size="10.00" fill="#000000">/GPU/TPCFastTransformation</text>
<text text-anchor="middle" x="77.5" y="-7.5" font-family="Helvetica,sans-Serif" font-size="10.00" fill="#000000">/Spline2D.cxx</text>
</a>
</g>
</g>
<!-- Node12&#45;&gt;Node13 -->
<g id="edge1" class="edge">
<title>Node12&#45;&gt;Node13</title>
<path fill="none" stroke="#191970" d="M126.2194,-172.5164C115.1822,-163.9363 104.8007,-153.7253 97.5,-142 80.6124,-114.8775 76.9162,-77.5813 76.583,-52.7912"/>
<polygon fill="#191970" stroke="#191970" points="124.2046,-175.3792 134.3374,-178.4741 128.3462,-169.7358 124.2046,-175.3792"/>
</g>
<!-- Node14 -->
<g id="node3" class="node">
<title>Node14</title>
<g id="a_node3"><a xlink:href="../../d0/d1e/SplineHelper2D_8h.html" target="_top" xlink:title="Definition of SplineHelper2D class. ">
<polygon fill="none" stroke="#000000" points="106,-89.5 106,-141.5 261,-141.5 261,-89.5 106,-89.5"/>
<text text-anchor="start" x="114" y="-129.5" font-family="Helvetica,sans-Serif" font-size="10.00" fill="#000000">/home/travis/build</text>
<text text-anchor="start" x="114" y="-118.5" font-family="Helvetica,sans-Serif" font-size="10.00" fill="#000000">/AliceO2Group/AliceO2</text>
<text text-anchor="start" x="114" y="-107.5" font-family="Helvetica,sans-Serif" font-size="10.00" fill="#000000">/GPU/TPCFastTransformation</text>
<text text-anchor="middle" x="183.5" y="-96.5" font-family="Helvetica,sans-Serif" font-size="10.00" fill="#000000">/SplineHelper2D.h</text>
</a>
</g>
</g>
<!-- Node12&#45;&gt;Node14 -->
<g id="edge2" class="edge">
<title>Node12&#45;&gt;Node14</title>
<path fill="none" stroke="#191970" d="M183.5,-168.1155C183.5,-159.2061 183.5,-149.8475 183.5,-141.5341"/>
<polygon fill="#191970" stroke="#191970" points="180.0001,-168.2784 183.5,-178.2784 187.0001,-168.2785 180.0001,-168.2784"/>
</g>
<!-- Node16 -->
<g id="node5" class="node">
<title>Node16</title>
<g id="a_node5"><a xlink:href="../../d4/d3d/testSplines_8cxx.html" target="_top" xlink:title="/home/travis/build\l/AliceO2Group/AliceO2\l/GPU/TPCFastTransformation\l/test/testSplines.cxx">
<polygon fill="none" stroke="#000000" points="279,-89.5 279,-141.5 434,-141.5 434,-89.5 279,-89.5"/>
<text text-anchor="start" x="287" y="-129.5" font-family="Helvetica,sans-Serif" font-size="10.00" fill="#000000">/home/travis/build</text>
<text text-anchor="start" x="287" y="-118.5" font-family="Helvetica,sans-Serif" font-size="10.00" fill="#000000">/AliceO2Group/AliceO2</text>
<text text-anchor="start" x="287" y="-107.5" font-family="Helvetica,sans-Serif" font-size="10.00" fill="#000000">/GPU/TPCFastTransformation</text>
<text text-anchor="middle" x="356.5" y="-96.5" font-family="Helvetica,sans-Serif" font-size="10.00" fill="#000000">/test/testSplines.cxx</text>
</a>
</g>
</g>
<!-- Node12&#45;&gt;Node16 -->
<g id="edge5" class="edge">
<title>Node12&#45;&gt;Node16</title>
<path fill="none" stroke="#191970" d="M243.6325,-173.5648C263.9427,-163.1162 286.3973,-151.5644 305.8943,-141.5341"/>
<polygon fill="#191970" stroke="#191970" points="241.7612,-170.5914 234.47,-178.2784 244.9634,-176.816 241.7612,-170.5914"/>
</g>
<!-- Node14&#45;&gt;Node13 -->
<g id="edge3" class="edge">
<title>Node14&#45;&gt;Node13</title>
<path fill="none" stroke="#191970" d="M144.2866,-82.5755C132.4834,-72.6653 119.6998,-61.9319 108.507,-52.5341"/>
<polygon fill="#191970" stroke="#191970" points="142.3607,-85.5286 152.2698,-89.2784 146.8619,-80.1677 142.3607,-85.5286"/>
</g>
<!-- Node15 -->
<g id="node4" class="node">
<title>Node15</title>
<g id="a_node4"><a xlink:href="../../d9/da8/SplineHelper2D_8cxx.html" target="_top" xlink:title="/home/travis/build\l/AliceO2Group/AliceO2\l/GPU/TPCFastTransformation\l/SplineHelper2D.cxx">
<polygon fill="none" stroke="#000000" points="173,-.5 173,-52.5 328,-52.5 328,-.5 173,-.5"/>
<text text-anchor="start" x="181" y="-40.5" font-family="Helvetica,sans-Serif" font-size="10.00" fill="#000000">/home/travis/build</text>
<text text-anchor="start" x="181" y="-29.5" font-family="Helvetica,sans-Serif" font-size="10.00" fill="#000000">/AliceO2Group/AliceO2</text>
<text text-anchor="start" x="181" y="-18.5" font-family="Helvetica,sans-Serif" font-size="10.00" fill="#000000">/GPU/TPCFastTransformation</text>
<text text-anchor="middle" x="250.5" y="-7.5" font-family="Helvetica,sans-Serif" font-size="10.00" fill="#000000">/SplineHelper2D.cxx</text>
</a>
</g>
</g>
<!-- Node14&#45;&gt;Node15 -->
<g id="edge4" class="edge">
<title>Node14&#45;&gt;Node15</title>
<path fill="none" stroke="#191970" d="M209.366,-81.1407C216.521,-71.6363 224.1667,-61.4801 230.9013,-52.5341"/>
<polygon fill="#191970" stroke="#191970" points="206.458,-79.1842 203.2398,-89.2784 212.0505,-83.3942 206.458,-79.1842"/>
</g>
</g>
</svg>
