<?xml version="1.0" encoding="UTF-8" standalone="no"?>
<!DOCTYPE svg PUBLIC "-//W3C//DTD SVG 1.1//EN"
 "http://www.w3.org/Graphics/SVG/1.1/DTD/svg11.dtd">
<!-- Generated by graphviz version 2.40.1 (20161225.0304)
 -->
<!-- Title: o2::framework::DeviceInfo Pages: 1 -->
<!--zoomable 342 -->
<svg id="main" version="1.1" xmlns="http://www.w3.org/2000/svg" xmlns:xlink="http://www.w3.org/1999/xlink" xml:space="preserve" onload="init(evt)">
<style type="text/css"><![CDATA[
.edge:hover path { stroke: red; }
.edge:hover polygon { stroke: red; fill: red; }
]]></style>
<script type="text/javascript"><![CDATA[
var edges = document.getElementsByTagName('g');
if (edges && edges.length) {
  for (var i=0;i<edges.length;i++) {
    if (edges[i].id.substr(0,4)=='edge') {
      edges[i].setAttribute('class','edge');
    }
  }
}
]]></script>
        <defs>
                <circle id="rim" cx="0" cy="0" r="7"/>
                <circle id="rim2" cx="0" cy="0" r="3.5"/>
                <g id="zoomPlus">
                        <use xlink:href="#rim" fill="#404040">
                                <set attributeName="fill" to="#808080" begin="zoomplus.mouseover" end="zoomplus.mouseout"/>
                        </use>
                        <path d="M-4,0h8M0,-4v8" fill="none" stroke="white" stroke-width="1.5" pointer-events="none"/>
                </g>
                <g id="zoomMin">
                        <use xlink:href="#rim" fill="#404040">
                                <set attributeName="fill" to="#808080" begin="zoomminus.mouseover" end="zoomminus.mouseout"/>
                        </use>
                        <path d="M-4,0h8" fill="none" stroke="white" stroke-width="1.5" pointer-events="none"/>
                </g>
                <g id="dirArrow">
                        <path fill="none" stroke="white" stroke-width="1.5" d="M0,-3.0v7 M-2.5,-0.5L0,-3.0L2.5,-0.5"/>
                </g>
               <g id="resetDef">
                       <use xlink:href="#rim2" fill="#404040">
                               <set attributeName="fill" to="#808080" begin="reset.mouseover" end="reset.mouseout"/>
                       </use>
               </g>
        </defs>

<script type="text/javascript">
var viewWidth = 983;
var viewHeight = 342;
var sectionId = 'dynsection-0';
</script>
<script xlink:href="../../svgpan.js"/>
<svg id="graph" class="graph">
<g id="viewport">
<title>o2::framework::DeviceInfo</title>
<!-- Node1 -->
<g id="node1" class="node">
<title>Node1</title>
<polygon fill="#bfbfbf" stroke="#000000" points="483,-.5 483,-57.5 629,-57.5 629,-.5 483,-.5"/>
<text text-anchor="middle" x="556" y="-45.5" font-family="Helvetica,sans-Serif" font-size="10.00" fill="#000000">o2::framework::DeviceInfo</text>
<polyline fill="none" stroke="#000000" points="483,-38.5 629,-38.5 "/>
<text text-anchor="middle" x="556" y="-26.5" font-family="Helvetica,sans-Serif" font-size="10.00" fill="#000000"> </text>
<polyline fill="none" stroke="#000000" points="483,-19.5 629,-19.5 "/>
<text text-anchor="middle" x="556" y="-7.5" font-family="Helvetica,sans-Serif" font-size="10.00" fill="#000000"> </text>
</g>
<!-- Node2 -->
<g id="node2" class="node">
<title>Node2</title>
<polygon fill="none" stroke="#bfbfbf" points="0,-138.5 0,-195.5 92,-195.5 92,-138.5 0,-138.5"/>
<text text-anchor="middle" x="46" y="-183.5" font-family="Helvetica,sans-Serif" font-size="10.00" fill="#000000">StreamingState</text>
<polyline fill="none" stroke="#bfbfbf" points="0,-176.5 92,-176.5 "/>
<text text-anchor="middle" x="46" y="-164.5" font-family="Helvetica,sans-Serif" font-size="10.00" fill="#000000"> </text>
<polyline fill="none" stroke="#bfbfbf" points="0,-157.5 92,-157.5 "/>
<text text-anchor="middle" x="46" y="-145.5" font-family="Helvetica,sans-Serif" font-size="10.00" fill="#000000"> </text>
</g>
<!-- Node2&#45;&gt;Node1 -->
<g id="edge1" class="edge">
<title>Node2&#45;&gt;Node1</title>
<path fill="none" stroke="#404040" d="M37.282,-138.323C33.1293,-118.3204 31.899,-92.378 47,-76 75.1021,-45.5215 333.3685,-34.4959 470.8222,-30.7635"/>
<polygon fill="none" stroke="#404040" points="470.9321,-30.7607 476.8248,-26.6043 482.9279,-30.4452 477.0352,-34.6016 470.9321,-30.7607"/>
<text text-anchor="middle" x="90.5" y="-90" font-family="Helvetica,sans-Serif" font-size="10.00" fill="#000000"> +streamingState</text>
</g>
<!-- Node3 -->
<g id="node3" class="node">
<title>Node3</title>
<g id="a_node3"><a xlink:href="../../d6/d43/structo2_1_1framework_1_1Metric2DViewIndex.html" target="_top" xlink:title="{o2::framework::Metric2DView\lIndex\n||+ isComplete()\l+ getUpdater()\l}">
<polygon fill="none" stroke="#000000" points="224.5,-127.5 224.5,-206.5 385.5,-206.5 385.5,-127.5 224.5,-127.5"/>
<text text-anchor="start" x="232.5" y="-194.5" font-family="Helvetica,sans-Serif" font-size="10.00" fill="#000000">o2::framework::Metric2DView</text>
<text text-anchor="middle" x="305" y="-183.5" font-family="Helvetica,sans-Serif" font-size="10.00" fill="#000000">Index</text>
<polyline fill="none" stroke="#000000" points="224.5,-176.5 385.5,-176.5 "/>
<text text-anchor="middle" x="305" y="-164.5" font-family="Helvetica,sans-Serif" font-size="10.00" fill="#000000"> </text>
<polyline fill="none" stroke="#000000" points="224.5,-157.5 385.5,-157.5 "/>
<text text-anchor="start" x="232.5" y="-145.5" font-family="Helvetica,sans-Serif" font-size="10.00" fill="#000000">+ isComplete()</text>
<text text-anchor="start" x="232.5" y="-134.5" font-family="Helvetica,sans-Serif" font-size="10.00" fill="#000000">+ getUpdater()</text>
</a>
</g>
</g>
<!-- Node3&#45;&gt;Node1 -->
<g id="edge2" class="edge">
<title>Node3&#45;&gt;Node1</title>
<path fill="none" stroke="#404040" d="M307.6959,-127.2055C310.9634,-109.1968 317.8216,-89.0661 332,-76 352.2384,-57.3493 416.161,-45.1212 470.5665,-37.8259"/>
<polygon fill="none" stroke="#404040" points="470.8232,-37.7929 476.261,-33.0568 482.7242,-36.2547 477.2864,-40.9908 470.8232,-37.7929"/>
<text text-anchor="middle" x="391" y="-101" font-family="Helvetica,sans-Serif" font-size="10.00" fill="#000000"> +queriesViewIndex</text>
<text text-anchor="middle" x="391" y="-90" font-family="Helvetica,sans-Serif" font-size="10.00" fill="#000000">+variablesViewIndex</text>
<text text-anchor="middle" x="391" y="-79" font-family="Helvetica,sans-Serif" font-size="10.00" fill="#000000">+dataRelayerViewIndex</text>
</g>
<!-- Node4 -->
<g id="node4" class="node">
<title>Node4</title>
<polygon fill="none" stroke="#bfbfbf" points="166.5,-276.5 166.5,-333.5 195.5,-333.5 195.5,-276.5 166.5,-276.5"/>
<text text-anchor="middle" x="181" y="-321.5" font-family="Helvetica,sans-Serif" font-size="10.00" fill="#000000">int</text>
<polyline fill="none" stroke="#bfbfbf" points="166.5,-314.5 195.5,-314.5 "/>
<text text-anchor="middle" x="181" y="-302.5" font-family="Helvetica,sans-Serif" font-size="10.00" fill="#000000"> </text>
<polyline fill="none" stroke="#bfbfbf" points="166.5,-295.5 195.5,-295.5 "/>
<text text-anchor="middle" x="181" y="-283.5" font-family="Helvetica,sans-Serif" font-size="10.00" fill="#000000"> </text>
</g>
<!-- Node4&#45;&gt;Node1 -->
<g id="edge9" class="edge">
<title>Node4&#45;&gt;Node1</title>
<path fill="none" stroke="#404040" d="M166.3597,-277.419C148.6101,-239.7655 124.8171,-171.8387 157,-127 193.1941,-76.5727 364.5929,-49.4161 470.6287,-37.1964"/>
<polygon fill="none" stroke="#404040" points="470.6611,-37.1928 476.1757,-32.5463 482.5857,-35.8496 477.0711,-40.4961 470.6611,-37.1928"/>
<text text-anchor="middle" x="186" y="-170" font-family="Helvetica,sans-Serif" font-size="10.00" fill="#000000"> +unprinted</text>
<text text-anchor="middle" x="186" y="-159" font-family="Helvetica,sans-Serif" font-size="10.00" fill="#000000">+lastError</text>
</g>
<!-- Node4&#45;&gt;Node3 -->
<g id="edge3" class="edge">
<title>Node4&#45;&gt;Node3</title>
<path fill="none" stroke="#404040" d="M195.7114,-288.6277C211.7666,-270.7597 238.2381,-241.2995 261.1069,-215.8488"/>
<polygon fill="none" stroke="#404040" points="261.3228,-215.6085 262.3577,-208.472 269.3433,-206.6825 268.3084,-213.819 261.3228,-215.6085"/>
<text text-anchor="middle" x="268.5" y="-250" font-family="Helvetica,sans-Serif" font-size="10.00" fill="#000000"> +w</text>
<text text-anchor="middle" x="268.5" y="-239" font-family="Helvetica,sans-Serif" font-size="10.00" fill="#000000">+h</text>
<text text-anchor="middle" x="268.5" y="-228" font-family="Helvetica,sans-Serif" font-size="10.00" fill="#000000">+prefix</text>
</g>
<!-- Node5 -->
<g id="node5" class="node">
<title>Node5</title>
<polygon fill="none" stroke="#bfbfbf" points="245.5,-276.5 245.5,-333.5 364.5,-333.5 364.5,-276.5 245.5,-276.5"/>
<text text-anchor="middle" x="305" y="-321.5" font-family="Helvetica,sans-Serif" font-size="10.00" fill="#000000">vector&lt; std::size_t &gt;</text>
<polyline fill="none" stroke="#bfbfbf" points="245.5,-314.5 364.5,-314.5 "/>
<text text-anchor="middle" x="305" y="-302.5" font-family="Helvetica,sans-Serif" font-size="10.00" fill="#000000"> </text>
<polyline fill="none" stroke="#bfbfbf" points="245.5,-295.5 364.5,-295.5 "/>
<text text-anchor="middle" x="305" y="-283.5" font-family="Helvetica,sans-Serif" font-size="10.00" fill="#000000"> </text>
</g>
<!-- Node5&#45;&gt;Node3 -->
<g id="edge4" class="edge">
<title>Node5&#45;&gt;Node3</title>
<path fill="none" stroke="#404040" d="M305,-276.4063C305,-259.7484 305,-238.2393 305,-218.7066"/>
<polygon fill="none" stroke="#404040" points="305.0001,-218.5453 301,-212.5453 305,-206.5453 309,-212.5452 305.0001,-218.5453"/>
<text text-anchor="middle" x="330" y="-239" font-family="Helvetica,sans-Serif" font-size="10.00" fill="#000000"> +indexes</text>
</g>
<!-- Node6 -->
<g id="node6" class="node">
<title>Node6</title>
<polygon fill="none" stroke="#bfbfbf" points="404,-138.5 404,-195.5 464,-195.5 464,-138.5 404,-138.5"/>
<text text-anchor="middle" x="434" y="-183.5" font-family="Helvetica,sans-Serif" font-size="10.00" fill="#000000">LogLevel</text>
<polyline fill="none" stroke="#bfbfbf" points="404,-176.5 464,-176.5 "/>
<text text-anchor="middle" x="434" y="-164.5" font-family="Helvetica,sans-Serif" font-size="10.00" fill="#000000"> </text>
<polyline fill="none" stroke="#bfbfbf" points="404,-157.5 464,-157.5 "/>
<text text-anchor="middle" x="434" y="-145.5" font-family="Helvetica,sans-Serif" font-size="10.00" fill="#000000"> </text>
</g>
<!-- Node6&#45;&gt;Node1 -->
<g id="edge5" class="edge">
<title>Node6&#45;&gt;Node1</title>
<path fill="none" stroke="#404040" d="M441.891,-138.1365C448.3167,-118.8092 458.9791,-93.7525 475,-76 478.5895,-72.0226 482.597,-68.2903 486.8554,-64.806"/>
<polygon fill="none" stroke="#404040" points="486.9075,-64.7671 489.3136,-57.9692 496.514,-57.5756 494.1079,-64.3735 486.9075,-64.7671"/>
<text text-anchor="middle" x="513.5" y="-90" font-family="Helvetica,sans-Serif" font-size="10.00" fill="#000000"> +maxLogLevel</text>
</g>
<!-- Node7 -->
<g id="node7" class="node">
<title>Node7</title>
<polygon fill="none" stroke="#bfbfbf" points="481.5,-133 481.5,-201 630.5,-201 630.5,-133 481.5,-133"/>
<text text-anchor="start" x="489.5" y="-189" font-family="Helvetica,sans-Serif" font-size="10.00" fill="#000000">vector&lt; LogParsingHelpers</text>
<text text-anchor="middle" x="556" y="-178" font-family="Helvetica,sans-Serif" font-size="10.00" fill="#000000">::LogLevel &gt;</text>
<polyline fill="none" stroke="#bfbfbf" points="481.5,-171 630.5,-171 "/>
<text text-anchor="middle" x="556" y="-159" font-family="Helvetica,sans-Serif" font-size="10.00" fill="#000000"> </text>
<polyline fill="none" stroke="#bfbfbf" points="481.5,-152 630.5,-152 "/>
<text text-anchor="middle" x="556" y="-140" font-family="Helvetica,sans-Serif" font-size="10.00" fill="#000000"> </text>
</g>
<!-- Node7&#45;&gt;Node1 -->
<g id="edge6" class="edge">
<title>Node7&#45;&gt;Node1</title>
<path fill="none" stroke="#404040" d="M556,-132.8876C556,-113.8098 556,-89.9031 556,-69.8342"/>
<polygon fill="none" stroke="#404040" points="556.0001,-69.6015 552,-63.6016 556,-57.6015 560,-63.6015 556.0001,-69.6015"/>
<text text-anchor="middle" x="592" y="-90" font-family="Helvetica,sans-Serif" font-size="10.00" fill="#000000"> +historyLevel</text>
</g>
<!-- Node8 -->
<g id="node8" class="node">
<title>Node8</title>
<polygon fill="none" stroke="#bfbfbf" points="648.5,-138.5 648.5,-195.5 767.5,-195.5 767.5,-138.5 648.5,-138.5"/>
<text text-anchor="middle" x="708" y="-183.5" font-family="Helvetica,sans-Serif" font-size="10.00" fill="#000000">vector&lt; std::string &gt;</text>
<polyline fill="none" stroke="#bfbfbf" points="648.5,-176.5 767.5,-176.5 "/>
<text text-anchor="middle" x="708" y="-164.5" font-family="Helvetica,sans-Serif" font-size="10.00" fill="#000000"> </text>
<polyline fill="none" stroke="#bfbfbf" points="648.5,-157.5 767.5,-157.5 "/>
<text text-anchor="middle" x="708" y="-145.5" font-family="Helvetica,sans-Serif" font-size="10.00" fill="#000000"> </text>
</g>
<!-- Node8&#45;&gt;Node1 -->
<g id="edge7" class="edge">
<title>Node8&#45;&gt;Node1</title>
<path fill="none" stroke="#404040" d="M687.8114,-138.2676C673.572,-119.2384 653.3042,-94.4758 632,-76 627.4291,-72.036 622.4871,-68.1889 617.393,-64.5152"/>
<polygon fill="none" stroke="#404040" points="617.35,-64.4856 610.1397,-64.3765 607.4672,-57.6789 614.6775,-57.788 617.35,-64.4856"/>
<text text-anchor="middle" x="686" y="-90" font-family="Helvetica,sans-Serif" font-size="10.00" fill="#000000"> +history</text>
</g>
<!-- Node9 -->
<g id="node9" class="node">
<title>Node9</title>
<polygon fill="none" stroke="#bfbfbf" points="785.5,-138.5 785.5,-195.5 830.5,-195.5 830.5,-138.5 785.5,-138.5"/>
<text text-anchor="middle" x="808" y="-183.5" font-family="Helvetica,sans-Serif" font-size="10.00" fill="#000000">size_t</text>
<polyline fill="none" stroke="#bfbfbf" points="785.5,-176.5 830.5,-176.5 "/>
<text text-anchor="middle" x="808" y="-164.5" font-family="Helvetica,sans-Serif" font-size="10.00" fill="#000000"> </text>
<polyline fill="none" stroke="#bfbfbf" points="785.5,-157.5 830.5,-157.5 "/>
<text text-anchor="middle" x="808" y="-145.5" font-family="Helvetica,sans-Serif" font-size="10.00" fill="#000000"> </text>
</g>
<!-- Node9&#45;&gt;Node1 -->
<g id="edge8" class="edge">
<title>Node9&#45;&gt;Node1</title>
<path fill="none" stroke="#404040" d="M787.1282,-138.318C783.8825,-134.3866 780.4554,-130.5024 777,-127 751.4562,-101.1084 745.2299,-92.8552 713,-76 690.683,-64.3289 665.0291,-55.1098 641.0138,-48.0422"/>
<polygon fill="none" stroke="#404040" points="640.9231,-48.0166 634.0597,-50.2288 629.3779,-44.7442 636.2413,-42.532 640.9231,-48.0166"/>
<text text-anchor="middle" x="792" y="-95.5" font-family="Helvetica,sans-Serif" font-size="10.00" fill="#000000"> +historySize</text>
<text text-anchor="middle" x="792" y="-84.5" font-family="Helvetica,sans-Serif" font-size="10.00" fill="#000000">+historyPos</text>
</g>
<!-- Node10 -->
<g id="node10" class="node">
<title>Node10</title>
<polygon fill="none" stroke="#bfbfbf" points="848.5,-138.5 848.5,-195.5 889.5,-195.5 889.5,-138.5 848.5,-138.5"/>
<text text-anchor="middle" x="869" y="-183.5" font-family="Helvetica,sans-Serif" font-size="10.00" fill="#000000">pid_t</text>
<polyline fill="none" stroke="#bfbfbf" points="848.5,-176.5 889.5,-176.5 "/>
<text text-anchor="middle" x="869" y="-164.5" font-family="Helvetica,sans-Serif" font-size="10.00" fill="#000000"> </text>
<polyline fill="none" stroke="#bfbfbf" points="848.5,-157.5 889.5,-157.5 "/>
<text text-anchor="middle" x="869" y="-145.5" font-family="Helvetica,sans-Serif" font-size="10.00" fill="#000000"> </text>
</g>
<!-- Node10&#45;&gt;Node1 -->
<g id="edge10" class="edge">
<title>Node10&#45;&gt;Node1</title>
<path fill="none" stroke="#404040" d="M863.8634,-138.3462C858.6442,-117.8134 848.4414,-91.2002 829,-76 800.3621,-53.6095 710.3476,-41.2735 641.4313,-34.9251"/>
<polygon fill="none" stroke="#404040" points="641.2168,-34.9062 634.8867,-38.3602 629.2638,-33.8455 635.5939,-30.3915 641.2168,-34.9062"/>
<text text-anchor="middle" x="865.5" y="-90" font-family="Helvetica,sans-Serif" font-size="10.00" fill="#000000"> +pid</text>
</g>
<!-- Node11 -->
<g id="node11" class="node">
<title>Node11</title>
<polygon fill="none" stroke="#bfbfbf" points="908,-138.5 908,-195.5 946,-195.5 946,-138.5 908,-138.5"/>
<text text-anchor="middle" x="927" y="-183.5" font-family="Helvetica,sans-Serif" font-size="10.00" fill="#000000">bool</text>
<polyline fill="none" stroke="#bfbfbf" points="908,-176.5 946,-176.5 "/>
<text text-anchor="middle" x="927" y="-164.5" font-family="Helvetica,sans-Serif" font-size="10.00" fill="#000000"> </text>
<polyline fill="none" stroke="#bfbfbf" points="908,-157.5 946,-157.5 "/>
<text text-anchor="middle" x="927" y="-145.5" font-family="Helvetica,sans-Serif" font-size="10.00" fill="#000000"> </text>
</g>
<!-- Node11&#45;&gt;Node1 -->
<g id="edge11" class="edge">
<title>Node11&#45;&gt;Node1</title>
<path fill="none" stroke="#404040" d="M920.688,-138.1219C914.6091,-117.4745 903.2534,-90.8164 883,-76 845.6081,-48.646 725.1815,-37.0988 641.4135,-32.3018"/>
<polygon fill="none" stroke="#404040" points="641.3167,-32.2966 635.1074,-35.9633 629.3345,-31.6419 635.5438,-27.9752 641.3167,-32.2966"/>
<text text-anchor="middle" x="941.5" y="-95.5" font-family="Helvetica,sans-Serif" font-size="10.00" fill="#000000"> +active</text>
<text text-anchor="middle" x="941.5" y="-84.5" font-family="Helvetica,sans-Serif" font-size="10.00" fill="#000000">+readyToQuit</text>
</g>
</g>
</svg>
        <g id="navigator" transform="translate(0 0)" fill="#404254">
                <rect fill="#f2f5e9" fill-opacity="0.5" stroke="#606060" stroke-width=".5" x="0" y="0" width="60" height="60"/>
                <use id="zoomplus" xlink:href="#zoomPlus" x="17" y="9" onmousedown="handleZoom(evt,'in')"/>
                <use id="zoomminus" xlink:href="#zoomMin" x="42" y="9" onmousedown="handleZoom(evt,'out')"/>
                <use id="reset" xlink:href="#resetDef" x="30" y="36" onmousedown="handleReset()"/>
                <g id="arrowUp" xlink:href="#dirArrow" transform="translate(30 24)" onmousedown="handlePan(0,-1)">
                  <use xlink:href="#rim" fill="#404040">
                        <set attributeName="fill" to="#808080" begin="arrowUp.mouseover" end="arrowUp.mouseout"/>
                  </use>
                  <path fill="none" stroke="white" stroke-width="1.5" d="M0,-3.0v7 M-2.5,-0.5L0,-3.0L2.5,-0.5"/>
                </g>
                <g id="arrowRight" xlink:href="#dirArrow" transform="rotate(90) translate(36 -43)" onmousedown="handlePan(1,0)">
                  <use xlink:href="#rim" fill="#404040">
                        <set attributeName="fill" to="#808080" begin="arrowRight.mouseover" end="arrowRight.mouseout"/>
                  </use>
                  <path fill="none" stroke="white" stroke-width="1.5" d="M0,-3.0v7 M-2.5,-0.5L0,-3.0L2.5,-0.5"/>
                </g>
                <g id="arrowDown" xlink:href="#dirArrow" transform="rotate(180) translate(-30 -48)" onmousedown="handlePan(0,1)">
                  <use xlink:href="#rim" fill="#404040">
                        <set attributeName="fill" to="#808080" begin="arrowDown.mouseover" end="arrowDown.mouseout"/>
                  </use>
                  <path fill="none" stroke="white" stroke-width="1.5" d="M0,-3.0v7 M-2.5,-0.5L0,-3.0L2.5,-0.5"/>
                </g>
                <g id="arrowLeft" xlink:href="#dirArrow" transform="rotate(270) translate(-36 17)" onmousedown="handlePan(-1,0)">
                  <use xlink:href="#rim" fill="#404040">
                        <set attributeName="fill" to="#808080" begin="arrowLeft.mouseover" end="arrowLeft.mouseout"/>
                  </use>
                  <path fill="none" stroke="white" stroke-width="1.5" d="M0,-3.0v7 M-2.5,-0.5L0,-3.0L2.5,-0.5"/>
                </g>
        </g>
        <svg viewBox="0 0 15 15" width="100%" height="30px" preserveAspectRatio="xMaxYMin meet">
         <g id="arrow_out" transform="scale(0.3 0.3)">
          <a xlink:href="structo2_1_1framework_1_1DeviceInfo__coll__graph_org.svg" target="_base">
           <rect id="button" ry="5" rx="5" y="6" x="6" height="38" width="38"
                fill="#f2f5e9" fill-opacity="0.5" stroke="#606060" stroke-width="1.0"/>
           <path id="arrow"
             d="M 11.500037,31.436501 C 11.940474,20.09759 22.043105,11.32322 32.158766,21.979434 L 37.068811,17.246167 C 37.068811,17.246167 37.088388,32 37.088388,32 L 22.160133,31.978069 C 22.160133,31.978069 26.997745,27.140456 26.997745,27.140456 C 18.528582,18.264221 13.291696,25.230495 11.500037,31.436501 z"
             style="fill:#404040;"/>
          </a>
         </g>
        </svg>
</svg>
