<?xml version="1.0" encoding="UTF-8" standalone="no"?>
<!DOCTYPE svg PUBLIC "-//W3C//DTD SVG 1.1//EN"
 "http://www.w3.org/Graphics/SVG/1.1/DTD/svg11.dtd">
<!-- Generated by graphviz version 2.40.1 (20161225.0304)
 -->
<!-- Title: /home/travis/build/AliceO2Group/AliceO2/Detectors/EMCAL/workflow Pages: 1 -->
<svg width="289pt" height="519pt"
 viewBox="0.00 0.00 289.16 519.00" xmlns="http://www.w3.org/2000/svg" xmlns:xlink="http://www.w3.org/1999/xlink">
<g id="graph0" class="graph" transform="scale(1 1) rotate(0) translate(4 515)">
<title>/home/travis/build/AliceO2Group/AliceO2/Detectors/EMCAL/workflow</title>
<g id="clust1" class="cluster">
<title>clusterdir_088378b58cb1ba39db48039cbd66d10f</title>
<g id="a_clust1"><a xlink:href="dir_088378b58cb1ba39db48039cbd66d10f.html" target="_top" xlink:title="EMCAL">
<polygon fill="#ddddee" stroke="#000000" points="31,-344 31,-503 197,-503 197,-344 31,-344"/>
<text text-anchor="middle" x="114" y="-491" font-family="Helvetica,sans-Serif" font-size="10.00" fill="#000000">EMCAL</text>
</a>
</g>
</g>
<g id="clust2" class="cluster">
<title>clusterdir_ee205545fda14b0cface4520402ad101</title>
<g id="a_clust2"><a xlink:href="dir_ee205545fda14b0cface4520402ad101.html" target="_top">
<polygon fill="#eeeeff" stroke="#000000" points="39,-352 39,-476 189,-476 189,-352 39,-352"/>
</a>
</g>
</g>
<!-- dir_ee205545fda14b0cface4520402ad101 -->
<g id="node1" class="node">
<title>dir_ee205545fda14b0cface4520402ad101</title>
<text text-anchor="middle" x="150" y="-447.5" font-family="Helvetica,sans-Serif" font-size="10.00" fill="#000000">workflow</text>
</g>
<!-- dir_6dc85dba809f06ca1f8457b707bb34c8 -->
<g id="node2" class="node">
<title>dir_6dc85dba809f06ca1f8457b707bb34c8</title>
<g id="a_node2"><a xlink:href="dir_6dc85dba809f06ca1f8457b707bb34c8.html" target="_top" xlink:title="include">
<polygon fill="#ffffff" stroke="#ff0000" points="179,-396 125,-396 125,-360 179,-360 179,-396"/>
<text text-anchor="middle" x="152" y="-375.5" font-family="Helvetica,sans-Serif" font-size="10.00" fill="#000000">include</text>
</a>
</g>
</g>
<!-- dir_43247e9473992ee8ffdfc874c5267163 -->
<g id="node4" class="node">
<title>dir_43247e9473992ee8ffdfc874c5267163</title>
<g id="a_node4"><a xlink:href="dir_43247e9473992ee8ffdfc874c5267163.html" target="_top" xlink:title="reconstruction">
<polygon fill="none" stroke="#ff0000" points="266,-324 180,-324 180,-288 266,-288 266,-324"/>
<text text-anchor="middle" x="223" y="-303.5" font-family="Helvetica,sans-Serif" font-size="10.00" fill="#000000">reconstruction</text>
</a>
</g>
</g>
<!-- dir_6dc85dba809f06ca1f8457b707bb34c8&#45;&gt;dir_43247e9473992ee8ffdfc874c5267163 -->
<g id="edge11" class="edge">
<title>dir_6dc85dba809f06ca1f8457b707bb34c8&#45;&gt;dir_43247e9473992ee8ffdfc874c5267163</title>
<path fill="none" stroke="#000000" d="M169.9163,-359.8314C178.3442,-351.2848 188.541,-340.9443 197.736,-331.6198"/>
<polygon fill="#000000" stroke="#000000" points="200.3131,-333.9912 204.8425,-324.4133 195.3289,-329.0761 200.3131,-333.9912"/>
<g id="a_edge11&#45;headlabel"><a xlink:href="dir_000370_000234.html" target="_top" xlink:title="1">
<text text-anchor="middle" x="199.8109" y="-336.0442" font-family="Helvetica,sans-Serif" font-size="10.00" fill="#000000">1</text>
</a>
</g>
</g>
<!-- dir_478733f24fb8878a4cdf7773310adedd -->
<g id="node6" class="node">
<title>dir_478733f24fb8878a4cdf7773310adedd</title>
<g id="a_node6"><a xlink:href="dir_478733f24fb8878a4cdf7773310adedd.html" target="_top" xlink:title="base">
<polygon fill="none" stroke="#ff0000" points="272,-252 218,-252 218,-216 272,-216 272,-252"/>
<text text-anchor="middle" x="245" y="-231.5" font-family="Helvetica,sans-Serif" font-size="10.00" fill="#000000">base</text>
</a>
</g>
</g>
<!-- dir_6dc85dba809f06ca1f8457b707bb34c8&#45;&gt;dir_478733f24fb8878a4cdf7773310adedd -->
<g id="edge12" class="edge">
<title>dir_6dc85dba809f06ca1f8457b707bb34c8&#45;&gt;dir_478733f24fb8878a4cdf7773310adedd</title>
<path fill="none" stroke="#000000" d="M179.0686,-374.6886C208.3975,-369.496 253.8309,-356.4132 275,-324 287.673,-304.5958 277.3501,-279.3312 265.4825,-260.5115"/>
<polygon fill="#000000" stroke="#000000" points="268.3059,-258.4381 259.8131,-252.1038 262.5021,-262.3517 268.3059,-258.4381"/>
<g id="a_edge12&#45;headlabel"><a xlink:href="dir_000370_000189.html" target="_top" xlink:title="1">
<text text-anchor="middle" x="272.6696" y="-257.331" font-family="Helvetica,sans-Serif" font-size="10.00" fill="#000000">1</text>
</a>
</g>
</g>
<!-- dir_bcbb2cf9a3d3d83e5515c82071a07177 -->
<g id="node7" class="node">
<title>dir_bcbb2cf9a3d3d83e5515c82071a07177</title>
<g id="a_node7"><a xlink:href="dir_bcbb2cf9a3d3d83e5515c82071a07177.html" target="_top" xlink:title="Framework">
<polygon fill="none" stroke="#ff0000" points="144.5,-108 73.5,-108 73.5,-72 144.5,-72 144.5,-108"/>
<text text-anchor="middle" x="109" y="-87.5" font-family="Helvetica,sans-Serif" font-size="10.00" fill="#000000">Framework</text>
</a>
</g>
</g>
<!-- dir_6dc85dba809f06ca1f8457b707bb34c8&#45;&gt;dir_bcbb2cf9a3d3d83e5515c82071a07177 -->
<g id="edge13" class="edge">
<title>dir_6dc85dba809f06ca1f8457b707bb34c8&#45;&gt;dir_bcbb2cf9a3d3d83e5515c82071a07177</title>
<path fill="none" stroke="#000000" d="M149.3102,-359.9843C142.0404,-311.2939 121.9591,-176.7961 113.1891,-118.0573"/>
<polygon fill="#000000" stroke="#000000" points="116.6272,-117.3824 111.6888,-108.0089 109.704,-118.4161 116.6272,-117.3824"/>
<g id="a_edge13&#45;headlabel"><a xlink:href="dir_000370_000044.html" target="_top" xlink:title="9">
<text text-anchor="middle" x="119.9661" y="-118.0183" font-family="Helvetica,sans-Serif" font-size="10.00" fill="#000000">9</text>
</a>
</g>
</g>
<!-- dir_2171f7ec022c5423887b07c69b2f5b48 -->
<g id="node8" class="node">
<title>dir_2171f7ec022c5423887b07c69b2f5b48</title>
<g id="a_node8"><a xlink:href="dir_2171f7ec022c5423887b07c69b2f5b48.html" target="_top" xlink:title="DataFormats">
<polygon fill="none" stroke="#ff0000" points="222,-180 142,-180 142,-144 222,-144 222,-180"/>
<text text-anchor="middle" x="182" y="-159.5" font-family="Helvetica,sans-Serif" font-size="10.00" fill="#000000">DataFormats</text>
</a>
</g>
</g>
<!-- dir_6dc85dba809f06ca1f8457b707bb34c8&#45;&gt;dir_2171f7ec022c5423887b07c69b2f5b48 -->
<g id="edge14" class="edge">
<title>dir_6dc85dba809f06ca1f8457b707bb34c8&#45;&gt;dir_2171f7ec022c5423887b07c69b2f5b48</title>
<path fill="none" stroke="#000000" d="M154.5062,-359.9555C159.7341,-322.3144 171.8352,-235.1867 178.0938,-190.1246"/>
<polygon fill="#000000" stroke="#000000" points="181.5708,-190.5315 179.4799,-180.1451 174.6374,-189.5685 181.5708,-190.5315"/>
<g id="a_edge14&#45;headlabel"><a xlink:href="dir_000370_000068.html" target="_top" xlink:title="2">
<text text-anchor="middle" x="183.8887" y="-191.9825" font-family="Helvetica,sans-Serif" font-size="10.00" fill="#000000">2</text>
</a>
</g>
</g>
<!-- dir_fe570b66ee9607113976552ce149f8ae -->
<g id="node3" class="node">
<title>dir_fe570b66ee9607113976552ce149f8ae</title>
<g id="a_node3"><a xlink:href="dir_fe570b66ee9607113976552ce149f8ae.html" target="_top" xlink:title="src">
<polygon fill="#ffffff" stroke="#000000" points="101,-468 47,-468 47,-432 101,-432 101,-468"/>
<text text-anchor="middle" x="74" y="-447.5" font-family="Helvetica,sans-Serif" font-size="10.00" fill="#000000">src</text>
</a>
</g>
</g>
<!-- dir_fe570b66ee9607113976552ce149f8ae&#45;&gt;dir_6dc85dba809f06ca1f8457b707bb34c8 -->
<g id="edge5" class="edge">
<title>dir_fe570b66ee9607113976552ce149f8ae&#45;&gt;dir_6dc85dba809f06ca1f8457b707bb34c8</title>
<path fill="none" stroke="#000000" d="M93.6827,-431.8314C103.1051,-423.1337 114.5401,-412.5783 124.7796,-403.1265"/>
<polygon fill="#000000" stroke="#000000" points="127.3495,-405.5175 132.3236,-396.1628 122.6016,-400.3738 127.3495,-405.5175"/>
<g id="a_edge5&#45;headlabel"><a xlink:href="dir_000394_000370.html" target="_top" xlink:title="10">
<text text-anchor="middle" x="126.634" y="-407.5419" font-family="Helvetica,sans-Serif" font-size="10.00" fill="#000000">10</text>
</a>
</g>
</g>
<!-- dir_8ba487e25de5ee77e05e9dce7582cb98 -->
<g id="node5" class="node">
<title>dir_8ba487e25de5ee77e05e9dce7582cb98</title>
<g id="a_node5"><a xlink:href="dir_8ba487e25de5ee77e05e9dce7582cb98.html" target="_top" xlink:title="Algorithm">
<polygon fill="none" stroke="#ff0000" points="177.5,-36 112.5,-36 112.5,0 177.5,0 177.5,-36"/>
<text text-anchor="middle" x="145" y="-15.5" font-family="Helvetica,sans-Serif" font-size="10.00" fill="#000000">Algorithm</text>
</a>
</g>
</g>
<!-- dir_fe570b66ee9607113976552ce149f8ae&#45;&gt;dir_8ba487e25de5ee77e05e9dce7582cb98 -->
<g id="edge3" class="edge">
<title>dir_fe570b66ee9607113976552ce149f8ae&#45;&gt;dir_8ba487e25de5ee77e05e9dce7582cb98</title>
<path fill="none" stroke="#000000" d="M57.577,-431.9758C35.776,-406.1064 0,-356.032 0,-306 0,-306 0,-306 0,-162 0,-103.3309 60.5037,-60.3714 103.3449,-37.3065"/>
<polygon fill="#000000" stroke="#000000" points="105.2116,-40.2804 112.4592,-32.5524 101.9742,-34.074 105.2116,-40.2804"/>
<g id="a_edge3&#45;headlabel"><a xlink:href="dir_000394_000000.html" target="_top" xlink:title="2">
<text text-anchor="middle" x="103.3376" y="-41.9602" font-family="Helvetica,sans-Serif" font-size="10.00" fill="#000000">2</text>
</a>
</g>
</g>
<!-- dir_fe570b66ee9607113976552ce149f8ae&#45;&gt;dir_bcbb2cf9a3d3d83e5515c82071a07177 -->
<g id="edge4" class="edge">
<title>dir_fe570b66ee9607113976552ce149f8ae&#45;&gt;dir_bcbb2cf9a3d3d83e5515c82071a07177</title>
<path fill="none" stroke="#000000" d="M66.3653,-431.7257C55.7979,-404.7325 38,-352.3849 38,-306 38,-306 38,-306 38,-234 38,-189.0363 66.1913,-143.5617 87.0456,-116.0733"/>
<polygon fill="#000000" stroke="#000000" points="89.8448,-118.1755 93.2428,-108.1403 84.3284,-113.8661 89.8448,-118.1755"/>
<g id="a_edge4&#45;headlabel"><a xlink:href="dir_000394_000044.html" target="_top" xlink:title="13">
<text text-anchor="middle" x="89.8694" y="-120.256" font-family="Helvetica,sans-Serif" font-size="10.00" fill="#000000">13</text>
</a>
</g>
</g>
<!-- dir_fe570b66ee9607113976552ce149f8ae&#45;&gt;dir_2171f7ec022c5423887b07c69b2f5b48 -->
<g id="edge6" class="edge">
<title>dir_fe570b66ee9607113976552ce149f8ae&#45;&gt;dir_2171f7ec022c5423887b07c69b2f5b48</title>
<path fill="none" stroke="#000000" d="M80.7559,-431.9843C99.0527,-383.1929 149.6609,-248.2377 171.6152,-189.6927"/>
<polygon fill="#000000" stroke="#000000" points="175.0125,-190.6011 175.2467,-180.0089 168.4582,-188.1432 175.0125,-190.6011"/>
<g id="a_edge6&#45;headlabel"><a xlink:href="dir_000394_000068.html" target="_top" xlink:title="16">
<text text-anchor="middle" x="176.4089" y="-192.4638" font-family="Helvetica,sans-Serif" font-size="10.00" fill="#000000">16</text>
</a>
</g>
</g>
<!-- dir_43247e9473992ee8ffdfc874c5267163&#45;&gt;dir_478733f24fb8878a4cdf7773310adedd -->
<g id="edge1" class="edge">
<title>dir_43247e9473992ee8ffdfc874c5267163&#45;&gt;dir_478733f24fb8878a4cdf7773310adedd</title>
<path fill="none" stroke="#000000" d="M228.5515,-287.8314C230.9303,-280.0463 233.7638,-270.7729 236.4033,-262.1347"/>
<polygon fill="#000000" stroke="#000000" points="239.7987,-262.9996 239.3737,-252.4133 233.1042,-260.954 239.7987,-262.9996"/>
<g id="a_edge1&#45;headlabel"><a xlink:href="dir_000234_000189.html" target="_top" xlink:title="2">
<text text-anchor="middle" x="241.4637" y="-264.767" font-family="Helvetica,sans-Serif" font-size="10.00" fill="#000000">2</text>
</a>
</g>
</g>
<!-- dir_43247e9473992ee8ffdfc874c5267163&#45;&gt;dir_2171f7ec022c5423887b07c69b2f5b48 -->
<g id="edge2" class="edge">
<title>dir_43247e9473992ee8ffdfc874c5267163&#45;&gt;dir_2171f7ec022c5423887b07c69b2f5b48</title>
<path fill="none" stroke="#000000" d="M217.8073,-287.7623C210.7834,-263.0928 198.1892,-218.8598 189.9646,-189.9731"/>
<polygon fill="#000000" stroke="#000000" points="193.2552,-188.7489 187.1505,-180.0896 186.5228,-190.6658 193.2552,-188.7489"/>
<g id="a_edge2&#45;headlabel"><a xlink:href="dir_000234_000068.html" target="_top" xlink:title="17">
<text text-anchor="middle" x="196.9702" y="-188.9286" font-family="Helvetica,sans-Serif" font-size="10.00" fill="#000000">17</text>
</a>
</g>
</g>
<!-- dir_8ba487e25de5ee77e05e9dce7582cb98&#45;&gt;dir_2171f7ec022c5423887b07c69b2f5b48 -->
<g id="edge7" class="edge">
<title>dir_8ba487e25de5ee77e05e9dce7582cb98&#45;&gt;dir_2171f7ec022c5423887b07c69b2f5b48</title>
<path fill="none" stroke="#000000" d="M154.3063,-36.0896C163.1043,-60.6805 174.7427,-104.905 180.2515,-133.8531"/>
<polygon fill="#000000" stroke="#000000" points="176.8142,-134.5161 181.9871,-143.7623 183.7093,-133.3084 176.8142,-134.5161"/>
<g id="a_edge7&#45;headlabel"><a xlink:href="dir_000000_000068.html" target="_top" xlink:title="8">
<text text-anchor="middle" x="173.3975" y="-128.9652" font-family="Helvetica,sans-Serif" font-size="10.00" fill="#000000">8</text>
</a>
</g>
</g>
<!-- dir_478733f24fb8878a4cdf7773310adedd&#45;&gt;dir_2171f7ec022c5423887b07c69b2f5b48 -->
<g id="edge8" class="edge">
<title>dir_478733f24fb8878a4cdf7773310adedd&#45;&gt;dir_2171f7ec022c5423887b07c69b2f5b48</title>
<path fill="none" stroke="#000000" d="M229.1024,-215.8314C221.7722,-207.454 212.934,-197.3531 204.9031,-188.1749"/>
<polygon fill="#000000" stroke="#000000" points="207.3307,-185.6343 198.1116,-180.4133 202.0627,-190.2438 207.3307,-185.6343"/>
<g id="a_edge8&#45;headlabel"><a xlink:href="dir_000189_000068.html" target="_top" xlink:title="4">
<text text-anchor="middle" x="211.8345" y="-183.9698" font-family="Helvetica,sans-Serif" font-size="10.00" fill="#000000">4</text>
</a>
</g>
</g>
<!-- dir_bcbb2cf9a3d3d83e5515c82071a07177&#45;&gt;dir_8ba487e25de5ee77e05e9dce7582cb98 -->
<g id="edge9" class="edge">
<title>dir_bcbb2cf9a3d3d83e5515c82071a07177&#45;&gt;dir_8ba487e25de5ee77e05e9dce7582cb98</title>
<path fill="none" stroke="#000000" d="M118.0843,-71.8314C122.0615,-63.8771 126.8155,-54.369 131.2139,-45.5723"/>
<polygon fill="#000000" stroke="#000000" points="134.4517,-46.9228 135.7934,-36.4133 128.1907,-43.7923 134.4517,-46.9228"/>
<g id="a_edge9&#45;headlabel"><a xlink:href="dir_000044_000000.html" target="_top" xlink:title="1">
<text text-anchor="middle" x="135.3837" y="-48.9077" font-family="Helvetica,sans-Serif" font-size="10.00" fill="#000000">1</text>
</a>
</g>
</g>
<!-- dir_bcbb2cf9a3d3d83e5515c82071a07177&#45;&gt;dir_2171f7ec022c5423887b07c69b2f5b48 -->
<g id="edge10" class="edge">
<title>dir_bcbb2cf9a3d3d83e5515c82071a07177&#45;&gt;dir_2171f7ec022c5423887b07c69b2f5b48</title>
<path fill="none" stroke="#000000" d="M133.3669,-108.1628C142.8429,-116.6891 153.4806,-127.0016 162.4508,-136.3099"/>
<polygon fill="#000000" stroke="#000000" points="160.1285,-138.9492 169.5314,-143.8314 165.2254,-134.151 160.1285,-138.9492"/>
<g id="a_edge10&#45;headlabel"><a xlink:href="dir_000044_000068.html" target="_top" xlink:title="72">
<text text-anchor="middle" x="155.5973" y="-135.778" font-family="Helvetica,sans-Serif" font-size="10.00" fill="#000000">72</text>
</a>
</g>
</g>
<!-- dir_2171f7ec022c5423887b07c69b2f5b48&#45;&gt;dir_8ba487e25de5ee77e05e9dce7582cb98 -->
<g id="edge15" class="edge">
<title>dir_2171f7ec022c5423887b07c69b2f5b48&#45;&gt;dir_8ba487e25de5ee77e05e9dce7582cb98</title>
<path fill="none" stroke="#000000" d="M172.6408,-143.7623C163.8314,-119.0928 152.1997,-74.8598 146.7155,-45.9731"/>
<polygon fill="#000000" stroke="#000000" points="150.1577,-45.3385 144.9897,-36.0896 143.2621,-46.5426 150.1577,-45.3385"/>
<g id="a_edge15&#45;headlabel"><a xlink:href="dir_000068_000000.html" target="_top" xlink:title="1">
<text text-anchor="middle" x="153.5729" y="-45.8912" font-family="Helvetica,sans-Serif" font-size="10.00" fill="#000000">1</text>
</a>
</g>
</g>
<!-- dir_2171f7ec022c5423887b07c69b2f5b48&#45;&gt;dir_bcbb2cf9a3d3d83e5515c82071a07177 -->
<g id="edge16" class="edge">
<title>dir_2171f7ec022c5423887b07c69b2f5b48&#45;&gt;dir_bcbb2cf9a3d3d83e5515c82071a07177</title>
<path fill="none" stroke="#000000" d="M157.6266,-143.8314C148.2225,-135.3694 137.6749,-125.1489 128.7488,-115.8971"/>
<polygon fill="#000000" stroke="#000000" points="131.0996,-113.2884 121.693,-108.4133 126.0063,-118.0904 131.0996,-113.2884"/>
<g id="a_edge16&#45;headlabel"><a xlink:href="dir_000068_000044.html" target="_top" xlink:title="7">
<text text-anchor="middle" x="135.6313" y="-111.4561" font-family="Helvetica,sans-Serif" font-size="10.00" fill="#000000">7</text>
</a>
</g>
</g>
</g>
</svg>
