<?xml version="1.0" encoding="UTF-8" standalone="no"?>
<!DOCTYPE svg PUBLIC "-//W3C//DTD SVG 1.1//EN"
 "http://www.w3.org/Graphics/SVG/1.1/DTD/svg11.dtd">
<!-- Generated by graphviz version 2.40.1 (20161225.0304)
 -->
<!-- Title: /home/travis/build/AliceO2Group/AliceO2/Detectors/TRD/workflow/src Pages: 1 -->
<svg width="369pt" height="439pt"
 viewBox="0.00 0.00 369.00 439.00" xmlns="http://www.w3.org/2000/svg" xmlns:xlink="http://www.w3.org/1999/xlink">
<g id="graph0" class="graph" transform="scale(1 1) rotate(0) translate(4 435)">
<title>/home/travis/build/AliceO2Group/AliceO2/Detectors/TRD/workflow/src</title>
<g id="clust1" class="cluster">
<title>clusterdir_184e1d06e85fb151746c3bdf717cc8ad</title>
<g id="a_clust1"><a xlink:href="dir_184e1d06e85fb151746c3bdf717cc8ad.html" target="_top" xlink:title="workflow">
<polygon fill="#ddddee" stroke="#000000" points="120,-352 120,-423 190,-423 190,-352 120,-352"/>
<text text-anchor="middle" x="155" y="-411" font-family="Helvetica,sans-Serif" font-size="10.00" fill="#000000">workflow</text>
</a>
</g>
</g>
<!-- dir_19cbc61730528058d9acd8ae2ca70332 -->
<g id="node1" class="node">
<title>dir_19cbc61730528058d9acd8ae2ca70332</title>
<g id="a_node1"><a xlink:href="dir_19cbc61730528058d9acd8ae2ca70332.html" target="_top" xlink:title="src">
<polygon fill="#eeeeff" stroke="#000000" points="182,-396 128,-396 128,-360 182,-360 182,-396"/>
<text text-anchor="middle" x="155" y="-375.5" font-family="Helvetica,sans-Serif" font-size="10.00" fill="#000000">src</text>
</a>
</g>
</g>
<!-- dir_40b4a122691869ee86baf7f2711ed718 -->
<g id="node2" class="node">
<title>dir_40b4a122691869ee86baf7f2711ed718</title>
<g id="a_node2"><a xlink:href="dir_40b4a122691869ee86baf7f2711ed718.html" target="_top" xlink:title="Steer">
<polygon fill="none" stroke="#ff0000" points="306,-252 252,-252 252,-216 306,-216 306,-252"/>
<text text-anchor="middle" x="279" y="-231.5" font-family="Helvetica,sans-Serif" font-size="10.00" fill="#000000">Steer</text>
</a>
</g>
</g>
<!-- dir_19cbc61730528058d9acd8ae2ca70332&#45;&gt;dir_40b4a122691869ee86baf7f2711ed718 -->
<g id="edge8" class="edge">
<title>dir_19cbc61730528058d9acd8ae2ca70332&#45;&gt;dir_40b4a122691869ee86baf7f2711ed718</title>
<path fill="none" stroke="#000000" d="M182.1702,-365.4137C199.945,-356.0596 222.6352,-341.8495 238,-324 253.5718,-305.9101 264.3218,-280.9276 270.895,-261.8726"/>
<polygon fill="#000000" stroke="#000000" points="274.2609,-262.8401 274.038,-252.2476 267.6067,-260.6671 274.2609,-262.8401"/>
<g id="a_edge8&#45;headlabel"><a xlink:href="dir_000581_000682.html" target="_top" xlink:title="1">
<text text-anchor="middle" x="275.8442" y="-264.6384" font-family="Helvetica,sans-Serif" font-size="10.00" fill="#000000">1</text>
</a>
</g>
</g>
<!-- dir_37c90836491b695b472bf98d1be8336b -->
<g id="node3" class="node">
<title>dir_37c90836491b695b472bf98d1be8336b</title>
<g id="a_node3"><a xlink:href="dir_37c90836491b695b472bf98d1be8336b.html" target="_top" xlink:title="Base">
<polygon fill="none" stroke="#ff0000" points="213,-180 159,-180 159,-144 213,-144 213,-180"/>
<text text-anchor="middle" x="186" y="-159.5" font-family="Helvetica,sans-Serif" font-size="10.00" fill="#000000">Base</text>
</a>
</g>
</g>
<!-- dir_19cbc61730528058d9acd8ae2ca70332&#45;&gt;dir_37c90836491b695b472bf98d1be8336b -->
<g id="edge9" class="edge">
<title>dir_19cbc61730528058d9acd8ae2ca70332&#45;&gt;dir_37c90836491b695b472bf98d1be8336b</title>
<path fill="none" stroke="#000000" d="M174.4956,-359.9663C183.5103,-350.2894 193.2551,-337.5757 198,-324 213.701,-279.0771 203.4904,-222.9925 194.7052,-189.9774"/>
<polygon fill="#000000" stroke="#000000" points="198.0087,-188.7951 191.9376,-180.1122 191.2689,-190.6859 198.0087,-188.7951"/>
<g id="a_edge9&#45;headlabel"><a xlink:href="dir_000581_000266.html" target="_top" xlink:title="1">
<text text-anchor="middle" x="201.7133" y="-188.9892" font-family="Helvetica,sans-Serif" font-size="10.00" fill="#000000">1</text>
</a>
</g>
</g>
<!-- dir_09bf7f7c4011a5ccc426492db4dd0891 -->
<g id="node4" class="node">
<title>dir_09bf7f7c4011a5ccc426492db4dd0891</title>
<g id="a_node4"><a xlink:href="dir_09bf7f7c4011a5ccc426492db4dd0891.html" target="_top" xlink:title="base">
<polygon fill="none" stroke="#ff0000" points="120,-252 66,-252 66,-216 120,-216 120,-252"/>
<text text-anchor="middle" x="93" y="-231.5" font-family="Helvetica,sans-Serif" font-size="10.00" fill="#000000">base</text>
</a>
</g>
</g>
<!-- dir_19cbc61730528058d9acd8ae2ca70332&#45;&gt;dir_09bf7f7c4011a5ccc426492db4dd0891 -->
<g id="edge10" class="edge">
<title>dir_19cbc61730528058d9acd8ae2ca70332&#45;&gt;dir_09bf7f7c4011a5ccc426492db4dd0891</title>
<path fill="none" stroke="#000000" d="M137.1111,-359.9746C128.289,-350.1105 118.2311,-337.2265 112,-324 102.7834,-304.4363 98.001,-280.3857 95.5406,-262.0699"/>
<polygon fill="#000000" stroke="#000000" points="99.0025,-261.5417 94.3443,-252.0258 92.0516,-262.3696 99.0025,-261.5417"/>
<g id="a_edge10&#45;headlabel"><a xlink:href="dir_000581_000131.html" target="_top" xlink:title="4">
<text text-anchor="middle" x="102.2469" y="-262.2753" font-family="Helvetica,sans-Serif" font-size="10.00" fill="#000000">4</text>
</a>
</g>
</g>
<!-- dir_bcbb2cf9a3d3d83e5515c82071a07177 -->
<g id="node5" class="node">
<title>dir_bcbb2cf9a3d3d83e5515c82071a07177</title>
<g id="a_node5"><a xlink:href="dir_bcbb2cf9a3d3d83e5515c82071a07177.html" target="_top" xlink:title="Framework">
<polygon fill="none" stroke="#ff0000" points="193.5,-36 122.5,-36 122.5,0 193.5,0 193.5,-36"/>
<text text-anchor="middle" x="158" y="-15.5" font-family="Helvetica,sans-Serif" font-size="10.00" fill="#000000">Framework</text>
</a>
</g>
</g>
<!-- dir_19cbc61730528058d9acd8ae2ca70332&#45;&gt;dir_bcbb2cf9a3d3d83e5515c82071a07177 -->
<g id="edge11" class="edge">
<title>dir_19cbc61730528058d9acd8ae2ca70332&#45;&gt;dir_bcbb2cf9a3d3d83e5515c82071a07177</title>
<path fill="none" stroke="#000000" d="M127.6459,-367.38C83.1485,-348.1037 0,-302.8698 0,-234 0,-234 0,-234 0,-162 0,-100.5426 66.1081,-58.3413 112.8012,-36.1989"/>
<polygon fill="#000000" stroke="#000000" points="114.5195,-39.2614 122.1474,-31.9084 111.599,-32.8997 114.5195,-39.2614"/>
<g id="a_edge11&#45;headlabel"><a xlink:href="dir_000581_000044.html" target="_top" xlink:title="9">
<text text-anchor="middle" x="112.4372" y="-40.8414" font-family="Helvetica,sans-Serif" font-size="10.00" fill="#000000">9</text>
</a>
</g>
</g>
<!-- dir_5cb2a8e9fdbe67a11efb4176f60bf3d6 -->
<g id="node6" class="node">
<title>dir_5cb2a8e9fdbe67a11efb4176f60bf3d6</title>
<g id="a_node6"><a xlink:href="dir_5cb2a8e9fdbe67a11efb4176f60bf3d6.html" target="_top" xlink:title="simulation">
<polygon fill="none" stroke="#ff0000" points="189,-324 121,-324 121,-288 189,-288 189,-324"/>
<text text-anchor="middle" x="155" y="-303.5" font-family="Helvetica,sans-Serif" font-size="10.00" fill="#000000">simulation</text>
</a>
</g>
</g>
<!-- dir_19cbc61730528058d9acd8ae2ca70332&#45;&gt;dir_5cb2a8e9fdbe67a11efb4176f60bf3d6 -->
<g id="edge12" class="edge">
<title>dir_19cbc61730528058d9acd8ae2ca70332&#45;&gt;dir_5cb2a8e9fdbe67a11efb4176f60bf3d6</title>
<path fill="none" stroke="#000000" d="M155,-359.8314C155,-352.131 155,-342.9743 155,-334.4166"/>
<polygon fill="#000000" stroke="#000000" points="158.5001,-334.4132 155,-324.4133 151.5001,-334.4133 158.5001,-334.4132"/>
<g id="a_edge12&#45;headlabel"><a xlink:href="dir_000581_000298.html" target="_top" xlink:title="2">
<text text-anchor="middle" x="161.3393" y="-335.5079" font-family="Helvetica,sans-Serif" font-size="10.00" fill="#000000">2</text>
</a>
</g>
</g>
<!-- dir_2171f7ec022c5423887b07c69b2f5b48 -->
<g id="node7" class="node">
<title>dir_2171f7ec022c5423887b07c69b2f5b48</title>
<g id="a_node7"><a xlink:href="dir_2171f7ec022c5423887b07c69b2f5b48.html" target="_top" xlink:title="DataFormats">
<polygon fill="none" stroke="#ff0000" points="198,-108 118,-108 118,-72 198,-72 198,-108"/>
<text text-anchor="middle" x="158" y="-87.5" font-family="Helvetica,sans-Serif" font-size="10.00" fill="#000000">DataFormats</text>
</a>
</g>
</g>
<!-- dir_19cbc61730528058d9acd8ae2ca70332&#45;&gt;dir_2171f7ec022c5423887b07c69b2f5b48 -->
<g id="edge13" class="edge">
<title>dir_19cbc61730528058d9acd8ae2ca70332&#45;&gt;dir_2171f7ec022c5423887b07c69b2f5b48</title>
<path fill="none" stroke="#000000" d="M131.4584,-359.907C97.6438,-331.5369 41.046,-273.8288 57,-216 68.3517,-174.8533 101.9247,-138.0825 127.2728,-115.0363"/>
<polygon fill="#000000" stroke="#000000" points="129.6747,-117.5844 134.8417,-108.335 125.0344,-112.3434 129.6747,-117.5844"/>
<g id="a_edge13&#45;headlabel"><a xlink:href="dir_000581_000068.html" target="_top" xlink:title="7">
<text text-anchor="middle" x="128.8655" y="-119.593" font-family="Helvetica,sans-Serif" font-size="10.00" fill="#000000">7</text>
</a>
</g>
</g>
<!-- dir_11da180be91271a1ebdaa9322b1ad99a -->
<g id="node8" class="node">
<title>dir_11da180be91271a1ebdaa9322b1ad99a</title>
<g id="a_node8"><a xlink:href="dir_11da180be91271a1ebdaa9322b1ad99a.html" target="_top" xlink:title="include">
<polygon fill="none" stroke="#ff0000" points="361,-180 307,-180 307,-144 361,-144 361,-180"/>
<text text-anchor="middle" x="334" y="-159.5" font-family="Helvetica,sans-Serif" font-size="10.00" fill="#000000">include</text>
</a>
</g>
</g>
<!-- dir_19cbc61730528058d9acd8ae2ca70332&#45;&gt;dir_11da180be91271a1ebdaa9322b1ad99a -->
<g id="edge14" class="edge">
<title>dir_19cbc61730528058d9acd8ae2ca70332&#45;&gt;dir_11da180be91271a1ebdaa9322b1ad99a</title>
<path fill="none" stroke="#000000" d="M182.4295,-368.5453C205.64,-359.6043 238.881,-344.5005 263,-324 293.0765,-298.4358 299.0209,-288.0942 315,-252 323.7004,-232.3472 328.5041,-208.4834 331.1036,-190.2682"/>
<polygon fill="#000000" stroke="#000000" points="334.5851,-190.6359 332.3923,-180.2705 327.6425,-189.741 334.5851,-190.6359"/>
<g id="a_edge14&#45;headlabel"><a xlink:href="dir_000581_000579.html" target="_top" xlink:title="2">
<text text-anchor="middle" x="336.9416" y="-192.064" font-family="Helvetica,sans-Serif" font-size="10.00" fill="#000000">2</text>
</a>
</g>
</g>
<!-- dir_40b4a122691869ee86baf7f2711ed718&#45;&gt;dir_37c90836491b695b472bf98d1be8336b -->
<g id="edge1" class="edge">
<title>dir_40b4a122691869ee86baf7f2711ed718&#45;&gt;dir_37c90836491b695b472bf98d1be8336b</title>
<path fill="none" stroke="#000000" d="M255.5322,-215.8314C243.9673,-206.8779 229.8596,-195.9558 217.3817,-186.2955"/>
<polygon fill="#000000" stroke="#000000" points="219.5102,-183.5171 209.4603,-180.1628 215.225,-189.0521 219.5102,-183.5171"/>
<g id="a_edge1&#45;headlabel"><a xlink:href="dir_000682_000266.html" target="_top" xlink:title="13">
<text text-anchor="middle" x="224.0906" y="-180.9725" font-family="Helvetica,sans-Serif" font-size="10.00" fill="#000000">13</text>
</a>
</g>
</g>
<!-- dir_40b4a122691869ee86baf7f2711ed718&#45;&gt;dir_bcbb2cf9a3d3d83e5515c82071a07177 -->
<g id="edge2" class="edge">
<title>dir_40b4a122691869ee86baf7f2711ed718&#45;&gt;dir_bcbb2cf9a3d3d83e5515c82071a07177</title>
<path fill="none" stroke="#000000" d="M274.4858,-215.9643C269.5591,-197.4676 260.8987,-168.0782 250,-144 234.6302,-110.0441 229.1881,-101.9487 207,-72 199.7725,-62.2446 191.0831,-52.2196 183.0416,-43.4963"/>
<polygon fill="#000000" stroke="#000000" points="185.5915,-41.0988 176.1947,-36.2049 180.4887,-45.8906 185.5915,-41.0988"/>
<g id="a_edge2&#45;headlabel"><a xlink:href="dir_000682_000044.html" target="_top" xlink:title="155">
<text text-anchor="middle" x="190.1219" y="-39.2755" font-family="Helvetica,sans-Serif" font-size="10.00" fill="#000000">155</text>
</a>
</g>
</g>
<!-- dir_40b4a122691869ee86baf7f2711ed718&#45;&gt;dir_2171f7ec022c5423887b07c69b2f5b48 -->
<g id="edge3" class="edge">
<title>dir_40b4a122691869ee86baf7f2711ed718&#45;&gt;dir_2171f7ec022c5423887b07c69b2f5b48</title>
<path fill="none" stroke="#000000" d="M269.7437,-215.992C259.5061,-196.9938 241.8162,-166.7191 222,-144 212.786,-133.4362 201.4335,-123.1694 190.8607,-114.4745"/>
<polygon fill="#000000" stroke="#000000" points="192.9673,-111.6775 182.9759,-108.153 188.5887,-117.139 192.9673,-111.6775"/>
<g id="a_edge3&#45;headlabel"><a xlink:href="dir_000682_000068.html" target="_top" xlink:title="136">
<text text-anchor="middle" x="197.5479" y="-109.2107" font-family="Helvetica,sans-Serif" font-size="10.00" fill="#000000">136</text>
</a>
</g>
</g>
<!-- dir_40b4a122691869ee86baf7f2711ed718&#45;&gt;dir_11da180be91271a1ebdaa9322b1ad99a -->
<g id="edge4" class="edge">
<title>dir_40b4a122691869ee86baf7f2711ed718&#45;&gt;dir_11da180be91271a1ebdaa9322b1ad99a</title>
<path fill="none" stroke="#000000" d="M292.8788,-215.8314C299.2136,-207.5386 306.8384,-197.557 313.7926,-188.4533"/>
<polygon fill="#000000" stroke="#000000" points="316.6452,-190.4847 319.9343,-180.4133 311.0825,-186.2353 316.6452,-190.4847"/>
<g id="a_edge4&#45;headlabel"><a xlink:href="dir_000682_000579.html" target="_top" xlink:title="2">
<text text-anchor="middle" x="316.7195" y="-192.5647" font-family="Helvetica,sans-Serif" font-size="10.00" fill="#000000">2</text>
</a>
</g>
</g>
<!-- dir_37c90836491b695b472bf98d1be8336b&#45;&gt;dir_2171f7ec022c5423887b07c69b2f5b48 -->
<g id="edge5" class="edge">
<title>dir_37c90836491b695b472bf98d1be8336b&#45;&gt;dir_2171f7ec022c5423887b07c69b2f5b48</title>
<path fill="none" stroke="#000000" d="M172.982,-143.8314C169.1958,-136.0463 165.3721,-126.7729 162.3366,-118.1347"/>
<polygon fill="#000000" stroke="#000000" points="165.5983,-116.8463 159.1847,-108.4133 158.9395,-119.0053 165.5983,-116.8463"/>
<g id="a_edge5&#45;headlabel"><a xlink:href="dir_000266_000068.html" target="_top" xlink:title="7">
<text text-anchor="middle" x="169.4077" y="-116.8901" font-family="Helvetica,sans-Serif" font-size="10.00" fill="#000000">7</text>
</a>
</g>
</g>
<!-- dir_09bf7f7c4011a5ccc426492db4dd0891&#45;&gt;dir_37c90836491b695b472bf98d1be8336b -->
<g id="edge6" class="edge">
<title>dir_09bf7f7c4011a5ccc426492db4dd0891&#45;&gt;dir_37c90836491b695b472bf98d1be8336b</title>
<path fill="none" stroke="#000000" d="M116.4678,-215.8314C128.0327,-206.8779 142.1404,-195.9558 154.6183,-186.2955"/>
<polygon fill="#000000" stroke="#000000" points="156.775,-189.0521 162.5397,-180.1628 152.4898,-183.5171 156.775,-189.0521"/>
<g id="a_edge6&#45;headlabel"><a xlink:href="dir_000131_000266.html" target="_top" xlink:title="2">
<text text-anchor="middle" x="155.6708" y="-190.9977" font-family="Helvetica,sans-Serif" font-size="10.00" fill="#000000">2</text>
</a>
</g>
</g>
<!-- dir_09bf7f7c4011a5ccc426492db4dd0891&#45;&gt;dir_2171f7ec022c5423887b07c69b2f5b48 -->
<g id="edge7" class="edge">
<title>dir_09bf7f7c4011a5ccc426492db4dd0891&#45;&gt;dir_2171f7ec022c5423887b07c69b2f5b48</title>
<path fill="none" stroke="#000000" d="M95.7353,-215.6785C99.0156,-196.9543 105.5584,-167.3865 117,-144 121.7332,-134.3253 128.3207,-124.668 134.8323,-116.2515"/>
<polygon fill="#000000" stroke="#000000" points="137.6959,-118.2761 141.247,-108.2941 132.2461,-113.8828 137.6959,-118.2761"/>
<g id="a_edge7&#45;headlabel"><a xlink:href="dir_000131_000068.html" target="_top" xlink:title="6">
<text text-anchor="middle" x="137.6504" y="-120.3565" font-family="Helvetica,sans-Serif" font-size="10.00" fill="#000000">6</text>
</a>
</g>
</g>
<!-- dir_bcbb2cf9a3d3d83e5515c82071a07177&#45;&gt;dir_2171f7ec022c5423887b07c69b2f5b48 -->
<g id="edge15" class="edge">
<title>dir_bcbb2cf9a3d3d83e5515c82071a07177&#45;&gt;dir_2171f7ec022c5423887b07c69b2f5b48</title>
<path fill="none" stroke="#000000" d="M163.976,-36.4133C164.7071,-44.0593 164.9203,-53.1084 164.6155,-61.5726"/>
<polygon fill="#000000" stroke="#000000" points="161.1048,-61.6264 163.9524,-71.8314 168.0902,-62.078 161.1048,-61.6264"/>
<g id="a_edge15&#45;headlabel"><a xlink:href="dir_000044_000068.html" target="_top" xlink:title="72">
<text text-anchor="middle" x="158.5032" y="-55.3562" font-family="Helvetica,sans-Serif" font-size="10.00" fill="#000000">72</text>
</a>
</g>
</g>
<!-- dir_5cb2a8e9fdbe67a11efb4176f60bf3d6&#45;&gt;dir_37c90836491b695b472bf98d1be8336b -->
<g id="edge16" class="edge">
<title>dir_5cb2a8e9fdbe67a11efb4176f60bf3d6&#45;&gt;dir_37c90836491b695b472bf98d1be8336b</title>
<path fill="none" stroke="#000000" d="M158.9262,-287.7623C164.237,-263.0928 173.7594,-218.8598 179.978,-189.9731"/>
<polygon fill="#000000" stroke="#000000" points="183.4227,-190.6023 182.1057,-180.0896 176.5795,-189.129 183.4227,-190.6023"/>
<g id="a_edge16&#45;headlabel"><a xlink:href="dir_000298_000266.html" target="_top" xlink:title="2">
<text text-anchor="middle" x="185.4419" y="-192.2139" font-family="Helvetica,sans-Serif" font-size="10.00" fill="#000000">2</text>
</a>
</g>
</g>
<!-- dir_5cb2a8e9fdbe67a11efb4176f60bf3d6&#45;&gt;dir_09bf7f7c4011a5ccc426492db4dd0891 -->
<g id="edge17" class="edge">
<title>dir_5cb2a8e9fdbe67a11efb4176f60bf3d6&#45;&gt;dir_09bf7f7c4011a5ccc426492db4dd0891</title>
<path fill="none" stroke="#000000" d="M139.3548,-287.8314C132.1409,-279.454 123.443,-269.3531 115.5395,-260.1749"/>
<polygon fill="#000000" stroke="#000000" points="118.0333,-257.7071 108.8559,-252.4133 112.7289,-262.2748 118.0333,-257.7071"/>
<g id="a_edge17&#45;headlabel"><a xlink:href="dir_000298_000131.html" target="_top" xlink:title="11">
<text text-anchor="middle" x="122.5304" y="-256.0783" font-family="Helvetica,sans-Serif" font-size="10.00" fill="#000000">11</text>
</a>
</g>
</g>
<!-- dir_5cb2a8e9fdbe67a11efb4176f60bf3d6&#45;&gt;dir_2171f7ec022c5423887b07c69b2f5b48 -->
<g id="edge18" class="edge">
<title>dir_5cb2a8e9fdbe67a11efb4176f60bf3d6&#45;&gt;dir_2171f7ec022c5423887b07c69b2f5b48</title>
<path fill="none" stroke="#000000" d="M153.2204,-287.9945C150.5365,-258.0633 146.1546,-196.196 150,-144 150.6169,-135.6264 151.7649,-126.5812 153.0026,-118.3322"/>
<polygon fill="#000000" stroke="#000000" points="156.4648,-118.8463 154.585,-108.4196 149.5523,-117.7428 156.4648,-118.8463"/>
<g id="a_edge18&#45;headlabel"><a xlink:href="dir_000298_000068.html" target="_top" xlink:title="3">
<text text-anchor="middle" x="158.702" y="-120.3436" font-family="Helvetica,sans-Serif" font-size="10.00" fill="#000000">3</text>
</a>
</g>
</g>
<!-- dir_2171f7ec022c5423887b07c69b2f5b48&#45;&gt;dir_37c90836491b695b472bf98d1be8336b -->
<g id="edge19" class="edge">
<title>dir_2171f7ec022c5423887b07c69b2f5b48&#45;&gt;dir_37c90836491b695b472bf98d1be8336b</title>
<path fill="none" stroke="#000000" d="M171.1367,-108.4133C174.9236,-116.2292 178.7394,-125.5113 181.7584,-134.136"/>
<polygon fill="#000000" stroke="#000000" points="178.485,-135.3893 184.8868,-143.8314 185.1468,-133.2397 178.485,-135.3893"/>
<g id="a_edge19&#45;headlabel"><a xlink:href="dir_000068_000266.html" target="_top" xlink:title="1">
<text text-anchor="middle" x="174.6792" y="-130.3403" font-family="Helvetica,sans-Serif" font-size="10.00" fill="#000000">1</text>
</a>
</g>
</g>
<!-- dir_2171f7ec022c5423887b07c69b2f5b48&#45;&gt;dir_bcbb2cf9a3d3d83e5515c82071a07177 -->
<g id="edge20" class="edge">
<title>dir_2171f7ec022c5423887b07c69b2f5b48&#45;&gt;dir_bcbb2cf9a3d3d83e5515c82071a07177</title>
<path fill="none" stroke="#000000" d="M152.0476,-71.8314C151.2972,-64.131 151.0763,-54.9743 151.3849,-46.4166"/>
<polygon fill="#000000" stroke="#000000" points="154.8792,-46.6161 152.024,-36.4133 147.8935,-46.1697 154.8792,-46.6161"/>
<g id="a_edge20&#45;headlabel"><a xlink:href="dir_000068_000044.html" target="_top" xlink:title="7">
<text text-anchor="middle" x="157.4836" y="-47.8844" font-family="Helvetica,sans-Serif" font-size="10.00" fill="#000000">7</text>
</a>
</g>
</g>
</g>
</svg>
