<?xml version="1.0" encoding="UTF-8" standalone="no"?>
<!DOCTYPE svg PUBLIC "-//W3C//DTD SVG 1.1//EN"
 "http://www.w3.org/Graphics/SVG/1.1/DTD/svg11.dtd">
<!-- Generated by graphviz version 2.40.1 (20161225.0304)
 -->
<!-- Title: /home/travis/build/AliceO2Group/AliceO2/Detectors/ITSMFT/ITS/QC/TestDataReaderWorkflow/src Pages: 1 -->
<svg width="308pt" height="511pt"
 viewBox="0.00 0.00 308.00 511.00" xmlns="http://www.w3.org/2000/svg" xmlns:xlink="http://www.w3.org/1999/xlink">
<g id="graph0" class="graph" transform="scale(1 1) rotate(0) translate(4 507)">
<title>/home/travis/build/AliceO2Group/AliceO2/Detectors/ITSMFT/ITS/QC/TestDataReaderWorkflow/src</title>
<g id="clust1" class="cluster">
<title>clusterdir_d1f145d255769e420d34c87805445e7e</title>
<g id="a_clust1"><a xlink:href="dir_d1f145d255769e420d34c87805445e7e.html" target="_top" xlink:title="TestDataReaderWorkflow">
<polygon fill="#ddddee" stroke="#000000" points="110,-424 110,-495 248,-495 248,-424 110,-424"/>
<text text-anchor="middle" x="179" y="-483" font-family="Helvetica,sans-Serif" font-size="10.00" fill="#000000">TestDataReaderWorkflow</text>
</a>
</g>
</g>
<!-- dir_ea20de6067ade1946cea1041955da77d -->
<g id="node1" class="node">
<title>dir_ea20de6067ade1946cea1041955da77d</title>
<g id="a_node1"><a xlink:href="dir_ea20de6067ade1946cea1041955da77d.html" target="_top" xlink:title="src">
<polygon fill="#eeeeff" stroke="#000000" points="206,-468 152,-468 152,-432 206,-432 206,-468"/>
<text text-anchor="middle" x="179" y="-447.5" font-family="Helvetica,sans-Serif" font-size="10.00" fill="#000000">src</text>
</a>
</g>
</g>
<!-- dir_eedff867f3c4e67d20b227cb6e0f96ab -->
<g id="node2" class="node">
<title>dir_eedff867f3c4e67d20b227cb6e0f96ab</title>
<g id="a_node2"><a xlink:href="dir_eedff867f3c4e67d20b227cb6e0f96ab.html" target="_top" xlink:title="base">
<polygon fill="none" stroke="#ff0000" points="179,-324 125,-324 125,-288 179,-288 179,-324"/>
<text text-anchor="middle" x="152" y="-303.5" font-family="Helvetica,sans-Serif" font-size="10.00" fill="#000000">base</text>
</a>
</g>
</g>
<!-- dir_ea20de6067ade1946cea1041955da77d&#45;&gt;dir_eedff867f3c4e67d20b227cb6e0f96ab -->
<g id="edge13" class="edge">
<title>dir_ea20de6067ade1946cea1041955da77d&#45;&gt;dir_eedff867f3c4e67d20b227cb6e0f96ab</title>
<path fill="none" stroke="#000000" d="M175.5804,-431.7623C170.9549,-407.0928 162.6612,-362.8598 157.245,-333.9731"/>
<polygon fill="#000000" stroke="#000000" points="160.6748,-333.2733 155.3918,-324.0896 153.7947,-334.5634 160.6748,-333.2733"/>
<g id="a_edge13&#45;headlabel"><a xlink:href="dir_000468_000454.html" target="_top" xlink:title="1">
<text text-anchor="middle" x="164.1278" y="-333.7831" font-family="Helvetica,sans-Serif" font-size="10.00" fill="#000000">1</text>
</a>
</g>
</g>
<!-- dir_37c90836491b695b472bf98d1be8336b -->
<g id="node3" class="node">
<title>dir_37c90836491b695b472bf98d1be8336b</title>
<g id="a_node3"><a xlink:href="dir_37c90836491b695b472bf98d1be8336b.html" target="_top" xlink:title="Base">
<polygon fill="none" stroke="#ff0000" points="234,-252 180,-252 180,-216 234,-216 234,-252"/>
<text text-anchor="middle" x="207" y="-231.5" font-family="Helvetica,sans-Serif" font-size="10.00" fill="#000000">Base</text>
</a>
</g>
</g>
<!-- dir_ea20de6067ade1946cea1041955da77d&#45;&gt;dir_37c90836491b695b472bf98d1be8336b -->
<g id="edge14" class="edge">
<title>dir_ea20de6067ade1946cea1041955da77d&#45;&gt;dir_37c90836491b695b472bf98d1be8336b</title>
<path fill="none" stroke="#000000" d="M206.1093,-434.9972C219.9042,-425.7409 235.3425,-412.4801 243,-396 263.6631,-351.5299 240.9384,-294.5847 223.3845,-261.4087"/>
<polygon fill="#000000" stroke="#000000" points="226.2689,-259.3904 218.384,-252.3138 220.1349,-262.7629 226.2689,-259.3904"/>
<g id="a_edge14&#45;headlabel"><a xlink:href="dir_000468_000266.html" target="_top" xlink:title="2">
<text text-anchor="middle" x="230.4887" y="-258.6723" font-family="Helvetica,sans-Serif" font-size="10.00" fill="#000000">2</text>
</a>
</g>
</g>
<!-- dir_85bf31a2e8d306e7598ffcb73f8df6bf -->
<g id="node4" class="node">
<title>dir_85bf31a2e8d306e7598ffcb73f8df6bf</title>
<g id="a_node4"><a xlink:href="dir_85bf31a2e8d306e7598ffcb73f8df6bf.html" target="_top" xlink:title="common">
<polygon fill="none" stroke="#ff0000" points="181.5,-108 122.5,-108 122.5,-72 181.5,-72 181.5,-108"/>
<text text-anchor="middle" x="152" y="-87.5" font-family="Helvetica,sans-Serif" font-size="10.00" fill="#000000">common</text>
</a>
</g>
</g>
<!-- dir_ea20de6067ade1946cea1041955da77d&#45;&gt;dir_85bf31a2e8d306e7598ffcb73f8df6bf -->
<g id="edge15" class="edge">
<title>dir_ea20de6067ade1946cea1041955da77d&#45;&gt;dir_85bf31a2e8d306e7598ffcb73f8df6bf</title>
<path fill="none" stroke="#000000" d="M151.8138,-437.513C110.8408,-416.6042 38,-370.3797 38,-306 38,-306 38,-306 38,-234 38,-183.147 82.2447,-139.7674 115.6064,-114.2861"/>
<polygon fill="#000000" stroke="#000000" points="117.8693,-116.9655 123.8202,-108.1998 113.7018,-111.3413 117.8693,-116.9655"/>
<g id="a_edge15&#45;headlabel"><a xlink:href="dir_000468_000053.html" target="_top" xlink:title="7">
<text text-anchor="middle" x="116.6716" y="-118.8868" font-family="Helvetica,sans-Serif" font-size="10.00" fill="#000000">7</text>
</a>
</g>
</g>
<!-- dir_7a330a174ce85b780f377767a0bb81ff -->
<g id="node5" class="node">
<title>dir_7a330a174ce85b780f377767a0bb81ff</title>
<g id="a_node5"><a xlink:href="dir_7a330a174ce85b780f377767a0bb81ff.html" target="_top" xlink:title="include">
<polygon fill="none" stroke="#ff0000" points="234,-396 180,-396 180,-360 234,-360 234,-396"/>
<text text-anchor="middle" x="207" y="-375.5" font-family="Helvetica,sans-Serif" font-size="10.00" fill="#000000">include</text>
</a>
</g>
</g>
<!-- dir_ea20de6067ade1946cea1041955da77d&#45;&gt;dir_7a330a174ce85b780f377767a0bb81ff -->
<g id="edge16" class="edge">
<title>dir_ea20de6067ade1946cea1041955da77d&#45;&gt;dir_7a330a174ce85b780f377767a0bb81ff</title>
<path fill="none" stroke="#000000" d="M186.0656,-431.8314C189.126,-423.9617 192.7779,-414.5712 196.1682,-405.8533"/>
<polygon fill="#000000" stroke="#000000" points="199.4768,-407.0019 199.8393,-396.4133 192.9527,-404.4647 199.4768,-407.0019"/>
<g id="a_edge16&#45;headlabel"><a xlink:href="dir_000468_000466.html" target="_top" xlink:title="6">
<text text-anchor="middle" x="200.8202" y="-408.8812" font-family="Helvetica,sans-Serif" font-size="10.00" fill="#000000">6</text>
</a>
</g>
</g>
<!-- dir_bcbb2cf9a3d3d83e5515c82071a07177 -->
<g id="node6" class="node">
<title>dir_bcbb2cf9a3d3d83e5515c82071a07177</title>
<g id="a_node6"><a xlink:href="dir_bcbb2cf9a3d3d83e5515c82071a07177.html" target="_top" xlink:title="Framework">
<polygon fill="none" stroke="#ff0000" points="255.5,-36 184.5,-36 184.5,0 255.5,0 255.5,-36"/>
<text text-anchor="middle" x="220" y="-15.5" font-family="Helvetica,sans-Serif" font-size="10.00" fill="#000000">Framework</text>
</a>
</g>
</g>
<!-- dir_ea20de6067ade1946cea1041955da77d&#45;&gt;dir_bcbb2cf9a3d3d83e5515c82071a07177 -->
<g id="edge17" class="edge">
<title>dir_ea20de6067ade1946cea1041955da77d&#45;&gt;dir_bcbb2cf9a3d3d83e5515c82071a07177</title>
<path fill="none" stroke="#000000" d="M151.971,-443.3951C124.9447,-435.6916 83.42,-420.7499 55,-396 19.6485,-365.2137 0,-352.8778 0,-306 0,-306 0,-306 0,-162 0,-79.455 109.7654,-41.6753 174.2301,-26.6052"/>
<polygon fill="#000000" stroke="#000000" points="175.1715,-29.9811 184.1636,-24.3781 173.6401,-23.1506 175.1715,-29.9811"/>
<g id="a_edge17&#45;headlabel"><a xlink:href="dir_000468_000044.html" target="_top" xlink:title="3">
<text text-anchor="middle" x="172.2851" y="-31.0379" font-family="Helvetica,sans-Serif" font-size="10.00" fill="#000000">3</text>
</a>
</g>
</g>
<!-- dir_2171f7ec022c5423887b07c69b2f5b48 -->
<g id="node7" class="node">
<title>dir_2171f7ec022c5423887b07c69b2f5b48</title>
<g id="a_node7"><a xlink:href="dir_2171f7ec022c5423887b07c69b2f5b48.html" target="_top" xlink:title="DataFormats">
<polygon fill="none" stroke="#ff0000" points="260,-180 180,-180 180,-144 260,-144 260,-180"/>
<text text-anchor="middle" x="220" y="-159.5" font-family="Helvetica,sans-Serif" font-size="10.00" fill="#000000">DataFormats</text>
</a>
</g>
</g>
<!-- dir_ea20de6067ade1946cea1041955da77d&#45;&gt;dir_2171f7ec022c5423887b07c69b2f5b48 -->
<g id="edge18" class="edge">
<title>dir_ea20de6067ade1946cea1041955da77d&#45;&gt;dir_2171f7ec022c5423887b07c69b2f5b48</title>
<path fill="none" stroke="#000000" d="M206.3873,-440.3552C225.7543,-431.9262 250.279,-417.609 262,-396 275.0984,-371.8516 307.0717,-359.5416 259,-216 255.7293,-206.2336 250.0139,-196.7268 243.9509,-188.481"/>
<polygon fill="#000000" stroke="#000000" points="246.5233,-186.0898 237.5945,-180.3866 241.0179,-190.4131 246.5233,-186.0898"/>
<g id="a_edge18&#45;headlabel"><a xlink:href="dir_000468_000068.html" target="_top" xlink:title="9">
<text text-anchor="middle" x="250.9764" y="-184.6634" font-family="Helvetica,sans-Serif" font-size="10.00" fill="#000000">9</text>
</a>
</g>
</g>
<!-- dir_eedff867f3c4e67d20b227cb6e0f96ab&#45;&gt;dir_37c90836491b695b472bf98d1be8336b -->
<g id="edge1" class="edge">
<title>dir_eedff867f3c4e67d20b227cb6e0f96ab&#45;&gt;dir_37c90836491b695b472bf98d1be8336b</title>
<path fill="none" stroke="#000000" d="M165.8788,-287.8314C172.2136,-279.5386 179.8384,-269.557 186.7926,-260.4533"/>
<polygon fill="#000000" stroke="#000000" points="189.6452,-262.4847 192.9343,-252.4133 184.0825,-258.2353 189.6452,-262.4847"/>
<g id="a_edge1&#45;headlabel"><a xlink:href="dir_000454_000266.html" target="_top" xlink:title="2">
<text text-anchor="middle" x="189.7195" y="-264.5647" font-family="Helvetica,sans-Serif" font-size="10.00" fill="#000000">2</text>
</a>
</g>
</g>
<!-- dir_eedff867f3c4e67d20b227cb6e0f96ab&#45;&gt;dir_85bf31a2e8d306e7598ffcb73f8df6bf -->
<g id="edge2" class="edge">
<title>dir_eedff867f3c4e67d20b227cb6e0f96ab&#45;&gt;dir_85bf31a2e8d306e7598ffcb73f8df6bf</title>
<path fill="none" stroke="#000000" d="M152,-287.9555C152,-250.3938 152,-163.5541 152,-118.4103"/>
<polygon fill="#000000" stroke="#000000" points="155.5001,-118.145 152,-108.1451 148.5001,-118.1451 155.5001,-118.145"/>
<g id="a_edge2&#45;headlabel"><a xlink:href="dir_000454_000053.html" target="_top" xlink:title="2">
<text text-anchor="middle" x="158.3393" y="-119.2397" font-family="Helvetica,sans-Serif" font-size="10.00" fill="#000000">2</text>
</a>
</g>
</g>
<!-- dir_eedff867f3c4e67d20b227cb6e0f96ab&#45;&gt;dir_2171f7ec022c5423887b07c69b2f5b48 -->
<g id="edge3" class="edge">
<title>dir_eedff867f3c4e67d20b227cb6e0f96ab&#45;&gt;dir_2171f7ec022c5423887b07c69b2f5b48</title>
<path fill="none" stroke="#000000" d="M153.0418,-287.8257C154.7453,-268.9578 159.2266,-239.0362 171,-216 176.2931,-205.6434 184.0981,-195.7654 191.9303,-187.3563"/>
<polygon fill="#000000" stroke="#000000" points="194.5643,-189.6689 199.0595,-180.075 189.5626,-184.7716 194.5643,-189.6689"/>
<g id="a_edge3&#45;headlabel"><a xlink:href="dir_000454_000068.html" target="_top" xlink:title="1">
<text text-anchor="middle" x="194.0782" y="-191.7237" font-family="Helvetica,sans-Serif" font-size="10.00" fill="#000000">1</text>
</a>
</g>
</g>
<!-- dir_37c90836491b695b472bf98d1be8336b&#45;&gt;dir_2171f7ec022c5423887b07c69b2f5b48 -->
<g id="edge4" class="edge">
<title>dir_37c90836491b695b472bf98d1be8336b&#45;&gt;dir_2171f7ec022c5423887b07c69b2f5b48</title>
<path fill="none" stroke="#000000" d="M204.3281,-215.8314C204.975,-208.0463 206.4319,-198.7729 208.3154,-190.1347"/>
<polygon fill="#000000" stroke="#000000" points="211.7169,-190.9591 210.6994,-180.4133 204.9183,-189.2919 211.7169,-190.9591"/>
<g id="a_edge4&#45;headlabel"><a xlink:href="dir_000266_000068.html" target="_top" xlink:title="7">
<text text-anchor="middle" x="213.6184" y="-192.6265" font-family="Helvetica,sans-Serif" font-size="10.00" fill="#000000">7</text>
</a>
</g>
</g>
<!-- dir_85bf31a2e8d306e7598ffcb73f8df6bf&#45;&gt;dir_37c90836491b695b472bf98d1be8336b -->
<g id="edge5" class="edge">
<title>dir_85bf31a2e8d306e7598ffcb73f8df6bf&#45;&gt;dir_37c90836491b695b472bf98d1be8336b</title>
<path fill="none" stroke="#000000" d="M153.7905,-108.1917C156.0888,-126.8125 161.0345,-156.2992 171,-180 174.9544,-189.4047 180.6152,-198.9121 186.2805,-207.273"/>
<polygon fill="#000000" stroke="#000000" points="183.4816,-209.3769 192.1147,-215.5185 189.1959,-205.3336 183.4816,-209.3769"/>
<g id="a_edge5&#45;headlabel"><a xlink:href="dir_000053_000266.html" target="_top" xlink:title="2">
<text text-anchor="middle" x="179.0876" y="-205.5825" font-family="Helvetica,sans-Serif" font-size="10.00" fill="#000000">2</text>
</a>
</g>
</g>
<!-- dir_85bf31a2e8d306e7598ffcb73f8df6bf&#45;&gt;dir_bcbb2cf9a3d3d83e5515c82071a07177 -->
<g id="edge6" class="edge">
<title>dir_85bf31a2e8d306e7598ffcb73f8df6bf&#45;&gt;dir_bcbb2cf9a3d3d83e5515c82071a07177</title>
<path fill="none" stroke="#000000" d="M169.1593,-71.8314C177.1511,-63.3694 186.8038,-53.1489 195.5416,-43.8971"/>
<polygon fill="#000000" stroke="#000000" points="198.288,-46.0866 202.6097,-36.4133 193.1989,-41.2802 198.288,-46.0866"/>
<g id="a_edge6&#45;headlabel"><a xlink:href="dir_000053_000044.html" target="_top" xlink:title="5">
<text text-anchor="middle" x="197.884" y="-48.1494" font-family="Helvetica,sans-Serif" font-size="10.00" fill="#000000">5</text>
</a>
</g>
</g>
<!-- dir_85bf31a2e8d306e7598ffcb73f8df6bf&#45;&gt;dir_2171f7ec022c5423887b07c69b2f5b48 -->
<g id="edge7" class="edge">
<title>dir_85bf31a2e8d306e7598ffcb73f8df6bf&#45;&gt;dir_2171f7ec022c5423887b07c69b2f5b48</title>
<path fill="none" stroke="#000000" d="M175.1056,-108.1628C183.9006,-116.6038 193.7127,-126.7956 201.9846,-136.0303"/>
<polygon fill="#000000" stroke="#000000" points="199.5806,-138.5987 208.7931,-143.8314 204.8545,-133.9958 199.5806,-138.5987"/>
<g id="a_edge7&#45;headlabel"><a xlink:href="dir_000053_000068.html" target="_top" xlink:title="40">
<text text-anchor="middle" x="195.0779" y="-135.2575" font-family="Helvetica,sans-Serif" font-size="10.00" fill="#000000">40</text>
</a>
</g>
</g>
<!-- dir_7a330a174ce85b780f377767a0bb81ff&#45;&gt;dir_eedff867f3c4e67d20b227cb6e0f96ab -->
<g id="edge8" class="edge">
<title>dir_7a330a174ce85b780f377767a0bb81ff&#45;&gt;dir_eedff867f3c4e67d20b227cb6e0f96ab</title>
<path fill="none" stroke="#000000" d="M193.1212,-359.8314C186.7864,-351.5386 179.1616,-341.557 172.2074,-332.4533"/>
<polygon fill="#000000" stroke="#000000" points="174.9175,-330.2353 166.0657,-324.4133 169.3548,-334.4847 174.9175,-330.2353"/>
<g id="a_edge8&#45;headlabel"><a xlink:href="dir_000466_000454.html" target="_top" xlink:title="1">
<text text-anchor="middle" x="179.3558" y="-328.8683" font-family="Helvetica,sans-Serif" font-size="10.00" fill="#000000">1</text>
</a>
</g>
</g>
<!-- dir_7a330a174ce85b780f377767a0bb81ff&#45;&gt;dir_37c90836491b695b472bf98d1be8336b -->
<g id="edge9" class="edge">
<title>dir_7a330a174ce85b780f377767a0bb81ff&#45;&gt;dir_37c90836491b695b472bf98d1be8336b</title>
<path fill="none" stroke="#000000" d="M207,-359.7623C207,-335.201 207,-291.2474 207,-262.3541"/>
<polygon fill="#000000" stroke="#000000" points="210.5001,-262.0896 207,-252.0896 203.5001,-262.0897 210.5001,-262.0896"/>
<g id="a_edge9&#45;headlabel"><a xlink:href="dir_000466_000266.html" target="_top" xlink:title="1">
<text text-anchor="middle" x="213.3393" y="-263.1842" font-family="Helvetica,sans-Serif" font-size="10.00" fill="#000000">1</text>
</a>
</g>
</g>
<!-- dir_7a330a174ce85b780f377767a0bb81ff&#45;&gt;dir_85bf31a2e8d306e7598ffcb73f8df6bf -->
<g id="edge10" class="edge">
<title>dir_7a330a174ce85b780f377767a0bb81ff&#45;&gt;dir_85bf31a2e8d306e7598ffcb73f8df6bf</title>
<path fill="none" stroke="#000000" d="M179.6953,-370.0514C158.1494,-362.1773 129.5443,-347.7867 116,-324 77.9297,-257.1402 114.7801,-162.9486 137.3422,-117.1411"/>
<polygon fill="#000000" stroke="#000000" points="140.5112,-118.6303 141.9077,-108.1279 134.2666,-115.4671 140.5112,-118.6303"/>
<g id="a_edge10&#45;headlabel"><a xlink:href="dir_000466_000053.html" target="_top" xlink:title="7">
<text text-anchor="middle" x="141.4198" y="-120.62" font-family="Helvetica,sans-Serif" font-size="10.00" fill="#000000">7</text>
</a>
</g>
</g>
<!-- dir_7a330a174ce85b780f377767a0bb81ff&#45;&gt;dir_bcbb2cf9a3d3d83e5515c82071a07177 -->
<g id="edge11" class="edge">
<title>dir_7a330a174ce85b780f377767a0bb81ff&#45;&gt;dir_bcbb2cf9a3d3d83e5515c82071a07177</title>
<path fill="none" stroke="#000000" d="M228.5698,-359.9468C256.043,-334.7991 300,-286.3785 300,-234 300,-234 300,-234 300,-162 300,-115.9277 268.3198,-70.8164 244.8312,-43.7014"/>
<polygon fill="#000000" stroke="#000000" points="247.4215,-41.3474 238.1532,-36.2141 242.1975,-46.0067 247.4215,-41.3474"/>
<g id="a_edge11&#45;headlabel"><a xlink:href="dir_000466_000044.html" target="_top" xlink:title="5">
<text text-anchor="middle" x="251.9331" y="-39.6401" font-family="Helvetica,sans-Serif" font-size="10.00" fill="#000000">5</text>
</a>
</g>
</g>
<!-- dir_7a330a174ce85b780f377767a0bb81ff&#45;&gt;dir_2171f7ec022c5423887b07c69b2f5b48 -->
<g id="edge12" class="edge">
<title>dir_7a330a174ce85b780f377767a0bb81ff&#45;&gt;dir_2171f7ec022c5423887b07c69b2f5b48</title>
<path fill="none" stroke="#000000" d="M216.2309,-359.5802C230.1118,-329.5696 253.6585,-268.2239 243,-216 241.1839,-207.1016 237.8446,-197.8541 234.2629,-189.5789"/>
<polygon fill="#000000" stroke="#000000" points="237.3911,-188.0044 230.0235,-180.3906 231.0349,-190.937 237.3911,-188.0044"/>
<g id="a_edge12&#45;headlabel"><a xlink:href="dir_000466_000068.html" target="_top" xlink:title="4">
<text text-anchor="middle" x="241.475" y="-187.5789" font-family="Helvetica,sans-Serif" font-size="10.00" fill="#000000">4</text>
</a>
</g>
</g>
<!-- dir_bcbb2cf9a3d3d83e5515c82071a07177&#45;&gt;dir_2171f7ec022c5423887b07c69b2f5b48 -->
<g id="edge19" class="edge">
<title>dir_bcbb2cf9a3d3d83e5515c82071a07177&#45;&gt;dir_2171f7ec022c5423887b07c69b2f5b48</title>
<path fill="none" stroke="#000000" d="M224.6583,-36.0896C227.1269,-60.5727 227.4104,-104.5174 225.5089,-133.4713"/>
<polygon fill="#000000" stroke="#000000" points="221.9942,-133.5118 224.6732,-143.7623 228.9712,-134.0785 221.9942,-133.5118"/>
<g id="a_edge19&#45;headlabel"><a xlink:href="dir_000044_000068.html" target="_top" xlink:title="72">
<text text-anchor="middle" x="219.4551" y="-127.1992" font-family="Helvetica,sans-Serif" font-size="10.00" fill="#000000">72</text>
</a>
</g>
</g>
<!-- dir_2171f7ec022c5423887b07c69b2f5b48&#45;&gt;dir_37c90836491b695b472bf98d1be8336b -->
<g id="edge20" class="edge">
<title>dir_2171f7ec022c5423887b07c69b2f5b48&#45;&gt;dir_37c90836491b695b472bf98d1be8336b</title>
<path fill="none" stroke="#000000" d="M222.6514,-180.4133C221.9948,-188.1442 220.5496,-197.3097 218.687,-205.8545"/>
<polygon fill="#000000" stroke="#000000" points="215.2228,-205.2848 216.2328,-215.8314 222.0202,-206.9569 215.2228,-205.2848"/>
<g id="a_edge20&#45;headlabel"><a xlink:href="dir_000068_000266.html" target="_top" xlink:title="1">
<text text-anchor="middle" x="213.3243" y="-198.6161" font-family="Helvetica,sans-Serif" font-size="10.00" fill="#000000">1</text>
</a>
</g>
</g>
<!-- dir_2171f7ec022c5423887b07c69b2f5b48&#45;&gt;dir_85bf31a2e8d306e7598ffcb73f8df6bf -->
<g id="edge21" class="edge">
<title>dir_2171f7ec022c5423887b07c69b2f5b48&#45;&gt;dir_85bf31a2e8d306e7598ffcb73f8df6bf</title>
<path fill="none" stroke="#000000" d="M196.8883,-143.8314C188.16,-135.454 178.4306,-125.3531 170.1994,-116.1749"/>
<polygon fill="#000000" stroke="#000000" points="172.631,-113.6386 163.4143,-108.4133 167.3608,-118.2457 172.631,-113.6386"/>
<g id="a_edge21&#45;headlabel"><a xlink:href="dir_000068_000053.html" target="_top" xlink:title="1">
<text text-anchor="middle" x="177.1344" y="-111.9762" font-family="Helvetica,sans-Serif" font-size="10.00" fill="#000000">1</text>
</a>
</g>
</g>
<!-- dir_2171f7ec022c5423887b07c69b2f5b48&#45;&gt;dir_bcbb2cf9a3d3d83e5515c82071a07177 -->
<g id="edge22" class="edge">
<title>dir_2171f7ec022c5423887b07c69b2f5b48&#45;&gt;dir_bcbb2cf9a3d3d83e5515c82071a07177</title>
<path fill="none" stroke="#000000" d="M215.3268,-143.7623C212.867,-119.201 212.5923,-75.2474 214.5026,-46.3541"/>
<polygon fill="#000000" stroke="#000000" points="218.0152,-46.3416 215.3417,-36.0896 211.0385,-45.7712 218.0152,-46.3416"/>
<g id="a_edge22&#45;headlabel"><a xlink:href="dir_000068_000044.html" target="_top" xlink:title="7">
<text text-anchor="middle" x="220.5522" y="-47.6556" font-family="Helvetica,sans-Serif" font-size="10.00" fill="#000000">7</text>
</a>
</g>
</g>
</g>
</svg>
