<?xml version="1.0" encoding="UTF-8" standalone="no"?>
<!DOCTYPE svg PUBLIC "-//W3C//DTD SVG 1.1//EN"
 "http://www.w3.org/Graphics/SVG/1.1/DTD/svg11.dtd">
<!-- Generated by graphviz version 2.40.1 (20161225.0304)
 -->
<!-- Title: /home/travis/build/AliceO2Group/AliceO2/Detectors/MUON Pages: 1 -->
<svg width="358pt" height="375pt"
 viewBox="0.00 0.00 358.01 375.00" xmlns="http://www.w3.org/2000/svg" xmlns:xlink="http://www.w3.org/1999/xlink">
<g id="graph0" class="graph" transform="scale(1 1) rotate(0) translate(4 371)">
<title>/home/travis/build/AliceO2Group/AliceO2/Detectors/MUON</title>
<g id="clust1" class="cluster">
<title>clusterdir_051dca18e802f8e9474f2e30d29c04e0</title>
<g id="a_clust1"><a xlink:href="dir_051dca18e802f8e9474f2e30d29c04e0.html" target="_top" xlink:title="Detectors">
<polygon fill="#ddddee" stroke="#000000" points="82.7436,-272 82.7436,-359 312.7436,-359 312.7436,-272 82.7436,-272"/>
<text text-anchor="middle" x="197.7436" y="-347" font-family="Helvetica,sans-Serif" font-size="10.00" fill="#000000">Detectors</text>
</a>
</g>
</g>
<g id="clust2" class="cluster">
<title>clusterdir_1cc233fd3b1202b9dad36810b41b97af</title>
<g id="a_clust2"><a xlink:href="dir_1cc233fd3b1202b9dad36810b41b97af.html" target="_top">
<polygon fill="#eeeeff" stroke="#000000" points="90.7436,-280 90.7436,-332 304.7436,-332 304.7436,-280 90.7436,-280"/>
</a>
</g>
</g>
<!-- dir_1cc233fd3b1202b9dad36810b41b97af -->
<g id="node1" class="node">
<title>dir_1cc233fd3b1202b9dad36810b41b97af</title>
<text text-anchor="middle" x="269.7436" y="-303.5" font-family="Helvetica,sans-Serif" font-size="10.00" fill="#000000">MUON</text>
</g>
<!-- dir_061f7088060f41729027f6c2fce0273e -->
<g id="node2" class="node">
<title>dir_061f7088060f41729027f6c2fce0273e</title>
<g id="a_node2"><a xlink:href="dir_061f7088060f41729027f6c2fce0273e.html" target="_top" xlink:title="MCH">
<polygon fill="#ffffff" stroke="#ff0000" points="152.7436,-324 98.7436,-324 98.7436,-288 152.7436,-288 152.7436,-324"/>
<text text-anchor="middle" x="125.7436" y="-303.5" font-family="Helvetica,sans-Serif" font-size="10.00" fill="#000000">MCH</text>
</a>
</g>
</g>
<!-- dir_4ab6b4cc6a7edbff49100e9123df213f -->
<g id="node4" class="node">
<title>dir_4ab6b4cc6a7edbff49100e9123df213f</title>
<g id="a_node4"><a xlink:href="dir_4ab6b4cc6a7edbff49100e9123df213f.html" target="_top" xlink:title="Common">
<polygon fill="none" stroke="#ff0000" points="267.2436,-180 206.2436,-180 206.2436,-144 267.2436,-144 267.2436,-180"/>
<text text-anchor="middle" x="236.7436" y="-159.5" font-family="Helvetica,sans-Serif" font-size="10.00" fill="#000000">Common</text>
</a>
</g>
</g>
<!-- dir_061f7088060f41729027f6c2fce0273e&#45;&gt;dir_4ab6b4cc6a7edbff49100e9123df213f -->
<g id="edge9" class="edge">
<title>dir_061f7088060f41729027f6c2fce0273e&#45;&gt;dir_4ab6b4cc6a7edbff49100e9123df213f</title>
<path fill="none" stroke="#000000" d="M139.8018,-287.7623C159.2349,-262.5518 194.4169,-216.9103 216.6286,-188.0952"/>
<polygon fill="#000000" stroke="#000000" points="219.4664,-190.1465 222.7995,-180.0896 213.9223,-185.8729 219.4664,-190.1465"/>
<g id="a_edge9&#45;headlabel"><a xlink:href="dir_000005_000026.html" target="_top" xlink:title="8">
<text text-anchor="middle" x="219.5207" y="-192.2269" font-family="Helvetica,sans-Serif" font-size="10.00" fill="#000000">8</text>
</a>
</g>
</g>
<!-- dir_37c90836491b695b472bf98d1be8336b -->
<g id="node5" class="node">
<title>dir_37c90836491b695b472bf98d1be8336b</title>
<g id="a_node5"><a xlink:href="dir_37c90836491b695b472bf98d1be8336b.html" target="_top" xlink:title="Base">
<polygon fill="none" stroke="#ff0000" points="186.7436,-36 132.7436,-36 132.7436,0 186.7436,0 186.7436,-36"/>
<text text-anchor="middle" x="159.7436" y="-15.5" font-family="Helvetica,sans-Serif" font-size="10.00" fill="#000000">Base</text>
</a>
</g>
</g>
<!-- dir_061f7088060f41729027f6c2fce0273e&#45;&gt;dir_37c90836491b695b472bf98d1be8336b -->
<g id="edge10" class="edge">
<title>dir_061f7088060f41729027f6c2fce0273e&#45;&gt;dir_37c90836491b695b472bf98d1be8336b</title>
<path fill="none" stroke="#000000" d="M98.46,-298.6124C76.1258,-290.9641 45.9798,-276.5963 31.7436,-252 -8.3314,-182.7613 -12.4849,-138.6621 31.7436,-72 51.7824,-41.797 92.4045,-28.4455 122.538,-22.5689"/>
<polygon fill="#000000" stroke="#000000" points="123.4625,-25.9603 132.7082,-20.7866 122.2541,-19.0654 123.4625,-25.9603"/>
<g id="a_edge10&#45;headlabel"><a xlink:href="dir_000005_000266.html" target="_top" xlink:title="6">
<text text-anchor="middle" x="120.4119" y="-26.8774" font-family="Helvetica,sans-Serif" font-size="10.00" fill="#000000">6</text>
</a>
</g>
</g>
<!-- dir_bcbb2cf9a3d3d83e5515c82071a07177 -->
<g id="node6" class="node">
<title>dir_bcbb2cf9a3d3d83e5515c82071a07177</title>
<g id="a_node6"><a xlink:href="dir_bcbb2cf9a3d3d83e5515c82071a07177.html" target="_top" xlink:title="Framework">
<polygon fill="none" stroke="#ff0000" points="303.2436,-36 232.2436,-36 232.2436,0 303.2436,0 303.2436,-36"/>
<text text-anchor="middle" x="267.7436" y="-15.5" font-family="Helvetica,sans-Serif" font-size="10.00" fill="#000000">Framework</text>
</a>
</g>
</g>
<!-- dir_061f7088060f41729027f6c2fce0273e&#45;&gt;dir_bcbb2cf9a3d3d83e5515c82071a07177 -->
<g id="edge11" class="edge">
<title>dir_061f7088060f41729027f6c2fce0273e&#45;&gt;dir_bcbb2cf9a3d3d83e5515c82071a07177</title>
<path fill="none" stroke="#000000" d="M125.0371,-287.7967C124.3319,-245.4614 128.0696,-138.9094 178.7436,-72 190.0541,-57.0658 206.7967,-45.3722 222.7181,-36.7434"/>
<polygon fill="#000000" stroke="#000000" points="224.6447,-39.6891 231.9502,-32.0158 221.454,-33.4586 224.6447,-39.6891"/>
<g id="a_edge11&#45;headlabel"><a xlink:href="dir_000005_000044.html" target="_top" xlink:title="88">
<text text-anchor="middle" x="222.7393" y="-41.3547" font-family="Helvetica,sans-Serif" font-size="10.00" fill="#000000">88</text>
</a>
</g>
</g>
<!-- dir_2171f7ec022c5423887b07c69b2f5b48 -->
<g id="node8" class="node">
<title>dir_2171f7ec022c5423887b07c69b2f5b48</title>
<g id="a_node8"><a xlink:href="dir_2171f7ec022c5423887b07c69b2f5b48.html" target="_top" xlink:title="DataFormats">
<polygon fill="none" stroke="#ff0000" points="267.7436,-108 187.7436,-108 187.7436,-72 267.7436,-72 267.7436,-108"/>
<text text-anchor="middle" x="227.7436" y="-87.5" font-family="Helvetica,sans-Serif" font-size="10.00" fill="#000000">DataFormats</text>
</a>
</g>
</g>
<!-- dir_061f7088060f41729027f6c2fce0273e&#45;&gt;dir_2171f7ec022c5423887b07c69b2f5b48 -->
<g id="edge12" class="edge">
<title>dir_061f7088060f41729027f6c2fce0273e&#45;&gt;dir_2171f7ec022c5423887b07c69b2f5b48</title>
<path fill="none" stroke="#000000" d="M130.726,-287.7582C139.5445,-256.9573 159.5659,-193.1901 186.7436,-144 192.0376,-134.4181 198.8961,-124.6716 205.4837,-116.1445"/>
<polygon fill="#000000" stroke="#000000" points="208.4188,-118.0772 211.913,-108.0751 202.9441,-113.7151 208.4188,-118.0772"/>
<g id="a_edge12&#45;headlabel"><a xlink:href="dir_000005_000068.html" target="_top" xlink:title="18">
<text text-anchor="middle" x="208.3995" y="-120.1578" font-family="Helvetica,sans-Serif" font-size="10.00" fill="#000000">18</text>
</a>
</g>
</g>
<!-- dir_9e24c537087392bd208449d0b48c466c -->
<g id="node3" class="node">
<title>dir_9e24c537087392bd208449d0b48c466c</title>
<g id="a_node3"><a xlink:href="dir_9e24c537087392bd208449d0b48c466c.html" target="_top" xlink:title="MID">
<polygon fill="#ffffff" stroke="#ff0000" points="224.7436,-324 170.7436,-324 170.7436,-288 224.7436,-288 224.7436,-324"/>
<text text-anchor="middle" x="197.7436" y="-303.5" font-family="Helvetica,sans-Serif" font-size="10.00" fill="#000000">MID</text>
</a>
</g>
</g>
<!-- dir_9e24c537087392bd208449d0b48c466c&#45;&gt;dir_4ab6b4cc6a7edbff49100e9123df213f -->
<g id="edge1" class="edge">
<title>dir_9e24c537087392bd208449d0b48c466c&#45;&gt;dir_4ab6b4cc6a7edbff49100e9123df213f</title>
<path fill="none" stroke="#000000" d="M202.683,-287.7623C209.3643,-263.0928 221.3441,-218.8598 229.1675,-189.9731"/>
<polygon fill="#000000" stroke="#000000" points="232.6084,-190.6569 231.8443,-180.0896 225.8518,-188.8269 232.6084,-190.6569"/>
<g id="a_edge1&#45;headlabel"><a xlink:href="dir_000169_000026.html" target="_top" xlink:title="12">
<text text-anchor="middle" x="234.4093" y="-192.3687" font-family="Helvetica,sans-Serif" font-size="10.00" fill="#000000">12</text>
</a>
</g>
</g>
<!-- dir_9e24c537087392bd208449d0b48c466c&#45;&gt;dir_37c90836491b695b472bf98d1be8336b -->
<g id="edge2" class="edge">
<title>dir_9e24c537087392bd208449d0b48c466c&#45;&gt;dir_37c90836491b695b472bf98d1be8336b</title>
<path fill="none" stroke="#000000" d="M193.3574,-287.5627C190.9538,-277.1534 188.0114,-263.8862 185.7436,-252 173.5972,-188.3371 168.9464,-172.5137 162.7436,-108 160.7642,-87.4127 160.0294,-64.0686 159.7815,-46.3148"/>
<polygon fill="#000000" stroke="#000000" points="163.2814,-46.2803 159.6847,-36.3147 156.2818,-46.3482 163.2814,-46.2803"/>
<g id="a_edge2&#45;headlabel"><a xlink:href="dir_000169_000266.html" target="_top" xlink:title="5">
<text text-anchor="middle" x="166.1553" y="-47.3473" font-family="Helvetica,sans-Serif" font-size="10.00" fill="#000000">5</text>
</a>
</g>
</g>
<!-- dir_9e24c537087392bd208449d0b48c466c&#45;&gt;dir_bcbb2cf9a3d3d83e5515c82071a07177 -->
<g id="edge3" class="edge">
<title>dir_9e24c537087392bd208449d0b48c466c&#45;&gt;dir_bcbb2cf9a3d3d83e5515c82071a07177</title>
<path fill="none" stroke="#000000" d="M213.0658,-287.9428C218.9624,-282.0366 226.1227,-275.9783 233.7436,-272 272.3788,-251.8313 302.2476,-285.8146 329.7436,-252 351.4425,-225.3146 368.5046,-211.1672 309.7436,-72 305.5857,-62.1527 299.1603,-52.555 292.5756,-44.2487"/>
<polygon fill="#000000" stroke="#000000" points="295.1182,-41.8333 286.0159,-36.4112 289.7503,-46.3262 295.1182,-41.8333"/>
<g id="a_edge3&#45;headlabel"><a xlink:href="dir_000169_000044.html" target="_top" xlink:title="60">
<text text-anchor="middle" x="299.6026" y="-40.2675" font-family="Helvetica,sans-Serif" font-size="10.00" fill="#000000">60</text>
</a>
</g>
</g>
<!-- dir_26637d1bd82229bc9ed97f7e706be743 -->
<g id="node7" class="node">
<title>dir_26637d1bd82229bc9ed97f7e706be743</title>
<g id="a_node7"><a xlink:href="dir_26637d1bd82229bc9ed97f7e706be743.html" target="_top" xlink:title="Raw">
<polygon fill="none" stroke="#ff0000" points="320.7436,-252 266.7436,-252 266.7436,-216 320.7436,-216 320.7436,-252"/>
<text text-anchor="middle" x="293.7436" y="-231.5" font-family="Helvetica,sans-Serif" font-size="10.00" fill="#000000">Raw</text>
</a>
</g>
</g>
<!-- dir_9e24c537087392bd208449d0b48c466c&#45;&gt;dir_26637d1bd82229bc9ed97f7e706be743 -->
<g id="edge4" class="edge">
<title>dir_9e24c537087392bd208449d0b48c466c&#45;&gt;dir_26637d1bd82229bc9ed97f7e706be743</title>
<path fill="none" stroke="#000000" d="M215.4486,-287.9929C221.0931,-282.6098 227.4989,-276.8536 233.7436,-272 241.3219,-266.1099 249.8393,-260.2883 258.0238,-255.0381"/>
<polygon fill="#000000" stroke="#000000" points="260.101,-257.8668 266.7141,-249.5892 256.3824,-251.9362 260.101,-257.8668"/>
<g id="a_edge4&#45;headlabel"><a xlink:href="dir_000169_000533.html" target="_top" xlink:title="1">
<text text-anchor="middle" x="258.5638" y="-259.6818" font-family="Helvetica,sans-Serif" font-size="10.00" fill="#000000">1</text>
</a>
</g>
</g>
<!-- dir_9e24c537087392bd208449d0b48c466c&#45;&gt;dir_2171f7ec022c5423887b07c69b2f5b48 -->
<g id="edge5" class="edge">
<title>dir_9e24c537087392bd208449d0b48c466c&#45;&gt;dir_2171f7ec022c5423887b07c69b2f5b48</title>
<path fill="none" stroke="#000000" d="M194.5371,-287.6247C189.9009,-257.1619 183.266,-194.5476 196.7436,-144 199.2388,-134.6419 203.7844,-125.2199 208.6397,-116.925"/>
<polygon fill="#000000" stroke="#000000" points="211.6207,-118.759 213.9473,-108.4228 205.6827,-115.0521 211.6207,-118.759"/>
<g id="a_edge5&#45;headlabel"><a xlink:href="dir_000169_000068.html" target="_top" xlink:title="82">
<text text-anchor="middle" x="212.1257" y="-120.8118" font-family="Helvetica,sans-Serif" font-size="10.00" fill="#000000">82</text>
</a>
</g>
</g>
<!-- dir_4ab6b4cc6a7edbff49100e9123df213f&#45;&gt;dir_2171f7ec022c5423887b07c69b2f5b48 -->
<g id="edge6" class="edge">
<title>dir_4ab6b4cc6a7edbff49100e9123df213f&#45;&gt;dir_2171f7ec022c5423887b07c69b2f5b48</title>
<path fill="none" stroke="#000000" d="M228.5201,-143.8314C226.8071,-136.131 225.4417,-126.9743 224.6806,-118.4166"/>
<polygon fill="#000000" stroke="#000000" points="228.1728,-118.1811 224.0692,-108.4133 221.1858,-118.6082 228.1728,-118.1811"/>
<g id="a_edge6&#45;headlabel"><a xlink:href="dir_000026_000068.html" target="_top" xlink:title="2">
<text text-anchor="middle" x="231.226" y="-119.0959" font-family="Helvetica,sans-Serif" font-size="10.00" fill="#000000">2</text>
</a>
</g>
</g>
<!-- dir_37c90836491b695b472bf98d1be8336b&#45;&gt;dir_4ab6b4cc6a7edbff49100e9123df213f -->
<g id="edge7" class="edge">
<title>dir_37c90836491b695b472bf98d1be8336b&#45;&gt;dir_4ab6b4cc6a7edbff49100e9123df213f</title>
<path fill="none" stroke="#000000" d="M160.372,-36.0317C161.7327,-55.0497 165.9324,-85.3408 178.7436,-108 184.9329,-118.9472 194.0967,-128.9613 203.3219,-137.3129"/>
<polygon fill="#000000" stroke="#000000" points="201.1536,-140.0643 211.0214,-143.9213 205.7126,-134.7525 201.1536,-140.0643"/>
<g id="a_edge7&#45;headlabel"><a xlink:href="dir_000266_000026.html" target="_top" xlink:title="16">
<text text-anchor="middle" x="196.5767" y="-137.3777" font-family="Helvetica,sans-Serif" font-size="10.00" fill="#000000">16</text>
</a>
</g>
</g>
<!-- dir_37c90836491b695b472bf98d1be8336b&#45;&gt;dir_2171f7ec022c5423887b07c69b2f5b48 -->
<g id="edge8" class="edge">
<title>dir_37c90836491b695b472bf98d1be8336b&#45;&gt;dir_2171f7ec022c5423887b07c69b2f5b48</title>
<path fill="none" stroke="#000000" d="M182.8492,-36.1628C191.6442,-44.6038 201.4563,-54.7956 209.7282,-64.0303"/>
<polygon fill="#000000" stroke="#000000" points="207.3242,-66.5987 216.5367,-71.8314 212.5981,-61.9958 207.3242,-66.5987"/>
<g id="a_edge8&#45;headlabel"><a xlink:href="dir_000266_000068.html" target="_top" xlink:title="7">
<text text-anchor="middle" x="202.8215" y="-63.2575" font-family="Helvetica,sans-Serif" font-size="10.00" fill="#000000">7</text>
</a>
</g>
</g>
<!-- dir_bcbb2cf9a3d3d83e5515c82071a07177&#45;&gt;dir_4ab6b4cc6a7edbff49100e9123df213f -->
<g id="edge13" class="edge">
<title>dir_bcbb2cf9a3d3d83e5515c82071a07177&#45;&gt;dir_4ab6b4cc6a7edbff49100e9123df213f</title>
<path fill="none" stroke="#000000" d="M273.8153,-36.0647C279.0645,-54.5845 284.6669,-83.992 276.7436,-108 273.4528,-117.9712 267.532,-127.6056 261.2371,-135.9076"/>
<polygon fill="#000000" stroke="#000000" points="258.4764,-133.7552 254.9012,-143.7286 263.9156,-138.1616 258.4764,-133.7552"/>
<g id="a_edge13&#45;headlabel"><a xlink:href="dir_000044_000026.html" target="_top" xlink:title="8">
<text text-anchor="middle" x="258.533" y="-126.6749" font-family="Helvetica,sans-Serif" font-size="10.00" fill="#000000">8</text>
</a>
</g>
</g>
<!-- dir_bcbb2cf9a3d3d83e5515c82071a07177&#45;&gt;dir_2171f7ec022c5423887b07c69b2f5b48 -->
<g id="edge14" class="edge">
<title>dir_bcbb2cf9a3d3d83e5515c82071a07177&#45;&gt;dir_2171f7ec022c5423887b07c69b2f5b48</title>
<path fill="none" stroke="#000000" d="M263.49,-36.4133C259.7389,-44.569 254.5115,-54.3212 249.1484,-63.257"/>
<polygon fill="#000000" stroke="#000000" points="246.1215,-61.4963 243.7897,-71.8314 252.0576,-65.2062 246.1215,-61.4963"/>
<g id="a_edge14&#45;headlabel"><a xlink:href="dir_000044_000068.html" target="_top" xlink:title="72">
<text text-anchor="middle" x="245.6188" y="-54.4433" font-family="Helvetica,sans-Serif" font-size="10.00" fill="#000000">72</text>
</a>
</g>
</g>
<!-- dir_26637d1bd82229bc9ed97f7e706be743&#45;&gt;dir_4ab6b4cc6a7edbff49100e9123df213f -->
<g id="edge15" class="edge">
<title>dir_26637d1bd82229bc9ed97f7e706be743&#45;&gt;dir_4ab6b4cc6a7edbff49100e9123df213f</title>
<path fill="none" stroke="#000000" d="M279.3601,-215.8314C272.795,-207.5386 264.8929,-197.557 257.6858,-188.4533"/>
<polygon fill="#000000" stroke="#000000" points="260.272,-186.0813 251.3208,-180.4133 254.7837,-190.4262 260.272,-186.0813"/>
<g id="a_edge15&#45;headlabel"><a xlink:href="dir_000533_000026.html" target="_top" xlink:title="4">
<text text-anchor="middle" x="264.7293" y="-184.6373" font-family="Helvetica,sans-Serif" font-size="10.00" fill="#000000">4</text>
</a>
</g>
</g>
<!-- dir_26637d1bd82229bc9ed97f7e706be743&#45;&gt;dir_bcbb2cf9a3d3d83e5515c82071a07177 -->
<g id="edge16" class="edge">
<title>dir_26637d1bd82229bc9ed97f7e706be743&#45;&gt;dir_bcbb2cf9a3d3d83e5515c82071a07177</title>
<path fill="none" stroke="#000000" d="M296.3222,-215.6911C300.0055,-185.3238 305.0573,-122.8436 292.7436,-72 290.5763,-63.0512 286.888,-53.7884 283.0003,-45.5147"/>
<polygon fill="#000000" stroke="#000000" points="286.018,-43.7229 278.4243,-36.3346 279.7532,-46.8458 286.018,-43.7229"/>
<g id="a_edge16&#45;headlabel"><a xlink:href="dir_000533_000044.html" target="_top" xlink:title="17">
<text text-anchor="middle" x="290.1626" y="-43.1733" font-family="Helvetica,sans-Serif" font-size="10.00" fill="#000000">17</text>
</a>
</g>
</g>
<!-- dir_26637d1bd82229bc9ed97f7e706be743&#45;&gt;dir_2171f7ec022c5423887b07c69b2f5b48 -->
<g id="edge17" class="edge">
<title>dir_26637d1bd82229bc9ed97f7e706be743&#45;&gt;dir_2171f7ec022c5423887b07c69b2f5b48</title>
<path fill="none" stroke="#000000" d="M292.8994,-215.8545C291.4019,-197.0101 287.2502,-167.1073 275.7436,-144 270.6066,-133.6841 262.9744,-123.8175 255.2997,-115.4064"/>
<polygon fill="#000000" stroke="#000000" points="257.7583,-112.9134 248.3098,-108.1199 252.7068,-117.7593 257.7583,-112.9134"/>
<g id="a_edge17&#45;headlabel"><a xlink:href="dir_000533_000068.html" target="_top" xlink:title="8">
<text text-anchor="middle" x="262.2956" y="-111.0419" font-family="Helvetica,sans-Serif" font-size="10.00" fill="#000000">8</text>
</a>
</g>
</g>
<!-- dir_2171f7ec022c5423887b07c69b2f5b48&#45;&gt;dir_4ab6b4cc6a7edbff49100e9123df213f -->
<g id="edge18" class="edge">
<title>dir_2171f7ec022c5423887b07c69b2f5b48&#45;&gt;dir_4ab6b4cc6a7edbff49100e9123df213f</title>
<path fill="none" stroke="#000000" d="M236.0213,-108.4133C237.7081,-116.0593 239.0524,-125.1084 239.8056,-133.5726"/>
<polygon fill="#000000" stroke="#000000" points="236.3286,-134.0605 240.4249,-143.8314 243.3159,-133.6386 236.3286,-134.0605"/>
<g id="a_edge18&#45;headlabel"><a xlink:href="dir_000068_000026.html" target="_top" xlink:title="30">
<text text-anchor="middle" x="233.278" y="-128.1434" font-family="Helvetica,sans-Serif" font-size="10.00" fill="#000000">30</text>
</a>
</g>
</g>
<!-- dir_2171f7ec022c5423887b07c69b2f5b48&#45;&gt;dir_37c90836491b695b472bf98d1be8336b -->
<g id="edge19" class="edge">
<title>dir_2171f7ec022c5423887b07c69b2f5b48&#45;&gt;dir_37c90836491b695b472bf98d1be8336b</title>
<path fill="none" stroke="#000000" d="M204.6319,-71.8314C195.9036,-63.454 186.1742,-53.3531 177.9429,-44.1749"/>
<polygon fill="#000000" stroke="#000000" points="180.3745,-41.6386 171.1579,-36.4133 175.1043,-46.2457 180.3745,-41.6386"/>
<g id="a_edge19&#45;headlabel"><a xlink:href="dir_000068_000266.html" target="_top" xlink:title="1">
<text text-anchor="middle" x="184.878" y="-39.9762" font-family="Helvetica,sans-Serif" font-size="10.00" fill="#000000">1</text>
</a>
</g>
</g>
<!-- dir_2171f7ec022c5423887b07c69b2f5b48&#45;&gt;dir_bcbb2cf9a3d3d83e5515c82071a07177 -->
<g id="edge20" class="edge">
<title>dir_2171f7ec022c5423887b07c69b2f5b48&#45;&gt;dir_bcbb2cf9a3d3d83e5515c82071a07177</title>
<path fill="none" stroke="#000000" d="M231.8849,-71.8314C235.6063,-63.7079 240.8173,-53.9637 246.1776,-45.0118"/>
<polygon fill="#000000" stroke="#000000" points="249.2178,-46.7509 251.538,-36.4133 243.2776,-43.0477 249.2178,-46.7509"/>
<g id="a_edge20&#45;headlabel"><a xlink:href="dir_000068_000044.html" target="_top" xlink:title="7">
<text text-anchor="middle" x="249.7256" y="-48.8034" font-family="Helvetica,sans-Serif" font-size="10.00" fill="#000000">7</text>
</a>
</g>
</g>
</g>
</svg>
