<?xml version="1.0" encoding="UTF-8" standalone="no"?>
<!DOCTYPE svg PUBLIC "-//W3C//DTD SVG 1.1//EN"
 "http://www.w3.org/Graphics/SVG/1.1/DTD/svg11.dtd">
<!-- Generated by graphviz version 2.40.1 (20161225.0304)
 -->
<!-- Title: /home/travis/build/AliceO2Group/AliceO2/Common/Utils Pages: 1 -->
<svg width="334pt" height="183pt"
 viewBox="0.00 0.00 334.00 183.00" xmlns="http://www.w3.org/2000/svg" xmlns:xlink="http://www.w3.org/1999/xlink">
<g id="graph0" class="graph" transform="scale(1 1) rotate(0) translate(4 179)">
<title>/home/travis/build/AliceO2Group/AliceO2/Common/Utils</title>
<g id="clust1" class="cluster">
<title>clusterdir_4ab6b4cc6a7edbff49100e9123df213f</title>
<g id="a_clust1"><a xlink:href="dir_4ab6b4cc6a7edbff49100e9123df213f.html" target="_top" xlink:title="Common">
<polygon fill="#ddddee" stroke="#000000" points="8,-8 8,-167 238,-167 238,-8 8,-8"/>
<text text-anchor="middle" x="123" y="-155" font-family="Helvetica,sans-Serif" font-size="10.00" fill="#000000">Common</text>
</a>
</g>
</g>
<g id="clust2" class="cluster">
<title>clusterdir_dc4810549f8e2e369c60bffc9a91caa2</title>
<g id="a_clust2"><a xlink:href="dir_dc4810549f8e2e369c60bffc9a91caa2.html" target="_top">
<polygon fill="#eeeeff" stroke="#000000" points="16,-16 16,-140 230,-140 230,-16 16,-16"/>
</a>
</g>
</g>
<!-- dir_dc4810549f8e2e369c60bffc9a91caa2 -->
<g id="node1" class="node">
<title>dir_dc4810549f8e2e369c60bffc9a91caa2</title>
<text text-anchor="middle" x="195" y="-111.5" font-family="Helvetica,sans-Serif" font-size="10.00" fill="#000000">Utils</text>
</g>
<!-- dir_5007e47bac2fddedac46d04f85f3b0d6 -->
<g id="node2" class="node">
<title>dir_5007e47bac2fddedac46d04f85f3b0d6</title>
<g id="a_node2"><a xlink:href="dir_5007e47bac2fddedac46d04f85f3b0d6.html" target="_top" xlink:title="include">
<polygon fill="#ffffff" stroke="#ff0000" points="150,-60 96,-60 96,-24 150,-24 150,-60"/>
<text text-anchor="middle" x="123" y="-39.5" font-family="Helvetica,sans-Serif" font-size="10.00" fill="#000000">include</text>
</a>
</g>
</g>
<!-- dir_ea1dd57c03b2cc0344546a941059e6c6 -->
<g id="node3" class="node">
<title>dir_ea1dd57c03b2cc0344546a941059e6c6</title>
<g id="a_node3"><a xlink:href="dir_ea1dd57c03b2cc0344546a941059e6c6.html" target="_top" xlink:title="src">
<polygon fill="#ffffff" stroke="#000000" points="78,-132 24,-132 24,-96 78,-96 78,-132"/>
<text text-anchor="middle" x="51" y="-111.5" font-family="Helvetica,sans-Serif" font-size="10.00" fill="#000000">src</text>
</a>
</g>
</g>
<!-- dir_ea1dd57c03b2cc0344546a941059e6c6&#45;&gt;dir_5007e47bac2fddedac46d04f85f3b0d6 -->
<g id="edge3" class="edge">
<title>dir_ea1dd57c03b2cc0344546a941059e6c6&#45;&gt;dir_5007e47bac2fddedac46d04f85f3b0d6</title>
<path fill="none" stroke="#000000" d="M69.1686,-95.8314C77.7152,-87.2848 88.0557,-76.9443 97.3802,-67.6198"/>
<polygon fill="#000000" stroke="#000000" points="99.9905,-69.9592 104.5867,-60.4133 95.0408,-65.0095 99.9905,-69.9592"/>
<g id="a_edge3&#45;headlabel"><a xlink:href="dir_000066_000064.html" target="_top" xlink:title="6">
<text text-anchor="middle" x="99.4564" y="-72.0087" font-family="Helvetica,sans-Serif" font-size="10.00" fill="#000000">6</text>
</a>
</g>
</g>
<!-- dir_6d403ab0818ccbc1bc34374cd8f0cbf4 -->
<g id="node4" class="node">
<title>dir_6d403ab0818ccbc1bc34374cd8f0cbf4</title>
<g id="a_node4"><a xlink:href="dir_6d403ab0818ccbc1bc34374cd8f0cbf4.html" target="_top" xlink:title="test">
<polygon fill="#ffffff" stroke="#000000" points="150,-132 96,-132 96,-96 150,-96 150,-132"/>
<text text-anchor="middle" x="123" y="-111.5" font-family="Helvetica,sans-Serif" font-size="10.00" fill="#000000">test</text>
</a>
</g>
</g>
<!-- dir_6d403ab0818ccbc1bc34374cd8f0cbf4&#45;&gt;dir_5007e47bac2fddedac46d04f85f3b0d6 -->
<g id="edge1" class="edge">
<title>dir_6d403ab0818ccbc1bc34374cd8f0cbf4&#45;&gt;dir_5007e47bac2fddedac46d04f85f3b0d6</title>
<path fill="none" stroke="#000000" d="M123,-95.8314C123,-88.131 123,-78.9743 123,-70.4166"/>
<polygon fill="#000000" stroke="#000000" points="126.5001,-70.4132 123,-60.4133 119.5001,-70.4133 126.5001,-70.4132"/>
<g id="a_edge1&#45;headlabel"><a xlink:href="dir_000067_000064.html" target="_top" xlink:title="6">
<text text-anchor="middle" x="129.3393" y="-71.5079" font-family="Helvetica,sans-Serif" font-size="10.00" fill="#000000">6</text>
</a>
</g>
</g>
<!-- dir_2171f7ec022c5423887b07c69b2f5b48 -->
<g id="node5" class="node">
<title>dir_2171f7ec022c5423887b07c69b2f5b48</title>
<g id="a_node5"><a xlink:href="dir_2171f7ec022c5423887b07c69b2f5b48.html" target="_top" xlink:title="DataFormats">
<polygon fill="none" stroke="#ff0000" points="326,-60 246,-60 246,-24 326,-24 326,-60"/>
<text text-anchor="middle" x="286" y="-39.5" font-family="Helvetica,sans-Serif" font-size="10.00" fill="#000000">DataFormats</text>
</a>
</g>
</g>
<!-- dir_6d403ab0818ccbc1bc34374cd8f0cbf4&#45;&gt;dir_2171f7ec022c5423887b07c69b2f5b48 -->
<g id="edge2" class="edge">
<title>dir_6d403ab0818ccbc1bc34374cd8f0cbf4&#45;&gt;dir_2171f7ec022c5423887b07c69b2f5b48</title>
<path fill="none" stroke="#000000" d="M150.0402,-100.2565C153.0504,-98.7932 156.0821,-97.3483 159,-96 184.3283,-84.2967 212.8937,-72.0665 236.5097,-62.2107"/>
<polygon fill="#000000" stroke="#000000" points="238.0768,-65.3497 245.9677,-58.2798 235.3902,-58.8858 238.0768,-65.3497"/>
<g id="a_edge2&#45;headlabel"><a xlink:href="dir_000067_000068.html" target="_top" xlink:title="1">
<text text-anchor="middle" x="235.8471" y="-66.8511" font-family="Helvetica,sans-Serif" font-size="10.00" fill="#000000">1</text>
</a>
</g>
</g>
<!-- dir_2171f7ec022c5423887b07c69b2f5b48&#45;&gt;dir_5007e47bac2fddedac46d04f85f3b0d6 -->
<g id="edge4" class="edge">
<title>dir_2171f7ec022c5423887b07c69b2f5b48&#45;&gt;dir_5007e47bac2fddedac46d04f85f3b0d6</title>
<path fill="none" stroke="#000000" d="M245.9085,-42C217.3288,-42 188.7492,-42 160.1695,-42"/>
<polygon fill="#000000" stroke="#000000" points="160.0606,-38.5001 150.0605,-42 160.0605,-45.5001 160.0606,-38.5001"/>
<g id="a_edge4&#45;headlabel"><a xlink:href="dir_000068_000064.html" target="_top" xlink:title="3">
<text text-anchor="middle" x="163.6552" y="-33.1607" font-family="Helvetica,sans-Serif" font-size="10.00" fill="#000000">3</text>
</a>
</g>
</g>
</g>
</svg>
