<?xml version="1.0" encoding="UTF-8" standalone="no"?>
<!DOCTYPE svg PUBLIC "-//W3C//DTD SVG 1.1//EN"
 "http://www.w3.org/Graphics/SVG/1.1/DTD/svg11.dtd">
<!-- Generated by graphviz version 2.40.1 (20161225.0304)
 -->
<!-- Title: /home/travis/build/AliceO2Group/AliceO2/Utilities/Mergers Pages: 1 -->
<svg width="256pt" height="231pt"
 viewBox="0.00 0.00 256.00 231.00" xmlns="http://www.w3.org/2000/svg" xmlns:xlink="http://www.w3.org/1999/xlink">
<g id="graph0" class="graph" transform="scale(1 1) rotate(0) translate(4 227)">
<title>/home/travis/build/AliceO2Group/AliceO2/Utilities/Mergers</title>
<g id="clust1" class="cluster">
<title>clusterdir_b05a5fa85f84bfc9013183c9d87f9a36</title>
<g id="a_clust1"><a xlink:href="dir_b05a5fa85f84bfc9013183c9d87f9a36.html" target="_top" xlink:title="Utilities">
<polygon fill="#ddddee" stroke="#000000" points="8,-56 8,-215 240,-215 240,-56 8,-56"/>
<text text-anchor="middle" x="124" y="-203" font-family="Helvetica,sans-Serif" font-size="10.00" fill="#000000">Utilities</text>
</a>
</g>
</g>
<g id="clust2" class="cluster">
<title>clusterdir_6b130aa431c809d0d74568b67af7c9fa</title>
<g id="a_clust2"><a xlink:href="dir_6b130aa431c809d0d74568b67af7c9fa.html" target="_top">
<polygon fill="#eeeeff" stroke="#000000" points="16,-64 16,-188 232,-188 232,-64 16,-64"/>
</a>
</g>
</g>
<!-- dir_6b130aa431c809d0d74568b67af7c9fa -->
<g id="node1" class="node">
<title>dir_6b130aa431c809d0d74568b67af7c9fa</title>
<text text-anchor="middle" x="196" y="-159.5" font-family="Helvetica,sans-Serif" font-size="10.00" fill="#000000">Mergers</text>
</g>
<!-- dir_54d051ade5e6bd04623ba91b90a1a5a2 -->
<g id="node2" class="node">
<title>dir_54d051ade5e6bd04623ba91b90a1a5a2</title>
<g id="a_node2"><a xlink:href="dir_54d051ade5e6bd04623ba91b90a1a5a2.html" target="_top" xlink:title="include">
<polygon fill="#ffffff" stroke="#ff0000" points="78,-108 24,-108 24,-72 78,-72 78,-108"/>
<text text-anchor="middle" x="51" y="-87.5" font-family="Helvetica,sans-Serif" font-size="10.00" fill="#000000">include</text>
</a>
</g>
</g>
<!-- dir_bcbb2cf9a3d3d83e5515c82071a07177 -->
<g id="node5" class="node">
<title>dir_bcbb2cf9a3d3d83e5515c82071a07177</title>
<g id="a_node5"><a xlink:href="dir_bcbb2cf9a3d3d83e5515c82071a07177.html" target="_top" xlink:title="Framework">
<polygon fill="none" stroke="#ff0000" points="141.5,-36 70.5,-36 70.5,0 141.5,0 141.5,-36"/>
<text text-anchor="middle" x="106" y="-15.5" font-family="Helvetica,sans-Serif" font-size="10.00" fill="#000000">Framework</text>
</a>
</g>
</g>
<!-- dir_54d051ade5e6bd04623ba91b90a1a5a2&#45;&gt;dir_bcbb2cf9a3d3d83e5515c82071a07177 -->
<g id="edge3" class="edge">
<title>dir_54d051ade5e6bd04623ba91b90a1a5a2&#45;&gt;dir_bcbb2cf9a3d3d83e5515c82071a07177</title>
<path fill="none" stroke="#000000" d="M64.8788,-71.8314C71.2136,-63.5386 78.8384,-53.557 85.7926,-44.4533"/>
<polygon fill="#000000" stroke="#000000" points="88.6452,-46.4847 91.9343,-36.4133 83.0825,-42.2353 88.6452,-46.4847"/>
<g id="a_edge3&#45;headlabel"><a xlink:href="dir_000703_000044.html" target="_top" xlink:title="4">
<text text-anchor="middle" x="88.7195" y="-48.5647" font-family="Helvetica,sans-Serif" font-size="10.00" fill="#000000">4</text>
</a>
</g>
</g>
<!-- dir_3c2296e268495769673bb51457adc987 -->
<g id="node3" class="node">
<title>dir_3c2296e268495769673bb51457adc987</title>
<g id="a_node3"><a xlink:href="dir_3c2296e268495769673bb51457adc987.html" target="_top" xlink:title="src">
<polygon fill="#ffffff" stroke="#000000" points="78,-180 24,-180 24,-144 78,-144 78,-180"/>
<text text-anchor="middle" x="51" y="-159.5" font-family="Helvetica,sans-Serif" font-size="10.00" fill="#000000">src</text>
</a>
</g>
</g>
<!-- dir_3c2296e268495769673bb51457adc987&#45;&gt;dir_54d051ade5e6bd04623ba91b90a1a5a2 -->
<g id="edge1" class="edge">
<title>dir_3c2296e268495769673bb51457adc987&#45;&gt;dir_54d051ade5e6bd04623ba91b90a1a5a2</title>
<path fill="none" stroke="#000000" d="M51,-143.8314C51,-136.131 51,-126.9743 51,-118.4166"/>
<polygon fill="#000000" stroke="#000000" points="54.5001,-118.4132 51,-108.4133 47.5001,-118.4133 54.5001,-118.4132"/>
<g id="a_edge1&#45;headlabel"><a xlink:href="dir_000705_000703.html" target="_top" xlink:title="14">
<text text-anchor="middle" x="57.3393" y="-119.5079" font-family="Helvetica,sans-Serif" font-size="10.00" fill="#000000">14</text>
</a>
</g>
</g>
<!-- dir_3c2296e268495769673bb51457adc987&#45;&gt;dir_bcbb2cf9a3d3d83e5515c82071a07177 -->
<g id="edge2" class="edge">
<title>dir_3c2296e268495769673bb51457adc987&#45;&gt;dir_bcbb2cf9a3d3d83e5515c82071a07177</title>
<path fill="none" stroke="#000000" d="M65.8853,-143.5185C73.2462,-133.5296 81.672,-120.6716 87,-108 95.3306,-88.1876 100.1533,-64.3321 102.8541,-46.1605"/>
<polygon fill="#000000" stroke="#000000" points="106.3302,-46.5721 104.2095,-36.1917 99.3941,-45.6289 106.3302,-46.5721"/>
<g id="a_edge2&#45;headlabel"><a xlink:href="dir_000705_000044.html" target="_top" xlink:title="10">
<text text-anchor="middle" x="108.6594" y="-48.0164" font-family="Helvetica,sans-Serif" font-size="10.00" fill="#000000">10</text>
</a>
</g>
</g>
<!-- dir_86be7fd0bd143f0b0d363ee8147593c6 -->
<g id="node4" class="node">
<title>dir_86be7fd0bd143f0b0d363ee8147593c6</title>
<g id="a_node4"><a xlink:href="dir_86be7fd0bd143f0b0d363ee8147593c6.html" target="_top" xlink:title="test">
<polygon fill="#ffffff" stroke="#000000" points="150,-180 96,-180 96,-144 150,-144 150,-180"/>
<text text-anchor="middle" x="123" y="-159.5" font-family="Helvetica,sans-Serif" font-size="10.00" fill="#000000">test</text>
</a>
</g>
</g>
<!-- dir_86be7fd0bd143f0b0d363ee8147593c6&#45;&gt;dir_54d051ade5e6bd04623ba91b90a1a5a2 -->
<g id="edge4" class="edge">
<title>dir_86be7fd0bd143f0b0d363ee8147593c6&#45;&gt;dir_54d051ade5e6bd04623ba91b90a1a5a2</title>
<path fill="none" stroke="#000000" d="M104.8314,-143.8314C96.2848,-135.2848 85.9443,-124.9443 76.6198,-115.6198"/>
<polygon fill="#000000" stroke="#000000" points="78.9592,-113.0095 69.4133,-108.4133 74.0095,-117.9592 78.9592,-113.0095"/>
<g id="a_edge4&#45;headlabel"><a xlink:href="dir_000706_000703.html" target="_top" xlink:title="1">
<text text-anchor="middle" x="83.5087" y="-111.0436" font-family="Helvetica,sans-Serif" font-size="10.00" fill="#000000">1</text>
</a>
</g>
</g>
<!-- dir_86be7fd0bd143f0b0d363ee8147593c6&#45;&gt;dir_bcbb2cf9a3d3d83e5515c82071a07177 -->
<g id="edge5" class="edge">
<title>dir_86be7fd0bd143f0b0d363ee8147593c6&#45;&gt;dir_bcbb2cf9a3d3d83e5515c82071a07177</title>
<path fill="none" stroke="#000000" d="M124.2578,-143.8005C125.3212,-122.5289 125.8607,-86.3687 120,-56 119.3605,-52.6864 118.4687,-49.2795 117.4415,-45.9307"/>
<polygon fill="#000000" stroke="#000000" points="120.6542,-44.5121 114.0715,-36.2103 114.0404,-46.8051 120.6542,-44.5121"/>
<g id="a_edge5&#45;headlabel"><a xlink:href="dir_000706_000044.html" target="_top" xlink:title="1">
<text text-anchor="middle" x="124.5142" y="-44.4783" font-family="Helvetica,sans-Serif" font-size="10.00" fill="#000000">1</text>
</a>
</g>
</g>
</g>
</svg>
