<?xml version="1.0" encoding="UTF-8" standalone="no"?>
<!DOCTYPE svg PUBLIC "-//W3C//DTD SVG 1.1//EN"
 "http://www.w3.org/Graphics/SVG/1.1/DTD/svg11.dtd">
<!-- Generated by graphviz version 2.40.1 (20161225.0304)
 -->
<!-- Title: /home/travis/build/AliceO2Group/AliceO2/Detectors/MUON/MCH/Raw/Decoder/src Pages: 1 -->
<svg width="284pt" height="439pt"
 viewBox="0.00 0.00 283.50 439.00" xmlns="http://www.w3.org/2000/svg" xmlns:xlink="http://www.w3.org/1999/xlink">
<g id="graph0" class="graph" transform="scale(1 1) rotate(0) translate(4 435)">
<title>/home/travis/build/AliceO2Group/AliceO2/Detectors/MUON/MCH/Raw/Decoder/src</title>
<g id="clust1" class="cluster">
<title>clusterdir_060542ae88c3eb8c9b22a30de881a7e9</title>
<g id="a_clust1"><a xlink:href="dir_060542ae88c3eb8c9b22a30de881a7e9.html" target="_top" xlink:title="Decoder">
<polygon fill="#ddddee" stroke="#000000" points="132.5,-352 132.5,-423 202.5,-423 202.5,-352 132.5,-352"/>
<text text-anchor="middle" x="167.5" y="-411" font-family="Helvetica,sans-Serif" font-size="10.00" fill="#000000">Decoder</text>
</a>
</g>
</g>
<!-- dir_5cf327fcf87e9e676182b837d15f78ab -->
<g id="node1" class="node">
<title>dir_5cf327fcf87e9e676182b837d15f78ab</title>
<g id="a_node1"><a xlink:href="dir_5cf327fcf87e9e676182b837d15f78ab.html" target="_top" xlink:title="src">
<polygon fill="#eeeeff" stroke="#000000" points="194.5,-396 140.5,-396 140.5,-360 194.5,-360 194.5,-396"/>
<text text-anchor="middle" x="167.5" y="-375.5" font-family="Helvetica,sans-Serif" font-size="10.00" fill="#000000">src</text>
</a>
</g>
</g>
<!-- dir_0cfbacb297625179725e3de4f30c0e94 -->
<g id="node2" class="node">
<title>dir_0cfbacb297625179725e3de4f30c0e94</title>
<g id="a_node2"><a xlink:href="dir_0cfbacb297625179725e3de4f30c0e94.html" target="_top" xlink:title="ElecMap">
<polygon fill="none" stroke="#ff0000" points="209,-252 152,-252 152,-216 209,-216 209,-252"/>
<text text-anchor="middle" x="180.5" y="-231.5" font-family="Helvetica,sans-Serif" font-size="10.00" fill="#000000">ElecMap</text>
</a>
</g>
</g>
<!-- dir_5cf327fcf87e9e676182b837d15f78ab&#45;&gt;dir_0cfbacb297625179725e3de4f30c0e94 -->
<g id="edge7" class="edge">
<title>dir_5cf327fcf87e9e676182b837d15f78ab&#45;&gt;dir_0cfbacb297625179725e3de4f30c0e94</title>
<path fill="none" stroke="#000000" d="M171.1365,-359.5809C173.0477,-349.1773 175.2475,-335.9098 176.5,-324 178.6641,-303.4223 179.6597,-280.0779 180.1166,-262.3216"/>
<polygon fill="#000000" stroke="#000000" points="183.6158,-262.393 180.3326,-252.3197 176.6174,-262.2418 183.6158,-262.393"/>
<g id="a_edge7&#45;headlabel"><a xlink:href="dir_000008_000402.html" target="_top" xlink:title="1">
<text text-anchor="middle" x="186.3769" y="-263.548" font-family="Helvetica,sans-Serif" font-size="10.00" fill="#000000">1</text>
</a>
</g>
</g>
<!-- dir_73a2990d2d1f2bd930bc27bf45f6b0c9 -->
<g id="node3" class="node">
<title>dir_73a2990d2d1f2bd930bc27bf45f6b0c9</title>
<g id="a_node3"><a xlink:href="dir_73a2990d2d1f2bd930bc27bf45f6b0c9.html" target="_top" xlink:title="testdata">
<polygon fill="none" stroke="#000000" points="57,-324 0,-324 0,-288 57,-288 57,-324"/>
<text text-anchor="middle" x="28.5" y="-303.5" font-family="Helvetica,sans-Serif" font-size="10.00" fill="#000000">testdata</text>
</a>
</g>
</g>
<!-- dir_5cf327fcf87e9e676182b837d15f78ab&#45;&gt;dir_73a2990d2d1f2bd930bc27bf45f6b0c9 -->
<g id="edge8" class="edge">
<title>dir_5cf327fcf87e9e676182b837d15f78ab&#45;&gt;dir_73a2990d2d1f2bd930bc27bf45f6b0c9</title>
<path fill="none" stroke="#000000" d="M140.3694,-363.9468C119.3054,-353.0359 89.8449,-337.7758 66.4439,-325.6544"/>
<polygon fill="#000000" stroke="#000000" points="67.9683,-322.5024 57.479,-321.0107 64.7487,-328.718 67.9683,-322.5024"/>
<g id="a_edge8&#45;headlabel"><a xlink:href="dir_000008_000525.html" target="_top" xlink:title="1">
<text text-anchor="middle" x="72.466" y="-319.1345" font-family="Helvetica,sans-Serif" font-size="10.00" fill="#000000">1</text>
</a>
</g>
</g>
<!-- dir_55964488a5749f1fcba45aaf4e122cee -->
<g id="node4" class="node">
<title>dir_55964488a5749f1fcba45aaf4e122cee</title>
<g id="a_node4"><a xlink:href="dir_55964488a5749f1fcba45aaf4e122cee.html" target="_top" xlink:title="Common">
<polygon fill="none" stroke="#ff0000" points="158,-108 97,-108 97,-72 158,-72 158,-108"/>
<text text-anchor="middle" x="127.5" y="-87.5" font-family="Helvetica,sans-Serif" font-size="10.00" fill="#000000">Common</text>
</a>
</g>
</g>
<!-- dir_5cf327fcf87e9e676182b837d15f78ab&#45;&gt;dir_55964488a5749f1fcba45aaf4e122cee -->
<g id="edge9" class="edge">
<title>dir_5cf327fcf87e9e676182b837d15f78ab&#45;&gt;dir_55964488a5749f1fcba45aaf4e122cee</title>
<path fill="none" stroke="#000000" d="M140.4774,-362.6789C126.9784,-353.4052 111.9641,-340.2286 104.5,-324 72.7842,-255.0429 99.2733,-162.8114 116.1481,-117.4923"/>
<polygon fill="#000000" stroke="#000000" points="119.4584,-118.6351 119.7825,-108.0452 112.9252,-116.1216 119.4584,-118.6351"/>
<g id="a_edge9&#45;headlabel"><a xlink:href="dir_000008_000513.html" target="_top" xlink:title="9">
<text text-anchor="middle" x="120.8178" y="-120.5094" font-family="Helvetica,sans-Serif" font-size="10.00" fill="#000000">9</text>
</a>
</g>
</g>
<!-- dir_cfadcf1c28477e06298c128044978e91 -->
<g id="node5" class="node">
<title>dir_cfadcf1c28477e06298c128044978e91</title>
<g id="a_node5"><a xlink:href="dir_cfadcf1c28477e06298c128044978e91.html" target="_top" xlink:title="ImplHelpers">
<polygon fill="none" stroke="#000000" points="227.5,-180 151.5,-180 151.5,-144 227.5,-144 227.5,-180"/>
<text text-anchor="middle" x="189.5" y="-159.5" font-family="Helvetica,sans-Serif" font-size="10.00" fill="#000000">ImplHelpers</text>
</a>
</g>
</g>
<!-- dir_5cf327fcf87e9e676182b837d15f78ab&#45;&gt;dir_cfadcf1c28477e06298c128044978e91 -->
<g id="edge10" class="edge">
<title>dir_5cf327fcf87e9e676182b837d15f78ab&#45;&gt;dir_cfadcf1c28477e06298c128044978e91</title>
<path fill="none" stroke="#000000" d="M177.5072,-359.9277C190.038,-336.077 210.6891,-292.3795 217.5,-252 220.1612,-236.2229 221.2904,-231.5445 217.5,-216 215.2461,-206.7566 211.1107,-197.3312 206.6973,-188.9966"/>
<polygon fill="#000000" stroke="#000000" points="209.6476,-187.1033 201.6817,-180.118 203.5529,-190.5463 209.6476,-187.1033"/>
<g id="a_edge10&#45;headlabel"><a xlink:href="dir_000008_000524.html" target="_top" xlink:title="10">
<text text-anchor="middle" x="213.8877" y="-186.3366" font-family="Helvetica,sans-Serif" font-size="10.00" fill="#000000">10</text>
</a>
</g>
</g>
<!-- dir_10dbadd582c5f56f2a579debde05dc79 -->
<g id="node6" class="node">
<title>dir_10dbadd582c5f56f2a579debde05dc79</title>
<g id="a_node6"><a xlink:href="dir_10dbadd582c5f56f2a579debde05dc79.html" target="_top" xlink:title="include">
<polygon fill="none" stroke="#ff0000" points="167.5,-324 113.5,-324 113.5,-288 167.5,-288 167.5,-324"/>
<text text-anchor="middle" x="140.5" y="-303.5" font-family="Helvetica,sans-Serif" font-size="10.00" fill="#000000">include</text>
</a>
</g>
</g>
<!-- dir_5cf327fcf87e9e676182b837d15f78ab&#45;&gt;dir_10dbadd582c5f56f2a579debde05dc79 -->
<g id="edge11" class="edge">
<title>dir_5cf327fcf87e9e676182b837d15f78ab&#45;&gt;dir_10dbadd582c5f56f2a579debde05dc79</title>
<path fill="none" stroke="#000000" d="M160.6868,-359.8314C157.7356,-351.9617 154.2142,-342.5712 150.945,-333.8533"/>
<polygon fill="#000000" stroke="#000000" points="154.1934,-332.5476 147.405,-324.4133 147.6391,-335.0055 154.1934,-332.5476"/>
<g id="a_edge11&#45;headlabel"><a xlink:href="dir_000008_000518.html" target="_top" xlink:title="7">
<text text-anchor="middle" x="158.114" y="-332.4164" font-family="Helvetica,sans-Serif" font-size="10.00" fill="#000000">7</text>
</a>
</g>
</g>
<!-- dir_2171f7ec022c5423887b07c69b2f5b48 -->
<g id="node7" class="node">
<title>dir_2171f7ec022c5423887b07c69b2f5b48</title>
<g id="a_node7"><a xlink:href="dir_2171f7ec022c5423887b07c69b2f5b48.html" target="_top" xlink:title="DataFormats">
<polygon fill="none" stroke="#ff0000" points="229.5,-36 149.5,-36 149.5,0 229.5,0 229.5,-36"/>
<text text-anchor="middle" x="189.5" y="-15.5" font-family="Helvetica,sans-Serif" font-size="10.00" fill="#000000">DataFormats</text>
</a>
</g>
</g>
<!-- dir_5cf327fcf87e9e676182b837d15f78ab&#45;&gt;dir_2171f7ec022c5423887b07c69b2f5b48 -->
<g id="edge12" class="edge">
<title>dir_5cf327fcf87e9e676182b837d15f78ab&#45;&gt;dir_2171f7ec022c5423887b07c69b2f5b48</title>
<path fill="none" stroke="#000000" d="M193.6438,-359.8783C225.6067,-335.3584 275.5,-288.375 275.5,-234 275.5,-234 275.5,-234 275.5,-162 275.5,-115.3549 241.8275,-70.7026 216.6224,-43.8126"/>
<polygon fill="#000000" stroke="#000000" points="218.9114,-41.1445 209.4463,-36.3839 213.8767,-46.0079 218.9114,-41.1445"/>
<g id="a_edge12&#45;headlabel"><a xlink:href="dir_000008_000068.html" target="_top" xlink:title="3">
<text text-anchor="middle" x="223.4509" y="-39.2572" font-family="Helvetica,sans-Serif" font-size="10.00" fill="#000000">3</text>
</a>
</g>
</g>
<!-- dir_0cfbacb297625179725e3de4f30c0e94&#45;&gt;dir_cfadcf1c28477e06298c128044978e91 -->
<g id="edge2" class="edge">
<title>dir_0cfbacb297625179725e3de4f30c0e94&#45;&gt;dir_cfadcf1c28477e06298c128044978e91</title>
<path fill="none" stroke="#000000" d="M182.7711,-215.8314C183.7336,-208.131 184.8782,-198.9743 185.9479,-190.4166"/>
<polygon fill="#000000" stroke="#000000" points="189.4309,-190.7702 187.1983,-180.4133 182.4849,-189.9019 189.4309,-190.7702"/>
<g id="a_edge2&#45;headlabel"><a xlink:href="dir_000402_000524.html" target="_top" xlink:title="3">
<text text-anchor="middle" x="191.8025" y="-192.1892" font-family="Helvetica,sans-Serif" font-size="10.00" fill="#000000">3</text>
</a>
</g>
</g>
<!-- dir_73a2990d2d1f2bd930bc27bf45f6b0c9&#45;&gt;dir_55964488a5749f1fcba45aaf4e122cee -->
<g id="edge1" class="edge">
<title>dir_73a2990d2d1f2bd930bc27bf45f6b0c9&#45;&gt;dir_55964488a5749f1fcba45aaf4e122cee</title>
<path fill="none" stroke="#000000" d="M30.121,-287.7638C33.5798,-256.4208 43.7729,-191.1587 71.5,-144 77.8106,-133.2669 86.8381,-123.2613 95.8075,-114.8512"/>
<polygon fill="#000000" stroke="#000000" points="98.1456,-117.4557 103.2671,-108.1809 93.4796,-112.2375 98.1456,-117.4557"/>
<g id="a_edge1&#45;headlabel"><a xlink:href="dir_000525_000513.html" target="_top" xlink:title="2">
<text text-anchor="middle" x="97.3585" y="-119.4682" font-family="Helvetica,sans-Serif" font-size="10.00" fill="#000000">2</text>
</a>
</g>
</g>
<!-- dir_55964488a5749f1fcba45aaf4e122cee&#45;&gt;dir_cfadcf1c28477e06298c128044978e91 -->
<g id="edge3" class="edge">
<title>dir_55964488a5749f1fcba45aaf4e122cee&#45;&gt;dir_cfadcf1c28477e06298c128044978e91</title>
<path fill="none" stroke="#000000" d="M149.3319,-108.4133C157.2973,-116.7389 166.0812,-126.7282 173.4732,-135.8144"/>
<polygon fill="#000000" stroke="#000000" points="170.8615,-138.1546 179.8072,-143.8314 176.3541,-133.815 170.8615,-138.1546"/>
<g id="a_edge3&#45;headlabel"><a xlink:href="dir_000513_000524.html" target="_top" xlink:title="2">
<text text-anchor="middle" x="166.4053" y="-134.5942" font-family="Helvetica,sans-Serif" font-size="10.00" fill="#000000">2</text>
</a>
</g>
</g>
<!-- dir_55964488a5749f1fcba45aaf4e122cee&#45;&gt;dir_2171f7ec022c5423887b07c69b2f5b48 -->
<g id="edge4" class="edge">
<title>dir_55964488a5749f1fcba45aaf4e122cee&#45;&gt;dir_2171f7ec022c5423887b07c69b2f5b48</title>
<path fill="none" stroke="#000000" d="M143.1452,-71.8314C150.3591,-63.454 159.057,-53.3531 166.9605,-44.1749"/>
<polygon fill="#000000" stroke="#000000" points="169.7711,-46.2748 173.6441,-36.4133 164.4667,-41.7071 169.7711,-46.2748"/>
<g id="a_edge4&#45;headlabel"><a xlink:href="dir_000513_000068.html" target="_top" xlink:title="2">
<text text-anchor="middle" x="169.577" y="-48.3514" font-family="Helvetica,sans-Serif" font-size="10.00" fill="#000000">2</text>
</a>
</g>
</g>
<!-- dir_cfadcf1c28477e06298c128044978e91&#45;&gt;dir_55964488a5749f1fcba45aaf4e122cee -->
<g id="edge5" class="edge">
<title>dir_cfadcf1c28477e06298c128044978e91&#45;&gt;dir_55964488a5749f1fcba45aaf4e122cee</title>
<path fill="none" stroke="#000000" d="M167.9024,-143.8314C159.9533,-135.5386 151.164,-125.557 143.7448,-116.4533"/>
<polygon fill="#000000" stroke="#000000" points="146.331,-114.0814 137.3799,-108.4133 140.8427,-118.4263 146.331,-114.0814"/>
<g id="a_edge5&#45;headlabel"><a xlink:href="dir_000524_000513.html" target="_top" xlink:title="2">
<text text-anchor="middle" x="150.7883" y="-112.6374" font-family="Helvetica,sans-Serif" font-size="10.00" fill="#000000">2</text>
</a>
</g>
</g>
<!-- dir_cfadcf1c28477e06298c128044978e91&#45;&gt;dir_2171f7ec022c5423887b07c69b2f5b48 -->
<g id="edge6" class="edge">
<title>dir_cfadcf1c28477e06298c128044978e91&#45;&gt;dir_2171f7ec022c5423887b07c69b2f5b48</title>
<path fill="none" stroke="#000000" d="M189.5,-143.7623C189.5,-119.201 189.5,-75.2474 189.5,-46.3541"/>
<polygon fill="#000000" stroke="#000000" points="193.0001,-46.0896 189.5,-36.0896 186.0001,-46.0897 193.0001,-46.0896"/>
<g id="a_edge6&#45;headlabel"><a xlink:href="dir_000524_000068.html" target="_top" xlink:title="1">
<text text-anchor="middle" x="195.8393" y="-47.1842" font-family="Helvetica,sans-Serif" font-size="10.00" fill="#000000">1</text>
</a>
</g>
</g>
<!-- dir_10dbadd582c5f56f2a579debde05dc79&#45;&gt;dir_0cfbacb297625179725e3de4f30c0e94 -->
<g id="edge13" class="edge">
<title>dir_10dbadd582c5f56f2a579debde05dc79&#45;&gt;dir_0cfbacb297625179725e3de4f30c0e94</title>
<path fill="none" stroke="#000000" d="M150.5937,-287.8314C155.0597,-279.7925 160.4075,-270.1666 165.3379,-261.2918"/>
<polygon fill="#000000" stroke="#000000" points="168.4735,-262.8546 170.2704,-252.4133 162.3544,-259.4551 168.4735,-262.8546"/>
<g id="a_edge13&#45;headlabel"><a xlink:href="dir_000518_000402.html" target="_top" xlink:title="1">
<text text-anchor="middle" x="169.2098" y="-264.8757" font-family="Helvetica,sans-Serif" font-size="10.00" fill="#000000">1</text>
</a>
</g>
</g>
<!-- dir_10dbadd582c5f56f2a579debde05dc79&#45;&gt;dir_55964488a5749f1fcba45aaf4e122cee -->
<g id="edge14" class="edge">
<title>dir_10dbadd582c5f56f2a579debde05dc79&#45;&gt;dir_55964488a5749f1fcba45aaf4e122cee</title>
<path fill="none" stroke="#000000" d="M139.414,-287.9555C137.1533,-250.3938 131.9269,-163.5541 129.2099,-118.4103"/>
<polygon fill="#000000" stroke="#000000" points="132.6866,-117.9167 128.5921,-108.1451 125.6992,-118.3373 132.6866,-117.9167"/>
<g id="a_edge14&#45;headlabel"><a xlink:href="dir_000518_000513.html" target="_top" xlink:title="2">
<text text-anchor="middle" x="135.7366" y="-118.8343" font-family="Helvetica,sans-Serif" font-size="10.00" fill="#000000">2</text>
</a>
</g>
</g>
</g>
</svg>
