<?xml version="1.0" encoding="UTF-8" standalone="no"?>
<!DOCTYPE svg PUBLIC "-//W3C//DTD SVG 1.1//EN"
 "http://www.w3.org/Graphics/SVG/1.1/DTD/svg11.dtd">
<!-- Generated by graphviz version 2.40.1 (20161225.0304)
 -->
<!-- Title: /home/travis/build/AliceO2Group/AliceO2/Common/SimConfig Pages: 1 -->
<svg width="346pt" height="183pt"
 viewBox="0.00 0.00 346.00 183.00" xmlns="http://www.w3.org/2000/svg" xmlns:xlink="http://www.w3.org/1999/xlink">
<g id="graph0" class="graph" transform="scale(1 1) rotate(0) translate(4 179)">
<title>/home/travis/build/AliceO2Group/AliceO2/Common/SimConfig</title>
<g id="clust1" class="cluster">
<title>clusterdir_4ab6b4cc6a7edbff49100e9123df213f</title>
<g id="a_clust1"><a xlink:href="dir_4ab6b4cc6a7edbff49100e9123df213f.html" target="_top" xlink:title="Common">
<polygon fill="#ddddee" stroke="#000000" points="8,-8 8,-167 250,-167 250,-8 8,-8"/>
<text text-anchor="middle" x="129" y="-155" font-family="Helvetica,sans-Serif" font-size="10.00" fill="#000000">Common</text>
</a>
</g>
</g>
<g id="clust2" class="cluster">
<title>clusterdir_3a79d3ee4538628fc18e2135ea9cbf22</title>
<g id="a_clust2"><a xlink:href="dir_3a79d3ee4538628fc18e2135ea9cbf22.html" target="_top">
<polygon fill="#eeeeff" stroke="#000000" points="16,-16 16,-140 242,-140 242,-16 16,-16"/>
</a>
</g>
</g>
<!-- dir_3a79d3ee4538628fc18e2135ea9cbf22 -->
<g id="node1" class="node">
<title>dir_3a79d3ee4538628fc18e2135ea9cbf22</title>
<text text-anchor="middle" x="201" y="-111.5" font-family="Helvetica,sans-Serif" font-size="10.00" fill="#000000">SimConfig</text>
</g>
<!-- dir_375bd88f63e271d5d73a9bd76f7c7d20 -->
<g id="node2" class="node">
<title>dir_375bd88f63e271d5d73a9bd76f7c7d20</title>
<g id="a_node2"><a xlink:href="dir_375bd88f63e271d5d73a9bd76f7c7d20.html" target="_top" xlink:title="include">
<polygon fill="#ffffff" stroke="#ff0000" points="150,-60 96,-60 96,-24 150,-24 150,-60"/>
<text text-anchor="middle" x="123" y="-39.5" font-family="Helvetica,sans-Serif" font-size="10.00" fill="#000000">include</text>
</a>
</g>
</g>
<!-- dir_c2e3567c9a1d65d9266c9dfa2d40f095 -->
<g id="node3" class="node">
<title>dir_c2e3567c9a1d65d9266c9dfa2d40f095</title>
<g id="a_node3"><a xlink:href="dir_c2e3567c9a1d65d9266c9dfa2d40f095.html" target="_top" xlink:title="src">
<polygon fill="#ffffff" stroke="#000000" points="150,-132 96,-132 96,-96 150,-96 150,-132"/>
<text text-anchor="middle" x="123" y="-111.5" font-family="Helvetica,sans-Serif" font-size="10.00" fill="#000000">src</text>
</a>
</g>
</g>
<!-- dir_c2e3567c9a1d65d9266c9dfa2d40f095&#45;&gt;dir_375bd88f63e271d5d73a9bd76f7c7d20 -->
<g id="edge1" class="edge">
<title>dir_c2e3567c9a1d65d9266c9dfa2d40f095&#45;&gt;dir_375bd88f63e271d5d73a9bd76f7c7d20</title>
<path fill="none" stroke="#000000" d="M123,-95.8314C123,-88.131 123,-78.9743 123,-70.4166"/>
<polygon fill="#000000" stroke="#000000" points="126.5001,-70.4132 123,-60.4133 119.5001,-70.4133 126.5001,-70.4132"/>
<g id="a_edge1&#45;headlabel"><a xlink:href="dir_000057_000051.html" target="_top" xlink:title="7">
<text text-anchor="middle" x="129.3393" y="-71.5079" font-family="Helvetica,sans-Serif" font-size="10.00" fill="#000000">7</text>
</a>
</g>
</g>
<!-- dir_2171f7ec022c5423887b07c69b2f5b48 -->
<g id="node5" class="node">
<title>dir_2171f7ec022c5423887b07c69b2f5b48</title>
<g id="a_node5"><a xlink:href="dir_2171f7ec022c5423887b07c69b2f5b48.html" target="_top" xlink:title="DataFormats">
<polygon fill="none" stroke="#ff0000" points="338,-60 258,-60 258,-24 338,-24 338,-60"/>
<text text-anchor="middle" x="298" y="-39.5" font-family="Helvetica,sans-Serif" font-size="10.00" fill="#000000">DataFormats</text>
</a>
</g>
</g>
<!-- dir_c2e3567c9a1d65d9266c9dfa2d40f095&#45;&gt;dir_2171f7ec022c5423887b07c69b2f5b48 -->
<g id="edge2" class="edge">
<title>dir_c2e3567c9a1d65d9266c9dfa2d40f095&#45;&gt;dir_2171f7ec022c5423887b07c69b2f5b48</title>
<path fill="none" stroke="#000000" d="M150.3919,-99.975C153.2808,-98.5947 156.189,-97.2455 159,-96 188.1967,-83.0631 221.5289,-70.056 248.2326,-60.05"/>
<polygon fill="#000000" stroke="#000000" points="249.6014,-63.2751 257.751,-56.505 247.1582,-56.7153 249.6014,-63.2751"/>
<g id="a_edge2&#45;headlabel"><a xlink:href="dir_000057_000068.html" target="_top" xlink:title="1">
<text text-anchor="middle" x="247.2237" y="-64.6904" font-family="Helvetica,sans-Serif" font-size="10.00" fill="#000000">1</text>
</a>
</g>
</g>
<!-- dir_9b94e05bb71d8fb7265b0a118677c4f8 -->
<g id="node4" class="node">
<title>dir_9b94e05bb71d8fb7265b0a118677c4f8</title>
<g id="a_node4"><a xlink:href="dir_9b94e05bb71d8fb7265b0a118677c4f8.html" target="_top" xlink:title="test">
<polygon fill="#ffffff" stroke="#000000" points="78,-132 24,-132 24,-96 78,-96 78,-132"/>
<text text-anchor="middle" x="51" y="-111.5" font-family="Helvetica,sans-Serif" font-size="10.00" fill="#000000">test</text>
</a>
</g>
</g>
<!-- dir_9b94e05bb71d8fb7265b0a118677c4f8&#45;&gt;dir_375bd88f63e271d5d73a9bd76f7c7d20 -->
<g id="edge3" class="edge">
<title>dir_9b94e05bb71d8fb7265b0a118677c4f8&#45;&gt;dir_375bd88f63e271d5d73a9bd76f7c7d20</title>
<path fill="none" stroke="#000000" d="M69.1686,-95.8314C77.7152,-87.2848 88.0557,-76.9443 97.3802,-67.6198"/>
<polygon fill="#000000" stroke="#000000" points="99.9905,-69.9592 104.5867,-60.4133 95.0408,-65.0095 99.9905,-69.9592"/>
<g id="a_edge3&#45;headlabel"><a xlink:href="dir_000059_000051.html" target="_top" xlink:title="4">
<text text-anchor="middle" x="99.4564" y="-72.0087" font-family="Helvetica,sans-Serif" font-size="10.00" fill="#000000">4</text>
</a>
</g>
</g>
<!-- dir_2171f7ec022c5423887b07c69b2f5b48&#45;&gt;dir_375bd88f63e271d5d73a9bd76f7c7d20 -->
<g id="edge4" class="edge">
<title>dir_2171f7ec022c5423887b07c69b2f5b48&#45;&gt;dir_375bd88f63e271d5d73a9bd76f7c7d20</title>
<path fill="none" stroke="#000000" d="M257.8208,-42C225.2506,-42 192.6803,-42 160.11,-42"/>
<polygon fill="#000000" stroke="#000000" points="160.002,-38.5001 150.002,-42 160.0019,-45.5001 160.002,-38.5001"/>
<g id="a_edge4&#45;headlabel"><a xlink:href="dir_000068_000051.html" target="_top" xlink:title="3">
<text text-anchor="middle" x="163.5966" y="-33.1607" font-family="Helvetica,sans-Serif" font-size="10.00" fill="#000000">3</text>
</a>
</g>
</g>
</g>
</svg>
