<?xml version="1.0" encoding="UTF-8" standalone="no"?>
<!DOCTYPE svg PUBLIC "-//W3C//DTD SVG 1.1//EN"
 "http://www.w3.org/Graphics/SVG/1.1/DTD/svg11.dtd">
<!-- Generated by graphviz version 2.40.1 (20161225.0304)
 -->
<!-- Title: /home/travis/build/AliceO2Group/AliceO2/Detectors/ITSMFT/ITS/workflow/include Pages: 1 -->
<svg width="295pt" height="375pt"
 viewBox="0.00 0.00 295.00 375.00" xmlns="http://www.w3.org/2000/svg" xmlns:xlink="http://www.w3.org/1999/xlink">
<g id="graph0" class="graph" transform="scale(1 1) rotate(0) translate(4 371)">
<title>/home/travis/build/AliceO2Group/AliceO2/Detectors/ITSMFT/ITS/workflow/include</title>
<g id="clust1" class="cluster">
<title>clusterdir_1c10308a10e2a510f98c8482fd126054</title>
<g id="a_clust1"><a xlink:href="dir_1c10308a10e2a510f98c8482fd126054.html" target="_top" xlink:title="workflow">
<polygon fill="#ddddee" stroke="#000000" points="97,-272 97,-359 279,-359 279,-272 97,-272"/>
<text text-anchor="middle" x="188" y="-347" font-family="Helvetica,sans-Serif" font-size="10.00" fill="#000000">workflow</text>
</a>
</g>
</g>
<g id="clust2" class="cluster">
<title>clusterdir_618fe6153adfd0aa136e98ba4badcb47</title>
<g id="a_clust2"><a xlink:href="dir_618fe6153adfd0aa136e98ba4badcb47.html" target="_top">
<polygon fill="#eeeeff" stroke="#000000" points="105,-280 105,-332 271,-332 271,-280 105,-280"/>
</a>
</g>
</g>
<!-- dir_618fe6153adfd0aa136e98ba4badcb47 -->
<g id="node1" class="node">
<title>dir_618fe6153adfd0aa136e98ba4badcb47</title>
<text text-anchor="middle" x="236" y="-303.5" font-family="Helvetica,sans-Serif" font-size="10.00" fill="#000000">include</text>
</g>
<!-- dir_2c40afba594fde3eef37ddd5abe3c060 -->
<g id="node2" class="node">
<title>dir_2c40afba594fde3eef37ddd5abe3c060</title>
<g id="a_node2"><a xlink:href="dir_2c40afba594fde3eef37ddd5abe3c060.html" target="_top" xlink:title="ITSWorkflow">
<polygon fill="#ffffff" stroke="#000000" points="190.5,-324 113.5,-324 113.5,-288 190.5,-288 190.5,-324"/>
<text text-anchor="middle" x="152" y="-303.5" font-family="Helvetica,sans-Serif" font-size="10.00" fill="#000000">ITSWorkflow</text>
</a>
</g>
</g>
<!-- dir_85bf31a2e8d306e7598ffcb73f8df6bf -->
<g id="node3" class="node">
<title>dir_85bf31a2e8d306e7598ffcb73f8df6bf</title>
<g id="a_node3"><a xlink:href="dir_85bf31a2e8d306e7598ffcb73f8df6bf.html" target="_top" xlink:title="common">
<polygon fill="none" stroke="#ff0000" points="121.5,-180 62.5,-180 62.5,-144 121.5,-144 121.5,-180"/>
<text text-anchor="middle" x="92" y="-159.5" font-family="Helvetica,sans-Serif" font-size="10.00" fill="#000000">common</text>
</a>
</g>
</g>
<!-- dir_2c40afba594fde3eef37ddd5abe3c060&#45;&gt;dir_85bf31a2e8d306e7598ffcb73f8df6bf -->
<g id="edge1" class="edge">
<title>dir_2c40afba594fde3eef37ddd5abe3c060&#45;&gt;dir_85bf31a2e8d306e7598ffcb73f8df6bf</title>
<path fill="none" stroke="#000000" d="M144.401,-287.7623C134.0769,-262.9846 115.5297,-218.4714 103.4975,-189.5939"/>
<polygon fill="#000000" stroke="#000000" points="106.6143,-187.9742 99.5373,-180.0896 100.1528,-190.6666 106.6143,-187.9742"/>
<g id="a_edge1&#45;headlabel"><a xlink:href="dir_000389_000053.html" target="_top" xlink:title="1">
<text text-anchor="middle" x="110.6177" y="-187.7003" font-family="Helvetica,sans-Serif" font-size="10.00" fill="#000000">1</text>
</a>
</g>
</g>
<!-- dir_5125ceb2b58f632ed0a3019fe2d5cbbc -->
<g id="node4" class="node">
<title>dir_5125ceb2b58f632ed0a3019fe2d5cbbc</title>
<g id="a_node4"><a xlink:href="dir_5125ceb2b58f632ed0a3019fe2d5cbbc.html" target="_top" xlink:title="reconstruction">
<polygon fill="none" stroke="#ff0000" points="86,-252 0,-252 0,-216 86,-216 86,-252"/>
<text text-anchor="middle" x="43" y="-231.5" font-family="Helvetica,sans-Serif" font-size="10.00" fill="#000000">reconstruction</text>
</a>
</g>
</g>
<!-- dir_2c40afba594fde3eef37ddd5abe3c060&#45;&gt;dir_5125ceb2b58f632ed0a3019fe2d5cbbc -->
<g id="edge2" class="edge">
<title>dir_2c40afba594fde3eef37ddd5abe3c060&#45;&gt;dir_5125ceb2b58f632ed0a3019fe2d5cbbc</title>
<path fill="none" stroke="#000000" d="M124.4947,-287.8314C110.682,-278.7074 93.7744,-267.539 78.9471,-257.7449"/>
<polygon fill="#000000" stroke="#000000" points="80.7696,-254.7541 70.4965,-252.1628 76.9114,-260.5949 80.7696,-254.7541"/>
<g id="a_edge2&#45;headlabel"><a xlink:href="dir_000389_000469.html" target="_top" xlink:title="1">
<text text-anchor="middle" x="85.3338" y="-251.8662" font-family="Helvetica,sans-Serif" font-size="10.00" fill="#000000">1</text>
</a>
</g>
</g>
<!-- dir_beaad5fa58c175f2fa05fab7e2ac7ba4 -->
<g id="node5" class="node">
<title>dir_beaad5fa58c175f2fa05fab7e2ac7ba4</title>
<g id="a_node5"><a xlink:href="dir_beaad5fa58c175f2fa05fab7e2ac7ba4.html" target="_top" xlink:title="tracking">
<polygon fill="none" stroke="#ff0000" points="236,-252 180,-252 180,-216 236,-216 236,-252"/>
<text text-anchor="middle" x="208" y="-231.5" font-family="Helvetica,sans-Serif" font-size="10.00" fill="#000000">tracking</text>
</a>
</g>
</g>
<!-- dir_2c40afba594fde3eef37ddd5abe3c060&#45;&gt;dir_beaad5fa58c175f2fa05fab7e2ac7ba4 -->
<g id="edge3" class="edge">
<title>dir_2c40afba594fde3eef37ddd5abe3c060&#45;&gt;dir_beaad5fa58c175f2fa05fab7e2ac7ba4</title>
<path fill="none" stroke="#000000" d="M166.1312,-287.8314C172.5811,-279.5386 180.3445,-269.557 187.4252,-260.4533"/>
<polygon fill="#000000" stroke="#000000" points="190.3019,-262.4556 193.6786,-252.4133 184.7764,-258.158 190.3019,-262.4556"/>
<g id="a_edge3&#45;headlabel"><a xlink:href="dir_000389_000040.html" target="_top" xlink:title="4">
<text text-anchor="middle" x="190.3362" y="-264.5361" font-family="Helvetica,sans-Serif" font-size="10.00" fill="#000000">4</text>
</a>
</g>
</g>
<!-- dir_bcbb2cf9a3d3d83e5515c82071a07177 -->
<g id="node6" class="node">
<title>dir_bcbb2cf9a3d3d83e5515c82071a07177</title>
<g id="a_node6"><a xlink:href="dir_bcbb2cf9a3d3d83e5515c82071a07177.html" target="_top" xlink:title="Framework">
<polygon fill="none" stroke="#ff0000" points="189.5,-108 118.5,-108 118.5,-72 189.5,-72 189.5,-108"/>
<text text-anchor="middle" x="154" y="-87.5" font-family="Helvetica,sans-Serif" font-size="10.00" fill="#000000">Framework</text>
</a>
</g>
</g>
<!-- dir_2c40afba594fde3eef37ddd5abe3c060&#45;&gt;dir_bcbb2cf9a3d3d83e5515c82071a07177 -->
<g id="edge4" class="edge">
<title>dir_2c40afba594fde3eef37ddd5abe3c060&#45;&gt;dir_bcbb2cf9a3d3d83e5515c82071a07177</title>
<path fill="none" stroke="#000000" d="M152.1671,-287.9555C152.5149,-250.3938 153.3189,-163.5541 153.7369,-118.4103"/>
<polygon fill="#000000" stroke="#000000" points="157.2392,-118.1771 153.832,-108.1451 150.2395,-118.1122 157.2392,-118.1771"/>
<g id="a_edge4&#45;headlabel"><a xlink:href="dir_000389_000044.html" target="_top" xlink:title="17">
<text text-anchor="middle" x="160.0451" y="-119.2978" font-family="Helvetica,sans-Serif" font-size="10.00" fill="#000000">17</text>
</a>
</g>
</g>
<!-- dir_2171f7ec022c5423887b07c69b2f5b48 -->
<g id="node7" class="node">
<title>dir_2171f7ec022c5423887b07c69b2f5b48</title>
<g id="a_node7"><a xlink:href="dir_2171f7ec022c5423887b07c69b2f5b48.html" target="_top" xlink:title="DataFormats">
<polygon fill="none" stroke="#ff0000" points="194,-36 114,-36 114,0 194,0 194,-36"/>
<text text-anchor="middle" x="154" y="-15.5" font-family="Helvetica,sans-Serif" font-size="10.00" fill="#000000">DataFormats</text>
</a>
</g>
</g>
<!-- dir_2c40afba594fde3eef37ddd5abe3c060&#45;&gt;dir_2171f7ec022c5423887b07c69b2f5b48 -->
<g id="edge5" class="edge">
<title>dir_2c40afba594fde3eef37ddd5abe3c060&#45;&gt;dir_2171f7ec022c5423887b07c69b2f5b48</title>
<path fill="none" stroke="#000000" d="M175.804,-287.7373C183.338,-282.3437 191.834,-276.6459 200,-272 219.0231,-261.1772 233.0738,-270.3515 245,-252 269.3349,-214.5544 275.7753,-172.9815 217,-72 210.4244,-60.7024 200.5948,-50.6292 190.6443,-42.3319"/>
<polygon fill="#000000" stroke="#000000" points="192.7185,-39.5103 182.6982,-36.0689 188.3854,-45.0079 192.7185,-39.5103"/>
<g id="a_edge5&#45;headlabel"><a xlink:href="dir_000389_000068.html" target="_top" xlink:title="10">
<text text-anchor="middle" x="197.2992" y="-37.0055" font-family="Helvetica,sans-Serif" font-size="10.00" fill="#000000">10</text>
</a>
</g>
</g>
<!-- dir_85bf31a2e8d306e7598ffcb73f8df6bf&#45;&gt;dir_bcbb2cf9a3d3d83e5515c82071a07177 -->
<g id="edge6" class="edge">
<title>dir_85bf31a2e8d306e7598ffcb73f8df6bf&#45;&gt;dir_bcbb2cf9a3d3d83e5515c82071a07177</title>
<path fill="none" stroke="#000000" d="M107.6452,-143.8314C114.8591,-135.454 123.557,-125.3531 131.4605,-116.1749"/>
<polygon fill="#000000" stroke="#000000" points="134.2711,-118.2748 138.1441,-108.4133 128.9667,-113.7071 134.2711,-118.2748"/>
<g id="a_edge6&#45;headlabel"><a xlink:href="dir_000053_000044.html" target="_top" xlink:title="5">
<text text-anchor="middle" x="134.077" y="-120.3514" font-family="Helvetica,sans-Serif" font-size="10.00" fill="#000000">5</text>
</a>
</g>
</g>
<!-- dir_85bf31a2e8d306e7598ffcb73f8df6bf&#45;&gt;dir_2171f7ec022c5423887b07c69b2f5b48 -->
<g id="edge7" class="edge">
<title>dir_85bf31a2e8d306e7598ffcb73f8df6bf&#45;&gt;dir_2171f7ec022c5423887b07c69b2f5b48</title>
<path fill="none" stroke="#000000" d="M86.0288,-143.9318C85.1224,-125.1506 89.0111,-95.2987 100,-72 104.8227,-61.7748 112.048,-51.8786 119.7318,-43.4123"/>
<polygon fill="#000000" stroke="#000000" points="122.4056,-45.6829 126.8616,-36.0707 117.3839,-40.8061 122.4056,-45.6829"/>
<g id="a_edge7&#45;headlabel"><a xlink:href="dir_000053_000068.html" target="_top" xlink:title="40">
<text text-anchor="middle" x="121.9382" y="-47.7396" font-family="Helvetica,sans-Serif" font-size="10.00" fill="#000000">40</text>
</a>
</g>
</g>
<!-- dir_5125ceb2b58f632ed0a3019fe2d5cbbc&#45;&gt;dir_85bf31a2e8d306e7598ffcb73f8df6bf -->
<g id="edge8" class="edge">
<title>dir_5125ceb2b58f632ed0a3019fe2d5cbbc&#45;&gt;dir_85bf31a2e8d306e7598ffcb73f8df6bf</title>
<path fill="none" stroke="#000000" d="M55.3648,-215.8314C60.9509,-207.6232 67.663,-197.7606 73.8072,-188.7323"/>
<polygon fill="#000000" stroke="#000000" points="76.736,-190.6496 79.4687,-180.4133 70.949,-186.7112 76.736,-190.6496"/>
<g id="a_edge8&#45;headlabel"><a xlink:href="dir_000469_000053.html" target="_top" xlink:title="10">
<text text-anchor="middle" x="77.0609" y="-192.7187" font-family="Helvetica,sans-Serif" font-size="10.00" fill="#000000">10</text>
</a>
</g>
</g>
<!-- dir_5125ceb2b58f632ed0a3019fe2d5cbbc&#45;&gt;dir_2171f7ec022c5423887b07c69b2f5b48 -->
<g id="edge9" class="edge">
<title>dir_5125ceb2b58f632ed0a3019fe2d5cbbc&#45;&gt;dir_2171f7ec022c5423887b07c69b2f5b48</title>
<path fill="none" stroke="#000000" d="M42.878,-215.9618C43.2398,-197.4632 45.1786,-168.0723 53,-144 64.3792,-108.9777 70.9076,-100.6843 94,-72 102.3907,-61.5775 112.8684,-51.4181 122.7093,-42.7753"/>
<polygon fill="#000000" stroke="#000000" points="125.0838,-45.35 130.413,-36.193 120.5366,-40.0281 125.0838,-45.35"/>
<g id="a_edge9&#45;headlabel"><a xlink:href="dir_000469_000068.html" target="_top" xlink:title="23">
<text text-anchor="middle" x="124.1954" y="-47.3437" font-family="Helvetica,sans-Serif" font-size="10.00" fill="#000000">23</text>
</a>
</g>
</g>
<!-- dir_beaad5fa58c175f2fa05fab7e2ac7ba4&#45;&gt;dir_2171f7ec022c5423887b07c69b2f5b48 -->
<g id="edge10" class="edge">
<title>dir_beaad5fa58c175f2fa05fab7e2ac7ba4&#45;&gt;dir_2171f7ec022c5423887b07c69b2f5b48</title>
<path fill="none" stroke="#000000" d="M210.3937,-215.7335C213.6786,-184.8961 217.1865,-121.0767 198,-72 193.9958,-61.7577 187.2843,-51.9781 180.2941,-43.6249"/>
<polygon fill="#000000" stroke="#000000" points="182.8478,-41.2296 173.586,-36.0846 177.6178,-45.8823 182.8478,-41.2296"/>
<g id="a_edge10&#45;headlabel"><a xlink:href="dir_000040_000068.html" target="_top" xlink:title="12">
<text text-anchor="middle" x="187.3583" y="-39.5281" font-family="Helvetica,sans-Serif" font-size="10.00" fill="#000000">12</text>
</a>
</g>
</g>
<!-- dir_bcbb2cf9a3d3d83e5515c82071a07177&#45;&gt;dir_2171f7ec022c5423887b07c69b2f5b48 -->
<g id="edge11" class="edge">
<title>dir_bcbb2cf9a3d3d83e5515c82071a07177&#45;&gt;dir_2171f7ec022c5423887b07c69b2f5b48</title>
<path fill="none" stroke="#000000" d="M148.0476,-71.8314C147.2972,-64.131 147.0763,-54.9743 147.3849,-46.4166"/>
<polygon fill="#000000" stroke="#000000" points="150.8792,-46.6161 148.024,-36.4133 143.8935,-46.1697 150.8792,-46.6161"/>
<g id="a_edge11&#45;headlabel"><a xlink:href="dir_000044_000068.html" target="_top" xlink:title="72">
<text text-anchor="middle" x="153.4836" y="-47.8844" font-family="Helvetica,sans-Serif" font-size="10.00" fill="#000000">72</text>
</a>
</g>
</g>
<!-- dir_2171f7ec022c5423887b07c69b2f5b48&#45;&gt;dir_85bf31a2e8d306e7598ffcb73f8df6bf -->
<g id="edge12" class="edge">
<title>dir_2171f7ec022c5423887b07c69b2f5b48&#45;&gt;dir_85bf31a2e8d306e7598ffcb73f8df6bf</title>
<path fill="none" stroke="#000000" d="M142.7556,-36.3137C134.5251,-46.062 124.247,-58.7551 118,-72 108.814,-91.4762 104.5895,-115.5318 101.3156,-133.8718"/>
<polygon fill="#000000" stroke="#000000" points="97.832,-133.464 99.4675,-143.9318 104.7168,-134.7289 97.832,-133.464"/>
<g id="a_edge12&#45;headlabel"><a xlink:href="dir_000068_000053.html" target="_top" xlink:title="1">
<text text-anchor="middle" x="95.6889" y="-126.9156" font-family="Helvetica,sans-Serif" font-size="10.00" fill="#000000">1</text>
</a>
</g>
</g>
<!-- dir_2171f7ec022c5423887b07c69b2f5b48&#45;&gt;dir_bcbb2cf9a3d3d83e5515c82071a07177 -->
<g id="edge13" class="edge">
<title>dir_2171f7ec022c5423887b07c69b2f5b48&#45;&gt;dir_bcbb2cf9a3d3d83e5515c82071a07177</title>
<path fill="none" stroke="#000000" d="M159.976,-36.4133C160.7071,-44.0593 160.9203,-53.1084 160.6155,-61.5726"/>
<polygon fill="#000000" stroke="#000000" points="157.1048,-61.6264 159.9524,-71.8314 164.0902,-62.078 157.1048,-61.6264"/>
<g id="a_edge13&#45;headlabel"><a xlink:href="dir_000068_000044.html" target="_top" xlink:title="7">
<text text-anchor="middle" x="154.5032" y="-55.3562" font-family="Helvetica,sans-Serif" font-size="10.00" fill="#000000">7</text>
</a>
</g>
</g>
</g>
</svg>
