<?xml version="1.0" encoding="UTF-8" standalone="no"?>
<!DOCTYPE svg PUBLIC "-//W3C//DTD SVG 1.1//EN"
 "http://www.w3.org/Graphics/SVG/1.1/DTD/svg11.dtd">
<!-- Generated by graphviz version 2.40.1 (20161225.0304)
 -->
<!-- Title: /home/travis/build/AliceO2Group/AliceO2/Detectors/TPC/reconstruction Pages: 1 -->
<svg width="481pt" height="447pt"
 viewBox="0.00 0.00 481.00 447.00" xmlns="http://www.w3.org/2000/svg" xmlns:xlink="http://www.w3.org/1999/xlink">
<g id="graph0" class="graph" transform="scale(1 1) rotate(0) translate(4 443)">
<title>/home/travis/build/AliceO2Group/AliceO2/Detectors/TPC/reconstruction</title>
<g id="clust1" class="cluster">
<title>clusterdir_a597e8e061b11201a1dff411feb10d0b</title>
<g id="a_clust1"><a xlink:href="dir_a597e8e061b11201a1dff411feb10d0b.html" target="_top" xlink:title="TPC">
<polygon fill="#ddddee" stroke="#000000" points="131,-272 131,-431 465,-431 465,-272 131,-272"/>
<text text-anchor="middle" x="298" y="-419" font-family="Helvetica,sans-Serif" font-size="10.00" fill="#000000">TPC</text>
</a>
</g>
</g>
<g id="clust2" class="cluster">
<title>clusterdir_a5de047958dd458e809773c6ffaa8478</title>
<g id="a_clust2"><a xlink:href="dir_a5de047958dd458e809773c6ffaa8478.html" target="_top">
<polygon fill="#eeeeff" stroke="#000000" points="139,-280 139,-404 457,-404 457,-280 139,-280"/>
</a>
</g>
</g>
<!-- dir_a5de047958dd458e809773c6ffaa8478 -->
<g id="node1" class="node">
<title>dir_a5de047958dd458e809773c6ffaa8478</title>
<text text-anchor="middle" x="406" y="-375.5" font-family="Helvetica,sans-Serif" font-size="10.00" fill="#000000">reconstruction</text>
</g>
<!-- dir_396d171119822f66a36fe1ebf998d1a3 -->
<g id="node2" class="node">
<title>dir_396d171119822f66a36fe1ebf998d1a3</title>
<g id="a_node2"><a xlink:href="dir_396d171119822f66a36fe1ebf998d1a3.html" target="_top" xlink:title="include">
<polygon fill="#ffffff" stroke="#ff0000" points="214,-324 160,-324 160,-288 214,-288 214,-324"/>
<text text-anchor="middle" x="187" y="-303.5" font-family="Helvetica,sans-Serif" font-size="10.00" fill="#000000">include</text>
</a>
</g>
</g>
<!-- dir_677b030cc750909e4cd27413873678d8 -->
<g id="node6" class="node">
<title>dir_677b030cc750909e4cd27413873678d8</title>
<g id="a_node6"><a xlink:href="dir_677b030cc750909e4cd27413873678d8.html" target="_top" xlink:title="base">
<polygon fill="none" stroke="#ff0000" points="123,-324 69,-324 69,-288 123,-288 123,-324"/>
<text text-anchor="middle" x="96" y="-303.5" font-family="Helvetica,sans-Serif" font-size="10.00" fill="#000000">base</text>
</a>
</g>
</g>
<!-- dir_396d171119822f66a36fe1ebf998d1a3&#45;&gt;dir_677b030cc750909e4cd27413873678d8 -->
<g id="edge7" class="edge">
<title>dir_396d171119822f66a36fe1ebf998d1a3&#45;&gt;dir_677b030cc750909e4cd27413873678d8</title>
<path fill="none" stroke="#000000" d="M159.5067,-306C150.7641,-306 142.0214,-306 133.2787,-306"/>
<polygon fill="#000000" stroke="#000000" points="133.0157,-302.5001 123.0156,-306 133.0156,-309.5001 133.0157,-302.5001"/>
<g id="a_edge7&#45;headlabel"><a xlink:href="dir_000360_000127.html" target="_top" xlink:title="10">
<text text-anchor="middle" x="136.6102" y="-297.1607" font-family="Helvetica,sans-Serif" font-size="10.00" fill="#000000">10</text>
</a>
</g>
</g>
<!-- dir_4ab6b4cc6a7edbff49100e9123df213f -->
<g id="node7" class="node">
<title>dir_4ab6b4cc6a7edbff49100e9123df213f</title>
<g id="a_node7"><a xlink:href="dir_4ab6b4cc6a7edbff49100e9123df213f.html" target="_top" xlink:title="Common">
<polygon fill="none" stroke="#ff0000" points="175.5,-252 114.5,-252 114.5,-216 175.5,-216 175.5,-252"/>
<text text-anchor="middle" x="145" y="-231.5" font-family="Helvetica,sans-Serif" font-size="10.00" fill="#000000">Common</text>
</a>
</g>
</g>
<!-- dir_396d171119822f66a36fe1ebf998d1a3&#45;&gt;dir_4ab6b4cc6a7edbff49100e9123df213f -->
<g id="edge8" class="edge">
<title>dir_396d171119822f66a36fe1ebf998d1a3&#45;&gt;dir_4ab6b4cc6a7edbff49100e9123df213f</title>
<path fill="none" stroke="#000000" d="M176.4016,-287.8314C171.7123,-279.7925 166.0972,-270.1666 160.9202,-261.2918"/>
<polygon fill="#000000" stroke="#000000" points="163.8031,-259.2875 155.7411,-252.4133 157.7566,-262.8146 163.8031,-259.2875"/>
<g id="a_edge8&#45;headlabel"><a xlink:href="dir_000360_000026.html" target="_top" xlink:title="2">
<text text-anchor="middle" x="168.0667" y="-258.4618" font-family="Helvetica,sans-Serif" font-size="10.00" fill="#000000">2</text>
</a>
</g>
</g>
<!-- dir_f511f1e9c03c071966ae594f00bbc5e0 -->
<g id="node8" class="node">
<title>dir_f511f1e9c03c071966ae594f00bbc5e0</title>
<g id="a_node8"><a xlink:href="dir_f511f1e9c03c071966ae594f00bbc5e0.html" target="_top" xlink:title="GPU">
<polygon fill="none" stroke="#ff0000" points="252,-180 198,-180 198,-144 252,-144 252,-180"/>
<text text-anchor="middle" x="225" y="-159.5" font-family="Helvetica,sans-Serif" font-size="10.00" fill="#000000">GPU</text>
</a>
</g>
</g>
<!-- dir_396d171119822f66a36fe1ebf998d1a3&#45;&gt;dir_f511f1e9c03c071966ae594f00bbc5e0 -->
<g id="edge9" class="edge">
<title>dir_396d171119822f66a36fe1ebf998d1a3&#45;&gt;dir_f511f1e9c03c071966ae594f00bbc5e0</title>
<path fill="none" stroke="#000000" d="M191.8127,-287.7623C198.3227,-263.0928 209.9953,-218.8598 217.6182,-189.9731"/>
<polygon fill="#000000" stroke="#000000" points="221.0589,-190.6517 220.2264,-180.0896 214.2906,-188.8656 221.0589,-190.6517"/>
<g id="a_edge9&#45;headlabel"><a xlink:href="dir_000360_000134.html" target="_top" xlink:title="1">
<text text-anchor="middle" x="222.8871" y="-192.3517" font-family="Helvetica,sans-Serif" font-size="10.00" fill="#000000">1</text>
</a>
</g>
</g>
<!-- dir_2171f7ec022c5423887b07c69b2f5b48 -->
<g id="node10" class="node">
<title>dir_2171f7ec022c5423887b07c69b2f5b48</title>
<g id="a_node10"><a xlink:href="dir_2171f7ec022c5423887b07c69b2f5b48.html" target="_top" xlink:title="DataFormats">
<polygon fill="none" stroke="#ff0000" points="222,-108 142,-108 142,-72 222,-72 222,-108"/>
<text text-anchor="middle" x="182" y="-87.5" font-family="Helvetica,sans-Serif" font-size="10.00" fill="#000000">DataFormats</text>
</a>
</g>
</g>
<!-- dir_396d171119822f66a36fe1ebf998d1a3&#45;&gt;dir_2171f7ec022c5423887b07c69b2f5b48 -->
<g id="edge10" class="edge">
<title>dir_396d171119822f66a36fe1ebf998d1a3&#45;&gt;dir_2171f7ec022c5423887b07c69b2f5b48</title>
<path fill="none" stroke="#000000" d="M206.5937,-287.6955C236.6157,-257.3345 287.843,-194.8632 261,-144 254.2613,-131.2312 242.9935,-120.9086 231.0482,-112.8429"/>
<polygon fill="#000000" stroke="#000000" points="232.6206,-109.6982 222.2856,-107.3659 228.9104,-115.6341 232.6206,-109.6982"/>
<g id="a_edge10&#45;headlabel"><a xlink:href="dir_000360_000068.html" target="_top" xlink:title="17">
<text text-anchor="middle" x="237.1736" y="-106.6957" font-family="Helvetica,sans-Serif" font-size="10.00" fill="#000000">17</text>
</a>
</g>
</g>
<!-- dir_f9c1a6d4eb662f0614520771b81d0fc2 -->
<g id="node3" class="node">
<title>dir_f9c1a6d4eb662f0614520771b81d0fc2</title>
<g id="a_node3"><a xlink:href="dir_f9c1a6d4eb662f0614520771b81d0fc2.html" target="_top" xlink:title="run">
<polygon fill="#ffffff" stroke="#000000" points="273,-396 219,-396 219,-360 273,-360 273,-396"/>
<text text-anchor="middle" x="246" y="-375.5" font-family="Helvetica,sans-Serif" font-size="10.00" fill="#000000">run</text>
</a>
</g>
</g>
<!-- dir_f9c1a6d4eb662f0614520771b81d0fc2&#45;&gt;dir_396d171119822f66a36fe1ebf998d1a3 -->
<g id="edge2" class="edge">
<title>dir_f9c1a6d4eb662f0614520771b81d0fc2&#45;&gt;dir_396d171119822f66a36fe1ebf998d1a3</title>
<path fill="none" stroke="#000000" d="M231.1118,-359.8314C224.247,-351.454 215.9699,-341.3531 208.4489,-332.1749"/>
<polygon fill="#000000" stroke="#000000" points="211.1341,-329.9297 202.0886,-324.4133 205.7197,-334.3665 211.1341,-329.9297"/>
<g id="a_edge2&#45;headlabel"><a xlink:href="dir_000573_000360.html" target="_top" xlink:title="5">
<text text-anchor="middle" x="215.6085" y="-328.4104" font-family="Helvetica,sans-Serif" font-size="10.00" fill="#000000">5</text>
</a>
</g>
</g>
<!-- dir_f9c1a6d4eb662f0614520771b81d0fc2&#45;&gt;dir_677b030cc750909e4cd27413873678d8 -->
<g id="edge1" class="edge">
<title>dir_f9c1a6d4eb662f0614520771b81d0fc2&#45;&gt;dir_677b030cc750909e4cd27413873678d8</title>
<path fill="none" stroke="#000000" d="M218.9037,-364.3747C215.904,-362.8893 212.8901,-361.4068 210,-360 184.1558,-347.4197 154.8463,-333.5449 132.4182,-323.0097"/>
<polygon fill="#000000" stroke="#000000" points="133.7975,-319.7908 123.2576,-318.7126 130.8247,-326.1282 133.7975,-319.7908"/>
<g id="a_edge1&#45;headlabel"><a xlink:href="dir_000573_000127.html" target="_top" xlink:title="2">
<text text-anchor="middle" x="138.2576" y="-316.2468" font-family="Helvetica,sans-Serif" font-size="10.00" fill="#000000">2</text>
</a>
</g>
</g>
<!-- dir_0c8c50542de1d83a040084fab225b0f7 -->
<g id="node4" class="node">
<title>dir_0c8c50542de1d83a040084fab225b0f7</title>
<g id="a_node4"><a xlink:href="dir_0c8c50542de1d83a040084fab225b0f7.html" target="_top" xlink:title="src">
<polygon fill="#ffffff" stroke="#000000" points="201,-396 147,-396 147,-360 201,-360 201,-396"/>
<text text-anchor="middle" x="174" y="-375.5" font-family="Helvetica,sans-Serif" font-size="10.00" fill="#000000">src</text>
</a>
</g>
</g>
<!-- dir_0c8c50542de1d83a040084fab225b0f7&#45;&gt;dir_396d171119822f66a36fe1ebf998d1a3 -->
<g id="edge20" class="edge">
<title>dir_0c8c50542de1d83a040084fab225b0f7&#45;&gt;dir_396d171119822f66a36fe1ebf998d1a3</title>
<path fill="none" stroke="#000000" d="M177.2804,-359.8314C178.6708,-352.131 180.3241,-342.9743 181.8692,-334.4166"/>
<polygon fill="#000000" stroke="#000000" points="185.3428,-334.8761 183.6754,-324.4133 178.4542,-333.6322 185.3428,-334.8761"/>
<g id="a_edge20&#45;headlabel"><a xlink:href="dir_000477_000360.html" target="_top" xlink:title="19">
<text text-anchor="middle" x="187.4983" y="-336.4179" font-family="Helvetica,sans-Serif" font-size="10.00" fill="#000000">19</text>
</a>
</g>
</g>
<!-- dir_0c8c50542de1d83a040084fab225b0f7&#45;&gt;dir_677b030cc750909e4cd27413873678d8 -->
<g id="edge19" class="edge">
<title>dir_0c8c50542de1d83a040084fab225b0f7&#45;&gt;dir_677b030cc750909e4cd27413873678d8</title>
<path fill="none" stroke="#000000" d="M154.3173,-359.8314C144.8949,-351.1337 133.4599,-340.5783 123.2204,-331.1265"/>
<polygon fill="#000000" stroke="#000000" points="125.3984,-328.3738 115.6764,-324.1628 120.6505,-333.5175 125.3984,-328.3738"/>
<g id="a_edge19&#45;headlabel"><a xlink:href="dir_000477_000127.html" target="_top" xlink:title="23">
<text text-anchor="middle" x="129.9656" y="-326.2257" font-family="Helvetica,sans-Serif" font-size="10.00" fill="#000000">23</text>
</a>
</g>
</g>
<!-- dir_0c8c50542de1d83a040084fab225b0f7&#45;&gt;dir_f511f1e9c03c071966ae594f00bbc5e0 -->
<g id="edge21" class="edge">
<title>dir_0c8c50542de1d83a040084fab225b0f7&#45;&gt;dir_f511f1e9c03c071966ae594f00bbc5e0</title>
<path fill="none" stroke="#000000" d="M196.6001,-359.9617C206.6962,-350.4611 217.5339,-337.902 223,-324 240.3669,-279.8303 235.7085,-223.506 230.5149,-190.2399"/>
<polygon fill="#000000" stroke="#000000" points="233.9518,-189.5726 228.837,-180.2941 227.0493,-190.7371 233.9518,-189.5726"/>
<g id="a_edge21&#45;headlabel"><a xlink:href="dir_000477_000134.html" target="_top" xlink:title="7">
<text text-anchor="middle" x="237.3494" y="-190.1448" font-family="Helvetica,sans-Serif" font-size="10.00" fill="#000000">7</text>
</a>
</g>
</g>
<!-- dir_bcbb2cf9a3d3d83e5515c82071a07177 -->
<g id="node9" class="node">
<title>dir_bcbb2cf9a3d3d83e5515c82071a07177</title>
<g id="a_node9"><a xlink:href="dir_bcbb2cf9a3d3d83e5515c82071a07177.html" target="_top" xlink:title="Framework">
<polygon fill="none" stroke="#ff0000" points="183.5,-36 112.5,-36 112.5,0 183.5,0 183.5,-36"/>
<text text-anchor="middle" x="148" y="-15.5" font-family="Helvetica,sans-Serif" font-size="10.00" fill="#000000">Framework</text>
</a>
</g>
</g>
<!-- dir_0c8c50542de1d83a040084fab225b0f7&#45;&gt;dir_bcbb2cf9a3d3d83e5515c82071a07177 -->
<g id="edge22" class="edge">
<title>dir_0c8c50542de1d83a040084fab225b0f7&#45;&gt;dir_bcbb2cf9a3d3d83e5515c82071a07177</title>
<path fill="none" stroke="#000000" d="M146.7543,-371.6388C119.5575,-364.127 77.901,-349.3336 50,-324 16.1229,-293.2402 0,-279.7584 0,-234 0,-234 0,-234 0,-162 0,-103.7638 59.5931,-61.4529 103.1495,-38.3056"/>
<polygon fill="#000000" stroke="#000000" points="104.8856,-41.3484 112.1733,-33.6582 101.6805,-35.1253 104.8856,-41.3484"/>
<g id="a_edge22&#45;headlabel"><a xlink:href="dir_000477_000044.html" target="_top" xlink:title="1">
<text text-anchor="middle" x="102.9898" y="-43.0184" font-family="Helvetica,sans-Serif" font-size="10.00" fill="#000000">1</text>
</a>
</g>
</g>
<!-- dir_0c8c50542de1d83a040084fab225b0f7&#45;&gt;dir_2171f7ec022c5423887b07c69b2f5b48 -->
<g id="edge23" class="edge">
<title>dir_0c8c50542de1d83a040084fab225b0f7&#45;&gt;dir_2171f7ec022c5423887b07c69b2f5b48</title>
<path fill="none" stroke="#000000" d="M146.8505,-373.6307C119.5838,-367.6402 78.9717,-353.979 60,-324 47.6413,-304.4709 55.1207,-294.5902 60,-272 73.1861,-210.9511 80.3167,-193.8077 118,-144 126.167,-133.2053 136.8593,-123.1196 147.1597,-114.655"/>
<polygon fill="#000000" stroke="#000000" points="149.6088,-117.1804 155.2806,-108.2315 145.2662,-111.6902 149.6088,-117.1804"/>
<g id="a_edge23&#45;headlabel"><a xlink:href="dir_000477_000068.html" target="_top" xlink:title="11">
<text text-anchor="middle" x="148.5509" y="-119.1372" font-family="Helvetica,sans-Serif" font-size="10.00" fill="#000000">11</text>
</a>
</g>
</g>
<!-- dir_064d7f478c030df51e47c94b08ab25b1 -->
<g id="node5" class="node">
<title>dir_064d7f478c030df51e47c94b08ab25b1</title>
<g id="a_node5"><a xlink:href="dir_064d7f478c030df51e47c94b08ab25b1.html" target="_top" xlink:title="test">
<polygon fill="#ffffff" stroke="#000000" points="345,-396 291,-396 291,-360 345,-360 345,-396"/>
<text text-anchor="middle" x="318" y="-375.5" font-family="Helvetica,sans-Serif" font-size="10.00" fill="#000000">test</text>
</a>
</g>
</g>
<!-- dir_064d7f478c030df51e47c94b08ab25b1&#45;&gt;dir_396d171119822f66a36fe1ebf998d1a3 -->
<g id="edge12" class="edge">
<title>dir_064d7f478c030df51e47c94b08ab25b1&#45;&gt;dir_396d171119822f66a36fe1ebf998d1a3</title>
<path fill="none" stroke="#000000" d="M290.8567,-363.0816C271.1842,-352.2692 244.3843,-337.5395 222.9364,-325.7513"/>
<polygon fill="#000000" stroke="#000000" points="224.5579,-322.6488 214.1085,-320.8993 221.1863,-328.7833 224.5579,-322.6488"/>
<g id="a_edge12&#45;headlabel"><a xlink:href="dir_000574_000360.html" target="_top" xlink:title="6">
<text text-anchor="middle" x="229.0756" y="-319.3919" font-family="Helvetica,sans-Serif" font-size="10.00" fill="#000000">6</text>
</a>
</g>
</g>
<!-- dir_064d7f478c030df51e47c94b08ab25b1&#45;&gt;dir_677b030cc750909e4cd27413873678d8 -->
<g id="edge11" class="edge">
<title>dir_064d7f478c030df51e47c94b08ab25b1&#45;&gt;dir_677b030cc750909e4cd27413873678d8</title>
<path fill="none" stroke="#000000" d="M290.7628,-363.5928C287.8437,-362.287 284.8862,-361.0598 282,-360 218.8582,-336.8147 198.4962,-346.1962 135,-324 134.2873,-323.7508 133.5699,-323.4932 132.8494,-323.2283"/>
<polygon fill="#000000" stroke="#000000" points="134.0103,-319.923 123.4259,-319.4531 131.4071,-326.4209 134.0103,-319.923"/>
<g id="a_edge11&#45;headlabel"><a xlink:href="dir_000574_000127.html" target="_top" xlink:title="8">
<text text-anchor="middle" x="138.4029" y="-316.124" font-family="Helvetica,sans-Serif" font-size="10.00" fill="#000000">8</text>
</a>
</g>
</g>
<!-- dir_064d7f478c030df51e47c94b08ab25b1&#45;&gt;dir_f511f1e9c03c071966ae594f00bbc5e0 -->
<g id="edge13" class="edge">
<title>dir_064d7f478c030df51e47c94b08ab25b1&#45;&gt;dir_f511f1e9c03c071966ae594f00bbc5e0</title>
<path fill="none" stroke="#000000" d="M310.2308,-359.9555C293.9559,-322.1556 256.194,-234.4506 236.8646,-189.5564"/>
<polygon fill="#000000" stroke="#000000" points="239.9818,-187.9458 232.8125,-180.1451 233.5524,-190.714 239.9818,-187.9458"/>
<g id="a_edge13&#45;headlabel"><a xlink:href="dir_000574_000134.html" target="_top" xlink:title="3">
<text text-anchor="middle" x="244.0111" y="-187.6246" font-family="Helvetica,sans-Serif" font-size="10.00" fill="#000000">3</text>
</a>
</g>
</g>
<!-- dir_064d7f478c030df51e47c94b08ab25b1&#45;&gt;dir_2171f7ec022c5423887b07c69b2f5b48 -->
<g id="edge14" class="edge">
<title>dir_064d7f478c030df51e47c94b08ab25b1&#45;&gt;dir_2171f7ec022c5423887b07c69b2f5b48</title>
<path fill="none" stroke="#000000" d="M319.8375,-359.9294C323.1497,-317.8769 325.8369,-211.8852 278,-144 266.6615,-127.9095 248.9197,-116.028 231.7574,-107.5723"/>
<polygon fill="#000000" stroke="#000000" points="232.8733,-104.2326 222.3268,-103.2221 229.9412,-110.589 232.8733,-104.2326"/>
<g id="a_edge14&#45;headlabel"><a xlink:href="dir_000574_000068.html" target="_top" xlink:title="9">
<text text-anchor="middle" x="237.3267" y="-100.66" font-family="Helvetica,sans-Serif" font-size="10.00" fill="#000000">9</text>
</a>
</g>
</g>
<!-- dir_677b030cc750909e4cd27413873678d8&#45;&gt;dir_4ab6b4cc6a7edbff49100e9123df213f -->
<g id="edge3" class="edge">
<title>dir_677b030cc750909e4cd27413873678d8&#45;&gt;dir_4ab6b4cc6a7edbff49100e9123df213f</title>
<path fill="none" stroke="#000000" d="M108.3648,-287.8314C113.9509,-279.6232 120.663,-269.7606 126.8072,-260.7323"/>
<polygon fill="#000000" stroke="#000000" points="129.736,-262.6496 132.4687,-252.4133 123.949,-258.7112 129.736,-262.6496"/>
<g id="a_edge3&#45;headlabel"><a xlink:href="dir_000127_000026.html" target="_top" xlink:title="12">
<text text-anchor="middle" x="130.0609" y="-264.7187" font-family="Helvetica,sans-Serif" font-size="10.00" fill="#000000">12</text>
</a>
</g>
</g>
<!-- dir_677b030cc750909e4cd27413873678d8&#45;&gt;dir_2171f7ec022c5423887b07c69b2f5b48 -->
<g id="edge4" class="edge">
<title>dir_677b030cc750909e4cd27413873678d8&#45;&gt;dir_2171f7ec022c5423887b07c69b2f5b48</title>
<path fill="none" stroke="#000000" d="M95.4721,-287.9177C95.4647,-269.3839 96.9487,-239.9654 105,-216 117.5615,-178.6098 142.8374,-140.6503 161.0073,-116.3117"/>
<polygon fill="#000000" stroke="#000000" points="163.8373,-118.3725 167.1054,-108.2942 158.2657,-114.1347 163.8373,-118.3725"/>
<g id="a_edge4&#45;headlabel"><a xlink:href="dir_000127_000068.html" target="_top" xlink:title="14">
<text text-anchor="middle" x="163.9211" y="-120.4523" font-family="Helvetica,sans-Serif" font-size="10.00" fill="#000000">14</text>
</a>
</g>
</g>
<!-- dir_4ab6b4cc6a7edbff49100e9123df213f&#45;&gt;dir_f511f1e9c03c071966ae594f00bbc5e0 -->
<g id="edge5" class="edge">
<title>dir_4ab6b4cc6a7edbff49100e9123df213f&#45;&gt;dir_f511f1e9c03c071966ae594f00bbc5e0</title>
<path fill="none" stroke="#000000" d="M159.235,-215.8314C168.1378,-207.0485 179.8344,-196.3712 190.9366,-186.8489"/>
<polygon fill="#000000" stroke="#000000" points="193.4777,-189.2844 198.8673,-180.1628 188.9657,-183.9326 193.4777,-189.2844"/>
<g id="a_edge5&#45;headlabel"><a xlink:href="dir_000026_000134.html" target="_top" xlink:title="3">
<text text-anchor="middle" x="192.5596" y="-191.2721" font-family="Helvetica,sans-Serif" font-size="10.00" fill="#000000">3</text>
</a>
</g>
</g>
<!-- dir_4ab6b4cc6a7edbff49100e9123df213f&#45;&gt;dir_2171f7ec022c5423887b07c69b2f5b48 -->
<g id="edge6" class="edge">
<title>dir_4ab6b4cc6a7edbff49100e9123df213f&#45;&gt;dir_2171f7ec022c5423887b07c69b2f5b48</title>
<path fill="none" stroke="#000000" d="M145.0129,-215.7623C148.8979,-190.9846 160.0776,-146.4714 169.4635,-117.5939"/>
<polygon fill="#000000" stroke="#000000" points="172.7895,-118.684 172.6937,-108.0896 166.1619,-116.4314 172.7895,-118.684"/>
<g id="a_edge6&#45;headlabel"><a xlink:href="dir_000026_000068.html" target="_top" xlink:title="2">
<text text-anchor="middle" x="174.3212" y="-120.5011" font-family="Helvetica,sans-Serif" font-size="10.00" fill="#000000">2</text>
</a>
</g>
</g>
<!-- dir_f511f1e9c03c071966ae594f00bbc5e0&#45;&gt;dir_4ab6b4cc6a7edbff49100e9123df213f -->
<g id="edge15" class="edge">
<title>dir_f511f1e9c03c071966ae594f00bbc5e0&#45;&gt;dir_4ab6b4cc6a7edbff49100e9123df213f</title>
<path fill="none" stroke="#000000" d="M210.7709,-180.1628C201.8693,-188.9449 190.1732,-199.622 179.0707,-209.1448"/>
<polygon fill="#000000" stroke="#000000" points="176.5292,-206.7097 171.1398,-215.8314 181.0412,-212.0615 176.5292,-206.7097"/>
<g id="a_edge15&#45;headlabel"><a xlink:href="dir_000134_000026.html" target="_top" xlink:title="1">
<text text-anchor="middle" x="177.4472" y="-199.722" font-family="Helvetica,sans-Serif" font-size="10.00" fill="#000000">1</text>
</a>
</g>
</g>
<!-- dir_f511f1e9c03c071966ae594f00bbc5e0&#45;&gt;dir_2171f7ec022c5423887b07c69b2f5b48 -->
<g id="edge16" class="edge">
<title>dir_f511f1e9c03c071966ae594f00bbc5e0&#45;&gt;dir_2171f7ec022c5423887b07c69b2f5b48</title>
<path fill="none" stroke="#000000" d="M208.1969,-143.8314C202.6125,-135.7925 196.6574,-126.1666 191.7279,-117.2918"/>
<polygon fill="#000000" stroke="#000000" points="194.7973,-115.6089 187.0208,-108.4133 188.6127,-118.8878 194.7973,-115.6089"/>
<g id="a_edge16&#45;headlabel"><a xlink:href="dir_000134_000068.html" target="_top" xlink:title="8">
<text text-anchor="middle" x="198.9895" y="-114.9549" font-family="Helvetica,sans-Serif" font-size="10.00" fill="#000000">8</text>
</a>
</g>
</g>
<!-- dir_bcbb2cf9a3d3d83e5515c82071a07177&#45;&gt;dir_4ab6b4cc6a7edbff49100e9123df213f -->
<g id="edge17" class="edge">
<title>dir_bcbb2cf9a3d3d83e5515c82071a07177&#45;&gt;dir_4ab6b4cc6a7edbff49100e9123df213f</title>
<path fill="none" stroke="#000000" d="M141.6052,-36.2353C138.3154,-46.5813 134.6558,-59.8526 133,-72 126.6349,-118.6965 133.693,-173.4585 139.362,-205.8584"/>
<polygon fill="#000000" stroke="#000000" points="135.9651,-206.7394 141.2099,-215.945 142.8505,-205.4779 135.9651,-206.7394"/>
<g id="a_edge17&#45;headlabel"><a xlink:href="dir_000044_000026.html" target="_top" xlink:title="8">
<text text-anchor="middle" x="132.5246" y="-201.2153" font-family="Helvetica,sans-Serif" font-size="10.00" fill="#000000">8</text>
</a>
</g>
</g>
<!-- dir_bcbb2cf9a3d3d83e5515c82071a07177&#45;&gt;dir_2171f7ec022c5423887b07c69b2f5b48 -->
<g id="edge18" class="edge">
<title>dir_bcbb2cf9a3d3d83e5515c82071a07177&#45;&gt;dir_2171f7ec022c5423887b07c69b2f5b48</title>
<path fill="none" stroke="#000000" d="M162.6712,-36.4133C167.1576,-44.3141 171.7985,-53.7132 175.5579,-62.417"/>
<polygon fill="#000000" stroke="#000000" points="172.3734,-63.8778 179.3728,-71.8314 178.861,-61.2489 172.3734,-63.8778"/>
<g id="a_edge18&#45;headlabel"><a xlink:href="dir_000044_000068.html" target="_top" xlink:title="72">
<text text-anchor="middle" x="168.3921" y="-59.1125" font-family="Helvetica,sans-Serif" font-size="10.00" fill="#000000">72</text>
</a>
</g>
</g>
<!-- dir_2171f7ec022c5423887b07c69b2f5b48&#45;&gt;dir_4ab6b4cc6a7edbff49100e9123df213f -->
<g id="edge24" class="edge">
<title>dir_2171f7ec022c5423887b07c69b2f5b48&#45;&gt;dir_4ab6b4cc6a7edbff49100e9123df213f</title>
<path fill="none" stroke="#000000" d="M182.0103,-108.0896C178.1544,-132.7884 166.9857,-177.2933 157.5927,-206.2331"/>
<polygon fill="#000000" stroke="#000000" points="154.2582,-205.1679 154.3592,-215.7623 160.887,-207.4173 154.2582,-205.1679"/>
<g id="a_edge24&#45;headlabel"><a xlink:href="dir_000068_000026.html" target="_top" xlink:title="30">
<text text-anchor="middle" x="152.7245" y="-198.3516" font-family="Helvetica,sans-Serif" font-size="10.00" fill="#000000">30</text>
</a>
</g>
</g>
<!-- dir_2171f7ec022c5423887b07c69b2f5b48&#45;&gt;dir_f511f1e9c03c071966ae594f00bbc5e0 -->
<g id="edge25" class="edge">
<title>dir_2171f7ec022c5423887b07c69b2f5b48&#45;&gt;dir_f511f1e9c03c071966ae594f00bbc5e0</title>
<path fill="none" stroke="#000000" d="M198.9728,-108.4133C204.5646,-116.484 210.5129,-126.1182 215.4214,-134.9775"/>
<polygon fill="#000000" stroke="#000000" points="212.334,-136.6262 220.1017,-143.8314 218.5226,-133.3549 212.334,-136.6262"/>
<g id="a_edge25&#45;headlabel"><a xlink:href="dir_000068_000134.html" target="_top" xlink:title="10">
<text text-anchor="middle" x="208.144" y="-132.2752" font-family="Helvetica,sans-Serif" font-size="10.00" fill="#000000">10</text>
</a>
</g>
</g>
<!-- dir_2171f7ec022c5423887b07c69b2f5b48&#45;&gt;dir_bcbb2cf9a3d3d83e5515c82071a07177 -->
<g id="edge26" class="edge">
<title>dir_2171f7ec022c5423887b07c69b2f5b48&#45;&gt;dir_bcbb2cf9a3d3d83e5515c82071a07177</title>
<path fill="none" stroke="#000000" d="M167.468,-71.8314C162.9848,-63.9617 158.3365,-54.5712 154.559,-45.8533"/>
<polygon fill="#000000" stroke="#000000" points="157.7291,-44.3575 150.7191,-36.4133 151.245,-46.9951 157.7291,-44.3575"/>
<g id="a_edge26&#45;headlabel"><a xlink:href="dir_000068_000044.html" target="_top" xlink:title="7">
<text text-anchor="middle" x="161.7134" y="-44.1175" font-family="Helvetica,sans-Serif" font-size="10.00" fill="#000000">7</text>
</a>
</g>
</g>
</g>
</svg>
