<?xml version="1.0" encoding="UTF-8" standalone="no"?>
<!DOCTYPE svg PUBLIC "-//W3C//DTD SVG 1.1//EN"
 "http://www.w3.org/Graphics/SVG/1.1/DTD/svg11.dtd">
<!-- Generated by graphviz version 2.40.1 (20161225.0304)
 -->
<!-- Title: /home/travis/build/AliceO2Group/AliceO2/Detectors/Base/include/DetectorsBase Pages: 1 -->
<svg width="150pt" height="295pt"
 viewBox="0.00 0.00 150.00 295.00" xmlns="http://www.w3.org/2000/svg" xmlns:xlink="http://www.w3.org/1999/xlink">
<g id="graph0" class="graph" transform="scale(1 1) rotate(0) translate(4 291)">
<title>/home/travis/build/AliceO2Group/AliceO2/Detectors/Base/include/DetectorsBase</title>
<g id="clust1" class="cluster">
<title>clusterdir_548839eeca1931d32df07653a7903e44</title>
<g id="a_clust1"><a xlink:href="dir_548839eeca1931d32df07653a7903e44.html" target="_top" xlink:title="include">
<polygon fill="#ddddee" stroke="#000000" points="30,-208 30,-279 134,-279 134,-208 30,-208"/>
<text text-anchor="middle" x="82" y="-267" font-family="Helvetica,sans-Serif" font-size="10.00" fill="#000000">include</text>
</a>
</g>
</g>
<!-- dir_ebd881cb3be9af9de1e2db4daa6c5c6f -->
<g id="node1" class="node">
<title>dir_ebd881cb3be9af9de1e2db4daa6c5c6f</title>
<g id="a_node1"><a xlink:href="dir_ebd881cb3be9af9de1e2db4daa6c5c6f.html" target="_top" xlink:title="DetectorsBase">
<polygon fill="#eeeeff" stroke="#000000" points="126,-252 38,-252 38,-216 126,-216 126,-252"/>
<text text-anchor="middle" x="82" y="-231.5" font-family="Helvetica,sans-Serif" font-size="10.00" fill="#000000">DetectorsBase</text>
</a>
</g>
</g>
<!-- dir_4ab6b4cc6a7edbff49100e9123df213f -->
<g id="node2" class="node">
<title>dir_4ab6b4cc6a7edbff49100e9123df213f</title>
<g id="a_node2"><a xlink:href="dir_4ab6b4cc6a7edbff49100e9123df213f.html" target="_top" xlink:title="Common">
<polygon fill="none" stroke="#ff0000" points="112.5,-180 51.5,-180 51.5,-144 112.5,-144 112.5,-180"/>
<text text-anchor="middle" x="82" y="-159.5" font-family="Helvetica,sans-Serif" font-size="10.00" fill="#000000">Common</text>
</a>
</g>
</g>
<!-- dir_ebd881cb3be9af9de1e2db4daa6c5c6f&#45;&gt;dir_4ab6b4cc6a7edbff49100e9123df213f -->
<g id="edge7" class="edge">
<title>dir_ebd881cb3be9af9de1e2db4daa6c5c6f&#45;&gt;dir_4ab6b4cc6a7edbff49100e9123df213f</title>
<path fill="none" stroke="#000000" d="M82,-215.8314C82,-208.131 82,-198.9743 82,-190.4166"/>
<polygon fill="#000000" stroke="#000000" points="85.5001,-190.4132 82,-180.4133 78.5001,-190.4133 85.5001,-190.4132"/>
<g id="a_edge7&#45;headlabel"><a xlink:href="dir_000268_000026.html" target="_top" xlink:title="8">
<text text-anchor="middle" x="88.3393" y="-191.5079" font-family="Helvetica,sans-Serif" font-size="10.00" fill="#000000">8</text>
</a>
</g>
</g>
<!-- dir_f511f1e9c03c071966ae594f00bbc5e0 -->
<g id="node3" class="node">
<title>dir_f511f1e9c03c071966ae594f00bbc5e0</title>
<g id="a_node3"><a xlink:href="dir_f511f1e9c03c071966ae594f00bbc5e0.html" target="_top" xlink:title="GPU">
<polygon fill="none" stroke="#ff0000" points="54,-108 0,-108 0,-72 54,-72 54,-108"/>
<text text-anchor="middle" x="27" y="-87.5" font-family="Helvetica,sans-Serif" font-size="10.00" fill="#000000">GPU</text>
</a>
</g>
</g>
<!-- dir_ebd881cb3be9af9de1e2db4daa6c5c6f&#45;&gt;dir_f511f1e9c03c071966ae594f00bbc5e0 -->
<g id="edge8" class="edge">
<title>dir_ebd881cb3be9af9de1e2db4daa6c5c6f&#45;&gt;dir_f511f1e9c03c071966ae594f00bbc5e0</title>
<path fill="none" stroke="#000000" d="M65.6535,-215.781C57.6187,-205.8639 48.5034,-192.9909 43,-180 34.6685,-160.3332 30.675,-136.4702 28.761,-118.2587"/>
<polygon fill="#000000" stroke="#000000" points="32.2436,-117.9078 27.8572,-108.2636 25.272,-118.5382 32.2436,-117.9078"/>
<g id="a_edge8&#45;headlabel"><a xlink:href="dir_000268_000134.html" target="_top" xlink:title="11">
<text text-anchor="middle" x="35.3949" y="-118.7322" font-family="Helvetica,sans-Serif" font-size="10.00" fill="#000000">11</text>
</a>
</g>
</g>
<!-- dir_2171f7ec022c5423887b07c69b2f5b48 -->
<g id="node4" class="node">
<title>dir_2171f7ec022c5423887b07c69b2f5b48</title>
<g id="a_node4"><a xlink:href="dir_2171f7ec022c5423887b07c69b2f5b48.html" target="_top" xlink:title="DataFormats">
<polygon fill="none" stroke="#ff0000" points="131,-36 51,-36 51,0 131,0 131,-36"/>
<text text-anchor="middle" x="91" y="-15.5" font-family="Helvetica,sans-Serif" font-size="10.00" fill="#000000">DataFormats</text>
</a>
</g>
</g>
<!-- dir_ebd881cb3be9af9de1e2db4daa6c5c6f&#45;&gt;dir_2171f7ec022c5423887b07c69b2f5b48 -->
<g id="edge9" class="edge">
<title>dir_ebd881cb3be9af9de1e2db4daa6c5c6f&#45;&gt;dir_2171f7ec022c5423887b07c69b2f5b48</title>
<path fill="none" stroke="#000000" d="M100.1576,-215.7286C108.549,-205.9911 117.6123,-193.2949 122,-180 137.1275,-134.1634 118.8935,-78.4532 104.6731,-45.7445"/>
<polygon fill="#000000" stroke="#000000" points="107.7416,-44.0359 100.43,-36.3684 101.3642,-46.9219 107.7416,-44.0359"/>
<g id="a_edge9&#45;headlabel"><a xlink:href="dir_000268_000068.html" target="_top" xlink:title="4">
<text text-anchor="middle" x="111.8103" y="-43.6402" font-family="Helvetica,sans-Serif" font-size="10.00" fill="#000000">4</text>
</a>
</g>
</g>
<!-- dir_4ab6b4cc6a7edbff49100e9123df213f&#45;&gt;dir_f511f1e9c03c071966ae594f00bbc5e0 -->
<g id="edge1" class="edge">
<title>dir_4ab6b4cc6a7edbff49100e9123df213f&#45;&gt;dir_f511f1e9c03c071966ae594f00bbc5e0</title>
<path fill="none" stroke="#000000" d="M62.1688,-143.8314C55.0988,-135.6232 47.3665,-125.7606 40.8734,-116.7323"/>
<polygon fill="#000000" stroke="#000000" points="43.6718,-114.626 35.0897,-108.4133 37.9243,-118.6219 43.6718,-114.626"/>
<g id="a_edge1&#45;headlabel"><a xlink:href="dir_000026_000134.html" target="_top" xlink:title="3">
<text text-anchor="middle" x="48.0549" y="-113.4567" font-family="Helvetica,sans-Serif" font-size="10.00" fill="#000000">3</text>
</a>
</g>
</g>
<!-- dir_4ab6b4cc6a7edbff49100e9123df213f&#45;&gt;dir_2171f7ec022c5423887b07c69b2f5b48 -->
<g id="edge2" class="edge">
<title>dir_4ab6b4cc6a7edbff49100e9123df213f&#45;&gt;dir_2171f7ec022c5423887b07c69b2f5b48</title>
<path fill="none" stroke="#000000" d="M78.4667,-143.7623C77.542,-119.201 80.0143,-75.2474 83.7304,-46.3541"/>
<polygon fill="#000000" stroke="#000000" points="87.2474,-46.4869 85.2111,-36.0896 80.3191,-45.4874 87.2474,-46.4869"/>
<g id="a_edge2&#45;headlabel"><a xlink:href="dir_000026_000068.html" target="_top" xlink:title="2">
<text text-anchor="middle" x="89.5445" y="-47.95" font-family="Helvetica,sans-Serif" font-size="10.00" fill="#000000">2</text>
</a>
</g>
</g>
<!-- dir_f511f1e9c03c071966ae594f00bbc5e0&#45;&gt;dir_4ab6b4cc6a7edbff49100e9123df213f -->
<g id="edge3" class="edge">
<title>dir_f511f1e9c03c071966ae594f00bbc5e0&#45;&gt;dir_4ab6b4cc6a7edbff49100e9123df213f</title>
<path fill="none" stroke="#000000" d="M47.0417,-108.4133C54.1246,-116.654 61.851,-126.5245 68.3194,-135.536"/>
<polygon fill="#000000" stroke="#000000" points="65.4981,-137.6095 74.0736,-143.8314 71.2498,-133.6197 65.4981,-137.6095"/>
<g id="a_edge3&#45;headlabel"><a xlink:href="dir_000134_000026.html" target="_top" xlink:title="1">
<text text-anchor="middle" x="61.1164" y="-133.7742" font-family="Helvetica,sans-Serif" font-size="10.00" fill="#000000">1</text>
</a>
</g>
</g>
<!-- dir_f511f1e9c03c071966ae594f00bbc5e0&#45;&gt;dir_2171f7ec022c5423887b07c69b2f5b48 -->
<g id="edge4" class="edge">
<title>dir_f511f1e9c03c071966ae594f00bbc5e0&#45;&gt;dir_2171f7ec022c5423887b07c69b2f5b48</title>
<path fill="none" stroke="#000000" d="M37.1975,-71.8314C43.8946,-63.3694 52.7943,-53.1489 61.4724,-43.8971"/>
<polygon fill="#000000" stroke="#000000" points="64.2563,-46.0511 68.6566,-36.4133 59.2065,-41.2034 64.2563,-46.0511"/>
<g id="a_edge4&#45;headlabel"><a xlink:href="dir_000134_000068.html" target="_top" xlink:title="8">
<text text-anchor="middle" x="63.8152" y="-48.1105" font-family="Helvetica,sans-Serif" font-size="10.00" fill="#000000">8</text>
</a>
</g>
</g>
<!-- dir_2171f7ec022c5423887b07c69b2f5b48&#45;&gt;dir_4ab6b4cc6a7edbff49100e9123df213f -->
<g id="edge5" class="edge">
<title>dir_2171f7ec022c5423887b07c69b2f5b48&#45;&gt;dir_4ab6b4cc6a7edbff49100e9123df213f</title>
<path fill="none" stroke="#000000" d="M94.5277,-36.0896C95.4702,-60.6805 92.9813,-104.905 89.2429,-133.8531"/>
<polygon fill="#000000" stroke="#000000" points="85.7771,-133.3649 87.813,-143.7623 92.7054,-134.3647 85.7771,-133.3649"/>
<g id="a_edge5&#45;headlabel"><a xlink:href="dir_000068_000026.html" target="_top" xlink:title="30">
<text text-anchor="middle" x="83.4802" y="-126.9017" font-family="Helvetica,sans-Serif" font-size="10.00" fill="#000000">30</text>
</a>
</g>
</g>
<!-- dir_2171f7ec022c5423887b07c69b2f5b48&#45;&gt;dir_f511f1e9c03c071966ae594f00bbc5e0 -->
<g id="edge6" class="edge">
<title>dir_2171f7ec022c5423887b07c69b2f5b48&#45;&gt;dir_f511f1e9c03c071966ae594f00bbc5e0</title>
<path fill="none" stroke="#000000" d="M80.6087,-36.4133C73.8694,-44.9088 64.9509,-55.1366 56.2773,-64.3696"/>
<polygon fill="#000000" stroke="#000000" points="53.5106,-62.1972 49.1023,-71.8314 58.5564,-67.049 53.5106,-62.1972"/>
<g id="a_edge6&#45;headlabel"><a xlink:href="dir_000068_000134.html" target="_top" xlink:title="10">
<text text-anchor="middle" x="53.9555" y="-55.1382" font-family="Helvetica,sans-Serif" font-size="10.00" fill="#000000">10</text>
</a>
</g>
</g>
</g>
</svg>
