<?xml version="1.0" encoding="UTF-8" standalone="no"?>
<!DOCTYPE svg PUBLIC "-//W3C//DTD SVG 1.1//EN"
 "http://www.w3.org/Graphics/SVG/1.1/DTD/svg11.dtd">
<!-- Generated by graphviz version 2.40.1 (20161225.0304)
 -->
<!-- Title: /home/travis/build/AliceO2Group/AliceO2/GPU/GPUTracking/TPCClusterFinder Pages: 1 -->
<svg width="167pt" height="295pt"
 viewBox="0.00 0.00 167.00 295.00" xmlns="http://www.w3.org/2000/svg" xmlns:xlink="http://www.w3.org/1999/xlink">
<g id="graph0" class="graph" transform="scale(1 1) rotate(0) translate(4 291)">
<title>/home/travis/build/AliceO2Group/AliceO2/GPU/GPUTracking/TPCClusterFinder</title>
<g id="clust1" class="cluster">
<title>clusterdir_77030b149987c946eb2e85728f65acc0</title>
<g id="a_clust1"><a xlink:href="dir_77030b149987c946eb2e85728f65acc0.html" target="_top" xlink:title="GPUTracking">
<polygon fill="#ddddee" stroke="#000000" points="8,-208 8,-279 124,-279 124,-208 8,-208"/>
<text text-anchor="middle" x="66" y="-267" font-family="Helvetica,sans-Serif" font-size="10.00" fill="#000000">GPUTracking</text>
</a>
</g>
</g>
<!-- dir_2add44c2e86b1ce794c82f89c520272d -->
<g id="node1" class="node">
<title>dir_2add44c2e86b1ce794c82f89c520272d</title>
<g id="a_node1"><a xlink:href="dir_2add44c2e86b1ce794c82f89c520272d.html" target="_top" xlink:title="TPCClusterFinder">
<polygon fill="#eeeeff" stroke="#000000" points="115.5,-252 16.5,-252 16.5,-216 115.5,-216 115.5,-252"/>
<text text-anchor="middle" x="66" y="-231.5" font-family="Helvetica,sans-Serif" font-size="10.00" fill="#000000">TPCClusterFinder</text>
</a>
</g>
</g>
<!-- dir_ba48ca66118492a4424f86e9da0f6902 -->
<g id="node2" class="node">
<title>dir_ba48ca66118492a4424f86e9da0f6902</title>
<g id="a_node2"><a xlink:href="dir_ba48ca66118492a4424f86e9da0f6902.html" target="_top" xlink:title="Common">
<polygon fill="none" stroke="#000000" points="81.5,-36 20.5,-36 20.5,0 81.5,0 81.5,-36"/>
<text text-anchor="middle" x="51" y="-15.5" font-family="Helvetica,sans-Serif" font-size="10.00" fill="#000000">Common</text>
</a>
</g>
</g>
<!-- dir_2add44c2e86b1ce794c82f89c520272d&#45;&gt;dir_ba48ca66118492a4424f86e9da0f6902 -->
<g id="edge3" class="edge">
<title>dir_2add44c2e86b1ce794c82f89c520272d&#45;&gt;dir_ba48ca66118492a4424f86e9da0f6902</title>
<path fill="none" stroke="#000000" d="M50.0095,-215.9169C42.3462,-206.0371 33.9834,-193.1563 30,-180 16.2066,-134.4436 29.5257,-78.9902 40.3355,-46.1981"/>
<polygon fill="#000000" stroke="#000000" points="43.7669,-46.9836 43.7195,-36.3889 37.1496,-44.7007 43.7669,-46.9836"/>
<g id="a_edge3&#45;headlabel"><a xlink:href="dir_000136_000649.html" target="_top" xlink:title="6">
<text text-anchor="middle" x="45.2788" y="-48.8076" font-family="Helvetica,sans-Serif" font-size="10.00" fill="#000000">6</text>
</a>
</g>
</g>
<!-- dir_442920581a03c66cf8c08ae559108050 -->
<g id="node3" class="node">
<title>dir_442920581a03c66cf8c08ae559108050</title>
<g id="a_node3"><a xlink:href="dir_442920581a03c66cf8c08ae559108050.html" target="_top" xlink:title="Base">
<polygon fill="none" stroke="#ff0000" points="93,-180 39,-180 39,-144 93,-144 93,-180"/>
<text text-anchor="middle" x="66" y="-159.5" font-family="Helvetica,sans-Serif" font-size="10.00" fill="#000000">Base</text>
</a>
</g>
</g>
<!-- dir_2add44c2e86b1ce794c82f89c520272d&#45;&gt;dir_442920581a03c66cf8c08ae559108050 -->
<g id="edge4" class="edge">
<title>dir_2add44c2e86b1ce794c82f89c520272d&#45;&gt;dir_442920581a03c66cf8c08ae559108050</title>
<path fill="none" stroke="#000000" d="M66,-215.8314C66,-208.131 66,-198.9743 66,-190.4166"/>
<polygon fill="#000000" stroke="#000000" points="69.5001,-190.4132 66,-180.4133 62.5001,-190.4133 69.5001,-190.4132"/>
<g id="a_edge4&#45;headlabel"><a xlink:href="dir_000136_000650.html" target="_top" xlink:title="18">
<text text-anchor="middle" x="72.3393" y="-191.5079" font-family="Helvetica,sans-Serif" font-size="10.00" fill="#000000">18</text>
</a>
</g>
</g>
<!-- dir_2171f7ec022c5423887b07c69b2f5b48 -->
<g id="node4" class="node">
<title>dir_2171f7ec022c5423887b07c69b2f5b48</title>
<g id="a_node4"><a xlink:href="dir_2171f7ec022c5423887b07c69b2f5b48.html" target="_top" xlink:title="DataFormats">
<polygon fill="none" stroke="#ff0000" points="159,-108 79,-108 79,-72 159,-72 159,-108"/>
<text text-anchor="middle" x="119" y="-87.5" font-family="Helvetica,sans-Serif" font-size="10.00" fill="#000000">DataFormats</text>
</a>
</g>
</g>
<!-- dir_2add44c2e86b1ce794c82f89c520272d&#45;&gt;dir_2171f7ec022c5423887b07c69b2f5b48 -->
<g id="edge5" class="edge">
<title>dir_2add44c2e86b1ce794c82f89c520272d&#45;&gt;dir_2171f7ec022c5423887b07c69b2f5b48</title>
<path fill="none" stroke="#000000" d="M80.9968,-215.5647C88.3882,-205.5884 96.8076,-192.7278 102,-180 110.0838,-160.1846 114.3665,-136.3292 116.6105,-118.1584"/>
<polygon fill="#000000" stroke="#000000" points="120.0924,-118.5135 117.7094,-108.1902 113.1346,-117.7464 120.0924,-118.5135"/>
<g id="a_edge5&#45;headlabel"><a xlink:href="dir_000136_000068.html" target="_top" xlink:title="4">
<text text-anchor="middle" x="122.5208" y="-119.8976" font-family="Helvetica,sans-Serif" font-size="10.00" fill="#000000">4</text>
</a>
</g>
</g>
<!-- dir_442920581a03c66cf8c08ae559108050&#45;&gt;dir_ba48ca66118492a4424f86e9da0f6902 -->
<g id="edge1" class="edge">
<title>dir_442920581a03c66cf8c08ae559108050&#45;&gt;dir_ba48ca66118492a4424f86e9da0f6902</title>
<path fill="none" stroke="#000000" d="M64.1002,-143.7623C61.5418,-119.201 56.9633,-75.2474 53.9535,-46.3541"/>
<polygon fill="#000000" stroke="#000000" points="57.4016,-45.6731 52.8843,-36.0896 50.4393,-46.3985 57.4016,-45.6731"/>
<g id="a_edge1&#45;headlabel"><a xlink:href="dir_000650_000649.html" target="_top" xlink:title="29">
<text text-anchor="middle" x="60.598" y="-46.4543" font-family="Helvetica,sans-Serif" font-size="10.00" fill="#000000">29</text>
</a>
</g>
</g>
<!-- dir_442920581a03c66cf8c08ae559108050&#45;&gt;dir_2171f7ec022c5423887b07c69b2f5b48 -->
<g id="edge2" class="edge">
<title>dir_442920581a03c66cf8c08ae559108050&#45;&gt;dir_2171f7ec022c5423887b07c69b2f5b48</title>
<path fill="none" stroke="#000000" d="M79.3741,-143.8314C85.4162,-135.6232 92.6763,-125.7606 99.3221,-116.7323"/>
<polygon fill="#000000" stroke="#000000" points="102.3363,-118.5415 105.4458,-108.4133 96.6989,-114.3918 102.3363,-118.5415"/>
<g id="a_edge2&#45;headlabel"><a xlink:href="dir_000650_000068.html" target="_top" xlink:title="1">
<text text-anchor="middle" x="102.4919" y="-120.6195" font-family="Helvetica,sans-Serif" font-size="10.00" fill="#000000">1</text>
</a>
</g>
</g>
<!-- dir_2171f7ec022c5423887b07c69b2f5b48&#45;&gt;dir_ba48ca66118492a4424f86e9da0f6902 -->
<g id="edge6" class="edge">
<title>dir_2171f7ec022c5423887b07c69b2f5b48&#45;&gt;dir_ba48ca66118492a4424f86e9da0f6902</title>
<path fill="none" stroke="#000000" d="M101.8407,-71.8314C93.8489,-63.3694 84.1962,-53.1489 75.4584,-43.8971"/>
<polygon fill="#000000" stroke="#000000" points="77.8011,-41.2802 68.3903,-36.4133 72.712,-46.0866 77.8011,-41.2802"/>
<g id="a_edge6&#45;headlabel"><a xlink:href="dir_000068_000649.html" target="_top" xlink:title="10">
<text text-anchor="middle" x="82.3334" y="-39.444" font-family="Helvetica,sans-Serif" font-size="10.00" fill="#000000">10</text>
</a>
</g>
</g>
</g>
</svg>
