<?xml version="1.0" encoding="UTF-8" standalone="no"?>
<!DOCTYPE svg PUBLIC "-//W3C//DTD SVG 1.1//EN"
 "http://www.w3.org/Graphics/SVG/1.1/DTD/svg11.dtd">
<!-- Generated by graphviz version 2.40.1 (20161225.0304)
 -->
<!-- Title: /home/travis/build/AliceO2Group/AliceO2/Detectors/MUON/MCH Pages: 1 -->
<!--zoomable 375 -->
<svg id="main" version="1.1" xmlns="http://www.w3.org/2000/svg" xmlns:xlink="http://www.w3.org/1999/xlink" xml:space="preserve" onload="init(evt)">
<style type="text/css"><![CDATA[
.edge:hover path { stroke: red; }
.edge:hover polygon { stroke: red; fill: red; }
]]></style>
<script type="text/javascript"><![CDATA[
var edges = document.getElementsByTagName('g');
if (edges && edges.length) {
  for (var i=0;i<edges.length;i++) {
    if (edges[i].id.substr(0,4)=='edge') {
      edges[i].setAttribute('class','edge');
    }
  }
}
]]></script>
        <defs>
                <circle id="rim" cx="0" cy="0" r="7"/>
                <circle id="rim2" cx="0" cy="0" r="3.5"/>
                <g id="zoomPlus">
                        <use xlink:href="#rim" fill="#404040">
                                <set attributeName="fill" to="#808080" begin="zoomplus.mouseover" end="zoomplus.mouseout"/>
                        </use>
                        <path d="M-4,0h8M0,-4v8" fill="none" stroke="white" stroke-width="1.5" pointer-events="none"/>
                </g>
                <g id="zoomMin">
                        <use xlink:href="#rim" fill="#404040">
                                <set attributeName="fill" to="#808080" begin="zoomminus.mouseover" end="zoomminus.mouseout"/>
                        </use>
                        <path d="M-4,0h8" fill="none" stroke="white" stroke-width="1.5" pointer-events="none"/>
                </g>
                <g id="dirArrow">
                        <path fill="none" stroke="white" stroke-width="1.5" d="M0,-3.0v7 M-2.5,-0.5L0,-3.0L2.5,-0.5"/>
                </g>
               <g id="resetDef">
                       <use xlink:href="#rim2" fill="#404040">
                               <set attributeName="fill" to="#808080" begin="reset.mouseover" end="reset.mouseout"/>
                       </use>
               </g>
        </defs>

<script type="text/javascript">
var viewWidth = 630;
var viewHeight = 375;
var sectionId = 'dynsection-0';
</script>
<script xlink:href="svgpan.js"/>
<svg id="graph" class="graph">
<g id="viewport">
<title>/home/travis/build/AliceO2Group/AliceO2/Detectors/MUON/MCH</title>
<g id="clust1" class="cluster">
<title>clusterdir_1cc233fd3b1202b9dad36810b41b97af</title>
<g id="a_clust1"><a xlink:href="dir_1cc233fd3b1202b9dad36810b41b97af.html" target="_top" xlink:title="MUON">
<polygon fill="#ddddee" stroke="#000000" points="8,-128 8,-359 430,-359 430,-128 8,-128"/>
<text text-anchor="middle" x="219" y="-347" font-family="Helvetica,sans-Serif" font-size="10.00" fill="#000000">MUON</text>
</a>
</g>
</g>
<g id="clust2" class="cluster">
<title>clusterdir_061f7088060f41729027f6c2fce0273e</title>
<g id="a_clust2"><a xlink:href="dir_061f7088060f41729027f6c2fce0273e.html" target="_top">
<polygon fill="#eeeeff" stroke="#000000" points="16,-136 16,-332 422,-332 422,-136 16,-136"/>
</a>
</g>
</g>
<!-- dir_061f7088060f41729027f6c2fce0273e -->
<g id="node1" class="node">
<title>dir_061f7088060f41729027f6c2fce0273e</title>
<text text-anchor="middle" x="387" y="-303.5" font-family="Helvetica,sans-Serif" font-size="10.00" fill="#000000">MCH</text>
</g>
<!-- dir_1155c84989a046e7de4bf0156dc4b34c -->
<g id="node2" class="node">
<title>dir_1155c84989a046e7de4bf0156dc4b34c</title>
<g id="a_node2"><a xlink:href="dir_1155c84989a046e7de4bf0156dc4b34c.html" target="_top" xlink:title="Base">
<polygon fill="#ffffff" stroke="#ff0000" points="180,-252 126,-252 126,-216 180,-216 180,-252"/>
<text text-anchor="middle" x="153" y="-231.5" font-family="Helvetica,sans-Serif" font-size="10.00" fill="#000000">Base</text>
</a>
</g>
</g>
<!-- dir_f53aaea7b1f4a3d2e21e52645ea2576d -->
<g id="node3" class="node">
<title>dir_f53aaea7b1f4a3d2e21e52645ea2576d</title>
<g id="a_node3"><a xlink:href="dir_f53aaea7b1f4a3d2e21e52645ea2576d.html" target="_top" xlink:title="Contour">
<polygon fill="#ffffff" stroke="#ff0000" points="86.5,-180 31.5,-180 31.5,-144 86.5,-144 86.5,-180"/>
<text text-anchor="middle" x="59" y="-159.5" font-family="Helvetica,sans-Serif" font-size="10.00" fill="#000000">Contour</text>
</a>
</g>
</g>
<!-- dir_b098e3604916eca5f90f2bb1c75b7880 -->
<g id="node4" class="node">
<title>dir_b098e3604916eca5f90f2bb1c75b7880</title>
<g id="a_node4"><a xlink:href="dir_b098e3604916eca5f90f2bb1c75b7880.html" target="_top" xlink:title="Mapping">
<polygon fill="#ffffff" stroke="#ff0000" points="88,-252 30,-252 30,-216 88,-216 88,-252"/>
<text text-anchor="middle" x="59" y="-231.5" font-family="Helvetica,sans-Serif" font-size="10.00" fill="#000000">Mapping</text>
</a>
</g>
</g>
<!-- dir_b098e3604916eca5f90f2bb1c75b7880&#45;&gt;dir_f53aaea7b1f4a3d2e21e52645ea2576d -->
<g id="edge22" class="edge">
<title>dir_b098e3604916eca5f90f2bb1c75b7880&#45;&gt;dir_f53aaea7b1f4a3d2e21e52645ea2576d</title>
<path fill="none" stroke="#000000" d="M59,-215.8314C59,-208.131 59,-198.9743 59,-190.4166"/>
<polygon fill="#000000" stroke="#000000" points="62.5001,-190.4132 59,-180.4133 55.5001,-190.4133 62.5001,-190.4132"/>
<g id="a_edge22&#45;headlabel"><a xlink:href="dir_000486_000254.html" target="_top" xlink:title="13">
<text text-anchor="middle" x="65.3393" y="-191.5079" font-family="Helvetica,sans-Serif" font-size="10.00" fill="#000000">13</text>
</a>
</g>
</g>
<!-- dir_6229e1f1a243f5ed3f0013dfa4f13deb -->
<g id="node5" class="node">
<title>dir_6229e1f1a243f5ed3f0013dfa4f13deb</title>
<g id="a_node5"><a xlink:href="dir_6229e1f1a243f5ed3f0013dfa4f13deb.html" target="_top" xlink:title="PreClustering">
<polygon fill="#ffffff" stroke="#ff0000" points="194,-324 112,-324 112,-288 194,-288 194,-324"/>
<text text-anchor="middle" x="153" y="-303.5" font-family="Helvetica,sans-Serif" font-size="10.00" fill="#000000">PreClustering</text>
</a>
</g>
</g>
<!-- dir_6229e1f1a243f5ed3f0013dfa4f13deb&#45;&gt;dir_1155c84989a046e7de4bf0156dc4b34c -->
<g id="edge1" class="edge">
<title>dir_6229e1f1a243f5ed3f0013dfa4f13deb&#45;&gt;dir_1155c84989a046e7de4bf0156dc4b34c</title>
<path fill="none" stroke="#000000" d="M153,-287.8314C153,-280.131 153,-270.9743 153,-262.4166"/>
<polygon fill="#000000" stroke="#000000" points="156.5001,-262.4132 153,-252.4133 149.5001,-262.4133 156.5001,-262.4132"/>
<g id="a_edge1&#45;headlabel"><a xlink:href="dir_000511_000119.html" target="_top" xlink:title="5">
<text text-anchor="middle" x="159.3393" y="-263.5079" font-family="Helvetica,sans-Serif" font-size="10.00" fill="#000000">5</text>
</a>
</g>
</g>
<!-- dir_bcbb2cf9a3d3d83e5515c82071a07177 -->
<g id="node11" class="node">
<title>dir_bcbb2cf9a3d3d83e5515c82071a07177</title>
<g id="a_node11"><a xlink:href="dir_bcbb2cf9a3d3d83e5515c82071a07177.html" target="_top" xlink:title="Framework">
<polygon fill="none" stroke="#ff0000" points="509.5,-252 438.5,-252 438.5,-216 509.5,-216 509.5,-252"/>
<text text-anchor="middle" x="474" y="-231.5" font-family="Helvetica,sans-Serif" font-size="10.00" fill="#000000">Framework</text>
</a>
</g>
</g>
<!-- dir_6229e1f1a243f5ed3f0013dfa4f13deb&#45;&gt;dir_bcbb2cf9a3d3d83e5515c82071a07177 -->
<g id="edge2" class="edge">
<title>dir_6229e1f1a243f5ed3f0013dfa4f13deb&#45;&gt;dir_bcbb2cf9a3d3d83e5515c82071a07177</title>
<path fill="none" stroke="#000000" d="M194.0113,-290.5537C197.0336,-289.6258 200.0522,-288.7615 203,-288 300.2032,-262.8893 328.9648,-277.7524 426,-252 426.8844,-251.7653 427.7752,-251.5204 428.6705,-251.2665"/>
<polygon fill="#000000" stroke="#000000" points="429.8351,-254.5697 438.344,-248.2571 427.7557,-247.8857 429.8351,-254.5697"/>
<g id="a_edge2&#45;headlabel"><a xlink:href="dir_000511_000044.html" target="_top" xlink:title="24">
<text text-anchor="middle" x="427.2461" y="-255.8486" font-family="Helvetica,sans-Serif" font-size="10.00" fill="#000000">24</text>
</a>
</g>
</g>
<!-- dir_f8de85f281636d081fd2e7e06b0134d2 -->
<g id="node6" class="node">
<title>dir_f8de85f281636d081fd2e7e06b0134d2</title>
<g id="a_node6"><a xlink:href="dir_f8de85f281636d081fd2e7e06b0134d2.html" target="_top" xlink:title="Raw">
<polygon fill="#ffffff" stroke="#ff0000" points="342,-324 288,-324 288,-288 342,-288 342,-324"/>
<text text-anchor="middle" x="315" y="-303.5" font-family="Helvetica,sans-Serif" font-size="10.00" fill="#000000">Raw</text>
</a>
</g>
</g>
<!-- dir_2171f7ec022c5423887b07c69b2f5b48 -->
<g id="node12" class="node">
<title>dir_2171f7ec022c5423887b07c69b2f5b48</title>
<g id="a_node12"><a xlink:href="dir_2171f7ec022c5423887b07c69b2f5b48.html" target="_top" xlink:title="DataFormats">
<polygon fill="none" stroke="#ff0000" points="577,-108 497,-108 497,-72 577,-72 577,-108"/>
<text text-anchor="middle" x="537" y="-87.5" font-family="Helvetica,sans-Serif" font-size="10.00" fill="#000000">DataFormats</text>
</a>
</g>
</g>
<!-- dir_f8de85f281636d081fd2e7e06b0134d2&#45;&gt;dir_2171f7ec022c5423887b07c69b2f5b48 -->
<g id="edge18" class="edge">
<title>dir_f8de85f281636d081fd2e7e06b0134d2&#45;&gt;dir_2171f7ec022c5423887b07c69b2f5b48</title>
<path fill="none" stroke="#000000" d="M342.14,-291.3071C345.078,-290.057 348.0666,-288.9209 351,-288 403.9223,-271.386 561.7161,-293.9556 598,-252 634.0499,-210.315 624.7517,-176.1828 598,-128 594.8601,-122.3446 590.4902,-117.4214 585.5172,-113.1657"/>
<polygon fill="#000000" stroke="#000000" points="587.4009,-110.2039 577.2963,-107.0183 583.2089,-115.8099 587.4009,-110.2039"/>
<g id="a_edge18&#45;headlabel"><a xlink:href="dir_000006_000068.html" target="_top" xlink:title="7">
<text text-anchor="middle" x="591.98" y="-107.5827" font-family="Helvetica,sans-Serif" font-size="10.00" fill="#000000">7</text>
</a>
</g>
</g>
<!-- dir_e4cb5181a3c884468a78a261ced84e7b -->
<g id="node7" class="node">
<title>dir_e4cb5181a3c884468a78a261ced84e7b</title>
<g id="a_node7"><a xlink:href="dir_e4cb5181a3c884468a78a261ced84e7b.html" target="_top" xlink:title="Simulation">
<polygon fill="#ffffff" stroke="#ff0000" points="93.5,-324 24.5,-324 24.5,-288 93.5,-288 93.5,-324"/>
<text text-anchor="middle" x="59" y="-303.5" font-family="Helvetica,sans-Serif" font-size="10.00" fill="#000000">Simulation</text>
</a>
</g>
</g>
<!-- dir_e4cb5181a3c884468a78a261ced84e7b&#45;&gt;dir_1155c84989a046e7de4bf0156dc4b34c -->
<g id="edge12" class="edge">
<title>dir_e4cb5181a3c884468a78a261ced84e7b&#45;&gt;dir_1155c84989a046e7de4bf0156dc4b34c</title>
<path fill="none" stroke="#000000" d="M82.7202,-287.8314C94.4094,-278.8779 108.6688,-267.9558 121.2809,-258.2955"/>
<polygon fill="#000000" stroke="#000000" points="123.4769,-261.0222 129.2874,-252.1628 119.2203,-255.4651 123.4769,-261.0222"/>
<g id="a_edge12&#45;headlabel"><a xlink:href="dir_000192_000119.html" target="_top" xlink:title="6">
<text text-anchor="middle" x="122.3497" y="-262.962" font-family="Helvetica,sans-Serif" font-size="10.00" fill="#000000">6</text>
</a>
</g>
</g>
<!-- dir_e4cb5181a3c884468a78a261ced84e7b&#45;&gt;dir_b098e3604916eca5f90f2bb1c75b7880 -->
<g id="edge15" class="edge">
<title>dir_e4cb5181a3c884468a78a261ced84e7b&#45;&gt;dir_b098e3604916eca5f90f2bb1c75b7880</title>
<path fill="none" stroke="#000000" d="M59,-287.8314C59,-280.131 59,-270.9743 59,-262.4166"/>
<polygon fill="#000000" stroke="#000000" points="62.5001,-262.4132 59,-252.4133 55.5001,-262.4133 62.5001,-262.4132"/>
<g id="a_edge15&#45;headlabel"><a xlink:href="dir_000192_000486.html" target="_top" xlink:title="3">
<text text-anchor="middle" x="65.3393" y="-263.5079" font-family="Helvetica,sans-Serif" font-size="10.00" fill="#000000">3</text>
</a>
</g>
</g>
<!-- dir_4ab6b4cc6a7edbff49100e9123df213f -->
<g id="node9" class="node">
<title>dir_4ab6b4cc6a7edbff49100e9123df213f</title>
<g id="a_node9"><a xlink:href="dir_4ab6b4cc6a7edbff49100e9123df213f.html" target="_top" xlink:title="Common">
<polygon fill="none" stroke="#ff0000" points="499.5,-180 438.5,-180 438.5,-144 499.5,-144 499.5,-180"/>
<text text-anchor="middle" x="469" y="-159.5" font-family="Helvetica,sans-Serif" font-size="10.00" fill="#000000">Common</text>
</a>
</g>
</g>
<!-- dir_e4cb5181a3c884468a78a261ced84e7b&#45;&gt;dir_4ab6b4cc6a7edbff49100e9123df213f -->
<g id="edge11" class="edge">
<title>dir_e4cb5181a3c884468a78a261ced84e7b&#45;&gt;dir_4ab6b4cc6a7edbff49100e9123df213f</title>
<path fill="none" stroke="#000000" d="M93.8606,-291.0865C96.9271,-289.9736 100.0035,-288.926 103,-288 175.9578,-265.455 199.966,-280.0229 271,-252 299.9287,-240.5876 303.0154,-229.5638 331,-216 371.6311,-196.3066 384.0577,-196.7199 426,-180 426.8551,-179.6591 427.7192,-179.313 428.5896,-178.9627"/>
<polygon fill="#000000" stroke="#000000" points="430.111,-182.1222 438.0488,-175.105 427.4675,-175.6405 430.111,-182.1222"/>
<g id="a_edge11&#45;headlabel"><a xlink:href="dir_000192_000026.html" target="_top" xlink:title="2">
<text text-anchor="middle" x="427.8548" y="-183.6086" font-family="Helvetica,sans-Serif" font-size="10.00" fill="#000000">2</text>
</a>
</g>
</g>
<!-- dir_37c90836491b695b472bf98d1be8336b -->
<g id="node10" class="node">
<title>dir_37c90836491b695b472bf98d1be8336b</title>
<g id="a_node10"><a xlink:href="dir_37c90836491b695b472bf98d1be8336b.html" target="_top" xlink:title="Base">
<polygon fill="none" stroke="#ff0000" points="564,-36 510,-36 510,0 564,0 564,-36"/>
<text text-anchor="middle" x="537" y="-15.5" font-family="Helvetica,sans-Serif" font-size="10.00" fill="#000000">Base</text>
</a>
</g>
</g>
<!-- dir_e4cb5181a3c884468a78a261ced84e7b&#45;&gt;dir_37c90836491b695b472bf98d1be8336b -->
<g id="edge13" class="edge">
<title>dir_e4cb5181a3c884468a78a261ced84e7b&#45;&gt;dir_37c90836491b695b472bf98d1be8336b</title>
<path fill="none" stroke="#000000" d="M93.7582,-291.7367C131.5303,-276.2109 186.8424,-253.3892 189,-252 193.2469,-249.2656 317.8647,-130.9004 322,-128 380.4008,-87.039 456.1361,-51.9383 500.3718,-32.9998"/>
<polygon fill="#000000" stroke="#000000" points="502.005,-36.1091 509.8468,-28.9846 499.2738,-29.6639 502.005,-36.1091"/>
<g id="a_edge13&#45;headlabel"><a xlink:href="dir_000192_000266.html" target="_top" xlink:title="5">
<text text-anchor="middle" x="499.8031" y="-37.6258" font-family="Helvetica,sans-Serif" font-size="10.00" fill="#000000">5</text>
</a>
</g>
</g>
<!-- dir_e4cb5181a3c884468a78a261ced84e7b&#45;&gt;dir_2171f7ec022c5423887b07c69b2f5b48 -->
<g id="edge14" class="edge">
<title>dir_e4cb5181a3c884468a78a261ced84e7b&#45;&gt;dir_2171f7ec022c5423887b07c69b2f5b48</title>
<path fill="none" stroke="#000000" d="M93.9343,-291.3111C96.9849,-290.1495 100.0374,-289.0292 103,-288 157.6119,-269.0273 176.9542,-279.1431 228,-252 250.0068,-240.2981 250.4466,-230.0993 271,-216 337.6032,-170.3112 356.3631,-161.1824 430,-128 448.2815,-119.762 468.9281,-112.0711 487.174,-105.7933"/>
<polygon fill="#000000" stroke="#000000" points="488.4021,-109.0727 496.7513,-102.5504 486.1571,-102.4425 488.4021,-109.0727"/>
<g id="a_edge14&#45;headlabel"><a xlink:href="dir_000192_000068.html" target="_top" xlink:title="10">
<text text-anchor="middle" x="485.9079" y="-110.4148" font-family="Helvetica,sans-Serif" font-size="10.00" fill="#000000">10</text>
</a>
</g>
</g>
<!-- dir_09445408fa345a18838fb91740d089d0 -->
<g id="node8" class="node">
<title>dir_09445408fa345a18838fb91740d089d0</title>
<g id="a_node8"><a xlink:href="dir_09445408fa345a18838fb91740d089d0.html" target="_top" xlink:title="Tracking">
<polygon fill="#ffffff" stroke="#ff0000" points="269.5,-324 212.5,-324 212.5,-288 269.5,-288 269.5,-324"/>
<text text-anchor="middle" x="241" y="-303.5" font-family="Helvetica,sans-Serif" font-size="10.00" fill="#000000">Tracking</text>
</a>
</g>
</g>
<!-- dir_09445408fa345a18838fb91740d089d0&#45;&gt;dir_1155c84989a046e7de4bf0156dc4b34c -->
<g id="edge7" class="edge">
<title>dir_09445408fa345a18838fb91740d089d0&#45;&gt;dir_1155c84989a046e7de4bf0156dc4b34c</title>
<path fill="none" stroke="#000000" d="M218.7939,-287.8314C207.955,-278.9632 194.7556,-268.1637 183.0322,-258.5718"/>
<polygon fill="#000000" stroke="#000000" points="185.155,-255.7864 175.199,-252.1628 180.7223,-261.2041 185.155,-255.7864"/>
<g id="a_edge7&#45;headlabel"><a xlink:href="dir_000106_000119.html" target="_top" xlink:title="11">
<text text-anchor="middle" x="189.7349" y="-253.3651" font-family="Helvetica,sans-Serif" font-size="10.00" fill="#000000">11</text>
</a>
</g>
</g>
<!-- dir_09445408fa345a18838fb91740d089d0&#45;&gt;dir_4ab6b4cc6a7edbff49100e9123df213f -->
<g id="edge6" class="edge">
<title>dir_09445408fa345a18838fb91740d089d0&#45;&gt;dir_4ab6b4cc6a7edbff49100e9123df213f</title>
<path fill="none" stroke="#000000" d="M269.54,-289.246C287.3195,-278.7175 310.6105,-264.7593 331,-252 366.1159,-230.0251 405.6663,-204.1096 433.395,-185.745"/>
<polygon fill="#000000" stroke="#000000" points="435.5632,-188.5068 441.9618,-180.0624 431.6938,-182.6735 435.5632,-188.5068"/>
<g id="a_edge6&#45;headlabel"><a xlink:href="dir_000106_000026.html" target="_top" xlink:title="6">
<text text-anchor="middle" x="434.1372" y="-190.3599" font-family="Helvetica,sans-Serif" font-size="10.00" fill="#000000">6</text>
</a>
</g>
</g>
<!-- dir_09445408fa345a18838fb91740d089d0&#45;&gt;dir_37c90836491b695b472bf98d1be8336b -->
<g id="edge8" class="edge">
<title>dir_09445408fa345a18838fb91740d089d0&#45;&gt;dir_37c90836491b695b472bf98d1be8336b</title>
<path fill="none" stroke="#000000" d="M269.6835,-291.2938C272.7778,-290.0463 275.921,-288.9145 279,-288 335.9703,-271.0801 498.9699,-290.784 544,-252 606.2444,-198.3895 615.5873,-148.6357 586,-72 581.8808,-61.3306 574.5664,-51.4665 566.8251,-43.1681"/>
<polygon fill="#000000" stroke="#000000" points="569.2181,-40.6113 559.675,-36.0091 564.2652,-45.558 569.2181,-40.6113"/>
<g id="a_edge8&#45;headlabel"><a xlink:href="dir_000106_000266.html" target="_top" xlink:title="1">
<text text-anchor="middle" x="573.7672" y="-38.6483" font-family="Helvetica,sans-Serif" font-size="10.00" fill="#000000">1</text>
</a>
</g>
</g>
<!-- dir_09445408fa345a18838fb91740d089d0&#45;&gt;dir_bcbb2cf9a3d3d83e5515c82071a07177 -->
<g id="edge9" class="edge">
<title>dir_09445408fa345a18838fb91740d089d0&#45;&gt;dir_bcbb2cf9a3d3d83e5515c82071a07177</title>
<path fill="none" stroke="#000000" d="M269.7911,-291.6241C272.8644,-290.3122 275.9733,-289.075 279,-288 342.3848,-265.4876 361.7297,-271.8439 426,-252 426.8743,-251.7301 427.7558,-251.4528 428.6425,-251.1691"/>
<polygon fill="#000000" stroke="#000000" points="429.8904,-254.4421 438.2516,-247.9351 427.6575,-247.8078 429.8904,-254.4421"/>
<g id="a_edge9&#45;headlabel"><a xlink:href="dir_000106_000044.html" target="_top" xlink:title="64">
<text text-anchor="middle" x="427.3892" y="-255.7796" font-family="Helvetica,sans-Serif" font-size="10.00" fill="#000000">64</text>
</a>
</g>
</g>
<!-- dir_09445408fa345a18838fb91740d089d0&#45;&gt;dir_2171f7ec022c5423887b07c69b2f5b48 -->
<g id="edge10" class="edge">
<title>dir_09445408fa345a18838fb91740d089d0&#45;&gt;dir_2171f7ec022c5423887b07c69b2f5b48</title>
<path fill="none" stroke="#000000" d="M269.6967,-291.3377C272.7884,-290.0816 275.9274,-288.9358 279,-288 382.1808,-256.5756 437.3136,-322.4351 519,-252 556.6461,-219.5392 551.1037,-155.3509 543.9174,-118.2598"/>
<polygon fill="#000000" stroke="#000000" points="547.2684,-117.1876 541.7811,-108.1245 540.4189,-118.6313 547.2684,-117.1876"/>
<g id="a_edge10&#45;headlabel"><a xlink:href="dir_000106_000068.html" target="_top" xlink:title="1">
<text text-anchor="middle" x="550.7879" y="-117.6194" font-family="Helvetica,sans-Serif" font-size="10.00" fill="#000000">1</text>
</a>
</g>
</g>
<!-- dir_4ab6b4cc6a7edbff49100e9123df213f&#45;&gt;dir_2171f7ec022c5423887b07c69b2f5b48 -->
<g id="edge3" class="edge">
<title>dir_4ab6b4cc6a7edbff49100e9123df213f&#45;&gt;dir_2171f7ec022c5423887b07c69b2f5b48</title>
<path fill="none" stroke="#000000" d="M480.2069,-143.8314C487.5015,-135.219 497.1788,-124.7851 506.5234,-115.4048"/>
<polygon fill="#000000" stroke="#000000" points="509.2141,-117.6679 513.8944,-108.1628 504.3082,-112.6746 509.2141,-117.6679"/>
<g id="a_edge3&#45;headlabel"><a xlink:href="dir_000026_000068.html" target="_top" xlink:title="2">
<text text-anchor="middle" x="508.6399" y="-119.7124" font-family="Helvetica,sans-Serif" font-size="10.00" fill="#000000">2</text>
</a>
</g>
</g>
<!-- dir_37c90836491b695b472bf98d1be8336b&#45;&gt;dir_4ab6b4cc6a7edbff49100e9123df213f -->
<g id="edge4" class="edge">
<title>dir_37c90836491b695b472bf98d1be8336b&#45;&gt;dir_4ab6b4cc6a7edbff49100e9123df213f</title>
<path fill="none" stroke="#000000" d="M516.0595,-36.075C506.1121,-45.7624 494.9134,-58.4731 488,-72 478.1582,-91.2568 473.412,-115.3251 471.1245,-133.7258"/>
<polygon fill="#000000" stroke="#000000" points="467.6277,-133.5095 470.0418,-143.8257 474.5878,-134.2557 467.6277,-133.5095"/>
<g id="a_edge4&#45;headlabel"><a xlink:href="dir_000266_000026.html" target="_top" xlink:title="16">
<text text-anchor="middle" x="465.1876" y="-127.1328" font-family="Helvetica,sans-Serif" font-size="10.00" fill="#000000">16</text>
</a>
</g>
</g>
<!-- dir_37c90836491b695b472bf98d1be8336b&#45;&gt;dir_2171f7ec022c5423887b07c69b2f5b48 -->
<g id="edge5" class="edge">
<title>dir_37c90836491b695b472bf98d1be8336b&#45;&gt;dir_2171f7ec022c5423887b07c69b2f5b48</title>
<path fill="none" stroke="#000000" d="M542.976,-36.4133C543.7071,-44.0593 543.9203,-53.1084 543.6155,-61.5726"/>
<polygon fill="#000000" stroke="#000000" points="540.1048,-61.6264 542.9524,-71.8314 547.0902,-62.078 540.1048,-61.6264"/>
<g id="a_edge5&#45;headlabel"><a xlink:href="dir_000266_000068.html" target="_top" xlink:title="7">
<text text-anchor="middle" x="537.5032" y="-55.3562" font-family="Helvetica,sans-Serif" font-size="10.00" fill="#000000">7</text>
</a>
</g>
</g>
<!-- dir_bcbb2cf9a3d3d83e5515c82071a07177&#45;&gt;dir_4ab6b4cc6a7edbff49100e9123df213f -->
<g id="edge16" class="edge">
<title>dir_bcbb2cf9a3d3d83e5515c82071a07177&#45;&gt;dir_4ab6b4cc6a7edbff49100e9123df213f</title>
<path fill="none" stroke="#000000" d="M472.7383,-215.8314C472.2035,-208.131 471.5677,-198.9743 470.9734,-190.4166"/>
<polygon fill="#000000" stroke="#000000" points="474.4632,-190.1467 470.2787,-180.4133 467.48,-190.6317 474.4632,-190.1467"/>
<g id="a_edge16&#45;headlabel"><a xlink:href="dir_000044_000026.html" target="_top" xlink:title="8">
<text text-anchor="middle" x="477.5445" y="-191.0361" font-family="Helvetica,sans-Serif" font-size="10.00" fill="#000000">8</text>
</a>
</g>
</g>
<!-- dir_bcbb2cf9a3d3d83e5515c82071a07177&#45;&gt;dir_2171f7ec022c5423887b07c69b2f5b48 -->
<g id="edge17" class="edge">
<title>dir_bcbb2cf9a3d3d83e5515c82071a07177&#45;&gt;dir_2171f7ec022c5423887b07c69b2f5b48</title>
<path fill="none" stroke="#000000" d="M479.653,-215.7396C485.7247,-205.6049 494.1201,-192.5435 500,-180 509.3913,-159.9658 516.6733,-135.987 522.7804,-117.8198"/>
<polygon fill="#000000" stroke="#000000" points="526.1719,-118.7229 526.1525,-108.1281 519.5607,-116.4225 526.1719,-118.7229"/>
<g id="a_edge17&#45;headlabel"><a xlink:href="dir_000044_000068.html" target="_top" xlink:title="72">
<text text-anchor="middle" x="527.6723" y="-120.5509" font-family="Helvetica,sans-Serif" font-size="10.00" fill="#000000">72</text>
</a>
</g>
</g>
<!-- dir_2171f7ec022c5423887b07c69b2f5b48&#45;&gt;dir_4ab6b4cc6a7edbff49100e9123df213f -->
<g id="edge19" class="edge">
<title>dir_2171f7ec022c5423887b07c69b2f5b48&#45;&gt;dir_4ab6b4cc6a7edbff49100e9123df213f</title>
<path fill="none" stroke="#000000" d="M525.5857,-108.4133C518.3024,-116.9938 508.6978,-127.3414 499.4257,-136.6463"/>
<polygon fill="#000000" stroke="#000000" points="496.7926,-134.3266 492.1117,-143.8314 501.6981,-139.3202 496.7926,-134.3266"/>
<g id="a_edge19&#45;headlabel"><a xlink:href="dir_000068_000026.html" target="_top" xlink:title="30">
<text text-anchor="middle" x="497.3671" y="-127.2822" font-family="Helvetica,sans-Serif" font-size="10.00" fill="#000000">30</text>
</a>
</g>
</g>
<!-- dir_2171f7ec022c5423887b07c69b2f5b48&#45;&gt;dir_37c90836491b695b472bf98d1be8336b -->
<g id="edge20" class="edge">
<title>dir_2171f7ec022c5423887b07c69b2f5b48&#45;&gt;dir_37c90836491b695b472bf98d1be8336b</title>
<path fill="none" stroke="#000000" d="M531.0476,-71.8314C530.2972,-64.131 530.0763,-54.9743 530.3849,-46.4166"/>
<polygon fill="#000000" stroke="#000000" points="533.8792,-46.6161 531.024,-36.4133 526.8935,-46.1697 533.8792,-46.6161"/>
<g id="a_edge20&#45;headlabel"><a xlink:href="dir_000068_000266.html" target="_top" xlink:title="1">
<text text-anchor="middle" x="536.4836" y="-47.8844" font-family="Helvetica,sans-Serif" font-size="10.00" fill="#000000">1</text>
</a>
</g>
</g>
<!-- dir_2171f7ec022c5423887b07c69b2f5b48&#45;&gt;dir_bcbb2cf9a3d3d83e5515c82071a07177 -->
<g id="edge21" class="edge">
<title>dir_2171f7ec022c5423887b07c69b2f5b48&#45;&gt;dir_bcbb2cf9a3d3d83e5515c82071a07177</title>
<path fill="none" stroke="#000000" d="M539.6751,-108.1281C537.3739,-126.6982 529.1822,-156.1453 518,-180 513.5901,-189.4076 507.7652,-199.1066 501.7039,-207.6436"/>
<polygon fill="#000000" stroke="#000000" points="498.827,-205.6458 495.6074,-215.7396 504.4188,-209.8566 498.827,-205.6458"/>
<g id="a_edge21&#45;headlabel"><a xlink:href="dir_000068_000044.html" target="_top" xlink:title="7">
<text text-anchor="middle" x="498.7211" y="-198.5663" font-family="Helvetica,sans-Serif" font-size="10.00" fill="#000000">7</text>
</a>
</g>
</g>
</g>
</svg>
        <g id="navigator" transform="translate(0 0)" fill="#404254">
                <rect fill="#f2f5e9" fill-opacity="0.5" stroke="#606060" stroke-width=".5" x="0" y="0" width="60" height="60"/>
                <use id="zoomplus" xlink:href="#zoomPlus" x="17" y="9" onmousedown="handleZoom(evt,'in')"/>
                <use id="zoomminus" xlink:href="#zoomMin" x="42" y="9" onmousedown="handleZoom(evt,'out')"/>
                <use id="reset" xlink:href="#resetDef" x="30" y="36" onmousedown="handleReset()"/>
                <g id="arrowUp" xlink:href="#dirArrow" transform="translate(30 24)" onmousedown="handlePan(0,-1)">
                  <use xlink:href="#rim" fill="#404040">
                        <set attributeName="fill" to="#808080" begin="arrowUp.mouseover" end="arrowUp.mouseout"/>
                  </use>
                  <path fill="none" stroke="white" stroke-width="1.5" d="M0,-3.0v7 M-2.5,-0.5L0,-3.0L2.5,-0.5"/>
                </g>
                <g id="arrowRight" xlink:href="#dirArrow" transform="rotate(90) translate(36 -43)" onmousedown="handlePan(1,0)">
                  <use xlink:href="#rim" fill="#404040">
                        <set attributeName="fill" to="#808080" begin="arrowRight.mouseover" end="arrowRight.mouseout"/>
                  </use>
                  <path fill="none" stroke="white" stroke-width="1.5" d="M0,-3.0v7 M-2.5,-0.5L0,-3.0L2.5,-0.5"/>
                </g>
                <g id="arrowDown" xlink:href="#dirArrow" transform="rotate(180) translate(-30 -48)" onmousedown="handlePan(0,1)">
                  <use xlink:href="#rim" fill="#404040">
                        <set attributeName="fill" to="#808080" begin="arrowDown.mouseover" end="arrowDown.mouseout"/>
                  </use>
                  <path fill="none" stroke="white" stroke-width="1.5" d="M0,-3.0v7 M-2.5,-0.5L0,-3.0L2.5,-0.5"/>
                </g>
                <g id="arrowLeft" xlink:href="#dirArrow" transform="rotate(270) translate(-36 17)" onmousedown="handlePan(-1,0)">
                  <use xlink:href="#rim" fill="#404040">
                        <set attributeName="fill" to="#808080" begin="arrowLeft.mouseover" end="arrowLeft.mouseout"/>
                  </use>
                  <path fill="none" stroke="white" stroke-width="1.5" d="M0,-3.0v7 M-2.5,-0.5L0,-3.0L2.5,-0.5"/>
                </g>
        </g>
        <svg viewBox="0 0 15 15" width="100%" height="30px" preserveAspectRatio="xMaxYMin meet">
         <g id="arrow_out" transform="scale(0.3 0.3)">
          <a xlink:href="dir_061f7088060f41729027f6c2fce0273e_dep_org.svg" target="_base">
           <rect id="button" ry="5" rx="5" y="6" x="6" height="38" width="38"
                fill="#f2f5e9" fill-opacity="0.5" stroke="#606060" stroke-width="1.0"/>
           <path id="arrow"
             d="M 11.500037,31.436501 C 11.940474,20.09759 22.043105,11.32322 32.158766,21.979434 L 37.068811,17.246167 C 37.068811,17.246167 37.088388,32 37.088388,32 L 22.160133,31.978069 C 22.160133,31.978069 26.997745,27.140456 26.997745,27.140456 C 18.528582,18.264221 13.291696,25.230495 11.500037,31.436501 z"
             style="fill:#404040;"/>
          </a>
         </g>
        </svg>
</svg>
