<?xml version="1.0" encoding="UTF-8" standalone="no"?>
<!DOCTYPE svg PUBLIC "-//W3C//DTD SVG 1.1//EN"
 "http://www.w3.org/Graphics/SVG/1.1/DTD/svg11.dtd">
<!-- Generated by graphviz version 2.40.1 (20161225.0304)
 -->
<!-- Title: /home/travis/build/AliceO2Group/AliceO2/Detectors/ITSMFT/ITS/tracking/include Pages: 1 -->
<svg width="262pt" height="250pt"
 viewBox="0.00 0.00 261.50 249.53" xmlns="http://www.w3.org/2000/svg" xmlns:xlink="http://www.w3.org/1999/xlink">
<g id="graph0" class="graph" transform="scale(1 1) rotate(0) translate(4 245.5295)">
<title>/home/travis/build/AliceO2Group/AliceO2/Detectors/ITSMFT/ITS/tracking/include</title>
<g id="clust1" class="cluster">
<title>clusterdir_beaad5fa58c175f2fa05fab7e2ac7ba4</title>
<g id="a_clust1"><a xlink:href="dir_beaad5fa58c175f2fa05fab7e2ac7ba4.html" target="_top" xlink:title="tracking">
<polygon fill="#ddddee" stroke="#000000" points="8,-128 8,-215 184,-215 184,-128 8,-128"/>
<text text-anchor="middle" x="96" y="-203" font-family="Helvetica,sans-Serif" font-size="10.00" fill="#000000">tracking</text>
</a>
</g>
</g>
<g id="clust2" class="cluster">
<title>clusterdir_6ff49626c189e19df9a205eb87521670</title>
<g id="a_clust2"><a xlink:href="dir_6ff49626c189e19df9a205eb87521670.html" target="_top">
<polygon fill="#eeeeff" stroke="#000000" points="16,-136 16,-188 176,-188 176,-136 16,-136"/>
</a>
</g>
</g>
<!-- dir_6ff49626c189e19df9a205eb87521670 -->
<g id="node1" class="node">
<title>dir_6ff49626c189e19df9a205eb87521670</title>
<text text-anchor="middle" x="141" y="-159.5" font-family="Helvetica,sans-Serif" font-size="10.00" fill="#000000">include</text>
</g>
<!-- dir_9150a22fdf2728b648694283f2bc2055 -->
<g id="node2" class="node">
<title>dir_9150a22fdf2728b648694283f2bc2055</title>
<g id="a_node2"><a xlink:href="dir_9150a22fdf2728b648694283f2bc2055.html" target="_top" xlink:title="ITStracking">
<polygon fill="#ffffff" stroke="#000000" points="95.5,-180 24.5,-180 24.5,-144 95.5,-144 95.5,-180"/>
<text text-anchor="middle" x="60" y="-159.5" font-family="Helvetica,sans-Serif" font-size="10.00" fill="#000000">ITStracking</text>
</a>
</g>
</g>
<!-- dir_4ab6b4cc6a7edbff49100e9123df213f -->
<g id="node3" class="node">
<title>dir_4ab6b4cc6a7edbff49100e9123df213f</title>
<g id="a_node3"><a xlink:href="dir_4ab6b4cc6a7edbff49100e9123df213f.html" target="_top" xlink:title="Common">
<polygon fill="none" stroke="#ff0000" points="253.5,-180 192.5,-180 192.5,-144 253.5,-144 253.5,-180"/>
<text text-anchor="middle" x="223" y="-159.5" font-family="Helvetica,sans-Serif" font-size="10.00" fill="#000000">Common</text>
</a>
</g>
</g>
<!-- dir_9150a22fdf2728b648694283f2bc2055&#45;&gt;dir_4ab6b4cc6a7edbff49100e9123df213f -->
<g id="edge3" class="edge">
<title>dir_9150a22fdf2728b648694283f2bc2055&#45;&gt;dir_4ab6b4cc6a7edbff49100e9123df213f</title>
<path fill="none" stroke="#000000" d="M67.8814,-180.1446C76.4511,-197.3224 91.9392,-222.0622 114,-233 136.6968,-244.2531 148.4059,-244.458 171,-233 189.1118,-223.8151 202.4338,-205.0287 211.0574,-189.0868"/>
<polygon fill="#000000" stroke="#000000" points="214.2009,-190.6263 215.5926,-180.1232 207.9549,-187.466 214.2009,-190.6263"/>
<g id="a_edge3&#45;headlabel"><a xlink:href="dir_000101_000026.html" target="_top" xlink:title="1">
<text text-anchor="middle" x="215.1116" y="-192.6155" font-family="Helvetica,sans-Serif" font-size="10.00" fill="#000000">1</text>
</a>
</g>
</g>
<!-- dir_f511f1e9c03c071966ae594f00bbc5e0 -->
<g id="node4" class="node">
<title>dir_f511f1e9c03c071966ae594f00bbc5e0</title>
<g id="a_node4"><a xlink:href="dir_f511f1e9c03c071966ae594f00bbc5e0.html" target="_top" xlink:title="GPU">
<polygon fill="none" stroke="#ff0000" points="186,-108 132,-108 132,-72 186,-72 186,-108"/>
<text text-anchor="middle" x="159" y="-87.5" font-family="Helvetica,sans-Serif" font-size="10.00" fill="#000000">GPU</text>
</a>
</g>
</g>
<!-- dir_9150a22fdf2728b648694283f2bc2055&#45;&gt;dir_f511f1e9c03c071966ae594f00bbc5e0 -->
<g id="edge4" class="edge">
<title>dir_9150a22fdf2728b648694283f2bc2055&#45;&gt;dir_f511f1e9c03c071966ae594f00bbc5e0</title>
<path fill="none" stroke="#000000" d="M75.0744,-143.8506C81.5451,-138.6816 89.0381,-133.0774 96,-128 104.7034,-121.6525 114.2932,-114.8449 123.3911,-108.7702"/>
<polygon fill="#000000" stroke="#000000" points="125.4536,-111.6037 131.918,-103.2095 121.6299,-105.7403 125.4536,-111.6037"/>
<g id="a_edge4&#45;headlabel"><a xlink:href="dir_000101_000134.html" target="_top" xlink:title="12">
<text text-anchor="middle" x="123.9936" y="-113.4454" font-family="Helvetica,sans-Serif" font-size="10.00" fill="#000000">12</text>
</a>
</g>
</g>
<!-- dir_2171f7ec022c5423887b07c69b2f5b48 -->
<g id="node5" class="node">
<title>dir_2171f7ec022c5423887b07c69b2f5b48</title>
<g id="a_node5"><a xlink:href="dir_2171f7ec022c5423887b07c69b2f5b48.html" target="_top" xlink:title="DataFormats">
<polygon fill="none" stroke="#ff0000" points="199,-36 119,-36 119,0 199,0 199,-36"/>
<text text-anchor="middle" x="159" y="-15.5" font-family="Helvetica,sans-Serif" font-size="10.00" fill="#000000">DataFormats</text>
</a>
</g>
</g>
<!-- dir_9150a22fdf2728b648694283f2bc2055&#45;&gt;dir_2171f7ec022c5423887b07c69b2f5b48 -->
<g id="edge5" class="edge">
<title>dir_9150a22fdf2728b648694283f2bc2055&#45;&gt;dir_2171f7ec022c5423887b07c69b2f5b48</title>
<path fill="none" stroke="#000000" d="M72.5384,-143.7623C89.7962,-118.66 120.9801,-73.3017 140.8039,-44.4671"/>
<polygon fill="#000000" stroke="#000000" points="143.7822,-46.3129 146.5634,-36.0896 138.0139,-42.3472 143.7822,-46.3129"/>
<g id="a_edge5&#45;headlabel"><a xlink:href="dir_000101_000068.html" target="_top" xlink:title="7">
<text text-anchor="middle" x="144.0855" y="-48.3835" font-family="Helvetica,sans-Serif" font-size="10.00" fill="#000000">7</text>
</a>
</g>
</g>
<!-- dir_4ab6b4cc6a7edbff49100e9123df213f&#45;&gt;dir_f511f1e9c03c071966ae594f00bbc5e0 -->
<g id="edge1" class="edge">
<title>dir_4ab6b4cc6a7edbff49100e9123df213f&#45;&gt;dir_f511f1e9c03c071966ae594f00bbc5e0</title>
<path fill="none" stroke="#000000" d="M200.8977,-143.8314C192.6348,-135.454 183.4665,-125.3531 175.7452,-116.1749"/>
<polygon fill="#000000" stroke="#000000" points="178.4341,-113.9341 169.3913,-108.4133 173.0175,-118.3683 178.4341,-113.9341"/>
<g id="a_edge1&#45;headlabel"><a xlink:href="dir_000026_000134.html" target="_top" xlink:title="3">
<text text-anchor="middle" x="182.908" y="-112.4171" font-family="Helvetica,sans-Serif" font-size="10.00" fill="#000000">3</text>
</a>
</g>
</g>
<!-- dir_4ab6b4cc6a7edbff49100e9123df213f&#45;&gt;dir_2171f7ec022c5423887b07c69b2f5b48 -->
<g id="edge2" class="edge">
<title>dir_4ab6b4cc6a7edbff49100e9123df213f&#45;&gt;dir_2171f7ec022c5423887b07c69b2f5b48</title>
<path fill="none" stroke="#000000" d="M212.2162,-143.8419C205.4882,-125.2477 197.3362,-95.7819 186,-72 181.5851,-62.7381 175.756,-53.2326 170.4824,-44.8288"/>
<polygon fill="#000000" stroke="#000000" points="173.3513,-42.8158 165.0712,-36.2058 167.422,-46.5366 173.3513,-42.8158"/>
<g id="a_edge2&#45;headlabel"><a xlink:href="dir_000026_000068.html" target="_top" xlink:title="2">
<text text-anchor="middle" x="177.6668" y="-41.8514" font-family="Helvetica,sans-Serif" font-size="10.00" fill="#000000">2</text>
</a>
</g>
</g>
<!-- dir_f511f1e9c03c071966ae594f00bbc5e0&#45;&gt;dir_9150a22fdf2728b648694283f2bc2055 -->
<g id="edge7" class="edge">
<title>dir_f511f1e9c03c071966ae594f00bbc5e0&#45;&gt;dir_9150a22fdf2728b648694283f2bc2055</title>
<path fill="none" stroke="#000000" d="M141.2907,-108.1847C132.9128,-114.4052 122.9842,-121.4478 114,-128 109.6488,-131.1734 105.0902,-134.5525 100.5248,-137.9026"/>
<polygon fill="#000000" stroke="#000000" points="98.3736,-135.1393 92.3433,-143.8506 102.4898,-140.8012 98.3736,-135.1393"/>
<g id="a_edge7&#45;headlabel"><a xlink:href="dir_000134_000101.html" target="_top" xlink:title="7">
<text text-anchor="middle" x="99.6115" y="-128.2291" font-family="Helvetica,sans-Serif" font-size="10.00" fill="#000000">7</text>
</a>
</g>
</g>
<!-- dir_f511f1e9c03c071966ae594f00bbc5e0&#45;&gt;dir_4ab6b4cc6a7edbff49100e9123df213f -->
<g id="edge6" class="edge">
<title>dir_f511f1e9c03c071966ae594f00bbc5e0&#45;&gt;dir_4ab6b4cc6a7edbff49100e9123df213f</title>
<path fill="none" stroke="#000000" d="M181.3434,-108.4133C189.54,-116.7389 198.6014,-126.7282 206.2458,-135.8144"/>
<polygon fill="#000000" stroke="#000000" points="203.7623,-138.3063 212.8025,-143.8314 209.1809,-133.8747 203.7623,-138.3063"/>
<g id="a_edge6&#45;headlabel"><a xlink:href="dir_000134_000026.html" target="_top" xlink:title="1">
<text text-anchor="middle" x="199.2888" y="-134.8213" font-family="Helvetica,sans-Serif" font-size="10.00" fill="#000000">1</text>
</a>
</g>
</g>
<!-- dir_f511f1e9c03c071966ae594f00bbc5e0&#45;&gt;dir_2171f7ec022c5423887b07c69b2f5b48 -->
<g id="edge8" class="edge">
<title>dir_f511f1e9c03c071966ae594f00bbc5e0&#45;&gt;dir_2171f7ec022c5423887b07c69b2f5b48</title>
<path fill="none" stroke="#000000" d="M153.0476,-71.8314C152.2972,-64.131 152.0763,-54.9743 152.3849,-46.4166"/>
<polygon fill="#000000" stroke="#000000" points="155.8792,-46.6161 153.024,-36.4133 148.8935,-46.1697 155.8792,-46.6161"/>
<g id="a_edge8&#45;headlabel"><a xlink:href="dir_000134_000068.html" target="_top" xlink:title="8">
<text text-anchor="middle" x="158.4836" y="-47.8844" font-family="Helvetica,sans-Serif" font-size="10.00" fill="#000000">8</text>
</a>
</g>
</g>
<!-- dir_2171f7ec022c5423887b07c69b2f5b48&#45;&gt;dir_4ab6b4cc6a7edbff49100e9123df213f -->
<g id="edge9" class="edge">
<title>dir_2171f7ec022c5423887b07c69b2f5b48&#45;&gt;dir_4ab6b4cc6a7edbff49100e9123df213f</title>
<path fill="none" stroke="#000000" d="M181.0257,-36.2058C189.3541,-46.3245 197.9882,-59.388 204,-72 213.4763,-91.8802 220.7276,-115.7323 224.1665,-133.8853"/>
<polygon fill="#000000" stroke="#000000" points="220.7217,-134.5102 225.7387,-143.8419 227.636,-133.4183 220.7217,-134.5102"/>
<g id="a_edge9&#45;headlabel"><a xlink:href="dir_000068_000026.html" target="_top" xlink:title="30">
<text text-anchor="middle" x="217.3566" y="-128.9024" font-family="Helvetica,sans-Serif" font-size="10.00" fill="#000000">30</text>
</a>
</g>
</g>
<!-- dir_2171f7ec022c5423887b07c69b2f5b48&#45;&gt;dir_f511f1e9c03c071966ae594f00bbc5e0 -->
<g id="edge10" class="edge">
<title>dir_2171f7ec022c5423887b07c69b2f5b48&#45;&gt;dir_f511f1e9c03c071966ae594f00bbc5e0</title>
<path fill="none" stroke="#000000" d="M164.976,-36.4133C165.7071,-44.0593 165.9203,-53.1084 165.6155,-61.5726"/>
<polygon fill="#000000" stroke="#000000" points="162.1048,-61.6264 164.9524,-71.8314 169.0902,-62.078 162.1048,-61.6264"/>
<g id="a_edge10&#45;headlabel"><a xlink:href="dir_000068_000134.html" target="_top" xlink:title="10">
<text text-anchor="middle" x="159.5032" y="-55.3562" font-family="Helvetica,sans-Serif" font-size="10.00" fill="#000000">10</text>
</a>
</g>
</g>
</g>
</svg>
