<?xml version="1.0" encoding="UTF-8" standalone="no"?>
<!DOCTYPE svg PUBLIC "-//W3C//DTD SVG 1.1//EN"
 "http://www.w3.org/Graphics/SVG/1.1/DTD/svg11.dtd">
<!-- Generated by graphviz version 2.40.1 (20161225.0304)
 -->
<!-- Title: /home/travis/build/AliceO2Group/AliceO2/DataFormats/Reconstruction/src Pages: 1 -->
<svg width="113pt" height="295pt"
 viewBox="0.00 0.00 113.00 295.00" xmlns="http://www.w3.org/2000/svg" xmlns:xlink="http://www.w3.org/1999/xlink">
<g id="graph0" class="graph" transform="scale(1 1) rotate(0) translate(4 291)">
<title>/home/travis/build/AliceO2Group/AliceO2/DataFormats/Reconstruction/src</title>
<g id="clust1" class="cluster">
<title>clusterdir_d269712cc31e133b892a3b3f6424741a</title>
<g id="a_clust1"><a xlink:href="dir_d269712cc31e133b892a3b3f6424741a.html" target="_top" xlink:title="Reconstruction">
<polygon fill="#ddddee" stroke="#000000" points="8,-208 8,-279 97,-279 97,-208 8,-208"/>
<text text-anchor="middle" x="52.5" y="-267" font-family="Helvetica,sans-Serif" font-size="10.00" fill="#000000">Reconstruction</text>
</a>
</g>
</g>
<!-- dir_46bf9eb01275b6b66c6fbadfa4838276 -->
<g id="node1" class="node">
<title>dir_46bf9eb01275b6b66c6fbadfa4838276</title>
<g id="a_node1"><a xlink:href="dir_46bf9eb01275b6b66c6fbadfa4838276.html" target="_top" xlink:title="src">
<polygon fill="#eeeeff" stroke="#000000" points="79,-252 25,-252 25,-216 79,-216 79,-252"/>
<text text-anchor="middle" x="52" y="-231.5" font-family="Helvetica,sans-Serif" font-size="10.00" fill="#000000">src</text>
</a>
</g>
</g>
<!-- dir_4ab6b4cc6a7edbff49100e9123df213f -->
<g id="node2" class="node">
<title>dir_4ab6b4cc6a7edbff49100e9123df213f</title>
<g id="a_node2"><a xlink:href="dir_4ab6b4cc6a7edbff49100e9123df213f.html" target="_top" xlink:title="Common">
<polygon fill="none" stroke="#ff0000" points="82.5,-108 21.5,-108 21.5,-72 82.5,-72 82.5,-108"/>
<text text-anchor="middle" x="52" y="-87.5" font-family="Helvetica,sans-Serif" font-size="10.00" fill="#000000">Common</text>
</a>
</g>
</g>
<!-- dir_46bf9eb01275b6b66c6fbadfa4838276&#45;&gt;dir_4ab6b4cc6a7edbff49100e9123df213f -->
<g id="edge2" class="edge">
<title>dir_46bf9eb01275b6b66c6fbadfa4838276&#45;&gt;dir_4ab6b4cc6a7edbff49100e9123df213f</title>
<path fill="none" stroke="#000000" d="M31.5974,-215.5625C22.5059,-205.9675 12.7838,-193.4441 8,-180 2.6362,-164.9258 2.6362,-159.0742 8,-144 11.5878,-133.9169 17.9535,-124.3517 24.7476,-116.1515"/>
<polygon fill="#000000" stroke="#000000" points="27.5747,-118.2389 31.5974,-108.4375 22.3404,-113.591 27.5747,-118.2389"/>
<g id="a_edge2&#45;headlabel"><a xlink:href="dir_000227_000026.html" target="_top" xlink:title="1">
<text text-anchor="middle" x="27.311" y="-120.312" font-family="Helvetica,sans-Serif" font-size="10.00" fill="#000000">1</text>
</a>
</g>
</g>
<!-- dir_99c43ad88135ecdb15d6d5c818628268 -->
<g id="node3" class="node">
<title>dir_99c43ad88135ecdb15d6d5c818628268</title>
<g id="a_node3"><a xlink:href="dir_99c43ad88135ecdb15d6d5c818628268.html" target="_top" xlink:title="include">
<polygon fill="none" stroke="#ff0000" points="79,-36 25,-36 25,0 79,0 79,-36"/>
<text text-anchor="middle" x="52" y="-15.5" font-family="Helvetica,sans-Serif" font-size="10.00" fill="#000000">include</text>
</a>
</g>
</g>
<!-- dir_46bf9eb01275b6b66c6fbadfa4838276&#45;&gt;dir_99c43ad88135ecdb15d6d5c818628268 -->
<g id="edge3" class="edge">
<title>dir_46bf9eb01275b6b66c6fbadfa4838276&#45;&gt;dir_99c43ad88135ecdb15d6d5c818628268</title>
<path fill="none" stroke="#000000" d="M72.8578,-215.6461C82.154,-206.0709 92.0978,-193.54 97,-180 103.3485,-162.465 96.9525,-85.4239 92,-72 88.3656,-62.1489 82.3428,-52.5501 76.0601,-44.2438"/>
<polygon fill="#000000" stroke="#000000" points="78.7588,-42.0146 69.7697,-36.4069 73.2998,-46.3964 78.7588,-42.0146"/>
<g id="a_edge3&#45;headlabel"><a xlink:href="dir_000227_000224.html" target="_top" xlink:title="7">
<text text-anchor="middle" x="83.2231" y="-40.5406" font-family="Helvetica,sans-Serif" font-size="10.00" fill="#000000">7</text>
</a>
</g>
</g>
<!-- dir_bcbb2cf9a3d3d83e5515c82071a07177 -->
<g id="node4" class="node">
<title>dir_bcbb2cf9a3d3d83e5515c82071a07177</title>
<g id="a_node4"><a xlink:href="dir_bcbb2cf9a3d3d83e5515c82071a07177.html" target="_top" xlink:title="Framework">
<polygon fill="none" stroke="#ff0000" points="87.5,-180 16.5,-180 16.5,-144 87.5,-144 87.5,-180"/>
<text text-anchor="middle" x="52" y="-159.5" font-family="Helvetica,sans-Serif" font-size="10.00" fill="#000000">Framework</text>
</a>
</g>
</g>
<!-- dir_46bf9eb01275b6b66c6fbadfa4838276&#45;&gt;dir_bcbb2cf9a3d3d83e5515c82071a07177 -->
<g id="edge4" class="edge">
<title>dir_46bf9eb01275b6b66c6fbadfa4838276&#45;&gt;dir_bcbb2cf9a3d3d83e5515c82071a07177</title>
<path fill="none" stroke="#000000" d="M52,-215.8314C52,-208.131 52,-198.9743 52,-190.4166"/>
<polygon fill="#000000" stroke="#000000" points="55.5001,-190.4132 52,-180.4133 48.5001,-190.4133 55.5001,-190.4132"/>
<g id="a_edge4&#45;headlabel"><a xlink:href="dir_000227_000044.html" target="_top" xlink:title="1">
<text text-anchor="middle" x="58.3393" y="-191.5079" font-family="Helvetica,sans-Serif" font-size="10.00" fill="#000000">1</text>
</a>
</g>
</g>
<!-- dir_4ab6b4cc6a7edbff49100e9123df213f&#45;&gt;dir_99c43ad88135ecdb15d6d5c818628268 -->
<g id="edge1" class="edge">
<title>dir_4ab6b4cc6a7edbff49100e9123df213f&#45;&gt;dir_99c43ad88135ecdb15d6d5c818628268</title>
<path fill="none" stroke="#000000" d="M46.0476,-71.8314C45.2972,-64.131 45.0763,-54.9743 45.3849,-46.4166"/>
<polygon fill="#000000" stroke="#000000" points="48.8792,-46.6161 46.024,-36.4133 41.8935,-46.1697 48.8792,-46.6161"/>
<g id="a_edge1&#45;headlabel"><a xlink:href="dir_000026_000224.html" target="_top" xlink:title="1">
<text text-anchor="middle" x="51.4836" y="-47.8844" font-family="Helvetica,sans-Serif" font-size="10.00" fill="#000000">1</text>
</a>
</g>
</g>
<!-- dir_99c43ad88135ecdb15d6d5c818628268&#45;&gt;dir_4ab6b4cc6a7edbff49100e9123df213f -->
<g id="edge5" class="edge">
<title>dir_99c43ad88135ecdb15d6d5c818628268&#45;&gt;dir_4ab6b4cc6a7edbff49100e9123df213f</title>
<path fill="none" stroke="#000000" d="M57.976,-36.4133C58.7071,-44.0593 58.9203,-53.1084 58.6155,-61.5726"/>
<polygon fill="#000000" stroke="#000000" points="55.1048,-61.6264 57.9524,-71.8314 62.0902,-62.078 55.1048,-61.6264"/>
<g id="a_edge5&#45;headlabel"><a xlink:href="dir_000224_000026.html" target="_top" xlink:title="6">
<text text-anchor="middle" x="52.5032" y="-55.3562" font-family="Helvetica,sans-Serif" font-size="10.00" fill="#000000">6</text>
</a>
</g>
</g>
<!-- dir_bcbb2cf9a3d3d83e5515c82071a07177&#45;&gt;dir_4ab6b4cc6a7edbff49100e9123df213f -->
<g id="edge6" class="edge">
<title>dir_bcbb2cf9a3d3d83e5515c82071a07177&#45;&gt;dir_4ab6b4cc6a7edbff49100e9123df213f</title>
<path fill="none" stroke="#000000" d="M52,-143.8314C52,-136.131 52,-126.9743 52,-118.4166"/>
<polygon fill="#000000" stroke="#000000" points="55.5001,-118.4132 52,-108.4133 48.5001,-118.4133 55.5001,-118.4132"/>
<g id="a_edge6&#45;headlabel"><a xlink:href="dir_000044_000026.html" target="_top" xlink:title="8">
<text text-anchor="middle" x="58.3393" y="-119.5079" font-family="Helvetica,sans-Serif" font-size="10.00" fill="#000000">8</text>
</a>
</g>
</g>
</g>
</svg>
