<?xml version="1.0" encoding="UTF-8" standalone="no"?>
<!DOCTYPE svg PUBLIC "-//W3C//DTD SVG 1.1//EN"
 "http://www.w3.org/Graphics/SVG/1.1/DTD/svg11.dtd">
<!-- Generated by graphviz version 2.40.1 (20161225.0304)
 -->
<!-- Title: /home/travis/build/AliceO2Group/AliceO2/Common Pages: 1 -->
<svg width="504pt" height="276pt"
 viewBox="0.00 0.00 503.69 276.00" xmlns="http://www.w3.org/2000/svg" xmlns:xlink="http://www.w3.org/1999/xlink">
<g id="graph0" class="graph" transform="scale(1 1) rotate(0) translate(4 272)">
<title>/home/travis/build/AliceO2Group/AliceO2/Common</title>
<g id="clust1" class="cluster">
<title>clusterdir_4ab6b4cc6a7edbff49100e9123df213f</title>
<g id="a_clust1"><a xlink:href="dir_4ab6b4cc6a7edbff49100e9123df213f.html" target="_top">
<polygon fill="#eeeeff" stroke="#000000" points="104.9199,-8 104.9199,-204 482.9199,-204 482.9199,-8 104.9199,-8"/>
</a>
</g>
</g>
<!-- dir_4ab6b4cc6a7edbff49100e9123df213f -->
<g id="node1" class="node">
<title>dir_4ab6b4cc6a7edbff49100e9123df213f</title>
<text text-anchor="middle" x="443.9199" y="-175.5" font-family="Helvetica,sans-Serif" font-size="10.00" fill="#000000">Common</text>
</g>
<!-- dir_6595de266f53d2529c2724716663252d -->
<g id="node2" class="node">
<title>dir_6595de266f53d2529c2724716663252d</title>
<g id="a_node2"><a xlink:href="dir_6595de266f53d2529c2724716663252d.html" target="_top" xlink:title="Constants">
<polygon fill="#ffffff" stroke="#ff0000" points="178.4199,-52 113.4199,-52 113.4199,-16 178.4199,-16 178.4199,-52"/>
<text text-anchor="middle" x="145.9199" y="-31.5" font-family="Helvetica,sans-Serif" font-size="10.00" fill="#000000">Constants</text>
</a>
</g>
</g>
<!-- dir_91c9f7c5ec503f33747eecaa76c19aa0 -->
<g id="node3" class="node">
<title>dir_91c9f7c5ec503f33747eecaa76c19aa0</title>
<g id="a_node3"><a xlink:href="dir_91c9f7c5ec503f33747eecaa76c19aa0.html" target="_top" xlink:title="Field">
<polygon fill="#ffffff" stroke="#ff0000" points="394.9199,-196 340.9199,-196 340.9199,-160 394.9199,-160 394.9199,-196"/>
<text text-anchor="middle" x="367.9199" y="-175.5" font-family="Helvetica,sans-Serif" font-size="10.00" fill="#000000">Field</text>
</a>
</g>
</g>
<!-- dir_1e6fb7e1d286de65f5cad603aaa68769 -->
<g id="node4" class="node">
<title>dir_1e6fb7e1d286de65f5cad603aaa68769</title>
<g id="a_node4"><a xlink:href="dir_1e6fb7e1d286de65f5cad603aaa68769.html" target="_top" xlink:title="MathUtils">
<polygon fill="#ffffff" stroke="#ff0000" points="288.4199,-124 225.4199,-124 225.4199,-88 288.4199,-88 288.4199,-124"/>
<text text-anchor="middle" x="256.9199" y="-103.5" font-family="Helvetica,sans-Serif" font-size="10.00" fill="#000000">MathUtils</text>
</a>
</g>
</g>
<!-- dir_91c9f7c5ec503f33747eecaa76c19aa0&#45;&gt;dir_1e6fb7e1d286de65f5cad603aaa68769 -->
<g id="edge1" class="edge">
<title>dir_91c9f7c5ec503f33747eecaa76c19aa0&#45;&gt;dir_1e6fb7e1d286de65f5cad603aaa68769</title>
<path fill="none" stroke="#000000" d="M340.7663,-160.3868C326.602,-151.1992 309.0706,-139.8275 293.7063,-129.8615"/>
<polygon fill="#000000" stroke="#000000" points="295.2466,-126.6888 284.9523,-124.1832 291.4373,-132.5615 295.2466,-126.6888"/>
<g id="a_edge1&#45;headlabel"><a xlink:href="dir_000030_000035.html" target="_top" xlink:title="3">
<text text-anchor="middle" x="299.8075" y="-123.7628" font-family="Helvetica,sans-Serif" font-size="10.00" fill="#000000">3</text>
</a>
</g>
</g>
<!-- dir_1e6fb7e1d286de65f5cad603aaa68769&#45;&gt;dir_6595de266f53d2529c2724716663252d -->
<g id="edge2" class="edge">
<title>dir_1e6fb7e1d286de65f5cad603aaa68769&#45;&gt;dir_6595de266f53d2529c2724716663252d</title>
<path fill="none" stroke="#000000" d="M228.9099,-87.8314C214.8438,-78.7074 197.6259,-67.539 182.5266,-57.7449"/>
<polygon fill="#000000" stroke="#000000" points="184.2153,-54.6684 173.921,-52.1628 180.4059,-60.5412 184.2153,-54.6684"/>
<g id="a_edge2&#45;headlabel"><a xlink:href="dir_000035_000027.html" target="_top" xlink:title="1">
<text text-anchor="middle" x="188.7761" y="-51.7425" font-family="Helvetica,sans-Serif" font-size="10.00" fill="#000000">1</text>
</a>
</g>
</g>
<!-- dir_f511f1e9c03c071966ae594f00bbc5e0 -->
<g id="node8" class="node">
<title>dir_f511f1e9c03c071966ae594f00bbc5e0</title>
<g id="a_node8"><a xlink:href="dir_f511f1e9c03c071966ae594f00bbc5e0.html" target="_top" xlink:title="GPU">
<polygon fill="none" stroke="#ff0000" points="81.9199,-268 27.9199,-268 27.9199,-232 81.9199,-232 81.9199,-268"/>
<text text-anchor="middle" x="54.9199" y="-247.5" font-family="Helvetica,sans-Serif" font-size="10.00" fill="#000000">GPU</text>
</a>
</g>
</g>
<!-- dir_1e6fb7e1d286de65f5cad603aaa68769&#45;&gt;dir_f511f1e9c03c071966ae594f00bbc5e0 -->
<g id="edge3" class="edge">
<title>dir_1e6fb7e1d286de65f5cad603aaa68769&#45;&gt;dir_f511f1e9c03c071966ae594f00bbc5e0</title>
<path fill="none" stroke="#000000" d="M288.4572,-108.4251C363.549,-115.3071 542.4461,-138.8628 483.9199,-204 457.9266,-232.9295 191.7646,-245.1949 92.2198,-248.7943"/>
<polygon fill="#000000" stroke="#000000" points="91.8922,-245.3035 82.0217,-249.1536 92.1388,-252.2992 91.8922,-245.3035"/>
<g id="a_edge3&#45;headlabel"><a xlink:href="dir_000035_000134.html" target="_top" xlink:title="3">
<text text-anchor="middle" x="95.3847" y="-239.8395" font-family="Helvetica,sans-Serif" font-size="10.00" fill="#000000">3</text>
</a>
</g>
</g>
<!-- dir_3a79d3ee4538628fc18e2135ea9cbf22 -->
<g id="node5" class="node">
<title>dir_3a79d3ee4538628fc18e2135ea9cbf22</title>
<g id="a_node5"><a xlink:href="dir_3a79d3ee4538628fc18e2135ea9cbf22.html" target="_top" xlink:title="SimConfig">
<polygon fill="#ffffff" stroke="#ff0000" points="322.9199,-196 256.9199,-196 256.9199,-160 322.9199,-160 322.9199,-196"/>
<text text-anchor="middle" x="289.9199" y="-175.5" font-family="Helvetica,sans-Serif" font-size="10.00" fill="#000000">SimConfig</text>
</a>
</g>
</g>
<!-- dir_2171f7ec022c5423887b07c69b2f5b48 -->
<g id="node9" class="node">
<title>dir_2171f7ec022c5423887b07c69b2f5b48</title>
<g id="a_node9"><a xlink:href="dir_2171f7ec022c5423887b07c69b2f5b48.html" target="_top" xlink:title="DataFormats">
<polygon fill="none" stroke="#ff0000" points="94.9199,-196 14.9199,-196 14.9199,-160 94.9199,-160 94.9199,-196"/>
<text text-anchor="middle" x="54.9199" y="-175.5" font-family="Helvetica,sans-Serif" font-size="10.00" fill="#000000">DataFormats</text>
</a>
</g>
</g>
<!-- dir_3a79d3ee4538628fc18e2135ea9cbf22&#45;&gt;dir_2171f7ec022c5423887b07c69b2f5b48 -->
<g id="edge4" class="edge">
<title>dir_3a79d3ee4538628fc18e2135ea9cbf22&#45;&gt;dir_2171f7ec022c5423887b07c69b2f5b48</title>
<path fill="none" stroke="#000000" d="M272.8389,-196.1402C263.687,-204.5272 251.6833,-213.5918 238.9199,-218 184.7277,-236.7168 164.4429,-235.73 109.9199,-218 99.8146,-214.7139 90.0169,-208.7945 81.5593,-202.4995"/>
<polygon fill="#000000" stroke="#000000" points="83.593,-199.6451 73.5868,-196.1629 79.2375,-205.125 83.593,-199.6451"/>
<g id="a_edge4&#45;headlabel"><a xlink:href="dir_000050_000068.html" target="_top" xlink:title="1">
<text text-anchor="middle" x="88.1737" y="-197.1589" font-family="Helvetica,sans-Serif" font-size="10.00" fill="#000000">1</text>
</a>
</g>
</g>
<!-- dir_a227714f4bf20de28f228c5ebfa34254 -->
<g id="node6" class="node">
<title>dir_a227714f4bf20de28f228c5ebfa34254</title>
<g id="a_node6"><a xlink:href="dir_a227714f4bf20de28f228c5ebfa34254.html" target="_top" xlink:title="Types">
<polygon fill="#ffffff" stroke="#ff0000" points="238.9199,-196 184.9199,-196 184.9199,-160 238.9199,-160 238.9199,-196"/>
<text text-anchor="middle" x="211.9199" y="-175.5" font-family="Helvetica,sans-Serif" font-size="10.00" fill="#000000">Types</text>
</a>
</g>
</g>
<!-- dir_dc4810549f8e2e369c60bffc9a91caa2 -->
<g id="node7" class="node">
<title>dir_dc4810549f8e2e369c60bffc9a91caa2</title>
<g id="a_node7"><a xlink:href="dir_dc4810549f8e2e369c60bffc9a91caa2.html" target="_top" xlink:title="Utils">
<polygon fill="#ffffff" stroke="#ff0000" points="166.9199,-196 112.9199,-196 112.9199,-160 166.9199,-160 166.9199,-196"/>
<text text-anchor="middle" x="139.9199" y="-175.5" font-family="Helvetica,sans-Serif" font-size="10.00" fill="#000000">Utils</text>
</a>
</g>
</g>
<!-- dir_dc4810549f8e2e369c60bffc9a91caa2&#45;&gt;dir_2171f7ec022c5423887b07c69b2f5b48 -->
<g id="edge13" class="edge">
<title>dir_dc4810549f8e2e369c60bffc9a91caa2&#45;&gt;dir_2171f7ec022c5423887b07c69b2f5b48</title>
<path fill="none" stroke="#000000" d="M112.6052,-178C110.1429,-178 107.6806,-178 105.2184,-178"/>
<polygon fill="#000000" stroke="#000000" points="105.0957,-174.5001 95.0957,-178 105.0957,-181.5001 105.0957,-174.5001"/>
<g id="a_edge13&#45;headlabel"><a xlink:href="dir_000063_000068.html" target="_top" xlink:title="1">
<text text-anchor="middle" x="108.6903" y="-169.1607" font-family="Helvetica,sans-Serif" font-size="10.00" fill="#000000">1</text>
</a>
</g>
</g>
<!-- dir_f511f1e9c03c071966ae594f00bbc5e0&#45;&gt;dir_6595de266f53d2529c2724716663252d -->
<g id="edge5" class="edge">
<title>dir_f511f1e9c03c071966ae594f00bbc5e0&#45;&gt;dir_6595de266f53d2529c2724716663252d</title>
<path fill="none" stroke="#000000" d="M28.1901,-231.9462C19.3866,-224.4435 10.6474,-214.9223 5.9199,-204 -1.8479,-186.0534 -2.036,-177.864 5.9199,-160 25.948,-115.0298 70.8364,-79.3765 104.4194,-57.6341"/>
<polygon fill="#000000" stroke="#000000" points="106.5355,-60.4375 113.1259,-52.1419 102.8007,-54.5171 106.5355,-60.4375"/>
<g id="a_edge5&#45;headlabel"><a xlink:href="dir_000134_000027.html" target="_top" xlink:title="1">
<text text-anchor="middle" x="105.0101" y="-62.2567" font-family="Helvetica,sans-Serif" font-size="10.00" fill="#000000">1</text>
</a>
</g>
</g>
<!-- dir_f511f1e9c03c071966ae594f00bbc5e0&#45;&gt;dir_2171f7ec022c5423887b07c69b2f5b48 -->
<g id="edge6" class="edge">
<title>dir_f511f1e9c03c071966ae594f00bbc5e0&#45;&gt;dir_2171f7ec022c5423887b07c69b2f5b48</title>
<path fill="none" stroke="#000000" d="M48.9675,-231.8314C48.2171,-224.131 47.9962,-214.9743 48.3048,-206.4166"/>
<polygon fill="#000000" stroke="#000000" points="51.7991,-206.6161 48.9439,-196.4133 44.8134,-206.1697 51.7991,-206.6161"/>
<g id="a_edge6&#45;headlabel"><a xlink:href="dir_000134_000068.html" target="_top" xlink:title="8">
<text text-anchor="middle" x="54.4036" y="-207.8844" font-family="Helvetica,sans-Serif" font-size="10.00" fill="#000000">8</text>
</a>
</g>
</g>
<!-- dir_2171f7ec022c5423887b07c69b2f5b48&#45;&gt;dir_6595de266f53d2529c2724716663252d -->
<g id="edge7" class="edge">
<title>dir_2171f7ec022c5423887b07c69b2f5b48&#45;&gt;dir_6595de266f53d2529c2724716663252d</title>
<path fill="none" stroke="#000000" d="M66.4451,-159.7623C82.24,-134.7682 110.7255,-89.6924 128.958,-60.8409"/>
<polygon fill="#000000" stroke="#000000" points="132.1048,-62.4129 134.4883,-52.0896 126.1874,-58.6734 132.1048,-62.4129"/>
<g id="a_edge7&#45;headlabel"><a xlink:href="dir_000068_000027.html" target="_top" xlink:title="11">
<text text-anchor="middle" x="132.5848" y="-64.4683" font-family="Helvetica,sans-Serif" font-size="10.00" fill="#000000">11</text>
</a>
</g>
</g>
<!-- dir_2171f7ec022c5423887b07c69b2f5b48&#45;&gt;dir_1e6fb7e1d286de65f5cad603aaa68769 -->
<g id="edge8" class="edge">
<title>dir_2171f7ec022c5423887b07c69b2f5b48&#45;&gt;dir_1e6fb7e1d286de65f5cad603aaa68769</title>
<path fill="none" stroke="#000000" d="M95.0246,-162.1986C97.0154,-161.4483 98.9887,-160.7118 100.9199,-160 139.6235,-145.7353 184.1158,-130.442 215.6548,-119.7854"/>
<polygon fill="#000000" stroke="#000000" points="217.0574,-123.0061 225.4158,-116.4955 214.8217,-116.3728 217.0574,-123.0061"/>
<g id="a_edge8&#45;headlabel"><a xlink:href="dir_000068_000035.html" target="_top" xlink:title="12">
<text text-anchor="middle" x="214.5579" y="-124.3447" font-family="Helvetica,sans-Serif" font-size="10.00" fill="#000000">12</text>
</a>
</g>
</g>
<!-- dir_2171f7ec022c5423887b07c69b2f5b48&#45;&gt;dir_3a79d3ee4538628fc18e2135ea9cbf22 -->
<g id="edge10" class="edge">
<title>dir_2171f7ec022c5423887b07c69b2f5b48&#45;&gt;dir_3a79d3ee4538628fc18e2135ea9cbf22</title>
<path fill="none" stroke="#000000" d="M73.5868,-196.1629C83.5192,-204.5557 96.4462,-213.6186 109.9199,-218 164.4429,-235.73 184.7277,-236.7168 238.9199,-218 248.293,-214.7627 257.2564,-209.0143 264.9816,-202.8671"/>
<polygon fill="#000000" stroke="#000000" points="267.5187,-205.3025 272.8389,-196.1402 262.9663,-199.985 267.5187,-205.3025"/>
<g id="a_edge10&#45;headlabel"><a xlink:href="dir_000068_000050.html" target="_top" xlink:title="3">
<text text-anchor="middle" x="266.6346" y="-207.297" font-family="Helvetica,sans-Serif" font-size="10.00" fill="#000000">3</text>
</a>
</g>
</g>
<!-- dir_2171f7ec022c5423887b07c69b2f5b48&#45;&gt;dir_a227714f4bf20de28f228c5ebfa34254 -->
<g id="edge9" class="edge">
<title>dir_2171f7ec022c5423887b07c69b2f5b48&#45;&gt;dir_a227714f4bf20de28f228c5ebfa34254</title>
<path fill="none" stroke="#000000" d="M73.5868,-196.1629C83.5192,-204.5557 96.4462,-213.6186 109.9199,-218 134.0115,-225.8342 143.2403,-227.003 166.9199,-218 175.3469,-214.7961 183.2036,-209.2106 189.9176,-203.212"/>
<polygon fill="#000000" stroke="#000000" points="192.5063,-205.5768 197.2402,-196.0984 187.6287,-200.5559 192.5063,-205.5768"/>
<g id="a_edge9&#45;headlabel"><a xlink:href="dir_000068_000060.html" target="_top" xlink:title="1">
<text text-anchor="middle" x="191.9065" y="-207.618" font-family="Helvetica,sans-Serif" font-size="10.00" fill="#000000">1</text>
</a>
</g>
</g>
<!-- dir_2171f7ec022c5423887b07c69b2f5b48&#45;&gt;dir_dc4810549f8e2e369c60bffc9a91caa2 -->
<g id="edge12" class="edge">
<title>dir_2171f7ec022c5423887b07c69b2f5b48&#45;&gt;dir_dc4810549f8e2e369c60bffc9a91caa2</title>
<path fill="none" stroke="#000000" d="M95.0957,-178C97.558,-178 100.0202,-178 102.4825,-178"/>
<polygon fill="#000000" stroke="#000000" points="102.6052,-181.5001 112.6052,-178 102.6051,-174.5001 102.6052,-181.5001"/>
<g id="a_edge12&#45;headlabel"><a xlink:href="dir_000068_000063.html" target="_top" xlink:title="3">
<text text-anchor="middle" x="99.0106" y="-181.8393" font-family="Helvetica,sans-Serif" font-size="10.00" fill="#000000">3</text>
</a>
</g>
</g>
<!-- dir_2171f7ec022c5423887b07c69b2f5b48&#45;&gt;dir_f511f1e9c03c071966ae594f00bbc5e0 -->
<g id="edge11" class="edge">
<title>dir_2171f7ec022c5423887b07c69b2f5b48&#45;&gt;dir_f511f1e9c03c071966ae594f00bbc5e0</title>
<path fill="none" stroke="#000000" d="M60.8959,-196.4133C61.627,-204.0593 61.8402,-213.1084 61.5354,-221.5726"/>
<polygon fill="#000000" stroke="#000000" points="58.0247,-221.6264 60.8723,-231.8314 65.0101,-222.078 58.0247,-221.6264"/>
<g id="a_edge11&#45;headlabel"><a xlink:href="dir_000068_000134.html" target="_top" xlink:title="10">
<text text-anchor="middle" x="55.4231" y="-215.3562" font-family="Helvetica,sans-Serif" font-size="10.00" fill="#000000">10</text>
</a>
</g>
</g>
</g>
</svg>
