<?xml version="1.0" encoding="UTF-8" standalone="no"?>
<!DOCTYPE svg PUBLIC "-//W3C//DTD SVG 1.1//EN"
 "http://www.w3.org/Graphics/SVG/1.1/DTD/svg11.dtd">
<!-- Generated by graphviz version 2.40.1 (20161225.0304)
 -->
<!-- Title: /home/travis/build/AliceO2Group/AliceO2/Detectors/ITSMFT Pages: 1 -->
<svg width="511pt" height="375pt"
 viewBox="0.00 0.00 510.88 375.00" xmlns="http://www.w3.org/2000/svg" xmlns:xlink="http://www.w3.org/1999/xlink">
<g id="graph0" class="graph" transform="scale(1 1) rotate(0) translate(4 371)">
<title>/home/travis/build/AliceO2Group/AliceO2/Detectors/ITSMFT</title>
<g id="clust1" class="cluster">
<title>clusterdir_051dca18e802f8e9474f2e30d29c04e0</title>
<g id="a_clust1"><a xlink:href="dir_051dca18e802f8e9474f2e30d29c04e0.html" target="_top" xlink:title="Detectors">
<polygon fill="#ddddee" stroke="#000000" points="179.9565,-128 179.9565,-359 357.9565,-359 357.9565,-128 179.9565,-128"/>
<text text-anchor="middle" x="268.9565" y="-347" font-family="Helvetica,sans-Serif" font-size="10.00" fill="#000000">Detectors</text>
</a>
</g>
</g>
<g id="clust2" class="cluster">
<title>clusterdir_1306292b77b40360479b729ac9ee7efe</title>
<g id="a_clust2"><a xlink:href="dir_1306292b77b40360479b729ac9ee7efe.html" target="_top">
<polygon fill="#eeeeff" stroke="#000000" points="187.9565,-136 187.9565,-332 349.9565,-332 349.9565,-136 187.9565,-136"/>
</a>
</g>
</g>
<!-- dir_1306292b77b40360479b729ac9ee7efe -->
<g id="node1" class="node">
<title>dir_1306292b77b40360479b729ac9ee7efe</title>
<text text-anchor="middle" x="304.9565" y="-303.5" font-family="Helvetica,sans-Serif" font-size="10.00" fill="#000000">ITSMFT</text>
</g>
<!-- dir_85bf31a2e8d306e7598ffcb73f8df6bf -->
<g id="node2" class="node">
<title>dir_85bf31a2e8d306e7598ffcb73f8df6bf</title>
<g id="a_node2"><a xlink:href="dir_85bf31a2e8d306e7598ffcb73f8df6bf.html" target="_top" xlink:title="common">
<polygon fill="#ffffff" stroke="#ff0000" points="325.4565,-180 266.4565,-180 266.4565,-144 325.4565,-144 325.4565,-180"/>
<text text-anchor="middle" x="295.9565" y="-159.5" font-family="Helvetica,sans-Serif" font-size="10.00" fill="#000000">common</text>
</a>
</g>
</g>
<!-- dir_4ab6b4cc6a7edbff49100e9123df213f -->
<g id="node6" class="node">
<title>dir_4ab6b4cc6a7edbff49100e9123df213f</title>
<g id="a_node6"><a xlink:href="dir_4ab6b4cc6a7edbff49100e9123df213f.html" target="_top" xlink:title="Common">
<polygon fill="none" stroke="#ff0000" points="139.4565,-252 78.4565,-252 78.4565,-216 139.4565,-216 139.4565,-252"/>
<text text-anchor="middle" x="108.9565" y="-231.5" font-family="Helvetica,sans-Serif" font-size="10.00" fill="#000000">Common</text>
</a>
</g>
</g>
<!-- dir_85bf31a2e8d306e7598ffcb73f8df6bf&#45;&gt;dir_4ab6b4cc6a7edbff49100e9123df213f -->
<g id="edge18" class="edge">
<title>dir_85bf31a2e8d306e7598ffcb73f8df6bf&#45;&gt;dir_4ab6b4cc6a7edbff49100e9123df213f</title>
<path fill="none" stroke="#000000" d="M266.2549,-173.126C237.4865,-183.9424 192.6568,-200.9027 153.9565,-216 152.5356,-216.5543 151.0905,-217.1203 149.6315,-217.6936"/>
<polygon fill="#000000" stroke="#000000" points="147.9263,-214.6041 139.9141,-221.5362 150.5005,-221.1136 147.9263,-214.6041"/>
<g id="a_edge18&#45;headlabel"><a xlink:href="dir_000053_000026.html" target="_top" xlink:title="11">
<text text-anchor="middle" x="150.225" y="-208.142" font-family="Helvetica,sans-Serif" font-size="10.00" fill="#000000">11</text>
</a>
</g>
</g>
<!-- dir_37c90836491b695b472bf98d1be8336b -->
<g id="node7" class="node">
<title>dir_37c90836491b695b472bf98d1be8336b</title>
<g id="a_node7"><a xlink:href="dir_37c90836491b695b472bf98d1be8336b.html" target="_top" xlink:title="Base">
<polygon fill="none" stroke="#ff0000" points="231.9565,-36 177.9565,-36 177.9565,0 231.9565,0 231.9565,-36"/>
<text text-anchor="middle" x="204.9565" y="-15.5" font-family="Helvetica,sans-Serif" font-size="10.00" fill="#000000">Base</text>
</a>
</g>
</g>
<!-- dir_85bf31a2e8d306e7598ffcb73f8df6bf&#45;&gt;dir_37c90836491b695b472bf98d1be8336b -->
<g id="edge19" class="edge">
<title>dir_85bf31a2e8d306e7598ffcb73f8df6bf&#45;&gt;dir_37c90836491b695b472bf98d1be8336b</title>
<path fill="none" stroke="#000000" d="M289.3824,-143.9166C282.133,-125.1229 269.4221,-95.261 253.9565,-72 247.4096,-62.1532 239.1169,-52.303 231.2239,-43.7628"/>
<polygon fill="#000000" stroke="#000000" points="233.5775,-41.1588 224.1492,-36.3257 228.5057,-45.9834 233.5775,-41.1588"/>
<g id="a_edge19&#45;headlabel"><a xlink:href="dir_000053_000266.html" target="_top" xlink:title="2">
<text text-anchor="middle" x="238.1122" y="-39.3063" font-family="Helvetica,sans-Serif" font-size="10.00" fill="#000000">2</text>
</a>
</g>
</g>
<!-- dir_bcbb2cf9a3d3d83e5515c82071a07177 -->
<g id="node9" class="node">
<title>dir_bcbb2cf9a3d3d83e5515c82071a07177</title>
<g id="a_node9"><a xlink:href="dir_bcbb2cf9a3d3d83e5515c82071a07177.html" target="_top" xlink:title="Framework">
<polygon fill="none" stroke="#ff0000" points="371.4565,-36 300.4565,-36 300.4565,0 371.4565,0 371.4565,-36"/>
<text text-anchor="middle" x="335.9565" y="-15.5" font-family="Helvetica,sans-Serif" font-size="10.00" fill="#000000">Framework</text>
</a>
</g>
</g>
<!-- dir_85bf31a2e8d306e7598ffcb73f8df6bf&#45;&gt;dir_bcbb2cf9a3d3d83e5515c82071a07177 -->
<g id="edge20" class="edge">
<title>dir_85bf31a2e8d306e7598ffcb73f8df6bf&#45;&gt;dir_bcbb2cf9a3d3d83e5515c82071a07177</title>
<path fill="none" stroke="#000000" d="M301.0225,-143.7623C307.8751,-119.0928 320.1621,-74.8598 328.1862,-45.9731"/>
<polygon fill="#000000" stroke="#000000" points="331.6274,-46.6616 330.9316,-36.0896 324.8827,-44.788 331.6274,-46.6616"/>
<g id="a_edge20&#45;headlabel"><a xlink:href="dir_000053_000044.html" target="_top" xlink:title="5">
<text text-anchor="middle" x="333.4011" y="-48.3849" font-family="Helvetica,sans-Serif" font-size="10.00" fill="#000000">5</text>
</a>
</g>
</g>
<!-- dir_26637d1bd82229bc9ed97f7e706be743 -->
<g id="node10" class="node">
<title>dir_26637d1bd82229bc9ed97f7e706be743</title>
<g id="a_node10"><a xlink:href="dir_26637d1bd82229bc9ed97f7e706be743.html" target="_top" xlink:title="Raw">
<polygon fill="none" stroke="#ff0000" points="78.9565,-324 24.9565,-324 24.9565,-288 78.9565,-288 78.9565,-324"/>
<text text-anchor="middle" x="51.9565" y="-303.5" font-family="Helvetica,sans-Serif" font-size="10.00" fill="#000000">Raw</text>
</a>
</g>
</g>
<!-- dir_85bf31a2e8d306e7598ffcb73f8df6bf&#45;&gt;dir_26637d1bd82229bc9ed97f7e706be743 -->
<g id="edge21" class="edge">
<title>dir_85bf31a2e8d306e7598ffcb73f8df6bf&#45;&gt;dir_26637d1bd82229bc9ed97f7e706be743</title>
<path fill="none" stroke="#000000" d="M266.4215,-176.487C246.1572,-186.7773 218.89,-201.3224 195.9565,-216 173.4959,-230.3749 170.2921,-237.4319 147.9565,-252 128.6369,-264.6009 106.2105,-277.3157 87.8941,-287.2396"/>
<polygon fill="#000000" stroke="#000000" points="86.1519,-284.2023 78.9972,-292.0165 89.4632,-290.3696 86.1519,-284.2023"/>
<g id="a_edge21&#45;headlabel"><a xlink:href="dir_000053_000533.html" target="_top" xlink:title="2">
<text text-anchor="middle" x="87.9758" y="-277.5005" font-family="Helvetica,sans-Serif" font-size="10.00" fill="#000000">2</text>
</a>
</g>
</g>
<!-- dir_2171f7ec022c5423887b07c69b2f5b48 -->
<g id="node11" class="node">
<title>dir_2171f7ec022c5423887b07c69b2f5b48</title>
<g id="a_node11"><a xlink:href="dir_2171f7ec022c5423887b07c69b2f5b48.html" target="_top" xlink:title="DataFormats">
<polygon fill="none" stroke="#ff0000" points="244.9565,-108 164.9565,-108 164.9565,-72 244.9565,-72 244.9565,-108"/>
<text text-anchor="middle" x="204.9565" y="-87.5" font-family="Helvetica,sans-Serif" font-size="10.00" fill="#000000">DataFormats</text>
</a>
</g>
</g>
<!-- dir_85bf31a2e8d306e7598ffcb73f8df6bf&#45;&gt;dir_2171f7ec022c5423887b07c69b2f5b48 -->
<g id="edge22" class="edge">
<title>dir_85bf31a2e8d306e7598ffcb73f8df6bf&#45;&gt;dir_2171f7ec022c5423887b07c69b2f5b48</title>
<path fill="none" stroke="#000000" d="M267.0409,-143.8314C255.0844,-135.0485 241.4225,-124.3712 229.9091,-114.8489"/>
<polygon fill="#000000" stroke="#000000" points="231.8662,-111.9215 221.9604,-108.1628 227.3602,-117.2784 231.8662,-111.9215"/>
<g id="a_edge22&#45;headlabel"><a xlink:href="dir_000053_000068.html" target="_top" xlink:title="40">
<text text-anchor="middle" x="236.4446" y="-109.5625" font-family="Helvetica,sans-Serif" font-size="10.00" fill="#000000">40</text>
</a>
</g>
</g>
<!-- dir_871aad07cbf94d6cd423c3d8d5bdf4e9 -->
<g id="node3" class="node">
<title>dir_871aad07cbf94d6cd423c3d8d5bdf4e9</title>
<g id="a_node3"><a xlink:href="dir_871aad07cbf94d6cd423c3d8d5bdf4e9.html" target="_top" xlink:title="ITS">
<polygon fill="#ffffff" stroke="#ff0000" points="341.9565,-252 287.9565,-252 287.9565,-216 341.9565,-216 341.9565,-252"/>
<text text-anchor="middle" x="314.9565" y="-231.5" font-family="Helvetica,sans-Serif" font-size="10.00" fill="#000000">ITS</text>
</a>
</g>
</g>
<!-- dir_871aad07cbf94d6cd423c3d8d5bdf4e9&#45;&gt;dir_85bf31a2e8d306e7598ffcb73f8df6bf -->
<g id="edge3" class="edge">
<title>dir_871aad07cbf94d6cd423c3d8d5bdf4e9&#45;&gt;dir_85bf31a2e8d306e7598ffcb73f8df6bf</title>
<path fill="none" stroke="#000000" d="M310.162,-215.8314C308.1076,-208.0463 305.6604,-198.7729 303.3809,-190.1347"/>
<polygon fill="#000000" stroke="#000000" points="306.7513,-189.1892 300.8155,-180.4133 299.983,-190.9753 306.7513,-189.1892"/>
<g id="a_edge3&#45;headlabel"><a xlink:href="dir_000039_000053.html" target="_top" xlink:title="36">
<text text-anchor="middle" x="310.4137" y="-189.4404" font-family="Helvetica,sans-Serif" font-size="10.00" fill="#000000">36</text>
</a>
</g>
</g>
<!-- dir_871aad07cbf94d6cd423c3d8d5bdf4e9&#45;&gt;dir_4ab6b4cc6a7edbff49100e9123df213f -->
<g id="edge1" class="edge">
<title>dir_871aad07cbf94d6cd423c3d8d5bdf4e9&#45;&gt;dir_4ab6b4cc6a7edbff49100e9123df213f</title>
<path fill="none" stroke="#000000" d="M297.875,-252.2173C290.1102,-259.1981 280.3414,-266.3571 269.9565,-270 225.0817,-285.7412 208.4715,-283.7808 162.9565,-270 154.3529,-267.3951 145.8673,-262.9173 138.2616,-257.9871"/>
<polygon fill="#000000" stroke="#000000" points="139.9881,-254.9242 129.7831,-252.0767 135.985,-260.6666 139.9881,-254.9242"/>
<g id="a_edge1&#45;headlabel"><a xlink:href="dir_000039_000026.html" target="_top" xlink:title="25">
<text text-anchor="middle" x="144.5606" y="-252.1506" font-family="Helvetica,sans-Serif" font-size="10.00" fill="#000000">25</text>
</a>
</g>
</g>
<!-- dir_871aad07cbf94d6cd423c3d8d5bdf4e9&#45;&gt;dir_37c90836491b695b472bf98d1be8336b -->
<g id="edge2" class="edge">
<title>dir_871aad07cbf94d6cd423c3d8d5bdf4e9&#45;&gt;dir_37c90836491b695b472bf98d1be8336b</title>
<path fill="none" stroke="#000000" d="M331.3846,-215.989C339.259,-206.1289 347.8544,-193.2441 351.9565,-180 366.6609,-132.5247 358.9443,-106.2782 322.9565,-72 300.2018,-50.3263 267.2123,-36.2397 241.8964,-27.9068"/>
<polygon fill="#000000" stroke="#000000" points="242.8514,-24.5383 232.2624,-24.8882 240.7584,-31.2181 242.8514,-24.5383"/>
<g id="a_edge2&#45;headlabel"><a xlink:href="dir_000039_000266.html" target="_top" xlink:title="13">
<text text-anchor="middle" x="247.1305" y="-20.4036" font-family="Helvetica,sans-Serif" font-size="10.00" fill="#000000">13</text>
</a>
</g>
</g>
<!-- dir_f511f1e9c03c071966ae594f00bbc5e0 -->
<g id="node8" class="node">
<title>dir_f511f1e9c03c071966ae594f00bbc5e0</title>
<g id="a_node8"><a xlink:href="dir_f511f1e9c03c071966ae594f00bbc5e0.html" target="_top" xlink:title="GPU">
<polygon fill="none" stroke="#ff0000" points="171.9565,-180 117.9565,-180 117.9565,-144 171.9565,-144 171.9565,-180"/>
<text text-anchor="middle" x="144.9565" y="-159.5" font-family="Helvetica,sans-Serif" font-size="10.00" fill="#000000">GPU</text>
</a>
</g>
</g>
<!-- dir_871aad07cbf94d6cd423c3d8d5bdf4e9&#45;&gt;dir_f511f1e9c03c071966ae594f00bbc5e0 -->
<g id="edge4" class="edge">
<title>dir_871aad07cbf94d6cd423c3d8d5bdf4e9&#45;&gt;dir_f511f1e9c03c071966ae594f00bbc5e0</title>
<path fill="none" stroke="#000000" d="M287.8335,-224.2934C281.8764,-221.4977 275.7168,-218.5238 269.9565,-216 231.669,-199.2252 218.5355,-197.6297 181.4471,-182.6396"/>
<polygon fill="#000000" stroke="#000000" points="182.6192,-179.3371 172.04,-178.7614 179.9511,-185.8087 182.6192,-179.3371"/>
<g id="a_edge4&#45;headlabel"><a xlink:href="dir_000039_000134.html" target="_top" xlink:title="24">
<text text-anchor="middle" x="187.0246" y="-175.5821" font-family="Helvetica,sans-Serif" font-size="10.00" fill="#000000">24</text>
</a>
</g>
</g>
<!-- dir_871aad07cbf94d6cd423c3d8d5bdf4e9&#45;&gt;dir_bcbb2cf9a3d3d83e5515c82071a07177 -->
<g id="edge5" class="edge">
<title>dir_871aad07cbf94d6cd423c3d8d5bdf4e9&#45;&gt;dir_bcbb2cf9a3d3d83e5515c82071a07177</title>
<path fill="none" stroke="#000000" d="M342.1933,-229.169C385.1132,-220.94 465.3283,-202.8526 481.9565,-180 510.1977,-141.1872 509.3859,-111.3907 481.9565,-72 470.0834,-54.9495 419.8035,-38.9004 381.536,-28.8008"/>
<polygon fill="#000000" stroke="#000000" points="382.158,-25.3467 371.6008,-26.2393 380.4103,-32.1251 382.158,-25.3467"/>
<g id="a_edge5&#45;headlabel"><a xlink:href="dir_000039_000044.html" target="_top" xlink:title="42">
<text text-anchor="middle" x="386.3476" y="-20.9947" font-family="Helvetica,sans-Serif" font-size="10.00" fill="#000000">42</text>
</a>
</g>
</g>
<!-- dir_871aad07cbf94d6cd423c3d8d5bdf4e9&#45;&gt;dir_2171f7ec022c5423887b07c69b2f5b48 -->
<g id="edge6" class="edge">
<title>dir_871aad07cbf94d6cd423c3d8d5bdf4e9&#45;&gt;dir_2171f7ec022c5423887b07c69b2f5b48</title>
<path fill="none" stroke="#000000" d="M292.9674,-215.7978C281.7447,-205.8853 268.3139,-193.0114 257.9565,-180 242.3771,-160.4287 228.1978,-135.8153 218.4338,-117.2774"/>
<polygon fill="#000000" stroke="#000000" points="221.4431,-115.4766 213.7462,-108.1959 215.2228,-118.6873 221.4431,-115.4766"/>
<g id="a_edge6&#45;headlabel"><a xlink:href="dir_000039_000068.html" target="_top" xlink:title="95">
<text text-anchor="middle" x="225.6148" y="-114.8685" font-family="Helvetica,sans-Serif" font-size="10.00" fill="#000000">95</text>
</a>
</g>
</g>
<!-- dir_f39d1cd569ca2d16022b762a0e4a53c8 -->
<g id="node4" class="node">
<title>dir_f39d1cd569ca2d16022b762a0e4a53c8</title>
<g id="a_node4"><a xlink:href="dir_f39d1cd569ca2d16022b762a0e4a53c8.html" target="_top" xlink:title="MFT">
<polygon fill="#ffffff" stroke="#ff0000" points="269.9565,-252 215.9565,-252 215.9565,-216 269.9565,-216 269.9565,-252"/>
<text text-anchor="middle" x="242.9565" y="-231.5" font-family="Helvetica,sans-Serif" font-size="10.00" fill="#000000">MFT</text>
</a>
</g>
</g>
<!-- dir_f39d1cd569ca2d16022b762a0e4a53c8&#45;&gt;dir_85bf31a2e8d306e7598ffcb73f8df6bf -->
<g id="edge9" class="edge">
<title>dir_f39d1cd569ca2d16022b762a0e4a53c8&#45;&gt;dir_85bf31a2e8d306e7598ffcb73f8df6bf</title>
<path fill="none" stroke="#000000" d="M256.3306,-215.8314C262.3727,-207.6232 269.6327,-197.7606 276.2785,-188.7323"/>
<polygon fill="#000000" stroke="#000000" points="279.2927,-190.5415 282.4023,-180.4133 273.6554,-186.3918 279.2927,-190.5415"/>
<g id="a_edge9&#45;headlabel"><a xlink:href="dir_000102_000053.html" target="_top" xlink:title="21">
<text text-anchor="middle" x="279.4484" y="-192.6195" font-family="Helvetica,sans-Serif" font-size="10.00" fill="#000000">21</text>
</a>
</g>
</g>
<!-- dir_f39d1cd569ca2d16022b762a0e4a53c8&#45;&gt;dir_4ab6b4cc6a7edbff49100e9123df213f -->
<g id="edge7" class="edge">
<title>dir_f39d1cd569ca2d16022b762a0e4a53c8&#45;&gt;dir_4ab6b4cc6a7edbff49100e9123df213f</title>
<path fill="none" stroke="#000000" d="M215.9003,-234C193.8382,-234 171.7762,-234 149.7142,-234"/>
<polygon fill="#000000" stroke="#000000" points="149.5776,-230.5001 139.5776,-234 149.5775,-237.5001 149.5776,-230.5001"/>
<g id="a_edge7&#45;headlabel"><a xlink:href="dir_000102_000026.html" target="_top" xlink:title="13">
<text text-anchor="middle" x="153.1722" y="-225.1607" font-family="Helvetica,sans-Serif" font-size="10.00" fill="#000000">13</text>
</a>
</g>
</g>
<!-- dir_f39d1cd569ca2d16022b762a0e4a53c8&#45;&gt;dir_37c90836491b695b472bf98d1be8336b -->
<g id="edge8" class="edge">
<title>dir_f39d1cd569ca2d16022b762a0e4a53c8&#45;&gt;dir_37c90836491b695b472bf98d1be8336b</title>
<path fill="none" stroke="#000000" d="M270.0313,-219.8826C295.8193,-206.1595 331.2524,-186.4691 334.9565,-180 346.4401,-159.9439 343.9876,-149.2735 334.9565,-128 317.0281,-85.7687 273.0665,-54.317 241.2211,-36.0943"/>
<polygon fill="#000000" stroke="#000000" points="242.6249,-32.8708 232.1814,-31.0869 239.233,-38.9941 242.6249,-32.8708"/>
<g id="a_edge8&#45;headlabel"><a xlink:href="dir_000102_000266.html" target="_top" xlink:title="6">
<text text-anchor="middle" x="247.1451" y="-29.6289" font-family="Helvetica,sans-Serif" font-size="10.00" fill="#000000">6</text>
</a>
</g>
</g>
<!-- dir_f39d1cd569ca2d16022b762a0e4a53c8&#45;&gt;dir_f511f1e9c03c071966ae594f00bbc5e0 -->
<g id="edge10" class="edge">
<title>dir_f39d1cd569ca2d16022b762a0e4a53c8&#45;&gt;dir_f511f1e9c03c071966ae594f00bbc5e0</title>
<path fill="none" stroke="#000000" d="M218.2269,-215.8314C206.0403,-206.8779 191.1741,-195.9558 178.0253,-186.2955"/>
<polygon fill="#000000" stroke="#000000" points="179.8092,-183.263 169.6781,-180.1628 175.6646,-188.9042 179.8092,-183.263"/>
<g id="a_edge10&#45;headlabel"><a xlink:href="dir_000102_000134.html" target="_top" xlink:title="1">
<text text-anchor="middle" x="184.3871" y="-180.6032" font-family="Helvetica,sans-Serif" font-size="10.00" fill="#000000">1</text>
</a>
</g>
</g>
<!-- dir_f39d1cd569ca2d16022b762a0e4a53c8&#45;&gt;dir_bcbb2cf9a3d3d83e5515c82071a07177 -->
<g id="edge11" class="edge">
<title>dir_f39d1cd569ca2d16022b762a0e4a53c8&#45;&gt;dir_bcbb2cf9a3d3d83e5515c82071a07177</title>
<path fill="none" stroke="#000000" d="M270.0753,-220.4206C273.0708,-218.9266 276.0775,-217.4296 278.9565,-216 311.3568,-199.9109 332.8536,-210.7201 351.9565,-180 377.6289,-138.7152 361.5758,-79.7672 348.2806,-45.5344"/>
<polygon fill="#000000" stroke="#000000" points="351.4773,-44.1039 344.4668,-36.16 344.9933,-46.7418 351.4773,-44.1039"/>
<g id="a_edge11&#45;headlabel"><a xlink:href="dir_000102_000044.html" target="_top" xlink:title="27">
<text text-anchor="middle" x="355.4617" y="-43.8636" font-family="Helvetica,sans-Serif" font-size="10.00" fill="#000000">27</text>
</a>
</g>
</g>
<!-- dir_f39d1cd569ca2d16022b762a0e4a53c8&#45;&gt;dir_2171f7ec022c5423887b07c69b2f5b48 -->
<g id="edge12" class="edge">
<title>dir_f39d1cd569ca2d16022b762a0e4a53c8&#45;&gt;dir_2171f7ec022c5423887b07c69b2f5b48</title>
<path fill="none" stroke="#000000" d="M235.8476,-215.6955C231.9906,-205.3278 227.335,-192.058 223.9565,-180 218.2206,-159.5291 213.3123,-136.0109 209.9219,-118.1505"/>
<polygon fill="#000000" stroke="#000000" points="213.3226,-117.2923 208.0599,-108.097 206.4396,-118.5672 213.3226,-117.2923"/>
<g id="a_edge12&#45;headlabel"><a xlink:href="dir_000102_000068.html" target="_top" xlink:title="63">
<text text-anchor="middle" x="216.7689" y="-117.8098" font-family="Helvetica,sans-Serif" font-size="10.00" fill="#000000">63</text>
</a>
</g>
</g>
<!-- dir_8a13aabf51651f1b5f53d57129f566b6 -->
<g id="node5" class="node">
<title>dir_8a13aabf51651f1b5f53d57129f566b6</title>
<g id="a_node5"><a xlink:href="dir_8a13aabf51651f1b5f53d57129f566b6.html" target="_top" xlink:title="test">
<polygon fill="#ffffff" stroke="#ff0000" points="249.9565,-324 195.9565,-324 195.9565,-288 249.9565,-288 249.9565,-324"/>
<text text-anchor="middle" x="222.9565" y="-303.5" font-family="Helvetica,sans-Serif" font-size="10.00" fill="#000000">test</text>
</a>
</g>
</g>
<!-- dir_8a13aabf51651f1b5f53d57129f566b6&#45;&gt;dir_85bf31a2e8d306e7598ffcb73f8df6bf -->
<g id="edge25" class="edge">
<title>dir_8a13aabf51651f1b5f53d57129f566b6&#45;&gt;dir_85bf31a2e8d306e7598ffcb73f8df6bf</title>
<path fill="none" stroke="#000000" d="M213.1319,-287.9218C204.2233,-268.865 194.2669,-238.5418 206.9565,-216 217.7262,-196.8685 238.3149,-183.7344 256.9791,-175.2138"/>
<polygon fill="#000000" stroke="#000000" points="258.3859,-178.419 266.2176,-171.2835 255.6455,-171.9777 258.3859,-178.419"/>
<g id="a_edge25&#45;headlabel"><a xlink:href="dir_000492_000053.html" target="_top" xlink:title="3">
<text text-anchor="middle" x="256.1896" y="-179.9388" font-family="Helvetica,sans-Serif" font-size="10.00" fill="#000000">3</text>
</a>
</g>
</g>
<!-- dir_8a13aabf51651f1b5f53d57129f566b6&#45;&gt;dir_871aad07cbf94d6cd423c3d8d5bdf4e9 -->
<g id="edge23" class="edge">
<title>dir_8a13aabf51651f1b5f53d57129f566b6&#45;&gt;dir_871aad07cbf94d6cd423c3d8d5bdf4e9</title>
<path fill="none" stroke="#000000" d="M246.1719,-287.8314C257.5035,-278.9632 271.3029,-268.1637 283.5591,-258.5718"/>
<polygon fill="#000000" stroke="#000000" points="286.0304,-261.0822 291.7484,-252.1628 281.7162,-255.5697 286.0304,-261.0822"/>
<g id="a_edge23&#45;headlabel"><a xlink:href="dir_000492_000039.html" target="_top" xlink:title="1">
<text text-anchor="middle" x="284.9495" y="-263.0335" font-family="Helvetica,sans-Serif" font-size="10.00" fill="#000000">1</text>
</a>
</g>
</g>
<!-- dir_8a13aabf51651f1b5f53d57129f566b6&#45;&gt;dir_4ab6b4cc6a7edbff49100e9123df213f -->
<g id="edge24" class="edge">
<title>dir_8a13aabf51651f1b5f53d57129f566b6&#45;&gt;dir_4ab6b4cc6a7edbff49100e9123df213f</title>
<path fill="none" stroke="#000000" d="M195.9401,-288.937C181.1625,-279.6038 162.6263,-267.8967 146.4662,-257.6904"/>
<polygon fill="#000000" stroke="#000000" points="148.0957,-254.5799 137.7718,-252.1992 144.3577,-260.4984 148.0957,-254.5799"/>
<g id="a_edge24&#45;headlabel"><a xlink:href="dir_000492_000026.html" target="_top" xlink:title="2">
<text text-anchor="middle" x="152.651" y="-251.5988" font-family="Helvetica,sans-Serif" font-size="10.00" fill="#000000">2</text>
</a>
</g>
</g>
<!-- dir_4ab6b4cc6a7edbff49100e9123df213f&#45;&gt;dir_f511f1e9c03c071966ae594f00bbc5e0 -->
<g id="edge13" class="edge">
<title>dir_4ab6b4cc6a7edbff49100e9123df213f&#45;&gt;dir_f511f1e9c03c071966ae594f00bbc5e0</title>
<path fill="none" stroke="#000000" d="M112.0884,-215.8314C115.3244,-207.7925 119.9311,-198.1666 124.7392,-189.2918"/>
<polygon fill="#000000" stroke="#000000" points="127.8857,-190.8385 129.7738,-180.4133 121.7965,-187.3856 127.8857,-190.8385"/>
<g id="a_edge13&#45;headlabel"><a xlink:href="dir_000026_000134.html" target="_top" xlink:title="3">
<text text-anchor="middle" x="128.5825" y="-192.8659" font-family="Helvetica,sans-Serif" font-size="10.00" fill="#000000">3</text>
</a>
</g>
</g>
<!-- dir_4ab6b4cc6a7edbff49100e9123df213f&#45;&gt;dir_2171f7ec022c5423887b07c69b2f5b48 -->
<g id="edge14" class="edge">
<title>dir_4ab6b4cc6a7edbff49100e9123df213f&#45;&gt;dir_2171f7ec022c5423887b07c69b2f5b48</title>
<path fill="none" stroke="#000000" d="M96.9392,-215.7074C88.2801,-193.0298 82.1639,-154.1787 99.9565,-128 112.079,-110.1638 134.0108,-100.6994 154.7885,-95.6774"/>
<polygon fill="#000000" stroke="#000000" points="155.7874,-99.0437 164.8477,-93.5516 154.3401,-92.1949 155.7874,-99.0437"/>
<g id="a_edge14&#45;headlabel"><a xlink:href="dir_000026_000068.html" target="_top" xlink:title="2">
<text text-anchor="middle" x="152.8575" y="-100.0647" font-family="Helvetica,sans-Serif" font-size="10.00" fill="#000000">2</text>
</a>
</g>
</g>
<!-- dir_37c90836491b695b472bf98d1be8336b&#45;&gt;dir_4ab6b4cc6a7edbff49100e9123df213f -->
<g id="edge15" class="edge">
<title>dir_37c90836491b695b472bf98d1be8336b&#45;&gt;dir_4ab6b4cc6a7edbff49100e9123df213f</title>
<path fill="none" stroke="#000000" d="M177.8416,-21.904C131.2073,-29.2338 38.9749,-46.6366 19.9565,-72 -8.8396,-110.403 -3.5898,-138.1721 19.9565,-180 30.526,-198.7759 50.553,-211.7753 68.9365,-220.3063"/>
<polygon fill="#000000" stroke="#000000" points="67.7731,-223.6162 78.3413,-224.3671 70.548,-217.1897 67.7731,-223.6162"/>
<g id="a_edge15&#45;headlabel"><a xlink:href="dir_000266_000026.html" target="_top" xlink:title="16">
<text text-anchor="middle" x="63.3475" y="-222.298" font-family="Helvetica,sans-Serif" font-size="10.00" fill="#000000">16</text>
</a>
</g>
</g>
<!-- dir_37c90836491b695b472bf98d1be8336b&#45;&gt;dir_f511f1e9c03c071966ae594f00bbc5e0 -->
<g id="edge16" class="edge">
<title>dir_37c90836491b695b472bf98d1be8336b&#45;&gt;dir_f511f1e9c03c071966ae594f00bbc5e0</title>
<path fill="none" stroke="#000000" d="M183.2636,-36.0741C173.255,-45.6707 162.2263,-58.3021 155.9565,-72 147.0844,-91.3831 144.5207,-115.4441 144.0739,-133.8099"/>
<polygon fill="#000000" stroke="#000000" points="140.5736,-133.8695 144.0237,-143.8868 147.5735,-133.9044 140.5736,-133.8695"/>
<g id="a_edge16&#45;headlabel"><a xlink:href="dir_000266_000134.html" target="_top" xlink:title="14">
<text text-anchor="middle" x="137.7522" y="-127.7608" font-family="Helvetica,sans-Serif" font-size="10.00" fill="#000000">14</text>
</a>
</g>
</g>
<!-- dir_37c90836491b695b472bf98d1be8336b&#45;&gt;dir_2171f7ec022c5423887b07c69b2f5b48 -->
<g id="edge17" class="edge">
<title>dir_37c90836491b695b472bf98d1be8336b&#45;&gt;dir_2171f7ec022c5423887b07c69b2f5b48</title>
<path fill="none" stroke="#000000" d="M210.9325,-36.4133C211.6636,-44.0593 211.8767,-53.1084 211.5719,-61.5726"/>
<polygon fill="#000000" stroke="#000000" points="208.0612,-61.6264 210.9089,-71.8314 215.0467,-62.078 208.0612,-61.6264"/>
<g id="a_edge17&#45;headlabel"><a xlink:href="dir_000266_000068.html" target="_top" xlink:title="7">
<text text-anchor="middle" x="205.4596" y="-55.3562" font-family="Helvetica,sans-Serif" font-size="10.00" fill="#000000">7</text>
</a>
</g>
</g>
<!-- dir_f511f1e9c03c071966ae594f00bbc5e0&#45;&gt;dir_871aad07cbf94d6cd423c3d8d5bdf4e9 -->
<g id="edge26" class="edge">
<title>dir_f511f1e9c03c071966ae594f00bbc5e0&#45;&gt;dir_871aad07cbf94d6cd423c3d8d5bdf4e9</title>
<path fill="none" stroke="#000000" d="M171.9807,-170.8746C178.923,-173.8716 186.2177,-177.1722 192.9565,-180 231.0267,-195.9756 244.3262,-197.6853 277.9423,-211.7136"/>
<polygon fill="#000000" stroke="#000000" points="276.9023,-215.0754 287.4731,-215.7885 279.6542,-208.639 276.9023,-215.0754"/>
<g id="a_edge26&#45;headlabel"><a xlink:href="dir_000134_000039.html" target="_top" xlink:title="7">
<text text-anchor="middle" x="272.481" y="-213.773" font-family="Helvetica,sans-Serif" font-size="10.00" fill="#000000">7</text>
</a>
</g>
</g>
<!-- dir_f511f1e9c03c071966ae594f00bbc5e0&#45;&gt;dir_4ab6b4cc6a7edbff49100e9123df213f -->
<g id="edge27" class="edge">
<title>dir_f511f1e9c03c071966ae594f00bbc5e0&#45;&gt;dir_4ab6b4cc6a7edbff49100e9123df213f</title>
<path fill="none" stroke="#000000" d="M141.7258,-180.4133C138.4622,-188.484 133.8397,-198.1182 129.0276,-206.9775"/>
<polygon fill="#000000" stroke="#000000" points="125.8936,-205.4084 123.9932,-215.8314 131.9787,-208.8684 125.8936,-205.4084"/>
<g id="a_edge27&#45;headlabel"><a xlink:href="dir_000134_000026.html" target="_top" xlink:title="1">
<text text-anchor="middle" x="125.2022" y="-198.3802" font-family="Helvetica,sans-Serif" font-size="10.00" fill="#000000">1</text>
</a>
</g>
</g>
<!-- dir_f511f1e9c03c071966ae594f00bbc5e0&#45;&gt;dir_2171f7ec022c5423887b07c69b2f5b48 -->
<g id="edge28" class="edge">
<title>dir_f511f1e9c03c071966ae594f00bbc5e0&#45;&gt;dir_2171f7ec022c5423887b07c69b2f5b48</title>
<path fill="none" stroke="#000000" d="M154.1446,-143.8314C160.3716,-135.3694 168.7035,-125.1489 176.8676,-115.8971"/>
<polygon fill="#000000" stroke="#000000" points="179.5241,-118.1776 183.6361,-108.4133 174.3325,-113.4822 179.5241,-118.1776"/>
<g id="a_edge28&#45;headlabel"><a xlink:href="dir_000134_000068.html" target="_top" xlink:title="8">
<text text-anchor="middle" x="179.2188" y="-120.2481" font-family="Helvetica,sans-Serif" font-size="10.00" fill="#000000">8</text>
</a>
</g>
</g>
<!-- dir_bcbb2cf9a3d3d83e5515c82071a07177&#45;&gt;dir_871aad07cbf94d6cd423c3d8d5bdf4e9 -->
<g id="edge29" class="edge">
<title>dir_bcbb2cf9a3d3d83e5515c82071a07177&#45;&gt;dir_871aad07cbf94d6cd423c3d8d5bdf4e9</title>
<path fill="none" stroke="#000000" d="M371.5753,-27.0703C394.7675,-34.943 423.4898,-48.8242 438.9565,-72 465.6299,-111.9683 470.5776,-139.9968 443.9565,-180 423.7424,-210.3754 382.8062,-223.6969 352.4432,-229.5193"/>
<polygon fill="#000000" stroke="#000000" points="351.4577,-226.1373 342.1957,-231.2817 352.6442,-233.036 351.4577,-226.1373"/>
<g id="a_edge29&#45;headlabel"><a xlink:href="dir_000044_000039.html" target="_top" xlink:title="1">
<text text-anchor="middle" x="354.5191" y="-220.2299" font-family="Helvetica,sans-Serif" font-size="10.00" fill="#000000">1</text>
</a>
</g>
</g>
<!-- dir_bcbb2cf9a3d3d83e5515c82071a07177&#45;&gt;dir_4ab6b4cc6a7edbff49100e9123df213f -->
<g id="edge30" class="edge">
<title>dir_bcbb2cf9a3d3d83e5515c82071a07177&#45;&gt;dir_4ab6b4cc6a7edbff49100e9123df213f</title>
<path fill="none" stroke="#000000" d="M300.2951,-23.8676C262.595,-31.1433 202.2905,-45.8983 155.9565,-72 123.6049,-90.2248 109.0329,-94.0667 93.9565,-128 82.8314,-153.0398 89.4937,-184.3924 97.1465,-206.4834"/>
<polygon fill="#000000" stroke="#000000" points="93.8951,-207.7816 100.672,-215.9256 100.453,-205.3331 93.8951,-207.7816"/>
<g id="a_edge30&#45;headlabel"><a xlink:href="dir_000044_000026.html" target="_top" xlink:title="8">
<text text-anchor="middle" x="89.9779" y="-202.9072" font-family="Helvetica,sans-Serif" font-size="10.00" fill="#000000">8</text>
</a>
</g>
</g>
<!-- dir_bcbb2cf9a3d3d83e5515c82071a07177&#45;&gt;dir_2171f7ec022c5423887b07c69b2f5b48 -->
<g id="edge31" class="edge">
<title>dir_bcbb2cf9a3d3d83e5515c82071a07177&#45;&gt;dir_2171f7ec022c5423887b07c69b2f5b48</title>
<path fill="none" stroke="#000000" d="M308.862,-36.1628C292.7121,-45.5417 271.8439,-57.082 253.0153,-67.0694"/>
<polygon fill="#000000" stroke="#000000" points="251.1855,-64.0773 243.9657,-71.8314 254.4452,-70.272 251.1855,-64.0773"/>
<g id="a_edge31&#45;headlabel"><a xlink:href="dir_000044_000068.html" target="_top" xlink:title="72">
<text text-anchor="middle" x="253.0444" y="-57.3908" font-family="Helvetica,sans-Serif" font-size="10.00" fill="#000000">72</text>
</a>
</g>
</g>
<!-- dir_26637d1bd82229bc9ed97f7e706be743&#45;&gt;dir_4ab6b4cc6a7edbff49100e9123df213f -->
<g id="edge32" class="edge">
<title>dir_26637d1bd82229bc9ed97f7e706be743&#45;&gt;dir_4ab6b4cc6a7edbff49100e9123df213f</title>
<path fill="none" stroke="#000000" d="M66.34,-287.8314C72.9051,-279.5386 80.8072,-269.557 88.0142,-260.4533"/>
<polygon fill="#000000" stroke="#000000" points="90.9164,-262.4262 94.3793,-252.4133 85.4281,-258.0813 90.9164,-262.4262"/>
<g id="a_edge32&#45;headlabel"><a xlink:href="dir_000533_000026.html" target="_top" xlink:title="4">
<text text-anchor="middle" x="90.9114" y="-264.5069" font-family="Helvetica,sans-Serif" font-size="10.00" fill="#000000">4</text>
</a>
</g>
</g>
<!-- dir_26637d1bd82229bc9ed97f7e706be743&#45;&gt;dir_bcbb2cf9a3d3d83e5515c82071a07177 -->
<g id="edge33" class="edge">
<title>dir_26637d1bd82229bc9ed97f7e706be743&#45;&gt;dir_bcbb2cf9a3d3d83e5515c82071a07177</title>
<path fill="none" stroke="#000000" d="M48.705,-287.7601C41.6167,-241.3224 30.6803,-118.9847 101.9565,-72 117.5781,-61.7024 226.345,-39.2954 289.9496,-26.8244"/>
<polygon fill="#000000" stroke="#000000" points="290.9842,-30.1886 300.1285,-24.8377 289.6432,-23.3182 290.9842,-30.1886"/>
<g id="a_edge33&#45;headlabel"><a xlink:href="dir_000533_000044.html" target="_top" xlink:title="17">
<text text-anchor="middle" x="288" y="-31.1637" font-family="Helvetica,sans-Serif" font-size="10.00" fill="#000000">17</text>
</a>
</g>
</g>
<!-- dir_26637d1bd82229bc9ed97f7e706be743&#45;&gt;dir_2171f7ec022c5423887b07c69b2f5b48 -->
<g id="edge34" class="edge">
<title>dir_26637d1bd82229bc9ed97f7e706be743&#45;&gt;dir_2171f7ec022c5423887b07c69b2f5b48</title>
<path fill="none" stroke="#000000" d="M50.7061,-287.8757C49.2946,-252.2797 51.4613,-172.811 93.9565,-128 109.8676,-111.2218 133.4946,-101.8516 154.8656,-96.6186"/>
<polygon fill="#000000" stroke="#000000" points="155.7956,-99.9977 164.8099,-94.4306 154.2914,-93.1613 155.7956,-99.9977"/>
<g id="a_edge34&#45;headlabel"><a xlink:href="dir_000533_000068.html" target="_top" xlink:title="8">
<text text-anchor="middle" x="152.895" y="-101.043" font-family="Helvetica,sans-Serif" font-size="10.00" fill="#000000">8</text>
</a>
</g>
</g>
<!-- dir_2171f7ec022c5423887b07c69b2f5b48&#45;&gt;dir_85bf31a2e8d306e7598ffcb73f8df6bf -->
<g id="edge37" class="edge">
<title>dir_2171f7ec022c5423887b07c69b2f5b48&#45;&gt;dir_85bf31a2e8d306e7598ffcb73f8df6bf</title>
<path fill="none" stroke="#000000" d="M233.8641,-108.1628C245.8198,-116.9449 259.4819,-127.622 270.9962,-137.1448"/>
<polygon fill="#000000" stroke="#000000" points="269.0399,-140.0729 278.9457,-143.8314 273.5458,-134.7159 269.0399,-140.0729"/>
<g id="a_edge37&#45;headlabel"><a xlink:href="dir_000068_000053.html" target="_top" xlink:title="1">
<text text-anchor="middle" x="264.4614" y="-137.4319" font-family="Helvetica,sans-Serif" font-size="10.00" fill="#000000">1</text>
</a>
</g>
</g>
<!-- dir_2171f7ec022c5423887b07c69b2f5b48&#45;&gt;dir_4ab6b4cc6a7edbff49100e9123df213f -->
<g id="edge35" class="edge">
<title>dir_2171f7ec022c5423887b07c69b2f5b48&#45;&gt;dir_4ab6b4cc6a7edbff49100e9123df213f</title>
<path fill="none" stroke="#000000" d="M164.5495,-97.5129C147.2774,-102.8964 128.7377,-112.1374 117.9565,-128 102.5965,-150.5996 105.0546,-182.6434 108.0724,-205.5728"/>
<polygon fill="#000000" stroke="#000000" points="104.6375,-206.2839 109.4798,-215.7074 111.571,-205.321 104.6375,-206.2839"/>
<g id="a_edge35&#45;headlabel"><a xlink:href="dir_000068_000026.html" target="_top" xlink:title="30">
<text text-anchor="middle" x="101.3309" y="-200.614" font-family="Helvetica,sans-Serif" font-size="10.00" fill="#000000">30</text>
</a>
</g>
</g>
<!-- dir_2171f7ec022c5423887b07c69b2f5b48&#45;&gt;dir_37c90836491b695b472bf98d1be8336b -->
<g id="edge36" class="edge">
<title>dir_2171f7ec022c5423887b07c69b2f5b48&#45;&gt;dir_37c90836491b695b472bf98d1be8336b</title>
<path fill="none" stroke="#000000" d="M199.0041,-71.8314C198.2536,-64.131 198.0327,-54.9743 198.3414,-46.4166"/>
<polygon fill="#000000" stroke="#000000" points="201.8357,-46.6161 198.9805,-36.4133 194.8499,-46.1697 201.8357,-46.6161"/>
<g id="a_edge36&#45;headlabel"><a xlink:href="dir_000068_000266.html" target="_top" xlink:title="1">
<text text-anchor="middle" x="204.4401" y="-47.8844" font-family="Helvetica,sans-Serif" font-size="10.00" fill="#000000">1</text>
</a>
</g>
</g>
<!-- dir_2171f7ec022c5423887b07c69b2f5b48&#45;&gt;dir_f511f1e9c03c071966ae594f00bbc5e0 -->
<g id="edge38" class="edge">
<title>dir_2171f7ec022c5423887b07c69b2f5b48&#45;&gt;dir_f511f1e9c03c071966ae594f00bbc5e0</title>
<path fill="none" stroke="#000000" d="M195.5881,-108.4133C189.3208,-116.9088 180.9705,-127.1366 172.8099,-136.3696"/>
<polygon fill="#000000" stroke="#000000" points="170.1699,-134.0706 166.0494,-143.8314 175.3574,-138.7706 170.1699,-134.0706"/>
<g id="a_edge38&#45;headlabel"><a xlink:href="dir_000068_000134.html" target="_top" xlink:title="10">
<text text-anchor="middle" x="170.4792" y="-127.0004" font-family="Helvetica,sans-Serif" font-size="10.00" fill="#000000">10</text>
</a>
</g>
</g>
<!-- dir_2171f7ec022c5423887b07c69b2f5b48&#45;&gt;dir_bcbb2cf9a3d3d83e5515c82071a07177 -->
<g id="edge39" class="edge">
<title>dir_2171f7ec022c5423887b07c69b2f5b48&#45;&gt;dir_bcbb2cf9a3d3d83e5515c82071a07177</title>
<path fill="none" stroke="#000000" d="M232.0609,-71.8314C249.1532,-61.9055 271.5276,-49.56 291.1758,-39.1965"/>
<polygon fill="#000000" stroke="#000000" points="293.034,-42.1745 300.274,-34.4393 289.7905,-35.9713 293.034,-42.1745"/>
<g id="a_edge39&#45;headlabel"><a xlink:href="dir_000068_000044.html" target="_top" xlink:title="7">
<text text-anchor="middle" x="291.1642" y="-43.8561" font-family="Helvetica,sans-Serif" font-size="10.00" fill="#000000">7</text>
</a>
</g>
</g>
</g>
</svg>
