<?xml version="1.0" encoding="UTF-8" standalone="no"?>
<!DOCTYPE svg PUBLIC "-//W3C//DTD SVG 1.1//EN"
 "http://www.w3.org/Graphics/SVG/1.1/DTD/svg11.dtd">
<!-- Generated by graphviz version 2.40.1 (20161225.0304)
 -->
<!-- Title: /home/travis/build/AliceO2Group/AliceO2/Detectors/MUON/MID/Workflow/src Pages: 1 -->
<svg width="482pt" height="367pt"
 viewBox="0.00 0.00 482.30 367.00" xmlns="http://www.w3.org/2000/svg" xmlns:xlink="http://www.w3.org/1999/xlink">
<g id="graph0" class="graph" transform="scale(1 1) rotate(0) translate(4 363)">
<title>/home/travis/build/AliceO2Group/AliceO2/Detectors/MUON/MID/Workflow/src</title>
<g id="clust1" class="cluster">
<title>clusterdir_541a9f579a56d3c8f641580c9f97913d</title>
<g id="a_clust1"><a xlink:href="dir_541a9f579a56d3c8f641580c9f97913d.html" target="_top" xlink:title="Workflow">
<polygon fill="#ddddee" stroke="#000000" points="180.2995,-280 180.2995,-351 250.2995,-351 250.2995,-280 180.2995,-280"/>
<text text-anchor="middle" x="215.2995" y="-339" font-family="Helvetica,sans-Serif" font-size="10.00" fill="#000000">Workflow</text>
</a>
</g>
</g>
<!-- dir_d175ccbdd0bad50605561880a8518417 -->
<g id="node1" class="node">
<title>dir_d175ccbdd0bad50605561880a8518417</title>
<g id="a_node1"><a xlink:href="dir_d175ccbdd0bad50605561880a8518417.html" target="_top" xlink:title="src">
<polygon fill="#eeeeff" stroke="#000000" points="242.2995,-324 188.2995,-324 188.2995,-288 242.2995,-288 242.2995,-324"/>
<text text-anchor="middle" x="215.2995" y="-303.5" font-family="Helvetica,sans-Serif" font-size="10.00" fill="#000000">src</text>
</a>
</g>
</g>
<!-- dir_4ab6b4cc6a7edbff49100e9123df213f -->
<g id="node2" class="node">
<title>dir_4ab6b4cc6a7edbff49100e9123df213f</title>
<g id="a_node2"><a xlink:href="dir_4ab6b4cc6a7edbff49100e9123df213f.html" target="_top" xlink:title="Common">
<polygon fill="none" stroke="#ff0000" points="363.7995,-180 302.7995,-180 302.7995,-144 363.7995,-144 363.7995,-180"/>
<text text-anchor="middle" x="333.2995" y="-159.5" font-family="Helvetica,sans-Serif" font-size="10.00" fill="#000000">Common</text>
</a>
</g>
</g>
<!-- dir_d175ccbdd0bad50605561880a8518417&#45;&gt;dir_4ab6b4cc6a7edbff49100e9123df213f -->
<g id="edge19" class="edge">
<title>dir_d175ccbdd0bad50605561880a8518417&#45;&gt;dir_4ab6b4cc6a7edbff49100e9123df213f</title>
<path fill="none" stroke="#000000" d="M242.66,-297.1925C264.1718,-288.8783 293.2613,-274.317 310.2995,-252 323.8609,-234.237 329.4798,-209.3333 331.7813,-190.2244"/>
<polygon fill="#000000" stroke="#000000" points="335.2897,-190.3045 332.768,-180.0142 328.3222,-189.6311 335.2897,-190.3045"/>
<g id="a_edge19&#45;headlabel"><a xlink:href="dir_000395_000026.html" target="_top" xlink:title="3">
<text text-anchor="middle" x="337.7701" y="-191.6556" font-family="Helvetica,sans-Serif" font-size="10.00" fill="#000000">3</text>
</a>
</g>
</g>
<!-- dir_754f2fe7806627988f6bd801b7f2fe5b -->
<g id="node3" class="node">
<title>dir_754f2fe7806627988f6bd801b7f2fe5b</title>
<g id="a_node3"><a xlink:href="dir_754f2fe7806627988f6bd801b7f2fe5b.html" target="_top" xlink:title="Clustering">
<polygon fill="none" stroke="#ff0000" points="246.2995,-180 180.2995,-180 180.2995,-144 246.2995,-144 246.2995,-180"/>
<text text-anchor="middle" x="213.2995" y="-159.5" font-family="Helvetica,sans-Serif" font-size="10.00" fill="#000000">Clustering</text>
</a>
</g>
</g>
<!-- dir_d175ccbdd0bad50605561880a8518417&#45;&gt;dir_754f2fe7806627988f6bd801b7f2fe5b -->
<g id="edge20" class="edge">
<title>dir_d175ccbdd0bad50605561880a8518417&#45;&gt;dir_754f2fe7806627988f6bd801b7f2fe5b</title>
<path fill="none" stroke="#000000" d="M215.0462,-287.7623C214.7051,-263.201 214.0946,-219.2474 213.6933,-190.3541"/>
<polygon fill="#000000" stroke="#000000" points="217.1894,-190.04 213.5507,-180.0896 210.19,-190.1373 217.1894,-190.04"/>
<g id="a_edge20&#45;headlabel"><a xlink:href="dir_000395_000408.html" target="_top" xlink:title="5">
<text text-anchor="middle" x="220.0782" y="-191.0949" font-family="Helvetica,sans-Serif" font-size="10.00" fill="#000000">5</text>
</a>
</g>
</g>
<!-- dir_37c90836491b695b472bf98d1be8336b -->
<g id="node4" class="node">
<title>dir_37c90836491b695b472bf98d1be8336b</title>
<g id="a_node4"><a xlink:href="dir_37c90836491b695b472bf98d1be8336b.html" target="_top" xlink:title="Base">
<polygon fill="none" stroke="#ff0000" points="244.2995,-36 190.2995,-36 190.2995,0 244.2995,0 244.2995,-36"/>
<text text-anchor="middle" x="217.2995" y="-15.5" font-family="Helvetica,sans-Serif" font-size="10.00" fill="#000000">Base</text>
</a>
</g>
</g>
<!-- dir_d175ccbdd0bad50605561880a8518417&#45;&gt;dir_37c90836491b695b472bf98d1be8336b -->
<g id="edge21" class="edge">
<title>dir_d175ccbdd0bad50605561880a8518417&#45;&gt;dir_37c90836491b695b472bf98d1be8336b</title>
<path fill="none" stroke="#000000" d="M188.1179,-301.2687C142.2634,-292.786 52.2799,-273.8233 29.2995,-252 4.7364,-228.6738 9.9335,-213.4023 4.2995,-180 1.6383,-164.2229 -3.6271,-157.8985 4.2995,-144 42.1348,-77.6591 130.1204,-42.6984 180.3712,-27.5246"/>
<polygon fill="#000000" stroke="#000000" points="181.5676,-30.8217 190.1911,-24.6665 179.6113,-24.1006 181.5676,-30.8217"/>
<g id="a_edge21&#45;headlabel"><a xlink:href="dir_000395_000266.html" target="_top" xlink:title="2">
<text text-anchor="middle" x="178.9097" y="-32.0524" font-family="Helvetica,sans-Serif" font-size="10.00" fill="#000000">2</text>
</a>
</g>
</g>
<!-- dir_2bb5eb61d33140858f79122ad9ee2c7f -->
<g id="node5" class="node">
<title>dir_2bb5eb61d33140858f79122ad9ee2c7f</title>
<g id="a_node5"><a xlink:href="dir_2bb5eb61d33140858f79122ad9ee2c7f.html" target="_top" xlink:title="include">
<polygon fill="none" stroke="#ff0000" points="474.2995,-252 420.2995,-252 420.2995,-216 474.2995,-216 474.2995,-252"/>
<text text-anchor="middle" x="447.2995" y="-231.5" font-family="Helvetica,sans-Serif" font-size="10.00" fill="#000000">include</text>
</a>
</g>
</g>
<!-- dir_d175ccbdd0bad50605561880a8518417&#45;&gt;dir_2bb5eb61d33140858f79122ad9ee2c7f -->
<g id="edge22" class="edge">
<title>dir_d175ccbdd0bad50605561880a8518417&#45;&gt;dir_2bb5eb61d33140858f79122ad9ee2c7f</title>
<path fill="none" stroke="#000000" d="M242.5567,-299.556C279.9538,-290.4304 349.0543,-272.5472 406.2995,-252 407.7171,-251.4912 409.155,-250.9563 410.602,-250.4021"/>
<polygon fill="#000000" stroke="#000000" points="412.2038,-253.5299 420.1647,-246.5388 409.5817,-247.0395 412.2038,-253.5299"/>
<g id="a_edge22&#45;headlabel"><a xlink:href="dir_000395_000373.html" target="_top" xlink:title="21">
<text text-anchor="middle" x="409.9344" y="-255.0089" font-family="Helvetica,sans-Serif" font-size="10.00" fill="#000000">21</text>
</a>
</g>
</g>
<!-- dir_55bb03bc4479a61c5f6db133927cb48c -->
<g id="node6" class="node">
<title>dir_55bb03bc4479a61c5f6db133927cb48c</title>
<g id="a_node6"><a xlink:href="dir_55bb03bc4479a61c5f6db133927cb48c.html" target="_top" xlink:title="Raw">
<polygon fill="none" stroke="#ff0000" points="301.2995,-252 247.2995,-252 247.2995,-216 301.2995,-216 301.2995,-252"/>
<text text-anchor="middle" x="274.2995" y="-231.5" font-family="Helvetica,sans-Serif" font-size="10.00" fill="#000000">Raw</text>
</a>
</g>
</g>
<!-- dir_d175ccbdd0bad50605561880a8518417&#45;&gt;dir_55bb03bc4479a61c5f6db133927cb48c -->
<g id="edge23" class="edge">
<title>dir_d175ccbdd0bad50605561880a8518417&#45;&gt;dir_55bb03bc4479a61c5f6db133927cb48c</title>
<path fill="none" stroke="#000000" d="M230.1877,-287.8314C237.0525,-279.454 245.3295,-269.3531 252.8506,-260.1749"/>
<polygon fill="#000000" stroke="#000000" points="255.5798,-262.3665 259.2108,-252.4133 250.1654,-257.9297 255.5798,-262.3665"/>
<g id="a_edge23&#45;headlabel"><a xlink:href="dir_000395_000411.html" target="_top" xlink:title="4">
<text text-anchor="middle" x="255.4976" y="-264.4464" font-family="Helvetica,sans-Serif" font-size="10.00" fill="#000000">4</text>
</a>
</g>
</g>
<!-- dir_2810eaf0225063d73e08d8eeeb8a37b8 -->
<g id="node7" class="node">
<title>dir_2810eaf0225063d73e08d8eeeb8a37b8</title>
<g id="a_node7"><a xlink:href="dir_2810eaf0225063d73e08d8eeeb8a37b8.html" target="_top" xlink:title="Simulation">
<polygon fill="none" stroke="#ff0000" points="186.7995,-252 117.7995,-252 117.7995,-216 186.7995,-216 186.7995,-252"/>
<text text-anchor="middle" x="152.2995" y="-231.5" font-family="Helvetica,sans-Serif" font-size="10.00" fill="#000000">Simulation</text>
</a>
</g>
</g>
<!-- dir_d175ccbdd0bad50605561880a8518417&#45;&gt;dir_2810eaf0225063d73e08d8eeeb8a37b8 -->
<g id="edge24" class="edge">
<title>dir_d175ccbdd0bad50605561880a8518417&#45;&gt;dir_2810eaf0225063d73e08d8eeeb8a37b8</title>
<path fill="none" stroke="#000000" d="M199.4019,-287.8314C192.0717,-279.454 183.2335,-269.3531 175.2026,-260.1749"/>
<polygon fill="#000000" stroke="#000000" points="177.6302,-257.6343 168.4111,-252.4133 172.3621,-262.2438 177.6302,-257.6343"/>
<g id="a_edge24&#45;headlabel"><a xlink:href="dir_000395_000170.html" target="_top" xlink:title="10">
<text text-anchor="middle" x="182.134" y="-255.9698" font-family="Helvetica,sans-Serif" font-size="10.00" fill="#000000">10</text>
</a>
</g>
</g>
<!-- dir_c6781640d5720511e35c6e7f87460ee7 -->
<g id="node8" class="node">
<title>dir_c6781640d5720511e35c6e7f87460ee7</title>
<g id="a_node8"><a xlink:href="dir_c6781640d5720511e35c6e7f87460ee7.html" target="_top" xlink:title="Tracking">
<polygon fill="none" stroke="#ff0000" points="85.7995,-180 28.7995,-180 28.7995,-144 85.7995,-144 85.7995,-180"/>
<text text-anchor="middle" x="57.2995" y="-159.5" font-family="Helvetica,sans-Serif" font-size="10.00" fill="#000000">Tracking</text>
</a>
</g>
</g>
<!-- dir_d175ccbdd0bad50605561880a8518417&#45;&gt;dir_c6781640d5720511e35c6e7f87460ee7 -->
<g id="edge25" class="edge">
<title>dir_d175ccbdd0bad50605561880a8518417&#45;&gt;dir_c6781640d5720511e35c6e7f87460ee7</title>
<path fill="none" stroke="#000000" d="M188.0065,-297.3079C164.6246,-288.7654 131.1961,-273.8194 108.2995,-252 89.9478,-234.5117 76.3287,-208.9473 67.8025,-189.5294"/>
<polygon fill="#000000" stroke="#000000" points="71.0181,-188.1469 63.9188,-180.2824 64.5642,-190.8575 71.0181,-188.1469"/>
<g id="a_edge25&#45;headlabel"><a xlink:href="dir_000395_000482.html" target="_top" xlink:title="2">
<text text-anchor="middle" x="75.0277" y="-187.8617" font-family="Helvetica,sans-Serif" font-size="10.00" fill="#000000">2</text>
</a>
</g>
</g>
<!-- dir_bcbb2cf9a3d3d83e5515c82071a07177 -->
<g id="node9" class="node">
<title>dir_bcbb2cf9a3d3d83e5515c82071a07177</title>
<g id="a_node9"><a xlink:href="dir_bcbb2cf9a3d3d83e5515c82071a07177.html" target="_top" xlink:title="Framework">
<polygon fill="none" stroke="#ff0000" points="368.7995,-36 297.7995,-36 297.7995,0 368.7995,0 368.7995,-36"/>
<text text-anchor="middle" x="333.2995" y="-15.5" font-family="Helvetica,sans-Serif" font-size="10.00" fill="#000000">Framework</text>
</a>
</g>
</g>
<!-- dir_d175ccbdd0bad50605561880a8518417&#45;&gt;dir_bcbb2cf9a3d3d83e5515c82071a07177 -->
<g id="edge26" class="edge">
<title>dir_d175ccbdd0bad50605561880a8518417&#45;&gt;dir_bcbb2cf9a3d3d83e5515c82071a07177</title>
<path fill="none" stroke="#000000" d="M242.5055,-299.006C268.4428,-291.1821 307.2972,-276.3101 333.2995,-252 359.8837,-227.1459 363.3588,-215.2776 372.2995,-180 384.279,-132.7318 363.5742,-77.4753 348.0331,-45.2435"/>
<polygon fill="#000000" stroke="#000000" points="351.0209,-43.3926 343.4177,-36.014 344.76,-46.5235 351.0209,-43.3926"/>
<g id="a_edge26&#45;headlabel"><a xlink:href="dir_000395_000044.html" target="_top" xlink:title="50">
<text text-anchor="middle" x="355.168" y="-42.8377" font-family="Helvetica,sans-Serif" font-size="10.00" fill="#000000">50</text>
</a>
</g>
</g>
<!-- dir_2171f7ec022c5423887b07c69b2f5b48 -->
<g id="node10" class="node">
<title>dir_2171f7ec022c5423887b07c69b2f5b48</title>
<g id="a_node10"><a xlink:href="dir_2171f7ec022c5423887b07c69b2f5b48.html" target="_top" xlink:title="DataFormats">
<polygon fill="none" stroke="#ff0000" points="257.2995,-108 177.2995,-108 177.2995,-72 257.2995,-72 257.2995,-108"/>
<text text-anchor="middle" x="217.2995" y="-87.5" font-family="Helvetica,sans-Serif" font-size="10.00" fill="#000000">DataFormats</text>
</a>
</g>
</g>
<!-- dir_d175ccbdd0bad50605561880a8518417&#45;&gt;dir_2171f7ec022c5423887b07c69b2f5b48 -->
<g id="edge27" class="edge">
<title>dir_d175ccbdd0bad50605561880a8518417&#45;&gt;dir_2171f7ec022c5423887b07c69b2f5b48</title>
<path fill="none" stroke="#000000" d="M188.0921,-299.8286C158.6754,-292.1896 111.4255,-277.0302 77.2995,-252 33.3661,-219.7765 -13.7719,-187.2987 19.2995,-144 37.1422,-120.6395 114.2378,-104.9594 166.7934,-96.7637"/>
<polygon fill="#000000" stroke="#000000" points="167.5897,-100.183 176.9525,-95.2243 166.5409,-93.262 167.5897,-100.183"/>
<g id="a_edge27&#45;headlabel"><a xlink:href="dir_000395_000068.html" target="_top" xlink:title="21">
<text text-anchor="middle" x="164.461" y="-101.0287" font-family="Helvetica,sans-Serif" font-size="10.00" fill="#000000">21</text>
</a>
</g>
</g>
<!-- dir_4ab6b4cc6a7edbff49100e9123df213f&#45;&gt;dir_2171f7ec022c5423887b07c69b2f5b48 -->
<g id="edge1" class="edge">
<title>dir_4ab6b4cc6a7edbff49100e9123df213f&#45;&gt;dir_2171f7ec022c5423887b07c69b2f5b48</title>
<path fill="none" stroke="#000000" d="M302.7573,-146.5542C286.189,-136.9834 265.8302,-124.4978 249.0857,-113.6934"/>
<polygon fill="#000000" stroke="#000000" points="250.9856,-110.7539 240.698,-108.221 247.1606,-116.6165 250.9856,-110.7539"/>
<g id="a_edge1&#45;headlabel"><a xlink:href="dir_000026_000068.html" target="_top" xlink:title="2">
<text text-anchor="middle" x="255.5476" y="-107.8402" font-family="Helvetica,sans-Serif" font-size="10.00" fill="#000000">2</text>
</a>
</g>
</g>
<!-- dir_754f2fe7806627988f6bd801b7f2fe5b&#45;&gt;dir_2171f7ec022c5423887b07c69b2f5b48 -->
<g id="edge2" class="edge">
<title>dir_754f2fe7806627988f6bd801b7f2fe5b&#45;&gt;dir_2171f7ec022c5423887b07c69b2f5b48</title>
<path fill="none" stroke="#000000" d="M214.3089,-143.8314C214.7367,-136.131 215.2454,-126.9743 215.7208,-118.4166"/>
<polygon fill="#000000" stroke="#000000" points="219.2163,-118.592 216.2765,-108.4133 212.2271,-118.2037 219.2163,-118.592"/>
<g id="a_edge2&#45;headlabel"><a xlink:href="dir_000408_000068.html" target="_top" xlink:title="5">
<text text-anchor="middle" x="221.8519" y="-119.8386" font-family="Helvetica,sans-Serif" font-size="10.00" fill="#000000">5</text>
</a>
</g>
</g>
<!-- dir_37c90836491b695b472bf98d1be8336b&#45;&gt;dir_4ab6b4cc6a7edbff49100e9123df213f -->
<g id="edge3" class="edge">
<title>dir_37c90836491b695b472bf98d1be8336b&#45;&gt;dir_4ab6b4cc6a7edbff49100e9123df213f</title>
<path fill="none" stroke="#000000" d="M234.534,-36.1033C244.1372,-46.4081 256.1658,-59.682 266.2995,-72 283.3157,-92.6841 301.3814,-117.1127 314.4602,-135.2964"/>
<polygon fill="#000000" stroke="#000000" points="311.7898,-137.5792 320.4537,-143.6774 317.4837,-133.5074 311.7898,-137.5792"/>
<g id="a_edge3&#45;headlabel"><a xlink:href="dir_000266_000026.html" target="_top" xlink:title="16">
<text text-anchor="middle" x="307.3894" y="-133.8069" font-family="Helvetica,sans-Serif" font-size="10.00" fill="#000000">16</text>
</a>
</g>
</g>
<!-- dir_37c90836491b695b472bf98d1be8336b&#45;&gt;dir_2171f7ec022c5423887b07c69b2f5b48 -->
<g id="edge4" class="edge">
<title>dir_37c90836491b695b472bf98d1be8336b&#45;&gt;dir_2171f7ec022c5423887b07c69b2f5b48</title>
<path fill="none" stroke="#000000" d="M223.2755,-36.4133C224.0066,-44.0593 224.2198,-53.1084 223.915,-61.5726"/>
<polygon fill="#000000" stroke="#000000" points="220.4043,-61.6264 223.2519,-71.8314 227.3897,-62.078 220.4043,-61.6264"/>
<g id="a_edge4&#45;headlabel"><a xlink:href="dir_000266_000068.html" target="_top" xlink:title="7">
<text text-anchor="middle" x="217.8027" y="-55.3562" font-family="Helvetica,sans-Serif" font-size="10.00" fill="#000000">7</text>
</a>
</g>
</g>
<!-- dir_2bb5eb61d33140858f79122ad9ee2c7f&#45;&gt;dir_bcbb2cf9a3d3d83e5515c82071a07177 -->
<g id="edge5" class="edge">
<title>dir_2bb5eb61d33140858f79122ad9ee2c7f&#45;&gt;dir_bcbb2cf9a3d3d83e5515c82071a07177</title>
<path fill="none" stroke="#000000" d="M446.6215,-215.8759C444.6364,-184.1344 436.8466,-117.5351 406.2995,-72 398.3844,-60.2015 386.9948,-50.0175 375.558,-41.7737"/>
<polygon fill="#000000" stroke="#000000" points="377.5038,-38.8642 367.2709,-36.1184 373.558,-44.6462 377.5038,-38.8642"/>
<g id="a_edge5&#45;headlabel"><a xlink:href="dir_000373_000044.html" target="_top" xlink:title="10">
<text text-anchor="middle" x="382.0733" y="-36.0452" font-family="Helvetica,sans-Serif" font-size="10.00" fill="#000000">10</text>
</a>
</g>
</g>
<!-- dir_55bb03bc4479a61c5f6db133927cb48c&#45;&gt;dir_4ab6b4cc6a7edbff49100e9123df213f -->
<g id="edge6" class="edge">
<title>dir_55bb03bc4479a61c5f6db133927cb48c&#45;&gt;dir_4ab6b4cc6a7edbff49100e9123df213f</title>
<path fill="none" stroke="#000000" d="M289.1877,-215.8314C296.0525,-207.454 304.3295,-197.3531 311.8506,-188.1749"/>
<polygon fill="#000000" stroke="#000000" points="314.5798,-190.3665 318.2108,-180.4133 309.1654,-185.9297 314.5798,-190.3665"/>
<g id="a_edge6&#45;headlabel"><a xlink:href="dir_000411_000026.html" target="_top" xlink:title="1">
<text text-anchor="middle" x="314.4976" y="-192.4464" font-family="Helvetica,sans-Serif" font-size="10.00" fill="#000000">1</text>
</a>
</g>
</g>
<!-- dir_55bb03bc4479a61c5f6db133927cb48c&#45;&gt;dir_2171f7ec022c5423887b07c69b2f5b48 -->
<g id="edge7" class="edge">
<title>dir_55bb03bc4479a61c5f6db133927cb48c&#45;&gt;dir_2171f7ec022c5423887b07c69b2f5b48</title>
<path fill="none" stroke="#000000" d="M272.6321,-215.7557C270.4318,-197.0929 265.5629,-167.5734 255.2995,-144 251.1559,-134.483 245.1896,-124.9427 239.2083,-116.5863"/>
<polygon fill="#000000" stroke="#000000" points="241.8414,-114.2633 233.0455,-108.3571 236.2384,-118.4594 241.8414,-114.2633"/>
<g id="a_edge7&#45;headlabel"><a xlink:href="dir_000411_000068.html" target="_top" xlink:title="17">
<text text-anchor="middle" x="246.2687" y="-112.9386" font-family="Helvetica,sans-Serif" font-size="10.00" fill="#000000">17</text>
</a>
</g>
</g>
<!-- dir_2810eaf0225063d73e08d8eeeb8a37b8&#45;&gt;dir_4ab6b4cc6a7edbff49100e9123df213f -->
<g id="edge8" class="edge">
<title>dir_2810eaf0225063d73e08d8eeeb8a37b8&#45;&gt;dir_4ab6b4cc6a7edbff49100e9123df213f</title>
<path fill="none" stroke="#000000" d="M187.1981,-220.1177C217.5477,-208.0449 261.5181,-190.5539 293.285,-177.9174"/>
<polygon fill="#000000" stroke="#000000" points="294.7251,-181.1113 302.7233,-174.1629 292.1378,-174.607 294.7251,-181.1113"/>
<g id="a_edge8&#45;headlabel"><a xlink:href="dir_000170_000026.html" target="_top" xlink:title="6">
<text text-anchor="middle" x="292.4345" y="-182.5781" font-family="Helvetica,sans-Serif" font-size="10.00" fill="#000000">6</text>
</a>
</g>
</g>
<!-- dir_2810eaf0225063d73e08d8eeeb8a37b8&#45;&gt;dir_754f2fe7806627988f6bd801b7f2fe5b -->
<g id="edge9" class="edge">
<title>dir_2810eaf0225063d73e08d8eeeb8a37b8&#45;&gt;dir_754f2fe7806627988f6bd801b7f2fe5b</title>
<path fill="none" stroke="#000000" d="M167.6924,-215.8314C174.7898,-207.454 183.3475,-197.3531 191.1235,-188.1749"/>
<polygon fill="#000000" stroke="#000000" points="193.9056,-190.3056 197.6994,-180.4133 188.5647,-185.7807 193.9056,-190.3056"/>
<g id="a_edge9&#45;headlabel"><a xlink:href="dir_000170_000408.html" target="_top" xlink:title="5">
<text text-anchor="middle" x="193.7483" y="-192.3836" font-family="Helvetica,sans-Serif" font-size="10.00" fill="#000000">5</text>
</a>
</g>
</g>
<!-- dir_2810eaf0225063d73e08d8eeeb8a37b8&#45;&gt;dir_37c90836491b695b472bf98d1be8336b -->
<g id="edge10" class="edge">
<title>dir_2810eaf0225063d73e08d8eeeb8a37b8&#45;&gt;dir_37c90836491b695b472bf98d1be8336b</title>
<path fill="none" stroke="#000000" d="M150.1162,-215.8704C147.1961,-184.6881 144.8181,-119.662 168.2995,-72 173.3968,-61.6536 181.0723,-51.832 188.8452,-43.4721"/>
<polygon fill="#000000" stroke="#000000" points="191.4405,-45.8244 195.9399,-36.2324 186.4409,-40.9249 191.4405,-45.8244"/>
<g id="a_edge10&#45;headlabel"><a xlink:href="dir_000170_000266.html" target="_top" xlink:title="3">
<text text-anchor="middle" x="190.9524" y="-47.879" font-family="Helvetica,sans-Serif" font-size="10.00" fill="#000000">3</text>
</a>
</g>
</g>
<!-- dir_2810eaf0225063d73e08d8eeeb8a37b8&#45;&gt;dir_c6781640d5720511e35c6e7f87460ee7 -->
<g id="edge11" class="edge">
<title>dir_2810eaf0225063d73e08d8eeeb8a37b8&#45;&gt;dir_c6781640d5720511e35c6e7f87460ee7</title>
<path fill="none" stroke="#000000" d="M128.327,-215.8314C116.5134,-206.8779 102.1023,-195.9558 89.356,-186.2955"/>
<polygon fill="#000000" stroke="#000000" points="91.3481,-183.4137 81.2643,-180.1628 87.12,-188.9925 91.3481,-183.4137"/>
<g id="a_edge11&#45;headlabel"><a xlink:href="dir_000170_000482.html" target="_top" xlink:title="1">
<text text-anchor="middle" x="95.9279" y="-180.822" font-family="Helvetica,sans-Serif" font-size="10.00" fill="#000000">1</text>
</a>
</g>
</g>
<!-- dir_2810eaf0225063d73e08d8eeeb8a37b8&#45;&gt;dir_2171f7ec022c5423887b07c69b2f5b48 -->
<g id="edge12" class="edge">
<title>dir_2810eaf0225063d73e08d8eeeb8a37b8&#45;&gt;dir_2171f7ec022c5423887b07c69b2f5b48</title>
<path fill="none" stroke="#000000" d="M153.4878,-215.8991C155.3108,-197.0912 159.8883,-167.2177 171.2995,-144 176.2394,-133.949 183.4742,-124.2248 190.7502,-115.8635"/>
<polygon fill="#000000" stroke="#000000" points="193.5018,-118.0409 197.6652,-108.2983 188.335,-113.3181 193.5018,-118.0409"/>
<g id="a_edge12&#45;headlabel"><a xlink:href="dir_000170_000068.html" target="_top" xlink:title="28">
<text text-anchor="middle" x="193.1723" y="-120.1096" font-family="Helvetica,sans-Serif" font-size="10.00" fill="#000000">28</text>
</a>
</g>
</g>
<!-- dir_c6781640d5720511e35c6e7f87460ee7&#45;&gt;dir_2171f7ec022c5423887b07c69b2f5b48 -->
<g id="edge13" class="edge">
<title>dir_c6781640d5720511e35c6e7f87460ee7&#45;&gt;dir_2171f7ec022c5423887b07c69b2f5b48</title>
<path fill="none" stroke="#000000" d="M85.9043,-149.1278C108.6591,-138.8882 141.0343,-124.3193 167.9537,-112.2056"/>
<polygon fill="#000000" stroke="#000000" points="169.5402,-115.3298 177.2231,-108.0344 166.6676,-108.9463 169.5402,-115.3298"/>
<g id="a_edge13&#45;headlabel"><a xlink:href="dir_000482_000068.html" target="_top" xlink:title="8">
<text text-anchor="middle" x="167.4273" y="-116.894" font-family="Helvetica,sans-Serif" font-size="10.00" fill="#000000">8</text>
</a>
</g>
</g>
<!-- dir_bcbb2cf9a3d3d83e5515c82071a07177&#45;&gt;dir_4ab6b4cc6a7edbff49100e9123df213f -->
<g id="edge14" class="edge">
<title>dir_bcbb2cf9a3d3d83e5515c82071a07177&#45;&gt;dir_4ab6b4cc6a7edbff49100e9123df213f</title>
<path fill="none" stroke="#000000" d="M333.2995,-36.0896C333.2995,-60.5727 333.2995,-104.5174 333.2995,-133.4713"/>
<polygon fill="#000000" stroke="#000000" points="329.7996,-133.7623 333.2995,-143.7623 336.7996,-133.7623 329.7996,-133.7623"/>
<g id="a_edge14&#45;headlabel"><a xlink:href="dir_000044_000026.html" target="_top" xlink:title="8">
<text text-anchor="middle" x="326.9602" y="-127.6677" font-family="Helvetica,sans-Serif" font-size="10.00" fill="#000000">8</text>
</a>
</g>
</g>
<!-- dir_bcbb2cf9a3d3d83e5515c82071a07177&#45;&gt;dir_2171f7ec022c5423887b07c69b2f5b48 -->
<g id="edge15" class="edge">
<title>dir_bcbb2cf9a3d3d83e5515c82071a07177&#45;&gt;dir_2171f7ec022c5423887b07c69b2f5b48</title>
<path fill="none" stroke="#000000" d="M309.989,-36.1628C296.0511,-45.3712 277.999,-56.6631 261.4963,-66.5232"/>
<polygon fill="#000000" stroke="#000000" points="259.3482,-63.7273 252.5236,-71.8314 262.9124,-69.752 259.3482,-63.7273"/>
<g id="a_edge15&#45;headlabel"><a xlink:href="dir_000044_000068.html" target="_top" xlink:title="72">
<text text-anchor="middle" x="260.9963" y="-56.9535" font-family="Helvetica,sans-Serif" font-size="10.00" fill="#000000">72</text>
</a>
</g>
</g>
<!-- dir_2171f7ec022c5423887b07c69b2f5b48&#45;&gt;dir_4ab6b4cc6a7edbff49100e9123df213f -->
<g id="edge16" class="edge">
<title>dir_2171f7ec022c5423887b07c69b2f5b48&#45;&gt;dir_4ab6b4cc6a7edbff49100e9123df213f</title>
<path fill="none" stroke="#000000" d="M252.5136,-108.1628C268.1014,-117.2859 286.2407,-128.4541 301.4238,-138.2489"/>
<polygon fill="#000000" stroke="#000000" points="299.6926,-141.2984 309.9802,-143.8314 303.5175,-135.4358 299.6926,-141.2984"/>
<g id="a_edge16&#45;headlabel"><a xlink:href="dir_000068_000026.html" target="_top" xlink:title="30">
<text text-anchor="middle" x="295.1306" y="-139.2122" font-family="Helvetica,sans-Serif" font-size="10.00" fill="#000000">30</text>
</a>
</g>
</g>
<!-- dir_2171f7ec022c5423887b07c69b2f5b48&#45;&gt;dir_37c90836491b695b472bf98d1be8336b -->
<g id="edge17" class="edge">
<title>dir_2171f7ec022c5423887b07c69b2f5b48&#45;&gt;dir_37c90836491b695b472bf98d1be8336b</title>
<path fill="none" stroke="#000000" d="M211.3471,-71.8314C210.5967,-64.131 210.3758,-54.9743 210.6844,-46.4166"/>
<polygon fill="#000000" stroke="#000000" points="214.1787,-46.6161 211.3235,-36.4133 207.1929,-46.1697 214.1787,-46.6161"/>
<g id="a_edge17&#45;headlabel"><a xlink:href="dir_000068_000266.html" target="_top" xlink:title="1">
<text text-anchor="middle" x="216.7831" y="-47.8844" font-family="Helvetica,sans-Serif" font-size="10.00" fill="#000000">1</text>
</a>
</g>
</g>
<!-- dir_2171f7ec022c5423887b07c69b2f5b48&#45;&gt;dir_bcbb2cf9a3d3d83e5515c82071a07177 -->
<g id="edge18" class="edge">
<title>dir_2171f7ec022c5423887b07c69b2f5b48&#45;&gt;dir_bcbb2cf9a3d3d83e5515c82071a07177</title>
<path fill="none" stroke="#000000" d="M240.6188,-71.8314C254.5584,-62.6221 272.611,-51.3301 289.113,-41.4706"/>
<polygon fill="#000000" stroke="#000000" points="291.2606,-44.2668 298.0853,-36.1628 287.6965,-38.2421 291.2606,-44.2668"/>
<g id="a_edge18&#45;headlabel"><a xlink:href="dir_000068_000044.html" target="_top" xlink:title="7">
<text text-anchor="middle" x="289.6124" y="-46.0406" font-family="Helvetica,sans-Serif" font-size="10.00" fill="#000000">7</text>
</a>
</g>
</g>
</g>
</svg>
