<?xml version="1.0" encoding="UTF-8" standalone="no"?>
<!DOCTYPE svg PUBLIC "-//W3C//DTD SVG 1.1//EN"
 "http://www.w3.org/Graphics/SVG/1.1/DTD/svg11.dtd">
<!-- Generated by graphviz version 2.40.1 (20161225.0304)
 -->
<!-- Title: /home/travis/build/AliceO2Group/AliceO2/Detectors/FIT/workflow Pages: 1 -->
<svg width="273pt" height="447pt"
 viewBox="0.00 0.00 273.14 447.00" xmlns="http://www.w3.org/2000/svg" xmlns:xlink="http://www.w3.org/1999/xlink">
<g id="graph0" class="graph" transform="scale(1 1) rotate(0) translate(4 443)">
<title>/home/travis/build/AliceO2Group/AliceO2/Detectors/FIT/workflow</title>
<g id="clust1" class="cluster">
<title>clusterdir_d14e88a79bca429480864605ee348cef</title>
<g id="a_clust1"><a xlink:href="dir_d14e88a79bca429480864605ee348cef.html" target="_top" xlink:title="FIT">
<polygon fill="#ddddee" stroke="#000000" points="91.142,-272 91.142,-431 257.142,-431 257.142,-272 91.142,-272"/>
<text text-anchor="middle" x="174.142" y="-419" font-family="Helvetica,sans-Serif" font-size="10.00" fill="#000000">FIT</text>
</a>
</g>
</g>
<g id="clust2" class="cluster">
<title>clusterdir_5ce6e9398434f08eb70f7bcae577b527</title>
<g id="a_clust2"><a xlink:href="dir_5ce6e9398434f08eb70f7bcae577b527.html" target="_top">
<polygon fill="#eeeeff" stroke="#000000" points="99.142,-280 99.142,-404 249.142,-404 249.142,-280 99.142,-280"/>
</a>
</g>
</g>
<!-- dir_5ce6e9398434f08eb70f7bcae577b527 -->
<g id="node1" class="node">
<title>dir_5ce6e9398434f08eb70f7bcae577b527</title>
<text text-anchor="middle" x="210.142" y="-375.5" font-family="Helvetica,sans-Serif" font-size="10.00" fill="#000000">workflow</text>
</g>
<!-- dir_821e2ae7ea1fb320b002238173d2a934 -->
<g id="node2" class="node">
<title>dir_821e2ae7ea1fb320b002238173d2a934</title>
<g id="a_node2"><a xlink:href="dir_821e2ae7ea1fb320b002238173d2a934.html" target="_top" xlink:title="include">
<polygon fill="#ffffff" stroke="#ff0000" points="161.142,-324 107.142,-324 107.142,-288 161.142,-288 161.142,-324"/>
<text text-anchor="middle" x="134.142" y="-303.5" font-family="Helvetica,sans-Serif" font-size="10.00" fill="#000000">include</text>
</a>
</g>
</g>
<!-- dir_732f729910dd598014f768fa2866f334 -->
<g id="node5" class="node">
<title>dir_732f729910dd598014f768fa2866f334</title>
<g id="a_node5"><a xlink:href="dir_732f729910dd598014f768fa2866f334.html" target="_top" xlink:title="FT0">
<polygon fill="none" stroke="#ff0000" points="142.142,-252 88.142,-252 88.142,-216 142.142,-216 142.142,-252"/>
<text text-anchor="middle" x="115.142" y="-231.5" font-family="Helvetica,sans-Serif" font-size="10.00" fill="#000000">FT0</text>
</a>
</g>
</g>
<!-- dir_821e2ae7ea1fb320b002238173d2a934&#45;&gt;dir_732f729910dd598014f768fa2866f334 -->
<g id="edge9" class="edge">
<title>dir_821e2ae7ea1fb320b002238173d2a934&#45;&gt;dir_732f729910dd598014f768fa2866f334</title>
<path fill="none" stroke="#000000" d="M129.3475,-287.8314C127.2931,-280.0463 124.8459,-270.7729 122.5664,-262.1347"/>
<polygon fill="#000000" stroke="#000000" points="125.9368,-261.1892 120.001,-252.4133 119.1685,-262.9753 125.9368,-261.1892"/>
<g id="a_edge9&#45;headlabel"><a xlink:href="dir_000385_000279.html" target="_top" xlink:title="1">
<text text-anchor="middle" x="129.5992" y="-261.4404" font-family="Helvetica,sans-Serif" font-size="10.00" fill="#000000">1</text>
</a>
</g>
</g>
<!-- dir_bcbb2cf9a3d3d83e5515c82071a07177 -->
<g id="node6" class="node">
<title>dir_bcbb2cf9a3d3d83e5515c82071a07177</title>
<g id="a_node6"><a xlink:href="dir_bcbb2cf9a3d3d83e5515c82071a07177.html" target="_top" xlink:title="Framework">
<polygon fill="none" stroke="#ff0000" points="124.642,-36 53.642,-36 53.642,0 124.642,0 124.642,-36"/>
<text text-anchor="middle" x="89.142" y="-15.5" font-family="Helvetica,sans-Serif" font-size="10.00" fill="#000000">Framework</text>
</a>
</g>
</g>
<!-- dir_821e2ae7ea1fb320b002238173d2a934&#45;&gt;dir_bcbb2cf9a3d3d83e5515c82071a07177 -->
<g id="edge10" class="edge">
<title>dir_821e2ae7ea1fb320b002238173d2a934&#45;&gt;dir_bcbb2cf9a3d3d83e5515c82071a07177</title>
<path fill="none" stroke="#000000" d="M107.1166,-289.7899C75.3258,-268.9581 24.2138,-229.5044 3.142,-180 -6.624,-157.0565 11.4664,-76.3719 14.142,-72 21.6902,-59.6661 33.2192,-49.3238 44.9905,-41.0994"/>
<polygon fill="#000000" stroke="#000000" points="47.1073,-43.8968 53.5513,-35.4869 43.2693,-38.0428 47.1073,-43.8968"/>
<g id="a_edge10&#45;headlabel"><a xlink:href="dir_000385_000044.html" target="_top" xlink:title="9">
<text text-anchor="middle" x="45.6579" y="-45.7421" font-family="Helvetica,sans-Serif" font-size="10.00" fill="#000000">9</text>
</a>
</g>
</g>
<!-- dir_2171f7ec022c5423887b07c69b2f5b48 -->
<g id="node7" class="node">
<title>dir_2171f7ec022c5423887b07c69b2f5b48</title>
<g id="a_node7"><a xlink:href="dir_2171f7ec022c5423887b07c69b2f5b48.html" target="_top" xlink:title="DataFormats">
<polygon fill="none" stroke="#ff0000" points="163.142,-108 83.142,-108 83.142,-72 163.142,-72 163.142,-108"/>
<text text-anchor="middle" x="123.142" y="-87.5" font-family="Helvetica,sans-Serif" font-size="10.00" fill="#000000">DataFormats</text>
</a>
</g>
</g>
<!-- dir_821e2ae7ea1fb320b002238173d2a934&#45;&gt;dir_2171f7ec022c5423887b07c69b2f5b48 -->
<g id="edge11" class="edge">
<title>dir_821e2ae7ea1fb320b002238173d2a934&#45;&gt;dir_2171f7ec022c5423887b07c69b2f5b48</title>
<path fill="none" stroke="#000000" d="M141.3858,-287.8366C145.1131,-277.513 149.2608,-264.2403 151.142,-252 158.4587,-204.3926 153.1856,-190.8832 142.142,-144 140.1008,-135.3345 137.1617,-126.1217 134.203,-117.8054"/>
<polygon fill="#000000" stroke="#000000" points="137.4012,-116.3631 130.6434,-108.2033 130.8377,-118.7963 137.4012,-116.3631"/>
<g id="a_edge11&#45;headlabel"><a xlink:href="dir_000385_000068.html" target="_top" xlink:title="5">
<text text-anchor="middle" x="141.3128" y="-116.2467" font-family="Helvetica,sans-Serif" font-size="10.00" fill="#000000">5</text>
</a>
</g>
</g>
<!-- dir_04bb2c7e8381d8e8f3171bacbf154f17 -->
<g id="node3" class="node">
<title>dir_04bb2c7e8381d8e8f3171bacbf154f17</title>
<g id="a_node3"><a xlink:href="dir_04bb2c7e8381d8e8f3171bacbf154f17.html" target="_top" xlink:title="src">
<polygon fill="#ffffff" stroke="#000000" points="161.142,-396 107.142,-396 107.142,-360 161.142,-360 161.142,-396"/>
<text text-anchor="middle" x="134.142" y="-375.5" font-family="Helvetica,sans-Serif" font-size="10.00" fill="#000000">src</text>
</a>
</g>
</g>
<!-- dir_04bb2c7e8381d8e8f3171bacbf154f17&#45;&gt;dir_821e2ae7ea1fb320b002238173d2a934 -->
<g id="edge3" class="edge">
<title>dir_04bb2c7e8381d8e8f3171bacbf154f17&#45;&gt;dir_821e2ae7ea1fb320b002238173d2a934</title>
<path fill="none" stroke="#000000" d="M134.142,-359.8314C134.142,-352.131 134.142,-342.9743 134.142,-334.4166"/>
<polygon fill="#000000" stroke="#000000" points="137.6421,-334.4132 134.142,-324.4133 130.6421,-334.4133 137.6421,-334.4132"/>
<g id="a_edge3&#45;headlabel"><a xlink:href="dir_000399_000385.html" target="_top" xlink:title="9">
<text text-anchor="middle" x="140.4812" y="-335.5079" font-family="Helvetica,sans-Serif" font-size="10.00" fill="#000000">9</text>
</a>
</g>
</g>
<!-- dir_4ab6b4cc6a7edbff49100e9123df213f -->
<g id="node4" class="node">
<title>dir_4ab6b4cc6a7edbff49100e9123df213f</title>
<g id="a_node4"><a xlink:href="dir_4ab6b4cc6a7edbff49100e9123df213f.html" target="_top" xlink:title="Common">
<polygon fill="none" stroke="#ff0000" points="85.642,-180 24.642,-180 24.642,-144 85.642,-144 85.642,-180"/>
<text text-anchor="middle" x="55.142" y="-159.5" font-family="Helvetica,sans-Serif" font-size="10.00" fill="#000000">Common</text>
</a>
</g>
</g>
<!-- dir_04bb2c7e8381d8e8f3171bacbf154f17&#45;&gt;dir_4ab6b4cc6a7edbff49100e9123df213f -->
<g id="edge2" class="edge">
<title>dir_04bb2c7e8381d8e8f3171bacbf154f17&#45;&gt;dir_4ab6b4cc6a7edbff49100e9123df213f</title>
<path fill="none" stroke="#000000" d="M119.8804,-359.893C112.5123,-349.8033 103.8865,-336.7359 98.142,-324 77.9536,-279.2413 65.6973,-223.1045 59.6874,-190.0346"/>
<polygon fill="#000000" stroke="#000000" points="63.129,-189.3966 57.9535,-180.1519 56.2343,-190.6063 63.129,-189.3966"/>
<g id="a_edge2&#45;headlabel"><a xlink:href="dir_000399_000026.html" target="_top" xlink:title="1">
<text text-anchor="middle" x="66.5466" y="-189.9465" font-family="Helvetica,sans-Serif" font-size="10.00" fill="#000000">1</text>
</a>
</g>
</g>
<!-- dir_04bb2c7e8381d8e8f3171bacbf154f17&#45;&gt;dir_bcbb2cf9a3d3d83e5515c82071a07177 -->
<g id="edge4" class="edge">
<title>dir_04bb2c7e8381d8e8f3171bacbf154f17&#45;&gt;dir_bcbb2cf9a3d3d83e5515c82071a07177</title>
<path fill="none" stroke="#000000" d="M161.254,-360.104C194.4008,-335.8283 246.142,-289.1085 246.142,-234 246.142,-234 246.142,-234 246.142,-162 246.142,-100.7547 180.4523,-58.4912 134.0547,-36.2783"/>
<polygon fill="#000000" stroke="#000000" points="135.3123,-33.0036 124.7677,-31.9732 132.3683,-39.3544 135.3123,-33.0036"/>
<g id="a_edge4&#45;headlabel"><a xlink:href="dir_000399_000044.html" target="_top" xlink:title="7">
<text text-anchor="middle" x="139.7677" y="-29.4394" font-family="Helvetica,sans-Serif" font-size="10.00" fill="#000000">7</text>
</a>
</g>
</g>
<!-- dir_04bb2c7e8381d8e8f3171bacbf154f17&#45;&gt;dir_2171f7ec022c5423887b07c69b2f5b48 -->
<g id="edge5" class="edge">
<title>dir_04bb2c7e8381d8e8f3171bacbf154f17&#45;&gt;dir_2171f7ec022c5423887b07c69b2f5b48</title>
<path fill="none" stroke="#000000" d="M150.1325,-359.9169C157.7958,-350.0371 166.1586,-337.1563 170.142,-324 193.3605,-247.3146 187.0076,-219.485 160.142,-144 156.6916,-134.3054 151.0532,-124.7132 145.2063,-116.3638"/>
<polygon fill="#000000" stroke="#000000" points="147.8896,-114.1065 139.1206,-108.1605 142.2677,-118.2771 147.8896,-114.1065"/>
<g id="a_edge5&#45;headlabel"><a xlink:href="dir_000399_000068.html" target="_top" xlink:title="4">
<text text-anchor="middle" x="152.3116" y="-112.8017" font-family="Helvetica,sans-Serif" font-size="10.00" fill="#000000">4</text>
</a>
</g>
</g>
<!-- dir_4ab6b4cc6a7edbff49100e9123df213f&#45;&gt;dir_2171f7ec022c5423887b07c69b2f5b48 -->
<g id="edge1" class="edge">
<title>dir_4ab6b4cc6a7edbff49100e9123df213f&#45;&gt;dir_2171f7ec022c5423887b07c69b2f5b48</title>
<path fill="none" stroke="#000000" d="M66.3489,-143.8314C73.6434,-135.219 83.3207,-124.7851 92.6654,-115.4048"/>
<polygon fill="#000000" stroke="#000000" points="95.3561,-117.6679 100.0364,-108.1628 90.4502,-112.6746 95.3561,-117.6679"/>
<g id="a_edge1&#45;headlabel"><a xlink:href="dir_000026_000068.html" target="_top" xlink:title="2">
<text text-anchor="middle" x="94.7818" y="-119.7124" font-family="Helvetica,sans-Serif" font-size="10.00" fill="#000000">2</text>
</a>
</g>
</g>
<!-- dir_732f729910dd598014f768fa2866f334&#45;&gt;dir_4ab6b4cc6a7edbff49100e9123df213f -->
<g id="edge6" class="edge">
<title>dir_732f729910dd598014f768fa2866f334&#45;&gt;dir_4ab6b4cc6a7edbff49100e9123df213f</title>
<path fill="none" stroke="#000000" d="M100.0014,-215.8314C93.0203,-207.454 84.6029,-197.3531 76.9544,-188.1749"/>
<polygon fill="#000000" stroke="#000000" points="79.577,-185.8548 70.4864,-180.4133 74.1995,-190.3362 79.577,-185.8548"/>
<g id="a_edge6&#45;headlabel"><a xlink:href="dir_000279_000026.html" target="_top" xlink:title="4">
<text text-anchor="middle" x="84.0594" y="-184.2986" font-family="Helvetica,sans-Serif" font-size="10.00" fill="#000000">4</text>
</a>
</g>
</g>
<!-- dir_732f729910dd598014f768fa2866f334&#45;&gt;dir_bcbb2cf9a3d3d83e5515c82071a07177 -->
<g id="edge7" class="edge">
<title>dir_732f729910dd598014f768fa2866f334&#45;&gt;dir_bcbb2cf9a3d3d83e5515c82071a07177</title>
<path fill="none" stroke="#000000" d="M88.0434,-227.6811C64.1632,-220.5207 30.8086,-206.2649 15.142,-180 -12.2799,-134.0276 31.2282,-76.1475 62.2735,-43.489"/>
<polygon fill="#000000" stroke="#000000" points="64.9698,-45.7376 69.4568,-36.1398 59.9639,-40.8447 64.9698,-45.7376"/>
<g id="a_edge7&#45;headlabel"><a xlink:href="dir_000279_000044.html" target="_top" xlink:title="2">
<text text-anchor="middle" x="64.4876" y="-47.7928" font-family="Helvetica,sans-Serif" font-size="10.00" fill="#000000">2</text>
</a>
</g>
</g>
<!-- dir_732f729910dd598014f768fa2866f334&#45;&gt;dir_2171f7ec022c5423887b07c69b2f5b48 -->
<g id="edge8" class="edge">
<title>dir_732f729910dd598014f768fa2866f334&#45;&gt;dir_2171f7ec022c5423887b07c69b2f5b48</title>
<path fill="none" stroke="#000000" d="M111.482,-215.7623C110.3867,-191.201 112.5538,-147.2474 116.0693,-118.3541"/>
<polygon fill="#000000" stroke="#000000" points="119.5858,-118.4728 117.4787,-108.0896 112.6508,-117.5205 119.5858,-118.4728"/>
<g id="a_edge8&#45;headlabel"><a xlink:href="dir_000279_000068.html" target="_top" xlink:title="33">
<text text-anchor="middle" x="121.9098" y="-119.9202" font-family="Helvetica,sans-Serif" font-size="10.00" fill="#000000">33</text>
</a>
</g>
</g>
<!-- dir_bcbb2cf9a3d3d83e5515c82071a07177&#45;&gt;dir_4ab6b4cc6a7edbff49100e9123df213f -->
<g id="edge12" class="edge">
<title>dir_bcbb2cf9a3d3d83e5515c82071a07177&#45;&gt;dir_4ab6b4cc6a7edbff49100e9123df213f</title>
<path fill="none" stroke="#000000" d="M83.7161,-36.4191C80.7294,-46.8227 77.0502,-60.0902 74.142,-72 69.0989,-92.6524 64.1628,-116.1634 60.5862,-133.975"/>
<polygon fill="#000000" stroke="#000000" points="57.1113,-133.5049 58.5966,-143.9951 63.9773,-134.8683 57.1113,-133.5049"/>
<g id="a_edge12&#45;headlabel"><a xlink:href="dir_000044_000026.html" target="_top" xlink:title="8">
<text text-anchor="middle" x="55.0264" y="-126.9262" font-family="Helvetica,sans-Serif" font-size="10.00" fill="#000000">8</text>
</a>
</g>
</g>
<!-- dir_bcbb2cf9a3d3d83e5515c82071a07177&#45;&gt;dir_2171f7ec022c5423887b07c69b2f5b48 -->
<g id="edge13" class="edge">
<title>dir_bcbb2cf9a3d3d83e5515c82071a07177&#45;&gt;dir_2171f7ec022c5423887b07c69b2f5b48</title>
<path fill="none" stroke="#000000" d="M103.8131,-36.4133C108.2996,-44.3141 112.9405,-53.7132 116.6999,-62.417"/>
<polygon fill="#000000" stroke="#000000" points="113.5154,-63.8778 120.5147,-71.8314 120.003,-61.2489 113.5154,-63.8778"/>
<g id="a_edge13&#45;headlabel"><a xlink:href="dir_000044_000068.html" target="_top" xlink:title="72">
<text text-anchor="middle" x="109.534" y="-59.1125" font-family="Helvetica,sans-Serif" font-size="10.00" fill="#000000">72</text>
</a>
</g>
</g>
<!-- dir_2171f7ec022c5423887b07c69b2f5b48&#45;&gt;dir_4ab6b4cc6a7edbff49100e9123df213f -->
<g id="edge14" class="edge">
<title>dir_2171f7ec022c5423887b07c69b2f5b48&#45;&gt;dir_4ab6b4cc6a7edbff49100e9123df213f</title>
<path fill="none" stroke="#000000" d="M111.7277,-108.4133C104.4443,-116.9938 94.8398,-127.3414 85.5677,-136.6463"/>
<polygon fill="#000000" stroke="#000000" points="82.9346,-134.3266 78.2536,-143.8314 87.8401,-139.3202 82.9346,-134.3266"/>
<g id="a_edge14&#45;headlabel"><a xlink:href="dir_000068_000026.html" target="_top" xlink:title="30">
<text text-anchor="middle" x="83.5091" y="-127.2822" font-family="Helvetica,sans-Serif" font-size="10.00" fill="#000000">30</text>
</a>
</g>
</g>
<!-- dir_2171f7ec022c5423887b07c69b2f5b48&#45;&gt;dir_732f729910dd598014f768fa2866f334 -->
<g id="edge15" class="edge">
<title>dir_2171f7ec022c5423887b07c69b2f5b48&#45;&gt;dir_732f729910dd598014f768fa2866f334</title>
<path fill="none" stroke="#000000" d="M126.7953,-108.0896C127.9086,-132.6805 125.7268,-176.905 122.1894,-205.8531"/>
<polygon fill="#000000" stroke="#000000" points="118.7217,-205.379 120.8284,-215.7623 125.6566,-206.3316 118.7217,-205.379"/>
<g id="a_edge15&#45;headlabel"><a xlink:href="dir_000068_000279.html" target="_top" xlink:title="1">
<text text-anchor="middle" x="116.3979" y="-198.9315" font-family="Helvetica,sans-Serif" font-size="10.00" fill="#000000">1</text>
</a>
</g>
</g>
<!-- dir_2171f7ec022c5423887b07c69b2f5b48&#45;&gt;dir_bcbb2cf9a3d3d83e5515c82071a07177 -->
<g id="edge16" class="edge">
<title>dir_2171f7ec022c5423887b07c69b2f5b48&#45;&gt;dir_bcbb2cf9a3d3d83e5515c82071a07177</title>
<path fill="none" stroke="#000000" d="M108.6099,-71.8314C104.1268,-63.9617 99.4785,-54.5712 95.7009,-45.8533"/>
<polygon fill="#000000" stroke="#000000" points="98.8711,-44.3575 91.8611,-36.4133 92.3869,-46.9951 98.8711,-44.3575"/>
<g id="a_edge16&#45;headlabel"><a xlink:href="dir_000068_000044.html" target="_top" xlink:title="7">
<text text-anchor="middle" x="102.8554" y="-44.1175" font-family="Helvetica,sans-Serif" font-size="10.00" fill="#000000">7</text>
</a>
</g>
</g>
</g>
</svg>
