<?xml version="1.0" encoding="UTF-8" standalone="no"?>
<!DOCTYPE svg PUBLIC "-//W3C//DTD SVG 1.1//EN"
 "http://www.w3.org/Graphics/SVG/1.1/DTD/svg11.dtd">
<!-- Generated by graphviz version 2.40.1 (20161225.0304)
 -->
<!-- Title: Graphical Class Hierarchy Pages: 1 -->
<svg width="425pt" height="180pt"
 viewBox="0.00 0.00 425.00 180.00" xmlns="http://www.w3.org/2000/svg" xmlns:xlink="http://www.w3.org/1999/xlink">
<g id="graph0" class="graph" transform="scale(1 1) rotate(0) translate(4 176)">
<title>Graphical Class Hierarchy</title>
<!-- Node437 -->
<g id="node1" class="node">
<title>Node437</title>
<polygon fill="none" stroke="#bfbfbf" points="0,-76.5 0,-95.5 41,-95.5 41,-76.5 0,-76.5"/>
<text text-anchor="middle" x="20.5" y="-83.5" font-family="Helvetica,sans-Serif" font-size="10.00" fill="#000000">state</text>
</g>
<!-- Node0 -->
<g id="node2" class="node">
<title>Node0</title>
<g id="a_node2"><a xlink:href="dd/d93/structo2_1_1mch_1_1raw_1_1NamedState.html" target="_top" xlink:title="o2::mch::raw::NamedState">
<polygon fill="none" stroke="#000000" points="77,-76.5 77,-95.5 223,-95.5 223,-76.5 77,-76.5"/>
<text text-anchor="middle" x="150" y="-83.5" font-family="Helvetica,sans-Serif" font-size="10.00" fill="#000000">o2::mch::raw::NamedState</text>
</a>
</g>
</g>
<!-- Node437&#45;&gt;Node0 -->
<g id="edge1" class="edge">
<title>Node437&#45;&gt;Node0</title>
<path fill="none" stroke="#191970" d="M51.1001,-86C58.9708,-86 67.7844,-86 76.8209,-86"/>
<polygon fill="#191970" stroke="#191970" points="51.0197,-82.5001 41.0197,-86 51.0196,-89.5001 51.0197,-82.5001"/>
</g>
<!-- Node1 -->
<g id="node3" class="node">
<title>Node1</title>
<g id="a_node3"><a xlink:href="d8/d68/structo2_1_1mch_1_1raw_1_1WaitingHeader.html" target="_top" xlink:title="o2::mch::raw::WaitingHeader">
<polygon fill="none" stroke="#000000" points="259.5,-152.5 259.5,-171.5 416.5,-171.5 416.5,-152.5 259.5,-152.5"/>
<text text-anchor="middle" x="338" y="-159.5" font-family="Helvetica,sans-Serif" font-size="10.00" fill="#000000">o2::mch::raw::WaitingHeader</text>
</a>
</g>
</g>
<!-- Node0&#45;&gt;Node1 -->
<g id="edge2" class="edge">
<title>Node0&#45;&gt;Node1</title>
<path fill="none" stroke="#191970" d="M174.1167,-100.8224C195.6905,-113.5368 228.5208,-131.5649 259,-143 268.7735,-146.6668 279.4977,-149.8013 289.8064,-152.4049"/>
<polygon fill="#191970" stroke="#191970" points="175.7019,-97.6924 165.3228,-95.5656 172.1103,-103.7007 175.7019,-97.6924"/>
</g>
<!-- Node2 -->
<g id="node4" class="node">
<title>Node2</title>
<g id="a_node4"><a xlink:href="d1/dc8/structo2_1_1mch_1_1raw_1_1WaitingSample.html" target="_top" xlink:title="o2::mch::raw::WaitingSample">
<polygon fill="none" stroke="#000000" points="259,-114.5 259,-133.5 417,-133.5 417,-114.5 259,-114.5"/>
<text text-anchor="middle" x="338" y="-121.5" font-family="Helvetica,sans-Serif" font-size="10.00" fill="#000000">o2::mch::raw::WaitingSample</text>
</a>
</g>
</g>
<!-- Node0&#45;&gt;Node2 -->
<g id="edge3" class="edge">
<title>Node0&#45;&gt;Node2</title>
<path fill="none" stroke="#191970" d="M207.4365,-97.6095C234.1744,-103.014 265.5879,-109.3635 290.9008,-114.4799"/>
<polygon fill="#191970" stroke="#191970" points="207.9356,-94.1397 197.4403,-95.589 206.5487,-101.0009 207.9356,-94.1397"/>
</g>
<!-- Node3 -->
<g id="node5" class="node">
<title>Node3</title>
<g id="a_node5"><a xlink:href="dd/d9d/structo2_1_1mch_1_1raw_1_1WaitingSize.html" target="_top" xlink:title="o2::mch::raw::WaitingSize">
<polygon fill="none" stroke="#000000" points="267,-76.5 267,-95.5 409,-95.5 409,-76.5 267,-76.5"/>
<text text-anchor="middle" x="338" y="-83.5" font-family="Helvetica,sans-Serif" font-size="10.00" fill="#000000">o2::mch::raw::WaitingSize</text>
</a>
</g>
</g>
<!-- Node0&#45;&gt;Node3 -->
<g id="edge4" class="edge">
<title>Node0&#45;&gt;Node3</title>
<path fill="none" stroke="#191970" d="M233.3939,-86C244.5495,-86 255.9069,-86 266.8269,-86"/>
<polygon fill="#191970" stroke="#191970" points="233.2241,-82.5001 223.224,-86 233.224,-89.5001 233.2241,-82.5001"/>
</g>
<!-- Node4 -->
<g id="node6" class="node">
<title>Node4</title>
<g id="a_node6"><a xlink:href="d7/dfe/structo2_1_1mch_1_1raw_1_1WaitingSync.html" target="_top" xlink:title="o2::mch::raw::WaitingSync">
<polygon fill="none" stroke="#000000" points="265.5,-38.5 265.5,-57.5 410.5,-57.5 410.5,-38.5 265.5,-38.5"/>
<text text-anchor="middle" x="338" y="-45.5" font-family="Helvetica,sans-Serif" font-size="10.00" fill="#000000">o2::mch::raw::WaitingSync</text>
</a>
</g>
</g>
<!-- Node0&#45;&gt;Node4 -->
<g id="edge5" class="edge">
<title>Node0&#45;&gt;Node4</title>
<path fill="none" stroke="#191970" d="M207.4365,-74.3905C234.1744,-68.986 265.5879,-62.6365 290.9008,-57.5201"/>
<polygon fill="#191970" stroke="#191970" points="206.5487,-70.9991 197.4403,-76.411 207.9356,-77.8603 206.5487,-70.9991"/>
</g>
<!-- Node5 -->
<g id="node7" class="node">
<title>Node5</title>
<g id="a_node7"><a xlink:href="d7/df3/structo2_1_1mch_1_1raw_1_1WaitingTime.html" target="_top" xlink:title="o2::mch::raw::WaitingTime">
<polygon fill="none" stroke="#000000" points="265,-.5 265,-19.5 411,-19.5 411,-.5 265,-.5"/>
<text text-anchor="middle" x="338" y="-7.5" font-family="Helvetica,sans-Serif" font-size="10.00" fill="#000000">o2::mch::raw::WaitingTime</text>
</a>
</g>
</g>
<!-- Node0&#45;&gt;Node5 -->
<g id="edge6" class="edge">
<title>Node0&#45;&gt;Node5</title>
<path fill="none" stroke="#191970" d="M174.1167,-71.1776C195.6905,-58.4632 228.5208,-40.4351 259,-29 268.7735,-25.3332 279.4977,-22.1987 289.8064,-19.5951"/>
<polygon fill="#191970" stroke="#191970" points="172.1103,-68.2993 165.3228,-76.4344 175.7019,-74.3076 172.1103,-68.2993"/>
</g>
</g>
</svg>
