<?xml version="1.0" encoding="UTF-8" standalone="no"?>
<!DOCTYPE svg PUBLIC "-//W3C//DTD SVG 1.1//EN"
 "http://www.w3.org/Graphics/SVG/1.1/DTD/svg11.dtd">
<!-- Generated by graphviz version 2.40.1 (20161225.0304)
 -->
<!-- Title: Graphical Class Hierarchy Pages: 1 -->
<svg width="363pt" height="504pt"
 viewBox="0.00 0.00 363.00 503.50" xmlns="http://www.w3.org/2000/svg" xmlns:xlink="http://www.w3.org/1999/xlink">
<g id="graph0" class="graph" transform="scale(1 1) rotate(0) translate(4 499.5)">
<title>Graphical Class Hierarchy</title>
<!-- Node0 -->
<g id="node1" class="node">
<title>Node0</title>
<g id="a_node1"><a xlink:href="d0/dd7/classGPUCA__NAMESPACE_1_1gpu_1_1GPUProcessor.html" target="_top" xlink:title="GPUCA_NAMESPACE::gpu\l::GPUProcessor">
<polygon fill="none" stroke="#000000" points="0,-220.5 0,-250.5 140,-250.5 140,-220.5 0,-220.5"/>
<text text-anchor="start" x="8" y="-238.5" font-family="Helvetica,sans-Serif" font-size="10.00" fill="#000000">GPUCA_NAMESPACE::gpu</text>
<text text-anchor="middle" x="70" y="-227.5" font-family="Helvetica,sans-Serif" font-size="10.00" fill="#000000">::GPUProcessor</text>
</a>
</g>
</g>
<!-- Node1 -->
<g id="node2" class="node">
<title>Node1</title>
<g id="a_node2"><a xlink:href="de/d26/structGPUCA__NAMESPACE_1_1gpu_1_1GPUChainTracking_1_1GPUTrackingFlatObjects.html" target="_top" xlink:title="GPUCA_NAMESPACE::gpu\l::GPUChainTracking::GPUTracking\lFlatObjects">
<polygon fill="none" stroke="#000000" points="176,-454 176,-495 355,-495 355,-454 176,-454"/>
<text text-anchor="start" x="184" y="-483" font-family="Helvetica,sans-Serif" font-size="10.00" fill="#000000">GPUCA_NAMESPACE::gpu</text>
<text text-anchor="start" x="184" y="-472" font-family="Helvetica,sans-Serif" font-size="10.00" fill="#000000">::GPUChainTracking::GPUTracking</text>
<text text-anchor="middle" x="265.5" y="-461" font-family="Helvetica,sans-Serif" font-size="10.00" fill="#000000">FlatObjects</text>
</a>
</g>
</g>
<!-- Node0&#45;&gt;Node1 -->
<g id="edge1" class="edge">
<title>Node0&#45;&gt;Node1</title>
<path fill="none" stroke="#191970" d="M75.9521,-260.3594C87.6417,-303.9064 117.6897,-394.1343 176,-444.5 180.0927,-448.035 184.6174,-451.1572 189.3948,-453.9142"/>
<polygon fill="#191970" stroke="#191970" points="79.3182,-259.3959 73.4295,-250.5883 72.5405,-261.1457 79.3182,-259.3959"/>
</g>
<!-- Node2 -->
<g id="node3" class="node">
<title>Node2</title>
<g id="a_node3"><a xlink:href="d8/df8/classGPUCA__NAMESPACE_1_1gpu_1_1GPUITSFitter.html" target="_top" xlink:title="GPUCA_NAMESPACE::gpu\l::GPUITSFitter">
<polygon fill="none" stroke="#000000" points="195.5,-404.5 195.5,-434.5 335.5,-434.5 335.5,-404.5 195.5,-404.5"/>
<text text-anchor="start" x="203.5" y="-422.5" font-family="Helvetica,sans-Serif" font-size="10.00" fill="#000000">GPUCA_NAMESPACE::gpu</text>
<text text-anchor="middle" x="265.5" y="-411.5" font-family="Helvetica,sans-Serif" font-size="10.00" fill="#000000">::GPUITSFitter</text>
</a>
</g>
</g>
<!-- Node0&#45;&gt;Node2 -->
<g id="edge2" class="edge">
<title>Node0&#45;&gt;Node2</title>
<path fill="none" stroke="#191970" d="M79.8771,-260.359C95.1496,-295.5722 127.8502,-359.5707 176,-394.5 181.8764,-398.763 188.4524,-402.2997 195.3004,-405.2338"/>
<polygon fill="#191970" stroke="#191970" points="82.9709,-258.6873 75.8657,-250.8281 76.5191,-261.4028 82.9709,-258.6873"/>
</g>
<!-- Node3 -->
<g id="node4" class="node">
<title>Node3</title>
<g id="a_node4"><a xlink:href="d2/d83/structGPUCA__NAMESPACE_1_1gpu_1_1GPUReconstructionCPU_1_1GPUProcessorProcessors.html" target="_top" xlink:title="GPUCA_NAMESPACE::gpu\l::GPUReconstructionCPU\l::GPUProcessorProcessors">
<polygon fill="none" stroke="#000000" points="194,-344 194,-385 337,-385 337,-344 194,-344"/>
<text text-anchor="start" x="202" y="-373" font-family="Helvetica,sans-Serif" font-size="10.00" fill="#000000">GPUCA_NAMESPACE::gpu</text>
<text text-anchor="start" x="202" y="-362" font-family="Helvetica,sans-Serif" font-size="10.00" fill="#000000">::GPUReconstructionCPU</text>
<text text-anchor="middle" x="265.5" y="-351" font-family="Helvetica,sans-Serif" font-size="10.00" fill="#000000">::GPUProcessorProcessors</text>
</a>
</g>
</g>
<!-- Node0&#45;&gt;Node3 -->
<g id="edge3" class="edge">
<title>Node0&#45;&gt;Node3</title>
<path fill="none" stroke="#191970" d="M89.1514,-258.3657C108.872,-280.6034 141.5137,-313.9522 176,-334.5 181.7721,-337.9392 187.991,-341.0463 194.3656,-343.8394"/>
<polygon fill="#191970" stroke="#191970" points="91.6987,-255.9612 82.4911,-250.7198 86.4204,-260.5591 91.6987,-255.9612"/>
</g>
<!-- Node4 -->
<g id="node5" class="node">
<title>Node4</title>
<g id="a_node5"><a xlink:href="da/dac/classGPUCA__NAMESPACE_1_1gpu_1_1GPUTPCClusterFinder.html" target="_top" xlink:title="GPUCA_NAMESPACE::gpu\l::GPUTPCClusterFinder">
<polygon fill="none" stroke="#000000" points="195.5,-294.5 195.5,-324.5 335.5,-324.5 335.5,-294.5 195.5,-294.5"/>
<text text-anchor="start" x="203.5" y="-312.5" font-family="Helvetica,sans-Serif" font-size="10.00" fill="#000000">GPUCA_NAMESPACE::gpu</text>
<text text-anchor="middle" x="265.5" y="-301.5" font-family="Helvetica,sans-Serif" font-size="10.00" fill="#000000">::GPUTPCClusterFinder</text>
</a>
</g>
</g>
<!-- Node0&#45;&gt;Node4 -->
<g id="edge4" class="edge">
<title>Node0&#45;&gt;Node4</title>
<path fill="none" stroke="#191970" d="M107.7026,-255.3017C127.641,-265.2534 152.7459,-276.9754 176,-285.5 184.7605,-288.7114 194.1454,-291.6996 203.4222,-294.4009"/>
<polygon fill="#191970" stroke="#191970" points="109.1501,-252.1117 98.6462,-250.7265 105.9936,-258.3597 109.1501,-252.1117"/>
</g>
<!-- Node5 -->
<g id="node6" class="node">
<title>Node5</title>
<g id="a_node6"><a xlink:href="d0/da0/classGPUCA__NAMESPACE_1_1gpu_1_1GPUTPCCompression.html" target="_top" xlink:title="GPUCA_NAMESPACE::gpu\l::GPUTPCCompression">
<polygon fill="none" stroke="#000000" points="195.5,-245.5 195.5,-275.5 335.5,-275.5 335.5,-245.5 195.5,-245.5"/>
<text text-anchor="start" x="203.5" y="-263.5" font-family="Helvetica,sans-Serif" font-size="10.00" fill="#000000">GPUCA_NAMESPACE::gpu</text>
<text text-anchor="middle" x="265.5" y="-252.5" font-family="Helvetica,sans-Serif" font-size="10.00" fill="#000000">::GPUTPCCompression</text>
</a>
</g>
</g>
<!-- Node0&#45;&gt;Node5 -->
<g id="edge5" class="edge">
<title>Node0&#45;&gt;Node5</title>
<path fill="none" stroke="#191970" d="M150.2608,-245.7635C165.1977,-247.6736 180.6978,-249.6557 195.3041,-251.5235"/>
<polygon fill="#191970" stroke="#191970" points="150.391,-242.2518 140.0278,-244.455 149.503,-249.1952 150.391,-242.2518"/>
</g>
<!-- Node6 -->
<g id="node7" class="node">
<title>Node6</title>
<g id="a_node7"><a xlink:href="d3/d6f/classGPUCA__NAMESPACE_1_1gpu_1_1GPUTPCConvert.html" target="_top" xlink:title="GPUCA_NAMESPACE::gpu\l::GPUTPCConvert">
<polygon fill="none" stroke="#000000" points="195.5,-196.5 195.5,-226.5 335.5,-226.5 335.5,-196.5 195.5,-196.5"/>
<text text-anchor="start" x="203.5" y="-214.5" font-family="Helvetica,sans-Serif" font-size="10.00" fill="#000000">GPUCA_NAMESPACE::gpu</text>
<text text-anchor="middle" x="265.5" y="-203.5" font-family="Helvetica,sans-Serif" font-size="10.00" fill="#000000">::GPUTPCConvert</text>
</a>
</g>
</g>
<!-- Node0&#45;&gt;Node6 -->
<g id="edge6" class="edge">
<title>Node0&#45;&gt;Node6</title>
<path fill="none" stroke="#191970" d="M150.2608,-225.647C165.1977,-223.8133 180.6978,-221.9105 195.3041,-220.1174"/>
<polygon fill="#191970" stroke="#191970" points="149.5268,-222.2108 140.0278,-226.9032 150.3798,-229.1586 149.5268,-222.2108"/>
</g>
<!-- Node7 -->
<g id="node8" class="node">
<title>Node7</title>
<g id="a_node8"><a xlink:href="d5/d35/classGPUCA__NAMESPACE_1_1gpu_1_1GPUTPCGMMerger.html" target="_top" xlink:title="GPUCA_NAMESPACE::gpu\l::GPUTPCGMMerger">
<polygon fill="none" stroke="#000000" points="195.5,-147.5 195.5,-177.5 335.5,-177.5 335.5,-147.5 195.5,-147.5"/>
<text text-anchor="start" x="203.5" y="-165.5" font-family="Helvetica,sans-Serif" font-size="10.00" fill="#000000">GPUCA_NAMESPACE::gpu</text>
<text text-anchor="middle" x="265.5" y="-154.5" font-family="Helvetica,sans-Serif" font-size="10.00" fill="#000000">::GPUTPCGMMerger</text>
</a>
</g>
</g>
<!-- Node0&#45;&gt;Node7 -->
<g id="edge7" class="edge">
<title>Node0&#45;&gt;Node7</title>
<path fill="none" stroke="#191970" d="M109.3722,-215.936C129.0818,-206.5908 153.4847,-195.688 176,-187.5 185.7034,-183.9712 196.1488,-180.6443 206.3588,-177.6389"/>
<polygon fill="#191970" stroke="#191970" points="107.6068,-212.9008 100.1023,-220.3797 110.6328,-219.213 107.6068,-212.9008"/>
</g>
<!-- Node8 -->
<g id="node9" class="node">
<title>Node8</title>
<g id="a_node9"><a xlink:href="d3/dd4/classGPUCA__NAMESPACE_1_1gpu_1_1GPUTPCTracker.html" target="_top" xlink:title="GPUCA_NAMESPACE::gpu\l::GPUTPCTracker">
<polygon fill="none" stroke="#000000" points="195.5,-98.5 195.5,-128.5 335.5,-128.5 335.5,-98.5 195.5,-98.5"/>
<text text-anchor="start" x="203.5" y="-116.5" font-family="Helvetica,sans-Serif" font-size="10.00" fill="#000000">GPUCA_NAMESPACE::gpu</text>
<text text-anchor="middle" x="265.5" y="-105.5" font-family="Helvetica,sans-Serif" font-size="10.00" fill="#000000">::GPUTPCTracker</text>
</a>
</g>
</g>
<!-- Node0&#45;&gt;Node8 -->
<g id="edge8" class="edge">
<title>Node0&#45;&gt;Node8</title>
<path fill="none" stroke="#191970" d="M89.0301,-212.741C108.6576,-190.6799 141.2297,-157.8005 176,-138.5 182.9117,-134.6634 190.4565,-131.3796 198.1388,-128.5775"/>
<polygon fill="#191970" stroke="#191970" points="86.3421,-210.4981 82.4045,-220.3341 91.6165,-215.1004 86.3421,-210.4981"/>
</g>
<!-- Node9 -->
<g id="node10" class="node">
<title>Node9</title>
<g id="a_node10"><a xlink:href="db/d07/classGPUCA__NAMESPACE_1_1gpu_1_1GPUTrackingInputProvider.html" target="_top" xlink:title="GPUCA_NAMESPACE::gpu\l::GPUTrackingInputProvider">
<polygon fill="none" stroke="#000000" points="191,-49.5 191,-79.5 340,-79.5 340,-49.5 191,-49.5"/>
<text text-anchor="start" x="199" y="-67.5" font-family="Helvetica,sans-Serif" font-size="10.00" fill="#000000">GPUCA_NAMESPACE::gpu</text>
<text text-anchor="middle" x="265.5" y="-56.5" font-family="Helvetica,sans-Serif" font-size="10.00" fill="#000000">::GPUTrackingInputProvider</text>
</a>
</g>
</g>
<!-- Node0&#45;&gt;Node9 -->
<g id="edge9" class="edge">
<title>Node0&#45;&gt;Node9</title>
<path fill="none" stroke="#191970" d="M81.3767,-210.7538C97.6804,-178.0566 130.7863,-120.9395 176,-89.5 181.5631,-85.6317 187.7099,-82.3597 194.099,-79.5926"/>
<polygon fill="#191970" stroke="#191970" points="78.0771,-209.5368 76.8616,-220.0617 84.3752,-212.592 78.0771,-209.5368"/>
</g>
<!-- Node10 -->
<g id="node11" class="node">
<title>Node10</title>
<g id="a_node11"><a xlink:href="d0/d77/classGPUCA__NAMESPACE_1_1gpu_1_1GPUTRDTracker.html" target="_top" xlink:title="GPUCA_NAMESPACE::gpu\l::GPUTRDTracker">
<polygon fill="none" stroke="#000000" points="195.5,-.5 195.5,-30.5 335.5,-30.5 335.5,-.5 195.5,-.5"/>
<text text-anchor="start" x="203.5" y="-18.5" font-family="Helvetica,sans-Serif" font-size="10.00" fill="#000000">GPUCA_NAMESPACE::gpu</text>
<text text-anchor="middle" x="265.5" y="-7.5" font-family="Helvetica,sans-Serif" font-size="10.00" fill="#000000">::GPUTRDTracker</text>
</a>
</g>
</g>
<!-- Node0&#45;&gt;Node10 -->
<g id="edge10" class="edge">
<title>Node0&#45;&gt;Node10</title>
<path fill="none" stroke="#191970" d="M76.6268,-210.5586C88.9912,-168.932 119.5776,-85.4436 176,-40.5 181.8047,-35.8762 188.4131,-32.1069 195.3489,-29.0343"/>
<polygon fill="#191970" stroke="#191970" points="73.1899,-209.8477 73.8071,-220.4246 79.9204,-211.7714 73.1899,-209.8477"/>
</g>
</g>
</svg>
