<?xml version="1.0" encoding="UTF-8" standalone="no"?>
<!DOCTYPE svg PUBLIC "-//W3C//DTD SVG 1.1//EN"
 "http://www.w3.org/Graphics/SVG/1.1/DTD/svg11.dtd">
<!-- Generated by graphviz version 2.40.1 (20161225.0304)
 -->
<!-- Title: /home/travis/build/AliceO2Group/AliceO2/GPU/TPCFastTransformation/SplineHelper1D.h Pages: 1 -->
<svg width="509pt" height="239pt"
 viewBox="0.00 0.00 509.00 239.00" xmlns="http://www.w3.org/2000/svg" xmlns:xlink="http://www.w3.org/1999/xlink">
<g id="graph0" class="graph" transform="scale(1 1) rotate(0) translate(4 235)">
<title>/home/travis/build/AliceO2Group/AliceO2/GPU/TPCFastTransformation/SplineHelper1D.h</title>
<!-- Node16 -->
<g id="node1" class="node">
<title>Node16</title>
<polygon fill="#bfbfbf" stroke="#000000" points="173,-178.5 173,-230.5 328,-230.5 328,-178.5 173,-178.5"/>
<text text-anchor="start" x="181" y="-218.5" font-family="Helvetica,sans-Serif" font-size="10.00" fill="#000000">/home/travis/build</text>
<text text-anchor="start" x="181" y="-207.5" font-family="Helvetica,sans-Serif" font-size="10.00" fill="#000000">/AliceO2Group/AliceO2</text>
<text text-anchor="start" x="181" y="-196.5" font-family="Helvetica,sans-Serif" font-size="10.00" fill="#000000">/GPU/TPCFastTransformation</text>
<text text-anchor="middle" x="250.5" y="-185.5" font-family="Helvetica,sans-Serif" font-size="10.00" fill="#000000">/SplineHelper1D.h</text>
</g>
<!-- Node17 -->
<g id="node2" class="node">
<title>Node17</title>
<g id="a_node2"><a xlink:href="../../d5/d69/Spline1D_8cxx.html" target="_top" xlink:title="Implementation of Spline1D class. ">
<polygon fill="none" stroke="#000000" points="0,-89.5 0,-141.5 155,-141.5 155,-89.5 0,-89.5"/>
<text text-anchor="start" x="8" y="-129.5" font-family="Helvetica,sans-Serif" font-size="10.00" fill="#000000">/home/travis/build</text>
<text text-anchor="start" x="8" y="-118.5" font-family="Helvetica,sans-Serif" font-size="10.00" fill="#000000">/AliceO2Group/AliceO2</text>
<text text-anchor="start" x="8" y="-107.5" font-family="Helvetica,sans-Serif" font-size="10.00" fill="#000000">/GPU/TPCFastTransformation</text>
<text text-anchor="middle" x="77.5" y="-96.5" font-family="Helvetica,sans-Serif" font-size="10.00" fill="#000000">/Spline1D.cxx</text>
</a>
</g>
</g>
<!-- Node16&#45;&gt;Node17 -->
<g id="edge1" class="edge">
<title>Node16&#45;&gt;Node17</title>
<path fill="none" stroke="#191970" d="M190.3675,-173.5648C170.0573,-163.1162 147.6027,-151.5644 128.1057,-141.5341"/>
<polygon fill="#191970" stroke="#191970" points="189.0366,-176.816 199.53,-178.2784 192.2388,-170.5914 189.0366,-176.816"/>
</g>
<!-- Node18 -->
<g id="node3" class="node">
<title>Node18</title>
<g id="a_node3"><a xlink:href="../../d0/d1e/SplineHelper2D_8h.html" target="_top" xlink:title="Definition of SplineHelper2D class. ">
<polygon fill="none" stroke="#000000" points="173,-89.5 173,-141.5 328,-141.5 328,-89.5 173,-89.5"/>
<text text-anchor="start" x="181" y="-129.5" font-family="Helvetica,sans-Serif" font-size="10.00" fill="#000000">/home/travis/build</text>
<text text-anchor="start" x="181" y="-118.5" font-family="Helvetica,sans-Serif" font-size="10.00" fill="#000000">/AliceO2Group/AliceO2</text>
<text text-anchor="start" x="181" y="-107.5" font-family="Helvetica,sans-Serif" font-size="10.00" fill="#000000">/GPU/TPCFastTransformation</text>
<text text-anchor="middle" x="250.5" y="-96.5" font-family="Helvetica,sans-Serif" font-size="10.00" fill="#000000">/SplineHelper2D.h</text>
</a>
</g>
</g>
<!-- Node16&#45;&gt;Node18 -->
<g id="edge2" class="edge">
<title>Node16&#45;&gt;Node18</title>
<path fill="none" stroke="#191970" d="M250.5,-168.1155C250.5,-159.2061 250.5,-149.8475 250.5,-141.5341"/>
<polygon fill="#191970" stroke="#191970" points="247.0001,-168.2784 250.5,-178.2784 254.0001,-168.2785 247.0001,-168.2784"/>
</g>
<!-- Node21 -->
<g id="node6" class="node">
<title>Node21</title>
<g id="a_node6"><a xlink:href="../../d3/dd5/SplineHelper1D_8cxx.html" target="_top" xlink:title="Implementation of SplineHelper1D class. ">
<polygon fill="none" stroke="#000000" points="346,-89.5 346,-141.5 501,-141.5 501,-89.5 346,-89.5"/>
<text text-anchor="start" x="354" y="-129.5" font-family="Helvetica,sans-Serif" font-size="10.00" fill="#000000">/home/travis/build</text>
<text text-anchor="start" x="354" y="-118.5" font-family="Helvetica,sans-Serif" font-size="10.00" fill="#000000">/AliceO2Group/AliceO2</text>
<text text-anchor="start" x="354" y="-107.5" font-family="Helvetica,sans-Serif" font-size="10.00" fill="#000000">/GPU/TPCFastTransformation</text>
<text text-anchor="middle" x="423.5" y="-96.5" font-family="Helvetica,sans-Serif" font-size="10.00" fill="#000000">/SplineHelper1D.cxx</text>
</a>
</g>
</g>
<!-- Node16&#45;&gt;Node21 -->
<g id="edge5" class="edge">
<title>Node16&#45;&gt;Node21</title>
<path fill="none" stroke="#191970" d="M310.6325,-173.5648C330.9427,-163.1162 353.3973,-151.5644 372.8943,-141.5341"/>
<polygon fill="#191970" stroke="#191970" points="308.7612,-170.5914 301.47,-178.2784 311.9634,-176.816 308.7612,-170.5914"/>
</g>
<!-- Node19 -->
<g id="node4" class="node">
<title>Node19</title>
<g id="a_node4"><a xlink:href="../../d0/d29/Spline2D_8cxx.html" target="_top" xlink:title="Implementation of Spline2D class. ">
<polygon fill="none" stroke="#000000" points="86,-.5 86,-52.5 241,-52.5 241,-.5 86,-.5"/>
<text text-anchor="start" x="94" y="-40.5" font-family="Helvetica,sans-Serif" font-size="10.00" fill="#000000">/home/travis/build</text>
<text text-anchor="start" x="94" y="-29.5" font-family="Helvetica,sans-Serif" font-size="10.00" fill="#000000">/AliceO2Group/AliceO2</text>
<text text-anchor="start" x="94" y="-18.5" font-family="Helvetica,sans-Serif" font-size="10.00" fill="#000000">/GPU/TPCFastTransformation</text>
<text text-anchor="middle" x="163.5" y="-7.5" font-family="Helvetica,sans-Serif" font-size="10.00" fill="#000000">/Spline2D.cxx</text>
</a>
</g>
</g>
<!-- Node18&#45;&gt;Node19 -->
<g id="edge3" class="edge">
<title>Node18&#45;&gt;Node19</title>
<path fill="none" stroke="#191970" d="M217.7556,-82.0029C208.2248,-72.2529 197.959,-61.7511 188.9491,-52.5341"/>
<polygon fill="#191970" stroke="#191970" points="215.3745,-84.5741 224.8677,-89.2784 220.3802,-79.6808 215.3745,-84.5741"/>
</g>
<!-- Node20 -->
<g id="node5" class="node">
<title>Node20</title>
<g id="a_node5"><a xlink:href="../../d9/da8/SplineHelper2D_8cxx.html" target="_top" xlink:title="/home/travis/build\l/AliceO2Group/AliceO2\l/GPU/TPCFastTransformation\l/SplineHelper2D.cxx">
<polygon fill="none" stroke="#000000" points="259,-.5 259,-52.5 414,-52.5 414,-.5 259,-.5"/>
<text text-anchor="start" x="267" y="-40.5" font-family="Helvetica,sans-Serif" font-size="10.00" fill="#000000">/home/travis/build</text>
<text text-anchor="start" x="267" y="-29.5" font-family="Helvetica,sans-Serif" font-size="10.00" fill="#000000">/AliceO2Group/AliceO2</text>
<text text-anchor="start" x="267" y="-18.5" font-family="Helvetica,sans-Serif" font-size="10.00" fill="#000000">/GPU/TPCFastTransformation</text>
<text text-anchor="middle" x="336.5" y="-7.5" font-family="Helvetica,sans-Serif" font-size="10.00" fill="#000000">/SplineHelper2D.cxx</text>
</a>
</g>
</g>
<!-- Node18&#45;&gt;Node20 -->
<g id="edge4" class="edge">
<title>Node18&#45;&gt;Node20</title>
<path fill="none" stroke="#191970" d="M282.868,-82.0029C292.2893,-72.2529 302.4371,-61.7511 311.3434,-52.5341"/>
<polygon fill="#191970" stroke="#191970" points="280.2696,-79.6551 275.8377,-89.2784 285.3035,-84.5193 280.2696,-79.6551"/>
</g>
</g>
</svg>
