<?xml version="1.0" encoding="UTF-8" standalone="no"?>
<!DOCTYPE svg PUBLIC "-//W3C//DTD SVG 1.1//EN"
 "http://www.w3.org/Graphics/SVG/1.1/DTD/svg11.dtd">
<!-- Generated by graphviz version 2.40.1 (20161225.0304)
 -->
<!-- Title: o2::itsmft::MFTClusterReader Pages: 1 -->
<svg width="1388pt" height="1191pt"
 viewBox="0.00 0.00 1388.00 1191.00" xmlns="http://www.w3.org/2000/svg" xmlns:xlink="http://www.w3.org/1999/xlink">
<g id="graph0" class="graph" transform="scale(1 1) rotate(0) translate(4 1187)">
<title>o2::itsmft::MFTClusterReader</title>
<!-- Node3 -->
<g id="node1" class="node">
<title>Node3</title>
<polygon fill="#bfbfbf" stroke="#000000" points="584.5,-.5 584.5,-57.5 741.5,-57.5 741.5,-.5 584.5,-.5"/>
<text text-anchor="middle" x="663" y="-45.5" font-family="Helvetica,sans-Serif" font-size="10.00" fill="#000000">o2::itsmft::MFTClusterReader</text>
<polyline fill="none" stroke="#000000" points="584.5,-38.5 741.5,-38.5 "/>
<text text-anchor="middle" x="663" y="-26.5" font-family="Helvetica,sans-Serif" font-size="10.00" fill="#000000"> </text>
<polyline fill="none" stroke="#000000" points="584.5,-19.5 741.5,-19.5 "/>
<text text-anchor="start" x="592.5" y="-7.5" font-family="Helvetica,sans-Serif" font-size="10.00" fill="#000000">+ MFTClusterReader()</text>
</g>
<!-- Node4 -->
<g id="node2" class="node">
<title>Node4</title>
<g id="a_node2"><a xlink:href="../../d1/dc3/classo2_1_1itsmft_1_1ClusterReader.html" target="_top" xlink:title="{o2::itsmft::ClusterReader\n||+ ClusterReader()\l+ ClusterReader()\l+ ~ClusterReader()\l+ init()\l+ run()\l# read()\l}">
<polygon fill="none" stroke="#000000" points="594,-95.5 594,-207.5 732,-207.5 732,-95.5 594,-95.5"/>
<text text-anchor="middle" x="663" y="-195.5" font-family="Helvetica,sans-Serif" font-size="10.00" fill="#000000">o2::itsmft::ClusterReader</text>
<polyline fill="none" stroke="#000000" points="594,-188.5 732,-188.5 "/>
<text text-anchor="middle" x="663" y="-176.5" font-family="Helvetica,sans-Serif" font-size="10.00" fill="#000000"> </text>
<polyline fill="none" stroke="#000000" points="594,-169.5 732,-169.5 "/>
<text text-anchor="start" x="602" y="-157.5" font-family="Helvetica,sans-Serif" font-size="10.00" fill="#000000">+ ClusterReader()</text>
<text text-anchor="start" x="602" y="-146.5" font-family="Helvetica,sans-Serif" font-size="10.00" fill="#000000">+ ClusterReader()</text>
<text text-anchor="start" x="602" y="-135.5" font-family="Helvetica,sans-Serif" font-size="10.00" fill="#000000">+ ~ClusterReader()</text>
<text text-anchor="start" x="602" y="-124.5" font-family="Helvetica,sans-Serif" font-size="10.00" fill="#000000">+ init()</text>
<text text-anchor="start" x="602" y="-113.5" font-family="Helvetica,sans-Serif" font-size="10.00" fill="#000000">+ run()</text>
<text text-anchor="start" x="602" y="-102.5" font-family="Helvetica,sans-Serif" font-size="10.00" fill="#000000"># read()</text>
</a>
</g>
</g>
<!-- Node4&#45;&gt;Node3 -->
<g id="edge1" class="edge">
<title>Node4&#45;&gt;Node3</title>
<path fill="none" stroke="#191970" d="M663,-85.1308C663,-75.4223 663,-65.8865 663,-57.5083"/>
<polygon fill="none" stroke="#191970" points="659.5001,-85.2694 663,-95.2694 666.5001,-85.2694 659.5001,-85.2694"/>
</g>
<!-- Node5 -->
<g id="node3" class="node">
<title>Node5</title>
<g id="a_node3"><a xlink:href="../../de/dac/classo2_1_1framework_1_1Task.html" target="_top" xlink:title="{o2::framework::Task\n||+ ~Task()\l+ init()\l+ run()\l+ endOfStream()\l}">
<polygon fill="none" stroke="#000000" points="0,-404 0,-494 116,-494 116,-404 0,-404"/>
<text text-anchor="middle" x="58" y="-482" font-family="Helvetica,sans-Serif" font-size="10.00" fill="#000000">o2::framework::Task</text>
<polyline fill="none" stroke="#000000" points="0,-475 116,-475 "/>
<text text-anchor="middle" x="58" y="-463" font-family="Helvetica,sans-Serif" font-size="10.00" fill="#000000"> </text>
<polyline fill="none" stroke="#000000" points="0,-456 116,-456 "/>
<text text-anchor="start" x="8" y="-444" font-family="Helvetica,sans-Serif" font-size="10.00" fill="#000000">+ ~Task()</text>
<text text-anchor="start" x="8" y="-433" font-family="Helvetica,sans-Serif" font-size="10.00" fill="#000000">+ init()</text>
<text text-anchor="start" x="8" y="-422" font-family="Helvetica,sans-Serif" font-size="10.00" fill="#000000">+ run()</text>
<text text-anchor="start" x="8" y="-411" font-family="Helvetica,sans-Serif" font-size="10.00" fill="#000000">+ endOfStream()</text>
</a>
</g>
</g>
<!-- Node5&#45;&gt;Node4 -->
<g id="edge2" class="edge">
<title>Node5&#45;&gt;Node4</title>
<path fill="none" stroke="#191970" d="M72.2861,-394.1527C82.9005,-360.9311 99.9282,-319.1094 125,-288 155.2503,-250.4651 169.3477,-244.1692 214,-226 281.6093,-198.4896 485.483,-171.8854 593.7302,-159.2074"/>
<polygon fill="none" stroke="#191970" points="68.9379,-393.1332 69.3288,-403.7209 75.6258,-395.2004 68.9379,-393.1332"/>
</g>
<!-- Node6 -->
<g id="node4" class="node">
<title>Node6</title>
<polygon fill="none" stroke="#bfbfbf" points="134,-415 134,-483 240,-483 240,-415 134,-415"/>
<text text-anchor="start" x="142" y="-471" font-family="Helvetica,sans-Serif" font-size="10.00" fill="#000000">vector&lt; o2::itsmft</text>
<text text-anchor="middle" x="187" y="-460" font-family="Helvetica,sans-Serif" font-size="10.00" fill="#000000">::Cluster &gt; *</text>
<polyline fill="none" stroke="#bfbfbf" points="134,-453 240,-453 "/>
<text text-anchor="middle" x="187" y="-441" font-family="Helvetica,sans-Serif" font-size="10.00" fill="#000000"> </text>
<polyline fill="none" stroke="#bfbfbf" points="134,-434 240,-434 "/>
<text text-anchor="middle" x="187" y="-422" font-family="Helvetica,sans-Serif" font-size="10.00" fill="#000000"> </text>
</g>
<!-- Node6&#45;&gt;Node4 -->
<g id="edge3" class="edge">
<title>Node6&#45;&gt;Node4</title>
<path fill="none" stroke="#404040" d="M185.6671,-414.6099C185.7695,-365.2217 193.8338,-274.7982 247,-226 294.7544,-182.1691 474.7596,-163.3524 581.7086,-155.9003"/>
<polygon fill="none" stroke="#404040" points="581.7638,-155.8966 587.4808,-151.5016 593.7366,-155.0885 588.0196,-159.4835 581.7638,-155.8966"/>
<text text-anchor="middle" x="295" y="-245.5" font-family="Helvetica,sans-Serif" font-size="10.00" fill="#000000"> #mClusterArrayPtr</text>
</g>
<!-- Node7 -->
<g id="node5" class="node">
<title>Node7</title>
<polygon fill="none" stroke="#bfbfbf" points="258,-415 258,-483 364,-483 364,-415 258,-415"/>
<text text-anchor="start" x="266" y="-471" font-family="Helvetica,sans-Serif" font-size="10.00" fill="#000000">vector&lt; o2::itsmft</text>
<text text-anchor="middle" x="311" y="-460" font-family="Helvetica,sans-Serif" font-size="10.00" fill="#000000">::ROFRecord &gt;</text>
<polyline fill="none" stroke="#bfbfbf" points="258,-453 364,-453 "/>
<text text-anchor="middle" x="311" y="-441" font-family="Helvetica,sans-Serif" font-size="10.00" fill="#000000"> </text>
<polyline fill="none" stroke="#bfbfbf" points="258,-434 364,-434 "/>
<text text-anchor="middle" x="311" y="-422" font-family="Helvetica,sans-Serif" font-size="10.00" fill="#000000"> </text>
</g>
<!-- Node7&#45;&gt;Node4 -->
<g id="edge4" class="edge">
<title>Node7&#45;&gt;Node4</title>
<path fill="none" stroke="#404040" d="M311.2058,-414.6618C313.4237,-365.7557 324.9167,-276.3961 377,-226 406.0786,-197.8633 507.8841,-176.1183 581.766,-163.569"/>
<polygon fill="none" stroke="#404040" points="581.9913,-163.5316 587.2522,-158.5998 593.8281,-161.5592 588.5672,-166.491 581.9913,-163.5316"/>
<text text-anchor="middle" x="416.5" y="-245.5" font-family="Helvetica,sans-Serif" font-size="10.00" fill="#000000"> #mClusROFRec</text>
</g>
<!-- Node8 -->
<g id="node6" class="node">
<title>Node8</title>
<g id="a_node6"><a xlink:href="../../d9/db3/structo2_1_1header_1_1Descriptor.html" target="_top" xlink:title="{o2::header::Descriptor\l\&lt; gSizeDataOriginString,\l printDataOrigin \&gt;\n||+ Descriptor()\l+ Descriptor()\l+ Descriptor()\l+ Descriptor()\l+ operator=()\l+ operator ItgType()\l+ runtimeInit()\l+ operator==()\l+ operator==()\l+ operator\&lt;()\l+ operator!=()\l+ operator!=()\l+ as()\l+ print()\l}">
<polygon fill="none" stroke="#000000" points="382,-338 382,-560 520,-560 520,-338 382,-338"/>
<text text-anchor="start" x="390" y="-548" font-family="Helvetica,sans-Serif" font-size="10.00" fill="#000000">o2::header::Descriptor</text>
<text text-anchor="start" x="390" y="-537" font-family="Helvetica,sans-Serif" font-size="10.00" fill="#000000">&lt; gSizeDataOriginString,</text>
<text text-anchor="middle" x="451" y="-526" font-family="Helvetica,sans-Serif" font-size="10.00" fill="#000000"> printDataOrigin &gt;</text>
<polyline fill="none" stroke="#000000" points="382,-519 520,-519 "/>
<text text-anchor="middle" x="451" y="-507" font-family="Helvetica,sans-Serif" font-size="10.00" fill="#000000"> </text>
<polyline fill="none" stroke="#000000" points="382,-500 520,-500 "/>
<text text-anchor="start" x="390" y="-488" font-family="Helvetica,sans-Serif" font-size="10.00" fill="#000000">+ Descriptor()</text>
<text text-anchor="start" x="390" y="-477" font-family="Helvetica,sans-Serif" font-size="10.00" fill="#000000">+ Descriptor()</text>
<text text-anchor="start" x="390" y="-466" font-family="Helvetica,sans-Serif" font-size="10.00" fill="#000000">+ Descriptor()</text>
<text text-anchor="start" x="390" y="-455" font-family="Helvetica,sans-Serif" font-size="10.00" fill="#000000">+ Descriptor()</text>
<text text-anchor="start" x="390" y="-444" font-family="Helvetica,sans-Serif" font-size="10.00" fill="#000000">+ operator=()</text>
<text text-anchor="start" x="390" y="-433" font-family="Helvetica,sans-Serif" font-size="10.00" fill="#000000">+ operator ItgType()</text>
<text text-anchor="start" x="390" y="-422" font-family="Helvetica,sans-Serif" font-size="10.00" fill="#000000">+ runtimeInit()</text>
<text text-anchor="start" x="390" y="-411" font-family="Helvetica,sans-Serif" font-size="10.00" fill="#000000">+ operator==()</text>
<text text-anchor="start" x="390" y="-400" font-family="Helvetica,sans-Serif" font-size="10.00" fill="#000000">+ operator==()</text>
<text text-anchor="start" x="390" y="-389" font-family="Helvetica,sans-Serif" font-size="10.00" fill="#000000">+ operator&lt;()</text>
<text text-anchor="start" x="390" y="-378" font-family="Helvetica,sans-Serif" font-size="10.00" fill="#000000">+ operator!=()</text>
<text text-anchor="start" x="390" y="-367" font-family="Helvetica,sans-Serif" font-size="10.00" fill="#000000">+ operator!=()</text>
<text text-anchor="start" x="390" y="-356" font-family="Helvetica,sans-Serif" font-size="10.00" fill="#000000">+ as()</text>
<text text-anchor="start" x="390" y="-345" font-family="Helvetica,sans-Serif" font-size="10.00" fill="#000000">+ print()</text>
</a>
</g>
</g>
<!-- Node8&#45;&gt;Node4 -->
<g id="edge5" class="edge">
<title>Node8&#45;&gt;Node4</title>
<path fill="none" stroke="#404040" d="M445.2622,-337.9114C448.5241,-299.1014 458.5861,-257.4278 483,-226 507.0468,-195.0448 546.2136,-176.8485 581.8812,-166.203"/>
<polygon fill="none" stroke="#404040" points="582.2571,-166.0983 586.9621,-160.6335 593.8161,-162.8748 589.1111,-168.3395 582.2571,-166.0983"/>
<text text-anchor="middle" x="508.5" y="-245.5" font-family="Helvetica,sans-Serif" font-size="10.00" fill="#000000"> #mOrigin</text>
</g>
<!-- Node9 -->
<g id="node7" class="node">
<title>Node9</title>
<polygon fill="none" stroke="#bfbfbf" points="110.5,-1125.5 110.5,-1182.5 149.5,-1182.5 149.5,-1125.5 110.5,-1125.5"/>
<text text-anchor="middle" x="130" y="-1170.5" font-family="Helvetica,sans-Serif" font-size="10.00" fill="#000000">Type</text>
<polyline fill="none" stroke="#bfbfbf" points="110.5,-1163.5 149.5,-1163.5 "/>
<text text-anchor="middle" x="130" y="-1151.5" font-family="Helvetica,sans-Serif" font-size="10.00" fill="#000000"> </text>
<polyline fill="none" stroke="#bfbfbf" points="110.5,-1144.5 149.5,-1144.5 "/>
<text text-anchor="middle" x="130" y="-1132.5" font-family="Helvetica,sans-Serif" font-size="10.00" fill="#000000"> </text>
</g>
<!-- Node9&#45;&gt;Node8 -->
<g id="edge6" class="edge">
<title>Node9&#45;&gt;Node8</title>
<path fill="none" stroke="#404040" d="M127.761,-1125.2508C123.1701,-1056.544 115.7299,-877.8269 149,-734 160.5741,-683.9653 153.5354,-658.3005 195,-628 259.1998,-581.0857 307.8358,-655.5653 373,-610 387.5801,-599.805 399.5407,-586.1117 409.3239,-570.9961"/>
<polygon fill="none" stroke="#404040" points="409.5588,-570.6065 409.2311,-563.4028 415.7546,-560.3297 416.0823,-567.5333 409.5588,-570.6065"/>
<text text-anchor="middle" x="161.5" y="-892.5" font-family="Helvetica,sans-Serif" font-size="10.00" fill="#000000"> +itg</text>
</g>
<!-- Node13 -->
<g id="node11" class="node">
<title>Node13</title>
<g id="a_node11"><a xlink:href="../../d9/db3/structo2_1_1header_1_1Descriptor.html" target="_top" xlink:title="{o2::header::Descriptor\l\&lt; N, PrinterPolicy \&gt;\n||+ Descriptor()\l+ Descriptor()\l+ Descriptor()\l+ operator=()\l+ operator ItgType()\l+ Descriptor()\l+ runtimeInit()\l+ operator==()\l+ operator\&lt;()\l+ operator!=()\l+ operator==()\l+ operator!=()\l+ as()\l+ print()\l}">
<polygon fill="none" stroke="#000000" points="239.5,-789.5 239.5,-1000.5 364.5,-1000.5 364.5,-789.5 239.5,-789.5"/>
<text text-anchor="start" x="247.5" y="-988.5" font-family="Helvetica,sans-Serif" font-size="10.00" fill="#000000">o2::header::Descriptor</text>
<text text-anchor="middle" x="302" y="-977.5" font-family="Helvetica,sans-Serif" font-size="10.00" fill="#000000">&lt; N, PrinterPolicy &gt;</text>
<polyline fill="none" stroke="#000000" points="239.5,-970.5 364.5,-970.5 "/>
<text text-anchor="middle" x="302" y="-958.5" font-family="Helvetica,sans-Serif" font-size="10.00" fill="#000000"> </text>
<polyline fill="none" stroke="#000000" points="239.5,-951.5 364.5,-951.5 "/>
<text text-anchor="start" x="247.5" y="-939.5" font-family="Helvetica,sans-Serif" font-size="10.00" fill="#000000">+ Descriptor()</text>
<text text-anchor="start" x="247.5" y="-928.5" font-family="Helvetica,sans-Serif" font-size="10.00" fill="#000000">+ Descriptor()</text>
<text text-anchor="start" x="247.5" y="-917.5" font-family="Helvetica,sans-Serif" font-size="10.00" fill="#000000">+ Descriptor()</text>
<text text-anchor="start" x="247.5" y="-906.5" font-family="Helvetica,sans-Serif" font-size="10.00" fill="#000000">+ operator=()</text>
<text text-anchor="start" x="247.5" y="-895.5" font-family="Helvetica,sans-Serif" font-size="10.00" fill="#000000">+ operator ItgType()</text>
<text text-anchor="start" x="247.5" y="-884.5" font-family="Helvetica,sans-Serif" font-size="10.00" fill="#000000">+ Descriptor()</text>
<text text-anchor="start" x="247.5" y="-873.5" font-family="Helvetica,sans-Serif" font-size="10.00" fill="#000000">+ runtimeInit()</text>
<text text-anchor="start" x="247.5" y="-862.5" font-family="Helvetica,sans-Serif" font-size="10.00" fill="#000000">+ operator==()</text>
<text text-anchor="start" x="247.5" y="-851.5" font-family="Helvetica,sans-Serif" font-size="10.00" fill="#000000">+ operator&lt;()</text>
<text text-anchor="start" x="247.5" y="-840.5" font-family="Helvetica,sans-Serif" font-size="10.00" fill="#000000">+ operator!=()</text>
<text text-anchor="start" x="247.5" y="-829.5" font-family="Helvetica,sans-Serif" font-size="10.00" fill="#000000">+ operator==()</text>
<text text-anchor="start" x="247.5" y="-818.5" font-family="Helvetica,sans-Serif" font-size="10.00" fill="#000000">+ operator!=()</text>
<text text-anchor="start" x="247.5" y="-807.5" font-family="Helvetica,sans-Serif" font-size="10.00" fill="#000000">+ as()</text>
<text text-anchor="start" x="247.5" y="-796.5" font-family="Helvetica,sans-Serif" font-size="10.00" fill="#000000">+ print()</text>
</a>
</g>
</g>
<!-- Node9&#45;&gt;Node13 -->
<g id="edge11" class="edge">
<title>Node9&#45;&gt;Node13</title>
<path fill="none" stroke="#404040" d="M149.7681,-1137.1486C170.4561,-1118.7644 202.9374,-1087.7029 225,-1056 234.6345,-1042.1557 243.6533,-1026.9192 251.8826,-1011.5084"/>
<polygon fill="none" stroke="#404040" points="251.904,-1011.4673 251.1309,-1004.2978 257.4516,-1000.8266 258.2247,-1007.9962 251.904,-1011.4673"/>
<text text-anchor="middle" x="222.5" y="-1088" font-family="Helvetica,sans-Serif" font-size="10.00" fill="#000000"> +itg</text>
</g>
<!-- Node10 -->
<g id="node8" class="node">
<title>Node10</title>
<polygon fill="none" stroke="#bfbfbf" points="322,-1125.5 322,-1182.5 360,-1182.5 360,-1125.5 322,-1125.5"/>
<text text-anchor="middle" x="341" y="-1170.5" font-family="Helvetica,sans-Serif" font-size="10.00" fill="#000000">char</text>
<polyline fill="none" stroke="#bfbfbf" points="322,-1163.5 360,-1163.5 "/>
<text text-anchor="middle" x="341" y="-1151.5" font-family="Helvetica,sans-Serif" font-size="10.00" fill="#000000"> </text>
<polyline fill="none" stroke="#bfbfbf" points="322,-1144.5 360,-1144.5 "/>
<text text-anchor="middle" x="341" y="-1132.5" font-family="Helvetica,sans-Serif" font-size="10.00" fill="#000000"> </text>
</g>
<!-- Node10&#45;&gt;Node8 -->
<g id="edge7" class="edge">
<title>Node10&#45;&gt;Node8</title>
<path fill="none" stroke="#404040" d="M351.9737,-1125.2403C358.9507,-1105.9195 367.6475,-1079.7454 373,-1056 410.2794,-890.6178 431.3892,-695.5851 442.0035,-572.1123"/>
<polygon fill="none" stroke="#404040" points="442.015,-571.9764 438.5364,-565.6598 443.0292,-560.0193 446.5078,-566.3359 442.015,-571.9764"/>
<text text-anchor="middle" x="437.5" y="-892.5" font-family="Helvetica,sans-Serif" font-size="10.00" fill="#000000"> +str</text>
</g>
<!-- Node10&#45;&gt;Node13 -->
<g id="edge12" class="edge">
<title>Node10&#45;&gt;Node13</title>
<path fill="none" stroke="#404040" d="M324.1246,-1125.4056C321.2926,-1119.4925 318.7192,-1113.1787 317,-1107 308.683,-1077.1091 304.2114,-1043.9817 301.9563,-1012.9688"/>
<polygon fill="none" stroke="#404040" points="301.9403,-1012.7183 297.5642,-1006.9868 301.1717,-1000.7429 305.5478,-1006.4743 301.9403,-1012.7183"/>
<text text-anchor="middle" x="329.5" y="-1088" font-family="Helvetica,sans-Serif" font-size="10.00" fill="#000000"> +str</text>
</g>
<!-- Node11 -->
<g id="node9" class="node">
<title>Node11</title>
<polygon fill="none" stroke="#bfbfbf" points="447.5,-1125.5 447.5,-1182.5 476.5,-1182.5 476.5,-1125.5 447.5,-1125.5"/>
<text text-anchor="middle" x="462" y="-1170.5" font-family="Helvetica,sans-Serif" font-size="10.00" fill="#000000">int</text>
<polyline fill="none" stroke="#bfbfbf" points="447.5,-1163.5 476.5,-1163.5 "/>
<text text-anchor="middle" x="462" y="-1151.5" font-family="Helvetica,sans-Serif" font-size="10.00" fill="#000000"> </text>
<polyline fill="none" stroke="#bfbfbf" points="447.5,-1144.5 476.5,-1144.5 "/>
<text text-anchor="middle" x="462" y="-1132.5" font-family="Helvetica,sans-Serif" font-size="10.00" fill="#000000"> </text>
</g>
<!-- Node11&#45;&gt;Node4 -->
<g id="edge19" class="edge">
<title>Node11&#45;&gt;Node4</title>
<path fill="none" stroke="#404040" d="M476.7148,-1136.1999C491.1892,-1117.5238 512.4614,-1086.6695 522,-1056 572.7719,-892.7538 510.1847,-449.2425 567,-288 575.7691,-263.1133 590.4494,-238.6575 605.7249,-217.476"/>
<polygon fill="none" stroke="#404040" points="605.8523,-217.3044 606.2178,-210.1026 613.0062,-207.67 612.6407,-214.8719 605.8523,-217.3044"/>
<text text-anchor="middle" x="614.5" y="-708" font-family="Helvetica,sans-Serif" font-size="10.00" fill="#000000"> #mDetName</text>
<text text-anchor="middle" x="614.5" y="-697" font-family="Helvetica,sans-Serif" font-size="10.00" fill="#000000">#mClusterBranchName</text>
<text text-anchor="middle" x="614.5" y="-686" font-family="Helvetica,sans-Serif" font-size="10.00" fill="#000000">#mClusROFBranchName</text>
<text text-anchor="middle" x="614.5" y="-675" font-family="Helvetica,sans-Serif" font-size="10.00" fill="#000000">#mDetNameLC</text>
<text text-anchor="middle" x="614.5" y="-664" font-family="Helvetica,sans-Serif" font-size="10.00" fill="#000000">#mClusTreeName</text>
<text text-anchor="middle" x="614.5" y="-653" font-family="Helvetica,sans-Serif" font-size="10.00" fill="#000000">#mClusterCompBranchName</text>
<text text-anchor="middle" x="614.5" y="-642" font-family="Helvetica,sans-Serif" font-size="10.00" fill="#000000">#mInputFileName</text>
<text text-anchor="middle" x="614.5" y="-631" font-family="Helvetica,sans-Serif" font-size="10.00" fill="#000000">#mClustMCTruthBranchName</text>
</g>
<!-- Node11&#45;&gt;Node8 -->
<g id="edge8" class="edge">
<title>Node11&#45;&gt;Node8</title>
<path fill="none" stroke="#404040" d="M461.5552,-1125.49C460.1212,-1033.5877 455.5609,-741.3137 452.9273,-572.5207"/>
<polygon fill="none" stroke="#404040" points="452.9245,-572.334 448.8313,-566.3972 452.7371,-560.3355 456.8303,-566.2723 452.9245,-572.334"/>
<text text-anchor="middle" x="489" y="-903.5" font-family="Helvetica,sans-Serif" font-size="10.00" fill="#000000"> +arraySize</text>
<text text-anchor="middle" x="489" y="-892.5" font-family="Helvetica,sans-Serif" font-size="10.00" fill="#000000">+size</text>
<text text-anchor="middle" x="489" y="-881.5" font-family="Helvetica,sans-Serif" font-size="10.00" fill="#000000">+bitcount</text>
</g>
<!-- Node11&#45;&gt;Node13 -->
<g id="edge13" class="edge">
<title>Node11&#45;&gt;Node13</title>
<path fill="none" stroke="#404040" d="M447.4298,-1147.7263C431.4042,-1140.1668 405.8297,-1126.0645 390,-1107 367.1139,-1079.4372 349.4494,-1045.0886 336.1614,-1012.1193"/>
<polygon fill="none" stroke="#404040" points="336.0015,-1011.709 330.0952,-1007.5718 331.6425,-1000.5286 337.5488,-1004.6658 336.0015,-1011.709"/>
<text text-anchor="middle" x="419" y="-1099" font-family="Helvetica,sans-Serif" font-size="10.00" fill="#000000"> +arraySize</text>
<text text-anchor="middle" x="419" y="-1088" font-family="Helvetica,sans-Serif" font-size="10.00" fill="#000000">+size</text>
<text text-anchor="middle" x="419" y="-1077" font-family="Helvetica,sans-Serif" font-size="10.00" fill="#000000">+bitcount</text>
</g>
<!-- Node12 -->
<g id="node10" class="node">
<title>Node12</title>
<polygon fill="none" stroke="#bfbfbf" points="180.5,-1125.5 180.5,-1182.5 287.5,-1182.5 287.5,-1125.5 180.5,-1125.5"/>
<text text-anchor="middle" x="234" y="-1170.5" font-family="Helvetica,sans-Serif" font-size="10.00" fill="#000000">anonymous:+@24</text>
<polyline fill="none" stroke="#bfbfbf" points="180.5,-1163.5 287.5,-1163.5 "/>
<text text-anchor="middle" x="234" y="-1151.5" font-family="Helvetica,sans-Serif" font-size="10.00" fill="#000000"> </text>
<polyline fill="none" stroke="#bfbfbf" points="180.5,-1144.5 287.5,-1144.5 "/>
<text text-anchor="middle" x="234" y="-1132.5" font-family="Helvetica,sans-Serif" font-size="10.00" fill="#000000"> </text>
</g>
<!-- Node12&#45;&gt;Node8 -->
<g id="edge9" class="edge">
<title>Node12&#45;&gt;Node8</title>
<path fill="none" stroke="#404040" d="M219.5934,-1125.2446C210.8501,-1106.1436 200.5304,-1080.2149 196,-1056 169.6818,-915.3297 172.6772,-875.1979 196,-734 204.1084,-684.9112 193.4754,-659.4851 232,-628 280.9167,-588.0217 321.7048,-646.877 373,-610 387.3429,-599.6886 399.1627,-586.0122 408.8726,-570.9749"/>
<polygon fill="none" stroke="#404040" points="409.0687,-570.6496 408.7398,-563.4459 415.2628,-560.3717 415.5917,-567.5754 409.0687,-570.6496"/>
<text text-anchor="middle" x="213" y="-892.5" font-family="Helvetica,sans-Serif" font-size="10.00" fill="#000000"> +@24</text>
</g>
<!-- Node12&#45;&gt;Node13 -->
<g id="edge14" class="edge">
<title>Node12&#45;&gt;Node13</title>
<path fill="none" stroke="#404040" d="M241.537,-1125.2929C248.7752,-1097.724 260.2008,-1054.2056 271.1803,-1012.3869"/>
<polygon fill="none" stroke="#404040" points="271.214,-1012.2583 268.8688,-1005.4392 274.2613,-1000.6516 276.6065,-1007.4707 271.214,-1012.2583"/>
<text text-anchor="middle" x="272" y="-1088" font-family="Helvetica,sans-Serif" font-size="10.00" fill="#000000"> +@24</text>
</g>
<!-- Node13&#45;&gt;Node8 -->
<g id="edge10" class="edge">
<title>Node13&#45;&gt;Node8</title>
<path fill="none" stroke="#ffa500" d="M247.4973,-779.6568C231.6573,-727.9026 226.828,-669.335 262,-628 294.3879,-589.9369 332.9192,-639.8547 373,-610 390.3114,-597.1054 403.9721,-579.3459 414.6884,-560.3133"/>
<polygon fill="#ffa500" stroke="#ffa500" points="244.1839,-780.7861 250.576,-789.2355 250.8481,-778.6441 244.1839,-780.7861"/>
<text text-anchor="start" x="262" y="-675" font-family="Helvetica,sans-Serif" font-size="10.00" fill="#000000"> &lt; gSizeDataOriginString,</text>
<text text-anchor="middle" x="324.5" y="-664" font-family="Helvetica,sans-Serif" font-size="10.00" fill="#000000"> printDataOrigin &gt;</text>
</g>
<!-- Node14 -->
<g id="node12" class="node">
<title>Node14</title>
<g id="a_node12"><a xlink:href="../../dc/daa/classo2_1_1dataformats_1_1MCTruthContainer.html" target="_top" xlink:title="{o2::dataformats::MCTruth\lContainer\&lt; o2::MCCompLabel \&gt;\n||+ MCTruthContainer()\l+ MCTruthContainer()\l+ MCTruthContainer()\l+ ~MCTruthContainer()\l+ operator=()\l+ operator=()\l+ getMCTruthHeader()\l+ getElement()\l+ getIndexedSize()\l+ getNElements()\l+ getLabels()\l+ getLabels()\l+ clear()\l+ addElement()\l+ addElements()\l+ addElements()\l+ addElementRandomAccess()\l+ mergeAtBack()\l+ flatten_to()\l+ restore_from()\l+ print()\l+ inflate()\l+ deflate()\l+ ClassDefNV()\l}">
<polygon fill="none" stroke="#000000" points="576,-288.5 576,-609.5 750,-609.5 750,-288.5 576,-288.5"/>
<text text-anchor="start" x="584" y="-597.5" font-family="Helvetica,sans-Serif" font-size="10.00" fill="#000000">o2::dataformats::MCTruth</text>
<text text-anchor="middle" x="663" y="-586.5" font-family="Helvetica,sans-Serif" font-size="10.00" fill="#000000">Container&lt; o2::MCCompLabel &gt;</text>
<polyline fill="none" stroke="#000000" points="576,-579.5 750,-579.5 "/>
<text text-anchor="middle" x="663" y="-567.5" font-family="Helvetica,sans-Serif" font-size="10.00" fill="#000000"> </text>
<polyline fill="none" stroke="#000000" points="576,-560.5 750,-560.5 "/>
<text text-anchor="start" x="584" y="-548.5" font-family="Helvetica,sans-Serif" font-size="10.00" fill="#000000">+ MCTruthContainer()</text>
<text text-anchor="start" x="584" y="-537.5" font-family="Helvetica,sans-Serif" font-size="10.00" fill="#000000">+ MCTruthContainer()</text>
<text text-anchor="start" x="584" y="-526.5" font-family="Helvetica,sans-Serif" font-size="10.00" fill="#000000">+ MCTruthContainer()</text>
<text text-anchor="start" x="584" y="-515.5" font-family="Helvetica,sans-Serif" font-size="10.00" fill="#000000">+ ~MCTruthContainer()</text>
<text text-anchor="start" x="584" y="-504.5" font-family="Helvetica,sans-Serif" font-size="10.00" fill="#000000">+ operator=()</text>
<text text-anchor="start" x="584" y="-493.5" font-family="Helvetica,sans-Serif" font-size="10.00" fill="#000000">+ operator=()</text>
<text text-anchor="start" x="584" y="-482.5" font-family="Helvetica,sans-Serif" font-size="10.00" fill="#000000">+ getMCTruthHeader()</text>
<text text-anchor="start" x="584" y="-471.5" font-family="Helvetica,sans-Serif" font-size="10.00" fill="#000000">+ getElement()</text>
<text text-anchor="start" x="584" y="-460.5" font-family="Helvetica,sans-Serif" font-size="10.00" fill="#000000">+ getIndexedSize()</text>
<text text-anchor="start" x="584" y="-449.5" font-family="Helvetica,sans-Serif" font-size="10.00" fill="#000000">+ getNElements()</text>
<text text-anchor="start" x="584" y="-438.5" font-family="Helvetica,sans-Serif" font-size="10.00" fill="#000000">+ getLabels()</text>
<text text-anchor="start" x="584" y="-427.5" font-family="Helvetica,sans-Serif" font-size="10.00" fill="#000000">+ getLabels()</text>
<text text-anchor="start" x="584" y="-416.5" font-family="Helvetica,sans-Serif" font-size="10.00" fill="#000000">+ clear()</text>
<text text-anchor="start" x="584" y="-405.5" font-family="Helvetica,sans-Serif" font-size="10.00" fill="#000000">+ addElement()</text>
<text text-anchor="start" x="584" y="-394.5" font-family="Helvetica,sans-Serif" font-size="10.00" fill="#000000">+ addElements()</text>
<text text-anchor="start" x="584" y="-383.5" font-family="Helvetica,sans-Serif" font-size="10.00" fill="#000000">+ addElements()</text>
<text text-anchor="start" x="584" y="-372.5" font-family="Helvetica,sans-Serif" font-size="10.00" fill="#000000">+ addElementRandomAccess()</text>
<text text-anchor="start" x="584" y="-361.5" font-family="Helvetica,sans-Serif" font-size="10.00" fill="#000000">+ mergeAtBack()</text>
<text text-anchor="start" x="584" y="-350.5" font-family="Helvetica,sans-Serif" font-size="10.00" fill="#000000">+ flatten_to()</text>
<text text-anchor="start" x="584" y="-339.5" font-family="Helvetica,sans-Serif" font-size="10.00" fill="#000000">+ restore_from()</text>
<text text-anchor="start" x="584" y="-328.5" font-family="Helvetica,sans-Serif" font-size="10.00" fill="#000000">+ print()</text>
<text text-anchor="start" x="584" y="-317.5" font-family="Helvetica,sans-Serif" font-size="10.00" fill="#000000">+ inflate()</text>
<text text-anchor="start" x="584" y="-306.5" font-family="Helvetica,sans-Serif" font-size="10.00" fill="#000000">+ deflate()</text>
<text text-anchor="start" x="584" y="-295.5" font-family="Helvetica,sans-Serif" font-size="10.00" fill="#000000">+ ClassDefNV()</text>
</a>
</g>
</g>
<!-- Node14&#45;&gt;Node4 -->
<g id="edge15" class="edge">
<title>Node14&#45;&gt;Node4</title>
<path fill="none" stroke="#404040" d="M663,-288.4945C663,-264.2901 663,-240.5034 663,-219.7194"/>
<polygon fill="none" stroke="#404040" points="663.0001,-219.5203 659,-213.5203 663,-207.5203 667,-213.5202 663.0001,-219.5203"/>
<text text-anchor="middle" x="716" y="-251" font-family="Helvetica,sans-Serif" font-size="10.00" fill="#000000"> #mClusterMCTruth</text>
<text text-anchor="middle" x="716" y="-240" font-family="Helvetica,sans-Serif" font-size="10.00" fill="#000000">#mClusterMCTruthPtr</text>
</g>
<!-- Node15 -->
<g id="node13" class="node">
<title>Node15</title>
<g id="a_node13"><a xlink:href="../../dc/daa/classo2_1_1dataformats_1_1MCTruthContainer.html" target="_top" xlink:title="A container to hold and manage MC truth information/labels. ">
<polygon fill="none" stroke="#000000" points="632,-734.5 632,-1055.5 800,-1055.5 800,-734.5 632,-734.5"/>
<text text-anchor="start" x="640" y="-1043.5" font-family="Helvetica,sans-Serif" font-size="10.00" fill="#000000">o2::dataformats::MCTruth</text>
<text text-anchor="middle" x="716" y="-1032.5" font-family="Helvetica,sans-Serif" font-size="10.00" fill="#000000">Container&lt; TruthElement &gt;</text>
<polyline fill="none" stroke="#000000" points="632,-1025.5 800,-1025.5 "/>
<text text-anchor="middle" x="716" y="-1013.5" font-family="Helvetica,sans-Serif" font-size="10.00" fill="#000000"> </text>
<polyline fill="none" stroke="#000000" points="632,-1006.5 800,-1006.5 "/>
<text text-anchor="start" x="640" y="-994.5" font-family="Helvetica,sans-Serif" font-size="10.00" fill="#000000">+ MCTruthContainer()</text>
<text text-anchor="start" x="640" y="-983.5" font-family="Helvetica,sans-Serif" font-size="10.00" fill="#000000">+ ~MCTruthContainer()</text>
<text text-anchor="start" x="640" y="-972.5" font-family="Helvetica,sans-Serif" font-size="10.00" fill="#000000">+ MCTruthContainer()</text>
<text text-anchor="start" x="640" y="-961.5" font-family="Helvetica,sans-Serif" font-size="10.00" fill="#000000">+ MCTruthContainer()</text>
<text text-anchor="start" x="640" y="-950.5" font-family="Helvetica,sans-Serif" font-size="10.00" fill="#000000">+ operator=()</text>
<text text-anchor="start" x="640" y="-939.5" font-family="Helvetica,sans-Serif" font-size="10.00" fill="#000000">+ operator=()</text>
<text text-anchor="start" x="640" y="-928.5" font-family="Helvetica,sans-Serif" font-size="10.00" fill="#000000">+ getMCTruthHeader()</text>
<text text-anchor="start" x="640" y="-917.5" font-family="Helvetica,sans-Serif" font-size="10.00" fill="#000000">+ getElement()</text>
<text text-anchor="start" x="640" y="-906.5" font-family="Helvetica,sans-Serif" font-size="10.00" fill="#000000">+ getIndexedSize()</text>
<text text-anchor="start" x="640" y="-895.5" font-family="Helvetica,sans-Serif" font-size="10.00" fill="#000000">+ getNElements()</text>
<text text-anchor="start" x="640" y="-884.5" font-family="Helvetica,sans-Serif" font-size="10.00" fill="#000000">+ getLabels()</text>
<text text-anchor="start" x="640" y="-873.5" font-family="Helvetica,sans-Serif" font-size="10.00" fill="#000000">+ getLabels()</text>
<text text-anchor="start" x="640" y="-862.5" font-family="Helvetica,sans-Serif" font-size="10.00" fill="#000000">+ clear()</text>
<text text-anchor="start" x="640" y="-851.5" font-family="Helvetica,sans-Serif" font-size="10.00" fill="#000000">+ addElement()</text>
<text text-anchor="start" x="640" y="-840.5" font-family="Helvetica,sans-Serif" font-size="10.00" fill="#000000">+ addElements()</text>
<text text-anchor="start" x="640" y="-829.5" font-family="Helvetica,sans-Serif" font-size="10.00" fill="#000000">+ addElements()</text>
<text text-anchor="start" x="640" y="-818.5" font-family="Helvetica,sans-Serif" font-size="10.00" fill="#000000">+ addElementRandomAccess()</text>
<text text-anchor="start" x="640" y="-807.5" font-family="Helvetica,sans-Serif" font-size="10.00" fill="#000000">+ mergeAtBack()</text>
<text text-anchor="start" x="640" y="-796.5" font-family="Helvetica,sans-Serif" font-size="10.00" fill="#000000">+ flatten_to()</text>
<text text-anchor="start" x="640" y="-785.5" font-family="Helvetica,sans-Serif" font-size="10.00" fill="#000000">+ restore_from()</text>
<text text-anchor="start" x="640" y="-774.5" font-family="Helvetica,sans-Serif" font-size="10.00" fill="#000000">+ print()</text>
<text text-anchor="start" x="640" y="-763.5" font-family="Helvetica,sans-Serif" font-size="10.00" fill="#000000">+ inflate()</text>
<text text-anchor="start" x="640" y="-752.5" font-family="Helvetica,sans-Serif" font-size="10.00" fill="#000000">+ deflate()</text>
<text text-anchor="start" x="640" y="-741.5" font-family="Helvetica,sans-Serif" font-size="10.00" fill="#000000">+ ClassDefNV()</text>
</a>
</g>
</g>
<!-- Node15&#45;&gt;Node14 -->
<g id="edge16" class="edge">
<title>Node15&#45;&gt;Node14</title>
<path fill="none" stroke="#ffa500" d="M704.1782,-723.8384C701.3279,-691.9314 697.9422,-658.9117 694,-628 693.2419,-622.0557 692.4256,-616.0078 691.5639,-609.9044"/>
<polygon fill="#ffa500" stroke="#ffa500" points="700.7227,-724.4995 705.0849,-734.1546 707.6959,-723.8866 700.7227,-724.4995"/>
<text text-anchor="middle" x="760" y="-669.5" font-family="Helvetica,sans-Serif" font-size="10.00" fill="#000000"> &lt; o2::MCCompLabel &gt;</text>
</g>
<!-- Node16 -->
<g id="node14" class="node">
<title>Node16</title>
<polygon fill="none" stroke="#bfbfbf" points="768.5,-415 768.5,-483 889.5,-483 889.5,-415 768.5,-415"/>
<text text-anchor="start" x="776.5" y="-471" font-family="Helvetica,sans-Serif" font-size="10.00" fill="#000000">vector&lt; o2::itsmft</text>
<text text-anchor="middle" x="829" y="-460" font-family="Helvetica,sans-Serif" font-size="10.00" fill="#000000">::CompClusterExt &gt; *</text>
<polyline fill="none" stroke="#bfbfbf" points="768.5,-453 889.5,-453 "/>
<text text-anchor="middle" x="829" y="-441" font-family="Helvetica,sans-Serif" font-size="10.00" fill="#000000"> </text>
<polyline fill="none" stroke="#bfbfbf" points="768.5,-434 889.5,-434 "/>
<text text-anchor="middle" x="829" y="-422" font-family="Helvetica,sans-Serif" font-size="10.00" fill="#000000"> </text>
</g>
<!-- Node16&#45;&gt;Node4 -->
<g id="edge17" class="edge">
<title>Node16&#45;&gt;Node4</title>
<path fill="none" stroke="#404040" d="M827.8687,-414.9337C824.7783,-368.3265 813.5192,-283.8804 773,-226 764.6811,-214.1167 753.8109,-203.5759 742.1448,-194.4351"/>
<polygon fill="none" stroke="#404040" points="741.8493,-194.2168 734.6466,-193.8696 732.1968,-187.0873 739.3995,-187.4346 741.8493,-194.2168"/>
<text text-anchor="middle" x="858" y="-245.5" font-family="Helvetica,sans-Serif" font-size="10.00" fill="#000000"> #mClusterCompArrayPtr</text>
</g>
<!-- Node17 -->
<g id="node15" class="node">
<title>Node17</title>
<polygon fill="none" stroke="#bfbfbf" points="908,-415 908,-483 1014,-483 1014,-415 908,-415"/>
<text text-anchor="start" x="916" y="-471" font-family="Helvetica,sans-Serif" font-size="10.00" fill="#000000">vector&lt; o2::itsmft</text>
<text text-anchor="middle" x="961" y="-460" font-family="Helvetica,sans-Serif" font-size="10.00" fill="#000000">::Cluster &gt;</text>
<polyline fill="none" stroke="#bfbfbf" points="908,-453 1014,-453 "/>
<text text-anchor="middle" x="961" y="-441" font-family="Helvetica,sans-Serif" font-size="10.00" fill="#000000"> </text>
<polyline fill="none" stroke="#bfbfbf" points="908,-434 1014,-434 "/>
<text text-anchor="middle" x="961" y="-422" font-family="Helvetica,sans-Serif" font-size="10.00" fill="#000000"> </text>
</g>
<!-- Node17&#45;&gt;Node4 -->
<g id="edge18" class="edge">
<title>Node17&#45;&gt;Node4</title>
<path fill="none" stroke="#404040" d="M959.6871,-414.6537C956.8671,-359.1794 948.3659,-253.3046 924,-226 899.9889,-199.093 811.3893,-177.7291 744.0182,-164.8985"/>
<polygon fill="none" stroke="#404040" points="743.9276,-164.8817 737.2956,-167.7132 732.1312,-162.6804 738.7632,-159.8489 743.9276,-164.8817"/>
<text text-anchor="middle" x="983" y="-245.5" font-family="Helvetica,sans-Serif" font-size="10.00" fill="#000000"> #mClusterArray</text>
</g>
<!-- Node18 -->
<g id="node16" class="node">
<title>Node18</title>
<polygon fill="none" stroke="#bfbfbf" points="1032,-420.5 1032,-477.5 1070,-477.5 1070,-420.5 1032,-420.5"/>
<text text-anchor="middle" x="1051" y="-465.5" font-family="Helvetica,sans-Serif" font-size="10.00" fill="#000000">bool</text>
<polyline fill="none" stroke="#bfbfbf" points="1032,-458.5 1070,-458.5 "/>
<text text-anchor="middle" x="1051" y="-446.5" font-family="Helvetica,sans-Serif" font-size="10.00" fill="#000000"> </text>
<polyline fill="none" stroke="#bfbfbf" points="1032,-439.5 1070,-439.5 "/>
<text text-anchor="middle" x="1051" y="-427.5" font-family="Helvetica,sans-Serif" font-size="10.00" fill="#000000"> </text>
</g>
<!-- Node18&#45;&gt;Node4 -->
<g id="edge20" class="edge">
<title>Node18&#45;&gt;Node4</title>
<path fill="none" stroke="#404040" d="M1052.0884,-420.1881C1053.4842,-366.4471 1053.2172,-253.8339 1028,-226 990.7822,-184.9202 839.7522,-165.4513 744.0153,-157.0707"/>
<polygon fill="none" stroke="#404040" points="744.0051,-157.0699 737.6884,-160.5484 732.048,-156.0554 738.3647,-152.577 744.0051,-157.0699"/>
<text text-anchor="middle" x="1082" y="-262" font-family="Helvetica,sans-Serif" font-size="10.00" fill="#000000"> #mUseClFull</text>
<text text-anchor="middle" x="1082" y="-251" font-family="Helvetica,sans-Serif" font-size="10.00" fill="#000000">#mUseMC</text>
<text text-anchor="middle" x="1082" y="-240" font-family="Helvetica,sans-Serif" font-size="10.00" fill="#000000">#mFinished</text>
<text text-anchor="middle" x="1082" y="-229" font-family="Helvetica,sans-Serif" font-size="10.00" fill="#000000">#mUseClComp</text>
</g>
<!-- Node19 -->
<g id="node17" class="node">
<title>Node19</title>
<polygon fill="none" stroke="#bfbfbf" points="1093.5,-415 1093.5,-483 1206.5,-483 1206.5,-415 1093.5,-415"/>
<text text-anchor="start" x="1101.5" y="-471" font-family="Helvetica,sans-Serif" font-size="10.00" fill="#000000">vector&lt; o2::itsmft</text>
<text text-anchor="middle" x="1150" y="-460" font-family="Helvetica,sans-Serif" font-size="10.00" fill="#000000">::CompClusterExt &gt;</text>
<polyline fill="none" stroke="#bfbfbf" points="1093.5,-453 1206.5,-453 "/>
<text text-anchor="middle" x="1150" y="-441" font-family="Helvetica,sans-Serif" font-size="10.00" fill="#000000"> </text>
<polyline fill="none" stroke="#bfbfbf" points="1093.5,-434 1206.5,-434 "/>
<text text-anchor="middle" x="1150" y="-422" font-family="Helvetica,sans-Serif" font-size="10.00" fill="#000000"> </text>
</g>
<!-- Node19&#45;&gt;Node4 -->
<g id="edge21" class="edge">
<title>Node19&#45;&gt;Node4</title>
<path fill="none" stroke="#404040" d="M1157.38,-414.7037C1165.6903,-365.8492 1172.3684,-276.5525 1124,-226 1098.1335,-198.9655 869.8557,-172.181 744.5363,-159.3437"/>
<polygon fill="none" stroke="#404040" points="744.3094,-159.3207 737.9359,-162.694 732.3708,-158.1081 738.7443,-154.7349 744.3094,-159.3207"/>
<text text-anchor="middle" x="1204.5" y="-245.5" font-family="Helvetica,sans-Serif" font-size="10.00" fill="#000000"> #mClusterCompArray</text>
</g>
<!-- Node20 -->
<g id="node18" class="node">
<title>Node20</title>
<polygon fill="none" stroke="#bfbfbf" points="1231,-415 1231,-483 1337,-483 1337,-415 1231,-415"/>
<text text-anchor="start" x="1239" y="-471" font-family="Helvetica,sans-Serif" font-size="10.00" fill="#000000">vector&lt; o2::itsmft</text>
<text text-anchor="middle" x="1284" y="-460" font-family="Helvetica,sans-Serif" font-size="10.00" fill="#000000">::ROFRecord &gt; *</text>
<polyline fill="none" stroke="#bfbfbf" points="1231,-453 1337,-453 "/>
<text text-anchor="middle" x="1284" y="-441" font-family="Helvetica,sans-Serif" font-size="10.00" fill="#000000"> </text>
<polyline fill="none" stroke="#bfbfbf" points="1231,-434 1337,-434 "/>
<text text-anchor="middle" x="1284" y="-422" font-family="Helvetica,sans-Serif" font-size="10.00" fill="#000000"> </text>
</g>
<!-- Node20&#45;&gt;Node4 -->
<g id="edge22" class="edge">
<title>Node20&#45;&gt;Node4</title>
<path fill="none" stroke="#404040" d="M1292.2592,-414.9648C1301.9007,-366.0188 1310.8828,-276.1406 1262,-226 1226.4544,-189.5398 899.6064,-165.4991 744.273,-156.036"/>
<polygon fill="none" stroke="#404040" points="744.018,-156.0208 737.7884,-159.6528 732.0397,-155.2993 738.2693,-151.6673 744.018,-156.0208"/>
<text text-anchor="middle" x="1333.5" y="-245.5" font-family="Helvetica,sans-Serif" font-size="10.00" fill="#000000"> #mClusROFRecPtr</text>
</g>
</g>
</svg>
