<?xml version="1.0" encoding="UTF-8" standalone="no"?>
<!DOCTYPE svg PUBLIC "-//W3C//DTD SVG 1.1//EN"
 "http://www.w3.org/Graphics/SVG/1.1/DTD/svg11.dtd">
<!-- Generated by graphviz version 2.40.1 (20161225.0304)
 -->
<!-- Title: o2::experimental::mergers::ConfigEntry&lt; V, P &gt; Pages: 1 -->
<!--zoomable 215 -->
<svg id="main" version="1.1" xmlns="http://www.w3.org/2000/svg" xmlns:xlink="http://www.w3.org/1999/xlink" xml:space="preserve" onload="init(evt)">
<style type="text/css"><![CDATA[
.edge:hover path { stroke: red; }
.edge:hover polygon { stroke: red; fill: red; }
]]></style>
<script type="text/javascript"><![CDATA[
var edges = document.getElementsByTagName('g');
if (edges && edges.length) {
  for (var i=0;i<edges.length;i++) {
    if (edges[i].id.substr(0,4)=='edge') {
      edges[i].setAttribute('class','edge');
    }
  }
}
]]></script>
        <defs>
                <circle id="rim" cx="0" cy="0" r="7"/>
                <circle id="rim2" cx="0" cy="0" r="3.5"/>
                <g id="zoomPlus">
                        <use xlink:href="#rim" fill="#404040">
                                <set attributeName="fill" to="#808080" begin="zoomplus.mouseover" end="zoomplus.mouseout"/>
                        </use>
                        <path d="M-4,0h8M0,-4v8" fill="none" stroke="white" stroke-width="1.5" pointer-events="none"/>
                </g>
                <g id="zoomMin">
                        <use xlink:href="#rim" fill="#404040">
                                <set attributeName="fill" to="#808080" begin="zoomminus.mouseover" end="zoomminus.mouseout"/>
                        </use>
                        <path d="M-4,0h8" fill="none" stroke="white" stroke-width="1.5" pointer-events="none"/>
                </g>
                <g id="dirArrow">
                        <path fill="none" stroke="white" stroke-width="1.5" d="M0,-3.0v7 M-2.5,-0.5L0,-3.0L2.5,-0.5"/>
                </g>
               <g id="resetDef">
                       <use xlink:href="#rim2" fill="#404040">
                               <set attributeName="fill" to="#808080" begin="reset.mouseover" end="reset.mouseout"/>
                       </use>
               </g>
        </defs>

<script type="text/javascript">
var viewWidth = 1347;
var viewHeight = 215;
var sectionId = 'dynsection-0';
</script>
<script xlink:href="../../svgpan.js"/>
<svg id="graph" class="graph">
<g id="viewport">
<title>o2::experimental::mergers::ConfigEntry&lt; V, P &gt;</title>
<!-- Node0 -->
<g id="node1" class="node">
<title>Node0</title>
<polygon fill="#bfbfbf" stroke="#000000" points="596.5,-127.5 596.5,-206.5 742.5,-206.5 742.5,-127.5 596.5,-127.5"/>
<text text-anchor="start" x="604.5" y="-194.5" font-family="Helvetica,sans-Serif" font-size="10.00" fill="#000000">o2::experimental::mergers</text>
<text text-anchor="middle" x="669.5" y="-183.5" font-family="Helvetica,sans-Serif" font-size="10.00" fill="#000000">::ConfigEntry&lt; V, P &gt;</text>
<polyline fill="none" stroke="#000000" points="596.5,-176.5 742.5,-176.5 "/>
<text text-anchor="start" x="604.5" y="-164.5" font-family="Helvetica,sans-Serif" font-size="10.00" fill="#000000">+ value</text>
<text text-anchor="start" x="604.5" y="-153.5" font-family="Helvetica,sans-Serif" font-size="10.00" fill="#000000">+ param</text>
<polyline fill="none" stroke="#000000" points="596.5,-146.5 742.5,-146.5 "/>
<text text-anchor="middle" x="669.5" y="-134.5" font-family="Helvetica,sans-Serif" font-size="10.00" fill="#000000"> </text>
</g>
<!-- Node1 -->
<g id="node2" class="node">
<title>Node1</title>
<g id="a_node2"><a xlink:href="../../d3/d80/structo2_1_1experimental_1_1mergers_1_1ConfigEntry.html" target="_top" xlink:title="{o2::experimental::mergers\l::ConfigEntry\&lt; MergingMode \&gt;\n|+ value\l+ param\l|}">
<polygon fill="none" stroke="#000000" points="0,-.5 0,-79.5 167,-79.5 167,-.5 0,-.5"/>
<text text-anchor="start" x="8" y="-67.5" font-family="Helvetica,sans-Serif" font-size="10.00" fill="#000000">o2::experimental::mergers</text>
<text text-anchor="middle" x="83.5" y="-56.5" font-family="Helvetica,sans-Serif" font-size="10.00" fill="#000000">::ConfigEntry&lt; MergingMode &gt;</text>
<polyline fill="none" stroke="#000000" points="0,-49.5 167,-49.5 "/>
<text text-anchor="start" x="8" y="-37.5" font-family="Helvetica,sans-Serif" font-size="10.00" fill="#000000">+ value</text>
<text text-anchor="start" x="8" y="-26.5" font-family="Helvetica,sans-Serif" font-size="10.00" fill="#000000">+ param</text>
<polyline fill="none" stroke="#000000" points="0,-19.5 167,-19.5 "/>
<text text-anchor="middle" x="83.5" y="-7.5" font-family="Helvetica,sans-Serif" font-size="10.00" fill="#000000"> </text>
</a>
</g>
</g>
<!-- Node0&#45;&gt;Node1 -->
<g id="edge1" class="edge">
<title>Node0&#45;&gt;Node1</title>
<path fill="none" stroke="#ffa500" d="M586.1388,-158.8806C486.6794,-147.7028 316.1769,-123.7957 175.5,-80 172.7562,-79.1458 169.9838,-78.2355 167.1981,-77.28"/>
<polygon fill="#ffa500" stroke="#ffa500" points="585.806,-162.3651 596.1306,-159.9875 586.5769,-155.4076 585.806,-162.3651"/>
<text text-anchor="middle" x="327" y="-101" font-family="Helvetica,sans-Serif" font-size="10.00" fill="#000000"> &lt; MergingMode &gt;</text>
</g>
<!-- Node2 -->
<g id="node3" class="node">
<title>Node2</title>
<g id="a_node3"><a xlink:href="../../d3/d80/structo2_1_1experimental_1_1mergers_1_1ConfigEntry.html" target="_top" xlink:title="{o2::experimental::mergers\l::ConfigEntry\&lt; MergingTime \&gt;\n|+ value\l+ param\l|}">
<polygon fill="none" stroke="#000000" points="185,-.5 185,-79.5 350,-79.5 350,-.5 185,-.5"/>
<text text-anchor="start" x="193" y="-67.5" font-family="Helvetica,sans-Serif" font-size="10.00" fill="#000000">o2::experimental::mergers</text>
<text text-anchor="middle" x="267.5" y="-56.5" font-family="Helvetica,sans-Serif" font-size="10.00" fill="#000000">::ConfigEntry&lt; MergingTime &gt;</text>
<polyline fill="none" stroke="#000000" points="185,-49.5 350,-49.5 "/>
<text text-anchor="start" x="193" y="-37.5" font-family="Helvetica,sans-Serif" font-size="10.00" fill="#000000">+ value</text>
<text text-anchor="start" x="193" y="-26.5" font-family="Helvetica,sans-Serif" font-size="10.00" fill="#000000">+ param</text>
<polyline fill="none" stroke="#000000" points="185,-19.5 350,-19.5 "/>
<text text-anchor="middle" x="267.5" y="-7.5" font-family="Helvetica,sans-Serif" font-size="10.00" fill="#000000"> </text>
</a>
</g>
</g>
<!-- Node0&#45;&gt;Node2 -->
<g id="edge2" class="edge">
<title>Node0&#45;&gt;Node2</title>
<path fill="none" stroke="#ffa500" d="M586.3172,-148.0908C523.1167,-132.6656 434.5636,-108.7643 359.5,-80 356.41,-78.8159 353.2718,-77.5872 350.1097,-76.3271"/>
<polygon fill="#ffa500" stroke="#ffa500" points="585.694,-151.541 596.2369,-150.4931 587.3416,-144.7376 585.694,-151.541"/>
<text text-anchor="middle" x="488.5" y="-101" font-family="Helvetica,sans-Serif" font-size="10.00" fill="#000000"> &lt; MergingTime &gt;</text>
</g>
<!-- Node3 -->
<g id="node4" class="node">
<title>Node3</title>
<g id="a_node4"><a xlink:href="../../d3/d80/structo2_1_1experimental_1_1mergers_1_1ConfigEntry.html" target="_top" xlink:title="{o2::experimental::mergers\l::ConfigEntry\&lt; TopologySize, int \&gt;\n|+ value\l+ param\l|}">
<polygon fill="none" stroke="#000000" points="368.5,-.5 368.5,-79.5 552.5,-79.5 552.5,-.5 368.5,-.5"/>
<text text-anchor="start" x="376.5" y="-67.5" font-family="Helvetica,sans-Serif" font-size="10.00" fill="#000000">o2::experimental::mergers</text>
<text text-anchor="middle" x="460.5" y="-56.5" font-family="Helvetica,sans-Serif" font-size="10.00" fill="#000000">::ConfigEntry&lt; TopologySize, int &gt;</text>
<polyline fill="none" stroke="#000000" points="368.5,-49.5 552.5,-49.5 "/>
<text text-anchor="start" x="376.5" y="-37.5" font-family="Helvetica,sans-Serif" font-size="10.00" fill="#000000">+ value</text>
<text text-anchor="start" x="376.5" y="-26.5" font-family="Helvetica,sans-Serif" font-size="10.00" fill="#000000">+ param</text>
<polyline fill="none" stroke="#000000" points="368.5,-19.5 552.5,-19.5 "/>
<text text-anchor="middle" x="460.5" y="-7.5" font-family="Helvetica,sans-Serif" font-size="10.00" fill="#000000"> </text>
</a>
</g>
</g>
<!-- Node0&#45;&gt;Node3 -->
<g id="edge3" class="edge">
<title>Node0&#45;&gt;Node3</title>
<path fill="none" stroke="#ffa500" d="M587.4384,-126.7132C576.8931,-121.0036 566.3481,-115.0204 556.5,-109 541.8775,-100.0609 526.5806,-89.6124 512.605,-79.5901"/>
<polygon fill="#ffa500" stroke="#ffa500" points="585.812,-129.8125 596.2812,-131.4397 589.1118,-123.639 585.812,-129.8125"/>
<text text-anchor="middle" x="611" y="-101" font-family="Helvetica,sans-Serif" font-size="10.00" fill="#000000"> &lt; TopologySize, int &gt;</text>
</g>
<!-- Node4 -->
<g id="node5" class="node">
<title>Node4</title>
<g id="a_node5"><a xlink:href="../../d3/d80/structo2_1_1experimental_1_1mergers_1_1ConfigEntry.html" target="_top" xlink:title="{o2::experimental::mergers\l::ConfigEntry\&lt; PublicationDecision \&gt;\n|+ value\l+ param\l|}">
<polygon fill="none" stroke="#000000" points="571,-.5 571,-79.5 768,-79.5 768,-.5 571,-.5"/>
<text text-anchor="start" x="579" y="-67.5" font-family="Helvetica,sans-Serif" font-size="10.00" fill="#000000">o2::experimental::mergers</text>
<text text-anchor="middle" x="669.5" y="-56.5" font-family="Helvetica,sans-Serif" font-size="10.00" fill="#000000">::ConfigEntry&lt; PublicationDecision &gt;</text>
<polyline fill="none" stroke="#000000" points="571,-49.5 768,-49.5 "/>
<text text-anchor="start" x="579" y="-37.5" font-family="Helvetica,sans-Serif" font-size="10.00" fill="#000000">+ value</text>
<text text-anchor="start" x="579" y="-26.5" font-family="Helvetica,sans-Serif" font-size="10.00" fill="#000000">+ param</text>
<polyline fill="none" stroke="#000000" points="571,-19.5 768,-19.5 "/>
<text text-anchor="middle" x="669.5" y="-7.5" font-family="Helvetica,sans-Serif" font-size="10.00" fill="#000000"> </text>
</a>
</g>
</g>
<!-- Node0&#45;&gt;Node4 -->
<g id="edge4" class="edge">
<title>Node0&#45;&gt;Node4</title>
<path fill="none" stroke="#ffa500" d="M669.5,-116.9789C669.5,-104.5999 669.5,-91.5045 669.5,-79.6938"/>
<polygon fill="#ffa500" stroke="#ffa500" points="666.0001,-117.1648 669.5,-127.1649 673.0001,-117.1649 666.0001,-117.1648"/>
<text text-anchor="middle" x="730.5" y="-101" font-family="Helvetica,sans-Serif" font-size="10.00" fill="#000000"> &lt; PublicationDecision &gt;</text>
</g>
<!-- Node5 -->
<g id="node6" class="node">
<title>Node5</title>
<g id="a_node6"><a xlink:href="../../d3/d80/structo2_1_1experimental_1_1mergers_1_1ConfigEntry.html" target="_top" xlink:title="{o2::experimental::mergers\l::ConfigEntry\&lt; UnpackingMethod \&gt;\n|+ value\l+ param\l|}">
<polygon fill="none" stroke="#000000" points="786,-.5 786,-79.5 975,-79.5 975,-.5 786,-.5"/>
<text text-anchor="start" x="794" y="-67.5" font-family="Helvetica,sans-Serif" font-size="10.00" fill="#000000">o2::experimental::mergers</text>
<text text-anchor="middle" x="880.5" y="-56.5" font-family="Helvetica,sans-Serif" font-size="10.00" fill="#000000">::ConfigEntry&lt; UnpackingMethod &gt;</text>
<polyline fill="none" stroke="#000000" points="786,-49.5 975,-49.5 "/>
<text text-anchor="start" x="794" y="-37.5" font-family="Helvetica,sans-Serif" font-size="10.00" fill="#000000">+ value</text>
<text text-anchor="start" x="794" y="-26.5" font-family="Helvetica,sans-Serif" font-size="10.00" fill="#000000">+ param</text>
<polyline fill="none" stroke="#000000" points="786,-19.5 975,-19.5 "/>
<text text-anchor="middle" x="880.5" y="-7.5" font-family="Helvetica,sans-Serif" font-size="10.00" fill="#000000"> </text>
</a>
</g>
</g>
<!-- Node0&#45;&gt;Node5 -->
<g id="edge5" class="edge">
<title>Node0&#45;&gt;Node5</title>
<path fill="none" stroke="#ffa500" d="M751.9503,-132.6692C766.7943,-125.479 781.8699,-117.4817 795.5,-109 809.217,-100.4642 823.1959,-89.9899 835.7505,-79.8053"/>
<polygon fill="#ffa500" stroke="#ffa500" points="750.2832,-129.5862 742.7527,-137.0389 753.2871,-135.9089 750.2832,-129.5862"/>
<text text-anchor="middle" x="867.5" y="-101" font-family="Helvetica,sans-Serif" font-size="10.00" fill="#000000"> &lt; UnpackingMethod &gt;</text>
</g>
<!-- Node6 -->
<g id="node7" class="node">
<title>Node6</title>
<g id="a_node7"><a xlink:href="../../d3/d80/structo2_1_1experimental_1_1mergers_1_1ConfigEntry.html" target="_top" xlink:title="{o2::experimental::mergers\l::ConfigEntry\&lt; Timespan \&gt;\n|+ value\l+ param\l|}">
<polygon fill="none" stroke="#000000" points="993,-.5 993,-79.5 1142,-79.5 1142,-.5 993,-.5"/>
<text text-anchor="start" x="1001" y="-67.5" font-family="Helvetica,sans-Serif" font-size="10.00" fill="#000000">o2::experimental::mergers</text>
<text text-anchor="middle" x="1067.5" y="-56.5" font-family="Helvetica,sans-Serif" font-size="10.00" fill="#000000">::ConfigEntry&lt; Timespan &gt;</text>
<polyline fill="none" stroke="#000000" points="993,-49.5 1142,-49.5 "/>
<text text-anchor="start" x="1001" y="-37.5" font-family="Helvetica,sans-Serif" font-size="10.00" fill="#000000">+ value</text>
<text text-anchor="start" x="1001" y="-26.5" font-family="Helvetica,sans-Serif" font-size="10.00" fill="#000000">+ param</text>
<polyline fill="none" stroke="#000000" points="993,-19.5 1142,-19.5 "/>
<text text-anchor="middle" x="1067.5" y="-7.5" font-family="Helvetica,sans-Serif" font-size="10.00" fill="#000000"> </text>
</a>
</g>
</g>
<!-- Node0&#45;&gt;Node6 -->
<g id="edge6" class="edge">
<title>Node0&#45;&gt;Node6</title>
<path fill="none" stroke="#ffa500" d="M752.6334,-153.6474C804.1477,-144.0898 871.1889,-129.3075 928.5,-109 951.1011,-100.9915 974.7876,-90.2118 996.0732,-79.5556"/>
<polygon fill="#ffa500" stroke="#ffa500" points="751.7537,-150.2501 742.545,-155.4894 753.0111,-157.1363 751.7537,-150.2501"/>
<text text-anchor="middle" x="993.5" y="-101" font-family="Helvetica,sans-Serif" font-size="10.00" fill="#000000"> &lt; Timespan &gt;</text>
</g>
<!-- Node7 -->
<g id="node8" class="node">
<title>Node7</title>
<g id="a_node8"><a xlink:href="../../d3/d80/structo2_1_1experimental_1_1mergers_1_1ConfigEntry.html" target="_top" xlink:title="{o2::experimental::mergers\l::ConfigEntry\&lt; OwnershipMode \&gt;\n|+ value\l+ param\l|}">
<polygon fill="none" stroke="#000000" points="1160,-.5 1160,-79.5 1339,-79.5 1339,-.5 1160,-.5"/>
<text text-anchor="start" x="1168" y="-67.5" font-family="Helvetica,sans-Serif" font-size="10.00" fill="#000000">o2::experimental::mergers</text>
<text text-anchor="middle" x="1249.5" y="-56.5" font-family="Helvetica,sans-Serif" font-size="10.00" fill="#000000">::ConfigEntry&lt; OwnershipMode &gt;</text>
<polyline fill="none" stroke="#000000" points="1160,-49.5 1339,-49.5 "/>
<text text-anchor="start" x="1168" y="-37.5" font-family="Helvetica,sans-Serif" font-size="10.00" fill="#000000">+ value</text>
<text text-anchor="start" x="1168" y="-26.5" font-family="Helvetica,sans-Serif" font-size="10.00" fill="#000000">+ param</text>
<polyline fill="none" stroke="#000000" points="1160,-19.5 1339,-19.5 "/>
<text text-anchor="middle" x="1249.5" y="-7.5" font-family="Helvetica,sans-Serif" font-size="10.00" fill="#000000"> </text>
</a>
</g>
</g>
<!-- Node0&#45;&gt;Node7 -->
<g id="edge7" class="edge">
<title>Node0&#45;&gt;Node7</title>
<path fill="none" stroke="#ffa500" d="M752.7831,-158.8703C850.0386,-147.8012 1014.8814,-124.1135 1150.5,-80 1153.5849,-78.9965 1156.7108,-77.9434 1159.8574,-76.8519"/>
<polygon fill="#ffa500" stroke="#ffa500" points="752.264,-155.4065 742.716,-159.9984 753.0436,-162.3629 752.264,-155.4065"/>
<text text-anchor="middle" x="1139.5" y="-101" font-family="Helvetica,sans-Serif" font-size="10.00" fill="#000000"> &lt; OwnershipMode &gt;</text>
</g>
</g>
</svg>
        <g id="navigator" transform="translate(0 0)" fill="#404254">
                <rect fill="#f2f5e9" fill-opacity="0.5" stroke="#606060" stroke-width=".5" x="0" y="0" width="60" height="60"/>
                <use id="zoomplus" xlink:href="#zoomPlus" x="17" y="9" onmousedown="handleZoom(evt,'in')"/>
                <use id="zoomminus" xlink:href="#zoomMin" x="42" y="9" onmousedown="handleZoom(evt,'out')"/>
                <use id="reset" xlink:href="#resetDef" x="30" y="36" onmousedown="handleReset()"/>
                <g id="arrowUp" xlink:href="#dirArrow" transform="translate(30 24)" onmousedown="handlePan(0,-1)">
                  <use xlink:href="#rim" fill="#404040">
                        <set attributeName="fill" to="#808080" begin="arrowUp.mouseover" end="arrowUp.mouseout"/>
                  </use>
                  <path fill="none" stroke="white" stroke-width="1.5" d="M0,-3.0v7 M-2.5,-0.5L0,-3.0L2.5,-0.5"/>
                </g>
                <g id="arrowRight" xlink:href="#dirArrow" transform="rotate(90) translate(36 -43)" onmousedown="handlePan(1,0)">
                  <use xlink:href="#rim" fill="#404040">
                        <set attributeName="fill" to="#808080" begin="arrowRight.mouseover" end="arrowRight.mouseout"/>
                  </use>
                  <path fill="none" stroke="white" stroke-width="1.5" d="M0,-3.0v7 M-2.5,-0.5L0,-3.0L2.5,-0.5"/>
                </g>
                <g id="arrowDown" xlink:href="#dirArrow" transform="rotate(180) translate(-30 -48)" onmousedown="handlePan(0,1)">
                  <use xlink:href="#rim" fill="#404040">
                        <set attributeName="fill" to="#808080" begin="arrowDown.mouseover" end="arrowDown.mouseout"/>
                  </use>
                  <path fill="none" stroke="white" stroke-width="1.5" d="M0,-3.0v7 M-2.5,-0.5L0,-3.0L2.5,-0.5"/>
                </g>
                <g id="arrowLeft" xlink:href="#dirArrow" transform="rotate(270) translate(-36 17)" onmousedown="handlePan(-1,0)">
                  <use xlink:href="#rim" fill="#404040">
                        <set attributeName="fill" to="#808080" begin="arrowLeft.mouseover" end="arrowLeft.mouseout"/>
                  </use>
                  <path fill="none" stroke="white" stroke-width="1.5" d="M0,-3.0v7 M-2.5,-0.5L0,-3.0L2.5,-0.5"/>
                </g>
        </g>
        <svg viewBox="0 0 15 15" width="100%" height="30px" preserveAspectRatio="xMaxYMin meet">
         <g id="arrow_out" transform="scale(0.3 0.3)">
          <a xlink:href="structo2_1_1experimental_1_1mergers_1_1ConfigEntry__inherit__graph_org.svg" target="_base">
           <rect id="button" ry="5" rx="5" y="6" x="6" height="38" width="38"
                fill="#f2f5e9" fill-opacity="0.5" stroke="#606060" stroke-width="1.0"/>
           <path id="arrow"
             d="M 11.500037,31.436501 C 11.940474,20.09759 22.043105,11.32322 32.158766,21.979434 L 37.068811,17.246167 C 37.068811,17.246167 37.088388,32 37.088388,32 L 22.160133,31.978069 C 22.160133,31.978069 26.997745,27.140456 26.997745,27.140456 C 18.528582,18.264221 13.291696,25.230495 11.500037,31.436501 z"
             style="fill:#404040;"/>
          </a>
         </g>
        </svg>
</svg>
