<?xml version="1.0" encoding="UTF-8" standalone="no"?>
<!DOCTYPE svg PUBLIC "-//W3C//DTD SVG 1.1//EN"
 "http://www.w3.org/Graphics/SVG/1.1/DTD/svg11.dtd">
<!-- Generated by graphviz version 2.40.1 (20161225.0304)
 -->
<!-- Title: /home/travis/build/AliceO2Group/AliceO2/Detectors/Raw/test/testRawReaderWriter.cxx Pages: 1 -->
<svg width="1943pt" height="296pt"
 viewBox="0.00 0.00 1943.00 296.00" xmlns="http://www.w3.org/2000/svg" xmlns:xlink="http://www.w3.org/1999/xlink">
<g id="graph0" class="graph" transform="scale(1 1) rotate(0) translate(4 292)">
<title>/home/travis/build/AliceO2Group/AliceO2/Detectors/Raw/test/testRawReaderWriter.cxx</title>
<!-- Node0 -->
<g id="node1" class="node">
<title>Node0</title>
<polygon fill="#bfbfbf" stroke="#000000" points="504.5,-235.5 504.5,-287.5 693.5,-287.5 693.5,-235.5 504.5,-235.5"/>
<text text-anchor="start" x="512.5" y="-275.5" font-family="Helvetica,sans-Serif" font-size="10.00" fill="#000000">/home/travis/build</text>
<text text-anchor="start" x="512.5" y="-264.5" font-family="Helvetica,sans-Serif" font-size="10.00" fill="#000000">/AliceO2Group/AliceO2</text>
<text text-anchor="start" x="512.5" y="-253.5" font-family="Helvetica,sans-Serif" font-size="10.00" fill="#000000">/Detectors/Raw/test/testRawReader</text>
<text text-anchor="middle" x="599" y="-242.5" font-family="Helvetica,sans-Serif" font-size="10.00" fill="#000000">Writer.cxx</text>
</g>
<!-- Node1 -->
<g id="node2" class="node">
<title>Node1</title>
<polygon fill="none" stroke="#bfbfbf" points="662,-62 662,-81 726,-81 726,-62 662,-62"/>
<text text-anchor="middle" x="694" y="-69" font-family="Helvetica,sans-Serif" font-size="10.00" fill="#000000">algorithm</text>
</g>
<!-- Node0&#45;&gt;Node1 -->
<g id="edge1" class="edge">
<title>Node0&#45;&gt;Node1</title>
<path fill="none" stroke="#191970" d="M617.6302,-235.2036C626.8313,-218.8551 634.5104,-197.499 627,-179 618.6057,-158.3237 600.3943,-163.6763 592,-143 588.6563,-134.764 587.3416,-130.5705 592,-123 605.0723,-101.7557 629.9113,-88.9561 651.8039,-81.4309"/>
<polygon fill="#191970" stroke="#191970" points="653.1227,-84.6848 661.6025,-78.3332 651.0126,-78.0104 653.1227,-84.6848"/>
</g>
<!-- Node2 -->
<g id="node3" class="node">
<title>Node2</title>
<polygon fill="none" stroke="#bfbfbf" points="562,-62 562,-81 606,-81 606,-62 562,-62"/>
<text text-anchor="middle" x="584" y="-69" font-family="Helvetica,sans-Serif" font-size="10.00" fill="#000000">string</text>
</g>
<!-- Node0&#45;&gt;Node2 -->
<g id="edge2" class="edge">
<title>Node0&#45;&gt;Node2</title>
<path fill="none" stroke="#191970" d="M517.4902,-235.4934C501.4027,-226.5186 486.5574,-214.6348 477,-199 468.6862,-185.3996 466.0859,-146.4552 482,-123 498.1055,-99.2627 528.5603,-85.91 552.0154,-78.784"/>
<polygon fill="#191970" stroke="#191970" points="553.2136,-82.0832 561.8992,-76.0161 551.3258,-75.3426 553.2136,-82.0832"/>
</g>
<!-- Node3 -->
<g id="node4" class="node">
<title>Node3</title>
<polygon fill="none" stroke="#bfbfbf" points="296,-179.5 296,-198.5 356,-198.5 356,-179.5 296,-179.5"/>
<text text-anchor="middle" x="326" y="-186.5" font-family="Helvetica,sans-Serif" font-size="10.00" fill="#000000">iostream</text>
</g>
<!-- Node0&#45;&gt;Node3 -->
<g id="edge3" class="edge">
<title>Node0&#45;&gt;Node3</title>
<path fill="none" stroke="#191970" d="M504.284,-236.3465C456.8454,-223.7483 401.9553,-209.1713 365.7512,-199.5566"/>
<polygon fill="#191970" stroke="#191970" points="366.6204,-196.1662 356.057,-196.9822 364.8237,-202.9317 366.6204,-196.1662"/>
</g>
<!-- Node4 -->
<g id="node5" class="node">
<title>Node4</title>
<polygon fill="none" stroke="#bfbfbf" points="374.5,-179.5 374.5,-198.5 429.5,-198.5 429.5,-179.5 374.5,-179.5"/>
<text text-anchor="middle" x="402" y="-186.5" font-family="Helvetica,sans-Serif" font-size="10.00" fill="#000000">fstream</text>
</g>
<!-- Node0&#45;&gt;Node4 -->
<g id="edge4" class="edge">
<title>Node0&#45;&gt;Node4</title>
<path fill="none" stroke="#191970" d="M528.1568,-235.4283C497.3842,-224.1033 462.6926,-211.3361 437.4881,-202.0604"/>
<polygon fill="#191970" stroke="#191970" points="438.5773,-198.7318 427.9838,-198.5626 436.1597,-205.301 438.5773,-198.7318"/>
</g>
<!-- Node5 -->
<g id="node6" class="node">
<title>Node5</title>
<polygon fill="none" stroke="#bfbfbf" points="0,-123.5 0,-142.5 72,-142.5 72,-123.5 0,-123.5"/>
<text text-anchor="middle" x="36" y="-130.5" font-family="Helvetica,sans-Serif" font-size="10.00" fill="#000000">TRandom.h</text>
</g>
<!-- Node0&#45;&gt;Node5 -->
<g id="edge5" class="edge">
<title>Node0&#45;&gt;Node5</title>
<path fill="none" stroke="#191970" d="M504.4191,-254.8515C385.8695,-245.5249 190.0741,-226.5535 123,-199 95.5223,-187.7124 69.0889,-165.5174 52.715,-149.9955"/>
<polygon fill="#191970" stroke="#191970" points="54.7183,-147.06 45.1173,-142.5799 49.829,-152.0694 54.7183,-147.06"/>
</g>
<!-- Node6 -->
<g id="node7" class="node">
<title>Node6</title>
<polygon fill="none" stroke="#bfbfbf" points="486,-179.5 486,-198.5 618,-198.5 618,-179.5 486,-179.5"/>
<text text-anchor="middle" x="552" y="-186.5" font-family="Helvetica,sans-Serif" font-size="10.00" fill="#000000">boost/test/unit_test.hpp</text>
</g>
<!-- Node0&#45;&gt;Node6 -->
<g id="edge6" class="edge">
<title>Node0&#45;&gt;Node6</title>
<path fill="none" stroke="#191970" d="M582.0319,-235.3258C575.93,-225.9134 569.1899,-215.5164 563.6437,-206.961"/>
<polygon fill="#191970" stroke="#191970" points="566.5573,-205.0211 558.1807,-198.534 560.6835,-208.829 566.5573,-205.0211"/>
</g>
<!-- Node7 -->
<g id="node8" class="node">
<title>Node7</title>
<g id="a_node8"><a xlink:href="../../df/dff/InteractionSampler_8h.html" target="_top" xlink:title="Steer/InteractionSampler.h">
<polygon fill="none" stroke="#000000" points="132,-179.5 132,-198.5 278,-198.5 278,-179.5 132,-179.5"/>
<text text-anchor="middle" x="205" y="-186.5" font-family="Helvetica,sans-Serif" font-size="10.00" fill="#000000">Steer/InteractionSampler.h</text>
</a>
</g>
</g>
<!-- Node0&#45;&gt;Node7 -->
<g id="edge7" class="edge">
<title>Node0&#45;&gt;Node7</title>
<path fill="none" stroke="#191970" d="M504.3766,-244.0883C430.6798,-230.5274 330.5126,-212.0956 266.7983,-200.3715"/>
<polygon fill="#191970" stroke="#191970" points="267.3635,-196.9168 256.8952,-198.5492 266.0966,-203.8012 267.3635,-196.9168"/>
</g>
<!-- Node18 -->
<g id="node19" class="node">
<title>Node18</title>
<g id="a_node19"><a xlink:href="../../d1/dec/HBFUtils_8h.html" target="_top" xlink:title="DetectorsRaw/HBFUtils.h">
<polygon fill="none" stroke="#000000" points="1298.5,-123.5 1298.5,-142.5 1437.5,-142.5 1437.5,-123.5 1298.5,-123.5"/>
<text text-anchor="middle" x="1368" y="-130.5" font-family="Helvetica,sans-Serif" font-size="10.00" fill="#000000">DetectorsRaw/HBFUtils.h</text>
</a>
</g>
</g>
<!-- Node0&#45;&gt;Node18 -->
<g id="edge23" class="edge">
<title>Node0&#45;&gt;Node18</title>
<path fill="none" stroke="#191970" d="M693.7581,-255.0852C839.6431,-244.6465 1112.31,-222.7491 1207,-199 1255.8599,-186.7455 1309.3773,-162.4529 1340.7544,-147.004"/>
<polygon fill="#191970" stroke="#191970" points="1342.3651,-150.1119 1349.7517,-142.5166 1339.2408,-143.8478 1342.3651,-150.1119"/>
</g>
<!-- Node20 -->
<g id="node21" class="node">
<title>Node20</title>
<g id="a_node21"><a xlink:href="../../de/da4/Triggers_8h.html" target="_top" xlink:title="Definition of the 32 Central Trigger System (CTS) Trigger Types defined in https://twiki.cern.ch/twiki/pub/ALICE/NoteForFEDevelopers/CTS_CRU_FE_interface.pdf. ">
<polygon fill="none" stroke="#000000" points="1775,-62 1775,-81 1935,-81 1935,-62 1775,-62"/>
<text text-anchor="middle" x="1855" y="-69" font-family="Helvetica,sans-Serif" font-size="10.00" fill="#000000">CommonConstants/Triggers.h</text>
</a>
</g>
</g>
<!-- Node0&#45;&gt;Node20 -->
<g id="edge60" class="edge">
<title>Node0&#45;&gt;Node20</title>
<path fill="none" stroke="#191970" d="M693.7716,-256.4567C872.5575,-245.5825 1271.115,-214.8526 1599,-143 1676.3828,-126.0424 1765.1036,-99.6746 1815.1568,-84.1434"/>
<polygon fill="#191970" stroke="#191970" points="1816.4302,-87.4126 1824.9349,-81.0943 1814.3463,-80.73 1816.4302,-87.4126"/>
</g>
<!-- Node21 -->
<g id="node22" class="node">
<title>Node21</title>
<g id="a_node22"><a xlink:href="../../da/d08/RawFileWriter_8h.html" target="_top" xlink:title="Utility class to write detectors data to (multiple) raw data file(s) respecting CRU format...">
<polygon fill="none" stroke="#000000" points="674.5,-179.5 674.5,-198.5 837.5,-198.5 837.5,-179.5 674.5,-179.5"/>
<text text-anchor="middle" x="756" y="-186.5" font-family="Helvetica,sans-Serif" font-size="10.00" fill="#000000">DetectorsRaw/RawFileWriter.h</text>
</a>
</g>
</g>
<!-- Node0&#45;&gt;Node21 -->
<g id="edge30" class="edge">
<title>Node0&#45;&gt;Node21</title>
<path fill="none" stroke="#191970" d="M655.6806,-235.3258C679.5329,-224.3112 706.3047,-211.9485 726.1889,-202.7663"/>
<polygon fill="#191970" stroke="#191970" points="727.7426,-205.904 735.354,-198.534 724.8078,-199.5489 727.7426,-205.904"/>
</g>
<!-- Node25 -->
<g id="node26" class="node">
<title>Node25</title>
<g id="a_node26"><a xlink:href="../../de/da2/Raw_2include_2DetectorsRaw_2RawFileReader_8h.html" target="_top" xlink:title="DetectorsRaw/RawFileReader.h">
<polygon fill="none" stroke="#000000" points="1030.5,-179.5 1030.5,-198.5 1197.5,-198.5 1197.5,-179.5 1030.5,-179.5"/>
<text text-anchor="middle" x="1114" y="-186.5" font-family="Helvetica,sans-Serif" font-size="10.00" fill="#000000">DetectorsRaw/RawFileReader.h</text>
</a>
</g>
</g>
<!-- Node0&#45;&gt;Node25 -->
<g id="edge39" class="edge">
<title>Node0&#45;&gt;Node25</title>
<path fill="none" stroke="#191970" d="M693.7589,-248.1602C792.3237,-234.2845 944.7937,-212.8203 1036.4459,-199.9178"/>
<polygon fill="#191970" stroke="#191970" points="1037.0765,-203.3636 1046.4909,-198.5037 1036.1006,-196.432 1037.0765,-203.3636"/>
</g>
<!-- Node37 -->
<g id="node38" class="node">
<title>Node37</title>
<g id="a_node38"><a xlink:href="../../dd/da4/Logger_8h.html" target="_top" xlink:title="Framework/Logger.h">
<polygon fill="none" stroke="#000000" points="1652.5,-179.5 1652.5,-198.5 1767.5,-198.5 1767.5,-179.5 1652.5,-179.5"/>
<text text-anchor="middle" x="1710" y="-186.5" font-family="Helvetica,sans-Serif" font-size="10.00" fill="#000000">Framework/Logger.h</text>
</a>
</g>
</g>
<!-- Node0&#45;&gt;Node37 -->
<g id="edge61" class="edge">
<title>Node0&#45;&gt;Node37</title>
<path fill="none" stroke="#191970" d="M693.7462,-258.2734C876.6415,-251.4973 1290.9428,-233.4867 1638,-199 1639.3068,-198.8701 1640.6264,-198.7343 1641.9555,-198.5932"/>
<polygon fill="#191970" stroke="#191970" points="1642.7379,-202.0269 1652.2787,-197.42 1641.9474,-195.0717 1642.7379,-202.0269"/>
</g>
<!-- Node7&#45;&gt;Node5 -->
<g id="edge10" class="edge">
<title>Node7&#45;&gt;Node5</title>
<path fill="none" stroke="#191970" d="M175.9479,-179.3733C147.8457,-170.0613 105.0946,-155.8953 74.2393,-145.671"/>
<polygon fill="#191970" stroke="#191970" points="75.2664,-142.3243 64.673,-142.5011 73.0645,-148.969 75.2664,-142.3243"/>
</g>
<!-- Node8 -->
<g id="node9" class="node">
<title>Node8</title>
<polygon fill="none" stroke="#bfbfbf" points="604.5,-.5 604.5,-19.5 663.5,-19.5 663.5,-.5 604.5,-.5"/>
<text text-anchor="middle" x="634" y="-7.5" font-family="Helvetica,sans-Serif" font-size="10.00" fill="#000000">Rtypes.h</text>
</g>
<!-- Node7&#45;&gt;Node8 -->
<g id="edge8" class="edge">
<title>Node7&#45;&gt;Node8</title>
<path fill="none" stroke="#191970" d="M232.7437,-179.4399C257.4992,-170.6771 294.5836,-156.9759 326,-143 343.798,-135.0824 347.3408,-131.2225 365,-123 448.3029,-84.2121 548.6215,-43.654 600.0108,-23.3115"/>
<polygon fill="#191970" stroke="#191970" points="601.6007,-26.4468 609.6168,-19.519 599.0301,-19.9358 601.6007,-26.4468"/>
</g>
<!-- Node9 -->
<g id="node10" class="node">
<title>Node9</title>
<polygon fill="none" stroke="#bfbfbf" points="374,-123.5 374,-142.5 430,-142.5 430,-123.5 374,-123.5"/>
<text text-anchor="middle" x="402" y="-130.5" font-family="Helvetica,sans-Serif" font-size="10.00" fill="#000000">TMath.h</text>
</g>
<!-- Node7&#45;&gt;Node9 -->
<g id="edge9" class="edge">
<title>Node7&#45;&gt;Node9</title>
<path fill="none" stroke="#191970" d="M238.8655,-179.3733C273.7585,-169.4544 328.0258,-154.0282 364.272,-143.7247"/>
<polygon fill="#191970" stroke="#191970" points="365.3245,-147.0643 373.9864,-140.9633 363.4104,-140.331 365.3245,-147.0643"/>
</g>
<!-- Node10 -->
<g id="node11" class="node">
<title>Node10</title>
<polygon fill="none" stroke="#bfbfbf" points="600.5,-123.5 600.5,-142.5 647.5,-142.5 647.5,-123.5 600.5,-123.5"/>
<text text-anchor="middle" x="624" y="-130.5" font-family="Helvetica,sans-Serif" font-size="10.00" fill="#000000">vector</text>
</g>
<!-- Node7&#45;&gt;Node10 -->
<g id="edge11" class="edge">
<title>Node7&#45;&gt;Node10</title>
<path fill="none" stroke="#191970" d="M278.3169,-180.0533C281.2495,-179.6972 284.1525,-179.345 287,-179 419.8766,-162.8985 454.5242,-168.0911 586,-143 587.4658,-142.7203 588.9586,-142.4153 590.463,-142.0915"/>
<polygon fill="#191970" stroke="#191970" points="591.4688,-145.4504 600.3982,-139.7482 589.8618,-138.6373 591.4688,-145.4504"/>
</g>
<!-- Node11 -->
<g id="node12" class="node">
<title>Node11</title>
<g id="a_node12"><a xlink:href="../../d9/d80/InteractionRecord_8h.html" target="_top" xlink:title="CommonDataFormat/Interaction\lRecord.h">
<polygon fill="none" stroke="#000000" points="1378,-56.5 1378,-86.5 1552,-86.5 1552,-56.5 1378,-56.5"/>
<text text-anchor="start" x="1386" y="-74.5" font-family="Helvetica,sans-Serif" font-size="10.00" fill="#000000">CommonDataFormat/Interaction</text>
<text text-anchor="middle" x="1465" y="-63.5" font-family="Helvetica,sans-Serif" font-size="10.00" fill="#000000">Record.h</text>
</a>
</g>
</g>
<!-- Node7&#45;&gt;Node11 -->
<g id="edge12" class="edge">
<title>Node7&#45;&gt;Node11</title>
<path fill="none" stroke="#191970" d="M250.3266,-179.4458C322.3442,-164.679 467.501,-136.5988 592,-123 918.8897,-87.2945 1003.2688,-113.9073 1331,-87 1342.8526,-86.0269 1355.2756,-84.8299 1367.5763,-83.5362"/>
<polygon fill="#191970" stroke="#191970" points="1368.2967,-86.979 1377.865,-82.4296 1367.548,-80.0192 1368.2967,-86.979"/>
</g>
<!-- Node15 -->
<g id="node16" class="node">
<title>Node15</title>
<g id="a_node16"><a xlink:href="../../d4/dc6/LHCConstants_8h.html" target="_top" xlink:title="Header to collect LHC related constants. ">
<polygon fill="none" stroke="#000000" points="153,-.5 153,-19.5 343,-19.5 343,-.5 153,-.5"/>
<text text-anchor="middle" x="248" y="-7.5" font-family="Helvetica,sans-Serif" font-size="10.00" fill="#000000">CommonConstants/LHCConstants.h</text>
</a>
</g>
</g>
<!-- Node7&#45;&gt;Node15 -->
<g id="edge22" class="edge">
<title>Node7&#45;&gt;Node15</title>
<path fill="none" stroke="#191970" d="M169.0343,-179.454C150.6374,-172.5484 129.8785,-161.1556 119,-143 114.4313,-135.3751 116.2813,-131.4629 119,-123 130.2035,-88.1244 139.7723,-80.5047 167,-56 181.4341,-43.0095 200.1484,-32.0849 215.952,-24.1463"/>
<polygon fill="#191970" stroke="#191970" points="217.8748,-27.1041 225.3515,-19.5975 214.8255,-20.8032 217.8748,-27.1041"/>
</g>
<!-- Node16 -->
<g id="node17" class="node">
<title>Node16</title>
<g id="a_node17"><a xlink:href="../../d4/d5f/BunchFilling_8h.html" target="_top" xlink:title="CommonDataFormat/BunchFilling.h">
<polygon fill="none" stroke="#000000" points="128.5,-123.5 128.5,-142.5 317.5,-142.5 317.5,-123.5 128.5,-123.5"/>
<text text-anchor="middle" x="223" y="-130.5" font-family="Helvetica,sans-Serif" font-size="10.00" fill="#000000">CommonDataFormat/BunchFilling.h</text>
</a>
</g>
</g>
<!-- Node7&#45;&gt;Node16 -->
<g id="edge18" class="edge">
<title>Node7&#45;&gt;Node16</title>
<path fill="none" stroke="#191970" d="M208.1354,-179.2455C210.51,-171.8579 213.8493,-161.4689 216.7615,-152.4087"/>
<polygon fill="#191970" stroke="#191970" points="220.1725,-153.234 219.9006,-142.6427 213.5083,-151.0919 220.1725,-153.234"/>
</g>
<!-- Node11&#45;&gt;Node8 -->
<g id="edge13" class="edge">
<title>Node11&#45;&gt;Node8</title>
<path fill="none" stroke="#191970" d="M1377.7452,-57.6123C1373.1012,-57.0287 1368.4975,-56.4858 1364,-56 1101.6092,-27.6562 784.13,-15.0159 673.9424,-11.2625"/>
<polygon fill="#191970" stroke="#191970" points="673.7458,-7.754 663.6341,-10.9169 673.5111,-14.7501 673.7458,-7.754"/>
</g>
<!-- Node12 -->
<g id="node13" class="node">
<title>Node12</title>
<polygon fill="none" stroke="#bfbfbf" points="1463.5,-.5 1463.5,-19.5 1512.5,-19.5 1512.5,-.5 1463.5,-.5"/>
<text text-anchor="middle" x="1488" y="-7.5" font-family="Helvetica,sans-Serif" font-size="10.00" fill="#000000">iosfwd</text>
</g>
<!-- Node11&#45;&gt;Node12 -->
<g id="edge14" class="edge">
<title>Node11&#45;&gt;Node12</title>
<path fill="none" stroke="#191970" d="M1470.6854,-56.2977C1473.745,-48.1166 1477.5498,-37.943 1480.8128,-29.2179"/>
<polygon fill="#191970" stroke="#191970" points="1484.0927,-30.4394 1484.3174,-19.8469 1477.5362,-27.9873 1484.0927,-30.4394"/>
</g>
<!-- Node13 -->
<g id="node14" class="node">
<title>Node13</title>
<polygon fill="none" stroke="#bfbfbf" points="1398.5,-.5 1398.5,-19.5 1445.5,-19.5 1445.5,-.5 1398.5,-.5"/>
<text text-anchor="middle" x="1422" y="-7.5" font-family="Helvetica,sans-Serif" font-size="10.00" fill="#000000">cmath</text>
</g>
<!-- Node11&#45;&gt;Node13 -->
<g id="edge15" class="edge">
<title>Node11&#45;&gt;Node13</title>
<path fill="none" stroke="#191970" d="M1454.3708,-56.2977C1448.4019,-47.7609 1440.9162,-37.0545 1434.6471,-28.0883"/>
<polygon fill="#191970" stroke="#191970" points="1437.4835,-26.0368 1428.8848,-19.8469 1431.7466,-30.048 1437.4835,-26.0368"/>
</g>
<!-- Node14 -->
<g id="node15" class="node">
<title>Node14</title>
<polygon fill="none" stroke="#bfbfbf" points="1606,-.5 1606,-19.5 1656,-19.5 1656,-.5 1606,-.5"/>
<text text-anchor="middle" x="1631" y="-7.5" font-family="Helvetica,sans-Serif" font-size="10.00" fill="#000000">cstdint</text>
</g>
<!-- Node11&#45;&gt;Node14 -->
<g id="edge16" class="edge">
<title>Node11&#45;&gt;Node14</title>
<path fill="none" stroke="#191970" d="M1505.6082,-56.4554C1533.3544,-46.1759 1569.7403,-32.6956 1596.1657,-22.9055"/>
<polygon fill="#191970" stroke="#191970" points="1597.6058,-26.1045 1605.767,-19.3484 1595.1739,-19.5405 1597.6058,-26.1045"/>
</g>
<!-- Node11&#45;&gt;Node15 -->
<g id="edge17" class="edge">
<title>Node11&#45;&gt;Node15</title>
<path fill="none" stroke="#191970" d="M1377.8714,-60.4915C1362.2829,-58.7874 1346.1751,-57.1983 1331,-56 1143.2534,-41.174 587.0806,-21.4128 353.3409,-13.496"/>
<polygon fill="#191970" stroke="#191970" points="353.245,-9.9908 343.1324,-13.1508 353.0084,-16.9868 353.245,-9.9908"/>
</g>
<!-- Node16&#45;&gt;Node2 -->
<g id="edge21" class="edge">
<title>Node16&#45;&gt;Node2</title>
<path fill="none" stroke="#191970" d="M279.0102,-123.4581C355.5802,-110.4136 490.425,-87.4414 551.8699,-76.9737"/>
<polygon fill="#191970" stroke="#191970" points="552.5012,-80.4166 561.7714,-75.2869 551.3256,-73.5161 552.5012,-80.4166"/>
</g>
<!-- Node16&#45;&gt;Node15 -->
<g id="edge19" class="edge">
<title>Node16&#45;&gt;Node15</title>
<path fill="none" stroke="#191970" d="M224.9617,-123.3484C229.0509,-103.2295 238.5567,-56.4608 243.9939,-29.7098"/>
<polygon fill="#191970" stroke="#191970" points="247.4854,-30.1036 246.0474,-19.6068 240.6257,-28.7092 247.4854,-30.1036"/>
</g>
<!-- Node17 -->
<g id="node18" class="node">
<title>Node17</title>
<polygon fill="none" stroke="#bfbfbf" points="176,-62 176,-81 220,-81 220,-62 176,-62"/>
<text text-anchor="middle" x="198" y="-69" font-family="Helvetica,sans-Serif" font-size="10.00" fill="#000000">bitset</text>
</g>
<!-- Node16&#45;&gt;Node17 -->
<g id="edge20" class="edge">
<title>Node16&#45;&gt;Node17</title>
<path fill="none" stroke="#191970" d="M219.0938,-123.3906C215.5554,-114.6862 210.2364,-101.6015 205.825,-90.7494"/>
<polygon fill="#191970" stroke="#191970" points="208.9695,-89.1907 201.9613,-81.2449 202.4848,-91.8268 208.9695,-89.1907"/>
</g>
<!-- Node18&#45;&gt;Node8 -->
<g id="edge24" class="edge">
<title>Node18&#45;&gt;Node8</title>
<path fill="none" stroke="#191970" d="M1366.5456,-123.4316C1363.4193,-106.5516 1354.3466,-71.7803 1331,-56 1276.5315,-19.1839 814.2207,-11.7332 674.0946,-10.3153"/>
<polygon fill="#191970" stroke="#191970" points="673.8451,-6.8128 663.8118,-10.2164 673.7776,-13.8125 673.8451,-6.8128"/>
</g>
<!-- Node18&#45;&gt;Node11 -->
<g id="edge25" class="edge">
<title>Node18&#45;&gt;Node11</title>
<path fill="none" stroke="#191970" d="M1383.1563,-123.3906C1396.284,-115.0673 1415.7289,-102.7389 1432.3715,-92.1872"/>
<polygon fill="#191970" stroke="#191970" points="1434.6997,-94.8553 1441.2711,-86.5446 1430.9514,-88.9433 1434.6997,-94.8553"/>
</g>
<!-- Node19 -->
<g id="node20" class="node">
<title>Node19</title>
<g id="a_node20"><a xlink:href="../../d4/d78/DataFormats_2Headers_2include_2Headers_2RAWDataHeader_8h.html" target="_top" xlink:title="Headers/RAWDataHeader.h">
<polygon fill="none" stroke="#000000" points="1607.5,-62 1607.5,-81 1756.5,-81 1756.5,-62 1607.5,-62"/>
<text text-anchor="middle" x="1682" y="-69" font-family="Helvetica,sans-Serif" font-size="10.00" fill="#000000">Headers/RAWDataHeader.h</text>
</a>
</g>
</g>
<!-- Node18&#45;&gt;Node19 -->
<g id="edge26" class="edge">
<title>Node18&#45;&gt;Node19</title>
<path fill="none" stroke="#191970" d="M1416.718,-123.4581C1472.4903,-112.5345 1563.8075,-94.6492 1623.4128,-82.9749"/>
<polygon fill="#191970" stroke="#191970" points="1624.2853,-86.3706 1633.4261,-81.0137 1622.9398,-79.5011 1624.2853,-86.3706"/>
</g>
<!-- Node18&#45;&gt;Node20 -->
<g id="edge28" class="edge">
<title>Node18&#45;&gt;Node20</title>
<path fill="none" stroke="#191970" d="M1437.7806,-124.115C1440.8959,-123.7347 1443.9801,-123.3615 1447,-123 1588.6662,-106.0409 1624.7665,-107.2491 1766,-87 1774.893,-85.725 1784.2622,-84.2445 1793.4493,-82.7144"/>
<polygon fill="#191970" stroke="#191970" points="1794.0412,-86.1641 1803.3156,-81.0419 1792.8712,-79.2625 1794.0412,-86.1641"/>
</g>
<!-- Node19&#45;&gt;Node14 -->
<g id="edge27" class="edge">
<title>Node19&#45;&gt;Node14</title>
<path fill="none" stroke="#191970" d="M1674.0313,-61.8906C1666.4409,-52.7376 1654.8339,-38.7409 1645.5868,-27.59"/>
<polygon fill="#191970" stroke="#191970" points="1648.1587,-25.2083 1639.0811,-19.7449 1642.7703,-29.6766 1648.1587,-25.2083"/>
</g>
<!-- Node20&#45;&gt;Node14 -->
<g id="edge29" class="edge">
<title>Node20&#45;&gt;Node14</title>
<path fill="none" stroke="#191970" d="M1820,-61.8906C1777.9406,-50.3431 1707.8018,-31.0862 1665.8218,-19.5605"/>
<polygon fill="#191970" stroke="#191970" points="1666.6135,-16.1483 1656.0436,-16.8758 1664.7601,-22.8986 1666.6135,-16.1483"/>
</g>
<!-- Node21&#45;&gt;Node2 -->
<g id="edge34" class="edge">
<title>Node21&#45;&gt;Node2</title>
<path fill="none" stroke="#191970" d="M741.9245,-179.3845C712.1912,-159.0724 642.7626,-111.6431 606.6805,-86.9939"/>
<polygon fill="#191970" stroke="#191970" points="608.5015,-83.9992 598.27,-81.2484 604.5529,-89.7793 608.5015,-83.9992"/>
</g>
<!-- Node21&#45;&gt;Node8 -->
<g id="edge36" class="edge">
<title>Node21&#45;&gt;Node8</title>
<path fill="none" stroke="#191970" d="M682.2754,-179.4798C652.2112,-172.8879 618.3918,-161.7604 592,-143 567.2794,-125.4275 562.0836,-115.9377 553,-87 548.8736,-73.8546 546.0687,-67.9073 553,-56 562.0955,-40.3748 578.6946,-29.624 594.5089,-22.4703"/>
<polygon fill="#191970" stroke="#191970" points="596.2775,-25.5264 604.1801,-18.4695 593.6016,-19.058 596.2775,-25.5264"/>
</g>
<!-- Node21&#45;&gt;Node10 -->
<g id="edge33" class="edge">
<title>Node21&#45;&gt;Node10</title>
<path fill="none" stroke="#191970" d="M733.3084,-179.3733C711.9289,-170.3032 679.6943,-156.6279 655.7638,-146.4755"/>
<polygon fill="#191970" stroke="#191970" points="656.9683,-143.1846 646.3955,-142.5011 654.2344,-149.6287 656.9683,-143.1846"/>
</g>
<!-- Node21&#45;&gt;Node18 -->
<g id="edge38" class="edge">
<title>Node21&#45;&gt;Node18</title>
<path fill="none" stroke="#191970" d="M837.8203,-182.9558C940.377,-175.151 1121.8202,-160.5887 1287.8249,-143.0876"/>
<polygon fill="#191970" stroke="#191970" points="1288.6554,-146.5193 1298.2307,-141.9845 1287.9174,-139.5583 1288.6554,-146.5193"/>
</g>
<!-- Node21&#45;&gt;Node19 -->
<g id="edge37" class="edge">
<title>Node21&#45;&gt;Node19</title>
<path fill="none" stroke="#191970" d="M837.8563,-183.9484C944.2006,-176.7501 1123.7372,-162.2512 1187,-143 1205.2586,-137.4438 1206.7193,-128.483 1225,-123 1381.1375,-76.1692 1428.4219,-108.5536 1590,-87 1599.4136,-85.7443 1609.3411,-84.2507 1619.0533,-82.6941"/>
<polygon fill="#191970" stroke="#191970" points="1619.7621,-86.1247 1629.066,-81.0564 1618.6322,-79.2165 1619.7621,-86.1247"/>
</g>
<!-- Node22 -->
<g id="node23" class="node">
<title>Node22</title>
<polygon fill="none" stroke="#bfbfbf" points="704.5,-123.5 704.5,-142.5 761.5,-142.5 761.5,-123.5 704.5,-123.5"/>
<text text-anchor="middle" x="733" y="-130.5" font-family="Helvetica,sans-Serif" font-size="10.00" fill="#000000">gsl/span</text>
</g>
<!-- Node21&#45;&gt;Node22 -->
<g id="edge31" class="edge">
<title>Node21&#45;&gt;Node22</title>
<path fill="none" stroke="#191970" d="M751.9937,-179.2455C748.9265,-171.7776 744.5997,-161.2427 740.8503,-152.1137"/>
<polygon fill="#191970" stroke="#191970" points="743.9972,-150.5631 736.9604,-142.6427 737.5221,-153.2226 743.9972,-150.5631"/>
</g>
<!-- Node23 -->
<g id="node24" class="node">
<title>Node23</title>
<polygon fill="none" stroke="#bfbfbf" points="862.5,-123.5 862.5,-142.5 955.5,-142.5 955.5,-123.5 862.5,-123.5"/>
<text text-anchor="middle" x="909" y="-130.5" font-family="Helvetica,sans-Serif" font-size="10.00" fill="#000000">unordered_map</text>
</g>
<!-- Node21&#45;&gt;Node23 -->
<g id="edge32" class="edge">
<title>Node21&#45;&gt;Node23</title>
<path fill="none" stroke="#191970" d="M782.3016,-179.3733C807.4128,-170.1822 845.4438,-156.2624 873.2872,-146.0713"/>
<polygon fill="#191970" stroke="#191970" points="874.8538,-149.2251 883.0416,-142.5011 872.4478,-142.6516 874.8538,-149.2251"/>
</g>
<!-- Node24 -->
<g id="node25" class="node">
<title>Node24</title>
<polygon fill="none" stroke="#bfbfbf" points="779.5,-123.5 779.5,-142.5 844.5,-142.5 844.5,-123.5 779.5,-123.5"/>
<text text-anchor="middle" x="812" y="-130.5" font-family="Helvetica,sans-Serif" font-size="10.00" fill="#000000">functional</text>
</g>
<!-- Node21&#45;&gt;Node24 -->
<g id="edge35" class="edge">
<title>Node21&#45;&gt;Node24</title>
<path fill="none" stroke="#191970" d="M765.7545,-179.2455C773.8648,-171.1352 785.5925,-159.4075 795.2081,-149.7919"/>
<polygon fill="#191970" stroke="#191970" points="797.7611,-152.1887 802.3573,-142.6427 792.8113,-147.2389 797.7611,-152.1887"/>
</g>
<!-- Node25&#45;&gt;Node2 -->
<g id="edge44" class="edge">
<title>Node25&#45;&gt;Node2</title>
<path fill="none" stroke="#191970" d="M1091.5922,-179.4755C1070.087,-170.2875 1036.7275,-155.9115 1008,-143 988.7753,-134.3595 985.3155,-128.6151 965,-123 816.4056,-81.9293 769.1702,-125.9278 620,-87 617.6667,-86.3911 615.2896,-85.6538 612.9255,-84.8352"/>
<polygon fill="#191970" stroke="#191970" points="614.0141,-81.5032 603.4257,-81.1341 611.4729,-88.0256 614.0141,-81.5032"/>
</g>
<!-- Node25&#45;&gt;Node8 -->
<g id="edge46" class="edge">
<title>Node25&#45;&gt;Node8</title>
<path fill="none" stroke="#191970" d="M1099.2955,-179.4399C1073.4504,-162.8165 1020.663,-129.7121 1000,-123 926.2676,-99.0489 711.4813,-137.8926 653,-87 636.8198,-72.9194 633.2958,-47.4636 633.0164,-29.6901"/>
<polygon fill="#191970" stroke="#191970" points="636.5182,-29.6097 633.1891,-19.5515 629.5192,-29.4904 636.5182,-29.6097"/>
</g>
<!-- Node25&#45;&gt;Node10 -->
<g id="edge43" class="edge">
<title>Node25&#45;&gt;Node10</title>
<path fill="none" stroke="#191970" d="M1030.249,-180.4899C945.8001,-171.7427 811.7369,-157.4026 696,-143 683.505,-141.4451 669.813,-139.5832 657.755,-137.8899"/>
<polygon fill="#191970" stroke="#191970" points="658.0427,-134.3957 647.6503,-136.4571 657.0599,-141.3264 658.0427,-134.3957"/>
</g>
<!-- Node25&#45;&gt;Node18 -->
<g id="edge59" class="edge">
<title>Node25&#45;&gt;Node18</title>
<path fill="none" stroke="#191970" d="M1157.3756,-179.4369C1200.937,-169.8328 1268.1277,-155.0191 1314.8634,-144.7152"/>
<polygon fill="#191970" stroke="#191970" points="1315.7915,-148.0947 1324.8034,-142.5237 1314.2843,-141.2588 1315.7915,-148.0947"/>
</g>
<!-- Node25&#45;&gt;Node19 -->
<g id="edge47" class="edge">
<title>Node25&#45;&gt;Node19</title>
<path fill="none" stroke="#191970" d="M1197.8762,-185.0143C1309.5806,-178.9294 1500.7865,-165.5855 1567,-143 1586.3751,-136.3911 1632.6093,-105.685 1660.1926,-86.7259"/>
<polygon fill="#191970" stroke="#191970" points="1662.1991,-89.5938 1668.4351,-81.0286 1658.2189,-83.8355 1662.1991,-89.5938"/>
</g>
<!-- Node25&#45;&gt;Node23 -->
<g id="edge41" class="edge">
<title>Node25&#45;&gt;Node23</title>
<path fill="none" stroke="#191970" d="M1078.7592,-179.3733C1044.0806,-169.9001 991.0117,-155.4032 953.4538,-145.1435"/>
<polygon fill="#191970" stroke="#191970" points="954.3498,-141.7601 943.7809,-142.5011 952.5051,-148.5126 954.3498,-141.7601"/>
</g>
<!-- Node26 -->
<g id="node27" class="node">
<title>Node26</title>
<polygon fill="none" stroke="#bfbfbf" points="1234,-123.5 1234,-142.5 1280,-142.5 1280,-123.5 1234,-123.5"/>
<text text-anchor="middle" x="1257" y="-130.5" font-family="Helvetica,sans-Serif" font-size="10.00" fill="#000000">cstdio</text>
</g>
<!-- Node25&#45;&gt;Node26 -->
<g id="edge40" class="edge">
<title>Node25&#45;&gt;Node26</title>
<path fill="none" stroke="#191970" d="M1138.5826,-179.3733C1162.2328,-170.1116 1198.1447,-156.0482 1224.2194,-145.8371"/>
<polygon fill="#191970" stroke="#191970" points="1225.6499,-149.0358 1233.6851,-142.1303 1223.0974,-142.5178 1225.6499,-149.0358"/>
</g>
<!-- Node27 -->
<g id="node28" class="node">
<title>Node27</title>
<polygon fill="none" stroke="#bfbfbf" points="1456,-123.5 1456,-142.5 1494,-142.5 1494,-123.5 1456,-123.5"/>
<text text-anchor="middle" x="1475" y="-130.5" font-family="Helvetica,sans-Serif" font-size="10.00" fill="#000000">map</text>
</g>
<!-- Node25&#45;&gt;Node27 -->
<g id="edge42" class="edge">
<title>Node25&#45;&gt;Node27</title>
<path fill="none" stroke="#191970" d="M1197.6883,-182.2487C1263.1909,-175.8589 1356.5469,-164.322 1446.106,-142.8066"/>
<polygon fill="#191970" stroke="#191970" points="1446.9979,-146.1917 1455.8792,-140.4148 1445.3338,-139.3924 1446.9979,-146.1917"/>
</g>
<!-- Node28 -->
<g id="node29" class="node">
<title>Node28</title>
<polygon fill="none" stroke="#bfbfbf" points="1512.5,-123.5 1512.5,-142.5 1557.5,-142.5 1557.5,-123.5 1512.5,-123.5"/>
<text text-anchor="middle" x="1535" y="-130.5" font-family="Helvetica,sans-Serif" font-size="10.00" fill="#000000">utility</text>
</g>
<!-- Node25&#45;&gt;Node28 -->
<g id="edge45" class="edge">
<title>Node25&#45;&gt;Node28</title>
<path fill="none" stroke="#191970" d="M1197.8233,-183.5937C1274.7811,-177.6029 1391.9721,-165.8933 1502.4307,-142.7539"/>
<polygon fill="#191970" stroke="#191970" points="1503.3611,-146.1343 1512.4123,-140.6273 1501.9025,-139.2879 1503.3611,-146.1343"/>
</g>
<!-- Node29 -->
<g id="node30" class="node">
<title>Node29</title>
<g id="a_node30"><a xlink:href="../../dc/dcd/DataHeader_8h.html" target="_top" xlink:title="Headers/DataHeader.h">
<polygon fill="none" stroke="#000000" points="1050.5,-123.5 1050.5,-142.5 1177.5,-142.5 1177.5,-123.5 1050.5,-123.5"/>
<text text-anchor="middle" x="1114" y="-130.5" font-family="Helvetica,sans-Serif" font-size="10.00" fill="#000000">Headers/DataHeader.h</text>
</a>
</g>
</g>
<!-- Node25&#45;&gt;Node29 -->
<g id="edge48" class="edge">
<title>Node25&#45;&gt;Node29</title>
<path fill="none" stroke="#191970" d="M1114,-179.2455C1114,-171.9382 1114,-161.6944 1114,-152.7046"/>
<polygon fill="#191970" stroke="#191970" points="1117.5001,-152.6426 1114,-142.6427 1110.5001,-152.6427 1117.5001,-152.6426"/>
</g>
<!-- Node29&#45;&gt;Node1 -->
<g id="edge53" class="edge">
<title>Node29&#45;&gt;Node1</title>
<path fill="none" stroke="#191970" d="M1050.1548,-124.77C1045.3655,-124.1663 1040.6066,-123.5708 1036,-123 902.2912,-106.4334 865.8619,-119.0572 735,-87 731.9927,-86.2633 728.9057,-85.3692 725.8402,-84.3865"/>
<polygon fill="#191970" stroke="#191970" points="726.8408,-81.0286 716.246,-81.029 724.5286,-87.6357 726.8408,-81.0286"/>
</g>
<!-- Node29&#45;&gt;Node2 -->
<g id="edge55" class="edge">
<title>Node29&#45;&gt;Node2</title>
<path fill="none" stroke="#191970" d="M1050.4891,-127.0958C933.2491,-116.1328 691.2619,-93.183 653,-87 640.9364,-85.0506 627.8232,-82.274 616.3001,-79.6081"/>
<polygon fill="#191970" stroke="#191970" points="616.7787,-76.1245 606.2404,-77.2179 615.1605,-82.9349 616.7787,-76.1245"/>
</g>
<!-- Node29&#45;&gt;Node14 -->
<g id="edge49" class="edge">
<title>Node29&#45;&gt;Node14</title>
<path fill="none" stroke="#191970" d="M1177.8317,-124.6567C1182.6242,-124.0792 1187.3874,-123.5206 1192,-123 1273.8696,-113.7605 1487.363,-123.9539 1561,-87 1574.7756,-80.0869 1601.2841,-48.1835 1617.433,-27.6731"/>
<polygon fill="#191970" stroke="#191970" points="1620.2697,-29.7268 1623.6524,-19.6865 1614.7468,-25.4259 1620.2697,-29.7268"/>
</g>
<!-- Node30 -->
<g id="node31" class="node">
<title>Node30</title>
<polygon fill="none" stroke="#bfbfbf" points="1194,-62 1194,-81 1252,-81 1252,-62 1194,-62"/>
<text text-anchor="middle" x="1223" y="-69" font-family="Helvetica,sans-Serif" font-size="10.00" fill="#000000">memory</text>
</g>
<!-- Node29&#45;&gt;Node30 -->
<g id="edge50" class="edge">
<title>Node29&#45;&gt;Node30</title>
<path fill="none" stroke="#191970" d="M1131.0313,-123.3906C1148.789,-113.3713 1176.833,-97.5483 1197.2882,-86.0071"/>
<polygon fill="#191970" stroke="#191970" points="1199.0989,-89.0042 1206.0883,-81.0419 1195.6591,-82.9077 1199.0989,-89.0042"/>
</g>
<!-- Node31 -->
<g id="node32" class="node">
<title>Node31</title>
<polygon fill="none" stroke="#bfbfbf" points="1270,-62 1270,-81 1322,-81 1322,-62 1270,-62"/>
<text text-anchor="middle" x="1296" y="-69" font-family="Helvetica,sans-Serif" font-size="10.00" fill="#000000">cassert</text>
</g>
<!-- Node29&#45;&gt;Node31 -->
<g id="edge51" class="edge">
<title>Node29&#45;&gt;Node31</title>
<path fill="none" stroke="#191970" d="M1148.2362,-123.484C1178.2694,-114.8534 1222.9602,-101.322 1261,-87 1262.6248,-86.3883 1264.2825,-85.7399 1265.9494,-85.0689"/>
<polygon fill="#191970" stroke="#191970" points="1267.5765,-88.1814 1275.4331,-81.0734 1264.8586,-81.7306 1267.5765,-88.1814"/>
</g>
<!-- Node32 -->
<g id="node33" class="node">
<title>Node32</title>
<polygon fill="none" stroke="#bfbfbf" points="744,-62 744,-81 794,-81 794,-62 744,-62"/>
<text text-anchor="middle" x="769" y="-69" font-family="Helvetica,sans-Serif" font-size="10.00" fill="#000000">cstring</text>
</g>
<!-- Node29&#45;&gt;Node32 -->
<g id="edge52" class="edge">
<title>Node29&#45;&gt;Node32</title>
<path fill="none" stroke="#191970" d="M1050.2626,-124.4766C966.4652,-113.1265 827.1242,-93.7022 804,-87 801.8737,-86.3837 799.7081,-85.6654 797.5495,-84.8819"/>
<polygon fill="#191970" stroke="#191970" points="798.8571,-81.6354 788.2736,-81.1454 796.2415,-88.1284 798.8571,-81.6354"/>
</g>
<!-- Node33 -->
<g id="node34" class="node">
<title>Node33</title>
<polygon fill="none" stroke="#bfbfbf" points="812.5,-62 812.5,-81 877.5,-81 877.5,-62 812.5,-62"/>
<text text-anchor="middle" x="845" y="-69" font-family="Helvetica,sans-Serif" font-size="10.00" fill="#000000">stdexcept</text>
</g>
<!-- Node29&#45;&gt;Node33 -->
<g id="edge54" class="edge">
<title>Node29&#45;&gt;Node33</title>
<path fill="none" stroke="#191970" d="M1054.134,-123.4573C1008.0126,-115.4848 942.8937,-102.8753 887,-87 884.3575,-86.2495 881.644,-85.4107 878.9297,-84.5224"/>
<polygon fill="#191970" stroke="#191970" points="879.8153,-81.1252 869.2205,-81.1577 877.5231,-87.7393 879.8153,-81.1252"/>
</g>
<!-- Node34 -->
<g id="node35" class="node">
<title>Node34</title>
<polygon fill="none" stroke="#bfbfbf" points="896,-62 896,-81 946,-81 946,-62 896,-62"/>
<text text-anchor="middle" x="921" y="-69" font-family="Helvetica,sans-Serif" font-size="10.00" fill="#000000">climits</text>
</g>
<!-- Node29&#45;&gt;Node34 -->
<g id="edge56" class="edge">
<title>Node29&#45;&gt;Node34</title>
<path fill="none" stroke="#191970" d="M1075.259,-123.4868C1042.7448,-115.1014 995.2867,-101.9197 955,-87 953.3689,-86.3959 951.7065,-85.7484 950.0372,-85.0731"/>
<polygon fill="#191970" stroke="#191970" points="951.142,-81.7385 940.5721,-81.0113 948.3815,-88.1713 951.142,-81.7385"/>
</g>
<!-- Node35 -->
<g id="node36" class="node">
<title>Node35</title>
<g id="a_node36"><a xlink:href="../../d7/df8/Types_8h.html" target="_top" xlink:title="MemoryResources/Types.h">
<polygon fill="none" stroke="#000000" points="964,-62 964,-81 1110,-81 1110,-62 964,-62"/>
<text text-anchor="middle" x="1037" y="-69" font-family="Helvetica,sans-Serif" font-size="10.00" fill="#000000">MemoryResources/Types.h</text>
</a>
</g>
</g>
<!-- Node29&#45;&gt;Node35 -->
<g id="edge57" class="edge">
<title>Node29&#45;&gt;Node35</title>
<path fill="none" stroke="#191970" d="M1101.9688,-123.3906C1089.9893,-113.8227 1071.3834,-98.9621 1057.1475,-87.5919"/>
<polygon fill="#191970" stroke="#191970" points="1058.9447,-84.5479 1048.9468,-81.0419 1054.5761,-90.0175 1058.9447,-84.5479"/>
</g>
<!-- Node36 -->
<g id="node37" class="node">
<title>Node36</title>
<polygon fill="none" stroke="#bfbfbf" points="1128.5,-62 1128.5,-81 1175.5,-81 1175.5,-62 1128.5,-62"/>
<text text-anchor="middle" x="1152" y="-69" font-family="Helvetica,sans-Serif" font-size="10.00" fill="#000000">cerrno</text>
</g>
<!-- Node29&#45;&gt;Node36 -->
<g id="edge58" class="edge">
<title>Node29&#45;&gt;Node36</title>
<path fill="none" stroke="#191970" d="M1119.9375,-123.3906C1125.4267,-114.5068 1133.7353,-101.0601 1140.519,-90.0811"/>
<polygon fill="#191970" stroke="#191970" points="1143.6998,-91.5917 1145.9788,-81.2449 1137.7449,-87.9122 1143.6998,-91.5917"/>
</g>
</g>
</svg>
