<?xml version="1.0" encoding="UTF-8" standalone="no"?>
<!DOCTYPE svg PUBLIC "-//W3C//DTD SVG 1.1//EN"
 "http://www.w3.org/Graphics/SVG/1.1/DTD/svg11.dtd">
<!-- Generated by graphviz version 2.40.1 (20161225.0304)
 -->
<!-- Title: o2::dataformats::MCTruthHeaderElement Pages: 1 -->
<svg width="158pt" height="204pt"
 viewBox="0.00 0.00 158.00 204.00" xmlns="http://www.w3.org/2000/svg" xmlns:xlink="http://www.w3.org/1999/xlink">
<g id="graph0" class="graph" transform="scale(1 1) rotate(0) translate(4 200)">
<title>o2::dataformats::MCTruthHeaderElement</title>
<!-- Node1 -->
<g id="node1" class="node">
<title>Node1</title>
<polygon fill="#bfbfbf" stroke="#000000" points="0,-.5 0,-90.5 150,-90.5 150,-.5 0,-.5"/>
<text text-anchor="start" x="8" y="-78.5" font-family="Helvetica,sans-Serif" font-size="10.00" fill="#000000">o2::dataformats::MCTruth</text>
<text text-anchor="middle" x="75" y="-67.5" font-family="Helvetica,sans-Serif" font-size="10.00" fill="#000000">HeaderElement</text>
<polyline fill="none" stroke="#000000" points="0,-60.5 150,-60.5 "/>
<text text-anchor="middle" x="75" y="-48.5" font-family="Helvetica,sans-Serif" font-size="10.00" fill="#000000"> </text>
<polyline fill="none" stroke="#000000" points="0,-41.5 150,-41.5 "/>
<text text-anchor="start" x="8" y="-29.5" font-family="Helvetica,sans-Serif" font-size="10.00" fill="#000000">+ MCTruthHeaderElement()</text>
<text text-anchor="start" x="8" y="-18.5" font-family="Helvetica,sans-Serif" font-size="10.00" fill="#000000">+ MCTruthHeaderElement()</text>
<text text-anchor="start" x="8" y="-7.5" font-family="Helvetica,sans-Serif" font-size="10.00" fill="#000000">+ ClassDefNV()</text>
</g>
<!-- Node2 -->
<g id="node2" class="node">
<title>Node2</title>
<polygon fill="none" stroke="#bfbfbf" points="57.5,-138.5 57.5,-195.5 92.5,-195.5 92.5,-138.5 57.5,-138.5"/>
<text text-anchor="middle" x="75" y="-183.5" font-family="Helvetica,sans-Serif" font-size="10.00" fill="#000000">uint</text>
<polyline fill="none" stroke="#bfbfbf" points="57.5,-176.5 92.5,-176.5 "/>
<text text-anchor="middle" x="75" y="-164.5" font-family="Helvetica,sans-Serif" font-size="10.00" fill="#000000"> </text>
<polyline fill="none" stroke="#bfbfbf" points="57.5,-157.5 92.5,-157.5 "/>
<text text-anchor="middle" x="75" y="-145.5" font-family="Helvetica,sans-Serif" font-size="10.00" fill="#000000"> </text>
</g>
<!-- Node2&#45;&gt;Node1 -->
<g id="edge1" class="edge">
<title>Node2&#45;&gt;Node1</title>
<path fill="none" stroke="#404040" d="M75,-138.2062C75,-127.5748 75,-115.1181 75,-102.847"/>
<polygon fill="none" stroke="#404040" points="75.0001,-102.7124 71,-96.7125 75,-90.7124 79,-96.7124 75.0001,-102.7124"/>
<text text-anchor="middle" x="94.5" y="-112" font-family="Helvetica,sans-Serif" font-size="10.00" fill="#000000"> +index</text>
</g>
</g>
</svg>
