<?xml version="1.0" encoding="UTF-8" standalone="no"?>
<!DOCTYPE svg PUBLIC "-//W3C//DTD SVG 1.1//EN"
 "http://www.w3.org/Graphics/SVG/1.1/DTD/svg11.dtd">
<!-- Generated by graphviz version 2.40.1 (20161225.0304)
 -->
<!-- Title: /home/travis/build/AliceO2Group/AliceO2/Framework/Core/src/ChannelMatching.cxx Pages: 1 -->
<!--zoomable 419 -->
<svg id="main" version="1.1" xmlns="http://www.w3.org/2000/svg" xmlns:xlink="http://www.w3.org/1999/xlink" xml:space="preserve" onload="init(evt)">
<style type="text/css"><![CDATA[
.edge:hover path { stroke: red; }
.edge:hover polygon { stroke: red; fill: red; }
]]></style>
<script type="text/javascript"><![CDATA[
var edges = document.getElementsByTagName('g');
if (edges && edges.length) {
  for (var i=0;i<edges.length;i++) {
    if (edges[i].id.substr(0,4)=='edge') {
      edges[i].setAttribute('class','edge');
    }
  }
}
]]></script>
        <defs>
                <circle id="rim" cx="0" cy="0" r="7"/>
                <circle id="rim2" cx="0" cy="0" r="3.5"/>
                <g id="zoomPlus">
                        <use xlink:href="#rim" fill="#404040">
                                <set attributeName="fill" to="#808080" begin="zoomplus.mouseover" end="zoomplus.mouseout"/>
                        </use>
                        <path d="M-4,0h8M0,-4v8" fill="none" stroke="white" stroke-width="1.5" pointer-events="none"/>
                </g>
                <g id="zoomMin">
                        <use xlink:href="#rim" fill="#404040">
                                <set attributeName="fill" to="#808080" begin="zoomminus.mouseover" end="zoomminus.mouseout"/>
                        </use>
                        <path d="M-4,0h8" fill="none" stroke="white" stroke-width="1.5" pointer-events="none"/>
                </g>
                <g id="dirArrow">
                        <path fill="none" stroke="white" stroke-width="1.5" d="M0,-3.0v7 M-2.5,-0.5L0,-3.0L2.5,-0.5"/>
                </g>
               <g id="resetDef">
                       <use xlink:href="#rim2" fill="#404040">
                               <set attributeName="fill" to="#808080" begin="reset.mouseover" end="reset.mouseout"/>
                       </use>
               </g>
        </defs>

<script type="text/javascript">
var viewWidth = 2476;
var viewHeight = 419;
var sectionId = 'dynsection-0';
</script>
<script xlink:href="../../svgpan.js"/>
<svg id="graph" class="graph">
<g id="viewport">
<title>/home/travis/build/AliceO2Group/AliceO2/Framework/Core/src/ChannelMatching.cxx</title>
<!-- Node0 -->
<g id="node1" class="node">
<title>Node0</title>
<polygon fill="#bfbfbf" stroke="#000000" points="830,-369.5 830,-410.5 1054,-410.5 1054,-369.5 830,-369.5"/>
<text text-anchor="start" x="838" y="-398.5" font-family="Helvetica,sans-Serif" font-size="10.00" fill="#000000">/home/travis/build</text>
<text text-anchor="start" x="838" y="-387.5" font-family="Helvetica,sans-Serif" font-size="10.00" fill="#000000">/AliceO2Group/AliceO2</text>
<text text-anchor="middle" x="942" y="-376.5" font-family="Helvetica,sans-Serif" font-size="10.00" fill="#000000">/Framework/Core/src/ChannelMatching.cxx</text>
</g>
<!-- Node1 -->
<g id="node2" class="node">
<title>Node1</title>
<g id="a_node2"><a xlink:href="../../d3/d2c/ChannelMatching_8h.html" target="_top" xlink:title="Framework/ChannelMatching.h">
<polygon fill="none" stroke="#000000" points="769.5,-313.5 769.5,-332.5 936.5,-332.5 936.5,-313.5 769.5,-313.5"/>
<text text-anchor="middle" x="853" y="-320.5" font-family="Helvetica,sans-Serif" font-size="10.00" fill="#000000">Framework/ChannelMatching.h</text>
</a>
</g>
</g>
<!-- Node0&#45;&gt;Node1 -->
<g id="edge1" class="edge">
<title>Node0&#45;&gt;Node1</title>
<path fill="none" stroke="#191970" d="M914.3277,-369.168C901.3523,-359.4001 886.1385,-347.9469 874.11,-338.8918"/>
<polygon fill="#191970" stroke="#191970" points="876.0862,-335.9986 865.992,-332.7805 871.8762,-341.5911 876.0862,-335.9986"/>
</g>
<!-- Node39 -->
<g id="node40" class="node">
<title>Node39</title>
<g id="a_node40"><a xlink:href="../../d6/d68/DataSpecUtils_8h.html" target="_top" xlink:title="Framework/DataSpecUtils.h">
<polygon fill="none" stroke="#000000" points="1035,-313.5 1035,-332.5 1187,-332.5 1187,-313.5 1035,-313.5"/>
<text text-anchor="middle" x="1111" y="-320.5" font-family="Helvetica,sans-Serif" font-size="10.00" fill="#000000">Framework/DataSpecUtils.h</text>
</a>
</g>
</g>
<!-- Node0&#45;&gt;Node39 -->
<g id="edge59" class="edge">
<title>Node0&#45;&gt;Node39</title>
<path fill="none" stroke="#191970" d="M994.0846,-369.3511C1021.1911,-358.6047 1053.543,-345.7788 1077.3362,-336.346"/>
<polygon fill="#191970" stroke="#191970" points="1078.6411,-339.5938 1086.6473,-332.6546 1076.0612,-333.0865 1078.6411,-339.5938"/>
</g>
<!-- Node2 -->
<g id="node3" class="node">
<title>Node2</title>
<g id="a_node3"><a xlink:href="../../d5/d3f/InputSpec_8h.html" target="_top" xlink:title="Framework/InputSpec.h">
<polygon fill="none" stroke="#000000" points="767.5,-257.5 767.5,-276.5 898.5,-276.5 898.5,-257.5 767.5,-257.5"/>
<text text-anchor="middle" x="833" y="-264.5" font-family="Helvetica,sans-Serif" font-size="10.00" fill="#000000">Framework/InputSpec.h</text>
</a>
</g>
</g>
<!-- Node1&#45;&gt;Node2 -->
<g id="edge2" class="edge">
<title>Node1&#45;&gt;Node2</title>
<path fill="none" stroke="#191970" d="M849.5163,-313.2455C846.8492,-305.7776 843.0867,-295.2427 839.8263,-286.1137"/>
<polygon fill="#191970" stroke="#191970" points="843.1033,-284.8829 836.4438,-276.6427 836.5111,-287.2373 843.1033,-284.8829"/>
</g>
<!-- Node12 -->
<g id="node13" class="node">
<title>Node12</title>
<polygon fill="none" stroke="#bfbfbf" points="54,-6 54,-25 98,-25 98,-6 54,-6"/>
<text text-anchor="middle" x="76" y="-13" font-family="Helvetica,sans-Serif" font-size="10.00" fill="#000000">string</text>
</g>
<!-- Node1&#45;&gt;Node12 -->
<g id="edge58" class="edge">
<title>Node1&#45;&gt;Node12</title>
<path fill="none" stroke="#191970" d="M769.2675,-320.1605C554.349,-311.7628 0,-282.6268 0,-205.5 0,-205.5 0,-205.5 0,-138.5 0,-94.9388 34.9243,-53.9145 57.4235,-32.0053"/>
<polygon fill="#191970" stroke="#191970" points="59.8999,-34.481 64.7859,-25.0801 55.1038,-29.3822 59.8999,-34.481"/>
</g>
<!-- Node38 -->
<g id="node39" class="node">
<title>Node38</title>
<g id="a_node39"><a xlink:href="../../db/d2d/OutputSpec_8h.html" target="_top" xlink:title="Framework/OutputSpec.h">
<polygon fill="none" stroke="#000000" points="912.5,-196 912.5,-215 1051.5,-215 1051.5,-196 912.5,-196"/>
<text text-anchor="middle" x="982" y="-203" font-family="Helvetica,sans-Serif" font-size="10.00" fill="#000000">Framework/OutputSpec.h</text>
</a>
</g>
</g>
<!-- Node1&#45;&gt;Node38 -->
<g id="edge53" class="edge">
<title>Node1&#45;&gt;Node38</title>
<path fill="none" stroke="#191970" d="M864.7493,-313.3145C875.7987,-304.1304 892.7292,-289.8625 907,-277 927.0694,-258.9112 949.4042,-237.4377 964.4388,-222.7768"/>
<polygon fill="#191970" stroke="#191970" points="967.2803,-224.8931 971.9795,-215.3974 962.3844,-219.8901 967.2803,-224.8931"/>
</g>
<!-- Node3 -->
<g id="node4" class="node">
<title>Node3</title>
<g id="a_node4"><a xlink:href="../../dc/dca/Lifetime_8h.html" target="_top" xlink:title="Framework/Lifetime.h">
<polygon fill="none" stroke="#000000" points="1104.5,-129 1104.5,-148 1227.5,-148 1227.5,-129 1104.5,-129"/>
<text text-anchor="middle" x="1166" y="-136" font-family="Helvetica,sans-Serif" font-size="10.00" fill="#000000">Framework/Lifetime.h</text>
</a>
</g>
</g>
<!-- Node2&#45;&gt;Node3 -->
<g id="edge3" class="edge">
<title>Node2&#45;&gt;Node3</title>
<path fill="none" stroke="#191970" d="M898.5312,-262.2263C945.5887,-256.8214 1009.5271,-245.3387 1061,-221 1080.7042,-211.683 1081.9134,-203.5318 1099,-190 1114.2841,-177.8957 1131.7545,-164.4805 1145.0229,-154.3772"/>
<polygon fill="#191970" stroke="#191970" points="1147.2249,-157.0998 1153.07,-148.2631 1142.9901,-151.526 1147.2249,-157.0998"/>
</g>
<!-- Node4 -->
<g id="node5" class="node">
<title>Node4</title>
<g id="a_node5"><a xlink:href="../../d0/d1b/ConcreteDataMatcher_8h.html" target="_top" xlink:title="Framework/ConcreteDataMatcher.h">
<polygon fill="none" stroke="#000000" points="676,-129 676,-148 864,-148 864,-129 676,-129"/>
<text text-anchor="middle" x="770" y="-136" font-family="Helvetica,sans-Serif" font-size="10.00" fill="#000000">Framework/ConcreteDataMatcher.h</text>
</a>
</g>
</g>
<!-- Node2&#45;&gt;Node4 -->
<g id="edge4" class="edge">
<title>Node2&#45;&gt;Node4</title>
<path fill="none" stroke="#191970" d="M820.6645,-257.375C810.6245,-248.8744 796.8712,-235.589 789,-221 778.3517,-201.2636 773.647,-175.7472 771.5837,-158.3515"/>
<polygon fill="#191970" stroke="#191970" points="775.0499,-157.8377 770.5732,-148.2351 768.0845,-158.5335 775.0499,-157.8377"/>
</g>
<!-- Node2&#45;&gt;Node12 -->
<g id="edge50" class="edge">
<title>Node2&#45;&gt;Node12</title>
<path fill="none" stroke="#191970" d="M767.2832,-261.81C591.5516,-247.3043 120.8525,-204.1012 73,-154 42.5228,-122.0906 57.2709,-64.7817 68.0745,-34.8692"/>
<polygon fill="#191970" stroke="#191970" points="71.475,-35.7763 71.7852,-25.1861 64.9385,-33.2714 71.475,-35.7763"/>
</g>
<!-- Node16 -->
<g id="node17" class="node">
<title>Node16</title>
<g id="a_node17"><a xlink:href="../../d3/da3/DataDescriptorMatcher_8h.html" target="_top" xlink:title="Framework/DataDescriptor\lMatcher.h">
<polygon fill="none" stroke="#000000" points="485.5,-190.5 485.5,-220.5 632.5,-220.5 632.5,-190.5 485.5,-190.5"/>
<text text-anchor="start" x="493.5" y="-208.5" font-family="Helvetica,sans-Serif" font-size="10.00" fill="#000000">Framework/DataDescriptor</text>
<text text-anchor="middle" x="559" y="-197.5" font-family="Helvetica,sans-Serif" font-size="10.00" fill="#000000">Matcher.h</text>
</a>
</g>
</g>
<!-- Node2&#45;&gt;Node16 -->
<g id="edge16" class="edge">
<title>Node2&#45;&gt;Node16</title>
<path fill="none" stroke="#191970" d="M790.4881,-257.4581C749.2688,-248.2063 685.8,-233.9606 635.7383,-222.7241"/>
<polygon fill="#191970" stroke="#191970" points="636.4391,-219.2944 625.9153,-220.5193 634.906,-226.1245 636.4391,-219.2944"/>
</g>
<!-- Node35 -->
<g id="node36" class="node">
<title>Node35</title>
<polygon fill="none" stroke="#bfbfbf" points="882.5,-129 882.5,-148 933.5,-148 933.5,-129 882.5,-129"/>
<text text-anchor="middle" x="908" y="-136" font-family="Helvetica,sans-Serif" font-size="10.00" fill="#000000">variant</text>
</g>
<!-- Node2&#45;&gt;Node35 -->
<g id="edge52" class="edge">
<title>Node2&#45;&gt;Node35</title>
<path fill="none" stroke="#191970" d="M839.9507,-257.3198C846.4392,-248.1395 856.2569,-233.8742 864,-221 876.7483,-199.8039 889.909,-174.6121 898.4747,-157.6906"/>
<polygon fill="#191970" stroke="#191970" points="901.8134,-158.8406 903.1695,-148.3329 895.5567,-155.7016 901.8134,-158.8406"/>
</g>
<!-- Node37 -->
<g id="node38" class="node">
<title>Node37</title>
<polygon fill="none" stroke="#bfbfbf" points="798.5,-196 798.5,-215 855.5,-215 855.5,-196 798.5,-196"/>
<text text-anchor="middle" x="827" y="-203" font-family="Helvetica,sans-Serif" font-size="10.00" fill="#000000">ostream</text>
</g>
<!-- Node2&#45;&gt;Node37 -->
<g id="edge51" class="edge">
<title>Node2&#45;&gt;Node37</title>
<path fill="none" stroke="#191970" d="M832.0625,-257.3906C831.2308,-248.8657 829.9892,-236.1392 828.9438,-225.4235"/>
<polygon fill="#191970" stroke="#191970" points="832.4053,-224.8577 827.9507,-215.2449 825.4383,-225.5375 832.4053,-224.8577"/>
</g>
<!-- Node5 -->
<g id="node6" class="node">
<title>Node5</title>
<g id="a_node6"><a xlink:href="../../dc/dcd/DataHeader_8h.html" target="_top" xlink:title="Headers/DataHeader.h">
<polygon fill="none" stroke="#000000" points="492.5,-67.5 492.5,-86.5 619.5,-86.5 619.5,-67.5 492.5,-67.5"/>
<text text-anchor="middle" x="556" y="-74.5" font-family="Helvetica,sans-Serif" font-size="10.00" fill="#000000">Headers/DataHeader.h</text>
</a>
</g>
</g>
<!-- Node4&#45;&gt;Node5 -->
<g id="edge5" class="edge">
<title>Node4&#45;&gt;Node5</title>
<path fill="none" stroke="#191970" d="M736.5625,-128.8906C699.5,-118.2395 639.6151,-101.0296 599.0688,-89.3772"/>
<polygon fill="#191970" stroke="#191970" points="599.7804,-85.9402 589.2027,-86.5419 597.847,-92.6679 599.7804,-85.9402"/>
</g>
<!-- Node6 -->
<g id="node7" class="node">
<title>Node6</title>
<polygon fill="none" stroke="#bfbfbf" points="224,-6 224,-25 274,-25 274,-6 224,-6"/>
<text text-anchor="middle" x="249" y="-13" font-family="Helvetica,sans-Serif" font-size="10.00" fill="#000000">cstdint</text>
</g>
<!-- Node5&#45;&gt;Node6 -->
<g id="edge6" class="edge">
<title>Node5&#45;&gt;Node6</title>
<path fill="none" stroke="#191970" d="M492.3017,-71.0217C436.2711,-64.6474 352.9664,-52.4388 283,-31 281.0927,-30.4156 279.1531,-29.7479 277.2163,-29.0254"/>
<polygon fill="#191970" stroke="#191970" points="278.2986,-25.6853 267.7206,-25.088 275.6173,-32.1514 278.2986,-25.6853"/>
</g>
<!-- Node7 -->
<g id="node8" class="node">
<title>Node7</title>
<polygon fill="none" stroke="#bfbfbf" points="148,-6 148,-25 206,-25 206,-6 148,-6"/>
<text text-anchor="middle" x="177" y="-13" font-family="Helvetica,sans-Serif" font-size="10.00" fill="#000000">memory</text>
</g>
<!-- Node5&#45;&gt;Node7 -->
<g id="edge7" class="edge">
<title>Node5&#45;&gt;Node7</title>
<path fill="none" stroke="#191970" d="M492.209,-73.231C422.9831,-68.0279 309.6595,-56.2515 215,-31 212.5303,-30.3412 210.0065,-29.5626 207.4923,-28.7108"/>
<polygon fill="#191970" stroke="#191970" points="208.5703,-25.3774 197.9777,-25.1608 206.1233,-31.9357 208.5703,-25.3774"/>
</g>
<!-- Node8 -->
<g id="node9" class="node">
<title>Node8</title>
<polygon fill="none" stroke="#bfbfbf" points="292,-6 292,-25 344,-25 344,-6 292,-6"/>
<text text-anchor="middle" x="318" y="-13" font-family="Helvetica,sans-Serif" font-size="10.00" fill="#000000">cassert</text>
</g>
<!-- Node5&#45;&gt;Node8 -->
<g id="edge8" class="edge">
<title>Node5&#45;&gt;Node8</title>
<path fill="none" stroke="#191970" d="M500.4995,-67.44C459.2445,-59.6108 401.8826,-47.192 353,-31 351.1074,-30.3731 349.1778,-29.6803 347.2458,-28.9456"/>
<polygon fill="#191970" stroke="#191970" points="348.306,-25.5973 337.7261,-25.0346 345.6459,-32.0722 348.306,-25.5973"/>
</g>
<!-- Node9 -->
<g id="node10" class="node">
<title>Node9</title>
<polygon fill="none" stroke="#bfbfbf" points="826,-6 826,-25 876,-25 876,-6 826,-6"/>
<text text-anchor="middle" x="851" y="-13" font-family="Helvetica,sans-Serif" font-size="10.00" fill="#000000">cstring</text>
</g>
<!-- Node5&#45;&gt;Node9 -->
<g id="edge9" class="edge">
<title>Node5&#45;&gt;Node9</title>
<path fill="none" stroke="#191970" d="M619.5323,-67.6921C684.5786,-57.8247 781.0783,-42.155 817,-31 818.9051,-30.4084 820.8431,-29.7353 822.7785,-29.0088"/>
<polygon fill="#191970" stroke="#191970" points="824.3816,-32.1328 832.2712,-25.0615 821.6939,-25.6693 824.3816,-32.1328"/>
</g>
<!-- Node10 -->
<g id="node11" class="node">
<title>Node10</title>
<polygon fill="none" stroke="#bfbfbf" points="428,-6 428,-25 492,-25 492,-6 428,-6"/>
<text text-anchor="middle" x="460" y="-13" font-family="Helvetica,sans-Serif" font-size="10.00" fill="#000000">algorithm</text>
</g>
<!-- Node5&#45;&gt;Node10 -->
<g id="edge10" class="edge">
<title>Node5&#45;&gt;Node10</title>
<path fill="none" stroke="#191970" d="M541,-67.3906C525.6419,-57.5519 501.5479,-42.1167 483.6255,-30.6351"/>
<polygon fill="#191970" stroke="#191970" points="485.203,-27.4891 474.8947,-25.0419 481.427,-33.3833 485.203,-27.4891"/>
</g>
<!-- Node11 -->
<g id="node12" class="node">
<title>Node11</title>
<polygon fill="none" stroke="#bfbfbf" points="510.5,-6 510.5,-25 575.5,-25 575.5,-6 510.5,-6"/>
<text text-anchor="middle" x="543" y="-13" font-family="Helvetica,sans-Serif" font-size="10.00" fill="#000000">stdexcept</text>
</g>
<!-- Node5&#45;&gt;Node11 -->
<g id="edge11" class="edge">
<title>Node5&#45;&gt;Node11</title>
<path fill="none" stroke="#191970" d="M553.9688,-67.3906C552.1478,-58.776 549.4198,-45.8708 547.1401,-35.0858"/>
<polygon fill="#191970" stroke="#191970" points="550.5524,-34.3048 545.0599,-25.2449 543.7038,-35.7525 550.5524,-34.3048"/>
</g>
<!-- Node5&#45;&gt;Node12 -->
<g id="edge12" class="edge">
<title>Node5&#45;&gt;Node12</title>
<path fill="none" stroke="#191970" d="M492.4023,-72.5965C410.3103,-66.3159 263.2471,-53.0389 139,-31 128.7932,-29.1895 117.7831,-26.6776 107.8662,-24.2025"/>
<polygon fill="#191970" stroke="#191970" points="108.5637,-20.7681 98.0072,-21.6675 106.8205,-27.5475 108.5637,-20.7681"/>
</g>
<!-- Node13 -->
<g id="node14" class="node">
<title>Node13</title>
<polygon fill="none" stroke="#bfbfbf" points="594,-6 594,-25 644,-25 644,-6 594,-6"/>
<text text-anchor="middle" x="619" y="-13" font-family="Helvetica,sans-Serif" font-size="10.00" fill="#000000">climits</text>
</g>
<!-- Node5&#45;&gt;Node13 -->
<g id="edge13" class="edge">
<title>Node5&#45;&gt;Node13</title>
<path fill="none" stroke="#191970" d="M565.8438,-67.3906C575.4039,-58.0581 590.1223,-43.6902 601.6495,-32.4374"/>
<polygon fill="#191970" stroke="#191970" points="604.3066,-34.7348 609.0175,-25.2449 599.4168,-29.7257 604.3066,-34.7348"/>
</g>
<!-- Node14 -->
<g id="node15" class="node">
<title>Node14</title>
<g id="a_node15"><a xlink:href="../../d7/df8/Types_8h.html" target="_top" xlink:title="MemoryResources/Types.h">
<polygon fill="none" stroke="#000000" points="662,-6 662,-25 808,-25 808,-6 662,-6"/>
<text text-anchor="middle" x="735" y="-13" font-family="Helvetica,sans-Serif" font-size="10.00" fill="#000000">MemoryResources/Types.h</text>
</a>
</g>
</g>
<!-- Node5&#45;&gt;Node14 -->
<g id="edge14" class="edge">
<title>Node5&#45;&gt;Node14</title>
<path fill="none" stroke="#191970" d="M583.9688,-67.3906C614.5755,-56.8749 663.7899,-39.966 697.6741,-28.3243"/>
<polygon fill="#191970" stroke="#191970" points="698.9076,-31.6014 707.2276,-25.0419 696.633,-24.9812 698.9076,-31.6014"/>
</g>
<!-- Node15 -->
<g id="node16" class="node">
<title>Node15</title>
<polygon fill="none" stroke="#bfbfbf" points="362.5,-6 362.5,-25 409.5,-25 409.5,-6 362.5,-6"/>
<text text-anchor="middle" x="386" y="-13" font-family="Helvetica,sans-Serif" font-size="10.00" fill="#000000">cerrno</text>
</g>
<!-- Node5&#45;&gt;Node15 -->
<g id="edge15" class="edge">
<title>Node5&#45;&gt;Node15</title>
<path fill="none" stroke="#191970" d="M524.0641,-67.4234C496.0556,-58.7539 454.3942,-45.1995 419,-31 417.6048,-30.4403 416.1844,-29.851 414.7556,-29.2425"/>
<polygon fill="#191970" stroke="#191970" points="415.9379,-25.9374 405.3798,-25.0563 413.084,-32.3292 415.9379,-25.9374"/>
</g>
<!-- Node16&#45;&gt;Node4 -->
<g id="edge17" class="edge">
<title>Node16&#45;&gt;Node4</title>
<path fill="none" stroke="#191970" d="M606.3525,-190.4639C643.6204,-178.63 694.9665,-162.3258 730.1484,-151.1543"/>
<polygon fill="#191970" stroke="#191970" points="731.5937,-154.3677 740.0654,-148.0053 729.4751,-147.6959 731.5937,-154.3677"/>
</g>
<!-- Node16&#45;&gt;Node5 -->
<g id="edge24" class="edge">
<title>Node16&#45;&gt;Node5</title>
<path fill="none" stroke="#191970" d="M571.5664,-190.3612C578.7983,-180.6361 587.1869,-167.3614 591,-154 594.7809,-140.7512 595.4021,-136.0556 591,-123 587.4305,-112.4138 580.3465,-102.3356 573.4798,-94.3256"/>
<polygon fill="#191970" stroke="#191970" points="575.9019,-91.7886 566.559,-86.7924 570.747,-96.5244 575.9019,-91.7886"/>
</g>
<!-- Node16&#45;&gt;Node6 -->
<g id="edge44" class="edge">
<title>Node16&#45;&gt;Node6</title>
<path fill="none" stroke="#191970" d="M485.3516,-198.9844C418.562,-191.6693 326.4824,-177.6193 299,-154 263.5856,-123.5637 253.2534,-66.0478 250.24,-35.5925"/>
<polygon fill="#191970" stroke="#191970" points="253.7067,-35.0409 249.4064,-25.3581 246.7299,-35.6093 253.7067,-35.0409"/>
</g>
<!-- Node16&#45;&gt;Node12 -->
<g id="edge46" class="edge">
<title>Node16&#45;&gt;Node12</title>
<path fill="none" stroke="#191970" d="M485.2556,-202.2627C361.1554,-196.0996 121.3567,-180.8435 94,-154 62.3863,-122.9793 66.723,-65.713 71.8021,-35.4487"/>
<polygon fill="#191970" stroke="#191970" points="75.3053,-35.757 73.7116,-25.2827 68.4256,-34.4647 75.3053,-35.757"/>
</g>
<!-- Node17 -->
<g id="node18" class="node">
<title>Node17</title>
<g id="a_node18"><a xlink:href="../../d6/dc9/DataProcessingHeader_8h.html" target="_top" xlink:title="Framework/DataProcessing\lHeader.h">
<polygon fill="none" stroke="#000000" points="103.5,-123.5 103.5,-153.5 252.5,-153.5 252.5,-123.5 103.5,-123.5"/>
<text text-anchor="start" x="111.5" y="-141.5" font-family="Helvetica,sans-Serif" font-size="10.00" fill="#000000">Framework/DataProcessing</text>
<text text-anchor="middle" x="178" y="-130.5" font-family="Helvetica,sans-Serif" font-size="10.00" fill="#000000">Header.h</text>
</a>
</g>
</g>
<!-- Node16&#45;&gt;Node17 -->
<g id="edge18" class="edge">
<title>Node16&#45;&gt;Node17</title>
<path fill="none" stroke="#191970" d="M485.2441,-192.5436C425.9937,-182.1335 340.6465,-167.1342 266,-154 264.9305,-153.8118 263.8537,-153.6223 262.7708,-153.4318"/>
<polygon fill="#191970" stroke="#191970" points="263.3475,-149.9796 252.8922,-151.6931 262.1341,-156.8736 263.3475,-149.9796"/>
</g>
<!-- Node19 -->
<g id="node20" class="node">
<title>Node19</title>
<g id="a_node20"><a xlink:href="../../d4/d00/Headers_2include_2Headers_2Stack_8h.html" target="_top" xlink:title="Headers/Stack.h">
<polygon fill="none" stroke="#000000" points="990,-129 990,-148 1086,-148 1086,-129 990,-129"/>
<text text-anchor="middle" x="1038" y="-136" font-family="Helvetica,sans-Serif" font-size="10.00" fill="#000000">Headers/Stack.h</text>
</a>
</g>
</g>
<!-- Node16&#45;&gt;Node19 -->
<g id="edge25" class="edge">
<title>Node16&#45;&gt;Node19</title>
<path fill="none" stroke="#191970" d="M632.5048,-196.202C709.6684,-186.304 834.4819,-169.9057 942,-154 954.1341,-152.2049 967.1134,-150.1803 979.4807,-148.2009"/>
<polygon fill="#191970" stroke="#191970" points="980.3777,-151.6016 989.6933,-146.555 979.2638,-144.6908 980.3777,-151.6016"/>
</g>
<!-- Node27 -->
<g id="node28" class="node">
<title>Node27</title>
<polygon fill="none" stroke="#bfbfbf" points="894.5,-6 894.5,-25 941.5,-25 941.5,-6 894.5,-6"/>
<text text-anchor="middle" x="918" y="-13" font-family="Helvetica,sans-Serif" font-size="10.00" fill="#000000">vector</text>
</g>
<!-- Node16&#45;&gt;Node27 -->
<g id="edge48" class="edge">
<title>Node16&#45;&gt;Node27</title>
<path fill="none" stroke="#191970" d="M575.9926,-190.3262C596.4918,-172.5578 632.5119,-143.0147 667,-123 757.9563,-70.2146 788.9433,-73.8073 885,-31 886.1708,-30.4783 887.3628,-29.9421 888.5654,-29.397"/>
<polygon fill="#191970" stroke="#191970" points="890.1959,-32.4994 897.8141,-25.1364 887.2671,-26.1416 890.1959,-32.4994"/>
</g>
<!-- Node33 -->
<g id="node34" class="node">
<title>Node33</title>
<polygon fill="none" stroke="#bfbfbf" points="308,-129 308,-148 350,-148 350,-129 308,-129"/>
<text text-anchor="middle" x="329" y="-136" font-family="Helvetica,sans-Serif" font-size="10.00" fill="#000000">array</text>
</g>
<!-- Node16&#45;&gt;Node33 -->
<g id="edge43" class="edge">
<title>Node16&#45;&gt;Node33</title>
<path fill="none" stroke="#191970" d="M485.0952,-190.6491C446.82,-181.9171 399.7023,-169.528 359,-154 357.7676,-153.5298 356.5201,-153.0226 355.2696,-152.4884"/>
<polygon fill="#191970" stroke="#191970" points="356.3661,-149.1358 345.8286,-148.0346 353.3794,-155.4667 356.3661,-149.1358"/>
</g>
<!-- Node34 -->
<g id="node35" class="node">
<title>Node34</title>
<polygon fill="none" stroke="#bfbfbf" points="368.5,-129 368.5,-148 417.5,-148 417.5,-129 368.5,-129"/>
<text text-anchor="middle" x="393" y="-136" font-family="Helvetica,sans-Serif" font-size="10.00" fill="#000000">iosfwd</text>
</g>
<!-- Node16&#45;&gt;Node34 -->
<g id="edge45" class="edge">
<title>Node16&#45;&gt;Node34</title>
<path fill="none" stroke="#191970" d="M518.6174,-190.4135C492.3649,-180.4417 457.4758,-166.88 427,-154 425.6182,-153.416 424.2086,-152.811 422.7874,-152.1936"/>
<polygon fill="#191970" stroke="#191970" points="423.9745,-148.8912 413.4147,-148.0297 421.1325,-155.2883 423.9745,-148.8912"/>
</g>
<!-- Node16&#45;&gt;Node35 -->
<g id="edge47" class="edge">
<title>Node16&#45;&gt;Node35</title>
<path fill="none" stroke="#191970" d="M632.5199,-198.7848C696.9221,-191.6471 792.5315,-177.9893 873,-154 875.1215,-153.3675 877.2836,-152.6372 879.4397,-151.8452"/>
<polygon fill="#191970" stroke="#191970" points="880.7556,-155.0885 888.7102,-148.0902 878.1276,-148.6005 880.7556,-155.0885"/>
</g>
<!-- Node36 -->
<g id="node37" class="node">
<title>Node36</title>
<polygon fill="none" stroke="#bfbfbf" points="436,-129 436,-148 582,-148 582,-129 436,-129"/>
<text text-anchor="middle" x="509" y="-136" font-family="Helvetica,sans-Serif" font-size="10.00" fill="#000000">DataDescriptorMatcher.inc</text>
</g>
<!-- Node16&#45;&gt;Node36 -->
<g id="edge49" class="edge">
<title>Node16&#45;&gt;Node36</title>
<path fill="none" stroke="#191970" d="M547.6542,-190.2967C540.0909,-180.1618 530.1224,-166.804 522.2031,-156.1921"/>
<polygon fill="#191970" stroke="#191970" points="524.9165,-153.976 516.1306,-148.055 519.3064,-158.1626 524.9165,-153.976"/>
</g>
<!-- Node17&#45;&gt;Node5 -->
<g id="edge19" class="edge">
<title>Node17&#45;&gt;Node5</title>
<path fill="none" stroke="#191970" d="M252.6806,-126.3496C321.0344,-115.2285 421.3431,-98.9085 487.6344,-88.123"/>
<polygon fill="#191970" stroke="#191970" points="488.2575,-91.5677 497.5657,-86.5072 487.1334,-84.6585 488.2575,-91.5677"/>
</g>
<!-- Node17&#45;&gt;Node6 -->
<g id="edge20" class="edge">
<title>Node17&#45;&gt;Node6</title>
<path fill="none" stroke="#191970" d="M186.706,-123.4178C199.7241,-100.8652 224.2351,-58.4026 238.3181,-34.0053"/>
<polygon fill="#191970" stroke="#191970" points="241.5198,-35.4597 243.4878,-25.0493 235.4573,-31.9602 241.5198,-35.4597"/>
</g>
<!-- Node17&#45;&gt;Node7 -->
<g id="edge22" class="edge">
<title>Node17&#45;&gt;Node7</title>
<path fill="none" stroke="#191970" d="M177.8774,-123.4178C177.6973,-101.2662 177.361,-59.9061 177.1612,-35.3234"/>
<polygon fill="#191970" stroke="#191970" points="180.6589,-35.0204 177.0776,-25.0493 173.6591,-35.0774 180.6589,-35.0204"/>
</g>
<!-- Node17&#45;&gt;Node8 -->
<g id="edge23" class="edge">
<title>Node17&#45;&gt;Node8</title>
<path fill="none" stroke="#191970" d="M195.1667,-123.4178C221.6349,-100.1636 272.197,-55.7412 299.4678,-31.7819"/>
<polygon fill="#191970" stroke="#191970" points="301.9285,-34.2789 307.1309,-25.0493 297.3084,-29.0201 301.9285,-34.2789"/>
</g>
<!-- Node18 -->
<g id="node19" class="node">
<title>Node18</title>
<polygon fill="none" stroke="#bfbfbf" points="104,-67.5 104,-86.5 150,-86.5 150,-67.5 104,-67.5"/>
<text text-anchor="middle" x="127" y="-74.5" font-family="Helvetica,sans-Serif" font-size="10.00" fill="#000000">cstdio</text>
</g>
<!-- Node17&#45;&gt;Node18 -->
<g id="edge21" class="edge">
<title>Node17&#45;&gt;Node18</title>
<path fill="none" stroke="#191970" d="M165.3933,-123.2977C158.2402,-114.672 149.2503,-103.8312 141.7682,-94.8087"/>
<polygon fill="#191970" stroke="#191970" points="144.2433,-92.3103 135.1657,-86.8469 138.855,-96.7787 144.2433,-92.3103"/>
</g>
<!-- Node19&#45;&gt;Node5 -->
<g id="edge42" class="edge">
<title>Node19&#45;&gt;Node5</title>
<path fill="none" stroke="#191970" d="M1003.4206,-128.9727C994.5355,-126.7684 984.9558,-124.6023 976,-123 855.6159,-101.4625 713.8957,-88.4676 629.6899,-82.0233"/>
<polygon fill="#191970" stroke="#191970" points="629.9465,-78.5328 619.7113,-81.2697 629.4193,-85.5129 629.9465,-78.5328"/>
</g>
<!-- Node20 -->
<g id="node21" class="node">
<title>Node20</title>
<g id="a_node21"><a xlink:href="../../dc/d03/MemoryResources_8h.html" target="_top" xlink:title="MemoryResources/MemoryResources.h">
<polygon fill="none" stroke="#000000" points="1148.5,-67.5 1148.5,-86.5 1355.5,-86.5 1355.5,-67.5 1148.5,-67.5"/>
<text text-anchor="middle" x="1252" y="-74.5" font-family="Helvetica,sans-Serif" font-size="10.00" fill="#000000">MemoryResources/MemoryResources.h</text>
</a>
</g>
</g>
<!-- Node19&#45;&gt;Node20 -->
<g id="edge26" class="edge">
<title>Node19&#45;&gt;Node20</title>
<path fill="none" stroke="#191970" d="M1071.4375,-128.8906C1108.5,-118.2395 1168.3849,-101.0296 1208.9312,-89.3772"/>
<polygon fill="#191970" stroke="#191970" points="1210.153,-92.6679 1218.7973,-86.5419 1208.2196,-85.9402 1210.153,-92.6679"/>
</g>
<!-- Node20&#45;&gt;Node9 -->
<g id="edge31" class="edge">
<title>Node20&#45;&gt;Node9</title>
<path fill="none" stroke="#191970" d="M1148.3008,-72.3835C1073.8689,-67.0573 971.8006,-55.6044 885,-31 883.034,-30.4427 881.037,-29.7879 879.0465,-29.068"/>
<polygon fill="#191970" stroke="#191970" points="879.9005,-25.6352 869.3204,-25.0762 877.2426,-32.111 879.9005,-25.6352"/>
</g>
<!-- Node20&#45;&gt;Node12 -->
<g id="edge32" class="edge">
<title>Node20&#45;&gt;Node12</title>
<path fill="none" stroke="#191970" d="M1148.375,-75.3634C910.684,-71.1801 331.9034,-58.4349 139,-31 128.8199,-29.5522 117.889,-27.1659 108.0373,-24.6946"/>
<polygon fill="#191970" stroke="#191970" points="108.799,-21.2761 98.2382,-22.1243 107.0229,-28.047 108.799,-21.2761"/>
</g>
<!-- Node20&#45;&gt;Node14 -->
<g id="edge41" class="edge">
<title>Node20&#45;&gt;Node14</title>
<path fill="none" stroke="#191970" d="M1148.4295,-68.4396C1060.108,-60.5681 929.8873,-47.6098 817,-31 808.758,-29.7873 800.0816,-28.3374 791.5818,-26.8181"/>
<polygon fill="#191970" stroke="#191970" points="792.1883,-23.371 781.7214,-25.0126 790.9275,-30.2565 792.1883,-23.371"/>
</g>
<!-- Node21 -->
<g id="node22" class="node">
<title>Node21</title>
<polygon fill="none" stroke="#bfbfbf" points="1764.5,-.5 1764.5,-30.5 1875.5,-30.5 1875.5,-.5 1764.5,-.5"/>
<text text-anchor="start" x="1772.5" y="-18.5" font-family="Helvetica,sans-Serif" font-size="10.00" fill="#000000">boost/container/flat</text>
<text text-anchor="middle" x="1820" y="-7.5" font-family="Helvetica,sans-Serif" font-size="10.00" fill="#000000">_map.hpp</text>
</g>
<!-- Node20&#45;&gt;Node21 -->
<g id="edge27" class="edge">
<title>Node20&#45;&gt;Node21</title>
<path fill="none" stroke="#191970" d="M1355.6248,-71.859C1455.4155,-65.9135 1610.6801,-54.0544 1754.5392,-30.9145"/>
<polygon fill="#191970" stroke="#191970" points="1755.1298,-34.3645 1764.4366,-29.3015 1754.0039,-27.4557 1755.1298,-34.3645"/>
</g>
<!-- Node22 -->
<g id="node23" class="node">
<title>Node22</title>
<polygon fill="none" stroke="#bfbfbf" points="1893.5,-.5 1893.5,-30.5 2022.5,-30.5 2022.5,-.5 1893.5,-.5"/>
<text text-anchor="start" x="1901.5" y="-18.5" font-family="Helvetica,sans-Serif" font-size="10.00" fill="#000000">boost/container/pmr</text>
<text text-anchor="middle" x="1958" y="-7.5" font-family="Helvetica,sans-Serif" font-size="10.00" fill="#000000">/memory_resource.hpp</text>
</g>
<!-- Node20&#45;&gt;Node22 -->
<g id="edge28" class="edge">
<title>Node20&#45;&gt;Node22</title>
<path fill="none" stroke="#191970" d="M1355.5237,-73.819C1479.1058,-69.0399 1692.1064,-57.6985 1883.2531,-31.1377"/>
<polygon fill="#191970" stroke="#191970" points="1883.788,-34.597 1893.2031,-29.7384 1882.8131,-27.6652 1883.788,-34.597"/>
</g>
<!-- Node23 -->
<g id="node24" class="node">
<title>Node23</title>
<polygon fill="none" stroke="#bfbfbf" points="2040.5,-.5 2040.5,-30.5 2213.5,-30.5 2213.5,-.5 2040.5,-.5"/>
<text text-anchor="start" x="2048.5" y="-18.5" font-family="Helvetica,sans-Serif" font-size="10.00" fill="#000000">boost/container/pmr</text>
<text text-anchor="middle" x="2127" y="-7.5" font-family="Helvetica,sans-Serif" font-size="10.00" fill="#000000">/monotonic_buffer_resource.hpp</text>
</g>
<!-- Node20&#45;&gt;Node23 -->
<g id="edge29" class="edge">
<title>Node20&#45;&gt;Node23</title>
<path fill="none" stroke="#191970" d="M1355.7465,-74.2743C1503.424,-69.6357 1782.8863,-58.0555 2030.0693,-31.1459"/>
<polygon fill="#191970" stroke="#191970" points="2030.7715,-34.5899 2040.3291,-30.018 2030.0065,-27.6318 2030.7715,-34.5899"/>
</g>
<!-- Node24 -->
<g id="node25" class="node">
<title>Node24</title>
<polygon fill="none" stroke="#bfbfbf" points="2231.5,-.5 2231.5,-30.5 2380.5,-30.5 2380.5,-.5 2231.5,-.5"/>
<text text-anchor="start" x="2239.5" y="-18.5" font-family="Helvetica,sans-Serif" font-size="10.00" fill="#000000">boost/container/pmr</text>
<text text-anchor="middle" x="2306" y="-7.5" font-family="Helvetica,sans-Serif" font-size="10.00" fill="#000000">/polymorphic_allocator.hpp</text>
</g>
<!-- Node20&#45;&gt;Node24 -->
<g id="edge30" class="edge">
<title>Node20&#45;&gt;Node24</title>
<path fill="none" stroke="#191970" d="M1355.8242,-73.8872C1566.666,-67.2749 2039.6939,-50.8842 2221.4258,-31.0561"/>
<polygon fill="#191970" stroke="#191970" points="2221.8728,-34.5279 2231.4169,-29.9278 2221.0873,-27.5721 2221.8728,-34.5279"/>
</g>
<!-- Node25 -->
<g id="node26" class="node">
<title>Node25</title>
<polygon fill="none" stroke="#bfbfbf" points="2398.5,-6 2398.5,-25 2467.5,-25 2467.5,-6 2398.5,-6"/>
<text text-anchor="middle" x="2433" y="-13" font-family="Helvetica,sans-Serif" font-size="10.00" fill="#000000">type_traits</text>
</g>
<!-- Node20&#45;&gt;Node25 -->
<g id="edge33" class="edge">
<title>Node20&#45;&gt;Node25</title>
<path fill="none" stroke="#191970" d="M1355.7417,-74.6129C1617.3601,-68.336 2290.3055,-50.5026 2390,-31 2393.6408,-30.2878 2397.3859,-29.3188 2401.0757,-28.2105"/>
<polygon fill="#191970" stroke="#191970" points="2402.2255,-31.5166 2410.6044,-25.0324 2400.0107,-24.8763 2402.2255,-31.5166"/>
</g>
<!-- Node26 -->
<g id="node27" class="node">
<title>Node26</title>
<polygon fill="none" stroke="#bfbfbf" points="959.5,-6 959.5,-25 1004.5,-25 1004.5,-6 959.5,-6"/>
<text text-anchor="middle" x="982" y="-13" font-family="Helvetica,sans-Serif" font-size="10.00" fill="#000000">utility</text>
</g>
<!-- Node20&#45;&gt;Node26 -->
<g id="edge34" class="edge">
<title>Node20&#45;&gt;Node26</title>
<path fill="none" stroke="#191970" d="M1176.2165,-67.496C1128.8102,-60.2977 1066.9133,-48.5934 1014,-31 1012.3489,-30.451 1010.6734,-29.835 1008.9989,-29.1734"/>
<polygon fill="#191970" stroke="#191970" points="1010.1593,-25.8601 999.5967,-25.0345 1007.339,-32.2668 1010.1593,-25.8601"/>
</g>
<!-- Node20&#45;&gt;Node27 -->
<g id="edge35" class="edge">
<title>Node20&#45;&gt;Node27</title>
<path fill="none" stroke="#191970" d="M1148.2305,-68.9477C1089.1518,-62.4534 1014.3243,-50.9763 950,-31 948.143,-30.4233 946.2585,-29.7538 944.3814,-29.0232"/>
<polygon fill="#191970" stroke="#191970" points="945.7827,-25.816 935.2188,-25.006 942.9719,-32.2269 945.7827,-25.816"/>
</g>
<!-- Node28 -->
<g id="node29" class="node">
<title>Node28</title>
<polygon fill="none" stroke="#bfbfbf" points="1022.5,-6 1022.5,-25 1115.5,-25 1115.5,-6 1022.5,-6"/>
<text text-anchor="middle" x="1069" y="-13" font-family="Helvetica,sans-Serif" font-size="10.00" fill="#000000">unordered_map</text>
</g>
<!-- Node20&#45;&gt;Node28 -->
<g id="edge36" class="edge">
<title>Node20&#45;&gt;Node28</title>
<path fill="none" stroke="#191970" d="M1223.4063,-67.3906C1192.1155,-56.8749 1141.8014,-39.966 1107.16,-28.3243"/>
<polygon fill="#191970" stroke="#191970" points="1107.987,-24.9099 1097.393,-25.0419 1105.757,-31.5452 1107.987,-24.9099"/>
</g>
<!-- Node29 -->
<g id="node30" class="node">
<title>Node29</title>
<polygon fill="none" stroke="#bfbfbf" points="1133.5,-6 1133.5,-25 1234.5,-25 1234.5,-6 1133.5,-6"/>
<text text-anchor="middle" x="1184" y="-13" font-family="Helvetica,sans-Serif" font-size="10.00" fill="#000000">FairMQMessage.h</text>
</g>
<!-- Node20&#45;&gt;Node29 -->
<g id="edge37" class="edge">
<title>Node20&#45;&gt;Node29</title>
<path fill="none" stroke="#191970" d="M1241.375,-67.3906C1230.9569,-57.9683 1214.8636,-43.4134 1202.3696,-32.1137"/>
<polygon fill="#191970" stroke="#191970" points="1204.5392,-29.3568 1194.7748,-25.2449 1199.8438,-34.5484 1204.5392,-29.3568"/>
</g>
<!-- Node30 -->
<g id="node31" class="node">
<title>Node30</title>
<polygon fill="none" stroke="#bfbfbf" points="1252.5,-6 1252.5,-25 1389.5,-25 1389.5,-6 1252.5,-6"/>
<text text-anchor="middle" x="1321" y="-13" font-family="Helvetica,sans-Serif" font-size="10.00" fill="#000000">FairMQTransportFactory.h</text>
</g>
<!-- Node20&#45;&gt;Node30 -->
<g id="edge38" class="edge">
<title>Node20&#45;&gt;Node30</title>
<path fill="none" stroke="#191970" d="M1262.7813,-67.3906C1273.3526,-57.9683 1289.6825,-43.4134 1302.3603,-32.1137"/>
<polygon fill="#191970" stroke="#191970" points="1304.9304,-34.5114 1310.0667,-25.2449 1300.2728,-29.2858 1304.9304,-34.5114"/>
</g>
<!-- Node31 -->
<g id="node32" class="node">
<title>Node31</title>
<polygon fill="none" stroke="#bfbfbf" points="1408,-6 1408,-25 1558,-25 1558,-6 1408,-6"/>
<text text-anchor="middle" x="1483" y="-13" font-family="Helvetica,sans-Serif" font-size="10.00" fill="#000000">fairmq/MemoryResources.h</text>
</g>
<!-- Node20&#45;&gt;Node31 -->
<g id="edge39" class="edge">
<title>Node20&#45;&gt;Node31</title>
<path fill="none" stroke="#191970" d="M1287.8403,-67.4581C1328.0485,-56.7533 1393.3691,-39.3628 1437.2369,-27.6837"/>
<polygon fill="#191970" stroke="#191970" points="1438.3127,-31.0193 1447.0756,-25.0643 1436.5118,-24.2549 1438.3127,-31.0193"/>
</g>
<!-- Node32 -->
<g id="node33" class="node">
<title>Node32</title>
<polygon fill="none" stroke="#bfbfbf" points="1576,-6 1576,-25 1746,-25 1746,-6 1576,-6"/>
<text text-anchor="middle" x="1661" y="-13" font-family="Helvetica,sans-Serif" font-size="10.00" fill="#000000">fairmq/MemoryResourceTools.h</text>
</g>
<!-- Node20&#45;&gt;Node32 -->
<g id="edge40" class="edge">
<title>Node20&#45;&gt;Node32</title>
<path fill="none" stroke="#191970" d="M1319.6458,-67.4888C1383.4706,-58.4279 1481.8058,-44.2434 1567,-31 1575.8817,-29.6193 1585.2285,-28.1264 1594.4427,-26.631"/>
<polygon fill="#191970" stroke="#191970" points="1595.0549,-30.0775 1604.3607,-25.0127 1593.9276,-23.1689 1595.0549,-30.0775"/>
</g>
<!-- Node38&#45;&gt;Node3 -->
<g id="edge55" class="edge">
<title>Node38&#45;&gt;Node3</title>
<path fill="none" stroke="#191970" d="M1008.3627,-195.9005C1040.3351,-184.2584 1094.3759,-164.5805 1130.1225,-151.5641"/>
<polygon fill="#191970" stroke="#191970" points="1131.4873,-154.792 1139.6862,-148.0817 1129.0922,-148.2145 1131.4873,-154.792"/>
</g>
<!-- Node38&#45;&gt;Node4 -->
<g id="edge56" class="edge">
<title>Node38&#45;&gt;Node4</title>
<path fill="none" stroke="#191970" d="M951.6256,-195.9005C914.3942,-184.134 851.1901,-164.1591 810.0243,-151.1492"/>
<polygon fill="#191970" stroke="#191970" points="810.908,-147.7579 800.3181,-148.0817 808.7985,-154.4325 810.908,-147.7579"/>
</g>
<!-- Node38&#45;&gt;Node5 -->
<g id="edge54" class="edge">
<title>Node38&#45;&gt;Node5</title>
<path fill="none" stroke="#191970" d="M980.4172,-195.9341C976.9459,-178.2723 966.8918,-140.7321 942,-123 917.1642,-105.3078 735.0086,-89.6694 630.0419,-82.003"/>
<polygon fill="#191970" stroke="#191970" points="630.0477,-78.4943 619.8213,-81.2638 629.5428,-85.4761 630.0477,-78.4943"/>
</g>
<!-- Node38&#45;&gt;Node35 -->
<g id="edge57" class="edge">
<title>Node38&#45;&gt;Node35</title>
<path fill="none" stroke="#191970" d="M971.3976,-195.9005C959.6381,-185.2535 940.4557,-167.8856 926.2664,-155.0385"/>
<polygon fill="#191970" stroke="#191970" points="928.3449,-152.1989 918.5827,-148.0817 923.6466,-157.388 928.3449,-152.1989"/>
</g>
<!-- Node39&#45;&gt;Node2 -->
<g id="edge61" class="edge">
<title>Node39&#45;&gt;Node2</title>
<path fill="none" stroke="#191970" d="M1063.526,-313.4369C1015.5486,-303.7724 941.383,-288.8326 890.1949,-278.5213"/>
<polygon fill="#191970" stroke="#191970" points="890.7725,-275.0674 880.2782,-276.5237 889.3901,-281.9296 890.7725,-275.0674"/>
</g>
<!-- Node39&#45;&gt;Node5 -->
<g id="edge62" class="edge">
<title>Node39&#45;&gt;Node5</title>
<path fill="none" stroke="#191970" d="M1127.3534,-313.3738C1176.5368,-283.3081 1315.9934,-189.2134 1254,-123 1232.9046,-100.4686 805.0115,-84.7104 629.8156,-79.1794"/>
<polygon fill="#191970" stroke="#191970" points="629.7565,-75.6759 619.6518,-78.8611 629.5373,-82.6725 629.7565,-75.6759"/>
</g>
<!-- Node39&#45;&gt;Node38 -->
<g id="edge60" class="edge">
<title>Node39&#45;&gt;Node38</title>
<path fill="none" stroke="#191970" d="M1100.4434,-313.3845C1078.5213,-293.4167 1027.8285,-247.243 1000.4077,-222.2667"/>
<polygon fill="#191970" stroke="#191970" points="1002.4523,-219.3947 992.7025,-215.2484 997.7386,-224.5698 1002.4523,-219.3947"/>
</g>
<!-- Node40 -->
<g id="node41" class="node">
<title>Node40</title>
<g id="a_node41"><a xlink:href="../../d3/ddf/Output_8h.html" target="_top" xlink:title="Framework/Output.h">
<polygon fill="none" stroke="#000000" points="1108,-196 1108,-215 1224,-215 1224,-196 1108,-196"/>
<text text-anchor="middle" x="1166" y="-203" font-family="Helvetica,sans-Serif" font-size="10.00" fill="#000000">Framework/Output.h</text>
</a>
</g>
</g>
<!-- Node39&#45;&gt;Node40 -->
<g id="edge63" class="edge">
<title>Node39&#45;&gt;Node40</title>
<path fill="none" stroke="#191970" d="M1115.5009,-313.3845C1124.5655,-294.0192 1145.1676,-250.0055 1157.067,-224.584"/>
<polygon fill="#191970" stroke="#191970" points="1160.3674,-225.7891 1161.4369,-215.2484 1154.0276,-222.8215 1160.3674,-225.7891"/>
</g>
<!-- Node41 -->
<g id="node42" class="node">
<title>Node41</title>
<polygon fill="none" stroke="#bfbfbf" points="1322,-257.5 1322,-276.5 1378,-276.5 1378,-257.5 1322,-257.5"/>
<text text-anchor="middle" x="1350" y="-264.5" font-family="Helvetica,sans-Serif" font-size="10.00" fill="#000000">optional</text>
</g>
<!-- Node39&#45;&gt;Node41 -->
<g id="edge67" class="edge">
<title>Node39&#45;&gt;Node41</title>
<path fill="none" stroke="#191970" d="M1152.1391,-313.4488C1192.0015,-304.181 1254.1603,-289.6953 1308,-277 1309.2721,-276.7 1310.5658,-276.3945 1311.8723,-276.0856"/>
<polygon fill="#191970" stroke="#191970" points="1313.0671,-279.3995 1321.9899,-273.687 1311.4522,-272.5883 1313.0671,-279.3995"/>
</g>
<!-- Node40&#45;&gt;Node3 -->
<g id="edge65" class="edge">
<title>Node40&#45;&gt;Node3</title>
<path fill="none" stroke="#191970" d="M1166,-195.9005C1166,-186.149 1166,-170.7597 1166,-158.3695"/>
<polygon fill="#191970" stroke="#191970" points="1169.5001,-158.0816 1166,-148.0817 1162.5001,-158.0817 1169.5001,-158.0816"/>
</g>
<!-- Node40&#45;&gt;Node5 -->
<g id="edge64" class="edge">
<title>Node40&#45;&gt;Node5</title>
<path fill="none" stroke="#191970" d="M1184.8633,-195.8757C1213.1631,-180.2504 1260.8722,-148.5391 1237,-123 1216.5063,-101.0753 801.8793,-85.0412 629.829,-79.3069"/>
<polygon fill="#191970" stroke="#191970" points="629.7042,-75.8009 619.5939,-78.9684 629.4728,-82.7971 629.7042,-75.8009"/>
</g>
<!-- Node40&#45;&gt;Node19 -->
<g id="edge66" class="edge">
<title>Node40&#45;&gt;Node19</title>
<path fill="none" stroke="#191970" d="M1147.6607,-195.9005C1126.0844,-184.6067 1090.0609,-165.7506 1065.2234,-152.7497"/>
<polygon fill="#191970" stroke="#191970" points="1066.7881,-149.6183 1056.3053,-148.0817 1063.5418,-155.8201 1066.7881,-149.6183"/>
</g>
</g>
</svg>
        <g id="navigator" transform="translate(0 0)" fill="#404254">
                <rect fill="#f2f5e9" fill-opacity="0.5" stroke="#606060" stroke-width=".5" x="0" y="0" width="60" height="60"/>
                <use id="zoomplus" xlink:href="#zoomPlus" x="17" y="9" onmousedown="handleZoom(evt,'in')"/>
                <use id="zoomminus" xlink:href="#zoomMin" x="42" y="9" onmousedown="handleZoom(evt,'out')"/>
                <use id="reset" xlink:href="#resetDef" x="30" y="36" onmousedown="handleReset()"/>
                <g id="arrowUp" xlink:href="#dirArrow" transform="translate(30 24)" onmousedown="handlePan(0,-1)">
                  <use xlink:href="#rim" fill="#404040">
                        <set attributeName="fill" to="#808080" begin="arrowUp.mouseover" end="arrowUp.mouseout"/>
                  </use>
                  <path fill="none" stroke="white" stroke-width="1.5" d="M0,-3.0v7 M-2.5,-0.5L0,-3.0L2.5,-0.5"/>
                </g>
                <g id="arrowRight" xlink:href="#dirArrow" transform="rotate(90) translate(36 -43)" onmousedown="handlePan(1,0)">
                  <use xlink:href="#rim" fill="#404040">
                        <set attributeName="fill" to="#808080" begin="arrowRight.mouseover" end="arrowRight.mouseout"/>
                  </use>
                  <path fill="none" stroke="white" stroke-width="1.5" d="M0,-3.0v7 M-2.5,-0.5L0,-3.0L2.5,-0.5"/>
                </g>
                <g id="arrowDown" xlink:href="#dirArrow" transform="rotate(180) translate(-30 -48)" onmousedown="handlePan(0,1)">
                  <use xlink:href="#rim" fill="#404040">
                        <set attributeName="fill" to="#808080" begin="arrowDown.mouseover" end="arrowDown.mouseout"/>
                  </use>
                  <path fill="none" stroke="white" stroke-width="1.5" d="M0,-3.0v7 M-2.5,-0.5L0,-3.0L2.5,-0.5"/>
                </g>
                <g id="arrowLeft" xlink:href="#dirArrow" transform="rotate(270) translate(-36 17)" onmousedown="handlePan(-1,0)">
                  <use xlink:href="#rim" fill="#404040">
                        <set attributeName="fill" to="#808080" begin="arrowLeft.mouseover" end="arrowLeft.mouseout"/>
                  </use>
                  <path fill="none" stroke="white" stroke-width="1.5" d="M0,-3.0v7 M-2.5,-0.5L0,-3.0L2.5,-0.5"/>
                </g>
        </g>
        <svg viewBox="0 0 15 15" width="100%" height="30px" preserveAspectRatio="xMaxYMin meet">
         <g id="arrow_out" transform="scale(0.3 0.3)">
          <a xlink:href="ChannelMatching_8cxx__incl_org.svg" target="_base">
           <rect id="button" ry="5" rx="5" y="6" x="6" height="38" width="38"
                fill="#f2f5e9" fill-opacity="0.5" stroke="#606060" stroke-width="1.0"/>
           <path id="arrow"
             d="M 11.500037,31.436501 C 11.940474,20.09759 22.043105,11.32322 32.158766,21.979434 L 37.068811,17.246167 C 37.068811,17.246167 37.088388,32 37.088388,32 L 22.160133,31.978069 C 22.160133,31.978069 26.997745,27.140456 26.997745,27.140456 C 18.528582,18.264221 13.291696,25.230495 11.500037,31.436501 z"
             style="fill:#404040;"/>
          </a>
         </g>
        </svg>
</svg>
