<?xml version="1.0" encoding="UTF-8" standalone="no"?>
<!DOCTYPE svg PUBLIC "-//W3C//DTD SVG 1.1//EN"
 "http://www.w3.org/Graphics/SVG/1.1/DTD/svg11.dtd">
<!-- Generated by graphviz version 2.40.1 (20161225.0304)
 -->
<!-- Title: /home/travis/build/AliceO2Group/AliceO2/Framework/Core/src/DataRelayerHelpers.h Pages: 1 -->
<!--zoomable 430 -->
<svg id="main" version="1.1" xmlns="http://www.w3.org/2000/svg" xmlns:xlink="http://www.w3.org/1999/xlink" xml:space="preserve" onload="init(evt)">
<style type="text/css"><![CDATA[
.edge:hover path { stroke: red; }
.edge:hover polygon { stroke: red; fill: red; }
]]></style>
<script type="text/javascript"><![CDATA[
var edges = document.getElementsByTagName('g');
if (edges && edges.length) {
  for (var i=0;i<edges.length;i++) {
    if (edges[i].id.substr(0,4)=='edge') {
      edges[i].setAttribute('class','edge');
    }
  }
}
]]></script>
        <defs>
                <circle id="rim" cx="0" cy="0" r="7"/>
                <circle id="rim2" cx="0" cy="0" r="3.5"/>
                <g id="zoomPlus">
                        <use xlink:href="#rim" fill="#404040">
                                <set attributeName="fill" to="#808080" begin="zoomplus.mouseover" end="zoomplus.mouseout"/>
                        </use>
                        <path d="M-4,0h8M0,-4v8" fill="none" stroke="white" stroke-width="1.5" pointer-events="none"/>
                </g>
                <g id="zoomMin">
                        <use xlink:href="#rim" fill="#404040">
                                <set attributeName="fill" to="#808080" begin="zoomminus.mouseover" end="zoomminus.mouseout"/>
                        </use>
                        <path d="M-4,0h8" fill="none" stroke="white" stroke-width="1.5" pointer-events="none"/>
                </g>
                <g id="dirArrow">
                        <path fill="none" stroke="white" stroke-width="1.5" d="M0,-3.0v7 M-2.5,-0.5L0,-3.0L2.5,-0.5"/>
                </g>
               <g id="resetDef">
                       <use xlink:href="#rim2" fill="#404040">
                               <set attributeName="fill" to="#808080" begin="reset.mouseover" end="reset.mouseout"/>
                       </use>
               </g>
        </defs>

<script type="text/javascript">
var viewWidth = 2389;
var viewHeight = 430;
var sectionId = 'dynsection-0';
</script>
<script xlink:href="../../svgpan.js"/>
<svg id="graph" class="graph">
<g id="viewport">
<title>/home/travis/build/AliceO2Group/AliceO2/Framework/Core/src/DataRelayerHelpers.h</title>
<!-- Node0 -->
<g id="node1" class="node">
<title>Node0</title>
<polygon fill="#bfbfbf" stroke="#000000" points="1095.5,-369.5 1095.5,-421.5 1274.5,-421.5 1274.5,-369.5 1095.5,-369.5"/>
<text text-anchor="start" x="1103.5" y="-409.5" font-family="Helvetica,sans-Serif" font-size="10.00" fill="#000000">/home/travis/build</text>
<text text-anchor="start" x="1103.5" y="-398.5" font-family="Helvetica,sans-Serif" font-size="10.00" fill="#000000">/AliceO2Group/AliceO2</text>
<text text-anchor="start" x="1103.5" y="-387.5" font-family="Helvetica,sans-Serif" font-size="10.00" fill="#000000">/Framework/Core/src/DataRelayer</text>
<text text-anchor="middle" x="1185" y="-376.5" font-family="Helvetica,sans-Serif" font-size="10.00" fill="#000000">Helpers.h</text>
</g>
<!-- Node1 -->
<g id="node2" class="node">
<title>Node1</title>
<g id="a_node2"><a xlink:href="../../d5/d19/InputRoute_8h.html" target="_top" xlink:title="Framework/InputRoute.h">
<polygon fill="none" stroke="#000000" points="1328.5,-313.5 1328.5,-332.5 1463.5,-332.5 1463.5,-313.5 1328.5,-313.5"/>
<text text-anchor="middle" x="1396" y="-320.5" font-family="Helvetica,sans-Serif" font-size="10.00" fill="#000000">Framework/InputRoute.h</text>
</a>
</g>
</g>
<!-- Node0&#45;&gt;Node1 -->
<g id="edge1" class="edge">
<title>Node0&#45;&gt;Node1</title>
<path fill="none" stroke="#191970" d="M1260.8777,-369.4283C1294.1289,-358.0031 1331.6522,-345.11 1358.7042,-335.8149"/>
<polygon fill="#191970" stroke="#191970" points="1359.8497,-339.1222 1368.1696,-332.5626 1357.5749,-332.5021 1359.8497,-339.1222"/>
</g>
<!-- Node29 -->
<g id="node30" class="node">
<title>Node29</title>
<polygon fill="none" stroke="#bfbfbf" points="1587.5,-6 1587.5,-25 1634.5,-25 1634.5,-6 1587.5,-6"/>
<text text-anchor="middle" x="1611" y="-13" font-family="Helvetica,sans-Serif" font-size="10.00" fill="#000000">vector</text>
</g>
<!-- Node0&#45;&gt;Node29 -->
<g id="edge61" class="edge">
<title>Node0&#45;&gt;Node29</title>
<path fill="none" stroke="#191970" d="M1160.4908,-369.4277C1114.0553,-316.8786 1023.4403,-196.9608 1088,-123 1126.9365,-78.3936 1293.8414,-98.1065 1352,-87 1454.069,-67.508 1481.2612,-66.2867 1579,-31 1580.5967,-30.4235 1582.2196,-29.7921 1583.8447,-29.1241"/>
<polygon fill="#191970" stroke="#191970" points="1585.3076,-32.3039 1593.0082,-25.0271 1582.4505,-25.9135 1585.3076,-32.3039"/>
</g>
<!-- Node2 -->
<g id="node3" class="node">
<title>Node2</title>
<g id="a_node3"><a xlink:href="../../d2/dd9/ExpirationHandler_8h.html" target="_top" xlink:title="Framework/ExpirationHandler.h">
<polygon fill="none" stroke="#000000" points="1605,-257.5 1605,-276.5 1775,-276.5 1775,-257.5 1605,-257.5"/>
<text text-anchor="middle" x="1690" y="-264.5" font-family="Helvetica,sans-Serif" font-size="10.00" fill="#000000">Framework/ExpirationHandler.h</text>
</a>
</g>
</g>
<!-- Node1&#45;&gt;Node2 -->
<g id="edge2" class="edge">
<title>Node1&#45;&gt;Node2</title>
<path fill="none" stroke="#191970" d="M1446.2063,-313.4369C1497.0507,-303.7522 1575.706,-288.7703 1629.8513,-278.4569"/>
<polygon fill="#191970" stroke="#191970" points="1630.8323,-281.8331 1640.0007,-276.5237 1629.5224,-274.9567 1630.8323,-281.8331"/>
</g>
<!-- Node5 -->
<g id="node6" class="node">
<title>Node5</title>
<polygon fill="none" stroke="#bfbfbf" points="1675.5,-196 1675.5,-215 1740.5,-215 1740.5,-196 1675.5,-196"/>
<text text-anchor="middle" x="1708" y="-203" font-family="Helvetica,sans-Serif" font-size="10.00" fill="#000000">functional</text>
</g>
<!-- Node1&#45;&gt;Node5 -->
<g id="edge59" class="edge">
<title>Node1&#45;&gt;Node5</title>
<path fill="none" stroke="#191970" d="M1395.9032,-313.2024C1396.3337,-298.5654 1399.4678,-271.1957 1416,-257 1458.7507,-220.2911 1612.4304,-235.0472 1667,-221 1669.8326,-220.2708 1672.739,-219.4112 1675.633,-218.4767"/>
<polygon fill="#191970" stroke="#191970" points="1677.0185,-221.7 1685.3001,-215.092 1674.7052,-215.0933 1677.0185,-221.7"/>
</g>
<!-- Node6 -->
<g id="node7" class="node">
<title>Node6</title>
<g id="a_node7"><a xlink:href="../../d5/d3f/InputSpec_8h.html" target="_top" xlink:title="Framework/InputSpec.h">
<polygon fill="none" stroke="#000000" points="1236.5,-257.5 1236.5,-276.5 1367.5,-276.5 1367.5,-257.5 1236.5,-257.5"/>
<text text-anchor="middle" x="1302" y="-264.5" font-family="Helvetica,sans-Serif" font-size="10.00" fill="#000000">Framework/InputSpec.h</text>
</a>
</g>
</g>
<!-- Node1&#45;&gt;Node6 -->
<g id="edge6" class="edge">
<title>Node1&#45;&gt;Node6</title>
<path fill="none" stroke="#191970" d="M1379.6264,-313.2455C1365.0692,-304.5731 1343.569,-291.7645 1326.8848,-281.825"/>
<polygon fill="#191970" stroke="#191970" points="1328.5683,-278.7539 1318.1859,-276.6427 1324.9856,-284.7676 1328.5683,-278.7539"/>
</g>
<!-- Node14 -->
<g id="node15" class="node">
<title>Node14</title>
<polygon fill="none" stroke="#bfbfbf" points="0,-6 0,-25 44,-25 44,-6 0,-6"/>
<text text-anchor="middle" x="22" y="-13" font-family="Helvetica,sans-Serif" font-size="10.00" fill="#000000">string</text>
</g>
<!-- Node1&#45;&gt;Node14 -->
<g id="edge58" class="edge">
<title>Node1&#45;&gt;Node14</title>
<path fill="none" stroke="#191970" d="M1328.3434,-314.3819C1128.7016,-287.6713 526.4233,-197.8654 53,-31 51.5812,-30.4999 50.144,-29.9497 48.7053,-29.3639"/>
<polygon fill="#191970" stroke="#191970" points="49.9257,-26.0744 39.3725,-25.136 47.0371,-32.4507 49.9257,-26.0744"/>
</g>
<!-- Node40 -->
<g id="node41" class="node">
<title>Node40</title>
<polygon fill="none" stroke="#bfbfbf" points="1424.5,-257.5 1424.5,-276.5 1477.5,-276.5 1477.5,-257.5 1424.5,-257.5"/>
<text text-anchor="middle" x="1451" y="-264.5" font-family="Helvetica,sans-Serif" font-size="10.00" fill="#000000">cstddef</text>
</g>
<!-- Node1&#45;&gt;Node40 -->
<g id="edge57" class="edge">
<title>Node1&#45;&gt;Node40</title>
<path fill="none" stroke="#191970" d="M1405.5803,-313.2455C1413.5458,-305.1352 1425.0641,-293.4075 1434.5079,-283.7919"/>
<polygon fill="#191970" stroke="#191970" points="1437.0195,-286.2297 1441.5295,-276.6427 1432.0253,-281.3247 1437.0195,-286.2297"/>
</g>
<!-- Node41 -->
<g id="node42" class="node">
<title>Node41</title>
<polygon fill="none" stroke="#bfbfbf" points="1496,-257.5 1496,-276.5 1552,-276.5 1552,-257.5 1496,-257.5"/>
<text text-anchor="middle" x="1524" y="-264.5" font-family="Helvetica,sans-Serif" font-size="10.00" fill="#000000">optional</text>
</g>
<!-- Node1&#45;&gt;Node41 -->
<g id="edge60" class="edge">
<title>Node1&#45;&gt;Node41</title>
<path fill="none" stroke="#191970" d="M1418.004,-313.3733C1438.6435,-304.3435 1469.7158,-290.7494 1492.8889,-280.6111"/>
<polygon fill="#191970" stroke="#191970" points="1494.5245,-283.7159 1502.2831,-276.5011 1491.7187,-277.3028 1494.5245,-283.7159"/>
</g>
<!-- Node3 -->
<g id="node4" class="node">
<title>Node3</title>
<g id="a_node4"><a xlink:href="../../dc/dca/Lifetime_8h.html" target="_top" xlink:title="Framework/Lifetime.h">
<polygon fill="none" stroke="#000000" points="1534.5,-196 1534.5,-215 1657.5,-215 1657.5,-196 1534.5,-196"/>
<text text-anchor="middle" x="1596" y="-203" font-family="Helvetica,sans-Serif" font-size="10.00" fill="#000000">Framework/Lifetime.h</text>
</a>
</g>
</g>
<!-- Node2&#45;&gt;Node3 -->
<g id="edge3" class="edge">
<title>Node2&#45;&gt;Node3</title>
<path fill="none" stroke="#191970" d="M1675.3125,-257.3906C1660.2744,-247.5519 1636.6824,-232.1167 1619.1333,-220.6351"/>
<polygon fill="#191970" stroke="#191970" points="1620.8687,-217.588 1610.5844,-215.0419 1617.0363,-223.4457 1620.8687,-217.588"/>
</g>
<!-- Node4 -->
<g id="node5" class="node">
<title>Node4</title>
<polygon fill="none" stroke="#bfbfbf" points="2331,-6 2331,-25 2381,-25 2381,-6 2331,-6"/>
<text text-anchor="middle" x="2356" y="-13" font-family="Helvetica,sans-Serif" font-size="10.00" fill="#000000">cstdint</text>
</g>
<!-- Node2&#45;&gt;Node4 -->
<g id="edge4" class="edge">
<title>Node2&#45;&gt;Node4</title>
<path fill="none" stroke="#191970" d="M1775.1727,-257.8703C1917.69,-241.4285 2197.218,-203.8577 2282,-154 2315.4536,-134.327 2320.3748,-121.5764 2338,-87 2346.3385,-70.6419 2350.9837,-50.1682 2353.4566,-35.3262"/>
<polygon fill="#191970" stroke="#191970" points="2356.9481,-35.6403 2354.9494,-25.2357 2350.0235,-34.6158 2356.9481,-35.6403"/>
</g>
<!-- Node2&#45;&gt;Node5 -->
<g id="edge5" class="edge">
<title>Node2&#45;&gt;Node5</title>
<path fill="none" stroke="#191970" d="M1692.8125,-257.3906C1695.3339,-248.776 1699.111,-235.8708 1702.2676,-225.0858"/>
<polygon fill="#191970" stroke="#191970" points="1705.6979,-225.8254 1705.1478,-215.2449 1698.9797,-223.8591 1705.6979,-225.8254"/>
</g>
<!-- Node6&#45;&gt;Node3 -->
<g id="edge7" class="edge">
<title>Node6&#45;&gt;Node3</title>
<path fill="none" stroke="#191970" d="M1347.6149,-257.4581C1399.5432,-246.5956 1484.3815,-228.8488 1540.2064,-217.1711"/>
<polygon fill="#191970" stroke="#191970" points="1541.2066,-220.5377 1550.2781,-215.0643 1539.7733,-213.686 1541.2066,-220.5377"/>
</g>
<!-- Node7 -->
<g id="node8" class="node">
<title>Node7</title>
<g id="a_node8"><a xlink:href="../../d0/d1b/ConcreteDataMatcher_8h.html" target="_top" xlink:title="Framework/ConcreteDataMatcher.h">
<polygon fill="none" stroke="#000000" points="1687,-129 1687,-148 1875,-148 1875,-129 1687,-129"/>
<text text-anchor="middle" x="1781" y="-136" font-family="Helvetica,sans-Serif" font-size="10.00" fill="#000000">Framework/ConcreteDataMatcher.h</text>
</a>
</g>
</g>
<!-- Node6&#45;&gt;Node7 -->
<g id="edge8" class="edge">
<title>Node6&#45;&gt;Node7</title>
<path fill="none" stroke="#191970" d="M1367.727,-257.7153C1404.1899,-250.8568 1449.5904,-239.4255 1487,-221 1506.8634,-211.2166 1505.9242,-199.3398 1526,-190 1557.4366,-175.3749 1642.8886,-159.768 1706.2568,-149.6177"/>
<polygon fill="#191970" stroke="#191970" points="1706.8975,-153.0599 1716.2257,-148.0365 1705.8008,-146.1463 1706.8975,-153.0599"/>
</g>
<!-- Node6&#45;&gt;Node14 -->
<g id="edge54" class="edge">
<title>Node6&#45;&gt;Node14</title>
<path fill="none" stroke="#191970" d="M1275.8888,-257.4113C1253.4467,-248.835 1220.4577,-235.4224 1193,-221 1143.9915,-195.2578 1130.5345,-189.4303 1088,-154 1047.407,-120.1869 1055.0346,-88.9952 1007,-67 910.5549,-22.8374 155.7599,-57.3137 53,-31 51.0764,-30.5074 49.1336,-29.8843 47.2085,-29.1724"/>
<polygon fill="#191970" stroke="#191970" points="48.4637,-25.9008 37.9017,-25.0675 45.6388,-32.3054 48.4637,-25.9008"/>
</g>
<!-- Node18 -->
<g id="node19" class="node">
<title>Node18</title>
<g id="a_node19"><a xlink:href="../../d3/da3/DataDescriptorMatcher_8h.html" target="_top" xlink:title="Framework/DataDescriptor\lMatcher.h">
<polygon fill="none" stroke="#000000" points="1330.5,-190.5 1330.5,-220.5 1477.5,-220.5 1477.5,-190.5 1330.5,-190.5"/>
<text text-anchor="start" x="1338.5" y="-208.5" font-family="Helvetica,sans-Serif" font-size="10.00" fill="#000000">Framework/DataDescriptor</text>
<text text-anchor="middle" x="1404" y="-197.5" font-family="Helvetica,sans-Serif" font-size="10.00" fill="#000000">Matcher.h</text>
</a>
</g>
</g>
<!-- Node6&#45;&gt;Node18 -->
<g id="edge20" class="edge">
<title>Node6&#45;&gt;Node18</title>
<path fill="none" stroke="#191970" d="M1317.9375,-257.3906C1331.8698,-248.9903 1352.5684,-236.5103 1370.1749,-225.8945"/>
<polygon fill="#191970" stroke="#191970" points="1372.2914,-228.7054 1379.048,-220.5446 1368.677,-222.7108 1372.2914,-228.7054"/>
</g>
<!-- Node37 -->
<g id="node38" class="node">
<title>Node37</title>
<polygon fill="none" stroke="#bfbfbf" points="1097.5,-129 1097.5,-148 1148.5,-148 1148.5,-129 1097.5,-129"/>
<text text-anchor="middle" x="1123" y="-136" font-family="Helvetica,sans-Serif" font-size="10.00" fill="#000000">variant</text>
</g>
<!-- Node6&#45;&gt;Node37 -->
<g id="edge56" class="edge">
<title>Node6&#45;&gt;Node37</title>
<path fill="none" stroke="#191970" d="M1288.5459,-257.3416C1257.8352,-235.2951 1182.339,-181.0981 1144.8508,-154.1862"/>
<polygon fill="#191970" stroke="#191970" points="1146.7749,-151.259 1136.6102,-148.2705 1142.6926,-156.9454 1146.7749,-151.259"/>
</g>
<!-- Node39 -->
<g id="node40" class="node">
<title>Node39</title>
<polygon fill="none" stroke="#bfbfbf" points="1255.5,-196 1255.5,-215 1312.5,-215 1312.5,-196 1255.5,-196"/>
<text text-anchor="middle" x="1284" y="-203" font-family="Helvetica,sans-Serif" font-size="10.00" fill="#000000">ostream</text>
</g>
<!-- Node6&#45;&gt;Node39 -->
<g id="edge55" class="edge">
<title>Node6&#45;&gt;Node39</title>
<path fill="none" stroke="#191970" d="M1299.1875,-257.3906C1296.6661,-248.776 1292.889,-235.8708 1289.7324,-225.0858"/>
<polygon fill="#191970" stroke="#191970" points="1293.0203,-223.8591 1286.8522,-215.2449 1286.3021,-225.8254 1293.0203,-223.8591"/>
</g>
<!-- Node8 -->
<g id="node9" class="node">
<title>Node8</title>
<g id="a_node9"><a xlink:href="../../dc/dcd/DataHeader_8h.html" target="_top" xlink:title="Headers/DataHeader.h">
<polygon fill="none" stroke="#000000" points="1892.5,-67.5 1892.5,-86.5 2019.5,-86.5 2019.5,-67.5 1892.5,-67.5"/>
<text text-anchor="middle" x="1956" y="-74.5" font-family="Helvetica,sans-Serif" font-size="10.00" fill="#000000">Headers/DataHeader.h</text>
</a>
</g>
</g>
<!-- Node7&#45;&gt;Node8 -->
<g id="edge9" class="edge">
<title>Node7&#45;&gt;Node8</title>
<path fill="none" stroke="#191970" d="M1808.3438,-128.8906C1838.1382,-118.42 1885.9685,-101.6111 1919.0808,-89.9745"/>
<polygon fill="#191970" stroke="#191970" points="1920.5743,-93.1595 1928.8483,-86.5419 1918.2534,-86.5554 1920.5743,-93.1595"/>
</g>
<!-- Node8&#45;&gt;Node4 -->
<g id="edge10" class="edge">
<title>Node8&#45;&gt;Node4</title>
<path fill="none" stroke="#191970" d="M2019.649,-74.8205C2093.5889,-70.9629 2218.6473,-60.315 2322,-31 2323.9659,-30.4424 2325.9628,-29.7873 2327.9533,-29.0672"/>
<polygon fill="#191970" stroke="#191970" points="2329.7573,-32.1102 2337.6792,-25.075 2327.0992,-25.6345 2329.7573,-32.1102"/>
</g>
<!-- Node9 -->
<g id="node10" class="node">
<title>Node9</title>
<polygon fill="none" stroke="#bfbfbf" points="2185,-6 2185,-25 2243,-25 2243,-6 2185,-6"/>
<text text-anchor="middle" x="2214" y="-13" font-family="Helvetica,sans-Serif" font-size="10.00" fill="#000000">memory</text>
</g>
<!-- Node8&#45;&gt;Node9 -->
<g id="edge11" class="edge">
<title>Node8&#45;&gt;Node9</title>
<path fill="none" stroke="#191970" d="M2016.0314,-67.4784C2060.6825,-59.6686 2122.8256,-47.2571 2176,-31 2178.2996,-30.2969 2180.6533,-29.5099 2183.0069,-28.6731"/>
<polygon fill="#191970" stroke="#191970" points="2184.4428,-31.8716 2192.5427,-25.042 2181.9517,-25.3298 2184.4428,-31.8716"/>
</g>
<!-- Node10 -->
<g id="node11" class="node">
<title>Node10</title>
<polygon fill="none" stroke="#bfbfbf" points="2261,-6 2261,-25 2313,-25 2313,-6 2261,-6"/>
<text text-anchor="middle" x="2287" y="-13" font-family="Helvetica,sans-Serif" font-size="10.00" fill="#000000">cassert</text>
</g>
<!-- Node8&#45;&gt;Node10 -->
<g id="edge12" class="edge">
<title>Node8&#45;&gt;Node10</title>
<path fill="none" stroke="#191970" d="M2019.7048,-71.9726C2080.3748,-66.0503 2173.7816,-53.9615 2252,-31 2254.1242,-30.3764 2256.2882,-29.6527 2258.4457,-28.8654"/>
<polygon fill="#191970" stroke="#191970" points="2259.7572,-32.1104 2267.7192,-25.1206 2257.1361,-25.6197 2259.7572,-32.1104"/>
</g>
<!-- Node11 -->
<g id="node12" class="node">
<title>Node11</title>
<polygon fill="none" stroke="#bfbfbf" points="1653,-6 1653,-25 1703,-25 1703,-6 1653,-6"/>
<text text-anchor="middle" x="1678" y="-13" font-family="Helvetica,sans-Serif" font-size="10.00" fill="#000000">cstring</text>
</g>
<!-- Node8&#45;&gt;Node11 -->
<g id="edge13" class="edge">
<title>Node8&#45;&gt;Node11</title>
<path fill="none" stroke="#191970" d="M1892.2816,-69.283C1842.4337,-62.2243 1771.7879,-49.9565 1712,-31 1710.0985,-30.3971 1708.1632,-29.7154 1706.2297,-28.9825"/>
<polygon fill="#191970" stroke="#191970" points="1707.3183,-25.6442 1696.7419,-25.0197 1704.6204,-32.1034 1707.3183,-25.6442"/>
</g>
<!-- Node12 -->
<g id="node13" class="node">
<title>Node12</title>
<polygon fill="none" stroke="#bfbfbf" points="2103,-6 2103,-25 2167,-25 2167,-6 2103,-6"/>
<text text-anchor="middle" x="2135" y="-13" font-family="Helvetica,sans-Serif" font-size="10.00" fill="#000000">algorithm</text>
</g>
<!-- Node8&#45;&gt;Node12 -->
<g id="edge14" class="edge">
<title>Node8&#45;&gt;Node12</title>
<path fill="none" stroke="#191970" d="M1985.7281,-67.4679C2013.755,-58.3921 2056.8796,-44.1975 2094,-31 2096.2384,-30.2042 2098.5406,-29.3719 2100.8577,-28.524"/>
<polygon fill="#191970" stroke="#191970" points="2102.1855,-31.7646 2110.3422,-25.003 2099.7492,-25.2022 2102.1855,-31.7646"/>
</g>
<!-- Node13 -->
<g id="node14" class="node">
<title>Node13</title>
<polygon fill="none" stroke="#bfbfbf" points="1885.5,-6 1885.5,-25 1950.5,-25 1950.5,-6 1885.5,-6"/>
<text text-anchor="middle" x="1918" y="-13" font-family="Helvetica,sans-Serif" font-size="10.00" fill="#000000">stdexcept</text>
</g>
<!-- Node8&#45;&gt;Node13 -->
<g id="edge15" class="edge">
<title>Node8&#45;&gt;Node13</title>
<path fill="none" stroke="#191970" d="M1950.0625,-67.3906C1944.5733,-58.5068 1936.2647,-45.0601 1929.481,-34.0811"/>
<polygon fill="#191970" stroke="#191970" points="1932.2551,-31.9122 1924.0212,-25.2449 1926.3002,-35.5917 1932.2551,-31.9122"/>
</g>
<!-- Node8&#45;&gt;Node14 -->
<g id="edge16" class="edge">
<title>Node8&#45;&gt;Node14</title>
<path fill="none" stroke="#191970" d="M1892.4585,-75.8434C1566.8302,-69.8697 98.6116,-42.351 53,-31 51.0731,-30.5205 49.1279,-29.907 47.201,-29.2021"/>
<polygon fill="#191970" stroke="#191970" points="48.4536,-25.9296 37.8903,-25.1124 45.6384,-32.3386 48.4536,-25.9296"/>
</g>
<!-- Node15 -->
<g id="node16" class="node">
<title>Node15</title>
<polygon fill="none" stroke="#bfbfbf" points="1969,-6 1969,-25 2019,-25 2019,-6 1969,-6"/>
<text text-anchor="middle" x="1994" y="-13" font-family="Helvetica,sans-Serif" font-size="10.00" fill="#000000">climits</text>
</g>
<!-- Node8&#45;&gt;Node15 -->
<g id="edge17" class="edge">
<title>Node8&#45;&gt;Node15</title>
<path fill="none" stroke="#191970" d="M1961.9375,-67.3906C1967.4267,-58.5068 1975.7353,-45.0601 1982.519,-34.0811"/>
<polygon fill="#191970" stroke="#191970" points="1985.6998,-35.5917 1987.9788,-25.2449 1979.7449,-31.9122 1985.6998,-35.5917"/>
</g>
<!-- Node16 -->
<g id="node17" class="node">
<title>Node16</title>
<g id="a_node17"><a xlink:href="../../d7/df8/Types_8h.html" target="_top" xlink:title="MemoryResources/Types.h">
<polygon fill="none" stroke="#000000" points="1721,-6 1721,-25 1867,-25 1867,-6 1721,-6"/>
<text text-anchor="middle" x="1794" y="-13" font-family="Helvetica,sans-Serif" font-size="10.00" fill="#000000">MemoryResources/Types.h</text>
</a>
</g>
</g>
<!-- Node8&#45;&gt;Node16 -->
<g id="edge18" class="edge">
<title>Node8&#45;&gt;Node16</title>
<path fill="none" stroke="#191970" d="M1930.6875,-67.3906C1903.2253,-56.9652 1859.2105,-40.2559 1828.5737,-28.6252"/>
<polygon fill="#191970" stroke="#191970" points="1829.726,-25.319 1819.1348,-25.0419 1827.2415,-31.8633 1829.726,-25.319"/>
</g>
<!-- Node17 -->
<g id="node18" class="node">
<title>Node17</title>
<polygon fill="none" stroke="#bfbfbf" points="2037.5,-6 2037.5,-25 2084.5,-25 2084.5,-6 2037.5,-6"/>
<text text-anchor="middle" x="2061" y="-13" font-family="Helvetica,sans-Serif" font-size="10.00" fill="#000000">cerrno</text>
</g>
<!-- Node8&#45;&gt;Node17 -->
<g id="edge19" class="edge">
<title>Node8&#45;&gt;Node17</title>
<path fill="none" stroke="#191970" d="M1972.4063,-67.3906C1989.4353,-57.4165 2016.2841,-41.6908 2035.9651,-30.1633"/>
<polygon fill="#191970" stroke="#191970" points="2037.849,-33.1161 2044.709,-25.0419 2034.3112,-27.0759 2037.849,-33.1161"/>
</g>
<!-- Node18&#45;&gt;Node4 -->
<g id="edge48" class="edge">
<title>Node18&#45;&gt;Node4</title>
<path fill="none" stroke="#191970" d="M1477.7715,-195.2036C1493.6555,-193.2455 1510.368,-191.3802 1526,-190 1606.1212,-182.9261 2177.7078,-191.2407 2249,-154 2299.3291,-127.7097 2333.1969,-65.9995 2347.8174,-34.5904"/>
<polygon fill="#191970" stroke="#191970" points="2351.1325,-35.7517 2352.0337,-25.1952 2344.7461,-32.8856 2351.1325,-35.7517"/>
</g>
<!-- Node18&#45;&gt;Node7 -->
<g id="edge21" class="edge">
<title>Node18&#45;&gt;Node7</title>
<path fill="none" stroke="#191970" d="M1477.5844,-192.4227C1547.3933,-180.0163 1651.2052,-161.567 1717.4866,-149.7875"/>
<polygon fill="#191970" stroke="#191970" points="1718.1545,-153.2238 1727.3878,-148.0279 1716.9296,-146.3317 1718.1545,-153.2238"/>
</g>
<!-- Node18&#45;&gt;Node8 -->
<g id="edge28" class="edge">
<title>Node18&#45;&gt;Node8</title>
<path fill="none" stroke="#191970" d="M1477.6178,-190.6358C1539.6442,-177.8561 1620.5452,-160.4898 1635,-154 1656.4929,-144.3503 1656.2482,-132.0509 1678,-123 1713.9459,-108.0429 1812.6645,-93.9022 1882.1997,-85.3449"/>
<polygon fill="#191970" stroke="#191970" points="1882.7324,-88.806 1892.2363,-84.1235 1881.8867,-81.8573 1882.7324,-88.806"/>
</g>
<!-- Node18&#45;&gt;Node14 -->
<g id="edge50" class="edge">
<title>Node18&#45;&gt;Node14</title>
<path fill="none" stroke="#191970" d="M1330.3012,-190.7244C1280.4579,-180.0752 1219.5755,-165.5972 1196,-154 1176.1317,-144.2264 1174.496,-136.5706 1157,-123 1124.4095,-97.7216 1121.8648,-80.808 1083,-67 867.1873,9.6748 274.9487,-87.5056 53,-31 51.0757,-30.5101 49.1324,-29.8889 47.207,-29.1785"/>
<polygon fill="#191970" stroke="#191970" points="48.4616,-25.9067 37.8993,-25.0767 45.6387,-32.3122 48.4616,-25.9067"/>
</g>
<!-- Node19 -->
<g id="node20" class="node">
<title>Node19</title>
<g id="a_node20"><a xlink:href="../../d6/dc9/DataProcessingHeader_8h.html" target="_top" xlink:title="Framework/DataProcessing\lHeader.h">
<polygon fill="none" stroke="#000000" points="2090.5,-123.5 2090.5,-153.5 2239.5,-153.5 2239.5,-123.5 2090.5,-123.5"/>
<text text-anchor="start" x="2098.5" y="-141.5" font-family="Helvetica,sans-Serif" font-size="10.00" fill="#000000">Framework/DataProcessing</text>
<text text-anchor="middle" x="2165" y="-130.5" font-family="Helvetica,sans-Serif" font-size="10.00" fill="#000000">Header.h</text>
</a>
</g>
</g>
<!-- Node18&#45;&gt;Node19 -->
<g id="edge22" class="edge">
<title>Node18&#45;&gt;Node19</title>
<path fill="none" stroke="#191970" d="M1477.8065,-195.5689C1493.6882,-193.587 1510.391,-191.6197 1526,-190 1724.1234,-169.4414 1957.5344,-152.4578 2080.064,-144.0984"/>
<polygon fill="#191970" stroke="#191970" points="2080.3922,-147.5842 2090.1317,-143.4139 2079.9173,-140.6004 2080.3922,-147.5842"/>
</g>
<!-- Node21 -->
<g id="node22" class="node">
<title>Node21</title>
<g id="a_node22"><a xlink:href="../../d4/d00/Headers_2include_2Headers_2Stack_8h.html" target="_top" xlink:title="Headers/Stack.h">
<polygon fill="none" stroke="#000000" points="1205,-129 1205,-148 1301,-148 1301,-129 1205,-129"/>
<text text-anchor="middle" x="1253" y="-136" font-family="Helvetica,sans-Serif" font-size="10.00" fill="#000000">Headers/Stack.h</text>
</a>
</g>
</g>
<!-- Node18&#45;&gt;Node21 -->
<g id="edge29" class="edge">
<title>Node18&#45;&gt;Node21</title>
<path fill="none" stroke="#191970" d="M1370.1127,-190.4639C1344.3203,-179.0196 1309.1055,-163.3945 1284.0429,-152.274"/>
<polygon fill="#191970" stroke="#191970" points="1285.2048,-148.9605 1274.6447,-148.1039 1282.3657,-155.359 1285.2048,-148.9605"/>
</g>
<!-- Node18&#45;&gt;Node29 -->
<g id="edge52" class="edge">
<title>Node18&#45;&gt;Node29</title>
<path fill="none" stroke="#191970" d="M1477.6806,-190.6813C1530.5022,-179.339 1593.7416,-163.9936 1602,-154 1629.9015,-120.2359 1622.7169,-64.5902 1616.2053,-35.1615"/>
<polygon fill="#191970" stroke="#191970" points="1619.5657,-34.1663 1613.8172,-25.2666 1612.7611,-35.8087 1619.5657,-34.1663"/>
</g>
<!-- Node35 -->
<g id="node36" class="node">
<title>Node35</title>
<polygon fill="none" stroke="#bfbfbf" points="1319,-129 1319,-148 1361,-148 1361,-129 1319,-129"/>
<text text-anchor="middle" x="1340" y="-136" font-family="Helvetica,sans-Serif" font-size="10.00" fill="#000000">array</text>
</g>
<!-- Node18&#45;&gt;Node35 -->
<g id="edge47" class="edge">
<title>Node18&#45;&gt;Node35</title>
<path fill="none" stroke="#191970" d="M1389.4774,-190.2967C1379.6027,-179.9591 1366.5251,-166.2684 1356.2949,-155.5588"/>
<polygon fill="#191970" stroke="#191970" points="1358.5654,-152.8685 1349.1271,-148.055 1353.5036,-157.7037 1358.5654,-152.8685"/>
</g>
<!-- Node36 -->
<g id="node37" class="node">
<title>Node36</title>
<polygon fill="none" stroke="#bfbfbf" points="1379.5,-129 1379.5,-148 1428.5,-148 1428.5,-129 1379.5,-129"/>
<text text-anchor="middle" x="1404" y="-136" font-family="Helvetica,sans-Serif" font-size="10.00" fill="#000000">iosfwd</text>
</g>
<!-- Node18&#45;&gt;Node36 -->
<g id="edge49" class="edge">
<title>Node18&#45;&gt;Node36</title>
<path fill="none" stroke="#191970" d="M1404,-190.2967C1404,-180.7699 1404,-168.3954 1404,-158.1306"/>
<polygon fill="#191970" stroke="#191970" points="1407.5001,-158.0549 1404,-148.055 1400.5001,-158.055 1407.5001,-158.0549"/>
</g>
<!-- Node18&#45;&gt;Node37 -->
<g id="edge51" class="edge">
<title>Node18&#45;&gt;Node37</title>
<path fill="none" stroke="#191970" d="M1330.3696,-191.1033C1271.4621,-179.3362 1193.7991,-163.1944 1163,-154 1160.5647,-153.273 1158.0679,-152.4644 1155.5693,-151.6089"/>
<polygon fill="#191970" stroke="#191970" points="1156.6434,-148.2753 1146.0493,-148.1499 1154.2529,-154.8545 1156.6434,-148.2753"/>
</g>
<!-- Node38 -->
<g id="node39" class="node">
<title>Node38</title>
<polygon fill="none" stroke="#bfbfbf" points="1447,-129 1447,-148 1593,-148 1593,-129 1447,-129"/>
<text text-anchor="middle" x="1520" y="-136" font-family="Helvetica,sans-Serif" font-size="10.00" fill="#000000">DataDescriptorMatcher.inc</text>
</g>
<!-- Node18&#45;&gt;Node38 -->
<g id="edge53" class="edge">
<title>Node18&#45;&gt;Node38</title>
<path fill="none" stroke="#191970" d="M1430.0327,-190.4639C1449.3206,-179.3234 1475.4678,-164.2212 1494.6028,-153.1691"/>
<polygon fill="#191970" stroke="#191970" points="1496.4635,-156.1363 1503.3723,-148.1039 1492.9624,-150.0747 1496.4635,-156.1363"/>
</g>
<!-- Node19&#45;&gt;Node4 -->
<g id="edge24" class="edge">
<title>Node19&#45;&gt;Node4</title>
<path fill="none" stroke="#191970" d="M2188.7869,-123.4643C2204.9486,-113.2269 2226.7961,-99.3457 2246,-87 2276.1423,-67.6222 2310.7804,-45.0582 2333.0047,-30.5426"/>
<polygon fill="#191970" stroke="#191970" points="2334.9832,-33.4308 2341.4396,-25.0305 2331.1539,-27.5711 2334.9832,-33.4308"/>
</g>
<!-- Node19&#45;&gt;Node8 -->
<g id="edge23" class="edge">
<title>Node19&#45;&gt;Node8</title>
<path fill="none" stroke="#191970" d="M2113.8728,-123.4554C2078.3889,-113.0139 2031.6818,-99.27 1998.2944,-89.4455"/>
<polygon fill="#191970" stroke="#191970" points="1998.9689,-85.9956 1988.3876,-86.5303 1996.9928,-92.7109 1998.9689,-85.9956"/>
</g>
<!-- Node19&#45;&gt;Node9 -->
<g id="edge26" class="edge">
<title>Node19&#45;&gt;Node9</title>
<path fill="none" stroke="#191970" d="M2159.6749,-123.3101C2155.3437,-108.3524 2151.1209,-85.1717 2159,-67 2165.3649,-52.3206 2178.2029,-39.9121 2189.8756,-30.9554"/>
<polygon fill="#191970" stroke="#191970" points="2191.9912,-33.7451 2198.06,-25.0606 2187.9001,-28.065 2191.9912,-33.7451"/>
</g>
<!-- Node19&#45;&gt;Node10 -->
<g id="edge27" class="edge">
<title>Node19&#45;&gt;Node10</title>
<path fill="none" stroke="#191970" d="M2182.9909,-123.4583C2194.6948,-113.449 2210.1197,-99.8289 2223,-87 2240.7608,-69.31 2259.7534,-47.714 2272.3938,-32.9151"/>
<polygon fill="#191970" stroke="#191970" points="2275.249,-34.9595 2279.0449,-25.068 2269.9091,-30.4334 2275.249,-34.9595"/>
</g>
<!-- Node20 -->
<g id="node21" class="node">
<title>Node20</title>
<polygon fill="none" stroke="#bfbfbf" points="2168,-67.5 2168,-86.5 2214,-86.5 2214,-67.5 2168,-67.5"/>
<text text-anchor="middle" x="2191" y="-74.5" font-family="Helvetica,sans-Serif" font-size="10.00" fill="#000000">cstdio</text>
</g>
<!-- Node19&#45;&gt;Node20 -->
<g id="edge25" class="edge">
<title>Node19&#45;&gt;Node20</title>
<path fill="none" stroke="#191970" d="M2171.427,-123.2977C2174.8857,-115.1166 2179.1867,-104.943 2182.8754,-96.2179"/>
<polygon fill="#191970" stroke="#191970" points="2186.1668,-97.4205 2186.8371,-86.8469 2179.7193,-94.6947 2186.1668,-97.4205"/>
</g>
<!-- Node21&#45;&gt;Node8 -->
<g id="edge46" class="edge">
<title>Node21&#45;&gt;Node8</title>
<path fill="none" stroke="#191970" d="M1283.8179,-128.9461C1292.2353,-126.6594 1301.4063,-124.4601 1310,-123 1418.1825,-104.6192 1736.9464,-87.5257 1882.279,-80.4421"/>
<polygon fill="#191970" stroke="#191970" points="1882.6192,-83.9298 1892.4379,-79.9495 1882.2801,-76.938 1882.6192,-83.9298"/>
</g>
<!-- Node22 -->
<g id="node23" class="node">
<title>Node22</title>
<g id="a_node23"><a xlink:href="../../dc/d03/MemoryResources_8h.html" target="_top" xlink:title="MemoryResources/MemoryResources.h">
<polygon fill="none" stroke="#000000" points="1135.5,-67.5 1135.5,-86.5 1342.5,-86.5 1342.5,-67.5 1135.5,-67.5"/>
<text text-anchor="middle" x="1239" y="-74.5" font-family="Helvetica,sans-Serif" font-size="10.00" fill="#000000">MemoryResources/MemoryResources.h</text>
</a>
</g>
</g>
<!-- Node21&#45;&gt;Node22 -->
<g id="edge30" class="edge">
<title>Node21&#45;&gt;Node22</title>
<path fill="none" stroke="#191970" d="M1250.8125,-128.8906C1248.8514,-120.276 1245.9137,-107.3708 1243.4585,-96.5858"/>
<polygon fill="#191970" stroke="#191970" points="1246.8507,-95.7185 1241.2183,-86.7449 1240.0254,-97.2723 1246.8507,-95.7185"/>
</g>
<!-- Node22&#45;&gt;Node11 -->
<g id="edge35" class="edge">
<title>Node22&#45;&gt;Node11</title>
<path fill="none" stroke="#191970" d="M1342.7155,-68.9446C1443.5238,-60.4438 1589.1899,-46.1937 1644,-31 1645.9692,-30.4541 1647.9686,-29.8079 1649.9609,-29.0943"/>
<polygon fill="#191970" stroke="#191970" points="1651.7587,-32.1406 1659.6911,-25.1174 1649.1102,-25.661 1651.7587,-32.1406"/>
</g>
<!-- Node22&#45;&gt;Node14 -->
<g id="edge36" class="edge">
<title>Node22&#45;&gt;Node14</title>
<path fill="none" stroke="#191970" d="M1135.4173,-67.922C1130.5451,-67.5893 1125.7204,-67.2794 1121,-67 883.9467,-52.9692 283.1637,-89.4448 53,-31 51.0754,-30.5113 49.1319,-29.891 47.2063,-29.1812"/>
<polygon fill="#191970" stroke="#191970" points="48.4607,-25.9093 37.8983,-25.0808 45.6386,-32.3153 48.4607,-25.9093"/>
</g>
<!-- Node22&#45;&gt;Node16 -->
<g id="edge45" class="edge">
<title>Node22&#45;&gt;Node16</title>
<path fill="none" stroke="#191970" d="M1342.6628,-69.6139C1438.7077,-62.1324 1585.4016,-49.0837 1712,-31 1720.3501,-29.8072 1729.1432,-28.3554 1737.746,-26.8239"/>
<polygon fill="#191970" stroke="#191970" points="1738.5121,-30.2419 1747.7195,-25.0003 1737.253,-23.3561 1738.5121,-30.2419"/>
</g>
<!-- Node23 -->
<g id="node24" class="node">
<title>Node23</title>
<polygon fill="none" stroke="#bfbfbf" points="418.5,-.5 418.5,-30.5 529.5,-30.5 529.5,-.5 418.5,-.5"/>
<text text-anchor="start" x="426.5" y="-18.5" font-family="Helvetica,sans-Serif" font-size="10.00" fill="#000000">boost/container/flat</text>
<text text-anchor="middle" x="474" y="-7.5" font-family="Helvetica,sans-Serif" font-size="10.00" fill="#000000">_map.hpp</text>
</g>
<!-- Node22&#45;&gt;Node23 -->
<g id="edge31" class="edge">
<title>Node22&#45;&gt;Node23</title>
<path fill="none" stroke="#191970" d="M1135.4064,-68.086C1130.5372,-67.7094 1125.7161,-67.3454 1121,-67 865.3758,-48.2786 796.4453,-69.1593 539.7302,-31.1064"/>
<polygon fill="#191970" stroke="#191970" points="540.1414,-27.629 529.7333,-29.609 539.1045,-34.5518 540.1414,-27.629"/>
</g>
<!-- Node24 -->
<g id="node25" class="node">
<title>Node24</title>
<polygon fill="none" stroke="#bfbfbf" points="547.5,-.5 547.5,-30.5 676.5,-30.5 676.5,-.5 547.5,-.5"/>
<text text-anchor="start" x="555.5" y="-18.5" font-family="Helvetica,sans-Serif" font-size="10.00" fill="#000000">boost/container/pmr</text>
<text text-anchor="middle" x="612" y="-7.5" font-family="Helvetica,sans-Serif" font-size="10.00" fill="#000000">/memory_resource.hpp</text>
</g>
<!-- Node22&#45;&gt;Node24 -->
<g id="edge32" class="edge">
<title>Node22&#45;&gt;Node24</title>
<path fill="none" stroke="#191970" d="M1135.3969,-68.2073C1130.5302,-67.7983 1125.7122,-67.3942 1121,-67 930.551,-51.0676 879.1206,-58.967 686.9544,-31.1866"/>
<polygon fill="#191970" stroke="#191970" points="687.2024,-27.6858 676.8017,-29.7049 686.1914,-34.6124 687.2024,-27.6858"/>
</g>
<!-- Node25 -->
<g id="node26" class="node">
<title>Node25</title>
<polygon fill="none" stroke="#bfbfbf" points="694.5,-.5 694.5,-30.5 867.5,-30.5 867.5,-.5 694.5,-.5"/>
<text text-anchor="start" x="702.5" y="-18.5" font-family="Helvetica,sans-Serif" font-size="10.00" fill="#000000">boost/container/pmr</text>
<text text-anchor="middle" x="781" y="-7.5" font-family="Helvetica,sans-Serif" font-size="10.00" fill="#000000">/monotonic_buffer_resource.hpp</text>
</g>
<!-- Node22&#45;&gt;Node25 -->
<g id="edge33" class="edge">
<title>Node22&#45;&gt;Node25</title>
<path fill="none" stroke="#191970" d="M1157.0716,-67.464C1085.7985,-58.9734 979.4663,-45.8396 877.8372,-31.2402"/>
<polygon fill="#191970" stroke="#191970" points="878.0992,-27.7418 867.7017,-29.7769 877.0989,-34.67 878.0992,-27.7418"/>
</g>
<!-- Node26 -->
<g id="node27" class="node">
<title>Node26</title>
<polygon fill="none" stroke="#bfbfbf" points="885.5,-.5 885.5,-30.5 1034.5,-30.5 1034.5,-.5 885.5,-.5"/>
<text text-anchor="start" x="893.5" y="-18.5" font-family="Helvetica,sans-Serif" font-size="10.00" fill="#000000">boost/container/pmr</text>
<text text-anchor="middle" x="960" y="-7.5" font-family="Helvetica,sans-Serif" font-size="10.00" fill="#000000">/polymorphic_allocator.hpp</text>
</g>
<!-- Node22&#45;&gt;Node26 -->
<g id="edge34" class="edge">
<title>Node22&#45;&gt;Node26</title>
<path fill="none" stroke="#191970" d="M1195.7124,-67.4581C1153.7409,-58.2063 1089.1138,-43.9606 1038.1386,-32.7241"/>
<polygon fill="#191970" stroke="#191970" points="1038.6554,-29.2541 1028.1364,-30.5193 1037.1485,-36.09 1038.6554,-29.2541"/>
</g>
<!-- Node27 -->
<g id="node28" class="node">
<title>Node27</title>
<polygon fill="none" stroke="#bfbfbf" points="1052.5,-6 1052.5,-25 1121.5,-25 1121.5,-6 1052.5,-6"/>
<text text-anchor="middle" x="1087" y="-13" font-family="Helvetica,sans-Serif" font-size="10.00" fill="#000000">type_traits</text>
</g>
<!-- Node22&#45;&gt;Node27 -->
<g id="edge37" class="edge">
<title>Node22&#45;&gt;Node27</title>
<path fill="none" stroke="#191970" d="M1215.25,-67.3906C1189.7061,-57.0554 1148.8991,-40.5447 1120.189,-28.9284"/>
<polygon fill="#191970" stroke="#191970" points="1121.166,-25.5481 1110.5832,-25.0419 1118.5404,-32.0371 1121.166,-25.5481"/>
</g>
<!-- Node28 -->
<g id="node29" class="node">
<title>Node28</title>
<polygon fill="none" stroke="#bfbfbf" points="1139.5,-6 1139.5,-25 1184.5,-25 1184.5,-6 1139.5,-6"/>
<text text-anchor="middle" x="1162" y="-13" font-family="Helvetica,sans-Serif" font-size="10.00" fill="#000000">utility</text>
</g>
<!-- Node22&#45;&gt;Node28 -->
<g id="edge38" class="edge">
<title>Node22&#45;&gt;Node28</title>
<path fill="none" stroke="#191970" d="M1226.9688,-67.3906C1214.9893,-57.8227 1196.3834,-42.9621 1182.1475,-31.5919"/>
<polygon fill="#191970" stroke="#191970" points="1183.9447,-28.5479 1173.9468,-25.0419 1179.5761,-34.0175 1183.9447,-28.5479"/>
</g>
<!-- Node22&#45;&gt;Node29 -->
<g id="edge39" class="edge">
<title>Node22&#45;&gt;Node29</title>
<path fill="none" stroke="#191970" d="M1334.5563,-67.4779C1418.7381,-58.4667 1534.6585,-44.3661 1579,-31 1580.8617,-30.4388 1582.7498,-29.781 1584.6296,-29.059"/>
<polygon fill="#191970" stroke="#191970" points="1586.0301,-32.2666 1593.7983,-25.062 1583.2328,-25.8498 1586.0301,-32.2666"/>
</g>
<!-- Node30 -->
<g id="node31" class="node">
<title>Node30</title>
<polygon fill="none" stroke="#bfbfbf" points="1202.5,-6 1202.5,-25 1295.5,-25 1295.5,-6 1202.5,-6"/>
<text text-anchor="middle" x="1249" y="-13" font-family="Helvetica,sans-Serif" font-size="10.00" fill="#000000">unordered_map</text>
</g>
<!-- Node22&#45;&gt;Node30 -->
<g id="edge40" class="edge">
<title>Node22&#45;&gt;Node30</title>
<path fill="none" stroke="#191970" d="M1240.5625,-67.3906C1241.9487,-58.8657 1244.018,-46.1392 1245.7604,-35.4235"/>
<polygon fill="#191970" stroke="#191970" points="1249.2651,-35.677 1247.4155,-25.2449 1242.3558,-34.5535 1249.2651,-35.677"/>
</g>
<!-- Node31 -->
<g id="node32" class="node">
<title>Node31</title>
<polygon fill="none" stroke="#bfbfbf" points="1313.5,-6 1313.5,-25 1414.5,-25 1414.5,-6 1313.5,-6"/>
<text text-anchor="middle" x="1364" y="-13" font-family="Helvetica,sans-Serif" font-size="10.00" fill="#000000">FairMQMessage.h</text>
</g>
<!-- Node22&#45;&gt;Node31 -->
<g id="edge41" class="edge">
<title>Node22&#45;&gt;Node31</title>
<path fill="none" stroke="#191970" d="M1258.5313,-67.3906C1279.1708,-57.2359 1311.9276,-41.1196 1335.4602,-29.5416"/>
<polygon fill="#191970" stroke="#191970" points="1337.1782,-32.5971 1344.6059,-25.0419 1334.088,-26.3161 1337.1782,-32.5971"/>
</g>
<!-- Node32 -->
<g id="node33" class="node">
<title>Node32</title>
<polygon fill="none" stroke="#bfbfbf" points="1432.5,-6 1432.5,-25 1569.5,-25 1569.5,-6 1432.5,-6"/>
<text text-anchor="middle" x="1501" y="-13" font-family="Helvetica,sans-Serif" font-size="10.00" fill="#000000">FairMQTransportFactory.h</text>
</g>
<!-- Node22&#45;&gt;Node32 -->
<g id="edge42" class="edge">
<title>Node22&#45;&gt;Node32</title>
<path fill="none" stroke="#191970" d="M1279.65,-67.4581C1325.6382,-56.6632 1400.5905,-39.0694 1450.3473,-27.3899"/>
<polygon fill="#191970" stroke="#191970" points="1451.3191,-30.757 1460.2546,-25.0643 1449.7194,-23.9422 1451.3191,-30.757"/>
</g>
<!-- Node33 -->
<g id="node34" class="node">
<title>Node33</title>
<polygon fill="none" stroke="#bfbfbf" points="62,-6 62,-25 212,-25 212,-6 62,-6"/>
<text text-anchor="middle" x="137" y="-13" font-family="Helvetica,sans-Serif" font-size="10.00" fill="#000000">fairmq/MemoryResources.h</text>
</g>
<!-- Node22&#45;&gt;Node33 -->
<g id="edge43" class="edge">
<title>Node22&#45;&gt;Node33</title>
<path fill="none" stroke="#191970" d="M1135.4151,-67.9588C1130.5435,-67.6163 1125.7195,-67.2942 1121,-67 721.4558,-42.0917 618.8462,-75.4338 221,-31 211.5931,-29.9494 201.6551,-28.4591 192.0358,-26.8137"/>
<polygon fill="#191970" stroke="#191970" points="192.6212,-23.363 182.1623,-25.0548 191.3934,-30.2545 192.6212,-23.363"/>
</g>
<!-- Node34 -->
<g id="node35" class="node">
<title>Node34</title>
<polygon fill="none" stroke="#bfbfbf" points="230,-6 230,-25 400,-25 400,-6 230,-6"/>
<text text-anchor="middle" x="315" y="-13" font-family="Helvetica,sans-Serif" font-size="10.00" fill="#000000">fairmq/MemoryResourceTools.h</text>
</g>
<!-- Node22&#45;&gt;Node34 -->
<g id="edge44" class="edge">
<title>Node22&#45;&gt;Node34</title>
<path fill="none" stroke="#191970" d="M1135.411,-68.0206C1130.5406,-67.6616 1125.7179,-67.3191 1121,-67 804.8735,-45.6191 724.0376,-64.829 409,-31 398.5316,-29.8759 387.4572,-28.3524 376.7254,-26.6978"/>
<polygon fill="#191970" stroke="#191970" points="376.9984,-23.1972 366.5722,-25.0799 375.8968,-30.11 376.9984,-23.1972"/>
</g>
</g>
</svg>
        <g id="navigator" transform="translate(0 0)" fill="#404254">
                <rect fill="#f2f5e9" fill-opacity="0.5" stroke="#606060" stroke-width=".5" x="0" y="0" width="60" height="60"/>
                <use id="zoomplus" xlink:href="#zoomPlus" x="17" y="9" onmousedown="handleZoom(evt,'in')"/>
                <use id="zoomminus" xlink:href="#zoomMin" x="42" y="9" onmousedown="handleZoom(evt,'out')"/>
                <use id="reset" xlink:href="#resetDef" x="30" y="36" onmousedown="handleReset()"/>
                <g id="arrowUp" xlink:href="#dirArrow" transform="translate(30 24)" onmousedown="handlePan(0,-1)">
                  <use xlink:href="#rim" fill="#404040">
                        <set attributeName="fill" to="#808080" begin="arrowUp.mouseover" end="arrowUp.mouseout"/>
                  </use>
                  <path fill="none" stroke="white" stroke-width="1.5" d="M0,-3.0v7 M-2.5,-0.5L0,-3.0L2.5,-0.5"/>
                </g>
                <g id="arrowRight" xlink:href="#dirArrow" transform="rotate(90) translate(36 -43)" onmousedown="handlePan(1,0)">
                  <use xlink:href="#rim" fill="#404040">
                        <set attributeName="fill" to="#808080" begin="arrowRight.mouseover" end="arrowRight.mouseout"/>
                  </use>
                  <path fill="none" stroke="white" stroke-width="1.5" d="M0,-3.0v7 M-2.5,-0.5L0,-3.0L2.5,-0.5"/>
                </g>
                <g id="arrowDown" xlink:href="#dirArrow" transform="rotate(180) translate(-30 -48)" onmousedown="handlePan(0,1)">
                  <use xlink:href="#rim" fill="#404040">
                        <set attributeName="fill" to="#808080" begin="arrowDown.mouseover" end="arrowDown.mouseout"/>
                  </use>
                  <path fill="none" stroke="white" stroke-width="1.5" d="M0,-3.0v7 M-2.5,-0.5L0,-3.0L2.5,-0.5"/>
                </g>
                <g id="arrowLeft" xlink:href="#dirArrow" transform="rotate(270) translate(-36 17)" onmousedown="handlePan(-1,0)">
                  <use xlink:href="#rim" fill="#404040">
                        <set attributeName="fill" to="#808080" begin="arrowLeft.mouseover" end="arrowLeft.mouseout"/>
                  </use>
                  <path fill="none" stroke="white" stroke-width="1.5" d="M0,-3.0v7 M-2.5,-0.5L0,-3.0L2.5,-0.5"/>
                </g>
        </g>
        <svg viewBox="0 0 15 15" width="100%" height="30px" preserveAspectRatio="xMaxYMin meet">
         <g id="arrow_out" transform="scale(0.3 0.3)">
          <a xlink:href="DataRelayerHelpers_8h__incl_org.svg" target="_base">
           <rect id="button" ry="5" rx="5" y="6" x="6" height="38" width="38"
                fill="#f2f5e9" fill-opacity="0.5" stroke="#606060" stroke-width="1.0"/>
           <path id="arrow"
             d="M 11.500037,31.436501 C 11.940474,20.09759 22.043105,11.32322 32.158766,21.979434 L 37.068811,17.246167 C 37.068811,17.246167 37.088388,32 37.088388,32 L 22.160133,31.978069 C 22.160133,31.978069 26.997745,27.140456 26.997745,27.140456 C 18.528582,18.264221 13.291696,25.230495 11.500037,31.436501 z"
             style="fill:#404040;"/>
          </a>
         </g>
        </svg>
</svg>
