<?xml version="1.0" encoding="UTF-8" standalone="no"?>
<!DOCTYPE svg PUBLIC "-//W3C//DTD SVG 1.1//EN"
 "http://www.w3.org/Graphics/SVG/1.1/DTD/svg11.dtd">
<!-- Generated by graphviz version 2.40.1 (20161225.0304)
 -->
<!-- Title: GPUCA_NAMESPACE::gpu::GPUTRDTracker::Hypothesis Pages: 1 -->
<svg width="204pt" height="259pt"
 viewBox="0.00 0.00 204.00 259.00" xmlns="http://www.w3.org/2000/svg" xmlns:xlink="http://www.w3.org/1999/xlink">
<g id="graph0" class="graph" transform="scale(1 1) rotate(0) translate(4 255)">
<title>GPUCA_NAMESPACE::gpu::GPUTRDTracker::Hypothesis</title>
<!-- Node1 -->
<g id="node1" class="node">
<title>Node1</title>
<polygon fill="#bfbfbf" stroke="#000000" points="0,-.5 0,-90.5 160,-90.5 160,-.5 0,-.5"/>
<text text-anchor="start" x="8" y="-78.5" font-family="Helvetica,sans-Serif" font-size="10.00" fill="#000000">GPUCA_NAMESPACE::gpu</text>
<text text-anchor="middle" x="80" y="-67.5" font-family="Helvetica,sans-Serif" font-size="10.00" fill="#000000">::GPUTRDTracker::Hypothesis</text>
<polyline fill="none" stroke="#000000" points="0,-60.5 160,-60.5 "/>
<text text-anchor="middle" x="80" y="-48.5" font-family="Helvetica,sans-Serif" font-size="10.00" fill="#000000"> </text>
<polyline fill="none" stroke="#000000" points="0,-41.5 160,-41.5 "/>
<text text-anchor="start" x="8" y="-29.5" font-family="Helvetica,sans-Serif" font-size="10.00" fill="#000000">+ GPUd()</text>
<text text-anchor="start" x="8" y="-18.5" font-family="Helvetica,sans-Serif" font-size="10.00" fill="#000000">+ GPUd()</text>
<text text-anchor="start" x="8" y="-7.5" font-family="Helvetica,sans-Serif" font-size="10.00" fill="#000000">+ GPUd()</text>
</g>
<!-- Node2 -->
<g id="node2" class="node">
<title>Node2</title>
<g id="a_node2"><a xlink:href="../../d4/dc3/classfloat.html" target="_top" xlink:title="{float\n||}">
<polygon fill="none" stroke="#000000" points="14,-193.5 14,-250.5 52,-250.5 52,-193.5 14,-193.5"/>
<text text-anchor="middle" x="33" y="-238.5" font-family="Helvetica,sans-Serif" font-size="10.00" fill="#000000">float</text>
<polyline fill="none" stroke="#000000" points="14,-231.5 52,-231.5 "/>
<text text-anchor="middle" x="33" y="-219.5" font-family="Helvetica,sans-Serif" font-size="10.00" fill="#000000"> </text>
<polyline fill="none" stroke="#000000" points="14,-212.5 52,-212.5 "/>
<text text-anchor="middle" x="33" y="-200.5" font-family="Helvetica,sans-Serif" font-size="10.00" fill="#000000"> </text>
</a>
</g>
</g>
<!-- Node2&#45;&gt;Node1 -->
<g id="edge1" class="edge">
<title>Node2&#45;&gt;Node1</title>
<path fill="none" stroke="#404040" d="M28.5381,-193.361C26.0084,-170.0394 24.9246,-136.5811 34,-109 34.7978,-106.5754 35.7255,-104.1654 36.7597,-101.7808"/>
<polygon fill="none" stroke="#404040" points="36.8736,-101.5556 36.0124,-94.3961 42.2899,-90.8474 43.1511,-98.0069 36.8736,-101.5556"/>
<text text-anchor="middle" x="69.5" y="-145" font-family="Helvetica,sans-Serif" font-size="10.00" fill="#000000"> +mChi2YZPhi</text>
<text text-anchor="middle" x="69.5" y="-134" font-family="Helvetica,sans-Serif" font-size="10.00" fill="#000000">+mChi2</text>
</g>
<!-- Node3 -->
<g id="node3" class="node">
<title>Node3</title>
<polygon fill="none" stroke="#bfbfbf" points="112.5,-193.5 112.5,-250.5 141.5,-250.5 141.5,-193.5 112.5,-193.5"/>
<text text-anchor="middle" x="127" y="-238.5" font-family="Helvetica,sans-Serif" font-size="10.00" fill="#000000">int</text>
<polyline fill="none" stroke="#bfbfbf" points="112.5,-231.5 141.5,-231.5 "/>
<text text-anchor="middle" x="127" y="-219.5" font-family="Helvetica,sans-Serif" font-size="10.00" fill="#000000"> </text>
<polyline fill="none" stroke="#bfbfbf" points="112.5,-212.5 141.5,-212.5 "/>
<text text-anchor="middle" x="127" y="-200.5" font-family="Helvetica,sans-Serif" font-size="10.00" fill="#000000"> </text>
</g>
<!-- Node3&#45;&gt;Node1 -->
<g id="edge2" class="edge">
<title>Node3&#45;&gt;Node1</title>
<path fill="none" stroke="#404040" d="M122.9035,-193.3279C119.2564,-170.2782 113.223,-137.2058 105,-109 104.3409,-106.7393 103.6335,-104.447 102.8892,-102.1414"/>
<polygon fill="none" stroke="#404040" points="102.8188,-101.9366 97.084,-97.5649 98.9137,-90.5897 104.6485,-94.9614 102.8188,-101.9366"/>
<text text-anchor="middle" x="157.5" y="-167" font-family="Helvetica,sans-Serif" font-size="10.00" fill="#000000"> +mLayers</text>
<text text-anchor="middle" x="157.5" y="-156" font-family="Helvetica,sans-Serif" font-size="10.00" fill="#000000">+chi2</text>
<text text-anchor="middle" x="157.5" y="-145" font-family="Helvetica,sans-Serif" font-size="10.00" fill="#000000">+candidateId</text>
<text text-anchor="middle" x="157.5" y="-134" font-family="Helvetica,sans-Serif" font-size="10.00" fill="#000000">+mCandidateId</text>
<text text-anchor="middle" x="157.5" y="-123" font-family="Helvetica,sans-Serif" font-size="10.00" fill="#000000">+trackletId</text>
<text text-anchor="middle" x="157.5" y="-112" font-family="Helvetica,sans-Serif" font-size="10.00" fill="#000000">+mTrackletId</text>
</g>
</g>
</svg>
