<?xml version="1.0" encoding="UTF-8" standalone="no"?>
<!DOCTYPE svg PUBLIC "-//W3C//DTD SVG 1.1//EN"
 "http://www.w3.org/Graphics/SVG/1.1/DTD/svg11.dtd">
<!-- Generated by graphviz version 2.40.1 (20161225.0304)
 -->
<!-- Title: /home/travis/build/AliceO2Group/AliceO2/Detectors/ZDC/simulation/include/ZDCSimulation/Digitizer.h Pages: 1 -->
<!--zoomable 374 -->
<svg id="main" version="1.1" xmlns="http://www.w3.org/2000/svg" xmlns:xlink="http://www.w3.org/1999/xlink" xml:space="preserve" onload="init(evt)">
<style type="text/css"><![CDATA[
.edge:hover path { stroke: red; }
.edge:hover polygon { stroke: red; fill: red; }
]]></style>
<script type="text/javascript"><![CDATA[
var edges = document.getElementsByTagName('g');
if (edges && edges.length) {
  for (var i=0;i<edges.length;i++) {
    if (edges[i].id.substr(0,4)=='edge') {
      edges[i].setAttribute('class','edge');
    }
  }
}
]]></script>
        <defs>
                <circle id="rim" cx="0" cy="0" r="7"/>
                <circle id="rim2" cx="0" cy="0" r="3.5"/>
                <g id="zoomPlus">
                        <use xlink:href="#rim" fill="#404040">
                                <set attributeName="fill" to="#808080" begin="zoomplus.mouseover" end="zoomplus.mouseout"/>
                        </use>
                        <path d="M-4,0h8M0,-4v8" fill="none" stroke="white" stroke-width="1.5" pointer-events="none"/>
                </g>
                <g id="zoomMin">
                        <use xlink:href="#rim" fill="#404040">
                                <set attributeName="fill" to="#808080" begin="zoomminus.mouseover" end="zoomminus.mouseout"/>
                        </use>
                        <path d="M-4,0h8" fill="none" stroke="white" stroke-width="1.5" pointer-events="none"/>
                </g>
                <g id="dirArrow">
                        <path fill="none" stroke="white" stroke-width="1.5" d="M0,-3.0v7 M-2.5,-0.5L0,-3.0L2.5,-0.5"/>
                </g>
               <g id="resetDef">
                       <use xlink:href="#rim2" fill="#404040">
                               <set attributeName="fill" to="#808080" begin="reset.mouseover" end="reset.mouseout"/>
                       </use>
               </g>
        </defs>

<script type="text/javascript">
var viewWidth = 3069;
var viewHeight = 374;
var sectionId = 'dynsection-0';
</script>
<script xlink:href="../../svgpan.js"/>
<svg id="graph" class="graph">
<g id="viewport">
<title>/home/travis/build/AliceO2Group/AliceO2/Detectors/ZDC/simulation/include/ZDCSimulation/Digitizer.h</title>
<!-- Node0 -->
<g id="node1" class="node">
<title>Node0</title>
<polygon fill="#bfbfbf" stroke="#000000" points="2276,-313.5 2276,-365.5 2460,-365.5 2460,-313.5 2276,-313.5"/>
<text text-anchor="start" x="2284" y="-353.5" font-family="Helvetica,sans-Serif" font-size="10.00" fill="#000000">/home/travis/build</text>
<text text-anchor="start" x="2284" y="-342.5" font-family="Helvetica,sans-Serif" font-size="10.00" fill="#000000">/AliceO2Group/AliceO2</text>
<text text-anchor="start" x="2284" y="-331.5" font-family="Helvetica,sans-Serif" font-size="10.00" fill="#000000">/Detectors/ZDC/simulation</text>
<text text-anchor="middle" x="2368" y="-320.5" font-family="Helvetica,sans-Serif" font-size="10.00" fill="#000000">/include/ZDCSimulation/Digitizer.h</text>
</g>
<!-- Node1 -->
<g id="node2" class="node">
<title>Node1</title>
<g id="a_node2"><a xlink:href="../../dd/de7/Detectors_2ZDC_2simulation_2include_2ZDCSimulation_2Hit_8h.html" target="_top" xlink:title="ZDCSimulation/Hit.h">
<polygon fill="none" stroke="#000000" points="1197,-257.5 1197,-276.5 1313,-276.5 1313,-257.5 1197,-257.5"/>
<text text-anchor="middle" x="1255" y="-264.5" font-family="Helvetica,sans-Serif" font-size="10.00" fill="#000000">ZDCSimulation/Hit.h</text>
</a>
</g>
</g>
<!-- Node0&#45;&gt;Node1 -->
<g id="edge1" class="edge">
<title>Node0&#45;&gt;Node1</title>
<path fill="none" stroke="#191970" d="M2275.9716,-333.5053C2058.2378,-319.3223 1515.3853,-283.9613 1323.5101,-271.4627"/>
<polygon fill="#191970" stroke="#191970" points="1323.4863,-267.9538 1313.2799,-270.7963 1323.0312,-274.939 1323.4863,-267.9538"/>
</g>
<!-- Node22 -->
<g id="node23" class="node">
<title>Node22</title>
<g id="a_node23"><a xlink:href="../../d7/d7a/Detectors_2ZDC_2simulation_2include_2ZDCSimulation_2MCLabel_8h.html" target="_top" xlink:title="ZDCSimulation/MCLabel.h">
<polygon fill="none" stroke="#000000" points="1446.5,-257.5 1446.5,-276.5 1589.5,-276.5 1589.5,-257.5 1446.5,-257.5"/>
<text text-anchor="middle" x="1518" y="-264.5" font-family="Helvetica,sans-Serif" font-size="10.00" fill="#000000">ZDCSimulation/MCLabel.h</text>
</a>
</g>
</g>
<!-- Node0&#45;&gt;Node22 -->
<g id="edge22" class="edge">
<title>Node0&#45;&gt;Node22</title>
<path fill="none" stroke="#191970" d="M2275.8226,-331.6378C2108.866,-317.3974 1759.0012,-287.556 1599.8973,-273.9854"/>
<polygon fill="#191970" stroke="#191970" points="1599.9586,-270.478 1589.6973,-273.1154 1599.3636,-277.4526 1599.9586,-270.478"/>
</g>
<!-- Node25 -->
<g id="node26" class="node">
<title>Node25</title>
<g id="a_node26"><a xlink:href="../../d4/d8c/ModuleConfig_8h.html" target="_top" xlink:title="ZDCBase/ModuleConfig.h">
<polygon fill="none" stroke="#000000" points="2122,-257.5 2122,-276.5 2262,-276.5 2262,-257.5 2122,-257.5"/>
<text text-anchor="middle" x="2192" y="-264.5" font-family="Helvetica,sans-Serif" font-size="10.00" fill="#000000">ZDCBase/ModuleConfig.h</text>
</a>
</g>
</g>
<!-- Node0&#45;&gt;Node25 -->
<g id="edge26" class="edge">
<title>Node0&#45;&gt;Node25</title>
<path fill="none" stroke="#191970" d="M2304.46,-313.3258C2277.3565,-302.161 2246.8903,-289.6111 2224.5113,-280.3924"/>
<polygon fill="#191970" stroke="#191970" points="2225.724,-277.1067 2215.1446,-276.534 2223.0577,-283.5791 2225.724,-277.1067"/>
</g>
<!-- Node32 -->
<g id="node33" class="node">
<title>Node32</title>
<polygon fill="none" stroke="#bfbfbf" points="2347,-196 2347,-215 2389,-215 2389,-196 2347,-196"/>
<text text-anchor="middle" x="2368" y="-203" font-family="Helvetica,sans-Serif" font-size="10.00" fill="#000000">array</text>
</g>
<!-- Node0&#45;&gt;Node32 -->
<g id="edge63" class="edge">
<title>Node0&#45;&gt;Node32</title>
<path fill="none" stroke="#191970" d="M2432.9351,-313.4579C2458.3812,-299.1211 2478.6134,-279.6409 2465,-257 2450.7714,-233.3359 2421.5991,-219.9645 2398.944,-212.8135"/>
<polygon fill="#191970" stroke="#191970" points="2399.6496,-209.3741 2389.0705,-209.951 2397.7004,-216.0972 2399.6496,-209.3741"/>
</g>
<!-- Node33 -->
<g id="node34" class="node">
<title>Node33</title>
<g id="a_node34"><a xlink:href="../../d5/df4/ZDC_2include_2DataFormatsZDC_2ChannelData_8h.html" target="_top" xlink:title="DataFormatsZDC/ChannelData.h">
<polygon fill="none" stroke="#000000" points="2280,-257.5 2280,-276.5 2456,-276.5 2456,-257.5 2280,-257.5"/>
<text text-anchor="middle" x="2368" y="-264.5" font-family="Helvetica,sans-Serif" font-size="10.00" fill="#000000">DataFormatsZDC/ChannelData.h</text>
</a>
</g>
</g>
<!-- Node0&#45;&gt;Node33 -->
<g id="edge35" class="edge">
<title>Node0&#45;&gt;Node33</title>
<path fill="none" stroke="#191970" d="M2368,-313.3258C2368,-304.5142 2368,-294.8397 2368,-286.621"/>
<polygon fill="#191970" stroke="#191970" points="2371.5001,-286.534 2368,-276.534 2364.5001,-286.534 2371.5001,-286.534"/>
</g>
<!-- Node34 -->
<g id="node35" class="node">
<title>Node34</title>
<g id="a_node35"><a xlink:href="../../dd/d40/ZDC_2include_2DataFormatsZDC_2BCData_8h.html" target="_top" xlink:title="DataFormatsZDC/BCData.h">
<polygon fill="none" stroke="#000000" points="1779.5,-257.5 1779.5,-276.5 1928.5,-276.5 1928.5,-257.5 1779.5,-257.5"/>
<text text-anchor="middle" x="1854" y="-264.5" font-family="Helvetica,sans-Serif" font-size="10.00" fill="#000000">DataFormatsZDC/BCData.h</text>
</a>
</g>
</g>
<!-- Node0&#45;&gt;Node34 -->
<g id="edge39" class="edge">
<title>Node0&#45;&gt;Node34</title>
<path fill="none" stroke="#191970" d="M2275.8105,-326.4966C2177.6544,-312.6516 2024.0205,-290.9815 1931.7635,-277.9686"/>
<polygon fill="#191970" stroke="#191970" points="1932.0438,-274.4736 1921.653,-276.5425 1931.0661,-281.405 1932.0438,-274.4736"/>
</g>
<!-- Node35 -->
<g id="node36" class="node">
<title>Node35</title>
<g id="a_node36"><a xlink:href="../../d9/d80/InteractionRecord_8h.html" target="_top" xlink:title="CommonDataFormat/Interaction\lRecord.h">
<polygon fill="none" stroke="#000000" points="1824,-190.5 1824,-220.5 1998,-220.5 1998,-190.5 1824,-190.5"/>
<text text-anchor="start" x="1832" y="-208.5" font-family="Helvetica,sans-Serif" font-size="10.00" fill="#000000">CommonDataFormat/Interaction</text>
<text text-anchor="middle" x="1911" y="-197.5" font-family="Helvetica,sans-Serif" font-size="10.00" fill="#000000">Record.h</text>
</a>
</g>
</g>
<!-- Node0&#45;&gt;Node35 -->
<g id="edge61" class="edge">
<title>Node0&#45;&gt;Node35</title>
<path fill="none" stroke="#191970" d="M2275.9354,-319.2755C2227.189,-307.9794 2166.501,-292.9816 2113,-277 2059.7056,-261.0801 1999.7609,-239.3672 1959.1126,-224.0582"/>
<polygon fill="#191970" stroke="#191970" points="1960.3134,-220.7704 1949.7219,-220.5061 1957.8368,-227.3177 1960.3134,-220.7704"/>
</g>
<!-- Node40 -->
<g id="node41" class="node">
<title>Node40</title>
<g id="a_node41"><a xlink:href="../../db/d14/MCTruthContainer_8h.html" target="_top" xlink:title="Definition of a container to keep Monte Carlo truth external to simulation objects. ">
<polygon fill="none" stroke="#000000" points="2635.5,-190.5 2635.5,-220.5 2762.5,-220.5 2762.5,-190.5 2635.5,-190.5"/>
<text text-anchor="start" x="2643.5" y="-208.5" font-family="Helvetica,sans-Serif" font-size="10.00" fill="#000000">SimulationDataFormat</text>
<text text-anchor="middle" x="2699" y="-197.5" font-family="Helvetica,sans-Serif" font-size="10.00" fill="#000000">/MCTruthContainer.h</text>
</a>
</g>
</g>
<!-- Node0&#45;&gt;Node40 -->
<g id="edge51" class="edge">
<title>Node0&#45;&gt;Node40</title>
<path fill="none" stroke="#191970" d="M2432.6059,-313.3453C2497.1654,-287.2095 2594.8478,-247.6644 2652.2552,-224.4239"/>
<polygon fill="#191970" stroke="#191970" points="2653.8441,-227.5566 2661.7999,-220.5599 2651.2173,-221.0682 2653.8441,-227.5566"/>
</g>
<!-- Node46 -->
<g id="node47" class="node">
<title>Node46</title>
<polygon fill="none" stroke="#bfbfbf" points="3013.5,-134.5 3013.5,-153.5 3060.5,-153.5 3060.5,-134.5 3013.5,-134.5"/>
<text text-anchor="middle" x="3037" y="-141.5" font-family="Helvetica,sans-Serif" font-size="10.00" fill="#000000">vector</text>
</g>
<!-- Node0&#45;&gt;Node46 -->
<g id="edge62" class="edge">
<title>Node0&#45;&gt;Node46</title>
<path fill="none" stroke="#191970" d="M2459.4112,-313.4867C2581.2728,-278.6717 2803.8806,-214.6001 3003.4635,-154.4313"/>
<polygon fill="#191970" stroke="#191970" points="3004.6876,-157.7179 3013.2502,-151.4784 3002.6655,-151.0163 3004.6876,-157.7179"/>
</g>
<!-- Node47 -->
<g id="node48" class="node">
<title>Node47</title>
<polygon fill="none" stroke="#bfbfbf" points="2819.5,-257.5 2819.5,-276.5 2866.5,-276.5 2866.5,-257.5 2819.5,-257.5"/>
<text text-anchor="middle" x="2843" y="-264.5" font-family="Helvetica,sans-Serif" font-size="10.00" fill="#000000">deque</text>
</g>
<!-- Node0&#45;&gt;Node47 -->
<g id="edge64" class="edge">
<title>Node0&#45;&gt;Node47</title>
<path fill="none" stroke="#191970" d="M2460.1792,-329.4468C2548.9854,-319.0254 2686.8784,-300.9064 2805,-277 2806.4626,-276.704 2807.9527,-276.3855 2809.455,-276.0507"/>
<polygon fill="#191970" stroke="#191970" points="2810.4763,-279.405 2819.382,-273.6657 2808.8411,-272.5986 2810.4763,-279.405"/>
</g>
<!-- Node48 -->
<g id="node49" class="node">
<title>Node48</title>
<polygon fill="none" stroke="#bfbfbf" points="2885,-257.5 2885,-276.5 2929,-276.5 2929,-257.5 2885,-257.5"/>
<text text-anchor="middle" x="2907" y="-264.5" font-family="Helvetica,sans-Serif" font-size="10.00" fill="#000000">bitset</text>
</g>
<!-- Node0&#45;&gt;Node48 -->
<g id="edge65" class="edge">
<title>Node0&#45;&gt;Node48</title>
<path fill="none" stroke="#191970" d="M2460.1962,-333.4373C2560.4642,-325.6512 2725.3396,-309.3669 2874.9558,-276.8855"/>
<polygon fill="#191970" stroke="#191970" points="2875.7734,-280.2894 2884.7879,-274.7225 2874.2694,-273.4529 2875.7734,-280.2894"/>
</g>
<!-- Node2 -->
<g id="node3" class="node">
<title>Node2</title>
<g id="a_node3"><a xlink:href="../../d4/d25/BaseHits_8h.html" target="_top" xlink:title="SimulationDataFormat\l/BaseHits.h">
<polygon fill="none" stroke="#000000" points="1191.5,-190.5 1191.5,-220.5 1318.5,-220.5 1318.5,-190.5 1191.5,-190.5"/>
<text text-anchor="start" x="1199.5" y="-208.5" font-family="Helvetica,sans-Serif" font-size="10.00" fill="#000000">SimulationDataFormat</text>
<text text-anchor="middle" x="1255" y="-197.5" font-family="Helvetica,sans-Serif" font-size="10.00" fill="#000000">/BaseHits.h</text>
</a>
</g>
</g>
<!-- Node1&#45;&gt;Node2 -->
<g id="edge2" class="edge">
<title>Node1&#45;&gt;Node2</title>
<path fill="none" stroke="#191970" d="M1255,-257.3906C1255,-250.2234 1255,-240.0862 1255,-230.671"/>
<polygon fill="#191970" stroke="#191970" points="1258.5001,-230.5446 1255,-220.5446 1251.5001,-230.5446 1258.5001,-230.5446"/>
</g>
<!-- Node15 -->
<g id="node16" class="node">
<title>Node15</title>
<g id="a_node16"><a xlink:href="../../d0/d91/ShmAllocator_8h.html" target="_top" xlink:title="CommonUtils/ShmAllocator.h">
<polygon fill="none" stroke="#000000" points="1013,-196 1013,-215 1173,-215 1173,-196 1013,-196"/>
<text text-anchor="middle" x="1093" y="-203" font-family="Helvetica,sans-Serif" font-size="10.00" fill="#000000">CommonUtils/ShmAllocator.h</text>
</a>
</g>
</g>
<!-- Node1&#45;&gt;Node15 -->
<g id="edge15" class="edge">
<title>Node1&#45;&gt;Node15</title>
<path fill="none" stroke="#191970" d="M1229.6875,-257.3906C1202.2253,-246.9652 1158.2105,-230.2559 1127.5737,-218.6252"/>
<polygon fill="#191970" stroke="#191970" points="1128.726,-215.319 1118.1348,-215.0419 1126.2415,-221.8633 1128.726,-215.319"/>
</g>
<!-- Node3 -->
<g id="node4" class="node">
<title>Node3</title>
<g id="a_node4"><a xlink:href="../../dd/d76/Cartesian3D_8h.html" target="_top" xlink:title="MathUtils/Cartesian3D.h">
<polygon fill="none" stroke="#000000" points="1192.5,-134.5 1192.5,-153.5 1327.5,-153.5 1327.5,-134.5 1192.5,-134.5"/>
<text text-anchor="middle" x="1260" y="-141.5" font-family="Helvetica,sans-Serif" font-size="10.00" fill="#000000">MathUtils/Cartesian3D.h</text>
</a>
</g>
</g>
<!-- Node2&#45;&gt;Node3 -->
<g id="edge3" class="edge">
<title>Node2&#45;&gt;Node3</title>
<path fill="none" stroke="#191970" d="M1256.236,-190.2977C1256.8794,-182.3834 1257.6744,-172.6043 1258.3678,-164.0759"/>
<polygon fill="#191970" stroke="#191970" points="1261.8775,-164.0977 1259.1994,-153.8469 1254.9005,-163.5304 1261.8775,-164.0977"/>
</g>
<!-- Node4 -->
<g id="node5" class="node">
<title>Node4</title>
<polygon fill="none" stroke="#bfbfbf" points="611,-67.5 611,-97.5 775,-97.5 775,-67.5 611,-67.5"/>
<text text-anchor="start" x="619" y="-85.5" font-family="Helvetica,sans-Serif" font-size="10.00" fill="#000000">Math/GenVector/Displacement</text>
<text text-anchor="middle" x="693" y="-74.5" font-family="Helvetica,sans-Serif" font-size="10.00" fill="#000000">Vector3D.h</text>
</g>
<!-- Node3&#45;&gt;Node4 -->
<g id="edge4" class="edge">
<title>Node3&#45;&gt;Node4</title>
<path fill="none" stroke="#191970" d="M1192.1815,-138.9421C1101.8419,-131.8678 936.8364,-117.7747 785.1843,-97.9596"/>
<polygon fill="#191970" stroke="#191970" points="785.5871,-94.4825 775.2155,-96.6462 784.6726,-101.4225 785.5871,-94.4825"/>
</g>
<!-- Node5 -->
<g id="node6" class="node">
<title>Node5</title>
<polygon fill="none" stroke="#bfbfbf" points="793.5,-73 793.5,-92 982.5,-92 982.5,-73 793.5,-73"/>
<text text-anchor="middle" x="888" y="-80" font-family="Helvetica,sans-Serif" font-size="10.00" fill="#000000">Math/GenVector/PositionVector3D.h</text>
</g>
<!-- Node3&#45;&gt;Node5 -->
<g id="edge5" class="edge">
<title>Node3&#45;&gt;Node5</title>
<path fill="none" stroke="#191970" d="M1202.2832,-134.4581C1135.6629,-123.4443 1026.2331,-105.3531 955.666,-93.6867"/>
<polygon fill="#191970" stroke="#191970" points="955.9832,-90.1917 945.5462,-92.0137 954.8413,-97.098 955.9832,-90.1917"/>
</g>
<!-- Node6 -->
<g id="node7" class="node">
<title>Node6</title>
<polygon fill="none" stroke="#bfbfbf" points="1001,-73 1001,-92 1161,-92 1161,-73 1001,-73"/>
<text text-anchor="middle" x="1081" y="-80" font-family="Helvetica,sans-Serif" font-size="10.00" fill="#000000">Math/GenVector/Rotation3D.h</text>
</g>
<!-- Node3&#45;&gt;Node6 -->
<g id="edge6" class="edge">
<title>Node3&#45;&gt;Node6</title>
<path fill="none" stroke="#191970" d="M1232.0313,-134.3906C1201.4245,-123.8749 1152.2101,-106.966 1118.3259,-95.3243"/>
<polygon fill="#191970" stroke="#191970" points="1119.367,-91.9812 1108.7724,-92.0419 1117.0924,-98.6014 1119.367,-91.9812"/>
</g>
<!-- Node7 -->
<g id="node8" class="node">
<title>Node7</title>
<polygon fill="none" stroke="#bfbfbf" points="1179,-73 1179,-92 1347,-92 1347,-73 1179,-73"/>
<text text-anchor="middle" x="1263" y="-80" font-family="Helvetica,sans-Serif" font-size="10.00" fill="#000000">Math/GenVector/Transform3D.h</text>
</g>
<!-- Node3&#45;&gt;Node7 -->
<g id="edge7" class="edge">
<title>Node3&#45;&gt;Node7</title>
<path fill="none" stroke="#191970" d="M1260.4688,-134.3906C1260.8846,-125.8657 1261.5054,-113.1392 1262.0281,-102.4235"/>
<polygon fill="#191970" stroke="#191970" points="1265.5332,-102.4035 1262.5246,-92.2449 1258.5415,-102.0624 1265.5332,-102.4035"/>
</g>
<!-- Node8 -->
<g id="node9" class="node">
<title>Node8</title>
<polygon fill="none" stroke="#bfbfbf" points="1365.5,-73 1365.5,-92 1538.5,-92 1538.5,-73 1365.5,-73"/>
<text text-anchor="middle" x="1452" y="-80" font-family="Helvetica,sans-Serif" font-size="10.00" fill="#000000">Math/GenVector/Translation3D.h</text>
</g>
<!-- Node3&#45;&gt;Node8 -->
<g id="edge8" class="edge">
<title>Node3&#45;&gt;Node8</title>
<path fill="none" stroke="#191970" d="M1290,-134.3906C1322.9705,-123.8298 1376.0717,-106.8208 1412.4303,-95.1747"/>
<polygon fill="#191970" stroke="#191970" points="1413.755,-98.4256 1422.2107,-92.0419 1411.6196,-91.7592 1413.755,-98.4256"/>
</g>
<!-- Node9 -->
<g id="node10" class="node">
<title>Node9</title>
<polygon fill="none" stroke="#bfbfbf" points="1724.5,-73 1724.5,-92 1783.5,-92 1783.5,-73 1724.5,-73"/>
<text text-anchor="middle" x="1754" y="-80" font-family="Helvetica,sans-Serif" font-size="10.00" fill="#000000">Rtypes.h</text>
</g>
<!-- Node3&#45;&gt;Node9 -->
<g id="edge9" class="edge">
<title>Node3&#45;&gt;Node9</title>
<path fill="none" stroke="#191970" d="M1327.5305,-139.5714C1436.0106,-132.0563 1644.1917,-115.871 1716,-98 1718.6317,-97.3451 1721.3208,-96.5422 1723.9921,-95.65"/>
<polygon fill="#191970" stroke="#191970" points="1725.3012,-98.8974 1733.4542,-92.1313 1722.8613,-92.3364 1725.3012,-98.8974"/>
</g>
<!-- Node10 -->
<g id="node11" class="node">
<title>Node10</title>
<polygon fill="none" stroke="#bfbfbf" points="1557,-73 1557,-92 1639,-92 1639,-73 1557,-73"/>
<text text-anchor="middle" x="1598" y="-80" font-family="Helvetica,sans-Serif" font-size="10.00" fill="#000000">TGeoMatrix.h</text>
</g>
<!-- Node3&#45;&gt;Node10 -->
<g id="edge10" class="edge">
<title>Node3&#45;&gt;Node10</title>
<path fill="none" stroke="#191970" d="M1327.739,-135.9483C1386.4385,-128.3143 1473.4243,-115.4217 1548,-98 1551.8718,-97.0955 1555.8805,-96.0475 1559.8663,-94.9314"/>
<polygon fill="#191970" stroke="#191970" points="1561.0286,-98.2379 1569.6357,-92.0598 1559.0545,-91.522 1561.0286,-98.2379"/>
</g>
<!-- Node11 -->
<g id="node12" class="node">
<title>Node11</title>
<polygon fill="none" stroke="#bfbfbf" points="1657.5,-73 1657.5,-92 1706.5,-92 1706.5,-73 1657.5,-73"/>
<text text-anchor="middle" x="1682" y="-80" font-family="Helvetica,sans-Serif" font-size="10.00" fill="#000000">iosfwd</text>
</g>
<!-- Node3&#45;&gt;Node11 -->
<g id="edge11" class="edge">
<title>Node3&#45;&gt;Node11</title>
<path fill="none" stroke="#191970" d="M1327.5297,-138.5272C1422.2038,-130.4213 1589.3725,-114.407 1648,-98 1649.9679,-97.4493 1651.9662,-96.7994 1653.9578,-96.0832"/>
<polygon fill="#191970" stroke="#191970" points="1655.7581,-99.1281 1663.6863,-92.0999 1653.1057,-92.6501 1655.7581,-99.1281"/>
</g>
<!-- Node12 -->
<g id="node13" class="node">
<title>Node12</title>
<g id="a_node13"><a xlink:href="../../d2/dd0/Cartesian2D_8h.html" target="_top" xlink:title="MathUtils/Cartesian2D.h">
<polygon fill="none" stroke="#000000" points="457.5,-73 457.5,-92 592.5,-92 592.5,-73 457.5,-73"/>
<text text-anchor="middle" x="525" y="-80" font-family="Helvetica,sans-Serif" font-size="10.00" fill="#000000">MathUtils/Cartesian2D.h</text>
</a>
</g>
</g>
<!-- Node3&#45;&gt;Node12 -->
<g id="edge12" class="edge">
<title>Node3&#45;&gt;Node12</title>
<path fill="none" stroke="#191970" d="M1192.4541,-142.1482C1072.9193,-138.2328 816.4866,-126.9624 602,-98 593.9299,-96.9103 585.4347,-95.4855 577.152,-93.9413"/>
<polygon fill="#191970" stroke="#191970" points="577.6802,-90.4786 567.197,-92.0129 576.3489,-97.3509 577.6802,-90.4786"/>
</g>
<!-- Node13 -->
<g id="node14" class="node">
<title>Node13</title>
<polygon fill="none" stroke="#bfbfbf" points="345,-.5 345,-30.5 509,-30.5 509,-.5 345,-.5"/>
<text text-anchor="start" x="353" y="-18.5" font-family="Helvetica,sans-Serif" font-size="10.00" fill="#000000">Math/GenVector/Displacement</text>
<text text-anchor="middle" x="427" y="-7.5" font-family="Helvetica,sans-Serif" font-size="10.00" fill="#000000">Vector2D.h</text>
</g>
<!-- Node12&#45;&gt;Node13 -->
<g id="edge13" class="edge">
<title>Node12&#45;&gt;Node13</title>
<path fill="none" stroke="#191970" d="M510.959,-72.9005C497.0412,-63.3853 475.272,-48.5023 457.388,-36.2755"/>
<polygon fill="#191970" stroke="#191970" points="459.2026,-33.2763 448.9721,-30.5218 455.2519,-39.0549 459.2026,-33.2763"/>
</g>
<!-- Node14 -->
<g id="node15" class="node">
<title>Node14</title>
<polygon fill="none" stroke="#bfbfbf" points="527.5,-6 527.5,-25 716.5,-25 716.5,-6 527.5,-6"/>
<text text-anchor="middle" x="622" y="-13" font-family="Helvetica,sans-Serif" font-size="10.00" fill="#000000">Math/GenVector/PositionVector2D.h</text>
</g>
<!-- Node12&#45;&gt;Node14 -->
<g id="edge14" class="edge">
<title>Node12&#45;&gt;Node14</title>
<path fill="none" stroke="#191970" d="M538.8977,-72.9005C554.8164,-61.9052 581.1121,-43.7422 599.8599,-30.7927"/>
<polygon fill="#191970" stroke="#191970" points="601.8892,-33.6448 608.128,-25.0817 597.9108,-27.8852 601.8892,-33.6448"/>
</g>
<!-- Node16 -->
<g id="node17" class="node">
<title>Node16</title>
<g id="a_node17"><a xlink:href="../../de/d61/ShmManager_8h.html" target="_top" xlink:title="CommonUtils/ShmManager.h">
<polygon fill="none" stroke="#000000" points="125,-134.5 125,-153.5 283,-153.5 283,-134.5 125,-134.5"/>
<text text-anchor="middle" x="204" y="-141.5" font-family="Helvetica,sans-Serif" font-size="10.00" fill="#000000">CommonUtils/ShmManager.h</text>
</a>
</g>
</g>
<!-- Node15&#45;&gt;Node16 -->
<g id="edge16" class="edge">
<title>Node15&#45;&gt;Node16</title>
<path fill="none" stroke="#191970" d="M1012.9324,-199.961C847.0116,-188.4828 466.6892,-162.1725 293.2071,-150.1712"/>
<polygon fill="#191970" stroke="#191970" points="293.307,-146.6699 283.0893,-149.4713 292.8238,-153.6532 293.307,-146.6699"/>
</g>
<!-- Node21 -->
<g id="node22" class="node">
<title>Node21</title>
<polygon fill="none" stroke="#bfbfbf" points="1604,-134.5 1604,-153.5 1656,-153.5 1656,-134.5 1604,-134.5"/>
<text text-anchor="middle" x="1630" y="-141.5" font-family="Helvetica,sans-Serif" font-size="10.00" fill="#000000">cassert</text>
</g>
<!-- Node15&#45;&gt;Node21 -->
<g id="edge21" class="edge">
<title>Node15&#45;&gt;Node21</title>
<path fill="none" stroke="#191970" d="M1144.2999,-195.9846C1156.925,-193.8308 1170.4284,-191.6852 1183,-190 1348.5101,-167.8135 1391.1327,-173.3358 1557,-154 1568.8681,-152.6165 1581.7941,-150.9113 1593.4259,-149.3033"/>
<polygon fill="#191970" stroke="#191970" points="1594.2598,-152.7207 1603.6769,-147.866 1593.2877,-145.7885 1594.2598,-152.7207"/>
</g>
<!-- Node17 -->
<g id="node18" class="node">
<title>Node17</title>
<polygon fill="none" stroke="#bfbfbf" points="0,-73 0,-92 32,-92 32,-73 0,-73"/>
<text text-anchor="middle" x="16" y="-80" font-family="Helvetica,sans-Serif" font-size="10.00" fill="#000000">list</text>
</g>
<!-- Node16&#45;&gt;Node17 -->
<g id="edge17" class="edge">
<title>Node16&#45;&gt;Node17</title>
<path fill="none" stroke="#191970" d="M157.1313,-134.449C123.8879,-126.7997 78.6708,-114.5985 41,-98 40.299,-97.6911 39.5943,-97.3652 38.8888,-97.0254"/>
<polygon fill="#191970" stroke="#191970" points="40.3475,-93.8329 29.9004,-92.0692 36.9674,-99.9628 40.3475,-93.8329"/>
</g>
<!-- Node18 -->
<g id="node19" class="node">
<title>Node18</title>
<polygon fill="none" stroke="#bfbfbf" points="50.5,-73 50.5,-92 103.5,-92 103.5,-73 50.5,-73"/>
<text text-anchor="middle" x="77" y="-80" font-family="Helvetica,sans-Serif" font-size="10.00" fill="#000000">cstddef</text>
</g>
<!-- Node16&#45;&gt;Node18 -->
<g id="edge18" class="edge">
<title>Node16&#45;&gt;Node18</title>
<path fill="none" stroke="#191970" d="M184.1563,-134.3906C163.1864,-124.2359 129.9056,-108.1196 105.9964,-96.5416"/>
<polygon fill="#191970" stroke="#191970" points="107.2301,-93.2502 96.7044,-92.0419 104.1792,-99.5504 107.2301,-93.2502"/>
</g>
<!-- Node19 -->
<g id="node20" class="node">
<title>Node19</title>
<polygon fill="none" stroke="#bfbfbf" points="121.5,-67.5 121.5,-97.5 286.5,-97.5 286.5,-67.5 121.5,-67.5"/>
<text text-anchor="start" x="129.5" y="-85.5" font-family="Helvetica,sans-Serif" font-size="10.00" fill="#000000">boost/interprocess</text>
<text text-anchor="middle" x="204" y="-74.5" font-family="Helvetica,sans-Serif" font-size="10.00" fill="#000000">/managed_external_buffer.hpp</text>
</g>
<!-- Node16&#45;&gt;Node19 -->
<g id="edge19" class="edge">
<title>Node16&#45;&gt;Node19</title>
<path fill="none" stroke="#191970" d="M204,-134.3906C204,-127.2234 204,-117.0862 204,-107.671"/>
<polygon fill="#191970" stroke="#191970" points="207.5001,-107.5446 204,-97.5446 200.5001,-107.5446 207.5001,-107.5446"/>
</g>
<!-- Node20 -->
<g id="node21" class="node">
<title>Node20</title>
<polygon fill="none" stroke="#bfbfbf" points="305,-67.5 305,-97.5 439,-97.5 439,-67.5 305,-67.5"/>
<text text-anchor="start" x="313" y="-85.5" font-family="Helvetica,sans-Serif" font-size="10.00" fill="#000000">boost/interprocess</text>
<text text-anchor="middle" x="372" y="-74.5" font-family="Helvetica,sans-Serif" font-size="10.00" fill="#000000">/allocators/allocator.hpp</text>
</g>
<!-- Node16&#45;&gt;Node20 -->
<g id="edge20" class="edge">
<title>Node16&#45;&gt;Node20</title>
<path fill="none" stroke="#191970" d="M230.25,-134.3906C254.5657,-125.4893 291.3947,-112.0073 321.4183,-101.0165"/>
<polygon fill="#191970" stroke="#191970" points="322.7152,-104.269 330.9026,-97.5446 320.3088,-97.6956 322.7152,-104.269"/>
</g>
<!-- Node23 -->
<g id="node24" class="node">
<title>Node23</title>
<g id="a_node24"><a xlink:href="../../d7/dcd/MCCompLabel_8h.html" target="_top" xlink:title="SimulationDataFormat\l/MCCompLabel.h">
<polygon fill="none" stroke="#000000" points="1336.5,-190.5 1336.5,-220.5 1463.5,-220.5 1463.5,-190.5 1336.5,-190.5"/>
<text text-anchor="start" x="1344.5" y="-208.5" font-family="Helvetica,sans-Serif" font-size="10.00" fill="#000000">SimulationDataFormat</text>
<text text-anchor="middle" x="1400" y="-197.5" font-family="Helvetica,sans-Serif" font-size="10.00" fill="#000000">/MCCompLabel.h</text>
</a>
</g>
</g>
<!-- Node22&#45;&gt;Node23 -->
<g id="edge23" class="edge">
<title>Node22&#45;&gt;Node23</title>
<path fill="none" stroke="#191970" d="M1499.5625,-257.3906C1483.0751,-248.7976 1458.3968,-235.9356 1437.7352,-225.1671"/>
<polygon fill="#191970" stroke="#191970" points="1439.3516,-222.0627 1428.866,-220.5446 1436.1163,-228.2702 1439.3516,-222.0627"/>
</g>
<!-- Node24 -->
<g id="node25" class="node">
<title>Node24</title>
<g id="a_node25"><a xlink:href="../../d2/d45/GPUCommonRtypes_8h.html" target="_top" xlink:title="GPUCommonRtypes.h">
<polygon fill="none" stroke="#000000" points="1422.5,-134.5 1422.5,-153.5 1547.5,-153.5 1547.5,-134.5 1422.5,-134.5"/>
<text text-anchor="middle" x="1485" y="-141.5" font-family="Helvetica,sans-Serif" font-size="10.00" fill="#000000">GPUCommonRtypes.h</text>
</a>
</g>
</g>
<!-- Node23&#45;&gt;Node24 -->
<g id="edge24" class="edge">
<title>Node23&#45;&gt;Node24</title>
<path fill="none" stroke="#191970" d="M1421.0112,-190.2977C1433.7934,-181.0495 1450.0946,-169.2551 1463.0448,-159.8853"/>
<polygon fill="#191970" stroke="#191970" points="1465.3403,-162.5445 1471.3904,-153.8469 1461.237,-156.8732 1465.3403,-162.5445"/>
</g>
<!-- Node24&#45;&gt;Node9 -->
<g id="edge25" class="edge">
<title>Node24&#45;&gt;Node9</title>
<path fill="none" stroke="#191970" d="M1547.5566,-134.8614C1594.4834,-127.2101 1659.9991,-114.8291 1716,-98 1718.3029,-97.3079 1720.6591,-96.529 1723.0145,-95.698"/>
<polygon fill="#191970" stroke="#191970" points="1724.4456,-98.8985 1732.5539,-92.0789 1721.9626,-92.3537 1724.4456,-98.8985"/>
</g>
<!-- Node25&#45;&gt;Node9 -->
<g id="edge33" class="edge">
<title>Node25&#45;&gt;Node9</title>
<path fill="none" stroke="#191970" d="M2180.4793,-257.2532C2147.3514,-229.4064 2051.8581,-150.4426 2015,-134 1941.4055,-101.1692 1846.8883,-89.1677 1794.155,-84.8534"/>
<polygon fill="#191970" stroke="#191970" points="1794.1093,-81.3398 1783.8715,-84.0669 1793.5754,-88.3194 1794.1093,-81.3398"/>
</g>
<!-- Node26 -->
<g id="node27" class="node">
<title>Node26</title>
<g id="a_node27"><a xlink:href="../../d3/dd7/Detectors_2ZDC_2base_2include_2ZDCBase_2Constants_8h.html" target="_top" xlink:title="ZDCBase/Constants.h">
<polygon fill="none" stroke="#000000" points="2169,-196 2169,-215 2291,-215 2291,-196 2169,-196"/>
<text text-anchor="middle" x="2230" y="-203" font-family="Helvetica,sans-Serif" font-size="10.00" fill="#000000">ZDCBase/Constants.h</text>
</a>
</g>
</g>
<!-- Node25&#45;&gt;Node26 -->
<g id="edge27" class="edge">
<title>Node25&#45;&gt;Node26</title>
<path fill="none" stroke="#191970" d="M2197.9375,-257.3906C2203.4267,-248.5068 2211.7353,-235.0601 2218.519,-224.0811"/>
<polygon fill="#191970" stroke="#191970" points="2221.6998,-225.5917 2223.9788,-215.2449 2215.7449,-221.9122 2221.6998,-225.5917"/>
</g>
<!-- Node25&#45;&gt;Node32 -->
<g id="edge34" class="edge">
<title>Node25&#45;&gt;Node32</title>
<path fill="none" stroke="#191970" d="M2219.5,-257.3906C2251.3922,-246.2465 2303.8322,-227.9223 2337.1039,-216.2961"/>
<polygon fill="#191970" stroke="#191970" points="2338.4846,-219.5212 2346.7703,-212.9183 2336.1755,-212.913 2338.4846,-219.5212"/>
</g>
<!-- Node27 -->
<g id="node28" class="node">
<title>Node27</title>
<g id="a_node28"><a xlink:href="../../d3/d9d/PhysicsConstants_8h.html" target="_top" xlink:title="Header to collect physics constants. ">
<polygon fill="none" stroke="#000000" points="2284.5,-134.5 2284.5,-153.5 2491.5,-153.5 2491.5,-134.5 2284.5,-134.5"/>
<text text-anchor="middle" x="2388" y="-141.5" font-family="Helvetica,sans-Serif" font-size="10.00" fill="#000000">CommonConstants/PhysicsConstants.h</text>
</a>
</g>
</g>
<!-- Node26&#45;&gt;Node27 -->
<g id="edge28" class="edge">
<title>Node26&#45;&gt;Node27</title>
<path fill="none" stroke="#191970" d="M2254.6875,-195.8906C2281.3557,-185.5103 2324.0282,-168.9004 2353.8911,-157.2766"/>
<polygon fill="#191970" stroke="#191970" points="2355.4365,-160.4309 2363.4859,-153.5419 2352.8973,-153.9076 2355.4365,-160.4309"/>
</g>
<!-- Node28 -->
<g id="node29" class="node">
<title>Node28</title>
<polygon fill="none" stroke="#bfbfbf" points="2062,-134.5 2062,-153.5 2112,-153.5 2112,-134.5 2062,-134.5"/>
<text text-anchor="middle" x="2087" y="-141.5" font-family="Helvetica,sans-Serif" font-size="10.00" fill="#000000">cstdint</text>
</g>
<!-- Node26&#45;&gt;Node28 -->
<g id="edge29" class="edge">
<title>Node26&#45;&gt;Node28</title>
<path fill="none" stroke="#191970" d="M2207.6563,-195.8906C2183.7297,-185.6005 2145.5691,-169.1888 2118.5784,-157.5809"/>
<polygon fill="#191970" stroke="#191970" points="2119.7561,-154.2775 2109.1869,-153.5419 2116.9905,-160.708 2119.7561,-154.2775"/>
</g>
<!-- Node29 -->
<g id="node30" class="node">
<title>Node29</title>
<polygon fill="none" stroke="#bfbfbf" points="2130.5,-134.5 2130.5,-153.5 2203.5,-153.5 2203.5,-134.5 2130.5,-134.5"/>
<text text-anchor="middle" x="2167" y="-141.5" font-family="Helvetica,sans-Serif" font-size="10.00" fill="#000000">string_view</text>
</g>
<!-- Node26&#45;&gt;Node29 -->
<g id="edge30" class="edge">
<title>Node26&#45;&gt;Node29</title>
<path fill="none" stroke="#191970" d="M2220.1563,-195.8906C2210.5961,-186.5581 2195.8777,-172.1902 2184.3505,-160.9374"/>
<polygon fill="#191970" stroke="#191970" points="2186.5832,-158.2257 2176.9825,-153.7449 2181.6934,-163.2348 2186.5832,-158.2257"/>
</g>
<!-- Node30 -->
<g id="node31" class="node">
<title>Node30</title>
<polygon fill="none" stroke="#bfbfbf" points="2222,-134.5 2222,-153.5 2266,-153.5 2266,-134.5 2222,-134.5"/>
<text text-anchor="middle" x="2244" y="-141.5" font-family="Helvetica,sans-Serif" font-size="10.00" fill="#000000">string</text>
</g>
<!-- Node26&#45;&gt;Node30 -->
<g id="edge31" class="edge">
<title>Node26&#45;&gt;Node30</title>
<path fill="none" stroke="#191970" d="M2232.1875,-195.8906C2234.1486,-187.276 2237.0863,-174.3708 2239.5415,-163.5858"/>
<polygon fill="#191970" stroke="#191970" points="2242.9746,-164.2723 2241.7817,-153.7449 2236.1493,-162.7185 2242.9746,-164.2723"/>
</g>
<!-- Node31 -->
<g id="node32" class="node">
<title>Node31</title>
<polygon fill="none" stroke="#bfbfbf" points="2509.5,-134.5 2509.5,-153.5 2578.5,-153.5 2578.5,-134.5 2509.5,-134.5"/>
<text text-anchor="middle" x="2544" y="-141.5" font-family="Helvetica,sans-Serif" font-size="10.00" fill="#000000">type_traits</text>
</g>
<!-- Node26&#45;&gt;Node31 -->
<g id="edge32" class="edge">
<title>Node26&#45;&gt;Node31</title>
<path fill="none" stroke="#191970" d="M2283.6049,-195.9778C2336.2285,-186.48 2419.0142,-171.1406 2499.4924,-154.2645"/>
<polygon fill="#191970" stroke="#191970" points="2500.2298,-157.686 2509.2932,-152.1991 2498.7863,-150.8365 2500.2298,-157.686"/>
</g>
<!-- Node33&#45;&gt;Node9 -->
<g id="edge38" class="edge">
<title>Node33&#45;&gt;Node9</title>
<path fill="none" stroke="#191970" d="M2415.5921,-257.4292C2496.3717,-239.2328 2646.1618,-195.8641 2588,-134 2560.4712,-104.7188 1955.4966,-87.5374 1793.5654,-83.4521"/>
<polygon fill="#191970" stroke="#191970" points="1793.6352,-79.9528 1783.5509,-83.2019 1793.4603,-86.9506 1793.6352,-79.9528"/>
</g>
<!-- Node33&#45;&gt;Node26 -->
<g id="edge36" class="edge">
<title>Node33&#45;&gt;Node26</title>
<path fill="none" stroke="#191970" d="M2346.4375,-257.3906C2323.4488,-247.1457 2286.844,-230.8326 2260.8176,-219.2339"/>
<polygon fill="#191970" stroke="#191970" points="2261.9698,-215.9156 2251.4111,-215.0419 2259.1204,-222.3095 2261.9698,-215.9156"/>
</g>
<!-- Node33&#45;&gt;Node32 -->
<g id="edge37" class="edge">
<title>Node33&#45;&gt;Node32</title>
<path fill="none" stroke="#191970" d="M2368,-257.3906C2368,-248.8657 2368,-236.1392 2368,-225.4235"/>
<polygon fill="#191970" stroke="#191970" points="2371.5001,-225.2448 2368,-215.2449 2364.5001,-225.2449 2371.5001,-225.2448"/>
</g>
<!-- Node34&#45;&gt;Node9 -->
<g id="edge49" class="edge">
<title>Node34&#45;&gt;Node9</title>
<path fill="none" stroke="#191970" d="M1845.7375,-257.4463C1829.4259,-238.8133 1793.2608,-198.6804 1777,-190 1704.2594,-151.1693 1647.3436,-217.7115 1595,-154 1541.3115,-88.6516 1546.9667,-157.4583 1716,-98 1717.9156,-97.3262 1719.8756,-96.6103 1721.8464,-95.8701"/>
<polygon fill="#191970" stroke="#191970" points="1723.593,-98.9455 1731.635,-92.0479 1721.0469,-92.425 1723.593,-98.9455"/>
</g>
<!-- Node34&#45;&gt;Node26 -->
<g id="edge48" class="edge">
<title>Node34&#45;&gt;Node26</title>
<path fill="none" stroke="#191970" d="M1912.3375,-257.4581C1979.6741,-246.4443 2090.2805,-228.3531 2161.6064,-216.6867"/>
<polygon fill="#191970" stroke="#191970" points="2162.5312,-220.0821 2171.8351,-215.0137 2161.4012,-213.1738 2162.5312,-220.0821"/>
</g>
<!-- Node34&#45;&gt;Node35 -->
<g id="edge40" class="edge">
<title>Node34&#45;&gt;Node35</title>
<path fill="none" stroke="#191970" d="M1862.9063,-257.3906C1870.1919,-249.5298 1880.7887,-238.0964 1890.1823,-227.9612"/>
<polygon fill="#191970" stroke="#191970" points="1892.8256,-230.2581 1897.0562,-220.5446 1887.6915,-225.4997 1892.8256,-230.2581"/>
</g>
<!-- Node38 -->
<g id="node39" class="node">
<title>Node38</title>
<g id="a_node39"><a xlink:href="../../de/d64/RangeReference_8h.html" target="_top" xlink:title="Class to refer to the 1st entry and N elements of some group in the continuous container. ">
<polygon fill="none" stroke="#000000" points="1482,-196 1482,-215 1692,-215 1692,-196 1482,-196"/>
<text text-anchor="middle" x="1587" y="-203" font-family="Helvetica,sans-Serif" font-size="10.00" fill="#000000">CommonDataFormat/RangeReference.h</text>
</a>
</g>
</g>
<!-- Node34&#45;&gt;Node38 -->
<g id="edge46" class="edge">
<title>Node34&#45;&gt;Node38</title>
<path fill="none" stroke="#191970" d="M1812.5742,-257.4581C1765.6106,-246.6406 1689.0067,-228.9959 1638.3021,-217.3168"/>
<polygon fill="#191970" stroke="#191970" points="1639.0535,-213.8983 1628.523,-215.0643 1637.4822,-220.7196 1639.0535,-213.8983"/>
</g>
<!-- Node39 -->
<g id="node40" class="node">
<title>Node39</title>
<polygon fill="none" stroke="#bfbfbf" points="1710.5,-196 1710.5,-215 1767.5,-215 1767.5,-196 1710.5,-196"/>
<text text-anchor="middle" x="1739" y="-203" font-family="Helvetica,sans-Serif" font-size="10.00" fill="#000000">gsl/span</text>
</g>
<!-- Node34&#45;&gt;Node39 -->
<g id="edge50" class="edge">
<title>Node34&#45;&gt;Node39</title>
<path fill="none" stroke="#191970" d="M1836.0313,-257.3906C1817.2116,-247.3262 1787.4415,-231.4057 1765.8359,-219.8514"/>
<polygon fill="#191970" stroke="#191970" points="1767.3114,-216.6714 1756.8426,-215.0419 1764.0102,-222.8442 1767.3114,-216.6714"/>
</g>
<!-- Node35&#45;&gt;Node9 -->
<g id="edge41" class="edge">
<title>Node35&#45;&gt;Node9</title>
<path fill="none" stroke="#191970" d="M1830.1795,-190.4079C1792.3593,-181.5378 1753.1817,-169.0968 1742,-154 1730.8154,-138.8993 1736.7576,-117.0938 1743.6543,-101.5398"/>
<polygon fill="#191970" stroke="#191970" points="1746.8977,-102.8747 1748.1538,-92.3546 1740.6114,-99.7952 1746.8977,-102.8747"/>
</g>
<!-- Node35&#45;&gt;Node11 -->
<g id="edge42" class="edge">
<title>Node35&#45;&gt;Node11</title>
<path fill="none" stroke="#191970" d="M1823.6173,-193.1629C1792.273,-185.6112 1758.0315,-173.4753 1731,-154 1712.3956,-140.5961 1698.5787,-117.8176 1690.4412,-101.5729"/>
<polygon fill="#191970" stroke="#191970" points="1693.5612,-99.9834 1686.1165,-92.445 1687.2352,-102.9806 1693.5612,-99.9834"/>
</g>
<!-- Node35&#45;&gt;Node28 -->
<g id="edge44" class="edge">
<title>Node35&#45;&gt;Node28</title>
<path fill="none" stroke="#191970" d="M1954.0544,-190.4554C1984.2776,-179.8945 2024.1692,-165.9551 2052.3443,-156.1098"/>
<polygon fill="#191970" stroke="#191970" points="2053.5007,-159.4133 2061.7864,-152.8104 2051.1916,-152.8051 2053.5007,-159.4133"/>
</g>
<!-- Node36 -->
<g id="node37" class="node">
<title>Node36</title>
<polygon fill="none" stroke="#bfbfbf" points="1750.5,-134.5 1750.5,-153.5 1797.5,-153.5 1797.5,-134.5 1750.5,-134.5"/>
<text text-anchor="middle" x="1774" y="-141.5" font-family="Helvetica,sans-Serif" font-size="10.00" fill="#000000">cmath</text>
</g>
<!-- Node35&#45;&gt;Node36 -->
<g id="edge43" class="edge">
<title>Node35&#45;&gt;Node36</title>
<path fill="none" stroke="#191970" d="M1877.486,-190.4554C1855.2288,-180.464 1826.2353,-167.4487 1804.6015,-157.7372"/>
<polygon fill="#191970" stroke="#191970" points="1805.7865,-154.4327 1795.2301,-153.5303 1802.9197,-160.8187 1805.7865,-154.4327"/>
</g>
<!-- Node37 -->
<g id="node38" class="node">
<title>Node37</title>
<g id="a_node38"><a xlink:href="../../d4/dc6/LHCConstants_8h.html" target="_top" xlink:title="Header to collect LHC related constants. ">
<polygon fill="none" stroke="#000000" points="1816,-134.5 1816,-153.5 2006,-153.5 2006,-134.5 1816,-134.5"/>
<text text-anchor="middle" x="1911" y="-141.5" font-family="Helvetica,sans-Serif" font-size="10.00" fill="#000000">CommonConstants/LHCConstants.h</text>
</a>
</g>
</g>
<!-- Node35&#45;&gt;Node37 -->
<g id="edge45" class="edge">
<title>Node35&#45;&gt;Node37</title>
<path fill="none" stroke="#191970" d="M1911,-190.2977C1911,-182.3834 1911,-172.6043 1911,-164.0759"/>
<polygon fill="#191970" stroke="#191970" points="1914.5001,-163.8469 1911,-153.8469 1907.5001,-163.847 1914.5001,-163.8469"/>
</g>
<!-- Node38&#45;&gt;Node24 -->
<g id="edge47" class="edge">
<title>Node38&#45;&gt;Node24</title>
<path fill="none" stroke="#191970" d="M1571.0625,-195.8906C1554.5949,-185.9616 1528.6742,-170.333 1509.5796,-158.8201"/>
<polygon fill="#191970" stroke="#191970" points="1511.1966,-155.7081 1500.8256,-153.5419 1507.5822,-161.7027 1511.1966,-155.7081"/>
</g>
<!-- Node40&#45;&gt;Node21 -->
<g id="edge54" class="edge">
<title>Node40&#45;&gt;Node21</title>
<path fill="none" stroke="#191970" d="M2635.2534,-202.2007C2435.6147,-191.8496 1830.4786,-160.3287 1742,-154 1716.732,-152.1926 1688.3027,-149.6481 1666.4096,-147.5782"/>
<polygon fill="#191970" stroke="#191970" points="1666.5172,-144.0726 1656.2296,-146.6054 1665.8513,-151.0409 1666.5172,-144.0726"/>
</g>
<!-- Node40&#45;&gt;Node28 -->
<g id="edge53" class="edge">
<title>Node40&#45;&gt;Node28</title>
<path fill="none" stroke="#191970" d="M2635.2852,-203.7479C2528.364,-199.9322 2306.412,-188.255 2122,-154 2121.899,-153.9812 2121.7979,-153.9623 2121.6967,-153.9432"/>
<polygon fill="#191970" stroke="#191970" points="2122.6235,-150.5643 2112.0994,-151.7865 2121.0887,-157.394 2122.6235,-150.5643"/>
</g>
<!-- Node40&#45;&gt;Node31 -->
<g id="edge57" class="edge">
<title>Node40&#45;&gt;Node31</title>
<path fill="none" stroke="#191970" d="M2661.0827,-190.4554C2635.5609,-180.329 2602.2104,-167.0964 2577.6344,-157.3453"/>
<polygon fill="#191970" stroke="#191970" points="2578.6054,-153.9651 2568.0195,-153.5303 2576.0237,-160.4717 2578.6054,-153.9651"/>
</g>
<!-- Node41 -->
<g id="node42" class="node">
<title>Node41</title>
<polygon fill="none" stroke="#bfbfbf" points="2845.5,-134.5 2845.5,-153.5 2912.5,-153.5 2912.5,-134.5 2845.5,-134.5"/>
<text text-anchor="middle" x="2879" y="-141.5" font-family="Helvetica,sans-Serif" font-size="10.00" fill="#000000">TNamed.h</text>
</g>
<!-- Node40&#45;&gt;Node41 -->
<g id="edge52" class="edge">
<title>Node40&#45;&gt;Node41</title>
<path fill="none" stroke="#191970" d="M2743.033,-190.4554C2773.1981,-180.149 2812.7808,-166.6249 2841.453,-156.8286"/>
<polygon fill="#191970" stroke="#191970" points="2842.7751,-160.0756 2851.1064,-153.5303 2840.5118,-153.4515 2842.7751,-160.0756"/>
</g>
<!-- Node42 -->
<g id="node43" class="node">
<title>Node42</title>
<polygon fill="none" stroke="#bfbfbf" points="2930.5,-134.5 2930.5,-153.5 2995.5,-153.5 2995.5,-134.5 2930.5,-134.5"/>
<text text-anchor="middle" x="2963" y="-141.5" font-family="Helvetica,sans-Serif" font-size="10.00" fill="#000000">stdexcept</text>
</g>
<!-- Node40&#45;&gt;Node42 -->
<g id="edge55" class="edge">
<title>Node40&#45;&gt;Node42</title>
<path fill="none" stroke="#191970" d="M2762.9714,-190.9453C2805.2247,-181.2811 2862.0807,-168.1811 2920.5562,-154.3259"/>
<polygon fill="#191970" stroke="#191970" points="2921.4133,-157.7197 2930.335,-152.0053 2919.7971,-150.9089 2921.4133,-157.7197"/>
</g>
<!-- Node43 -->
<g id="node44" class="node">
<title>Node43</title>
<polygon fill="none" stroke="#bfbfbf" points="2635,-134.5 2635,-153.5 2683,-153.5 2683,-134.5 2635,-134.5"/>
<text text-anchor="middle" x="2659" y="-141.5" font-family="Helvetica,sans-Serif" font-size="10.00" fill="#000000">gsl/gsl</text>
</g>
<!-- Node40&#45;&gt;Node43 -->
<g id="edge56" class="edge">
<title>Node40&#45;&gt;Node43</title>
<path fill="none" stroke="#191970" d="M2689.1124,-190.2977C2683.6178,-181.8498 2676.7414,-171.2773 2670.9473,-162.369"/>
<polygon fill="#191970" stroke="#191970" points="2673.7908,-160.3215 2665.4045,-153.8469 2667.9228,-164.1381 2673.7908,-160.3215"/>
</g>
<!-- Node44 -->
<g id="node45" class="node">
<title>Node44</title>
<polygon fill="none" stroke="#bfbfbf" points="2701,-134.5 2701,-153.5 2751,-153.5 2751,-134.5 2701,-134.5"/>
<text text-anchor="middle" x="2726" y="-141.5" font-family="Helvetica,sans-Serif" font-size="10.00" fill="#000000">cstring</text>
</g>
<!-- Node40&#45;&gt;Node44 -->
<g id="edge58" class="edge">
<title>Node40&#45;&gt;Node44</title>
<path fill="none" stroke="#191970" d="M2705.6742,-190.2977C2709.2659,-182.1166 2713.7324,-171.943 2717.5629,-163.2179"/>
<polygon fill="#191970" stroke="#191970" points="2720.8618,-164.4104 2721.677,-153.8469 2714.4522,-161.5964 2720.8618,-164.4104"/>
</g>
<!-- Node45 -->
<g id="node46" class="node">
<title>Node45</title>
<polygon fill="none" stroke="#bfbfbf" points="2769,-134.5 2769,-153.5 2827,-153.5 2827,-134.5 2769,-134.5"/>
<text text-anchor="middle" x="2798" y="-141.5" font-family="Helvetica,sans-Serif" font-size="10.00" fill="#000000">memory</text>
</g>
<!-- Node40&#45;&gt;Node45 -->
<g id="edge59" class="edge">
<title>Node40&#45;&gt;Node45</title>
<path fill="none" stroke="#191970" d="M2723.2181,-190.4554C2738.5773,-180.9141 2758.3757,-168.6151 2773.7425,-159.0691"/>
<polygon fill="#191970" stroke="#191970" points="2776.011,-161.7802 2782.6585,-153.5303 2772.3172,-155.8341 2776.011,-161.7802"/>
</g>
<!-- Node40&#45;&gt;Node46 -->
<g id="edge60" class="edge">
<title>Node40&#45;&gt;Node46</title>
<path fill="none" stroke="#191970" d="M2762.8119,-192.6059C2767.609,-191.702 2772.3786,-190.8237 2777,-190 2874.8409,-172.5614 2903.3403,-177.0499 3003.4269,-154.1231"/>
<polygon fill="#191970" stroke="#191970" points="3004.3938,-157.4917 3013.3409,-151.8171 3002.8079,-150.6737 3004.3938,-157.4917"/>
</g>
</g>
</svg>
        <g id="navigator" transform="translate(0 0)" fill="#404254">
                <rect fill="#f2f5e9" fill-opacity="0.5" stroke="#606060" stroke-width=".5" x="0" y="0" width="60" height="60"/>
                <use id="zoomplus" xlink:href="#zoomPlus" x="17" y="9" onmousedown="handleZoom(evt,'in')"/>
                <use id="zoomminus" xlink:href="#zoomMin" x="42" y="9" onmousedown="handleZoom(evt,'out')"/>
                <use id="reset" xlink:href="#resetDef" x="30" y="36" onmousedown="handleReset()"/>
                <g id="arrowUp" xlink:href="#dirArrow" transform="translate(30 24)" onmousedown="handlePan(0,-1)">
                  <use xlink:href="#rim" fill="#404040">
                        <set attributeName="fill" to="#808080" begin="arrowUp.mouseover" end="arrowUp.mouseout"/>
                  </use>
                  <path fill="none" stroke="white" stroke-width="1.5" d="M0,-3.0v7 M-2.5,-0.5L0,-3.0L2.5,-0.5"/>
                </g>
                <g id="arrowRight" xlink:href="#dirArrow" transform="rotate(90) translate(36 -43)" onmousedown="handlePan(1,0)">
                  <use xlink:href="#rim" fill="#404040">
                        <set attributeName="fill" to="#808080" begin="arrowRight.mouseover" end="arrowRight.mouseout"/>
                  </use>
                  <path fill="none" stroke="white" stroke-width="1.5" d="M0,-3.0v7 M-2.5,-0.5L0,-3.0L2.5,-0.5"/>
                </g>
                <g id="arrowDown" xlink:href="#dirArrow" transform="rotate(180) translate(-30 -48)" onmousedown="handlePan(0,1)">
                  <use xlink:href="#rim" fill="#404040">
                        <set attributeName="fill" to="#808080" begin="arrowDown.mouseover" end="arrowDown.mouseout"/>
                  </use>
                  <path fill="none" stroke="white" stroke-width="1.5" d="M0,-3.0v7 M-2.5,-0.5L0,-3.0L2.5,-0.5"/>
                </g>
                <g id="arrowLeft" xlink:href="#dirArrow" transform="rotate(270) translate(-36 17)" onmousedown="handlePan(-1,0)">
                  <use xlink:href="#rim" fill="#404040">
                        <set attributeName="fill" to="#808080" begin="arrowLeft.mouseover" end="arrowLeft.mouseout"/>
                  </use>
                  <path fill="none" stroke="white" stroke-width="1.5" d="M0,-3.0v7 M-2.5,-0.5L0,-3.0L2.5,-0.5"/>
                </g>
        </g>
        <svg viewBox="0 0 15 15" width="100%" height="30px" preserveAspectRatio="xMaxYMin meet">
         <g id="arrow_out" transform="scale(0.3 0.3)">
          <a xlink:href="ZDC_2simulation_2include_2ZDCSimulation_2Digitizer_8h__incl_org.svg" target="_base">
           <rect id="button" ry="5" rx="5" y="6" x="6" height="38" width="38"
                fill="#f2f5e9" fill-opacity="0.5" stroke="#606060" stroke-width="1.0"/>
           <path id="arrow"
             d="M 11.500037,31.436501 C 11.940474,20.09759 22.043105,11.32322 32.158766,21.979434 L 37.068811,17.246167 C 37.068811,17.246167 37.088388,32 37.088388,32 L 22.160133,31.978069 C 22.160133,31.978069 26.997745,27.140456 26.997745,27.140456 C 18.528582,18.264221 13.291696,25.230495 11.500037,31.436501 z"
             style="fill:#404040;"/>
          </a>
         </g>
        </svg>
</svg>
