<?xml version="1.0" encoding="UTF-8" standalone="no"?>
<!DOCTYPE svg PUBLIC "-//W3C//DTD SVG 1.1//EN"
 "http://www.w3.org/Graphics/SVG/1.1/DTD/svg11.dtd">
<!-- Generated by graphviz version 2.40.1 (20161225.0304)
 -->
<!-- Title: /home/travis/build/AliceO2Group/AliceO2/Detectors/ITSMFT/MFT/tracking/include/MFTTracking/ROframe.h Pages: 1 -->
<svg width="1758pt" height="318pt"
 viewBox="0.00 0.00 1757.70 318.00" xmlns="http://www.w3.org/2000/svg" xmlns:xlink="http://www.w3.org/1999/xlink">
<g id="graph0" class="graph" transform="scale(1 1) rotate(0) translate(4 314)">
<title>/home/travis/build/AliceO2Group/AliceO2/Detectors/ITSMFT/MFT/tracking/include/MFTTracking/ROframe.h</title>
<!-- Node0 -->
<g id="node1" class="node">
<title>Node0</title>
<polygon fill="#bfbfbf" stroke="#000000" points="910.5,-246.5 910.5,-309.5 1071.5,-309.5 1071.5,-246.5 910.5,-246.5"/>
<text text-anchor="start" x="918.5" y="-297.5" font-family="Helvetica,sans-Serif" font-size="10.00" fill="#000000">/home/travis/build</text>
<text text-anchor="start" x="918.5" y="-286.5" font-family="Helvetica,sans-Serif" font-size="10.00" fill="#000000">/AliceO2Group/AliceO2</text>
<text text-anchor="start" x="918.5" y="-275.5" font-family="Helvetica,sans-Serif" font-size="10.00" fill="#000000">/Detectors/ITSMFT/MFT</text>
<text text-anchor="start" x="918.5" y="-264.5" font-family="Helvetica,sans-Serif" font-size="10.00" fill="#000000">/tracking/include/MFTTracking</text>
<text text-anchor="middle" x="991" y="-253.5" font-family="Helvetica,sans-Serif" font-size="10.00" fill="#000000">/ROframe.h</text>
</g>
<!-- Node1 -->
<g id="node2" class="node">
<title>Node1</title>
<polygon fill="none" stroke="#bfbfbf" points="355,-56.5 355,-75.5 397,-75.5 397,-56.5 355,-56.5"/>
<text text-anchor="middle" x="376" y="-63.5" font-family="Helvetica,sans-Serif" font-size="10.00" fill="#000000">array</text>
</g>
<!-- Node0&#45;&gt;Node1 -->
<g id="edge1" class="edge">
<title>Node0&#45;&gt;Node1</title>
<path fill="none" stroke="#191970" d="M910.4856,-276.5372C728.8143,-272.4035 299.44,-257.6445 256,-210 214.17,-164.1214 301.3325,-106.6489 348.4586,-80.3431"/>
<polygon fill="#191970" stroke="#191970" points="350.204,-83.3778 357.2999,-75.5102 346.8465,-77.2356 350.204,-83.3778"/>
</g>
<!-- Node2 -->
<g id="node3" class="node">
<title>Node2</title>
<polygon fill="none" stroke="#bfbfbf" points="968.5,-.5 968.5,-19.5 1015.5,-19.5 1015.5,-.5 968.5,-.5"/>
<text text-anchor="middle" x="992" y="-7.5" font-family="Helvetica,sans-Serif" font-size="10.00" fill="#000000">vector</text>
</g>
<!-- Node0&#45;&gt;Node2 -->
<g id="edge2" class="edge">
<title>Node0&#45;&gt;Node2</title>
<path fill="none" stroke="#191970" d="M1022.5547,-246.2015C1031.8514,-235.4234 1041.3128,-222.8436 1048,-210 1076.2771,-155.6903 1073.7047,-136.9057 1080,-76 1080.9139,-67.1582 1084.6049,-63.6031 1080,-56 1068.1581,-36.4478 1044.9746,-24.8091 1025.3755,-18.1317"/>
<polygon fill="#191970" stroke="#191970" points="1026.409,-14.7878 1015.8206,-15.1578 1024.3287,-21.4715 1026.409,-14.7878"/>
</g>
<!-- Node3 -->
<g id="node4" class="node">
<title>Node3</title>
<polygon fill="none" stroke="#bfbfbf" points="1025.5,-56.5 1025.5,-75.5 1070.5,-75.5 1070.5,-56.5 1025.5,-56.5"/>
<text text-anchor="middle" x="1048" y="-63.5" font-family="Helvetica,sans-Serif" font-size="10.00" fill="#000000">utility</text>
</g>
<!-- Node0&#45;&gt;Node3 -->
<g id="edge3" class="edge">
<title>Node0&#45;&gt;Node3</title>
<path fill="none" stroke="#191970" d="M1009.672,-246.2866C1024.1702,-219.7169 1043.0934,-180.2577 1051,-143 1055.0673,-123.834 1053.4991,-101.3967 1051.4122,-85.7035"/>
<polygon fill="#191970" stroke="#191970" points="1054.8409,-84.9701 1049.8741,-75.6116 1047.9208,-86.0248 1054.8409,-84.9701"/>
</g>
<!-- Node4 -->
<g id="node5" class="node">
<title>Node4</title>
<polygon fill="none" stroke="#bfbfbf" points="1136,-118 1136,-137 1188,-137 1188,-118 1136,-118"/>
<text text-anchor="middle" x="1162" y="-125" font-family="Helvetica,sans-Serif" font-size="10.00" fill="#000000">cassert</text>
</g>
<!-- Node0&#45;&gt;Node4 -->
<g id="edge4" class="edge">
<title>Node0&#45;&gt;Node4</title>
<path fill="none" stroke="#191970" d="M1071.6869,-246.4213C1089.7769,-236.6905 1107.7934,-224.6004 1122,-210 1139.456,-192.06 1150.5598,-165.0303 1156.5286,-146.8473"/>
<polygon fill="#191970" stroke="#191970" points="1159.9429,-147.6509 1159.5257,-137.0643 1153.25,-145.6004 1159.9429,-147.6509"/>
</g>
<!-- Node5 -->
<g id="node6" class="node">
<title>Node5</title>
<polygon fill="none" stroke="#bfbfbf" points="1206,-118 1206,-137 1254,-137 1254,-118 1206,-118"/>
<text text-anchor="middle" x="1230" y="-125" font-family="Helvetica,sans-Serif" font-size="10.00" fill="#000000">gsl/gsl</text>
</g>
<!-- Node0&#45;&gt;Node5 -->
<g id="edge5" class="edge">
<title>Node0&#45;&gt;Node5</title>
<path fill="none" stroke="#191970" d="M1071.5683,-249.1997C1096.4352,-238.6193 1123.2449,-225.3981 1146,-210 1173.4963,-191.3936 1199.9153,-163.1877 1215.5557,-145.0531"/>
<polygon fill="#191970" stroke="#191970" points="1218.5418,-146.9422 1222.3253,-137.0459 1213.1963,-142.4228 1218.5418,-146.9422"/>
</g>
<!-- Node6 -->
<g id="node7" class="node">
<title>Node6</title>
<polygon fill="none" stroke="#bfbfbf" points="1465,-185 1465,-204 1503,-204 1503,-185 1465,-185"/>
<text text-anchor="middle" x="1484" y="-192" font-family="Helvetica,sans-Serif" font-size="10.00" fill="#000000">map</text>
</g>
<!-- Node0&#45;&gt;Node6 -->
<g id="edge6" class="edge">
<title>Node0&#45;&gt;Node6</title>
<path fill="none" stroke="#191970" d="M1071.6025,-274.9765C1165.977,-269.4564 1325.9319,-253.8833 1456,-210 1457.2438,-209.5804 1458.4965,-209.1062 1459.7458,-208.5911"/>
<polygon fill="#191970" stroke="#191970" points="1461.5896,-211.5865 1469.0545,-204.0681 1458.5304,-205.2904 1461.5896,-211.5865"/>
</g>
<!-- Node7 -->
<g id="node8" class="node">
<title>Node7</title>
<g id="a_node8"><a xlink:href="../../d5/df9/Detectors_2ITSMFT_2MFT_2tracking_2include_2MFTTracking_2Cluster_8h.html" target="_top" xlink:title="MFTTracking/Cluster.h">
<polygon fill="none" stroke="#000000" points="265,-185 265,-204 387,-204 387,-185 265,-185"/>
<text text-anchor="middle" x="326" y="-192" font-family="Helvetica,sans-Serif" font-size="10.00" fill="#000000">MFTTracking/Cluster.h</text>
</a>
</g>
</g>
<!-- Node0&#45;&gt;Node7 -->
<g id="edge7" class="edge">
<title>Node0&#45;&gt;Node7</title>
<path fill="none" stroke="#191970" d="M910.0472,-270.9715C796.0638,-260.5528 581.9559,-239.0675 401,-210 393.7798,-208.8402 386.2001,-207.4633 378.7488,-206.0161"/>
<polygon fill="#191970" stroke="#191970" points="379.2049,-202.5382 368.7132,-204.0129 377.8346,-209.4028 379.2049,-202.5382"/>
</g>
<!-- Node9 -->
<g id="node10" class="node">
<title>Node9</title>
<g id="a_node10"><a xlink:href="../../df/db8/Detectors_2ITSMFT_2MFT_2tracking_2include_2MFTTracking_2Constants_8h.html" target="_top" xlink:title="MFTTracking/Constants.h">
<polygon fill="none" stroke="#000000" points="557.5,-56.5 557.5,-75.5 694.5,-75.5 694.5,-56.5 557.5,-56.5"/>
<text text-anchor="middle" x="626" y="-63.5" font-family="Helvetica,sans-Serif" font-size="10.00" fill="#000000">MFTTracking/Constants.h</text>
</a>
</g>
</g>
<!-- Node0&#45;&gt;Node9 -->
<g id="edge21" class="edge">
<title>Node0&#45;&gt;Node9</title>
<path fill="none" stroke="#191970" d="M910.4741,-271.723C766.9585,-258.597 476.7364,-222.6118 421,-143 413.0982,-131.7133 412.39,-122.7561 421,-112 436.9203,-92.1114 496.5031,-80.2315 547.359,-73.5418"/>
<polygon fill="#191970" stroke="#191970" points="547.9164,-76.9993 557.3983,-72.2723 547.0381,-70.0546 547.9164,-76.9993"/>
</g>
<!-- Node16 -->
<g id="node17" class="node">
<title>Node16</title>
<g id="a_node17"><a xlink:href="../../d1/d96/Detectors_2ITSMFT_2MFT_2tracking_2include_2MFTTracking_2Cell_8h.html" target="_top" xlink:title="MFTTracking/Cell.h">
<polygon fill="none" stroke="#000000" points="934.5,-118 934.5,-137 1041.5,-137 1041.5,-118 934.5,-118"/>
<text text-anchor="middle" x="988" y="-125" font-family="Helvetica,sans-Serif" font-size="10.00" fill="#000000">MFTTracking/Cell.h</text>
</a>
</g>
</g>
<!-- Node0&#45;&gt;Node16 -->
<g id="edge22" class="edge">
<title>Node0&#45;&gt;Node16</title>
<path fill="none" stroke="#191970" d="M990.3711,-246.4503C989.7751,-216.5517 988.8984,-172.5677 988.3948,-147.3071"/>
<polygon fill="#191970" stroke="#191970" points="991.8908,-147.0644 988.1921,-137.1362 984.8922,-147.204 991.8908,-147.0644"/>
</g>
<!-- Node18 -->
<g id="node19" class="node">
<title>Node18</title>
<g id="a_node19"><a xlink:href="../../d9/da4/TrackCA_8h.html" target="_top" xlink:title="Standalone classes for the track found by the Linear&#45;Track&#45;Finder (LTF) and by the Cellular&#45;Automaton...">
<polygon fill="none" stroke="#000000" points="614,-185 614,-204 742,-204 742,-185 614,-185"/>
<text text-anchor="middle" x="678" y="-192" font-family="Helvetica,sans-Serif" font-size="10.00" fill="#000000">MFTTracking/TrackCA.h</text>
</a>
</g>
</g>
<!-- Node0&#45;&gt;Node18 -->
<g id="edge27" class="edge">
<title>Node0&#45;&gt;Node18</title>
<path fill="none" stroke="#191970" d="M910.3947,-256.4967C851.0393,-240.6622 772.4659,-219.701 723.5881,-206.6617"/>
<polygon fill="#191970" stroke="#191970" points="724.1908,-203.2001 713.6265,-204.0042 722.3864,-209.9636 724.1908,-203.2001"/>
</g>
<!-- Node19 -->
<g id="node20" class="node">
<title>Node19</title>
<g id="a_node20"><a xlink:href="../../d7/dcd/MCCompLabel_8h.html" target="_top" xlink:title="SimulationDataFormat\l/MCCompLabel.h">
<polygon fill="none" stroke="#000000" points="750.5,-112.5 750.5,-142.5 877.5,-142.5 877.5,-112.5 750.5,-112.5"/>
<text text-anchor="start" x="758.5" y="-130.5" font-family="Helvetica,sans-Serif" font-size="10.00" fill="#000000">SimulationDataFormat</text>
<text text-anchor="middle" x="814" y="-119.5" font-family="Helvetica,sans-Serif" font-size="10.00" fill="#000000">/MCCompLabel.h</text>
</a>
</g>
</g>
<!-- Node0&#45;&gt;Node19 -->
<g id="edge38" class="edge">
<title>Node0&#45;&gt;Node19</title>
<path fill="none" stroke="#191970" d="M910.319,-255.6312C885.2611,-245.2663 859.4152,-230.5473 841,-210 826.7731,-194.1259 820.025,-170.6078 816.8345,-152.7387"/>
<polygon fill="#191970" stroke="#191970" points="820.2736,-152.074 815.3049,-142.7166 813.3538,-153.1302 820.2736,-152.074"/>
</g>
<!-- Node22 -->
<g id="node23" class="node">
<title>Node22</title>
<g id="a_node23"><a xlink:href="../../d8/d7a/MFT_2tracking_2include_2MFTTracking_2Road_8h.html" target="_top" xlink:title="MFTTracking/Road.h">
<polygon fill="none" stroke="#000000" points="849.5,-185 849.5,-204 962.5,-204 962.5,-185 849.5,-185"/>
<text text-anchor="middle" x="906" y="-192" font-family="Helvetica,sans-Serif" font-size="10.00" fill="#000000">MFTTracking/Road.h</text>
</a>
</g>
</g>
<!-- Node0&#45;&gt;Node22 -->
<g id="edge34" class="edge">
<title>Node0&#45;&gt;Node22</title>
<path fill="none" stroke="#191970" d="M958.8651,-246.4322C946.727,-234.5083 933.3877,-221.4043 923.1451,-211.3426"/>
<polygon fill="#191970" stroke="#191970" points="925.574,-208.8223 915.9875,-204.3112 920.6685,-213.8159 925.574,-208.8223"/>
</g>
<!-- Node23 -->
<g id="node24" class="node">
<title>Node23</title>
<g id="a_node24"><a xlink:href="../../db/d14/MCTruthContainer_8h.html" target="_top" xlink:title="Definition of a container to keep Monte Carlo truth external to simulation objects. ">
<polygon fill="none" stroke="#000000" points="1319.5,-179.5 1319.5,-209.5 1446.5,-209.5 1446.5,-179.5 1319.5,-179.5"/>
<text text-anchor="start" x="1327.5" y="-197.5" font-family="Helvetica,sans-Serif" font-size="10.00" fill="#000000">SimulationDataFormat</text>
<text text-anchor="middle" x="1383" y="-186.5" font-family="Helvetica,sans-Serif" font-size="10.00" fill="#000000">/MCTruthContainer.h</text>
</a>
</g>
</g>
<!-- Node0&#45;&gt;Node23 -->
<g id="edge39" class="edge">
<title>Node0&#45;&gt;Node23</title>
<path fill="none" stroke="#191970" d="M1071.7473,-260.8C1141.5648,-245.9282 1241.6424,-224.6106 1309.3144,-210.1958"/>
<polygon fill="#191970" stroke="#191970" points="1310.4202,-213.5389 1319.4715,-208.0322 1308.9618,-206.6924 1310.4202,-213.5389"/>
</g>
<!-- Node7&#45;&gt;Node1 -->
<g id="edge8" class="edge">
<title>Node7&#45;&gt;Node1</title>
<path fill="none" stroke="#191970" d="M323.178,-184.8181C319.0698,-168.8384 313.0542,-136.2967 324,-112 329.5697,-99.6369 340.2863,-89.2563 350.5506,-81.5033"/>
<polygon fill="#191970" stroke="#191970" points="352.7618,-84.2277 358.9433,-75.623 348.7451,-78.4948 352.7618,-84.2277"/>
</g>
<!-- Node8 -->
<g id="node9" class="node">
<title>Node8</title>
<g id="a_node9"><a xlink:href="../../df/d8e/MFT_2tracking_2include_2MFTTracking_2IndexTableUtils_8h.html" target="_top" xlink:title="MFTTracking/IndexTableUtils.h">
<polygon fill="none" stroke="#000000" points="442,-118 442,-137 606,-137 606,-118 442,-118"/>
<text text-anchor="middle" x="524" y="-125" font-family="Helvetica,sans-Serif" font-size="10.00" fill="#000000">MFTTracking/IndexTableUtils.h</text>
</a>
</g>
</g>
<!-- Node7&#45;&gt;Node8 -->
<g id="edge9" class="edge">
<title>Node7&#45;&gt;Node8</title>
<path fill="none" stroke="#191970" d="M354.3686,-184.9005C388.9207,-173.2086 447.4237,-153.4122 485.8847,-140.3976"/>
<polygon fill="#191970" stroke="#191970" points="487.3335,-143.6024 495.6841,-137.0817 485.0898,-136.9717 487.3335,-143.6024"/>
</g>
<!-- Node13 -->
<g id="node14" class="node">
<title>Node13</title>
<g id="a_node14"><a xlink:href="../../df/d21/GPUCommonDef_8h.html" target="_top" xlink:title="GPUCommonDef.h">
<polygon fill="none" stroke="#000000" points="101.5,-118 101.5,-137 208.5,-137 208.5,-118 101.5,-118"/>
<text text-anchor="middle" x="155" y="-125" font-family="Helvetica,sans-Serif" font-size="10.00" fill="#000000">GPUCommonDef.h</text>
</a>
</g>
</g>
<!-- Node7&#45;&gt;Node13 -->
<g id="edge18" class="edge">
<title>Node7&#45;&gt;Node13</title>
<path fill="none" stroke="#191970" d="M301.4999,-184.9005C271.9133,-173.3082 221.9926,-153.7486 188.7695,-140.7313"/>
<polygon fill="#191970" stroke="#191970" points="190.0424,-137.471 179.4547,-137.0817 187.4887,-143.9886 190.0424,-137.471"/>
</g>
<!-- Node8&#45;&gt;Node1 -->
<g id="edge10" class="edge">
<title>Node8&#45;&gt;Node1</title>
<path fill="none" stroke="#191970" d="M500.875,-117.8906C475.4215,-107.3137 434.4032,-90.2689 406.3736,-78.6214"/>
<polygon fill="#191970" stroke="#191970" points="407.6252,-75.3514 397.0476,-74.7461 404.939,-81.8156 407.6252,-75.3514"/>
</g>
<!-- Node8&#45;&gt;Node2 -->
<g id="edge12" class="edge">
<title>Node8&#45;&gt;Node2</title>
<path fill="none" stroke="#191970" d="M565.2278,-117.9292C601.9716,-108.8626 656.9065,-93.9786 703,-76 721.5174,-68.7774 724.1527,-62.312 743,-56 817.7583,-30.9631 909.9746,-18.43 958.4993,-13.1689"/>
<polygon fill="#191970" stroke="#191970" points="958.8702,-16.6493 968.451,-12.1262 958.1407,-9.6875 958.8702,-16.6493"/>
</g>
<!-- Node8&#45;&gt;Node3 -->
<g id="edge11" class="edge">
<title>Node8&#45;&gt;Node3</title>
<path fill="none" stroke="#191970" d="M576.3576,-117.9513C588.9848,-115.8231 602.4536,-113.6973 615,-112 773.47,-90.5618 814.1683,-94.5698 973,-76 986.8983,-74.3751 1002.2161,-72.371 1015.3657,-70.5846"/>
<polygon fill="#191970" stroke="#191970" points="1015.947,-74.0377 1025.378,-69.2101 1014.9949,-67.1028 1015.947,-74.0377"/>
</g>
<!-- Node8&#45;&gt;Node9 -->
<g id="edge13" class="edge">
<title>Node8&#45;&gt;Node9</title>
<path fill="none" stroke="#191970" d="M539.9375,-117.8906C556.4051,-107.9616 582.3258,-92.333 601.4204,-80.8201"/>
<polygon fill="#191970" stroke="#191970" points="603.4178,-83.7027 610.1744,-75.5419 599.8034,-77.7081 603.4178,-83.7027"/>
</g>
<!-- Node9&#45;&gt;Node2 -->
<g id="edge15" class="edge">
<title>Node9&#45;&gt;Node2</title>
<path fill="none" stroke="#191970" d="M688.5018,-56.4369C766.4748,-44.5066 896.9872,-24.5375 958.2767,-15.1598"/>
<polygon fill="#191970" stroke="#191970" points="958.8396,-18.6145 968.1952,-13.6423 957.7808,-11.6951 958.8396,-18.6145"/>
</g>
<!-- Node10 -->
<g id="node11" class="node">
<title>Node10</title>
<polygon fill="none" stroke="#bfbfbf" points="472,-.5 472,-19.5 522,-19.5 522,-.5 472,-.5"/>
<text text-anchor="middle" x="497" y="-7.5" font-family="Helvetica,sans-Serif" font-size="10.00" fill="#000000">climits</text>
</g>
<!-- Node9&#45;&gt;Node10 -->
<g id="edge14" class="edge">
<title>Node9&#45;&gt;Node10</title>
<path fill="none" stroke="#191970" d="M603.8241,-56.3733C583.0234,-47.3435 551.7083,-33.7494 528.3542,-23.6111"/>
<polygon fill="#191970" stroke="#191970" points="529.4532,-20.2727 518.8865,-19.5011 526.6657,-26.6938 529.4532,-20.2727"/>
</g>
<!-- Node11 -->
<g id="node12" class="node">
<title>Node11</title>
<polygon fill="none" stroke="#bfbfbf" points="763.5,-.5 763.5,-19.5 822.5,-19.5 822.5,-.5 763.5,-.5"/>
<text text-anchor="middle" x="793" y="-7.5" font-family="Helvetica,sans-Serif" font-size="10.00" fill="#000000">Rtypes.h</text>
</g>
<!-- Node9&#45;&gt;Node11 -->
<g id="edge16" class="edge">
<title>Node9&#45;&gt;Node11</title>
<path fill="none" stroke="#191970" d="M654.7083,-56.3733C682.3577,-47.1016 724.3576,-33.0178 754.8166,-22.804"/>
<polygon fill="#191970" stroke="#191970" points="756.2979,-25.9989 764.6663,-19.5011 754.0724,-19.3621 756.2979,-25.9989"/>
</g>
<!-- Node12 -->
<g id="node13" class="node">
<title>Node12</title>
<g id="a_node13"><a xlink:href="../../d6/d84/MathConstants_8h.html" target="_top" xlink:title="useful math constants ">
<polygon fill="none" stroke="#000000" points="540,-.5 540,-19.5 734,-19.5 734,-.5 540,-.5"/>
<text text-anchor="middle" x="637" y="-7.5" font-family="Helvetica,sans-Serif" font-size="10.00" fill="#000000">CommonConstants/MathConstants.h</text>
</a>
</g>
</g>
<!-- Node9&#45;&gt;Node12 -->
<g id="edge17" class="edge">
<title>Node9&#45;&gt;Node12</title>
<path fill="none" stroke="#191970" d="M627.9161,-56.2455C629.3514,-48.9382 631.3636,-38.6944 633.1295,-29.7046"/>
<polygon fill="#191970" stroke="#191970" points="636.6127,-30.1298 635.1059,-19.6427 629.744,-28.7805 636.6127,-30.1298"/>
</g>
<!-- Node14 -->
<g id="node15" class="node">
<title>Node14</title>
<g id="a_node15"><a xlink:href="../../d5/d93/GPUCommonDefSettings_8h.html" target="_top" xlink:title="GPUCommonDefSettings.h">
<polygon fill="none" stroke="#000000" points="0,-56.5 0,-75.5 148,-75.5 148,-56.5 0,-56.5"/>
<text text-anchor="middle" x="74" y="-63.5" font-family="Helvetica,sans-Serif" font-size="10.00" fill="#000000">GPUCommonDefSettings.h</text>
</a>
</g>
</g>
<!-- Node13&#45;&gt;Node14 -->
<g id="edge19" class="edge">
<title>Node13&#45;&gt;Node14</title>
<path fill="none" stroke="#191970" d="M142.3438,-117.8906C129.6232,-108.2324 109.7996,-93.1812 94.7716,-81.771"/>
<polygon fill="#191970" stroke="#191970" points="96.6484,-78.8015 86.5674,-75.5419 92.4154,-84.3766 96.6484,-78.8015"/>
</g>
<!-- Node15 -->
<g id="node16" class="node">
<title>Node15</title>
<g id="a_node16"><a xlink:href="../../da/d5a/GPUCommonDefAPI_8h.html" target="_top" xlink:title="GPUCommonDefAPI.h">
<polygon fill="none" stroke="#000000" points="166,-56.5 166,-75.5 290,-75.5 290,-56.5 166,-56.5"/>
<text text-anchor="middle" x="228" y="-63.5" font-family="Helvetica,sans-Serif" font-size="10.00" fill="#000000">GPUCommonDefAPI.h</text>
</a>
</g>
</g>
<!-- Node13&#45;&gt;Node15 -->
<g id="edge20" class="edge">
<title>Node13&#45;&gt;Node15</title>
<path fill="none" stroke="#191970" d="M166.4063,-117.8906C177.6969,-108.3786 195.1967,-93.6357 208.6619,-82.2917"/>
<polygon fill="#191970" stroke="#191970" points="211.0402,-84.8646 216.4329,-75.7449 206.5301,-79.5111 211.0402,-84.8646"/>
</g>
<!-- Node16&#45;&gt;Node1 -->
<g id="edge23" class="edge">
<title>Node16&#45;&gt;Node1</title>
<path fill="none" stroke="#191970" d="M934.359,-118.6302C919.0838,-116.2778 902.409,-113.8741 887,-112 706.2763,-90.02 488.4056,-73.8157 407.9,-68.1752"/>
<polygon fill="#191970" stroke="#191970" points="407.6889,-64.6521 397.4701,-67.4499 407.2032,-71.6352 407.6889,-64.6521"/>
</g>
<!-- Node16&#45;&gt;Node2 -->
<g id="edge24" class="edge">
<title>Node16&#45;&gt;Node2</title>
<path fill="none" stroke="#191970" d="M988.3273,-117.8845C988.9807,-98.6913 990.4583,-55.286 991.3271,-29.7663"/>
<polygon fill="#191970" stroke="#191970" points="994.8258,-29.8617 991.6681,-19.7484 987.8298,-29.6235 994.8258,-29.8617"/>
</g>
<!-- Node16&#45;&gt;Node9 -->
<g id="edge26" class="edge">
<title>Node16&#45;&gt;Node9</title>
<path fill="none" stroke="#191970" d="M948.1847,-117.9413C938.9564,-115.8603 929.1563,-113.7577 920,-112 847.3381,-98.0514 763.9634,-85.313 704.6026,-76.7962"/>
<polygon fill="#191970" stroke="#191970" points="704.9425,-73.3093 694.5482,-75.3611 703.9533,-80.2391 704.9425,-73.3093"/>
</g>
<!-- Node17 -->
<g id="node18" class="node">
<title>Node17</title>
<polygon fill="none" stroke="#bfbfbf" points="904,-56.5 904,-75.5 964,-75.5 964,-56.5 904,-56.5"/>
<text text-anchor="middle" x="934" y="-63.5" font-family="Helvetica,sans-Serif" font-size="10.00" fill="#000000">iostream</text>
</g>
<!-- Node16&#45;&gt;Node17 -->
<g id="edge25" class="edge">
<title>Node16&#45;&gt;Node17</title>
<path fill="none" stroke="#191970" d="M979.5625,-117.8906C971.4469,-108.6478 958.9945,-94.466 949.1576,-83.2628"/>
<polygon fill="#191970" stroke="#191970" points="951.7846,-80.95 942.5565,-75.7449 946.5245,-85.5686 951.7846,-80.95"/>
</g>
<!-- Node18&#45;&gt;Node1 -->
<g id="edge28" class="edge">
<title>Node18&#45;&gt;Node1</title>
<path fill="none" stroke="#191970" d="M613.7486,-187.6886C548.0079,-179.6694 451.3263,-164.643 421,-143 401.1811,-128.8558 388.7307,-103.0339 382.0746,-85.2179"/>
<polygon fill="#191970" stroke="#191970" points="385.3141,-83.8764 378.7389,-75.5688 378.6983,-86.1635 385.3141,-83.8764"/>
</g>
<!-- Node18&#45;&gt;Node9 -->
<g id="edge32" class="edge">
<title>Node18&#45;&gt;Node9</title>
<path fill="none" stroke="#191970" d="M613.9257,-189.9934C549.1177,-183.9439 455.3921,-170.5884 433,-143 397.1036,-98.7736 478.9068,-79.811 546.8765,-71.7722"/>
<polygon fill="#191970" stroke="#191970" points="547.6667,-75.2059 557.217,-70.6187 546.8905,-68.249 547.6667,-75.2059"/>
</g>
<!-- Node18&#45;&gt;Node19 -->
<g id="edge29" class="edge">
<title>Node18&#45;&gt;Node19</title>
<path fill="none" stroke="#191970" d="M697.4855,-184.9005C717.5023,-175.0393 749.2218,-159.4128 774.5142,-146.9526"/>
<polygon fill="#191970" stroke="#191970" points="776.0843,-150.0808 783.5081,-142.5218 772.9908,-143.8014 776.0843,-150.0808"/>
</g>
<!-- Node21 -->
<g id="node22" class="node">
<title>Node21</title>
<polygon fill="none" stroke="#bfbfbf" points="624,-118 624,-137 732,-137 732,-118 624,-118"/>
<text text-anchor="middle" x="678" y="-125" font-family="Helvetica,sans-Serif" font-size="10.00" fill="#000000">fairlogger/Logger.h</text>
</g>
<!-- Node18&#45;&gt;Node21 -->
<g id="edge33" class="edge">
<title>Node18&#45;&gt;Node21</title>
<path fill="none" stroke="#191970" d="M678,-184.9005C678,-175.149 678,-159.7597 678,-147.3695"/>
<polygon fill="#191970" stroke="#191970" points="681.5001,-147.0816 678,-137.0817 674.5001,-147.0817 681.5001,-147.0816"/>
</g>
<!-- Node20 -->
<g id="node21" class="node">
<title>Node20</title>
<g id="a_node21"><a xlink:href="../../d2/d45/GPUCommonRtypes_8h.html" target="_top" xlink:title="GPUCommonRtypes.h">
<polygon fill="none" stroke="#000000" points="751.5,-56.5 751.5,-75.5 876.5,-75.5 876.5,-56.5 751.5,-56.5"/>
<text text-anchor="middle" x="814" y="-63.5" font-family="Helvetica,sans-Serif" font-size="10.00" fill="#000000">GPUCommonRtypes.h</text>
</a>
</g>
</g>
<!-- Node19&#45;&gt;Node20 -->
<g id="edge30" class="edge">
<title>Node19&#45;&gt;Node20</title>
<path fill="none" stroke="#191970" d="M814,-112.2977C814,-104.3834 814,-94.6043 814,-86.0759"/>
<polygon fill="#191970" stroke="#191970" points="817.5001,-85.8469 814,-75.8469 810.5001,-85.847 817.5001,-85.8469"/>
</g>
<!-- Node20&#45;&gt;Node11 -->
<g id="edge31" class="edge">
<title>Node20&#45;&gt;Node11</title>
<path fill="none" stroke="#191970" d="M810.3421,-56.2455C807.5416,-48.7776 803.591,-38.2427 800.1676,-29.1137"/>
<polygon fill="#191970" stroke="#191970" points="803.4045,-27.777 796.616,-19.6427 796.8501,-30.2349 803.4045,-27.777"/>
</g>
<!-- Node22&#45;&gt;Node9 -->
<g id="edge36" class="edge">
<title>Node22&#45;&gt;Node9</title>
<path fill="none" stroke="#191970" d="M906.8848,-184.9832C907.915,-167.7395 907.3589,-131.3288 887,-112 873.7545,-99.4247 776.5333,-84.7527 704.6024,-75.4226"/>
<polygon fill="#191970" stroke="#191970" points="704.9962,-71.9445 694.6318,-74.1423 704.1046,-78.8875 704.9962,-71.9445"/>
</g>
<!-- Node22&#45;&gt;Node16 -->
<g id="edge35" class="edge">
<title>Node22&#45;&gt;Node16</title>
<path fill="none" stroke="#191970" d="M917.7486,-184.9005C930.9011,-174.1539 952.4336,-156.5603 968.1983,-143.6794"/>
<polygon fill="#191970" stroke="#191970" points="970.7439,-146.1193 976.2732,-137.0817 966.3148,-140.6986 970.7439,-146.1193"/>
</g>
<!-- Node22&#45;&gt;Node19 -->
<g id="edge37" class="edge">
<title>Node22&#45;&gt;Node19</title>
<path fill="none" stroke="#191970" d="M892.8186,-184.9005C879.8718,-175.4718 859.6876,-160.7725 842.9863,-148.6096"/>
<polygon fill="#191970" stroke="#191970" points="844.7709,-145.5795 834.6269,-142.5218 840.65,-151.238 844.7709,-145.5795"/>
</g>
<!-- Node23&#45;&gt;Node2 -->
<g id="edge48" class="edge">
<title>Node23&#45;&gt;Node2</title>
<path fill="none" stroke="#191970" d="M1446.6439,-180.6752C1449.8032,-180.0867 1452.9351,-179.5244 1456,-179 1580.4211,-157.7112 1814.9401,-207.1566 1732,-112 1684.7662,-57.809 1164.2458,-20.9739 1025.7054,-12.0816"/>
<polygon fill="#191970" stroke="#191970" points="1025.8724,-8.5852 1015.6705,-11.4437 1025.4283,-15.5711 1025.8724,-8.5852"/>
</g>
<!-- Node23&#45;&gt;Node4 -->
<g id="edge42" class="edge">
<title>Node23&#45;&gt;Node4</title>
<path fill="none" stroke="#191970" d="M1319.8601,-179.4746C1283.5197,-170.2188 1237.2251,-157.388 1197,-143 1195.1697,-142.3453 1193.3008,-141.6379 1191.4259,-140.8984"/>
<polygon fill="#191970" stroke="#191970" points="1192.73,-137.6501 1182.1535,-137.028 1190.0336,-144.1099 1192.73,-137.6501"/>
</g>
<!-- Node23&#45;&gt;Node5 -->
<g id="edge44" class="edge">
<title>Node23&#45;&gt;Node5</title>
<path fill="none" stroke="#191970" d="M1347.7748,-179.4667C1324.049,-169.2892 1292.0814,-155.476 1264,-143 1262.7995,-142.4666 1261.5762,-141.9207 1260.3411,-141.3674"/>
<polygon fill="#191970" stroke="#191970" points="1261.3835,-137.9979 1250.8291,-137.0724 1258.5027,-144.3776 1261.3835,-137.9979"/>
</g>
<!-- Node24 -->
<g id="node25" class="node">
<title>Node24</title>
<polygon fill="none" stroke="#bfbfbf" points="1272.5,-118 1272.5,-137 1339.5,-137 1339.5,-118 1272.5,-118"/>
<text text-anchor="middle" x="1306" y="-125" font-family="Helvetica,sans-Serif" font-size="10.00" fill="#000000">TNamed.h</text>
</g>
<!-- Node23&#45;&gt;Node24 -->
<g id="edge40" class="edge">
<title>Node23&#45;&gt;Node24</title>
<path fill="none" stroke="#191970" d="M1365.5275,-179.2967C1353.2976,-168.6551 1336.9841,-154.4602 1324.5279,-143.6217"/>
<polygon fill="#191970" stroke="#191970" points="1326.8225,-140.9788 1316.9811,-137.055 1322.2276,-146.2596 1326.8225,-140.9788"/>
</g>
<!-- Node25 -->
<g id="node26" class="node">
<title>Node25</title>
<polygon fill="none" stroke="#bfbfbf" points="1358,-118 1358,-137 1408,-137 1408,-118 1358,-118"/>
<text text-anchor="middle" x="1383" y="-125" font-family="Helvetica,sans-Serif" font-size="10.00" fill="#000000">cstdint</text>
</g>
<!-- Node23&#45;&gt;Node25 -->
<g id="edge41" class="edge">
<title>Node23&#45;&gt;Node25</title>
<path fill="none" stroke="#191970" d="M1383,-179.2967C1383,-169.7699 1383,-157.3954 1383,-147.1306"/>
<polygon fill="#191970" stroke="#191970" points="1386.5001,-147.0549 1383,-137.055 1379.5001,-147.055 1386.5001,-147.0549"/>
</g>
<!-- Node26 -->
<g id="node27" class="node">
<title>Node26</title>
<polygon fill="none" stroke="#bfbfbf" points="1426.5,-118 1426.5,-137 1491.5,-137 1491.5,-118 1426.5,-118"/>
<text text-anchor="middle" x="1459" y="-125" font-family="Helvetica,sans-Serif" font-size="10.00" fill="#000000">stdexcept</text>
</g>
<!-- Node23&#45;&gt;Node26 -->
<g id="edge43" class="edge">
<title>Node23&#45;&gt;Node26</title>
<path fill="none" stroke="#191970" d="M1400.2456,-179.2967C1412.2017,-168.7564 1428.1119,-154.7303 1440.3604,-143.9323"/>
<polygon fill="#191970" stroke="#191970" points="1442.9748,-146.2934 1448.1615,-137.055 1438.3457,-141.0425 1442.9748,-146.2934"/>
</g>
<!-- Node27 -->
<g id="node28" class="node">
<title>Node27</title>
<polygon fill="none" stroke="#bfbfbf" points="1509.5,-118 1509.5,-137 1578.5,-137 1578.5,-118 1509.5,-118"/>
<text text-anchor="middle" x="1544" y="-125" font-family="Helvetica,sans-Serif" font-size="10.00" fill="#000000">type_traits</text>
</g>
<!-- Node23&#45;&gt;Node27 -->
<g id="edge45" class="edge">
<title>Node23&#45;&gt;Node27</title>
<path fill="none" stroke="#191970" d="M1419.1315,-179.4639C1446.8754,-167.9183 1484.8443,-152.1176 1511.6082,-140.9798"/>
<polygon fill="#191970" stroke="#191970" points="1513.0342,-144.1774 1520.9219,-137.1039 1510.3447,-137.7147 1513.0342,-144.1774"/>
</g>
<!-- Node28 -->
<g id="node29" class="node">
<title>Node28</title>
<polygon fill="none" stroke="#bfbfbf" points="1597,-118 1597,-137 1647,-137 1647,-118 1597,-118"/>
<text text-anchor="middle" x="1622" y="-125" font-family="Helvetica,sans-Serif" font-size="10.00" fill="#000000">cstring</text>
</g>
<!-- Node23&#45;&gt;Node28 -->
<g id="edge46" class="edge">
<title>Node23&#45;&gt;Node28</title>
<path fill="none" stroke="#191970" d="M1446.7277,-179.826C1496.7667,-168.0549 1562.1552,-152.0531 1588,-143 1589.6416,-142.425 1591.3123,-141.8004 1592.988,-141.1429"/>
<polygon fill="#191970" stroke="#191970" points="1594.6239,-144.2513 1602.472,-137.1338 1591.8984,-137.8036 1594.6239,-144.2513"/>
</g>
<!-- Node29 -->
<g id="node30" class="node">
<title>Node29</title>
<polygon fill="none" stroke="#bfbfbf" points="1665,-118 1665,-137 1723,-137 1723,-118 1665,-118"/>
<text text-anchor="middle" x="1694" y="-125" font-family="Helvetica,sans-Serif" font-size="10.00" fill="#000000">memory</text>
</g>
<!-- Node23&#45;&gt;Node29 -->
<g id="edge47" class="edge">
<title>Node23&#45;&gt;Node29</title>
<path fill="none" stroke="#191970" d="M1446.6774,-180.8576C1449.8278,-180.2209 1452.9487,-179.5984 1456,-179 1544.6291,-161.6185 1569.2675,-168.1934 1656,-143 1658.3092,-142.3292 1660.67,-141.5659 1663.0287,-140.7461"/>
<polygon fill="#191970" stroke="#191970" points="1664.4505,-143.9507 1672.575,-137.1505 1661.9831,-137.4 1664.4505,-143.9507"/>
</g>
</g>
</svg>
