<?xml version="1.0" encoding="UTF-8" standalone="no"?>
<!DOCTYPE svg PUBLIC "-//W3C//DTD SVG 1.1//EN"
 "http://www.w3.org/Graphics/SVG/1.1/DTD/svg11.dtd">
<!-- Generated by graphviz version 2.40.1 (20161225.0304)
 -->
<!-- Title: /home/travis/build/AliceO2Group/AliceO2/Detectors/MUON/MID/Clustering/test/bench_Clusterizer.cxx Pages: 1 -->
<!--zoomable 363 -->
<svg id="main" version="1.1" xmlns="http://www.w3.org/2000/svg" xmlns:xlink="http://www.w3.org/1999/xlink" xml:space="preserve" onload="init(evt)">
<style type="text/css"><![CDATA[
.edge:hover path { stroke: red; }
.edge:hover polygon { stroke: red; fill: red; }
]]></style>
<script type="text/javascript"><![CDATA[
var edges = document.getElementsByTagName('g');
if (edges && edges.length) {
  for (var i=0;i<edges.length;i++) {
    if (edges[i].id.substr(0,4)=='edge') {
      edges[i].setAttribute('class','edge');
    }
  }
}
]]></script>
        <defs>
                <circle id="rim" cx="0" cy="0" r="7"/>
                <circle id="rim2" cx="0" cy="0" r="3.5"/>
                <g id="zoomPlus">
                        <use xlink:href="#rim" fill="#404040">
                                <set attributeName="fill" to="#808080" begin="zoomplus.mouseover" end="zoomplus.mouseout"/>
                        </use>
                        <path d="M-4,0h8M0,-4v8" fill="none" stroke="white" stroke-width="1.5" pointer-events="none"/>
                </g>
                <g id="zoomMin">
                        <use xlink:href="#rim" fill="#404040">
                                <set attributeName="fill" to="#808080" begin="zoomminus.mouseover" end="zoomminus.mouseout"/>
                        </use>
                        <path d="M-4,0h8" fill="none" stroke="white" stroke-width="1.5" pointer-events="none"/>
                </g>
                <g id="dirArrow">
                        <path fill="none" stroke="white" stroke-width="1.5" d="M0,-3.0v7 M-2.5,-0.5L0,-3.0L2.5,-0.5"/>
                </g>
               <g id="resetDef">
                       <use xlink:href="#rim2" fill="#404040">
                               <set attributeName="fill" to="#808080" begin="reset.mouseover" end="reset.mouseout"/>
                       </use>
               </g>
        </defs>

<script type="text/javascript">
var viewWidth = 1271;
var viewHeight = 363;
var sectionId = 'dynsection-0';
</script>
<script xlink:href="../../svgpan.js"/>
<svg id="graph" class="graph">
<g id="viewport">
<title>/home/travis/build/AliceO2Group/AliceO2/Detectors/MUON/MID/Clustering/test/bench_Clusterizer.cxx</title>
<!-- Node0 -->
<g id="node1" class="node">
<title>Node0</title>
<polygon fill="#bfbfbf" stroke="#000000" points="335.5,-302.5 335.5,-354.5 510.5,-354.5 510.5,-302.5 335.5,-302.5"/>
<text text-anchor="start" x="343.5" y="-342.5" font-family="Helvetica,sans-Serif" font-size="10.00" fill="#000000">/home/travis/build</text>
<text text-anchor="start" x="343.5" y="-331.5" font-family="Helvetica,sans-Serif" font-size="10.00" fill="#000000">/AliceO2Group/AliceO2</text>
<text text-anchor="start" x="343.5" y="-320.5" font-family="Helvetica,sans-Serif" font-size="10.00" fill="#000000">/Detectors/MUON/MID/Clustering</text>
<text text-anchor="middle" x="423" y="-309.5" font-family="Helvetica,sans-Serif" font-size="10.00" fill="#000000">/test/bench_Clusterizer.cxx</text>
</g>
<!-- Node1 -->
<g id="node2" class="node">
<title>Node1</title>
<polygon fill="none" stroke="#bfbfbf" points="91,-246.5 91,-265.5 229,-265.5 229,-246.5 91,-246.5"/>
<text text-anchor="middle" x="160" y="-253.5" font-family="Helvetica,sans-Serif" font-size="10.00" fill="#000000">benchmark/benchmark.h</text>
</g>
<!-- Node0&#45;&gt;Node1 -->
<g id="edge1" class="edge">
<title>Node0&#45;&gt;Node1</title>
<path fill="none" stroke="#191970" d="M335.4248,-304.3585C291.4441,-292.2346 240.0574,-278.069 204.3134,-268.2157"/>
<polygon fill="#191970" stroke="#191970" points="205.2364,-264.8396 194.6658,-265.5562 203.3761,-271.5879 205.2364,-264.8396"/>
</g>
<!-- Node2 -->
<g id="node3" class="node">
<title>Node2</title>
<polygon fill="none" stroke="#bfbfbf" points="247,-246.5 247,-265.5 301,-265.5 301,-246.5 247,-246.5"/>
<text text-anchor="middle" x="274" y="-253.5" font-family="Helvetica,sans-Serif" font-size="10.00" fill="#000000">random</text>
</g>
<!-- Node0&#45;&gt;Node2 -->
<g id="edge2" class="edge">
<title>Node0&#45;&gt;Node2</title>
<path fill="none" stroke="#191970" d="M369.2076,-302.3258C346.7765,-291.4114 321.6248,-279.1731 302.8084,-270.0175"/>
<polygon fill="#191970" stroke="#191970" points="304.1174,-266.7622 293.594,-265.534 301.0547,-273.0566 304.1174,-266.7622"/>
</g>
<!-- Node3 -->
<g id="node4" class="node">
<title>Node3</title>
<polygon fill="none" stroke="#bfbfbf" points="802,-185 802,-204 850,-204 850,-185 802,-185"/>
<text text-anchor="middle" x="826" y="-192" font-family="Helvetica,sans-Serif" font-size="10.00" fill="#000000">gsl/gsl</text>
</g>
<!-- Node0&#45;&gt;Node3 -->
<g id="edge3" class="edge">
<title>Node0&#45;&gt;Node3</title>
<path fill="none" stroke="#191970" d="M510.8613,-303.4429C586.261,-281.1923 697.4042,-246.607 792,-210 793.5806,-209.3883 795.1926,-208.7401 796.8133,-208.0691"/>
<polygon fill="#191970" stroke="#191970" points="798.2471,-211.2624 806.0301,-204.0738 795.463,-204.8398 798.2471,-211.2624"/>
</g>
<!-- Node4 -->
<g id="node5" class="node">
<title>Node4</title>
<g id="a_node5"><a xlink:href="../../d4/d73/MID_2Base_2include_2MIDBase_2Mapping_8h.html" target="_top" xlink:title="Mapping for MID. ">
<polygon fill="none" stroke="#000000" points="1020.5,-118 1020.5,-137 1133.5,-137 1133.5,-118 1020.5,-118"/>
<text text-anchor="middle" x="1077" y="-125" font-family="Helvetica,sans-Serif" font-size="10.00" fill="#000000">MIDBase/Mapping.h</text>
</a>
</g>
</g>
<!-- Node0&#45;&gt;Node4 -->
<g id="edge4" class="edge">
<title>Node0&#45;&gt;Node4</title>
<path fill="none" stroke="#191970" d="M510.7224,-322.6234C714.2954,-308.0641 1205.0281,-267.3093 1251,-210 1284.8855,-167.7578 1206.2258,-145.9425 1143.879,-135.6164"/>
<polygon fill="#191970" stroke="#191970" points="1144.0643,-132.1023 1133.6403,-133.9971 1142.9708,-139.0163 1144.0643,-132.1023"/>
</g>
<!-- Node8 -->
<g id="node9" class="node">
<title>Node8</title>
<g id="a_node9"><a xlink:href="../../d3/d53/ColumnData_8h.html" target="_top" xlink:title="Strip pattern (aka digits) ">
<polygon fill="none" stroke="#000000" points="167.5,-185 167.5,-204 338.5,-204 338.5,-185 167.5,-185"/>
<text text-anchor="middle" x="253" y="-192" font-family="Helvetica,sans-Serif" font-size="10.00" fill="#000000">DataFormatsMID/ColumnData.h</text>
</a>
</g>
</g>
<!-- Node0&#45;&gt;Node8 -->
<g id="edge9" class="edge">
<title>Node0&#45;&gt;Node8</title>
<path fill="none" stroke="#191970" d="M389.8187,-302.3453C355.3168,-275.1497 302.3956,-233.4353 273.5258,-210.6792"/>
<polygon fill="#191970" stroke="#191970" points="275.4057,-207.7044 265.3854,-204.2626 271.0724,-213.2019 275.4057,-207.7044"/>
</g>
<!-- Node11 -->
<g id="node12" class="node">
<title>Node11</title>
<g id="a_node12"><a xlink:href="../../db/dfb/PreCluster_8h.html" target="_top" xlink:title="Pre&#45;cluster structure for MID. ">
<polygon fill="none" stroke="#000000" points="420,-118 420,-137 566,-137 566,-118 420,-118"/>
<text text-anchor="middle" x="493" y="-125" font-family="Helvetica,sans-Serif" font-size="10.00" fill="#000000">MIDClustering/PreCluster.h</text>
</a>
</g>
</g>
<!-- Node0&#45;&gt;Node11 -->
<g id="edge13" class="edge">
<title>Node0&#45;&gt;Node11</title>
<path fill="none" stroke="#191970" d="M402.3436,-302.1657C392.3701,-286.3432 383.4472,-265.5473 388,-246 395.5296,-213.6715 399.5203,-204.3071 421,-179 433.6006,-164.1542 451.3654,-151.3883 466.0958,-142.2802"/>
<polygon fill="#191970" stroke="#191970" points="468.0008,-145.2194 474.8022,-137.0959 464.4194,-139.2049 468.0008,-145.2194"/>
</g>
<!-- Node13 -->
<g id="node14" class="node">
<title>Node13</title>
<g id="a_node14"><a xlink:href="../../d7/d1a/PreClusterizer_8h.html" target="_top" xlink:title="Pre&#45;cluster reconstruction algorithm for MID. ">
<polygon fill="none" stroke="#000000" points="397,-246.5 397,-265.5 561,-265.5 561,-246.5 397,-246.5"/>
<text text-anchor="middle" x="479" y="-253.5" font-family="Helvetica,sans-Serif" font-size="10.00" fill="#000000">MIDClustering/PreClusterizer.h</text>
</a>
</g>
</g>
<!-- Node0&#45;&gt;Node13 -->
<g id="edge16" class="edge">
<title>Node0&#45;&gt;Node13</title>
<path fill="none" stroke="#191970" d="M443.2173,-302.3258C450.565,-292.8132 458.6893,-282.2951 465.3371,-273.6886"/>
<polygon fill="#191970" stroke="#191970" points="468.2928,-275.5876 471.6358,-265.534 462.7529,-271.3085 468.2928,-275.5876"/>
</g>
<!-- Node21 -->
<g id="node22" class="node">
<title>Node21</title>
<g id="a_node22"><a xlink:href="../../d5/d51/MUON_2MID_2Clustering_2include_2MIDClustering_2Clusterizer_8h.html" target="_top" xlink:title="Cluster reconstruction algorithm for MID. ">
<polygon fill="none" stroke="#000000" points="841.5,-246.5 841.5,-265.5 990.5,-265.5 990.5,-246.5 841.5,-246.5"/>
<text text-anchor="middle" x="916" y="-253.5" font-family="Helvetica,sans-Serif" font-size="10.00" fill="#000000">MIDClustering/Clusterizer.h</text>
</a>
</g>
</g>
<!-- Node0&#45;&gt;Node21 -->
<g id="edge30" class="edge">
<title>Node0&#45;&gt;Node21</title>
<path fill="none" stroke="#191970" d="M510.5704,-315.622C604.6196,-301.7912 752.4775,-280.0474 841.2509,-266.9925"/>
<polygon fill="#191970" stroke="#191970" points="841.8607,-270.4406 851.2451,-265.5228 840.8422,-263.5151 841.8607,-270.4406"/>
</g>
<!-- Node5 -->
<g id="node6" class="node">
<title>Node5</title>
<polygon fill="none" stroke="#bfbfbf" points="917,-.5 917,-19.5 959,-19.5 959,-.5 917,-.5"/>
<text text-anchor="middle" x="938" y="-7.5" font-family="Helvetica,sans-Serif" font-size="10.00" fill="#000000">array</text>
</g>
<!-- Node4&#45;&gt;Node5 -->
<g id="edge5" class="edge">
<title>Node4&#45;&gt;Node5</title>
<path fill="none" stroke="#191970" d="M1064.8344,-117.7332C1052.0808,-107.4529 1031.501,-90.7467 1014,-76 994.1549,-59.2781 971.76,-39.7479 956.4511,-26.2941"/>
<polygon fill="#191970" stroke="#191970" points="958.5546,-23.4829 948.7363,-19.5014 953.9287,-28.7367 958.5546,-23.4829"/>
</g>
<!-- Node6 -->
<g id="node7" class="node">
<title>Node6</title>
<polygon fill="none" stroke="#bfbfbf" points="912.5,-56.5 912.5,-75.5 959.5,-75.5 959.5,-56.5 912.5,-56.5"/>
<text text-anchor="middle" x="936" y="-63.5" font-family="Helvetica,sans-Serif" font-size="10.00" fill="#000000">vector</text>
</g>
<!-- Node4&#45;&gt;Node6 -->
<g id="edge6" class="edge">
<title>Node4&#45;&gt;Node6</title>
<path fill="none" stroke="#191970" d="M1054.9688,-117.8906C1031.3769,-107.6005 993.7499,-91.1888 967.1367,-79.5809"/>
<polygon fill="#191970" stroke="#191970" points="968.4419,-76.3318 957.8765,-75.5419 965.6433,-82.748 968.4419,-76.3318"/>
</g>
<!-- Node7 -->
<g id="node8" class="node">
<title>Node7</title>
<g id="a_node8"><a xlink:href="../../d7/d0a/MpArea_8h.html" target="_top" xlink:title="Mapping area for MID. ">
<polygon fill="none" stroke="#000000" points="1023,-56.5 1023,-75.5 1131,-75.5 1131,-56.5 1023,-56.5"/>
<text text-anchor="middle" x="1077" y="-63.5" font-family="Helvetica,sans-Serif" font-size="10.00" fill="#000000">MIDBase/MpArea.h</text>
</a>
</g>
</g>
<!-- Node4&#45;&gt;Node7 -->
<g id="edge7" class="edge">
<title>Node4&#45;&gt;Node7</title>
<path fill="none" stroke="#191970" d="M1077,-117.8906C1077,-109.3657 1077,-96.6392 1077,-85.9235"/>
<polygon fill="#191970" stroke="#191970" points="1080.5001,-85.7448 1077,-75.7449 1073.5001,-85.7449 1080.5001,-85.7448"/>
</g>
<!-- Node7&#45;&gt;Node5 -->
<g id="edge8" class="edge">
<title>Node7&#45;&gt;Node5</title>
<path fill="none" stroke="#191970" d="M1053.105,-56.3733C1029.8065,-46.9868 994.2658,-32.6682 968.844,-22.4263"/>
<polygon fill="#191970" stroke="#191970" points="969.8909,-19.0748 959.3074,-18.5843 967.275,-25.5677 969.8909,-19.0748"/>
</g>
<!-- Node8&#45;&gt;Node5 -->
<g id="edge12" class="edge">
<title>Node8&#45;&gt;Node5</title>
<path fill="none" stroke="#191970" d="M228.6005,-184.9684C175.6822,-163.0197 58.8553,-106.8835 107,-56 134.9749,-26.4337 757.682,-13.2748 906.34,-10.5485"/>
<polygon fill="#191970" stroke="#191970" points="906.658,-14.0434 916.5932,-10.3633 906.5316,-7.0446 906.658,-14.0434"/>
</g>
<!-- Node9 -->
<g id="node10" class="node">
<title>Node9</title>
<polygon fill="none" stroke="#bfbfbf" points="535,-56.5 535,-75.5 585,-75.5 585,-56.5 535,-56.5"/>
<text text-anchor="middle" x="560" y="-63.5" font-family="Helvetica,sans-Serif" font-size="10.00" fill="#000000">cstdint</text>
</g>
<!-- Node8&#45;&gt;Node9 -->
<g id="edge10" class="edge">
<title>Node8&#45;&gt;Node9</title>
<path fill="none" stroke="#191970" d="M281.2393,-184.9286C306.2665,-175.8617 343.3359,-160.9775 373,-143 391.64,-131.7035 391.788,-122.2936 411,-112 421.202,-106.5338 484.2614,-87.8442 525.0084,-76.0368"/>
<polygon fill="#191970" stroke="#191970" points="526.206,-79.334 534.8413,-73.1954 524.2627,-72.6091 526.206,-79.334"/>
</g>
<!-- Node10 -->
<g id="node11" class="node">
<title>Node10</title>
<polygon fill="none" stroke="#bfbfbf" points="0,-118 0,-137 60,-137 60,-118 0,-118"/>
<text text-anchor="middle" x="30" y="-125" font-family="Helvetica,sans-Serif" font-size="10.00" fill="#000000">iostream</text>
</g>
<!-- Node8&#45;&gt;Node10 -->
<g id="edge11" class="edge">
<title>Node8&#45;&gt;Node10</title>
<path fill="none" stroke="#191970" d="M217.4936,-184.9445C181.2436,-175.0345 123.4362,-158.8042 74,-143 71.4133,-142.1731 68.7493,-141.2968 66.0727,-140.3984"/>
<polygon fill="#191970" stroke="#191970" points="67.0346,-137.0282 56.4399,-137.0961 64.7645,-143.6499 67.0346,-137.0282"/>
</g>
<!-- Node11&#45;&gt;Node9 -->
<g id="edge14" class="edge">
<title>Node11&#45;&gt;Node9</title>
<path fill="none" stroke="#191970" d="M503.4688,-117.8906C513.7337,-108.4683 529.5903,-93.9134 541.9006,-82.6137"/>
<polygon fill="#191970" stroke="#191970" points="544.3834,-85.0856 549.3837,-75.7449 539.6499,-79.9287 544.3834,-85.0856"/>
</g>
<!-- Node12 -->
<g id="node13" class="node">
<title>Node12</title>
<polygon fill="none" stroke="#bfbfbf" points="619.5,-56.5 619.5,-75.5 676.5,-75.5 676.5,-56.5 619.5,-56.5"/>
<text text-anchor="middle" x="648" y="-63.5" font-family="Helvetica,sans-Serif" font-size="10.00" fill="#000000">ostream</text>
</g>
<!-- Node11&#45;&gt;Node12 -->
<g id="edge15" class="edge">
<title>Node11&#45;&gt;Node12</title>
<path fill="none" stroke="#191970" d="M517.2188,-117.8906C543.3806,-107.5103 585.2429,-90.9004 614.5388,-79.2766"/>
<polygon fill="#191970" stroke="#191970" points="615.9471,-82.4833 623.9513,-75.5419 613.3654,-75.9767 615.9471,-82.4833"/>
</g>
<!-- Node13&#45;&gt;Node3 -->
<g id="edge19" class="edge">
<title>Node13&#45;&gt;Node3</title>
<path fill="none" stroke="#191970" d="M561.0926,-250.2936C625.0321,-244.3366 715.4821,-232.5698 792,-210 793.96,-209.4219 795.9524,-208.7514 797.9396,-208.0199"/>
<polygon fill="#191970" stroke="#191970" points="799.7545,-211.0569 807.6578,-204.0009 797.0793,-204.5883 799.7545,-211.0569"/>
</g>
<!-- Node13&#45;&gt;Node4 -->
<g id="edge20" class="edge">
<title>Node13&#45;&gt;Node4</title>
<path fill="none" stroke="#191970" d="M478.4128,-246.3646C477.9837,-229.6979 479.8065,-195.675 500,-179 540.642,-145.4394 920.6224,-148.8886 973,-143 985.0466,-141.6456 997.8413,-139.951 1010.1856,-138.1837"/>
<polygon fill="#191970" stroke="#191970" points="1011.0336,-141.597 1020.4224,-136.6879 1010.0214,-134.6705 1011.0336,-141.597"/>
</g>
<!-- Node13&#45;&gt;Node6 -->
<g id="edge18" class="edge">
<title>Node13&#45;&gt;Node6</title>
<path fill="none" stroke="#191970" d="M475.4092,-246.3313C470.1184,-230.2206 462.524,-197.8004 479,-179 519.1856,-133.1453 695.0318,-167.1887 751,-143 771.0073,-134.3531 769.8077,-122.3304 789,-112 825.493,-92.3574 871.6763,-79.6387 902.4424,-72.6596"/>
<polygon fill="#191970" stroke="#191970" points="903.2296,-76.0703 912.2488,-70.5112 901.7314,-69.2325 903.2296,-76.0703"/>
</g>
<!-- Node13&#45;&gt;Node8 -->
<g id="edge21" class="edge">
<title>Node13&#45;&gt;Node8</title>
<path fill="none" stroke="#191970" d="M443.6875,-246.3906C404.3809,-235.6944 340.7674,-218.3836 297.9406,-206.7294"/>
<polygon fill="#191970" stroke="#191970" points="298.6327,-203.2905 288.0645,-204.0419 296.7946,-210.0449 298.6327,-203.2905"/>
</g>
<!-- Node13&#45;&gt;Node11 -->
<g id="edge29" class="edge">
<title>Node13&#45;&gt;Node11</title>
<path fill="none" stroke="#191970" d="M462.5823,-246.2212C450.7924,-238.1641 435.8253,-225.5536 429,-210 423.4636,-197.3835 423.0493,-191.4265 429,-179 436.4783,-163.3836 451.2575,-150.9964 464.731,-142.2879"/>
<polygon fill="#191970" stroke="#191970" points="466.5625,-145.2705 473.3065,-137.0993 462.9388,-139.2814 466.5625,-145.2705"/>
</g>
<!-- Node14 -->
<g id="node15" class="node">
<title>Node14</title>
<polygon fill="none" stroke="#bfbfbf" points="690.5,-185 690.5,-204 783.5,-204 783.5,-185 690.5,-185"/>
<text text-anchor="middle" x="737" y="-192" font-family="Helvetica,sans-Serif" font-size="10.00" fill="#000000">unordered_map</text>
</g>
<!-- Node13&#45;&gt;Node14 -->
<g id="edge17" class="edge">
<title>Node13&#45;&gt;Node14</title>
<path fill="none" stroke="#191970" d="M523.6715,-246.447C564.6975,-237.5268 627.1166,-223.5846 681,-210 685.1266,-208.9596 689.414,-207.8412 693.697,-206.6987"/>
<polygon fill="#191970" stroke="#191970" points="694.8683,-210.0077 703.6053,-204.0146 693.038,-203.2512 694.8683,-210.0077"/>
</g>
<!-- Node15 -->
<g id="node16" class="node">
<title>Node15</title>
<g id="a_node16"><a xlink:href="../../d2/df9/MUON_2MID_2include_2DataFormatsMID_2ROFRecord_8h.html" target="_top" xlink:title="Definition of the MID event record. ">
<polygon fill="none" stroke="#000000" points="509.5,-185 509.5,-204 672.5,-204 672.5,-185 509.5,-185"/>
<text text-anchor="middle" x="591" y="-192" font-family="Helvetica,sans-Serif" font-size="10.00" fill="#000000">DataFormatsMID/ROFRecord.h</text>
</a>
</g>
</g>
<!-- Node13&#45;&gt;Node15 -->
<g id="edge22" class="edge">
<title>Node13&#45;&gt;Node15</title>
<path fill="none" stroke="#191970" d="M496.5,-246.3906C514.7465,-236.3713 543.5624,-220.5483 564.5806,-209.0071"/>
<polygon fill="#191970" stroke="#191970" points="566.542,-211.923 573.6229,-204.0419 563.1728,-205.7872 566.542,-211.923"/>
</g>
<!-- Node16 -->
<g id="node17" class="node">
<title>Node16</title>
<g id="a_node17"><a xlink:href="../../d9/d80/InteractionRecord_8h.html" target="_top" xlink:title="CommonDataFormat/Interaction\lRecord.h">
<polygon fill="none" stroke="#000000" points="190,-112.5 190,-142.5 364,-142.5 364,-112.5 190,-112.5"/>
<text text-anchor="start" x="198" y="-130.5" font-family="Helvetica,sans-Serif" font-size="10.00" fill="#000000">CommonDataFormat/Interaction</text>
<text text-anchor="middle" x="277" y="-119.5" font-family="Helvetica,sans-Serif" font-size="10.00" fill="#000000">Record.h</text>
</a>
</g>
</g>
<!-- Node15&#45;&gt;Node16 -->
<g id="edge23" class="edge">
<title>Node15&#45;&gt;Node16</title>
<path fill="none" stroke="#191970" d="M546.3449,-184.9717C497.2664,-174.4995 417.4297,-157.4643 357.392,-144.6537"/>
<polygon fill="#191970" stroke="#191970" points="358.0681,-141.2193 347.5579,-142.5553 356.6073,-148.0652 358.0681,-141.2193"/>
</g>
<!-- Node16&#45;&gt;Node9 -->
<g id="edge27" class="edge">
<title>Node16&#45;&gt;Node9</title>
<path fill="none" stroke="#191970" d="M356.9139,-112.4554C405.6795,-102.8909 469.1727,-89.7522 525,-76 525.0997,-75.9754 525.1996,-75.9508 525.2996,-75.926"/>
<polygon fill="#191970" stroke="#191970" points="526.0366,-79.3511 534.8241,-73.4325 524.2637,-72.5793 526.0366,-79.3511"/>
</g>
<!-- Node17 -->
<g id="node18" class="node">
<title>Node17</title>
<polygon fill="none" stroke="#bfbfbf" points="390.5,-56.5 390.5,-75.5 449.5,-75.5 449.5,-56.5 390.5,-56.5"/>
<text text-anchor="middle" x="420" y="-63.5" font-family="Helvetica,sans-Serif" font-size="10.00" fill="#000000">Rtypes.h</text>
</g>
<!-- Node16&#45;&gt;Node17 -->
<g id="edge24" class="edge">
<title>Node16&#45;&gt;Node17</title>
<path fill="none" stroke="#191970" d="M311.9817,-112.4554C335.3184,-102.419 365.7498,-89.3314 388.363,-79.6061"/>
<polygon fill="#191970" stroke="#191970" points="390.0364,-82.6965 397.8401,-75.5303 387.2708,-76.2659 390.0364,-82.6965"/>
</g>
<!-- Node18 -->
<g id="node19" class="node">
<title>Node18</title>
<polygon fill="none" stroke="#bfbfbf" points="467.5,-56.5 467.5,-75.5 516.5,-75.5 516.5,-56.5 467.5,-56.5"/>
<text text-anchor="middle" x="492" y="-63.5" font-family="Helvetica,sans-Serif" font-size="10.00" fill="#000000">iosfwd</text>
</g>
<!-- Node16&#45;&gt;Node18 -->
<g id="edge25" class="edge">
<title>Node16&#45;&gt;Node18</title>
<path fill="none" stroke="#191970" d="M330.4949,-112.4131C364.2934,-102.8503 409.1334,-90.1072 457.7269,-76.0618"/>
<polygon fill="#191970" stroke="#191970" points="458.8604,-79.3775 467.4935,-73.2359 456.9147,-72.6533 458.8604,-79.3775"/>
</g>
<!-- Node19 -->
<g id="node20" class="node">
<title>Node19</title>
<polygon fill="none" stroke="#bfbfbf" points="116.5,-56.5 116.5,-75.5 163.5,-75.5 163.5,-56.5 116.5,-56.5"/>
<text text-anchor="middle" x="140" y="-63.5" font-family="Helvetica,sans-Serif" font-size="10.00" fill="#000000">cmath</text>
</g>
<!-- Node16&#45;&gt;Node19 -->
<g id="edge26" class="edge">
<title>Node16&#45;&gt;Node19</title>
<path fill="none" stroke="#191970" d="M243.486,-112.4554C221.2288,-102.464 192.2353,-89.4487 170.6015,-79.7372"/>
<polygon fill="#191970" stroke="#191970" points="171.7865,-76.4327 161.2301,-75.5303 168.9197,-82.8187 171.7865,-76.4327"/>
</g>
<!-- Node20 -->
<g id="node21" class="node">
<title>Node20</title>
<g id="a_node21"><a xlink:href="../../d4/dc6/LHCConstants_8h.html" target="_top" xlink:title="Header to collect LHC related constants. ">
<polygon fill="none" stroke="#000000" points="182,-56.5 182,-75.5 372,-75.5 372,-56.5 182,-56.5"/>
<text text-anchor="middle" x="277" y="-63.5" font-family="Helvetica,sans-Serif" font-size="10.00" fill="#000000">CommonConstants/LHCConstants.h</text>
</a>
</g>
</g>
<!-- Node16&#45;&gt;Node20 -->
<g id="edge28" class="edge">
<title>Node16&#45;&gt;Node20</title>
<path fill="none" stroke="#191970" d="M277,-112.2977C277,-104.3834 277,-94.6043 277,-86.0759"/>
<polygon fill="#191970" stroke="#191970" points="280.5001,-85.8469 277,-75.8469 273.5001,-85.847 280.5001,-85.8469"/>
</g>
<!-- Node21&#45;&gt;Node3 -->
<g id="edge34" class="edge">
<title>Node21&#45;&gt;Node3</title>
<path fill="none" stroke="#191970" d="M901.9375,-246.3906C887.6714,-236.6421 865.365,-221.3994 848.6128,-209.9521"/>
<polygon fill="#191970" stroke="#191970" points="850.1949,-206.7941 839.9638,-204.0419 846.2455,-212.5736 850.1949,-206.7941"/>
</g>
<!-- Node21&#45;&gt;Node6 -->
<g id="edge33" class="edge">
<title>Node21&#45;&gt;Node6</title>
<path fill="none" stroke="#191970" d="M923.1903,-246.4016C936.6292,-227.7169 964.927,-184.6316 973,-143 975.6229,-129.4742 977.5777,-124.9951 973,-112 969.1691,-101.125 961.5598,-90.9246 954.2328,-82.9061"/>
<polygon fill="#191970" stroke="#191970" points="956.6466,-80.3686 947.1502,-75.6707 951.6443,-85.2652 956.6466,-80.3686"/>
</g>
<!-- Node21&#45;&gt;Node7 -->
<g id="edge39" class="edge">
<title>Node21&#45;&gt;Node7</title>
<path fill="none" stroke="#191970" d="M990.7213,-250.8815C1084.2014,-243.704 1234.1435,-229.3293 1251,-210 1299.6593,-154.2025 1181.8959,-102.3808 1116.725,-79.0214"/>
<polygon fill="#191970" stroke="#191970" points="1117.7286,-75.6644 1107.1338,-75.6523 1115.4086,-82.2688 1117.7286,-75.6644"/>
</g>
<!-- Node21&#45;&gt;Node11 -->
<g id="edge40" class="edge">
<title>Node21&#45;&gt;Node11</title>
<path fill="none" stroke="#191970" d="M912.025,-246.4696C904.4584,-229.6497 886.2687,-194.9707 859,-179 749.2117,-114.6993 700.6783,-162.8249 575,-143 567.064,-141.7481 558.7185,-140.3113 550.5133,-138.8285"/>
<polygon fill="#191970" stroke="#191970" points="551.0796,-135.374 540.6113,-137.0061 549.8126,-142.2584 551.0796,-135.374"/>
</g>
<!-- Node21&#45;&gt;Node14 -->
<g id="edge32" class="edge">
<title>Node21&#45;&gt;Node14</title>
<path fill="none" stroke="#191970" d="M888.0313,-246.3906C857.4245,-235.8749 808.2101,-218.966 774.3259,-207.3243"/>
<polygon fill="#191970" stroke="#191970" points="775.367,-203.9812 764.7724,-204.0419 773.0924,-210.6014 775.367,-203.9812"/>
</g>
<!-- Node21&#45;&gt;Node15 -->
<g id="edge38" class="edge">
<title>Node21&#45;&gt;Node15</title>
<path fill="none" stroke="#191970" d="M865.5753,-246.4581C807.73,-235.512 712.9423,-217.5752 651.2576,-205.9026"/>
<polygon fill="#191970" stroke="#191970" points="651.752,-202.4341 641.2755,-204.0137 650.4504,-209.312 651.752,-202.4341"/>
</g>
<!-- Node22 -->
<g id="node23" class="node">
<title>Node22</title>
<polygon fill="none" stroke="#bfbfbf" points="1020.5,-185 1020.5,-204 1085.5,-204 1085.5,-185 1020.5,-185"/>
<text text-anchor="middle" x="1053" y="-192" font-family="Helvetica,sans-Serif" font-size="10.00" fill="#000000">functional</text>
</g>
<!-- Node21&#45;&gt;Node22 -->
<g id="edge31" class="edge">
<title>Node21&#45;&gt;Node22</title>
<path fill="none" stroke="#191970" d="M937.4063,-246.3906C960.2283,-236.1457 996.5679,-219.8326 1022.4057,-208.2339"/>
<polygon fill="#191970" stroke="#191970" points="1024.0545,-211.3303 1031.7441,-204.0419 1021.1877,-204.9443 1024.0545,-211.3303"/>
</g>
<!-- Node23 -->
<g id="node24" class="node">
<title>Node23</title>
<g id="a_node24"><a xlink:href="../../d6/d31/Cluster2D_8h.html" target="_top" xlink:title="Reconstructed cluster per RPC. ">
<polygon fill="none" stroke="#000000" points="584,-118 584,-137 742,-137 742,-118 584,-118"/>
<text text-anchor="middle" x="663" y="-125" font-family="Helvetica,sans-Serif" font-size="10.00" fill="#000000">DataFormatsMID/Cluster2D.h</text>
</a>
</g>
</g>
<!-- Node21&#45;&gt;Node23 -->
<g id="edge35" class="edge">
<title>Node21&#45;&gt;Node23</title>
<path fill="none" stroke="#191970" d="M915.9158,-246.3651C915.2241,-230.0072 911.352,-196.8459 892,-179 871.5187,-160.1127 807.5827,-146.7092 752.4569,-138.3198"/>
<polygon fill="#191970" stroke="#191970" points="752.6838,-134.8153 742.2787,-136.8115 751.6576,-141.7396 752.6838,-134.8153"/>
</g>
<!-- Node24 -->
<g id="node25" class="node">
<title>Node24</title>
<g id="a_node25"><a xlink:href="../../d8/dc8/PreClusterHelper_8h.html" target="_top" xlink:title="Pre&#45;clusters helper for MID. ">
<polygon fill="none" stroke="#000000" points="1104,-179.5 1104,-209.5 1242,-209.5 1242,-179.5 1104,-179.5"/>
<text text-anchor="start" x="1112" y="-197.5" font-family="Helvetica,sans-Serif" font-size="10.00" fill="#000000">MIDClustering/PreCluster</text>
<text text-anchor="middle" x="1173" y="-186.5" font-family="Helvetica,sans-Serif" font-size="10.00" fill="#000000">Helper.h</text>
</a>
</g>
</g>
<!-- Node21&#45;&gt;Node24 -->
<g id="edge41" class="edge">
<title>Node21&#45;&gt;Node24</title>
<path fill="none" stroke="#191970" d="M955.8743,-246.4581C994.3093,-237.2606 1053.3691,-223.1276 1100.1948,-211.9223"/>
<polygon fill="#191970" stroke="#191970" points="1101.0785,-215.3097 1109.9894,-209.5784 1099.4494,-208.5019 1101.0785,-215.3097"/>
</g>
<!-- Node25 -->
<g id="node26" class="node">
<title>Node25</title>
<g id="a_node26"><a xlink:href="../../d3/dde/PreClustersDE_8h.html" target="_top" xlink:title="Structure with pre&#45;clusters in the MID detection element. ">
<polygon fill="none" stroke="#000000" points="798,-118 798,-137 964,-137 964,-118 798,-118"/>
<text text-anchor="middle" x="881" y="-125" font-family="Helvetica,sans-Serif" font-size="10.00" fill="#000000">MIDClustering/PreClustersDE.h</text>
</a>
</g>
</g>
<!-- Node21&#45;&gt;Node25 -->
<g id="edge45" class="edge">
<title>Node21&#45;&gt;Node25</title>
<path fill="none" stroke="#191970" d="M921.1339,-246.1739C928.2302,-231.1933 939.1785,-201.9623 930,-179 924.4338,-165.0746 913.1115,-152.7656 902.7518,-143.676"/>
<polygon fill="#191970" stroke="#191970" points="904.7219,-140.7643 894.7782,-137.1072 900.2709,-146.167 904.7219,-140.7643"/>
</g>
<!-- Node23&#45;&gt;Node9 -->
<g id="edge37" class="edge">
<title>Node23&#45;&gt;Node9</title>
<path fill="none" stroke="#191970" d="M646.9063,-117.8906C630.2772,-107.9616 604.1024,-92.333 584.8206,-80.8201"/>
<polygon fill="#191970" stroke="#191970" points="586.361,-77.6634 575.9807,-75.5419 582.7724,-83.6736 586.361,-77.6634"/>
</g>
<!-- Node23&#45;&gt;Node12 -->
<g id="edge36" class="edge">
<title>Node23&#45;&gt;Node12</title>
<path fill="none" stroke="#191970" d="M660.6563,-117.8906C658.5551,-109.276 655.4075,-96.3708 652.777,-85.5858"/>
<polygon fill="#191970" stroke="#191970" points="656.1468,-84.6307 650.3768,-75.7449 649.3461,-86.2894 656.1468,-84.6307"/>
</g>
<!-- Node24&#45;&gt;Node4 -->
<g id="edge43" class="edge">
<title>Node24&#45;&gt;Node4</title>
<path fill="none" stroke="#191970" d="M1151.2161,-179.2967C1135.678,-168.4524 1114.8529,-153.9182 1099.2176,-143.006"/>
<polygon fill="#191970" stroke="#191970" points="1100.8942,-139.908 1090.6907,-137.055 1096.8879,-145.6483 1100.8942,-139.908"/>
</g>
<!-- Node24&#45;&gt;Node7 -->
<g id="edge42" class="edge">
<title>Node24&#45;&gt;Node7</title>
<path fill="none" stroke="#191970" d="M1170.1657,-179.4848C1166.2466,-161.8688 1157.7964,-132.4724 1142,-112 1132.214,-99.3172 1117.9698,-88.6913 1105.3082,-80.8587"/>
<polygon fill="#191970" stroke="#191970" points="1106.8502,-77.7054 1096.4547,-75.6596 1103.3055,-83.7415 1106.8502,-77.7054"/>
</g>
<!-- Node24&#45;&gt;Node11 -->
<g id="edge44" class="edge">
<title>Node24&#45;&gt;Node11</title>
<path fill="none" stroke="#191970" d="M1103.7184,-180.4004C1100.4388,-179.8924 1097.1869,-179.4215 1094,-179 864.7753,-148.6826 804.3283,-172.5239 575,-143 566.3344,-141.8844 557.2012,-140.4343 548.3016,-138.8691"/>
<polygon fill="#191970" stroke="#191970" points="548.8553,-135.4125 538.3902,-137.0649 547.6016,-142.2993 548.8553,-135.4125"/>
</g>
<!-- Node25&#45;&gt;Node5 -->
<g id="edge46" class="edge">
<title>Node25&#45;&gt;Node5</title>
<path fill="none" stroke="#191970" d="M882.8417,-117.835C885.7822,-103.6957 892.3198,-76.7952 903,-56 908.24,-45.7973 915.7778,-35.5355 922.517,-27.3012"/>
<polygon fill="#191970" stroke="#191970" points="925.3052,-29.4253 929.1212,-19.5416 919.9745,-24.8884 925.3052,-29.4253"/>
</g>
<!-- Node25&#45;&gt;Node6 -->
<g id="edge47" class="edge">
<title>Node25&#45;&gt;Node6</title>
<path fill="none" stroke="#191970" d="M889.5938,-117.8906C897.8597,-108.6478 910.5426,-94.466 920.5617,-83.2628"/>
<polygon fill="#191970" stroke="#191970" points="923.2278,-85.5321 927.2851,-75.7449 918.01,-80.8657 923.2278,-85.5321"/>
</g>
<!-- Node25&#45;&gt;Node7 -->
<g id="edge48" class="edge">
<title>Node25&#45;&gt;Node7</title>
<path fill="none" stroke="#191970" d="M911.625,-117.8906C945.2824,-107.3298 999.4899,-90.3208 1036.6059,-78.6747"/>
<polygon fill="#191970" stroke="#191970" points="1038.0966,-81.8753 1046.5901,-75.5419 1036.0009,-75.1963 1038.0966,-81.8753"/>
</g>
</g>
</svg>
        <g id="navigator" transform="translate(0 0)" fill="#404254">
                <rect fill="#f2f5e9" fill-opacity="0.5" stroke="#606060" stroke-width=".5" x="0" y="0" width="60" height="60"/>
                <use id="zoomplus" xlink:href="#zoomPlus" x="17" y="9" onmousedown="handleZoom(evt,'in')"/>
                <use id="zoomminus" xlink:href="#zoomMin" x="42" y="9" onmousedown="handleZoom(evt,'out')"/>
                <use id="reset" xlink:href="#resetDef" x="30" y="36" onmousedown="handleReset()"/>
                <g id="arrowUp" xlink:href="#dirArrow" transform="translate(30 24)" onmousedown="handlePan(0,-1)">
                  <use xlink:href="#rim" fill="#404040">
                        <set attributeName="fill" to="#808080" begin="arrowUp.mouseover" end="arrowUp.mouseout"/>
                  </use>
                  <path fill="none" stroke="white" stroke-width="1.5" d="M0,-3.0v7 M-2.5,-0.5L0,-3.0L2.5,-0.5"/>
                </g>
                <g id="arrowRight" xlink:href="#dirArrow" transform="rotate(90) translate(36 -43)" onmousedown="handlePan(1,0)">
                  <use xlink:href="#rim" fill="#404040">
                        <set attributeName="fill" to="#808080" begin="arrowRight.mouseover" end="arrowRight.mouseout"/>
                  </use>
                  <path fill="none" stroke="white" stroke-width="1.5" d="M0,-3.0v7 M-2.5,-0.5L0,-3.0L2.5,-0.5"/>
                </g>
                <g id="arrowDown" xlink:href="#dirArrow" transform="rotate(180) translate(-30 -48)" onmousedown="handlePan(0,1)">
                  <use xlink:href="#rim" fill="#404040">
                        <set attributeName="fill" to="#808080" begin="arrowDown.mouseover" end="arrowDown.mouseout"/>
                  </use>
                  <path fill="none" stroke="white" stroke-width="1.5" d="M0,-3.0v7 M-2.5,-0.5L0,-3.0L2.5,-0.5"/>
                </g>
                <g id="arrowLeft" xlink:href="#dirArrow" transform="rotate(270) translate(-36 17)" onmousedown="handlePan(-1,0)">
                  <use xlink:href="#rim" fill="#404040">
                        <set attributeName="fill" to="#808080" begin="arrowLeft.mouseover" end="arrowLeft.mouseout"/>
                  </use>
                  <path fill="none" stroke="white" stroke-width="1.5" d="M0,-3.0v7 M-2.5,-0.5L0,-3.0L2.5,-0.5"/>
                </g>
        </g>
        <svg viewBox="0 0 15 15" width="100%" height="30px" preserveAspectRatio="xMaxYMin meet">
         <g id="arrow_out" transform="scale(0.3 0.3)">
          <a xlink:href="bench__Clusterizer_8cxx__incl_org.svg" target="_base">
           <rect id="button" ry="5" rx="5" y="6" x="6" height="38" width="38"
                fill="#f2f5e9" fill-opacity="0.5" stroke="#606060" stroke-width="1.0"/>
           <path id="arrow"
             d="M 11.500037,31.436501 C 11.940474,20.09759 22.043105,11.32322 32.158766,21.979434 L 37.068811,17.246167 C 37.068811,17.246167 37.088388,32 37.088388,32 L 22.160133,31.978069 C 22.160133,31.978069 26.997745,27.140456 26.997745,27.140456 C 18.528582,18.264221 13.291696,25.230495 11.500037,31.436501 z"
             style="fill:#404040;"/>
          </a>
         </g>
        </svg>
</svg>
