<?xml version="1.0" encoding="UTF-8" standalone="no"?>
<!DOCTYPE svg PUBLIC "-//W3C//DTD SVG 1.1//EN"
 "http://www.w3.org/Graphics/SVG/1.1/DTD/svg11.dtd">
<!-- Generated by graphviz version 2.40.1 (20161225.0304)
 -->
<!-- Title: /home/travis/build/AliceO2Group/AliceO2/Detectors/EMCAL/reconstruction/include/EMCALReconstruction/RCUTrailer.h Pages: 1 -->
<svg width="469pt" height="195pt"
 viewBox="0.00 0.00 469.00 195.00" xmlns="http://www.w3.org/2000/svg" xmlns:xlink="http://www.w3.org/1999/xlink">
<g id="graph0" class="graph" transform="scale(1 1) rotate(0) translate(4 191)">
<title>/home/travis/build/AliceO2Group/AliceO2/Detectors/EMCAL/reconstruction/include/EMCALReconstruction/RCUTrailer.h</title>
<!-- Node0 -->
<g id="node1" class="node">
<title>Node0</title>
<polygon fill="#bfbfbf" stroke="#000000" points="84.5,-123.5 84.5,-186.5 260.5,-186.5 260.5,-123.5 84.5,-123.5"/>
<text text-anchor="start" x="92.5" y="-174.5" font-family="Helvetica,sans-Serif" font-size="10.00" fill="#000000">/home/travis/build</text>
<text text-anchor="start" x="92.5" y="-163.5" font-family="Helvetica,sans-Serif" font-size="10.00" fill="#000000">/AliceO2Group/AliceO2</text>
<text text-anchor="start" x="92.5" y="-152.5" font-family="Helvetica,sans-Serif" font-size="10.00" fill="#000000">/Detectors/EMCAL/reconstruction</text>
<text text-anchor="start" x="92.5" y="-141.5" font-family="Helvetica,sans-Serif" font-size="10.00" fill="#000000">/include/EMCALReconstruction</text>
<text text-anchor="middle" x="172.5" y="-130.5" font-family="Helvetica,sans-Serif" font-size="10.00" fill="#000000">/RCUTrailer.h</text>
</g>
<!-- Node1 -->
<g id="node2" class="node">
<title>Node1</title>
<polygon fill="none" stroke="#bfbfbf" points="0,-62 0,-81 65,-81 65,-62 0,-62"/>
<text text-anchor="middle" x="32.5" y="-69" font-family="Helvetica,sans-Serif" font-size="10.00" fill="#000000">exception</text>
</g>
<!-- Node0&#45;&gt;Node1 -->
<g id="edge1" class="edge">
<title>Node0&#45;&gt;Node1</title>
<path fill="none" stroke="#191970" d="M119.572,-123.4322C98.2732,-110.729 74.7286,-96.6864 57.4985,-86.4098"/>
<polygon fill="#191970" stroke="#191970" points="59.0115,-83.237 48.6302,-81.1205 55.4258,-89.2489 59.0115,-83.237"/>
</g>
<!-- Node2 -->
<g id="node3" class="node">
<title>Node2</title>
<polygon fill="none" stroke="#bfbfbf" points="83,-62 83,-81 132,-81 132,-62 83,-62"/>
<text text-anchor="middle" x="107.5" y="-69" font-family="Helvetica,sans-Serif" font-size="10.00" fill="#000000">iosfwd</text>
</g>
<!-- Node0&#45;&gt;Node2 -->
<g id="edge2" class="edge">
<title>Node0&#45;&gt;Node2</title>
<path fill="none" stroke="#191970" d="M147.9263,-123.4322C138.9172,-111.859 129.0427,-99.1741 121.3081,-89.2382"/>
<polygon fill="#191970" stroke="#191970" points="124.042,-87.0522 115.1375,-81.3112 118.5183,-91.3522 124.042,-87.0522"/>
</g>
<!-- Node3 -->
<g id="node4" class="node">
<title>Node3</title>
<polygon fill="none" stroke="#bfbfbf" points="150.5,-62 150.5,-81 194.5,-81 194.5,-62 150.5,-62"/>
<text text-anchor="middle" x="172.5" y="-69" font-family="Helvetica,sans-Serif" font-size="10.00" fill="#000000">string</text>
</g>
<!-- Node0&#45;&gt;Node3 -->
<g id="edge3" class="edge">
<title>Node0&#45;&gt;Node3</title>
<path fill="none" stroke="#191970" d="M172.5,-123.4322C172.5,-112.6773 172.5,-100.9624 172.5,-91.3857"/>
<polygon fill="#191970" stroke="#191970" points="176.0001,-91.3112 172.5,-81.3112 169.0001,-91.3112 176.0001,-91.3112"/>
</g>
<!-- Node4 -->
<g id="node5" class="node">
<title>Node4</title>
<polygon fill="none" stroke="#bfbfbf" points="193,-.5 193,-19.5 252,-19.5 252,-.5 193,-.5"/>
<text text-anchor="middle" x="222.5" y="-7.5" font-family="Helvetica,sans-Serif" font-size="10.00" fill="#000000">Rtypes.h</text>
</g>
<!-- Node0&#45;&gt;Node4 -->
<g id="edge4" class="edge">
<title>Node0&#45;&gt;Node4</title>
<path fill="none" stroke="#191970" d="M188.4149,-123.3314C193.6868,-112.0494 199.2791,-99.1314 203.5,-87 210.1264,-67.9547 215.3894,-45.4999 218.6803,-29.7698"/>
<polygon fill="#191970" stroke="#191970" points="222.1752,-30.1435 220.7193,-19.6492 215.3131,-28.7609 222.1752,-30.1435"/>
</g>
<!-- Node5 -->
<g id="node6" class="node">
<title>Node5</title>
<g id="a_node6"><a xlink:href="../../d5/dfc/RawPayload_8h.html" target="_top" xlink:title="EMCALReconstruction\l/RawPayload.h">
<polygon fill="none" stroke="#000000" points="250.5,-56.5 250.5,-86.5 372.5,-86.5 372.5,-56.5 250.5,-56.5"/>
<text text-anchor="start" x="258.5" y="-74.5" font-family="Helvetica,sans-Serif" font-size="10.00" fill="#000000">EMCALReconstruction</text>
<text text-anchor="middle" x="311.5" y="-63.5" font-family="Helvetica,sans-Serif" font-size="10.00" fill="#000000">/RawPayload.h</text>
</a>
</g>
</g>
<!-- Node0&#45;&gt;Node5 -->
<g id="edge5" class="edge">
<title>Node0&#45;&gt;Node5</title>
<path fill="none" stroke="#191970" d="M225.0499,-123.4322C242.659,-112.8541 261.8141,-101.3473 277.6079,-91.8597"/>
<polygon fill="#191970" stroke="#191970" points="279.7116,-94.6789 286.4815,-86.5291 276.107,-88.6784 279.7116,-94.6789"/>
</g>
<!-- Node5&#45;&gt;Node4 -->
<g id="edge9" class="edge">
<title>Node5&#45;&gt;Node4</title>
<path fill="none" stroke="#191970" d="M289.5,-56.2977C275.9032,-46.9022 258.5034,-34.8787 244.8433,-25.4395"/>
<polygon fill="#191970" stroke="#191970" points="246.7009,-22.4688 236.4842,-19.6633 242.7215,-28.2276 246.7009,-22.4688"/>
</g>
<!-- Node6 -->
<g id="node7" class="node">
<title>Node6</title>
<polygon fill="none" stroke="#bfbfbf" points="270.5,-.5 270.5,-19.5 320.5,-19.5 320.5,-.5 270.5,-.5"/>
<text text-anchor="middle" x="295.5" y="-7.5" font-family="Helvetica,sans-Serif" font-size="10.00" fill="#000000">cstdint</text>
</g>
<!-- Node5&#45;&gt;Node6 -->
<g id="edge6" class="edge">
<title>Node5&#45;&gt;Node6</title>
<path fill="none" stroke="#191970" d="M307.5449,-56.2977C305.4628,-48.2945 302.8845,-38.3843 300.6483,-29.7889"/>
<polygon fill="#191970" stroke="#191970" points="303.9669,-28.6435 298.0618,-19.8469 297.1924,-30.406 303.9669,-28.6435"/>
</g>
<!-- Node7 -->
<g id="node8" class="node">
<title>Node7</title>
<polygon fill="none" stroke="#bfbfbf" points="339,-.5 339,-19.5 386,-19.5 386,-.5 339,-.5"/>
<text text-anchor="middle" x="362.5" y="-7.5" font-family="Helvetica,sans-Serif" font-size="10.00" fill="#000000">vector</text>
</g>
<!-- Node5&#45;&gt;Node7 -->
<g id="edge7" class="edge">
<title>Node5&#45;&gt;Node7</title>
<path fill="none" stroke="#191970" d="M324.1067,-56.2977C331.2598,-47.672 340.2497,-36.8312 347.7318,-27.8087"/>
<polygon fill="#191970" stroke="#191970" points="350.645,-29.7787 354.3343,-19.8469 345.2567,-25.3103 350.645,-29.7787"/>
</g>
<!-- Node8 -->
<g id="node9" class="node">
<title>Node8</title>
<polygon fill="none" stroke="#bfbfbf" points="404,-.5 404,-19.5 461,-19.5 461,-.5 404,-.5"/>
<text text-anchor="middle" x="432.5" y="-7.5" font-family="Helvetica,sans-Serif" font-size="10.00" fill="#000000">gsl/span</text>
</g>
<!-- Node5&#45;&gt;Node8 -->
<g id="edge8" class="edge">
<title>Node5&#45;&gt;Node8</title>
<path fill="none" stroke="#191970" d="M341.0999,-56.4554C360.4922,-46.599 385.6742,-33.7999 404.6943,-24.1327"/>
<polygon fill="#191970" stroke="#191970" points="406.4205,-27.1815 413.7493,-19.5303 403.2488,-20.9412 406.4205,-27.1815"/>
</g>
</g>
</svg>
