<?xml version="1.0" encoding="UTF-8" standalone="no"?>
<!DOCTYPE svg PUBLIC "-//W3C//DTD SVG 1.1//EN"
 "http://www.w3.org/Graphics/SVG/1.1/DTD/svg11.dtd">
<!-- Generated by graphviz version 2.40.1 (20161225.0304)
 -->
<!-- Title: /home/travis/build/AliceO2Group/AliceO2/Framework/Core/include/Framework/DeviceInfo.h Pages: 1 -->
<svg width="1260pt" height="229pt"
 viewBox="0.00 0.00 1259.59 229.00" xmlns="http://www.w3.org/2000/svg" xmlns:xlink="http://www.w3.org/1999/xlink">
<g id="graph0" class="graph" transform="scale(1 1) rotate(0) translate(4 225)">
<title>/home/travis/build/AliceO2Group/AliceO2/Framework/Core/include/Framework/DeviceInfo.h</title>
<!-- Node0 -->
<g id="node1" class="node">
<title>Node0</title>
<polygon fill="#bfbfbf" stroke="#000000" points="537.0874,-168.5 537.0874,-220.5 675.0874,-220.5 675.0874,-168.5 537.0874,-168.5"/>
<text text-anchor="start" x="545.0874" y="-208.5" font-family="Helvetica,sans-Serif" font-size="10.00" fill="#000000">/home/travis/build</text>
<text text-anchor="start" x="545.0874" y="-197.5" font-family="Helvetica,sans-Serif" font-size="10.00" fill="#000000">/AliceO2Group/AliceO2</text>
<text text-anchor="start" x="545.0874" y="-186.5" font-family="Helvetica,sans-Serif" font-size="10.00" fill="#000000">/Framework/Core/include</text>
<text text-anchor="middle" x="606.0874" y="-175.5" font-family="Helvetica,sans-Serif" font-size="10.00" fill="#000000">/Framework/DeviceInfo.h</text>
</g>
<!-- Node1 -->
<g id="node2" class="node">
<title>Node1</title>
<g id="a_node2"><a xlink:href="../../d8/d4a/LogParsingHelpers_8h.html" target="_top" xlink:title="Framework/LogParsingHelpers.h">
<polygon fill="none" stroke="#000000" points="36.5874,-112.5 36.5874,-131.5 209.5874,-131.5 209.5874,-112.5 36.5874,-112.5"/>
<text text-anchor="middle" x="123.0874" y="-119.5" font-family="Helvetica,sans-Serif" font-size="10.00" fill="#000000">Framework/LogParsingHelpers.h</text>
</a>
</g>
</g>
<!-- Node0&#45;&gt;Node1 -->
<g id="edge1" class="edge">
<title>Node0&#45;&gt;Node1</title>
<path fill="none" stroke="#191970" d="M536.8853,-184.1125C446.499,-170.5452 288.9245,-146.8927 196.5042,-133.0201"/>
<polygon fill="#191970" stroke="#191970" points="196.8008,-129.5255 186.3921,-131.5023 195.7617,-136.448 196.8008,-129.5255"/>
</g>
<!-- Node2 -->
<g id="node3" class="node">
<title>Node2</title>
<polygon fill="none" stroke="#bfbfbf" points="200.0874,-.5 200.0874,-19.5 244.0874,-19.5 244.0874,-.5 200.0874,-.5"/>
<text text-anchor="middle" x="222.0874" y="-7.5" font-family="Helvetica,sans-Serif" font-size="10.00" fill="#000000">string</text>
</g>
<!-- Node0&#45;&gt;Node2 -->
<g id="edge25" class="edge">
<title>Node0&#45;&gt;Node2</title>
<path fill="none" stroke="#191970" d="M537.0715,-191.3836C391.9054,-184.2148 65.1682,-164.6195 27.0874,-132 .9395,-109.602 -9.4967,-82.8237 12.0874,-56 34.0319,-28.7282 136.5634,-16.7251 189.8043,-12.2571"/>
<polygon fill="#191970" stroke="#191970" points="190.374,-15.7228 200.0639,-11.4384 189.8171,-8.745 190.374,-15.7228"/>
</g>
<!-- Node4 -->
<g id="node5" class="node">
<title>Node4</title>
<g id="a_node5"><a xlink:href="../../d0/d2c/Metric2DViewIndex_8h.html" target="_top" xlink:title="Framework/Metric2DViewIndex.h">
<polygon fill="none" stroke="#000000" points="517.5874,-112.5 517.5874,-131.5 694.5874,-131.5 694.5874,-112.5 517.5874,-112.5"/>
<text text-anchor="middle" x="606.0874" y="-119.5" font-family="Helvetica,sans-Serif" font-size="10.00" fill="#000000">Framework/Metric2DViewIndex.h</text>
</a>
</g>
</g>
<!-- Node0&#45;&gt;Node4 -->
<g id="edge4" class="edge">
<title>Node0&#45;&gt;Node4</title>
<path fill="none" stroke="#191970" d="M606.0874,-168.3258C606.0874,-159.5142 606.0874,-149.8397 606.0874,-141.621"/>
<polygon fill="#191970" stroke="#191970" points="609.5875,-141.534 606.0874,-131.534 602.5875,-141.534 609.5875,-141.534"/>
</g>
<!-- Node6 -->
<g id="node7" class="node">
<title>Node6</title>
<polygon fill="none" stroke="#bfbfbf" points="656.5874,-56.5 656.5874,-75.5 709.5874,-75.5 709.5874,-56.5 656.5874,-56.5"/>
<text text-anchor="middle" x="683.0874" y="-63.5" font-family="Helvetica,sans-Serif" font-size="10.00" fill="#000000">cstddef</text>
</g>
<!-- Node0&#45;&gt;Node6 -->
<g id="edge24" class="edge">
<title>Node0&#45;&gt;Node6</title>
<path fill="none" stroke="#191970" d="M666.6903,-168.432C681.1863,-159.1427 694.8395,-147.1261 703.0874,-132 711.2838,-116.9682 704.0828,-98.136 696.1286,-84.4394"/>
<polygon fill="#191970" stroke="#191970" points="699.0058,-82.4416 690.6815,-75.8875 693.1017,-86.2022 699.0058,-82.4416"/>
</g>
<!-- Node7 -->
<g id="node8" class="node">
<title>Node7</title>
<polygon fill="none" stroke="#bfbfbf" points="469.5874,-56.5 469.5874,-75.5 516.5874,-75.5 516.5874,-56.5 469.5874,-56.5"/>
<text text-anchor="middle" x="493.0874" y="-63.5" font-family="Helvetica,sans-Serif" font-size="10.00" fill="#000000">vector</text>
</g>
<!-- Node0&#45;&gt;Node7 -->
<g id="edge26" class="edge">
<title>Node0&#45;&gt;Node7</title>
<path fill="none" stroke="#191970" d="M549.0935,-168.4772C533.7559,-158.9858 518.5402,-146.8519 508.0874,-132 498.5885,-118.5036 494.9975,-99.9499 493.6909,-85.9508"/>
<polygon fill="#191970" stroke="#191970" points="497.1789,-85.6469 493.0637,-75.8839 490.1924,-86.0823 497.1789,-85.6469"/>
</g>
<!-- Node8 -->
<g id="node9" class="node">
<title>Node8</title>
<g id="a_node9"><a xlink:href="../../de/d56/Variant_8h.html" target="_top" xlink:title="Framework/Variant.h">
<polygon fill="none" stroke="#000000" points="824.5874,-112.5 824.5874,-131.5 941.5874,-131.5 941.5874,-112.5 824.5874,-112.5"/>
<text text-anchor="middle" x="883.0874" y="-119.5" font-family="Helvetica,sans-Serif" font-size="10.00" fill="#000000">Framework/Variant.h</text>
</a>
</g>
</g>
<!-- Node0&#45;&gt;Node8 -->
<g id="edge9" class="edge">
<title>Node0&#45;&gt;Node8</title>
<path fill="none" stroke="#191970" d="M675.2716,-176.3922C725.669,-163.2016 792.5645,-145.6928 836.674,-134.1479"/>
<polygon fill="#191970" stroke="#191970" points="837.7605,-137.4815 846.5484,-131.5635 835.988,-130.7096 837.7605,-137.4815"/>
</g>
<!-- Node16 -->
<g id="node17" class="node">
<title>Node16</title>
<g id="a_node17"><a xlink:href="../../d9/de0/DeviceState_8h.html" target="_top" xlink:title="Framework/DeviceState.h">
<polygon fill="none" stroke="#000000" points="319.0874,-112.5 319.0874,-131.5 461.0874,-131.5 461.0874,-112.5 319.0874,-112.5"/>
<text text-anchor="middle" x="390.0874" y="-119.5" font-family="Helvetica,sans-Serif" font-size="10.00" fill="#000000">Framework/DeviceState.h</text>
</a>
</g>
</g>
<!-- Node0&#45;&gt;Node16 -->
<g id="edge17" class="edge">
<title>Node0&#45;&gt;Node16</title>
<path fill="none" stroke="#191970" d="M536.8524,-171.2614C500.8215,-159.1677 458.1535,-144.8463 428.1374,-134.7714"/>
<polygon fill="#191970" stroke="#191970" points="429.0648,-131.3909 418.4709,-131.5269 426.8374,-138.027 429.0648,-131.3909"/>
</g>
<!-- Node20 -->
<g id="node21" class="node">
<title>Node20</title>
<polygon fill="none" stroke="#bfbfbf" points="960.0874,-112.5 960.0874,-131.5 1016.0874,-131.5 1016.0874,-112.5 960.0874,-112.5"/>
<text text-anchor="middle" x="988.0874" y="-119.5" font-family="Helvetica,sans-Serif" font-size="10.00" fill="#000000">unistd.h</text>
</g>
<!-- Node0&#45;&gt;Node20 -->
<g id="edge27" class="edge">
<title>Node0&#45;&gt;Node20</title>
<path fill="none" stroke="#191970" d="M675.1644,-183.7549C742.8103,-172.8317 848.9631,-154.6257 949.8116,-132.1508"/>
<polygon fill="#191970" stroke="#191970" points="950.8775,-135.4986 959.867,-129.8915 949.3429,-128.6689 950.8775,-135.4986"/>
</g>
<!-- Node21 -->
<g id="node22" class="node">
<title>Node21</title>
<polygon fill="none" stroke="#bfbfbf" points="1034.0874,-112.5 1034.0874,-131.5 1076.0874,-131.5 1076.0874,-112.5 1034.0874,-112.5"/>
<text text-anchor="middle" x="1055.0874" y="-119.5" font-family="Helvetica,sans-Serif" font-size="10.00" fill="#000000">array</text>
</g>
<!-- Node0&#45;&gt;Node21 -->
<g id="edge28" class="edge">
<title>Node0&#45;&gt;Node21</title>
<path fill="none" stroke="#191970" d="M675.3757,-187.8927C756.9206,-179.2853 896.3639,-161.9674 1023.9666,-131.937"/>
<polygon fill="#191970" stroke="#191970" points="1024.9993,-135.2889 1033.9142,-129.564 1023.375,-128.48 1024.9993,-135.2889"/>
</g>
<!-- Node1&#45;&gt;Node2 -->
<g id="edge2" class="edge">
<title>Node1&#45;&gt;Node2</title>
<path fill="none" stroke="#191970" d="M123.6167,-112.47C124.8343,-98.6603 128.8499,-72.8942 142.0874,-56 154.4777,-40.187 173.9232,-28.8287 190.5399,-21.355"/>
<polygon fill="#191970" stroke="#191970" points="192.0674,-24.5094 199.922,-17.3991 189.3477,-18.0593 192.0674,-24.5094"/>
</g>
<!-- Node3 -->
<g id="node4" class="node">
<title>Node3</title>
<polygon fill="none" stroke="#bfbfbf" points="21.5874,-56.5 21.5874,-75.5 94.5874,-75.5 94.5874,-56.5 21.5874,-56.5"/>
<text text-anchor="middle" x="58.0874" y="-63.5" font-family="Helvetica,sans-Serif" font-size="10.00" fill="#000000">string_view</text>
</g>
<!-- Node1&#45;&gt;Node3 -->
<g id="edge3" class="edge">
<title>Node1&#45;&gt;Node3</title>
<path fill="none" stroke="#191970" d="M111.7652,-112.2455C102.1651,-103.9746 88.1982,-91.9416 76.9179,-82.2232"/>
<polygon fill="#191970" stroke="#191970" points="79.1404,-79.5182 69.2798,-75.6427 74.5714,-84.8214 79.1404,-79.5182"/>
</g>
<!-- Node4&#45;&gt;Node2 -->
<g id="edge7" class="edge">
<title>Node4&#45;&gt;Node2</title>
<path fill="none" stroke="#191970" d="M597.7109,-112.4839C584.0964,-97.703 555.6017,-69.524 525.0874,-56 476.9517,-34.6661 322.1474,-18.8254 254.3738,-12.7351"/>
<polygon fill="#191970" stroke="#191970" points="254.5429,-9.2365 244.2734,-11.842 253.9263,-16.2093 254.5429,-9.2365"/>
</g>
<!-- Node5 -->
<g id="node6" class="node">
<title>Node5</title>
<polygon fill="none" stroke="#bfbfbf" points="573.5874,-56.5 573.5874,-75.5 638.5874,-75.5 638.5874,-56.5 573.5874,-56.5"/>
<text text-anchor="middle" x="606.0874" y="-63.5" font-family="Helvetica,sans-Serif" font-size="10.00" fill="#000000">functional</text>
</g>
<!-- Node4&#45;&gt;Node5 -->
<g id="edge5" class="edge">
<title>Node4&#45;&gt;Node5</title>
<path fill="none" stroke="#191970" d="M606.0874,-112.2455C606.0874,-104.9382 606.0874,-94.6944 606.0874,-85.7046"/>
<polygon fill="#191970" stroke="#191970" points="609.5875,-85.6426 606.0874,-75.6427 602.5875,-85.6427 609.5875,-85.6426"/>
</g>
<!-- Node4&#45;&gt;Node6 -->
<g id="edge6" class="edge">
<title>Node4&#45;&gt;Node6</title>
<path fill="none" stroke="#191970" d="M619.4998,-112.2455C631.0931,-103.814 648.0621,-91.4729 661.5552,-81.6598"/>
<polygon fill="#191970" stroke="#191970" points="663.7999,-84.355 669.8287,-75.6427 659.6827,-78.6938 663.7999,-84.355"/>
</g>
<!-- Node4&#45;&gt;Node7 -->
<g id="edge8" class="edge">
<title>Node4&#45;&gt;Node7</title>
<path fill="none" stroke="#191970" d="M586.662,-112.3733C568.6852,-103.4644 541.7433,-90.1127 521.3783,-80.0203"/>
<polygon fill="#191970" stroke="#191970" points="522.7735,-76.8055 512.2593,-75.5011 519.6652,-83.0776 522.7735,-76.8055"/>
</g>
<!-- Node9 -->
<g id="node10" class="node">
<title>Node9</title>
<polygon fill="none" stroke="#bfbfbf" points="895.5874,-56.5 895.5874,-75.5 964.5874,-75.5 964.5874,-56.5 895.5874,-56.5"/>
<text text-anchor="middle" x="930.0874" y="-63.5" font-family="Helvetica,sans-Serif" font-size="10.00" fill="#000000">type_traits</text>
</g>
<!-- Node8&#45;&gt;Node9 -->
<g id="edge10" class="edge">
<title>Node8&#45;&gt;Node9</title>
<path fill="none" stroke="#191970" d="M891.2742,-112.2455C897.9462,-104.2958 907.5353,-92.8706 915.5127,-83.3656"/>
<polygon fill="#191970" stroke="#191970" points="918.2466,-85.5525 921.9944,-75.6427 912.8848,-81.0524 918.2466,-85.5525"/>
</g>
<!-- Node10 -->
<g id="node11" class="node">
<title>Node10</title>
<polygon fill="none" stroke="#bfbfbf" points="983.0874,-56.5 983.0874,-75.5 1033.0874,-75.5 1033.0874,-56.5 983.0874,-56.5"/>
<text text-anchor="middle" x="1008.0874" y="-63.5" font-family="Helvetica,sans-Serif" font-size="10.00" fill="#000000">cstring</text>
</g>
<!-- Node8&#45;&gt;Node10 -->
<g id="edge11" class="edge">
<title>Node8&#45;&gt;Node10</title>
<path fill="none" stroke="#191970" d="M904.5756,-112.3733C924.7314,-103.3435 955.0754,-89.7494 977.7054,-79.6111"/>
<polygon fill="#191970" stroke="#191970" points="979.1845,-82.7838 986.8795,-75.5011 976.3225,-76.3955 979.1845,-82.7838"/>
</g>
<!-- Node11 -->
<g id="node12" class="node">
<title>Node11</title>
<polygon fill="none" stroke="#bfbfbf" points="1051.0874,-56.5 1051.0874,-75.5 1101.0874,-75.5 1101.0874,-56.5 1051.0874,-56.5"/>
<text text-anchor="middle" x="1076.0874" y="-63.5" font-family="Helvetica,sans-Serif" font-size="10.00" fill="#000000">cstdint</text>
</g>
<!-- Node8&#45;&gt;Node11 -->
<g id="edge12" class="edge">
<title>Node8&#45;&gt;Node11</title>
<path fill="none" stroke="#191970" d="M916.2936,-112.4395C946.4578,-103.7447 992.4378,-90.4654 1041.08,-76.286"/>
<polygon fill="#191970" stroke="#191970" points="1042.2201,-79.5994 1050.84,-73.4392 1040.26,-72.8794 1042.2201,-79.5994"/>
</g>
<!-- Node12 -->
<g id="node13" class="node">
<title>Node12</title>
<polygon fill="none" stroke="#bfbfbf" points="1119.5874,-56.5 1119.5874,-75.5 1168.5874,-75.5 1168.5874,-56.5 1119.5874,-56.5"/>
<text text-anchor="middle" x="1144.0874" y="-63.5" font-family="Helvetica,sans-Serif" font-size="10.00" fill="#000000">cstdlib</text>
</g>
<!-- Node8&#45;&gt;Node12 -->
<g id="edge13" class="edge">
<title>Node8&#45;&gt;Node12</title>
<path fill="none" stroke="#191970" d="M937.041,-112.4209C980.9639,-104.3158 1044.7471,-91.8521 1109.3235,-76.0298"/>
<polygon fill="#191970" stroke="#191970" points="1110.4065,-79.3674 1119.2723,-73.5667 1108.7242,-72.5726 1110.4065,-79.3674"/>
</g>
<!-- Node13 -->
<g id="node14" class="node">
<title>Node13</title>
<polygon fill="none" stroke="#bfbfbf" points="1186.5874,-56.5 1186.5874,-75.5 1251.5874,-75.5 1251.5874,-56.5 1186.5874,-56.5"/>
<text text-anchor="middle" x="1219.0874" y="-63.5" font-family="Helvetica,sans-Serif" font-size="10.00" fill="#000000">stdexcept</text>
</g>
<!-- Node8&#45;&gt;Node13 -->
<g id="edge14" class="edge">
<title>Node8&#45;&gt;Node13</title>
<path fill="none" stroke="#191970" d="M941.5896,-113.1496C1014.2668,-102.1165 1133.2051,-83.9228 1176.5478,-76.0968"/>
<polygon fill="#191970" stroke="#191970" points="1177.2943,-79.5177 1186.4691,-74.2191 1175.9926,-72.6398 1177.2943,-79.5177"/>
</g>
<!-- Node14 -->
<g id="node15" class="node">
<title>Node14</title>
<polygon fill="none" stroke="#bfbfbf" points="727.5874,-56.5 727.5874,-75.5 776.5874,-75.5 776.5874,-56.5 727.5874,-56.5"/>
<text text-anchor="middle" x="752.0874" y="-63.5" font-family="Helvetica,sans-Serif" font-size="10.00" fill="#000000">iosfwd</text>
</g>
<!-- Node8&#45;&gt;Node14 -->
<g id="edge15" class="edge">
<title>Node8&#45;&gt;Node14</title>
<path fill="none" stroke="#191970" d="M860.5677,-112.3733C839.3502,-103.3032 807.3598,-89.6279 783.6105,-79.4755"/>
<polygon fill="#191970" stroke="#191970" points="784.8841,-76.2136 774.3132,-75.5011 782.1325,-82.6502 784.8841,-76.2136"/>
</g>
<!-- Node15 -->
<g id="node16" class="node">
<title>Node15</title>
<polygon fill="none" stroke="#bfbfbf" points="794.5874,-56.5 794.5874,-75.5 877.5874,-75.5 877.5874,-56.5 794.5874,-56.5"/>
<text text-anchor="middle" x="836.0874" y="-63.5" font-family="Helvetica,sans-Serif" font-size="10.00" fill="#000000">initializer_list</text>
</g>
<!-- Node8&#45;&gt;Node15 -->
<g id="edge16" class="edge">
<title>Node8&#45;&gt;Node15</title>
<path fill="none" stroke="#191970" d="M874.9006,-112.2455C868.2285,-104.2958 858.6394,-92.8706 850.6621,-83.3656"/>
<polygon fill="#191970" stroke="#191970" points="853.29,-81.0524 844.1803,-75.6427 847.9282,-85.5525 853.29,-81.0524"/>
</g>
<!-- Node16&#45;&gt;Node2 -->
<g id="edge21" class="edge">
<title>Node16&#45;&gt;Node2</title>
<path fill="none" stroke="#191970" d="M400.8733,-112.2644C414.6467,-98.6558 435.1125,-73.6369 421.0874,-56 400.6372,-30.2834 305.5126,-17.6938 254.5437,-12.7023"/>
<polygon fill="#191970" stroke="#191970" points="254.6633,-9.1983 244.3805,-11.7505 254.0105,-16.1678 254.6633,-9.1983"/>
</g>
<!-- Node16&#45;&gt;Node7 -->
<g id="edge20" class="edge">
<title>Node16&#45;&gt;Node7</title>
<path fill="none" stroke="#191970" d="M408.0286,-112.2455C424.1274,-103.4928 447.9753,-90.527 466.3265,-80.5496"/>
<polygon fill="#191970" stroke="#191970" points="468.2381,-83.4942 475.3517,-75.6427 464.8944,-77.3444 468.2381,-83.4942"/>
</g>
<!-- Node17 -->
<g id="node18" class="node">
<title>Node17</title>
<g id="a_node18"><a xlink:href="../../dd/de5/ChannelInfo_8h.html" target="_top" xlink:title="Framework/ChannelInfo.h">
<polygon fill="none" stroke="#000000" points="151.5874,-56.5 151.5874,-75.5 292.5874,-75.5 292.5874,-56.5 151.5874,-56.5"/>
<text text-anchor="middle" x="222.0874" y="-63.5" font-family="Helvetica,sans-Serif" font-size="10.00" fill="#000000">Framework/ChannelInfo.h</text>
</a>
</g>
</g>
<!-- Node16&#45;&gt;Node17 -->
<g id="edge18" class="edge">
<title>Node16&#45;&gt;Node17</title>
<path fill="none" stroke="#191970" d="M361.2071,-112.3733C333.2713,-103.0613 290.7732,-88.8953 260.1004,-78.671"/>
<polygon fill="#191970" stroke="#191970" points="261.1844,-75.3431 250.5907,-75.5011 258.9708,-81.9839 261.1844,-75.3431"/>
</g>
<!-- Node18 -->
<g id="node19" class="node">
<title>Node18</title>
<polygon fill="none" stroke="#bfbfbf" points="311.0874,-56.5 311.0874,-75.5 349.0874,-75.5 349.0874,-56.5 311.0874,-56.5"/>
<text text-anchor="middle" x="330.0874" y="-63.5" font-family="Helvetica,sans-Serif" font-size="10.00" fill="#000000">map</text>
</g>
<!-- Node16&#45;&gt;Node18 -->
<g id="edge22" class="edge">
<title>Node16&#45;&gt;Node18</title>
<path fill="none" stroke="#191970" d="M379.6362,-112.2455C370.8605,-104.0549 358.1319,-92.1749 347.7734,-82.5069"/>
<polygon fill="#191970" stroke="#191970" points="350.1175,-79.9072 340.4188,-75.6427 345.3413,-85.0246 350.1175,-79.9072"/>
</g>
<!-- Node19 -->
<g id="node20" class="node">
<title>Node19</title>
<polygon fill="none" stroke="#bfbfbf" points="367.5874,-56.5 367.5874,-75.5 412.5874,-75.5 412.5874,-56.5 367.5874,-56.5"/>
<text text-anchor="middle" x="390.0874" y="-63.5" font-family="Helvetica,sans-Serif" font-size="10.00" fill="#000000">utility</text>
</g>
<!-- Node16&#45;&gt;Node19 -->
<g id="edge23" class="edge">
<title>Node16&#45;&gt;Node19</title>
<path fill="none" stroke="#191970" d="M390.0874,-112.2455C390.0874,-104.9382 390.0874,-94.6944 390.0874,-85.7046"/>
<polygon fill="#191970" stroke="#191970" points="393.5875,-85.6426 390.0874,-75.6427 386.5875,-85.6427 393.5875,-85.6426"/>
</g>
<!-- Node17&#45;&gt;Node2 -->
<g id="edge19" class="edge">
<title>Node17&#45;&gt;Node2</title>
<path fill="none" stroke="#191970" d="M222.0874,-56.2455C222.0874,-48.9382 222.0874,-38.6944 222.0874,-29.7046"/>
<polygon fill="#191970" stroke="#191970" points="225.5875,-29.6426 222.0874,-19.6427 218.5875,-29.6427 225.5875,-29.6426"/>
</g>
</g>
</svg>
