<?xml version="1.0" encoding="UTF-8" standalone="no"?>
<!DOCTYPE svg PUBLIC "-//W3C//DTD SVG 1.1//EN"
 "http://www.w3.org/Graphics/SVG/1.1/DTD/svg11.dtd">
<!-- Generated by graphviz version 2.40.1 (20161225.0304)
 -->
<!-- Title: o2::ft0::FT0DPLDigitWriter Pages: 1 -->
<!--zoomable 909 -->
<svg id="main" version="1.1" xmlns="http://www.w3.org/2000/svg" xmlns:xlink="http://www.w3.org/1999/xlink" xml:space="preserve" onload="init(evt)">
<style type="text/css"><![CDATA[
.edge:hover path { stroke: red; }
.edge:hover polygon { stroke: red; fill: red; }
]]></style>
<script type="text/javascript"><![CDATA[
var edges = document.getElementsByTagName('g');
if (edges && edges.length) {
  for (var i=0;i<edges.length;i++) {
    if (edges[i].id.substr(0,4)=='edge') {
      edges[i].setAttribute('class','edge');
    }
  }
}
]]></script>
        <defs>
                <circle id="rim" cx="0" cy="0" r="7"/>
                <circle id="rim2" cx="0" cy="0" r="3.5"/>
                <g id="zoomPlus">
                        <use xlink:href="#rim" fill="#404040">
                                <set attributeName="fill" to="#808080" begin="zoomplus.mouseover" end="zoomplus.mouseout"/>
                        </use>
                        <path d="M-4,0h8M0,-4v8" fill="none" stroke="white" stroke-width="1.5" pointer-events="none"/>
                </g>
                <g id="zoomMin">
                        <use xlink:href="#rim" fill="#404040">
                                <set attributeName="fill" to="#808080" begin="zoomminus.mouseover" end="zoomminus.mouseout"/>
                        </use>
                        <path d="M-4,0h8" fill="none" stroke="white" stroke-width="1.5" pointer-events="none"/>
                </g>
                <g id="dirArrow">
                        <path fill="none" stroke="white" stroke-width="1.5" d="M0,-3.0v7 M-2.5,-0.5L0,-3.0L2.5,-0.5"/>
                </g>
               <g id="resetDef">
                       <use xlink:href="#rim2" fill="#404040">
                               <set attributeName="fill" to="#808080" begin="reset.mouseover" end="reset.mouseout"/>
                       </use>
               </g>
        </defs>

<script type="text/javascript">
var viewWidth = 1042;
var viewHeight = 909;
var sectionId = 'dynsection-0';
</script>
<script xlink:href="../../svgpan.js"/>
<svg id="graph" class="graph">
<g id="viewport">
<title>o2::ft0::FT0DPLDigitWriter</title>
<!-- Node1 -->
<g id="node1" class="node">
<title>Node1</title>
<polygon fill="#bfbfbf" stroke="#000000" points="484,-.5 484,-90.5 627,-90.5 627,-.5 484,-.5"/>
<text text-anchor="middle" x="555.5" y="-78.5" font-family="Helvetica,sans-Serif" font-size="10.00" fill="#000000">o2::ft0::FT0DPLDigitWriter</text>
<polyline fill="none" stroke="#000000" points="484,-71.5 627,-71.5 "/>
<text text-anchor="middle" x="555.5" y="-59.5" font-family="Helvetica,sans-Serif" font-size="10.00" fill="#000000"> </text>
<polyline fill="none" stroke="#000000" points="484,-52.5 627,-52.5 "/>
<text text-anchor="start" x="492" y="-40.5" font-family="Helvetica,sans-Serif" font-size="10.00" fill="#000000">+ init()</text>
<text text-anchor="start" x="492" y="-29.5" font-family="Helvetica,sans-Serif" font-size="10.00" fill="#000000">+ run()</text>
<text text-anchor="start" x="492" y="-18.5" font-family="Helvetica,sans-Serif" font-size="10.00" fill="#000000">+ FT0DPLDigitWriter()</text>
<text text-anchor="start" x="492" y="-7.5" font-family="Helvetica,sans-Serif" font-size="10.00" fill="#000000"># getOrMakeBranch()</text>
</g>
<!-- Node2 -->
<g id="node2" class="node">
<title>Node2</title>
<g id="a_node2"><a xlink:href="../../d9/db3/structo2_1_1header_1_1Descriptor.html" target="_top" xlink:title="{o2::header::Descriptor\l\&lt; gSizeDataOriginString,\l printDataOrigin \&gt;\n||+ Descriptor()\l+ Descriptor()\l+ Descriptor()\l+ Descriptor()\l+ operator=()\l+ operator ItgType()\l+ runtimeInit()\l+ operator==()\l+ operator==()\l+ operator\&lt;()\l+ operator!=()\l+ operator!=()\l+ as()\l+ print()\l}">
<polygon fill="none" stroke="#000000" points="110.5,-160.5 110.5,-382.5 248.5,-382.5 248.5,-160.5 110.5,-160.5"/>
<text text-anchor="start" x="118.5" y="-370.5" font-family="Helvetica,sans-Serif" font-size="10.00" fill="#000000">o2::header::Descriptor</text>
<text text-anchor="start" x="118.5" y="-359.5" font-family="Helvetica,sans-Serif" font-size="10.00" fill="#000000">&lt; gSizeDataOriginString,</text>
<text text-anchor="middle" x="179.5" y="-348.5" font-family="Helvetica,sans-Serif" font-size="10.00" fill="#000000"> printDataOrigin &gt;</text>
<polyline fill="none" stroke="#000000" points="110.5,-341.5 248.5,-341.5 "/>
<text text-anchor="middle" x="179.5" y="-329.5" font-family="Helvetica,sans-Serif" font-size="10.00" fill="#000000"> </text>
<polyline fill="none" stroke="#000000" points="110.5,-322.5 248.5,-322.5 "/>
<text text-anchor="start" x="118.5" y="-310.5" font-family="Helvetica,sans-Serif" font-size="10.00" fill="#000000">+ Descriptor()</text>
<text text-anchor="start" x="118.5" y="-299.5" font-family="Helvetica,sans-Serif" font-size="10.00" fill="#000000">+ Descriptor()</text>
<text text-anchor="start" x="118.5" y="-288.5" font-family="Helvetica,sans-Serif" font-size="10.00" fill="#000000">+ Descriptor()</text>
<text text-anchor="start" x="118.5" y="-277.5" font-family="Helvetica,sans-Serif" font-size="10.00" fill="#000000">+ Descriptor()</text>
<text text-anchor="start" x="118.5" y="-266.5" font-family="Helvetica,sans-Serif" font-size="10.00" fill="#000000">+ operator=()</text>
<text text-anchor="start" x="118.5" y="-255.5" font-family="Helvetica,sans-Serif" font-size="10.00" fill="#000000">+ operator ItgType()</text>
<text text-anchor="start" x="118.5" y="-244.5" font-family="Helvetica,sans-Serif" font-size="10.00" fill="#000000">+ runtimeInit()</text>
<text text-anchor="start" x="118.5" y="-233.5" font-family="Helvetica,sans-Serif" font-size="10.00" fill="#000000">+ operator==()</text>
<text text-anchor="start" x="118.5" y="-222.5" font-family="Helvetica,sans-Serif" font-size="10.00" fill="#000000">+ operator==()</text>
<text text-anchor="start" x="118.5" y="-211.5" font-family="Helvetica,sans-Serif" font-size="10.00" fill="#000000">+ operator&lt;()</text>
<text text-anchor="start" x="118.5" y="-200.5" font-family="Helvetica,sans-Serif" font-size="10.00" fill="#000000">+ operator!=()</text>
<text text-anchor="start" x="118.5" y="-189.5" font-family="Helvetica,sans-Serif" font-size="10.00" fill="#000000">+ operator!=()</text>
<text text-anchor="start" x="118.5" y="-178.5" font-family="Helvetica,sans-Serif" font-size="10.00" fill="#000000">+ as()</text>
<text text-anchor="start" x="118.5" y="-167.5" font-family="Helvetica,sans-Serif" font-size="10.00" fill="#000000">+ print()</text>
</a>
</g>
</g>
<!-- Node2&#45;&gt;Node1 -->
<g id="edge1" class="edge">
<title>Node2&#45;&gt;Node1</title>
<path fill="none" stroke="#404040" d="M225.0531,-160.2047C237.3106,-140.7854 252.3423,-122.5127 270.5,-109 301.9274,-85.6123 399.2911,-67.3188 471.5183,-56.4933"/>
<polygon fill="none" stroke="#404040" points="471.9113,-56.4356 477.2656,-51.6053 483.7836,-54.6899 478.4293,-59.5202 471.9113,-56.4356"/>
<text text-anchor="middle" x="296" y="-112" font-family="Helvetica,sans-Serif" font-size="10.00" fill="#000000"> #mOrigin</text>
</g>
<!-- Node3 -->
<g id="node3" class="node">
<title>Node3</title>
<polygon fill="none" stroke="#bfbfbf" points="325,-843.5 325,-900.5 364,-900.5 364,-843.5 325,-843.5"/>
<text text-anchor="middle" x="344.5" y="-888.5" font-family="Helvetica,sans-Serif" font-size="10.00" fill="#000000">Type</text>
<polyline fill="none" stroke="#bfbfbf" points="325,-881.5 364,-881.5 "/>
<text text-anchor="middle" x="344.5" y="-869.5" font-family="Helvetica,sans-Serif" font-size="10.00" fill="#000000"> </text>
<polyline fill="none" stroke="#bfbfbf" points="325,-862.5 364,-862.5 "/>
<text text-anchor="middle" x="344.5" y="-850.5" font-family="Helvetica,sans-Serif" font-size="10.00" fill="#000000"> </text>
</g>
<!-- Node3&#45;&gt;Node2 -->
<g id="edge2" class="edge">
<title>Node3&#45;&gt;Node2</title>
<path fill="none" stroke="#404040" d="M350.4384,-843.4616C364.3226,-769.7292 392.8694,-568.4929 325.5,-423 320.9914,-413.2631 289.8642,-380.5484 257.5033,-348"/>
<polygon fill="none" stroke="#404040" points="257.2928,-347.789 250.2232,-346.3673 248.8164,-339.2948 255.886,-340.7164 257.2928,-347.789"/>
<text text-anchor="middle" x="381" y="-665.5" font-family="Helvetica,sans-Serif" font-size="10.00" fill="#000000"> +itg</text>
</g>
<!-- Node7 -->
<g id="node7" class="node">
<title>Node7</title>
<g id="a_node7"><a xlink:href="../../d9/db3/structo2_1_1header_1_1Descriptor.html" target="_top" xlink:title="{o2::header::Descriptor\l\&lt; N, PrinterPolicy \&gt;\n||+ Descriptor()\l+ Descriptor()\l+ Descriptor()\l+ operator=()\l+ operator ItgType()\l+ Descriptor()\l+ runtimeInit()\l+ operator==()\l+ operator\&lt;()\l+ operator!=()\l+ operator==()\l+ operator!=()\l+ as()\l+ print()\l}">
<polygon fill="none" stroke="#000000" points="206,-562.5 206,-773.5 331,-773.5 331,-562.5 206,-562.5"/>
<text text-anchor="start" x="214" y="-761.5" font-family="Helvetica,sans-Serif" font-size="10.00" fill="#000000">o2::header::Descriptor</text>
<text text-anchor="middle" x="268.5" y="-750.5" font-family="Helvetica,sans-Serif" font-size="10.00" fill="#000000">&lt; N, PrinterPolicy &gt;</text>
<polyline fill="none" stroke="#000000" points="206,-743.5 331,-743.5 "/>
<text text-anchor="middle" x="268.5" y="-731.5" font-family="Helvetica,sans-Serif" font-size="10.00" fill="#000000"> </text>
<polyline fill="none" stroke="#000000" points="206,-724.5 331,-724.5 "/>
<text text-anchor="start" x="214" y="-712.5" font-family="Helvetica,sans-Serif" font-size="10.00" fill="#000000">+ Descriptor()</text>
<text text-anchor="start" x="214" y="-701.5" font-family="Helvetica,sans-Serif" font-size="10.00" fill="#000000">+ Descriptor()</text>
<text text-anchor="start" x="214" y="-690.5" font-family="Helvetica,sans-Serif" font-size="10.00" fill="#000000">+ Descriptor()</text>
<text text-anchor="start" x="214" y="-679.5" font-family="Helvetica,sans-Serif" font-size="10.00" fill="#000000">+ operator=()</text>
<text text-anchor="start" x="214" y="-668.5" font-family="Helvetica,sans-Serif" font-size="10.00" fill="#000000">+ operator ItgType()</text>
<text text-anchor="start" x="214" y="-657.5" font-family="Helvetica,sans-Serif" font-size="10.00" fill="#000000">+ Descriptor()</text>
<text text-anchor="start" x="214" y="-646.5" font-family="Helvetica,sans-Serif" font-size="10.00" fill="#000000">+ runtimeInit()</text>
<text text-anchor="start" x="214" y="-635.5" font-family="Helvetica,sans-Serif" font-size="10.00" fill="#000000">+ operator==()</text>
<text text-anchor="start" x="214" y="-624.5" font-family="Helvetica,sans-Serif" font-size="10.00" fill="#000000">+ operator&lt;()</text>
<text text-anchor="start" x="214" y="-613.5" font-family="Helvetica,sans-Serif" font-size="10.00" fill="#000000">+ operator!=()</text>
<text text-anchor="start" x="214" y="-602.5" font-family="Helvetica,sans-Serif" font-size="10.00" fill="#000000">+ operator==()</text>
<text text-anchor="start" x="214" y="-591.5" font-family="Helvetica,sans-Serif" font-size="10.00" fill="#000000">+ operator!=()</text>
<text text-anchor="start" x="214" y="-580.5" font-family="Helvetica,sans-Serif" font-size="10.00" fill="#000000">+ as()</text>
<text text-anchor="start" x="214" y="-569.5" font-family="Helvetica,sans-Serif" font-size="10.00" fill="#000000">+ print()</text>
</a>
</g>
</g>
<!-- Node3&#45;&gt;Node7 -->
<g id="edge7" class="edge">
<title>Node3&#45;&gt;Node7</title>
<path fill="none" stroke="#404040" d="M333.7722,-843.2045C327.8837,-827.3984 320.1486,-806.6356 312.0701,-784.9513"/>
<polygon fill="none" stroke="#404040" points="312.0116,-784.7941 306.1686,-780.5681 307.8222,-773.5491 313.6652,-777.7752 312.0116,-784.7941"/>
<text text-anchor="middle" x="339" y="-806" font-family="Helvetica,sans-Serif" font-size="10.00" fill="#000000"> +itg</text>
</g>
<!-- Node4 -->
<g id="node4" class="node">
<title>Node4</title>
<polygon fill="none" stroke="#bfbfbf" points="232.5,-843.5 232.5,-900.5 270.5,-900.5 270.5,-843.5 232.5,-843.5"/>
<text text-anchor="middle" x="251.5" y="-888.5" font-family="Helvetica,sans-Serif" font-size="10.00" fill="#000000">char</text>
<polyline fill="none" stroke="#bfbfbf" points="232.5,-881.5 270.5,-881.5 "/>
<text text-anchor="middle" x="251.5" y="-869.5" font-family="Helvetica,sans-Serif" font-size="10.00" fill="#000000"> </text>
<polyline fill="none" stroke="#bfbfbf" points="232.5,-862.5 270.5,-862.5 "/>
<text text-anchor="middle" x="251.5" y="-850.5" font-family="Helvetica,sans-Serif" font-size="10.00" fill="#000000"> </text>
</g>
<!-- Node4&#45;&gt;Node2 -->
<g id="edge3" class="edge">
<title>Node4&#45;&gt;Node2</title>
<path fill="none" stroke="#404040" d="M246.9198,-843.1686C242.8623,-826.2778 235.3308,-805.6492 221.5,-792 204.6893,-775.41 185.0809,-793.3232 171.5,-774 130.1575,-715.1769 145.3619,-523.8277 161.44,-394.9683"/>
<polygon fill="none" stroke="#404040" points="161.4861,-394.6042 158.2733,-388.1484 162.9968,-382.6997 166.2096,-389.1555 161.4861,-394.6042"/>
<text text-anchor="middle" x="184" y="-665.5" font-family="Helvetica,sans-Serif" font-size="10.00" fill="#000000"> +str</text>
</g>
<!-- Node4&#45;&gt;Node7 -->
<g id="edge8" class="edge">
<title>Node4&#45;&gt;Node7</title>
<path fill="none" stroke="#404040" d="M253.8996,-843.2045C255.2047,-827.5434 256.9153,-807.0161 258.7043,-785.5478"/>
<polygon fill="none" stroke="#404040" points="258.7076,-785.5077 255.2197,-779.1962 259.7042,-773.5491 263.1921,-779.8606 258.7076,-785.5077"/>
<text text-anchor="middle" x="271" y="-806" font-family="Helvetica,sans-Serif" font-size="10.00" fill="#000000"> +str</text>
</g>
<!-- Node5 -->
<g id="node5" class="node">
<title>Node5</title>
<polygon fill="none" stroke="#bfbfbf" points="0,-843.5 0,-900.5 29,-900.5 29,-843.5 0,-843.5"/>
<text text-anchor="middle" x="14.5" y="-888.5" font-family="Helvetica,sans-Serif" font-size="10.00" fill="#000000">int</text>
<polyline fill="none" stroke="#bfbfbf" points="0,-881.5 29,-881.5 "/>
<text text-anchor="middle" x="14.5" y="-869.5" font-family="Helvetica,sans-Serif" font-size="10.00" fill="#000000"> </text>
<polyline fill="none" stroke="#bfbfbf" points="0,-862.5 29,-862.5 "/>
<text text-anchor="middle" x="14.5" y="-850.5" font-family="Helvetica,sans-Serif" font-size="10.00" fill="#000000"> </text>
</g>
<!-- Node5&#45;&gt;Node2 -->
<g id="edge4" class="edge">
<title>Node5&#45;&gt;Node2</title>
<path fill="none" stroke="#404040" d="M11.2893,-843.1598C6.0243,-787.6139 -1.3669,-662.4044 25.5,-562 42.0997,-499.965 73.85,-436.3521 104.2292,-384.5282"/>
<polygon fill="none" stroke="#404040" points="104.3591,-384.3092 103.9812,-377.108 110.4831,-373.9894 110.8611,-381.1906 104.3591,-384.3092"/>
<text text-anchor="middle" x="54.5" y="-676.5" font-family="Helvetica,sans-Serif" font-size="10.00" fill="#000000"> +arraySize</text>
<text text-anchor="middle" x="54.5" y="-665.5" font-family="Helvetica,sans-Serif" font-size="10.00" fill="#000000">+size</text>
<text text-anchor="middle" x="54.5" y="-654.5" font-family="Helvetica,sans-Serif" font-size="10.00" fill="#000000">+bitcount</text>
</g>
<!-- Node5&#45;&gt;Node7 -->
<g id="edge9" class="edge">
<title>Node5&#45;&gt;Node7</title>
<path fill="none" stroke="#404040" d="M29.2518,-855.4884C46.6155,-837.1143 77.2023,-807.921 109.5,-792 142.9669,-775.5026 160.2759,-794.4268 191.5,-774 193.2339,-772.8657 194.9419,-771.6779 196.6237,-770.4418"/>
<polygon fill="none" stroke="#404040" points="196.6427,-770.4264 198.7861,-763.5412 205.9661,-762.8715 203.8227,-769.7567 196.6427,-770.4264"/>
<text text-anchor="middle" x="138.5" y="-817" font-family="Helvetica,sans-Serif" font-size="10.00" fill="#000000"> +arraySize</text>
<text text-anchor="middle" x="138.5" y="-806" font-family="Helvetica,sans-Serif" font-size="10.00" fill="#000000">+size</text>
<text text-anchor="middle" x="138.5" y="-795" font-family="Helvetica,sans-Serif" font-size="10.00" fill="#000000">+bitcount</text>
</g>
<!-- Node6 -->
<g id="node6" class="node">
<title>Node6</title>
<polygon fill="none" stroke="#bfbfbf" points="87,-843.5 87,-900.5 194,-900.5 194,-843.5 87,-843.5"/>
<text text-anchor="middle" x="140.5" y="-888.5" font-family="Helvetica,sans-Serif" font-size="10.00" fill="#000000">anonymous:+@24</text>
<polyline fill="none" stroke="#bfbfbf" points="87,-881.5 194,-881.5 "/>
<text text-anchor="middle" x="140.5" y="-869.5" font-family="Helvetica,sans-Serif" font-size="10.00" fill="#000000"> </text>
<polyline fill="none" stroke="#bfbfbf" points="87,-862.5 194,-862.5 "/>
<text text-anchor="middle" x="140.5" y="-850.5" font-family="Helvetica,sans-Serif" font-size="10.00" fill="#000000"> </text>
</g>
<!-- Node6&#45;&gt;Node2 -->
<g id="edge5" class="edge">
<title>Node6&#45;&gt;Node2</title>
<path fill="none" stroke="#404040" d="M99.443,-843.4699C94.1984,-837.9739 89.5904,-831.7867 86.5,-825 80.4219,-811.652 85.8641,-806.6529 86.5,-792 90.9486,-689.4885 89.4981,-663.1896 106.5,-562 115.8329,-506.4536 130.3362,-445.9075 143.964,-394.5358"/>
<polygon fill="none" stroke="#404040" points="144.0279,-394.2969 141.7148,-387.4668 147.1299,-382.7047 149.4429,-389.5348 144.0279,-394.2969"/>
<text text-anchor="middle" x="123.5" y="-665.5" font-family="Helvetica,sans-Serif" font-size="10.00" fill="#000000"> +@24</text>
</g>
<!-- Node6&#45;&gt;Node7 -->
<g id="edge10" class="edge">
<title>Node6&#45;&gt;Node7</title>
<path fill="none" stroke="#404040" d="M158.5678,-843.2045C169.5421,-825.7141 184.3248,-802.1542 199.4851,-777.9925"/>
<polygon fill="none" stroke="#404040" points="199.6175,-777.7814 199.4183,-770.573 205.9955,-767.6166 206.1948,-774.8249 199.6175,-777.7814"/>
<text text-anchor="middle" x="206.5" y="-806" font-family="Helvetica,sans-Serif" font-size="10.00" fill="#000000"> +@24</text>
</g>
<!-- Node7&#45;&gt;Node1 -->
<g id="edge18" class="edge">
<title>Node7&#45;&gt;Node1</title>
<path fill="none" stroke="#404040" d="M316.4999,-562.2748C318.3934,-556.1589 320.0841,-550.0404 321.5,-544 362.7479,-368.0361 241.3913,-286.4362 344.5,-138 373.7828,-95.8442 426.7291,-72.7085 472.2562,-60.1172"/>
<polygon fill="none" stroke="#404040" points="472.3453,-60.094 477.1405,-54.7082 483.9563,-57.0631 479.1611,-62.4488 472.3453,-60.094"/>
<text text-anchor="middle" x="367.5" y="-269" font-family="Helvetica,sans-Serif" font-size="10.00" fill="#000000"> +DETOR</text>
</g>
<!-- Node7&#45;&gt;Node2 -->
<g id="edge6" class="edge">
<title>Node7&#45;&gt;Node2</title>
<path fill="none" stroke="#ffa500" d="M202.0366,-559.8612C199.9663,-554.5872 198.1015,-549.286 196.5,-544 180.8657,-492.3978 175.7688,-432.8521 174.9317,-382.6102"/>
<polygon fill="#ffa500" stroke="#ffa500" points="198.8982,-561.4292 205.9728,-569.3159 205.3605,-558.7388 198.8982,-561.4292"/>
<text text-anchor="start" x="196.5" y="-486.5" font-family="Helvetica,sans-Serif" font-size="10.00" fill="#000000"> &lt; gSizeDataOriginString,</text>
<text text-anchor="middle" x="259" y="-475.5" font-family="Helvetica,sans-Serif" font-size="10.00" fill="#000000"> printDataOrigin &gt;</text>
</g>
<!-- Node8 -->
<g id="node8" class="node">
<title>Node8</title>
<polygon fill="none" stroke="#bfbfbf" points="400,-243 400,-300 429,-300 429,-243 400,-243"/>
<text text-anchor="middle" x="414.5" y="-288" font-family="Helvetica,sans-Serif" font-size="10.00" fill="#000000">ID</text>
<polyline fill="none" stroke="#bfbfbf" points="400,-281 429,-281 "/>
<text text-anchor="middle" x="414.5" y="-269" font-family="Helvetica,sans-Serif" font-size="10.00" fill="#000000"> </text>
<polyline fill="none" stroke="#bfbfbf" points="400,-262 429,-262 "/>
<text text-anchor="middle" x="414.5" y="-250" font-family="Helvetica,sans-Serif" font-size="10.00" fill="#000000"> </text>
</g>
<!-- Node8&#45;&gt;Node1 -->
<g id="edge11" class="edge">
<title>Node8&#45;&gt;Node1</title>
<path fill="none" stroke="#404040" d="M413.6389,-242.8899C414.0472,-214.3798 418.2088,-170.3085 437.5,-138 446.969,-122.1416 460.2543,-107.9678 474.513,-95.7632"/>
<polygon fill="none" stroke="#404040" points="474.6947,-95.615 476.8155,-88.7228 483.9932,-88.0295 481.8725,-94.9217 474.6947,-95.615"/>
<text text-anchor="middle" x="481.5" y="-112" font-family="Helvetica,sans-Serif" font-size="10.00" fill="#000000"> +DETID</text>
</g>
<!-- Node9 -->
<g id="node9" class="node">
<title>Node9</title>
<polygon fill="none" stroke="#bfbfbf" points="447,-243 447,-300 560,-300 560,-243 447,-243"/>
<text text-anchor="middle" x="503.5" y="-288" font-family="Helvetica,sans-Serif" font-size="10.00" fill="#000000">unique_ptr&lt; TFile &gt;</text>
<polyline fill="none" stroke="#bfbfbf" points="447,-281 560,-281 "/>
<text text-anchor="middle" x="503.5" y="-269" font-family="Helvetica,sans-Serif" font-size="10.00" fill="#000000"> </text>
<polyline fill="none" stroke="#bfbfbf" points="447,-262 560,-262 "/>
<text text-anchor="middle" x="503.5" y="-250" font-family="Helvetica,sans-Serif" font-size="10.00" fill="#000000"> </text>
</g>
<!-- Node9&#45;&gt;Node1 -->
<g id="edge12" class="edge">
<title>Node9&#45;&gt;Node1</title>
<path fill="none" stroke="#404040" d="M506.7427,-242.96C510.8464,-210.2247 518.9328,-155.1267 531.5,-109 532.1157,-106.74 532.7805,-104.4482 533.483,-102.1431"/>
<polygon fill="none" stroke="#404040" points="533.5299,-101.9996 531.5916,-95.0538 537.2575,-90.5932 539.1958,-97.5389 533.5299,-101.9996"/>
<text text-anchor="middle" x="559" y="-112" font-family="Helvetica,sans-Serif" font-size="10.00" fill="#000000"> #mOutFile</text>
</g>
<!-- Node10 -->
<g id="node10" class="node">
<title>Node10</title>
<g id="a_node10"><a xlink:href="../../d6/dd5/classo2_1_1detectors_1_1DetID.html" target="_top" xlink:title="Static class with identifiers, bitmasks and names for ALICE detectors. ">
<polygon fill="none" stroke="#000000" points="578.5,-138.5 578.5,-404.5 692.5,-404.5 692.5,-138.5 578.5,-138.5"/>
<text text-anchor="middle" x="635.5" y="-392.5" font-family="Helvetica,sans-Serif" font-size="10.00" fill="#000000">o2::detectors::DetID</text>
<polyline fill="none" stroke="#000000" points="578.5,-385.5 692.5,-385.5 "/>
<text text-anchor="start" x="586.5" y="-373.5" font-family="Helvetica,sans-Serif" font-size="10.00" fill="#000000">+ ITS</text>
<text text-anchor="start" x="586.5" y="-362.5" font-family="Helvetica,sans-Serif" font-size="10.00" fill="#000000">+ TOF</text>
<text text-anchor="start" x="586.5" y="-351.5" font-family="Helvetica,sans-Serif" font-size="10.00" fill="#000000">+ PHS</text>
<text text-anchor="start" x="586.5" y="-340.5" font-family="Helvetica,sans-Serif" font-size="10.00" fill="#000000">+ CPV</text>
<text text-anchor="start" x="586.5" y="-329.5" font-family="Helvetica,sans-Serif" font-size="10.00" fill="#000000">+ EMC</text>
<text text-anchor="start" x="586.5" y="-318.5" font-family="Helvetica,sans-Serif" font-size="10.00" fill="#000000">+ HMP</text>
<text text-anchor="start" x="586.5" y="-307.5" font-family="Helvetica,sans-Serif" font-size="10.00" fill="#000000">+ MFT</text>
<text text-anchor="start" x="586.5" y="-296.5" font-family="Helvetica,sans-Serif" font-size="10.00" fill="#000000">+ MID</text>
<text text-anchor="start" x="586.5" y="-285.5" font-family="Helvetica,sans-Serif" font-size="10.00" fill="#000000">+ Last</text>
<polyline fill="none" stroke="#000000" points="578.5,-278.5 692.5,-278.5 "/>
<text text-anchor="start" x="586.5" y="-266.5" font-family="Helvetica,sans-Serif" font-size="10.00" fill="#000000">+ DetID()</text>
<text text-anchor="start" x="586.5" y="-255.5" font-family="Helvetica,sans-Serif" font-size="10.00" fill="#000000">+ DetID()</text>
<text text-anchor="start" x="586.5" y="-244.5" font-family="Helvetica,sans-Serif" font-size="10.00" fill="#000000">+ DetID()</text>
<text text-anchor="start" x="586.5" y="-233.5" font-family="Helvetica,sans-Serif" font-size="10.00" fill="#000000">+ operator=()</text>
<text text-anchor="start" x="586.5" y="-222.5" font-family="Helvetica,sans-Serif" font-size="10.00" fill="#000000">+ getID()</text>
<text text-anchor="start" x="586.5" y="-211.5" font-family="Helvetica,sans-Serif" font-size="10.00" fill="#000000">+ getMask()</text>
<text text-anchor="start" x="586.5" y="-200.5" font-family="Helvetica,sans-Serif" font-size="10.00" fill="#000000">+ getName()</text>
<text text-anchor="start" x="586.5" y="-189.5" font-family="Helvetica,sans-Serif" font-size="10.00" fill="#000000">+ operator int()</text>
<text text-anchor="start" x="586.5" y="-178.5" font-family="Helvetica,sans-Serif" font-size="10.00" fill="#000000">+ DetID()</text>
<text text-anchor="start" x="586.5" y="-167.5" font-family="Helvetica,sans-Serif" font-size="10.00" fill="#000000">+ getNDetectors()</text>
<text text-anchor="start" x="586.5" y="-156.5" font-family="Helvetica,sans-Serif" font-size="10.00" fill="#000000">+ getName()</text>
<text text-anchor="start" x="586.5" y="-145.5" font-family="Helvetica,sans-Serif" font-size="10.00" fill="#000000">+ getMask()</text>
</a>
</g>
</g>
<!-- Node10&#45;&gt;Node1 -->
<g id="edge13" class="edge">
<title>Node10&#45;&gt;Node1</title>
<path fill="none" stroke="#404040" d="M597.2609,-138.3158C593.809,-128.3302 590.2094,-118.465 586.5,-109 585.5362,-106.5407 584.5152,-104.0459 583.4535,-101.5389"/>
<polygon fill="none" stroke="#404040" points="583.4435,-101.5162 577.358,-97.6475 578.5886,-90.5421 584.6741,-94.4109 583.4435,-101.5162"/>
<text text-anchor="middle" x="605.5" y="-112" font-family="Helvetica,sans-Serif" font-size="10.00" fill="#000000"> #mID</text>
</g>
<!-- Node11 -->
<g id="node11" class="node">
<title>Node11</title>
<polygon fill="none" stroke="#bfbfbf" points="613.5,-639.5 613.5,-696.5 657.5,-696.5 657.5,-639.5 613.5,-639.5"/>
<text text-anchor="middle" x="635.5" y="-684.5" font-family="Helvetica,sans-Serif" font-size="10.00" fill="#000000">static</text>
<polyline fill="none" stroke="#bfbfbf" points="613.5,-677.5 657.5,-677.5 "/>
<text text-anchor="middle" x="635.5" y="-665.5" font-family="Helvetica,sans-Serif" font-size="10.00" fill="#000000"> </text>
<polyline fill="none" stroke="#bfbfbf" points="613.5,-658.5 657.5,-658.5 "/>
<text text-anchor="middle" x="635.5" y="-646.5" font-family="Helvetica,sans-Serif" font-size="10.00" fill="#000000"> </text>
</g>
<!-- Node11&#45;&gt;Node10 -->
<g id="edge14" class="edge">
<title>Node11&#45;&gt;Node10</title>
<path fill="none" stroke="#404040" d="M635.5,-639.4847C635.5,-593.1597 635.5,-498.501 635.5,-416.7932"/>
<polygon fill="none" stroke="#404040" points="635.5001,-416.58 631.5,-410.5801 635.5,-404.58 639.5,-410.58 635.5001,-416.58"/>
<text text-anchor="middle" x="666.5" y="-536" font-family="Helvetica,sans-Serif" font-size="10.00" fill="#000000"> +ACO</text>
<text text-anchor="middle" x="666.5" y="-525" font-family="Helvetica,sans-Serif" font-size="10.00" fill="#000000">+First</text>
<text text-anchor="middle" x="666.5" y="-514" font-family="Helvetica,sans-Serif" font-size="10.00" fill="#000000">+MCH</text>
<text text-anchor="middle" x="666.5" y="-503" font-family="Helvetica,sans-Serif" font-size="10.00" fill="#000000">+FV0</text>
<text text-anchor="middle" x="666.5" y="-492" font-family="Helvetica,sans-Serif" font-size="10.00" fill="#000000">+FT0</text>
<text text-anchor="middle" x="666.5" y="-481" font-family="Helvetica,sans-Serif" font-size="10.00" fill="#000000">+FDD</text>
<text text-anchor="middle" x="666.5" y="-470" font-family="Helvetica,sans-Serif" font-size="10.00" fill="#000000">+TRD</text>
<text text-anchor="middle" x="666.5" y="-459" font-family="Helvetica,sans-Serif" font-size="10.00" fill="#000000">+nDetectors</text>
<text text-anchor="middle" x="666.5" y="-448" font-family="Helvetica,sans-Serif" font-size="10.00" fill="#000000">+TPC</text>
<text text-anchor="middle" x="666.5" y="-437" font-family="Helvetica,sans-Serif" font-size="10.00" fill="#000000">+ZDC</text>
<text text-anchor="middle" x="666.5" y="-426" font-family="Helvetica,sans-Serif" font-size="10.00" fill="#000000">...</text>
</g>
<!-- Node12 -->
<g id="node12" class="node">
<title>Node12</title>
<polygon fill="none" stroke="#bfbfbf" points="711,-243 711,-300 828,-300 828,-243 711,-243"/>
<text text-anchor="middle" x="769.5" y="-288" font-family="Helvetica,sans-Serif" font-size="10.00" fill="#000000">unique_ptr&lt; TTree &gt;</text>
<polyline fill="none" stroke="#bfbfbf" points="711,-281 828,-281 "/>
<text text-anchor="middle" x="769.5" y="-269" font-family="Helvetica,sans-Serif" font-size="10.00" fill="#000000"> </text>
<polyline fill="none" stroke="#bfbfbf" points="711,-262 828,-262 "/>
<text text-anchor="middle" x="769.5" y="-250" font-family="Helvetica,sans-Serif" font-size="10.00" fill="#000000"> </text>
</g>
<!-- Node12&#45;&gt;Node1 -->
<g id="edge15" class="edge">
<title>Node12&#45;&gt;Node1</title>
<path fill="none" stroke="#404040" d="M760.0047,-242.7841C749.3204,-213.7839 729.6934,-168.9647 701.5,-138 683.4559,-118.1823 660.2298,-100.9331 637.6343,-86.8725"/>
<polygon fill="none" stroke="#404040" points="637.5885,-86.8449 630.3845,-87.1654 627.3178,-80.6389 634.5218,-80.3183 637.5885,-86.8449"/>
<text text-anchor="middle" x="710" y="-112" font-family="Helvetica,sans-Serif" font-size="10.00" fill="#000000"> #mOutTree</text>
</g>
<!-- Node13 -->
<g id="node13" class="node">
<title>Node13</title>
<polygon fill="none" stroke="#bfbfbf" points="846.5,-243 846.5,-300 884.5,-300 884.5,-243 846.5,-243"/>
<text text-anchor="middle" x="865.5" y="-288" font-family="Helvetica,sans-Serif" font-size="10.00" fill="#000000">bool</text>
<polyline fill="none" stroke="#bfbfbf" points="846.5,-281 884.5,-281 "/>
<text text-anchor="middle" x="865.5" y="-269" font-family="Helvetica,sans-Serif" font-size="10.00" fill="#000000"> </text>
<polyline fill="none" stroke="#bfbfbf" points="846.5,-262 884.5,-262 "/>
<text text-anchor="middle" x="865.5" y="-250" font-family="Helvetica,sans-Serif" font-size="10.00" fill="#000000"> </text>
</g>
<!-- Node13&#45;&gt;Node1 -->
<g id="edge16" class="edge">
<title>Node13&#45;&gt;Node1</title>
<path fill="none" stroke="#404040" d="M867.294,-242.831C867.5605,-213.0159 863.25,-166.7567 837.5,-138 810.7609,-108.1387 712.3587,-80.4071 639.2793,-63.2467"/>
<polygon fill="none" stroke="#404040" points="639.0174,-63.1861 632.27,-65.7303 627.3264,-60.4804 634.0738,-57.9363 639.0174,-63.1861"/>
<text text-anchor="middle" x="839" y="-112" font-family="Helvetica,sans-Serif" font-size="10.00" fill="#000000"> #mFinished</text>
</g>
<!-- Node14 -->
<g id="node14" class="node">
<title>Node14</title>
<polygon fill="none" stroke="#bfbfbf" points="903,-243 903,-300 1034,-300 1034,-243 903,-243"/>
<text text-anchor="middle" x="968.5" y="-288" font-family="Helvetica,sans-Serif" font-size="10.00" fill="#000000">vector&lt; o2::ft0::Digit &gt;</text>
<polyline fill="none" stroke="#bfbfbf" points="903,-281 1034,-281 "/>
<text text-anchor="middle" x="968.5" y="-269" font-family="Helvetica,sans-Serif" font-size="10.00" fill="#000000"> </text>
<polyline fill="none" stroke="#bfbfbf" points="903,-262 1034,-262 "/>
<text text-anchor="middle" x="968.5" y="-250" font-family="Helvetica,sans-Serif" font-size="10.00" fill="#000000"> </text>
</g>
<!-- Node14&#45;&gt;Node1 -->
<g id="edge17" class="edge">
<title>Node14&#45;&gt;Node1</title>
<path fill="none" stroke="#404040" d="M960.4381,-242.7539C948.2769,-205.1999 921.4076,-140.5295 873.5,-109 835.7581,-84.1609 720.3317,-65.5065 639.4732,-55.0461"/>
<polygon fill="none" stroke="#404040" points="639.2134,-55.0132 632.757,-58.2248 627.3092,-53.5002 633.7656,-50.2886 639.2134,-55.0132"/>
<text text-anchor="middle" x="910.5" y="-112" font-family="Helvetica,sans-Serif" font-size="10.00" fill="#000000"> #mDigits</text>
</g>
</g>
</svg>
        <g id="navigator" transform="translate(0 0)" fill="#404254">
                <rect fill="#f2f5e9" fill-opacity="0.5" stroke="#606060" stroke-width=".5" x="0" y="0" width="60" height="60"/>
                <use id="zoomplus" xlink:href="#zoomPlus" x="17" y="9" onmousedown="handleZoom(evt,'in')"/>
                <use id="zoomminus" xlink:href="#zoomMin" x="42" y="9" onmousedown="handleZoom(evt,'out')"/>
                <use id="reset" xlink:href="#resetDef" x="30" y="36" onmousedown="handleReset()"/>
                <g id="arrowUp" xlink:href="#dirArrow" transform="translate(30 24)" onmousedown="handlePan(0,-1)">
                  <use xlink:href="#rim" fill="#404040">
                        <set attributeName="fill" to="#808080" begin="arrowUp.mouseover" end="arrowUp.mouseout"/>
                  </use>
                  <path fill="none" stroke="white" stroke-width="1.5" d="M0,-3.0v7 M-2.5,-0.5L0,-3.0L2.5,-0.5"/>
                </g>
                <g id="arrowRight" xlink:href="#dirArrow" transform="rotate(90) translate(36 -43)" onmousedown="handlePan(1,0)">
                  <use xlink:href="#rim" fill="#404040">
                        <set attributeName="fill" to="#808080" begin="arrowRight.mouseover" end="arrowRight.mouseout"/>
                  </use>
                  <path fill="none" stroke="white" stroke-width="1.5" d="M0,-3.0v7 M-2.5,-0.5L0,-3.0L2.5,-0.5"/>
                </g>
                <g id="arrowDown" xlink:href="#dirArrow" transform="rotate(180) translate(-30 -48)" onmousedown="handlePan(0,1)">
                  <use xlink:href="#rim" fill="#404040">
                        <set attributeName="fill" to="#808080" begin="arrowDown.mouseover" end="arrowDown.mouseout"/>
                  </use>
                  <path fill="none" stroke="white" stroke-width="1.5" d="M0,-3.0v7 M-2.5,-0.5L0,-3.0L2.5,-0.5"/>
                </g>
                <g id="arrowLeft" xlink:href="#dirArrow" transform="rotate(270) translate(-36 17)" onmousedown="handlePan(-1,0)">
                  <use xlink:href="#rim" fill="#404040">
                        <set attributeName="fill" to="#808080" begin="arrowLeft.mouseover" end="arrowLeft.mouseout"/>
                  </use>
                  <path fill="none" stroke="white" stroke-width="1.5" d="M0,-3.0v7 M-2.5,-0.5L0,-3.0L2.5,-0.5"/>
                </g>
        </g>
        <svg viewBox="0 0 15 15" width="100%" height="30px" preserveAspectRatio="xMaxYMin meet">
         <g id="arrow_out" transform="scale(0.3 0.3)">
          <a xlink:href="classo2_1_1ft0_1_1FT0DPLDigitWriter__coll__graph_org.svg" target="_base">
           <rect id="button" ry="5" rx="5" y="6" x="6" height="38" width="38"
                fill="#f2f5e9" fill-opacity="0.5" stroke="#606060" stroke-width="1.0"/>
           <path id="arrow"
             d="M 11.500037,31.436501 C 11.940474,20.09759 22.043105,11.32322 32.158766,21.979434 L 37.068811,17.246167 C 37.068811,17.246167 37.088388,32 37.088388,32 L 22.160133,31.978069 C 22.160133,31.978069 26.997745,27.140456 26.997745,27.140456 C 18.528582,18.264221 13.291696,25.230495 11.500037,31.436501 z"
             style="fill:#404040;"/>
          </a>
         </g>
        </svg>
</svg>
