<?xml version="1.0" encoding="UTF-8" standalone="no"?>
<!DOCTYPE svg PUBLIC "-//W3C//DTD SVG 1.1//EN"
 "http://www.w3.org/Graphics/SVG/1.1/DTD/svg11.dtd">
<!-- Generated by graphviz version 2.40.1 (20161225.0304)
 -->
<!-- Title: /home/travis/build/AliceO2Group/AliceO2/GPU/GPUTracking/TPCClusterFinder/GPUTPCCFChargeMapFiller.cxx Pages: 1 -->
<svg width="1750pt" height="621pt"
 viewBox="0.00 0.00 1749.50 621.00" xmlns="http://www.w3.org/2000/svg" xmlns:xlink="http://www.w3.org/1999/xlink">
<g id="graph0" class="graph" transform="scale(1 1) rotate(0) translate(4 617)">
<title>/home/travis/build/AliceO2Group/AliceO2/GPU/GPUTracking/TPCClusterFinder/GPUTPCCFChargeMapFiller.cxx</title>
<!-- Node0 -->
<g id="node1" class="node">
<title>Node0</title>
<polygon fill="#bfbfbf" stroke="#000000" points="1448.5,-560.5 1448.5,-612.5 1639.5,-612.5 1639.5,-560.5 1448.5,-560.5"/>
<text text-anchor="start" x="1456.5" y="-600.5" font-family="Helvetica,sans-Serif" font-size="10.00" fill="#000000">/home/travis/build</text>
<text text-anchor="start" x="1456.5" y="-589.5" font-family="Helvetica,sans-Serif" font-size="10.00" fill="#000000">/AliceO2Group/AliceO2</text>
<text text-anchor="start" x="1456.5" y="-578.5" font-family="Helvetica,sans-Serif" font-size="10.00" fill="#000000">/GPU/GPUTracking/TPCClusterFinder</text>
<text text-anchor="middle" x="1544" y="-567.5" font-family="Helvetica,sans-Serif" font-size="10.00" fill="#000000">/GPUTPCCFChargeMapFiller.cxx</text>
</g>
<!-- Node1 -->
<g id="node2" class="node">
<title>Node1</title>
<g id="a_node2"><a xlink:href="../../dc/d10/GPUTPCCFChargeMapFiller_8h.html" target="_top" xlink:title="GPUTPCCFChargeMapFiller.h">
<polygon fill="none" stroke="#000000" points="1170.5,-504.5 1170.5,-523.5 1325.5,-523.5 1325.5,-504.5 1170.5,-504.5"/>
<text text-anchor="middle" x="1248" y="-511.5" font-family="Helvetica,sans-Serif" font-size="10.00" fill="#000000">GPUTPCCFChargeMapFiller.h</text>
</a>
</g>
</g>
<!-- Node0&#45;&gt;Node1 -->
<g id="edge1" class="edge">
<title>Node0&#45;&gt;Node1</title>
<path fill="none" stroke="#191970" d="M1448.3061,-563.0614C1397.7486,-550.6783 1337.8456,-536.0061 1296.803,-525.9534"/>
<polygon fill="#191970" stroke="#191970" points="1297.5968,-522.5445 1287.0512,-523.5649 1295.9315,-529.3435 1297.5968,-522.5445"/>
</g>
<!-- Node38 -->
<g id="node39" class="node">
<title>Node38</title>
<g id="a_node39"><a xlink:href="../../d7/d60/Array2D_8h.html" target="_top" xlink:title="Array2D.h">
<polygon fill="none" stroke="#000000" points="1511.5,-448.5 1511.5,-467.5 1576.5,-467.5 1576.5,-448.5 1511.5,-448.5"/>
<text text-anchor="middle" x="1544" y="-455.5" font-family="Helvetica,sans-Serif" font-size="10.00" fill="#000000">Array2D.h</text>
</a>
</g>
</g>
<!-- Node0&#45;&gt;Node38 -->
<g id="edge78" class="edge">
<title>Node0&#45;&gt;Node38</title>
<path fill="none" stroke="#191970" d="M1544,-560.4961C1544,-536.0156 1544,-499.8881 1544,-477.7068"/>
<polygon fill="#191970" stroke="#191970" points="1547.5001,-477.5141 1544,-467.5142 1540.5001,-477.5142 1547.5001,-477.5141"/>
</g>
<!-- Node39 -->
<g id="node40" class="node">
<title>Node39</title>
<g id="a_node40"><a xlink:href="../../d1/d90/ChargePos_8h.html" target="_top" xlink:title="ChargePos.h">
<polygon fill="none" stroke="#000000" points="1572.5,-392.5 1572.5,-411.5 1649.5,-411.5 1649.5,-392.5 1572.5,-392.5"/>
<text text-anchor="middle" x="1611" y="-399.5" font-family="Helvetica,sans-Serif" font-size="10.00" fill="#000000">ChargePos.h</text>
</a>
</g>
</g>
<!-- Node0&#45;&gt;Node39 -->
<g id="edge77" class="edge">
<title>Node0&#45;&gt;Node39</title>
<path fill="none" stroke="#191970" d="M1553.4574,-560.457C1567.0628,-522.9913 1591.8507,-454.732 1603.9617,-421.3816"/>
<polygon fill="#191970" stroke="#191970" points="1607.2945,-422.4576 1607.4181,-411.8635 1600.7149,-420.0682 1607.2945,-422.4576"/>
</g>
<!-- Node2 -->
<g id="node3" class="node">
<title>Node2</title>
<g id="a_node3"><a xlink:href="../../d9/db0/clusterFinderDefs_8h.html" target="_top" xlink:title="clusterFinderDefs.h">
<polygon fill="none" stroke="#000000" points="1620,-336.5 1620,-355.5 1730,-355.5 1730,-336.5 1620,-336.5"/>
<text text-anchor="middle" x="1675" y="-343.5" font-family="Helvetica,sans-Serif" font-size="10.00" fill="#000000">clusterFinderDefs.h</text>
</a>
</g>
</g>
<!-- Node1&#45;&gt;Node2 -->
<g id="edge2" class="edge">
<title>Node1&#45;&gt;Node2</title>
<path fill="none" stroke="#191970" d="M1270.8381,-504.3594C1320.8311,-483.3339 1443.8198,-432.0334 1548,-392 1578.1464,-380.4156 1612.6119,-367.9826 1638.0249,-358.9665"/>
<polygon fill="#191970" stroke="#191970" points="1639.3752,-362.2015 1647.6354,-355.5667 1637.0406,-355.6023 1639.3752,-362.2015"/>
</g>
<!-- Node13 -->
<g id="node14" class="node">
<title>Node13</title>
<g id="a_node14"><a xlink:href="../../d9/de5/GPUGeneralKernels_8h.html" target="_top" xlink:title="GPUGeneralKernels.h">
<polygon fill="none" stroke="#000000" points="804.5,-224.5 804.5,-243.5 925.5,-243.5 925.5,-224.5 804.5,-224.5"/>
<text text-anchor="middle" x="865" y="-231.5" font-family="Helvetica,sans-Serif" font-size="10.00" fill="#000000">GPUGeneralKernels.h</text>
</a>
</g>
</g>
<!-- Node1&#45;&gt;Node13 -->
<g id="edge14" class="edge">
<title>Node1&#45;&gt;Node13</title>
<path fill="none" stroke="#191970" d="M1216.8057,-504.3822C1175.8239,-489.5796 1109,-457.0089 1109,-402 1109,-402 1109,-402 1109,-346 1109,-303.5978 985.7526,-264.8946 914.4448,-246.0504"/>
<polygon fill="#191970" stroke="#191970" points="915.3052,-242.6578 904.7459,-243.5249 913.5412,-249.4319 915.3052,-242.6578"/>
</g>
<!-- Node16 -->
<g id="node17" class="node">
<title>Node16</title>
<g id="a_node17"><a xlink:href="../../db/df8/GPUConstantMem_8h.html" target="_top" xlink:title="GPUConstantMem.h">
<polygon fill="none" stroke="#000000" points="237,-448.5 237,-467.5 351,-467.5 351,-448.5 237,-448.5"/>
<text text-anchor="middle" x="294" y="-455.5" font-family="Helvetica,sans-Serif" font-size="10.00" fill="#000000">GPUConstantMem.h</text>
</a>
</g>
</g>
<!-- Node1&#45;&gt;Node16 -->
<g id="edge19" class="edge">
<title>Node1&#45;&gt;Node16</title>
<path fill="none" stroke="#191970" d="M1170.3347,-509.441C987.6838,-498.7194 533.3713,-472.0511 361.4049,-461.9567"/>
<polygon fill="#191970" stroke="#191970" points="361.412,-458.4512 351.224,-461.3591 361.0017,-465.4391 361.412,-458.4512"/>
</g>
<!-- Node37 -->
<g id="node38" class="node">
<title>Node37</title>
<g id="a_node38"><a xlink:href="../../d6/d4b/GPUTPCClusterFinder_8h.html" target="_top" xlink:title="GPUTPCClusterFinder.h">
<polygon fill="none" stroke="#000000" points="176,-224.5 176,-243.5 304,-243.5 304,-224.5 176,-224.5"/>
<text text-anchor="middle" x="240" y="-231.5" font-family="Helvetica,sans-Serif" font-size="10.00" fill="#000000">GPUTPCClusterFinder.h</text>
</a>
</g>
</g>
<!-- Node1&#45;&gt;Node37 -->
<g id="edge66" class="edge">
<title>Node1&#45;&gt;Node37</title>
<path fill="none" stroke="#191970" d="M1170.4278,-513.3959C937.8652,-511.2079 260.4402,-501.9362 228,-468 171.2712,-408.6552 211.4461,-297.4467 230.9922,-253.0326"/>
<polygon fill="#191970" stroke="#191970" points="234.2826,-254.2517 235.2348,-243.6998 227.9102,-251.3548 234.2826,-254.2517"/>
</g>
<!-- Node1&#45;&gt;Node38 -->
<g id="edge70" class="edge">
<title>Node1&#45;&gt;Node38</title>
<path fill="none" stroke="#191970" d="M1298.5479,-504.4369C1355.6328,-493.637 1447.5376,-476.2497 1501.2121,-466.095"/>
<polygon fill="#191970" stroke="#191970" points="1501.9189,-469.5235 1511.0939,-464.2255 1500.6176,-462.6455 1501.9189,-469.5235"/>
</g>
<!-- Node40 -->
<g id="node41" class="node">
<title>Node40</title>
<g id="a_node41"><a xlink:href="../../d1/d65/PackedCharge_8h.html" target="_top" xlink:title="PackedCharge.h">
<polygon fill="none" stroke="#000000" points="1200.5,-392.5 1200.5,-411.5 1295.5,-411.5 1295.5,-392.5 1200.5,-392.5"/>
<text text-anchor="middle" x="1248" y="-399.5" font-family="Helvetica,sans-Serif" font-size="10.00" fill="#000000">PackedCharge.h</text>
</a>
</g>
</g>
<!-- Node1&#45;&gt;Node40 -->
<g id="edge74" class="edge">
<title>Node1&#45;&gt;Node40</title>
<path fill="none" stroke="#191970" d="M1248,-504.4509C1248,-486.184 1248,-445.9553 1248,-421.6976"/>
<polygon fill="#191970" stroke="#191970" points="1251.5001,-421.5249 1248,-411.5249 1244.5001,-421.5249 1251.5001,-421.5249"/>
</g>
<!-- Node3 -->
<g id="node4" class="node">
<title>Node3</title>
<g id="a_node4"><a xlink:href="../../d2/d6d/GPUDef_8h.html" target="_top" xlink:title="GPUDef.h">
<polygon fill="none" stroke="#000000" points="771.5,-112.5 771.5,-131.5 834.5,-131.5 834.5,-112.5 771.5,-112.5"/>
<text text-anchor="middle" x="803" y="-119.5" font-family="Helvetica,sans-Serif" font-size="10.00" fill="#000000">GPUDef.h</text>
</a>
</g>
</g>
<!-- Node2&#45;&gt;Node3 -->
<g id="edge3" class="edge">
<title>Node2&#45;&gt;Node3</title>
<path fill="none" stroke="#191970" d="M1672.2051,-336.3723C1664.9857,-313.2546 1643.4648,-254.2879 1604,-224 1528.7331,-166.2352 1491.4897,-184.1727 1398,-168 1192.3782,-132.4297 942.0054,-124.3564 844.5773,-122.5307"/>
<polygon fill="#191970" stroke="#191970" points="844.6058,-119.0307 834.546,-122.355 844.4831,-126.0297 844.6058,-119.0307"/>
</g>
<!-- Node12 -->
<g id="node13" class="node">
<title>Node12</title>
<g id="a_node13"><a xlink:href="../../d6/deb/GPU_2GPUTracking_2TPCClusterFinder_2Digit_8h.html" target="_top" xlink:title="Digit.h">
<polygon fill="none" stroke="#000000" points="1692.5,-280.5 1692.5,-299.5 1741.5,-299.5 1741.5,-280.5 1692.5,-280.5"/>
<text text-anchor="middle" x="1717" y="-287.5" font-family="Helvetica,sans-Serif" font-size="10.00" fill="#000000">Digit.h</text>
</a>
</g>
</g>
<!-- Node2&#45;&gt;Node12 -->
<g id="edge12" class="edge">
<title>Node2&#45;&gt;Node12</title>
<path fill="none" stroke="#191970" d="M1677.049,-336.2455C1681.4762,-328.2958 1689.7017,-316.8706 1697.6786,-307.3656"/>
<polygon fill="#191970" stroke="#191970" points="1700.5097,-309.4481 1704.5229,-299.6427 1695.2709,-304.8053 1700.5097,-309.4481"/>
</g>
<!-- Node4 -->
<g id="node5" class="node">
<title>Node4</title>
<g id="a_node5"><a xlink:href="../../df/d21/GPUCommonDef_8h.html" target="_top" xlink:title="GPUCommonDef.h">
<polygon fill="none" stroke="#000000" points="412.5,-56.5 412.5,-75.5 519.5,-75.5 519.5,-56.5 412.5,-56.5"/>
<text text-anchor="middle" x="466" y="-63.5" font-family="Helvetica,sans-Serif" font-size="10.00" fill="#000000">GPUCommonDef.h</text>
</a>
</g>
</g>
<!-- Node3&#45;&gt;Node4 -->
<g id="edge4" class="edge">
<title>Node3&#45;&gt;Node4</title>
<path fill="none" stroke="#191970" d="M771.2752,-113.9799C768.1491,-113.2746 765.0179,-112.6014 762,-112 682.4475,-96.1469 589.952,-82.5354 529.8175,-74.3191"/>
<polygon fill="#191970" stroke="#191970" points="530.0945,-70.8247 519.7146,-72.9479 529.153,-77.7611 530.0945,-70.8247"/>
</g>
<!-- Node7 -->
<g id="node8" class="node">
<title>Node7</title>
<g id="a_node8"><a xlink:href="../../d2/d37/GPUDefConstantsAndSettings_8h.html" target="_top" xlink:title="GPUDefConstantsAndSettings.h">
<polygon fill="none" stroke="#000000" points="876.5,-56.5 876.5,-75.5 1047.5,-75.5 1047.5,-56.5 876.5,-56.5"/>
<text text-anchor="middle" x="962" y="-63.5" font-family="Helvetica,sans-Serif" font-size="10.00" fill="#000000">GPUDefConstantsAndSettings.h</text>
</a>
</g>
</g>
<!-- Node3&#45;&gt;Node7 -->
<g id="edge7" class="edge">
<title>Node3&#45;&gt;Node7</title>
<path fill="none" stroke="#191970" d="M830.3331,-112.3733C856.5434,-103.1419 896.2984,-89.1402 925.2668,-78.9375"/>
<polygon fill="#191970" stroke="#191970" points="926.7542,-82.1244 935.0236,-75.5011 924.4288,-75.5219 926.7542,-82.1244"/>
</g>
<!-- Node8 -->
<g id="node9" class="node">
<title>Node8</title>
<g id="a_node9"><a xlink:href="../../dc/de9/GPUDefGPUParameters_8h.html" target="_top" xlink:title="GPUDefGPUParameters.h">
<polygon fill="none" stroke="#000000" points="1066,-56.5 1066,-75.5 1206,-75.5 1206,-56.5 1066,-56.5"/>
<text text-anchor="middle" x="1136" y="-63.5" font-family="Helvetica,sans-Serif" font-size="10.00" fill="#000000">GPUDefGPUParameters.h</text>
</a>
</g>
</g>
<!-- Node3&#45;&gt;Node8 -->
<g id="edge8" class="edge">
<title>Node3&#45;&gt;Node8</title>
<path fill="none" stroke="#191970" d="M834.628,-116.6812C888.1675,-107.6775 997.7672,-89.2464 1068.9979,-77.2676"/>
<polygon fill="#191970" stroke="#191970" points="1069.9367,-80.659 1079.2177,-75.549 1068.7758,-73.7559 1069.9367,-80.659"/>
</g>
<!-- Node9 -->
<g id="node10" class="node">
<title>Node9</title>
<g id="a_node10"><a xlink:href="../../d3/d4c/GPUDefOpenCL12Templates_8h.html" target="_top" xlink:title="GPUDefOpenCL12Templates.h">
<polygon fill="none" stroke="#000000" points="551,-56.5 551,-75.5 715,-75.5 715,-56.5 551,-56.5"/>
<text text-anchor="middle" x="633" y="-63.5" font-family="Helvetica,sans-Serif" font-size="10.00" fill="#000000">GPUDefOpenCL12Templates.h</text>
</a>
</g>
</g>
<!-- Node3&#45;&gt;Node9 -->
<g id="edge9" class="edge">
<title>Node3&#45;&gt;Node9</title>
<path fill="none" stroke="#191970" d="M773.776,-112.3733C745.5075,-103.0613 702.5035,-88.8953 671.4656,-78.671"/>
<polygon fill="#191970" stroke="#191970" points="672.4357,-75.3056 661.8427,-75.5011 670.2456,-81.9542 672.4357,-75.3056"/>
</g>
<!-- Node10 -->
<g id="node11" class="node">
<title>Node10</title>
<g id="a_node11"><a xlink:href="../../d2/d45/GPUCommonRtypes_8h.html" target="_top" xlink:title="GPUCommonRtypes.h">
<polygon fill="none" stroke="#000000" points="733.5,-56.5 733.5,-75.5 858.5,-75.5 858.5,-56.5 733.5,-56.5"/>
<text text-anchor="middle" x="796" y="-63.5" font-family="Helvetica,sans-Serif" font-size="10.00" fill="#000000">GPUCommonRtypes.h</text>
</a>
</g>
</g>
<!-- Node3&#45;&gt;Node10 -->
<g id="edge10" class="edge">
<title>Node3&#45;&gt;Node10</title>
<path fill="none" stroke="#191970" d="M801.7807,-112.2455C800.8673,-104.9382 799.5868,-94.6944 798.4631,-85.7046"/>
<polygon fill="#191970" stroke="#191970" points="801.9187,-85.1313 797.2053,-75.6427 794.9728,-85.9996 801.9187,-85.1313"/>
</g>
<!-- Node5 -->
<g id="node6" class="node">
<title>Node5</title>
<g id="a_node6"><a xlink:href="../../d5/d93/GPUCommonDefSettings_8h.html" target="_top" xlink:title="GPUCommonDefSettings.h">
<polygon fill="none" stroke="#000000" points="469,-.5 469,-19.5 617,-19.5 617,-.5 469,-.5"/>
<text text-anchor="middle" x="543" y="-7.5" font-family="Helvetica,sans-Serif" font-size="10.00" fill="#000000">GPUCommonDefSettings.h</text>
</a>
</g>
</g>
<!-- Node4&#45;&gt;Node5 -->
<g id="edge5" class="edge">
<title>Node4&#45;&gt;Node5</title>
<path fill="none" stroke="#191970" d="M479.4124,-56.2455C491.0057,-47.814 507.9748,-35.4729 521.4678,-25.6598"/>
<polygon fill="#191970" stroke="#191970" points="523.7126,-28.355 529.7413,-19.6427 519.5953,-22.6938 523.7126,-28.355"/>
</g>
<!-- Node6 -->
<g id="node7" class="node">
<title>Node6</title>
<g id="a_node7"><a xlink:href="../../da/d5a/GPUCommonDefAPI_8h.html" target="_top" xlink:title="GPUCommonDefAPI.h">
<polygon fill="none" stroke="#000000" points="327,-.5 327,-19.5 451,-19.5 451,-.5 327,-.5"/>
<text text-anchor="middle" x="389" y="-7.5" font-family="Helvetica,sans-Serif" font-size="10.00" fill="#000000">GPUCommonDefAPI.h</text>
</a>
</g>
</g>
<!-- Node4&#45;&gt;Node6 -->
<g id="edge6" class="edge">
<title>Node4&#45;&gt;Node6</title>
<path fill="none" stroke="#191970" d="M452.5876,-56.2455C440.9943,-47.814 424.0252,-35.4729 410.5322,-25.6598"/>
<polygon fill="#191970" stroke="#191970" points="412.4047,-22.6938 402.2587,-19.6427 408.2874,-28.355 412.4047,-22.6938"/>
</g>
<!-- Node11 -->
<g id="node12" class="node">
<title>Node11</title>
<polygon fill="none" stroke="#bfbfbf" points="766.5,-.5 766.5,-19.5 825.5,-19.5 825.5,-.5 766.5,-.5"/>
<text text-anchor="middle" x="796" y="-7.5" font-family="Helvetica,sans-Serif" font-size="10.00" fill="#000000">Rtypes.h</text>
</g>
<!-- Node10&#45;&gt;Node11 -->
<g id="edge11" class="edge">
<title>Node10&#45;&gt;Node11</title>
<path fill="none" stroke="#191970" d="M796,-56.2455C796,-48.9382 796,-38.6944 796,-29.7046"/>
<polygon fill="#191970" stroke="#191970" points="799.5001,-29.6426 796,-19.6427 792.5001,-29.6427 799.5001,-29.6426"/>
</g>
<!-- Node12&#45;&gt;Node2 -->
<g id="edge13" class="edge">
<title>Node12&#45;&gt;Node2</title>
<path fill="none" stroke="#191970" d="M1715.0131,-299.6427C1710.6217,-307.5596 1702.413,-318.9775 1694.4338,-328.5004"/>
<polygon fill="#191970" stroke="#191970" points="1691.5867,-326.4364 1687.5827,-336.2455 1696.8298,-331.0743 1691.5867,-326.4364"/>
</g>
<!-- Node13&#45;&gt;Node3 -->
<g id="edge15" class="edge">
<title>Node13&#45;&gt;Node3</title>
<path fill="none" stroke="#191970" d="M859.7139,-224.4509C849.4188,-205.8533 826.5223,-164.4919 813.1837,-140.3964"/>
<polygon fill="#191970" stroke="#191970" points="816.178,-138.5787 808.2727,-131.5249 810.0538,-141.969 816.178,-138.5787"/>
</g>
<!-- Node14 -->
<g id="node15" class="node">
<title>Node14</title>
<g id="a_node15"><a xlink:href="../../d4/dc5/GPUDataTypes_8h.html" target="_top" xlink:title="GPUDataTypes.h">
<polygon fill="none" stroke="#000000" points="151,-168.5 151,-187.5 249,-187.5 249,-168.5 151,-168.5"/>
<text text-anchor="middle" x="200" y="-175.5" font-family="Helvetica,sans-Serif" font-size="10.00" fill="#000000">GPUDataTypes.h</text>
</a>
</g>
</g>
<!-- Node13&#45;&gt;Node14 -->
<g id="edge16" class="edge">
<title>Node13&#45;&gt;Node14</title>
<path fill="none" stroke="#191970" d="M804.1421,-230.1279C675.7778,-221.8433 379.8805,-202.098 259.3931,-188.0446"/>
<polygon fill="#191970" stroke="#191970" points="259.6603,-184.5515 249.3136,-186.8307 258.8233,-191.5013 259.6603,-184.5515"/>
</g>
<!-- Node14&#45;&gt;Node4 -->
<g id="edge17" class="edge">
<title>Node14&#45;&gt;Node4</title>
<path fill="none" stroke="#191970" d="M204.5832,-168.1617C211.963,-153.4715 227.9193,-126.0333 250,-112 274.9414,-96.1486 348.1681,-82.7077 402.4844,-74.5221"/>
<polygon fill="#191970" stroke="#191970" points="403.011,-77.9824 412.3905,-73.0554 401.9857,-71.0579 403.011,-77.9824"/>
</g>
<!-- Node15 -->
<g id="node16" class="node">
<title>Node15</title>
<polygon fill="none" stroke="#bfbfbf" points="259.5,-112.5 259.5,-131.5 312.5,-131.5 312.5,-112.5 259.5,-112.5"/>
<text text-anchor="middle" x="286" y="-119.5" font-family="Helvetica,sans-Serif" font-size="10.00" fill="#000000">cstddef</text>
</g>
<!-- Node14&#45;&gt;Node15 -->
<g id="edge18" class="edge">
<title>Node14&#45;&gt;Node15</title>
<path fill="none" stroke="#191970" d="M214.9801,-168.2455C228.1751,-159.6534 247.6051,-147.0014 262.8079,-137.1018"/>
<polygon fill="#191970" stroke="#191970" points="264.7215,-140.0325 271.1916,-131.6427 260.9017,-134.1665 264.7215,-140.0325"/>
</g>
<!-- Node16&#45;&gt;Node14 -->
<g id="edge62" class="edge">
<title>Node16&#45;&gt;Node14</title>
<path fill="none" stroke="#191970" d="M260.1377,-448.4958C217.0078,-434.0785 148,-402.2255 148,-346 148,-346 148,-346 148,-290 148,-259.4754 153.6871,-251.4685 167,-224 171.8479,-213.9974 178.8528,-203.855 185.1628,-195.6485"/>
<polygon fill="#191970" stroke="#191970" points="188.0868,-197.5963 191.6022,-187.6016 182.6213,-193.2227 188.0868,-197.5963"/>
</g>
<!-- Node17 -->
<g id="node18" class="node">
<title>Node17</title>
<g id="a_node18"><a xlink:href="../../d6/d25/GPUTPCTracker_8h.html" target="_top" xlink:title="GPUTPCTracker.h">
<polygon fill="none" stroke="#000000" points="779,-392.5 779,-411.5 879,-411.5 879,-392.5 779,-392.5"/>
<text text-anchor="middle" x="829" y="-399.5" font-family="Helvetica,sans-Serif" font-size="10.00" fill="#000000">GPUTPCTracker.h</text>
</a>
</g>
</g>
<!-- Node16&#45;&gt;Node17 -->
<g id="edge20" class="edge">
<title>Node16&#45;&gt;Node17</title>
<path fill="none" stroke="#191970" d="M351.0009,-452.0336C452.752,-441.383 664.7162,-419.1961 768.7577,-408.3057"/>
<polygon fill="#191970" stroke="#191970" points="769.2031,-411.7783 778.7843,-407.2562 768.4743,-404.8164 769.2031,-411.7783"/>
</g>
<!-- Node27 -->
<g id="node28" class="node">
<title>Node27</title>
<g id="a_node28"><a xlink:href="../../df/d13/GPUParam_8h.html" target="_top" xlink:title="GPUParam.h">
<polygon fill="none" stroke="#000000" points="611.5,-280.5 611.5,-299.5 688.5,-299.5 688.5,-280.5 611.5,-280.5"/>
<text text-anchor="middle" x="650" y="-287.5" font-family="Helvetica,sans-Serif" font-size="10.00" fill="#000000">GPUParam.h</text>
</a>
</g>
</g>
<!-- Node16&#45;&gt;Node27 -->
<g id="edge61" class="edge">
<title>Node16&#45;&gt;Node27</title>
<path fill="none" stroke="#191970" d="M314.1601,-448.4862C373.8647,-420.311 549.9834,-337.1988 620.4072,-303.9651"/>
<polygon fill="#191970" stroke="#191970" points="622.0699,-307.0507 629.6197,-299.6177 619.0824,-300.7202 622.0699,-307.0507"/>
</g>
<!-- Node36 -->
<g id="node37" class="node">
<title>Node36</title>
<g id="a_node37"><a xlink:href="../../da/d28/GPUO2FakeClasses_8h.html" target="_top" xlink:title="GPUO2FakeClasses.h">
<polygon fill="none" stroke="#000000" points="0,-224.5 0,-243.5 120,-243.5 120,-224.5 0,-224.5"/>
<text text-anchor="middle" x="60" y="-231.5" font-family="Helvetica,sans-Serif" font-size="10.00" fill="#000000">GPUO2FakeClasses.h</text>
</a>
</g>
</g>
<!-- Node16&#45;&gt;Node36 -->
<g id="edge63" class="edge">
<title>Node16&#45;&gt;Node36</title>
<path fill="none" stroke="#191970" d="M243.549,-448.4635C203.025,-439.9199 150.2846,-426.5259 134,-412 86.017,-369.1993 68.3762,-290.386 62.5602,-253.721"/>
<polygon fill="#191970" stroke="#191970" points="66.0175,-253.1738 61.1144,-243.7818 59.0904,-254.1815 66.0175,-253.1738"/>
</g>
<!-- Node18 -->
<g id="node19" class="node">
<title>Node18</title>
<g id="a_node19"><a xlink:href="../../da/dab/GPUTPCDef_8h.html" target="_top" xlink:title="GPUTPCDef.h">
<polygon fill="none" stroke="#000000" points="1307,-168.5 1307,-187.5 1389,-187.5 1389,-168.5 1307,-168.5"/>
<text text-anchor="middle" x="1348" y="-175.5" font-family="Helvetica,sans-Serif" font-size="10.00" fill="#000000">GPUTPCDef.h</text>
</a>
</g>
</g>
<!-- Node17&#45;&gt;Node18 -->
<g id="edge21" class="edge">
<title>Node17&#45;&gt;Node18</title>
<path fill="none" stroke="#191970" d="M879.0183,-400.3996C1023.7448,-394.9336 1439.691,-373.0861 1551,-300 1582.0855,-279.5891 1609.6694,-252.6822 1586,-224 1562.7832,-195.8663 1461.8791,-184.7416 1399.1447,-180.4908"/>
<polygon fill="#191970" stroke="#191970" points="1399.2458,-176.9902 1389.0423,-179.8431 1398.7978,-183.9759 1399.2458,-176.9902"/>
</g>
<!-- Node19 -->
<g id="node20" class="node">
<title>Node19</title>
<polygon fill="none" stroke="#bfbfbf" points="747,-336.5 747,-355.5 807,-355.5 807,-336.5 747,-336.5"/>
<text text-anchor="middle" x="777" y="-343.5" font-family="Helvetica,sans-Serif" font-size="10.00" fill="#000000">iostream</text>
</g>
<!-- Node17&#45;&gt;Node19 -->
<g id="edge23" class="edge">
<title>Node17&#45;&gt;Node19</title>
<path fill="none" stroke="#191970" d="M819.9423,-392.2455C812.4858,-384.2155 801.7366,-372.6394 792.8583,-363.0781"/>
<polygon fill="#191970" stroke="#191970" points="795.3232,-360.589 785.9539,-355.6427 790.1937,-365.3522 795.3232,-360.589"/>
</g>
<!-- Node20 -->
<g id="node21" class="node">
<title>Node20</title>
<g id="a_node21"><a xlink:href="../../dd/d7b/GPUTPCHitId_8h.html" target="_top" xlink:title="GPUTPCHitId.h">
<polygon fill="none" stroke="#000000" points="640.5,-336.5 640.5,-355.5 729.5,-355.5 729.5,-336.5 640.5,-336.5"/>
<text text-anchor="middle" x="685" y="-343.5" font-family="Helvetica,sans-Serif" font-size="10.00" fill="#000000">GPUTPCHitId.h</text>
</a>
</g>
</g>
<!-- Node17&#45;&gt;Node20 -->
<g id="edge24" class="edge">
<title>Node17&#45;&gt;Node20</title>
<path fill="none" stroke="#191970" d="M804.2455,-392.3733C780.7151,-383.2226 745.1313,-369.3844 718.9574,-359.2057"/>
<polygon fill="#191970" stroke="#191970" points="720.0201,-355.8636 709.4315,-355.5011 717.4829,-362.3877 720.0201,-355.8636"/>
</g>
<!-- Node21 -->
<g id="node22" class="node">
<title>Node21</title>
<g id="a_node22"><a xlink:href="../../df/d4a/GPUTPCSliceData_8h.html" target="_top" xlink:title="GPUTPCSliceData.h">
<polygon fill="none" stroke="#000000" points="825,-336.5 825,-355.5 937,-355.5 937,-336.5 825,-336.5"/>
<text text-anchor="middle" x="881" y="-343.5" font-family="Helvetica,sans-Serif" font-size="10.00" fill="#000000">GPUTPCSliceData.h</text>
</a>
</g>
</g>
<!-- Node17&#45;&gt;Node21 -->
<g id="edge25" class="edge">
<title>Node17&#45;&gt;Node21</title>
<path fill="none" stroke="#191970" d="M838.0577,-392.2455C845.5142,-384.2155 856.2634,-372.6394 865.1417,-363.0781"/>
<polygon fill="#191970" stroke="#191970" points="867.8063,-365.3522 872.0461,-355.6427 862.6768,-360.589 867.8063,-365.3522"/>
</g>
<!-- Node32 -->
<g id="node33" class="node">
<title>Node32</title>
<g id="a_node33"><a xlink:href="../../d6/d57/GPUProcessor_8h.html" target="_top" xlink:title="GPUProcessor.h">
<polygon fill="none" stroke="#000000" points="267.5,-168.5 267.5,-187.5 360.5,-187.5 360.5,-168.5 267.5,-168.5"/>
<text text-anchor="middle" x="314" y="-175.5" font-family="Helvetica,sans-Serif" font-size="10.00" fill="#000000">GPUProcessor.h</text>
</a>
</g>
</g>
<!-- Node17&#45;&gt;Node32 -->
<g id="edge60" class="edge">
<title>Node17&#45;&gt;Node32</title>
<path fill="none" stroke="#191970" d="M778.7043,-398.1405C684.0187,-388.3866 477.471,-354.9632 351,-244 336.6978,-231.4515 326.7352,-211.9745 320.7801,-197.4264"/>
<polygon fill="#191970" stroke="#191970" points="323.9733,-195.9766 317.1473,-187.8737 317.4305,-198.4648 323.9733,-195.9766"/>
</g>
<!-- Node33 -->
<g id="node34" class="node">
<title>Node33</title>
<g id="a_node34"><a xlink:href="../../de/d15/GPUTPCTrackParam_8h.html" target="_top" xlink:title="GPUTPCTrackParam.h">
<polygon fill="none" stroke="#000000" points="1298,-280.5 1298,-299.5 1420,-299.5 1420,-280.5 1298,-280.5"/>
<text text-anchor="middle" x="1359" y="-287.5" font-family="Helvetica,sans-Serif" font-size="10.00" fill="#000000">GPUTPCTrackParam.h</text>
</a>
</g>
</g>
<!-- Node17&#45;&gt;Node33 -->
<g id="edge52" class="edge">
<title>Node17&#45;&gt;Node33</title>
<path fill="none" stroke="#191970" d="M874.1875,-392.4509C971.0925,-371.9729 1198.6043,-323.8949 1303.831,-301.6584"/>
<polygon fill="#191970" stroke="#191970" points="1304.8666,-305.0169 1313.9269,-299.5249 1303.4193,-298.1681 1304.8666,-305.0169"/>
</g>
<!-- Node35 -->
<g id="node36" class="node">
<title>Node35</title>
<g id="a_node36"><a xlink:href="../../db/d6e/GPUTPCTracklet_8h.html" target="_top" xlink:title="GPUTPCTracklet.h">
<polygon fill="none" stroke="#000000" points="1438,-280.5 1438,-299.5 1542,-299.5 1542,-280.5 1438,-280.5"/>
<text text-anchor="middle" x="1490" y="-287.5" font-family="Helvetica,sans-Serif" font-size="10.00" fill="#000000">GPUTPCTracklet.h</text>
</a>
</g>
</g>
<!-- Node17&#45;&gt;Node35 -->
<g id="edge57" class="edge">
<title>Node17&#45;&gt;Node35</title>
<path fill="none" stroke="#191970" d="M879.1676,-393.8477C935.0333,-384.7417 1028.0083,-369.5044 1108,-356 1220.6612,-336.9803 1351.8898,-314.162 1427.516,-300.9473"/>
<polygon fill="#191970" stroke="#191970" points="1428.5625,-304.3175 1437.8104,-299.1477 1427.3571,-297.422 1428.5625,-304.3175"/>
</g>
<!-- Node18&#45;&gt;Node3 -->
<g id="edge22" class="edge">
<title>Node18&#45;&gt;Node3</title>
<path fill="none" stroke="#191970" d="M1306.5891,-173.7449C1205.4647,-163.3542 946.7849,-136.7742 845.0255,-126.3182"/>
<polygon fill="#191970" stroke="#191970" points="845.1308,-122.8107 834.8254,-125.2701 844.4153,-129.774 845.1308,-122.8107"/>
</g>
<!-- Node21&#45;&gt;Node18 -->
<g id="edge26" class="edge">
<title>Node21&#45;&gt;Node18</title>
<path fill="none" stroke="#191970" d="M902.9812,-336.3432C952.8711,-314.6239 1078.7457,-260.9395 1187,-224 1224.7348,-211.1238 1268.2499,-198.8408 1300.5199,-190.2114"/>
<polygon fill="#191970" stroke="#191970" points="1301.8126,-193.4896 1310.5804,-187.5419 1300.0172,-186.7237 1301.8126,-193.4896"/>
</g>
<!-- Node22 -->
<g id="node23" class="node">
<title>Node22</title>
<g id="a_node23"><a xlink:href="../../d8/dff/GPUTPCRow_8h.html" target="_top" xlink:title="GPUTPCRow.h">
<polygon fill="none" stroke="#000000" points="1194.5,-280.5 1194.5,-299.5 1279.5,-299.5 1279.5,-280.5 1194.5,-280.5"/>
<text text-anchor="middle" x="1237" y="-287.5" font-family="Helvetica,sans-Serif" font-size="10.00" fill="#000000">GPUTPCRow.h</text>
</a>
</g>
</g>
<!-- Node21&#45;&gt;Node22 -->
<g id="edge27" class="edge">
<title>Node21&#45;&gt;Node22</title>
<path fill="none" stroke="#191970" d="M937.0166,-337.1884C1004.7648,-326.5314 1117.9385,-308.7288 1184.2064,-298.3046"/>
<polygon fill="#191970" stroke="#191970" points="1185.0905,-301.7087 1194.4251,-296.6972 1184.0027,-294.7937 1185.0905,-301.7087"/>
</g>
<!-- Node24 -->
<g id="node25" class="node">
<title>Node24</title>
<g id="a_node25"><a xlink:href="../../d6/da2/GPUCommonMath_8h.html" target="_top" xlink:title="GPUCommonMath.h">
<polygon fill="none" stroke="#000000" points="632.5,-168.5 632.5,-187.5 747.5,-187.5 747.5,-168.5 632.5,-168.5"/>
<text text-anchor="middle" x="690" y="-175.5" font-family="Helvetica,sans-Serif" font-size="10.00" fill="#000000">GPUCommonMath.h</text>
</a>
</g>
</g>
<!-- Node21&#45;&gt;Node24 -->
<g id="edge31" class="edge">
<title>Node21&#45;&gt;Node24</title>
<path fill="none" stroke="#191970" d="M870.1838,-336.4862C838.9455,-309.0096 748.308,-229.2866 708.7903,-194.5276"/>
<polygon fill="#191970" stroke="#191970" points="710.9937,-191.8044 701.1734,-187.8279 706.3705,-197.0605 710.9937,-191.8044"/>
</g>
<!-- Node21&#45;&gt;Node27 -->
<g id="edge35" class="edge">
<title>Node21&#45;&gt;Node27</title>
<path fill="none" stroke="#191970" d="M841.5522,-336.4369C801.9458,-326.8353 740.8614,-312.027 698.359,-301.7234"/>
<polygon fill="#191970" stroke="#191970" points="699.059,-298.2918 688.5159,-299.3372 697.4098,-305.0947 699.059,-298.2918"/>
</g>
<!-- Node31 -->
<g id="node32" class="node">
<title>Node31</title>
<g id="a_node32"><a xlink:href="../../d5/da6/GPUMemoryResource_8h.html" target="_top" xlink:title="GPUMemoryResource.h">
<polygon fill="none" stroke="#000000" points="360.5,-224.5 360.5,-243.5 491.5,-243.5 491.5,-224.5 360.5,-224.5"/>
<text text-anchor="middle" x="426" y="-231.5" font-family="Helvetica,sans-Serif" font-size="10.00" fill="#000000">GPUMemoryResource.h</text>
</a>
</g>
</g>
<!-- Node21&#45;&gt;Node31 -->
<g id="edge45" class="edge">
<title>Node21&#45;&gt;Node31</title>
<path fill="none" stroke="#191970" d="M824.9588,-337.3616C749.7463,-325.6754 623.1053,-305.6391 602,-300 549.7754,-286.0463 491.4463,-262.5168 456.7788,-247.6461"/>
<polygon fill="#191970" stroke="#191970" points="457.8002,-244.2744 447.2327,-243.513 455.0189,-250.6982 457.8002,-244.2744"/>
</g>
<!-- Node22&#45;&gt;Node18 -->
<g id="edge28" class="edge">
<title>Node22&#45;&gt;Node18</title>
<path fill="none" stroke="#191970" d="M1249.478,-280.2767C1260.7357,-271.2967 1277.5438,-257.3652 1291,-244 1306.5086,-228.5963 1322.6538,-209.5752 1333.785,-195.9161"/>
<polygon fill="#191970" stroke="#191970" points="1336.7703,-197.7893 1340.3186,-187.8063 1331.3193,-193.3977 1336.7703,-197.7893"/>
</g>
<!-- Node23 -->
<g id="node24" class="node">
<title>Node23</title>
<g id="a_node24"><a xlink:href="../../d3/da7/GPUTPCGrid_8h.html" target="_top" xlink:title="GPUTPCGrid.h">
<polygon fill="none" stroke="#000000" points="1196,-224.5 1196,-243.5 1282,-243.5 1282,-224.5 1196,-224.5"/>
<text text-anchor="middle" x="1239" y="-231.5" font-family="Helvetica,sans-Serif" font-size="10.00" fill="#000000">GPUTPCGrid.h</text>
</a>
</g>
</g>
<!-- Node22&#45;&gt;Node23 -->
<g id="edge29" class="edge">
<title>Node22&#45;&gt;Node23</title>
<path fill="none" stroke="#191970" d="M1237.3484,-280.2455C1237.6093,-272.9382 1237.9752,-262.6944 1238.2963,-253.7046"/>
<polygon fill="#191970" stroke="#191970" points="1241.7964,-253.7613 1238.6556,-243.6427 1234.8008,-253.5113 1241.7964,-253.7613"/>
</g>
<!-- Node23&#45;&gt;Node18 -->
<g id="edge30" class="edge">
<title>Node23&#45;&gt;Node18</title>
<path fill="none" stroke="#191970" d="M1257.9864,-224.2455C1275.1792,-215.4125 1300.7238,-202.2887 1320.2132,-192.2758"/>
<polygon fill="#191970" stroke="#191970" points="1321.9359,-195.3257 1329.2312,-187.6427 1318.737,-189.0993 1321.9359,-195.3257"/>
</g>
<!-- Node24&#45;&gt;Node4 -->
<g id="edge32" class="edge">
<title>Node24&#45;&gt;Node4</title>
<path fill="none" stroke="#191970" d="M688.2072,-168.2882C685.0019,-153.7633 676.8742,-126.538 659,-112 639.2911,-95.9697 578.2171,-83.1404 529.9908,-75.1454"/>
<polygon fill="#191970" stroke="#191970" points="530.3453,-71.6573 519.9144,-73.5133 529.2261,-78.5673 530.3453,-71.6573"/>
</g>
<!-- Node25 -->
<g id="node26" class="node">
<title>Node25</title>
<polygon fill="none" stroke="#bfbfbf" points="706.5,-112.5 706.5,-131.5 753.5,-131.5 753.5,-112.5 706.5,-112.5"/>
<text text-anchor="middle" x="730" y="-119.5" font-family="Helvetica,sans-Serif" font-size="10.00" fill="#000000">cmath</text>
</g>
<!-- Node24&#45;&gt;Node25 -->
<g id="edge33" class="edge">
<title>Node24&#45;&gt;Node25</title>
<path fill="none" stroke="#191970" d="M696.9675,-168.2455C702.5311,-160.4564 710.478,-149.3308 717.1829,-139.9439"/>
<polygon fill="#191970" stroke="#191970" points="720.148,-141.8144 723.1124,-131.6427 714.4519,-137.7457 720.148,-141.8144"/>
</g>
<!-- Node26 -->
<g id="node27" class="node">
<title>Node26</title>
<polygon fill="none" stroke="#bfbfbf" points="586,-112.5 586,-131.5 650,-131.5 650,-112.5 586,-112.5"/>
<text text-anchor="middle" x="618" y="-119.5" font-family="Helvetica,sans-Serif" font-size="10.00" fill="#000000">algorithm</text>
</g>
<!-- Node24&#45;&gt;Node26 -->
<g id="edge34" class="edge">
<title>Node24&#45;&gt;Node26</title>
<path fill="none" stroke="#191970" d="M677.4586,-168.2455C666.7213,-159.8943 651.0527,-147.7076 638.4953,-137.9408"/>
<polygon fill="#191970" stroke="#191970" points="640.4401,-135.0194 630.3977,-131.6427 636.1425,-140.5449 640.4401,-135.0194"/>
</g>
<!-- Node27&#45;&gt;Node3 -->
<g id="edge38" class="edge">
<title>Node27&#45;&gt;Node3</title>
<path fill="none" stroke="#191970" d="M659.9388,-280.496C669.6531,-271.2018 684.8569,-256.6426 698,-244 723.8242,-219.1592 732.6195,-215.1533 756,-188 769.1253,-172.7567 782.2525,-153.9492 791.284,-140.3158"/>
<polygon fill="#191970" stroke="#191970" points="794.2995,-142.099 796.8318,-131.8112 788.4367,-138.2744 794.2995,-142.099"/>
</g>
<!-- Node27&#45;&gt;Node4 -->
<g id="edge36" class="edge">
<title>Node27&#45;&gt;Node4</title>
<path fill="none" stroke="#191970" d="M628.2365,-280.355C612.3889,-272.4455 591.2849,-259.9629 577,-244 533.5219,-195.4149 551.0842,-164.9194 513,-112 505.1595,-101.1053 494.6083,-90.5159 485.4895,-82.2491"/>
<polygon fill="#191970" stroke="#191970" points="487.7741,-79.5973 477.949,-75.6328 483.1573,-84.859 487.7741,-79.5973"/>
</g>
<!-- Node27&#45;&gt;Node24 -->
<g id="edge37" class="edge">
<title>Node27&#45;&gt;Node24</title>
<path fill="none" stroke="#191970" d="M658.6097,-280.165C665.8341,-271.3299 675.785,-257.6776 681,-244 686.6649,-229.1423 688.8409,-211.2049 689.6415,-197.7823"/>
<polygon fill="#191970" stroke="#191970" points="693.1408,-197.8659 690.037,-187.736 686.1462,-197.5906 693.1408,-197.8659"/>
</g>
<!-- Node28 -->
<g id="node29" class="node">
<title>Node28</title>
<g id="a_node29"><a xlink:href="../../dd/dc6/GPUSettings_8h.html" target="_top" xlink:title="GPUSettings.h">
<polygon fill="none" stroke="#000000" points="586,-224.5 586,-243.5 672,-243.5 672,-224.5 586,-224.5"/>
<text text-anchor="middle" x="629" y="-231.5" font-family="Helvetica,sans-Serif" font-size="10.00" fill="#000000">GPUSettings.h</text>
</a>
</g>
</g>
<!-- Node27&#45;&gt;Node28 -->
<g id="edge39" class="edge">
<title>Node27&#45;&gt;Node28</title>
<path fill="none" stroke="#191970" d="M646.3421,-280.2455C643.5416,-272.7776 639.591,-262.2427 636.1676,-253.1137"/>
<polygon fill="#191970" stroke="#191970" points="639.4045,-251.777 632.616,-243.6427 632.8501,-254.2349 639.4045,-251.777"/>
</g>
<!-- Node29 -->
<g id="node30" class="node">
<title>Node29</title>
<g id="a_node30"><a xlink:href="../../d6/d1b/GPUTPCGeometry_8h.html" target="_top" xlink:title="GPUTPCGeometry.h">
<polygon fill="none" stroke="#000000" points="378.5,-168.5 378.5,-187.5 491.5,-187.5 491.5,-168.5 378.5,-168.5"/>
<text text-anchor="middle" x="435" y="-175.5" font-family="Helvetica,sans-Serif" font-size="10.00" fill="#000000">GPUTPCGeometry.h</text>
</a>
</g>
</g>
<!-- Node27&#45;&gt;Node29 -->
<g id="edge41" class="edge">
<title>Node27&#45;&gt;Node29</title>
<path fill="none" stroke="#191970" d="M625.5723,-280.4954C603.8046,-271.7692 571.2679,-258.0903 544,-244 513.3897,-228.1825 479.6797,-207.1819 457.9721,-193.1598"/>
<polygon fill="#191970" stroke="#191970" points="459.7384,-190.1334 449.4477,-187.613 455.9206,-196.0006 459.7384,-190.1334"/>
</g>
<!-- Node30 -->
<g id="node31" class="node">
<title>Node30</title>
<g id="a_node31"><a xlink:href="../../d9/d9c/GPUTPCGMPolynomialField_8h.html" target="_top" xlink:title="GPUTPCGMPolynomialField.h">
<polygon fill="none" stroke="#000000" points="944,-224.5 944,-243.5 1102,-243.5 1102,-224.5 944,-224.5"/>
<text text-anchor="middle" x="1023" y="-231.5" font-family="Helvetica,sans-Serif" font-size="10.00" fill="#000000">GPUTPCGMPolynomialField.h</text>
</a>
</g>
</g>
<!-- Node27&#45;&gt;Node30 -->
<g id="edge43" class="edge">
<title>Node27&#45;&gt;Node30</title>
<path fill="none" stroke="#191970" d="M688.5127,-284.2179C749.8807,-275.0045 870.9121,-256.8336 949.3209,-245.0617"/>
<polygon fill="#191970" stroke="#191970" points="950.2456,-248.4622 959.6151,-243.5162 949.2062,-241.5398 950.2456,-248.4622"/>
</g>
<!-- Node28&#45;&gt;Node24 -->
<g id="edge40" class="edge">
<title>Node28&#45;&gt;Node24</title>
<path fill="none" stroke="#191970" d="M639.6254,-224.2455C648.5473,-216.0549 661.488,-204.1749 672.0192,-194.5069"/>
<polygon fill="#191970" stroke="#191970" points="674.4968,-196.9837 679.4964,-187.6427 669.7629,-191.8271 674.4968,-196.9837"/>
</g>
<!-- Node29&#45;&gt;Node4 -->
<g id="edge42" class="edge">
<title>Node29&#45;&gt;Node4</title>
<path fill="none" stroke="#191970" d="M437.643,-168.4509C442.722,-150.1013 453.9347,-109.5908 460.6388,-85.3693"/>
<polygon fill="#191970" stroke="#191970" points="464.0692,-86.0962 463.3636,-75.5249 457.3228,-84.2289 464.0692,-86.0962"/>
</g>
<!-- Node30&#45;&gt;Node18 -->
<g id="edge44" class="edge">
<title>Node30&#45;&gt;Node18</title>
<path fill="none" stroke="#191970" d="M1078.5002,-224.4369C1139.6836,-213.8945 1237.2971,-197.075 1296.7345,-186.8334"/>
<polygon fill="#191970" stroke="#191970" points="1297.3919,-190.2718 1306.6523,-185.1245 1296.2032,-183.3735 1297.3919,-190.2718"/>
</g>
<!-- Node31&#45;&gt;Node4 -->
<g id="edge46" class="edge">
<title>Node31&#45;&gt;Node4</title>
<path fill="none" stroke="#191970" d="M454.4381,-224.3621C470.9279,-217.1374 490.299,-205.4529 500,-188 518.8497,-154.0878 495.5599,-108.962 479.2671,-84.1936"/>
<polygon fill="#191970" stroke="#191970" points="482.019,-82.0185 473.4677,-75.7634 476.2519,-85.9859 482.019,-82.0185"/>
</g>
<!-- Node31&#45;&gt;Node32 -->
<g id="edge47" class="edge">
<title>Node31&#45;&gt;Node32</title>
<path fill="none" stroke="#191970" d="M406.7465,-224.3733C388.9288,-215.4644 362.2253,-202.1127 342.0406,-192.0203"/>
<polygon fill="#191970" stroke="#191970" points="343.5118,-188.8428 333.0022,-187.5011 340.3813,-195.1038 343.5118,-188.8428"/>
</g>
<!-- Node32&#45;&gt;Node3 -->
<g id="edge49" class="edge">
<title>Node32&#45;&gt;Node3</title>
<path fill="none" stroke="#191970" d="M360.7629,-169.2069C363.546,-168.774 366.3075,-168.3674 369,-168 539.5633,-144.7287 587.234,-160.2586 761.302,-131.8767"/>
<polygon fill="#191970" stroke="#191970" points="762.0178,-135.306 771.3117,-130.2194 760.8743,-128.4 762.0178,-135.306"/>
</g>
<!-- Node32&#45;&gt;Node4 -->
<g id="edge48" class="edge">
<title>Node32&#45;&gt;Node4</title>
<path fill="none" stroke="#191970" d="M326.9594,-168.4509C353.2086,-149.1094 412.8726,-105.1465 444.8416,-81.5904"/>
<polygon fill="#191970" stroke="#191970" points="447.099,-84.2746 453.0734,-75.5249 442.9466,-78.6392 447.099,-84.2746"/>
</g>
<!-- Node32&#45;&gt;Node15 -->
<g id="edge50" class="edge">
<title>Node32&#45;&gt;Node15</title>
<path fill="none" stroke="#191970" d="M309.1228,-168.2455C305.3487,-160.6973 300.0079,-150.0158 295.4099,-140.8197"/>
<polygon fill="#191970" stroke="#191970" points="298.424,-139.0217 290.8213,-131.6427 292.163,-142.1522 298.424,-139.0217"/>
</g>
<!-- Node32&#45;&gt;Node26 -->
<g id="edge51" class="edge">
<title>Node32&#45;&gt;Node26</title>
<path fill="none" stroke="#191970" d="M360.502,-169.4338C419.22,-158.6174 519.3846,-140.166 575.9248,-129.7507"/>
<polygon fill="#191970" stroke="#191970" points="576.7541,-133.1569 585.9545,-127.9031 575.4859,-126.2727 576.7541,-133.1569"/>
</g>
<!-- Node33&#45;&gt;Node18 -->
<g id="edge55" class="edge">
<title>Node33&#45;&gt;Node18</title>
<path fill="none" stroke="#191970" d="M1360.6304,-280.0994C1362.4959,-267.1368 1364.9375,-243.7407 1362,-224 1360.6673,-215.0439 1357.9506,-205.419 1355.2619,-197.3"/>
<polygon fill="#191970" stroke="#191970" points="1358.4936,-195.9402 1351.8624,-187.6772 1351.8933,-198.272 1358.4936,-195.9402"/>
</g>
<!-- Node33&#45;&gt;Node24 -->
<g id="edge56" class="edge">
<title>Node33&#45;&gt;Node24</title>
<path fill="none" stroke="#191970" d="M1352.4381,-280.2262C1341.6528,-265.0922 1318.598,-236.4383 1291,-224 1243.3972,-202.5456 904.719,-186.5844 757.7609,-180.5915"/>
<polygon fill="#191970" stroke="#191970" points="757.6512,-177.0843 747.5179,-180.1773 757.3683,-184.0786 757.6512,-177.0843"/>
</g>
<!-- Node34 -->
<g id="node35" class="node">
<title>Node34</title>
<g id="a_node35"><a xlink:href="../../df/d00/GPUTPCBaseTrackParam_8h.html" target="_top" xlink:title="GPUTPCBaseTrackParam.h">
<polygon fill="none" stroke="#000000" points="1414,-224.5 1414,-243.5 1560,-243.5 1560,-224.5 1414,-224.5"/>
<text text-anchor="middle" x="1487" y="-231.5" font-family="Helvetica,sans-Serif" font-size="10.00" fill="#000000">GPUTPCBaseTrackParam.h</text>
</a>
</g>
</g>
<!-- Node33&#45;&gt;Node34 -->
<g id="edge53" class="edge">
<title>Node33&#45;&gt;Node34</title>
<path fill="none" stroke="#191970" d="M1381.004,-280.3733C1401.6435,-271.3435 1432.7158,-257.7494 1455.8889,-247.6111"/>
<polygon fill="#191970" stroke="#191970" points="1457.5245,-250.7159 1465.2831,-243.5011 1454.7187,-244.3028 1457.5245,-250.7159"/>
</g>
<!-- Node34&#45;&gt;Node18 -->
<g id="edge54" class="edge">
<title>Node34&#45;&gt;Node18</title>
<path fill="none" stroke="#191970" d="M1463.105,-224.3733C1440.4918,-215.2629 1406.3458,-201.5062 1381.1127,-191.3404"/>
<polygon fill="#191970" stroke="#191970" points="1382.1666,-187.9917 1371.5831,-187.5011 1379.5507,-194.4845 1382.1666,-187.9917"/>
</g>
<!-- Node35&#45;&gt;Node18 -->
<g id="edge59" class="edge">
<title>Node35&#45;&gt;Node18</title>
<path fill="none" stroke="#191970" d="M1517.7735,-280.432C1547.5242,-268.6898 1588.0572,-247.4322 1569,-224 1548.064,-198.2576 1458.1314,-186.444 1399.6388,-181.3956"/>
<polygon fill="#191970" stroke="#191970" points="1399.7182,-177.8903 1389.4647,-180.5578 1399.1437,-184.8667 1399.7182,-177.8903"/>
</g>
<!-- Node35&#45;&gt;Node34 -->
<g id="edge58" class="edge">
<title>Node35&#45;&gt;Node34</title>
<path fill="none" stroke="#191970" d="M1489.4774,-280.2455C1489.086,-272.9382 1488.5372,-262.6944 1488.0556,-253.7046"/>
<polygon fill="#191970" stroke="#191970" points="1491.5466,-253.4411 1487.5166,-243.6427 1484.5566,-253.8156 1491.5466,-253.4411"/>
</g>
<!-- Node36&#45;&gt;Node4 -->
<g id="edge64" class="edge">
<title>Node36&#45;&gt;Node4</title>
<path fill="none" stroke="#191970" d="M69.3412,-224.3729C92.9276,-200.7255 157.8103,-139.7029 225,-112 282.2886,-88.3794 352.293,-76.7497 402.0608,-71.1106"/>
<polygon fill="#191970" stroke="#191970" points="402.4831,-74.5854 412.0479,-70.0285 401.729,-67.6262 402.4831,-74.5854"/>
</g>
<!-- Node36&#45;&gt;Node14 -->
<g id="edge65" class="edge">
<title>Node36&#45;&gt;Node14</title>
<path fill="none" stroke="#191970" d="M84.0669,-224.3733C106.8428,-215.2629 141.2344,-201.5062 166.649,-191.3404"/>
<polygon fill="#191970" stroke="#191970" points="168.2623,-194.4648 176.2472,-187.5011 165.6625,-187.9654 168.2623,-194.4648"/>
</g>
<!-- Node37&#45;&gt;Node3 -->
<g id="edge67" class="edge">
<title>Node37&#45;&gt;Node3</title>
<path fill="none" stroke="#191970" d="M297.169,-224.4849C349.9208,-215.5628 430.3777,-201.595 500,-188 613.6718,-165.8035 644.2695,-158.9293 761.1697,-132.1488"/>
<polygon fill="#191970" stroke="#191970" points="762.2714,-135.4871 771.2372,-129.8422 760.7081,-128.6639 762.2714,-135.4871"/>
</g>
<!-- Node37&#45;&gt;Node14 -->
<g id="edge69" class="edge">
<title>Node37&#45;&gt;Node14</title>
<path fill="none" stroke="#191970" d="M233.0325,-224.2455C227.4689,-216.4564 219.522,-205.3308 212.8171,-195.9439"/>
<polygon fill="#191970" stroke="#191970" points="215.5481,-193.7457 206.8876,-187.6427 209.852,-197.8144 215.5481,-193.7457"/>
</g>
<!-- Node37&#45;&gt;Node32 -->
<g id="edge68" class="edge">
<title>Node37&#45;&gt;Node32</title>
<path fill="none" stroke="#191970" d="M252.8898,-224.2455C263.9254,-215.8943 280.0292,-203.7076 292.9353,-193.9408"/>
<polygon fill="#191970" stroke="#191970" points="295.3959,-196.4681 301.2579,-187.6427 291.1717,-190.8862 295.3959,-196.4681"/>
</g>
<!-- Node38&#45;&gt;Node2 -->
<g id="edge71" class="edge">
<title>Node38&#45;&gt;Node2</title>
<path fill="none" stroke="#191970" d="M1544.2421,-448.2292C1545.1019,-434.1196 1548.6761,-407.9835 1563,-392 1577.2864,-376.0583 1597.9298,-365.5206 1617.6118,-358.6101"/>
<polygon fill="#191970" stroke="#191970" points="1618.7386,-361.9242 1627.1646,-355.5013 1616.5724,-355.2678 1618.7386,-361.9242"/>
</g>
<!-- Node38&#45;&gt;Node39 -->
<g id="edge72" class="edge">
<title>Node38&#45;&gt;Node39</title>
<path fill="none" stroke="#191970" d="M1555.6705,-448.2455C1565.5661,-439.9746 1579.9627,-427.9416 1591.5901,-418.2232"/>
<polygon fill="#191970" stroke="#191970" points="1594.035,-420.7413 1599.4632,-411.6427 1589.5458,-415.3703 1594.035,-420.7413"/>
</g>
<!-- Node39&#45;&gt;Node2 -->
<g id="edge73" class="edge">
<title>Node39&#45;&gt;Node2</title>
<path fill="none" stroke="#191970" d="M1622.1479,-392.2455C1631.5087,-384.0549 1645.0858,-372.1749 1656.1349,-362.5069"/>
<polygon fill="#191970" stroke="#191970" points="1658.7588,-364.8618 1663.9798,-355.6427 1654.1492,-359.5937 1658.7588,-364.8618"/>
</g>
<!-- Node40&#45;&gt;Node2 -->
<g id="edge75" class="edge">
<title>Node40&#45;&gt;Node2</title>
<path fill="none" stroke="#191970" d="M1295.5179,-396.142C1364.117,-387.6287 1494.8655,-371.1921 1606,-356 1607.1093,-355.8484 1608.2286,-355.6946 1609.3556,-355.5391"/>
<polygon fill="#191970" stroke="#191970" points="1610.2295,-358.9511 1619.6495,-354.102 1609.2616,-352.0184 1610.2295,-358.9511"/>
</g>
<!-- Node40&#45;&gt;Node24 -->
<g id="edge76" class="edge">
<title>Node40&#45;&gt;Node24</title>
<path fill="none" stroke="#191970" d="M1241.9984,-392.3081C1220.6769,-358.2107 1147.8886,-244.7227 1111,-224 1080.9678,-207.129 869.3042,-190.3082 758.0217,-182.5048"/>
<polygon fill="#191970" stroke="#191970" points="758.1204,-179.0033 747.9016,-181.8006 757.6345,-185.9864 758.1204,-179.0033"/>
</g>
</g>
</svg>
