<?xml version="1.0" encoding="UTF-8" standalone="no"?>
<!DOCTYPE svg PUBLIC "-//W3C//DTD SVG 1.1//EN"
 "http://www.w3.org/Graphics/SVG/1.1/DTD/svg11.dtd">
<!-- Generated by graphviz version 2.40.1 (20161225.0304)
 -->
<!-- Title: /home/travis/build/AliceO2Group/AliceO2/Detectors/MUON/MCH/Simulation/test/testDigitization.cxx Pages: 1 -->
<!--zoomable 452 -->
<svg id="main" version="1.1" xmlns="http://www.w3.org/2000/svg" xmlns:xlink="http://www.w3.org/1999/xlink" xml:space="preserve" onload="init(evt)">
<style type="text/css"><![CDATA[
.edge:hover path { stroke: red; }
.edge:hover polygon { stroke: red; fill: red; }
]]></style>
<script type="text/javascript"><![CDATA[
var edges = document.getElementsByTagName('g');
if (edges && edges.length) {
  for (var i=0;i<edges.length;i++) {
    if (edges[i].id.substr(0,4)=='edge') {
      edges[i].setAttribute('class','edge');
    }
  }
}
]]></script>
        <defs>
                <circle id="rim" cx="0" cy="0" r="7"/>
                <circle id="rim2" cx="0" cy="0" r="3.5"/>
                <g id="zoomPlus">
                        <use xlink:href="#rim" fill="#404040">
                                <set attributeName="fill" to="#808080" begin="zoomplus.mouseover" end="zoomplus.mouseout"/>
                        </use>
                        <path d="M-4,0h8M0,-4v8" fill="none" stroke="white" stroke-width="1.5" pointer-events="none"/>
                </g>
                <g id="zoomMin">
                        <use xlink:href="#rim" fill="#404040">
                                <set attributeName="fill" to="#808080" begin="zoomminus.mouseover" end="zoomminus.mouseout"/>
                        </use>
                        <path d="M-4,0h8" fill="none" stroke="white" stroke-width="1.5" pointer-events="none"/>
                </g>
                <g id="dirArrow">
                        <path fill="none" stroke="white" stroke-width="1.5" d="M0,-3.0v7 M-2.5,-0.5L0,-3.0L2.5,-0.5"/>
                </g>
               <g id="resetDef">
                       <use xlink:href="#rim2" fill="#404040">
                               <set attributeName="fill" to="#808080" begin="reset.mouseover" end="reset.mouseout"/>
                       </use>
               </g>
        </defs>

<script type="text/javascript">
var viewWidth = 1989;
var viewHeight = 452;
var sectionId = 'dynsection-0';
</script>
<script xlink:href="../../svgpan.js"/>
<svg id="graph" class="graph">
<g id="viewport">
<title>/home/travis/build/AliceO2Group/AliceO2/Detectors/MUON/MCH/Simulation/test/testDigitization.cxx</title>
<!-- Node0 -->
<g id="node1" class="node">
<title>Node0</title>
<polygon fill="#bfbfbf" stroke="#000000" points="995,-391.5 995,-443.5 1177,-443.5 1177,-391.5 995,-391.5"/>
<text text-anchor="start" x="1003" y="-431.5" font-family="Helvetica,sans-Serif" font-size="10.00" fill="#000000">/home/travis/build</text>
<text text-anchor="start" x="1003" y="-420.5" font-family="Helvetica,sans-Serif" font-size="10.00" fill="#000000">/AliceO2Group/AliceO2</text>
<text text-anchor="start" x="1003" y="-409.5" font-family="Helvetica,sans-Serif" font-size="10.00" fill="#000000">/Detectors/MUON/MCH/Simulation</text>
<text text-anchor="middle" x="1086" y="-398.5" font-family="Helvetica,sans-Serif" font-size="10.00" fill="#000000">/test/testDigitization.cxx</text>
</g>
<!-- Node1 -->
<g id="node2" class="node">
<title>Node1</title>
<polygon fill="none" stroke="#bfbfbf" points="559,-330 559,-349 691,-349 691,-330 559,-330"/>
<text text-anchor="middle" x="625" y="-337" font-family="Helvetica,sans-Serif" font-size="10.00" fill="#000000">boost/test/unit_test.hpp</text>
</g>
<!-- Node0&#45;&gt;Node1 -->
<g id="edge1" class="edge">
<title>Node0&#45;&gt;Node1</title>
<path fill="none" stroke="#191970" d="M994.9489,-403.8946C916.6088,-391.917 800.6459,-373.5392 700,-355 693.4109,-353.7863 686.5099,-352.4498 679.6751,-351.086"/>
<polygon fill="#191970" stroke="#191970" points="680.248,-347.631 669.7526,-349.0793 678.8603,-354.4921 680.248,-347.631"/>
</g>
<!-- Node2 -->
<g id="node3" class="node">
<title>Node2</title>
<polygon fill="none" stroke="#bfbfbf" points="709,-330 709,-349 801,-349 801,-330 709,-330"/>
<text text-anchor="middle" x="755" y="-337" font-family="Helvetica,sans-Serif" font-size="10.00" fill="#000000">TGeoManager.h</text>
</g>
<!-- Node0&#45;&gt;Node2 -->
<g id="edge2" class="edge">
<title>Node0&#45;&gt;Node2</title>
<path fill="none" stroke="#191970" d="M994.9079,-397.1159C942.2564,-385.1778 874.801,-369.6175 815,-355 810.5894,-353.9219 806.0023,-352.778 801.4169,-351.6193"/>
<polygon fill="#191970" stroke="#191970" points="802.005,-348.1574 791.4503,-349.0789 800.276,-354.9405 802.005,-348.1574"/>
</g>
<!-- Node3 -->
<g id="node4" class="node">
<title>Node3</title>
<g id="a_node4"><a xlink:href="../../d8/d72/Detectors_2MUON_2MCH_2Base_2include_2MCHBase_2Digit_8h.html" target="_top" xlink:title="MCHBase/Digit.h">
<polygon fill="none" stroke="#000000" points="789,-263 789,-282 887,-282 887,-263 789,-263"/>
<text text-anchor="middle" x="838" y="-270" font-family="Helvetica,sans-Serif" font-size="10.00" fill="#000000">MCHBase/Digit.h</text>
</a>
</g>
</g>
<!-- Node0&#45;&gt;Node3 -->
<g id="edge3" class="edge">
<title>Node0&#45;&gt;Node3</title>
<path fill="none" stroke="#191970" d="M994.8122,-403.8659C958.0437,-394.798 917.0682,-379.7847 886,-355 865.3296,-338.5101 851.7784,-310.5235 844.5023,-291.7793"/>
<polygon fill="#191970" stroke="#191970" points="847.7278,-290.4078 841.0185,-282.2081 841.15,-292.8021 847.7278,-290.4078"/>
</g>
<!-- Node5 -->
<g id="node6" class="node">
<title>Node5</title>
<g id="a_node6"><a xlink:href="../../da/d5e/MUON_2MCH_2Simulation_2include_2MCHSimulation_2Digitizer_8h.html" target="_top" xlink:title="MCHSimulation/Digitizer.h">
<polygon fill="none" stroke="#000000" points="895,-330 895,-349 1039,-349 1039,-330 895,-330"/>
<text text-anchor="middle" x="967" y="-337" font-family="Helvetica,sans-Serif" font-size="10.00" fill="#000000">MCHSimulation/Digitizer.h</text>
</a>
</g>
</g>
<!-- Node0&#45;&gt;Node5 -->
<g id="edge5" class="edge">
<title>Node0&#45;&gt;Node5</title>
<path fill="none" stroke="#191970" d="M1046.0437,-391.3101C1027.5303,-379.1753 1006.1771,-365.1791 990.335,-354.7952"/>
<polygon fill="#191970" stroke="#191970" points="991.9896,-351.6949 981.7074,-349.1401 988.1522,-357.5493 991.9896,-351.6949"/>
</g>
<!-- Node6 -->
<g id="node7" class="node">
<title>Node6</title>
<g id="a_node7"><a xlink:href="../../d5/daf/Detectors_2MUON_2MCH_2Simulation_2include_2MCHSimulation_2Hit_8h.html" target="_top" xlink:title="MCHSimulation/Hit.h">
<polygon fill="none" stroke="#000000" points="905,-263 905,-282 1023,-282 1023,-263 905,-263"/>
<text text-anchor="middle" x="964" y="-270" font-family="Helvetica,sans-Serif" font-size="10.00" fill="#000000">MCHSimulation/Hit.h</text>
</a>
</g>
</g>
<!-- Node0&#45;&gt;Node6 -->
<g id="edge41" class="edge">
<title>Node0&#45;&gt;Node6</title>
<path fill="none" stroke="#191970" d="M1080.1468,-391.3528C1074.58,-371.1778 1064.5472,-343.5099 1048,-324 1034.2765,-307.8193 1014.133,-295.2286 997.0119,-286.5475"/>
<polygon fill="#191970" stroke="#191970" points="998.3977,-283.3299 987.8711,-282.1289 995.3511,-289.6322 998.3977,-283.3299"/>
</g>
<!-- Node26 -->
<g id="node27" class="node">
<title>Node26</title>
<g id="a_node27"><a xlink:href="../../d7/dcd/MCCompLabel_8h.html" target="_top" xlink:title="SimulationDataFormat\l/MCCompLabel.h">
<polygon fill="none" stroke="#000000" points="643.5,-257.5 643.5,-287.5 770.5,-287.5 770.5,-257.5 643.5,-257.5"/>
<text text-anchor="start" x="651.5" y="-275.5" font-family="Helvetica,sans-Serif" font-size="10.00" fill="#000000">SimulationDataFormat</text>
<text text-anchor="middle" x="707" y="-264.5" font-family="Helvetica,sans-Serif" font-size="10.00" fill="#000000">/MCCompLabel.h</text>
</a>
</g>
</g>
<!-- Node0&#45;&gt;Node26 -->
<g id="edge58" class="edge">
<title>Node0&#45;&gt;Node26</title>
<path fill="none" stroke="#191970" d="M994.8026,-399.6095C951.8794,-389.4431 900.6507,-374.7428 857,-355 834.2002,-344.6879 831.6739,-336.5066 810,-324 790.2978,-312.6311 767.763,-301.1951 748.8053,-291.9973"/>
<polygon fill="#191970" stroke="#191970" points="750.0628,-288.7184 739.5339,-287.5382 747.0288,-295.0267 750.0628,-288.7184"/>
</g>
<!-- Node28 -->
<g id="node29" class="node">
<title>Node28</title>
<g id="a_node29"><a xlink:href="../../db/d14/MCTruthContainer_8h.html" target="_top" xlink:title="Definition of a container to keep Monte Carlo truth external to simulation objects. ">
<polygon fill="none" stroke="#000000" points="1041.5,-257.5 1041.5,-287.5 1168.5,-287.5 1168.5,-257.5 1041.5,-257.5"/>
<text text-anchor="start" x="1049.5" y="-275.5" font-family="Helvetica,sans-Serif" font-size="10.00" fill="#000000">SimulationDataFormat</text>
<text text-anchor="middle" x="1105" y="-264.5" font-family="Helvetica,sans-Serif" font-size="10.00" fill="#000000">/MCTruthContainer.h</text>
</a>
</g>
</g>
<!-- Node0&#45;&gt;Node28 -->
<g id="edge59" class="edge">
<title>Node0&#45;&gt;Node28</title>
<path fill="none" stroke="#191970" d="M1089.4408,-391.2416C1092.9184,-364.702 1098.2552,-323.9737 1101.6865,-297.787"/>
<polygon fill="#191970" stroke="#191970" points="1105.1575,-298.2364 1102.9865,-287.8663 1098.2168,-297.3268 1105.1575,-298.2364"/>
</g>
<!-- Node37 -->
<g id="node38" class="node">
<title>Node37</title>
<g id="a_node38"><a xlink:href="../../d5/dc1/MUON_2MCH_2Simulation_2include_2MCHSimulation_2Geometry_8h.html" target="_top" xlink:title="MCHSimulation/Geometry.h">
<polygon fill="none" stroke="#000000" points="1186.5,-263 1186.5,-282 1337.5,-282 1337.5,-263 1186.5,-263"/>
<text text-anchor="middle" x="1262" y="-270" font-family="Helvetica,sans-Serif" font-size="10.00" fill="#000000">MCHSimulation/Geometry.h</text>
</a>
</g>
</g>
<!-- Node0&#45;&gt;Node37 -->
<g id="edge42" class="edge">
<title>Node0&#45;&gt;Node37</title>
<path fill="none" stroke="#191970" d="M1117.8723,-391.2416C1154.1164,-361.3814 1212.1617,-313.56 1242.3403,-288.6969"/>
<polygon fill="#191970" stroke="#191970" points="1244.9224,-291.1045 1250.4149,-282.0445 1240.4714,-285.7018 1244.9224,-291.1045"/>
</g>
<!-- Node39 -->
<g id="node40" class="node">
<title>Node39</title>
<g id="a_node40"><a xlink:href="../../de/d04/GeometryTest_8h.html" target="_top" xlink:title="MCHSimulation/GeometryTest.h">
<polygon fill="none" stroke="#000000" points="1482,-330 1482,-349 1654,-349 1654,-330 1482,-330"/>
<text text-anchor="middle" x="1568" y="-337" font-family="Helvetica,sans-Serif" font-size="10.00" fill="#000000">MCHSimulation/GeometryTest.h</text>
</a>
</g>
</g>
<!-- Node0&#45;&gt;Node39 -->
<g id="edge46" class="edge">
<title>Node0&#45;&gt;Node39</title>
<path fill="none" stroke="#191970" d="M1177.1018,-402.8298C1255.5297,-390.1902 1371.7281,-371.4393 1473,-355 1481.6291,-353.5993 1490.6984,-352.1238 1499.6678,-350.6625"/>
<polygon fill="#191970" stroke="#191970" points="1500.4166,-354.0868 1509.7233,-349.0236 1499.2905,-347.1779 1500.4166,-354.0868"/>
</g>
<!-- Node40 -->
<g id="node41" class="node">
<title>Node40</title>
<g id="a_node41"><a xlink:href="../../d6/d1f/MUON_2MCH_2Mapping_2Interface_2include_2MCHMappingInterface_2Segmentation_8h.html" target="_top" xlink:title="MCHMappingInterface\l/Segmentation.h">
<polygon fill="none" stroke="#000000" points="1340,-324.5 1340,-354.5 1464,-354.5 1464,-324.5 1340,-324.5"/>
<text text-anchor="start" x="1348" y="-342.5" font-family="Helvetica,sans-Serif" font-size="10.00" fill="#000000">MCHMappingInterface</text>
<text text-anchor="middle" x="1402" y="-331.5" font-family="Helvetica,sans-Serif" font-size="10.00" fill="#000000">/Segmentation.h</text>
</a>
</g>
</g>
<!-- Node0&#45;&gt;Node40 -->
<g id="edge48" class="edge">
<title>Node0&#45;&gt;Node40</title>
<path fill="none" stroke="#191970" d="M1177.4003,-394.9392C1226.308,-382.867 1285.6367,-368.2226 1331.0329,-357.0172"/>
<polygon fill="#191970" stroke="#191970" points="1331.9212,-360.4031 1340.7911,-354.6085 1330.2437,-353.607 1331.9212,-360.4031"/>
</g>
<!-- Node43 -->
<g id="node44" class="node">
<title>Node43</title>
<polygon fill="none" stroke="#bfbfbf" points="1879.5,-196 1879.5,-215 1980.5,-215 1980.5,-196 1879.5,-196"/>
<text text-anchor="middle" x="1930" y="-203" font-family="Helvetica,sans-Serif" font-size="10.00" fill="#000000">boost/format.hpp</text>
</g>
<!-- Node0&#45;&gt;Node43 -->
<g id="edge60" class="edge">
<title>Node0&#45;&gt;Node43</title>
<path fill="none" stroke="#191970" d="M1177.242,-413.9233C1317.1691,-407.3828 1577.5366,-390.7408 1663,-355 1683.1083,-346.5907 1682.7794,-335.9613 1701,-324 1768.112,-279.9431 1853.5798,-239.458 1898.7485,-219.1621"/>
<polygon fill="#191970" stroke="#191970" points="1900.3108,-222.2977 1908.0172,-215.0271 1897.4588,-215.905 1900.3108,-222.2977"/>
</g>
<!-- Node46 -->
<g id="node47" class="node">
<title>Node46</title>
<polygon fill="none" stroke="#bfbfbf" points="1710,-324.5 1710,-354.5 1822,-354.5 1822,-324.5 1710,-324.5"/>
<text text-anchor="start" x="1718" y="-342.5" font-family="Helvetica,sans-Serif" font-size="10.00" fill="#000000">boost/test/data/test</text>
<text text-anchor="middle" x="1766" y="-331.5" font-family="Helvetica,sans-Serif" font-size="10.00" fill="#000000">_case.hpp</text>
</g>
<!-- Node0&#45;&gt;Node46 -->
<g id="edge61" class="edge">
<title>Node0&#45;&gt;Node46</title>
<path fill="none" stroke="#191970" d="M1177.119,-411.4732C1296.734,-402.8063 1512.9993,-384.534 1696,-355 1697.2787,-354.7936 1698.5692,-354.5784 1699.8683,-354.3554"/>
<polygon fill="#191970" stroke="#191970" points="1700.7394,-357.7542 1709.9461,-352.5113 1699.4794,-350.8686 1700.7394,-357.7542"/>
</g>
<!-- Node4 -->
<g id="node5" class="node">
<title>Node4</title>
<polygon fill="none" stroke="#bfbfbf" points="457.5,-73 457.5,-92 516.5,-92 516.5,-73 457.5,-73"/>
<text text-anchor="middle" x="487" y="-80" font-family="Helvetica,sans-Serif" font-size="10.00" fill="#000000">Rtypes.h</text>
</g>
<!-- Node3&#45;&gt;Node4 -->
<g id="edge4" class="edge">
<title>Node3&#45;&gt;Node4</title>
<path fill="none" stroke="#191970" d="M805.3544,-262.9769C797.1283,-260.7984 788.281,-258.6432 780,-257 719.7623,-245.0468 549.5484,-264.3012 506,-221 474.5626,-189.7411 478.3149,-132.5765 483.0447,-102.39"/>
<polygon fill="#191970" stroke="#191970" points="486.5425,-102.7081 484.8339,-92.2519 479.6491,-101.4914 486.5425,-102.7081"/>
</g>
<!-- Node5&#45;&gt;Node3 -->
<g id="edge6" class="edge">
<title>Node5&#45;&gt;Node3</title>
<path fill="none" stroke="#191970" d="M948.5174,-329.9005C926.7725,-318.6067 890.4677,-299.7506 865.436,-286.7497"/>
<polygon fill="#191970" stroke="#191970" points="866.9359,-283.5849 856.4483,-282.0817 863.7095,-289.797 866.9359,-283.5849"/>
</g>
<!-- Node5&#45;&gt;Node6 -->
<g id="edge7" class="edge">
<title>Node5&#45;&gt;Node6</title>
<path fill="none" stroke="#191970" d="M966.5702,-329.9005C966.1335,-320.149 965.4445,-304.7597 964.8897,-292.3695"/>
<polygon fill="#191970" stroke="#191970" points="968.3729,-291.9151 964.429,-282.0817 961.3799,-292.2282 968.3729,-291.9151"/>
</g>
<!-- Node5&#45;&gt;Node26 -->
<g id="edge28" class="edge">
<title>Node5&#45;&gt;Node26</title>
<path fill="none" stroke="#191970" d="M930.0245,-329.9717C889.8052,-319.6075 824.6397,-302.8148 775.1093,-290.0512"/>
<polygon fill="#191970" stroke="#191970" points="775.9808,-286.6615 765.4237,-287.5553 774.234,-293.4401 775.9808,-286.6615"/>
</g>
<!-- Node5&#45;&gt;Node28 -->
<g id="edge31" class="edge">
<title>Node5&#45;&gt;Node28</title>
<path fill="none" stroke="#191970" d="M986.772,-329.9005C1007.0832,-320.0393 1039.2691,-304.4128 1064.9335,-291.9526"/>
<polygon fill="#191970" stroke="#191970" points="1066.5925,-295.0379 1074.0597,-287.5218 1063.5352,-288.7408 1066.5925,-295.0379"/>
</g>
<!-- Node7 -->
<g id="node8" class="node">
<title>Node7</title>
<g id="a_node8"><a xlink:href="../../d4/d25/BaseHits_8h.html" target="_top" xlink:title="SimulationDataFormat\l/BaseHits.h">
<polygon fill="none" stroke="#000000" points="731.5,-190.5 731.5,-220.5 858.5,-220.5 858.5,-190.5 731.5,-190.5"/>
<text text-anchor="start" x="739.5" y="-208.5" font-family="Helvetica,sans-Serif" font-size="10.00" fill="#000000">SimulationDataFormat</text>
<text text-anchor="middle" x="795" y="-197.5" font-family="Helvetica,sans-Serif" font-size="10.00" fill="#000000">/BaseHits.h</text>
</a>
</g>
</g>
<!-- Node6&#45;&gt;Node7 -->
<g id="edge8" class="edge">
<title>Node6&#45;&gt;Node7</title>
<path fill="none" stroke="#191970" d="M939.7864,-262.9005C914.4762,-252.8663 874.109,-236.8627 842.4203,-224.2997"/>
<polygon fill="#191970" stroke="#191970" points="843.4768,-220.9536 832.8907,-220.5218 840.8969,-227.4609 843.4768,-220.9536"/>
</g>
<!-- Node19 -->
<g id="node20" class="node">
<title>Node19</title>
<g id="a_node20"><a xlink:href="../../d0/d91/ShmAllocator_8h.html" target="_top" xlink:title="CommonUtils/ShmAllocator.h">
<polygon fill="none" stroke="#000000" points="515,-196 515,-215 675,-215 675,-196 515,-196"/>
<text text-anchor="middle" x="595" y="-203" font-family="Helvetica,sans-Serif" font-size="10.00" fill="#000000">CommonUtils/ShmAllocator.h</text>
</a>
</g>
</g>
<!-- Node6&#45;&gt;Node19 -->
<g id="edge21" class="edge">
<title>Node6&#45;&gt;Node19</title>
<path fill="none" stroke="#191970" d="M923.8062,-262.9557C914.6842,-260.8962 905.0248,-258.7992 896,-257 852.6118,-248.35 737.8599,-229.0891 663.2377,-216.7295"/>
<polygon fill="#191970" stroke="#191970" points="663.4234,-213.2127 652.9861,-215.0331 662.2806,-220.1188 663.4234,-213.2127"/>
</g>
<!-- Node8 -->
<g id="node9" class="node">
<title>Node8</title>
<g id="a_node9"><a xlink:href="../../dd/d76/Cartesian3D_8h.html" target="_top" xlink:title="MathUtils/Cartesian3D.h">
<polygon fill="none" stroke="#000000" points="870.5,-134.5 870.5,-153.5 1005.5,-153.5 1005.5,-134.5 870.5,-134.5"/>
<text text-anchor="middle" x="938" y="-141.5" font-family="Helvetica,sans-Serif" font-size="10.00" fill="#000000">MathUtils/Cartesian3D.h</text>
</a>
</g>
</g>
<!-- Node7&#45;&gt;Node8 -->
<g id="edge9" class="edge">
<title>Node7&#45;&gt;Node8</title>
<path fill="none" stroke="#191970" d="M829.9817,-190.4554C853.3184,-180.419 883.7498,-167.3314 906.363,-157.6061"/>
<polygon fill="#191970" stroke="#191970" points="908.0364,-160.6965 915.8401,-153.5303 905.2708,-154.2659 908.0364,-160.6965"/>
</g>
<!-- Node8&#45;&gt;Node4 -->
<g id="edge15" class="edge">
<title>Node8&#45;&gt;Node4</title>
<path fill="none" stroke="#191970" d="M870.305,-141.9678C787.8592,-138.235 644.8812,-127.6904 526,-98 523.2166,-97.3049 520.3669,-96.4569 517.5369,-95.5195"/>
<polygon fill="#191970" stroke="#191970" points="518.7112,-92.2223 508.1173,-92.0804 516.3105,-98.7978 518.7112,-92.2223"/>
</g>
<!-- Node9 -->
<g id="node10" class="node">
<title>Node9</title>
<polygon fill="none" stroke="#bfbfbf" points="856,-67.5 856,-97.5 1020,-97.5 1020,-67.5 856,-67.5"/>
<text text-anchor="start" x="864" y="-85.5" font-family="Helvetica,sans-Serif" font-size="10.00" fill="#000000">Math/GenVector/Displacement</text>
<text text-anchor="middle" x="938" y="-74.5" font-family="Helvetica,sans-Serif" font-size="10.00" fill="#000000">Vector3D.h</text>
</g>
<!-- Node8&#45;&gt;Node9 -->
<g id="edge10" class="edge">
<title>Node8&#45;&gt;Node9</title>
<path fill="none" stroke="#191970" d="M938,-134.3906C938,-127.2234 938,-117.0862 938,-107.671"/>
<polygon fill="#191970" stroke="#191970" points="941.5001,-107.5446 938,-97.5446 934.5001,-107.5446 941.5001,-107.5446"/>
</g>
<!-- Node10 -->
<g id="node11" class="node">
<title>Node10</title>
<polygon fill="none" stroke="#bfbfbf" points="1038.5,-73 1038.5,-92 1227.5,-92 1227.5,-73 1038.5,-73"/>
<text text-anchor="middle" x="1133" y="-80" font-family="Helvetica,sans-Serif" font-size="10.00" fill="#000000">Math/GenVector/PositionVector3D.h</text>
</g>
<!-- Node8&#45;&gt;Node10 -->
<g id="edge11" class="edge">
<title>Node8&#45;&gt;Node10</title>
<path fill="none" stroke="#191970" d="M968.4688,-134.3906C1001.9544,-123.8298 1055.8853,-106.8208 1092.812,-95.1747"/>
<polygon fill="#191970" stroke="#191970" points="1094.261,-98.3877 1102.7452,-92.0419 1092.1555,-91.7118 1094.261,-98.3877"/>
</g>
<!-- Node11 -->
<g id="node12" class="node">
<title>Node11</title>
<polygon fill="none" stroke="#bfbfbf" points="1246,-73 1246,-92 1406,-92 1406,-73 1246,-73"/>
<text text-anchor="middle" x="1326" y="-80" font-family="Helvetica,sans-Serif" font-size="10.00" fill="#000000">Math/GenVector/Rotation3D.h</text>
</g>
<!-- Node8&#45;&gt;Node11 -->
<g id="edge12" class="edge">
<title>Node8&#45;&gt;Node11</title>
<path fill="none" stroke="#191970" d="M1002.2166,-134.4958C1062.8043,-125.4398 1156.148,-111.2585 1237,-98 1245.232,-96.6501 1253.8851,-95.192 1262.429,-93.729"/>
<polygon fill="#191970" stroke="#191970" points="1263.1161,-97.1623 1272.3769,-92.0155 1261.9278,-90.2639 1263.1161,-97.1623"/>
</g>
<!-- Node12 -->
<g id="node13" class="node">
<title>Node12</title>
<polygon fill="none" stroke="#bfbfbf" points="1424,-73 1424,-92 1592,-92 1592,-73 1424,-73"/>
<text text-anchor="middle" x="1508" y="-80" font-family="Helvetica,sans-Serif" font-size="10.00" fill="#000000">Math/GenVector/Transform3D.h</text>
</g>
<!-- Node8&#45;&gt;Node12 -->
<g id="edge13" class="edge">
<title>Node8&#45;&gt;Node12</title>
<path fill="none" stroke="#191970" d="M1005.705,-138.9504C1098.3206,-131.7057 1269.6154,-117.1024 1415,-98 1424.5156,-96.7497 1434.5508,-95.2591 1444.3685,-93.7038"/>
<polygon fill="#191970" stroke="#191970" points="1445.1771,-97.1186 1454.49,-92.0669 1444.0595,-90.2084 1445.1771,-97.1186"/>
</g>
<!-- Node13 -->
<g id="node14" class="node">
<title>Node13</title>
<polygon fill="none" stroke="#bfbfbf" points="1610.5,-73 1610.5,-92 1783.5,-92 1783.5,-73 1610.5,-73"/>
<text text-anchor="middle" x="1697" y="-80" font-family="Helvetica,sans-Serif" font-size="10.00" fill="#000000">Math/GenVector/Translation3D.h</text>
</g>
<!-- Node8&#45;&gt;Node13 -->
<g id="edge14" class="edge">
<title>Node8&#45;&gt;Node13</title>
<path fill="none" stroke="#191970" d="M1005.952,-141.3241C1126.2295,-136.1336 1384.3624,-122.9521 1601,-98 1611.4855,-96.7923 1622.5752,-95.25 1633.3486,-93.6086"/>
<polygon fill="#191970" stroke="#191970" points="1634.212,-97.0162 1643.5507,-92.0122 1633.1298,-90.1003 1634.212,-97.0162"/>
</g>
<!-- Node14 -->
<g id="node15" class="node">
<title>Node14</title>
<polygon fill="none" stroke="#bfbfbf" points="535,-73 535,-92 617,-92 617,-73 535,-73"/>
<text text-anchor="middle" x="576" y="-80" font-family="Helvetica,sans-Serif" font-size="10.00" fill="#000000">TGeoMatrix.h</text>
</g>
<!-- Node8&#45;&gt;Node14 -->
<g id="edge16" class="edge">
<title>Node8&#45;&gt;Node14</title>
<path fill="none" stroke="#191970" d="M870.4978,-137.0923C806.9271,-129.8713 709.2892,-116.9308 626,-98 622.0744,-97.1077 618.0103,-96.0602 613.9731,-94.9378"/>
<polygon fill="#191970" stroke="#191970" points="614.6683,-91.4943 604.0875,-92.0394 612.6988,-98.2116 614.6683,-91.4943"/>
</g>
<!-- Node15 -->
<g id="node16" class="node">
<title>Node15</title>
<polygon fill="none" stroke="#bfbfbf" points="635.5,-73 635.5,-92 684.5,-92 684.5,-73 635.5,-73"/>
<text text-anchor="middle" x="660" y="-80" font-family="Helvetica,sans-Serif" font-size="10.00" fill="#000000">iosfwd</text>
</g>
<!-- Node8&#45;&gt;Node15 -->
<g id="edge17" class="edge">
<title>Node8&#45;&gt;Node15</title>
<path fill="none" stroke="#191970" d="M870.3085,-135.9932C820.4659,-128.9726 751.4811,-116.885 693,-98 691.1478,-97.4019 689.2644,-96.7238 687.3841,-95.9936"/>
<polygon fill="#191970" stroke="#191970" points="688.7361,-92.7652 678.1663,-92.0374 685.9752,-99.1978 688.7361,-92.7652"/>
</g>
<!-- Node16 -->
<g id="node17" class="node">
<title>Node16</title>
<g id="a_node17"><a xlink:href="../../d2/dd0/Cartesian2D_8h.html" target="_top" xlink:title="MathUtils/Cartesian2D.h">
<polygon fill="none" stroke="#000000" points="702.5,-73 702.5,-92 837.5,-92 837.5,-73 702.5,-73"/>
<text text-anchor="middle" x="770" y="-80" font-family="Helvetica,sans-Serif" font-size="10.00" fill="#000000">MathUtils/Cartesian2D.h</text>
</a>
</g>
</g>
<!-- Node8&#45;&gt;Node16 -->
<g id="edge18" class="edge">
<title>Node8&#45;&gt;Node16</title>
<path fill="none" stroke="#191970" d="M911.75,-134.3906C883.2707,-123.9652 837.6257,-107.2559 805.8543,-95.6252"/>
<polygon fill="#191970" stroke="#191970" points="806.6594,-92.1929 796.0657,-92.0419 804.2531,-98.7663 806.6594,-92.1929"/>
</g>
<!-- Node17 -->
<g id="node18" class="node">
<title>Node17</title>
<polygon fill="none" stroke="#bfbfbf" points="590,-.5 590,-30.5 754,-30.5 754,-.5 590,-.5"/>
<text text-anchor="start" x="598" y="-18.5" font-family="Helvetica,sans-Serif" font-size="10.00" fill="#000000">Math/GenVector/Displacement</text>
<text text-anchor="middle" x="672" y="-7.5" font-family="Helvetica,sans-Serif" font-size="10.00" fill="#000000">Vector2D.h</text>
</g>
<!-- Node16&#45;&gt;Node17 -->
<g id="edge19" class="edge">
<title>Node16&#45;&gt;Node17</title>
<path fill="none" stroke="#191970" d="M755.959,-72.9005C742.0412,-63.3853 720.272,-48.5023 702.388,-36.2755"/>
<polygon fill="#191970" stroke="#191970" points="704.2026,-33.2763 693.9721,-30.5218 700.2519,-39.0549 704.2026,-33.2763"/>
</g>
<!-- Node18 -->
<g id="node19" class="node">
<title>Node18</title>
<polygon fill="none" stroke="#bfbfbf" points="772.5,-6 772.5,-25 961.5,-25 961.5,-6 772.5,-6"/>
<text text-anchor="middle" x="867" y="-13" font-family="Helvetica,sans-Serif" font-size="10.00" fill="#000000">Math/GenVector/PositionVector2D.h</text>
</g>
<!-- Node16&#45;&gt;Node18 -->
<g id="edge20" class="edge">
<title>Node16&#45;&gt;Node18</title>
<path fill="none" stroke="#191970" d="M783.8977,-72.9005C799.8164,-61.9052 826.1121,-43.7422 844.8599,-30.7927"/>
<polygon fill="#191970" stroke="#191970" points="846.8892,-33.6448 853.128,-25.0817 842.9108,-27.8852 846.8892,-33.6448"/>
</g>
<!-- Node20 -->
<g id="node21" class="node">
<title>Node20</title>
<g id="a_node21"><a xlink:href="../../de/d61/ShmManager_8h.html" target="_top" xlink:title="CommonUtils/ShmManager.h">
<polygon fill="none" stroke="#000000" points="125,-134.5 125,-153.5 283,-153.5 283,-134.5 125,-134.5"/>
<text text-anchor="middle" x="204" y="-141.5" font-family="Helvetica,sans-Serif" font-size="10.00" fill="#000000">CommonUtils/ShmManager.h</text>
</a>
</g>
</g>
<!-- Node19&#45;&gt;Node20 -->
<g id="edge22" class="edge">
<title>Node19&#45;&gt;Node20</title>
<path fill="none" stroke="#191970" d="M534.3353,-195.9581C464.1688,-184.9217 348.8219,-166.7789 274.6666,-155.1151"/>
<polygon fill="#191970" stroke="#191970" points="274.9078,-151.6101 264.4853,-153.5137 273.82,-158.525 274.9078,-151.6101"/>
</g>
<!-- Node25 -->
<g id="node26" class="node">
<title>Node25</title>
<polygon fill="none" stroke="#bfbfbf" points="623,-134.5 623,-153.5 675,-153.5 675,-134.5 623,-134.5"/>
<text text-anchor="middle" x="649" y="-141.5" font-family="Helvetica,sans-Serif" font-size="10.00" fill="#000000">cassert</text>
</g>
<!-- Node19&#45;&gt;Node25 -->
<g id="edge27" class="edge">
<title>Node19&#45;&gt;Node25</title>
<path fill="none" stroke="#191970" d="M603.4375,-195.8906C611.5531,-186.6478 624.0055,-172.466 633.8424,-161.2628"/>
<polygon fill="#191970" stroke="#191970" points="636.4755,-163.5686 640.4435,-153.7449 631.2154,-158.95 636.4755,-163.5686"/>
</g>
<!-- Node21 -->
<g id="node22" class="node">
<title>Node21</title>
<polygon fill="none" stroke="#bfbfbf" points="0,-73 0,-92 32,-92 32,-73 0,-73"/>
<text text-anchor="middle" x="16" y="-80" font-family="Helvetica,sans-Serif" font-size="10.00" fill="#000000">list</text>
</g>
<!-- Node20&#45;&gt;Node21 -->
<g id="edge23" class="edge">
<title>Node20&#45;&gt;Node21</title>
<path fill="none" stroke="#191970" d="M157.1313,-134.449C123.8879,-126.7997 78.6708,-114.5985 41,-98 40.299,-97.6911 39.5943,-97.3652 38.8888,-97.0254"/>
<polygon fill="#191970" stroke="#191970" points="40.3475,-93.8329 29.9004,-92.0692 36.9674,-99.9628 40.3475,-93.8329"/>
</g>
<!-- Node22 -->
<g id="node23" class="node">
<title>Node22</title>
<polygon fill="none" stroke="#bfbfbf" points="50.5,-73 50.5,-92 103.5,-92 103.5,-73 50.5,-73"/>
<text text-anchor="middle" x="77" y="-80" font-family="Helvetica,sans-Serif" font-size="10.00" fill="#000000">cstddef</text>
</g>
<!-- Node20&#45;&gt;Node22 -->
<g id="edge24" class="edge">
<title>Node20&#45;&gt;Node22</title>
<path fill="none" stroke="#191970" d="M184.1563,-134.3906C163.1864,-124.2359 129.9056,-108.1196 105.9964,-96.5416"/>
<polygon fill="#191970" stroke="#191970" points="107.2301,-93.2502 96.7044,-92.0419 104.1792,-99.5504 107.2301,-93.2502"/>
</g>
<!-- Node23 -->
<g id="node24" class="node">
<title>Node23</title>
<polygon fill="none" stroke="#bfbfbf" points="121.5,-67.5 121.5,-97.5 286.5,-97.5 286.5,-67.5 121.5,-67.5"/>
<text text-anchor="start" x="129.5" y="-85.5" font-family="Helvetica,sans-Serif" font-size="10.00" fill="#000000">boost/interprocess</text>
<text text-anchor="middle" x="204" y="-74.5" font-family="Helvetica,sans-Serif" font-size="10.00" fill="#000000">/managed_external_buffer.hpp</text>
</g>
<!-- Node20&#45;&gt;Node23 -->
<g id="edge25" class="edge">
<title>Node20&#45;&gt;Node23</title>
<path fill="none" stroke="#191970" d="M204,-134.3906C204,-127.2234 204,-117.0862 204,-107.671"/>
<polygon fill="#191970" stroke="#191970" points="207.5001,-107.5446 204,-97.5446 200.5001,-107.5446 207.5001,-107.5446"/>
</g>
<!-- Node24 -->
<g id="node25" class="node">
<title>Node24</title>
<polygon fill="none" stroke="#bfbfbf" points="305,-67.5 305,-97.5 439,-97.5 439,-67.5 305,-67.5"/>
<text text-anchor="start" x="313" y="-85.5" font-family="Helvetica,sans-Serif" font-size="10.00" fill="#000000">boost/interprocess</text>
<text text-anchor="middle" x="372" y="-74.5" font-family="Helvetica,sans-Serif" font-size="10.00" fill="#000000">/allocators/allocator.hpp</text>
</g>
<!-- Node20&#45;&gt;Node24 -->
<g id="edge26" class="edge">
<title>Node20&#45;&gt;Node24</title>
<path fill="none" stroke="#191970" d="M230.25,-134.3906C254.5657,-125.4893 291.3947,-112.0073 321.4183,-101.0165"/>
<polygon fill="#191970" stroke="#191970" points="322.7152,-104.269 330.9026,-97.5446 320.3088,-97.6956 322.7152,-104.269"/>
</g>
<!-- Node27 -->
<g id="node28" class="node">
<title>Node27</title>
<g id="a_node28"><a xlink:href="../../d2/d45/GPUCommonRtypes_8h.html" target="_top" xlink:title="GPUCommonRtypes.h">
<polygon fill="none" stroke="#000000" points="333.5,-134.5 333.5,-153.5 458.5,-153.5 458.5,-134.5 333.5,-134.5"/>
<text text-anchor="middle" x="396" y="-141.5" font-family="Helvetica,sans-Serif" font-size="10.00" fill="#000000">GPUCommonRtypes.h</text>
</a>
</g>
</g>
<!-- Node26&#45;&gt;Node27 -->
<g id="edge29" class="edge">
<title>Node26&#45;&gt;Node27</title>
<path fill="none" stroke="#191970" d="M643.2629,-268.2181C594.1824,-262.6888 525.9941,-250.0207 473,-221 446.3125,-206.3853 422.7469,-179.7123 408.9261,-161.9195"/>
<polygon fill="#191970" stroke="#191970" points="411.4292,-159.4247 402.622,-153.5353 405.8343,-163.6315 411.4292,-159.4247"/>
</g>
<!-- Node27&#45;&gt;Node4 -->
<g id="edge30" class="edge">
<title>Node27&#45;&gt;Node4</title>
<path fill="none" stroke="#191970" d="M410.2188,-134.3906C424.6434,-124.6421 447.1976,-109.3994 464.136,-97.9521"/>
<polygon fill="#191970" stroke="#191970" points="466.5556,-100.5412 472.8811,-92.0419 462.6359,-94.7415 466.5556,-100.5412"/>
</g>
<!-- Node28&#45;&gt;Node25 -->
<g id="edge34" class="edge">
<title>Node28&#45;&gt;Node25</title>
<path fill="none" stroke="#191970" d="M1041.3648,-258.6234C1038.2032,-258.0486 1035.0685,-257.5034 1032,-257 895.5615,-234.6173 846.852,-282.4584 723,-221 708.7678,-213.9376 680.4249,-181.8199 663.2439,-161.3602"/>
<polygon fill="#191970" stroke="#191970" points="665.9289,-159.115 656.8442,-153.6635 660.5465,-163.5905 665.9289,-159.115"/>
</g>
<!-- Node29 -->
<g id="node30" class="node">
<title>Node29</title>
<polygon fill="none" stroke="#bfbfbf" points="1032.5,-196 1032.5,-215 1099.5,-215 1099.5,-196 1032.5,-196"/>
<text text-anchor="middle" x="1066" y="-203" font-family="Helvetica,sans-Serif" font-size="10.00" fill="#000000">TNamed.h</text>
</g>
<!-- Node28&#45;&gt;Node29 -->
<g id="edge32" class="edge">
<title>Node28&#45;&gt;Node29</title>
<path fill="none" stroke="#191970" d="M1096.1503,-257.2967C1090.3689,-247.3645 1082.7858,-234.3371 1076.6709,-223.8321"/>
<polygon fill="#191970" stroke="#191970" points="1079.6175,-221.9367 1071.5618,-215.055 1073.5677,-225.4582 1079.6175,-221.9367"/>
</g>
<!-- Node30 -->
<g id="node31" class="node">
<title>Node30</title>
<polygon fill="none" stroke="#bfbfbf" points="1118,-196 1118,-215 1168,-215 1168,-196 1118,-196"/>
<text text-anchor="middle" x="1143" y="-203" font-family="Helvetica,sans-Serif" font-size="10.00" fill="#000000">cstdint</text>
</g>
<!-- Node28&#45;&gt;Node30 -->
<g id="edge33" class="edge">
<title>Node28&#45;&gt;Node30</title>
<path fill="none" stroke="#191970" d="M1113.6228,-257.2967C1119.256,-247.3645 1126.6447,-234.3371 1132.6027,-223.8321"/>
<polygon fill="#191970" stroke="#191970" points="1135.6917,-225.4801 1137.5808,-215.055 1129.6029,-222.0266 1135.6917,-225.4801"/>
</g>
<!-- Node31 -->
<g id="node32" class="node">
<title>Node31</title>
<polygon fill="none" stroke="#bfbfbf" points="1355.5,-196 1355.5,-215 1420.5,-215 1420.5,-196 1355.5,-196"/>
<text text-anchor="middle" x="1388" y="-203" font-family="Helvetica,sans-Serif" font-size="10.00" fill="#000000">stdexcept</text>
</g>
<!-- Node28&#45;&gt;Node31 -->
<g id="edge35" class="edge">
<title>Node28&#45;&gt;Node31</title>
<path fill="none" stroke="#191970" d="M1168.5269,-259.0109C1239.8601,-243.8599 1345.9068,-221.3209 1347,-221 1349.5806,-220.2424 1352.2302,-219.3985 1354.8805,-218.5066"/>
<polygon fill="#191970" stroke="#191970" points="1356.1107,-221.7839 1364.3595,-215.135 1353.7648,-215.1887 1356.1107,-221.7839"/>
</g>
<!-- Node32 -->
<g id="node33" class="node">
<title>Node32</title>
<polygon fill="none" stroke="#bfbfbf" points="1186,-196 1186,-215 1234,-215 1234,-196 1186,-196"/>
<text text-anchor="middle" x="1210" y="-203" font-family="Helvetica,sans-Serif" font-size="10.00" fill="#000000">gsl/gsl</text>
</g>
<!-- Node28&#45;&gt;Node32 -->
<g id="edge36" class="edge">
<title>Node28&#45;&gt;Node32</title>
<path fill="none" stroke="#191970" d="M1128.564,-257.4639C1145.7056,-246.526 1168.8321,-231.769 1186.0602,-220.7759"/>
<polygon fill="#191970" stroke="#191970" points="1188.4018,-223.4336 1194.9491,-215.1039 1184.6364,-217.5326 1188.4018,-223.4336"/>
</g>
<!-- Node33 -->
<g id="node34" class="node">
<title>Node33</title>
<polygon fill="none" stroke="#bfbfbf" points="876.5,-196 876.5,-215 945.5,-215 945.5,-196 876.5,-196"/>
<text text-anchor="middle" x="911" y="-203" font-family="Helvetica,sans-Serif" font-size="10.00" fill="#000000">type_traits</text>
</g>
<!-- Node28&#45;&gt;Node33 -->
<g id="edge37" class="edge">
<title>Node28&#45;&gt;Node33</title>
<path fill="none" stroke="#191970" d="M1060.9926,-257.4939C1031.0817,-247.2692 990.628,-233.3913 955,-221 952.5904,-220.1619 950.1076,-219.2955 947.6061,-218.4202"/>
<polygon fill="#191970" stroke="#191970" points="948.5754,-215.0512 937.9805,-215.0427 946.2576,-221.6563 948.5754,-215.0512"/>
</g>
<!-- Node34 -->
<g id="node35" class="node">
<title>Node34</title>
<polygon fill="none" stroke="#bfbfbf" points="964,-196 964,-215 1014,-215 1014,-196 964,-196"/>
<text text-anchor="middle" x="989" y="-203" font-family="Helvetica,sans-Serif" font-size="10.00" fill="#000000">cstring</text>
</g>
<!-- Node28&#45;&gt;Node34 -->
<g id="edge38" class="edge">
<title>Node28&#45;&gt;Node34</title>
<path fill="none" stroke="#191970" d="M1078.9673,-257.4639C1059.6794,-246.3234 1033.5322,-231.2212 1014.3972,-220.1691"/>
<polygon fill="#191970" stroke="#191970" points="1016.0376,-217.0747 1005.6277,-215.1039 1012.5365,-223.1363 1016.0376,-217.0747"/>
</g>
<!-- Node35 -->
<g id="node36" class="node">
<title>Node35</title>
<polygon fill="none" stroke="#bfbfbf" points="1439,-196 1439,-215 1497,-215 1497,-196 1439,-196"/>
<text text-anchor="middle" x="1468" y="-203" font-family="Helvetica,sans-Serif" font-size="10.00" fill="#000000">memory</text>
</g>
<!-- Node28&#45;&gt;Node35 -->
<g id="edge39" class="edge">
<title>Node28&#45;&gt;Node35</title>
<path fill="none" stroke="#191970" d="M1168.6519,-258.7213C1171.8091,-258.1206 1174.9383,-257.5431 1178,-257 1289.3981,-237.2396 1320.8003,-250.5875 1430,-221 1432.4671,-220.3315 1434.989,-219.546 1437.5019,-218.6894"/>
<polygon fill="#191970" stroke="#191970" points="1438.8748,-221.9128 1447.0141,-215.1303 1436.4217,-215.3567 1438.8748,-221.9128"/>
</g>
<!-- Node36 -->
<g id="node37" class="node">
<title>Node36</title>
<polygon fill="none" stroke="#bfbfbf" points="1290.5,-196 1290.5,-215 1337.5,-215 1337.5,-196 1290.5,-196"/>
<text text-anchor="middle" x="1314" y="-203" font-family="Helvetica,sans-Serif" font-size="10.00" fill="#000000">vector</text>
</g>
<!-- Node28&#45;&gt;Node36 -->
<g id="edge40" class="edge">
<title>Node28&#45;&gt;Node36</title>
<path fill="none" stroke="#191970" d="M1151.9037,-257.4639C1191.0091,-244.9277 1245.7635,-227.3749 1280.5551,-216.2216"/>
<polygon fill="#191970" stroke="#191970" points="1281.7862,-219.5024 1290.2404,-213.1167 1279.6493,-212.8366 1281.7862,-219.5024"/>
</g>
<!-- Node37&#45;&gt;Node8 -->
<g id="edge45" class="edge">
<title>Node37&#45;&gt;Node8</title>
<path fill="none" stroke="#191970" d="M1262.9308,-262.9342C1264.0357,-245.6107 1263.5967,-209.0752 1243,-190 1226.5297,-174.7463 1100.7777,-159.7394 1015.9726,-151.2005"/>
<polygon fill="#191970" stroke="#191970" points="1016.1413,-147.7 1005.8436,-150.1916 1015.4474,-154.6656 1016.1413,-147.7"/>
</g>
<!-- Node37&#45;&gt;Node36 -->
<g id="edge43" class="edge">
<title>Node37&#45;&gt;Node36</title>
<path fill="none" stroke="#191970" d="M1269.4503,-262.9005C1277.4821,-252.552 1290.4415,-235.8542 1300.3174,-223.1295"/>
<polygon fill="#191970" stroke="#191970" points="1303.1972,-225.1275 1306.5635,-215.0817 1297.6672,-220.8356 1303.1972,-225.1275"/>
</g>
<!-- Node38 -->
<g id="node39" class="node">
<title>Node38</title>
<polygon fill="none" stroke="#bfbfbf" points="1515,-196 1515,-215 1575,-215 1575,-196 1515,-196"/>
<text text-anchor="middle" x="1545" y="-203" font-family="Helvetica,sans-Serif" font-size="10.00" fill="#000000">iostream</text>
</g>
<!-- Node37&#45;&gt;Node38 -->
<g id="edge44" class="edge">
<title>Node37&#45;&gt;Node38</title>
<path fill="none" stroke="#191970" d="M1312.0583,-262.9796C1372.4626,-251.3088 1470.3553,-231.7594 1506,-221 1508.4413,-220.2631 1510.944,-219.438 1513.4458,-218.5625"/>
<polygon fill="#191970" stroke="#191970" points="1514.8102,-221.7892 1522.9578,-215.0167 1512.3651,-215.2301 1514.8102,-221.7892"/>
</g>
<!-- Node39&#45;&gt;Node38 -->
<g id="edge47" class="edge">
<title>Node39&#45;&gt;Node38</title>
<path fill="none" stroke="#191970" d="M1583.3753,-329.8011C1596.1469,-320.7507 1613.408,-305.963 1621,-288 1626.3637,-275.3092 1627.4552,-269.172 1621,-257 1612.1358,-240.2856 1595.1517,-227.999 1579.4837,-219.6276"/>
<polygon fill="#191970" stroke="#191970" points="1580.9941,-216.4697 1570.4821,-215.1471 1577.8749,-222.7364 1580.9941,-216.4697"/>
</g>
<!-- Node41 -->
<g id="node42" class="node">
<title>Node41</title>
<g id="a_node42"><a xlink:href="../../df/db6/CathodeSegmentation_8h.html" target="_top" xlink:title="MCHMappingInterface\l/CathodeSegmentation.h">
<polygon fill="none" stroke="#000000" points="1474.5,-257.5 1474.5,-287.5 1611.5,-287.5 1611.5,-257.5 1474.5,-257.5"/>
<text text-anchor="start" x="1482.5" y="-275.5" font-family="Helvetica,sans-Serif" font-size="10.00" fill="#000000">MCHMappingInterface</text>
<text text-anchor="middle" x="1543" y="-264.5" font-family="Helvetica,sans-Serif" font-size="10.00" fill="#000000">/CathodeSegmentation.h</text>
</a>
</g>
</g>
<!-- Node40&#45;&gt;Node41 -->
<g id="edge49" class="edge">
<title>Node40&#45;&gt;Node41</title>
<path fill="none" stroke="#191970" d="M1433.6432,-324.4639C1453.7299,-314.9191 1479.9367,-302.4663 1501.6597,-292.144"/>
<polygon fill="#191970" stroke="#191970" points="1503.4446,-295.1709 1510.9746,-287.7177 1500.4403,-288.8484 1503.4446,-295.1709"/>
</g>
<!-- Node45 -->
<g id="node46" class="node">
<title>Node45</title>
<g id="a_node46"><a xlink:href="../../d0/d5f/Segmentation_8inl.html" target="_top" xlink:title="Segmentation.inl">
<polygon fill="none" stroke="#000000" points="1356,-263 1356,-282 1456,-282 1456,-263 1356,-263"/>
<text text-anchor="middle" x="1406" y="-270" font-family="Helvetica,sans-Serif" font-size="10.00" fill="#000000">Segmentation.inl</text>
</a>
</g>
</g>
<!-- Node40&#45;&gt;Node45 -->
<g id="edge57" class="edge">
<title>Node40&#45;&gt;Node45</title>
<path fill="none" stroke="#191970" d="M1402.9077,-324.2967C1403.4764,-314.7699 1404.2152,-302.3954 1404.828,-292.1306"/>
<polygon fill="#191970" stroke="#191970" points="1408.3273,-292.2458 1405.4296,-282.055 1401.3397,-291.8286 1408.3273,-292.2458"/>
</g>
<!-- Node41&#45;&gt;Node31 -->
<g id="edge51" class="edge">
<title>Node41&#45;&gt;Node31</title>
<path fill="none" stroke="#191970" d="M1508.215,-257.4639C1481.6222,-245.969 1445.2716,-230.2561 1419.5243,-219.1266"/>
<polygon fill="#191970" stroke="#191970" points="1420.7859,-215.859 1410.218,-215.1039 1418.0084,-222.2844 1420.7859,-215.859"/>
</g>
<!-- Node41&#45;&gt;Node35 -->
<g id="edge52" class="edge">
<title>Node41&#45;&gt;Node35</title>
<path fill="none" stroke="#191970" d="M1525.9813,-257.2967C1514.1825,-246.7564 1498.4816,-232.7303 1486.3943,-221.9323"/>
<polygon fill="#191970" stroke="#191970" points="1488.4853,-219.107 1478.6959,-215.055 1483.8217,-224.3273 1488.4853,-219.107"/>
</g>
<!-- Node41&#45;&gt;Node36 -->
<g id="edge54" class="edge">
<title>Node41&#45;&gt;Node36</title>
<path fill="none" stroke="#191970" d="M1474.4876,-257.7352C1436.4225,-248.7298 1388.5072,-236.0587 1347,-221 1345.4046,-220.4212 1343.7814,-219.7936 1342.1537,-219.1338"/>
<polygon fill="#191970" stroke="#191970" points="1343.5102,-215.9071 1332.9448,-215.1179 1340.7121,-222.3235 1343.5102,-215.9071"/>
</g>
<!-- Node41&#45;&gt;Node38 -->
<g id="edge53" class="edge">
<title>Node41&#45;&gt;Node38</title>
<path fill="none" stroke="#191970" d="M1543.4538,-257.2967C1543.7382,-247.7699 1544.1076,-235.3954 1544.414,-225.1306"/>
<polygon fill="#191970" stroke="#191970" points="1547.9147,-225.155 1544.7148,-215.055 1540.9179,-224.9461 1547.9147,-225.155"/>
</g>
<!-- Node42 -->
<g id="node43" class="node">
<title>Node42</title>
<g id="a_node43"><a xlink:href="../../d0/dc7/CathodeSegmentationCInterface_8h.html" target="_top" xlink:title="CathodeSegmentationCInterface.h">
<polygon fill="none" stroke="#000000" points="1593.5,-196 1593.5,-215 1778.5,-215 1778.5,-196 1593.5,-196"/>
<text text-anchor="middle" x="1686" y="-203" font-family="Helvetica,sans-Serif" font-size="10.00" fill="#000000">CathodeSegmentationCInterface.h</text>
</a>
</g>
</g>
<!-- Node41&#45;&gt;Node42 -->
<g id="edge50" class="edge">
<title>Node41&#45;&gt;Node42</title>
<path fill="none" stroke="#191970" d="M1575.092,-257.4639C1599.4098,-246.0702 1632.5721,-230.5327 1656.2862,-219.4219"/>
<polygon fill="#191970" stroke="#191970" points="1657.9317,-222.5161 1665.5021,-215.1039 1654.9618,-216.1773 1657.9317,-222.5161"/>
</g>
<!-- Node41&#45;&gt;Node43 -->
<g id="edge55" class="edge">
<title>Node41&#45;&gt;Node43</title>
<path fill="none" stroke="#191970" d="M1611.5254,-263.7971C1678.1373,-254.854 1781.9982,-239.6283 1871,-221 1875.9903,-219.9555 1881.1901,-218.7558 1886.3442,-217.496"/>
<polygon fill="#191970" stroke="#191970" points="1887.2934,-220.8663 1896.1323,-215.0247 1885.5797,-214.0793 1887.2934,-220.8663"/>
</g>
<!-- Node44 -->
<g id="node45" class="node">
<title>Node44</title>
<polygon fill="none" stroke="#bfbfbf" points="1796.5,-196 1796.5,-215 1861.5,-215 1861.5,-196 1796.5,-196"/>
<text text-anchor="middle" x="1829" y="-203" font-family="Helvetica,sans-Serif" font-size="10.00" fill="#000000">functional</text>
</g>
<!-- Node41&#45;&gt;Node44 -->
<g id="edge56" class="edge">
<title>Node41&#45;&gt;Node44</title>
<path fill="none" stroke="#191970" d="M1611.5539,-261.0183C1661.0692,-252.0182 1729.28,-238.1598 1788,-221 1790.5816,-220.2456 1793.2318,-219.404 1795.8826,-218.5138"/>
<polygon fill="#191970" stroke="#191970" points="1797.1116,-221.7916 1805.3625,-215.1453 1794.7678,-215.1956 1797.1116,-221.7916"/>
</g>
</g>
</svg>
        <g id="navigator" transform="translate(0 0)" fill="#404254">
                <rect fill="#f2f5e9" fill-opacity="0.5" stroke="#606060" stroke-width=".5" x="0" y="0" width="60" height="60"/>
                <use id="zoomplus" xlink:href="#zoomPlus" x="17" y="9" onmousedown="handleZoom(evt,'in')"/>
                <use id="zoomminus" xlink:href="#zoomMin" x="42" y="9" onmousedown="handleZoom(evt,'out')"/>
                <use id="reset" xlink:href="#resetDef" x="30" y="36" onmousedown="handleReset()"/>
                <g id="arrowUp" xlink:href="#dirArrow" transform="translate(30 24)" onmousedown="handlePan(0,-1)">
                  <use xlink:href="#rim" fill="#404040">
                        <set attributeName="fill" to="#808080" begin="arrowUp.mouseover" end="arrowUp.mouseout"/>
                  </use>
                  <path fill="none" stroke="white" stroke-width="1.5" d="M0,-3.0v7 M-2.5,-0.5L0,-3.0L2.5,-0.5"/>
                </g>
                <g id="arrowRight" xlink:href="#dirArrow" transform="rotate(90) translate(36 -43)" onmousedown="handlePan(1,0)">
                  <use xlink:href="#rim" fill="#404040">
                        <set attributeName="fill" to="#808080" begin="arrowRight.mouseover" end="arrowRight.mouseout"/>
                  </use>
                  <path fill="none" stroke="white" stroke-width="1.5" d="M0,-3.0v7 M-2.5,-0.5L0,-3.0L2.5,-0.5"/>
                </g>
                <g id="arrowDown" xlink:href="#dirArrow" transform="rotate(180) translate(-30 -48)" onmousedown="handlePan(0,1)">
                  <use xlink:href="#rim" fill="#404040">
                        <set attributeName="fill" to="#808080" begin="arrowDown.mouseover" end="arrowDown.mouseout"/>
                  </use>
                  <path fill="none" stroke="white" stroke-width="1.5" d="M0,-3.0v7 M-2.5,-0.5L0,-3.0L2.5,-0.5"/>
                </g>
                <g id="arrowLeft" xlink:href="#dirArrow" transform="rotate(270) translate(-36 17)" onmousedown="handlePan(-1,0)">
                  <use xlink:href="#rim" fill="#404040">
                        <set attributeName="fill" to="#808080" begin="arrowLeft.mouseover" end="arrowLeft.mouseout"/>
                  </use>
                  <path fill="none" stroke="white" stroke-width="1.5" d="M0,-3.0v7 M-2.5,-0.5L0,-3.0L2.5,-0.5"/>
                </g>
        </g>
        <svg viewBox="0 0 15 15" width="100%" height="30px" preserveAspectRatio="xMaxYMin meet">
         <g id="arrow_out" transform="scale(0.3 0.3)">
          <a xlink:href="testDigitization_8cxx__incl_org.svg" target="_base">
           <rect id="button" ry="5" rx="5" y="6" x="6" height="38" width="38"
                fill="#f2f5e9" fill-opacity="0.5" stroke="#606060" stroke-width="1.0"/>
           <path id="arrow"
             d="M 11.500037,31.436501 C 11.940474,20.09759 22.043105,11.32322 32.158766,21.979434 L 37.068811,17.246167 C 37.068811,17.246167 37.088388,32 37.088388,32 L 22.160133,31.978069 C 22.160133,31.978069 26.997745,27.140456 26.997745,27.140456 C 18.528582,18.264221 13.291696,25.230495 11.500037,31.436501 z"
             style="fill:#404040;"/>
          </a>
         </g>
        </svg>
</svg>
