<?xml version="1.0" encoding="UTF-8" standalone="no"?>
<!DOCTYPE svg PUBLIC "-//W3C//DTD SVG 1.1//EN"
 "http://www.w3.org/Graphics/SVG/1.1/DTD/svg11.dtd">
<!-- Generated by graphviz version 2.40.1 (20161225.0304)
 -->
<!-- Title: /home/travis/build/AliceO2Group/AliceO2/Detectors/Raw/include/DetectorsRaw/RawFileReader.h Pages: 1 -->
<svg width="1430pt" height="240pt"
 viewBox="0.00 0.00 1429.50 240.00" xmlns="http://www.w3.org/2000/svg" xmlns:xlink="http://www.w3.org/1999/xlink">
<g id="graph0" class="graph" transform="scale(1 1) rotate(0) translate(4 236)">
<title>/home/travis/build/AliceO2Group/AliceO2/Detectors/Raw/include/DetectorsRaw/RawFileReader.h</title>
<!-- Node0 -->
<g id="node1" class="node">
<title>Node0</title>
<polygon fill="#bfbfbf" stroke="#000000" points="248,-179.5 248,-231.5 418,-231.5 418,-179.5 248,-179.5"/>
<text text-anchor="start" x="256" y="-219.5" font-family="Helvetica,sans-Serif" font-size="10.00" fill="#000000">/home/travis/build</text>
<text text-anchor="start" x="256" y="-208.5" font-family="Helvetica,sans-Serif" font-size="10.00" fill="#000000">/AliceO2Group/AliceO2</text>
<text text-anchor="start" x="256" y="-197.5" font-family="Helvetica,sans-Serif" font-size="10.00" fill="#000000">/Detectors/Raw/include</text>
<text text-anchor="middle" x="333" y="-186.5" font-family="Helvetica,sans-Serif" font-size="10.00" fill="#000000">/DetectorsRaw/RawFileReader.h</text>
</g>
<!-- Node1 -->
<g id="node2" class="node">
<title>Node1</title>
<polygon fill="none" stroke="#bfbfbf" points="0,-123.5 0,-142.5 46,-142.5 46,-123.5 0,-123.5"/>
<text text-anchor="middle" x="23" y="-130.5" font-family="Helvetica,sans-Serif" font-size="10.00" fill="#000000">cstdio</text>
</g>
<!-- Node0&#45;&gt;Node1 -->
<g id="edge1" class="edge">
<title>Node0&#45;&gt;Node1</title>
<path fill="none" stroke="#191970" d="M247.6979,-188.2096C194.9468,-177.0743 125.6959,-161.6617 55.8624,-143.0793"/>
<polygon fill="#191970" stroke="#191970" points="56.5717,-139.6459 46.0063,-140.4363 54.7585,-146.407 56.5717,-139.6459"/>
</g>
<!-- Node2 -->
<g id="node3" class="node">
<title>Node2</title>
<polygon fill="none" stroke="#bfbfbf" points="64.5,-123.5 64.5,-142.5 157.5,-142.5 157.5,-123.5 64.5,-123.5"/>
<text text-anchor="middle" x="111" y="-130.5" font-family="Helvetica,sans-Serif" font-size="10.00" fill="#000000">unordered_map</text>
</g>
<!-- Node0&#45;&gt;Node2 -->
<g id="edge2" class="edge">
<title>Node0&#45;&gt;Node2</title>
<path fill="none" stroke="#191970" d="M253.1665,-179.4283C218.0284,-167.953 178.356,-154.9969 149.8663,-145.6928"/>
<polygon fill="#191970" stroke="#191970" points="150.8738,-142.34 140.2813,-142.5626 148.7006,-148.9941 150.8738,-142.34"/>
</g>
<!-- Node3 -->
<g id="node4" class="node">
<title>Node3</title>
<polygon fill="none" stroke="#bfbfbf" points="176,-123.5 176,-142.5 214,-142.5 214,-123.5 176,-123.5"/>
<text text-anchor="middle" x="195" y="-130.5" font-family="Helvetica,sans-Serif" font-size="10.00" fill="#000000">map</text>
</g>
<!-- Node0&#45;&gt;Node3 -->
<g id="edge3" class="edge">
<title>Node0&#45;&gt;Node3</title>
<path fill="none" stroke="#191970" d="M283.1788,-179.3258C262.5943,-168.5115 239.5361,-156.3976 222.1627,-147.2703"/>
<polygon fill="#191970" stroke="#191970" points="223.628,-144.0865 213.1475,-142.534 220.3723,-150.2833 223.628,-144.0865"/>
</g>
<!-- Node4 -->
<g id="node5" class="node">
<title>Node4</title>
<polygon fill="none" stroke="#bfbfbf" points="232.5,-123.5 232.5,-142.5 279.5,-142.5 279.5,-123.5 232.5,-123.5"/>
<text text-anchor="middle" x="256" y="-130.5" font-family="Helvetica,sans-Serif" font-size="10.00" fill="#000000">vector</text>
</g>
<!-- Node0&#45;&gt;Node4 -->
<g id="edge4" class="edge">
<title>Node0&#45;&gt;Node4</title>
<path fill="none" stroke="#191970" d="M305.2012,-179.3258C294.6728,-169.4127 282.9846,-158.4075 273.6429,-149.6118"/>
<polygon fill="#191970" stroke="#191970" points="275.8057,-146.8409 266.1258,-142.534 271.0071,-151.9374 275.8057,-146.8409"/>
</g>
<!-- Node5 -->
<g id="node6" class="node">
<title>Node5</title>
<polygon fill="none" stroke="#bfbfbf" points="34,-62 34,-81 78,-81 78,-62 34,-62"/>
<text text-anchor="middle" x="56" y="-69" font-family="Helvetica,sans-Serif" font-size="10.00" fill="#000000">string</text>
</g>
<!-- Node0&#45;&gt;Node5 -->
<g id="edge5" class="edge">
<title>Node0&#45;&gt;Node5</title>
<path fill="none" stroke="#191970" d="M325.5015,-179.4395C318.7522,-160.7821 306.9292,-136.6381 288,-123 214.366,-69.9484 173.1353,-115.586 87,-87 85.3902,-86.4658 83.7591,-85.8613 82.1309,-85.2084"/>
<polygon fill="#191970" stroke="#191970" points="83.5604,-82.0137 73.0056,-81.0939 80.6831,-88.395 83.5604,-82.0137"/>
</g>
<!-- Node6 -->
<g id="node7" class="node">
<title>Node6</title>
<polygon fill="none" stroke="#bfbfbf" points="336.5,-123.5 336.5,-142.5 381.5,-142.5 381.5,-123.5 336.5,-123.5"/>
<text text-anchor="middle" x="359" y="-130.5" font-family="Helvetica,sans-Serif" font-size="10.00" fill="#000000">utility</text>
</g>
<!-- Node0&#45;&gt;Node6 -->
<g id="edge6" class="edge">
<title>Node0&#45;&gt;Node6</title>
<path fill="none" stroke="#191970" d="M342.3866,-179.3258C345.6185,-170.3139 349.174,-160.3995 352.1636,-152.063"/>
<polygon fill="#191970" stroke="#191970" points="355.4997,-153.1285 355.5809,-142.534 348.9106,-150.7655 355.4997,-153.1285"/>
</g>
<!-- Node7 -->
<g id="node8" class="node">
<title>Node7</title>
<polygon fill="none" stroke="#bfbfbf" points="1362.5,-.5 1362.5,-19.5 1421.5,-19.5 1421.5,-.5 1362.5,-.5"/>
<text text-anchor="middle" x="1392" y="-7.5" font-family="Helvetica,sans-Serif" font-size="10.00" fill="#000000">Rtypes.h</text>
</g>
<!-- Node0&#45;&gt;Node7 -->
<g id="edge7" class="edge">
<title>Node0&#45;&gt;Node7</title>
<path fill="none" stroke="#191970" d="M418.0242,-203.3634C565.3033,-198.6676 877.0581,-184.3382 1137,-143 1241.3294,-126.4086 1290.938,-159.2589 1368,-87 1383.7525,-72.2293 1389.2356,-47.3111 1391.1055,-29.8318"/>
<polygon fill="#191970" stroke="#191970" points="1394.6151,-29.8378 1391.8842,-19.601 1387.6353,-29.3065 1394.6151,-29.8378"/>
</g>
<!-- Node8 -->
<g id="node9" class="node">
<title>Node8</title>
<g id="a_node9"><a xlink:href="../../d4/d78/DataFormats_2Headers_2include_2Headers_2RAWDataHeader_8h.html" target="_top" xlink:title="Headers/RAWDataHeader.h">
<polygon fill="none" stroke="#000000" points="811.5,-62 811.5,-81 960.5,-81 960.5,-62 811.5,-62"/>
<text text-anchor="middle" x="886" y="-69" font-family="Helvetica,sans-Serif" font-size="10.00" fill="#000000">Headers/RAWDataHeader.h</text>
</a>
</g>
</g>
<!-- Node0&#45;&gt;Node8 -->
<g id="edge8" class="edge">
<title>Node0&#45;&gt;Node8</title>
<path fill="none" stroke="#191970" d="M418.1943,-184.8562C535.4144,-156.452 742.6088,-106.2458 836.8593,-83.4075"/>
<polygon fill="#191970" stroke="#191970" points="837.8078,-86.779 846.7023,-81.0224 836.1593,-79.9759 837.8078,-86.779"/>
</g>
<!-- Node10 -->
<g id="node11" class="node">
<title>Node10</title>
<g id="a_node11"><a xlink:href="../../dc/dcd/DataHeader_8h.html" target="_top" xlink:title="Headers/DataHeader.h">
<polygon fill="none" stroke="#000000" points="399.5,-123.5 399.5,-142.5 526.5,-142.5 526.5,-123.5 399.5,-123.5"/>
<text text-anchor="middle" x="463" y="-130.5" font-family="Helvetica,sans-Serif" font-size="10.00" fill="#000000">Headers/DataHeader.h</text>
</a>
</g>
</g>
<!-- Node0&#45;&gt;Node10 -->
<g id="edge10" class="edge">
<title>Node0&#45;&gt;Node10</title>
<path fill="none" stroke="#191970" d="M379.933,-179.3258C399.1446,-168.6116 420.6437,-156.6218 436.956,-147.5246"/>
<polygon fill="#191970" stroke="#191970" points="438.8757,-150.4615 445.9045,-142.534 435.4661,-144.348 438.8757,-150.4615"/>
</g>
<!-- Node19 -->
<g id="node20" class="node">
<title>Node19</title>
<g id="a_node20"><a xlink:href="../../d1/dec/HBFUtils_8h.html" target="_top" xlink:title="DetectorsRaw/HBFUtils.h">
<polygon fill="none" stroke="#000000" points="989.5,-123.5 989.5,-142.5 1128.5,-142.5 1128.5,-123.5 989.5,-123.5"/>
<text text-anchor="middle" x="1059" y="-130.5" font-family="Helvetica,sans-Serif" font-size="10.00" fill="#000000">DetectorsRaw/HBFUtils.h</text>
</a>
</g>
</g>
<!-- Node0&#45;&gt;Node19 -->
<g id="edge21" class="edge">
<title>Node0&#45;&gt;Node19</title>
<path fill="none" stroke="#191970" d="M418.059,-197.0058C559.6112,-182.8701 841.5547,-154.7146 979.4009,-140.9489"/>
<polygon fill="#191970" stroke="#191970" points="979.8718,-144.4194 989.4745,-139.943 979.1762,-137.4541 979.8718,-144.4194"/>
</g>
<!-- Node9 -->
<g id="node10" class="node">
<title>Node9</title>
<polygon fill="none" stroke="#bfbfbf" points="910,-.5 910,-19.5 960,-19.5 960,-.5 910,-.5"/>
<text text-anchor="middle" x="935" y="-7.5" font-family="Helvetica,sans-Serif" font-size="10.00" fill="#000000">cstdint</text>
</g>
<!-- Node8&#45;&gt;Node9 -->
<g id="edge9" class="edge">
<title>Node8&#45;&gt;Node9</title>
<path fill="none" stroke="#191970" d="M893.6563,-61.8906C900.9489,-52.7376 912.1007,-38.7409 920.9852,-27.59"/>
<polygon fill="#191970" stroke="#191970" points="923.7417,-29.747 927.2358,-19.7449 918.267,-25.3849 923.7417,-29.747"/>
</g>
<!-- Node10&#45;&gt;Node5 -->
<g id="edge17" class="edge">
<title>Node10&#45;&gt;Node5</title>
<path fill="none" stroke="#191970" d="M399.3076,-124.2068C396.1612,-123.7938 393.0453,-123.3895 390,-123 255.4818,-105.7966 216.9141,-125.9028 87,-87 85.3356,-86.5016 83.6522,-85.9184 81.9754,-85.2759"/>
<polygon fill="#191970" stroke="#191970" points="83.1803,-81.9815 72.6201,-81.1251 80.3413,-88.38 83.1803,-81.9815"/>
</g>
<!-- Node10&#45;&gt;Node9 -->
<g id="edge11" class="edge">
<title>Node10&#45;&gt;Node9</title>
<path fill="none" stroke="#191970" d="M526.5227,-127.2546C601.9161,-119.7495 722.6321,-105.3732 764,-87 783.9196,-78.1529 782.9633,-66.6144 802,-56 833.2213,-38.5918 872.1977,-26.0567 899.867,-18.5106"/>
<polygon fill="#191970" stroke="#191970" points="901.1053,-21.8035 909.8781,-15.863 899.3156,-15.0362 901.1053,-21.8035"/>
</g>
<!-- Node11 -->
<g id="node12" class="node">
<title>Node11</title>
<polygon fill="none" stroke="#bfbfbf" points="96,-62 96,-81 154,-81 154,-62 96,-62"/>
<text text-anchor="middle" x="125" y="-69" font-family="Helvetica,sans-Serif" font-size="10.00" fill="#000000">memory</text>
</g>
<!-- Node10&#45;&gt;Node11 -->
<g id="edge12" class="edge">
<title>Node10&#45;&gt;Node11</title>
<path fill="none" stroke="#191970" d="M399.2733,-124.0424C318.0061,-112.493 185.2828,-93.1602 163,-87 160.5363,-86.3189 158.0169,-85.5243 155.5058,-84.6614"/>
<polygon fill="#191970" stroke="#191970" points="156.589,-81.3296 145.9968,-81.0903 154.1279,-87.8827 156.589,-81.3296"/>
</g>
<!-- Node12 -->
<g id="node13" class="node">
<title>Node12</title>
<polygon fill="none" stroke="#bfbfbf" points="172,-62 172,-81 224,-81 224,-62 172,-62"/>
<text text-anchor="middle" x="198" y="-69" font-family="Helvetica,sans-Serif" font-size="10.00" fill="#000000">cassert</text>
</g>
<!-- Node10&#45;&gt;Node12 -->
<g id="edge13" class="edge">
<title>Node10&#45;&gt;Node12</title>
<path fill="none" stroke="#191970" d="M399.088,-124.0802C352.3998,-116.6374 287.924,-104.4211 233,-87 231.0996,-86.3972 229.164,-85.7229 227.2275,-85.002"/>
<polygon fill="#191970" stroke="#191970" points="228.2784,-81.651 217.6965,-81.1258 225.6412,-88.1353 228.2784,-81.651"/>
</g>
<!-- Node13 -->
<g id="node14" class="node">
<title>Node13</title>
<polygon fill="none" stroke="#bfbfbf" points="242,-62 242,-81 292,-81 292,-62 242,-62"/>
<text text-anchor="middle" x="267" y="-69" font-family="Helvetica,sans-Serif" font-size="10.00" fill="#000000">cstring</text>
</g>
<!-- Node10&#45;&gt;Node13 -->
<g id="edge14" class="edge">
<title>Node10&#45;&gt;Node13</title>
<path fill="none" stroke="#191970" d="M423.1843,-123.4853C390.0597,-115.1452 341.8888,-102.0277 301,-87 299.3674,-86.4 297.7038,-85.7556 296.0336,-85.0828"/>
<polygon fill="#191970" stroke="#191970" points="297.1362,-81.7476 286.5658,-81.0284 294.3806,-88.1824 297.1362,-81.7476"/>
</g>
<!-- Node14 -->
<g id="node15" class="node">
<title>Node14</title>
<polygon fill="none" stroke="#bfbfbf" points="310,-62 310,-81 374,-81 374,-62 310,-62"/>
<text text-anchor="middle" x="342" y="-69" font-family="Helvetica,sans-Serif" font-size="10.00" fill="#000000">algorithm</text>
</g>
<!-- Node10&#45;&gt;Node14 -->
<g id="edge15" class="edge">
<title>Node10&#45;&gt;Node14</title>
<path fill="none" stroke="#191970" d="M444.0938,-123.3906C424.2034,-113.2811 392.6877,-97.2628 369.9308,-85.6962"/>
<polygon fill="#191970" stroke="#191970" points="371.274,-82.4528 360.7735,-81.0419 368.1022,-88.693 371.274,-82.4528"/>
</g>
<!-- Node15 -->
<g id="node16" class="node">
<title>Node15</title>
<polygon fill="none" stroke="#bfbfbf" points="392.5,-62 392.5,-81 457.5,-81 457.5,-62 392.5,-62"/>
<text text-anchor="middle" x="425" y="-69" font-family="Helvetica,sans-Serif" font-size="10.00" fill="#000000">stdexcept</text>
</g>
<!-- Node10&#45;&gt;Node15 -->
<g id="edge16" class="edge">
<title>Node10&#45;&gt;Node15</title>
<path fill="none" stroke="#191970" d="M457.0625,-123.3906C451.5733,-114.5068 443.2647,-101.0601 436.481,-90.0811"/>
<polygon fill="#191970" stroke="#191970" points="439.2551,-87.9122 431.0212,-81.2449 433.3002,-91.5917 439.2551,-87.9122"/>
</g>
<!-- Node16 -->
<g id="node17" class="node">
<title>Node16</title>
<polygon fill="none" stroke="#bfbfbf" points="476,-62 476,-81 526,-81 526,-62 476,-62"/>
<text text-anchor="middle" x="501" y="-69" font-family="Helvetica,sans-Serif" font-size="10.00" fill="#000000">climits</text>
</g>
<!-- Node10&#45;&gt;Node16 -->
<g id="edge18" class="edge">
<title>Node10&#45;&gt;Node16</title>
<path fill="none" stroke="#191970" d="M468.9375,-123.3906C474.4267,-114.5068 482.7353,-101.0601 489.519,-90.0811"/>
<polygon fill="#191970" stroke="#191970" points="492.6998,-91.5917 494.9788,-81.2449 486.7449,-87.9122 492.6998,-91.5917"/>
</g>
<!-- Node17 -->
<g id="node18" class="node">
<title>Node17</title>
<g id="a_node18"><a xlink:href="../../d7/df8/Types_8h.html" target="_top" xlink:title="MemoryResources/Types.h">
<polygon fill="none" stroke="#000000" points="544,-62 544,-81 690,-81 690,-62 544,-62"/>
<text text-anchor="middle" x="617" y="-69" font-family="Helvetica,sans-Serif" font-size="10.00" fill="#000000">MemoryResources/Types.h</text>
</a>
</g>
</g>
<!-- Node10&#45;&gt;Node17 -->
<g id="edge19" class="edge">
<title>Node10&#45;&gt;Node17</title>
<path fill="none" stroke="#191970" d="M487.0625,-123.3906C513.0556,-113.0103 554.6478,-96.4004 583.7547,-84.7766"/>
<polygon fill="#191970" stroke="#191970" points="585.1177,-88.0011 593.1065,-81.0419 582.5215,-81.5003 585.1177,-88.0011"/>
</g>
<!-- Node18 -->
<g id="node19" class="node">
<title>Node18</title>
<polygon fill="none" stroke="#bfbfbf" points="708.5,-62 708.5,-81 755.5,-81 755.5,-62 708.5,-62"/>
<text text-anchor="middle" x="732" y="-69" font-family="Helvetica,sans-Serif" font-size="10.00" fill="#000000">cerrno</text>
</g>
<!-- Node10&#45;&gt;Node18 -->
<g id="edge20" class="edge">
<title>Node10&#45;&gt;Node18</title>
<path fill="none" stroke="#191970" d="M526.683,-124.9359C574.8015,-117.8054 642.0608,-105.6045 699,-87 700.8501,-86.3955 702.7319,-85.7126 704.611,-84.9788"/>
<polygon fill="#191970" stroke="#191970" points="706.0237,-88.1813 713.826,-81.0137 703.2569,-81.7513 706.0237,-88.1813"/>
</g>
<!-- Node19&#45;&gt;Node7 -->
<g id="edge22" class="edge">
<title>Node19&#45;&gt;Node7</title>
<path fill="none" stroke="#191970" d="M1128.5629,-127.9165C1200.1413,-121.5895 1305.8628,-108.8589 1340,-87 1361.5629,-73.1928 1376.3775,-46.9049 1384.5223,-28.9217"/>
<polygon fill="#191970" stroke="#191970" points="1387.7584,-30.2556 1388.4548,-19.6837 1381.3176,-27.5138 1387.7584,-30.2556"/>
</g>
<!-- Node19&#45;&gt;Node8 -->
<g id="edge29" class="edge">
<title>Node19&#45;&gt;Node8</title>
<path fill="none" stroke="#191970" d="M1031.9688,-123.3906C1002.5149,-112.92 955.2311,-96.1111 922.4973,-84.4745"/>
<polygon fill="#191970" stroke="#191970" points="923.4361,-81.0937 912.8414,-81.0419 921.0914,-87.6893 923.4361,-81.0937"/>
</g>
<!-- Node20 -->
<g id="node21" class="node">
<title>Node20</title>
<g id="a_node21"><a xlink:href="../../d9/d80/InteractionRecord_8h.html" target="_top" xlink:title="CommonDataFormat/Interaction\lRecord.h">
<polygon fill="none" stroke="#000000" points="1157,-56.5 1157,-86.5 1331,-86.5 1331,-56.5 1157,-56.5"/>
<text text-anchor="start" x="1165" y="-74.5" font-family="Helvetica,sans-Serif" font-size="10.00" fill="#000000">CommonDataFormat/Interaction</text>
<text text-anchor="middle" x="1244" y="-63.5" font-family="Helvetica,sans-Serif" font-size="10.00" fill="#000000">Record.h</text>
</a>
</g>
</g>
<!-- Node19&#45;&gt;Node20 -->
<g id="edge23" class="edge">
<title>Node19&#45;&gt;Node20</title>
<path fill="none" stroke="#191970" d="M1087.9063,-123.3906C1114.9143,-114.4123 1155.9415,-100.7735 1189.1569,-89.7316"/>
<polygon fill="#191970" stroke="#191970" points="1190.3586,-93.0205 1198.7439,-86.5446 1188.1504,-86.378 1190.3586,-93.0205"/>
</g>
<!-- Node24 -->
<g id="node25" class="node">
<title>Node24</title>
<g id="a_node25"><a xlink:href="../../de/da4/Triggers_8h.html" target="_top" xlink:title="Definition of the 32 Central Trigger System (CTS) Trigger Types defined in https://twiki.cern.ch/twiki/pub/ALICE/NoteForFEDevelopers/CTS_CRU_FE_interface.pdf. ">
<polygon fill="none" stroke="#000000" points="979,-62 979,-81 1139,-81 1139,-62 979,-62"/>
<text text-anchor="middle" x="1059" y="-69" font-family="Helvetica,sans-Serif" font-size="10.00" fill="#000000">CommonConstants/Triggers.h</text>
</a>
</g>
</g>
<!-- Node19&#45;&gt;Node24 -->
<g id="edge30" class="edge">
<title>Node19&#45;&gt;Node24</title>
<path fill="none" stroke="#191970" d="M1059,-123.3906C1059,-114.8657 1059,-102.1392 1059,-91.4235"/>
<polygon fill="#191970" stroke="#191970" points="1062.5001,-91.2448 1059,-81.2449 1055.5001,-91.2449 1062.5001,-91.2448"/>
</g>
<!-- Node20&#45;&gt;Node7 -->
<g id="edge24" class="edge">
<title>Node20&#45;&gt;Node7</title>
<path fill="none" stroke="#191970" d="M1280.2049,-56.4554C1304.4658,-46.374 1336.1356,-33.2139 1359.5712,-23.4755"/>
<polygon fill="#191970" stroke="#191970" points="1361.1739,-26.5997 1369.0653,-19.5303 1358.4877,-20.1356 1361.1739,-26.5997"/>
</g>
<!-- Node20&#45;&gt;Node9 -->
<g id="edge27" class="edge">
<title>Node20&#45;&gt;Node9</title>
<path fill="none" stroke="#191970" d="M1168.4101,-56.4554C1105.1567,-43.8661 1017.782,-26.476 969.8852,-16.9432"/>
<polygon fill="#191970" stroke="#191970" points="970.4955,-13.4961 960.0046,-14.9766 969.129,-20.3614 970.4955,-13.4961"/>
</g>
<!-- Node21 -->
<g id="node22" class="node">
<title>Node21</title>
<polygon fill="none" stroke="#bfbfbf" points="1021.5,-.5 1021.5,-19.5 1070.5,-19.5 1070.5,-.5 1021.5,-.5"/>
<text text-anchor="middle" x="1046" y="-7.5" font-family="Helvetica,sans-Serif" font-size="10.00" fill="#000000">iosfwd</text>
</g>
<!-- Node20&#45;&gt;Node21 -->
<g id="edge25" class="edge">
<title>Node20&#45;&gt;Node21</title>
<path fill="none" stroke="#191970" d="M1195.5638,-56.4554C1159.9228,-45.3851 1112.3302,-30.6026 1080.496,-20.7147"/>
<polygon fill="#191970" stroke="#191970" points="1081.3372,-17.3111 1070.749,-17.6872 1079.2607,-23.996 1081.3372,-17.3111"/>
</g>
<!-- Node22 -->
<g id="node23" class="node">
<title>Node22</title>
<polygon fill="none" stroke="#bfbfbf" points="1088.5,-.5 1088.5,-19.5 1135.5,-19.5 1135.5,-.5 1088.5,-.5"/>
<text text-anchor="middle" x="1112" y="-7.5" font-family="Helvetica,sans-Serif" font-size="10.00" fill="#000000">cmath</text>
</g>
<!-- Node20&#45;&gt;Node22 -->
<g id="edge26" class="edge">
<title>Node20&#45;&gt;Node22</title>
<path fill="none" stroke="#191970" d="M1211.7092,-56.4554C1190.3608,-46.509 1162.5804,-33.5659 1141.7667,-23.8686"/>
<polygon fill="#191970" stroke="#191970" points="1142.9979,-20.581 1132.4553,-19.5303 1140.0416,-26.9262 1142.9979,-20.581"/>
</g>
<!-- Node23 -->
<g id="node24" class="node">
<title>Node23</title>
<g id="a_node24"><a xlink:href="../../d4/dc6/LHCConstants_8h.html" target="_top" xlink:title="Header to collect LHC related constants. ">
<polygon fill="none" stroke="#000000" points="1154,-.5 1154,-19.5 1344,-19.5 1344,-.5 1154,-.5"/>
<text text-anchor="middle" x="1249" y="-7.5" font-family="Helvetica,sans-Serif" font-size="10.00" fill="#000000">CommonConstants/LHCConstants.h</text>
</a>
</g>
</g>
<!-- Node20&#45;&gt;Node23 -->
<g id="edge28" class="edge">
<title>Node20&#45;&gt;Node23</title>
<path fill="none" stroke="#191970" d="M1245.236,-56.2977C1245.8794,-48.3834 1246.6744,-38.6043 1247.3678,-30.0759"/>
<polygon fill="#191970" stroke="#191970" points="1250.8775,-30.0977 1248.1994,-19.8469 1243.9005,-29.5304 1250.8775,-30.0977"/>
</g>
<!-- Node24&#45;&gt;Node9 -->
<g id="edge31" class="edge">
<title>Node24&#45;&gt;Node9</title>
<path fill="none" stroke="#191970" d="M1039.625,-61.8906C1019.1505,-51.7359 986.6558,-35.6196 963.3115,-24.0416"/>
<polygon fill="#191970" stroke="#191970" points="964.7528,-20.8496 954.2389,-19.5419 961.6425,-27.1207 964.7528,-20.8496"/>
</g>
</g>
</svg>
