<?xml version="1.0" encoding="UTF-8" standalone="no"?>
<!DOCTYPE svg PUBLIC "-//W3C//DTD SVG 1.1//EN"
 "http://www.w3.org/Graphics/SVG/1.1/DTD/svg11.dtd">
<!-- Generated by graphviz version 2.40.1 (20161225.0304)
 -->
<!-- Title: /home/travis/build/AliceO2Group/AliceO2/Detectors/TOF/reconstruction/include/TOFReconstruction/Encoder.h Pages: 1 -->
<svg width="1460pt" height="307pt"
 viewBox="0.00 0.00 1460.00 307.00" xmlns="http://www.w3.org/2000/svg" xmlns:xlink="http://www.w3.org/1999/xlink">
<g id="graph0" class="graph" transform="scale(1 1) rotate(0) translate(4 303)">
<title>/home/travis/build/AliceO2Group/AliceO2/Detectors/TOF/reconstruction/include/TOFReconstruction/Encoder.h</title>
<!-- Node0 -->
<g id="node1" class="node">
<title>Node0</title>
<polygon fill="#bfbfbf" stroke="#000000" points="249,-235.5 249,-298.5 410,-298.5 410,-235.5 249,-235.5"/>
<text text-anchor="start" x="257" y="-286.5" font-family="Helvetica,sans-Serif" font-size="10.00" fill="#000000">/home/travis/build</text>
<text text-anchor="start" x="257" y="-275.5" font-family="Helvetica,sans-Serif" font-size="10.00" fill="#000000">/AliceO2Group/AliceO2</text>
<text text-anchor="start" x="257" y="-264.5" font-family="Helvetica,sans-Serif" font-size="10.00" fill="#000000">/Detectors/TOF/reconstruction</text>
<text text-anchor="start" x="257" y="-253.5" font-family="Helvetica,sans-Serif" font-size="10.00" fill="#000000">/include/TOFReconstruction</text>
<text text-anchor="middle" x="329.5" y="-242.5" font-family="Helvetica,sans-Serif" font-size="10.00" fill="#000000">/Encoder.h</text>
</g>
<!-- Node1 -->
<g id="node2" class="node">
<title>Node1</title>
<polygon fill="none" stroke="#bfbfbf" points="0,-179.5 0,-198.5 55,-198.5 55,-179.5 0,-179.5"/>
<text text-anchor="middle" x="27.5" y="-186.5" font-family="Helvetica,sans-Serif" font-size="10.00" fill="#000000">fstream</text>
</g>
<!-- Node0&#45;&gt;Node1 -->
<g id="edge1" class="edge">
<title>Node0&#45;&gt;Node1</title>
<path fill="none" stroke="#191970" d="M248.8304,-246.5847C198.7518,-233.8441 132.8019,-216.9457 65.3338,-199.1977"/>
<polygon fill="#191970" stroke="#191970" points="65.9318,-195.7359 55.3701,-196.5734 64.1488,-202.5051 65.9318,-195.7359"/>
</g>
<!-- Node2 -->
<g id="node3" class="node">
<title>Node2</title>
<polygon fill="none" stroke="#bfbfbf" points="73.5,-179.5 73.5,-198.5 117.5,-198.5 117.5,-179.5 73.5,-179.5"/>
<text text-anchor="middle" x="95.5" y="-186.5" font-family="Helvetica,sans-Serif" font-size="10.00" fill="#000000">string</text>
</g>
<!-- Node0&#45;&gt;Node2 -->
<g id="edge2" class="edge">
<title>Node0&#45;&gt;Node2</title>
<path fill="none" stroke="#191970" d="M248.9705,-240.1568C207.2801,-226.26 158.7253,-210.0751 127.5776,-199.6925"/>
<polygon fill="#191970" stroke="#191970" points="128.3105,-196.2476 117.7169,-196.4056 126.0969,-202.8884 128.3105,-196.2476"/>
</g>
<!-- Node3 -->
<g id="node4" class="node">
<title>Node3</title>
<polygon fill="none" stroke="#bfbfbf" points="260.5,-56.5 260.5,-75.5 310.5,-75.5 310.5,-56.5 260.5,-56.5"/>
<text text-anchor="middle" x="285.5" y="-63.5" font-family="Helvetica,sans-Serif" font-size="10.00" fill="#000000">cstdint</text>
</g>
<!-- Node0&#45;&gt;Node3 -->
<g id="edge3" class="edge">
<title>Node0&#45;&gt;Node3</title>
<path fill="none" stroke="#191970" d="M248.644,-253.6411C216.8919,-244.0084 183.5461,-227.4495 164.5,-199 147.2923,-173.2967 170.7838,-135.1406 192.5,-112 208.2451,-95.2222 231.4313,-83.7351 250.7131,-76.436"/>
<polygon fill="#191970" stroke="#191970" points="252.133,-79.6458 260.3802,-72.9949 249.7855,-73.0511 252.133,-79.6458"/>
</g>
<!-- Node4 -->
<g id="node5" class="node">
<title>Node4</title>
<g id="a_node5"><a xlink:href="../../d6/de8/RawDataFormat_8h.html" target="_top" xlink:title="TOF raw data format. ">
<polygon fill="none" stroke="#000000" points="174,-179.5 174,-198.5 363,-198.5 363,-179.5 174,-179.5"/>
<text text-anchor="middle" x="268.5" y="-186.5" font-family="Helvetica,sans-Serif" font-size="10.00" fill="#000000">DataFormatsTOF/RawDataFormat.h</text>
</a>
</g>
</g>
<!-- Node0&#45;&gt;Node4 -->
<g id="edge4" class="edge">
<title>Node0&#45;&gt;Node4</title>
<path fill="none" stroke="#191970" d="M304.689,-235.2744C297.0509,-225.5078 288.9194,-215.1101 282.3031,-206.6499"/>
<polygon fill="#191970" stroke="#191970" points="284.9584,-204.3636 276.041,-198.6426 279.4444,-208.6759 284.9584,-204.3636"/>
</g>
<!-- Node5 -->
<g id="node6" class="node">
<title>Node5</title>
<g id="a_node6"><a xlink:href="../../d4/d54/Geo_8h.html" target="_top" xlink:title="TOFBase/Geo.h">
<polygon fill="none" stroke="#000000" points="797,-118 797,-137 888,-137 888,-118 797,-118"/>
<text text-anchor="middle" x="842.5" y="-125" font-family="Helvetica,sans-Serif" font-size="10.00" fill="#000000">TOFBase/Geo.h</text>
</a>
</g>
</g>
<!-- Node0&#45;&gt;Node5 -->
<g id="edge6" class="edge">
<title>Node0&#45;&gt;Node5</title>
<path fill="none" stroke="#191970" d="M410.2206,-245.0497C519.6018,-215.3057 711.1545,-163.2168 797.7468,-139.6697"/>
<polygon fill="#191970" stroke="#191970" points="798.796,-143.0116 807.5272,-137.0102 796.9591,-136.2569 798.796,-143.0116"/>
</g>
<!-- Node8 -->
<g id="node9" class="node">
<title>Node8</title>
<g id="a_node9"><a xlink:href="../../d1/d90/Detectors_2TOF_2base_2include_2TOFBase_2Digit_8h.html" target="_top" xlink:title="TOFBase/Digit.h">
<polygon fill="none" stroke="#000000" points="965,-179.5 965,-198.5 1060,-198.5 1060,-179.5 965,-179.5"/>
<text text-anchor="middle" x="1012.5" y="-186.5" font-family="Helvetica,sans-Serif" font-size="10.00" fill="#000000">TOFBase/Digit.h</text>
</a>
</g>
</g>
<!-- Node0&#45;&gt;Node8 -->
<g id="edge9" class="edge">
<title>Node0&#45;&gt;Node8</title>
<path fill="none" stroke="#191970" d="M410.1939,-257.7846C549.6223,-241.8616 832.387,-209.5693 954.3504,-195.6408"/>
<polygon fill="#191970" stroke="#191970" points="955.0589,-199.0827 964.5972,-194.4706 954.2646,-192.1279 955.0589,-199.0827"/>
</g>
<!-- Node14 -->
<g id="node15" class="node">
<title>Node14</title>
<g id="a_node15"><a xlink:href="../../d4/d78/DataFormats_2Headers_2include_2Headers_2RAWDataHeader_8h.html" target="_top" xlink:title="Headers/RAWDataHeader.h">
<polygon fill="none" stroke="#000000" points="211,-118 211,-137 360,-137 360,-118 211,-118"/>
<text text-anchor="middle" x="285.5" y="-125" font-family="Helvetica,sans-Serif" font-size="10.00" fill="#000000">Headers/RAWDataHeader.h</text>
</a>
</g>
</g>
<!-- Node0&#45;&gt;Node14 -->
<g id="edge18" class="edge">
<title>Node0&#45;&gt;Node14</title>
<path fill="none" stroke="#191970" d="M360.0433,-235.0917C372.4722,-218.1376 381.7668,-197.1151 371.5,-179 361.581,-161.4987 343.0854,-149.3022 325.7808,-141.1882"/>
<polygon fill="#191970" stroke="#191970" points="326.9183,-137.8664 316.3517,-137.0927 324.1295,-144.2869 326.9183,-137.8664"/>
</g>
<!-- Node15 -->
<g id="node16" class="node">
<title>Node15</title>
<g id="a_node16"><a xlink:href="../../d1/dec/HBFUtils_8h.html" target="_top" xlink:title="DetectorsRaw/HBFUtils.h">
<polygon fill="none" stroke="#000000" points="420,-179.5 420,-198.5 559,-198.5 559,-179.5 420,-179.5"/>
<text text-anchor="middle" x="489.5" y="-186.5" font-family="Helvetica,sans-Serif" font-size="10.00" fill="#000000">DetectorsRaw/HBFUtils.h</text>
</a>
</g>
</g>
<!-- Node0&#45;&gt;Node15 -->
<g id="edge20" class="edge">
<title>Node0&#45;&gt;Node15</title>
<path fill="none" stroke="#191970" d="M394.1169,-235.4992C417.3078,-224.1937 442.2909,-212.0144 460.8692,-202.9575"/>
<polygon fill="#191970" stroke="#191970" points="462.5021,-206.0553 469.9572,-198.5271 459.4347,-199.7631 462.5021,-206.0553"/>
</g>
<!-- Node4&#45;&gt;Node3 -->
<g id="edge5" class="edge">
<title>Node4&#45;&gt;Node3</title>
<path fill="none" stroke="#191970" d="M244.0288,-179.3462C228.7893,-171.9011 210.4388,-159.9799 201.5,-143 195.0819,-130.8084 194.4768,-123.8534 201.5,-112 212.1553,-94.0166 232.6033,-82.6024 250.6562,-75.6422"/>
<polygon fill="#191970" stroke="#191970" points="252.0945,-78.8463 260.3617,-72.2203 249.7669,-72.2446 252.0945,-78.8463"/>
</g>
<!-- Node6 -->
<g id="node7" class="node">
<title>Node6</title>
<polygon fill="none" stroke="#bfbfbf" points="955,-.5 955,-19.5 1014,-19.5 1014,-.5 955,-.5"/>
<text text-anchor="middle" x="984.5" y="-7.5" font-family="Helvetica,sans-Serif" font-size="10.00" fill="#000000">Rtypes.h</text>
</g>
<!-- Node5&#45;&gt;Node6 -->
<g id="edge7" class="edge">
<title>Node5&#45;&gt;Node6</title>
<path fill="none" stroke="#191970" d="M888.0173,-118.6913C914.0853,-111.41 945.4911,-98.4808 965.5,-76 976.7594,-63.3496 981.3736,-44.4206 983.2505,-30.0739"/>
<polygon fill="#191970" stroke="#191970" points="986.7691,-30.0473 984.2435,-19.7579 979.8013,-29.3765 986.7691,-30.0473"/>
</g>
<!-- Node7 -->
<g id="node8" class="node">
<title>Node7</title>
<g id="a_node8"><a xlink:href="../../d4/dc6/LHCConstants_8h.html" target="_top" xlink:title="Header to collect LHC related constants. ">
<polygon fill="none" stroke="#000000" points="698.5,-56.5 698.5,-75.5 888.5,-75.5 888.5,-56.5 698.5,-56.5"/>
<text text-anchor="middle" x="793.5" y="-63.5" font-family="Helvetica,sans-Serif" font-size="10.00" fill="#000000">CommonConstants/LHCConstants.h</text>
</a>
</g>
</g>
<!-- Node5&#45;&gt;Node7 -->
<g id="edge8" class="edge">
<title>Node5&#45;&gt;Node7</title>
<path fill="none" stroke="#191970" d="M834.8438,-117.8906C827.5511,-108.7376 816.3993,-94.7409 807.5148,-83.59"/>
<polygon fill="#191970" stroke="#191970" points="810.233,-81.3849 801.2642,-75.7449 804.7583,-85.747 810.233,-81.3849"/>
</g>
<!-- Node8&#45;&gt;Node5 -->
<g id="edge12" class="edge">
<title>Node8&#45;&gt;Node5</title>
<path fill="none" stroke="#191970" d="M985.9375,-179.3906C956.9944,-168.92 910.5306,-152.1111 878.3644,-140.4745"/>
<polygon fill="#191970" stroke="#191970" points="879.4702,-137.1526 868.876,-137.0419 877.0889,-143.7351 879.4702,-137.1526"/>
</g>
<!-- Node8&#45;&gt;Node6 -->
<g id="edge11" class="edge">
<title>Node8&#45;&gt;Node6</title>
<path fill="none" stroke="#191970" d="M1010.9946,-179.3762C1006.5697,-151.0883 993.5411,-67.7987 987.5623,-29.5767"/>
<polygon fill="#191970" stroke="#191970" points="991.0163,-29.0103 986.0128,-19.6714 984.1004,-30.0922 991.0163,-29.0103"/>
</g>
<!-- Node9 -->
<g id="node10" class="node">
<title>Node9</title>
<polygon fill="none" stroke="#bfbfbf" points="907,-56.5 907,-75.5 956,-75.5 956,-56.5 907,-56.5"/>
<text text-anchor="middle" x="931.5" y="-63.5" font-family="Helvetica,sans-Serif" font-size="10.00" fill="#000000">iosfwd</text>
</g>
<!-- Node8&#45;&gt;Node9 -->
<g id="edge10" class="edge">
<title>Node8&#45;&gt;Node9</title>
<path fill="none" stroke="#191970" d="M1006.1441,-179.3484C992.6585,-158.8703 960.9906,-110.782 943.5487,-84.2962"/>
<polygon fill="#191970" stroke="#191970" points="946.2495,-82.0335 937.8264,-75.6068 940.4033,-85.8835 946.2495,-82.0335"/>
</g>
<!-- Node10 -->
<g id="node11" class="node">
<title>Node10</title>
<g id="a_node11"><a xlink:href="../../de/d64/RangeReference_8h.html" target="_top" xlink:title="Class to refer to the 1st entry and N elements of some group in the continuous container. ">
<polygon fill="none" stroke="#000000" points="1116.5,-118 1116.5,-137 1326.5,-137 1326.5,-118 1116.5,-118"/>
<text text-anchor="middle" x="1221.5" y="-125" font-family="Helvetica,sans-Serif" font-size="10.00" fill="#000000">CommonDataFormat/RangeReference.h</text>
</a>
</g>
</g>
<!-- Node8&#45;&gt;Node10 -->
<g id="edge13" class="edge">
<title>Node8&#45;&gt;Node10</title>
<path fill="none" stroke="#191970" d="M1045.1563,-179.3906C1081.3528,-168.7395 1139.8386,-151.5296 1179.4375,-139.8772"/>
<polygon fill="#191970" stroke="#191970" points="1180.4678,-143.2225 1189.0731,-137.0419 1178.4917,-136.5072 1180.4678,-143.2225"/>
</g>
<!-- Node12 -->
<g id="node13" class="node">
<title>Node12</title>
<polygon fill="none" stroke="#bfbfbf" points="1041,-118 1041,-137 1098,-137 1098,-118 1041,-118"/>
<text text-anchor="middle" x="1069.5" y="-125" font-family="Helvetica,sans-Serif" font-size="10.00" fill="#000000">gsl/span</text>
</g>
<!-- Node8&#45;&gt;Node12 -->
<g id="edge16" class="edge">
<title>Node8&#45;&gt;Node12</title>
<path fill="none" stroke="#191970" d="M1021.4063,-179.3906C1029.9728,-170.1478 1043.1169,-155.966 1053.5003,-144.7628"/>
<polygon fill="#191970" stroke="#191970" points="1056.2375,-146.9584 1060.4682,-137.2449 1051.1035,-142.2 1056.2375,-146.9584"/>
</g>
<!-- Node13 -->
<g id="node14" class="node">
<title>Node13</title>
<polygon fill="none" stroke="#bfbfbf" points="1345,-112.5 1345,-142.5 1452,-142.5 1452,-112.5 1345,-112.5"/>
<text text-anchor="start" x="1353" y="-130.5" font-family="Helvetica,sans-Serif" font-size="10.00" fill="#000000">boost/serialization</text>
<text text-anchor="middle" x="1398.5" y="-119.5" font-family="Helvetica,sans-Serif" font-size="10.00" fill="#000000">/base_object.hpp</text>
</g>
<!-- Node8&#45;&gt;Node13 -->
<g id="edge17" class="edge">
<title>Node8&#45;&gt;Node13</title>
<path fill="none" stroke="#191970" d="M1060.0901,-183.7292C1121.3336,-176.6135 1231.1865,-162.728 1334.9439,-142.9857"/>
<polygon fill="#191970" stroke="#191970" points="1335.806,-146.3841 1344.9641,-141.0569 1334.4828,-139.5103 1335.806,-146.3841"/>
</g>
<!-- Node11 -->
<g id="node12" class="node">
<title>Node11</title>
<g id="a_node12"><a xlink:href="../../d2/d45/GPUCommonRtypes_8h.html" target="_top" xlink:title="GPUCommonRtypes.h">
<polygon fill="none" stroke="#000000" points="1110,-56.5 1110,-75.5 1235,-75.5 1235,-56.5 1110,-56.5"/>
<text text-anchor="middle" x="1172.5" y="-63.5" font-family="Helvetica,sans-Serif" font-size="10.00" fill="#000000">GPUCommonRtypes.h</text>
</a>
</g>
</g>
<!-- Node10&#45;&gt;Node11 -->
<g id="edge14" class="edge">
<title>Node10&#45;&gt;Node11</title>
<path fill="none" stroke="#191970" d="M1213.8438,-117.8906C1206.5511,-108.7376 1195.3993,-94.7409 1186.5148,-83.59"/>
<polygon fill="#191970" stroke="#191970" points="1189.233,-81.3849 1180.2642,-75.7449 1183.7583,-85.747 1189.233,-81.3849"/>
</g>
<!-- Node11&#45;&gt;Node6 -->
<g id="edge15" class="edge">
<title>Node11&#45;&gt;Node6</title>
<path fill="none" stroke="#191970" d="M1140.1816,-56.3733C1107.9806,-46.7814 1058.4894,-32.0394 1023.9804,-21.7601"/>
<polygon fill="#191970" stroke="#191970" points="1024.813,-18.3562 1014.23,-18.8557 1022.8146,-25.0649 1024.813,-18.3562"/>
</g>
<!-- Node14&#45;&gt;Node3 -->
<g id="edge19" class="edge">
<title>Node14&#45;&gt;Node3</title>
<path fill="none" stroke="#191970" d="M285.5,-117.8906C285.5,-109.3657 285.5,-96.6392 285.5,-85.9235"/>
<polygon fill="#191970" stroke="#191970" points="289.0001,-85.7448 285.5,-75.7449 282.0001,-85.7449 289.0001,-85.7448"/>
</g>
<!-- Node15&#45;&gt;Node6 -->
<g id="edge21" class="edge">
<title>Node15&#45;&gt;Node6</title>
<path fill="none" stroke="#191970" d="M505.5635,-179.3944C518.3252,-171.0918 535.8976,-158.0724 547.5,-143 573.2378,-109.5648 551.5779,-81.0926 585.5,-56 614.0366,-34.8911 849.5967,-18.2605 944.8031,-12.3384"/>
<polygon fill="#191970" stroke="#191970" points="945.1337,-15.8247 954.9001,-11.7178 944.7042,-8.8379 945.1337,-15.8247"/>
</g>
<!-- Node15&#45;&gt;Node14 -->
<g id="edge28" class="edge">
<title>Node15&#45;&gt;Node14</title>
<path fill="none" stroke="#191970" d="M457.625,-179.3906C422.4441,-168.7846 365.6912,-151.6753 327.0485,-140.0257"/>
<polygon fill="#191970" stroke="#191970" points="327.7358,-136.5773 317.1512,-137.0419 325.7153,-143.2794 327.7358,-136.5773"/>
</g>
<!-- Node16 -->
<g id="node17" class="node">
<title>Node16</title>
<g id="a_node17"><a xlink:href="../../d9/d80/InteractionRecord_8h.html" target="_top" xlink:title="CommonDataFormat/Interaction\lRecord.h">
<polygon fill="none" stroke="#000000" points="594.5,-112.5 594.5,-142.5 768.5,-142.5 768.5,-112.5 594.5,-112.5"/>
<text text-anchor="start" x="602.5" y="-130.5" font-family="Helvetica,sans-Serif" font-size="10.00" fill="#000000">CommonDataFormat/Interaction</text>
<text text-anchor="middle" x="681.5" y="-119.5" font-family="Helvetica,sans-Serif" font-size="10.00" fill="#000000">Record.h</text>
</a>
</g>
</g>
<!-- Node15&#45;&gt;Node16 -->
<g id="edge22" class="edge">
<title>Node15&#45;&gt;Node16</title>
<path fill="none" stroke="#191970" d="M519.5,-179.3906C547.53,-170.4123 590.1095,-156.7735 624.5818,-145.7316"/>
<polygon fill="#191970" stroke="#191970" points="626.0758,-148.9283 634.5315,-142.5446 623.9405,-142.2619 626.0758,-148.9283"/>
</g>
<!-- Node18 -->
<g id="node19" class="node">
<title>Node18</title>
<g id="a_node19"><a xlink:href="../../de/da4/Triggers_8h.html" target="_top" xlink:title="Definition of the 32 Central Trigger System (CTS) Trigger Types defined in https://twiki.cern.ch/twiki/pub/ALICE/NoteForFEDevelopers/CTS_CRU_FE_interface.pdf. ">
<polygon fill="none" stroke="#000000" points="378.5,-118 378.5,-137 538.5,-137 538.5,-118 378.5,-118"/>
<text text-anchor="middle" x="458.5" y="-125" font-family="Helvetica,sans-Serif" font-size="10.00" fill="#000000">CommonConstants/Triggers.h</text>
</a>
</g>
</g>
<!-- Node15&#45;&gt;Node18 -->
<g id="edge29" class="edge">
<title>Node15&#45;&gt;Node18</title>
<path fill="none" stroke="#191970" d="M484.6563,-179.3906C480.2234,-170.5965 473.5369,-157.3312 468.0341,-146.4145"/>
<polygon fill="#191970" stroke="#191970" points="471.0386,-144.5992 463.412,-137.2449 464.7878,-147.75 471.0386,-144.5992"/>
</g>
<!-- Node16&#45;&gt;Node3 -->
<g id="edge26" class="edge">
<title>Node16&#45;&gt;Node3</title>
<path fill="none" stroke="#191970" d="M594.1059,-113.9274C508.3735,-100.6129 381.9068,-80.9723 320.9326,-71.5028"/>
<polygon fill="#191970" stroke="#191970" points="321.0996,-67.9868 310.6809,-69.9107 320.0253,-74.9039 321.0996,-67.9868"/>
</g>
<!-- Node16&#45;&gt;Node6 -->
<g id="edge23" class="edge">
<title>Node16&#45;&gt;Node6</title>
<path fill="none" stroke="#191970" d="M678.4104,-112.4617C676.0425,-96.2849 675.2454,-70.885 689.5,-56 706.9412,-37.7874 868.3238,-20.6835 944.7372,-13.5264"/>
<polygon fill="#191970" stroke="#191970" points="945.2966,-16.9896 954.9317,-12.5834 944.6518,-10.0194 945.2966,-16.9896"/>
</g>
<!-- Node16&#45;&gt;Node7 -->
<g id="edge27" class="edge">
<title>Node16&#45;&gt;Node7</title>
<path fill="none" stroke="#191970" d="M708.8983,-112.4554C726.6022,-102.734 749.5195,-90.15 767.0358,-80.5317"/>
<polygon fill="#191970" stroke="#191970" points="769.0631,-83.4115 776.144,-75.5303 765.6939,-77.2756 769.0631,-83.4115"/>
</g>
<!-- Node16&#45;&gt;Node9 -->
<g id="edge24" class="edge">
<title>Node16&#45;&gt;Node9</title>
<path fill="none" stroke="#191970" d="M748.3786,-112.4992C788.7382,-103.2268 841.3969,-90.7441 896.6761,-76.1242"/>
<polygon fill="#191970" stroke="#191970" points="897.8957,-79.4216 906.6595,-73.468 896.0958,-72.6569 897.8957,-79.4216"/>
</g>
<!-- Node17 -->
<g id="node18" class="node">
<title>Node17</title>
<polygon fill="none" stroke="#bfbfbf" points="595,-56.5 595,-75.5 642,-75.5 642,-56.5 595,-56.5"/>
<text text-anchor="middle" x="618.5" y="-63.5" font-family="Helvetica,sans-Serif" font-size="10.00" fill="#000000">cmath</text>
</g>
<!-- Node16&#45;&gt;Node17 -->
<g id="edge25" class="edge">
<title>Node16&#45;&gt;Node17</title>
<path fill="none" stroke="#191970" d="M665.927,-112.2977C656.8175,-103.4052 645.2966,-92.1586 635.8909,-82.9769"/>
<polygon fill="#191970" stroke="#191970" points="638.1878,-80.3278 628.5871,-75.8469 633.298,-85.3368 638.1878,-80.3278"/>
</g>
<!-- Node18&#45;&gt;Node3 -->
<g id="edge30" class="edge">
<title>Node18&#45;&gt;Node3</title>
<path fill="none" stroke="#191970" d="M431.4688,-117.8906C401.4981,-107.2363 353.0666,-90.0193 320.288,-78.3668"/>
<polygon fill="#191970" stroke="#191970" points="321.2504,-74.9944 310.6557,-74.9426 318.9057,-81.5901 321.2504,-74.9944"/>
</g>
</g>
</svg>
