<?xml version="1.0" encoding="UTF-8" standalone="no"?>
<!DOCTYPE svg PUBLIC "-//W3C//DTD SVG 1.1//EN"
 "http://www.w3.org/Graphics/SVG/1.1/DTD/svg11.dtd">
<!-- Generated by graphviz version 2.40.1 (20161225.0304)
 -->
<!-- Title: /home/travis/build/AliceO2Group/AliceO2/Detectors/TPC/base/include/TPCBase/ParameterGEM.h Pages: 1 -->
<svg width="650pt" height="251pt"
 viewBox="0.00 0.00 649.50 251.00" xmlns="http://www.w3.org/2000/svg" xmlns:xlink="http://www.w3.org/1999/xlink">
<g id="graph0" class="graph" transform="scale(1 1) rotate(0) translate(4 247)">
<title>/home/travis/build/AliceO2Group/AliceO2/Detectors/TPC/base/include/TPCBase/ParameterGEM.h</title>
<!-- Node0 -->
<g id="node1" class="node">
<title>Node0</title>
<polygon fill="#bfbfbf" stroke="#000000" points="203,-190.5 203,-242.5 356,-242.5 356,-190.5 203,-190.5"/>
<text text-anchor="start" x="211" y="-230.5" font-family="Helvetica,sans-Serif" font-size="10.00" fill="#000000">/home/travis/build</text>
<text text-anchor="start" x="211" y="-219.5" font-family="Helvetica,sans-Serif" font-size="10.00" fill="#000000">/AliceO2Group/AliceO2</text>
<text text-anchor="start" x="211" y="-208.5" font-family="Helvetica,sans-Serif" font-size="10.00" fill="#000000">/Detectors/TPC/base/include</text>
<text text-anchor="middle" x="279.5" y="-197.5" font-family="Helvetica,sans-Serif" font-size="10.00" fill="#000000">/TPCBase/ParameterGEM.h</text>
</g>
<!-- Node1 -->
<g id="node2" class="node">
<title>Node1</title>
<polygon fill="none" stroke="#bfbfbf" points="169.5,-129 169.5,-148 211.5,-148 211.5,-129 169.5,-129"/>
<text text-anchor="middle" x="190.5" y="-136" font-family="Helvetica,sans-Serif" font-size="10.00" fill="#000000">array</text>
</g>
<!-- Node0&#45;&gt;Node1 -->
<g id="edge1" class="edge">
<title>Node0&#45;&gt;Node1</title>
<path fill="none" stroke="#191970" d="M249.3687,-190.0928C236.0586,-178.4278 220.8273,-165.079 209.1927,-154.8824"/>
<polygon fill="#191970" stroke="#191970" points="211.2629,-152.0427 201.4354,-148.0839 206.6491,-157.3071 211.2629,-152.0427"/>
</g>
<!-- Node2 -->
<g id="node3" class="node">
<title>Node2</title>
<polygon fill="none" stroke="#bfbfbf" points="230,-129 230,-148 277,-148 277,-129 230,-129"/>
<text text-anchor="middle" x="253.5" y="-136" font-family="Helvetica,sans-Serif" font-size="10.00" fill="#000000">cmath</text>
</g>
<!-- Node0&#45;&gt;Node2 -->
<g id="edge2" class="edge">
<title>Node0&#45;&gt;Node2</title>
<path fill="none" stroke="#191970" d="M270.6976,-190.0928C267.149,-179.447 263.133,-167.3989 259.8747,-157.6242"/>
<polygon fill="#191970" stroke="#191970" points="263.1774,-156.4639 256.6946,-148.0839 256.5366,-158.6775 263.1774,-156.4639"/>
</g>
<!-- Node3 -->
<g id="node4" class="node">
<title>Node3</title>
<g id="a_node4"><a xlink:href="../../db/d2c/ConfigurableParam_8h.html" target="_top" xlink:title="SimConfig/ConfigurableParam.h">
<polygon fill="none" stroke="#000000" points="204.5,-67.5 204.5,-86.5 374.5,-86.5 374.5,-67.5 204.5,-67.5"/>
<text text-anchor="middle" x="289.5" y="-74.5" font-family="Helvetica,sans-Serif" font-size="10.00" fill="#000000">SimConfig/ConfigurableParam.h</text>
</a>
</g>
</g>
<!-- Node0&#45;&gt;Node3 -->
<g id="edge3" class="edge">
<title>Node0&#45;&gt;Node3</title>
<path fill="none" stroke="#191970" d="M282.2659,-190.3699C283.3837,-179.179 284.6158,-165.958 285.5,-154 286.9297,-134.6639 288.022,-112.5587 288.7011,-97.0079"/>
<polygon fill="#191970" stroke="#191970" points="292.1997,-97.114 289.1215,-86.9763 285.2058,-96.8209 292.1997,-97.114"/>
</g>
<!-- Node10 -->
<g id="node11" class="node">
<title>Node10</title>
<g id="a_node11"><a xlink:href="../../da/d6b/ConfigurableParamHelper_8h.html" target="_top" xlink:title="SimConfig/ConfigurableParam\lHelper.h">
<polygon fill="none" stroke="#000000" points="364,-123.5 364,-153.5 525,-153.5 525,-123.5 364,-123.5"/>
<text text-anchor="start" x="372" y="-141.5" font-family="Helvetica,sans-Serif" font-size="10.00" fill="#000000">SimConfig/ConfigurableParam</text>
<text text-anchor="middle" x="444.5" y="-130.5" font-family="Helvetica,sans-Serif" font-size="10.00" fill="#000000">Helper.h</text>
</a>
</g>
</g>
<!-- Node0&#45;&gt;Node10 -->
<g id="edge10" class="edge">
<title>Node0&#45;&gt;Node10</title>
<path fill="none" stroke="#191970" d="M334.9016,-190.3101C357.3094,-179.7174 382.7174,-167.7063 403.4241,-157.9177"/>
<polygon fill="#191970" stroke="#191970" points="405.0345,-161.0278 412.5794,-153.5897 402.0428,-154.6993 405.0345,-161.0278"/>
</g>
<!-- Node4 -->
<g id="node5" class="node">
<title>Node4</title>
<polygon fill="none" stroke="#bfbfbf" points="0,-6 0,-25 47,-25 47,-6 0,-6"/>
<text text-anchor="middle" x="23.5" y="-13" font-family="Helvetica,sans-Serif" font-size="10.00" fill="#000000">vector</text>
</g>
<!-- Node3&#45;&gt;Node4 -->
<g id="edge4" class="edge">
<title>Node3&#45;&gt;Node4</title>
<path fill="none" stroke="#191970" d="M217.7348,-67.4737C171.0634,-60.1515 109.2918,-48.32 56.5,-31 54.6506,-30.3933 52.7694,-29.7086 50.8907,-28.9736"/>
<polygon fill="#191970" stroke="#191970" points="52.2456,-25.7464 41.6767,-25.0055 49.4767,-32.1755 52.2456,-25.7464"/>
</g>
<!-- Node5 -->
<g id="node6" class="node">
<title>Node5</title>
<polygon fill="none" stroke="#bfbfbf" points="65.5,-6 65.5,-25 103.5,-25 103.5,-6 65.5,-6"/>
<text text-anchor="middle" x="84.5" y="-13" font-family="Helvetica,sans-Serif" font-size="10.00" fill="#000000">map</text>
</g>
<!-- Node3&#45;&gt;Node5 -->
<g id="edge5" class="edge">
<title>Node3&#45;&gt;Node5</title>
<path fill="none" stroke="#191970" d="M239.2213,-67.4607C203.1967,-59.7833 153.9278,-47.543 112.5,-31 111.468,-30.5879 110.4263,-30.1456 109.3828,-29.6803"/>
<polygon fill="#191970" stroke="#191970" points="110.6623,-26.407 100.1524,-25.0676 107.5331,-32.6687 110.6623,-26.407"/>
</g>
<!-- Node6 -->
<g id="node7" class="node">
<title>Node6</title>
<polygon fill="none" stroke="#bfbfbf" points="122,-6 122,-25 215,-25 215,-6 122,-6"/>
<text text-anchor="middle" x="168.5" y="-13" font-family="Helvetica,sans-Serif" font-size="10.00" fill="#000000">unordered_map</text>
</g>
<!-- Node3&#45;&gt;Node6 -->
<g id="edge6" class="edge">
<title>Node3&#45;&gt;Node6</title>
<path fill="none" stroke="#191970" d="M270.5938,-67.3906C250.7034,-57.2811 219.1877,-41.2628 196.4308,-29.6962"/>
<polygon fill="#191970" stroke="#191970" points="197.774,-26.4528 187.2735,-25.0419 194.6022,-32.693 197.774,-26.4528"/>
</g>
<!-- Node7 -->
<g id="node8" class="node">
<title>Node7</title>
<polygon fill="none" stroke="#bfbfbf" points="233,-.5 233,-30.5 346,-30.5 346,-.5 233,-.5"/>
<text text-anchor="start" x="241" y="-18.5" font-family="Helvetica,sans-Serif" font-size="10.00" fill="#000000">boost/property_tree</text>
<text text-anchor="middle" x="289.5" y="-7.5" font-family="Helvetica,sans-Serif" font-size="10.00" fill="#000000">/ptree.hpp</text>
</g>
<!-- Node3&#45;&gt;Node7 -->
<g id="edge7" class="edge">
<title>Node3&#45;&gt;Node7</title>
<path fill="none" stroke="#191970" d="M289.5,-67.3906C289.5,-60.2234 289.5,-50.0862 289.5,-40.671"/>
<polygon fill="#191970" stroke="#191970" points="293.0001,-40.5446 289.5,-30.5446 286.0001,-40.5446 293.0001,-40.5446"/>
</g>
<!-- Node8 -->
<g id="node9" class="node">
<title>Node8</title>
<polygon fill="none" stroke="#bfbfbf" points="443,-6 443,-25 500,-25 500,-6 443,-6"/>
<text text-anchor="middle" x="471.5" y="-13" font-family="Helvetica,sans-Serif" font-size="10.00" fill="#000000">typeinfo</text>
</g>
<!-- Node3&#45;&gt;Node8 -->
<g id="edge8" class="edge">
<title>Node3&#45;&gt;Node8</title>
<path fill="none" stroke="#191970" d="M321.7709,-67.4801C351.1159,-58.637 395.5095,-44.7922 433.5,-31 435.3585,-30.3253 437.2606,-29.6147 439.1749,-28.884"/>
<polygon fill="#191970" stroke="#191970" points="440.68,-32.0531 448.7046,-25.1352 438.1174,-25.539 440.68,-32.0531"/>
</g>
<!-- Node9 -->
<g id="node10" class="node">
<title>Node9</title>
<polygon fill="none" stroke="#bfbfbf" points="364.5,-6 364.5,-25 424.5,-25 424.5,-6 364.5,-6"/>
<text text-anchor="middle" x="394.5" y="-13" font-family="Helvetica,sans-Serif" font-size="10.00" fill="#000000">iostream</text>
</g>
<!-- Node3&#45;&gt;Node9 -->
<g id="edge9" class="edge">
<title>Node3&#45;&gt;Node9</title>
<path fill="none" stroke="#191970" d="M305.9063,-67.3906C322.9353,-57.4165 349.7841,-41.6908 369.4651,-30.1633"/>
<polygon fill="#191970" stroke="#191970" points="371.349,-33.1161 378.209,-25.0419 367.8112,-27.0759 371.349,-33.1161"/>
</g>
<!-- Node10&#45;&gt;Node3 -->
<g id="edge11" class="edge">
<title>Node10&#45;&gt;Node3</title>
<path fill="none" stroke="#191970" d="M406.5827,-123.4554C381.0609,-113.329 347.7104,-100.0964 323.1344,-90.3453"/>
<polygon fill="#191970" stroke="#191970" points="324.1054,-86.9651 313.5195,-86.5303 321.5237,-93.4717 324.1054,-86.9651"/>
</g>
<!-- Node10&#45;&gt;Node8 -->
<g id="edge14" class="edge">
<title>Node10&#45;&gt;Node8</title>
<path fill="none" stroke="#191970" d="M433.9479,-123.4652C425.0489,-108.8244 414.8836,-86.0544 422.5,-67 428.0662,-53.0746 439.3885,-40.7656 449.7482,-31.676"/>
<polygon fill="#191970" stroke="#191970" points="452.2291,-34.167 457.7218,-25.1072 447.7781,-28.7643 452.2291,-34.167"/>
</g>
<!-- Node11 -->
<g id="node12" class="node">
<title>Node11</title>
<polygon fill="none" stroke="#bfbfbf" points="431,-67.5 431,-86.5 488,-86.5 488,-67.5 431,-67.5"/>
<text text-anchor="middle" x="459.5" y="-74.5" font-family="Helvetica,sans-Serif" font-size="10.00" fill="#000000">TClass.h</text>
</g>
<!-- Node10&#45;&gt;Node11 -->
<g id="edge12" class="edge">
<title>Node10&#45;&gt;Node11</title>
<path fill="none" stroke="#191970" d="M448.2079,-123.2977C450.1599,-115.2945 452.577,-105.3843 454.6734,-96.7889"/>
<polygon fill="#191970" stroke="#191970" points="458.129,-97.3915 457.0983,-86.8469 451.3284,-95.7328 458.129,-97.3915"/>
</g>
<!-- Node12 -->
<g id="node13" class="node">
<title>Node12</title>
<polygon fill="none" stroke="#bfbfbf" points="506,-67.5 506,-86.5 575,-86.5 575,-67.5 506,-67.5"/>
<text text-anchor="middle" x="540.5" y="-74.5" font-family="Helvetica,sans-Serif" font-size="10.00" fill="#000000">type_traits</text>
</g>
<!-- Node10&#45;&gt;Node12 -->
<g id="edge13" class="edge">
<title>Node10&#45;&gt;Node12</title>
<path fill="none" stroke="#191970" d="M468.2303,-123.2977C483.0362,-113.8127 502.0228,-101.6495 516.8193,-92.1705"/>
<polygon fill="#191970" stroke="#191970" points="518.8835,-95.0047 525.4159,-86.6633 515.1075,-89.1105 518.8835,-95.0047"/>
</g>
<!-- Node13 -->
<g id="node14" class="node">
<title>Node13</title>
<polygon fill="none" stroke="#bfbfbf" points="593.5,-67.5 593.5,-86.5 641.5,-86.5 641.5,-67.5 593.5,-67.5"/>
<text text-anchor="middle" x="617.5" y="-74.5" font-family="Helvetica,sans-Serif" font-size="10.00" fill="#000000">TFile.h</text>
</g>
<!-- Node10&#45;&gt;Node13 -->
<g id="edge15" class="edge">
<title>Node10&#45;&gt;Node13</title>
<path fill="none" stroke="#191970" d="M486.8206,-123.4554C516.577,-112.8773 555.8681,-98.9096 583.5704,-89.0617"/>
<polygon fill="#191970" stroke="#191970" points="584.9631,-92.2813 593.213,-85.6338 582.6183,-85.6856 584.9631,-92.2813"/>
</g>
</g>
</svg>
