<?xml version="1.0" encoding="UTF-8" standalone="no"?>
<!DOCTYPE svg PUBLIC "-//W3C//DTD SVG 1.1//EN"
 "http://www.w3.org/Graphics/SVG/1.1/DTD/svg11.dtd">
<!-- Generated by graphviz version 2.40.1 (20161225.0304)
 -->
<!-- Title: /home/travis/build/AliceO2Group/AliceO2/Utilities/Mergers/include/Mergers/MergeInterfaceOverrideExample.h Pages: 1 -->
<svg width="253pt" height="173pt"
 viewBox="0.00 0.00 252.50 173.00" xmlns="http://www.w3.org/2000/svg" xmlns:xlink="http://www.w3.org/1999/xlink">
<g id="graph0" class="graph" transform="scale(1 1) rotate(0) translate(4 169)">
<title>/home/travis/build/AliceO2Group/AliceO2/Utilities/Mergers/include/Mergers/MergeInterfaceOverrideExample.h</title>
<!-- Node0 -->
<g id="node1" class="node">
<title>Node0</title>
<polygon fill="#bfbfbf" stroke="#000000" points="0,-112.5 0,-164.5 229,-164.5 229,-112.5 0,-112.5"/>
<text text-anchor="start" x="8" y="-152.5" font-family="Helvetica,sans-Serif" font-size="10.00" fill="#000000">/home/travis/build</text>
<text text-anchor="start" x="8" y="-141.5" font-family="Helvetica,sans-Serif" font-size="10.00" fill="#000000">/AliceO2Group/AliceO2</text>
<text text-anchor="start" x="8" y="-130.5" font-family="Helvetica,sans-Serif" font-size="10.00" fill="#000000">/Utilities/Mergers/include</text>
<text text-anchor="middle" x="114.5" y="-119.5" font-family="Helvetica,sans-Serif" font-size="10.00" fill="#000000">/Mergers/MergeInterfaceOverrideExample.h</text>
</g>
<!-- Node1 -->
<g id="node2" class="node">
<title>Node1</title>
<g id="a_node2"><a xlink:href="../../de/d80/MergeInterface_8h.html" target="_top" xlink:title="Definition of O2 Mergers merging interface, v0.1. ">
<polygon fill="none" stroke="#000000" points="44,-56.5 44,-75.5 185,-75.5 185,-56.5 44,-56.5"/>
<text text-anchor="middle" x="114.5" y="-63.5" font-family="Helvetica,sans-Serif" font-size="10.00" fill="#000000">Mergers/MergeInterface.h</text>
</a>
</g>
</g>
<!-- Node0&#45;&gt;Node1 -->
<g id="edge1" class="edge">
<title>Node0&#45;&gt;Node1</title>
<path fill="none" stroke="#191970" d="M114.5,-112.3258C114.5,-103.5142 114.5,-93.8397 114.5,-85.621"/>
<polygon fill="#191970" stroke="#191970" points="118.0001,-85.534 114.5,-75.534 111.0001,-85.534 118.0001,-85.534"/>
</g>
<!-- Node2 -->
<g id="node3" class="node">
<title>Node2</title>
<polygon fill="none" stroke="#bfbfbf" points="18,-.5 18,-19.5 65,-19.5 65,-.5 18,-.5"/>
<text text-anchor="middle" x="41.5" y="-7.5" font-family="Helvetica,sans-Serif" font-size="10.00" fill="#000000">vector</text>
</g>
<!-- Node1&#45;&gt;Node2 -->
<g id="edge2" class="edge">
<title>Node1&#45;&gt;Node2</title>
<path fill="none" stroke="#191970" d="M101.7844,-56.2455C90.898,-47.8943 75.0117,-35.7076 62.28,-25.9408"/>
<polygon fill="#191970" stroke="#191970" points="64.1346,-22.9523 54.0699,-19.6427 59.8739,-28.5063 64.1346,-22.9523"/>
</g>
<!-- Node3 -->
<g id="node4" class="node">
<title>Node3</title>
<polygon fill="none" stroke="#bfbfbf" points="83,-.5 83,-19.5 146,-19.5 146,-.5 83,-.5"/>
<text text-anchor="middle" x="114.5" y="-7.5" font-family="Helvetica,sans-Serif" font-size="10.00" fill="#000000">TObject.h</text>
</g>
<!-- Node1&#45;&gt;Node3 -->
<g id="edge3" class="edge">
<title>Node1&#45;&gt;Node3</title>
<path fill="none" stroke="#191970" d="M114.5,-56.2455C114.5,-48.9382 114.5,-38.6944 114.5,-29.7046"/>
<polygon fill="#191970" stroke="#191970" points="118.0001,-29.6426 114.5,-19.6427 111.0001,-29.6427 118.0001,-29.6426"/>
</g>
<!-- Node4 -->
<g id="node5" class="node">
<title>Node4</title>
<polygon fill="none" stroke="#bfbfbf" points="164.5,-.5 164.5,-19.5 244.5,-19.5 244.5,-.5 164.5,-.5"/>
<text text-anchor="middle" x="204.5" y="-7.5" font-family="Helvetica,sans-Serif" font-size="10.00" fill="#000000">TCollection.h</text>
</g>
<!-- Node1&#45;&gt;Node4 -->
<g id="edge4" class="edge">
<title>Node1&#45;&gt;Node4</title>
<path fill="none" stroke="#191970" d="M130.1768,-56.2455C143.9856,-47.6534 164.3193,-35.0014 180.2292,-25.1018"/>
<polygon fill="#191970" stroke="#191970" points="182.3613,-27.8974 189.0028,-19.6427 178.6632,-21.954 182.3613,-27.8974"/>
</g>
</g>
</svg>
