<?xml version="1.0" encoding="UTF-8" standalone="no"?>
<!DOCTYPE svg PUBLIC "-//W3C//DTD SVG 1.1//EN"
 "http://www.w3.org/Graphics/SVG/1.1/DTD/svg11.dtd">
<!-- Generated by graphviz version 2.40.1 (20161225.0304)
 -->
<!-- Title: o2::steer::O2MCApplication Pages: 1 -->
<svg width="1115pt" height="1643pt"
 viewBox="0.00 0.00 1115.00 1643.00" xmlns="http://www.w3.org/2000/svg" xmlns:xlink="http://www.w3.org/1999/xlink">
<g id="graph0" class="graph" transform="scale(1 1) rotate(0) translate(4 1639)">
<title>o2::steer::O2MCApplication</title>
<!-- Node3 -->
<g id="node1" class="node">
<title>Node3</title>
<polygon fill="#bfbfbf" stroke="#000000" points="478.5,-.5 478.5,-167.5 627.5,-167.5 627.5,-.5 478.5,-.5"/>
<text text-anchor="middle" x="553" y="-155.5" font-family="Helvetica,sans-Serif" font-size="10.00" fill="#000000">o2::steer::O2MCApplication</text>
<polyline fill="none" stroke="#000000" points="478.5,-148.5 627.5,-148.5 "/>
<text text-anchor="middle" x="553" y="-136.5" font-family="Helvetica,sans-Serif" font-size="10.00" fill="#000000"> </text>
<polyline fill="none" stroke="#000000" points="478.5,-129.5 627.5,-129.5 "/>
<text text-anchor="start" x="486.5" y="-117.5" font-family="Helvetica,sans-Serif" font-size="10.00" fill="#000000">+ ~O2MCApplication()</text>
<text text-anchor="start" x="486.5" y="-106.5" font-family="Helvetica,sans-Serif" font-size="10.00" fill="#000000">+ SendData()</text>
<text text-anchor="start" x="486.5" y="-95.5" font-family="Helvetica,sans-Serif" font-size="10.00" fill="#000000">+ initLate()</text>
<text text-anchor="start" x="486.5" y="-84.5" font-family="Helvetica,sans-Serif" font-size="10.00" fill="#000000">+ FinishEvent()</text>
<text text-anchor="start" x="486.5" y="-73.5" font-family="Helvetica,sans-Serif" font-size="10.00" fill="#000000">+ FinishRun()</text>
<text text-anchor="start" x="486.5" y="-62.5" font-family="Helvetica,sans-Serif" font-size="10.00" fill="#000000">+ attachSubEventInfo()</text>
<text text-anchor="start" x="486.5" y="-51.5" font-family="Helvetica,sans-Serif" font-size="10.00" fill="#000000">+ GeneratePrimaries()</text>
<text text-anchor="start" x="486.5" y="-40.5" font-family="Helvetica,sans-Serif" font-size="10.00" fill="#000000">+ setPrimaries()</text>
<text text-anchor="start" x="486.5" y="-29.5" font-family="Helvetica,sans-Serif" font-size="10.00" fill="#000000">+ setSimDataChannel()</text>
<text text-anchor="start" x="486.5" y="-18.5" font-family="Helvetica,sans-Serif" font-size="10.00" fill="#000000">+ setSubEventInfo()</text>
<text text-anchor="start" x="486.5" y="-7.5" font-family="Helvetica,sans-Serif" font-size="10.00" fill="#000000">+ ClassDefOverride()</text>
</g>
<!-- Node4 -->
<g id="node2" class="node">
<title>Node4</title>
<g id="a_node2"><a xlink:href="../../d8/d15/classo2_1_1steer_1_1O2MCApplicationBase.html" target="_top" xlink:title="{o2::steer::O2MCApplicationBase\n||+ O2MCApplicationBase()\l+ O2MCApplicationBase()\l+ ~O2MCApplicationBase()\l+ Stepping()\l+ PreTrack()\l+ BeginEvent()\l+ FinishEvent()\l+ ConstructGeometry()\l+ InitGeometry()\l+ MisalignGeometry()\l+ TrackingRmax()\l+ TrackingZmax()\l# finishEventCommon()\l# ClassDefOverride()\l}">
<polygon fill="none" stroke="#000000" points="186.5,-215.5 186.5,-415.5 359.5,-415.5 359.5,-215.5 186.5,-215.5"/>
<text text-anchor="middle" x="273" y="-403.5" font-family="Helvetica,sans-Serif" font-size="10.00" fill="#000000">o2::steer::O2MCApplicationBase</text>
<polyline fill="none" stroke="#000000" points="186.5,-396.5 359.5,-396.5 "/>
<text text-anchor="middle" x="273" y="-384.5" font-family="Helvetica,sans-Serif" font-size="10.00" fill="#000000"> </text>
<polyline fill="none" stroke="#000000" points="186.5,-377.5 359.5,-377.5 "/>
<text text-anchor="start" x="194.5" y="-365.5" font-family="Helvetica,sans-Serif" font-size="10.00" fill="#000000">+ O2MCApplicationBase()</text>
<text text-anchor="start" x="194.5" y="-354.5" font-family="Helvetica,sans-Serif" font-size="10.00" fill="#000000">+ O2MCApplicationBase()</text>
<text text-anchor="start" x="194.5" y="-343.5" font-family="Helvetica,sans-Serif" font-size="10.00" fill="#000000">+ ~O2MCApplicationBase()</text>
<text text-anchor="start" x="194.5" y="-332.5" font-family="Helvetica,sans-Serif" font-size="10.00" fill="#000000">+ Stepping()</text>
<text text-anchor="start" x="194.5" y="-321.5" font-family="Helvetica,sans-Serif" font-size="10.00" fill="#000000">+ PreTrack()</text>
<text text-anchor="start" x="194.5" y="-310.5" font-family="Helvetica,sans-Serif" font-size="10.00" fill="#000000">+ BeginEvent()</text>
<text text-anchor="start" x="194.5" y="-299.5" font-family="Helvetica,sans-Serif" font-size="10.00" fill="#000000">+ FinishEvent()</text>
<text text-anchor="start" x="194.5" y="-288.5" font-family="Helvetica,sans-Serif" font-size="10.00" fill="#000000">+ ConstructGeometry()</text>
<text text-anchor="start" x="194.5" y="-277.5" font-family="Helvetica,sans-Serif" font-size="10.00" fill="#000000">+ InitGeometry()</text>
<text text-anchor="start" x="194.5" y="-266.5" font-family="Helvetica,sans-Serif" font-size="10.00" fill="#000000">+ MisalignGeometry()</text>
<text text-anchor="start" x="194.5" y="-255.5" font-family="Helvetica,sans-Serif" font-size="10.00" fill="#000000">+ TrackingRmax()</text>
<text text-anchor="start" x="194.5" y="-244.5" font-family="Helvetica,sans-Serif" font-size="10.00" fill="#000000">+ TrackingZmax()</text>
<text text-anchor="start" x="194.5" y="-233.5" font-family="Helvetica,sans-Serif" font-size="10.00" fill="#000000"># finishEventCommon()</text>
<text text-anchor="start" x="194.5" y="-222.5" font-family="Helvetica,sans-Serif" font-size="10.00" fill="#000000"># ClassDefOverride()</text>
</a>
</g>
</g>
<!-- Node4&#45;&gt;Node3 -->
<g id="edge1" class="edge">
<title>Node4&#45;&gt;Node3</title>
<path fill="none" stroke="#191970" d="M367.2544,-216.5191C367.8366,-216.0098 368.4185,-215.5034 369,-215 403.0956,-185.4857 443.6891,-156.0527 478.0623,-132.5839"/>
<polygon fill="none" stroke="#191970" points="364.8013,-214.0174 359.6768,-223.2905 369.4656,-219.237 364.8013,-214.0174"/>
</g>
<!-- Node5 -->
<g id="node3" class="node">
<title>Node5</title>
<g id="a_node3"><a xlink:href="../../d8/def/classFairMCApplication.html" target="_top" xlink:title="{FairMCApplication\n||}">
<polygon fill="none" stroke="#000000" points="29,-535 29,-592 133,-592 133,-535 29,-535"/>
<text text-anchor="middle" x="81" y="-580" font-family="Helvetica,sans-Serif" font-size="10.00" fill="#000000">FairMCApplication</text>
<polyline fill="none" stroke="#000000" points="29,-573 133,-573 "/>
<text text-anchor="middle" x="81" y="-561" font-family="Helvetica,sans-Serif" font-size="10.00" fill="#000000"> </text>
<polyline fill="none" stroke="#000000" points="29,-554 133,-554 "/>
<text text-anchor="middle" x="81" y="-542" font-family="Helvetica,sans-Serif" font-size="10.00" fill="#000000"> </text>
</a>
</g>
</g>
<!-- Node5&#45;&gt;Node4 -->
<g id="edge2" class="edge">
<title>Node5&#45;&gt;Node4</title>
<path fill="none" stroke="#191970" d="M109.8103,-526.2867C132.4856,-496.9978 165.1918,-454.7523 195.3792,-415.7602"/>
<polygon fill="none" stroke="#191970" points="106.7548,-524.516 103.4006,-534.5659 112.2899,-528.8012 106.7548,-524.516"/>
</g>
<!-- Node6 -->
<g id="node4" class="node">
<title>Node6</title>
<g id="a_node4"><a xlink:href="../../d7/d2f/structo2_1_1conf_1_1SimCutParams.html" target="_top" xlink:title="{o2::conf::SimCutParams\n||+ O2ParamDef()\l}">
<polygon fill="none" stroke="#000000" points="151.5,-535 151.5,-592 284.5,-592 284.5,-535 151.5,-535"/>
<text text-anchor="middle" x="218" y="-580" font-family="Helvetica,sans-Serif" font-size="10.00" fill="#000000">o2::conf::SimCutParams</text>
<polyline fill="none" stroke="#000000" points="151.5,-573 284.5,-573 "/>
<text text-anchor="middle" x="218" y="-561" font-family="Helvetica,sans-Serif" font-size="10.00" fill="#000000"> </text>
<polyline fill="none" stroke="#000000" points="151.5,-554 284.5,-554 "/>
<text text-anchor="start" x="159.5" y="-542" font-family="Helvetica,sans-Serif" font-size="10.00" fill="#000000">+ O2ParamDef()</text>
</a>
</g>
</g>
<!-- Node6&#45;&gt;Node4 -->
<g id="edge3" class="edge">
<title>Node6&#45;&gt;Node4</title>
<path fill="none" stroke="#404040" d="M224.4168,-534.5659C230.2974,-508.0499 239.3924,-467.0396 248.13,-427.6409"/>
<polygon fill="none" stroke="#404040" points="248.1666,-427.4756 245.5606,-420.7518 250.7649,-415.7602 253.3709,-422.484 248.1666,-427.4756"/>
<text text-anchor="middle" x="283" y="-448" font-family="Helvetica,sans-Serif" font-size="10.00" fill="#000000"> #mCutParams</text>
</g>
<!-- Node7 -->
<g id="node5" class="node">
<title>Node7</title>
<g id="a_node5"><a xlink:href="../../d7/d50/classo2_1_1conf_1_1ConfigurableParamHelper.html" target="_top" xlink:title="{o2::conf::ConfigurableParam\lHelper\&lt; SimCutParams \&gt;\n||+ getName()\l+ printKeyValues()\l+ output()\l+ getDataMembers()\l+ putKeyValues()\l+ initFrom()\l+ serializeTo()\l+ Instance()\l}">
<polygon fill="none" stroke="#000000" points="21,-728 21,-873 175,-873 175,-728 21,-728"/>
<text text-anchor="start" x="29" y="-861" font-family="Helvetica,sans-Serif" font-size="10.00" fill="#000000">o2::conf::ConfigurableParam</text>
<text text-anchor="middle" x="98" y="-850" font-family="Helvetica,sans-Serif" font-size="10.00" fill="#000000">Helper&lt; SimCutParams &gt;</text>
<polyline fill="none" stroke="#000000" points="21,-843 175,-843 "/>
<text text-anchor="middle" x="98" y="-831" font-family="Helvetica,sans-Serif" font-size="10.00" fill="#000000"> </text>
<polyline fill="none" stroke="#000000" points="21,-824 175,-824 "/>
<text text-anchor="start" x="29" y="-812" font-family="Helvetica,sans-Serif" font-size="10.00" fill="#000000">+ getName()</text>
<text text-anchor="start" x="29" y="-801" font-family="Helvetica,sans-Serif" font-size="10.00" fill="#000000">+ printKeyValues()</text>
<text text-anchor="start" x="29" y="-790" font-family="Helvetica,sans-Serif" font-size="10.00" fill="#000000">+ output()</text>
<text text-anchor="start" x="29" y="-779" font-family="Helvetica,sans-Serif" font-size="10.00" fill="#000000">+ getDataMembers()</text>
<text text-anchor="start" x="29" y="-768" font-family="Helvetica,sans-Serif" font-size="10.00" fill="#000000">+ putKeyValues()</text>
<text text-anchor="start" x="29" y="-757" font-family="Helvetica,sans-Serif" font-size="10.00" fill="#000000">+ initFrom()</text>
<text text-anchor="start" x="29" y="-746" font-family="Helvetica,sans-Serif" font-size="10.00" fill="#000000">+ serializeTo()</text>
<text text-anchor="start" x="29" y="-735" font-family="Helvetica,sans-Serif" font-size="10.00" fill="#000000">+ Instance()</text>
</a>
</g>
</g>
<!-- Node7&#45;&gt;Node6 -->
<g id="edge4" class="edge">
<title>Node7&#45;&gt;Node6</title>
<path fill="none" stroke="#191970" d="M139.3587,-718.8165C161.6052,-674.8798 187.6477,-623.4457 203.4767,-592.1836"/>
<polygon fill="none" stroke="#191970" points="136.2142,-717.2789 134.8195,-727.7816 142.4593,-720.441 136.2142,-717.2789"/>
</g>
<!-- Node8 -->
<g id="node6" class="node">
<title>Node8</title>
<g id="a_node6"><a xlink:href="../../d6/d14/classo2_1_1conf_1_1ConfigurableParam.html" target="_top" xlink:title="{o2::conf::ConfigurableParam\n||+ getName()\l+ printKeyValues()\l+ toString()\l+ printAllRegisteredParamNames()\l+ printAllKeyValuePairs()\l+ readINI()\l+ readJSON()\l+ readConfigFile()\l+ writeJSON()\l+ writeINI()\l+ getValueAs()\l+ setValue()\l+ setValue()\l+ setEnumValue()\l+ setArrayValue()\l+ setValues()\l+ initialize()\l+ toCCDB()\l+ fromCCDB()\l+ updateFromString()\l+ updateFromFile()\l# ConfigurableParam()\l# ~ConfigurableParam()\l# putKeyValues()\l# output()\l# serializeTo()\l# initFrom()\l# setRegisterMode()\l# initPropertyTree()\l# updateThroughStorageMap()\l# updateThroughStorageMapWith\lConversion()\l}">
<polygon fill="none" stroke="#000000" points="0,-1109.5 0,-1507.5 188,-1507.5 188,-1109.5 0,-1109.5"/>
<text text-anchor="middle" x="94" y="-1495.5" font-family="Helvetica,sans-Serif" font-size="10.00" fill="#000000">o2::conf::ConfigurableParam</text>
<polyline fill="none" stroke="#000000" points="0,-1488.5 188,-1488.5 "/>
<text text-anchor="middle" x="94" y="-1476.5" font-family="Helvetica,sans-Serif" font-size="10.00" fill="#000000"> </text>
<polyline fill="none" stroke="#000000" points="0,-1469.5 188,-1469.5 "/>
<text text-anchor="start" x="8" y="-1457.5" font-family="Helvetica,sans-Serif" font-size="10.00" fill="#000000">+ getName()</text>
<text text-anchor="start" x="8" y="-1446.5" font-family="Helvetica,sans-Serif" font-size="10.00" fill="#000000">+ printKeyValues()</text>
<text text-anchor="start" x="8" y="-1435.5" font-family="Helvetica,sans-Serif" font-size="10.00" fill="#000000">+ toString()</text>
<text text-anchor="start" x="8" y="-1424.5" font-family="Helvetica,sans-Serif" font-size="10.00" fill="#000000">+ printAllRegisteredParamNames()</text>
<text text-anchor="start" x="8" y="-1413.5" font-family="Helvetica,sans-Serif" font-size="10.00" fill="#000000">+ printAllKeyValuePairs()</text>
<text text-anchor="start" x="8" y="-1402.5" font-family="Helvetica,sans-Serif" font-size="10.00" fill="#000000">+ readINI()</text>
<text text-anchor="start" x="8" y="-1391.5" font-family="Helvetica,sans-Serif" font-size="10.00" fill="#000000">+ readJSON()</text>
<text text-anchor="start" x="8" y="-1380.5" font-family="Helvetica,sans-Serif" font-size="10.00" fill="#000000">+ readConfigFile()</text>
<text text-anchor="start" x="8" y="-1369.5" font-family="Helvetica,sans-Serif" font-size="10.00" fill="#000000">+ writeJSON()</text>
<text text-anchor="start" x="8" y="-1358.5" font-family="Helvetica,sans-Serif" font-size="10.00" fill="#000000">+ writeINI()</text>
<text text-anchor="start" x="8" y="-1347.5" font-family="Helvetica,sans-Serif" font-size="10.00" fill="#000000">+ getValueAs()</text>
<text text-anchor="start" x="8" y="-1336.5" font-family="Helvetica,sans-Serif" font-size="10.00" fill="#000000">+ setValue()</text>
<text text-anchor="start" x="8" y="-1325.5" font-family="Helvetica,sans-Serif" font-size="10.00" fill="#000000">+ setValue()</text>
<text text-anchor="start" x="8" y="-1314.5" font-family="Helvetica,sans-Serif" font-size="10.00" fill="#000000">+ setEnumValue()</text>
<text text-anchor="start" x="8" y="-1303.5" font-family="Helvetica,sans-Serif" font-size="10.00" fill="#000000">+ setArrayValue()</text>
<text text-anchor="start" x="8" y="-1292.5" font-family="Helvetica,sans-Serif" font-size="10.00" fill="#000000">+ setValues()</text>
<text text-anchor="start" x="8" y="-1281.5" font-family="Helvetica,sans-Serif" font-size="10.00" fill="#000000">+ initialize()</text>
<text text-anchor="start" x="8" y="-1270.5" font-family="Helvetica,sans-Serif" font-size="10.00" fill="#000000">+ toCCDB()</text>
<text text-anchor="start" x="8" y="-1259.5" font-family="Helvetica,sans-Serif" font-size="10.00" fill="#000000">+ fromCCDB()</text>
<text text-anchor="start" x="8" y="-1248.5" font-family="Helvetica,sans-Serif" font-size="10.00" fill="#000000">+ updateFromString()</text>
<text text-anchor="start" x="8" y="-1237.5" font-family="Helvetica,sans-Serif" font-size="10.00" fill="#000000">+ updateFromFile()</text>
<text text-anchor="start" x="8" y="-1226.5" font-family="Helvetica,sans-Serif" font-size="10.00" fill="#000000"># ConfigurableParam()</text>
<text text-anchor="start" x="8" y="-1215.5" font-family="Helvetica,sans-Serif" font-size="10.00" fill="#000000"># ~ConfigurableParam()</text>
<text text-anchor="start" x="8" y="-1204.5" font-family="Helvetica,sans-Serif" font-size="10.00" fill="#000000"># putKeyValues()</text>
<text text-anchor="start" x="8" y="-1193.5" font-family="Helvetica,sans-Serif" font-size="10.00" fill="#000000"># output()</text>
<text text-anchor="start" x="8" y="-1182.5" font-family="Helvetica,sans-Serif" font-size="10.00" fill="#000000"># serializeTo()</text>
<text text-anchor="start" x="8" y="-1171.5" font-family="Helvetica,sans-Serif" font-size="10.00" fill="#000000"># initFrom()</text>
<text text-anchor="start" x="8" y="-1160.5" font-family="Helvetica,sans-Serif" font-size="10.00" fill="#000000"># setRegisterMode()</text>
<text text-anchor="start" x="8" y="-1149.5" font-family="Helvetica,sans-Serif" font-size="10.00" fill="#000000"># initPropertyTree()</text>
<text text-anchor="start" x="8" y="-1138.5" font-family="Helvetica,sans-Serif" font-size="10.00" fill="#000000"># updateThroughStorageMap()</text>
<text text-anchor="start" x="8" y="-1127.5" font-family="Helvetica,sans-Serif" font-size="10.00" fill="#000000"># updateThroughStorageMapWith</text>
<text text-anchor="start" x="8" y="-1116.5" font-family="Helvetica,sans-Serif" font-size="10.00" fill="#000000">Conversion()</text>
</a>
</g>
</g>
<!-- Node8&#45;&gt;Node7 -->
<g id="edge5" class="edge">
<title>Node8&#45;&gt;Node7</title>
<path fill="none" stroke="#191970" d="M95.6503,-1098.9175C96.2824,-1018.6304 96.9627,-932.2324 97.4278,-873.168"/>
<polygon fill="none" stroke="#191970" points="92.1484,-1099.1557 95.5694,-1109.183 99.1482,-1099.2109 92.1484,-1099.1557"/>
</g>
<!-- Node10 -->
<g id="node8" class="node">
<title>Node10</title>
<g id="a_node8"><a xlink:href="../../d7/d50/classo2_1_1conf_1_1ConfigurableParamHelper.html" target="_top" xlink:title="{o2::conf::ConfigurableParam\lHelper\&lt; P \&gt;\n||+ getName()\l+ printKeyValues()\l+ output()\l+ getDataMembers()\l+ putKeyValues()\l+ initFrom()\l+ serializeTo()\l+ Instance()\l}">
<polygon fill="none" stroke="#000000" points="110,-926.5 110,-1071.5 264,-1071.5 264,-926.5 110,-926.5"/>
<text text-anchor="start" x="118" y="-1059.5" font-family="Helvetica,sans-Serif" font-size="10.00" fill="#000000">o2::conf::ConfigurableParam</text>
<text text-anchor="middle" x="187" y="-1048.5" font-family="Helvetica,sans-Serif" font-size="10.00" fill="#000000">Helper&lt; P &gt;</text>
<polyline fill="none" stroke="#000000" points="110,-1041.5 264,-1041.5 "/>
<text text-anchor="middle" x="187" y="-1029.5" font-family="Helvetica,sans-Serif" font-size="10.00" fill="#000000"> </text>
<polyline fill="none" stroke="#000000" points="110,-1022.5 264,-1022.5 "/>
<text text-anchor="start" x="118" y="-1010.5" font-family="Helvetica,sans-Serif" font-size="10.00" fill="#000000">+ getName()</text>
<text text-anchor="start" x="118" y="-999.5" font-family="Helvetica,sans-Serif" font-size="10.00" fill="#000000">+ printKeyValues()</text>
<text text-anchor="start" x="118" y="-988.5" font-family="Helvetica,sans-Serif" font-size="10.00" fill="#000000">+ output()</text>
<text text-anchor="start" x="118" y="-977.5" font-family="Helvetica,sans-Serif" font-size="10.00" fill="#000000">+ getDataMembers()</text>
<text text-anchor="start" x="118" y="-966.5" font-family="Helvetica,sans-Serif" font-size="10.00" fill="#000000">+ putKeyValues()</text>
<text text-anchor="start" x="118" y="-955.5" font-family="Helvetica,sans-Serif" font-size="10.00" fill="#000000">+ initFrom()</text>
<text text-anchor="start" x="118" y="-944.5" font-family="Helvetica,sans-Serif" font-size="10.00" fill="#000000">+ serializeTo()</text>
<text text-anchor="start" x="118" y="-933.5" font-family="Helvetica,sans-Serif" font-size="10.00" fill="#000000">+ Instance()</text>
</a>
</g>
</g>
<!-- Node8&#45;&gt;Node10 -->
<g id="edge8" class="edge">
<title>Node8&#45;&gt;Node10</title>
<path fill="none" stroke="#191970" d="M156.7783,-1099.5766C159.707,-1089.83 162.5371,-1080.4114 165.2133,-1071.5052"/>
<polygon fill="none" stroke="#191970" points="153.3446,-1098.8416 153.8187,-1109.4258 160.0485,-1100.8561 153.3446,-1098.8416"/>
</g>
<!-- Node9 -->
<g id="node7" class="node">
<title>Node9</title>
<polygon fill="none" stroke="#bfbfbf" points="72,-1577.5 72,-1634.5 116,-1634.5 116,-1577.5 72,-1577.5"/>
<text text-anchor="middle" x="94" y="-1622.5" font-family="Helvetica,sans-Serif" font-size="10.00" fill="#000000">static</text>
<polyline fill="none" stroke="#bfbfbf" points="72,-1615.5 116,-1615.5 "/>
<text text-anchor="middle" x="94" y="-1603.5" font-family="Helvetica,sans-Serif" font-size="10.00" fill="#000000"> </text>
<polyline fill="none" stroke="#bfbfbf" points="72,-1596.5 116,-1596.5 "/>
<text text-anchor="middle" x="94" y="-1584.5" font-family="Helvetica,sans-Serif" font-size="10.00" fill="#000000"> </text>
</g>
<!-- Node9&#45;&gt;Node8 -->
<g id="edge6" class="edge">
<title>Node9&#45;&gt;Node8</title>
<path fill="none" stroke="#404040" d="M94,-1577.4744C94,-1562.373 94,-1542.3336 94,-1519.9805"/>
<polygon fill="none" stroke="#404040" points="94.0001,-1519.7194 90,-1513.7194 94,-1507.7194 98,-1513.7193 94.0001,-1519.7194"/>
<text text-anchor="middle" x="153" y="-1551" font-family="Helvetica,sans-Serif" font-size="10.00" fill="#000000"> #sEnumRegistry</text>
<text text-anchor="middle" x="153" y="-1540" font-family="Helvetica,sans-Serif" font-size="10.00" fill="#000000">#sValueProvenanceMap</text>
<text text-anchor="middle" x="153" y="-1529" font-family="Helvetica,sans-Serif" font-size="10.00" fill="#000000">#sKeyToStorageMap</text>
</g>
<!-- Node10&#45;&gt;Node7 -->
<g id="edge7" class="edge">
<title>Node10&#45;&gt;Node7</title>
<path fill="none" stroke="#ffa500" d="M150.2434,-917.0203C143.7198,-902.4705 136.9671,-887.4098 130.5697,-873.1413"/>
<polygon fill="#ffa500" stroke="#ffa500" points="147.2062,-918.8015 154.4912,-926.4943 153.5936,-915.9376 147.2062,-918.8015"/>
<text text-anchor="middle" x="194.5" y="-900" font-family="Helvetica,sans-Serif" font-size="10.00" fill="#000000"> &lt; SimCutParams &gt;</text>
</g>
<!-- Node11 -->
<g id="node9" class="node">
<title>Node11</title>
<polygon fill="none" stroke="#bfbfbf" points="193,-772 193,-829 243,-829 243,-772 193,-772"/>
<text text-anchor="middle" x="218" y="-817" font-family="Helvetica,sans-Serif" font-size="10.00" fill="#000000">double</text>
<polyline fill="none" stroke="#bfbfbf" points="193,-810 243,-810 "/>
<text text-anchor="middle" x="218" y="-798" font-family="Helvetica,sans-Serif" font-size="10.00" fill="#000000"> </text>
<polyline fill="none" stroke="#bfbfbf" points="193,-791 243,-791 "/>
<text text-anchor="middle" x="218" y="-779" font-family="Helvetica,sans-Serif" font-size="10.00" fill="#000000"> </text>
</g>
<!-- Node11&#45;&gt;Node6 -->
<g id="edge9" class="edge">
<title>Node11&#45;&gt;Node6</title>
<path fill="none" stroke="#404040" d="M218,-771.9123C218,-730.0965 218,-652.0444 218,-604.2344"/>
<polygon fill="none" stroke="#404040" points="218.0001,-604.1891 214,-598.1892 218,-592.1891 222,-598.1891 218.0001,-604.1891"/>
<text text-anchor="middle" x="266" y="-696" font-family="Helvetica,sans-Serif" font-size="10.00" fill="#000000"> +maxRTracking</text>
<text text-anchor="middle" x="266" y="-685" font-family="Helvetica,sans-Serif" font-size="10.00" fill="#000000">+maxAbsZTracking</text>
<text text-anchor="middle" x="266" y="-674" font-family="Helvetica,sans-Serif" font-size="10.00" fill="#000000">+ZmaxA</text>
<text text-anchor="middle" x="266" y="-663" font-family="Helvetica,sans-Serif" font-size="10.00" fill="#000000">+ZmaxC</text>
</g>
<!-- Node12 -->
<g id="node10" class="node">
<title>Node12</title>
<polygon fill="none" stroke="#bfbfbf" points="318,-772 318,-829 356,-829 356,-772 318,-772"/>
<text text-anchor="middle" x="337" y="-817" font-family="Helvetica,sans-Serif" font-size="10.00" fill="#000000">bool</text>
<polyline fill="none" stroke="#bfbfbf" points="318,-810 356,-810 "/>
<text text-anchor="middle" x="337" y="-798" font-family="Helvetica,sans-Serif" font-size="10.00" fill="#000000"> </text>
<polyline fill="none" stroke="#bfbfbf" points="318,-791 356,-791 "/>
<text text-anchor="middle" x="337" y="-779" font-family="Helvetica,sans-Serif" font-size="10.00" fill="#000000"> </text>
</g>
<!-- Node12&#45;&gt;Node6 -->
<g id="edge10" class="edge">
<title>Node12&#45;&gt;Node6</title>
<path fill="none" stroke="#404040" d="M338.1601,-771.9865C338.1392,-742.2066 334.542,-695.0395 315,-660 309.0124,-649.2641 302.9516,-650.425 294,-642 280.1953,-629.0074 265.5866,-614.1957 252.9054,-600.9653"/>
<polygon fill="none" stroke="#404040" points="252.7408,-600.7924 245.7068,-599.204 244.4676,-592.1002 251.5016,-593.6885 252.7408,-600.7924"/>
<text text-anchor="middle" x="365.5" y="-685" font-family="Helvetica,sans-Serif" font-size="10.00" fill="#000000"> +trackSeed</text>
<text text-anchor="middle" x="365.5" y="-674" font-family="Helvetica,sans-Serif" font-size="10.00" fill="#000000">+stepFiltering</text>
</g>
<!-- Node13 -->
<g id="node11" class="node">
<title>Node13</title>
<polygon fill="none" stroke="#bfbfbf" points="303,-535 303,-592 431,-592 431,-535 303,-535"/>
<text text-anchor="middle" x="367" y="-580" font-family="Helvetica,sans-Serif" font-size="10.00" fill="#000000">map&lt; int, std::string &gt;</text>
<polyline fill="none" stroke="#bfbfbf" points="303,-573 431,-573 "/>
<text text-anchor="middle" x="367" y="-561" font-family="Helvetica,sans-Serif" font-size="10.00" fill="#000000"> </text>
<polyline fill="none" stroke="#bfbfbf" points="303,-554 431,-554 "/>
<text text-anchor="middle" x="367" y="-542" font-family="Helvetica,sans-Serif" font-size="10.00" fill="#000000"> </text>
</g>
<!-- Node13&#45;&gt;Node4 -->
<g id="edge11" class="edge">
<title>Node13&#45;&gt;Node4</title>
<path fill="none" stroke="#404040" d="M358.2983,-534.9595C350.0651,-508.554 337.0555,-468.3196 324,-434 323.1134,-431.6695 322.2076,-429.3175 321.2857,-426.9505"/>
<polygon fill="none" stroke="#404040" points="321.2831,-426.9439 315.3559,-422.8368 316.8673,-415.7859 322.7946,-419.893 321.2831,-426.9439"/>
<text text-anchor="middle" x="389" y="-453.5" font-family="Helvetica,sans-Serif" font-size="10.00" fill="#000000"> #mModIdToName</text>
<text text-anchor="middle" x="389" y="-442.5" font-family="Helvetica,sans-Serif" font-size="10.00" fill="#000000">#mSensitiveVolumes</text>
</g>
<!-- Node14 -->
<g id="node12" class="node">
<title>Node14</title>
<polygon fill="none" stroke="#bfbfbf" points="457.5,-535 457.5,-592 518.5,-592 518.5,-535 457.5,-535"/>
<text text-anchor="middle" x="488" y="-580" font-family="Helvetica,sans-Serif" font-size="10.00" fill="#000000">unsigned</text>
<polyline fill="none" stroke="#bfbfbf" points="457.5,-573 518.5,-573 "/>
<text text-anchor="middle" x="488" y="-561" font-family="Helvetica,sans-Serif" font-size="10.00" fill="#000000"> </text>
<polyline fill="none" stroke="#bfbfbf" points="457.5,-554 518.5,-554 "/>
<text text-anchor="middle" x="488" y="-542" font-family="Helvetica,sans-Serif" font-size="10.00" fill="#000000"> </text>
</g>
<!-- Node14&#45;&gt;Node4 -->
<g id="edge12" class="edge">
<title>Node14&#45;&gt;Node4</title>
<path fill="none" stroke="#404040" d="M486.6275,-534.9691C483.6336,-505.4454 474.3614,-460.0744 446,-434 422.6542,-412.5368 403.593,-429.3449 370.8341,-415.7881"/>
<polygon fill="none" stroke="#404040" points="370.4327,-415.5879 363.2782,-416.4898 359.694,-410.2325 366.8485,-409.3306 370.4327,-415.5879"/>
<text text-anchor="middle" x="511" y="-448" font-family="Helvetica,sans-Serif" font-size="10.00" fill="#000000"> #mStepCounter</text>
</g>
<!-- Node15 -->
<g id="node13" class="node">
<title>Node15</title>
<polygon fill="none" stroke="#bfbfbf" points="378,-287 378,-344 476,-344 476,-287 378,-287"/>
<text text-anchor="middle" x="427" y="-332" font-family="Helvetica,sans-Serif" font-size="10.00" fill="#000000">FairMQChannel *</text>
<polyline fill="none" stroke="#bfbfbf" points="378,-325 476,-325 "/>
<text text-anchor="middle" x="427" y="-313" font-family="Helvetica,sans-Serif" font-size="10.00" fill="#000000"> </text>
<polyline fill="none" stroke="#bfbfbf" points="378,-306 476,-306 "/>
<text text-anchor="middle" x="427" y="-294" font-family="Helvetica,sans-Serif" font-size="10.00" fill="#000000"> </text>
</g>
<!-- Node15&#45;&gt;Node3 -->
<g id="edge13" class="edge">
<title>Node15&#45;&gt;Node3</title>
<path fill="none" stroke="#404040" d="M425.9692,-286.8553C426.1516,-259.4779 429.5527,-217.7861 446,-186 452.3399,-173.7474 460.735,-162.1431 470.0427,-151.4551"/>
<polygon fill="none" stroke="#404040" points="470.3205,-151.152 471.4255,-144.026 478.4283,-142.3053 477.3233,-149.4312 470.3205,-151.152"/>
<text text-anchor="middle" x="497.5" y="-189" font-family="Helvetica,sans-Serif" font-size="10.00" fill="#000000"> +mSimDataChannel</text>
</g>
<!-- Node16 -->
<g id="node14" class="node">
<title>Node16</title>
<polygon fill="none" stroke="#bfbfbf" points="496,-287 496,-344 608,-344 608,-287 496,-287"/>
<text text-anchor="middle" x="552" y="-332" font-family="Helvetica,sans-Serif" font-size="10.00" fill="#000000">vector&lt; TParticle &gt;</text>
<polyline fill="none" stroke="#bfbfbf" points="496,-325 608,-325 "/>
<text text-anchor="middle" x="552" y="-313" font-family="Helvetica,sans-Serif" font-size="10.00" fill="#000000"> </text>
<polyline fill="none" stroke="#bfbfbf" points="496,-306 608,-306 "/>
<text text-anchor="middle" x="552" y="-294" font-family="Helvetica,sans-Serif" font-size="10.00" fill="#000000"> </text>
</g>
<!-- Node16&#45;&gt;Node3 -->
<g id="edge14" class="edge">
<title>Node16&#45;&gt;Node3</title>
<path fill="none" stroke="#404040" d="M552.1246,-286.6484C552.2404,-259.8528 552.4194,-218.4156 552.5854,-179.9766"/>
<polygon fill="none" stroke="#404040" points="552.5868,-179.624 548.6128,-173.6067 552.6388,-167.6241 556.6128,-173.6414 552.5868,-179.624"/>
<text text-anchor="middle" x="587" y="-189" font-family="Helvetica,sans-Serif" font-size="10.00" fill="#000000"> +mPrimaries</text>
</g>
<!-- Node17 -->
<g id="node15" class="node">
<title>Node17</title>
<polygon fill="none" stroke="#bfbfbf" points="626.5,-287 626.5,-344 793.5,-344 793.5,-287 626.5,-287"/>
<text text-anchor="middle" x="710" y="-332" font-family="Helvetica,sans-Serif" font-size="10.00" fill="#000000">vector&lt; o2::base::Detector * &gt;</text>
<polyline fill="none" stroke="#bfbfbf" points="626.5,-325 793.5,-325 "/>
<text text-anchor="middle" x="710" y="-313" font-family="Helvetica,sans-Serif" font-size="10.00" fill="#000000"> </text>
<polyline fill="none" stroke="#bfbfbf" points="626.5,-306 793.5,-306 "/>
<text text-anchor="middle" x="710" y="-294" font-family="Helvetica,sans-Serif" font-size="10.00" fill="#000000"> </text>
</g>
<!-- Node17&#45;&gt;Node3 -->
<g id="edge15" class="edge">
<title>Node17&#45;&gt;Node3</title>
<path fill="none" stroke="#404040" d="M691.5374,-286.7678C674.5021,-260.4026 648.3836,-220.3452 625,-186 623.1483,-183.2802 621.263,-180.5244 619.3546,-177.7463"/>
<polygon fill="none" stroke="#404040" points="619.1787,-177.4912 612.4786,-174.8249 612.3628,-167.6147 619.0629,-170.281 619.1787,-177.4912"/>
<text text-anchor="middle" x="689.5" y="-189" font-family="Helvetica,sans-Serif" font-size="10.00" fill="#000000"> +mActiveO2Detectors</text>
</g>
<!-- Node18 -->
<g id="node16" class="node">
<title>Node18</title>
<g id="a_node16"><a xlink:href="../../d5/dbc/structo2_1_1data_1_1SubEventInfo.html" target="_top" xlink:title="{o2::data::SubEventInfo\n||+ ClassDefNV()\l}">
<polygon fill="none" stroke="#000000" points="811.5,-287 811.5,-344 938.5,-344 938.5,-287 811.5,-287"/>
<text text-anchor="middle" x="875" y="-332" font-family="Helvetica,sans-Serif" font-size="10.00" fill="#000000">o2::data::SubEventInfo</text>
<polyline fill="none" stroke="#000000" points="811.5,-325 938.5,-325 "/>
<text text-anchor="middle" x="875" y="-313" font-family="Helvetica,sans-Serif" font-size="10.00" fill="#000000"> </text>
<polyline fill="none" stroke="#000000" points="811.5,-306 938.5,-306 "/>
<text text-anchor="start" x="819.5" y="-294" font-family="Helvetica,sans-Serif" font-size="10.00" fill="#000000">+ ClassDefNV()</text>
</a>
</g>
</g>
<!-- Node18&#45;&gt;Node3 -->
<g id="edge16" class="edge">
<title>Node18&#45;&gt;Node3</title>
<path fill="none" stroke="#404040" d="M858.9217,-286.9058C845.7042,-265.2372 825.3913,-235.7512 802,-215 754.0852,-172.4932 689.9262,-139.1616 638.7356,-116.7584"/>
<polygon fill="none" stroke="#404040" points="638.7109,-116.7478 631.6183,-118.0501 627.6883,-112.004 634.7808,-110.7017 638.7109,-116.7478"/>
<text text-anchor="middle" x="822" y="-189" font-family="Helvetica,sans-Serif" font-size="10.00" fill="#000000"> +mSubEventInfo</text>
</g>
<!-- Node19 -->
<g id="node17" class="node">
<title>Node19</title>
<g id="a_node17"><a xlink:href="../../d4/db1/classo2_1_1dataformats_1_1MCEventHeader.html" target="_top" xlink:title="{o2::dataformats::MCEvent\lHeader\n||+ MCEventHeader()\l+ MCEventHeader()\l+ operator=()\l+ ~MCEventHeader()\l+ setEmbeddingFileName()\l+ setEmbeddingEventIndex()\l+ Reset()\l+ getMCEventStats()\l# ClassDefOverride()\l}">
<polygon fill="none" stroke="#000000" points="605,-485.5 605,-641.5 765,-641.5 765,-485.5 605,-485.5"/>
<text text-anchor="start" x="613" y="-629.5" font-family="Helvetica,sans-Serif" font-size="10.00" fill="#000000">o2::dataformats::MCEvent</text>
<text text-anchor="middle" x="685" y="-618.5" font-family="Helvetica,sans-Serif" font-size="10.00" fill="#000000">Header</text>
<polyline fill="none" stroke="#000000" points="605,-611.5 765,-611.5 "/>
<text text-anchor="middle" x="685" y="-599.5" font-family="Helvetica,sans-Serif" font-size="10.00" fill="#000000"> </text>
<polyline fill="none" stroke="#000000" points="605,-592.5 765,-592.5 "/>
<text text-anchor="start" x="613" y="-580.5" font-family="Helvetica,sans-Serif" font-size="10.00" fill="#000000">+ MCEventHeader()</text>
<text text-anchor="start" x="613" y="-569.5" font-family="Helvetica,sans-Serif" font-size="10.00" fill="#000000">+ MCEventHeader()</text>
<text text-anchor="start" x="613" y="-558.5" font-family="Helvetica,sans-Serif" font-size="10.00" fill="#000000">+ operator=()</text>
<text text-anchor="start" x="613" y="-547.5" font-family="Helvetica,sans-Serif" font-size="10.00" fill="#000000">+ ~MCEventHeader()</text>
<text text-anchor="start" x="613" y="-536.5" font-family="Helvetica,sans-Serif" font-size="10.00" fill="#000000">+ setEmbeddingFileName()</text>
<text text-anchor="start" x="613" y="-525.5" font-family="Helvetica,sans-Serif" font-size="10.00" fill="#000000">+ setEmbeddingEventIndex()</text>
<text text-anchor="start" x="613" y="-514.5" font-family="Helvetica,sans-Serif" font-size="10.00" fill="#000000">+ Reset()</text>
<text text-anchor="start" x="613" y="-503.5" font-family="Helvetica,sans-Serif" font-size="10.00" fill="#000000">+ getMCEventStats()</text>
<text text-anchor="start" x="613" y="-492.5" font-family="Helvetica,sans-Serif" font-size="10.00" fill="#000000"># ClassDefOverride()</text>
</a>
</g>
</g>
<!-- Node19&#45;&gt;Node18 -->
<g id="edge17" class="edge">
<title>Node19&#45;&gt;Node18</title>
<path fill="none" stroke="#404040" d="M692.564,-485.287C697.9127,-466.294 706.6961,-447.5723 721,-434 747.752,-408.6163 771.1655,-436.2296 802,-416 824.8781,-400.9904 843.0106,-376.171 855.4815,-354.9533"/>
<polygon fill="none" stroke="#404040" points="855.6109,-354.7227 855.058,-347.5328 861.4821,-344.2571 862.035,-351.447 855.6109,-354.7227"/>
<text text-anchor="middle" x="771" y="-448" font-family="Helvetica,sans-Serif" font-size="10.00" fill="#000000"> +mMCEventHeader</text>
</g>
<!-- Node20 -->
<g id="node18" class="node">
<title>Node20</title>
<g id="a_node18"><a xlink:href="../../dd/d8f/classFairMCEventHeader.html" target="_top" xlink:title="{FairMCEventHeader\n||}">
<polygon fill="none" stroke="#000000" points="428,-772 428,-829 540,-829 540,-772 428,-772"/>
<text text-anchor="middle" x="484" y="-817" font-family="Helvetica,sans-Serif" font-size="10.00" fill="#000000">FairMCEventHeader</text>
<polyline fill="none" stroke="#000000" points="428,-810 540,-810 "/>
<text text-anchor="middle" x="484" y="-798" font-family="Helvetica,sans-Serif" font-size="10.00" fill="#000000"> </text>
<polyline fill="none" stroke="#000000" points="428,-791 540,-791 "/>
<text text-anchor="middle" x="484" y="-779" font-family="Helvetica,sans-Serif" font-size="10.00" fill="#000000"> </text>
</a>
</g>
</g>
<!-- Node20&#45;&gt;Node19 -->
<g id="edge18" class="edge">
<title>Node20&#45;&gt;Node19</title>
<path fill="none" stroke="#191970" d="M498.8853,-762.6805C511.8497,-732.762 532.6836,-691.0059 559,-660 572.2832,-644.3498 588.5061,-629.6359 604.8327,-616.6388"/>
<polygon fill="none" stroke="#191970" points="495.6366,-761.3768 494.9557,-771.9498 502.0813,-764.1091 495.6366,-761.3768"/>
</g>
<!-- Node21 -->
<g id="node19" class="node">
<title>Node21</title>
<polygon fill="none" stroke="#bfbfbf" points="558.5,-772 558.5,-829 587.5,-829 587.5,-772 558.5,-772"/>
<text text-anchor="middle" x="573" y="-817" font-family="Helvetica,sans-Serif" font-size="10.00" fill="#000000">int</text>
<polyline fill="none" stroke="#bfbfbf" points="558.5,-810 587.5,-810 "/>
<text text-anchor="middle" x="573" y="-798" font-family="Helvetica,sans-Serif" font-size="10.00" fill="#000000"> </text>
<polyline fill="none" stroke="#bfbfbf" points="558.5,-791 587.5,-791 "/>
<text text-anchor="middle" x="573" y="-779" font-family="Helvetica,sans-Serif" font-size="10.00" fill="#000000"> </text>
</g>
<!-- Node21&#45;&gt;Node19 -->
<g id="edge19" class="edge">
<title>Node21&#45;&gt;Node19</title>
<path fill="none" stroke="#404040" d="M566.2897,-771.8382C560.8812,-742.3551 556.5851,-695.8108 573,-660 578.7076,-647.5484 586.9028,-636.0945 596.3004,-625.7635"/>
<polygon fill="none" stroke="#404040" points="596.4745,-625.5843 597.7863,-618.4935 604.8361,-616.977 603.5244,-624.0679 596.4745,-625.5843"/>
<text text-anchor="middle" x="634" y="-679.5" font-family="Helvetica,sans-Serif" font-size="10.00" fill="#000000"> #mEmbeddingFileName</text>
</g>
<!-- Node22 -->
<g id="node20" class="node">
<title>Node22</title>
<polygon fill="none" stroke="#bfbfbf" points="699,-772 699,-829 737,-829 737,-772 699,-772"/>
<text text-anchor="middle" x="718" y="-817" font-family="Helvetica,sans-Serif" font-size="10.00" fill="#000000">Int_t</text>
<polyline fill="none" stroke="#bfbfbf" points="699,-810 737,-810 "/>
<text text-anchor="middle" x="718" y="-798" font-family="Helvetica,sans-Serif" font-size="10.00" fill="#000000"> </text>
<polyline fill="none" stroke="#bfbfbf" points="699,-791 737,-791 "/>
<text text-anchor="middle" x="718" y="-779" font-family="Helvetica,sans-Serif" font-size="10.00" fill="#000000"> </text>
</g>
<!-- Node22&#45;&gt;Node19 -->
<g id="edge20" class="edge">
<title>Node22&#45;&gt;Node19</title>
<path fill="none" stroke="#404040" d="M714.0194,-771.9123C709.9463,-742.6596 703.4039,-695.6735 697.5613,-653.713"/>
<polygon fill="none" stroke="#404040" points="697.5497,-653.6288 692.7604,-648.2378 695.8947,-641.7434 700.6839,-647.1344 697.5497,-653.6288"/>
<text text-anchor="middle" x="770.5" y="-679.5" font-family="Helvetica,sans-Serif" font-size="10.00" fill="#000000"> #mEmbeddingEventIndex</text>
</g>
<!-- Node23 -->
<g id="node21" class="node">
<title>Node23</title>
<g id="a_node21"><a xlink:href="../../d9/ddb/classo2_1_1dataformats_1_1MCEventStats.html" target="_top" xlink:title="{o2::dataformats::MCEvent\lStats\n||+ setNHits()\l+ getNHits()\l+ setNTransportedTracks()\l+ getNTransportedTracks()\l+ setNKeptTracks()\l+ getNKeptTracks()\l+ setNSteps()\l+ getNSteps()\l+ add()\l}">
<polygon fill="none" stroke="#000000" points="799,-722.5 799,-878.5 945,-878.5 945,-722.5 799,-722.5"/>
<text text-anchor="start" x="807" y="-866.5" font-family="Helvetica,sans-Serif" font-size="10.00" fill="#000000">o2::dataformats::MCEvent</text>
<text text-anchor="middle" x="872" y="-855.5" font-family="Helvetica,sans-Serif" font-size="10.00" fill="#000000">Stats</text>
<polyline fill="none" stroke="#000000" points="799,-848.5 945,-848.5 "/>
<text text-anchor="middle" x="872" y="-836.5" font-family="Helvetica,sans-Serif" font-size="10.00" fill="#000000"> </text>
<polyline fill="none" stroke="#000000" points="799,-829.5 945,-829.5 "/>
<text text-anchor="start" x="807" y="-817.5" font-family="Helvetica,sans-Serif" font-size="10.00" fill="#000000">+ setNHits()</text>
<text text-anchor="start" x="807" y="-806.5" font-family="Helvetica,sans-Serif" font-size="10.00" fill="#000000">+ getNHits()</text>
<text text-anchor="start" x="807" y="-795.5" font-family="Helvetica,sans-Serif" font-size="10.00" fill="#000000">+ setNTransportedTracks()</text>
<text text-anchor="start" x="807" y="-784.5" font-family="Helvetica,sans-Serif" font-size="10.00" fill="#000000">+ getNTransportedTracks()</text>
<text text-anchor="start" x="807" y="-773.5" font-family="Helvetica,sans-Serif" font-size="10.00" fill="#000000">+ setNKeptTracks()</text>
<text text-anchor="start" x="807" y="-762.5" font-family="Helvetica,sans-Serif" font-size="10.00" fill="#000000">+ getNKeptTracks()</text>
<text text-anchor="start" x="807" y="-751.5" font-family="Helvetica,sans-Serif" font-size="10.00" fill="#000000">+ setNSteps()</text>
<text text-anchor="start" x="807" y="-740.5" font-family="Helvetica,sans-Serif" font-size="10.00" fill="#000000">+ getNSteps()</text>
<text text-anchor="start" x="807" y="-729.5" font-family="Helvetica,sans-Serif" font-size="10.00" fill="#000000">+ add()</text>
</a>
</g>
</g>
<!-- Node23&#45;&gt;Node19 -->
<g id="edge21" class="edge">
<title>Node23&#45;&gt;Node19</title>
<path fill="none" stroke="#404040" d="M869.1098,-722.2168C864.6322,-699.682 856.0132,-676.7055 840,-660 821.2615,-640.4513 804.7769,-652.8923 776.1885,-641.9989"/>
<polygon fill="none" stroke="#404040" points="775.9603,-641.8926 768.8325,-642.9861 765.0817,-636.8273 772.2094,-635.7338 775.9603,-641.8926"/>
<text text-anchor="middle" x="902" y="-679.5" font-family="Helvetica,sans-Serif" font-size="10.00" fill="#000000"> #mEventStats</text>
</g>
<!-- Node24 -->
<g id="node22" class="node">
<title>Node24</title>
<polygon fill="none" stroke="#bfbfbf" points="783,-535 783,-592 839,-592 839,-535 783,-535"/>
<text text-anchor="middle" x="811" y="-580" font-family="Helvetica,sans-Serif" font-size="10.00" fill="#000000">uint16_t</text>
<polyline fill="none" stroke="#bfbfbf" points="783,-573 839,-573 "/>
<text text-anchor="middle" x="811" y="-561" font-family="Helvetica,sans-Serif" font-size="10.00" fill="#000000"> </text>
<polyline fill="none" stroke="#bfbfbf" points="783,-554 839,-554 "/>
<text text-anchor="middle" x="811" y="-542" font-family="Helvetica,sans-Serif" font-size="10.00" fill="#000000"> </text>
</g>
<!-- Node24&#45;&gt;Node18 -->
<g id="edge22" class="edge">
<title>Node24&#45;&gt;Node18</title>
<path fill="none" stroke="#404040" d="M814.0778,-534.8881C817.2903,-508.4335 823.1144,-468.1668 832,-434 838.9423,-407.3054 849.4709,-378.1741 858.3721,-355.4753"/>
<polygon fill="none" stroke="#404040" points="858.4078,-355.3857 856.9136,-348.3311 862.8509,-344.2386 864.3451,-351.2932 858.4078,-355.3857"/>
<text text-anchor="middle" x="852" y="-453.5" font-family="Helvetica,sans-Serif" font-size="10.00" fill="#000000"> +part</text>
<text text-anchor="middle" x="852" y="-442.5" font-family="Helvetica,sans-Serif" font-size="10.00" fill="#000000">+nparts</text>
</g>
<!-- Node25 -->
<g id="node23" class="node">
<title>Node25</title>
<g id="a_node23"><a xlink:href="../../d4/dc3/classfloat.html" target="_top" xlink:title="{float\n||}">
<polygon fill="none" stroke="#000000" points="857,-535 857,-592 895,-592 895,-535 857,-535"/>
<text text-anchor="middle" x="876" y="-580" font-family="Helvetica,sans-Serif" font-size="10.00" fill="#000000">float</text>
<polyline fill="none" stroke="#000000" points="857,-573 895,-573 "/>
<text text-anchor="middle" x="876" y="-561" font-family="Helvetica,sans-Serif" font-size="10.00" fill="#000000"> </text>
<polyline fill="none" stroke="#000000" points="857,-554 895,-554 "/>
<text text-anchor="middle" x="876" y="-542" font-family="Helvetica,sans-Serif" font-size="10.00" fill="#000000"> </text>
</a>
</g>
</g>
<!-- Node25&#45;&gt;Node18 -->
<g id="edge23" class="edge">
<title>Node25&#45;&gt;Node18</title>
<path fill="none" stroke="#404040" d="M875.8833,-534.5659C875.7061,-490.6056 875.3682,-406.8066 875.1656,-356.5603"/>
<polygon fill="none" stroke="#404040" points="875.1644,-356.2497 871.1402,-350.2659 875.1159,-344.2498 879.1401,-350.2336 875.1644,-356.2497"/>
<text text-anchor="middle" x="907" y="-448" font-family="Helvetica,sans-Serif" font-size="10.00" fill="#000000"> +eventtime</text>
</g>
<!-- Node26 -->
<g id="node24" class="node">
<title>Node26</title>
<polygon fill="none" stroke="#bfbfbf" points="935,-535 935,-592 985,-592 985,-535 935,-535"/>
<text text-anchor="middle" x="960" y="-580" font-family="Helvetica,sans-Serif" font-size="10.00" fill="#000000">int32_t</text>
<polyline fill="none" stroke="#bfbfbf" points="935,-573 985,-573 "/>
<text text-anchor="middle" x="960" y="-561" font-family="Helvetica,sans-Serif" font-size="10.00" fill="#000000"> </text>
<polyline fill="none" stroke="#bfbfbf" points="935,-554 985,-554 "/>
<text text-anchor="middle" x="960" y="-542" font-family="Helvetica,sans-Serif" font-size="10.00" fill="#000000"> </text>
</g>
<!-- Node26&#45;&gt;Node18 -->
<g id="edge24" class="edge">
<title>Node26&#45;&gt;Node18</title>
<path fill="none" stroke="#404040" d="M957.7794,-534.8148C955.0988,-508.1348 949.4393,-467.5656 938,-434 928.505,-406.1395 913.0397,-376.9195 899.8086,-354.466"/>
<polygon fill="none" stroke="#404040" points="899.7128,-354.3065 893.1928,-351.2259 893.5288,-344.0226 900.0488,-347.1032 899.7128,-354.3065"/>
<text text-anchor="middle" x="993" y="-459" font-family="Helvetica,sans-Serif" font-size="10.00" fill="#000000"> +runID</text>
<text text-anchor="middle" x="993" y="-448" font-family="Helvetica,sans-Serif" font-size="10.00" fill="#000000">+maxEvents</text>
<text text-anchor="middle" x="993" y="-437" font-family="Helvetica,sans-Serif" font-size="10.00" fill="#000000">+npersistenttracks</text>
</g>
<!-- Node27 -->
<g id="node25" class="node">
<title>Node27</title>
<polygon fill="none" stroke="#bfbfbf" points="1049,-535 1049,-592 1105,-592 1105,-535 1049,-535"/>
<text text-anchor="middle" x="1077" y="-580" font-family="Helvetica,sans-Serif" font-size="10.00" fill="#000000">uint32_t</text>
<polyline fill="none" stroke="#bfbfbf" points="1049,-573 1105,-573 "/>
<text text-anchor="middle" x="1077" y="-561" font-family="Helvetica,sans-Serif" font-size="10.00" fill="#000000"> </text>
<polyline fill="none" stroke="#bfbfbf" points="1049,-554 1105,-554 "/>
<text text-anchor="middle" x="1077" y="-542" font-family="Helvetica,sans-Serif" font-size="10.00" fill="#000000"> </text>
</g>
<!-- Node27&#45;&gt;Node18 -->
<g id="edge25" class="edge">
<title>Node27&#45;&gt;Node18</title>
<path fill="none" stroke="#404040" d="M1075.406,-534.8866C1072.6162,-506.9587 1064.9632,-464.3546 1044,-434 1019.4558,-398.4601 980.5603,-370.1177 946.2683,-350.0736"/>
<polygon fill="none" stroke="#404040" points="946.2274,-350.0504 939.0345,-350.5631 935.7948,-344.1207 942.9877,-343.608 946.2274,-350.0504"/>
<text text-anchor="middle" x="1083.5" y="-459" font-family="Helvetica,sans-Serif" font-size="10.00" fill="#000000"> +index</text>
<text text-anchor="middle" x="1083.5" y="-448" font-family="Helvetica,sans-Serif" font-size="10.00" fill="#000000">+eventID</text>
<text text-anchor="middle" x="1083.5" y="-437" font-family="Helvetica,sans-Serif" font-size="10.00" fill="#000000">+seed</text>
</g>
</g>
</svg>
