<?xml version="1.0" encoding="UTF-8" standalone="no"?>
<!DOCTYPE svg PUBLIC "-//W3C//DTD SVG 1.1//EN"
 "http://www.w3.org/Graphics/SVG/1.1/DTD/svg11.dtd">
<!-- Generated by graphviz version 2.40.1 (20161225.0304)
 -->
<!-- Title: /home/travis/build/AliceO2Group/AliceO2/Generators/src/GeneratorTGenerator.cxx Pages: 1 -->
<svg width="679pt" height="218pt"
 viewBox="0.00 0.00 679.00 218.00" xmlns="http://www.w3.org/2000/svg" xmlns:xlink="http://www.w3.org/1999/xlink">
<g id="graph0" class="graph" transform="scale(1 1) rotate(0) translate(4 214)">
<title>/home/travis/build/AliceO2Group/AliceO2/Generators/src/GeneratorTGenerator.cxx</title>
<!-- Node0 -->
<g id="node1" class="node">
<title>Node0</title>
<polygon fill="#bfbfbf" stroke="#000000" points="292,-168.5 292,-209.5 509,-209.5 509,-168.5 292,-168.5"/>
<text text-anchor="start" x="300" y="-197.5" font-family="Helvetica,sans-Serif" font-size="10.00" fill="#000000">/home/travis/build</text>
<text text-anchor="start" x="300" y="-186.5" font-family="Helvetica,sans-Serif" font-size="10.00" fill="#000000">/AliceO2Group/AliceO2</text>
<text text-anchor="middle" x="400.5" y="-175.5" font-family="Helvetica,sans-Serif" font-size="10.00" fill="#000000">/Generators/src/GeneratorTGenerator.cxx</text>
</g>
<!-- Node1 -->
<g id="node2" class="node">
<title>Node1</title>
<g id="a_node2"><a xlink:href="../../d2/d3c/GeneratorTGenerator_8h.html" target="_top" xlink:title="Generators/GeneratorTGenerator.h">
<polygon fill="none" stroke="#000000" points="40,-112.5 40,-131.5 225,-131.5 225,-112.5 40,-112.5"/>
<text text-anchor="middle" x="132.5" y="-119.5" font-family="Helvetica,sans-Serif" font-size="10.00" fill="#000000">Generators/GeneratorTGenerator.h</text>
</a>
</g>
</g>
<!-- Node0&#45;&gt;Node1 -->
<g id="edge1" class="edge">
<title>Node0&#45;&gt;Node1</title>
<path fill="none" stroke="#191970" d="M318.2699,-168.4425C273.0715,-157.1429 218.5872,-143.5218 180.3501,-133.9625"/>
<polygon fill="#191970" stroke="#191970" points="181.0571,-130.5316 170.5067,-131.5017 179.3593,-137.3226 181.0571,-130.5316"/>
</g>
<!-- Node6 -->
<g id="node7" class="node">
<title>Node6</title>
<polygon fill="none" stroke="#bfbfbf" points="243,-112.5 243,-131.5 318,-131.5 318,-112.5 243,-112.5"/>
<text text-anchor="middle" x="280.5" y="-119.5" font-family="Helvetica,sans-Serif" font-size="10.00" fill="#000000">FairLogger.h</text>
</g>
<!-- Node0&#45;&gt;Node6 -->
<g id="edge6" class="edge">
<title>Node0&#45;&gt;Node6</title>
<path fill="none" stroke="#191970" d="M363.5169,-168.3511C345.2106,-158.1301 323.5351,-146.0279 306.9236,-136.7532"/>
<polygon fill="#191970" stroke="#191970" points="308.2294,-133.4737 297.7919,-131.6546 304.8169,-139.5856 308.2294,-133.4737"/>
</g>
<!-- Node7 -->
<g id="node8" class="node">
<title>Node7</title>
<polygon fill="none" stroke="#bfbfbf" points="336,-112.5 336,-131.5 465,-131.5 465,-112.5 336,-112.5"/>
<text text-anchor="middle" x="400.5" y="-119.5" font-family="Helvetica,sans-Serif" font-size="10.00" fill="#000000">FairPrimaryGenerator.h</text>
</g>
<!-- Node0&#45;&gt;Node7 -->
<g id="edge7" class="edge">
<title>Node0&#45;&gt;Node7</title>
<path fill="none" stroke="#191970" d="M400.5,-168.168C400.5,-159.8226 400.5,-150.2471 400.5,-141.9879"/>
<polygon fill="#191970" stroke="#191970" points="404.0001,-141.7804 400.5,-131.7805 397.0001,-141.7805 404.0001,-141.7804"/>
</g>
<!-- Node8 -->
<g id="node9" class="node">
<title>Node8</title>
<polygon fill="none" stroke="#bfbfbf" points="483.5,-112.5 483.5,-131.5 563.5,-131.5 563.5,-112.5 483.5,-112.5"/>
<text text-anchor="middle" x="523.5" y="-119.5" font-family="Helvetica,sans-Serif" font-size="10.00" fill="#000000">TGenerator.h</text>
</g>
<!-- Node0&#45;&gt;Node8 -->
<g id="edge8" class="edge">
<title>Node0&#45;&gt;Node8</title>
<path fill="none" stroke="#191970" d="M438.4077,-168.3511C457.347,-158.0346 479.8046,-145.8015 496.8919,-136.4939"/>
<polygon fill="#191970" stroke="#191970" points="498.6684,-139.5118 505.7758,-131.6546 495.3199,-133.3646 498.6684,-139.5118"/>
</g>
<!-- Node9 -->
<g id="node10" class="node">
<title>Node9</title>
<polygon fill="none" stroke="#bfbfbf" points="582,-112.5 582,-131.5 671,-131.5 671,-112.5 582,-112.5"/>
<text text-anchor="middle" x="626.5" y="-119.5" font-family="Helvetica,sans-Serif" font-size="10.00" fill="#000000">TClonesArray.h</text>
</g>
<!-- Node0&#45;&gt;Node9 -->
<g id="edge9" class="edge">
<title>Node0&#45;&gt;Node9</title>
<path fill="none" stroke="#191970" d="M469.8433,-168.4425C507.3096,-157.3352 552.3422,-143.9848 584.4905,-134.4542"/>
<polygon fill="#191970" stroke="#191970" points="585.8568,-137.6997 594.4496,-131.5017 583.8672,-130.9884 585.8568,-137.6997"/>
</g>
<!-- Node2 -->
<g id="node3" class="node">
<title>Node2</title>
<g id="a_node3"><a xlink:href="../../d9/d12/Generator_8h.html" target="_top" xlink:title="Generators/Generator.h">
<polygon fill="none" stroke="#000000" points="67,-56.5 67,-75.5 198,-75.5 198,-56.5 67,-56.5"/>
<text text-anchor="middle" x="132.5" y="-63.5" font-family="Helvetica,sans-Serif" font-size="10.00" fill="#000000">Generators/Generator.h</text>
</a>
</g>
</g>
<!-- Node1&#45;&gt;Node2 -->
<g id="edge2" class="edge">
<title>Node1&#45;&gt;Node2</title>
<path fill="none" stroke="#191970" d="M132.5,-112.2455C132.5,-104.9382 132.5,-94.6944 132.5,-85.7046"/>
<polygon fill="#191970" stroke="#191970" points="136.0001,-85.6426 132.5,-75.6427 129.0001,-85.6427 136.0001,-85.6426"/>
</g>
<!-- Node3 -->
<g id="node4" class="node">
<title>Node3</title>
<polygon fill="none" stroke="#bfbfbf" points="0,-.5 0,-19.5 91,-19.5 91,-.5 0,-.5"/>
<text text-anchor="middle" x="45.5" y="-7.5" font-family="Helvetica,sans-Serif" font-size="10.00" fill="#000000">FairGenerator.h</text>
</g>
<!-- Node2&#45;&gt;Node3 -->
<g id="edge3" class="edge">
<title>Node2&#45;&gt;Node3</title>
<path fill="none" stroke="#191970" d="M117.3458,-56.2455C103.9973,-47.6534 84.3414,-35.0014 68.9617,-25.1018"/>
<polygon fill="#191970" stroke="#191970" points="70.7836,-22.1121 60.4806,-19.6427 66.9949,-27.9982 70.7836,-22.1121"/>
</g>
<!-- Node4 -->
<g id="node5" class="node">
<title>Node4</title>
<polygon fill="none" stroke="#bfbfbf" points="109,-.5 109,-19.5 156,-19.5 156,-.5 109,-.5"/>
<text text-anchor="middle" x="132.5" y="-7.5" font-family="Helvetica,sans-Serif" font-size="10.00" fill="#000000">vector</text>
</g>
<!-- Node2&#45;&gt;Node4 -->
<g id="edge4" class="edge">
<title>Node2&#45;&gt;Node4</title>
<path fill="none" stroke="#191970" d="M132.5,-56.2455C132.5,-48.9382 132.5,-38.6944 132.5,-29.7046"/>
<polygon fill="#191970" stroke="#191970" points="136.0001,-29.6426 132.5,-19.6427 129.0001,-29.6427 136.0001,-29.6426"/>
</g>
<!-- Node5 -->
<g id="node6" class="node">
<title>Node5</title>
<polygon fill="none" stroke="#bfbfbf" points="174.5,-.5 174.5,-19.5 216.5,-19.5 216.5,-.5 174.5,-.5"/>
<text text-anchor="middle" x="195.5" y="-7.5" font-family="Helvetica,sans-Serif" font-size="10.00" fill="#000000">array</text>
</g>
<!-- Node2&#45;&gt;Node5 -->
<g id="edge5" class="edge">
<title>Node2&#45;&gt;Node5</title>
<path fill="none" stroke="#191970" d="M143.4738,-56.2455C152.6882,-48.0549 166.0532,-36.1749 176.9297,-26.5069"/>
<polygon fill="#191970" stroke="#191970" points="179.5032,-28.9023 184.652,-19.6427 174.8526,-23.6704 179.5032,-28.9023"/>
</g>
</g>
</svg>
