<?xml version="1.0" encoding="UTF-8" standalone="no"?>
<!DOCTYPE svg PUBLIC "-//W3C//DTD SVG 1.1//EN"
 "http://www.w3.org/Graphics/SVG/1.1/DTD/svg11.dtd">
<!-- Generated by graphviz version 2.40.1 (20161225.0304)
 -->
<!-- Title: /home/travis/build/AliceO2Group/AliceO2/Detectors/MUON/MCH/Raw/Encoder/include/MCHRawEncoder/Encoder.h Pages: 1 -->
<!--zoomable 184 -->
<svg id="main" version="1.1" xmlns="http://www.w3.org/2000/svg" xmlns:xlink="http://www.w3.org/1999/xlink" xml:space="preserve" onload="init(evt)">
<style type="text/css"><![CDATA[
.edge:hover path { stroke: red; }
.edge:hover polygon { stroke: red; fill: red; }
]]></style>
<script type="text/javascript"><![CDATA[
var edges = document.getElementsByTagName('g');
if (edges && edges.length) {
  for (var i=0;i<edges.length;i++) {
    if (edges[i].id.substr(0,4)=='edge') {
      edges[i].setAttribute('class','edge');
    }
  }
}
]]></script>
        <defs>
                <circle id="rim" cx="0" cy="0" r="7"/>
                <circle id="rim2" cx="0" cy="0" r="3.5"/>
                <g id="zoomPlus">
                        <use xlink:href="#rim" fill="#404040">
                                <set attributeName="fill" to="#808080" begin="zoomplus.mouseover" end="zoomplus.mouseout"/>
                        </use>
                        <path d="M-4,0h8M0,-4v8" fill="none" stroke="white" stroke-width="1.5" pointer-events="none"/>
                </g>
                <g id="zoomMin">
                        <use xlink:href="#rim" fill="#404040">
                                <set attributeName="fill" to="#808080" begin="zoomminus.mouseover" end="zoomminus.mouseout"/>
                        </use>
                        <path d="M-4,0h8" fill="none" stroke="white" stroke-width="1.5" pointer-events="none"/>
                </g>
                <g id="dirArrow">
                        <path fill="none" stroke="white" stroke-width="1.5" d="M0,-3.0v7 M-2.5,-0.5L0,-3.0L2.5,-0.5"/>
                </g>
               <g id="resetDef">
                       <use xlink:href="#rim2" fill="#404040">
                               <set attributeName="fill" to="#808080" begin="reset.mouseover" end="reset.mouseout"/>
                       </use>
               </g>
        </defs>

<script type="text/javascript">
var viewWidth = 635;
var viewHeight = 184;
var sectionId = 'dynsection-0';
</script>
<script xlink:href="../../svgpan.js"/>
<svg id="graph" class="graph">
<g id="viewport">
<title>/home/travis/build/AliceO2Group/AliceO2/Detectors/MUON/MCH/Raw/Encoder/include/MCHRawEncoder/Encoder.h</title>
<!-- Node0 -->
<g id="node1" class="node">
<title>Node0</title>
<polygon fill="#bfbfbf" stroke="#000000" points="166,-112.5 166,-175.5 348,-175.5 348,-112.5 166,-112.5"/>
<text text-anchor="start" x="174" y="-163.5" font-family="Helvetica,sans-Serif" font-size="10.00" fill="#000000">/home/travis/build</text>
<text text-anchor="start" x="174" y="-152.5" font-family="Helvetica,sans-Serif" font-size="10.00" fill="#000000">/AliceO2Group/AliceO2</text>
<text text-anchor="start" x="174" y="-141.5" font-family="Helvetica,sans-Serif" font-size="10.00" fill="#000000">/Detectors/MUON/MCH/Raw</text>
<text text-anchor="start" x="174" y="-130.5" font-family="Helvetica,sans-Serif" font-size="10.00" fill="#000000">/Encoder/include/MCHRawEncoder</text>
<text text-anchor="middle" x="257" y="-119.5" font-family="Helvetica,sans-Serif" font-size="10.00" fill="#000000">/Encoder.h</text>
</g>
<!-- Node1 -->
<g id="node2" class="node">
<title>Node1</title>
<polygon fill="none" stroke="#bfbfbf" points="0,-56.5 0,-75.5 58,-75.5 58,-56.5 0,-56.5"/>
<text text-anchor="middle" x="29" y="-63.5" font-family="Helvetica,sans-Serif" font-size="10.00" fill="#000000">memory</text>
</g>
<!-- Node0&#45;&gt;Node1 -->
<g id="edge1" class="edge">
<title>Node0&#45;&gt;Node1</title>
<path fill="none" stroke="#191970" d="M165.9054,-112.8361C131.2599,-100.9836 93.6704,-88.1241 66.6601,-78.8837"/>
<polygon fill="#191970" stroke="#191970" points="67.4489,-75.4545 56.8543,-75.5291 65.1831,-82.0776 67.4489,-75.4545"/>
</g>
<!-- Node2 -->
<g id="node3" class="node">
<title>Node2</title>
<polygon fill="none" stroke="#bfbfbf" points="76,-56.5 76,-75.5 108,-75.5 108,-56.5 76,-56.5"/>
<text text-anchor="middle" x="92" y="-63.5" font-family="Helvetica,sans-Serif" font-size="10.00" fill="#000000">set</text>
</g>
<!-- Node0&#45;&gt;Node2 -->
<g id="edge2" class="edge">
<title>Node0&#45;&gt;Node2</title>
<path fill="none" stroke="#191970" d="M190.3638,-112.4992C164.6552,-100.3461 136.8108,-87.1833 117.3313,-77.9748"/>
<polygon fill="#191970" stroke="#191970" points="118.7617,-74.7797 108.2251,-73.6701 115.77,-81.1082 118.7617,-74.7797"/>
</g>
<!-- Node3 -->
<g id="node4" class="node">
<title>Node3</title>
<g id="a_node4"><a xlink:href="../../d4/d09/DsElecId_8h.html" target="_top" xlink:title="MCHRawElecMap/DsElecId.h">
<polygon fill="none" stroke="#000000" points="126.5,-56.5 126.5,-75.5 281.5,-75.5 281.5,-56.5 126.5,-56.5"/>
<text text-anchor="middle" x="204" y="-63.5" font-family="Helvetica,sans-Serif" font-size="10.00" fill="#000000">MCHRawElecMap/DsElecId.h</text>
</a>
</g>
</g>
<!-- Node0&#45;&gt;Node3 -->
<g id="edge3" class="edge">
<title>Node0&#45;&gt;Node3</title>
<path fill="none" stroke="#191970" d="M235.4429,-112.2744C228.8764,-102.6106 221.8902,-92.3289 216.1749,-83.9177"/>
<polygon fill="#191970" stroke="#191970" points="219.0672,-81.9467 210.552,-75.6426 213.2773,-85.8809 219.0672,-81.9467"/>
</g>
<!-- Node6 -->
<g id="node7" class="node">
<title>Node6</title>
<polygon fill="none" stroke="#bfbfbf" points="258,-.5 258,-19.5 314,-19.5 314,-.5 258,-.5"/>
<text text-anchor="middle" x="286" y="-7.5" font-family="Helvetica,sans-Serif" font-size="10.00" fill="#000000">optional</text>
</g>
<!-- Node0&#45;&gt;Node6 -->
<g id="edge13" class="edge">
<title>Node0&#45;&gt;Node6</title>
<path fill="none" stroke="#191970" d="M276.0775,-112.2461C281.7206,-101.1723 287.1489,-88.4052 290,-76 293.5355,-60.6169 292.1191,-42.7185 290.0504,-29.4446"/>
<polygon fill="#191970" stroke="#191970" points="293.4822,-28.7537 288.2535,-19.539 286.5946,-30.0031 293.4822,-28.7537"/>
</g>
<!-- Node7 -->
<g id="node8" class="node">
<title>Node7</title>
<g id="a_node8"><a xlink:href="../../d0/d5b/SampaCluster_8h.html" target="_top" xlink:title="MCHRawCommon/SampaCluster.h">
<polygon fill="none" stroke="#000000" points="338,-56.5 338,-75.5 522,-75.5 522,-56.5 338,-56.5"/>
<text text-anchor="middle" x="430" y="-63.5" font-family="Helvetica,sans-Serif" font-size="10.00" fill="#000000">MCHRawCommon/SampaCluster.h</text>
</a>
</g>
</g>
<!-- Node0&#45;&gt;Node7 -->
<g id="edge7" class="edge">
<title>Node0&#45;&gt;Node7</title>
<path fill="none" stroke="#191970" d="M326.8671,-112.4992C352.1722,-101.09 379.451,-88.7909 399.594,-79.7091"/>
<polygon fill="#191970" stroke="#191970" points="401.1916,-82.8281 408.8693,-75.5271 398.3144,-76.4467 401.1916,-82.8281"/>
</g>
<!-- Node12 -->
<g id="node13" class="node">
<title>Node12</title>
<polygon fill="none" stroke="#bfbfbf" points="540.5,-56.5 540.5,-75.5 605.5,-75.5 605.5,-56.5 540.5,-56.5"/>
<text text-anchor="middle" x="573" y="-63.5" font-family="Helvetica,sans-Serif" font-size="10.00" fill="#000000">functional</text>
</g>
<!-- Node0&#45;&gt;Node12 -->
<g id="edge12" class="edge">
<title>Node0&#45;&gt;Node12</title>
<path fill="none" stroke="#191970" d="M348.4003,-121.4392C408.516,-106.6005 484.3763,-87.8755 530.7545,-76.4277"/>
<polygon fill="#191970" stroke="#191970" points="531.5997,-79.8242 540.4695,-74.0297 529.9221,-73.0282 531.5997,-79.8242"/>
</g>
<!-- Node4 -->
<g id="node5" class="node">
<title>Node4</title>
<polygon fill="none" stroke="#bfbfbf" points="113,-.5 113,-19.5 163,-19.5 163,-.5 113,-.5"/>
<text text-anchor="middle" x="138" y="-7.5" font-family="Helvetica,sans-Serif" font-size="10.00" fill="#000000">cstdint</text>
</g>
<!-- Node3&#45;&gt;Node4 -->
<g id="edge4" class="edge">
<title>Node3&#45;&gt;Node4</title>
<path fill="none" stroke="#191970" d="M192.5037,-56.2455C182.7558,-47.9746 168.5741,-35.9416 157.1202,-26.2232"/>
<polygon fill="#191970" stroke="#191970" points="159.2541,-23.4437 149.3646,-19.6427 154.7253,-28.7813 159.2541,-23.4437"/>
</g>
<!-- Node5 -->
<g id="node6" class="node">
<title>Node5</title>
<polygon fill="none" stroke="#bfbfbf" points="181.5,-.5 181.5,-19.5 230.5,-19.5 230.5,-.5 181.5,-.5"/>
<text text-anchor="middle" x="206" y="-7.5" font-family="Helvetica,sans-Serif" font-size="10.00" fill="#000000">iosfwd</text>
</g>
<!-- Node3&#45;&gt;Node5 -->
<g id="edge5" class="edge">
<title>Node3&#45;&gt;Node5</title>
<path fill="none" stroke="#191970" d="M204.3484,-56.2455C204.6093,-48.9382 204.9752,-38.6944 205.2963,-29.7046"/>
<polygon fill="#191970" stroke="#191970" points="208.7964,-29.7613 205.6556,-19.6427 201.8008,-29.5113 208.7964,-29.7613"/>
</g>
<!-- Node3&#45;&gt;Node6 -->
<g id="edge6" class="edge">
<title>Node3&#45;&gt;Node6</title>
<path fill="none" stroke="#191970" d="M218.2833,-56.2455C230.747,-47.7337 249.0451,-35.2375 263.4792,-25.3801"/>
<polygon fill="#191970" stroke="#191970" points="265.5962,-28.1726 271.8804,-19.6427 261.6485,-22.392 265.5962,-28.1726"/>
</g>
<!-- Node8 -->
<g id="node9" class="node">
<title>Node8</title>
<polygon fill="none" stroke="#bfbfbf" points="336.5,-.5 336.5,-19.5 385.5,-19.5 385.5,-.5 336.5,-.5"/>
<text text-anchor="middle" x="361" y="-7.5" font-family="Helvetica,sans-Serif" font-size="10.00" fill="#000000">cstdlib</text>
</g>
<!-- Node7&#45;&gt;Node8 -->
<g id="edge8" class="edge">
<title>Node7&#45;&gt;Node8</title>
<path fill="none" stroke="#191970" d="M417.9811,-56.2455C407.7902,-47.9746 392.9638,-35.9416 380.9893,-26.2232"/>
<polygon fill="#191970" stroke="#191970" points="382.8514,-23.2268 372.8812,-19.6427 378.4402,-28.662 382.8514,-23.2268"/>
</g>
<!-- Node9 -->
<g id="node10" class="node">
<title>Node9</title>
<polygon fill="none" stroke="#bfbfbf" points="403.5,-.5 403.5,-19.5 450.5,-19.5 450.5,-.5 403.5,-.5"/>
<text text-anchor="middle" x="427" y="-7.5" font-family="Helvetica,sans-Serif" font-size="10.00" fill="#000000">vector</text>
</g>
<!-- Node7&#45;&gt;Node9 -->
<g id="edge9" class="edge">
<title>Node7&#45;&gt;Node9</title>
<path fill="none" stroke="#191970" d="M429.4774,-56.2455C429.086,-48.9382 428.5372,-38.6944 428.0556,-29.7046"/>
<polygon fill="#191970" stroke="#191970" points="431.5466,-29.4411 427.5166,-19.6427 424.5566,-29.8156 431.5466,-29.4411"/>
</g>
<!-- Node10 -->
<g id="node11" class="node">
<title>Node10</title>
<polygon fill="none" stroke="#bfbfbf" points="469,-.5 469,-19.5 529,-19.5 529,-.5 469,-.5"/>
<text text-anchor="middle" x="499" y="-7.5" font-family="Helvetica,sans-Serif" font-size="10.00" fill="#000000">iostream</text>
</g>
<!-- Node7&#45;&gt;Node10 -->
<g id="edge10" class="edge">
<title>Node7&#45;&gt;Node10</title>
<path fill="none" stroke="#191970" d="M442.0189,-56.2455C452.2098,-47.9746 467.0362,-35.9416 479.0107,-26.2232"/>
<polygon fill="#191970" stroke="#191970" points="481.5598,-28.662 487.1188,-19.6427 477.1486,-23.2268 481.5598,-28.662"/>
</g>
<!-- Node11 -->
<g id="node12" class="node">
<title>Node11</title>
<polygon fill="none" stroke="#bfbfbf" points="547.5,-.5 547.5,-19.5 626.5,-19.5 626.5,-.5 547.5,-.5"/>
<text text-anchor="middle" x="587" y="-7.5" font-family="Helvetica,sans-Serif" font-size="10.00" fill="#000000">fmt/format.h</text>
</g>
<!-- Node7&#45;&gt;Node11 -->
<g id="edge11" class="edge">
<title>Node7&#45;&gt;Node11</title>
<path fill="none" stroke="#191970" d="M456.9893,-56.3733C482.8699,-47.1419 522.1248,-33.1402 550.7289,-22.9375"/>
<polygon fill="#191970" stroke="#191970" points="552.12,-26.1573 560.3629,-19.5011 549.7683,-19.5642 552.12,-26.1573"/>
</g>
</g>
</svg>
        <g id="navigator" transform="translate(0 0)" fill="#404254">
                <rect fill="#f2f5e9" fill-opacity="0.5" stroke="#606060" stroke-width=".5" x="0" y="0" width="60" height="60"/>
                <use id="zoomplus" xlink:href="#zoomPlus" x="17" y="9" onmousedown="handleZoom(evt,'in')"/>
                <use id="zoomminus" xlink:href="#zoomMin" x="42" y="9" onmousedown="handleZoom(evt,'out')"/>
                <use id="reset" xlink:href="#resetDef" x="30" y="36" onmousedown="handleReset()"/>
                <g id="arrowUp" xlink:href="#dirArrow" transform="translate(30 24)" onmousedown="handlePan(0,-1)">
                  <use xlink:href="#rim" fill="#404040">
                        <set attributeName="fill" to="#808080" begin="arrowUp.mouseover" end="arrowUp.mouseout"/>
                  </use>
                  <path fill="none" stroke="white" stroke-width="1.5" d="M0,-3.0v7 M-2.5,-0.5L0,-3.0L2.5,-0.5"/>
                </g>
                <g id="arrowRight" xlink:href="#dirArrow" transform="rotate(90) translate(36 -43)" onmousedown="handlePan(1,0)">
                  <use xlink:href="#rim" fill="#404040">
                        <set attributeName="fill" to="#808080" begin="arrowRight.mouseover" end="arrowRight.mouseout"/>
                  </use>
                  <path fill="none" stroke="white" stroke-width="1.5" d="M0,-3.0v7 M-2.5,-0.5L0,-3.0L2.5,-0.5"/>
                </g>
                <g id="arrowDown" xlink:href="#dirArrow" transform="rotate(180) translate(-30 -48)" onmousedown="handlePan(0,1)">
                  <use xlink:href="#rim" fill="#404040">
                        <set attributeName="fill" to="#808080" begin="arrowDown.mouseover" end="arrowDown.mouseout"/>
                  </use>
                  <path fill="none" stroke="white" stroke-width="1.5" d="M0,-3.0v7 M-2.5,-0.5L0,-3.0L2.5,-0.5"/>
                </g>
                <g id="arrowLeft" xlink:href="#dirArrow" transform="rotate(270) translate(-36 17)" onmousedown="handlePan(-1,0)">
                  <use xlink:href="#rim" fill="#404040">
                        <set attributeName="fill" to="#808080" begin="arrowLeft.mouseover" end="arrowLeft.mouseout"/>
                  </use>
                  <path fill="none" stroke="white" stroke-width="1.5" d="M0,-3.0v7 M-2.5,-0.5L0,-3.0L2.5,-0.5"/>
                </g>
        </g>
        <svg viewBox="0 0 15 15" width="100%" height="30px" preserveAspectRatio="xMaxYMin meet">
         <g id="arrow_out" transform="scale(0.3 0.3)">
          <a xlink:href="MUON_2MCH_2Raw_2Encoder_2include_2MCHRawEncoder_2Encoder_8h__incl_org.svg" target="_base">
           <rect id="button" ry="5" rx="5" y="6" x="6" height="38" width="38"
                fill="#f2f5e9" fill-opacity="0.5" stroke="#606060" stroke-width="1.0"/>
           <path id="arrow"
             d="M 11.500037,31.436501 C 11.940474,20.09759 22.043105,11.32322 32.158766,21.979434 L 37.068811,17.246167 C 37.068811,17.246167 37.088388,32 37.088388,32 L 22.160133,31.978069 C 22.160133,31.978069 26.997745,27.140456 26.997745,27.140456 C 18.528582,18.264221 13.291696,25.230495 11.500037,31.436501 z"
             style="fill:#404040;"/>
          </a>
         </g>
        </svg>
</svg>
