<?xml version="1.0" encoding="UTF-8" standalone="no"?>
<!DOCTYPE svg PUBLIC "-//W3C//DTD SVG 1.1//EN"
 "http://www.w3.org/Graphics/SVG/1.1/DTD/svg11.dtd">
<!-- Generated by graphviz version 2.40.1 (20161225.0304)
 -->
<!-- Title: /home/travis/build/AliceO2Group/AliceO2/Framework/Utils/include/DPLUtils/Utils.h Pages: 1 -->
<svg width="1917pt" height="150pt"
 viewBox="0.00 0.00 1916.50 150.00" xmlns="http://www.w3.org/2000/svg" xmlns:xlink="http://www.w3.org/1999/xlink">
<g id="graph0" class="graph" transform="scale(1 1) rotate(0) translate(4 146)">
<title>/home/travis/build/AliceO2Group/AliceO2/Framework/Utils/include/DPLUtils/Utils.h</title>
<!-- Node133 -->
<g id="node1" class="node">
<title>Node133</title>
<polygon fill="#bfbfbf" stroke="#000000" points="936.5,-89.5 936.5,-141.5 1073.5,-141.5 1073.5,-89.5 936.5,-89.5"/>
<text text-anchor="start" x="944.5" y="-129.5" font-family="Helvetica,sans-Serif" font-size="10.00" fill="#000000">/home/travis/build</text>
<text text-anchor="start" x="944.5" y="-118.5" font-family="Helvetica,sans-Serif" font-size="10.00" fill="#000000">/AliceO2Group/AliceO2</text>
<text text-anchor="start" x="944.5" y="-107.5" font-family="Helvetica,sans-Serif" font-size="10.00" fill="#000000">/Framework/Utils/include</text>
<text text-anchor="middle" x="1005" y="-96.5" font-family="Helvetica,sans-Serif" font-size="10.00" fill="#000000">/DPLUtils/Utils.h</text>
</g>
<!-- Node134 -->
<g id="node2" class="node">
<title>Node134</title>
<g id="a_node2"><a xlink:href="../../d8/d29/DigitsToRawWorkflow_8cxx.html" target="_top" xlink:title="Definition of MID reconstruction workflow for MC. ">
<polygon fill="none" stroke="#000000" points="0,-.5 0,-52.5 170,-52.5 170,-.5 0,-.5"/>
<text text-anchor="start" x="8" y="-40.5" font-family="Helvetica,sans-Serif" font-size="10.00" fill="#000000">/home/travis/build</text>
<text text-anchor="start" x="8" y="-29.5" font-family="Helvetica,sans-Serif" font-size="10.00" fill="#000000">/AliceO2Group/AliceO2</text>
<text text-anchor="start" x="8" y="-18.5" font-family="Helvetica,sans-Serif" font-size="10.00" fill="#000000">/Detectors/MUON/MID/Workflow</text>
<text text-anchor="middle" x="85" y="-7.5" font-family="Helvetica,sans-Serif" font-size="10.00" fill="#000000">/src/DigitsToRawWorkflow.cxx</text>
</a>
</g>
</g>
<!-- Node133&#45;&gt;Node134 -->
<g id="edge1" class="edge">
<title>Node133&#45;&gt;Node134</title>
<path fill="none" stroke="#191970" d="M926.316,-111.552C748.7232,-102.3156 321.2149,-78.1672 179,-53 176.0782,-52.4829 173.1166,-51.9127 170.1342,-51.2991"/>
<polygon fill="#191970" stroke="#191970" points="926.2044,-115.0509 936.3721,-112.073 926.5666,-108.0602 926.2044,-115.0509"/>
</g>
<!-- Node135 -->
<g id="node3" class="node">
<title>Node135</title>
<g id="a_node3"><a xlink:href="../../d2/de0/MUON_2MID_2Workflow_2src_2RecoWorkflow_8cxx.html" target="_top" xlink:title="Definition of MID reconstruction workflow. ">
<polygon fill="none" stroke="#000000" points="188,-.5 188,-52.5 358,-52.5 358,-.5 188,-.5"/>
<text text-anchor="start" x="196" y="-40.5" font-family="Helvetica,sans-Serif" font-size="10.00" fill="#000000">/home/travis/build</text>
<text text-anchor="start" x="196" y="-29.5" font-family="Helvetica,sans-Serif" font-size="10.00" fill="#000000">/AliceO2Group/AliceO2</text>
<text text-anchor="start" x="196" y="-18.5" font-family="Helvetica,sans-Serif" font-size="10.00" fill="#000000">/Detectors/MUON/MID/Workflow</text>
<text text-anchor="middle" x="273" y="-7.5" font-family="Helvetica,sans-Serif" font-size="10.00" fill="#000000">/src/RecoWorkflow.cxx</text>
</a>
</g>
</g>
<!-- Node133&#45;&gt;Node135 -->
<g id="edge2" class="edge">
<title>Node133&#45;&gt;Node135</title>
<path fill="none" stroke="#191970" d="M926.1674,-112.2715C805.0413,-106.303 566.2612,-90.5408 367,-53 364.0841,-52.4506 361.1276,-51.8526 358.1496,-51.215"/>
<polygon fill="#191970" stroke="#191970" points="926.2973,-115.7818 936.4546,-112.7687 926.6353,-108.7899 926.2973,-115.7818"/>
</g>
<!-- Node136 -->
<g id="node4" class="node">
<title>Node136</title>
<g id="a_node4"><a xlink:href="../../dd/d65/RecoWorkflowMC_8cxx.html" target="_top" xlink:title="Definition of MID reconstruction workflow for MC. ">
<polygon fill="none" stroke="#000000" points="376,-.5 376,-52.5 546,-52.5 546,-.5 376,-.5"/>
<text text-anchor="start" x="384" y="-40.5" font-family="Helvetica,sans-Serif" font-size="10.00" fill="#000000">/home/travis/build</text>
<text text-anchor="start" x="384" y="-29.5" font-family="Helvetica,sans-Serif" font-size="10.00" fill="#000000">/AliceO2Group/AliceO2</text>
<text text-anchor="start" x="384" y="-18.5" font-family="Helvetica,sans-Serif" font-size="10.00" fill="#000000">/Detectors/MUON/MID/Workflow</text>
<text text-anchor="middle" x="461" y="-7.5" font-family="Helvetica,sans-Serif" font-size="10.00" fill="#000000">/src/RecoWorkflowMC.cxx</text>
</a>
</g>
</g>
<!-- Node133&#45;&gt;Node136 -->
<g id="edge3" class="edge">
<title>Node133&#45;&gt;Node136</title>
<path fill="none" stroke="#191970" d="M926.1068,-107.8475C835.8154,-98.3268 683.7871,-79.965 555,-53 552.0958,-52.3919 549.1493,-51.7431 546.18,-51.0621"/>
<polygon fill="#191970" stroke="#191970" points="925.9567,-111.3507 936.2663,-108.9088 926.6841,-104.3886 925.9567,-111.3507"/>
</g>
<!-- Node137 -->
<g id="node5" class="node">
<title>Node137</title>
<g id="a_node5"><a xlink:href="../../d5/d63/DPLBroadcaster_8cxx.html" target="_top" xlink:title="Implementation of generic DPL broadcaster, v0.1. ">
<polygon fill="none" stroke="#000000" points="564,-6 564,-47 780,-47 780,-6 564,-6"/>
<text text-anchor="start" x="572" y="-35" font-family="Helvetica,sans-Serif" font-size="10.00" fill="#000000">/home/travis/build</text>
<text text-anchor="start" x="572" y="-24" font-family="Helvetica,sans-Serif" font-size="10.00" fill="#000000">/AliceO2Group/AliceO2</text>
<text text-anchor="middle" x="672" y="-13" font-family="Helvetica,sans-Serif" font-size="10.00" fill="#000000">/Framework/Utils/src/DPLBroadcaster.cxx</text>
</a>
</g>
</g>
<!-- Node133&#45;&gt;Node137 -->
<g id="edge4" class="edge">
<title>Node133&#45;&gt;Node137</title>
<path fill="none" stroke="#191970" d="M926.6019,-94.5467C872.9854,-80.2168 802.249,-61.3113 748.9454,-47.065"/>
<polygon fill="#191970" stroke="#191970" points="925.8413,-97.9663 936.406,-97.1671 927.6488,-91.2036 925.8413,-97.9663"/>
</g>
<!-- Node138 -->
<g id="node6" class="node">
<title>Node138</title>
<g id="a_node6"><a xlink:href="../../d2/d37/DPLGatherer_8cxx.html" target="_top" xlink:title="Implementation of generic DPL gatherer, v0.1. ">
<polygon fill="none" stroke="#000000" points="798,-6 798,-47 998,-47 998,-6 798,-6"/>
<text text-anchor="start" x="806" y="-35" font-family="Helvetica,sans-Serif" font-size="10.00" fill="#000000">/home/travis/build</text>
<text text-anchor="start" x="806" y="-24" font-family="Helvetica,sans-Serif" font-size="10.00" fill="#000000">/AliceO2Group/AliceO2</text>
<text text-anchor="middle" x="898" y="-13" font-family="Helvetica,sans-Serif" font-size="10.00" fill="#000000">/Framework/Utils/src/DPLGatherer.cxx</text>
</a>
</g>
</g>
<!-- Node133&#45;&gt;Node138 -->
<g id="edge5" class="edge">
<title>Node133&#45;&gt;Node138</title>
<path fill="none" stroke="#191970" d="M965.6963,-82.8081C951.3714,-70.893 935.5828,-57.7605 922.859,-47.1771"/>
<polygon fill="#191970" stroke="#191970" points="963.5489,-85.5745 973.4752,-89.2784 968.0253,-80.1928 963.5489,-85.5745"/>
</g>
<!-- Node139 -->
<g id="node7" class="node">
<title>Node139</title>
<g id="a_node7"><a xlink:href="../../de/d40/DPLMerger_8cxx.html" target="_top" xlink:title="/home/travis/build\l/AliceO2Group/AliceO2\l/Framework/Utils/src/DPLMerger.cxx">
<polygon fill="none" stroke="#000000" points="1016.5,-6 1016.5,-47 1207.5,-47 1207.5,-6 1016.5,-6"/>
<text text-anchor="start" x="1024.5" y="-35" font-family="Helvetica,sans-Serif" font-size="10.00" fill="#000000">/home/travis/build</text>
<text text-anchor="start" x="1024.5" y="-24" font-family="Helvetica,sans-Serif" font-size="10.00" fill="#000000">/AliceO2Group/AliceO2</text>
<text text-anchor="middle" x="1112" y="-13" font-family="Helvetica,sans-Serif" font-size="10.00" fill="#000000">/Framework/Utils/src/DPLMerger.cxx</text>
</a>
</g>
</g>
<!-- Node133&#45;&gt;Node139 -->
<g id="edge6" class="edge">
<title>Node133&#45;&gt;Node139</title>
<path fill="none" stroke="#191970" d="M1044.3037,-82.8081C1058.6286,-70.893 1074.4172,-57.7605 1087.141,-47.1771"/>
<polygon fill="#191970" stroke="#191970" points="1041.9747,-80.1928 1036.5248,-89.2784 1046.4511,-85.5745 1041.9747,-80.1928"/>
</g>
<!-- Node140 -->
<g id="node8" class="node">
<title>Node140</title>
<g id="a_node8"><a xlink:href="../../d9/d0e/DPLRouter_8cxx.html" target="_top" xlink:title="/home/travis/build\l/AliceO2Group/AliceO2\l/Framework/Utils/src/DPLRouter.cxx">
<polygon fill="none" stroke="#000000" points="1225.5,-6 1225.5,-47 1414.5,-47 1414.5,-6 1225.5,-6"/>
<text text-anchor="start" x="1233.5" y="-35" font-family="Helvetica,sans-Serif" font-size="10.00" fill="#000000">/home/travis/build</text>
<text text-anchor="start" x="1233.5" y="-24" font-family="Helvetica,sans-Serif" font-size="10.00" fill="#000000">/AliceO2Group/AliceO2</text>
<text text-anchor="middle" x="1320" y="-13" font-family="Helvetica,sans-Serif" font-size="10.00" fill="#000000">/Framework/Utils/src/DPLRouter.cxx</text>
</a>
</g>
</g>
<!-- Node133&#45;&gt;Node140 -->
<g id="edge7" class="edge">
<title>Node133&#45;&gt;Node140</title>
<path fill="none" stroke="#191970" d="M1083.5714,-93.3005C1133.7392,-79.1261 1198.315,-60.8808 1247.2988,-47.041"/>
<polygon fill="#191970" stroke="#191970" points="1082.4105,-89.9914 1073.7388,-96.0785 1084.3138,-96.7277 1082.4105,-89.9914"/>
</g>
<!-- Node141 -->
<g id="node9" class="node">
<title>Node141</title>
<g id="a_node9"><a xlink:href="../../de/d78/Utils_8cxx.html" target="_top" xlink:title="Implementation of generic utils for DPL devices, v0.1. ">
<polygon fill="none" stroke="#000000" points="1433,-6 1433,-47 1595,-47 1595,-6 1433,-6"/>
<text text-anchor="start" x="1441" y="-35" font-family="Helvetica,sans-Serif" font-size="10.00" fill="#000000">/home/travis/build</text>
<text text-anchor="start" x="1441" y="-24" font-family="Helvetica,sans-Serif" font-size="10.00" fill="#000000">/AliceO2Group/AliceO2</text>
<text text-anchor="middle" x="1514" y="-13" font-family="Helvetica,sans-Serif" font-size="10.00" fill="#000000">/Framework/Utils/src/Utils.cxx</text>
</a>
</g>
</g>
<!-- Node133&#45;&gt;Node141 -->
<g id="edge8" class="edge">
<title>Node133&#45;&gt;Node141</title>
<path fill="none" stroke="#191970" d="M1083.8055,-107.042C1168.4691,-97.19 1306.6759,-78.8928 1424,-53 1431.7937,-51.28 1439.9011,-49.2475 1447.9167,-47.0853"/>
<polygon fill="#191970" stroke="#191970" points="1083.2843,-103.5788 1073.7511,-108.2015 1084.0863,-110.5327 1083.2843,-103.5788"/>
</g>
<!-- Node142 -->
<g id="node10" class="node">
<title>Node142</title>
<g id="a_node10"><a xlink:href="../../d1/d35/DPLBroadcasterMerger_8cxx.html" target="_top" xlink:title="/home/travis/build\l/AliceO2Group/AliceO2\l/Framework/Utils/test\l/DPLBroadcasterMerger.cxx">
<polygon fill="none" stroke="#000000" points="1613,-.5 1613,-52.5 1763,-52.5 1763,-.5 1613,-.5"/>
<text text-anchor="start" x="1621" y="-40.5" font-family="Helvetica,sans-Serif" font-size="10.00" fill="#000000">/home/travis/build</text>
<text text-anchor="start" x="1621" y="-29.5" font-family="Helvetica,sans-Serif" font-size="10.00" fill="#000000">/AliceO2Group/AliceO2</text>
<text text-anchor="start" x="1621" y="-18.5" font-family="Helvetica,sans-Serif" font-size="10.00" fill="#000000">/Framework/Utils/test</text>
<text text-anchor="middle" x="1688" y="-7.5" font-family="Helvetica,sans-Serif" font-size="10.00" fill="#000000">/DPLBroadcasterMerger.cxx</text>
</a>
</g>
</g>
<!-- Node133&#45;&gt;Node142 -->
<g id="edge9" class="edge">
<title>Node133&#45;&gt;Node142</title>
<path fill="none" stroke="#191970" d="M1083.6508,-112.3475C1198.8882,-106.5924 1419.9101,-91.2337 1604,-53 1606.8447,-52.4092 1609.7299,-51.7601 1612.6339,-51.0646"/>
<polygon fill="#191970" stroke="#191970" points="1083.3272,-108.859 1073.5098,-112.8427 1083.6687,-115.8507 1083.3272,-108.859"/>
</g>
<!-- Node143 -->
<g id="node11" class="node">
<title>Node143</title>
<g id="a_node11"><a xlink:href="../../da/d34/DPLOutputTest_8cxx.html" target="_top" xlink:title="/home/travis/build\l/AliceO2Group/AliceO2\l/Framework/Utils/test\l/DPLOutputTest.cxx">
<polygon fill="none" stroke="#000000" points="1781.5,-.5 1781.5,-52.5 1908.5,-52.5 1908.5,-.5 1781.5,-.5"/>
<text text-anchor="start" x="1789.5" y="-40.5" font-family="Helvetica,sans-Serif" font-size="10.00" fill="#000000">/home/travis/build</text>
<text text-anchor="start" x="1789.5" y="-29.5" font-family="Helvetica,sans-Serif" font-size="10.00" fill="#000000">/AliceO2Group/AliceO2</text>
<text text-anchor="start" x="1789.5" y="-18.5" font-family="Helvetica,sans-Serif" font-size="10.00" fill="#000000">/Framework/Utils/test</text>
<text text-anchor="middle" x="1845" y="-7.5" font-family="Helvetica,sans-Serif" font-size="10.00" fill="#000000">/DPLOutputTest.cxx</text>
</a>
</g>
</g>
<!-- Node133&#45;&gt;Node143 -->
<g id="edge10" class="edge">
<title>Node133&#45;&gt;Node143</title>
<path fill="none" stroke="#191970" d="M1083.608,-111.7585C1251.908,-103.3138 1642.3225,-81.2863 1772,-53 1775.0298,-52.3391 1778.1045,-51.5831 1781.1914,-50.7543"/>
<polygon fill="#191970" stroke="#191970" points="1083.389,-108.265 1073.5758,-112.259 1083.7378,-115.2563 1083.389,-108.265"/>
</g>
</g>
</svg>
