<?xml version="1.0" encoding="UTF-8" standalone="no"?>
<!DOCTYPE svg PUBLIC "-//W3C//DTD SVG 1.1//EN"
 "http://www.w3.org/Graphics/SVG/1.1/DTD/svg11.dtd">
<!-- Generated by graphviz version 2.40.1 (20161225.0304)
 -->
<!-- Title: /home/travis/build/AliceO2Group/AliceO2/Detectors/MUON/MCH/Raw/Decoder/src/UserLogicGBTDecoder.h Pages: 1 -->
<svg width="1796pt" height="374pt"
 viewBox="0.00 0.00 1796.00 374.00" xmlns="http://www.w3.org/2000/svg" xmlns:xlink="http://www.w3.org/1999/xlink">
<g id="graph0" class="graph" transform="scale(1 1) rotate(0) translate(4 370)">
<title>/home/travis/build/AliceO2Group/AliceO2/Detectors/MUON/MCH/Raw/Decoder/src/UserLogicGBTDecoder.h</title>
<!-- Node0 -->
<g id="node1" class="node">
<title>Node0</title>
<polygon fill="#bfbfbf" stroke="#000000" points="386.5,-313.5 386.5,-365.5 583.5,-365.5 583.5,-313.5 386.5,-313.5"/>
<text text-anchor="start" x="394.5" y="-353.5" font-family="Helvetica,sans-Serif" font-size="10.00" fill="#000000">/home/travis/build</text>
<text text-anchor="start" x="394.5" y="-342.5" font-family="Helvetica,sans-Serif" font-size="10.00" fill="#000000">/AliceO2Group/AliceO2</text>
<text text-anchor="start" x="394.5" y="-331.5" font-family="Helvetica,sans-Serif" font-size="10.00" fill="#000000">/Detectors/MUON/MCH/Raw</text>
<text text-anchor="middle" x="485" y="-320.5" font-family="Helvetica,sans-Serif" font-size="10.00" fill="#000000">/Decoder/src/UserLogicGBTDecoder.h</text>
</g>
<!-- Node0&#45;&gt;Node0 -->
<g id="edge42" class="edge">
<title>Node0&#45;&gt;Node0</title>
<path fill="none" stroke="#191970" d="M583.5908,-351.8032C594.4735,-349.4663 601.5,-345.3652 601.5,-339.5 601.5,-335.6509 598.474,-332.5616 593.3178,-330.2321"/>
<polygon fill="#191970" stroke="#191970" points="594.1794,-326.8346 583.5908,-327.1968 592.0942,-333.5168 594.1794,-326.8346"/>
</g>
<!-- Node1 -->
<g id="node2" class="node">
<title>Node1</title>
<polygon fill="none" stroke="#bfbfbf" points="0,-185 0,-204 42,-204 42,-185 0,-185"/>
<text text-anchor="middle" x="21" y="-192" font-family="Helvetica,sans-Serif" font-size="10.00" fill="#000000">array</text>
</g>
<!-- Node0&#45;&gt;Node1 -->
<g id="edge1" class="edge">
<title>Node0&#45;&gt;Node1</title>
<path fill="none" stroke="#191970" d="M386.296,-331.3018C263.9146,-320.2604 68.2624,-299.3963 43,-277 25.3727,-261.3726 21.1526,-233.3552 20.4869,-214.3527"/>
<polygon fill="#191970" stroke="#191970" points="23.9858,-214.1053 20.4372,-204.1225 16.9859,-214.1394 23.9858,-214.1053"/>
</g>
<!-- Node2 -->
<g id="node3" class="node">
<title>Node2</title>
<g id="a_node3"><a xlink:href="../../db/de7/UserLogicElinkDecoder_8h.html" target="_top" xlink:title="UserLogicElinkDecoder.h">
<polygon fill="none" stroke="#000000" points="703.5,-252 703.5,-271 840.5,-271 840.5,-252 703.5,-252"/>
<text text-anchor="middle" x="772" y="-259" font-family="Helvetica,sans-Serif" font-size="10.00" fill="#000000">UserLogicElinkDecoder.h</text>
</a>
</g>
</g>
<!-- Node0&#45;&gt;Node2 -->
<g id="edge2" class="edge">
<title>Node0&#45;&gt;Node2</title>
<path fill="none" stroke="#191970" d="M580.9659,-313.4187C630.1802,-300.0434 687.8037,-284.3826 726.792,-273.7865"/>
<polygon fill="#191970" stroke="#191970" points="728.0464,-277.0726 736.7784,-271.0724 726.2105,-270.3176 728.0464,-277.0726"/>
</g>
<!-- Node6 -->
<g id="node7" class="node">
<title>Node6</title>
<polygon fill="none" stroke="#bfbfbf" points="775,-.5 775,-19.5 835,-19.5 835,-.5 775,-.5"/>
<text text-anchor="middle" x="805" y="-7.5" font-family="Helvetica,sans-Serif" font-size="10.00" fill="#000000">iostream</text>
</g>
<!-- Node0&#45;&gt;Node6 -->
<g id="edge50" class="edge">
<title>Node0&#45;&gt;Node6</title>
<path fill="none" stroke="#191970" d="M435.937,-313.3137C400.0383,-291.1221 354.073,-255.6377 333,-210 314.1092,-169.0884 330.9853,-147.2958 359,-112 386.4365,-77.4328 399.7349,-71.6474 441,-56 499.5557,-33.7961 682.9057,-18.5631 764.7977,-12.6919"/>
<polygon fill="#191970" stroke="#191970" points="765.234,-16.1699 774.9625,-11.974 764.7408,-9.1873 765.234,-16.1699"/>
</g>
<!-- Node8 -->
<g id="node9" class="node">
<title>Node8</title>
<polygon fill="none" stroke="#bfbfbf" points="1481.5,-.5 1481.5,-19.5 1538.5,-19.5 1538.5,-.5 1481.5,-.5"/>
<text text-anchor="middle" x="1510" y="-7.5" font-family="Helvetica,sans-Serif" font-size="10.00" fill="#000000">gsl/span</text>
</g>
<!-- Node0&#45;&gt;Node8 -->
<g id="edge41" class="edge">
<title>Node0&#45;&gt;Node8</title>
<path fill="none" stroke="#191970" d="M583.6312,-335.9027C776.6164,-328.2684 1197.6197,-308.5186 1339,-277 1438.8966,-254.7296 1554,-296.849 1554,-194.5 1554,-194.5 1554,-194.5 1554,-127.5 1554,-90.4993 1534.6281,-50.8689 1521.5919,-28.3889"/>
<polygon fill="#191970" stroke="#191970" points="1524.4585,-26.3642 1516.3041,-19.5998 1518.4604,-29.9729 1524.4585,-26.3642"/>
</g>
<!-- Node9 -->
<g id="node10" class="node">
<title>Node9</title>
<g id="a_node10"><a xlink:href="../../dd/d58/SampaChannelHandler_8h.html" target="_top" xlink:title="MCHRawDecoder/SampaChannel\lHandler.h">
<polygon fill="none" stroke="#000000" points="1103.5,-112.5 1103.5,-142.5 1280.5,-142.5 1280.5,-112.5 1103.5,-112.5"/>
<text text-anchor="start" x="1111.5" y="-130.5" font-family="Helvetica,sans-Serif" font-size="10.00" fill="#000000">MCHRawDecoder/SampaChannel</text>
<text text-anchor="middle" x="1192" y="-119.5" font-family="Helvetica,sans-Serif" font-size="10.00" fill="#000000">Handler.h</text>
</a>
</g>
</g>
<!-- Node0&#45;&gt;Node9 -->
<g id="edge40" class="edge">
<title>Node0&#45;&gt;Node9</title>
<path fill="none" stroke="#191970" d="M583.6796,-334.1648C826.3974,-320.0382 1437.1322,-278.0169 1497,-210 1506.1031,-199.6578 1505.8944,-189.5222 1497,-179 1495.2866,-176.9731 1379.2818,-157.7947 1290.8562,-143.4306"/>
<polygon fill="#191970" stroke="#191970" points="1291.1951,-139.9399 1280.7635,-141.7925 1290.0736,-146.8495 1291.1951,-139.9399"/>
</g>
<!-- Node13 -->
<g id="node14" class="node">
<title>Node13</title>
<polygon fill="none" stroke="#bfbfbf" points="233.5,-.5 233.5,-19.5 312.5,-19.5 312.5,-.5 233.5,-.5"/>
<text text-anchor="middle" x="273" y="-7.5" font-family="Helvetica,sans-Serif" font-size="10.00" fill="#000000">fmt/format.h</text>
</g>
<!-- Node0&#45;&gt;Node13 -->
<g id="edge44" class="edge">
<title>Node0&#45;&gt;Node13</title>
<path fill="none" stroke="#191970" d="M386.3557,-323.6327C322.5881,-312.0029 246.5335,-295.1355 219,-277 180.9177,-251.9163 158,-240.1011 158,-194.5 158,-194.5 158,-194.5 158,-127.5 158,-78.8408 208.995,-42.8832 243.0689,-24.2882"/>
<polygon fill="#191970" stroke="#191970" points="244.9474,-27.2551 252.1744,-19.5077 241.6935,-21.0573 244.9474,-27.2551"/>
</g>
<!-- Node27 -->
<g id="node28" class="node">
<title>Node27</title>
<polygon fill="none" stroke="#bfbfbf" points="1582.5,-252 1582.5,-271 1653.5,-271 1653.5,-252 1582.5,-252"/>
<text text-anchor="middle" x="1618" y="-259" font-family="Helvetica,sans-Serif" font-size="10.00" fill="#000000">fmt/printf.h</text>
</g>
<!-- Node0&#45;&gt;Node27 -->
<g id="edge43" class="edge">
<title>Node0&#45;&gt;Node27</title>
<path fill="none" stroke="#191970" d="M583.8217,-336.8667C814.0384,-330.2353 1380.7107,-310.9118 1568,-277 1572.4979,-276.1856 1577.1584,-275.0929 1581.7441,-273.8626"/>
<polygon fill="#191970" stroke="#191970" points="1582.9464,-277.1581 1591.571,-271.0045 1580.9914,-270.4366 1582.9464,-277.1581"/>
</g>
<!-- Node28 -->
<g id="node29" class="node">
<title>Node28</title>
<g id="a_node29"><a xlink:href="../../d7/dee/MakeArray_8h.html" target="_top" xlink:title="MakeArray.h">
<polygon fill="none" stroke="#000000" points="52.5,-252 52.5,-271 129.5,-271 129.5,-252 52.5,-252"/>
<text text-anchor="middle" x="91" y="-259" font-family="Helvetica,sans-Serif" font-size="10.00" fill="#000000">MakeArray.h</text>
</a>
</g>
</g>
<!-- Node0&#45;&gt;Node28 -->
<g id="edge45" class="edge">
<title>Node0&#45;&gt;Node28</title>
<path fill="none" stroke="#191970" d="M386.3227,-324.1845C317.9295,-312.8941 224.9628,-296.2044 144,-277 139.9073,-276.0292 135.6608,-274.9359 131.4332,-273.7906"/>
<polygon fill="#191970" stroke="#191970" points="132.2585,-270.3871 121.6849,-271.0569 130.3684,-277.1271 132.2585,-270.3871"/>
</g>
<!-- Node30 -->
<g id="node31" class="node">
<title>Node30</title>
<g id="a_node31"><a xlink:href="../../dc/d46/Assertions_8h.html" target="_top" xlink:title="Assertions.h">
<polygon fill="none" stroke="#000000" points="186.5,-118 186.5,-137 263.5,-137 263.5,-118 186.5,-118"/>
<text text-anchor="middle" x="225" y="-125" font-family="Helvetica,sans-Serif" font-size="10.00" fill="#000000">Assertions.h</text>
</a>
</g>
</g>
<!-- Node0&#45;&gt;Node30 -->
<g id="edge48" class="edge">
<title>Node0&#45;&gt;Node30</title>
<path fill="none" stroke="#191970" d="M386.4751,-326.0347C327.1479,-315.7924 259.4329,-299.5855 240,-277 208.6344,-240.546 214.6656,-179.0631 220.4976,-147.5064"/>
<polygon fill="#191970" stroke="#191970" points="224.0027,-147.8332 222.5675,-137.336 217.1434,-146.4371 224.0027,-147.8332"/>
</g>
<!-- Node31 -->
<g id="node32" class="node">
<title>Node31</title>
<polygon fill="none" stroke="#bfbfbf" points="1672,-246.5 1672,-276.5 1788,-276.5 1788,-246.5 1672,-246.5"/>
<text text-anchor="start" x="1680" y="-264.5" font-family="Helvetica,sans-Serif" font-size="10.00" fill="#000000">boost/multiprecision</text>
<text text-anchor="middle" x="1730" y="-253.5" font-family="Helvetica,sans-Serif" font-size="10.00" fill="#000000">/cpp_int.hpp</text>
</g>
<!-- Node0&#45;&gt;Node31 -->
<g id="edge51" class="edge">
<title>Node0&#45;&gt;Node31</title>
<path fill="none" stroke="#191970" d="M583.665,-336.4818C824.1626,-328.7731 1436.7271,-306.9327 1661.5579,-277.0156"/>
<polygon fill="#191970" stroke="#191970" points="1662.2159,-280.4582 1671.6469,-275.6305 1661.2638,-273.5232 1662.2159,-280.4582"/>
</g>
<!-- Node3 -->
<g id="node4" class="node">
<title>Node3</title>
<g id="a_node4"><a xlink:href="../../d0/d64/DataFormats_8h.html" target="_top" xlink:title="MCHRawCommon/DataFormats.h">
<polygon fill="none" stroke="#000000" points="874.5,-185 874.5,-204 1053.5,-204 1053.5,-185 874.5,-185"/>
<text text-anchor="middle" x="964" y="-192" font-family="Helvetica,sans-Serif" font-size="10.00" fill="#000000">MCHRawCommon/DataFormats.h</text>
</a>
</g>
</g>
<!-- Node2&#45;&gt;Node3 -->
<g id="edge3" class="edge">
<title>Node2&#45;&gt;Node3</title>
<path fill="none" stroke="#191970" d="M799.5089,-251.9005C833.014,-240.2086 889.7442,-220.4122 927.0397,-207.3976"/>
<polygon fill="#191970" stroke="#191970" points="928.2536,-210.681 936.5421,-204.0817 925.9473,-204.0719 928.2536,-210.681"/>
</g>
<!-- Node4 -->
<g id="node5" class="node">
<title>Node4</title>
<g id="a_node5"><a xlink:href="../../d5/d49/SampaHeader_8h.html" target="_top" xlink:title="MCHRawCommon/SampaHeader.h">
<polygon fill="none" stroke="#000000" points="449.5,-56.5 449.5,-75.5 634.5,-75.5 634.5,-56.5 449.5,-56.5"/>
<text text-anchor="middle" x="542" y="-63.5" font-family="Helvetica,sans-Serif" font-size="10.00" fill="#000000">MCHRawCommon/SampaHeader.h</text>
</a>
</g>
</g>
<!-- Node2&#45;&gt;Node4 -->
<g id="edge4" class="edge">
<title>Node2&#45;&gt;Node4</title>
<path fill="none" stroke="#191970" d="M703.3607,-258.027C589.8038,-251.5722 372.9955,-235.9724 350,-210 297.9657,-151.2295 426.491,-100.9748 498.0087,-78.5292"/>
<polygon fill="#191970" stroke="#191970" points="499.1684,-81.8344 507.6971,-75.5486 497.11,-75.1438 499.1684,-81.8344"/>
</g>
<!-- Node7 -->
<g id="node8" class="node">
<title>Node7</title>
<g id="a_node8"><a xlink:href="../../dd/d0d/MUON_2MCH_2Raw_2Decoder_2include_2MCHRawDecoder_2Decoder_8h.html" target="_top" xlink:title="MCHRawDecoder/Decoder.h">
<polygon fill="none" stroke="#000000" points="1110,-185 1110,-204 1262,-204 1262,-185 1110,-185"/>
<text text-anchor="middle" x="1186" y="-192" font-family="Helvetica,sans-Serif" font-size="10.00" fill="#000000">MCHRawDecoder/Decoder.h</text>
</a>
</g>
</g>
<!-- Node2&#45;&gt;Node7 -->
<g id="edge7" class="edge">
<title>Node2&#45;&gt;Node7</title>
<path fill="none" stroke="#191970" d="M833.5485,-251.959C898.7521,-241.7948 1004.6895,-225.1191 1096,-210 1104.2072,-208.6411 1112.8308,-207.1881 1121.3553,-205.7366"/>
<polygon fill="#191970" stroke="#191970" points="1122.0187,-209.1741 1131.286,-204.0392 1120.8393,-202.2742 1122.0187,-209.1741"/>
</g>
<!-- Node2&#45;&gt;Node13 -->
<g id="edge37" class="edge">
<title>Node2&#45;&gt;Node13</title>
<path fill="none" stroke="#191970" d="M703.2376,-257.5526C586.8207,-250.2691 360.7774,-233.3046 333,-210 278.4223,-164.2106 272.2809,-70.8601 272.3732,-29.9554"/>
<polygon fill="#191970" stroke="#191970" points="275.8737,-29.9452 272.5294,-19.892 268.8745,-29.8365 275.8737,-29.9452"/>
</g>
<!-- Node14 -->
<g id="node15" class="node">
<title>Node14</title>
<g id="a_node15"><a xlink:href="../../d4/d09/DsElecId_8h.html" target="_top" xlink:title="MCHRawElecMap/DsElecId.h">
<polygon fill="none" stroke="#000000" points="998.5,-56.5 998.5,-75.5 1153.5,-75.5 1153.5,-56.5 998.5,-56.5"/>
<text text-anchor="middle" x="1076" y="-63.5" font-family="Helvetica,sans-Serif" font-size="10.00" fill="#000000">MCHRawElecMap/DsElecId.h</text>
</a>
</g>
</g>
<!-- Node2&#45;&gt;Node14 -->
<g id="edge39" class="edge">
<title>Node2&#45;&gt;Node14</title>
<path fill="none" stroke="#191970" d="M840.5021,-258.7217C916.9437,-254.0755 1033.7634,-241.8377 1063,-210 1094.3009,-175.9142 1087.261,-116.241 1080.8695,-85.5117"/>
<polygon fill="#191970" stroke="#191970" points="1084.2462,-84.5761 1078.6162,-75.6009 1077.4203,-86.128 1084.2462,-84.5761"/>
</g>
<!-- Node21 -->
<g id="node22" class="node">
<title>Node21</title>
<polygon fill="none" stroke="#bfbfbf" points="1280,-185 1280,-204 1344,-204 1344,-185 1280,-185"/>
<text text-anchor="middle" x="1312" y="-192" font-family="Helvetica,sans-Serif" font-size="10.00" fill="#000000">algorithm</text>
</g>
<!-- Node2&#45;&gt;Node21 -->
<g id="edge32" class="edge">
<title>Node2&#45;&gt;Node21</title>
<path fill="none" stroke="#191970" d="M840.7277,-260.0033C937.82,-256.6316 1120.1344,-245.6652 1271,-210 1274.0132,-209.2877 1277.1042,-208.4102 1280.1723,-207.4382"/>
<polygon fill="#191970" stroke="#191970" points="1281.4769,-210.6901 1289.7704,-204.0971 1279.1756,-204.0792 1281.4769,-210.6901"/>
</g>
<!-- Node22 -->
<g id="node23" class="node">
<title>Node22</title>
<polygon fill="none" stroke="#bfbfbf" points="1362.5,-179.5 1362.5,-209.5 1487.5,-209.5 1487.5,-179.5 1362.5,-179.5"/>
<text text-anchor="start" x="1370.5" y="-197.5" font-family="Helvetica,sans-Serif" font-size="10.00" fill="#000000">boost/msm/back/state</text>
<text text-anchor="middle" x="1425" y="-186.5" font-family="Helvetica,sans-Serif" font-size="10.00" fill="#000000">_machine.hpp</text>
</g>
<!-- Node2&#45;&gt;Node22 -->
<g id="edge33" class="edge">
<title>Node2&#45;&gt;Node22</title>
<path fill="none" stroke="#191970" d="M840.7494,-258.1636C947.9596,-252.3525 1161.5639,-238.3375 1352.3266,-209.9776"/>
<polygon fill="#191970" stroke="#191970" points="1352.8869,-213.4328 1362.2556,-208.4853 1351.8464,-206.5105 1352.8869,-213.4328"/>
</g>
<!-- Node23 -->
<g id="node24" class="node">
<title>Node23</title>
<polygon fill="none" stroke="#bfbfbf" points="358.5,-179.5 358.5,-209.5 483.5,-209.5 483.5,-179.5 358.5,-179.5"/>
<text text-anchor="start" x="366.5" y="-197.5" font-family="Helvetica,sans-Serif" font-size="10.00" fill="#000000">boost/msm/front/euml</text>
<text text-anchor="middle" x="421" y="-186.5" font-family="Helvetica,sans-Serif" font-size="10.00" fill="#000000">/euml.hpp</text>
</g>
<!-- Node2&#45;&gt;Node23 -->
<g id="edge34" class="edge">
<title>Node2&#45;&gt;Node23</title>
<path fill="none" stroke="#191970" d="M717.6407,-251.9556C663.4905,-242.3376 577.7254,-226.8072 493.768,-210.1219"/>
<polygon fill="#191970" stroke="#191970" points="494.2974,-206.6586 483.8059,-208.1348 492.9281,-213.5234 494.2974,-206.6586"/>
</g>
<!-- Node24 -->
<g id="node25" class="node">
<title>Node24</title>
<polygon fill="none" stroke="#bfbfbf" points="501.5,-179.5 501.5,-209.5 636.5,-209.5 636.5,-179.5 501.5,-179.5"/>
<text text-anchor="start" x="509.5" y="-197.5" font-family="Helvetica,sans-Serif" font-size="10.00" fill="#000000">boost/msm/front/functor</text>
<text text-anchor="middle" x="569" y="-186.5" font-family="Helvetica,sans-Serif" font-size="10.00" fill="#000000">_row.hpp</text>
</g>
<!-- Node2&#45;&gt;Node24 -->
<g id="edge35" class="edge">
<title>Node2&#45;&gt;Node24</title>
<path fill="none" stroke="#191970" d="M742.915,-251.9005C712.1197,-241.7366 662.7674,-225.4479 624.4891,-212.8141"/>
<polygon fill="#191970" stroke="#191970" points="625.1068,-209.3324 614.5137,-209.5218 622.9129,-215.9797 625.1068,-209.3324"/>
</g>
<!-- Node25 -->
<g id="node26" class="node">
<title>Node25</title>
<polygon fill="none" stroke="#bfbfbf" points="654.5,-179.5 654.5,-209.5 779.5,-209.5 779.5,-179.5 654.5,-179.5"/>
<text text-anchor="start" x="662.5" y="-197.5" font-family="Helvetica,sans-Serif" font-size="10.00" fill="#000000">boost/msm/front/state</text>
<text text-anchor="middle" x="717" y="-186.5" font-family="Helvetica,sans-Serif" font-size="10.00" fill="#000000">_machine_def.hpp</text>
</g>
<!-- Node2&#45;&gt;Node25 -->
<g id="edge36" class="edge">
<title>Node2&#45;&gt;Node25</title>
<path fill="none" stroke="#191970" d="M764.1198,-251.9005C756.7349,-242.9043 745.4111,-229.1099 735.7153,-217.2986"/>
<polygon fill="#191970" stroke="#191970" points="738.3815,-215.0303 729.3313,-209.5218 732.971,-219.4718 738.3815,-215.0303"/>
</g>
<!-- Node26 -->
<g id="node27" class="node">
<title>Node26</title>
<polygon fill="none" stroke="#bfbfbf" points="798,-185 798,-204 856,-204 856,-185 798,-185"/>
<text text-anchor="middle" x="827" y="-192" font-family="Helvetica,sans-Serif" font-size="10.00" fill="#000000">memory</text>
</g>
<!-- Node2&#45;&gt;Node26 -->
<g id="edge38" class="edge">
<title>Node2&#45;&gt;Node26</title>
<path fill="none" stroke="#191970" d="M779.8802,-251.9005C788.3752,-241.552 802.0824,-224.8542 812.528,-212.1295"/>
<polygon fill="#191970" stroke="#191970" points="815.4947,-214.0317 819.1345,-204.0817 810.0842,-209.5902 815.4947,-214.0317"/>
</g>
<!-- Node5 -->
<g id="node6" class="node">
<title>Node5</title>
<polygon fill="none" stroke="#bfbfbf" points="517.5,-.5 517.5,-19.5 566.5,-19.5 566.5,-.5 517.5,-.5"/>
<text text-anchor="middle" x="542" y="-7.5" font-family="Helvetica,sans-Serif" font-size="10.00" fill="#000000">cstdlib</text>
</g>
<!-- Node4&#45;&gt;Node5 -->
<g id="edge5" class="edge">
<title>Node4&#45;&gt;Node5</title>
<path fill="none" stroke="#191970" d="M542,-56.2455C542,-48.9382 542,-38.6944 542,-29.7046"/>
<polygon fill="#191970" stroke="#191970" points="545.5001,-29.6426 542,-19.6427 538.5001,-29.6427 545.5001,-29.6426"/>
</g>
<!-- Node4&#45;&gt;Node6 -->
<g id="edge6" class="edge">
<title>Node4&#45;&gt;Node6</title>
<path fill="none" stroke="#191970" d="M586.9125,-56.4369C636.8013,-45.8142 716.6217,-28.8182 764.6088,-18.6004"/>
<polygon fill="#191970" stroke="#191970" points="765.5816,-21.9718 774.6334,-16.4659 764.1238,-15.1253 765.5816,-21.9718"/>
</g>
<!-- Node7&#45;&gt;Node5 -->
<g id="edge8" class="edge">
<title>Node7&#45;&gt;Node5</title>
<path fill="none" stroke="#191970" d="M1118.7401,-184.9766C937.5443,-159.1691 452.0596,-88.9578 441,-76 417.9065,-48.9429 469.8992,-28.7394 507.52,-18.2034"/>
<polygon fill="#191970" stroke="#191970" points="508.4428,-21.5797 517.1974,-15.6125 506.6324,-14.8178 508.4428,-21.5797"/>
</g>
<!-- Node7&#45;&gt;Node6 -->
<g id="edge31" class="edge">
<title>Node7&#45;&gt;Node6</title>
<path fill="none" stroke="#191970" d="M1167.0898,-184.8854C1122.0816,-162.0588 1004.9585,-102.9949 906,-56 882.6667,-44.9191 856.0734,-32.8288 836.0334,-23.8251"/>
<polygon fill="#191970" stroke="#191970" points="837.3219,-20.5672 826.765,-19.671 834.4589,-26.955 837.3219,-20.5672"/>
</g>
<!-- Node7&#45;&gt;Node8 -->
<g id="edge9" class="edge">
<title>Node7&#45;&gt;Node8</title>
<path fill="none" stroke="#191970" d="M1237.6657,-184.9236C1248.662,-182.9288 1260.21,-180.8664 1271,-179 1319.8142,-170.5561 1456.3279,-178.3832 1491,-143 1520.544,-112.85 1517.8119,-58.8599 1513.6731,-29.8046"/>
<polygon fill="#191970" stroke="#191970" points="1517.0841,-28.9738 1512.0228,-19.6661 1510.175,-30.0985 1517.0841,-28.9738"/>
</g>
<!-- Node7&#45;&gt;Node9 -->
<g id="edge10" class="edge">
<title>Node7&#45;&gt;Node9</title>
<path fill="none" stroke="#191970" d="M1186.8597,-184.9005C1187.6111,-176.5099 1188.7363,-163.9451 1189.7425,-152.7085"/>
<polygon fill="#191970" stroke="#191970" points="1193.2488,-152.7941 1190.6548,-142.5218 1186.2767,-152.1697 1193.2488,-152.7941"/>
</g>
<!-- Node18 -->
<g id="node19" class="node">
<title>Node18</title>
<g id="a_node19"><a xlink:href="../../d5/d65/RawDataHeaderHandler_8h.html" target="_top" xlink:title="MCHRawDecoder/RawDataHeader\lHandler.h">
<polygon fill="none" stroke="#000000" points="1298.5,-112.5 1298.5,-142.5 1481.5,-142.5 1481.5,-112.5 1298.5,-112.5"/>
<text text-anchor="start" x="1306.5" y="-130.5" font-family="Helvetica,sans-Serif" font-size="10.00" fill="#000000">MCHRawDecoder/RawDataHeader</text>
<text text-anchor="middle" x="1390" y="-119.5" font-family="Helvetica,sans-Serif" font-size="10.00" fill="#000000">Handler.h</text>
</a>
</g>
</g>
<!-- Node7&#45;&gt;Node18 -->
<g id="edge21" class="edge">
<title>Node7&#45;&gt;Node18</title>
<path fill="none" stroke="#191970" d="M1215.2282,-184.9005C1246.3069,-174.6933 1296.1931,-158.3091 1334.728,-145.6531"/>
<polygon fill="#191970" stroke="#191970" points="1335.8535,-148.9674 1344.2621,-142.5218 1333.6692,-142.3169 1335.8535,-148.9674"/>
</g>
<!-- Node10 -->
<g id="node11" class="node">
<title>Node10</title>
<polygon fill="none" stroke="#bfbfbf" points="1371.5,-.5 1371.5,-19.5 1436.5,-19.5 1436.5,-.5 1371.5,-.5"/>
<text text-anchor="middle" x="1404" y="-7.5" font-family="Helvetica,sans-Serif" font-size="10.00" fill="#000000">functional</text>
</g>
<!-- Node9&#45;&gt;Node10 -->
<g id="edge11" class="edge">
<title>Node9&#45;&gt;Node10</title>
<path fill="none" stroke="#191970" d="M1280.5326,-112.8484C1324.1185,-103.9359 1370.5785,-91.3175 1386,-76 1398.2212,-63.8613 1402.3722,-44.2935 1403.6747,-29.6101"/>
<polygon fill="#191970" stroke="#191970" points="1407.1743,-29.7069 1404.2018,-19.5376 1400.1838,-29.341 1407.1743,-29.7069"/>
</g>
<!-- Node11 -->
<g id="node12" class="node">
<title>Node11</title>
<g id="a_node12"><a xlink:href="../../d0/d5b/SampaCluster_8h.html" target="_top" xlink:title="MCHRawCommon/SampaCluster.h">
<polygon fill="none" stroke="#000000" points="713,-56.5 713,-75.5 897,-75.5 897,-56.5 713,-56.5"/>
<text text-anchor="middle" x="805" y="-63.5" font-family="Helvetica,sans-Serif" font-size="10.00" fill="#000000">MCHRawCommon/SampaCluster.h</text>
</a>
</g>
</g>
<!-- Node9&#45;&gt;Node11 -->
<g id="edge12" class="edge">
<title>Node9&#45;&gt;Node11</title>
<path fill="none" stroke="#191970" d="M1103.2144,-113.3907C1033.8422,-102.3664 938.7739,-87.2586 874.7873,-77.0902"/>
<polygon fill="#191970" stroke="#191970" points="875.2188,-73.615 864.7934,-75.502 874.1201,-80.5282 875.2188,-73.615"/>
</g>
<!-- Node9&#45;&gt;Node14 -->
<g id="edge17" class="edge">
<title>Node9&#45;&gt;Node14</title>
<path fill="none" stroke="#191970" d="M1163.6232,-112.4554C1145.1172,-102.644 1121.1112,-89.9167 1102.9069,-80.2653"/>
<polygon fill="#191970" stroke="#191970" points="1104.4505,-77.1222 1093.9759,-75.5303 1101.1715,-83.3068 1104.4505,-77.1222"/>
</g>
<!-- Node11&#45;&gt;Node5 -->
<g id="edge13" class="edge">
<title>Node11&#45;&gt;Node5</title>
<path fill="none" stroke="#191970" d="M760.0875,-56.4369C708.1209,-45.3718 623.6778,-27.3915 576.5657,-17.36"/>
<polygon fill="#191970" stroke="#191970" points="577.0569,-13.8862 566.5472,-15.2268 575.599,-20.7327 577.0569,-13.8862"/>
</g>
<!-- Node11&#45;&gt;Node6 -->
<g id="edge15" class="edge">
<title>Node11&#45;&gt;Node6</title>
<path fill="none" stroke="#191970" d="M805,-56.2455C805,-48.9382 805,-38.6944 805,-29.7046"/>
<polygon fill="#191970" stroke="#191970" points="808.5001,-29.6426 805,-19.6427 801.5001,-29.6427 808.5001,-29.6426"/>
</g>
<!-- Node12 -->
<g id="node13" class="node">
<title>Node12</title>
<polygon fill="none" stroke="#bfbfbf" points="918.5,-.5 918.5,-19.5 965.5,-19.5 965.5,-.5 918.5,-.5"/>
<text text-anchor="middle" x="942" y="-7.5" font-family="Helvetica,sans-Serif" font-size="10.00" fill="#000000">vector</text>
</g>
<!-- Node11&#45;&gt;Node12 -->
<g id="edge14" class="edge">
<title>Node11&#45;&gt;Node12</title>
<path fill="none" stroke="#191970" d="M828.5511,-56.3733C850.8391,-47.2629 884.4937,-33.5062 909.3637,-23.3404"/>
<polygon fill="#191970" stroke="#191970" points="910.8239,-26.5247 918.7562,-19.5011 908.1753,-20.0451 910.8239,-26.5247"/>
</g>
<!-- Node11&#45;&gt;Node13 -->
<g id="edge16" class="edge">
<title>Node11&#45;&gt;Node13</title>
<path fill="none" stroke="#191970" d="M714.4521,-56.4686C601.4682,-44.5756 412.2532,-24.6582 322.7733,-15.2393"/>
<polygon fill="#191970" stroke="#191970" points="322.9362,-11.7372 312.6247,-14.171 322.2033,-18.6987 322.9362,-11.7372"/>
</g>
<!-- Node15 -->
<g id="node16" class="node">
<title>Node15</title>
<polygon fill="none" stroke="#bfbfbf" points="1191,-.5 1191,-19.5 1241,-19.5 1241,-.5 1191,-.5"/>
<text text-anchor="middle" x="1216" y="-7.5" font-family="Helvetica,sans-Serif" font-size="10.00" fill="#000000">cstdint</text>
</g>
<!-- Node14&#45;&gt;Node15 -->
<g id="edge18" class="edge">
<title>Node14&#45;&gt;Node15</title>
<path fill="none" stroke="#191970" d="M1100.0669,-56.3733C1122.8428,-47.2629 1157.2344,-33.5062 1182.649,-23.3404"/>
<polygon fill="#191970" stroke="#191970" points="1184.2623,-26.4648 1192.2472,-19.5011 1181.6625,-19.9654 1184.2623,-26.4648"/>
</g>
<!-- Node16 -->
<g id="node17" class="node">
<title>Node16</title>
<polygon fill="none" stroke="#bfbfbf" points="1049.5,-.5 1049.5,-19.5 1098.5,-19.5 1098.5,-.5 1049.5,-.5"/>
<text text-anchor="middle" x="1074" y="-7.5" font-family="Helvetica,sans-Serif" font-size="10.00" fill="#000000">iosfwd</text>
</g>
<!-- Node14&#45;&gt;Node16 -->
<g id="edge19" class="edge">
<title>Node14&#45;&gt;Node16</title>
<path fill="none" stroke="#191970" d="M1075.6516,-56.2455C1075.3907,-48.9382 1075.0248,-38.6944 1074.7037,-29.7046"/>
<polygon fill="#191970" stroke="#191970" points="1078.1992,-29.5113 1074.3444,-19.6427 1071.2036,-29.7613 1078.1992,-29.5113"/>
</g>
<!-- Node17 -->
<g id="node18" class="node">
<title>Node17</title>
<polygon fill="none" stroke="#bfbfbf" points="1117,-.5 1117,-19.5 1173,-19.5 1173,-.5 1117,-.5"/>
<text text-anchor="middle" x="1145" y="-7.5" font-family="Helvetica,sans-Serif" font-size="10.00" fill="#000000">optional</text>
</g>
<!-- Node14&#45;&gt;Node17 -->
<g id="edge20" class="edge">
<title>Node14&#45;&gt;Node17</title>
<path fill="none" stroke="#191970" d="M1088.0189,-56.2455C1098.2098,-47.9746 1113.0362,-35.9416 1125.0107,-26.2232"/>
<polygon fill="#191970" stroke="#191970" points="1127.5598,-28.662 1133.1188,-19.6427 1123.1486,-23.2268 1127.5598,-28.662"/>
</g>
<!-- Node18&#45;&gt;Node10 -->
<g id="edge22" class="edge">
<title>Node18&#45;&gt;Node10</title>
<path fill="none" stroke="#191970" d="M1401.0139,-112.1204C1407.3487,-102.3048 1414.6896,-89.0194 1418,-76 1421.963,-60.414 1417.6483,-42.5621 1412.7949,-29.3579"/>
<polygon fill="#191970" stroke="#191970" points="1415.9532,-27.8338 1408.9349,-19.8969 1409.4719,-30.4781 1415.9532,-27.8338"/>
</g>
<!-- Node18&#45;&gt;Node17 -->
<g id="edge30" class="edge">
<title>Node18&#45;&gt;Node17</title>
<path fill="none" stroke="#191970" d="M1317.7011,-112.4556C1273.0171,-102.2734 1220.5838,-88.459 1201,-76 1181.8906,-63.8428 1165.8716,-43.1236 1155.9278,-28.138"/>
<polygon fill="#191970" stroke="#191970" points="1158.8668,-26.2373 1150.5481,-19.6761 1152.9596,-29.9929 1158.8668,-26.2373"/>
</g>
<!-- Node19 -->
<g id="node20" class="node">
<title>Node19</title>
<g id="a_node20"><a xlink:href="../../dc/d3a/RDHManip_8h.html" target="_top" xlink:title="MCHRawCommon/RDHManip.h">
<polygon fill="none" stroke="#000000" points="1209.5,-56.5 1209.5,-75.5 1376.5,-75.5 1376.5,-56.5 1209.5,-56.5"/>
<text text-anchor="middle" x="1293" y="-63.5" font-family="Helvetica,sans-Serif" font-size="10.00" fill="#000000">MCHRawCommon/RDHManip.h</text>
</a>
</g>
</g>
<!-- Node18&#45;&gt;Node19 -->
<g id="edge23" class="edge">
<title>Node18&#45;&gt;Node19</title>
<path fill="none" stroke="#191970" d="M1366.0225,-112.2977C1351.0624,-102.8127 1331.878,-90.6495 1316.9274,-81.1705"/>
<polygon fill="#191970" stroke="#191970" points="1318.561,-78.062 1308.2413,-75.6633 1314.8127,-83.9739 1318.561,-78.062"/>
</g>
<!-- Node19&#45;&gt;Node6 -->
<g id="edge25" class="edge">
<title>Node19&#45;&gt;Node6</title>
<path fill="none" stroke="#191970" d="M1209.941,-56.4686C1103.9635,-44.3073 924.8689,-23.7554 845.243,-14.618"/>
<polygon fill="#191970" stroke="#191970" points="845.4689,-11.1211 835.135,-13.4581 844.6708,-18.0754 845.4689,-11.1211"/>
</g>
<!-- Node19&#45;&gt;Node8 -->
<g id="edge27" class="edge">
<title>Node19&#45;&gt;Node8</title>
<path fill="none" stroke="#191970" d="M1330.3036,-56.3733C1369.7658,-46.1895 1431.7245,-30.2001 1471.5981,-19.9102"/>
<polygon fill="#191970" stroke="#191970" points="1472.6713,-23.248 1481.4794,-17.3601 1470.9221,-16.47 1472.6713,-23.248"/>
</g>
<!-- Node19&#45;&gt;Node10 -->
<g id="edge29" class="edge">
<title>Node19&#45;&gt;Node10</title>
<path fill="none" stroke="#191970" d="M1312.0816,-56.3733C1329.7402,-47.4644 1356.2053,-34.1127 1376.2098,-24.0203"/>
<polygon fill="#191970" stroke="#191970" points="1377.8158,-27.1303 1385.1674,-19.5011 1374.6628,-20.8806 1377.8158,-27.1303"/>
</g>
<!-- Node19&#45;&gt;Node12 -->
<g id="edge26" class="edge">
<title>Node19&#45;&gt;Node12</title>
<path fill="none" stroke="#191970" d="M1233.0598,-56.4369C1158.8063,-44.5902 1034.8703,-24.8169 975.5864,-15.3585"/>
<polygon fill="#191970" stroke="#191970" points="976.0584,-11.8896 965.6319,-13.7703 974.9555,-18.8022 976.0584,-11.8896"/>
</g>
<!-- Node19&#45;&gt;Node15 -->
<g id="edge24" class="edge">
<title>Node19&#45;&gt;Node15</title>
<path fill="none" stroke="#191970" d="M1279.5876,-56.2455C1267.9943,-47.814 1251.0252,-35.4729 1237.5322,-25.6598"/>
<polygon fill="#191970" stroke="#191970" points="1239.4047,-22.6938 1229.2587,-19.6427 1235.2874,-28.355 1239.4047,-22.6938"/>
</g>
<!-- Node20 -->
<g id="node21" class="node">
<title>Node20</title>
<polygon fill="none" stroke="#bfbfbf" points="1259.5,-.5 1259.5,-19.5 1332.5,-19.5 1332.5,-.5 1259.5,-.5"/>
<text text-anchor="middle" x="1296" y="-7.5" font-family="Helvetica,sans-Serif" font-size="10.00" fill="#000000">string_view</text>
</g>
<!-- Node19&#45;&gt;Node20 -->
<g id="edge28" class="edge">
<title>Node19&#45;&gt;Node20</title>
<path fill="none" stroke="#191970" d="M1293.5226,-56.2455C1293.914,-48.9382 1294.4628,-38.6944 1294.9444,-29.7046"/>
<polygon fill="#191970" stroke="#191970" points="1298.4434,-29.8156 1295.4834,-19.6427 1291.4534,-29.4411 1298.4434,-29.8156"/>
</g>
<!-- Node28&#45;&gt;Node1 -->
<g id="edge46" class="edge">
<title>Node28&#45;&gt;Node1</title>
<path fill="none" stroke="#191970" d="M80.9707,-251.9005C69.8469,-241.2535 51.7013,-223.8856 38.279,-211.0385"/>
<polygon fill="#191970" stroke="#191970" points="40.655,-208.4678 31.0107,-204.0817 35.8148,-213.5247 40.655,-208.4678"/>
</g>
<!-- Node29 -->
<g id="node30" class="node">
<title>Node29</title>
<polygon fill="none" stroke="#bfbfbf" points="60.5,-185 60.5,-204 129.5,-204 129.5,-185 60.5,-185"/>
<text text-anchor="middle" x="95" y="-192" font-family="Helvetica,sans-Serif" font-size="10.00" fill="#000000">type_traits</text>
</g>
<!-- Node28&#45;&gt;Node29 -->
<g id="edge47" class="edge">
<title>Node28&#45;&gt;Node29</title>
<path fill="none" stroke="#191970" d="M91.5731,-251.9005C92.1553,-242.149 93.074,-226.7597 93.8138,-214.3695"/>
<polygon fill="#191970" stroke="#191970" points="97.3257,-214.2725 94.428,-204.0817 90.3381,-213.8553 97.3257,-214.2725"/>
</g>
<!-- Node30&#45;&gt;Node13 -->
<g id="edge49" class="edge">
<title>Node30&#45;&gt;Node13</title>
<path fill="none" stroke="#191970" d="M228.928,-117.8845C236.839,-98.5192 254.819,-54.5055 265.204,-29.084"/>
<polygon fill="#191970" stroke="#191970" points="268.476,-30.3294 269.0177,-19.7484 261.9958,-27.6821 268.476,-30.3294"/>
</g>
</g>
</svg>
