<?xml version="1.0" encoding="UTF-8" standalone="no"?>
<!DOCTYPE svg PUBLIC "-//W3C//DTD SVG 1.1//EN"
 "http://www.w3.org/Graphics/SVG/1.1/DTD/svg11.dtd">
<!-- Generated by graphviz version 2.40.1 (20161225.0304)
 -->
<!-- Title: /home/travis/build/AliceO2Group/AliceO2/DataFormats/Detectors/ZDC/src/BCData.cxx Pages: 1 -->
<!--zoomable 296 -->
<svg id="main" version="1.1" xmlns="http://www.w3.org/2000/svg" xmlns:xlink="http://www.w3.org/1999/xlink" xml:space="preserve" onload="init(evt)">
<style type="text/css"><![CDATA[
.edge:hover path { stroke: red; }
.edge:hover polygon { stroke: red; fill: red; }
]]></style>
<script type="text/javascript"><![CDATA[
var edges = document.getElementsByTagName('g');
if (edges && edges.length) {
  for (var i=0;i<edges.length;i++) {
    if (edges[i].id.substr(0,4)=='edge') {
      edges[i].setAttribute('class','edge');
    }
  }
}
]]></script>
        <defs>
                <circle id="rim" cx="0" cy="0" r="7"/>
                <circle id="rim2" cx="0" cy="0" r="3.5"/>
                <g id="zoomPlus">
                        <use xlink:href="#rim" fill="#404040">
                                <set attributeName="fill" to="#808080" begin="zoomplus.mouseover" end="zoomplus.mouseout"/>
                        </use>
                        <path d="M-4,0h8M0,-4v8" fill="none" stroke="white" stroke-width="1.5" pointer-events="none"/>
                </g>
                <g id="zoomMin">
                        <use xlink:href="#rim" fill="#404040">
                                <set attributeName="fill" to="#808080" begin="zoomminus.mouseover" end="zoomminus.mouseout"/>
                        </use>
                        <path d="M-4,0h8" fill="none" stroke="white" stroke-width="1.5" pointer-events="none"/>
                </g>
                <g id="dirArrow">
                        <path fill="none" stroke="white" stroke-width="1.5" d="M0,-3.0v7 M-2.5,-0.5L0,-3.0L2.5,-0.5"/>
                </g>
               <g id="resetDef">
                       <use xlink:href="#rim2" fill="#404040">
                               <set attributeName="fill" to="#808080" begin="reset.mouseover" end="reset.mouseout"/>
                       </use>
               </g>
        </defs>

<script type="text/javascript">
var viewWidth = 1156;
var viewHeight = 296;
var sectionId = 'dynsection-0';
</script>
<script xlink:href="../../svgpan.js"/>
<svg id="graph" class="graph">
<g id="viewport">
<title>/home/travis/build/AliceO2Group/AliceO2/DataFormats/Detectors/ZDC/src/BCData.cxx</title>
<!-- Node0 -->
<g id="node1" class="node">
<title>Node0</title>
<polygon fill="#bfbfbf" stroke="#000000" points="868.8203,-235.5 868.8203,-287.5 1001.8203,-287.5 1001.8203,-235.5 868.8203,-235.5"/>
<text text-anchor="start" x="876.8203" y="-275.5" font-family="Helvetica,sans-Serif" font-size="10.00" fill="#000000">/home/travis/build</text>
<text text-anchor="start" x="876.8203" y="-264.5" font-family="Helvetica,sans-Serif" font-size="10.00" fill="#000000">/AliceO2Group/AliceO2</text>
<text text-anchor="start" x="876.8203" y="-253.5" font-family="Helvetica,sans-Serif" font-size="10.00" fill="#000000">/DataFormats/Detectors</text>
<text text-anchor="middle" x="935.3203" y="-242.5" font-family="Helvetica,sans-Serif" font-size="10.00" fill="#000000">/ZDC/src/BCData.cxx</text>
</g>
<!-- Node1 -->
<g id="node2" class="node">
<title>Node1</title>
<g id="a_node2"><a xlink:href="../../dd/d40/ZDC_2include_2DataFormatsZDC_2BCData_8h.html" target="_top" xlink:title="DataFormatsZDC/BCData.h">
<polygon fill="none" stroke="#000000" points="375.8203,-179.5 375.8203,-198.5 524.8203,-198.5 524.8203,-179.5 375.8203,-179.5"/>
<text text-anchor="middle" x="450.3203" y="-186.5" font-family="Helvetica,sans-Serif" font-size="10.00" fill="#000000">DataFormatsZDC/BCData.h</text>
</a>
</g>
</g>
<!-- Node0&#45;&gt;Node1 -->
<g id="edge1" class="edge">
<title>Node0&#45;&gt;Node1</title>
<path fill="none" stroke="#191970" d="M868.6464,-251.5333C778.3345,-238.033 617.6658,-214.0156 523.9139,-200.0011"/>
<polygon fill="#191970" stroke="#191970" points="524.3465,-196.527 513.9389,-198.51 523.3116,-203.45 524.3465,-196.527"/>
</g>
<!-- Node16 -->
<g id="node17" class="node">
<title>Node16</title>
<g id="a_node17"><a xlink:href="../../d5/df4/ZDC_2include_2DataFormatsZDC_2ChannelData_8h.html" target="_top" xlink:title="DataFormatsZDC/ChannelData.h">
<polygon fill="none" stroke="#000000" points="847.3203,-179.5 847.3203,-198.5 1023.3203,-198.5 1023.3203,-179.5 847.3203,-179.5"/>
<text text-anchor="middle" x="935.3203" y="-186.5" font-family="Helvetica,sans-Serif" font-size="10.00" fill="#000000">DataFormatsZDC/ChannelData.h</text>
</a>
</g>
</g>
<!-- Node0&#45;&gt;Node16 -->
<g id="edge19" class="edge">
<title>Node0&#45;&gt;Node16</title>
<path fill="none" stroke="#191970" d="M935.3203,-235.3258C935.3203,-226.5142 935.3203,-216.8397 935.3203,-208.621"/>
<polygon fill="#191970" stroke="#191970" points="938.8204,-208.534 935.3203,-198.534 931.8204,-208.534 938.8204,-208.534"/>
</g>
<!-- Node18 -->
<g id="node19" class="node">
<title>Node18</title>
<polygon fill="none" stroke="#bfbfbf" points="1041.3203,-179.5 1041.3203,-198.5 1085.3203,-198.5 1085.3203,-179.5 1041.3203,-179.5"/>
<text text-anchor="middle" x="1063.3203" y="-186.5" font-family="Helvetica,sans-Serif" font-size="10.00" fill="#000000">bitset</text>
</g>
<!-- Node0&#45;&gt;Node18 -->
<g id="edge23" class="edge">
<title>Node0&#45;&gt;Node18</title>
<path fill="none" stroke="#191970" d="M981.5312,-235.3258C1000.4473,-224.6116 1021.6156,-212.6218 1037.6769,-203.5246"/>
<polygon fill="#191970" stroke="#191970" points="1039.5116,-206.5079 1046.4878,-198.534 1036.0617,-200.417 1039.5116,-206.5079"/>
</g>
<!-- Node2 -->
<g id="node3" class="node">
<title>Node2</title>
<g id="a_node3"><a xlink:href="../../d9/d80/InteractionRecord_8h.html" target="_top" xlink:title="CommonDataFormat/Interaction\lRecord.h">
<polygon fill="none" stroke="#000000" points="296.3203,-112.5 296.3203,-142.5 470.3203,-142.5 470.3203,-112.5 296.3203,-112.5"/>
<text text-anchor="start" x="304.3203" y="-130.5" font-family="Helvetica,sans-Serif" font-size="10.00" fill="#000000">CommonDataFormat/Interaction</text>
<text text-anchor="middle" x="383.3203" y="-119.5" font-family="Helvetica,sans-Serif" font-size="10.00" fill="#000000">Record.h</text>
</a>
</g>
</g>
<!-- Node1&#45;&gt;Node2 -->
<g id="edge2" class="edge">
<title>Node1&#45;&gt;Node2</title>
<path fill="none" stroke="#191970" d="M439.8515,-179.3906C431.1197,-171.3756 418.3418,-159.6466 407.1424,-149.3666"/>
<polygon fill="#191970" stroke="#191970" points="409.4441,-146.7284 399.7103,-142.5446 404.7105,-151.8853 409.4441,-146.7284"/>
</g>
<!-- Node3 -->
<g id="node4" class="node">
<title>Node3</title>
<polygon fill="none" stroke="#bfbfbf" points="260.8203,-.5 260.8203,-19.5 319.8203,-19.5 319.8203,-.5 260.8203,-.5"/>
<text text-anchor="middle" x="290.3203" y="-7.5" font-family="Helvetica,sans-Serif" font-size="10.00" fill="#000000">Rtypes.h</text>
</g>
<!-- Node1&#45;&gt;Node3 -->
<g id="edge17" class="edge">
<title>Node1&#45;&gt;Node3</title>
<path fill="none" stroke="#191970" d="M375.469,-184.8873C262.3842,-178.0637 58.2413,-163.1338 31.3203,-143 5.4753,-123.6709 9.6664,-107.6434 3.3203,-76 1.5724,-67.2847 -2.4463,-62.7645 3.3203,-56 19.1881,-37.3864 175.6369,-20.5823 250.6282,-13.5231"/>
<polygon fill="#191970" stroke="#191970" points="251.0127,-17.0026 260.646,-12.5925 250.3651,-10.0326 251.0127,-17.0026"/>
</g>
<!-- Node8 -->
<g id="node9" class="node">
<title>Node8</title>
<g id="a_node9"><a xlink:href="../../de/d64/RangeReference_8h.html" target="_top" xlink:title="Class to refer to the 1st entry and N elements of some group in the continuous container. ">
<polygon fill="none" stroke="#000000" points="40.3203,-118 40.3203,-137 250.3203,-137 250.3203,-118 40.3203,-118"/>
<text text-anchor="middle" x="145.3203" y="-125" font-family="Helvetica,sans-Serif" font-size="10.00" fill="#000000">CommonDataFormat/RangeReference.h</text>
</a>
</g>
</g>
<!-- Node1&#45;&gt;Node8 -->
<g id="edge8" class="edge">
<title>Node1&#45;&gt;Node8</title>
<path fill="none" stroke="#191970" d="M402.9987,-179.4581C348.9369,-168.5571 260.4915,-150.723 202.5875,-139.0473"/>
<polygon fill="#191970" stroke="#191970" points="202.9965,-135.5594 192.5019,-137.0137 201.6128,-142.4213 202.9965,-135.5594"/>
</g>
<!-- Node10 -->
<g id="node11" class="node">
<title>Node10</title>
<g id="a_node11"><a xlink:href="../../d3/dd7/Detectors_2ZDC_2base_2include_2ZDCBase_2Constants_8h.html" target="_top" xlink:title="ZDCBase/Constants.h">
<polygon fill="none" stroke="#000000" points="732.3203,-118 732.3203,-137 854.3203,-137 854.3203,-118 732.3203,-118"/>
<text text-anchor="middle" x="793.3203" y="-125" font-family="Helvetica,sans-Serif" font-size="10.00" fill="#000000">ZDCBase/Constants.h</text>
</a>
</g>
</g>
<!-- Node1&#45;&gt;Node10 -->
<g id="edge11" class="edge">
<title>Node1&#45;&gt;Node10</title>
<path fill="none" stroke="#191970" d="M503.5377,-179.4581C564.7127,-168.4894 665.037,-150.5012 730.1275,-138.8305"/>
<polygon fill="#191970" stroke="#191970" points="731.0349,-142.2237 740.2602,-137.0137 729.7995,-135.3336 731.0349,-142.2237"/>
</g>
<!-- Node15 -->
<g id="node16" class="node">
<title>Node15</title>
<polygon fill="none" stroke="#bfbfbf" points="488.8203,-118 488.8203,-137 545.8203,-137 545.8203,-118 488.8203,-118"/>
<text text-anchor="middle" x="517.3203" y="-125" font-family="Helvetica,sans-Serif" font-size="10.00" fill="#000000">gsl/span</text>
</g>
<!-- Node1&#45;&gt;Node15 -->
<g id="edge18" class="edge">
<title>Node1&#45;&gt;Node15</title>
<path fill="none" stroke="#191970" d="M460.789,-179.3906C471.054,-169.9683 486.9106,-155.4134 499.2208,-144.1137"/>
<polygon fill="#191970" stroke="#191970" points="501.7037,-146.5856 506.7039,-137.2449 496.9701,-141.4287 501.7037,-146.5856"/>
</g>
<!-- Node2&#45;&gt;Node3 -->
<g id="edge3" class="edge">
<title>Node2&#45;&gt;Node3</title>
<path fill="none" stroke="#191970" d="M437.2432,-112.4823C471.8182,-100.1149 506.8628,-80.6314 487.3203,-56 468.0723,-31.7398 381.8584,-19.0749 330.0741,-13.5425"/>
<polygon fill="#191970" stroke="#191970" points="330.1995,-10.0371 319.8947,-12.4992 329.4857,-17.0006 330.1995,-10.0371"/>
</g>
<!-- Node4 -->
<g id="node5" class="node">
<title>Node4</title>
<polygon fill="none" stroke="#bfbfbf" points="155.8203,-56.5 155.8203,-75.5 204.8203,-75.5 204.8203,-56.5 155.8203,-56.5"/>
<text text-anchor="middle" x="180.3203" y="-63.5" font-family="Helvetica,sans-Serif" font-size="10.00" fill="#000000">iosfwd</text>
</g>
<!-- Node2&#45;&gt;Node4 -->
<g id="edge4" class="edge">
<title>Node2&#45;&gt;Node4</title>
<path fill="none" stroke="#191970" d="M333.6609,-112.4554C296.8022,-101.2888 247.4759,-86.3452 214.8396,-76.4578"/>
<polygon fill="#191970" stroke="#191970" points="215.4521,-72.9863 204.8668,-73.4365 213.4224,-79.6857 215.4521,-72.9863"/>
</g>
<!-- Node5 -->
<g id="node6" class="node">
<title>Node5</title>
<polygon fill="none" stroke="#bfbfbf" points="222.8203,-56.5 222.8203,-75.5 269.8203,-75.5 269.8203,-56.5 222.8203,-56.5"/>
<text text-anchor="middle" x="246.3203" y="-63.5" font-family="Helvetica,sans-Serif" font-size="10.00" fill="#000000">cmath</text>
</g>
<!-- Node2&#45;&gt;Node5 -->
<g id="edge5" class="edge">
<title>Node2&#45;&gt;Node5</title>
<path fill="none" stroke="#191970" d="M349.8063,-112.4554C327.5491,-102.464 298.5556,-89.4487 276.9218,-79.7372"/>
<polygon fill="#191970" stroke="#191970" points="278.1068,-76.4327 267.5504,-75.5303 275.24,-82.8187 278.1068,-76.4327"/>
</g>
<!-- Node6 -->
<g id="node7" class="node">
<title>Node6</title>
<polygon fill="none" stroke="#bfbfbf" points="534.3203,-56.5 534.3203,-75.5 584.3203,-75.5 584.3203,-56.5 534.3203,-56.5"/>
<text text-anchor="middle" x="559.3203" y="-63.5" font-family="Helvetica,sans-Serif" font-size="10.00" fill="#000000">cstdint</text>
</g>
<!-- Node2&#45;&gt;Node6 -->
<g id="edge6" class="edge">
<title>Node2&#45;&gt;Node6</title>
<path fill="none" stroke="#191970" d="M426.3747,-112.4554C456.5978,-101.8945 496.4895,-87.9551 524.6645,-78.1098"/>
<polygon fill="#191970" stroke="#191970" points="525.821,-81.4133 534.1067,-74.8104 523.5119,-74.8051 525.821,-81.4133"/>
</g>
<!-- Node7 -->
<g id="node8" class="node">
<title>Node7</title>
<g id="a_node8"><a xlink:href="../../d4/dc6/LHCConstants_8h.html" target="_top" xlink:title="Header to collect LHC related constants. ">
<polygon fill="none" stroke="#000000" points="288.3203,-56.5 288.3203,-75.5 478.3203,-75.5 478.3203,-56.5 288.3203,-56.5"/>
<text text-anchor="middle" x="383.3203" y="-63.5" font-family="Helvetica,sans-Serif" font-size="10.00" fill="#000000">CommonConstants/LHCConstants.h</text>
</a>
</g>
</g>
<!-- Node2&#45;&gt;Node7 -->
<g id="edge7" class="edge">
<title>Node2&#45;&gt;Node7</title>
<path fill="none" stroke="#191970" d="M383.3203,-112.2977C383.3203,-104.3834 383.3203,-94.6043 383.3203,-86.0759"/>
<polygon fill="#191970" stroke="#191970" points="386.8204,-85.8469 383.3203,-75.8469 379.8204,-85.847 386.8204,-85.8469"/>
</g>
<!-- Node9 -->
<g id="node10" class="node">
<title>Node9</title>
<g id="a_node10"><a xlink:href="../../d2/d45/GPUCommonRtypes_8h.html" target="_top" xlink:title="GPUCommonRtypes.h">
<polygon fill="none" stroke="#000000" points="12.8203,-56.5 12.8203,-75.5 137.8203,-75.5 137.8203,-56.5 12.8203,-56.5"/>
<text text-anchor="middle" x="75.3203" y="-63.5" font-family="Helvetica,sans-Serif" font-size="10.00" fill="#000000">GPUCommonRtypes.h</text>
</a>
</g>
</g>
<!-- Node8&#45;&gt;Node9 -->
<g id="edge9" class="edge">
<title>Node8&#45;&gt;Node9</title>
<path fill="none" stroke="#191970" d="M134.3828,-117.8906C123.6582,-108.4683 107.0916,-93.9134 94.2301,-82.6137"/>
<polygon fill="#191970" stroke="#191970" points="96.2346,-79.7158 86.412,-75.7449 91.6144,-84.9745 96.2346,-79.7158"/>
</g>
<!-- Node9&#45;&gt;Node3 -->
<g id="edge10" class="edge">
<title>Node9&#45;&gt;Node3</title>
<path fill="none" stroke="#191970" d="M112.2801,-56.3733C150.9367,-46.3046 211.3817,-30.5607 250.9248,-20.2612"/>
<polygon fill="#191970" stroke="#191970" points="251.9531,-23.6102 260.748,-17.7026 250.1886,-16.8362 251.9531,-23.6102"/>
</g>
<!-- Node10&#45;&gt;Node6 -->
<g id="edge13" class="edge">
<title>Node10&#45;&gt;Node6</title>
<path fill="none" stroke="#191970" d="M754.5017,-117.9201C716.1799,-108.3704 655.6797,-93.0476 594.385,-76.2332"/>
<polygon fill="#191970" stroke="#191970" points="595.1144,-72.8039 584.544,-73.5225 593.2554,-79.5525 595.1144,-72.8039"/>
</g>
<!-- Node11 -->
<g id="node12" class="node">
<title>Node11</title>
<g id="a_node12"><a xlink:href="../../d3/d9d/PhysicsConstants_8h.html" target="_top" xlink:title="Header to collect physics constants. ">
<polygon fill="none" stroke="#000000" points="689.8203,-56.5 689.8203,-75.5 896.8203,-75.5 896.8203,-56.5 689.8203,-56.5"/>
<text text-anchor="middle" x="793.3203" y="-63.5" font-family="Helvetica,sans-Serif" font-size="10.00" fill="#000000">CommonConstants/PhysicsConstants.h</text>
</a>
</g>
</g>
<!-- Node10&#45;&gt;Node11 -->
<g id="edge12" class="edge">
<title>Node10&#45;&gt;Node11</title>
<path fill="none" stroke="#191970" d="M793.3203,-117.8906C793.3203,-109.3657 793.3203,-96.6392 793.3203,-85.9235"/>
<polygon fill="#191970" stroke="#191970" points="796.8204,-85.7448 793.3203,-75.7449 789.8204,-85.7449 796.8204,-85.7448"/>
</g>
<!-- Node12 -->
<g id="node13" class="node">
<title>Node12</title>
<polygon fill="none" stroke="#bfbfbf" points="914.8203,-56.5 914.8203,-75.5 987.8203,-75.5 987.8203,-56.5 914.8203,-56.5"/>
<text text-anchor="middle" x="951.3203" y="-63.5" font-family="Helvetica,sans-Serif" font-size="10.00" fill="#000000">string_view</text>
</g>
<!-- Node10&#45;&gt;Node12 -->
<g id="edge14" class="edge">
<title>Node10&#45;&gt;Node12</title>
<path fill="none" stroke="#191970" d="M818.0078,-117.8906C844.676,-107.5103 887.3485,-90.9004 917.2114,-79.2766"/>
<polygon fill="#191970" stroke="#191970" points="918.7568,-82.4309 926.8061,-75.5419 916.2176,-75.9076 918.7568,-82.4309"/>
</g>
<!-- Node13 -->
<g id="node14" class="node">
<title>Node13</title>
<polygon fill="none" stroke="#bfbfbf" points="1006.3203,-56.5 1006.3203,-75.5 1050.3203,-75.5 1050.3203,-56.5 1006.3203,-56.5"/>
<text text-anchor="middle" x="1028.3203" y="-63.5" font-family="Helvetica,sans-Serif" font-size="10.00" fill="#000000">string</text>
</g>
<!-- Node10&#45;&gt;Node13 -->
<g id="edge15" class="edge">
<title>Node10&#45;&gt;Node13</title>
<path fill="none" stroke="#191970" d="M834.557,-117.919C873.8125,-108.6139 934.7409,-93.6945 996.1632,-76.211"/>
<polygon fill="#191970" stroke="#191970" points="997.3746,-79.5048 1006.0221,-73.3835 995.4447,-72.7761 997.3746,-79.5048"/>
</g>
<!-- Node14 -->
<g id="node15" class="node">
<title>Node14</title>
<polygon fill="none" stroke="#bfbfbf" points="602.8203,-56.5 602.8203,-75.5 671.8203,-75.5 671.8203,-56.5 602.8203,-56.5"/>
<text text-anchor="middle" x="637.3203" y="-63.5" font-family="Helvetica,sans-Serif" font-size="10.00" fill="#000000">type_traits</text>
</g>
<!-- Node10&#45;&gt;Node14 -->
<g id="edge16" class="edge">
<title>Node10&#45;&gt;Node14</title>
<path fill="none" stroke="#191970" d="M768.9453,-117.8906C742.6147,-107.5103 700.4823,-90.9004 670.9974,-79.2766"/>
<polygon fill="#191970" stroke="#191970" points="672.111,-75.9534 661.5241,-75.5419 669.5436,-82.4657 672.111,-75.9534"/>
</g>
<!-- Node16&#45;&gt;Node3 -->
<g id="edge22" class="edge">
<title>Node16&#45;&gt;Node3</title>
<path fill="none" stroke="#191970" d="M956.3971,-179.4536C1002.0759,-157.5605 1102.7205,-102.0739 1059.3203,-56 1034.1046,-29.2309 484.4478,-14.502 330.2305,-10.8863"/>
<polygon fill="#191970" stroke="#191970" points="329.9013,-7.3778 319.8229,-10.6451 329.7391,-14.3759 329.9013,-7.3778"/>
</g>
<!-- Node16&#45;&gt;Node10 -->
<g id="edge20" class="edge">
<title>Node16&#45;&gt;Node10</title>
<path fill="none" stroke="#191970" d="M913.1328,-179.3906C889.3736,-169.1005 851.4798,-152.6888 824.6778,-141.0809"/>
<polygon fill="#191970" stroke="#191970" points="825.9193,-137.8045 815.352,-137.0419 823.1373,-144.2279 825.9193,-137.8045"/>
</g>
<!-- Node17 -->
<g id="node18" class="node">
<title>Node17</title>
<polygon fill="none" stroke="#bfbfbf" points="1106.3203,-118 1106.3203,-137 1148.3203,-137 1148.3203,-118 1106.3203,-118"/>
<text text-anchor="middle" x="1127.3203" y="-125" font-family="Helvetica,sans-Serif" font-size="10.00" fill="#000000">array</text>
</g>
<!-- Node16&#45;&gt;Node17 -->
<g id="edge21" class="edge">
<title>Node16&#45;&gt;Node17</title>
<path fill="none" stroke="#191970" d="M972.8835,-179.4896C1004.9741,-171.011 1052.1797,-157.696 1092.3203,-143 1093.9506,-142.4031 1095.6127,-141.7666 1097.2831,-141.1048"/>
<polygon fill="#191970" stroke="#191970" points="1098.8998,-144.2226 1106.7772,-137.1375 1096.2008,-137.7638 1098.8998,-144.2226"/>
</g>
</g>
</svg>
        <g id="navigator" transform="translate(0 0)" fill="#404254">
                <rect fill="#f2f5e9" fill-opacity="0.5" stroke="#606060" stroke-width=".5" x="0" y="0" width="60" height="60"/>
                <use id="zoomplus" xlink:href="#zoomPlus" x="17" y="9" onmousedown="handleZoom(evt,'in')"/>
                <use id="zoomminus" xlink:href="#zoomMin" x="42" y="9" onmousedown="handleZoom(evt,'out')"/>
                <use id="reset" xlink:href="#resetDef" x="30" y="36" onmousedown="handleReset()"/>
                <g id="arrowUp" xlink:href="#dirArrow" transform="translate(30 24)" onmousedown="handlePan(0,-1)">
                  <use xlink:href="#rim" fill="#404040">
                        <set attributeName="fill" to="#808080" begin="arrowUp.mouseover" end="arrowUp.mouseout"/>
                  </use>
                  <path fill="none" stroke="white" stroke-width="1.5" d="M0,-3.0v7 M-2.5,-0.5L0,-3.0L2.5,-0.5"/>
                </g>
                <g id="arrowRight" xlink:href="#dirArrow" transform="rotate(90) translate(36 -43)" onmousedown="handlePan(1,0)">
                  <use xlink:href="#rim" fill="#404040">
                        <set attributeName="fill" to="#808080" begin="arrowRight.mouseover" end="arrowRight.mouseout"/>
                  </use>
                  <path fill="none" stroke="white" stroke-width="1.5" d="M0,-3.0v7 M-2.5,-0.5L0,-3.0L2.5,-0.5"/>
                </g>
                <g id="arrowDown" xlink:href="#dirArrow" transform="rotate(180) translate(-30 -48)" onmousedown="handlePan(0,1)">
                  <use xlink:href="#rim" fill="#404040">
                        <set attributeName="fill" to="#808080" begin="arrowDown.mouseover" end="arrowDown.mouseout"/>
                  </use>
                  <path fill="none" stroke="white" stroke-width="1.5" d="M0,-3.0v7 M-2.5,-0.5L0,-3.0L2.5,-0.5"/>
                </g>
                <g id="arrowLeft" xlink:href="#dirArrow" transform="rotate(270) translate(-36 17)" onmousedown="handlePan(-1,0)">
                  <use xlink:href="#rim" fill="#404040">
                        <set attributeName="fill" to="#808080" begin="arrowLeft.mouseover" end="arrowLeft.mouseout"/>
                  </use>
                  <path fill="none" stroke="white" stroke-width="1.5" d="M0,-3.0v7 M-2.5,-0.5L0,-3.0L2.5,-0.5"/>
                </g>
        </g>
        <svg viewBox="0 0 15 15" width="100%" height="30px" preserveAspectRatio="xMaxYMin meet">
         <g id="arrow_out" transform="scale(0.3 0.3)">
          <a xlink:href="ZDC_2src_2BCData_8cxx__incl_org.svg" target="_base">
           <rect id="button" ry="5" rx="5" y="6" x="6" height="38" width="38"
                fill="#f2f5e9" fill-opacity="0.5" stroke="#606060" stroke-width="1.0"/>
           <path id="arrow"
             d="M 11.500037,31.436501 C 11.940474,20.09759 22.043105,11.32322 32.158766,21.979434 L 37.068811,17.246167 C 37.068811,17.246167 37.088388,32 37.088388,32 L 22.160133,31.978069 C 22.160133,31.978069 26.997745,27.140456 26.997745,27.140456 C 18.528582,18.264221 13.291696,25.230495 11.500037,31.436501 z"
             style="fill:#404040;"/>
          </a>
         </g>
        </svg>
</svg>
