<?xml version="1.0" encoding="UTF-8" standalone="no"?>
<!DOCTYPE svg PUBLIC "-//W3C//DTD SVG 1.1//EN"
 "http://www.w3.org/Graphics/SVG/1.1/DTD/svg11.dtd">
<!-- Generated by graphviz version 2.40.1 (20161225.0304)
 -->
<!-- Title: /home/travis/build/AliceO2Group/AliceO2/Detectors/MUON/MCH/Raw/ImplHelpers/MoveBuffer.h Pages: 1 -->
<svg width="942pt" height="350pt"
 viewBox="0.00 0.00 941.50 350.00" xmlns="http://www.w3.org/2000/svg" xmlns:xlink="http://www.w3.org/1999/xlink">
<g id="graph0" class="graph" transform="scale(1 1) rotate(0) translate(4 346)">
<title>/home/travis/build/AliceO2Group/AliceO2/Detectors/MUON/MCH/Raw/ImplHelpers/MoveBuffer.h</title>
<!-- Node4 -->
<g id="node1" class="node">
<title>Node4</title>
<polygon fill="#bfbfbf" stroke="#000000" points="315.5,-289.5 315.5,-341.5 465.5,-341.5 465.5,-289.5 315.5,-289.5"/>
<text text-anchor="start" x="323.5" y="-329.5" font-family="Helvetica,sans-Serif" font-size="10.00" fill="#000000">/home/travis/build</text>
<text text-anchor="start" x="323.5" y="-318.5" font-family="Helvetica,sans-Serif" font-size="10.00" fill="#000000">/AliceO2Group/AliceO2</text>
<text text-anchor="start" x="323.5" y="-307.5" font-family="Helvetica,sans-Serif" font-size="10.00" fill="#000000">/Detectors/MUON/MCH/Raw</text>
<text text-anchor="middle" x="390.5" y="-296.5" font-family="Helvetica,sans-Serif" font-size="10.00" fill="#000000">/ImplHelpers/MoveBuffer.h</text>
</g>
<!-- Node5 -->
<g id="node2" class="node">
<title>Node5</title>
<g id="a_node2"><a xlink:href="../../d5/d93/testUserLogicElinkDecoder_8cxx.html" target="_top" xlink:title="/home/travis/build\l/AliceO2Group/AliceO2\l/Detectors/MUON/MCH/Raw\l/Decoder/src/testUserLogicElink\lDecoder.cxx">
<polygon fill="none" stroke="#000000" points="0,-189.5 0,-252.5 171,-252.5 171,-189.5 0,-189.5"/>
<text text-anchor="start" x="8" y="-240.5" font-family="Helvetica,sans-Serif" font-size="10.00" fill="#000000">/home/travis/build</text>
<text text-anchor="start" x="8" y="-229.5" font-family="Helvetica,sans-Serif" font-size="10.00" fill="#000000">/AliceO2Group/AliceO2</text>
<text text-anchor="start" x="8" y="-218.5" font-family="Helvetica,sans-Serif" font-size="10.00" fill="#000000">/Detectors/MUON/MCH/Raw</text>
<text text-anchor="start" x="8" y="-207.5" font-family="Helvetica,sans-Serif" font-size="10.00" fill="#000000">/Decoder/src/testUserLogicElink</text>
<text text-anchor="middle" x="85.5" y="-196.5" font-family="Helvetica,sans-Serif" font-size="10.00" fill="#000000">Decoder.cxx</text>
</a>
</g>
</g>
<!-- Node4&#45;&gt;Node5 -->
<g id="edge1" class="edge">
<title>Node4&#45;&gt;Node5</title>
<path fill="none" stroke="#191970" d="M305.7152,-289.9371C268.7562,-278.72 224.9477,-265.3243 185.5,-253 180.8023,-251.5323 175.9831,-250.0183 171.1204,-248.484"/>
<polygon fill="#191970" stroke="#191970" points="304.8659,-293.3369 315.4513,-292.8898 306.8974,-286.6382 304.8659,-293.3369"/>
</g>
<!-- Node6 -->
<g id="node3" class="node">
<title>Node6</title>
<g id="a_node3"><a xlink:href="../../d4/d54/GBTEncoder_8h.html" target="_top" xlink:title="/home/travis/build\l/AliceO2Group/AliceO2\l/Detectors/MUON/MCH/Raw\l/Encoder/Payload/GBTEncoder.h">
<polygon fill="none" stroke="#000000" points="569.5,-195 569.5,-247 739.5,-247 739.5,-195 569.5,-195"/>
<text text-anchor="start" x="577.5" y="-235" font-family="Helvetica,sans-Serif" font-size="10.00" fill="#000000">/home/travis/build</text>
<text text-anchor="start" x="577.5" y="-224" font-family="Helvetica,sans-Serif" font-size="10.00" fill="#000000">/AliceO2Group/AliceO2</text>
<text text-anchor="start" x="577.5" y="-213" font-family="Helvetica,sans-Serif" font-size="10.00" fill="#000000">/Detectors/MUON/MCH/Raw</text>
<text text-anchor="middle" x="654.5" y="-202" font-family="Helvetica,sans-Serif" font-size="10.00" fill="#000000">/Encoder/Payload/GBTEncoder.h</text>
</a>
</g>
</g>
<!-- Node4&#45;&gt;Node6 -->
<g id="edge2" class="edge">
<title>Node4&#45;&gt;Node6</title>
<path fill="none" stroke="#191970" d="M472.9823,-285.9751C507.7131,-273.543 547.7928,-259.1963 581.4419,-247.1515"/>
<polygon fill="#191970" stroke="#191970" points="471.5734,-282.7618 463.338,-289.4273 473.9326,-289.3523 471.5734,-282.7618"/>
</g>
<!-- Node9 -->
<g id="node6" class="node">
<title>Node9</title>
<g id="a_node6"><a xlink:href="../../d5/dd6/testGBTEncoder_8cxx.html" target="_top" xlink:title="/home/travis/build\l/AliceO2Group/AliceO2\l/Detectors/MUON/MCH/Raw\l/Encoder/Payload/testGBTEncoder.cxx">
<polygon fill="none" stroke="#000000" points="195.5,-.5 195.5,-52.5 395.5,-52.5 395.5,-.5 195.5,-.5"/>
<text text-anchor="start" x="203.5" y="-40.5" font-family="Helvetica,sans-Serif" font-size="10.00" fill="#000000">/home/travis/build</text>
<text text-anchor="start" x="203.5" y="-29.5" font-family="Helvetica,sans-Serif" font-size="10.00" fill="#000000">/AliceO2Group/AliceO2</text>
<text text-anchor="start" x="203.5" y="-18.5" font-family="Helvetica,sans-Serif" font-size="10.00" fill="#000000">/Detectors/MUON/MCH/Raw</text>
<text text-anchor="middle" x="295.5" y="-7.5" font-family="Helvetica,sans-Serif" font-size="10.00" fill="#000000">/Encoder/Payload/testGBTEncoder.cxx</text>
</a>
</g>
</g>
<!-- Node4&#45;&gt;Node9 -->
<g id="edge13" class="edge">
<title>Node4&#45;&gt;Node9</title>
<path fill="none" stroke="#191970" d="M329.9864,-283.8412C316.8582,-275.0775 303.829,-264.7065 293.5,-253 260.8829,-216.0332 256.4394,-201.0703 245.5,-153 239.1883,-125.2647 236.0847,-115.841 245.5,-89 250.1916,-75.6254 259.0821,-62.9867 268.0809,-52.6206"/>
<polygon fill="#191970" stroke="#191970" points="328.2934,-286.9134 338.6005,-289.366 332.0726,-281.0211 328.2934,-286.9134"/>
</g>
<!-- Node10 -->
<g id="node7" class="node">
<title>Node10</title>
<g id="a_node7"><a xlink:href="../../d8/d97/UserLogicElinkEncoder_8h.html" target="_top" xlink:title="/home/travis/build\l/AliceO2Group/AliceO2\l/Detectors/MUON/MCH/Raw\l/Encoder/Payload/UserLogicElink\lEncoder.h">
<polygon fill="none" stroke="#000000" points="303,-189.5 303,-252.5 478,-252.5 478,-189.5 303,-189.5"/>
<text text-anchor="start" x="311" y="-240.5" font-family="Helvetica,sans-Serif" font-size="10.00" fill="#000000">/home/travis/build</text>
<text text-anchor="start" x="311" y="-229.5" font-family="Helvetica,sans-Serif" font-size="10.00" fill="#000000">/AliceO2Group/AliceO2</text>
<text text-anchor="start" x="311" y="-218.5" font-family="Helvetica,sans-Serif" font-size="10.00" fill="#000000">/Detectors/MUON/MCH/Raw</text>
<text text-anchor="start" x="311" y="-207.5" font-family="Helvetica,sans-Serif" font-size="10.00" fill="#000000">/Encoder/Payload/UserLogicElink</text>
<text text-anchor="middle" x="390.5" y="-196.5" font-family="Helvetica,sans-Serif" font-size="10.00" fill="#000000">Encoder.h</text>
</a>
</g>
</g>
<!-- Node4&#45;&gt;Node10 -->
<g id="edge6" class="edge">
<title>Node4&#45;&gt;Node10</title>
<path fill="none" stroke="#191970" d="M390.5,-279.1424C390.5,-270.4277 390.5,-261.1902 390.5,-252.7054"/>
<polygon fill="#191970" stroke="#191970" points="387.0001,-279.4273 390.5,-289.4273 394.0001,-279.4273 387.0001,-279.4273"/>
</g>
<!-- Node13 -->
<g id="node10" class="node">
<title>Node13</title>
<g id="a_node10"><a xlink:href="../../d2/d72/testMoveBuffer_8cxx.html" target="_top" xlink:title="/home/travis/build\l/AliceO2Group/AliceO2\l/Detectors/MUON/MCH/Raw\l/ImplHelpers/testMoveBuffer.cxx">
<polygon fill="none" stroke="#000000" points="757.5,-195 757.5,-247 933.5,-247 933.5,-195 757.5,-195"/>
<text text-anchor="start" x="765.5" y="-235" font-family="Helvetica,sans-Serif" font-size="10.00" fill="#000000">/home/travis/build</text>
<text text-anchor="start" x="765.5" y="-224" font-family="Helvetica,sans-Serif" font-size="10.00" fill="#000000">/AliceO2Group/AliceO2</text>
<text text-anchor="start" x="765.5" y="-213" font-family="Helvetica,sans-Serif" font-size="10.00" fill="#000000">/Detectors/MUON/MCH/Raw</text>
<text text-anchor="middle" x="845.5" y="-202" font-family="Helvetica,sans-Serif" font-size="10.00" fill="#000000">/ImplHelpers/testMoveBuffer.cxx</text>
</a>
</g>
</g>
<!-- Node4&#45;&gt;Node13 -->
<g id="edge14" class="edge">
<title>Node4&#45;&gt;Node13</title>
<path fill="none" stroke="#191970" d="M475.6248,-304.209C548.6238,-293.6791 656.298,-276.1258 748.5,-253 755.5521,-251.2312 762.8334,-249.2082 770.0895,-247.0577"/>
<polygon fill="#191970" stroke="#191970" points="474.9636,-300.7679 465.5597,-305.6481 475.9545,-307.6974 474.9636,-300.7679"/>
</g>
<!-- Node7 -->
<g id="node4" class="node">
<title>Node7</title>
<g id="a_node4"><a xlink:href="../../df/da6/EncoderImpl_8h.html" target="_top" xlink:title="/home/travis/build\l/AliceO2Group/AliceO2\l/Detectors/MUON/MCH/Raw\l/Encoder/Payload/EncoderImpl.h">
<polygon fill="none" stroke="#000000" points="758,-95 758,-147 931,-147 931,-95 758,-95"/>
<text text-anchor="start" x="766" y="-135" font-family="Helvetica,sans-Serif" font-size="10.00" fill="#000000">/home/travis/build</text>
<text text-anchor="start" x="766" y="-124" font-family="Helvetica,sans-Serif" font-size="10.00" fill="#000000">/AliceO2Group/AliceO2</text>
<text text-anchor="start" x="766" y="-113" font-family="Helvetica,sans-Serif" font-size="10.00" fill="#000000">/Detectors/MUON/MCH/Raw</text>
<text text-anchor="middle" x="844.5" y="-102" font-family="Helvetica,sans-Serif" font-size="10.00" fill="#000000">/Encoder/Payload/EncoderImpl.h</text>
</a>
</g>
</g>
<!-- Node6&#45;&gt;Node7 -->
<g id="edge3" class="edge">
<title>Node6&#45;&gt;Node7</title>
<path fill="none" stroke="#191970" d="M713.0111,-190.2047C739.2638,-176.3875 769.9004,-160.263 794.9935,-147.0561"/>
<polygon fill="#191970" stroke="#191970" points="711.1433,-187.2325 703.9243,-194.9872 714.4036,-193.4269 711.1433,-187.2325"/>
</g>
<!-- Node6&#45;&gt;Node9 -->
<g id="edge5" class="edge">
<title>Node6&#45;&gt;Node9</title>
<path fill="none" stroke="#191970" d="M672.7329,-185.4814C684.8949,-156.2536 694.942,-115.4688 672.5,-89 654.6943,-67.9994 501.4627,-47.9545 395.9225,-36.456"/>
<polygon fill="#191970" stroke="#191970" points="669.4061,-184.3511 668.5712,-194.913 675.8104,-187.177 669.4061,-184.3511"/>
</g>
<!-- Node8 -->
<g id="node5" class="node">
<title>Node8</title>
<g id="a_node5"><a xlink:href="../../d6/d9c/MUON_2MCH_2Raw_2Encoder_2Payload_2Encoder_8cxx.html" target="_top" xlink:title="/home/travis/build\l/AliceO2Group/AliceO2\l/Detectors/MUON/MCH/Raw\l/Encoder/Payload/Encoder.cxx">
<polygon fill="none" stroke="#000000" points="649,-.5 649,-52.5 810,-52.5 810,-.5 649,-.5"/>
<text text-anchor="start" x="657" y="-40.5" font-family="Helvetica,sans-Serif" font-size="10.00" fill="#000000">/home/travis/build</text>
<text text-anchor="start" x="657" y="-29.5" font-family="Helvetica,sans-Serif" font-size="10.00" fill="#000000">/AliceO2Group/AliceO2</text>
<text text-anchor="start" x="657" y="-18.5" font-family="Helvetica,sans-Serif" font-size="10.00" fill="#000000">/Detectors/MUON/MCH/Raw</text>
<text text-anchor="middle" x="729.5" y="-7.5" font-family="Helvetica,sans-Serif" font-size="10.00" fill="#000000">/Encoder/Payload/Encoder.cxx</text>
</a>
</g>
</g>
<!-- Node7&#45;&gt;Node8 -->
<g id="edge4" class="edge">
<title>Node7&#45;&gt;Node8</title>
<path fill="none" stroke="#191970" d="M804.6778,-88.2765C790.5732,-76.6863 774.8967,-63.8043 761.5244,-52.8157"/>
<polygon fill="#191970" stroke="#191970" points="802.8231,-91.2826 812.7713,-94.9273 807.2673,-85.8743 802.8231,-91.2826"/>
</g>
<!-- Node10&#45;&gt;Node8 -->
<g id="edge7" class="edge">
<title>Node10&#45;&gt;Node8</title>
<path fill="none" stroke="#191970" d="M488.3671,-201.8077C563.9235,-186.262 657.9808,-165.0329 672.5,-153 703.3805,-127.4075 718.2036,-81.5947 724.7939,-52.6897"/>
<polygon fill="#191970" stroke="#191970" points="487.406,-198.4318 478.3109,-203.866 488.8097,-205.2897 487.406,-198.4318"/>
</g>
<!-- Node10&#45;&gt;Node9 -->
<g id="edge12" class="edge">
<title>Node10&#45;&gt;Node9</title>
<path fill="none" stroke="#191970" d="M293.8204,-188.6673C278.9625,-179.4615 265.5708,-167.775 256.5,-153 237.1413,-121.4675 257.5576,-79.5633 275.3762,-52.8049"/>
<polygon fill="#191970" stroke="#191970" points="292.3064,-191.8347 302.7163,-193.8055 295.8075,-185.7731 292.3064,-191.8347"/>
</g>
<!-- Node11 -->
<g id="node8" class="node">
<title>Node11</title>
<g id="a_node8"><a xlink:href="../../d8/dc5/UserLogicElinkEncoderMerger_8h.html" target="_top" xlink:title="/home/travis/build\l/AliceO2Group/AliceO2\l/Detectors/MUON/MCH/Raw\l/Encoder/Payload/UserLogicElink\lEncoderMerger.h">
<polygon fill="none" stroke="#000000" points="266,-89.5 266,-152.5 441,-152.5 441,-89.5 266,-89.5"/>
<text text-anchor="start" x="274" y="-140.5" font-family="Helvetica,sans-Serif" font-size="10.00" fill="#000000">/home/travis/build</text>
<text text-anchor="start" x="274" y="-129.5" font-family="Helvetica,sans-Serif" font-size="10.00" fill="#000000">/AliceO2Group/AliceO2</text>
<text text-anchor="start" x="274" y="-118.5" font-family="Helvetica,sans-Serif" font-size="10.00" fill="#000000">/Detectors/MUON/MCH/Raw</text>
<text text-anchor="start" x="274" y="-107.5" font-family="Helvetica,sans-Serif" font-size="10.00" fill="#000000">/Encoder/Payload/UserLogicElink</text>
<text text-anchor="middle" x="353.5" y="-96.5" font-family="Helvetica,sans-Serif" font-size="10.00" fill="#000000">EncoderMerger.h</text>
</a>
</g>
</g>
<!-- Node10&#45;&gt;Node11 -->
<g id="edge8" class="edge">
<title>Node10&#45;&gt;Node11</title>
<path fill="none" stroke="#191970" d="M375.2513,-179.7872C371.9149,-170.7701 368.4329,-161.3593 365.2579,-152.778"/>
<polygon fill="#191970" stroke="#191970" points="372.0403,-181.1953 378.793,-189.3594 378.6053,-178.7662 372.0403,-181.1953"/>
</g>
<!-- Node12 -->
<g id="node9" class="node">
<title>Node12</title>
<g id="a_node9"><a xlink:href="../../d4/df7/testElinkEncoder_8cxx.html" target="_top" xlink:title="/home/travis/build\l/AliceO2Group/AliceO2\l/Detectors/MUON/MCH/Raw\l/Encoder/Payload/testElinkEncoder.cxx">
<polygon fill="none" stroke="#000000" points="459.5,-95 459.5,-147 663.5,-147 663.5,-95 459.5,-95"/>
<text text-anchor="start" x="467.5" y="-135" font-family="Helvetica,sans-Serif" font-size="10.00" fill="#000000">/home/travis/build</text>
<text text-anchor="start" x="467.5" y="-124" font-family="Helvetica,sans-Serif" font-size="10.00" fill="#000000">/AliceO2Group/AliceO2</text>
<text text-anchor="start" x="467.5" y="-113" font-family="Helvetica,sans-Serif" font-size="10.00" fill="#000000">/Detectors/MUON/MCH/Raw</text>
<text text-anchor="middle" x="561.5" y="-102" font-family="Helvetica,sans-Serif" font-size="10.00" fill="#000000">/Encoder/Payload/testElinkEncoder.cxx</text>
</a>
</g>
</g>
<!-- Node10&#45;&gt;Node12 -->
<g id="edge11" class="edge">
<title>Node10&#45;&gt;Node12</title>
<path fill="none" stroke="#191970" d="M453.4911,-184.1631C474.5424,-171.8524 497.5537,-158.3955 516.9067,-147.078"/>
<polygon fill="#191970" stroke="#191970" points="451.4709,-181.2899 444.6055,-189.3594 455.0046,-187.3325 451.4709,-181.2899"/>
</g>
<!-- Node11&#45;&gt;Node8 -->
<g id="edge9" class="edge">
<title>Node11&#45;&gt;Node8</title>
<path fill="none" stroke="#191970" d="M450.8845,-88.9815C523.1475,-69.2967 595.124,-53.4668 648.7036,-42.4071"/>
<polygon fill="#191970" stroke="#191970" points="449.8662,-85.6315 441.151,-91.6561 451.721,-92.3813 449.8662,-85.6315"/>
</g>
<!-- Node11&#45;&gt;Node9 -->
<g id="edge10" class="edge">
<title>Node11&#45;&gt;Node9</title>
<path fill="none" stroke="#191970" d="M328.7668,-80.702C322.9385,-71.2058 316.8751,-61.3266 311.5461,-52.6442"/>
<polygon fill="#191970" stroke="#191970" points="325.8116,-82.578 334.0255,-89.27 331.7775,-78.9164 325.8116,-82.578"/>
</g>
</g>
</svg>
