<?xml version="1.0" encoding="UTF-8" standalone="no"?>
<!DOCTYPE svg PUBLIC "-//W3C//DTD SVG 1.1//EN"
 "http://www.w3.org/Graphics/SVG/1.1/DTD/svg11.dtd">
<!-- Generated by graphviz version 2.40.1 (20161225.0304)
 -->
<!-- Title: /home/travis/build/AliceO2Group/AliceO2/Detectors/MUON/MID/Raw/src/CRUUserLogicDecoder.cxx Pages: 1 -->
<!--zoomable 296 -->
<svg id="main" version="1.1" xmlns="http://www.w3.org/2000/svg" xmlns:xlink="http://www.w3.org/1999/xlink" xml:space="preserve" onload="init(evt)">
<style type="text/css"><![CDATA[
.edge:hover path { stroke: red; }
.edge:hover polygon { stroke: red; fill: red; }
]]></style>
<script type="text/javascript"><![CDATA[
var edges = document.getElementsByTagName('g');
if (edges && edges.length) {
  for (var i=0;i<edges.length;i++) {
    if (edges[i].id.substr(0,4)=='edge') {
      edges[i].setAttribute('class','edge');
    }
  }
}
]]></script>
        <defs>
                <circle id="rim" cx="0" cy="0" r="7"/>
                <circle id="rim2" cx="0" cy="0" r="3.5"/>
                <g id="zoomPlus">
                        <use xlink:href="#rim" fill="#404040">
                                <set attributeName="fill" to="#808080" begin="zoomplus.mouseover" end="zoomplus.mouseout"/>
                        </use>
                        <path d="M-4,0h8M0,-4v8" fill="none" stroke="white" stroke-width="1.5" pointer-events="none"/>
                </g>
                <g id="zoomMin">
                        <use xlink:href="#rim" fill="#404040">
                                <set attributeName="fill" to="#808080" begin="zoomminus.mouseover" end="zoomminus.mouseout"/>
                        </use>
                        <path d="M-4,0h8" fill="none" stroke="white" stroke-width="1.5" pointer-events="none"/>
                </g>
                <g id="dirArrow">
                        <path fill="none" stroke="white" stroke-width="1.5" d="M0,-3.0v7 M-2.5,-0.5L0,-3.0L2.5,-0.5"/>
                </g>
               <g id="resetDef">
                       <use xlink:href="#rim2" fill="#404040">
                               <set attributeName="fill" to="#808080" begin="reset.mouseover" end="reset.mouseout"/>
                       </use>
               </g>
        </defs>

<script type="text/javascript">
var viewWidth = 1213;
var viewHeight = 296;
var sectionId = 'dynsection-0';
</script>
<script xlink:href="../../svgpan.js"/>
<svg id="graph" class="graph">
<g id="viewport">
<title>/home/travis/build/AliceO2Group/AliceO2/Detectors/MUON/MID/Raw/src/CRUUserLogicDecoder.cxx</title>
<!-- Node0 -->
<g id="node1" class="node">
<title>Node0</title>
<polygon fill="#bfbfbf" stroke="#000000" points="134.5,-235.5 134.5,-287.5 300.5,-287.5 300.5,-235.5 134.5,-235.5"/>
<text text-anchor="start" x="142.5" y="-275.5" font-family="Helvetica,sans-Serif" font-size="10.00" fill="#000000">/home/travis/build</text>
<text text-anchor="start" x="142.5" y="-264.5" font-family="Helvetica,sans-Serif" font-size="10.00" fill="#000000">/AliceO2Group/AliceO2</text>
<text text-anchor="start" x="142.5" y="-253.5" font-family="Helvetica,sans-Serif" font-size="10.00" fill="#000000">/Detectors/MUON/MID/Raw</text>
<text text-anchor="middle" x="217.5" y="-242.5" font-family="Helvetica,sans-Serif" font-size="10.00" fill="#000000">/src/CRUUserLogicDecoder.cxx</text>
</g>
<!-- Node1 -->
<g id="node2" class="node">
<title>Node1</title>
<g id="a_node2"><a xlink:href="../../da/d46/CRUUserLogicDecoder_8h.html" target="_top" xlink:title="MID CRU user logic decoder. ">
<polygon fill="none" stroke="#000000" points="492,-179.5 492,-198.5 669,-198.5 669,-179.5 492,-179.5"/>
<text text-anchor="middle" x="580.5" y="-186.5" font-family="Helvetica,sans-Serif" font-size="10.00" fill="#000000">MIDRaw/CRUUserLogicDecoder.h</text>
</a>
</g>
</g>
<!-- Node0&#45;&gt;Node1 -->
<g id="edge1" class="edge">
<title>Node0&#45;&gt;Node1</title>
<path fill="none" stroke="#191970" d="M300.7795,-244.867C368.7477,-231.2921 463.0132,-212.465 522.8819,-200.5078"/>
<polygon fill="#191970" stroke="#191970" points="523.7944,-203.8947 532.9152,-198.5039 522.4233,-197.0303 523.7944,-203.8947"/>
</g>
<!-- Node17 -->
<g id="node18" class="node">
<title>Node17</title>
<g id="a_node18"><a xlink:href="../../d7/d1a/RawInfo_8h.html" target="_top" xlink:title="Raw data format MID. ">
<polygon fill="none" stroke="#000000" points="0,-179.5 0,-198.5 65,-198.5 65,-179.5 0,-179.5"/>
<text text-anchor="middle" x="32.5" y="-186.5" font-family="Helvetica,sans-Serif" font-size="10.00" fill="#000000">RawInfo.h</text>
</a>
</g>
</g>
<!-- Node0&#45;&gt;Node17 -->
<g id="edge25" class="edge">
<title>Node0&#45;&gt;Node17</title>
<path fill="none" stroke="#191970" d="M150.9721,-235.4283C122.3297,-224.2035 90.0719,-211.5619 66.4569,-202.3074"/>
<polygon fill="#191970" stroke="#191970" points="67.4887,-198.9527 56.9011,-198.5626 64.9346,-205.4701 67.4887,-198.9527"/>
</g>
<!-- Node18 -->
<g id="node19" class="node">
<title>Node18</title>
<g id="a_node19"><a xlink:href="../../d2/da5/CrateParameters_8h.html" target="_top" xlink:title="MID RO crate parameters. ">
<polygon fill="none" stroke="#000000" points="167.5,-123.5 167.5,-142.5 317.5,-142.5 317.5,-123.5 167.5,-123.5"/>
<text text-anchor="middle" x="242.5" y="-130.5" font-family="Helvetica,sans-Serif" font-size="10.00" fill="#000000">MIDRaw/CrateParameters.h</text>
</a>
</g>
</g>
<!-- Node0&#45;&gt;Node18 -->
<g id="edge27" class="edge">
<title>Node0&#45;&gt;Node18</title>
<path fill="none" stroke="#191970" d="M236.0392,-235.4103C242.599,-224.6631 249.1717,-211.7553 252.5,-199 256.5233,-183.5812 253.3398,-165.6855 249.5306,-152.4217"/>
<polygon fill="#191970" stroke="#191970" points="252.737,-150.9622 246.3281,-142.5256 246.0771,-153.1174 252.737,-150.9622"/>
</g>
<!-- Node19 -->
<g id="node20" class="node">
<title>Node19</title>
<g id="a_node20"><a xlink:href="../../de/da4/Triggers_8h.html" target="_top" xlink:title="Definition of the 32 Central Trigger System (CTS) Trigger Types defined in https://twiki.cern.ch/twiki/pub/ALICE/NoteForFEDevelopers/CTS_CRU_FE_interface.pdf. ">
<polygon fill="none" stroke="#000000" points="83.5,-179.5 83.5,-198.5 243.5,-198.5 243.5,-179.5 83.5,-179.5"/>
<text text-anchor="middle" x="163.5" y="-186.5" font-family="Helvetica,sans-Serif" font-size="10.00" fill="#000000">CommonConstants/Triggers.h</text>
</a>
</g>
</g>
<!-- Node0&#45;&gt;Node19 -->
<g id="edge30" class="edge">
<title>Node0&#45;&gt;Node19</title>
<path fill="none" stroke="#191970" d="M198.0048,-235.3258C190.9195,-225.8132 183.0853,-215.2951 176.6749,-206.6886"/>
<polygon fill="#191970" stroke="#191970" points="179.3816,-204.4632 170.6012,-198.534 173.7677,-208.6446 179.3816,-204.4632"/>
</g>
<!-- Node2 -->
<g id="node3" class="node">
<title>Node2</title>
<polygon fill="none" stroke="#bfbfbf" points="451.5,-.5 451.5,-19.5 501.5,-19.5 501.5,-.5 451.5,-.5"/>
<text text-anchor="middle" x="476.5" y="-7.5" font-family="Helvetica,sans-Serif" font-size="10.00" fill="#000000">cstdint</text>
</g>
<!-- Node1&#45;&gt;Node2 -->
<g id="edge2" class="edge">
<title>Node1&#45;&gt;Node2</title>
<path fill="none" stroke="#191970" d="M570.0151,-179.3656C552.2093,-162.4207 516.0906,-125.4216 496.5,-87 487.1715,-68.7048 481.9324,-45.6864 479.1792,-29.6032"/>
<polygon fill="#191970" stroke="#191970" points="482.638,-29.0673 477.6506,-19.7198 475.7203,-30.1373 482.638,-29.0673"/>
</g>
<!-- Node3 -->
<g id="node4" class="node">
<title>Node3</title>
<polygon fill="none" stroke="#bfbfbf" points="505,-62 505,-81 552,-81 552,-62 505,-62"/>
<text text-anchor="middle" x="528.5" y="-69" font-family="Helvetica,sans-Serif" font-size="10.00" fill="#000000">vector</text>
</g>
<!-- Node1&#45;&gt;Node3 -->
<g id="edge3" class="edge">
<title>Node1&#45;&gt;Node3</title>
<path fill="none" stroke="#191970" d="M575.0391,-179.2813C569.9593,-170.0737 562.3204,-155.7899 556.5,-143 548.5909,-125.6203 540.7668,-105.3057 535.4085,-90.7811"/>
<polygon fill="#191970" stroke="#191970" points="538.6861,-89.5527 531.9768,-81.353 532.1083,-91.9471 538.6861,-89.5527"/>
</g>
<!-- Node4 -->
<g id="node5" class="node">
<title>Node4</title>
<polygon fill="none" stroke="#bfbfbf" points="608.5,-62 608.5,-81 656.5,-81 656.5,-62 608.5,-62"/>
<text text-anchor="middle" x="632.5" y="-69" font-family="Helvetica,sans-Serif" font-size="10.00" fill="#000000">gsl/gsl</text>
</g>
<!-- Node1&#45;&gt;Node4 -->
<g id="edge4" class="edge">
<title>Node1&#45;&gt;Node4</title>
<path fill="none" stroke="#191970" d="M637.1366,-179.4697C658.153,-172.8875 679.9176,-161.77 692.5,-143 706.4575,-122.1786 681.6405,-100.414 659.8117,-86.4483"/>
<polygon fill="#191970" stroke="#191970" points="661.4334,-83.3384 651.0685,-81.1428 657.8019,-89.3228 661.4334,-83.3384"/>
</g>
<!-- Node5 -->
<g id="node6" class="node">
<title>Node5</title>
<g id="a_node6"><a xlink:href="../../d2/df9/MUON_2MID_2include_2DataFormatsMID_2ROFRecord_8h.html" target="_top" xlink:title="Definition of the MID event record. ">
<polygon fill="none" stroke="#000000" points="949,-123.5 949,-142.5 1112,-142.5 1112,-123.5 949,-123.5"/>
<text text-anchor="middle" x="1030.5" y="-130.5" font-family="Helvetica,sans-Serif" font-size="10.00" fill="#000000">DataFormatsMID/ROFRecord.h</text>
</a>
</g>
</g>
<!-- Node1&#45;&gt;Node5 -->
<g id="edge5" class="edge">
<title>Node1&#45;&gt;Node5</title>
<path fill="none" stroke="#191970" d="M657.0913,-179.4686C736.5704,-169.5779 860.6466,-154.1373 943.707,-143.8009"/>
<polygon fill="#191970" stroke="#191970" points="944.3886,-147.2432 953.8799,-142.535 943.5241,-140.2967 944.3886,-147.2432"/>
</g>
<!-- Node11 -->
<g id="node12" class="node">
<title>Node11</title>
<g id="a_node12"><a xlink:href="../../d3/d4a/LocalBoardRO_8h.html" target="_top" xlink:title="Structure to store the FEE local board information. ">
<polygon fill="none" stroke="#000000" points="335.5,-123.5 335.5,-142.5 471.5,-142.5 471.5,-123.5 335.5,-123.5"/>
<text text-anchor="middle" x="403.5" y="-130.5" font-family="Helvetica,sans-Serif" font-size="10.00" fill="#000000">MIDRaw/LocalBoardRO.h</text>
</a>
</g>
</g>
<!-- Node1&#45;&gt;Node11 -->
<g id="edge12" class="edge">
<title>Node1&#45;&gt;Node11</title>
<path fill="none" stroke="#191970" d="M550.0726,-179.3733C520.5128,-170.021 475.4774,-155.7725 443.1305,-145.5385"/>
<polygon fill="#191970" stroke="#191970" points="444.1203,-142.1807 433.5303,-142.5011 442.0087,-148.8546 444.1203,-142.1807"/>
</g>
<!-- Node13 -->
<g id="node14" class="node">
<title>Node13</title>
<g id="a_node14"><a xlink:href="../../db/d21/MUON_2MID_2Raw_2include_2MIDRaw_2RawBuffer_8h.html" target="_top" xlink:title="Handler of the RAW buffer. ">
<polygon fill="none" stroke="#000000" points="565.5,-123.5 565.5,-142.5 683.5,-142.5 683.5,-123.5 565.5,-123.5"/>
<text text-anchor="middle" x="624.5" y="-130.5" font-family="Helvetica,sans-Serif" font-size="10.00" fill="#000000">MIDRaw/RawBuffer.h</text>
</a>
</g>
</g>
<!-- Node1&#45;&gt;Node13 -->
<g id="edge15" class="edge">
<title>Node1&#45;&gt;Node13</title>
<path fill="none" stroke="#191970" d="M588.1642,-179.2455C594.3473,-171.3761 603.2063,-160.101 610.6289,-150.6542"/>
<polygon fill="#191970" stroke="#191970" points="613.4975,-152.6683 616.9236,-142.6427 607.9932,-148.3435 613.4975,-152.6683"/>
</g>
<!-- Node15 -->
<g id="node16" class="node">
<title>Node15</title>
<g id="a_node16"><a xlink:href="../../df/db7/RawUnit_8h.html" target="_top" xlink:title="Raw data format MID. ">
<polygon fill="none" stroke="#000000" points="776.5,-123.5 776.5,-142.5 886.5,-142.5 886.5,-123.5 776.5,-123.5"/>
<text text-anchor="middle" x="831.5" y="-130.5" font-family="Helvetica,sans-Serif" font-size="10.00" fill="#000000">MIDRaw/RawUnit.h</text>
</a>
</g>
</g>
<!-- Node1&#45;&gt;Node15 -->
<g id="edge21" class="edge">
<title>Node1&#45;&gt;Node15</title>
<path fill="none" stroke="#191970" d="M623.3632,-179.4369C666.4102,-169.8328 732.8073,-155.0191 778.991,-144.7152"/>
<polygon fill="#191970" stroke="#191970" points="779.8157,-148.1173 788.8135,-142.5237 778.2913,-141.2853 779.8157,-148.1173"/>
</g>
<!-- Node6 -->
<g id="node7" class="node">
<title>Node6</title>
<g id="a_node7"><a xlink:href="../../d9/d80/InteractionRecord_8h.html" target="_top" xlink:title="CommonDataFormat/Interaction\lRecord.h">
<polygon fill="none" stroke="#000000" points="950.5,-56.5 950.5,-86.5 1124.5,-86.5 1124.5,-56.5 950.5,-56.5"/>
<text text-anchor="start" x="958.5" y="-74.5" font-family="Helvetica,sans-Serif" font-size="10.00" fill="#000000">CommonDataFormat/Interaction</text>
<text text-anchor="middle" x="1037.5" y="-63.5" font-family="Helvetica,sans-Serif" font-size="10.00" fill="#000000">Record.h</text>
</a>
</g>
</g>
<!-- Node5&#45;&gt;Node6 -->
<g id="edge6" class="edge">
<title>Node5&#45;&gt;Node6</title>
<path fill="none" stroke="#191970" d="M1031.5938,-123.3906C1032.4095,-116.2234 1033.5634,-106.0862 1034.635,-96.671"/>
<polygon fill="#191970" stroke="#191970" points="1038.1342,-96.8763 1035.7876,-86.5446 1031.1791,-96.0846 1038.1342,-96.8763"/>
</g>
<!-- Node6&#45;&gt;Node2 -->
<g id="edge10" class="edge">
<title>Node6&#45;&gt;Node2</title>
<path fill="none" stroke="#191970" d="M950.4946,-57.8505C945.764,-57.2012 941.0759,-56.5795 936.5,-56 778.5132,-35.992 589.0913,-19.3655 511.8706,-12.8982"/>
<polygon fill="#191970" stroke="#191970" points="511.9901,-9.3961 501.734,-12.0537 511.4089,-16.3719 511.9901,-9.3961"/>
</g>
<!-- Node7 -->
<g id="node8" class="node">
<title>Node7</title>
<polygon fill="none" stroke="#bfbfbf" points="1079,-.5 1079,-19.5 1138,-19.5 1138,-.5 1079,-.5"/>
<text text-anchor="middle" x="1108.5" y="-7.5" font-family="Helvetica,sans-Serif" font-size="10.00" fill="#000000">Rtypes.h</text>
</g>
<!-- Node6&#45;&gt;Node7 -->
<g id="edge7" class="edge">
<title>Node6&#45;&gt;Node7</title>
<path fill="none" stroke="#191970" d="M1055.0506,-56.2977C1065.5221,-47.2274 1078.8211,-35.7077 1089.5338,-26.4285"/>
<polygon fill="#191970" stroke="#191970" points="1091.8649,-29.0398 1097.132,-19.8469 1087.2818,-23.7487 1091.8649,-29.0398"/>
</g>
<!-- Node8 -->
<g id="node9" class="node">
<title>Node8</title>
<polygon fill="none" stroke="#bfbfbf" points="1156,-.5 1156,-19.5 1205,-19.5 1205,-.5 1156,-.5"/>
<text text-anchor="middle" x="1180.5" y="-7.5" font-family="Helvetica,sans-Serif" font-size="10.00" fill="#000000">iosfwd</text>
</g>
<!-- Node6&#45;&gt;Node8 -->
<g id="edge8" class="edge">
<title>Node6&#45;&gt;Node8</title>
<path fill="none" stroke="#191970" d="M1072.4817,-56.4554C1095.8184,-46.419 1126.2498,-33.3314 1148.863,-23.6061"/>
<polygon fill="#191970" stroke="#191970" points="1150.5364,-26.6965 1158.3401,-19.5303 1147.7708,-20.2659 1150.5364,-26.6965"/>
</g>
<!-- Node9 -->
<g id="node10" class="node">
<title>Node9</title>
<polygon fill="none" stroke="#bfbfbf" points="805,-.5 805,-19.5 852,-19.5 852,-.5 805,-.5"/>
<text text-anchor="middle" x="828.5" y="-7.5" font-family="Helvetica,sans-Serif" font-size="10.00" fill="#000000">cmath</text>
</g>
<!-- Node6&#45;&gt;Node9 -->
<g id="edge9" class="edge">
<title>Node6&#45;&gt;Node9</title>
<path fill="none" stroke="#191970" d="M985.4789,-56.4195C952.681,-46.8791 909.1924,-34.17 862.0729,-20.1524"/>
<polygon fill="#191970" stroke="#191970" points="862.8679,-16.7373 852.2849,-17.2372 860.8698,-23.446 862.8679,-16.7373"/>
</g>
<!-- Node10 -->
<g id="node11" class="node">
<title>Node10</title>
<g id="a_node11"><a xlink:href="../../d4/dc6/LHCConstants_8h.html" target="_top" xlink:title="Header to collect LHC related constants. ">
<polygon fill="none" stroke="#000000" points="870.5,-.5 870.5,-19.5 1060.5,-19.5 1060.5,-.5 870.5,-.5"/>
<text text-anchor="middle" x="965.5" y="-7.5" font-family="Helvetica,sans-Serif" font-size="10.00" fill="#000000">CommonConstants/LHCConstants.h</text>
</a>
</g>
</g>
<!-- Node6&#45;&gt;Node10 -->
<g id="edge11" class="edge">
<title>Node6&#45;&gt;Node10</title>
<path fill="none" stroke="#191970" d="M1019.7022,-56.2977C1009.0833,-47.2274 995.5969,-35.7077 984.7333,-26.4285"/>
<polygon fill="#191970" stroke="#191970" points="986.9051,-23.6805 977.0281,-19.8469 982.3587,-29.0031 986.9051,-23.6805"/>
</g>
<!-- Node11&#45;&gt;Node2 -->
<g id="edge13" class="edge">
<title>Node11&#45;&gt;Node2</title>
<path fill="none" stroke="#191970" d="M409.2282,-123.3484C421.3819,-102.8703 449.9221,-54.782 465.6413,-28.2962"/>
<polygon fill="#191970" stroke="#191970" points="468.7044,-29.9926 470.7984,-19.6068 462.6848,-26.42 468.7044,-29.9926"/>
</g>
<!-- Node12 -->
<g id="node13" class="node">
<title>Node12</title>
<polygon fill="none" stroke="#bfbfbf" points="315.5,-62 315.5,-81 357.5,-81 357.5,-62 315.5,-62"/>
<text text-anchor="middle" x="336.5" y="-69" font-family="Helvetica,sans-Serif" font-size="10.00" fill="#000000">array</text>
</g>
<!-- Node11&#45;&gt;Node12 -->
<g id="edge14" class="edge">
<title>Node11&#45;&gt;Node12</title>
<path fill="none" stroke="#191970" d="M393.0313,-123.3906C382.7663,-113.9683 366.9097,-99.4134 354.5994,-88.1137"/>
<polygon fill="#191970" stroke="#191970" points="356.8501,-85.4287 347.1163,-81.2449 352.1166,-90.5856 356.8501,-85.4287"/>
</g>
<!-- Node13&#45;&gt;Node2 -->
<g id="edge16" class="edge">
<title>Node13&#45;&gt;Node2</title>
<path fill="none" stroke="#191970" d="M618.5,-123.4671C608.3012,-107.8387 586.2661,-76.4635 561.5,-56 545.7132,-42.9558 525.6596,-31.894 508.9957,-23.8891"/>
<polygon fill="#191970" stroke="#191970" points="510.1774,-20.5788 499.6339,-19.5373 507.2267,-26.9265 510.1774,-20.5788"/>
</g>
<!-- Node13&#45;&gt;Node3 -->
<g id="edge17" class="edge">
<title>Node13&#45;&gt;Node3</title>
<path fill="none" stroke="#191970" d="M609.5,-123.3906C594.1419,-113.5519 570.0479,-98.1167 552.1255,-86.6351"/>
<polygon fill="#191970" stroke="#191970" points="553.703,-83.4891 543.3947,-81.0419 549.927,-89.3833 553.703,-83.4891"/>
</g>
<!-- Node13&#45;&gt;Node4 -->
<g id="edge18" class="edge">
<title>Node13&#45;&gt;Node4</title>
<path fill="none" stroke="#191970" d="M625.75,-123.3906C626.8589,-114.8657 628.5144,-102.1392 629.9083,-91.4235"/>
<polygon fill="#191970" stroke="#191970" points="633.4131,-91.6128 631.2324,-81.2449 626.4716,-90.7098 633.4131,-91.6128"/>
</g>
<!-- Node14 -->
<g id="node15" class="node">
<title>Node14</title>
<g id="a_node15"><a xlink:href="../../d4/d78/DataFormats_2Headers_2include_2Headers_2RAWDataHeader_8h.html" target="_top" xlink:title="Headers/RAWDataHeader.h">
<polygon fill="none" stroke="#000000" points="674,-62 674,-81 823,-81 823,-62 674,-62"/>
<text text-anchor="middle" x="748.5" y="-69" font-family="Helvetica,sans-Serif" font-size="10.00" fill="#000000">Headers/RAWDataHeader.h</text>
</a>
</g>
</g>
<!-- Node13&#45;&gt;Node14 -->
<g id="edge19" class="edge">
<title>Node13&#45;&gt;Node14</title>
<path fill="none" stroke="#191970" d="M643.875,-123.3906C664.3495,-113.2359 696.8442,-97.1196 720.1885,-85.5416"/>
<polygon fill="#191970" stroke="#191970" points="721.8575,-88.6207 729.2611,-81.0419 718.7472,-82.3496 721.8575,-88.6207"/>
</g>
<!-- Node14&#45;&gt;Node2 -->
<g id="edge20" class="edge">
<title>Node14&#45;&gt;Node2</title>
<path fill="none" stroke="#191970" d="M706.2984,-61.9581C652.8037,-49.8628 561.5584,-29.232 511.6551,-17.9487"/>
<polygon fill="#191970" stroke="#191970" points="512.188,-14.4809 501.6623,-15.6893 510.6442,-21.3085 512.188,-14.4809"/>
</g>
<!-- Node15&#45;&gt;Node2 -->
<g id="edge22" class="edge">
<title>Node15&#45;&gt;Node2</title>
<path fill="none" stroke="#191970" d="M858.4644,-123.4934C874.6714,-116.2188 893.9508,-104.4326 903.5,-87 910.1191,-74.9164 912.7058,-66.2508 903.5,-56 877.4797,-27.0261 609.5481,-14.7067 511.8758,-11.1554"/>
<polygon fill="#191970" stroke="#191970" points="511.7486,-7.6488 501.6309,-10.7925 511.5007,-14.6444 511.7486,-7.6488"/>
</g>
<!-- Node15&#45;&gt;Node14 -->
<g id="edge24" class="edge">
<title>Node15&#45;&gt;Node14</title>
<path fill="none" stroke="#191970" d="M818.5313,-123.3906C805.4966,-113.7324 785.1836,-98.6812 769.7845,-87.271"/>
<polygon fill="#191970" stroke="#191970" points="771.4961,-84.1832 761.3777,-81.0419 767.3287,-89.8075 771.4961,-84.1832"/>
</g>
<!-- Node16 -->
<g id="node17" class="node">
<title>Node16</title>
<polygon fill="none" stroke="#bfbfbf" points="841,-62 841,-81 894,-81 894,-62 841,-62"/>
<text text-anchor="middle" x="867.5" y="-69" font-family="Helvetica,sans-Serif" font-size="10.00" fill="#000000">cstddef</text>
</g>
<!-- Node15&#45;&gt;Node16 -->
<g id="edge23" class="edge">
<title>Node15&#45;&gt;Node16</title>
<path fill="none" stroke="#191970" d="M837.125,-123.3906C842.3253,-114.5068 850.1966,-101.0601 856.6233,-90.0811"/>
<polygon fill="#191970" stroke="#191970" points="859.7644,-91.6432 861.7957,-81.2449 853.7233,-88.1069 859.7644,-91.6432"/>
</g>
<!-- Node17&#45;&gt;Node2 -->
<g id="edge26" class="edge">
<title>Node17&#45;&gt;Node2</title>
<path fill="none" stroke="#191970" d="M40.2091,-179.2667C60.7594,-154.0857 119.7854,-86.631 185.5,-56 230.3852,-35.078 373.8641,-19.4881 441.1012,-13.1344"/>
<polygon fill="#191970" stroke="#191970" points="441.5779,-16.6053 451.211,-12.1946 440.9299,-9.6353 441.5779,-16.6053"/>
</g>
<!-- Node18&#45;&gt;Node2 -->
<g id="edge28" class="edge">
<title>Node18&#45;&gt;Node2</title>
<path fill="none" stroke="#191970" d="M247.8272,-123.3251C257.3756,-106.9069 279.001,-73.657 306.5,-56 348.0646,-29.3116 404.8706,-17.9882 441.1286,-13.2657"/>
<polygon fill="#191970" stroke="#191970" points="441.7199,-16.7199 451.2308,-12.0517 440.8846,-9.7699 441.7199,-16.7199"/>
</g>
<!-- Node18&#45;&gt;Node12 -->
<g id="edge29" class="edge">
<title>Node18&#45;&gt;Node12</title>
<path fill="none" stroke="#191970" d="M257.1875,-123.3906C272.2256,-113.5519 295.8176,-98.1167 313.3667,-86.6351"/>
<polygon fill="#191970" stroke="#191970" points="315.4637,-89.4457 321.9156,-81.0419 311.6313,-83.588 315.4637,-89.4457"/>
</g>
<!-- Node19&#45;&gt;Node2 -->
<g id="edge31" class="edge">
<title>Node19&#45;&gt;Node2</title>
<path fill="none" stroke="#191970" d="M159.5902,-179.3133C154.7905,-165.7629 148.4458,-140.8126 158.5,-123 186.8248,-72.8183 216.0054,-77.4202 269.5,-56 327.3138,-32.8503 399.1083,-20.2091 441.1622,-14.2968"/>
<polygon fill="#191970" stroke="#191970" points="441.748,-17.7494 451.1865,-12.9363 440.8066,-10.813 441.748,-17.7494"/>
</g>
</g>
</svg>
        <g id="navigator" transform="translate(0 0)" fill="#404254">
                <rect fill="#f2f5e9" fill-opacity="0.5" stroke="#606060" stroke-width=".5" x="0" y="0" width="60" height="60"/>
                <use id="zoomplus" xlink:href="#zoomPlus" x="17" y="9" onmousedown="handleZoom(evt,'in')"/>
                <use id="zoomminus" xlink:href="#zoomMin" x="42" y="9" onmousedown="handleZoom(evt,'out')"/>
                <use id="reset" xlink:href="#resetDef" x="30" y="36" onmousedown="handleReset()"/>
                <g id="arrowUp" xlink:href="#dirArrow" transform="translate(30 24)" onmousedown="handlePan(0,-1)">
                  <use xlink:href="#rim" fill="#404040">
                        <set attributeName="fill" to="#808080" begin="arrowUp.mouseover" end="arrowUp.mouseout"/>
                  </use>
                  <path fill="none" stroke="white" stroke-width="1.5" d="M0,-3.0v7 M-2.5,-0.5L0,-3.0L2.5,-0.5"/>
                </g>
                <g id="arrowRight" xlink:href="#dirArrow" transform="rotate(90) translate(36 -43)" onmousedown="handlePan(1,0)">
                  <use xlink:href="#rim" fill="#404040">
                        <set attributeName="fill" to="#808080" begin="arrowRight.mouseover" end="arrowRight.mouseout"/>
                  </use>
                  <path fill="none" stroke="white" stroke-width="1.5" d="M0,-3.0v7 M-2.5,-0.5L0,-3.0L2.5,-0.5"/>
                </g>
                <g id="arrowDown" xlink:href="#dirArrow" transform="rotate(180) translate(-30 -48)" onmousedown="handlePan(0,1)">
                  <use xlink:href="#rim" fill="#404040">
                        <set attributeName="fill" to="#808080" begin="arrowDown.mouseover" end="arrowDown.mouseout"/>
                  </use>
                  <path fill="none" stroke="white" stroke-width="1.5" d="M0,-3.0v7 M-2.5,-0.5L0,-3.0L2.5,-0.5"/>
                </g>
                <g id="arrowLeft" xlink:href="#dirArrow" transform="rotate(270) translate(-36 17)" onmousedown="handlePan(-1,0)">
                  <use xlink:href="#rim" fill="#404040">
                        <set attributeName="fill" to="#808080" begin="arrowLeft.mouseover" end="arrowLeft.mouseout"/>
                  </use>
                  <path fill="none" stroke="white" stroke-width="1.5" d="M0,-3.0v7 M-2.5,-0.5L0,-3.0L2.5,-0.5"/>
                </g>
        </g>
        <svg viewBox="0 0 15 15" width="100%" height="30px" preserveAspectRatio="xMaxYMin meet">
         <g id="arrow_out" transform="scale(0.3 0.3)">
          <a xlink:href="CRUUserLogicDecoder_8cxx__incl_org.svg" target="_base">
           <rect id="button" ry="5" rx="5" y="6" x="6" height="38" width="38"
                fill="#f2f5e9" fill-opacity="0.5" stroke="#606060" stroke-width="1.0"/>
           <path id="arrow"
             d="M 11.500037,31.436501 C 11.940474,20.09759 22.043105,11.32322 32.158766,21.979434 L 37.068811,17.246167 C 37.068811,17.246167 37.088388,32 37.088388,32 L 22.160133,31.978069 C 22.160133,31.978069 26.997745,27.140456 26.997745,27.140456 C 18.528582,18.264221 13.291696,25.230495 11.500037,31.436501 z"
             style="fill:#404040;"/>
          </a>
         </g>
        </svg>
</svg>
