<?xml version="1.0" encoding="UTF-8" standalone="no"?>
<!DOCTYPE svg PUBLIC "-//W3C//DTD SVG 1.1//EN"
 "http://www.w3.org/Graphics/SVG/1.1/DTD/svg11.dtd">
<!-- Generated by graphviz version 2.40.1 (20161225.0304)
 -->
<!-- Title: /home/travis/build/AliceO2Group/AliceO2/Detectors/MUON/MCH/Simulation/include/MCHSimulation/Hit.h Pages: 1 -->
<!--zoomable 328 -->
<svg id="main" version="1.1" xmlns="http://www.w3.org/2000/svg" xmlns:xlink="http://www.w3.org/1999/xlink" xml:space="preserve" onload="init(evt)">
<style type="text/css"><![CDATA[
.edge:hover path { stroke: red; }
.edge:hover polygon { stroke: red; fill: red; }
]]></style>
<script type="text/javascript"><![CDATA[
var edges = document.getElementsByTagName('g');
if (edges && edges.length) {
  for (var i=0;i<edges.length;i++) {
    if (edges[i].id.substr(0,4)=='edge') {
      edges[i].setAttribute('class','edge');
    }
  }
}
]]></script>
        <defs>
                <circle id="rim" cx="0" cy="0" r="7"/>
                <circle id="rim2" cx="0" cy="0" r="3.5"/>
                <g id="zoomPlus">
                        <use xlink:href="#rim" fill="#404040">
                                <set attributeName="fill" to="#808080" begin="zoomplus.mouseover" end="zoomplus.mouseout"/>
                        </use>
                        <path d="M-4,0h8M0,-4v8" fill="none" stroke="white" stroke-width="1.5" pointer-events="none"/>
                </g>
                <g id="zoomMin">
                        <use xlink:href="#rim" fill="#404040">
                                <set attributeName="fill" to="#808080" begin="zoomminus.mouseover" end="zoomminus.mouseout"/>
                        </use>
                        <path d="M-4,0h8" fill="none" stroke="white" stroke-width="1.5" pointer-events="none"/>
                </g>
                <g id="dirArrow">
                        <path fill="none" stroke="white" stroke-width="1.5" d="M0,-3.0v7 M-2.5,-0.5L0,-3.0L2.5,-0.5"/>
                </g>
               <g id="resetDef">
                       <use xlink:href="#rim2" fill="#404040">
                               <set attributeName="fill" to="#808080" begin="reset.mouseover" end="reset.mouseout"/>
                       </use>
               </g>
        </defs>

<script type="text/javascript">
var viewWidth = 1198;
var viewHeight = 328;
var sectionId = 'dynsection-1';
</script>
<script xlink:href="../../svgpan.js"/>
<svg id="graph" class="graph">
<g id="viewport">
<title>/home/travis/build/AliceO2Group/AliceO2/Detectors/MUON/MCH/Simulation/include/MCHSimulation/Hit.h</title>
<!-- Node21 -->
<g id="node1" class="node">
<title>Node21</title>
<polygon fill="#bfbfbf" stroke="#000000" points="667,-267.5 667,-319.5 849,-319.5 849,-267.5 667,-267.5"/>
<text text-anchor="start" x="675" y="-307.5" font-family="Helvetica,sans-Serif" font-size="10.00" fill="#000000">/home/travis/build</text>
<text text-anchor="start" x="675" y="-296.5" font-family="Helvetica,sans-Serif" font-size="10.00" fill="#000000">/AliceO2Group/AliceO2</text>
<text text-anchor="start" x="675" y="-285.5" font-family="Helvetica,sans-Serif" font-size="10.00" fill="#000000">/Detectors/MUON/MCH/Simulation</text>
<text text-anchor="middle" x="758" y="-274.5" font-family="Helvetica,sans-Serif" font-size="10.00" fill="#000000">/include/MCHSimulation/Hit.h</text>
</g>
<!-- Node22 -->
<g id="node2" class="node">
<title>Node22</title>
<g id="a_node2"><a xlink:href="../../dc/dab/MUON_2MCH_2Simulation_2include_2MCHSimulation_2Detector_8h.html" target="_top" xlink:title="/home/travis/build\l/AliceO2Group/AliceO2\l/Detectors/MUON/MCH/Simulation\l/include/MCHSimulation/Detector.h">
<polygon fill="none" stroke="#000000" points="564,-178.5 564,-230.5 750,-230.5 750,-178.5 564,-178.5"/>
<text text-anchor="start" x="572" y="-218.5" font-family="Helvetica,sans-Serif" font-size="10.00" fill="#000000">/home/travis/build</text>
<text text-anchor="start" x="572" y="-207.5" font-family="Helvetica,sans-Serif" font-size="10.00" fill="#000000">/AliceO2Group/AliceO2</text>
<text text-anchor="start" x="572" y="-196.5" font-family="Helvetica,sans-Serif" font-size="10.00" fill="#000000">/Detectors/MUON/MCH/Simulation</text>
<text text-anchor="middle" x="657" y="-185.5" font-family="Helvetica,sans-Serif" font-size="10.00" fill="#000000">/include/MCHSimulation/Detector.h</text>
</a>
</g>
</g>
<!-- Node21&#45;&gt;Node22 -->
<g id="edge1" class="edge">
<title>Node21&#45;&gt;Node22</title>
<path fill="none" stroke="#191970" d="M720.6363,-260.5755C709.3898,-250.6653 697.2092,-239.9319 686.5444,-230.5341"/>
<polygon fill="#191970" stroke="#191970" points="718.4262,-263.2931 728.2429,-267.2784 723.0542,-258.0411 718.4262,-263.2931"/>
</g>
<!-- Node23 -->
<g id="node3" class="node">
<title>Node23</title>
<g id="a_node3"><a xlink:href="../../df/d3f/Response_8h.html" target="_top" xlink:title="/home/travis/build\l/AliceO2Group/AliceO2\l/Detectors/MUON/MCH/Simulation\l/include/MCHSimulation/Response.h">
<polygon fill="none" stroke="#000000" points="400.5,-89.5 400.5,-141.5 591.5,-141.5 591.5,-89.5 400.5,-89.5"/>
<text text-anchor="start" x="408.5" y="-129.5" font-family="Helvetica,sans-Serif" font-size="10.00" fill="#000000">/home/travis/build</text>
<text text-anchor="start" x="408.5" y="-118.5" font-family="Helvetica,sans-Serif" font-size="10.00" fill="#000000">/AliceO2Group/AliceO2</text>
<text text-anchor="start" x="408.5" y="-107.5" font-family="Helvetica,sans-Serif" font-size="10.00" fill="#000000">/Detectors/MUON/MCH/Simulation</text>
<text text-anchor="middle" x="496" y="-96.5" font-family="Helvetica,sans-Serif" font-size="10.00" fill="#000000">/include/MCHSimulation/Response.h</text>
</a>
</g>
</g>
<!-- Node21&#45;&gt;Node23 -->
<g id="edge15" class="edge">
<title>Node21&#45;&gt;Node23</title>
<path fill="none" stroke="#191970" d="M656.9446,-279.0385C621.6474,-269.9361 583.7143,-255.1171 555,-231 527.2402,-207.6846 511.0612,-168.0127 502.8761,-141.7795"/>
<polygon fill="#191970" stroke="#191970" points="656.2749,-282.4778 666.8205,-281.4572 657.9402,-275.6788 656.2749,-282.4778"/>
</g>
<!-- Node31 -->
<g id="node11" class="node">
<title>Node31</title>
<g id="a_node11"><a xlink:href="../../da/d5e/MUON_2MCH_2Simulation_2include_2MCHSimulation_2Digitizer_8h.html" target="_top" xlink:title="/home/travis/build\l/AliceO2Group/AliceO2\l/Detectors/MUON/MCH/Simulation\l/include/MCHSimulation/Digitizer.h">
<polygon fill="none" stroke="#000000" points="767.5,-178.5 767.5,-230.5 952.5,-230.5 952.5,-178.5 767.5,-178.5"/>
<text text-anchor="start" x="775.5" y="-218.5" font-family="Helvetica,sans-Serif" font-size="10.00" fill="#000000">/home/travis/build</text>
<text text-anchor="start" x="775.5" y="-207.5" font-family="Helvetica,sans-Serif" font-size="10.00" fill="#000000">/AliceO2Group/AliceO2</text>
<text text-anchor="start" x="775.5" y="-196.5" font-family="Helvetica,sans-Serif" font-size="10.00" fill="#000000">/Detectors/MUON/MCH/Simulation</text>
<text text-anchor="middle" x="860" y="-185.5" font-family="Helvetica,sans-Serif" font-size="10.00" fill="#000000">/include/MCHSimulation/Digitizer.h</text>
</a>
</g>
</g>
<!-- Node21&#45;&gt;Node31 -->
<g id="edge11" class="edge">
<title>Node21&#45;&gt;Node31</title>
<path fill="none" stroke="#191970" d="M795.7337,-260.5755C807.0915,-250.6653 819.3927,-239.9319 830.1631,-230.5341"/>
<polygon fill="#191970" stroke="#191970" points="793.2855,-258.0666 788.0517,-267.2784 797.8877,-263.341 793.2855,-258.0666"/>
</g>
<!-- Node32 -->
<g id="node12" class="node">
<title>Node32</title>
<g id="a_node12"><a xlink:href="../../dc/dc3/testDigitization_8cxx.html" target="_top" xlink:title="/home/travis/build\l/AliceO2Group/AliceO2\l/Detectors/MUON/MCH/Simulation\l/test/testDigitization.cxx">
<polygon fill="none" stroke="#000000" points="973,-89.5 973,-141.5 1155,-141.5 1155,-89.5 973,-89.5"/>
<text text-anchor="start" x="981" y="-129.5" font-family="Helvetica,sans-Serif" font-size="10.00" fill="#000000">/home/travis/build</text>
<text text-anchor="start" x="981" y="-118.5" font-family="Helvetica,sans-Serif" font-size="10.00" fill="#000000">/AliceO2Group/AliceO2</text>
<text text-anchor="start" x="981" y="-107.5" font-family="Helvetica,sans-Serif" font-size="10.00" fill="#000000">/Detectors/MUON/MCH/Simulation</text>
<text text-anchor="middle" x="1064" y="-96.5" font-family="Helvetica,sans-Serif" font-size="10.00" fill="#000000">/test/testDigitization.cxx</text>
</a>
</g>
</g>
<!-- Node21&#45;&gt;Node32 -->
<g id="edge20" class="edge">
<title>Node21&#45;&gt;Node32</title>
<path fill="none" stroke="#191970" d="M859.0045,-276.6005C893.9636,-267.2646 931.8907,-252.9216 962,-231 985.2244,-214.0911 980.3347,-199.8378 999,-178 1009.7819,-165.3855 1022.7792,-152.5019 1034.3086,-141.7348"/>
<polygon fill="#191970" stroke="#191970" points="858.051,-273.2317 849.2319,-279.1031 859.7876,-280.0129 858.051,-273.2317"/>
</g>
<!-- Node33 -->
<g id="node13" class="node">
<title>Node33</title>
<g id="a_node13"><a xlink:href="../../d1/d9c/MCH_2Simulation_2src_2Stepper_8h.html" target="_top" xlink:title="/home/travis/build\l/AliceO2Group/AliceO2\l/Detectors/MUON/MCH/Simulation\l/src/Stepper.h">
<polygon fill="none" stroke="#000000" points="200,-178.5 200,-230.5 382,-230.5 382,-178.5 200,-178.5"/>
<text text-anchor="start" x="208" y="-218.5" font-family="Helvetica,sans-Serif" font-size="10.00" fill="#000000">/home/travis/build</text>
<text text-anchor="start" x="208" y="-207.5" font-family="Helvetica,sans-Serif" font-size="10.00" fill="#000000">/AliceO2Group/AliceO2</text>
<text text-anchor="start" x="208" y="-196.5" font-family="Helvetica,sans-Serif" font-size="10.00" fill="#000000">/Detectors/MUON/MCH/Simulation</text>
<text text-anchor="middle" x="291" y="-185.5" font-family="Helvetica,sans-Serif" font-size="10.00" fill="#000000">/src/Stepper.h</text>
</a>
</g>
</g>
<!-- Node21&#45;&gt;Node33 -->
<g id="edge16" class="edge">
<title>Node21&#45;&gt;Node33</title>
<path fill="none" stroke="#191970" d="M656.5537,-274.1665C574.9014,-258.6054 461.1531,-236.9275 382.3191,-221.9034"/>
<polygon fill="#191970" stroke="#191970" points="656.3706,-277.6946 666.8491,-276.1286 657.6811,-270.8183 656.3706,-277.6946"/>
</g>
<!-- Node35 -->
<g id="node15" class="node">
<title>Node35</title>
<g id="a_node15"><a xlink:href="../../dd/db5/Detectors_2MUON_2MCH_2Simulation_2src_2Hit_8cxx.html" target="_top" xlink:title="/home/travis/build\l/AliceO2Group/AliceO2\l/Detectors/MUON/MCH/Simulation\l/src/Hit.cxx">
<polygon fill="none" stroke="#000000" points="1008,-178.5 1008,-230.5 1190,-230.5 1190,-178.5 1008,-178.5"/>
<text text-anchor="start" x="1016" y="-218.5" font-family="Helvetica,sans-Serif" font-size="10.00" fill="#000000">/home/travis/build</text>
<text text-anchor="start" x="1016" y="-207.5" font-family="Helvetica,sans-Serif" font-size="10.00" fill="#000000">/AliceO2Group/AliceO2</text>
<text text-anchor="start" x="1016" y="-196.5" font-family="Helvetica,sans-Serif" font-size="10.00" fill="#000000">/Detectors/MUON/MCH/Simulation</text>
<text text-anchor="middle" x="1099" y="-185.5" font-family="Helvetica,sans-Serif" font-size="10.00" fill="#000000">/src/Hit.cxx</text>
</a>
</g>
</g>
<!-- Node21&#45;&gt;Node35 -->
<g id="edge19" class="edge">
<title>Node21&#45;&gt;Node35</title>
<path fill="none" stroke="#191970" d="M859.3103,-267.0583C906.4745,-254.7486 962.1452,-240.2187 1007.9578,-228.2618"/>
<polygon fill="#191970" stroke="#191970" points="858.1737,-263.7376 849.3817,-269.6496 859.9415,-270.5107 858.1737,-263.7376"/>
</g>
<!-- Node22&#45;&gt;Node23 -->
<g id="edge2" class="edge">
<title>Node22&#45;&gt;Node23</title>
<path fill="none" stroke="#191970" d="M600.783,-173.4235C581.949,-163.0122 561.1584,-151.5192 543.0955,-141.5341"/>
<polygon fill="#191970" stroke="#191970" points="599.1204,-176.5036 609.5655,-178.2784 602.507,-170.3773 599.1204,-176.5036"/>
</g>
<!-- Node27 -->
<g id="node7" class="node">
<title>Node27</title>
<g id="a_node7"><a xlink:href="../../da/ddd/MUON_2MCH_2Simulation_2src_2Detector_8cxx.html" target="_top" xlink:title="/home/travis/build\l/AliceO2Group/AliceO2\l/Detectors/MUON/MCH/Simulation\l/src/Detector.cxx">
<polygon fill="none" stroke="#000000" points="200,-89.5 200,-141.5 382,-141.5 382,-89.5 200,-89.5"/>
<text text-anchor="start" x="208" y="-129.5" font-family="Helvetica,sans-Serif" font-size="10.00" fill="#000000">/home/travis/build</text>
<text text-anchor="start" x="208" y="-118.5" font-family="Helvetica,sans-Serif" font-size="10.00" fill="#000000">/AliceO2Group/AliceO2</text>
<text text-anchor="start" x="208" y="-107.5" font-family="Helvetica,sans-Serif" font-size="10.00" fill="#000000">/Detectors/MUON/MCH/Simulation</text>
<text text-anchor="middle" x="291" y="-96.5" font-family="Helvetica,sans-Serif" font-size="10.00" fill="#000000">/src/Detector.cxx</text>
</a>
</g>
</g>
<!-- Node22&#45;&gt;Node27 -->
<g id="edge6" class="edge">
<title>Node22&#45;&gt;Node27</title>
<path fill="none" stroke="#191970" d="M553.8558,-180.9799C504.4958,-169.5417 444.6051,-155.3974 391,-142 388.125,-141.2814 385.2051,-140.5454 382.2582,-139.7972"/>
<polygon fill="#191970" stroke="#191970" points="553.3705,-184.46 563.9021,-183.3043 554.9484,-177.6402 553.3705,-184.46"/>
</g>
<!-- Node28 -->
<g id="node8" class="node">
<title>Node28</title>
<g id="a_node8"><a xlink:href="../../db/d50/O2HitMerger_8h.html" target="_top" xlink:title="/home/travis/build\l/AliceO2Group/AliceO2\l/run/O2HitMerger.h">
<polygon fill="none" stroke="#000000" points="609.5,-95 609.5,-136 736.5,-136 736.5,-95 609.5,-95"/>
<text text-anchor="start" x="617.5" y="-124" font-family="Helvetica,sans-Serif" font-size="10.00" fill="#000000">/home/travis/build</text>
<text text-anchor="start" x="617.5" y="-113" font-family="Helvetica,sans-Serif" font-size="10.00" fill="#000000">/AliceO2Group/AliceO2</text>
<text text-anchor="middle" x="673" y="-102" font-family="Helvetica,sans-Serif" font-size="10.00" fill="#000000">/run/O2HitMerger.h</text>
</a>
</g>
</g>
<!-- Node22&#45;&gt;Node28 -->
<g id="edge7" class="edge">
<title>Node22&#45;&gt;Node28</title>
<path fill="none" stroke="#191970" d="M663.5378,-168.1335C665.4954,-157.2443 667.5739,-145.6825 669.2828,-136.1771"/>
<polygon fill="#191970" stroke="#191970" points="660.0387,-167.8169 661.714,-178.2784 666.9282,-169.0555 660.0387,-167.8169"/>
</g>
<!-- Node30 -->
<g id="node10" class="node">
<title>Node30</title>
<g id="a_node10"><a xlink:href="../../db/d2f/MCHDigitizerSpec_8cxx.html" target="_top" xlink:title="/home/travis/build\l/AliceO2Group/AliceO2\l/Steer/DigitizerWorkflow\l/src/MCHDigitizerSpec.cxx">
<polygon fill="none" stroke="#000000" points="773,-89.5 773,-141.5 917,-141.5 917,-89.5 773,-89.5"/>
<text text-anchor="start" x="781" y="-129.5" font-family="Helvetica,sans-Serif" font-size="10.00" fill="#000000">/home/travis/build</text>
<text text-anchor="start" x="781" y="-118.5" font-family="Helvetica,sans-Serif" font-size="10.00" fill="#000000">/AliceO2Group/AliceO2</text>
<text text-anchor="start" x="781" y="-107.5" font-family="Helvetica,sans-Serif" font-size="10.00" fill="#000000">/Steer/DigitizerWorkflow</text>
<text text-anchor="middle" x="845" y="-96.5" font-family="Helvetica,sans-Serif" font-size="10.00" fill="#000000">/src/MCHDigitizerSpec.cxx</text>
</a>
</g>
</g>
<!-- Node22&#45;&gt;Node30 -->
<g id="edge10" class="edge">
<title>Node22&#45;&gt;Node30</title>
<path fill="none" stroke="#191970" d="M721.204,-174.1055C743.5241,-163.5391 768.344,-151.7893 789.8651,-141.6011"/>
<polygon fill="#191970" stroke="#191970" points="719.6767,-170.9561 712.1359,-178.3984 722.6719,-177.283 719.6767,-170.9561"/>
</g>
<!-- Node24 -->
<g id="node4" class="node">
<title>Node24</title>
<g id="a_node4"><a xlink:href="../../d7/de0/MUON_2MCH_2Simulation_2src_2Digitizer_8cxx.html" target="_top" xlink:title="/home/travis/build\l/AliceO2Group/AliceO2\l/Detectors/MUON/MCH/Simulation\l/src/Digitizer.cxx">
<polygon fill="none" stroke="#000000" points="815,-.5 815,-52.5 997,-52.5 997,-.5 815,-.5"/>
<text text-anchor="start" x="823" y="-40.5" font-family="Helvetica,sans-Serif" font-size="10.00" fill="#000000">/home/travis/build</text>
<text text-anchor="start" x="823" y="-29.5" font-family="Helvetica,sans-Serif" font-size="10.00" fill="#000000">/AliceO2Group/AliceO2</text>
<text text-anchor="start" x="823" y="-18.5" font-family="Helvetica,sans-Serif" font-size="10.00" fill="#000000">/Detectors/MUON/MCH/Simulation</text>
<text text-anchor="middle" x="906" y="-7.5" font-family="Helvetica,sans-Serif" font-size="10.00" fill="#000000">/src/Digitizer.cxx</text>
</a>
</g>
</g>
<!-- Node23&#45;&gt;Node24 -->
<g id="edge3" class="edge">
<title>Node23&#45;&gt;Node24</title>
<path fill="none" stroke="#191970" d="M601.4934,-88.9252C679.1762,-71.3005 756.4535,-55.5775 814.6817,-44.0949"/>
<polygon fill="#191970" stroke="#191970" points="600.4975,-85.5624 591.5252,-91.1969 602.053,-92.3874 600.4975,-85.5624"/>
</g>
<!-- Node25 -->
<g id="node5" class="node">
<title>Node25</title>
<g id="a_node5"><a xlink:href="../../d9/dbf/Response_8cxx.html" target="_top" xlink:title="/home/travis/build\l/AliceO2Group/AliceO2\l/Detectors/MUON/MCH/Simulation\l/src/Response.cxx">
<polygon fill="none" stroke="#000000" points="205,-.5 205,-52.5 387,-52.5 387,-.5 205,-.5"/>
<text text-anchor="start" x="213" y="-40.5" font-family="Helvetica,sans-Serif" font-size="10.00" fill="#000000">/home/travis/build</text>
<text text-anchor="start" x="213" y="-29.5" font-family="Helvetica,sans-Serif" font-size="10.00" fill="#000000">/AliceO2Group/AliceO2</text>
<text text-anchor="start" x="213" y="-18.5" font-family="Helvetica,sans-Serif" font-size="10.00" fill="#000000">/Detectors/MUON/MCH/Simulation</text>
<text text-anchor="middle" x="296" y="-7.5" font-family="Helvetica,sans-Serif" font-size="10.00" fill="#000000">/src/Response.cxx</text>
</a>
</g>
</g>
<!-- Node23&#45;&gt;Node25 -->
<g id="edge4" class="edge">
<title>Node23&#45;&gt;Node25</title>
<path fill="none" stroke="#191970" d="M428.0143,-85.2464C404.1879,-74.6436 377.6507,-62.8346 354.6542,-52.6011"/>
<polygon fill="#191970" stroke="#191970" points="426.7855,-88.5304 437.3448,-89.3984 429.6315,-82.1351 426.7855,-88.5304"/>
</g>
<!-- Node26 -->
<g id="node6" class="node">
<title>Node26</title>
<g id="a_node6"><a xlink:href="../../d5/d7c/testResponse_8cxx.html" target="_top" xlink:title="This task tests of the Response of the MCH digitization. ">
<polygon fill="none" stroke="#000000" points="405,-.5 405,-52.5 587,-52.5 587,-.5 405,-.5"/>
<text text-anchor="start" x="413" y="-40.5" font-family="Helvetica,sans-Serif" font-size="10.00" fill="#000000">/home/travis/build</text>
<text text-anchor="start" x="413" y="-29.5" font-family="Helvetica,sans-Serif" font-size="10.00" fill="#000000">/AliceO2Group/AliceO2</text>
<text text-anchor="start" x="413" y="-18.5" font-family="Helvetica,sans-Serif" font-size="10.00" fill="#000000">/Detectors/MUON/MCH/Simulation</text>
<text text-anchor="middle" x="496" y="-7.5" font-family="Helvetica,sans-Serif" font-size="10.00" fill="#000000">/test/testResponse.cxx</text>
</a>
</g>
</g>
<!-- Node23&#45;&gt;Node26 -->
<g id="edge5" class="edge">
<title>Node23&#45;&gt;Node26</title>
<path fill="none" stroke="#191970" d="M496,-79.1155C496,-70.2061 496,-60.8475 496,-52.5341"/>
<polygon fill="#191970" stroke="#191970" points="492.5001,-79.2784 496,-89.2784 499.5001,-79.2785 492.5001,-79.2784"/>
</g>
<!-- Node28&#45;&gt;Node28 -->
<g id="edge8" class="edge">
<title>Node28&#45;&gt;Node28</title>
<path fill="none" stroke="#191970" d="M746.1757,-127.5715C751.3451,-124.8251 754.5,-120.8013 754.5,-115.5 754.5,-107.4219 747.1744,-102.3099 736.558,-100.1642"/>
<polygon fill="#191970" stroke="#191970" points="744.9026,-124.3075 736.558,-130.8358 747.1524,-130.9361 744.9026,-124.3075"/>
</g>
<!-- Node29 -->
<g id="node9" class="node">
<title>Node29</title>
<g id="a_node9"><a xlink:href="../../d9/d16/O2HitMergerRunner_8cxx.html" target="_top" xlink:title="/home/travis/build\l/AliceO2Group/AliceO2\l/run/O2HitMergerRunner.cxx">
<polygon fill="none" stroke="#000000" points="605.5,-6 605.5,-47 758.5,-47 758.5,-6 605.5,-6"/>
<text text-anchor="start" x="613.5" y="-35" font-family="Helvetica,sans-Serif" font-size="10.00" fill="#000000">/home/travis/build</text>
<text text-anchor="start" x="613.5" y="-24" font-family="Helvetica,sans-Serif" font-size="10.00" fill="#000000">/AliceO2Group/AliceO2</text>
<text text-anchor="middle" x="682" y="-13" font-family="Helvetica,sans-Serif" font-size="10.00" fill="#000000">/run/O2HitMergerRunner.cxx</text>
</a>
</g>
</g>
<!-- Node28&#45;&gt;Node29 -->
<g id="edge9" class="edge">
<title>Node28&#45;&gt;Node29</title>
<path fill="none" stroke="#191970" d="M676.1,-84.844C677.3633,-72.3522 678.7899,-58.2439 679.9239,-47.0301"/>
<polygon fill="#191970" stroke="#191970" points="672.6114,-84.5565 675.0874,-94.8579 679.5758,-85.2608 672.6114,-84.5565"/>
</g>
<!-- Node31&#45;&gt;Node24 -->
<g id="edge12" class="edge">
<title>Node31&#45;&gt;Node24</title>
<path fill="none" stroke="#191970" d="M905.0466,-171.5202C913.5619,-162.9434 921.2736,-152.9852 926,-142 938.4667,-113.0249 928.5052,-76.7954 918.7044,-52.7182"/>
<polygon fill="#191970" stroke="#191970" points="902.6312,-168.9871 897.7526,-178.3919 907.4313,-174.0821 902.6312,-168.9871"/>
</g>
<!-- Node31&#45;&gt;Node30 -->
<g id="edge14" class="edge">
<title>Node31&#45;&gt;Node30</title>
<path fill="none" stroke="#191970" d="M853.9167,-168.4059C852.4005,-159.4097 850.8041,-149.9379 849.3878,-141.5341"/>
<polygon fill="#191970" stroke="#191970" points="850.4673,-168.9992 855.5806,-178.2784 857.3699,-167.8358 850.4673,-168.9992"/>
</g>
<!-- Node31&#45;&gt;Node32 -->
<g id="edge13" class="edge">
<title>Node31&#45;&gt;Node32</title>
<path fill="none" stroke="#191970" d="M929.023,-174.387C953.4088,-163.7481 980.6125,-151.8798 1004.1727,-141.6011"/>
<polygon fill="#191970" stroke="#191970" points="927.5945,-171.1916 919.8283,-178.3984 930.3936,-177.6076 927.5945,-171.1916"/>
</g>
<!-- Node33&#45;&gt;Node27 -->
<g id="edge17" class="edge">
<title>Node33&#45;&gt;Node27</title>
<path fill="none" stroke="#191970" d="M291,-168.1155C291,-159.2061 291,-149.8475 291,-141.5341"/>
<polygon fill="#191970" stroke="#191970" points="287.5001,-168.2784 291,-178.2784 294.5001,-168.2785 287.5001,-168.2784"/>
</g>
<!-- Node34 -->
<g id="node14" class="node">
<title>Node34</title>
<g id="a_node14"><a xlink:href="../../d6/d21/MCH_2Simulation_2src_2Stepper_8cxx.html" target="_top" xlink:title="/home/travis/build\l/AliceO2Group/AliceO2\l/Detectors/MUON/MCH/Simulation\l/src/Stepper.cxx">
<polygon fill="none" stroke="#000000" points="0,-89.5 0,-141.5 182,-141.5 182,-89.5 0,-89.5"/>
<text text-anchor="start" x="8" y="-129.5" font-family="Helvetica,sans-Serif" font-size="10.00" fill="#000000">/home/travis/build</text>
<text text-anchor="start" x="8" y="-118.5" font-family="Helvetica,sans-Serif" font-size="10.00" fill="#000000">/AliceO2Group/AliceO2</text>
<text text-anchor="start" x="8" y="-107.5" font-family="Helvetica,sans-Serif" font-size="10.00" fill="#000000">/Detectors/MUON/MCH/Simulation</text>
<text text-anchor="middle" x="91" y="-96.5" font-family="Helvetica,sans-Serif" font-size="10.00" fill="#000000">/src/Stepper.cxx</text>
</a>
</g>
</g>
<!-- Node33&#45;&gt;Node34 -->
<g id="edge18" class="edge">
<title>Node33&#45;&gt;Node34</title>
<path fill="none" stroke="#191970" d="M223.0143,-174.2464C199.1879,-163.6436 172.6507,-151.8346 149.6542,-141.6011"/>
<polygon fill="#191970" stroke="#191970" points="221.7855,-177.5304 232.3448,-178.3984 224.6315,-171.1351 221.7855,-177.5304"/>
</g>
</g>
</svg>
        <g id="navigator" transform="translate(0 0)" fill="#404254">
                <rect fill="#f2f5e9" fill-opacity="0.5" stroke="#606060" stroke-width=".5" x="0" y="0" width="60" height="60"/>
                <use id="zoomplus" xlink:href="#zoomPlus" x="17" y="9" onmousedown="handleZoom(evt,'in')"/>
                <use id="zoomminus" xlink:href="#zoomMin" x="42" y="9" onmousedown="handleZoom(evt,'out')"/>
                <use id="reset" xlink:href="#resetDef" x="30" y="36" onmousedown="handleReset()"/>
                <g id="arrowUp" xlink:href="#dirArrow" transform="translate(30 24)" onmousedown="handlePan(0,-1)">
                  <use xlink:href="#rim" fill="#404040">
                        <set attributeName="fill" to="#808080" begin="arrowUp.mouseover" end="arrowUp.mouseout"/>
                  </use>
                  <path fill="none" stroke="white" stroke-width="1.5" d="M0,-3.0v7 M-2.5,-0.5L0,-3.0L2.5,-0.5"/>
                </g>
                <g id="arrowRight" xlink:href="#dirArrow" transform="rotate(90) translate(36 -43)" onmousedown="handlePan(1,0)">
                  <use xlink:href="#rim" fill="#404040">
                        <set attributeName="fill" to="#808080" begin="arrowRight.mouseover" end="arrowRight.mouseout"/>
                  </use>
                  <path fill="none" stroke="white" stroke-width="1.5" d="M0,-3.0v7 M-2.5,-0.5L0,-3.0L2.5,-0.5"/>
                </g>
                <g id="arrowDown" xlink:href="#dirArrow" transform="rotate(180) translate(-30 -48)" onmousedown="handlePan(0,1)">
                  <use xlink:href="#rim" fill="#404040">
                        <set attributeName="fill" to="#808080" begin="arrowDown.mouseover" end="arrowDown.mouseout"/>
                  </use>
                  <path fill="none" stroke="white" stroke-width="1.5" d="M0,-3.0v7 M-2.5,-0.5L0,-3.0L2.5,-0.5"/>
                </g>
                <g id="arrowLeft" xlink:href="#dirArrow" transform="rotate(270) translate(-36 17)" onmousedown="handlePan(-1,0)">
                  <use xlink:href="#rim" fill="#404040">
                        <set attributeName="fill" to="#808080" begin="arrowLeft.mouseover" end="arrowLeft.mouseout"/>
                  </use>
                  <path fill="none" stroke="white" stroke-width="1.5" d="M0,-3.0v7 M-2.5,-0.5L0,-3.0L2.5,-0.5"/>
                </g>
        </g>
        <svg viewBox="0 0 15 15" width="100%" height="30px" preserveAspectRatio="xMaxYMin meet">
         <g id="arrow_out" transform="scale(0.3 0.3)">
          <a xlink:href="Detectors_2MUON_2MCH_2Simulation_2include_2MCHSimulation_2Hit_8h__dep__incl_org.svg" target="_base">
           <rect id="button" ry="5" rx="5" y="6" x="6" height="38" width="38"
                fill="#f2f5e9" fill-opacity="0.5" stroke="#606060" stroke-width="1.0"/>
           <path id="arrow"
             d="M 11.500037,31.436501 C 11.940474,20.09759 22.043105,11.32322 32.158766,21.979434 L 37.068811,17.246167 C 37.068811,17.246167 37.088388,32 37.088388,32 L 22.160133,31.978069 C 22.160133,31.978069 26.997745,27.140456 26.997745,27.140456 C 18.528582,18.264221 13.291696,25.230495 11.500037,31.436501 z"
             style="fill:#404040;"/>
          </a>
         </g>
        </svg>
</svg>
