<?xml version="1.0" encoding="UTF-8" standalone="no"?>
<!DOCTYPE svg PUBLIC "-//W3C//DTD SVG 1.1//EN"
 "http://www.w3.org/Graphics/SVG/1.1/DTD/svg11.dtd">
<!-- Generated by graphviz version 2.40.1 (20161225.0304)
 -->
<!-- Title: /home/travis/build/AliceO2Group/AliceO2/Detectors/MUON/MID/Base/include/MIDBase/MpArea.h Pages: 1 -->
<!--zoomable 417 -->
<svg id="main" version="1.1" xmlns="http://www.w3.org/2000/svg" xmlns:xlink="http://www.w3.org/1999/xlink" xml:space="preserve" onload="init(evt)">
<style type="text/css"><![CDATA[
.edge:hover path { stroke: red; }
.edge:hover polygon { stroke: red; fill: red; }
]]></style>
<script type="text/javascript"><![CDATA[
var edges = document.getElementsByTagName('g');
if (edges && edges.length) {
  for (var i=0;i<edges.length;i++) {
    if (edges[i].id.substr(0,4)=='edge') {
      edges[i].setAttribute('class','edge');
    }
  }
}
]]></script>
        <defs>
                <circle id="rim" cx="0" cy="0" r="7"/>
                <circle id="rim2" cx="0" cy="0" r="3.5"/>
                <g id="zoomPlus">
                        <use xlink:href="#rim" fill="#404040">
                                <set attributeName="fill" to="#808080" begin="zoomplus.mouseover" end="zoomplus.mouseout"/>
                        </use>
                        <path d="M-4,0h8M0,-4v8" fill="none" stroke="white" stroke-width="1.5" pointer-events="none"/>
                </g>
                <g id="zoomMin">
                        <use xlink:href="#rim" fill="#404040">
                                <set attributeName="fill" to="#808080" begin="zoomminus.mouseover" end="zoomminus.mouseout"/>
                        </use>
                        <path d="M-4,0h8" fill="none" stroke="white" stroke-width="1.5" pointer-events="none"/>
                </g>
                <g id="dirArrow">
                        <path fill="none" stroke="white" stroke-width="1.5" d="M0,-3.0v7 M-2.5,-0.5L0,-3.0L2.5,-0.5"/>
                </g>
               <g id="resetDef">
                       <use xlink:href="#rim2" fill="#404040">
                               <set attributeName="fill" to="#808080" begin="reset.mouseover" end="reset.mouseout"/>
                       </use>
               </g>
        </defs>

<script type="text/javascript">
var viewWidth = 2007;
var viewHeight = 417;
var sectionId = 'dynsection-1';
</script>
<script xlink:href="../../svgpan.js"/>
<svg id="graph" class="graph">
<g id="viewport">
<title>/home/travis/build/AliceO2Group/AliceO2/Detectors/MUON/MID/Base/include/MIDBase/MpArea.h</title>
<!-- Node2 -->
<g id="node1" class="node">
<title>Node2</title>
<polygon fill="#bfbfbf" stroke="#000000" points="1443,-356.5 1443,-408.5 1592,-408.5 1592,-356.5 1443,-356.5"/>
<text text-anchor="start" x="1451" y="-396.5" font-family="Helvetica,sans-Serif" font-size="10.00" fill="#000000">/home/travis/build</text>
<text text-anchor="start" x="1451" y="-385.5" font-family="Helvetica,sans-Serif" font-size="10.00" fill="#000000">/AliceO2Group/AliceO2</text>
<text text-anchor="start" x="1451" y="-374.5" font-family="Helvetica,sans-Serif" font-size="10.00" fill="#000000">/Detectors/MUON/MID/Base</text>
<text text-anchor="middle" x="1517.5" y="-363.5" font-family="Helvetica,sans-Serif" font-size="10.00" fill="#000000">/include/MIDBase/MpArea.h</text>
</g>
<!-- Node3 -->
<g id="node2" class="node">
<title>Node3</title>
<g id="a_node2"><a xlink:href="../../d4/d73/MID_2Base_2include_2MIDBase_2Mapping_8h.html" target="_top" xlink:title="Mapping for MID. ">
<polygon fill="none" stroke="#000000" points="909.5,-267.5 909.5,-319.5 1063.5,-319.5 1063.5,-267.5 909.5,-267.5"/>
<text text-anchor="start" x="917.5" y="-307.5" font-family="Helvetica,sans-Serif" font-size="10.00" fill="#000000">/home/travis/build</text>
<text text-anchor="start" x="917.5" y="-296.5" font-family="Helvetica,sans-Serif" font-size="10.00" fill="#000000">/AliceO2Group/AliceO2</text>
<text text-anchor="start" x="917.5" y="-285.5" font-family="Helvetica,sans-Serif" font-size="10.00" fill="#000000">/Detectors/MUON/MID/Base</text>
<text text-anchor="middle" x="986.5" y="-274.5" font-family="Helvetica,sans-Serif" font-size="10.00" fill="#000000">/include/MIDBase/Mapping.h</text>
</a>
</g>
</g>
<!-- Node2&#45;&gt;Node3 -->
<g id="edge1" class="edge">
<title>Node2&#45;&gt;Node3</title>
<path fill="none" stroke="#191970" d="M1432.8991,-368.3202C1331.2168,-351.2774 1162.0351,-322.9211 1063.7458,-306.447"/>
<polygon fill="#191970" stroke="#191970" points="1432.3864,-371.783 1442.8275,-369.9843 1433.5436,-364.8793 1432.3864,-371.783"/>
</g>
<!-- Node6 -->
<g id="node5" class="node">
<title>Node6</title>
<g id="a_node5"><a xlink:href="../../d5/d6f/testMapping_8cxx.html" target="_top" xlink:title="/home/travis/build\l/AliceO2Group/AliceO2\l/Detectors/MUON/MID/Base\l/test/src/testMapping.cxx">
<polygon fill="none" stroke="#000000" points="0,-178.5 0,-230.5 149,-230.5 149,-178.5 0,-178.5"/>
<text text-anchor="start" x="8" y="-218.5" font-family="Helvetica,sans-Serif" font-size="10.00" fill="#000000">/home/travis/build</text>
<text text-anchor="start" x="8" y="-207.5" font-family="Helvetica,sans-Serif" font-size="10.00" fill="#000000">/AliceO2Group/AliceO2</text>
<text text-anchor="start" x="8" y="-196.5" font-family="Helvetica,sans-Serif" font-size="10.00" fill="#000000">/Detectors/MUON/MID/Base</text>
<text text-anchor="middle" x="74.5" y="-185.5" font-family="Helvetica,sans-Serif" font-size="10.00" fill="#000000">/test/src/testMapping.cxx</text>
</a>
</g>
</g>
<!-- Node2&#45;&gt;Node6 -->
<g id="edge33" class="edge">
<title>Node2&#45;&gt;Node6</title>
<path fill="none" stroke="#191970" d="M1432.3698,-379.9161C1216.9853,-371.8911 633.9938,-340.888 162.5,-231 158.1491,-229.986 153.6972,-228.8767 149.2185,-227.7052"/>
<polygon fill="#191970" stroke="#191970" points="1432.5328,-383.4243 1442.6541,-380.2921 1432.7887,-376.4289 1432.5328,-383.4243"/>
</g>
<!-- Node7 -->
<g id="node6" class="node">
<title>Node7</title>
<g id="a_node6"><a xlink:href="../../d8/dc8/PreClusterHelper_8h.html" target="_top" xlink:title="Pre&#45;clusters helper for MID. ">
<polygon fill="none" stroke="#000000" points="404.5,-178.5 404.5,-230.5 624.5,-230.5 624.5,-178.5 404.5,-178.5"/>
<text text-anchor="start" x="412.5" y="-218.5" font-family="Helvetica,sans-Serif" font-size="10.00" fill="#000000">/home/travis/build</text>
<text text-anchor="start" x="412.5" y="-207.5" font-family="Helvetica,sans-Serif" font-size="10.00" fill="#000000">/AliceO2Group/AliceO2</text>
<text text-anchor="start" x="412.5" y="-196.5" font-family="Helvetica,sans-Serif" font-size="10.00" fill="#000000">/Detectors/MUON/MID/Clustering</text>
<text text-anchor="middle" x="514.5" y="-185.5" font-family="Helvetica,sans-Serif" font-size="10.00" fill="#000000">/include/MIDClustering/PreClusterHelper.h</text>
</a>
</g>
</g>
<!-- Node2&#45;&gt;Node7 -->
<g id="edge35" class="edge">
<title>Node2&#45;&gt;Node7</title>
<path fill="none" stroke="#191970" d="M1432.553,-378.997C1312.8848,-372.9101 1088.2893,-357.2557 900.5,-320 789.0049,-297.8804 663.5263,-257.3042 586.7412,-230.6152"/>
<polygon fill="#191970" stroke="#191970" points="1432.5837,-382.5028 1442.7456,-379.5051 1432.9323,-375.5115 1432.5837,-382.5028"/>
</g>
<!-- Node8 -->
<g id="node7" class="node">
<title>Node8</title>
<g id="a_node7"><a xlink:href="../../d5/d51/MUON_2MID_2Clustering_2include_2MIDClustering_2Clusterizer_8h.html" target="_top" xlink:title="Cluster reconstruction algorithm for MID. ">
<polygon fill="none" stroke="#000000" points="1275.5,-89.5 1275.5,-141.5 1465.5,-141.5 1465.5,-89.5 1275.5,-89.5"/>
<text text-anchor="start" x="1283.5" y="-129.5" font-family="Helvetica,sans-Serif" font-size="10.00" fill="#000000">/home/travis/build</text>
<text text-anchor="start" x="1283.5" y="-118.5" font-family="Helvetica,sans-Serif" font-size="10.00" fill="#000000">/AliceO2Group/AliceO2</text>
<text text-anchor="start" x="1283.5" y="-107.5" font-family="Helvetica,sans-Serif" font-size="10.00" fill="#000000">/Detectors/MUON/MID/Clustering</text>
<text text-anchor="middle" x="1370.5" y="-96.5" font-family="Helvetica,sans-Serif" font-size="10.00" fill="#000000">/include/MIDClustering/Clusterizer.h</text>
</a>
</g>
</g>
<!-- Node2&#45;&gt;Node8 -->
<g id="edge34" class="edge">
<title>Node2&#45;&gt;Node8</title>
<path fill="none" stroke="#191970" d="M1602.1398,-376.0707C1723.6756,-366.022 1935.8078,-345.1203 1960.5,-320 2004.8737,-274.857 2013.8819,-225.0179 1971.5,-178 1938.3132,-141.183 1626.5482,-124.6624 1465.6319,-118.5367"/>
<polygon fill="#191970" stroke="#191970" points="1601.7916,-372.5874 1592.1107,-376.8922 1602.3632,-379.564 1601.7916,-372.5874"/>
</g>
<!-- Node23 -->
<g id="node22" class="node">
<title>Node23</title>
<g id="a_node22"><a xlink:href="../../d0/db9/bench__Tracker_8cxx.html" target="_top" xlink:title="Benchmark tracker device for MID. ">
<polygon fill="none" stroke="#000000" points="1380.5,-178.5 1380.5,-230.5 1546.5,-230.5 1546.5,-178.5 1380.5,-178.5"/>
<text text-anchor="start" x="1388.5" y="-218.5" font-family="Helvetica,sans-Serif" font-size="10.00" fill="#000000">/home/travis/build</text>
<text text-anchor="start" x="1388.5" y="-207.5" font-family="Helvetica,sans-Serif" font-size="10.00" fill="#000000">/AliceO2Group/AliceO2</text>
<text text-anchor="start" x="1388.5" y="-196.5" font-family="Helvetica,sans-Serif" font-size="10.00" fill="#000000">/Detectors/MUON/MID/Tracking</text>
<text text-anchor="middle" x="1463.5" y="-185.5" font-family="Helvetica,sans-Serif" font-size="10.00" fill="#000000">/test/bench_Tracker.cxx</text>
</a>
</g>
</g>
<!-- Node2&#45;&gt;Node23 -->
<g id="edge39" class="edge">
<title>Node2&#45;&gt;Node23</title>
<path fill="none" stroke="#191970" d="M1506.6033,-346.5812C1496.1786,-312.2182 1480.7072,-261.2201 1471.4126,-230.5823"/>
<polygon fill="#191970" stroke="#191970" points="1503.2797,-347.6822 1509.5321,-356.2355 1509.9783,-345.65 1503.2797,-347.6822"/>
</g>
<!-- Node24 -->
<g id="node23" class="node">
<title>Node24</title>
<g id="a_node23"><a xlink:href="../../da/de0/testTracker_8cxx.html" target="_top" xlink:title="Test tracking device for MID. ">
<polygon fill="none" stroke="#000000" points="1564.5,-178.5 1564.5,-230.5 1730.5,-230.5 1730.5,-178.5 1564.5,-178.5"/>
<text text-anchor="start" x="1572.5" y="-218.5" font-family="Helvetica,sans-Serif" font-size="10.00" fill="#000000">/home/travis/build</text>
<text text-anchor="start" x="1572.5" y="-207.5" font-family="Helvetica,sans-Serif" font-size="10.00" fill="#000000">/AliceO2Group/AliceO2</text>
<text text-anchor="start" x="1572.5" y="-196.5" font-family="Helvetica,sans-Serif" font-size="10.00" fill="#000000">/Detectors/MUON/MID/Tracking</text>
<text text-anchor="middle" x="1647.5" y="-185.5" font-family="Helvetica,sans-Serif" font-size="10.00" fill="#000000">/test/testTracker.cxx</text>
</a>
</g>
</g>
<!-- Node2&#45;&gt;Node24 -->
<g id="edge40" class="edge">
<title>Node2&#45;&gt;Node24</title>
<path fill="none" stroke="#191970" d="M1528.2192,-346.7453C1536.6146,-322.6106 1549.9875,-290.9199 1568.5,-267 1579.0967,-253.3081 1593.3121,-240.859 1606.7626,-230.7392"/>
<polygon fill="#191970" stroke="#191970" points="1524.8928,-345.6566 1525.0322,-356.2505 1531.5297,-347.8819 1524.8928,-345.6566"/>
</g>
<!-- Node25 -->
<g id="node24" class="node">
<title>Node25</title>
<g id="a_node24"><a xlink:href="../../dc/d24/MpArea_8cxx.html" target="_top" xlink:title="Implementation of mapping area for MID. ">
<polygon fill="none" stroke="#000000" points="1802,-267.5 1802,-319.5 1951,-319.5 1951,-267.5 1802,-267.5"/>
<text text-anchor="start" x="1810" y="-307.5" font-family="Helvetica,sans-Serif" font-size="10.00" fill="#000000">/home/travis/build</text>
<text text-anchor="start" x="1810" y="-296.5" font-family="Helvetica,sans-Serif" font-size="10.00" fill="#000000">/AliceO2Group/AliceO2</text>
<text text-anchor="start" x="1810" y="-285.5" font-family="Helvetica,sans-Serif" font-size="10.00" fill="#000000">/Detectors/MUON/MID/Base</text>
<text text-anchor="middle" x="1876.5" y="-274.5" font-family="Helvetica,sans-Serif" font-size="10.00" fill="#000000">/src/MpArea.cxx</text>
</a>
</g>
</g>
<!-- Node2&#45;&gt;Node25 -->
<g id="edge32" class="edge">
<title>Node2&#45;&gt;Node25</title>
<path fill="none" stroke="#191970" d="M1602.052,-365.3315C1656.918,-353.7051 1729.7962,-337.3476 1793.5,-320 1796.273,-319.2449 1799.0916,-318.4558 1801.9338,-317.6421"/>
<polygon fill="#191970" stroke="#191970" points="1601.0857,-361.9582 1592.0232,-367.4465 1602.5303,-368.8076 1601.0857,-361.9582"/>
</g>
<!-- Node26 -->
<g id="node25" class="node">
<title>Node26</title>
<g id="a_node25"><a xlink:href="../../d3/dde/PreClustersDE_8h.html" target="_top" xlink:title="Structure with pre&#45;clusters in the MID detection element. ">
<polygon fill="none" stroke="#000000" points="1577,-267.5 1577,-319.5 1784,-319.5 1784,-267.5 1577,-267.5"/>
<text text-anchor="start" x="1585" y="-307.5" font-family="Helvetica,sans-Serif" font-size="10.00" fill="#000000">/home/travis/build</text>
<text text-anchor="start" x="1585" y="-296.5" font-family="Helvetica,sans-Serif" font-size="10.00" fill="#000000">/AliceO2Group/AliceO2</text>
<text text-anchor="start" x="1585" y="-285.5" font-family="Helvetica,sans-Serif" font-size="10.00" fill="#000000">/Detectors/MUON/MID/Clustering</text>
<text text-anchor="middle" x="1680.5" y="-274.5" font-family="Helvetica,sans-Serif" font-size="10.00" fill="#000000">/include/MIDClustering/PreClustersDE.h</text>
</a>
</g>
</g>
<!-- Node2&#45;&gt;Node26 -->
<g id="edge36" class="edge">
<title>Node2&#45;&gt;Node26</title>
<path fill="none" stroke="#191970" d="M1574.4153,-351.4235C1593.4833,-341.0122 1614.5322,-329.5192 1632.8195,-319.5341"/>
<polygon fill="#191970" stroke="#191970" points="1572.6234,-348.4142 1565.5238,-356.2784 1575.978,-354.558 1572.6234,-348.4142"/>
</g>
<!-- Node4 -->
<g id="node3" class="node">
<title>Node4</title>
<g id="a_node3"><a xlink:href="../../d1/dbe/ChamberEfficiency_8cxx.html" target="_top" xlink:title="Implementation of the chamber efficiency for the MID RPC. ">
<polygon fill="none" stroke="#000000" points="643,-178.5 643,-230.5 792,-230.5 792,-178.5 643,-178.5"/>
<text text-anchor="start" x="651" y="-218.5" font-family="Helvetica,sans-Serif" font-size="10.00" fill="#000000">/home/travis/build</text>
<text text-anchor="start" x="651" y="-207.5" font-family="Helvetica,sans-Serif" font-size="10.00" fill="#000000">/AliceO2Group/AliceO2</text>
<text text-anchor="start" x="651" y="-196.5" font-family="Helvetica,sans-Serif" font-size="10.00" fill="#000000">/Detectors/MUON/MID/Base</text>
<text text-anchor="middle" x="717.5" y="-185.5" font-family="Helvetica,sans-Serif" font-size="10.00" fill="#000000">/src/ChamberEfficiency.cxx</text>
</a>
</g>
</g>
<!-- Node3&#45;&gt;Node4 -->
<g id="edge2" class="edge">
<title>Node3&#45;&gt;Node4</title>
<path fill="none" stroke="#191970" d="M899.782,-264.8089C865.138,-253.3468 825.6325,-240.2762 792.2765,-229.2402"/>
<polygon fill="#191970" stroke="#191970" points="898.8221,-268.1779 909.4154,-267.9962 901.0209,-261.5322 898.8221,-268.1779"/>
</g>
<!-- Node5 -->
<g id="node4" class="node">
<title>Node5</title>
<g id="a_node4"><a xlink:href="../../d6/d73/MUON_2MID_2Base_2src_2Mapping_8cxx.html" target="_top" xlink:title="Implementation of mapping for MID. ">
<polygon fill="none" stroke="#000000" points="810,-178.5 810,-230.5 959,-230.5 959,-178.5 810,-178.5"/>
<text text-anchor="start" x="818" y="-218.5" font-family="Helvetica,sans-Serif" font-size="10.00" fill="#000000">/home/travis/build</text>
<text text-anchor="start" x="818" y="-207.5" font-family="Helvetica,sans-Serif" font-size="10.00" fill="#000000">/AliceO2Group/AliceO2</text>
<text text-anchor="start" x="818" y="-196.5" font-family="Helvetica,sans-Serif" font-size="10.00" fill="#000000">/Detectors/MUON/MID/Base</text>
<text text-anchor="middle" x="884.5" y="-185.5" font-family="Helvetica,sans-Serif" font-size="10.00" fill="#000000">/src/Mapping.cxx</text>
</a>
</g>
</g>
<!-- Node3&#45;&gt;Node5 -->
<g id="edge3" class="edge">
<title>Node3&#45;&gt;Node5</title>
<path fill="none" stroke="#191970" d="M948.7663,-260.5755C937.4085,-250.6653 925.1073,-239.9319 914.3369,-230.5341"/>
<polygon fill="#191970" stroke="#191970" points="946.6123,-263.341 956.4483,-267.2784 951.2145,-258.0666 946.6123,-263.341"/>
</g>
<!-- Node3&#45;&gt;Node6 -->
<g id="edge4" class="edge">
<title>Node3&#45;&gt;Node6</title>
<path fill="none" stroke="#191970" d="M899.2817,-289.2828C717.172,-280.0849 301.8767,-256.9534 162.5,-231 158.108,-230.1822 153.624,-229.2262 149.1206,-228.1721"/>
<polygon fill="#191970" stroke="#191970" points="899.1936,-292.7827 909.3568,-289.7895 899.5453,-285.7915 899.1936,-292.7827"/>
</g>
<!-- Node3&#45;&gt;Node7 -->
<g id="edge5" class="edge">
<title>Node3&#45;&gt;Node7</title>
<path fill="none" stroke="#191970" d="M899.3133,-279.1584C827.7484,-267.1237 723.8499,-249.0493 633.5,-231 630.5942,-230.4195 627.6503,-229.8232 624.6812,-229.2147"/>
<polygon fill="#191970" stroke="#191970" points="898.7507,-282.6129 909.1921,-280.8159 899.9091,-275.7094 898.7507,-282.6129"/>
</g>
<!-- Node10 -->
<g id="node9" class="node">
<title>Node10</title>
<g id="a_node9"><a xlink:href="../../d2/d12/bench__Clusterizer_8cxx.html" target="_top" xlink:title="Benchmark clustering device for MID. ">
<polygon fill="none" stroke="#000000" points="899,-.5 899,-52.5 1074,-52.5 1074,-.5 899,-.5"/>
<text text-anchor="start" x="907" y="-40.5" font-family="Helvetica,sans-Serif" font-size="10.00" fill="#000000">/home/travis/build</text>
<text text-anchor="start" x="907" y="-29.5" font-family="Helvetica,sans-Serif" font-size="10.00" fill="#000000">/AliceO2Group/AliceO2</text>
<text text-anchor="start" x="907" y="-18.5" font-family="Helvetica,sans-Serif" font-size="10.00" fill="#000000">/Detectors/MUON/MID/Clustering</text>
<text text-anchor="middle" x="986.5" y="-7.5" font-family="Helvetica,sans-Serif" font-size="10.00" fill="#000000">/test/bench_Clusterizer.cxx</text>
</a>
</g>
</g>
<!-- Node3&#45;&gt;Node10 -->
<g id="edge22" class="edge">
<title>Node3&#45;&gt;Node10</title>
<path fill="none" stroke="#191970" d="M986.5,-257.1513C986.5,-202.5402 986.5,-100.6267 986.5,-52.6931"/>
<polygon fill="#191970" stroke="#191970" points="983.0001,-257.4127 986.5,-267.4128 990.0001,-257.4128 983.0001,-257.4127"/>
</g>
<!-- Node12 -->
<g id="node11" class="node">
<title>Node12</title>
<g id="a_node11"><a xlink:href="../../d6/d45/testSimulation_8cxx.html" target="_top" xlink:title="/home/travis/build\l/AliceO2Group/AliceO2\l/Detectors/MUON/MID/Simulation\l/test/testSimulation.cxx">
<polygon fill="none" stroke="#000000" points="509.5,-.5 509.5,-52.5 687.5,-52.5 687.5,-.5 509.5,-.5"/>
<text text-anchor="start" x="517.5" y="-40.5" font-family="Helvetica,sans-Serif" font-size="10.00" fill="#000000">/home/travis/build</text>
<text text-anchor="start" x="517.5" y="-29.5" font-family="Helvetica,sans-Serif" font-size="10.00" fill="#000000">/AliceO2Group/AliceO2</text>
<text text-anchor="start" x="517.5" y="-18.5" font-family="Helvetica,sans-Serif" font-size="10.00" fill="#000000">/Detectors/MUON/MID/Simulation</text>
<text text-anchor="middle" x="598.5" y="-7.5" font-family="Helvetica,sans-Serif" font-size="10.00" fill="#000000">/test/testSimulation.cxx</text>
</a>
</g>
</g>
<!-- Node3&#45;&gt;Node12 -->
<g id="edge29" class="edge">
<title>Node3&#45;&gt;Node12</title>
<path fill="none" stroke="#191970" d="M899.4613,-288.1677C696.3579,-275.5219 207.3445,-243.8172 195.5,-231 152.6673,-184.6494 154.4354,-136.924 195.5,-89 215.655,-65.4783 396.5764,-44.9089 509.048,-34.2471"/>
<polygon fill="#191970" stroke="#191970" points="899.3015,-291.6644 909.4994,-288.7916 899.7358,-284.6779 899.3015,-291.6644"/>
</g>
<!-- Node16 -->
<g id="node15" class="node">
<title>Node16</title>
<g id="a_node15"><a xlink:href="../../d7/d1a/PreClusterizer_8h.html" target="_top" xlink:title="Pre&#45;cluster reconstruction algorithm for MID. ">
<polygon fill="none" stroke="#000000" points="1014.5,-89.5 1014.5,-141.5 1220.5,-141.5 1220.5,-89.5 1014.5,-89.5"/>
<text text-anchor="start" x="1022.5" y="-129.5" font-family="Helvetica,sans-Serif" font-size="10.00" fill="#000000">/home/travis/build</text>
<text text-anchor="start" x="1022.5" y="-118.5" font-family="Helvetica,sans-Serif" font-size="10.00" fill="#000000">/AliceO2Group/AliceO2</text>
<text text-anchor="start" x="1022.5" y="-107.5" font-family="Helvetica,sans-Serif" font-size="10.00" fill="#000000">/Detectors/MUON/MID/Clustering</text>
<text text-anchor="middle" x="1117.5" y="-96.5" font-family="Helvetica,sans-Serif" font-size="10.00" fill="#000000">/include/MIDClustering/PreClusterizer.h</text>
</a>
</g>
</g>
<!-- Node3&#45;&gt;Node16 -->
<g id="edge15" class="edge">
<title>Node3&#45;&gt;Node16</title>
<path fill="none" stroke="#191970" d="M999.5491,-257.9881C1009.409,-233.9618 1024.486,-202.3008 1043.5,-178 1053.9663,-164.6236 1067.6925,-152.0735 1080.4772,-141.7799"/>
<polygon fill="#191970" stroke="#191970" points="996.2309,-256.86 995.7741,-267.445 1002.7321,-259.4552 996.2309,-256.86"/>
</g>
<!-- Node18 -->
<g id="node17" class="node">
<title>Node18</title>
<g id="a_node17"><a xlink:href="../../db/d42/testCrateMapper_8cxx.html" target="_top" xlink:title="/home/travis/build\l/AliceO2Group/AliceO2\l/Detectors/MUON/MID/Raw\l/test/testCrateMapper.cxx">
<polygon fill="none" stroke="#000000" points="1052.5,-178.5 1052.5,-230.5 1198.5,-230.5 1198.5,-178.5 1052.5,-178.5"/>
<text text-anchor="start" x="1060.5" y="-218.5" font-family="Helvetica,sans-Serif" font-size="10.00" fill="#000000">/home/travis/build</text>
<text text-anchor="start" x="1060.5" y="-207.5" font-family="Helvetica,sans-Serif" font-size="10.00" fill="#000000">/AliceO2Group/AliceO2</text>
<text text-anchor="start" x="1060.5" y="-196.5" font-family="Helvetica,sans-Serif" font-size="10.00" fill="#000000">/Detectors/MUON/MID/Raw</text>
<text text-anchor="middle" x="1125.5" y="-185.5" font-family="Helvetica,sans-Serif" font-size="10.00" fill="#000000">/test/testCrateMapper.cxx</text>
</a>
</g>
</g>
<!-- Node3&#45;&gt;Node18 -->
<g id="edge23" class="edge">
<title>Node3&#45;&gt;Node18</title>
<path fill="none" stroke="#191970" d="M1036.1414,-261.7152C1052.1066,-251.4929 1069.5981,-240.2933 1084.8399,-230.5341"/>
<polygon fill="#191970" stroke="#191970" points="1033.9871,-258.9386 1027.4528,-267.2784 1037.7617,-264.8337 1033.9871,-258.9386"/>
</g>
<!-- Node19 -->
<g id="node18" class="node">
<title>Node19</title>
<g id="a_node18"><a xlink:href="../../d8/d4c/testRaw_8cxx.html" target="_top" xlink:title="/home/travis/build\l/AliceO2Group/AliceO2\l/Detectors/MUON/MID/Raw\l/test/testRaw.cxx">
<polygon fill="none" stroke="#000000" points="1216.5,-178.5 1216.5,-230.5 1362.5,-230.5 1362.5,-178.5 1216.5,-178.5"/>
<text text-anchor="start" x="1224.5" y="-218.5" font-family="Helvetica,sans-Serif" font-size="10.00" fill="#000000">/home/travis/build</text>
<text text-anchor="start" x="1224.5" y="-207.5" font-family="Helvetica,sans-Serif" font-size="10.00" fill="#000000">/AliceO2Group/AliceO2</text>
<text text-anchor="start" x="1224.5" y="-196.5" font-family="Helvetica,sans-Serif" font-size="10.00" fill="#000000">/Detectors/MUON/MID/Raw</text>
<text text-anchor="middle" x="1289.5" y="-185.5" font-family="Helvetica,sans-Serif" font-size="10.00" fill="#000000">/test/testRaw.cxx</text>
</a>
</g>
</g>
<!-- Node3&#45;&gt;Node19 -->
<g id="edge24" class="edge">
<title>Node3&#45;&gt;Node19</title>
<path fill="none" stroke="#191970" d="M1073.3158,-269.7474C1114.1414,-258.3733 1163.4275,-244.3485 1207.5,-231 1210.3637,-230.1326 1213.2805,-229.2391 1216.2245,-228.3287"/>
<polygon fill="#191970" stroke="#191970" points="1072.364,-266.3792 1063.6671,-272.4301 1074.2393,-273.1234 1072.364,-266.3792"/>
</g>
<!-- Node20 -->
<g id="node19" class="node">
<title>Node20</title>
<g id="a_node19"><a xlink:href="../../da/de1/MUON_2MID_2Simulation_2include_2MIDSimulation_2Digitizer_8h.html" target="_top" xlink:title="Digitizer for MID. ">
<polygon fill="none" stroke="#000000" points="204.5,-178.5 204.5,-230.5 386.5,-230.5 386.5,-178.5 204.5,-178.5"/>
<text text-anchor="start" x="212.5" y="-218.5" font-family="Helvetica,sans-Serif" font-size="10.00" fill="#000000">/home/travis/build</text>
<text text-anchor="start" x="212.5" y="-207.5" font-family="Helvetica,sans-Serif" font-size="10.00" fill="#000000">/AliceO2Group/AliceO2</text>
<text text-anchor="start" x="212.5" y="-196.5" font-family="Helvetica,sans-Serif" font-size="10.00" fill="#000000">/Detectors/MUON/MID/Simulation</text>
<text text-anchor="middle" x="295.5" y="-185.5" font-family="Helvetica,sans-Serif" font-size="10.00" fill="#000000">/include/MIDSimulation/Digitizer.h</text>
</a>
</g>
</g>
<!-- Node3&#45;&gt;Node20 -->
<g id="edge25" class="edge">
<title>Node3&#45;&gt;Node20</title>
<path fill="none" stroke="#191970" d="M899.2291,-288.4787C783.3837,-280.856 572.7923,-263.6656 395.5,-231 392.5856,-230.463 389.6315,-229.8852 386.6548,-229.274"/>
<polygon fill="#191970" stroke="#191970" points="899.2499,-291.9874 909.4557,-289.1429 899.7036,-285.0021 899.2499,-291.9874"/>
</g>
<!-- Node3&#45;&gt;Node23 -->
<g id="edge30" class="edge">
<title>Node3&#45;&gt;Node23</title>
<path fill="none" stroke="#191970" d="M1074.0343,-282.3293C1152.4411,-271.6038 1270.3258,-253.6981 1371.5,-231 1374.4193,-230.3451 1377.383,-229.6512 1380.3702,-228.9272"/>
<polygon fill="#191970" stroke="#191970" points="1073.1552,-278.9164 1063.7172,-283.7303 1074.0972,-285.8528 1073.1552,-278.9164"/>
</g>
<!-- Node3&#45;&gt;Node24 -->
<g id="edge31" class="edge">
<title>Node3&#45;&gt;Node24</title>
<path fill="none" stroke="#191970" d="M1073.774,-288.5646C1186.0543,-281.155 1386.7368,-264.3197 1555.5,-231 1558.4352,-230.4205 1561.4125,-229.7915 1564.4115,-229.1227"/>
<polygon fill="#191970" stroke="#191970" points="1073.2723,-285.0897 1063.5204,-289.2312 1073.7264,-292.0749 1073.2723,-285.0897"/>
</g>
<!-- Node7&#45;&gt;Node8 -->
<g id="edge6" class="edge">
<title>Node7&#45;&gt;Node8</title>
<path fill="none" stroke="#191970" d="M634.8552,-177.9114C898.0903,-141.8831 969.4784,-174.1589 1229.5,-142 1244.3316,-140.1657 1259.9563,-137.7355 1275.1876,-135.0895"/>
<polygon fill="#191970" stroke="#191970" points="634.028,-174.4927 624.6047,-179.3354 634.9912,-181.4261 634.028,-174.4927"/>
</g>
<!-- Node7&#45;&gt;Node12 -->
<g id="edge14" class="edge">
<title>Node7&#45;&gt;Node12</title>
<path fill="none" stroke="#191970" d="M634.4387,-177.1678C704.4085,-161.0845 779.2493,-143.5786 780.5,-142 795.1279,-123.5368 794.1867,-108.1713 780.5,-89 774.4218,-80.486 730.7252,-65.3423 687.6755,-52.0941"/>
<polygon fill="#191970" stroke="#191970" points="633.569,-173.7763 624.6062,-179.426 635.1359,-180.5987 633.569,-173.7763"/>
</g>
<!-- Node15 -->
<g id="node14" class="node">
<title>Node15</title>
<g id="a_node14"><a xlink:href="../../de/dcf/PreClusterHelper_8cxx.html" target="_top" xlink:title="Implementation of the pre&#45;clusters for MID. ">
<polygon fill="none" stroke="#000000" points="597,-89.5 597,-141.5 772,-141.5 772,-89.5 597,-89.5"/>
<text text-anchor="start" x="605" y="-129.5" font-family="Helvetica,sans-Serif" font-size="10.00" fill="#000000">/home/travis/build</text>
<text text-anchor="start" x="605" y="-118.5" font-family="Helvetica,sans-Serif" font-size="10.00" fill="#000000">/AliceO2Group/AliceO2</text>
<text text-anchor="start" x="605" y="-107.5" font-family="Helvetica,sans-Serif" font-size="10.00" fill="#000000">/Detectors/MUON/MID/Clustering</text>
<text text-anchor="middle" x="684.5" y="-96.5" font-family="Helvetica,sans-Serif" font-size="10.00" fill="#000000">/src/PreClusterHelper.cxx</text>
</a>
</g>
</g>
<!-- Node7&#45;&gt;Node15 -->
<g id="edge13" class="edge">
<title>Node7&#45;&gt;Node15</title>
<path fill="none" stroke="#191970" d="M573.5897,-173.5648C593.5477,-163.1162 615.6129,-151.5644 634.7718,-141.5341"/>
<polygon fill="#191970" stroke="#191970" points="571.8221,-170.5395 564.5861,-178.2784 575.0688,-176.741 571.8221,-170.5395"/>
</g>
<!-- Node9 -->
<g id="node8" class="node">
<title>Node9</title>
<g id="a_node8"><a xlink:href="../../dc/d07/MUON_2MID_2Clustering_2src_2Clusterizer_8cxx.html" target="_top" xlink:title="Implementation of the cluster reconstruction algorithm for MID. ">
<polygon fill="none" stroke="#000000" points="1662,-.5 1662,-52.5 1837,-52.5 1837,-.5 1662,-.5"/>
<text text-anchor="start" x="1670" y="-40.5" font-family="Helvetica,sans-Serif" font-size="10.00" fill="#000000">/home/travis/build</text>
<text text-anchor="start" x="1670" y="-29.5" font-family="Helvetica,sans-Serif" font-size="10.00" fill="#000000">/AliceO2Group/AliceO2</text>
<text text-anchor="start" x="1670" y="-18.5" font-family="Helvetica,sans-Serif" font-size="10.00" fill="#000000">/Detectors/MUON/MID/Clustering</text>
<text text-anchor="middle" x="1749.5" y="-7.5" font-family="Helvetica,sans-Serif" font-size="10.00" fill="#000000">/src/Clusterizer.cxx</text>
</a>
</g>
</g>
<!-- Node8&#45;&gt;Node9 -->
<g id="edge7" class="edge">
<title>Node8&#45;&gt;Node9</title>
<path fill="none" stroke="#191970" d="M1475.5159,-93.4944C1528.695,-82.0294 1594.1839,-67.4192 1652.5,-53 1655.5505,-52.2457 1658.6515,-51.4665 1661.781,-50.6696"/>
<polygon fill="#191970" stroke="#191970" points="1474.7746,-90.0737 1465.7339,-95.5978 1476.2463,-96.9173 1474.7746,-90.0737"/>
</g>
<!-- Node8&#45;&gt;Node10 -->
<g id="edge8" class="edge">
<title>Node8&#45;&gt;Node10</title>
<path fill="none" stroke="#191970" d="M1265.1276,-94.1007C1210.4694,-82.6298 1142.7138,-67.8322 1082.5,-53 1079.73,-52.3177 1076.9182,-51.6132 1074.0816,-50.8923"/>
<polygon fill="#191970" stroke="#191970" points="1264.6714,-97.581 1275.1762,-96.2031 1266.105,-90.7293 1264.6714,-97.581"/>
</g>
<!-- Node11 -->
<g id="node10" class="node">
<title>Node11</title>
<g id="a_node10"><a xlink:href="../../d6/dee/testClusterizer_8cxx.html" target="_top" xlink:title="Test clustering device for MID. ">
<polygon fill="none" stroke="#000000" points="1092,-.5 1092,-52.5 1267,-52.5 1267,-.5 1092,-.5"/>
<text text-anchor="start" x="1100" y="-40.5" font-family="Helvetica,sans-Serif" font-size="10.00" fill="#000000">/home/travis/build</text>
<text text-anchor="start" x="1100" y="-29.5" font-family="Helvetica,sans-Serif" font-size="10.00" fill="#000000">/AliceO2Group/AliceO2</text>
<text text-anchor="start" x="1100" y="-18.5" font-family="Helvetica,sans-Serif" font-size="10.00" fill="#000000">/Detectors/MUON/MID/Clustering</text>
<text text-anchor="middle" x="1179.5" y="-7.5" font-family="Helvetica,sans-Serif" font-size="10.00" fill="#000000">/test/testClusterizer.cxx</text>
</a>
</g>
</g>
<!-- Node8&#45;&gt;Node11 -->
<g id="edge9" class="edge">
<title>Node8&#45;&gt;Node11</title>
<path fill="none" stroke="#191970" d="M1305.2714,-85.1055C1282.5952,-74.5391 1257.3792,-62.7893 1235.5147,-52.6011"/>
<polygon fill="#191970" stroke="#191970" points="1303.9417,-88.3472 1314.4843,-89.3984 1306.8983,-82.0022 1303.9417,-88.3472"/>
</g>
<!-- Node8&#45;&gt;Node12 -->
<g id="edge10" class="edge">
<title>Node8&#45;&gt;Node12</title>
<path fill="none" stroke="#191970" d="M1265.1377,-94.2915C1253.15,-92.2971 1241.0821,-90.4743 1229.5,-89 993.9718,-59.0199 930.674,-92.1776 696.5,-53 693.5448,-52.5056 690.55,-51.96 687.5338,-51.3722"/>
<polygon fill="#191970" stroke="#191970" points="1264.7299,-97.7724 1275.1759,-96.0032 1265.9066,-90.872 1264.7299,-97.7724"/>
</g>
<!-- Node13 -->
<g id="node12" class="node">
<title>Node13</title>
<g id="a_node12"><a xlink:href="../../d3/d1e/ClusterizerMCSpec_8cxx.html" target="_top" xlink:title="Data processor spec for MID MC clustering device. ">
<polygon fill="none" stroke="#000000" points="1285.5,-.5 1285.5,-52.5 1455.5,-52.5 1455.5,-.5 1285.5,-.5"/>
<text text-anchor="start" x="1293.5" y="-40.5" font-family="Helvetica,sans-Serif" font-size="10.00" fill="#000000">/home/travis/build</text>
<text text-anchor="start" x="1293.5" y="-29.5" font-family="Helvetica,sans-Serif" font-size="10.00" fill="#000000">/AliceO2Group/AliceO2</text>
<text text-anchor="start" x="1293.5" y="-18.5" font-family="Helvetica,sans-Serif" font-size="10.00" fill="#000000">/Detectors/MUON/MID/Workflow</text>
<text text-anchor="middle" x="1370.5" y="-7.5" font-family="Helvetica,sans-Serif" font-size="10.00" fill="#000000">/src/ClusterizerMCSpec.cxx</text>
</a>
</g>
</g>
<!-- Node8&#45;&gt;Node13 -->
<g id="edge11" class="edge">
<title>Node8&#45;&gt;Node13</title>
<path fill="none" stroke="#191970" d="M1370.5,-79.1155C1370.5,-70.2061 1370.5,-60.8475 1370.5,-52.5341"/>
<polygon fill="#191970" stroke="#191970" points="1367.0001,-79.2784 1370.5,-89.2784 1374.0001,-79.2785 1367.0001,-79.2784"/>
</g>
<!-- Node14 -->
<g id="node13" class="node">
<title>Node14</title>
<g id="a_node13"><a xlink:href="../../d6/d57/MUON_2MID_2Workflow_2src_2ClusterizerSpec_8cxx.html" target="_top" xlink:title="Data processor spec for MID clustering device. ">
<polygon fill="none" stroke="#000000" points="1473.5,-.5 1473.5,-52.5 1643.5,-52.5 1643.5,-.5 1473.5,-.5"/>
<text text-anchor="start" x="1481.5" y="-40.5" font-family="Helvetica,sans-Serif" font-size="10.00" fill="#000000">/home/travis/build</text>
<text text-anchor="start" x="1481.5" y="-29.5" font-family="Helvetica,sans-Serif" font-size="10.00" fill="#000000">/AliceO2Group/AliceO2</text>
<text text-anchor="start" x="1481.5" y="-18.5" font-family="Helvetica,sans-Serif" font-size="10.00" fill="#000000">/Detectors/MUON/MID/Workflow</text>
<text text-anchor="middle" x="1558.5" y="-7.5" font-family="Helvetica,sans-Serif" font-size="10.00" fill="#000000">/src/ClusterizerSpec.cxx</text>
</a>
</g>
</g>
<!-- Node8&#45;&gt;Node14 -->
<g id="edge12" class="edge">
<title>Node8&#45;&gt;Node14</title>
<path fill="none" stroke="#191970" d="M1434.704,-85.1055C1457.0241,-74.5391 1481.844,-62.7893 1503.3651,-52.6011"/>
<polygon fill="#191970" stroke="#191970" points="1433.1767,-81.9561 1425.6359,-89.3984 1436.1719,-88.283 1433.1767,-81.9561"/>
</g>
<!-- Node16&#45;&gt;Node10 -->
<g id="edge17" class="edge">
<title>Node16&#45;&gt;Node10</title>
<path fill="none" stroke="#191970" d="M1070.2974,-83.431C1055.3642,-73.2856 1039.0516,-62.203 1024.8199,-52.5341"/>
<polygon fill="#191970" stroke="#191970" points="1068.6657,-86.5538 1078.9042,-89.2784 1072.5995,-80.7637 1068.6657,-86.5538"/>
</g>
<!-- Node16&#45;&gt;Node11 -->
<g id="edge18" class="edge">
<title>Node16&#45;&gt;Node11</title>
<path fill="none" stroke="#191970" d="M1141.6365,-80.8525C1148.1996,-71.4313 1155.1948,-61.3897 1161.3639,-52.5341"/>
<polygon fill="#191970" stroke="#191970" points="1138.6109,-79.0725 1135.7667,-89.2784 1144.3547,-83.0738 1138.6109,-79.0725"/>
</g>
<!-- Node16&#45;&gt;Node12 -->
<g id="edge19" class="edge">
<title>Node16&#45;&gt;Node12</title>
<path fill="none" stroke="#191970" d="M1004.4442,-102.3546C919.3194,-91.5782 799.9975,-74.5988 696.5,-53 693.5669,-52.3879 690.5913,-51.7402 687.5916,-51.0644"/>
<polygon fill="#191970" stroke="#191970" points="1004.033,-105.8303 1014.3915,-103.6053 1004.9063,-98.885 1004.033,-105.8303"/>
</g>
<!-- Node16&#45;&gt;Node13 -->
<g id="edge20" class="edge">
<title>Node16&#45;&gt;Node13</title>
<path fill="none" stroke="#191970" d="M1201.5066,-85.9483C1232.1548,-75.1669 1266.5683,-63.061 1296.3025,-52.6011"/>
<polygon fill="#191970" stroke="#191970" points="1199.9707,-82.7782 1191.6989,-89.3984 1202.2937,-89.3816 1199.9707,-82.7782"/>
</g>
<!-- Node16&#45;&gt;Node14 -->
<g id="edge21" class="edge">
<title>Node16&#45;&gt;Node14</title>
<path fill="none" stroke="#191970" d="M1230.7498,-95.3721C1327.5082,-78.1327 1452.9122,-55.6704 1464.5,-53 1467.3914,-52.3337 1470.3268,-51.6346 1473.2866,-50.9104"/>
<polygon fill="#191970" stroke="#191970" points="1230.1191,-91.9293 1220.8878,-97.1288 1231.3467,-98.8208 1230.1191,-91.9293"/>
</g>
<!-- Node17 -->
<g id="node16" class="node">
<title>Node17</title>
<g id="a_node16"><a xlink:href="../../db/d2e/PreClusterizer_8cxx.html" target="_top" xlink:title="Implementation of the pre&#45;cluster reconstruction algorithm for MID. ">
<polygon fill="none" stroke="#000000" points="706,-.5 706,-52.5 881,-52.5 881,-.5 706,-.5"/>
<text text-anchor="start" x="714" y="-40.5" font-family="Helvetica,sans-Serif" font-size="10.00" fill="#000000">/home/travis/build</text>
<text text-anchor="start" x="714" y="-29.5" font-family="Helvetica,sans-Serif" font-size="10.00" fill="#000000">/AliceO2Group/AliceO2</text>
<text text-anchor="start" x="714" y="-18.5" font-family="Helvetica,sans-Serif" font-size="10.00" fill="#000000">/Detectors/MUON/MID/Clustering</text>
<text text-anchor="middle" x="793.5" y="-7.5" font-family="Helvetica,sans-Serif" font-size="10.00" fill="#000000">/src/PreClusterizer.cxx</text>
</a>
</g>
</g>
<!-- Node16&#45;&gt;Node17 -->
<g id="edge16" class="edge">
<title>Node16&#45;&gt;Node17</title>
<path fill="none" stroke="#191970" d="M1012.6502,-86.8004C973.9437,-76.1945 929.7213,-64.0642 889.5,-53 886.7493,-52.2433 883.9544,-51.4741 881.1324,-50.6971"/>
<polygon fill="#191970" stroke="#191970" points="1011.7967,-90.1955 1022.3662,-89.4623 1013.6465,-83.4443 1011.7967,-90.1955"/>
</g>
<!-- Node20&#45;&gt;Node12 -->
<g id="edge27" class="edge">
<title>Node20&#45;&gt;Node12</title>
<path fill="none" stroke="#191970" d="M328.0961,-170.9341C336.6035,-161.758 345.5974,-151.6722 353.5,-142 371.8388,-119.5548 367.927,-105.8645 391.5,-89 426.0765,-64.2635 470.5713,-49.1816 509.4424,-40.0532"/>
<polygon fill="#191970" stroke="#191970" points="325.3842,-168.7094 321.099,-178.399 330.4914,-173.4966 325.3842,-168.7094"/>
</g>
<!-- Node21 -->
<g id="node20" class="node">
<title>Node21</title>
<g id="a_node20"><a xlink:href="../../d6/df9/MUON_2MID_2Simulation_2src_2Digitizer_8cxx.html" target="_top" xlink:title="Implementation of the digitizer for MID. ">
<polygon fill="none" stroke="#000000" points="400.5,-89.5 400.5,-141.5 578.5,-141.5 578.5,-89.5 400.5,-89.5"/>
<text text-anchor="start" x="408.5" y="-129.5" font-family="Helvetica,sans-Serif" font-size="10.00" fill="#000000">/home/travis/build</text>
<text text-anchor="start" x="408.5" y="-118.5" font-family="Helvetica,sans-Serif" font-size="10.00" fill="#000000">/AliceO2Group/AliceO2</text>
<text text-anchor="start" x="408.5" y="-107.5" font-family="Helvetica,sans-Serif" font-size="10.00" fill="#000000">/Detectors/MUON/MID/Simulation</text>
<text text-anchor="middle" x="489.5" y="-96.5" font-family="Helvetica,sans-Serif" font-size="10.00" fill="#000000">/src/Digitizer.cxx</text>
</a>
</g>
</g>
<!-- Node20&#45;&gt;Node21 -->
<g id="edge26" class="edge">
<title>Node20&#45;&gt;Node21</title>
<path fill="none" stroke="#191970" d="M361.7531,-174.1055C384.7855,-163.5391 410.3975,-151.7893 432.6054,-141.6011"/>
<polygon fill="#191970" stroke="#191970" points="360.0253,-171.0474 352.3956,-178.3984 362.9442,-177.4098 360.0253,-171.0474"/>
</g>
<!-- Node22 -->
<g id="node21" class="node">
<title>Node22</title>
<g id="a_node21"><a xlink:href="../../d4/dd3/MIDDigitizerSpec_8cxx.html" target="_top" xlink:title="/home/travis/build\l/AliceO2Group/AliceO2\l/Steer/DigitizerWorkflow\l/src/MIDDigitizerSpec.cxx">
<polygon fill="none" stroke="#000000" points="204.5,-89.5 204.5,-141.5 344.5,-141.5 344.5,-89.5 204.5,-89.5"/>
<text text-anchor="start" x="212.5" y="-129.5" font-family="Helvetica,sans-Serif" font-size="10.00" fill="#000000">/home/travis/build</text>
<text text-anchor="start" x="212.5" y="-118.5" font-family="Helvetica,sans-Serif" font-size="10.00" fill="#000000">/AliceO2Group/AliceO2</text>
<text text-anchor="start" x="212.5" y="-107.5" font-family="Helvetica,sans-Serif" font-size="10.00" fill="#000000">/Steer/DigitizerWorkflow</text>
<text text-anchor="middle" x="274.5" y="-96.5" font-family="Helvetica,sans-Serif" font-size="10.00" fill="#000000">/src/MIDDigitizerSpec.cxx</text>
</a>
</g>
</g>
<!-- Node20&#45;&gt;Node22 -->
<g id="edge28" class="edge">
<title>Node20&#45;&gt;Node22</title>
<path fill="none" stroke="#191970" d="M286.9834,-168.4059C284.8607,-159.4097 282.6258,-149.9379 280.6429,-141.5341"/>
<polygon fill="#191970" stroke="#191970" points="283.6099,-169.3495 289.3129,-178.2784 290.4228,-167.7419 283.6099,-169.3495"/>
</g>
<!-- Node26&#45;&gt;Node8 -->
<g id="edge37" class="edge">
<title>Node26&#45;&gt;Node8</title>
<path fill="none" stroke="#191970" d="M1720.8366,-259.8165C1728.4468,-251.2761 1735.3227,-241.5105 1739.5,-231 1748.2,-209.11 1754.702,-195.9934 1739.5,-178 1721.9144,-157.1854 1568.9331,-136.8128 1465.5495,-125.2405"/>
<polygon fill="#191970" stroke="#191970" points="1718.0667,-257.6495 1713.6975,-267.3015 1723.1321,-262.4808 1718.0667,-257.6495"/>
</g>
<!-- Node27 -->
<g id="node26" class="node">
<title>Node27</title>
<g id="a_node26"><a xlink:href="../../dd/db4/PreClustersDE_8cxx.html" target="_top" xlink:title="Structure with pre&#45;clusters in the MID detection element. ">
<polygon fill="none" stroke="#000000" points="1787,-178.5 1787,-230.5 1962,-230.5 1962,-178.5 1787,-178.5"/>
<text text-anchor="start" x="1795" y="-218.5" font-family="Helvetica,sans-Serif" font-size="10.00" fill="#000000">/home/travis/build</text>
<text text-anchor="start" x="1795" y="-207.5" font-family="Helvetica,sans-Serif" font-size="10.00" fill="#000000">/AliceO2Group/AliceO2</text>
<text text-anchor="start" x="1795" y="-196.5" font-family="Helvetica,sans-Serif" font-size="10.00" fill="#000000">/Detectors/MUON/MID/Clustering</text>
<text text-anchor="middle" x="1874.5" y="-185.5" font-family="Helvetica,sans-Serif" font-size="10.00" fill="#000000">/src/PreClustersDE.cxx</text>
</a>
</g>
</g>
<!-- Node26&#45;&gt;Node27 -->
<g id="edge38" class="edge">
<title>Node26&#45;&gt;Node27</title>
<path fill="none" stroke="#191970" d="M1746.7531,-263.1055C1769.7855,-252.5391 1795.3975,-240.7893 1817.6054,-230.6011"/>
<polygon fill="#191970" stroke="#191970" points="1745.0253,-260.0474 1737.3956,-267.3984 1747.9442,-266.4098 1745.0253,-260.0474"/>
</g>
</g>
</svg>
        <g id="navigator" transform="translate(0 0)" fill="#404254">
                <rect fill="#f2f5e9" fill-opacity="0.5" stroke="#606060" stroke-width=".5" x="0" y="0" width="60" height="60"/>
                <use id="zoomplus" xlink:href="#zoomPlus" x="17" y="9" onmousedown="handleZoom(evt,'in')"/>
                <use id="zoomminus" xlink:href="#zoomMin" x="42" y="9" onmousedown="handleZoom(evt,'out')"/>
                <use id="reset" xlink:href="#resetDef" x="30" y="36" onmousedown="handleReset()"/>
                <g id="arrowUp" xlink:href="#dirArrow" transform="translate(30 24)" onmousedown="handlePan(0,-1)">
                  <use xlink:href="#rim" fill="#404040">
                        <set attributeName="fill" to="#808080" begin="arrowUp.mouseover" end="arrowUp.mouseout"/>
                  </use>
                  <path fill="none" stroke="white" stroke-width="1.5" d="M0,-3.0v7 M-2.5,-0.5L0,-3.0L2.5,-0.5"/>
                </g>
                <g id="arrowRight" xlink:href="#dirArrow" transform="rotate(90) translate(36 -43)" onmousedown="handlePan(1,0)">
                  <use xlink:href="#rim" fill="#404040">
                        <set attributeName="fill" to="#808080" begin="arrowRight.mouseover" end="arrowRight.mouseout"/>
                  </use>
                  <path fill="none" stroke="white" stroke-width="1.5" d="M0,-3.0v7 M-2.5,-0.5L0,-3.0L2.5,-0.5"/>
                </g>
                <g id="arrowDown" xlink:href="#dirArrow" transform="rotate(180) translate(-30 -48)" onmousedown="handlePan(0,1)">
                  <use xlink:href="#rim" fill="#404040">
                        <set attributeName="fill" to="#808080" begin="arrowDown.mouseover" end="arrowDown.mouseout"/>
                  </use>
                  <path fill="none" stroke="white" stroke-width="1.5" d="M0,-3.0v7 M-2.5,-0.5L0,-3.0L2.5,-0.5"/>
                </g>
                <g id="arrowLeft" xlink:href="#dirArrow" transform="rotate(270) translate(-36 17)" onmousedown="handlePan(-1,0)">
                  <use xlink:href="#rim" fill="#404040">
                        <set attributeName="fill" to="#808080" begin="arrowLeft.mouseover" end="arrowLeft.mouseout"/>
                  </use>
                  <path fill="none" stroke="white" stroke-width="1.5" d="M0,-3.0v7 M-2.5,-0.5L0,-3.0L2.5,-0.5"/>
                </g>
        </g>
        <svg viewBox="0 0 15 15" width="100%" height="30px" preserveAspectRatio="xMaxYMin meet">
         <g id="arrow_out" transform="scale(0.3 0.3)">
          <a xlink:href="MpArea_8h__dep__incl_org.svg" target="_base">
           <rect id="button" ry="5" rx="5" y="6" x="6" height="38" width="38"
                fill="#f2f5e9" fill-opacity="0.5" stroke="#606060" stroke-width="1.0"/>
           <path id="arrow"
             d="M 11.500037,31.436501 C 11.940474,20.09759 22.043105,11.32322 32.158766,21.979434 L 37.068811,17.246167 C 37.068811,17.246167 37.088388,32 37.088388,32 L 22.160133,31.978069 C 22.160133,31.978069 26.997745,27.140456 26.997745,27.140456 C 18.528582,18.264221 13.291696,25.230495 11.500037,31.436501 z"
             style="fill:#404040;"/>
          </a>
         </g>
        </svg>
</svg>
