<?xml version="1.0" encoding="UTF-8" standalone="no"?>
<!DOCTYPE svg PUBLIC "-//W3C//DTD SVG 1.1//EN"
 "http://www.w3.org/Graphics/SVG/1.1/DTD/svg11.dtd">
<!-- Generated by graphviz version 2.40.1 (20161225.0304)
 -->
<!-- Title: o2::itsmft::ClusterPattern Pages: 1 -->
<svg width="295pt" height="281pt"
 viewBox="0.00 0.00 295.00 281.00" xmlns="http://www.w3.org/2000/svg" xmlns:xlink="http://www.w3.org/1999/xlink">
<g id="graph0" class="graph" transform="scale(1 1) rotate(0) translate(4 277)">
<title>o2::itsmft::ClusterPattern</title>
<!-- Node1 -->
<g id="node1" class="node">
<title>Node1</title>
<polygon fill="#bfbfbf" stroke="#000000" points="26.5,-.5 26.5,-145.5 165.5,-145.5 165.5,-.5 26.5,-.5"/>
<text text-anchor="middle" x="96" y="-133.5" font-family="Helvetica,sans-Serif" font-size="10.00" fill="#000000">o2::itsmft::ClusterPattern</text>
<polyline fill="none" stroke="#000000" points="26.5,-126.5 165.5,-126.5 "/>
<text text-anchor="middle" x="96" y="-114.5" font-family="Helvetica,sans-Serif" font-size="10.00" fill="#000000"> </text>
<polyline fill="none" stroke="#000000" points="26.5,-107.5 165.5,-107.5 "/>
<text text-anchor="start" x="34.5" y="-95.5" font-family="Helvetica,sans-Serif" font-size="10.00" fill="#000000">+ ClusterPattern()</text>
<text text-anchor="start" x="34.5" y="-84.5" font-family="Helvetica,sans-Serif" font-size="10.00" fill="#000000">+ ClusterPattern()</text>
<text text-anchor="start" x="34.5" y="-73.5" font-family="Helvetica,sans-Serif" font-size="10.00" fill="#000000">+ getPattern()</text>
<text text-anchor="start" x="34.5" y="-62.5" font-family="Helvetica,sans-Serif" font-size="10.00" fill="#000000">+ getByte()</text>
<text text-anchor="start" x="34.5" y="-51.5" font-family="Helvetica,sans-Serif" font-size="10.00" fill="#000000">+ getRowSpan()</text>
<text text-anchor="start" x="34.5" y="-40.5" font-family="Helvetica,sans-Serif" font-size="10.00" fill="#000000">+ getColumnSpan()</text>
<text text-anchor="start" x="34.5" y="-29.5" font-family="Helvetica,sans-Serif" font-size="10.00" fill="#000000">+ getUsedBytes()</text>
<text text-anchor="start" x="34.5" y="-18.5" font-family="Helvetica,sans-Serif" font-size="10.00" fill="#000000">+ setPattern()</text>
<text text-anchor="start" x="34.5" y="-7.5" font-family="Helvetica,sans-Serif" font-size="10.00" fill="#000000">+ setPattern()</text>
</g>
<!-- Node2 -->
<g id="node2" class="node">
<title>Node2</title>
<polygon fill="none" stroke="#bfbfbf" points="0,-215.5 0,-272.5 44,-272.5 44,-215.5 0,-215.5"/>
<text text-anchor="middle" x="22" y="-260.5" font-family="Helvetica,sans-Serif" font-size="10.00" fill="#000000">static</text>
<polyline fill="none" stroke="#bfbfbf" points="0,-253.5 44,-253.5 "/>
<text text-anchor="middle" x="22" y="-241.5" font-family="Helvetica,sans-Serif" font-size="10.00" fill="#000000"> </text>
<polyline fill="none" stroke="#bfbfbf" points="0,-234.5 44,-234.5 "/>
<text text-anchor="middle" x="22" y="-222.5" font-family="Helvetica,sans-Serif" font-size="10.00" fill="#000000"> </text>
</g>
<!-- Node2&#45;&gt;Node1 -->
<g id="edge1" class="edge">
<title>Node2&#45;&gt;Node1</title>
<path fill="none" stroke="#404040" d="M17.9139,-215.433C16.7639,-199.8001 17.1397,-180.3436 23,-164 23.9165,-161.4441 24.9372,-158.9063 26.0486,-156.3917"/>
<polygon fill="none" stroke="#404040" points="26.1087,-156.2712 25.2053,-149.1169 31.4618,-145.5314 32.3652,-152.6857 26.1087,-156.2712"/>
<text text-anchor="middle" x="86" y="-178" font-family="Helvetica,sans-Serif" font-size="10.00" fill="#000000"> +kExtendedPatternBytes</text>
</g>
<!-- Node3 -->
<g id="node3" class="node">
<title>Node3</title>
<polygon fill="none" stroke="#bfbfbf" points="148.5,-215.5 148.5,-272.5 193.5,-272.5 193.5,-215.5 148.5,-215.5"/>
<text text-anchor="middle" x="171" y="-260.5" font-family="Helvetica,sans-Serif" font-size="10.00" fill="#000000">friend</text>
<polyline fill="none" stroke="#bfbfbf" points="148.5,-253.5 193.5,-253.5 "/>
<text text-anchor="middle" x="171" y="-241.5" font-family="Helvetica,sans-Serif" font-size="10.00" fill="#000000"> </text>
<polyline fill="none" stroke="#bfbfbf" points="148.5,-234.5 193.5,-234.5 "/>
<text text-anchor="middle" x="171" y="-222.5" font-family="Helvetica,sans-Serif" font-size="10.00" fill="#000000"> </text>
</g>
<!-- Node3&#45;&gt;Node1 -->
<g id="edge2" class="edge">
<title>Node3&#45;&gt;Node1</title>
<path fill="none" stroke="#404040" d="M165.0045,-215.2593C161.2986,-199.7504 155.9207,-180.4663 149,-164 147.964,-161.535 146.8733,-159.0547 145.7377,-156.5688"/>
<polygon fill="none" stroke="#404040" points="145.6957,-156.4811 139.4923,-152.8044 140.5003,-145.664 146.7037,-149.3408 145.6957,-156.4811"/>
<text text-anchor="middle" x="223.5" y="-189" font-family="Helvetica,sans-Serif" font-size="10.00" fill="#000000"> +TopologyDictionary</text>
<text text-anchor="middle" x="223.5" y="-178" font-family="Helvetica,sans-Serif" font-size="10.00" fill="#000000">+ClusterTopology</text>
<text text-anchor="middle" x="223.5" y="-167" font-family="Helvetica,sans-Serif" font-size="10.00" fill="#000000">+BuildTopologyDictionary</text>
</g>
</g>
</svg>
