<?xml version="1.0" encoding="UTF-8" standalone="no"?>
<!DOCTYPE svg PUBLIC "-//W3C//DTD SVG 1.1//EN"
 "http://www.w3.org/Graphics/SVG/1.1/DTD/svg11.dtd">
<!-- Generated by graphviz version 2.40.1 (20161225.0304)
 -->
<!-- Title: /home/travis/build/AliceO2Group/AliceO2/DataFormats/Reconstruction/include/ReconstructionDataFormats/Vertex.h Pages: 1 -->
<!--zoomable 262 -->
<svg id="main" version="1.1" xmlns="http://www.w3.org/2000/svg" xmlns:xlink="http://www.w3.org/1999/xlink" xml:space="preserve" onload="init(evt)">
<style type="text/css"><![CDATA[
.edge:hover path { stroke: red; }
.edge:hover polygon { stroke: red; fill: red; }
]]></style>
<script type="text/javascript"><![CDATA[
var edges = document.getElementsByTagName('g');
if (edges && edges.length) {
  for (var i=0;i<edges.length;i++) {
    if (edges[i].id.substr(0,4)=='edge') {
      edges[i].setAttribute('class','edge');
    }
  }
}
]]></script>
        <defs>
                <circle id="rim" cx="0" cy="0" r="7"/>
                <circle id="rim2" cx="0" cy="0" r="3.5"/>
                <g id="zoomPlus">
                        <use xlink:href="#rim" fill="#404040">
                                <set attributeName="fill" to="#808080" begin="zoomplus.mouseover" end="zoomplus.mouseout"/>
                        </use>
                        <path d="M-4,0h8M0,-4v8" fill="none" stroke="white" stroke-width="1.5" pointer-events="none"/>
                </g>
                <g id="zoomMin">
                        <use xlink:href="#rim" fill="#404040">
                                <set attributeName="fill" to="#808080" begin="zoomminus.mouseover" end="zoomminus.mouseout"/>
                        </use>
                        <path d="M-4,0h8" fill="none" stroke="white" stroke-width="1.5" pointer-events="none"/>
                </g>
                <g id="dirArrow">
                        <path fill="none" stroke="white" stroke-width="1.5" d="M0,-3.0v7 M-2.5,-0.5L0,-3.0L2.5,-0.5"/>
                </g>
               <g id="resetDef">
                       <use xlink:href="#rim2" fill="#404040">
                               <set attributeName="fill" to="#808080" begin="reset.mouseover" end="reset.mouseout"/>
                       </use>
               </g>
        </defs>

<script type="text/javascript">
var viewWidth = 1651;
var viewHeight = 262;
var sectionId = 'dynsection-0';
</script>
<script xlink:href="../../svgpan.js"/>
<svg id="graph" class="graph">
<g id="viewport">
<title>/home/travis/build/AliceO2Group/AliceO2/DataFormats/Reconstruction/include/ReconstructionDataFormats/Vertex.h</title>
<!-- Node0 -->
<g id="node1" class="node">
<title>Node0</title>
<polygon fill="#bfbfbf" stroke="#000000" points="1335.5,-190.5 1335.5,-253.5 1528.5,-253.5 1528.5,-190.5 1335.5,-190.5"/>
<text text-anchor="start" x="1343.5" y="-241.5" font-family="Helvetica,sans-Serif" font-size="10.00" fill="#000000">/home/travis/build</text>
<text text-anchor="start" x="1343.5" y="-230.5" font-family="Helvetica,sans-Serif" font-size="10.00" fill="#000000">/AliceO2Group/AliceO2</text>
<text text-anchor="start" x="1343.5" y="-219.5" font-family="Helvetica,sans-Serif" font-size="10.00" fill="#000000">/DataFormats/Reconstruction</text>
<text text-anchor="start" x="1343.5" y="-208.5" font-family="Helvetica,sans-Serif" font-size="10.00" fill="#000000">/include/ReconstructionDataFormats</text>
<text text-anchor="middle" x="1432" y="-197.5" font-family="Helvetica,sans-Serif" font-size="10.00" fill="#000000">/Vertex.h</text>
</g>
<!-- Node1 -->
<g id="node2" class="node">
<title>Node1</title>
<g id="a_node2"><a xlink:href="../../dd/d76/Cartesian3D_8h.html" target="_top" xlink:title="MathUtils/Cartesian3D.h">
<polygon fill="none" stroke="#000000" points="717.5,-134.5 717.5,-153.5 852.5,-153.5 852.5,-134.5 717.5,-134.5"/>
<text text-anchor="middle" x="785" y="-141.5" font-family="Helvetica,sans-Serif" font-size="10.00" fill="#000000">MathUtils/Cartesian3D.h</text>
</a>
</g>
</g>
<!-- Node0&#45;&gt;Node1 -->
<g id="edge1" class="edge">
<title>Node0&#45;&gt;Node1</title>
<path fill="none" stroke="#191970" d="M1335.4871,-210.3648C1206.7841,-194.8488 981.4562,-167.6841 862.9368,-153.3958"/>
<polygon fill="#191970" stroke="#191970" points="863.198,-149.902 852.851,-152.1799 862.3601,-156.8517 863.198,-149.902"/>
</g>
<!-- Node9 -->
<g id="node10" class="node">
<title>Node9</title>
<polygon fill="none" stroke="#bfbfbf" points="1236.5,-73 1236.5,-92 1285.5,-92 1285.5,-73 1236.5,-73"/>
<text text-anchor="middle" x="1261" y="-80" font-family="Helvetica,sans-Serif" font-size="10.00" fill="#000000">iosfwd</text>
</g>
<!-- Node0&#45;&gt;Node9 -->
<g id="edge19" class="edge">
<title>Node0&#45;&gt;Node9</title>
<path fill="none" stroke="#191970" d="M1335.3523,-203.6525C1307.9312,-193.5974 1280.9516,-178.0454 1264,-154 1253.5159,-139.1286 1254.0455,-117.8721 1256.4185,-102.4032"/>
<polygon fill="#191970" stroke="#191970" points="1259.903,-102.8155 1258.3411,-92.3364 1253.0273,-101.5023 1259.903,-102.8155"/>
</g>
<!-- Node13 -->
<g id="node14" class="node">
<title>Node13</title>
<g id="a_node14"><a xlink:href="../../df/d5d/common_2include_2CommonDataFormat_2TimeStamp_8h.html" target="_top" xlink:title="CommonDataFormat/TimeStamp.h">
<polygon fill="none" stroke="#000000" points="1272.5,-134.5 1272.5,-153.5 1459.5,-153.5 1459.5,-134.5 1272.5,-134.5"/>
<text text-anchor="middle" x="1366" y="-141.5" font-family="Helvetica,sans-Serif" font-size="10.00" fill="#000000">CommonDataFormat/TimeStamp.h</text>
</a>
</g>
</g>
<!-- Node0&#45;&gt;Node13 -->
<g id="edge13" class="edge">
<title>Node0&#45;&gt;Node13</title>
<path fill="none" stroke="#191970" d="M1405.1553,-190.2744C1396.8042,-180.4049 1387.9079,-169.8911 1380.709,-161.3834"/>
<polygon fill="#191970" stroke="#191970" points="1383.2904,-159.0156 1374.1591,-153.6426 1377.9467,-163.5373 1383.2904,-159.0156"/>
</g>
<!-- Node15 -->
<g id="node16" class="node">
<title>Node15</title>
<polygon fill="none" stroke="#bfbfbf" points="1477,-134.5 1477,-153.5 1519,-153.5 1519,-134.5 1477,-134.5"/>
<text text-anchor="middle" x="1498" y="-141.5" font-family="Helvetica,sans-Serif" font-size="10.00" fill="#000000">array</text>
</g>
<!-- Node0&#45;&gt;Node15 -->
<g id="edge16" class="edge">
<title>Node0&#45;&gt;Node15</title>
<path fill="none" stroke="#191970" d="M1458.8447,-190.2744C1467.1958,-180.4049 1476.0921,-169.8911 1483.291,-161.3834"/>
<polygon fill="#191970" stroke="#191970" points="1486.0533,-163.5373 1489.8409,-153.6426 1480.7096,-159.0156 1486.0533,-163.5373"/>
</g>
<!-- Node16 -->
<g id="node17" class="node">
<title>Node16</title>
<polygon fill="none" stroke="#bfbfbf" points="1537,-134.5 1537,-153.5 1593,-153.5 1593,-134.5 1537,-134.5"/>
<text text-anchor="middle" x="1565" y="-141.5" font-family="Helvetica,sans-Serif" font-size="10.00" fill="#000000">iomanip</text>
</g>
<!-- Node0&#45;&gt;Node16 -->
<g id="edge17" class="edge">
<title>Node0&#45;&gt;Node16</title>
<path fill="none" stroke="#191970" d="M1485.7128,-190.4992C1504.4597,-179.5049 1524.6154,-167.6842 1539.9135,-158.7124"/>
<polygon fill="#191970" stroke="#191970" points="1541.8996,-161.6052 1548.755,-153.5271 1538.3584,-155.5669 1541.8996,-161.6052"/>
</g>
<!-- Node17 -->
<g id="node18" class="node">
<title>Node17</title>
<polygon fill="none" stroke="#bfbfbf" points="1611.5,-134.5 1611.5,-153.5 1642.5,-153.5 1642.5,-134.5 1611.5,-134.5"/>
<text text-anchor="middle" x="1627" y="-141.5" font-family="Helvetica,sans-Serif" font-size="10.00" fill="#000000">ios</text>
</g>
<!-- Node0&#45;&gt;Node17 -->
<g id="edge18" class="edge">
<title>Node0&#45;&gt;Node17</title>
<path fill="none" stroke="#191970" d="M1510.7519,-190.4992C1543.3471,-177.4612 1578.8474,-163.2611 1601.9298,-154.0281"/>
<polygon fill="#191970" stroke="#191970" points="1603.3268,-157.239 1611.3117,-150.2753 1600.727,-150.7396 1603.3268,-157.239"/>
</g>
<!-- Node2 -->
<g id="node3" class="node">
<title>Node2</title>
<polygon fill="none" stroke="#bfbfbf" points="847,-67.5 847,-97.5 1011,-97.5 1011,-67.5 847,-67.5"/>
<text text-anchor="start" x="855" y="-85.5" font-family="Helvetica,sans-Serif" font-size="10.00" fill="#000000">Math/GenVector/Displacement</text>
<text text-anchor="middle" x="929" y="-74.5" font-family="Helvetica,sans-Serif" font-size="10.00" fill="#000000">Vector3D.h</text>
</g>
<!-- Node1&#45;&gt;Node2 -->
<g id="edge2" class="edge">
<title>Node1&#45;&gt;Node2</title>
<path fill="none" stroke="#191970" d="M807.5,-134.3906C827.9811,-125.6435 858.8197,-112.4728 884.3022,-101.5897"/>
<polygon fill="#191970" stroke="#191970" points="885.9519,-104.691 893.7736,-97.5446 883.2025,-98.2535 885.9519,-104.691"/>
</g>
<!-- Node3 -->
<g id="node4" class="node">
<title>Node3</title>
<polygon fill="none" stroke="#bfbfbf" points="1029.5,-73 1029.5,-92 1218.5,-92 1218.5,-73 1029.5,-73"/>
<text text-anchor="middle" x="1124" y="-80" font-family="Helvetica,sans-Serif" font-size="10.00" fill="#000000">Math/GenVector/PositionVector3D.h</text>
</g>
<!-- Node1&#45;&gt;Node3 -->
<g id="edge3" class="edge">
<title>Node1&#45;&gt;Node3</title>
<path fill="none" stroke="#191970" d="M837.5968,-134.4581C898.0584,-123.4894 997.2127,-105.5012 1061.5442,-93.8305"/>
<polygon fill="#191970" stroke="#191970" points="1062.3441,-97.2426 1071.5587,-92.0137 1061.0946,-90.355 1062.3441,-97.2426"/>
</g>
<!-- Node4 -->
<g id="node5" class="node">
<title>Node4</title>
<polygon fill="none" stroke="#bfbfbf" points="0,-73 0,-92 160,-92 160,-73 0,-73"/>
<text text-anchor="middle" x="80" y="-80" font-family="Helvetica,sans-Serif" font-size="10.00" fill="#000000">Math/GenVector/Rotation3D.h</text>
</g>
<!-- Node1&#45;&gt;Node4 -->
<g id="edge4" class="edge">
<title>Node1&#45;&gt;Node4</title>
<path fill="none" stroke="#191970" d="M717.3341,-141.1167C603.7033,-135.7896 367.4838,-122.6346 169,-98 159.5275,-96.8243 149.5289,-95.3316 139.7896,-93.7391"/>
<polygon fill="#191970" stroke="#191970" points="140.2093,-90.2606 129.7671,-92.0525 139.0476,-97.1635 140.2093,-90.2606"/>
</g>
<!-- Node5 -->
<g id="node6" class="node">
<title>Node5</title>
<polygon fill="none" stroke="#bfbfbf" points="178,-73 178,-92 346,-92 346,-73 178,-73"/>
<text text-anchor="middle" x="262" y="-80" font-family="Helvetica,sans-Serif" font-size="10.00" fill="#000000">Math/GenVector/Transform3D.h</text>
</g>
<!-- Node1&#45;&gt;Node5 -->
<g id="edge5" class="edge">
<title>Node1&#45;&gt;Node5</title>
<path fill="none" stroke="#191970" d="M717.449,-138.0076C632.6367,-130.2003 482.7595,-115.465 355,-98 345.6115,-96.7166 335.7133,-95.221 326.0162,-93.6748"/>
<polygon fill="#191970" stroke="#191970" points="326.4447,-90.1986 316.0133,-92.052 325.3237,-97.1083 326.4447,-90.1986"/>
</g>
<!-- Node6 -->
<g id="node7" class="node">
<title>Node6</title>
<polygon fill="none" stroke="#bfbfbf" points="364.5,-73 364.5,-92 537.5,-92 537.5,-73 364.5,-73"/>
<text text-anchor="middle" x="451" y="-80" font-family="Helvetica,sans-Serif" font-size="10.00" fill="#000000">Math/GenVector/Translation3D.h</text>
</g>
<!-- Node1&#45;&gt;Node6 -->
<g id="edge6" class="edge">
<title>Node1&#45;&gt;Node6</title>
<path fill="none" stroke="#191970" d="M733.179,-134.4581C673.6091,-123.4894 575.9173,-105.5012 512.5346,-93.8305"/>
<polygon fill="#191970" stroke="#191970" points="513.1363,-90.3825 502.6678,-92.0137 511.8686,-97.2668 513.1363,-90.3825"/>
</g>
<!-- Node7 -->
<g id="node8" class="node">
<title>Node7</title>
<polygon fill="none" stroke="#bfbfbf" points="1062.5,-6 1062.5,-25 1121.5,-25 1121.5,-6 1062.5,-6"/>
<text text-anchor="middle" x="1092" y="-13" font-family="Helvetica,sans-Serif" font-size="10.00" fill="#000000">Rtypes.h</text>
</g>
<!-- Node1&#45;&gt;Node7 -->
<g id="edge7" class="edge">
<title>Node1&#45;&gt;Node7</title>
<path fill="none" stroke="#191970" d="M788.7325,-134.4132C795.7178,-117.8217 812.4113,-83.9116 838,-67 872.686,-44.0759 989.6644,-27.4107 1052.0433,-19.9146"/>
<polygon fill="#191970" stroke="#191970" points="1052.7732,-23.3529 1062.2947,-18.7063 1051.9537,-16.401 1052.7732,-23.3529"/>
</g>
<!-- Node8 -->
<g id="node9" class="node">
<title>Node8</title>
<polygon fill="none" stroke="#bfbfbf" points="709,-73 709,-92 791,-92 791,-73 709,-73"/>
<text text-anchor="middle" x="750" y="-80" font-family="Helvetica,sans-Serif" font-size="10.00" fill="#000000">TGeoMatrix.h</text>
</g>
<!-- Node1&#45;&gt;Node8 -->
<g id="edge8" class="edge">
<title>Node1&#45;&gt;Node8</title>
<path fill="none" stroke="#191970" d="M779.5313,-134.3906C774.4754,-125.5068 766.8228,-112.0601 760.5746,-101.0811"/>
<polygon fill="#191970" stroke="#191970" points="763.534,-99.2048 755.5459,-92.2449 757.4502,-102.6672 763.534,-99.2048"/>
</g>
<!-- Node1&#45;&gt;Node9 -->
<g id="edge9" class="edge">
<title>Node1&#45;&gt;Node9</title>
<path fill="none" stroke="#191970" d="M852.854,-139.7417C958.9708,-132.6123 1159.185,-117.1407 1228,-98 1229.9209,-97.4657 1231.8688,-96.8282 1233.8078,-96.121"/>
<polygon fill="#191970" stroke="#191970" points="1235.3936,-99.2515 1243.2644,-92.1592 1232.6886,-92.7952 1235.3936,-99.2515"/>
</g>
<!-- Node10 -->
<g id="node11" class="node">
<title>Node10</title>
<g id="a_node11"><a xlink:href="../../d2/dd0/Cartesian2D_8h.html" target="_top" xlink:title="MathUtils/Cartesian2D.h">
<polygon fill="none" stroke="#000000" points="555.5,-73 555.5,-92 690.5,-92 690.5,-73 555.5,-73"/>
<text text-anchor="middle" x="623" y="-80" font-family="Helvetica,sans-Serif" font-size="10.00" fill="#000000">MathUtils/Cartesian2D.h</text>
</a>
</g>
</g>
<!-- Node1&#45;&gt;Node10 -->
<g id="edge10" class="edge">
<title>Node1&#45;&gt;Node10</title>
<path fill="none" stroke="#191970" d="M759.6875,-134.3906C732.2253,-123.9652 688.2105,-107.2559 657.5737,-95.6252"/>
<polygon fill="#191970" stroke="#191970" points="658.726,-92.319 648.1348,-92.0419 656.2415,-98.8633 658.726,-92.319"/>
</g>
<!-- Node11 -->
<g id="node12" class="node">
<title>Node11</title>
<polygon fill="none" stroke="#bfbfbf" points="373,-.5 373,-30.5 537,-30.5 537,-.5 373,-.5"/>
<text text-anchor="start" x="381" y="-18.5" font-family="Helvetica,sans-Serif" font-size="10.00" fill="#000000">Math/GenVector/Displacement</text>
<text text-anchor="middle" x="455" y="-7.5" font-family="Helvetica,sans-Serif" font-size="10.00" fill="#000000">Vector2D.h</text>
</g>
<!-- Node10&#45;&gt;Node11 -->
<g id="edge11" class="edge">
<title>Node10&#45;&gt;Node11</title>
<path fill="none" stroke="#191970" d="M598.9297,-72.9005C573.7693,-62.8663 533.6409,-46.8627 502.1397,-34.2997"/>
<polygon fill="#191970" stroke="#191970" points="503.2516,-30.9752 492.6665,-30.5218 500.6585,-37.4772 503.2516,-30.9752"/>
</g>
<!-- Node12 -->
<g id="node13" class="node">
<title>Node12</title>
<polygon fill="none" stroke="#bfbfbf" points="555.5,-6 555.5,-25 744.5,-25 744.5,-6 555.5,-6"/>
<text text-anchor="middle" x="650" y="-13" font-family="Helvetica,sans-Serif" font-size="10.00" fill="#000000">Math/GenVector/PositionVector2D.h</text>
</g>
<!-- Node10&#45;&gt;Node12 -->
<g id="edge12" class="edge">
<title>Node10&#45;&gt;Node12</title>
<path fill="none" stroke="#191970" d="M626.8684,-72.9005C630.8784,-62.95 637.2539,-47.1292 642.297,-34.6147"/>
<polygon fill="#191970" stroke="#191970" points="645.6472,-35.6651 646.1387,-25.0817 639.1546,-33.0486 645.6472,-35.6651"/>
</g>
<!-- Node14 -->
<g id="node15" class="node">
<title>Node14</title>
<g id="a_node15"><a xlink:href="../../d2/d45/GPUCommonRtypes_8h.html" target="_top" xlink:title="GPUCommonRtypes.h">
<polygon fill="none" stroke="#000000" points="1303.5,-73 1303.5,-92 1428.5,-92 1428.5,-73 1303.5,-73"/>
<text text-anchor="middle" x="1366" y="-80" font-family="Helvetica,sans-Serif" font-size="10.00" fill="#000000">GPUCommonRtypes.h</text>
</a>
</g>
</g>
<!-- Node13&#45;&gt;Node14 -->
<g id="edge14" class="edge">
<title>Node13&#45;&gt;Node14</title>
<path fill="none" stroke="#191970" d="M1366,-134.3906C1366,-125.8657 1366,-113.1392 1366,-102.4235"/>
<polygon fill="#191970" stroke="#191970" points="1369.5001,-102.2448 1366,-92.2449 1362.5001,-102.2449 1369.5001,-102.2448"/>
</g>
<!-- Node14&#45;&gt;Node7 -->
<g id="edge15" class="edge">
<title>Node14&#45;&gt;Node7</title>
<path fill="none" stroke="#191970" d="M1327.0335,-72.9717C1275.0911,-60.2705 1183.6667,-37.9148 1131.4704,-25.1515"/>
<polygon fill="#191970" stroke="#191970" points="1132.1227,-21.708 1121.5775,-22.7325 1130.46,-28.5076 1132.1227,-21.708"/>
</g>
</g>
</svg>
        <g id="navigator" transform="translate(0 0)" fill="#404254">
                <rect fill="#f2f5e9" fill-opacity="0.5" stroke="#606060" stroke-width=".5" x="0" y="0" width="60" height="60"/>
                <use id="zoomplus" xlink:href="#zoomPlus" x="17" y="9" onmousedown="handleZoom(evt,'in')"/>
                <use id="zoomminus" xlink:href="#zoomMin" x="42" y="9" onmousedown="handleZoom(evt,'out')"/>
                <use id="reset" xlink:href="#resetDef" x="30" y="36" onmousedown="handleReset()"/>
                <g id="arrowUp" xlink:href="#dirArrow" transform="translate(30 24)" onmousedown="handlePan(0,-1)">
                  <use xlink:href="#rim" fill="#404040">
                        <set attributeName="fill" to="#808080" begin="arrowUp.mouseover" end="arrowUp.mouseout"/>
                  </use>
                  <path fill="none" stroke="white" stroke-width="1.5" d="M0,-3.0v7 M-2.5,-0.5L0,-3.0L2.5,-0.5"/>
                </g>
                <g id="arrowRight" xlink:href="#dirArrow" transform="rotate(90) translate(36 -43)" onmousedown="handlePan(1,0)">
                  <use xlink:href="#rim" fill="#404040">
                        <set attributeName="fill" to="#808080" begin="arrowRight.mouseover" end="arrowRight.mouseout"/>
                  </use>
                  <path fill="none" stroke="white" stroke-width="1.5" d="M0,-3.0v7 M-2.5,-0.5L0,-3.0L2.5,-0.5"/>
                </g>
                <g id="arrowDown" xlink:href="#dirArrow" transform="rotate(180) translate(-30 -48)" onmousedown="handlePan(0,1)">
                  <use xlink:href="#rim" fill="#404040">
                        <set attributeName="fill" to="#808080" begin="arrowDown.mouseover" end="arrowDown.mouseout"/>
                  </use>
                  <path fill="none" stroke="white" stroke-width="1.5" d="M0,-3.0v7 M-2.5,-0.5L0,-3.0L2.5,-0.5"/>
                </g>
                <g id="arrowLeft" xlink:href="#dirArrow" transform="rotate(270) translate(-36 17)" onmousedown="handlePan(-1,0)">
                  <use xlink:href="#rim" fill="#404040">
                        <set attributeName="fill" to="#808080" begin="arrowLeft.mouseover" end="arrowLeft.mouseout"/>
                  </use>
                  <path fill="none" stroke="white" stroke-width="1.5" d="M0,-3.0v7 M-2.5,-0.5L0,-3.0L2.5,-0.5"/>
                </g>
        </g>
        <svg viewBox="0 0 15 15" width="100%" height="30px" preserveAspectRatio="xMaxYMin meet">
         <g id="arrow_out" transform="scale(0.3 0.3)">
          <a xlink:href="DataFormats_2Reconstruction_2include_2ReconstructionDataFormats_2Vertex_8h__incl_org.svg" target="_base">
           <rect id="button" ry="5" rx="5" y="6" x="6" height="38" width="38"
                fill="#f2f5e9" fill-opacity="0.5" stroke="#606060" stroke-width="1.0"/>
           <path id="arrow"
             d="M 11.500037,31.436501 C 11.940474,20.09759 22.043105,11.32322 32.158766,21.979434 L 37.068811,17.246167 C 37.068811,17.246167 37.088388,32 37.088388,32 L 22.160133,31.978069 C 22.160133,31.978069 26.997745,27.140456 26.997745,27.140456 C 18.528582,18.264221 13.291696,25.230495 11.500037,31.436501 z"
             style="fill:#404040;"/>
          </a>
         </g>
        </svg>
</svg>
