<?xml version="1.0" encoding="UTF-8" standalone="no"?>
<!DOCTYPE svg PUBLIC "-//W3C//DTD SVG 1.1//EN"
 "http://www.w3.org/Graphics/SVG/1.1/DTD/svg11.dtd">
<!-- Generated by graphviz version 2.40.1 (20161225.0304)
 -->
<!-- Title: /home/travis/build/AliceO2Group/AliceO2/Detectors/MUON/MID/Clustering/src/PreClusterizer.cxx Pages: 1 -->
<svg width="1062pt" height="296pt"
 viewBox="0.00 0.00 1062.00 296.00" xmlns="http://www.w3.org/2000/svg" xmlns:xlink="http://www.w3.org/1999/xlink">
<g id="graph0" class="graph" transform="scale(1 1) rotate(0) translate(4 292)">
<title>/home/travis/build/AliceO2Group/AliceO2/Detectors/MUON/MID/Clustering/src/PreClusterizer.cxx</title>
<!-- Node0 -->
<g id="node1" class="node">
<title>Node0</title>
<polygon fill="#bfbfbf" stroke="#000000" points="309,-235.5 309,-287.5 484,-287.5 484,-235.5 309,-235.5"/>
<text text-anchor="start" x="317" y="-275.5" font-family="Helvetica,sans-Serif" font-size="10.00" fill="#000000">/home/travis/build</text>
<text text-anchor="start" x="317" y="-264.5" font-family="Helvetica,sans-Serif" font-size="10.00" fill="#000000">/AliceO2Group/AliceO2</text>
<text text-anchor="start" x="317" y="-253.5" font-family="Helvetica,sans-Serif" font-size="10.00" fill="#000000">/Detectors/MUON/MID/Clustering</text>
<text text-anchor="middle" x="396.5" y="-242.5" font-family="Helvetica,sans-Serif" font-size="10.00" fill="#000000">/src/PreClusterizer.cxx</text>
</g>
<!-- Node1 -->
<g id="node2" class="node">
<title>Node1</title>
<g id="a_node2"><a xlink:href="../../d7/d1a/PreClusterizer_8h.html" target="_top" xlink:title="Pre&#45;cluster reconstruction algorithm for MID. ">
<polygon fill="none" stroke="#000000" points="314.5,-179.5 314.5,-198.5 478.5,-198.5 478.5,-179.5 314.5,-179.5"/>
<text text-anchor="middle" x="396.5" y="-186.5" font-family="Helvetica,sans-Serif" font-size="10.00" fill="#000000">MIDClustering/PreClusterizer.h</text>
</a>
</g>
</g>
<!-- Node0&#45;&gt;Node1 -->
<g id="edge1" class="edge">
<title>Node0&#45;&gt;Node1</title>
<path fill="none" stroke="#191970" d="M396.5,-235.3258C396.5,-226.5142 396.5,-216.8397 396.5,-208.621"/>
<polygon fill="#191970" stroke="#191970" points="400.0001,-208.534 396.5,-198.534 393.0001,-208.534 400.0001,-208.534"/>
</g>
<!-- Node19 -->
<g id="node20" class="node">
<title>Node19</title>
<polygon fill="none" stroke="#bfbfbf" points="496.5,-179.5 496.5,-198.5 548.5,-198.5 548.5,-179.5 496.5,-179.5"/>
<text text-anchor="middle" x="522.5" y="-186.5" font-family="Helvetica,sans-Serif" font-size="10.00" fill="#000000">cassert</text>
</g>
<!-- Node0&#45;&gt;Node19 -->
<g id="edge24" class="edge">
<title>Node0&#45;&gt;Node19</title>
<path fill="none" stroke="#191970" d="M441.9889,-235.3258C460.6094,-224.6116 481.4469,-212.6218 497.2573,-203.5246"/>
<polygon fill="#191970" stroke="#191970" points="499.0085,-206.555 505.9306,-198.534 495.5174,-200.4877 499.0085,-206.555"/>
</g>
<!-- Node20 -->
<g id="node21" class="node">
<title>Node20</title>
<g id="a_node21"><a xlink:href="../../dc/de4/DetectorParameters_8h.html" target="_top" xlink:title="Useful detector parameters for MID. ">
<polygon fill="none" stroke="#000000" points="0,-179.5 0,-198.5 169,-198.5 169,-179.5 0,-179.5"/>
<text text-anchor="middle" x="84.5" y="-186.5" font-family="Helvetica,sans-Serif" font-size="10.00" fill="#000000">MIDBase/DetectorParameters.h</text>
</a>
</g>
</g>
<!-- Node0&#45;&gt;Node20 -->
<g id="edge25" class="edge">
<title>Node0&#45;&gt;Node20</title>
<path fill="none" stroke="#191970" d="M308.7603,-241.1118C252.844,-228.1184 182.3529,-211.7383 135.4794,-200.8462"/>
<polygon fill="#191970" stroke="#191970" points="136.0906,-197.395 125.5579,-198.5407 134.5062,-204.2134 136.0906,-197.395"/>
</g>
<!-- Node2 -->
<g id="node3" class="node">
<title>Node2</title>
<polygon fill="none" stroke="#bfbfbf" points="256,-123.5 256,-142.5 349,-142.5 349,-123.5 256,-123.5"/>
<text text-anchor="middle" x="302.5" y="-130.5" font-family="Helvetica,sans-Serif" font-size="10.00" fill="#000000">unordered_map</text>
</g>
<!-- Node1&#45;&gt;Node2 -->
<g id="edge2" class="edge">
<title>Node1&#45;&gt;Node2</title>
<path fill="none" stroke="#191970" d="M380.1264,-179.2455C365.5692,-170.5731 344.069,-157.7645 327.3848,-147.825"/>
<polygon fill="#191970" stroke="#191970" points="329.0683,-144.7539 318.6859,-142.6427 325.4856,-150.7676 329.0683,-144.7539"/>
</g>
<!-- Node3 -->
<g id="node4" class="node">
<title>Node3</title>
<polygon fill="none" stroke="#bfbfbf" points="260,-62 260,-81 307,-81 307,-62 260,-62"/>
<text text-anchor="middle" x="283.5" y="-69" font-family="Helvetica,sans-Serif" font-size="10.00" fill="#000000">vector</text>
</g>
<!-- Node1&#45;&gt;Node3 -->
<g id="edge3" class="edge">
<title>Node1&#45;&gt;Node3</title>
<path fill="none" stroke="#191970" d="M392.3336,-179.1879C386.1769,-165.4885 373.6181,-140.3623 357.5,-123 343.919,-108.3707 325.5045,-95.5362 310.4428,-86.3389"/>
<polygon fill="#191970" stroke="#191970" points="311.9614,-83.171 301.5712,-81.0988 308.4014,-89.1981 311.9614,-83.171"/>
</g>
<!-- Node4 -->
<g id="node5" class="node">
<title>Node4</title>
<polygon fill="none" stroke="#bfbfbf" points="443.5,-123.5 443.5,-142.5 491.5,-142.5 491.5,-123.5 443.5,-123.5"/>
<text text-anchor="middle" x="467.5" y="-130.5" font-family="Helvetica,sans-Serif" font-size="10.00" fill="#000000">gsl/gsl</text>
</g>
<!-- Node1&#45;&gt;Node4 -->
<g id="edge4" class="edge">
<title>Node1&#45;&gt;Node4</title>
<path fill="none" stroke="#191970" d="M408.8673,-179.2455C419.4554,-170.8943 434.9064,-158.7076 447.2893,-148.9408"/>
<polygon fill="#191970" stroke="#191970" points="449.5903,-151.5837 455.2745,-142.6427 445.2553,-146.0875 449.5903,-151.5837"/>
</g>
<!-- Node5 -->
<g id="node6" class="node">
<title>Node5</title>
<g id="a_node6"><a xlink:href="../../d4/d73/MID_2Base_2include_2MIDBase_2Mapping_8h.html" target="_top" xlink:title="Mapping for MID. ">
<polygon fill="none" stroke="#000000" points="125,-123.5 125,-142.5 238,-142.5 238,-123.5 125,-123.5"/>
<text text-anchor="middle" x="181.5" y="-130.5" font-family="Helvetica,sans-Serif" font-size="10.00" fill="#000000">MIDBase/Mapping.h</text>
</a>
</g>
</g>
<!-- Node1&#45;&gt;Node5 -->
<g id="edge5" class="edge">
<title>Node1&#45;&gt;Node5</title>
<path fill="none" stroke="#191970" d="M359.5402,-179.3733C323.0925,-169.8799 267.2754,-155.3415 227.8711,-145.0781"/>
<polygon fill="#191970" stroke="#191970" points="228.5369,-141.6348 217.9775,-142.5011 226.7724,-148.4087 228.5369,-141.6348"/>
</g>
<!-- Node8 -->
<g id="node9" class="node">
<title>Node8</title>
<g id="a_node9"><a xlink:href="../../d3/d53/ColumnData_8h.html" target="_top" xlink:title="Strip pattern (aka digits) ">
<polygon fill="none" stroke="#000000" points="330,-62 330,-81 501,-81 501,-62 330,-62"/>
<text text-anchor="middle" x="415.5" y="-69" font-family="Helvetica,sans-Serif" font-size="10.00" fill="#000000">DataFormatsMID/ColumnData.h</text>
</a>
</g>
</g>
<!-- Node1&#45;&gt;Node8 -->
<g id="edge10" class="edge">
<title>Node1&#45;&gt;Node8</title>
<path fill="none" stroke="#191970" d="M398.0548,-179.3845C401.1584,-160.1913 408.1772,-116.786 412.3037,-91.2663"/>
<polygon fill="#191970" stroke="#191970" points="415.7824,-91.6789 413.9237,-81.2484 408.8722,-90.5614 415.7824,-91.6789"/>
</g>
<!-- Node11 -->
<g id="node12" class="node">
<title>Node11</title>
<g id="a_node12"><a xlink:href="../../d2/df9/MUON_2MID_2include_2DataFormatsMID_2ROFRecord_8h.html" target="_top" xlink:title="Definition of the MID event record. ">
<polygon fill="none" stroke="#000000" points="674,-123.5 674,-142.5 837,-142.5 837,-123.5 674,-123.5"/>
<text text-anchor="middle" x="755.5" y="-130.5" font-family="Helvetica,sans-Serif" font-size="10.00" fill="#000000">DataFormatsMID/ROFRecord.h</text>
</a>
</g>
</g>
<!-- Node1&#45;&gt;Node11 -->
<g id="edge14" class="edge">
<title>Node1&#45;&gt;Node11</title>
<path fill="none" stroke="#191970" d="M457.8064,-179.4369C520.6663,-169.6314 618.3383,-154.3957 684.5132,-144.0731"/>
<polygon fill="#191970" stroke="#191970" points="685.1054,-147.5232 694.4465,-142.5237 684.0265,-140.6068 685.1054,-147.5232"/>
</g>
<!-- Node17 -->
<g id="node18" class="node">
<title>Node17</title>
<g id="a_node18"><a xlink:href="../../db/dfb/PreCluster_8h.html" target="_top" xlink:title="Pre&#45;cluster structure for MID. ">
<polygon fill="none" stroke="#000000" points="509.5,-123.5 509.5,-142.5 655.5,-142.5 655.5,-123.5 509.5,-123.5"/>
<text text-anchor="middle" x="582.5" y="-130.5" font-family="Helvetica,sans-Serif" font-size="10.00" fill="#000000">MIDClustering/PreCluster.h</text>
</a>
</g>
</g>
<!-- Node1&#45;&gt;Node17 -->
<g id="edge21" class="edge">
<title>Node1&#45;&gt;Node17</title>
<path fill="none" stroke="#191970" d="M428.4745,-179.3733C459.6713,-169.9807 507.271,-155.6496 541.2932,-145.4064"/>
<polygon fill="#191970" stroke="#191970" points="542.3763,-148.7355 550.9427,-142.5011 540.3582,-142.0327 542.3763,-148.7355"/>
</g>
<!-- Node5&#45;&gt;Node3 -->
<g id="edge7" class="edge">
<title>Node5&#45;&gt;Node3</title>
<path fill="none" stroke="#191970" d="M197.4375,-123.3906C213.9051,-113.4616 239.8258,-97.833 258.9204,-86.3201"/>
<polygon fill="#191970" stroke="#191970" points="260.9178,-89.2027 267.6744,-81.0419 257.3034,-83.2081 260.9178,-89.2027"/>
</g>
<!-- Node6 -->
<g id="node7" class="node">
<title>Node6</title>
<polygon fill="none" stroke="#bfbfbf" points="122.5,-.5 122.5,-19.5 164.5,-19.5 164.5,-.5 122.5,-.5"/>
<text text-anchor="middle" x="143.5" y="-7.5" font-family="Helvetica,sans-Serif" font-size="10.00" fill="#000000">array</text>
</g>
<!-- Node5&#45;&gt;Node6 -->
<g id="edge6" class="edge">
<title>Node5&#45;&gt;Node6</title>
<path fill="none" stroke="#191970" d="M160.7148,-123.3756C146.813,-115.6917 129.6309,-103.4793 121.5,-87 112.1773,-68.1052 121.602,-44.5972 130.8449,-28.5593"/>
<polygon fill="#191970" stroke="#191970" points="134.0819,-29.9834 136.4073,-19.6469 128.1435,-26.2771 134.0819,-29.9834"/>
</g>
<!-- Node7 -->
<g id="node8" class="node">
<title>Node7</title>
<g id="a_node8"><a xlink:href="../../d7/d0a/MpArea_8h.html" target="_top" xlink:title="Mapping area for MID. ">
<polygon fill="none" stroke="#000000" points="130.5,-62 130.5,-81 238.5,-81 238.5,-62 130.5,-62"/>
<text text-anchor="middle" x="184.5" y="-69" font-family="Helvetica,sans-Serif" font-size="10.00" fill="#000000">MIDBase/MpArea.h</text>
</a>
</g>
</g>
<!-- Node5&#45;&gt;Node7 -->
<g id="edge8" class="edge">
<title>Node5&#45;&gt;Node7</title>
<path fill="none" stroke="#191970" d="M181.9688,-123.3906C182.3846,-114.8657 183.0054,-102.1392 183.5281,-91.4235"/>
<polygon fill="#191970" stroke="#191970" points="187.0332,-91.4035 184.0246,-81.2449 180.0415,-91.0624 187.0332,-91.4035"/>
</g>
<!-- Node7&#45;&gt;Node6 -->
<g id="edge9" class="edge">
<title>Node7&#45;&gt;Node6</title>
<path fill="none" stroke="#191970" d="M178.0938,-61.8906C172.1114,-52.917 163.0253,-39.2879 155.6661,-28.2491"/>
<polygon fill="#191970" stroke="#191970" points="158.4558,-26.1239 149.9966,-19.7449 152.6314,-30.0068 158.4558,-26.1239"/>
</g>
<!-- Node8&#45;&gt;Node6 -->
<g id="edge13" class="edge">
<title>Node8&#45;&gt;Node6</title>
<path fill="none" stroke="#191970" d="M373.2984,-61.9581C318.3864,-49.5423 223.697,-28.1328 174.7773,-17.0719"/>
<polygon fill="#191970" stroke="#191970" points="175.3075,-13.6035 164.7818,-14.8119 173.7637,-20.4311 175.3075,-13.6035"/>
</g>
<!-- Node9 -->
<g id="node10" class="node">
<title>Node9</title>
<polygon fill="none" stroke="#bfbfbf" points="581.5,-.5 581.5,-19.5 631.5,-19.5 631.5,-.5 581.5,-.5"/>
<text text-anchor="middle" x="606.5" y="-7.5" font-family="Helvetica,sans-Serif" font-size="10.00" fill="#000000">cstdint</text>
</g>
<!-- Node8&#45;&gt;Node9 -->
<g id="edge11" class="edge">
<title>Node8&#45;&gt;Node9</title>
<path fill="none" stroke="#191970" d="M445.3438,-61.8906C479.5811,-50.8666 535.6394,-32.8164 571.7963,-21.1742"/>
<polygon fill="#191970" stroke="#191970" points="572.986,-24.4682 581.432,-18.0716 570.8405,-17.8051 572.986,-24.4682"/>
</g>
<!-- Node10 -->
<g id="node11" class="node">
<title>Node10</title>
<polygon fill="none" stroke="#bfbfbf" points="385.5,-.5 385.5,-19.5 445.5,-19.5 445.5,-.5 385.5,-.5"/>
<text text-anchor="middle" x="415.5" y="-7.5" font-family="Helvetica,sans-Serif" font-size="10.00" fill="#000000">iostream</text>
</g>
<!-- Node8&#45;&gt;Node10 -->
<g id="edge12" class="edge">
<title>Node8&#45;&gt;Node10</title>
<path fill="none" stroke="#191970" d="M415.5,-61.8906C415.5,-53.3657 415.5,-40.6392 415.5,-29.9235"/>
<polygon fill="#191970" stroke="#191970" points="419.0001,-29.7448 415.5,-19.7449 412.0001,-29.7449 419.0001,-29.7448"/>
</g>
<!-- Node12 -->
<g id="node13" class="node">
<title>Node12</title>
<g id="a_node13"><a xlink:href="../../d9/d80/InteractionRecord_8h.html" target="_top" xlink:title="CommonDataFormat/Interaction\lRecord.h">
<polygon fill="none" stroke="#000000" points="660.5,-56.5 660.5,-86.5 834.5,-86.5 834.5,-56.5 660.5,-56.5"/>
<text text-anchor="start" x="668.5" y="-74.5" font-family="Helvetica,sans-Serif" font-size="10.00" fill="#000000">CommonDataFormat/Interaction</text>
<text text-anchor="middle" x="747.5" y="-63.5" font-family="Helvetica,sans-Serif" font-size="10.00" fill="#000000">Record.h</text>
</a>
</g>
</g>
<!-- Node11&#45;&gt;Node12 -->
<g id="edge15" class="edge">
<title>Node11&#45;&gt;Node12</title>
<path fill="none" stroke="#191970" d="M754.25,-123.3906C753.3177,-116.2234 751.999,-106.0862 750.7743,-96.671"/>
<polygon fill="#191970" stroke="#191970" points="754.2178,-96.0095 749.457,-86.5446 747.2763,-96.9126 754.2178,-96.0095"/>
</g>
<!-- Node12&#45;&gt;Node9 -->
<g id="edge19" class="edge">
<title>Node12&#45;&gt;Node9</title>
<path fill="none" stroke="#191970" d="M713.0075,-56.4554C689.9972,-46.419 659.9914,-33.3314 637.6945,-23.6061"/>
<polygon fill="#191970" stroke="#191970" points="638.9154,-20.3202 628.35,-19.5303 636.1167,-26.7364 638.9154,-20.3202"/>
</g>
<!-- Node13 -->
<g id="node14" class="node">
<title>Node13</title>
<polygon fill="none" stroke="#bfbfbf" points="995,-.5 995,-19.5 1054,-19.5 1054,-.5 995,-.5"/>
<text text-anchor="middle" x="1024.5" y="-7.5" font-family="Helvetica,sans-Serif" font-size="10.00" fill="#000000">Rtypes.h</text>
</g>
<!-- Node12&#45;&gt;Node13 -->
<g id="edge16" class="edge">
<title>Node12&#45;&gt;Node13</title>
<path fill="none" stroke="#191970" d="M820.3123,-56.491C865.1138,-47.0814 923.9326,-34.4167 984.9143,-20.0759"/>
<polygon fill="#191970" stroke="#191970" points="985.7906,-23.4653 994.7182,-17.7601 984.1814,-16.6528 985.7906,-23.4653"/>
</g>
<!-- Node14 -->
<g id="node15" class="node">
<title>Node14</title>
<polygon fill="none" stroke="#bfbfbf" points="654,-.5 654,-19.5 703,-19.5 703,-.5 654,-.5"/>
<text text-anchor="middle" x="678.5" y="-7.5" font-family="Helvetica,sans-Serif" font-size="10.00" fill="#000000">iosfwd</text>
</g>
<!-- Node12&#45;&gt;Node14 -->
<g id="edge17" class="edge">
<title>Node12&#45;&gt;Node14</title>
<path fill="none" stroke="#191970" d="M730.4438,-56.2977C720.3671,-47.3163 707.596,-35.9334 697.2389,-26.702"/>
<polygon fill="#191970" stroke="#191970" points="699.3417,-23.8879 689.5478,-19.8469 694.6841,-29.1135 699.3417,-23.8879"/>
</g>
<!-- Node15 -->
<g id="node16" class="node">
<title>Node15</title>
<polygon fill="none" stroke="#bfbfbf" points="721,-.5 721,-19.5 768,-19.5 768,-.5 721,-.5"/>
<text text-anchor="middle" x="744.5" y="-7.5" font-family="Helvetica,sans-Serif" font-size="10.00" fill="#000000">cmath</text>
</g>
<!-- Node12&#45;&gt;Node15 -->
<g id="edge18" class="edge">
<title>Node12&#45;&gt;Node15</title>
<path fill="none" stroke="#191970" d="M746.7584,-56.2977C746.3724,-48.3834 745.8953,-38.6043 745.4793,-30.0759"/>
<polygon fill="#191970" stroke="#191970" points="748.9635,-29.6645 744.9803,-19.8469 741.9718,-30.0056 748.9635,-29.6645"/>
</g>
<!-- Node16 -->
<g id="node17" class="node">
<title>Node16</title>
<g id="a_node17"><a xlink:href="../../d4/dc6/LHCConstants_8h.html" target="_top" xlink:title="Header to collect LHC related constants. ">
<polygon fill="none" stroke="#000000" points="786.5,-.5 786.5,-19.5 976.5,-19.5 976.5,-.5 786.5,-.5"/>
<text text-anchor="middle" x="881.5" y="-7.5" font-family="Helvetica,sans-Serif" font-size="10.00" fill="#000000">CommonConstants/LHCConstants.h</text>
</a>
</g>
</g>
<!-- Node12&#45;&gt;Node16 -->
<g id="edge20" class="edge">
<title>Node12&#45;&gt;Node16</title>
<path fill="none" stroke="#191970" d="M780.2801,-56.4554C802.05,-46.464 830.4086,-33.4487 851.5686,-23.7372"/>
<polygon fill="#191970" stroke="#191970" points="853.1062,-26.8826 860.7348,-19.5303 850.1863,-20.5206 853.1062,-26.8826"/>
</g>
<!-- Node17&#45;&gt;Node9 -->
<g id="edge22" class="edge">
<title>Node17&#45;&gt;Node9</title>
<path fill="none" stroke="#191970" d="M584.3832,-123.3484C588.3089,-103.2295 597.4345,-56.4608 602.6542,-29.7098"/>
<polygon fill="#191970" stroke="#191970" points="606.1455,-30.092 604.6255,-19.6068 599.2751,-28.7514 606.1455,-30.092"/>
</g>
<!-- Node18 -->
<g id="node19" class="node">
<title>Node18</title>
<polygon fill="none" stroke="#bfbfbf" points="521,-62 521,-81 578,-81 578,-62 521,-62"/>
<text text-anchor="middle" x="549.5" y="-69" font-family="Helvetica,sans-Serif" font-size="10.00" fill="#000000">ostream</text>
</g>
<!-- Node17&#45;&gt;Node18 -->
<g id="edge23" class="edge">
<title>Node17&#45;&gt;Node18</title>
<path fill="none" stroke="#191970" d="M577.3438,-123.3906C572.5768,-114.5068 565.3615,-101.0601 559.4703,-90.0811"/>
<polygon fill="#191970" stroke="#191970" points="562.5412,-88.4016 554.7289,-81.2449 556.3731,-91.7114 562.5412,-88.4016"/>
</g>
<!-- Node20&#45;&gt;Node6 -->
<g id="edge26" class="edge">
<title>Node20&#45;&gt;Node6</title>
<path fill="none" stroke="#191970" d="M74.7585,-179.4235C63.1647,-166.8111 46.2313,-143.7934 53.5,-123 67.4433,-83.1128 102.0141,-46.7846 124.023,-26.6064"/>
<polygon fill="#191970" stroke="#191970" points="126.6429,-28.9595 131.7738,-19.69 121.9822,-23.7366 126.6429,-28.9595"/>
</g>
<!-- Node21 -->
<g id="node22" class="node">
<title>Node21</title>
<polygon fill="none" stroke="#bfbfbf" points="62.5,-123.5 62.5,-142.5 106.5,-142.5 106.5,-123.5 62.5,-123.5"/>
<text text-anchor="middle" x="84.5" y="-130.5" font-family="Helvetica,sans-Serif" font-size="10.00" fill="#000000">string</text>
</g>
<!-- Node20&#45;&gt;Node21 -->
<g id="edge27" class="edge">
<title>Node20&#45;&gt;Node21</title>
<path fill="none" stroke="#191970" d="M84.5,-179.2455C84.5,-171.9382 84.5,-161.6944 84.5,-152.7046"/>
<polygon fill="#191970" stroke="#191970" points="88.0001,-152.6426 84.5,-142.6427 81.0001,-152.6427 88.0001,-152.6426"/>
</g>
</g>
</svg>
