<?xml version="1.0" encoding="UTF-8" standalone="no"?>
<!DOCTYPE svg PUBLIC "-//W3C//DTD SVG 1.1//EN"
 "http://www.w3.org/Graphics/SVG/1.1/DTD/svg11.dtd">
<!-- Generated by graphviz version 2.40.1 (20161225.0304)
 -->
<!-- Title: /home/travis/build/AliceO2Group/AliceO2/Framework/Core/include/Framework/TimesliceIndex.h Pages: 1 -->
<svg width="982pt" height="328pt"
 viewBox="0.00 0.00 982.00 328.00" xmlns="http://www.w3.org/2000/svg" xmlns:xlink="http://www.w3.org/1999/xlink">
<g id="graph0" class="graph" transform="scale(1 1) rotate(0) translate(4 324)">
<title>/home/travis/build/AliceO2Group/AliceO2/Framework/Core/include/Framework/TimesliceIndex.h</title>
<!-- Node36 -->
<g id="node1" class="node">
<title>Node36</title>
<polygon fill="#bfbfbf" stroke="#000000" points="507.5,-267.5 507.5,-319.5 667.5,-319.5 667.5,-267.5 507.5,-267.5"/>
<text text-anchor="start" x="515.5" y="-307.5" font-family="Helvetica,sans-Serif" font-size="10.00" fill="#000000">/home/travis/build</text>
<text text-anchor="start" x="515.5" y="-296.5" font-family="Helvetica,sans-Serif" font-size="10.00" fill="#000000">/AliceO2Group/AliceO2</text>
<text text-anchor="start" x="515.5" y="-285.5" font-family="Helvetica,sans-Serif" font-size="10.00" fill="#000000">/Framework/Core/include</text>
<text text-anchor="middle" x="587.5" y="-274.5" font-family="Helvetica,sans-Serif" font-size="10.00" fill="#000000">/Framework/TimesliceIndex.h</text>
</g>
<!-- Node37 -->
<g id="node2" class="node">
<title>Node37</title>
<g id="a_node2"><a xlink:href="../../df/d59/DataRelayer_8h.html" target="_top" xlink:title="/home/travis/build\l/AliceO2Group/AliceO2\l/Framework/Core/include\l/Framework/DataRelayer.h">
<polygon fill="none" stroke="#000000" points="344,-178.5 344,-230.5 489,-230.5 489,-178.5 344,-178.5"/>
<text text-anchor="start" x="352" y="-218.5" font-family="Helvetica,sans-Serif" font-size="10.00" fill="#000000">/home/travis/build</text>
<text text-anchor="start" x="352" y="-207.5" font-family="Helvetica,sans-Serif" font-size="10.00" fill="#000000">/AliceO2Group/AliceO2</text>
<text text-anchor="start" x="352" y="-196.5" font-family="Helvetica,sans-Serif" font-size="10.00" fill="#000000">/Framework/Core/include</text>
<text text-anchor="middle" x="416.5" y="-185.5" font-family="Helvetica,sans-Serif" font-size="10.00" fill="#000000">/Framework/DataRelayer.h</text>
</a>
</g>
</g>
<!-- Node36&#45;&gt;Node37 -->
<g id="edge1" class="edge">
<title>Node36&#45;&gt;Node37</title>
<path fill="none" stroke="#191970" d="M528.0627,-262.5648C507.9873,-252.1162 485.7923,-240.5644 466.5207,-230.5341"/>
<polygon fill="#191970" stroke="#191970" points="526.6329,-265.7663 537.1192,-267.2784 529.8647,-259.5569 526.6329,-265.7663"/>
</g>
<!-- Node41 -->
<g id="node6" class="node">
<title>Node41</title>
<g id="a_node6"><a xlink:href="../../d1/d57/DataRelayer_8cxx.html" target="_top" xlink:title="/home/travis/build\l/AliceO2Group/AliceO2\l/Framework/Core/src/DataRelayer.cxx">
<polygon fill="none" stroke="#000000" points="0,-95 0,-136 199,-136 199,-95 0,-95"/>
<text text-anchor="start" x="8" y="-124" font-family="Helvetica,sans-Serif" font-size="10.00" fill="#000000">/home/travis/build</text>
<text text-anchor="start" x="8" y="-113" font-family="Helvetica,sans-Serif" font-size="10.00" fill="#000000">/AliceO2Group/AliceO2</text>
<text text-anchor="middle" x="99.5" y="-102" font-family="Helvetica,sans-Serif" font-size="10.00" fill="#000000">/Framework/Core/src/DataRelayer.cxx</text>
</a>
</g>
</g>
<!-- Node36&#45;&gt;Node41 -->
<g id="edge9" class="edge">
<title>Node36&#45;&gt;Node41</title>
<path fill="none" stroke="#191970" d="M497.4402,-276.0254C448.7478,-265.3711 388.0047,-250.1136 335.5,-231 261.9882,-204.2391 181.055,-161.4978 135.6357,-136.1974"/>
<polygon fill="#191970" stroke="#191970" points="496.8121,-279.4704 507.3257,-278.1616 498.2907,-272.6283 496.8121,-279.4704"/>
</g>
<!-- Node45 -->
<g id="node10" class="node">
<title>Node45</title>
<g id="a_node10"><a xlink:href="../../d4/d7a/LifetimeHelpers_8cxx.html" target="_top" xlink:title="/home/travis/build\l/AliceO2Group/AliceO2\l/Framework/Core/src/Lifetime\lHelpers.cxx">
<polygon fill="none" stroke="#000000" points="507.5,-178.5 507.5,-230.5 667.5,-230.5 667.5,-178.5 507.5,-178.5"/>
<text text-anchor="start" x="515.5" y="-218.5" font-family="Helvetica,sans-Serif" font-size="10.00" fill="#000000">/home/travis/build</text>
<text text-anchor="start" x="515.5" y="-207.5" font-family="Helvetica,sans-Serif" font-size="10.00" fill="#000000">/AliceO2Group/AliceO2</text>
<text text-anchor="start" x="515.5" y="-196.5" font-family="Helvetica,sans-Serif" font-size="10.00" fill="#000000">/Framework/Core/src/Lifetime</text>
<text text-anchor="middle" x="587.5" y="-185.5" font-family="Helvetica,sans-Serif" font-size="10.00" fill="#000000">Helpers.cxx</text>
</a>
</g>
</g>
<!-- Node36&#45;&gt;Node45 -->
<g id="edge10" class="edge">
<title>Node36&#45;&gt;Node45</title>
<path fill="none" stroke="#191970" d="M587.5,-257.1155C587.5,-248.2061 587.5,-238.8475 587.5,-230.5341"/>
<polygon fill="#191970" stroke="#191970" points="584.0001,-257.2784 587.5,-267.2784 591.0001,-257.2785 584.0001,-257.2784"/>
</g>
<!-- Node46 -->
<g id="node11" class="node">
<title>Node46</title>
<g id="a_node11"><a xlink:href="../../df/dc4/test__TimesliceIndex_8cxx.html" target="_top" xlink:title="/home/travis/build\l/AliceO2Group/AliceO2\l/Framework/Core/test/test\l_TimesliceIndex.cxx">
<polygon fill="none" stroke="#000000" points="686,-178.5 686,-230.5 829,-230.5 829,-178.5 686,-178.5"/>
<text text-anchor="start" x="694" y="-218.5" font-family="Helvetica,sans-Serif" font-size="10.00" fill="#000000">/home/travis/build</text>
<text text-anchor="start" x="694" y="-207.5" font-family="Helvetica,sans-Serif" font-size="10.00" fill="#000000">/AliceO2Group/AliceO2</text>
<text text-anchor="start" x="694" y="-196.5" font-family="Helvetica,sans-Serif" font-size="10.00" fill="#000000">/Framework/Core/test/test</text>
<text text-anchor="middle" x="757.5" y="-185.5" font-family="Helvetica,sans-Serif" font-size="10.00" fill="#000000">_TimesliceIndex.cxx</text>
</a>
</g>
</g>
<!-- Node36&#45;&gt;Node46 -->
<g id="edge11" class="edge">
<title>Node36&#45;&gt;Node46</title>
<path fill="none" stroke="#191970" d="M646.5897,-262.5648C666.5477,-252.1162 688.6129,-240.5644 707.7718,-230.5341"/>
<polygon fill="#191970" stroke="#191970" points="644.8221,-259.5395 637.5861,-267.2784 648.0688,-265.741 644.8221,-259.5395"/>
</g>
<!-- Node47 -->
<g id="node12" class="node">
<title>Node47</title>
<g id="a_node12"><a xlink:href="../../d6/d12/Merger_8cxx.html" target="_top" xlink:title="Implementation of O2 Mergers, v0.1. ">
<polygon fill="none" stroke="#000000" points="847,-178.5 847,-230.5 974,-230.5 974,-178.5 847,-178.5"/>
<text text-anchor="start" x="855" y="-218.5" font-family="Helvetica,sans-Serif" font-size="10.00" fill="#000000">/home/travis/build</text>
<text text-anchor="start" x="855" y="-207.5" font-family="Helvetica,sans-Serif" font-size="10.00" fill="#000000">/AliceO2Group/AliceO2</text>
<text text-anchor="start" x="855" y="-196.5" font-family="Helvetica,sans-Serif" font-size="10.00" fill="#000000">/Utilities/Mergers/src</text>
<text text-anchor="middle" x="910.5" y="-185.5" font-family="Helvetica,sans-Serif" font-size="10.00" fill="#000000">/Merger.cxx</text>
</a>
</g>
</g>
<!-- Node36&#45;&gt;Node47 -->
<g id="edge12" class="edge">
<title>Node36&#45;&gt;Node47</title>
<path fill="none" stroke="#191970" d="M677.2965,-273.6381C725.4468,-262.362 785.5937,-247.2705 838.5,-231 841.1736,-230.1778 843.893,-229.3121 846.6328,-228.4157"/>
<polygon fill="#191970" stroke="#191970" points="676.4679,-270.2373 667.5218,-275.9134 678.055,-277.055 676.4679,-270.2373"/>
</g>
<!-- Node38 -->
<g id="node3" class="node">
<title>Node38</title>
<g id="a_node3"><a xlink:href="../../d3/d4b/DataProcessingDevice_8h.html" target="_top" xlink:title="/home/travis/build\l/AliceO2Group/AliceO2\l/Framework/Core/include\l/Framework/DataProcessingDevice.h">
<polygon fill="none" stroke="#000000" points="217,-89.5 217,-141.5 412,-141.5 412,-89.5 217,-89.5"/>
<text text-anchor="start" x="225" y="-129.5" font-family="Helvetica,sans-Serif" font-size="10.00" fill="#000000">/home/travis/build</text>
<text text-anchor="start" x="225" y="-118.5" font-family="Helvetica,sans-Serif" font-size="10.00" fill="#000000">/AliceO2Group/AliceO2</text>
<text text-anchor="start" x="225" y="-107.5" font-family="Helvetica,sans-Serif" font-size="10.00" fill="#000000">/Framework/Core/include</text>
<text text-anchor="middle" x="314.5" y="-96.5" font-family="Helvetica,sans-Serif" font-size="10.00" fill="#000000">/Framework/DataProcessingDevice.h</text>
</a>
</g>
</g>
<!-- Node37&#45;&gt;Node38 -->
<g id="edge2" class="edge">
<title>Node37&#45;&gt;Node38</title>
<path fill="none" stroke="#191970" d="M378.7663,-171.5755C367.4085,-161.6653 355.1073,-150.9319 344.3369,-141.5341"/>
<polygon fill="#191970" stroke="#191970" points="376.6123,-174.341 386.4483,-178.2784 381.2145,-169.0666 376.6123,-174.341"/>
</g>
<!-- Node37&#45;&gt;Node41 -->
<g id="edge5" class="edge">
<title>Node37&#45;&gt;Node41</title>
<path fill="none" stroke="#191970" d="M333.9676,-181.3285C284.0161,-167.3042 220.8798,-149.5782 172.7106,-136.0544"/>
<polygon fill="#191970" stroke="#191970" points="333.2,-184.7482 343.7738,-184.0816 335.0921,-178.0088 333.2,-184.7482"/>
</g>
<!-- Node42 -->
<g id="node7" class="node">
<title>Node42</title>
<g id="a_node7"><a xlink:href="../../d8/dd6/benchmark__DataRelayer_8cxx.html" target="_top" xlink:title="/home/travis/build\l/AliceO2Group/AliceO2\l/Framework/Core/test/benchmark\l_DataRelayer.cxx">
<polygon fill="none" stroke="#000000" points="430,-89.5 430,-141.5 609,-141.5 609,-89.5 430,-89.5"/>
<text text-anchor="start" x="438" y="-129.5" font-family="Helvetica,sans-Serif" font-size="10.00" fill="#000000">/home/travis/build</text>
<text text-anchor="start" x="438" y="-118.5" font-family="Helvetica,sans-Serif" font-size="10.00" fill="#000000">/AliceO2Group/AliceO2</text>
<text text-anchor="start" x="438" y="-107.5" font-family="Helvetica,sans-Serif" font-size="10.00" fill="#000000">/Framework/Core/test/benchmark</text>
<text text-anchor="middle" x="519.5" y="-96.5" font-family="Helvetica,sans-Serif" font-size="10.00" fill="#000000">_DataRelayer.cxx</text>
</a>
</g>
</g>
<!-- Node37&#45;&gt;Node42 -->
<g id="edge6" class="edge">
<title>Node37&#45;&gt;Node42</title>
<path fill="none" stroke="#191970" d="M454.6036,-171.5755C466.0728,-161.6653 478.4946,-150.9319 489.3706,-141.5341"/>
<polygon fill="#191970" stroke="#191970" points="452.1246,-169.092 446.8463,-178.2784 456.7013,-174.3886 452.1246,-169.092"/>
</g>
<!-- Node43 -->
<g id="node8" class="node">
<title>Node43</title>
<g id="a_node8"><a xlink:href="../../df/d93/benchmark__InputRecord_8cxx.html" target="_top" xlink:title="/home/travis/build\l/AliceO2Group/AliceO2\l/Framework/Core/test/benchmark\l_InputRecord.cxx">
<polygon fill="none" stroke="#000000" points="627,-89.5 627,-141.5 806,-141.5 806,-89.5 627,-89.5"/>
<text text-anchor="start" x="635" y="-129.5" font-family="Helvetica,sans-Serif" font-size="10.00" fill="#000000">/home/travis/build</text>
<text text-anchor="start" x="635" y="-118.5" font-family="Helvetica,sans-Serif" font-size="10.00" fill="#000000">/AliceO2Group/AliceO2</text>
<text text-anchor="start" x="635" y="-107.5" font-family="Helvetica,sans-Serif" font-size="10.00" fill="#000000">/Framework/Core/test/benchmark</text>
<text text-anchor="middle" x="716.5" y="-96.5" font-family="Helvetica,sans-Serif" font-size="10.00" fill="#000000">_InputRecord.cxx</text>
</a>
</g>
</g>
<!-- Node37&#45;&gt;Node43 -->
<g id="edge7" class="edge">
<title>Node37&#45;&gt;Node43</title>
<path fill="none" stroke="#191970" d="M499.1919,-177.8218C546.5989,-163.435 590.0137,-150.9113 626.9424,-140.4486"/>
<polygon fill="#191970" stroke="#191970" points="497.885,-174.561 489.3378,-180.8217 499.9237,-181.2575 497.885,-174.561"/>
</g>
<!-- Node44 -->
<g id="node9" class="node">
<title>Node44</title>
<g id="a_node9"><a xlink:href="../../dc/d6d/test__DataRelayer_8cxx.html" target="_top" xlink:title="/home/travis/build\l/AliceO2Group/AliceO2\l/Framework/Core/test/test\l_DataRelayer.cxx">
<polygon fill="none" stroke="#000000" points="824,-89.5 824,-141.5 967,-141.5 967,-89.5 824,-89.5"/>
<text text-anchor="start" x="832" y="-129.5" font-family="Helvetica,sans-Serif" font-size="10.00" fill="#000000">/home/travis/build</text>
<text text-anchor="start" x="832" y="-118.5" font-family="Helvetica,sans-Serif" font-size="10.00" fill="#000000">/AliceO2Group/AliceO2</text>
<text text-anchor="start" x="832" y="-107.5" font-family="Helvetica,sans-Serif" font-size="10.00" fill="#000000">/Framework/Core/test/test</text>
<text text-anchor="middle" x="895.5" y="-96.5" font-family="Helvetica,sans-Serif" font-size="10.00" fill="#000000">_DataRelayer.cxx</text>
</a>
</g>
</g>
<!-- Node37&#45;&gt;Node44 -->
<g id="edge8" class="edge">
<title>Node37&#45;&gt;Node44</title>
<path fill="none" stroke="#191970" d="M498.9782,-178.1024C638.9382,-149.1181 680.1255,-171.772 815.5,-142 818.215,-141.4029 820.9677,-140.7485 823.7375,-140.0485"/>
<polygon fill="#191970" stroke="#191970" points="498.2274,-174.6837 489.1718,-180.1834 499.6806,-181.5312 498.2274,-174.6837"/>
</g>
<!-- Node39 -->
<g id="node4" class="node">
<title>Node39</title>
<g id="a_node4"><a xlink:href="../../db/dac/DataProcessingDevice_8cxx.html" target="_top" xlink:title="/home/travis/build\l/AliceO2Group/AliceO2\l/Framework/Core/src/DataProcessing\lDevice.cxx">
<polygon fill="none" stroke="#000000" points="102,-.5 102,-52.5 297,-52.5 297,-.5 102,-.5"/>
<text text-anchor="start" x="110" y="-40.5" font-family="Helvetica,sans-Serif" font-size="10.00" fill="#000000">/home/travis/build</text>
<text text-anchor="start" x="110" y="-29.5" font-family="Helvetica,sans-Serif" font-size="10.00" fill="#000000">/AliceO2Group/AliceO2</text>
<text text-anchor="start" x="110" y="-18.5" font-family="Helvetica,sans-Serif" font-size="10.00" fill="#000000">/Framework/Core/src/DataProcessing</text>
<text text-anchor="middle" x="199.5" y="-7.5" font-family="Helvetica,sans-Serif" font-size="10.00" fill="#000000">Device.cxx</text>
</a>
</g>
</g>
<!-- Node38&#45;&gt;Node39 -->
<g id="edge3" class="edge">
<title>Node38&#45;&gt;Node39</title>
<path fill="none" stroke="#191970" d="M272.6947,-83.1463C259.6858,-73.0786 245.5163,-62.1126 233.1396,-52.5341"/>
<polygon fill="#191970" stroke="#191970" points="270.5677,-85.926 280.6182,-89.2784 274.852,-80.3901 270.5677,-85.926"/>
</g>
<!-- Node40 -->
<g id="node5" class="node">
<title>Node40</title>
<g id="a_node5"><a xlink:href="../../d7/d54/runDataProcessing_8cxx.html" target="_top" xlink:title="/home/travis/build\l/AliceO2Group/AliceO2\l/Framework/Core/src/runDataProcessing.cxx">
<polygon fill="none" stroke="#000000" points="315,-6 315,-47 546,-47 546,-6 315,-6"/>
<text text-anchor="start" x="323" y="-35" font-family="Helvetica,sans-Serif" font-size="10.00" fill="#000000">/home/travis/build</text>
<text text-anchor="start" x="323" y="-24" font-family="Helvetica,sans-Serif" font-size="10.00" fill="#000000">/AliceO2Group/AliceO2</text>
<text text-anchor="middle" x="430.5" y="-13" font-family="Helvetica,sans-Serif" font-size="10.00" fill="#000000">/Framework/Core/src/runDataProcessing.cxx</text>
</a>
</g>
</g>
<!-- Node38&#45;&gt;Node40 -->
<g id="edge4" class="edge">
<title>Node38&#45;&gt;Node40</title>
<path fill="none" stroke="#191970" d="M356.6787,-83.1388C372.3221,-71.1365 389.6283,-57.8584 403.5501,-47.1771"/>
<polygon fill="#191970" stroke="#191970" points="354.4798,-80.4144 348.6764,-89.2784 358.7408,-85.9681 354.4798,-80.4144"/>
</g>
</g>
</svg>
