<?xml version="1.0" encoding="UTF-8" standalone="no"?>
<!DOCTYPE svg PUBLIC "-//W3C//DTD SVG 1.1//EN"
 "http://www.w3.org/Graphics/SVG/1.1/DTD/svg11.dtd">
<!-- Generated by graphviz version 2.40.1 (20161225.0304)
 -->
<!-- Title: o2::phos::PHOSBlockHeader Pages: 1 -->
<!--zoomable 981 -->
<svg id="main" version="1.1" xmlns="http://www.w3.org/2000/svg" xmlns:xlink="http://www.w3.org/1999/xlink" xml:space="preserve" onload="init(evt)">
<style type="text/css"><![CDATA[
.edge:hover path { stroke: red; }
.edge:hover polygon { stroke: red; fill: red; }
]]></style>
<script type="text/javascript"><![CDATA[
var edges = document.getElementsByTagName('g');
if (edges && edges.length) {
  for (var i=0;i<edges.length;i++) {
    if (edges[i].id.substr(0,4)=='edge') {
      edges[i].setAttribute('class','edge');
    }
  }
}
]]></script>
        <defs>
                <circle id="rim" cx="0" cy="0" r="7"/>
                <circle id="rim2" cx="0" cy="0" r="3.5"/>
                <g id="zoomPlus">
                        <use xlink:href="#rim" fill="#404040">
                                <set attributeName="fill" to="#808080" begin="zoomplus.mouseover" end="zoomplus.mouseout"/>
                        </use>
                        <path d="M-4,0h8M0,-4v8" fill="none" stroke="white" stroke-width="1.5" pointer-events="none"/>
                </g>
                <g id="zoomMin">
                        <use xlink:href="#rim" fill="#404040">
                                <set attributeName="fill" to="#808080" begin="zoomminus.mouseover" end="zoomminus.mouseout"/>
                        </use>
                        <path d="M-4,0h8" fill="none" stroke="white" stroke-width="1.5" pointer-events="none"/>
                </g>
                <g id="dirArrow">
                        <path fill="none" stroke="white" stroke-width="1.5" d="M0,-3.0v7 M-2.5,-0.5L0,-3.0L2.5,-0.5"/>
                </g>
               <g id="resetDef">
                       <use xlink:href="#rim2" fill="#404040">
                               <set attributeName="fill" to="#808080" begin="reset.mouseover" end="reset.mouseout"/>
                       </use>
               </g>
        </defs>

<script type="text/javascript">
var viewWidth = 948;
var viewHeight = 981;
var sectionId = 'dynsection-1';
</script>
<script xlink:href="../../svgpan.js"/>
<svg id="graph" class="graph">
<g id="viewport">
<title>o2::phos::PHOSBlockHeader</title>
<!-- Node2 -->
<g id="node1" class="node">
<title>Node2</title>
<polygon fill="#bfbfbf" stroke="#000000" points="720,-.5 720,-57.5 873,-57.5 873,-.5 720,-.5"/>
<text text-anchor="middle" x="796.5" y="-45.5" font-family="Helvetica,sans-Serif" font-size="10.00" fill="#000000">o2::phos::PHOSBlockHeader</text>
<polyline fill="none" stroke="#000000" points="720,-38.5 873,-38.5 "/>
<text text-anchor="middle" x="796.5" y="-26.5" font-family="Helvetica,sans-Serif" font-size="10.00" fill="#000000"> </text>
<polyline fill="none" stroke="#000000" points="720,-19.5 873,-19.5 "/>
<text text-anchor="start" x="728" y="-7.5" font-family="Helvetica,sans-Serif" font-size="10.00" fill="#000000">+ PHOSBlockHeader()</text>
</g>
<!-- Node3 -->
<g id="node2" class="node">
<title>Node3</title>
<g id="a_node2"><a xlink:href="../../d8/dbd/structo2_1_1header_1_1BaseHeader.html" target="_top" xlink:title="the base header struct Every header type must begin (i.e. derive) with this. Don&#39;t use this struct di...">
<polygon fill="none" stroke="#000000" points="382.5,-105.5 382.5,-250.5 516.5,-250.5 516.5,-105.5 382.5,-105.5"/>
<text text-anchor="middle" x="449.5" y="-238.5" font-family="Helvetica,sans-Serif" font-size="10.00" fill="#000000">o2::header::BaseHeader</text>
<polyline fill="none" stroke="#000000" points="382.5,-231.5 516.5,-231.5 "/>
<text text-anchor="middle" x="449.5" y="-219.5" font-family="Helvetica,sans-Serif" font-size="10.00" fill="#000000"> </text>
<polyline fill="none" stroke="#000000" points="382.5,-212.5 516.5,-212.5 "/>
<text text-anchor="start" x="390.5" y="-200.5" font-family="Helvetica,sans-Serif" font-size="10.00" fill="#000000">+ BaseHeader()</text>
<text text-anchor="start" x="390.5" y="-189.5" font-family="Helvetica,sans-Serif" font-size="10.00" fill="#000000">+ BaseHeader()</text>
<text text-anchor="start" x="390.5" y="-178.5" font-family="Helvetica,sans-Serif" font-size="10.00" fill="#000000">+ BaseHeader()</text>
<text text-anchor="start" x="390.5" y="-167.5" font-family="Helvetica,sans-Serif" font-size="10.00" fill="#000000">+ size()</text>
<text text-anchor="start" x="390.5" y="-156.5" font-family="Helvetica,sans-Serif" font-size="10.00" fill="#000000">+ data()</text>
<text text-anchor="start" x="390.5" y="-145.5" font-family="Helvetica,sans-Serif" font-size="10.00" fill="#000000">+ next()</text>
<text text-anchor="start" x="390.5" y="-134.5" font-family="Helvetica,sans-Serif" font-size="10.00" fill="#000000">+ next()</text>
<text text-anchor="start" x="390.5" y="-123.5" font-family="Helvetica,sans-Serif" font-size="10.00" fill="#000000">+ get()</text>
<text text-anchor="start" x="390.5" y="-112.5" font-family="Helvetica,sans-Serif" font-size="10.00" fill="#000000">+ get()</text>
</a>
</g>
</g>
<!-- Node3&#45;&gt;Node2 -->
<g id="edge1" class="edge">
<title>Node3&#45;&gt;Node2</title>
<path fill="none" stroke="#191970" d="M526.0242,-145.1409C587.0674,-118.9293 671.7046,-82.5865 729.9606,-57.5717"/>
<polygon fill="none" stroke="#191970" points="524.6243,-141.9329 516.8165,-149.0946 527.3862,-148.365 524.6243,-141.9329"/>
</g>
<!-- Node4 -->
<g id="node3" class="node">
<title>Node4</title>
<g id="a_node3"><a xlink:href="../../d9/db3/structo2_1_1header_1_1Descriptor.html" target="_top" xlink:title="{o2::header::Descriptor\l\&lt; gSizeHeaderDescriptionString \&gt;\n||+ Descriptor()\l+ Descriptor()\l+ Descriptor()\l+ Descriptor()\l+ operator=()\l+ operator ItgType()\l+ runtimeInit()\l+ operator==()\l+ operator==()\l+ operator\&lt;()\l+ operator!=()\l+ operator!=()\l+ as()\l+ print()\l}">
<polygon fill="none" stroke="#000000" points="238,-364.5 238,-575.5 423,-575.5 423,-364.5 238,-364.5"/>
<text text-anchor="start" x="246" y="-563.5" font-family="Helvetica,sans-Serif" font-size="10.00" fill="#000000">o2::header::Descriptor</text>
<text text-anchor="middle" x="330.5" y="-552.5" font-family="Helvetica,sans-Serif" font-size="10.00" fill="#000000">&lt; gSizeHeaderDescriptionString &gt;</text>
<polyline fill="none" stroke="#000000" points="238,-545.5 423,-545.5 "/>
<text text-anchor="middle" x="330.5" y="-533.5" font-family="Helvetica,sans-Serif" font-size="10.00" fill="#000000"> </text>
<polyline fill="none" stroke="#000000" points="238,-526.5 423,-526.5 "/>
<text text-anchor="start" x="246" y="-514.5" font-family="Helvetica,sans-Serif" font-size="10.00" fill="#000000">+ Descriptor()</text>
<text text-anchor="start" x="246" y="-503.5" font-family="Helvetica,sans-Serif" font-size="10.00" fill="#000000">+ Descriptor()</text>
<text text-anchor="start" x="246" y="-492.5" font-family="Helvetica,sans-Serif" font-size="10.00" fill="#000000">+ Descriptor()</text>
<text text-anchor="start" x="246" y="-481.5" font-family="Helvetica,sans-Serif" font-size="10.00" fill="#000000">+ Descriptor()</text>
<text text-anchor="start" x="246" y="-470.5" font-family="Helvetica,sans-Serif" font-size="10.00" fill="#000000">+ operator=()</text>
<text text-anchor="start" x="246" y="-459.5" font-family="Helvetica,sans-Serif" font-size="10.00" fill="#000000">+ operator ItgType()</text>
<text text-anchor="start" x="246" y="-448.5" font-family="Helvetica,sans-Serif" font-size="10.00" fill="#000000">+ runtimeInit()</text>
<text text-anchor="start" x="246" y="-437.5" font-family="Helvetica,sans-Serif" font-size="10.00" fill="#000000">+ operator==()</text>
<text text-anchor="start" x="246" y="-426.5" font-family="Helvetica,sans-Serif" font-size="10.00" fill="#000000">+ operator==()</text>
<text text-anchor="start" x="246" y="-415.5" font-family="Helvetica,sans-Serif" font-size="10.00" fill="#000000">+ operator&lt;()</text>
<text text-anchor="start" x="246" y="-404.5" font-family="Helvetica,sans-Serif" font-size="10.00" fill="#000000">+ operator!=()</text>
<text text-anchor="start" x="246" y="-393.5" font-family="Helvetica,sans-Serif" font-size="10.00" fill="#000000">+ operator!=()</text>
<text text-anchor="start" x="246" y="-382.5" font-family="Helvetica,sans-Serif" font-size="10.00" fill="#000000">+ as()</text>
<text text-anchor="start" x="246" y="-371.5" font-family="Helvetica,sans-Serif" font-size="10.00" fill="#000000">+ print()</text>
</a>
</g>
</g>
<!-- Node4&#45;&gt;Node3 -->
<g id="edge2" class="edge">
<title>Node4&#45;&gt;Node3</title>
<path fill="none" stroke="#404040" d="M370.2378,-364.4762C382.2024,-333.571 395.5909,-299.8125 408.5,-269 409.4678,-266.6901 410.4569,-264.3509 411.462,-261.9932"/>
<polygon fill="none" stroke="#404040" points="411.5094,-261.8832 410.2121,-254.7897 416.261,-250.864 417.5583,-257.9575 411.5094,-261.8832"/>
<text text-anchor="middle" x="441.5" y="-305" font-family="Helvetica,sans-Serif" font-size="10.00" fill="#000000"> +description</text>
</g>
<!-- Node5 -->
<g id="node4" class="node">
<title>Node5</title>
<polygon fill="none" stroke="#bfbfbf" points="361,-915.5 361,-972.5 400,-972.5 400,-915.5 361,-915.5"/>
<text text-anchor="middle" x="380.5" y="-960.5" font-family="Helvetica,sans-Serif" font-size="10.00" fill="#000000">Type</text>
<polyline fill="none" stroke="#bfbfbf" points="361,-953.5 400,-953.5 "/>
<text text-anchor="middle" x="380.5" y="-941.5" font-family="Helvetica,sans-Serif" font-size="10.00" fill="#000000"> </text>
<polyline fill="none" stroke="#bfbfbf" points="361,-934.5 400,-934.5 "/>
<text text-anchor="middle" x="380.5" y="-922.5" font-family="Helvetica,sans-Serif" font-size="10.00" fill="#000000"> </text>
</g>
<!-- Node5&#45;&gt;Node4 -->
<g id="edge3" class="edge">
<title>Node5&#45;&gt;Node4</title>
<path fill="none" stroke="#404040" d="M371.472,-915.2867C369.7154,-909.2739 367.9664,-902.9521 366.5,-897 360.9744,-874.5724 359.5248,-868.8994 356.5,-846 345.1364,-759.971 338.5689,-662.1704 334.8779,-587.8813"/>
<polygon fill="none" stroke="#404040" points="334.8685,-587.6849 330.5829,-581.8854 334.2879,-575.6989 338.5735,-581.4984 334.8685,-587.6849"/>
<text text-anchor="middle" x="369" y="-737.5" font-family="Helvetica,sans-Serif" font-size="10.00" fill="#000000"> +itg</text>
</g>
<!-- Node9 -->
<g id="node8" class="node">
<title>Node9</title>
<g id="a_node8"><a xlink:href="../../d9/db3/structo2_1_1header_1_1Descriptor.html" target="_top" xlink:title="{o2::header::Descriptor\l\&lt; N, PrinterPolicy \&gt;\n||+ Descriptor()\l+ Descriptor()\l+ Descriptor()\l+ operator=()\l+ operator ItgType()\l+ Descriptor()\l+ runtimeInit()\l+ operator==()\l+ operator\&lt;()\l+ operator!=()\l+ operator==()\l+ operator!=()\l+ as()\l+ print()\l}">
<polygon fill="none" stroke="#000000" points="447,-634.5 447,-845.5 572,-845.5 572,-634.5 447,-634.5"/>
<text text-anchor="start" x="455" y="-833.5" font-family="Helvetica,sans-Serif" font-size="10.00" fill="#000000">o2::header::Descriptor</text>
<text text-anchor="middle" x="509.5" y="-822.5" font-family="Helvetica,sans-Serif" font-size="10.00" fill="#000000">&lt; N, PrinterPolicy &gt;</text>
<polyline fill="none" stroke="#000000" points="447,-815.5 572,-815.5 "/>
<text text-anchor="middle" x="509.5" y="-803.5" font-family="Helvetica,sans-Serif" font-size="10.00" fill="#000000"> </text>
<polyline fill="none" stroke="#000000" points="447,-796.5 572,-796.5 "/>
<text text-anchor="start" x="455" y="-784.5" font-family="Helvetica,sans-Serif" font-size="10.00" fill="#000000">+ Descriptor()</text>
<text text-anchor="start" x="455" y="-773.5" font-family="Helvetica,sans-Serif" font-size="10.00" fill="#000000">+ Descriptor()</text>
<text text-anchor="start" x="455" y="-762.5" font-family="Helvetica,sans-Serif" font-size="10.00" fill="#000000">+ Descriptor()</text>
<text text-anchor="start" x="455" y="-751.5" font-family="Helvetica,sans-Serif" font-size="10.00" fill="#000000">+ operator=()</text>
<text text-anchor="start" x="455" y="-740.5" font-family="Helvetica,sans-Serif" font-size="10.00" fill="#000000">+ operator ItgType()</text>
<text text-anchor="start" x="455" y="-729.5" font-family="Helvetica,sans-Serif" font-size="10.00" fill="#000000">+ Descriptor()</text>
<text text-anchor="start" x="455" y="-718.5" font-family="Helvetica,sans-Serif" font-size="10.00" fill="#000000">+ runtimeInit()</text>
<text text-anchor="start" x="455" y="-707.5" font-family="Helvetica,sans-Serif" font-size="10.00" fill="#000000">+ operator==()</text>
<text text-anchor="start" x="455" y="-696.5" font-family="Helvetica,sans-Serif" font-size="10.00" fill="#000000">+ operator&lt;()</text>
<text text-anchor="start" x="455" y="-685.5" font-family="Helvetica,sans-Serif" font-size="10.00" fill="#000000">+ operator!=()</text>
<text text-anchor="start" x="455" y="-674.5" font-family="Helvetica,sans-Serif" font-size="10.00" fill="#000000">+ operator==()</text>
<text text-anchor="start" x="455" y="-663.5" font-family="Helvetica,sans-Serif" font-size="10.00" fill="#000000">+ operator!=()</text>
<text text-anchor="start" x="455" y="-652.5" font-family="Helvetica,sans-Serif" font-size="10.00" fill="#000000">+ as()</text>
<text text-anchor="start" x="455" y="-641.5" font-family="Helvetica,sans-Serif" font-size="10.00" fill="#000000">+ print()</text>
</a>
</g>
</g>
<!-- Node5&#45;&gt;Node9 -->
<g id="edge8" class="edge">
<title>Node5&#45;&gt;Node9</title>
<path fill="none" stroke="#404040" d="M400.0513,-931.9838C412.6276,-923.4679 428.5975,-911.0835 439.5,-897 449.0353,-884.6826 457.5922,-870.8614 465.1733,-856.6617"/>
<polygon fill="none" stroke="#404040" points="465.2966,-856.4216 464.4807,-849.2568 470.7805,-845.7479 471.5965,-852.9127 465.2966,-856.4216"/>
<text text-anchor="middle" x="473" y="-878" font-family="Helvetica,sans-Serif" font-size="10.00" fill="#000000"> +itg</text>
</g>
<!-- Node12 -->
<g id="node11" class="node">
<title>Node12</title>
<g id="a_node11"><a xlink:href="../../d9/db3/structo2_1_1header_1_1Descriptor.html" target="_top" xlink:title="{o2::header::Descriptor\l\&lt; gSizeSerializationMethodString \&gt;\n||+ Descriptor()\l+ Descriptor()\l+ Descriptor()\l+ Descriptor()\l+ operator=()\l+ operator ItgType()\l+ runtimeInit()\l+ operator==()\l+ operator==()\l+ operator\&lt;()\l+ operator!=()\l+ operator!=()\l+ as()\l+ print()\l}">
<polygon fill="none" stroke="#000000" points="441,-364.5 441,-575.5 632,-575.5 632,-364.5 441,-364.5"/>
<text text-anchor="start" x="449" y="-563.5" font-family="Helvetica,sans-Serif" font-size="10.00" fill="#000000">o2::header::Descriptor</text>
<text text-anchor="middle" x="536.5" y="-552.5" font-family="Helvetica,sans-Serif" font-size="10.00" fill="#000000">&lt; gSizeSerializationMethodString &gt;</text>
<polyline fill="none" stroke="#000000" points="441,-545.5 632,-545.5 "/>
<text text-anchor="middle" x="536.5" y="-533.5" font-family="Helvetica,sans-Serif" font-size="10.00" fill="#000000"> </text>
<polyline fill="none" stroke="#000000" points="441,-526.5 632,-526.5 "/>
<text text-anchor="start" x="449" y="-514.5" font-family="Helvetica,sans-Serif" font-size="10.00" fill="#000000">+ Descriptor()</text>
<text text-anchor="start" x="449" y="-503.5" font-family="Helvetica,sans-Serif" font-size="10.00" fill="#000000">+ Descriptor()</text>
<text text-anchor="start" x="449" y="-492.5" font-family="Helvetica,sans-Serif" font-size="10.00" fill="#000000">+ Descriptor()</text>
<text text-anchor="start" x="449" y="-481.5" font-family="Helvetica,sans-Serif" font-size="10.00" fill="#000000">+ Descriptor()</text>
<text text-anchor="start" x="449" y="-470.5" font-family="Helvetica,sans-Serif" font-size="10.00" fill="#000000">+ operator=()</text>
<text text-anchor="start" x="449" y="-459.5" font-family="Helvetica,sans-Serif" font-size="10.00" fill="#000000">+ operator ItgType()</text>
<text text-anchor="start" x="449" y="-448.5" font-family="Helvetica,sans-Serif" font-size="10.00" fill="#000000">+ runtimeInit()</text>
<text text-anchor="start" x="449" y="-437.5" font-family="Helvetica,sans-Serif" font-size="10.00" fill="#000000">+ operator==()</text>
<text text-anchor="start" x="449" y="-426.5" font-family="Helvetica,sans-Serif" font-size="10.00" fill="#000000">+ operator==()</text>
<text text-anchor="start" x="449" y="-415.5" font-family="Helvetica,sans-Serif" font-size="10.00" fill="#000000">+ operator&lt;()</text>
<text text-anchor="start" x="449" y="-404.5" font-family="Helvetica,sans-Serif" font-size="10.00" fill="#000000">+ operator!=()</text>
<text text-anchor="start" x="449" y="-393.5" font-family="Helvetica,sans-Serif" font-size="10.00" fill="#000000">+ operator!=()</text>
<text text-anchor="start" x="449" y="-382.5" font-family="Helvetica,sans-Serif" font-size="10.00" fill="#000000">+ as()</text>
<text text-anchor="start" x="449" y="-371.5" font-family="Helvetica,sans-Serif" font-size="10.00" fill="#000000">+ print()</text>
</a>
</g>
</g>
<!-- Node5&#45;&gt;Node12 -->
<g id="edge16" class="edge">
<title>Node5&#45;&gt;Node12</title>
<path fill="none" stroke="#404040" d="M381.7243,-915.3837C385.069,-842.8277 395.2792,-655.8627 412.5,-634 427.3735,-615.1173 445.48,-631.9078 463.5,-616 473.3408,-607.3127 482.0104,-596.9893 489.6104,-585.9062"/>
<polygon fill="none" stroke="#404040" points="489.7911,-585.6258 489.6795,-578.4156 496.2923,-575.5394 496.4038,-582.7497 489.7911,-585.6258"/>
<text text-anchor="middle" x="425" y="-737.5" font-family="Helvetica,sans-Serif" font-size="10.00" fill="#000000"> +itg</text>
</g>
<!-- Node6 -->
<g id="node5" class="node">
<title>Node6</title>
<polygon fill="none" stroke="#bfbfbf" points="232.5,-915.5 232.5,-972.5 270.5,-972.5 270.5,-915.5 232.5,-915.5"/>
<text text-anchor="middle" x="251.5" y="-960.5" font-family="Helvetica,sans-Serif" font-size="10.00" fill="#000000">char</text>
<polyline fill="none" stroke="#bfbfbf" points="232.5,-953.5 270.5,-953.5 "/>
<text text-anchor="middle" x="251.5" y="-941.5" font-family="Helvetica,sans-Serif" font-size="10.00" fill="#000000"> </text>
<polyline fill="none" stroke="#bfbfbf" points="232.5,-934.5 270.5,-934.5 "/>
<text text-anchor="middle" x="251.5" y="-922.5" font-family="Helvetica,sans-Serif" font-size="10.00" fill="#000000"> </text>
</g>
<!-- Node6&#45;&gt;Node3 -->
<g id="edge13" class="edge">
<title>Node6&#45;&gt;Node3</title>
<path fill="none" stroke="#404040" d="M237.0747,-915.4214C195.7917,-829.6393 84.5154,-567.7308 154.5,-364 186.101,-272.0069 294.2192,-222.2235 370.3709,-197.9014"/>
<polygon fill="none" stroke="#404040" points="370.8368,-197.7574 375.388,-192.164 382.3017,-194.2139 377.7504,-199.8073 370.8368,-197.7574"/>
<text text-anchor="middle" x="175.5" y="-602.5" font-family="Helvetica,sans-Serif" font-size="10.00" fill="#000000"> +magicString</text>
</g>
<!-- Node6&#45;&gt;Node4 -->
<g id="edge4" class="edge">
<title>Node6&#45;&gt;Node4</title>
<path fill="none" stroke="#404040" d="M243.9716,-915.1593C230.7625,-859.6127 207.2748,-734.4018 234.5,-634 238.8077,-618.114 245.0825,-602.1911 252.394,-586.8491"/>
<polygon fill="none" stroke="#404040" points="252.5493,-586.5363 251.6363,-579.3832 257.8879,-575.7892 258.801,-582.9423 252.5493,-586.5363"/>
<text text-anchor="middle" x="247" y="-737.5" font-family="Helvetica,sans-Serif" font-size="10.00" fill="#000000"> +str</text>
</g>
<!-- Node6&#45;&gt;Node9 -->
<g id="edge9" class="edge">
<title>Node6&#45;&gt;Node9</title>
<path fill="none" stroke="#404040" d="M270.6516,-936.9527C305.6747,-923.3904 381.161,-890.9736 432.5,-846 434.5157,-844.2342 436.5089,-842.4065 438.4775,-840.5262"/>
<polygon fill="none" stroke="#404040" points="438.5012,-840.5023 439.8802,-833.4242 446.9442,-831.9748 445.5652,-839.0529 438.5012,-840.5023"/>
<text text-anchor="middle" x="419" y="-878" font-family="Helvetica,sans-Serif" font-size="10.00" fill="#000000"> +str</text>
</g>
<!-- Node6&#45;&gt;Node12 -->
<g id="edge17" class="edge">
<title>Node6&#45;&gt;Node12</title>
<path fill="none" stroke="#404040" d="M254.5376,-915.4048C262.0343,-848.2673 282.7641,-682.5648 309.5,-634 322.0879,-611.1346 329.4288,-606.2067 352.5,-594 381.3462,-578.7378 396.9367,-590.7178 430.0374,-575.886"/>
<polygon fill="none" stroke="#404040" points="430.2085,-575.7991 433.7451,-569.5148 440.9063,-570.3624 437.3696,-576.6467 430.2085,-575.7991"/>
<text text-anchor="middle" x="322" y="-737.5" font-family="Helvetica,sans-Serif" font-size="10.00" fill="#000000"> +str</text>
</g>
<!-- Node7 -->
<g id="node6" class="node">
<title>Node7</title>
<polygon fill="none" stroke="#bfbfbf" points="613,-915.5 613,-972.5 642,-972.5 642,-915.5 613,-915.5"/>
<text text-anchor="middle" x="627.5" y="-960.5" font-family="Helvetica,sans-Serif" font-size="10.00" fill="#000000">int</text>
<polyline fill="none" stroke="#bfbfbf" points="613,-953.5 642,-953.5 "/>
<text text-anchor="middle" x="627.5" y="-941.5" font-family="Helvetica,sans-Serif" font-size="10.00" fill="#000000"> </text>
<polyline fill="none" stroke="#bfbfbf" points="613,-934.5 642,-934.5 "/>
<text text-anchor="middle" x="627.5" y="-922.5" font-family="Helvetica,sans-Serif" font-size="10.00" fill="#000000"> </text>
</g>
<!-- Node7&#45;&gt;Node4 -->
<g id="edge5" class="edge">
<title>Node7&#45;&gt;Node4</title>
<path fill="none" stroke="#404040" d="M627.9481,-915.4125C627.8951,-900.1186 627.3607,-880.9871 625.5,-864 624.7911,-857.5287 584.7396,-638.9402 580.5,-634 565.1186,-616.0768 551.1615,-627.4425 530.5,-616 516.6551,-608.3326 516.7012,-600.9853 502.5,-594 476.3696,-581.147 462.6645,-590.0299 433.8863,-576.4952"/>
<polygon fill="none" stroke="#404040" points="433.6191,-576.3526 426.4423,-577.0551 423.0335,-570.7006 430.2103,-569.998 433.6191,-576.3526"/>
<text text-anchor="middle" x="651.5" y="-748.5" font-family="Helvetica,sans-Serif" font-size="10.00" fill="#000000"> +arraySize</text>
<text text-anchor="middle" x="651.5" y="-737.5" font-family="Helvetica,sans-Serif" font-size="10.00" fill="#000000">+size</text>
<text text-anchor="middle" x="651.5" y="-726.5" font-family="Helvetica,sans-Serif" font-size="10.00" fill="#000000">+bitcount</text>
</g>
<!-- Node7&#45;&gt;Node9 -->
<g id="edge10" class="edge">
<title>Node7&#45;&gt;Node9</title>
<path fill="none" stroke="#404040" d="M612.8461,-943.095C587.015,-940.6184 533.9015,-931.3832 510.5,-897 502.4723,-885.2051 497.6856,-871.6698 495.1501,-857.599"/>
<polygon fill="none" stroke="#404040" points="495.1463,-857.5704 490.3737,-852.1646 493.5281,-845.68 498.3007,-851.0858 495.1463,-857.5704"/>
<text text-anchor="middle" x="539.5" y="-889" font-family="Helvetica,sans-Serif" font-size="10.00" fill="#000000"> +arraySize</text>
<text text-anchor="middle" x="539.5" y="-878" font-family="Helvetica,sans-Serif" font-size="10.00" fill="#000000">+size</text>
<text text-anchor="middle" x="539.5" y="-867" font-family="Helvetica,sans-Serif" font-size="10.00" fill="#000000">+bitcount</text>
</g>
<!-- Node7&#45;&gt;Node12 -->
<g id="edge18" class="edge">
<title>Node7&#45;&gt;Node12</title>
<path fill="none" stroke="#404040" d="M642.213,-924.0925C644.8462,-920.9355 647.6598,-917.7939 650.5,-915 686.4319,-879.654 718.198,-891.2003 740.5,-846 782.191,-761.5033 765.6511,-724.8034 740.5,-634 734.9659,-614.02 733.2343,-606.2389 716.5,-594 691.3272,-575.5895 674.4428,-589.5007 643.3024,-576.4958"/>
<polygon fill="none" stroke="#404040" points="642.9119,-576.3021 635.7592,-577.2182 632.1626,-570.968 639.3153,-570.0519 642.9119,-576.3021"/>
<text text-anchor="middle" x="795.5" y="-748.5" font-family="Helvetica,sans-Serif" font-size="10.00" fill="#000000"> +arraySize</text>
<text text-anchor="middle" x="795.5" y="-737.5" font-family="Helvetica,sans-Serif" font-size="10.00" fill="#000000">+size</text>
<text text-anchor="middle" x="795.5" y="-726.5" font-family="Helvetica,sans-Serif" font-size="10.00" fill="#000000">+bitcount</text>
</g>
<!-- Node8 -->
<g id="node7" class="node">
<title>Node8</title>
<polygon fill="none" stroke="#bfbfbf" points="660,-915.5 660,-972.5 767,-972.5 767,-915.5 660,-915.5"/>
<text text-anchor="middle" x="713.5" y="-960.5" font-family="Helvetica,sans-Serif" font-size="10.00" fill="#000000">anonymous:+@24</text>
<polyline fill="none" stroke="#bfbfbf" points="660,-953.5 767,-953.5 "/>
<text text-anchor="middle" x="713.5" y="-941.5" font-family="Helvetica,sans-Serif" font-size="10.00" fill="#000000"> </text>
<polyline fill="none" stroke="#bfbfbf" points="660,-934.5 767,-934.5 "/>
<text text-anchor="middle" x="713.5" y="-922.5" font-family="Helvetica,sans-Serif" font-size="10.00" fill="#000000"> </text>
</g>
<!-- Node8&#45;&gt;Node4 -->
<g id="edge6" class="edge">
<title>Node8&#45;&gt;Node4</title>
<path fill="none" stroke="#404040" d="M710.2118,-915.2762C707.9919,-895.7465 705.0187,-869.3198 702.5,-846 696.4255,-789.7586 711.3518,-628.472 666.5,-594 627.5685,-564.0782 496.68,-594.1714 434.485,-575.9009"/>
<polygon fill="none" stroke="#404040" points="434.2366,-575.8072 427.2106,-577.4308 423.0096,-571.5698 430.0355,-569.9462 434.2366,-575.8072"/>
<text text-anchor="middle" x="719.5" y="-737.5" font-family="Helvetica,sans-Serif" font-size="10.00" fill="#000000"> +@24</text>
</g>
<!-- Node8&#45;&gt;Node9 -->
<g id="edge11" class="edge">
<title>Node8&#45;&gt;Node9</title>
<path fill="none" stroke="#404040" d="M670.4146,-915.4396C644.581,-897.2172 611.9211,-872.1687 586.5,-846 584.3505,-843.7873 582.2126,-841.5115 580.0912,-839.1855"/>
<polygon fill="none" stroke="#404040" points="579.9285,-839.0007 572.9617,-837.1394 572.0002,-829.9926 578.967,-831.8539 579.9285,-839.0007"/>
<text text-anchor="middle" x="660.5" y="-878" font-family="Helvetica,sans-Serif" font-size="10.00" fill="#000000"> +@24</text>
</g>
<!-- Node8&#45;&gt;Node12 -->
<g id="edge19" class="edge">
<title>Node8&#45;&gt;Node12</title>
<path fill="none" stroke="#404040" d="M764.0142,-915.4395C788.3393,-898.6742 815.0859,-875.0552 828.5,-846 867.9943,-760.4545 879.5106,-713.2196 828.5,-634 783.1945,-563.6404 723.2116,-612.2754 642.9783,-576.5216"/>
<polygon fill="none" stroke="#404040" points="642.8286,-576.4484 635.6814,-577.4061 632.0484,-571.177 639.1956,-570.2193 642.8286,-576.4484"/>
<text text-anchor="middle" x="879.5" y="-737.5" font-family="Helvetica,sans-Serif" font-size="10.00" fill="#000000"> +@24</text>
</g>
<!-- Node9&#45;&gt;Node4 -->
<g id="edge7" class="edge">
<title>Node9&#45;&gt;Node4</title>
<path fill="none" stroke="#ffa500" d="M438.9771,-638.8729C436.8577,-637.1728 434.6983,-635.5448 432.5,-634 409.0237,-617.5024 390.6351,-636.4423 370.5,-616 359.3423,-604.6721 351.2244,-590.5441 345.3325,-575.5722"/>
<polygon fill="#ffa500" stroke="#ffa500" points="437.0967,-641.8738 446.951,-645.7651 441.6741,-636.5778 437.0967,-641.8738"/>
<text text-anchor="start" x="370.5" y="-608" font-family="Helvetica,sans-Serif" font-size="10.00" fill="#000000"> &lt; gSizeHeaderDescription</text>
<text text-anchor="middle" x="436.5" y="-597" font-family="Helvetica,sans-Serif" font-size="10.00" fill="#000000">String &gt;</text>
</g>
<!-- Node9&#45;&gt;Node12 -->
<g id="edge20" class="edge">
<title>Node9&#45;&gt;Node12</title>
<path fill="none" stroke="#ffa500" d="M521.0529,-624.4709C522.665,-608.3503 524.3149,-591.8513 525.908,-575.9196"/>
<polygon fill="#ffa500" stroke="#ffa500" points="517.5674,-624.1523 520.0549,-634.4509 524.5327,-624.8488 517.5674,-624.1523"/>
<text text-anchor="start" x="524.5" y="-608" font-family="Helvetica,sans-Serif" font-size="10.00" fill="#000000"> &lt; gSizeSerializationMethod</text>
<text text-anchor="middle" x="593.5" y="-597" font-family="Helvetica,sans-Serif" font-size="10.00" fill="#000000">String &gt;</text>
</g>
<!-- Node10 -->
<g id="node9" class="node">
<title>Node10</title>
<polygon fill="none" stroke="#bfbfbf" points="650,-441.5 650,-498.5 757,-498.5 757,-441.5 650,-441.5"/>
<text text-anchor="middle" x="703.5" y="-486.5" font-family="Helvetica,sans-Serif" font-size="10.00" fill="#000000">anonymous:+@26</text>
<polyline fill="none" stroke="#bfbfbf" points="650,-479.5 757,-479.5 "/>
<text text-anchor="middle" x="703.5" y="-467.5" font-family="Helvetica,sans-Serif" font-size="10.00" fill="#000000"> </text>
<polyline fill="none" stroke="#bfbfbf" points="650,-460.5 757,-460.5 "/>
<text text-anchor="middle" x="703.5" y="-448.5" font-family="Helvetica,sans-Serif" font-size="10.00" fill="#000000"> </text>
</g>
<!-- Node10&#45;&gt;Node3 -->
<g id="edge12" class="edge">
<title>Node10&#45;&gt;Node3</title>
<path fill="none" stroke="#404040" d="M690.6379,-441.2284C679.5541,-418.5453 661.968,-387.0097 640.5,-364 630.9122,-353.7236 623.7904,-356.5461 614.5,-346 589.0081,-317.0626 599.6468,-298.2378 574.5,-269 560.746,-253.0084 543.6585,-238.2603 526.5797,-225.499"/>
<polygon fill="none" stroke="#404040" points="526.2623,-225.2687 519.0569,-224.982 516.5503,-218.2205 523.7557,-218.5073 526.2623,-225.2687"/>
<text text-anchor="middle" x="631.5" y="-305" font-family="Helvetica,sans-Serif" font-size="10.00" fill="#000000"> +@26</text>
</g>
<!-- Node11 -->
<g id="node10" class="node">
<title>Node11</title>
<polygon fill="none" stroke="#bfbfbf" points="0,-441.5 0,-498.5 107,-498.5 107,-441.5 0,-441.5"/>
<text text-anchor="middle" x="53.5" y="-486.5" font-family="Helvetica,sans-Serif" font-size="10.00" fill="#000000">anonymous:+@28</text>
<polyline fill="none" stroke="#bfbfbf" points="0,-479.5 107,-479.5 "/>
<text text-anchor="middle" x="53.5" y="-467.5" font-family="Helvetica,sans-Serif" font-size="10.00" fill="#000000"> </text>
<polyline fill="none" stroke="#bfbfbf" points="0,-460.5 107,-460.5 "/>
<text text-anchor="middle" x="53.5" y="-448.5" font-family="Helvetica,sans-Serif" font-size="10.00" fill="#000000"> </text>
</g>
<!-- Node11&#45;&gt;Node3 -->
<g id="edge14" class="edge">
<title>Node11&#45;&gt;Node3</title>
<path fill="none" stroke="#404040" d="M49.4212,-441.1823C45.0401,-397.9391 43.7807,-316.3034 87.5,-269 125.3179,-228.0818 275.6703,-201.0745 370.3078,-187.7525"/>
<polygon fill="none" stroke="#404040" points="370.5301,-187.7219 375.9262,-182.9383 382.4172,-186.0795 377.0211,-190.8631 370.5301,-187.7219"/>
<text text-anchor="middle" x="104.5" y="-305" font-family="Helvetica,sans-Serif" font-size="10.00" fill="#000000"> +@28</text>
</g>
<!-- Node12&#45;&gt;Node3 -->
<g id="edge15" class="edge">
<title>Node12&#45;&gt;Node3</title>
<path fill="none" stroke="#404040" d="M504.968,-364.1684C495.0073,-330.7371 484.1387,-294.2587 474.6829,-262.522"/>
<polygon fill="none" stroke="#404040" points="474.5595,-262.1074 469.0127,-257.4994 471.1329,-250.607 476.6797,-255.215 474.5595,-262.1074"/>
<text text-anchor="middle" x="534.5" y="-305" font-family="Helvetica,sans-Serif" font-size="10.00" fill="#000000"> +serialization</text>
</g>
<!-- Node13 -->
<g id="node12" class="node">
<title>Node13</title>
<polygon fill="none" stroke="#bfbfbf" points="163.5,-441.5 163.5,-498.5 219.5,-498.5 219.5,-441.5 163.5,-441.5"/>
<text text-anchor="middle" x="191.5" y="-486.5" font-family="Helvetica,sans-Serif" font-size="10.00" fill="#000000">uint32_t</text>
<polyline fill="none" stroke="#bfbfbf" points="163.5,-479.5 219.5,-479.5 "/>
<text text-anchor="middle" x="191.5" y="-467.5" font-family="Helvetica,sans-Serif" font-size="10.00" fill="#000000"> </text>
<polyline fill="none" stroke="#bfbfbf" points="163.5,-460.5 219.5,-460.5 "/>
<text text-anchor="middle" x="191.5" y="-448.5" font-family="Helvetica,sans-Serif" font-size="10.00" fill="#000000"> </text>
</g>
<!-- Node13&#45;&gt;Node3 -->
<g id="edge21" class="edge">
<title>Node13&#45;&gt;Node3</title>
<path fill="none" stroke="#404040" d="M197.5328,-441.2175C207.889,-398.3899 232.8995,-317.7181 282.5,-269 307.6754,-244.2725 340.9367,-224.3311 371.1447,-209.4894"/>
<polygon fill="none" stroke="#404040" points="371.2857,-209.4221 374.9773,-203.2276 382.1152,-204.2527 378.4236,-210.4472 371.2857,-209.4221"/>
<text text-anchor="middle" x="328" y="-338" font-family="Helvetica,sans-Serif" font-size="10.00" fill="#000000"> +headerVersion</text>
<text text-anchor="middle" x="328" y="-327" font-family="Helvetica,sans-Serif" font-size="10.00" fill="#000000">+headerSize</text>
<text text-anchor="middle" x="328" y="-316" font-family="Helvetica,sans-Serif" font-size="10.00" fill="#000000">+sMagicString</text>
<text text-anchor="middle" x="328" y="-305" font-family="Helvetica,sans-Serif" font-size="10.00" fill="#000000">+flagsNextHeader</text>
<text text-anchor="middle" x="328" y="-294" font-family="Helvetica,sans-Serif" font-size="10.00" fill="#000000">+magicStringInt</text>
<text text-anchor="middle" x="328" y="-283" font-family="Helvetica,sans-Serif" font-size="10.00" fill="#000000">+flagsUnused</text>
<text text-anchor="middle" x="328" y="-272" font-family="Helvetica,sans-Serif" font-size="10.00" fill="#000000">+flags</text>
</g>
<!-- Node14 -->
<g id="node13" class="node">
<title>Node14</title>
<polygon fill="none" stroke="#bfbfbf" points="775,-441.5 775,-498.5 818,-498.5 818,-441.5 775,-441.5"/>
<text text-anchor="middle" x="796.5" y="-486.5" font-family="Helvetica,sans-Serif" font-size="10.00" fill="#000000">const</text>
<polyline fill="none" stroke="#bfbfbf" points="775,-479.5 818,-479.5 "/>
<text text-anchor="middle" x="796.5" y="-467.5" font-family="Helvetica,sans-Serif" font-size="10.00" fill="#000000"> </text>
<polyline fill="none" stroke="#bfbfbf" points="775,-460.5 818,-460.5 "/>
<text text-anchor="middle" x="796.5" y="-448.5" font-family="Helvetica,sans-Serif" font-size="10.00" fill="#000000"> </text>
</g>
<!-- Node14&#45;&gt;Node2 -->
<g id="edge24" class="edge">
<title>Node14&#45;&gt;Node2</title>
<path fill="none" stroke="#404040" d="M796.5,-441.4046C796.5,-365.3624 796.5,-157.9528 796.5,-69.6628"/>
<polygon fill="none" stroke="#404040" points="796.5001,-69.5306 792.5,-63.5306 796.5,-57.5306 800.5,-63.5306 796.5001,-69.5306"/>
<text text-anchor="middle" x="834" y="-181" font-family="Helvetica,sans-Serif" font-size="10.00" fill="#000000"> +sHeaderType</text>
<text text-anchor="middle" x="834" y="-170" font-family="Helvetica,sans-Serif" font-size="10.00" fill="#000000">+sVersion</text>
</g>
<!-- Node14&#45;&gt;Node3 -->
<g id="edge22" class="edge">
<title>Node14&#45;&gt;Node3</title>
<path fill="none" stroke="#404040" d="M795.9861,-441.4372C793.9513,-417.2963 787.0662,-383.6027 765.5,-364 734.0231,-335.389 703.059,-374.5204 671.5,-346 645.0013,-322.0527 671.9454,-295.9438 648.5,-269 617.4519,-233.3191 569.535,-210.8204 528.5008,-197.1213"/>
<polygon fill="none" stroke="#404040" points="528.2833,-197.0519 521.3509,-199.0377 516.8517,-193.4024 523.784,-191.4166 528.2833,-197.0519"/>
<text text-anchor="middle" x="727" y="-316" font-family="Helvetica,sans-Serif" font-size="10.00" fill="#000000"> +sHeaderType</text>
<text text-anchor="middle" x="727" y="-305" font-family="Helvetica,sans-Serif" font-size="10.00" fill="#000000">+sSerializationMethod</text>
<text text-anchor="middle" x="727" y="-294" font-family="Helvetica,sans-Serif" font-size="10.00" fill="#000000">+sVersion</text>
</g>
<!-- Node15 -->
<g id="node14" class="node">
<title>Node15</title>
<polygon fill="none" stroke="#bfbfbf" points="889.5,-149.5 889.5,-206.5 927.5,-206.5 927.5,-149.5 889.5,-149.5"/>
<text text-anchor="middle" x="908.5" y="-194.5" font-family="Helvetica,sans-Serif" font-size="10.00" fill="#000000">bool</text>
<polyline fill="none" stroke="#bfbfbf" points="889.5,-187.5 927.5,-187.5 "/>
<text text-anchor="middle" x="908.5" y="-175.5" font-family="Helvetica,sans-Serif" font-size="10.00" fill="#000000"> </text>
<polyline fill="none" stroke="#bfbfbf" points="889.5,-168.5 927.5,-168.5 "/>
<text text-anchor="middle" x="908.5" y="-156.5" font-family="Helvetica,sans-Serif" font-size="10.00" fill="#000000"> </text>
</g>
<!-- Node15&#45;&gt;Node2 -->
<g id="edge23" class="edge">
<title>Node15&#45;&gt;Node2</title>
<path fill="none" stroke="#404040" d="M898.4631,-149.2743C892.8463,-135.2463 885.0446,-118.5217 875.5,-105 865.6087,-90.9871 852.8906,-77.4213 840.5621,-65.7245"/>
<polygon fill="none" stroke="#404040" points="840.5245,-65.6899 833.4015,-64.5656 831.6998,-57.5581 838.8227,-58.6824 840.5245,-65.6899"/>
<text text-anchor="middle" x="900" y="-79" font-family="Helvetica,sans-Serif" font-size="10.00" fill="#000000"> +mHasPayload</text>
</g>
</g>
</svg>
        <g id="navigator" transform="translate(0 0)" fill="#404254">
                <rect fill="#f2f5e9" fill-opacity="0.5" stroke="#606060" stroke-width=".5" x="0" y="0" width="60" height="60"/>
                <use id="zoomplus" xlink:href="#zoomPlus" x="17" y="9" onmousedown="handleZoom(evt,'in')"/>
                <use id="zoomminus" xlink:href="#zoomMin" x="42" y="9" onmousedown="handleZoom(evt,'out')"/>
                <use id="reset" xlink:href="#resetDef" x="30" y="36" onmousedown="handleReset()"/>
                <g id="arrowUp" xlink:href="#dirArrow" transform="translate(30 24)" onmousedown="handlePan(0,-1)">
                  <use xlink:href="#rim" fill="#404040">
                        <set attributeName="fill" to="#808080" begin="arrowUp.mouseover" end="arrowUp.mouseout"/>
                  </use>
                  <path fill="none" stroke="white" stroke-width="1.5" d="M0,-3.0v7 M-2.5,-0.5L0,-3.0L2.5,-0.5"/>
                </g>
                <g id="arrowRight" xlink:href="#dirArrow" transform="rotate(90) translate(36 -43)" onmousedown="handlePan(1,0)">
                  <use xlink:href="#rim" fill="#404040">
                        <set attributeName="fill" to="#808080" begin="arrowRight.mouseover" end="arrowRight.mouseout"/>
                  </use>
                  <path fill="none" stroke="white" stroke-width="1.5" d="M0,-3.0v7 M-2.5,-0.5L0,-3.0L2.5,-0.5"/>
                </g>
                <g id="arrowDown" xlink:href="#dirArrow" transform="rotate(180) translate(-30 -48)" onmousedown="handlePan(0,1)">
                  <use xlink:href="#rim" fill="#404040">
                        <set attributeName="fill" to="#808080" begin="arrowDown.mouseover" end="arrowDown.mouseout"/>
                  </use>
                  <path fill="none" stroke="white" stroke-width="1.5" d="M0,-3.0v7 M-2.5,-0.5L0,-3.0L2.5,-0.5"/>
                </g>
                <g id="arrowLeft" xlink:href="#dirArrow" transform="rotate(270) translate(-36 17)" onmousedown="handlePan(-1,0)">
                  <use xlink:href="#rim" fill="#404040">
                        <set attributeName="fill" to="#808080" begin="arrowLeft.mouseover" end="arrowLeft.mouseout"/>
                  </use>
                  <path fill="none" stroke="white" stroke-width="1.5" d="M0,-3.0v7 M-2.5,-0.5L0,-3.0L2.5,-0.5"/>
                </g>
        </g>
        <svg viewBox="0 0 15 15" width="100%" height="30px" preserveAspectRatio="xMaxYMin meet">
         <g id="arrow_out" transform="scale(0.3 0.3)">
          <a xlink:href="structo2_1_1phos_1_1PHOSBlockHeader__coll__graph_org.svg" target="_base">
           <rect id="button" ry="5" rx="5" y="6" x="6" height="38" width="38"
                fill="#f2f5e9" fill-opacity="0.5" stroke="#606060" stroke-width="1.0"/>
           <path id="arrow"
             d="M 11.500037,31.436501 C 11.940474,20.09759 22.043105,11.32322 32.158766,21.979434 L 37.068811,17.246167 C 37.068811,17.246167 37.088388,32 37.088388,32 L 22.160133,31.978069 C 22.160133,31.978069 26.997745,27.140456 26.997745,27.140456 C 18.528582,18.264221 13.291696,25.230495 11.500037,31.436501 z"
             style="fill:#404040;"/>
          </a>
         </g>
        </svg>
</svg>
