<?xml version="1.0" encoding="UTF-8" standalone="no"?>
<!DOCTYPE svg PUBLIC "-//W3C//DTD SVG 1.1//EN"
 "http://www.w3.org/Graphics/SVG/1.1/DTD/svg11.dtd">
<!-- Generated by graphviz version 2.40.1 (20161225.0304)
 -->
<!-- Title: o2::emcal::PublisherConf Pages: 1 -->
<!--zoomable 593 -->
<svg id="main" version="1.1" xmlns="http://www.w3.org/2000/svg" xmlns:xlink="http://www.w3.org/1999/xlink" xml:space="preserve" onload="init(evt)">
<style type="text/css"><![CDATA[
.edge:hover path { stroke: red; }
.edge:hover polygon { stroke: red; fill: red; }
]]></style>
<script type="text/javascript"><![CDATA[
var edges = document.getElementsByTagName('g');
if (edges && edges.length) {
  for (var i=0;i<edges.length;i++) {
    if (edges[i].id.substr(0,4)=='edge') {
      edges[i].setAttribute('class','edge');
    }
  }
}
]]></script>
        <defs>
                <circle id="rim" cx="0" cy="0" r="7"/>
                <circle id="rim2" cx="0" cy="0" r="3.5"/>
                <g id="zoomPlus">
                        <use xlink:href="#rim" fill="#404040">
                                <set attributeName="fill" to="#808080" begin="zoomplus.mouseover" end="zoomplus.mouseout"/>
                        </use>
                        <path d="M-4,0h8M0,-4v8" fill="none" stroke="white" stroke-width="1.5" pointer-events="none"/>
                </g>
                <g id="zoomMin">
                        <use xlink:href="#rim" fill="#404040">
                                <set attributeName="fill" to="#808080" begin="zoomminus.mouseover" end="zoomminus.mouseout"/>
                        </use>
                        <path d="M-4,0h8" fill="none" stroke="white" stroke-width="1.5" pointer-events="none"/>
                </g>
                <g id="dirArrow">
                        <path fill="none" stroke="white" stroke-width="1.5" d="M0,-3.0v7 M-2.5,-0.5L0,-3.0L2.5,-0.5"/>
                </g>
               <g id="resetDef">
                       <use xlink:href="#rim2" fill="#404040">
                               <set attributeName="fill" to="#808080" begin="reset.mouseover" end="reset.mouseout"/>
                       </use>
               </g>
        </defs>

<script type="text/javascript">
var viewWidth = 584;
var viewHeight = 593;
var sectionId = 'dynsection-0';
</script>
<script xlink:href="../../svgpan.js"/>
<svg id="graph" class="graph">
<g id="viewport">
<title>o2::emcal::PublisherConf</title>
<!-- Node1 -->
<g id="node1" class="node">
<title>Node1</title>
<polygon fill="#bfbfbf" stroke="#000000" points="169.495,-.5 169.495,-57.5 307.495,-57.5 307.495,-.5 169.495,-.5"/>
<text text-anchor="middle" x="238.495" y="-45.5" font-family="Helvetica,sans-Serif" font-size="10.00" fill="#000000">o2::emcal::PublisherConf</text>
<polyline fill="none" stroke="#000000" points="169.495,-38.5 307.495,-38.5 "/>
<text text-anchor="middle" x="238.495" y="-26.5" font-family="Helvetica,sans-Serif" font-size="10.00" fill="#000000"> </text>
<polyline fill="none" stroke="#000000" points="169.495,-19.5 307.495,-19.5 "/>
<text text-anchor="middle" x="238.495" y="-7.5" font-family="Helvetica,sans-Serif" font-size="10.00" fill="#000000"> </text>
</g>
<!-- Node2 -->
<g id="node2" class="node">
<title>Node2</title>
<g id="a_node2"><a xlink:href="../../d8/dc3/structo2_1_1framework_1_1OutputSpec.html" target="_top" xlink:title="{o2::framework::OutputSpec\n||+ OutputSpec()\l+ OutputSpec()\l+ OutputSpec()\l+ OutputSpec()\l+ OutputSpec()\l+ OutputSpec()\l+ OutputSpec()\l+ OutputSpec()\l+ operator==()\l}">
<polygon fill="none" stroke="#000000" points="163.495,-116.5 163.495,-261.5 313.495,-261.5 313.495,-116.5 163.495,-116.5"/>
<text text-anchor="middle" x="238.495" y="-249.5" font-family="Helvetica,sans-Serif" font-size="10.00" fill="#000000">o2::framework::OutputSpec</text>
<polyline fill="none" stroke="#000000" points="163.495,-242.5 313.495,-242.5 "/>
<text text-anchor="middle" x="238.495" y="-230.5" font-family="Helvetica,sans-Serif" font-size="10.00" fill="#000000"> </text>
<polyline fill="none" stroke="#000000" points="163.495,-223.5 313.495,-223.5 "/>
<text text-anchor="start" x="171.495" y="-211.5" font-family="Helvetica,sans-Serif" font-size="10.00" fill="#000000">+ OutputSpec()</text>
<text text-anchor="start" x="171.495" y="-200.5" font-family="Helvetica,sans-Serif" font-size="10.00" fill="#000000">+ OutputSpec()</text>
<text text-anchor="start" x="171.495" y="-189.5" font-family="Helvetica,sans-Serif" font-size="10.00" fill="#000000">+ OutputSpec()</text>
<text text-anchor="start" x="171.495" y="-178.5" font-family="Helvetica,sans-Serif" font-size="10.00" fill="#000000">+ OutputSpec()</text>
<text text-anchor="start" x="171.495" y="-167.5" font-family="Helvetica,sans-Serif" font-size="10.00" fill="#000000">+ OutputSpec()</text>
<text text-anchor="start" x="171.495" y="-156.5" font-family="Helvetica,sans-Serif" font-size="10.00" fill="#000000">+ OutputSpec()</text>
<text text-anchor="start" x="171.495" y="-145.5" font-family="Helvetica,sans-Serif" font-size="10.00" fill="#000000">+ OutputSpec()</text>
<text text-anchor="start" x="171.495" y="-134.5" font-family="Helvetica,sans-Serif" font-size="10.00" fill="#000000">+ OutputSpec()</text>
<text text-anchor="start" x="171.495" y="-123.5" font-family="Helvetica,sans-Serif" font-size="10.00" fill="#000000">+ operator==()</text>
</a>
</g>
</g>
<!-- Node2&#45;&gt;Node1 -->
<g id="edge1" class="edge">
<title>Node2&#45;&gt;Node1</title>
<path fill="none" stroke="#404040" d="M238.495,-116.4902C238.495,-100.5375 238.495,-84.1839 238.495,-69.997"/>
<polygon fill="none" stroke="#404040" points="238.4951,-69.651 234.4951,-63.651 238.495,-57.651 242.4951,-63.6509 238.4951,-69.651"/>
<text text-anchor="middle" x="269.495" y="-90" font-family="Helvetica,sans-Serif" font-size="10.00" fill="#000000"> +mcoutput</text>
<text text-anchor="middle" x="269.495" y="-79" font-family="Helvetica,sans-Serif" font-size="10.00" fill="#000000">+dataoutput</text>
</g>
<!-- Node3 -->
<g id="node3" class="node">
<title>Node3</title>
<polygon fill="none" stroke="#bfbfbf" points="39.495,-384 39.495,-441 127.495,-441 127.495,-384 39.495,-384"/>
<text text-anchor="middle" x="83.495" y="-429" font-family="Helvetica,sans-Serif" font-size="10.00" fill="#000000">enum Lifetime</text>
<polyline fill="none" stroke="#bfbfbf" points="39.495,-422 127.495,-422 "/>
<text text-anchor="middle" x="83.495" y="-410" font-family="Helvetica,sans-Serif" font-size="10.00" fill="#000000"> </text>
<polyline fill="none" stroke="#bfbfbf" points="39.495,-403 127.495,-403 "/>
<text text-anchor="middle" x="83.495" y="-391" font-family="Helvetica,sans-Serif" font-size="10.00" fill="#000000"> </text>
</g>
<!-- Node3&#45;&gt;Node2 -->
<g id="edge2" class="edge">
<title>Node3&#45;&gt;Node2</title>
<path fill="none" stroke="#404040" d="M103.4413,-383.7388C123.039,-355.4802 153.8855,-311.0016 181.1538,-271.6824"/>
<polygon fill="none" stroke="#404040" points="181.1617,-271.671 181.294,-264.4611 188.0003,-261.8102 187.8679,-269.0201 181.1617,-271.671"/>
<text text-anchor="middle" x="199.495" y="-312" font-family="Helvetica,sans-Serif" font-size="10.00" fill="#000000"> +lifetime</text>
</g>
<!-- Node4 -->
<g id="node4" class="node">
<title>Node4</title>
<g id="a_node4"><a xlink:href="../../de/d1b/structo2_1_1framework_1_1OutputLabel.html" target="_top" xlink:title="{o2::framework::OutputLabel\n||}">
<polygon fill="none" stroke="#000000" points="349.995,-384 349.995,-441 502.995,-441 502.995,-384 349.995,-384"/>
<text text-anchor="middle" x="426.495" y="-429" font-family="Helvetica,sans-Serif" font-size="10.00" fill="#000000">o2::framework::OutputLabel</text>
<polyline fill="none" stroke="#000000" points="349.995,-422 502.995,-422 "/>
<text text-anchor="middle" x="426.495" y="-410" font-family="Helvetica,sans-Serif" font-size="10.00" fill="#000000"> </text>
<polyline fill="none" stroke="#000000" points="349.995,-403 502.995,-403 "/>
<text text-anchor="middle" x="426.495" y="-391" font-family="Helvetica,sans-Serif" font-size="10.00" fill="#000000"> </text>
</a>
</g>
</g>
<!-- Node4&#45;&gt;Node2 -->
<g id="edge3" class="edge">
<title>Node4&#45;&gt;Node2</title>
<path fill="none" stroke="#404040" d="M402.3022,-383.7388C378.4313,-355.3604 340.801,-310.6243 307.6243,-271.1829"/>
<polygon fill="none" stroke="#404040" points="307.4649,-270.9934 300.5416,-268.9767 299.7403,-261.8102 306.6637,-263.827 307.4649,-270.9934"/>
<text text-anchor="middle" x="394.495" y="-312" font-family="Helvetica,sans-Serif" font-size="10.00" fill="#000000"> +binding</text>
</g>
<!-- Node5 -->
<g id="node5" class="node">
<title>Node5</title>
<polygon fill="none" stroke="#bfbfbf" points="411.995,-527.5 411.995,-584.5 440.995,-584.5 440.995,-527.5 411.995,-527.5"/>
<text text-anchor="middle" x="426.495" y="-572.5" font-family="Helvetica,sans-Serif" font-size="10.00" fill="#000000">int</text>
<polyline fill="none" stroke="#bfbfbf" points="411.995,-565.5 440.995,-565.5 "/>
<text text-anchor="middle" x="426.495" y="-553.5" font-family="Helvetica,sans-Serif" font-size="10.00" fill="#000000"> </text>
<polyline fill="none" stroke="#bfbfbf" points="411.995,-546.5 440.995,-546.5 "/>
<text text-anchor="middle" x="426.495" y="-534.5" font-family="Helvetica,sans-Serif" font-size="10.00" fill="#000000"> </text>
</g>
<!-- Node5&#45;&gt;Node1 -->
<g id="edge8" class="edge">
<title>Node5&#45;&gt;Node1</title>
<path fill="none" stroke="#404040" d="M411.7846,-554.7065C345.9767,-548.5912 79.6716,-520.2397 30.495,-458 -70.8781,-329.6984 108.0694,-143.9445 195.0659,-65.8122"/>
<polygon fill="none" stroke="#404040" points="195.2188,-65.6764 197.049,-58.7014 204.1914,-57.7081 202.3612,-64.6831 195.2188,-65.6764"/>
<text text-anchor="middle" x="69.495" y="-317.5" font-family="Helvetica,sans-Serif" font-size="10.00" fill="#000000"> +defaultTreeName</text>
<text text-anchor="middle" x="69.495" y="-306.5" font-family="Helvetica,sans-Serif" font-size="10.00" fill="#000000">+processName</text>
</g>
<!-- Node5&#45;&gt;Node4 -->
<g id="edge4" class="edge">
<title>Node5&#45;&gt;Node4</title>
<path fill="none" stroke="#404040" d="M426.495,-527.3055C426.495,-506.0904 426.495,-476.9058 426.495,-453.2714"/>
<polygon fill="none" stroke="#404040" points="426.4951,-453.1447 422.4951,-447.1448 426.495,-441.1447 430.4951,-447.1447 426.4951,-453.1447"/>
<text text-anchor="middle" x="445.995" y="-490" font-family="Helvetica,sans-Serif" font-size="10.00" fill="#000000"> +value</text>
</g>
<!-- Node7 -->
<g id="node7" class="node">
<title>Node7</title>
<g id="a_node7"><a xlink:href="../../d2/d27/structo2_1_1emcal_1_1PublisherConf_1_1BranchOptionConfig.html" target="_top" xlink:title="{o2::emcal::PublisherConf\l::BranchOptionConfig\n||}">
<polygon fill="none" stroke="#000000" points="438.495,-280.5 438.495,-348.5 576.495,-348.5 576.495,-280.5 438.495,-280.5"/>
<text text-anchor="start" x="446.495" y="-336.5" font-family="Helvetica,sans-Serif" font-size="10.00" fill="#000000">o2::emcal::PublisherConf</text>
<text text-anchor="middle" x="507.495" y="-325.5" font-family="Helvetica,sans-Serif" font-size="10.00" fill="#000000">::BranchOptionConfig</text>
<polyline fill="none" stroke="#000000" points="438.495,-318.5 576.495,-318.5 "/>
<text text-anchor="middle" x="507.495" y="-306.5" font-family="Helvetica,sans-Serif" font-size="10.00" fill="#000000"> </text>
<polyline fill="none" stroke="#000000" points="438.495,-299.5 576.495,-299.5 "/>
<text text-anchor="middle" x="507.495" y="-287.5" font-family="Helvetica,sans-Serif" font-size="10.00" fill="#000000"> </text>
</a>
</g>
</g>
<!-- Node5&#45;&gt;Node7 -->
<g id="edge7" class="edge">
<title>Node5&#45;&gt;Node7</title>
<path fill="none" stroke="#404040" d="M441.0368,-545.3358C461.6768,-529.1733 498.5142,-496.2713 512.495,-458 523.8206,-426.9973 522.0932,-389.6771 517.7855,-360.8678"/>
<polygon fill="none" stroke="#404040" points="517.7269,-360.5192 512.7876,-355.2654 515.7375,-348.6853 520.6769,-353.9391 517.7269,-360.5192"/>
<text text-anchor="middle" x="524.995" y="-501" font-family="Helvetica,sans-Serif" font-size="10.00" fill="#000000"> +option</text>
<text text-anchor="middle" x="524.995" y="-490" font-family="Helvetica,sans-Serif" font-size="10.00" fill="#000000">+defval</text>
<text text-anchor="middle" x="524.995" y="-479" font-family="Helvetica,sans-Serif" font-size="10.00" fill="#000000">+help</text>
</g>
<!-- Node6 -->
<g id="node6" class="node">
<title>Node6</title>
<polygon fill="none" stroke="#bfbfbf" points="145.495,-367.5 145.495,-457.5 331.495,-457.5 331.495,-367.5 145.495,-367.5"/>
<text text-anchor="start" x="153.495" y="-445.5" font-family="Helvetica,sans-Serif" font-size="10.00" fill="#000000">variant&lt; o2::framework</text>
<text text-anchor="start" x="153.495" y="-434.5" font-family="Helvetica,sans-Serif" font-size="10.00" fill="#000000">::ConcreteDataMatcher,</text>
<text text-anchor="start" x="153.495" y="-423.5" font-family="Helvetica,sans-Serif" font-size="10.00" fill="#000000"> o2::framework::ConcreteDataType</text>
<text text-anchor="middle" x="238.495" y="-412.5" font-family="Helvetica,sans-Serif" font-size="10.00" fill="#000000">Matcher &gt;</text>
<polyline fill="none" stroke="#bfbfbf" points="145.495,-405.5 331.495,-405.5 "/>
<text text-anchor="middle" x="238.495" y="-393.5" font-family="Helvetica,sans-Serif" font-size="10.00" fill="#000000"> </text>
<polyline fill="none" stroke="#bfbfbf" points="145.495,-386.5 331.495,-386.5 "/>
<text text-anchor="middle" x="238.495" y="-374.5" font-family="Helvetica,sans-Serif" font-size="10.00" fill="#000000"> </text>
</g>
<!-- Node6&#45;&gt;Node2 -->
<g id="edge5" class="edge">
<title>Node6&#45;&gt;Node2</title>
<path fill="none" stroke="#404040" d="M238.495,-367.2714C238.495,-340.5839 238.495,-305.9381 238.495,-274.2948"/>
<polygon fill="none" stroke="#404040" points="238.4951,-273.8778 234.4951,-267.8779 238.495,-261.8778 242.4951,-267.8778 238.4951,-273.8778"/>
<text text-anchor="middle" x="264.495" y="-312" font-family="Helvetica,sans-Serif" font-size="10.00" fill="#000000"> +matcher</text>
</g>
<!-- Node7&#45;&gt;Node1 -->
<g id="edge6" class="edge">
<title>Node7&#45;&gt;Node1</title>
<path fill="none" stroke="#404040" d="M482.6122,-280.1977C446.4977,-231.6751 376.0235,-141.6042 304.495,-76 300.4795,-72.3171 296.1682,-68.6727 291.7425,-65.1394"/>
<polygon fill="none" stroke="#404040" points="291.4578,-64.9207 284.2628,-64.4376 281.9415,-57.6103 289.1365,-58.0934 291.4578,-64.9207"/>
<text text-anchor="middle" x="499.495" y="-192" font-family="Helvetica,sans-Serif" font-size="10.00" fill="#000000"> +mcbranch</text>
<text text-anchor="middle" x="499.495" y="-181" font-family="Helvetica,sans-Serif" font-size="10.00" fill="#000000">+databranch</text>
</g>
</g>
</svg>
        <g id="navigator" transform="translate(0 0)" fill="#404254">
                <rect fill="#f2f5e9" fill-opacity="0.5" stroke="#606060" stroke-width=".5" x="0" y="0" width="60" height="60"/>
                <use id="zoomplus" xlink:href="#zoomPlus" x="17" y="9" onmousedown="handleZoom(evt,'in')"/>
                <use id="zoomminus" xlink:href="#zoomMin" x="42" y="9" onmousedown="handleZoom(evt,'out')"/>
                <use id="reset" xlink:href="#resetDef" x="30" y="36" onmousedown="handleReset()"/>
                <g id="arrowUp" xlink:href="#dirArrow" transform="translate(30 24)" onmousedown="handlePan(0,-1)">
                  <use xlink:href="#rim" fill="#404040">
                        <set attributeName="fill" to="#808080" begin="arrowUp.mouseover" end="arrowUp.mouseout"/>
                  </use>
                  <path fill="none" stroke="white" stroke-width="1.5" d="M0,-3.0v7 M-2.5,-0.5L0,-3.0L2.5,-0.5"/>
                </g>
                <g id="arrowRight" xlink:href="#dirArrow" transform="rotate(90) translate(36 -43)" onmousedown="handlePan(1,0)">
                  <use xlink:href="#rim" fill="#404040">
                        <set attributeName="fill" to="#808080" begin="arrowRight.mouseover" end="arrowRight.mouseout"/>
                  </use>
                  <path fill="none" stroke="white" stroke-width="1.5" d="M0,-3.0v7 M-2.5,-0.5L0,-3.0L2.5,-0.5"/>
                </g>
                <g id="arrowDown" xlink:href="#dirArrow" transform="rotate(180) translate(-30 -48)" onmousedown="handlePan(0,1)">
                  <use xlink:href="#rim" fill="#404040">
                        <set attributeName="fill" to="#808080" begin="arrowDown.mouseover" end="arrowDown.mouseout"/>
                  </use>
                  <path fill="none" stroke="white" stroke-width="1.5" d="M0,-3.0v7 M-2.5,-0.5L0,-3.0L2.5,-0.5"/>
                </g>
                <g id="arrowLeft" xlink:href="#dirArrow" transform="rotate(270) translate(-36 17)" onmousedown="handlePan(-1,0)">
                  <use xlink:href="#rim" fill="#404040">
                        <set attributeName="fill" to="#808080" begin="arrowLeft.mouseover" end="arrowLeft.mouseout"/>
                  </use>
                  <path fill="none" stroke="white" stroke-width="1.5" d="M0,-3.0v7 M-2.5,-0.5L0,-3.0L2.5,-0.5"/>
                </g>
        </g>
        <svg viewBox="0 0 15 15" width="100%" height="30px" preserveAspectRatio="xMaxYMin meet">
         <g id="arrow_out" transform="scale(0.3 0.3)">
          <a xlink:href="structo2_1_1emcal_1_1PublisherConf__coll__graph_org.svg" target="_base">
           <rect id="button" ry="5" rx="5" y="6" x="6" height="38" width="38"
                fill="#f2f5e9" fill-opacity="0.5" stroke="#606060" stroke-width="1.0"/>
           <path id="arrow"
             d="M 11.500037,31.436501 C 11.940474,20.09759 22.043105,11.32322 32.158766,21.979434 L 37.068811,17.246167 C 37.068811,17.246167 37.088388,32 37.088388,32 L 22.160133,31.978069 C 22.160133,31.978069 26.997745,27.140456 26.997745,27.140456 C 18.528582,18.264221 13.291696,25.230495 11.500037,31.436501 z"
             style="fill:#404040;"/>
          </a>
         </g>
        </svg>
</svg>
