<?xml version="1.0" encoding="UTF-8" standalone="no"?>
<!DOCTYPE svg PUBLIC "-//W3C//DTD SVG 1.1//EN"
 "http://www.w3.org/Graphics/SVG/1.1/DTD/svg11.dtd">
<!-- Generated by graphviz version 2.40.1 (20161225.0304)
 -->
<!-- Title: /home/travis/build/AliceO2Group/AliceO2/Detectors/MUON/MID/Raw/src/CRUBareDecoder.cxx Pages: 1 -->
<svg width="1219pt" height="296pt"
 viewBox="0.00 0.00 1218.73 296.00" xmlns="http://www.w3.org/2000/svg" xmlns:xlink="http://www.w3.org/1999/xlink">
<g id="graph0" class="graph" transform="scale(1 1) rotate(0) translate(4 292)">
<title>/home/travis/build/AliceO2Group/AliceO2/Detectors/MUON/MID/Raw/src/CRUBareDecoder.cxx</title>
<!-- Node0 -->
<g id="node1" class="node">
<title>Node0</title>
<polygon fill="#bfbfbf" stroke="#000000" points="197.2339,-235.5 197.2339,-287.5 343.2339,-287.5 343.2339,-235.5 197.2339,-235.5"/>
<text text-anchor="start" x="205.2339" y="-275.5" font-family="Helvetica,sans-Serif" font-size="10.00" fill="#000000">/home/travis/build</text>
<text text-anchor="start" x="205.2339" y="-264.5" font-family="Helvetica,sans-Serif" font-size="10.00" fill="#000000">/AliceO2Group/AliceO2</text>
<text text-anchor="start" x="205.2339" y="-253.5" font-family="Helvetica,sans-Serif" font-size="10.00" fill="#000000">/Detectors/MUON/MID/Raw</text>
<text text-anchor="middle" x="270.2339" y="-242.5" font-family="Helvetica,sans-Serif" font-size="10.00" fill="#000000">/src/CRUBareDecoder.cxx</text>
</g>
<!-- Node1 -->
<g id="node2" class="node">
<title>Node1</title>
<g id="a_node2"><a xlink:href="../../df/dcf/CRUBareDecoder_8h.html" target="_top" xlink:title="MID CRU core decoder. ">
<polygon fill="none" stroke="#000000" points="419.2339,-179.5 419.2339,-198.5 571.2339,-198.5 571.2339,-179.5 419.2339,-179.5"/>
<text text-anchor="middle" x="495.2339" y="-186.5" font-family="Helvetica,sans-Serif" font-size="10.00" fill="#000000">MIDRaw/CRUBareDecoder.h</text>
</a>
</g>
</g>
<!-- Node0&#45;&gt;Node1 -->
<g id="edge1" class="edge">
<title>Node0&#45;&gt;Node1</title>
<path fill="none" stroke="#191970" d="M343.285,-237.9613C380.7998,-225.8732 425.0157,-211.6259 456.0479,-201.6266"/>
<polygon fill="#191970" stroke="#191970" points="457.1902,-204.9358 465.6348,-198.5375 455.0433,-198.2732 457.1902,-204.9358"/>
</g>
<!-- Node19 -->
<g id="node20" class="node">
<title>Node19</title>
<g id="a_node20"><a xlink:href="../../d7/d1a/RawInfo_8h.html" target="_top" xlink:title="Raw data format MID. ">
<polygon fill="none" stroke="#000000" points="174.7339,-179.5 174.7339,-198.5 239.7339,-198.5 239.7339,-179.5 174.7339,-179.5"/>
<text text-anchor="middle" x="207.2339" y="-186.5" font-family="Helvetica,sans-Serif" font-size="10.00" fill="#000000">RawInfo.h</text>
</a>
</g>
</g>
<!-- Node0&#45;&gt;Node19 -->
<g id="edge30" class="edge">
<title>Node0&#45;&gt;Node19</title>
<path fill="none" stroke="#191970" d="M247.4895,-235.3258C239.0494,-225.613 229.6982,-214.8518 222.1346,-206.1476"/>
<polygon fill="#191970" stroke="#191970" points="224.7198,-203.7866 215.5187,-198.534 219.436,-208.3781 224.7198,-203.7866"/>
</g>
<!-- Node2 -->
<g id="node3" class="node">
<title>Node2</title>
<polygon fill="none" stroke="#bfbfbf" points="394.2339,-.5 394.2339,-19.5 444.2339,-19.5 444.2339,-.5 394.2339,-.5"/>
<text text-anchor="middle" x="419.2339" y="-7.5" font-family="Helvetica,sans-Serif" font-size="10.00" fill="#000000">cstdint</text>
</g>
<!-- Node1&#45;&gt;Node2 -->
<g id="edge2" class="edge">
<title>Node1&#45;&gt;Node2</title>
<path fill="none" stroke="#191970" d="M419.0076,-187.0171C292.8905,-182.9415 52.063,-171.4863 26.2339,-143 -2.324,-111.5041 22.5518,-86.4925 72.2339,-56 123.9882,-24.2358 306.4117,-14.0318 383.9458,-11.0838"/>
<polygon fill="#191970" stroke="#191970" points="384.2985,-14.5734 394.1655,-10.7145 384.0456,-7.578 384.2985,-14.5734"/>
</g>
<!-- Node3 -->
<g id="node4" class="node">
<title>Node3</title>
<polygon fill="none" stroke="#bfbfbf" points="547.7339,-62 547.7339,-81 594.7339,-81 594.7339,-62 547.7339,-62"/>
<text text-anchor="middle" x="571.2339" y="-69" font-family="Helvetica,sans-Serif" font-size="10.00" fill="#000000">vector</text>
</g>
<!-- Node1&#45;&gt;Node3 -->
<g id="edge3" class="edge">
<title>Node1&#45;&gt;Node3</title>
<path fill="none" stroke="#191970" d="M550.6223,-179.4924C589.397,-171.5774 636.3176,-159.0259 648.2339,-143 665.3972,-119.9176 632.2074,-98.1449 604.1806,-84.8251"/>
<polygon fill="#191970" stroke="#191970" points="605.5069,-81.5835 594.9539,-80.6423 602.6166,-87.959 605.5069,-81.5835"/>
</g>
<!-- Node4 -->
<g id="node5" class="node">
<title>Node4</title>
<polygon fill="none" stroke="#bfbfbf" points="817.2339,-62 817.2339,-81 865.2339,-81 865.2339,-62 817.2339,-62"/>
<text text-anchor="middle" x="841.2339" y="-69" font-family="Helvetica,sans-Serif" font-size="10.00" fill="#000000">gsl/gsl</text>
</g>
<!-- Node1&#45;&gt;Node4 -->
<g id="edge4" class="edge">
<title>Node1&#45;&gt;Node4</title>
<path fill="none" stroke="#191970" d="M571.3968,-182.7105C662.1053,-174.5422 803.762,-159.3788 822.2339,-143 836.7574,-130.1223 840.7549,-107.5316 841.5927,-91.1836"/>
<polygon fill="#191970" stroke="#191970" points="845.0942,-91.1151 841.7585,-81.0591 838.0952,-91.0004 845.0942,-91.1151"/>
</g>
<!-- Node5 -->
<g id="node6" class="node">
<title>Node5</title>
<g id="a_node6"><a xlink:href="../../d2/df9/MUON_2MID_2include_2DataFormatsMID_2ROFRecord_8h.html" target="_top" xlink:title="Definition of the MID event record. ">
<polygon fill="none" stroke="#000000" points="879.7339,-123.5 879.7339,-142.5 1042.7339,-142.5 1042.7339,-123.5 879.7339,-123.5"/>
<text text-anchor="middle" x="961.2339" y="-130.5" font-family="Helvetica,sans-Serif" font-size="10.00" fill="#000000">DataFormatsMID/ROFRecord.h</text>
</a>
</g>
</g>
<!-- Node1&#45;&gt;Node5 -->
<g id="edge5" class="edge">
<title>Node1&#45;&gt;Node5</title>
<path fill="none" stroke="#191970" d="M571.4021,-179.8467C653.6898,-169.9581 784.6885,-154.2158 871.8056,-143.7468"/>
<polygon fill="#191970" stroke="#191970" points="872.4304,-147.1969 881.9414,-142.5287 871.5952,-140.2469 872.4304,-147.1969"/>
</g>
<!-- Node11 -->
<g id="node12" class="node">
<title>Node11</title>
<g id="a_node12"><a xlink:href="../../db/d83/CrateMapper_8h.html" target="_top" xlink:title="Mapper to convert the RO Ids to a format suitable for O2. ">
<polygon fill="none" stroke="#000000" points="35.2339,-123.5 35.2339,-142.5 165.2339,-142.5 165.2339,-123.5 35.2339,-123.5"/>
<text text-anchor="middle" x="100.2339" y="-130.5" font-family="Helvetica,sans-Serif" font-size="10.00" fill="#000000">MIDRaw/CrateMapper.h</text>
</a>
</g>
</g>
<!-- Node1&#45;&gt;Node11 -->
<g id="edge12" class="edge">
<title>Node1&#45;&gt;Node11</title>
<path fill="none" stroke="#191970" d="M427.7798,-179.4369C357.7011,-169.5017 248.2986,-153.9914 175.4666,-143.6659"/>
<polygon fill="#191970" stroke="#191970" points="175.8326,-140.1829 165.4403,-142.2444 174.8499,-147.1136 175.8326,-140.1829"/>
</g>
<!-- Node13 -->
<g id="node14" class="node">
<title>Node13</title>
<g id="a_node14"><a xlink:href="../../d2/da5/CrateParameters_8h.html" target="_top" xlink:title="MID RO crate parameters. ">
<polygon fill="none" stroke="#000000" points="183.2339,-123.5 183.2339,-142.5 333.2339,-142.5 333.2339,-123.5 183.2339,-123.5"/>
<text text-anchor="middle" x="258.2339" y="-130.5" font-family="Helvetica,sans-Serif" font-size="10.00" fill="#000000">MIDRaw/CrateParameters.h</text>
</a>
</g>
</g>
<!-- Node1&#45;&gt;Node13 -->
<g id="edge15" class="edge">
<title>Node1&#45;&gt;Node13</title>
<path fill="none" stroke="#191970" d="M454.7615,-179.4369C414.286,-169.8731 351.9473,-155.1432 308.3637,-144.845"/>
<polygon fill="#191970" stroke="#191970" points="309.0764,-141.4171 298.5395,-142.5237 307.4666,-148.2295 309.0764,-141.4171"/>
</g>
<!-- Node15 -->
<g id="node16" class="node">
<title>Node15</title>
<g id="a_node16"><a xlink:href="../../de/d54/ELinkDecoder_8h.html" target="_top" xlink:title="MID e&#45;link decoder. ">
<polygon fill="none" stroke="#000000" points="505.2339,-123.5 505.2339,-142.5 639.2339,-142.5 639.2339,-123.5 505.2339,-123.5"/>
<text text-anchor="middle" x="572.2339" y="-130.5" font-family="Helvetica,sans-Serif" font-size="10.00" fill="#000000">MIDRaw/ELinkDecoder.h</text>
</a>
</g>
</g>
<!-- Node1&#45;&gt;Node15 -->
<g id="edge18" class="edge">
<title>Node1&#45;&gt;Node15</title>
<path fill="none" stroke="#191970" d="M508.6463,-179.2455C520.2397,-170.814 537.2087,-158.4729 550.7018,-148.6598"/>
<polygon fill="#191970" stroke="#191970" points="552.9465,-151.355 558.9753,-142.6427 548.8293,-145.6938 552.9465,-151.355"/>
</g>
<!-- Node16 -->
<g id="node17" class="node">
<title>Node16</title>
<g id="a_node17"><a xlink:href="../../d3/d4a/LocalBoardRO_8h.html" target="_top" xlink:title="Structure to store the FEE local board information. ">
<polygon fill="none" stroke="#000000" points="351.2339,-123.5 351.2339,-142.5 487.2339,-142.5 487.2339,-123.5 351.2339,-123.5"/>
<text text-anchor="middle" x="419.2339" y="-130.5" font-family="Helvetica,sans-Serif" font-size="10.00" fill="#000000">MIDRaw/LocalBoardRO.h</text>
</a>
</g>
</g>
<!-- Node1&#45;&gt;Node16 -->
<g id="edge21" class="edge">
<title>Node1&#45;&gt;Node16</title>
<path fill="none" stroke="#191970" d="M481.9958,-179.2455C470.553,-170.814 453.8043,-158.4729 440.4865,-148.6598"/>
<polygon fill="#191970" stroke="#191970" points="442.4472,-145.757 432.3204,-142.6427 438.2948,-151.3924 442.4472,-145.757"/>
</g>
<!-- Node17 -->
<g id="node18" class="node">
<title>Node17</title>
<g id="a_node18"><a xlink:href="../../db/d21/MUON_2MID_2Raw_2include_2MIDRaw_2RawBuffer_8h.html" target="_top" xlink:title="Handler of the RAW buffer. ">
<polygon fill="none" stroke="#000000" points="695.2339,-123.5 695.2339,-142.5 813.2339,-142.5 813.2339,-123.5 695.2339,-123.5"/>
<text text-anchor="middle" x="754.2339" y="-130.5" font-family="Helvetica,sans-Serif" font-size="10.00" fill="#000000">MIDRaw/RawBuffer.h</text>
</a>
</g>
</g>
<!-- Node1&#45;&gt;Node17 -->
<g id="edge24" class="edge">
<title>Node1&#45;&gt;Node17</title>
<path fill="none" stroke="#191970" d="M539.4633,-179.4369C583.9754,-169.8127 652.683,-154.957 700.3508,-144.6504"/>
<polygon fill="#191970" stroke="#191970" points="701.1525,-148.058 710.187,-142.5237 699.6731,-141.2161 701.1525,-148.058"/>
</g>
<!-- Node6 -->
<g id="node7" class="node">
<title>Node6</title>
<g id="a_node7"><a xlink:href="../../d9/d80/InteractionRecord_8h.html" target="_top" xlink:title="CommonDataFormat/Interaction\lRecord.h">
<polygon fill="none" stroke="#000000" points="883.2339,-56.5 883.2339,-86.5 1057.2339,-86.5 1057.2339,-56.5 883.2339,-56.5"/>
<text text-anchor="start" x="891.2339" y="-74.5" font-family="Helvetica,sans-Serif" font-size="10.00" fill="#000000">CommonDataFormat/Interaction</text>
<text text-anchor="middle" x="970.2339" y="-63.5" font-family="Helvetica,sans-Serif" font-size="10.00" fill="#000000">Record.h</text>
</a>
</g>
</g>
<!-- Node5&#45;&gt;Node6 -->
<g id="edge6" class="edge">
<title>Node5&#45;&gt;Node6</title>
<path fill="none" stroke="#191970" d="M962.6402,-123.3906C963.6891,-116.2234 965.1725,-106.0862 966.5504,-96.671"/>
<polygon fill="#191970" stroke="#191970" points="970.0473,-96.946 968.0323,-86.5446 963.1211,-95.9324 970.0473,-96.946"/>
</g>
<!-- Node6&#45;&gt;Node2 -->
<g id="edge10" class="edge">
<title>Node6&#45;&gt;Node2</title>
<path fill="none" stroke="#191970" d="M883.1461,-57.2078C880.1408,-56.7883 877.1633,-56.3842 874.2339,-56 718.2247,-35.5376 531.085,-19.1894 454.5074,-12.8483"/>
<polygon fill="#191970" stroke="#191970" points="454.7039,-9.3528 444.4504,-12.0206 454.1296,-16.3292 454.7039,-9.3528"/>
</g>
<!-- Node7 -->
<g id="node8" class="node">
<title>Node7</title>
<polygon fill="none" stroke="#bfbfbf" points="1151.7339,-.5 1151.7339,-19.5 1210.7339,-19.5 1210.7339,-.5 1151.7339,-.5"/>
<text text-anchor="middle" x="1181.2339" y="-7.5" font-family="Helvetica,sans-Serif" font-size="10.00" fill="#000000">Rtypes.h</text>
</g>
<!-- Node6&#45;&gt;Node7 -->
<g id="edge7" class="edge">
<title>Node6&#45;&gt;Node7</title>
<path fill="none" stroke="#191970" d="M1021.8504,-56.4554C1058.7796,-45.6917 1107.7495,-31.4185 1141.6167,-21.5472"/>
<polygon fill="#191970" stroke="#191970" points="1142.9912,-24.7923 1151.6123,-18.6338 1141.0323,-18.0719 1142.9912,-24.7923"/>
</g>
<!-- Node8 -->
<g id="node9" class="node">
<title>Node8</title>
<polygon fill="none" stroke="#bfbfbf" points="810.7339,-.5 810.7339,-19.5 859.7339,-19.5 859.7339,-.5 810.7339,-.5"/>
<text text-anchor="middle" x="835.2339" y="-7.5" font-family="Helvetica,sans-Serif" font-size="10.00" fill="#000000">iosfwd</text>
</g>
<!-- Node6&#45;&gt;Node8 -->
<g id="edge8" class="edge">
<title>Node6&#45;&gt;Node8</title>
<path fill="none" stroke="#191970" d="M937.2092,-56.4554C915.2769,-46.464 886.7067,-33.4487 865.3887,-23.7372"/>
<polygon fill="#191970" stroke="#191970" points="866.7054,-20.4909 856.1542,-19.5303 863.8034,-26.8611 866.7054,-20.4909"/>
</g>
<!-- Node9 -->
<g id="node10" class="node">
<title>Node9</title>
<polygon fill="none" stroke="#bfbfbf" points="877.7339,-.5 877.7339,-19.5 924.7339,-19.5 924.7339,-.5 877.7339,-.5"/>
<text text-anchor="middle" x="901.2339" y="-7.5" font-family="Helvetica,sans-Serif" font-size="10.00" fill="#000000">cmath</text>
</g>
<!-- Node6&#45;&gt;Node9 -->
<g id="edge9" class="edge">
<title>Node6&#45;&gt;Node9</title>
<path fill="none" stroke="#191970" d="M953.1778,-56.2977C943.101,-47.3163 930.3299,-35.9334 919.9728,-26.702"/>
<polygon fill="#191970" stroke="#191970" points="922.0757,-23.8879 912.2817,-19.8469 917.4181,-29.1135 922.0757,-23.8879"/>
</g>
<!-- Node10 -->
<g id="node11" class="node">
<title>Node10</title>
<g id="a_node11"><a xlink:href="../../d4/dc6/LHCConstants_8h.html" target="_top" xlink:title="Header to collect LHC related constants. ">
<polygon fill="none" stroke="#000000" points="943.2339,-.5 943.2339,-19.5 1133.2339,-19.5 1133.2339,-.5 943.2339,-.5"/>
<text text-anchor="middle" x="1038.2339" y="-7.5" font-family="Helvetica,sans-Serif" font-size="10.00" fill="#000000">CommonConstants/LHCConstants.h</text>
</a>
</g>
</g>
<!-- Node6&#45;&gt;Node10 -->
<g id="edge11" class="edge">
<title>Node6&#45;&gt;Node10</title>
<path fill="none" stroke="#191970" d="M987.0429,-56.2977C996.9737,-47.3163 1009.5596,-35.9334 1019.7667,-26.702"/>
<polygon fill="#191970" stroke="#191970" points="1022.2773,-29.1505 1027.3463,-19.8469 1017.5819,-23.9588 1022.2773,-29.1505"/>
</g>
<!-- Node11&#45;&gt;Node2 -->
<g id="edge13" class="edge">
<title>Node11&#45;&gt;Node2</title>
<path fill="none" stroke="#191970" d="M122.7907,-123.4108C158.0922,-108.4943 228.6314,-79.0525 289.2339,-56 321.3774,-43.773 358.38,-30.7841 384.6677,-21.7381"/>
<polygon fill="#191970" stroke="#191970" points="385.8618,-25.0288 394.1857,-18.4741 383.591,-18.4073 385.8618,-25.0288"/>
</g>
<!-- Node12 -->
<g id="node13" class="node">
<title>Node12</title>
<polygon fill="none" stroke="#bfbfbf" points="81.2339,-62 81.2339,-81 119.2339,-81 119.2339,-62 81.2339,-62"/>
<text text-anchor="middle" x="100.2339" y="-69" font-family="Helvetica,sans-Serif" font-size="10.00" fill="#000000">map</text>
</g>
<!-- Node11&#45;&gt;Node12 -->
<g id="edge14" class="edge">
<title>Node11&#45;&gt;Node12</title>
<path fill="none" stroke="#191970" d="M100.2339,-123.3906C100.2339,-114.8657 100.2339,-102.1392 100.2339,-91.4235"/>
<polygon fill="#191970" stroke="#191970" points="103.734,-91.2448 100.2339,-81.2449 96.734,-91.2449 103.734,-91.2448"/>
</g>
<!-- Node13&#45;&gt;Node2 -->
<g id="edge16" class="edge">
<title>Node13&#45;&gt;Node2</title>
<path fill="none" stroke="#191970" d="M264.5209,-123.3607C275.207,-107.5795 298.2938,-75.9894 324.2339,-56 342.4039,-41.9983 365.5192,-30.691 384.3989,-22.7909"/>
<polygon fill="#191970" stroke="#191970" points="385.8787,-25.9679 393.8371,-18.974 383.2543,-19.4785 385.8787,-25.9679"/>
</g>
<!-- Node14 -->
<g id="node15" class="node">
<title>Node14</title>
<polygon fill="none" stroke="#bfbfbf" points="333.2339,-62 333.2339,-81 375.2339,-81 375.2339,-62 333.2339,-62"/>
<text text-anchor="middle" x="354.2339" y="-69" font-family="Helvetica,sans-Serif" font-size="10.00" fill="#000000">array</text>
</g>
<!-- Node13&#45;&gt;Node14 -->
<g id="edge17" class="edge">
<title>Node13&#45;&gt;Node14</title>
<path fill="none" stroke="#191970" d="M273.2339,-123.3906C288.592,-113.5519 312.686,-98.1167 330.6085,-86.6351"/>
<polygon fill="#191970" stroke="#191970" points="332.8069,-89.3833 339.3393,-81.0419 329.0309,-83.4891 332.8069,-89.3833"/>
</g>
<!-- Node15&#45;&gt;Node2 -->
<g id="edge19" class="edge">
<title>Node15&#45;&gt;Node2</title>
<path fill="none" stroke="#191970" d="M560.2283,-123.3484C533.9734,-102.2415 471.233,-51.8032 439.0359,-25.9192"/>
<polygon fill="#191970" stroke="#191970" points="441.1706,-23.1446 431.1838,-19.6068 436.7846,-28.6002 441.1706,-23.1446"/>
</g>
<!-- Node15&#45;&gt;Node3 -->
<g id="edge20" class="edge">
<title>Node15&#45;&gt;Node3</title>
<path fill="none" stroke="#191970" d="M572.0777,-123.3906C571.9391,-114.8657 571.7321,-102.1392 571.5579,-91.4235"/>
<polygon fill="#191970" stroke="#191970" points="575.0546,-91.1866 571.3924,-81.2449 568.0555,-91.3005 575.0546,-91.1866"/>
</g>
<!-- Node16&#45;&gt;Node2 -->
<g id="edge22" class="edge">
<title>Node16&#45;&gt;Node2</title>
<path fill="none" stroke="#191970" d="M419.2339,-123.3484C419.2339,-103.2295 419.2339,-56.4608 419.2339,-29.7098"/>
<polygon fill="#191970" stroke="#191970" points="422.734,-29.6067 419.2339,-19.6068 415.734,-29.6068 422.734,-29.6067"/>
</g>
<!-- Node16&#45;&gt;Node14 -->
<g id="edge23" class="edge">
<title>Node16&#45;&gt;Node14</title>
<path fill="none" stroke="#191970" d="M409.0777,-123.3906C399.214,-114.0581 384.0284,-99.6902 372.1352,-88.4374"/>
<polygon fill="#191970" stroke="#191970" points="374.2028,-85.5753 364.5334,-81.2449 369.3919,-90.6601 374.2028,-85.5753"/>
</g>
<!-- Node17&#45;&gt;Node2 -->
<g id="edge25" class="edge">
<title>Node17&#45;&gt;Node2</title>
<path fill="none" stroke="#191970" d="M724.0959,-123.3493C700.8767,-115.279 668.4236,-102.5923 642.2339,-87 623.5059,-75.85 623.7254,-65.7543 604.2339,-56 555.538,-31.6305 493.0191,-19.5847 454.5598,-14.0878"/>
<polygon fill="#191970" stroke="#191970" points="454.7617,-10.5832 444.3818,-12.7062 453.8201,-17.5196 454.7617,-10.5832"/>
</g>
<!-- Node17&#45;&gt;Node3 -->
<g id="edge26" class="edge">
<title>Node17&#45;&gt;Node3</title>
<path fill="none" stroke="#191970" d="M721.4456,-123.4171C691.8915,-114.586 647.3537,-100.7959 609.2339,-87 607.3748,-86.3272 605.4722,-85.618 603.5574,-84.8884"/>
<polygon fill="#191970" stroke="#191970" points="604.6139,-81.5431 594.0267,-81.1427 602.0534,-88.058 604.6139,-81.5431"/>
</g>
<!-- Node17&#45;&gt;Node4 -->
<g id="edge27" class="edge">
<title>Node17&#45;&gt;Node4</title>
<path fill="none" stroke="#191970" d="M767.8277,-123.3906C781.6182,-113.6421 803.1811,-98.3994 819.3749,-86.9521"/>
<polygon fill="#191970" stroke="#191970" points="821.5902,-89.6723 827.7357,-81.0419 817.5495,-83.9563 821.5902,-89.6723"/>
</g>
<!-- Node18 -->
<g id="node19" class="node">
<title>Node18</title>
<g id="a_node19"><a xlink:href="../../d4/d78/DataFormats_2Headers_2include_2Headers_2RAWDataHeader_8h.html" target="_top" xlink:title="Headers/RAWDataHeader.h">
<polygon fill="none" stroke="#000000" points="650.7339,-62 650.7339,-81 799.7339,-81 799.7339,-62 650.7339,-62"/>
<text text-anchor="middle" x="725.2339" y="-69" font-family="Helvetica,sans-Serif" font-size="10.00" fill="#000000">Headers/RAWDataHeader.h</text>
</a>
</g>
</g>
<!-- Node17&#45;&gt;Node18 -->
<g id="edge28" class="edge">
<title>Node17&#45;&gt;Node18</title>
<path fill="none" stroke="#191970" d="M749.7027,-123.3906C745.5559,-114.5965 739.3007,-101.3312 734.153,-90.4145"/>
<polygon fill="#191970" stroke="#191970" points="737.2599,-88.7969 729.8291,-81.2449 730.9285,-91.7825 737.2599,-88.7969"/>
</g>
<!-- Node18&#45;&gt;Node2 -->
<g id="edge29" class="edge">
<title>Node18&#45;&gt;Node2</title>
<path fill="none" stroke="#191970" d="M677.7572,-61.9581C615.9362,-49.5333 509.3007,-28.1016 454.3009,-17.0478"/>
<polygon fill="#191970" stroke="#191970" points="454.8297,-13.5841 444.3361,-15.045 453.4504,-20.4469 454.8297,-13.5841"/>
</g>
<!-- Node19&#45;&gt;Node2 -->
<g id="edge31" class="edge">
<title>Node19&#45;&gt;Node2</title>
<path fill="none" stroke="#191970" d="M174.5931,-186.1533C124.2254,-181.0089 31.2602,-168.2704 11.2339,-143 -4.9806,-122.5394 -5.2143,-84.8402 27.2339,-56 53.6835,-32.4914 292.6856,-16.9705 383.9935,-11.8532"/>
<polygon fill="#191970" stroke="#191970" points="384.3303,-15.3401 394.1223,-11.2945 383.9446,-8.3507 384.3303,-15.3401"/>
</g>
</g>
</svg>
