<?xml version="1.0" encoding="UTF-8" standalone="no"?>
<!DOCTYPE svg PUBLIC "-//W3C//DTD SVG 1.1//EN"
 "http://www.w3.org/Graphics/SVG/1.1/DTD/svg11.dtd">
<!-- Generated by graphviz version 2.40.1 (20161225.0304)
 -->
<!-- Title: /home/travis/build/AliceO2Group/AliceO2/Detectors/EMCAL/reconstruction/src/ClusterizerTask.cxx Pages: 1 -->
<svg width="2367pt" height="452pt"
 viewBox="0.00 0.00 2367.08 452.00" xmlns="http://www.w3.org/2000/svg" xmlns:xlink="http://www.w3.org/1999/xlink">
<g id="graph0" class="graph" transform="scale(1 1) rotate(0) translate(4 448)">
<title>/home/travis/build/AliceO2Group/AliceO2/Detectors/EMCAL/reconstruction/src/ClusterizerTask.cxx</title>
<!-- Node0 -->
<g id="node1" class="node">
<title>Node0</title>
<polygon fill="#bfbfbf" stroke="#000000" points="341.0807,-391.5 341.0807,-443.5 517.0807,-443.5 517.0807,-391.5 341.0807,-391.5"/>
<text text-anchor="start" x="349.0807" y="-431.5" font-family="Helvetica,sans-Serif" font-size="10.00" fill="#000000">/home/travis/build</text>
<text text-anchor="start" x="349.0807" y="-420.5" font-family="Helvetica,sans-Serif" font-size="10.00" fill="#000000">/AliceO2Group/AliceO2</text>
<text text-anchor="start" x="349.0807" y="-409.5" font-family="Helvetica,sans-Serif" font-size="10.00" fill="#000000">/Detectors/EMCAL/reconstruction</text>
<text text-anchor="middle" x="429.0807" y="-398.5" font-family="Helvetica,sans-Serif" font-size="10.00" fill="#000000">/src/ClusterizerTask.cxx</text>
</g>
<!-- Node1 -->
<g id="node2" class="node">
<title>Node1</title>
<polygon fill="none" stroke="#bfbfbf" points="217.5807,-330 217.5807,-349 292.5807,-349 292.5807,-330 217.5807,-330"/>
<text text-anchor="middle" x="255.0807" y="-337" font-family="Helvetica,sans-Serif" font-size="10.00" fill="#000000">FairLogger.h</text>
</g>
<!-- Node0&#45;&gt;Node1 -->
<g id="edge1" class="edge">
<title>Node0&#45;&gt;Node1</title>
<path fill="none" stroke="#191970" d="M370.6571,-391.3101C342.3222,-378.6083 309.4377,-363.867 286.0074,-353.3637"/>
<polygon fill="#191970" stroke="#191970" points="287.1424,-350.0369 276.5855,-349.1401 284.2789,-356.4245 287.1424,-350.0369"/>
</g>
<!-- Node2 -->
<g id="node3" class="node">
<title>Node2</title>
<polygon fill="none" stroke="#bfbfbf" points="310.0807,-330 310.0807,-349 416.0807,-349 416.0807,-330 310.0807,-330"/>
<text text-anchor="middle" x="363.0807" y="-337" font-family="Helvetica,sans-Serif" font-size="10.00" fill="#000000">FairRootManager.h</text>
</g>
<!-- Node0&#45;&gt;Node2 -->
<g id="edge2" class="edge">
<title>Node0&#45;&gt;Node2</title>
<path fill="none" stroke="#191970" d="M406.7361,-391.0928C397.1532,-379.7675 386.2274,-366.8552 377.7033,-356.7812"/>
<polygon fill="#191970" stroke="#191970" points="380.3214,-354.4569 371.1901,-349.0839 374.9777,-358.9786 380.3214,-354.4569"/>
</g>
<!-- Node3 -->
<g id="node4" class="node">
<title>Node3</title>
<g id="a_node4"><a xlink:href="../../d8/dc0/ClusterizerTask_8h.html" target="_top" xlink:title="Definition of the EMCAL clusterizer task. ">
<polygon fill="none" stroke="#000000" points="434.0807,-324.5 434.0807,-354.5 556.0807,-354.5 556.0807,-324.5 434.0807,-324.5"/>
<text text-anchor="start" x="442.0807" y="-342.5" font-family="Helvetica,sans-Serif" font-size="10.00" fill="#000000">EMCALReconstruction</text>
<text text-anchor="middle" x="495.0807" y="-331.5" font-family="Helvetica,sans-Serif" font-size="10.00" fill="#000000">/ClusterizerTask.h</text>
</a>
</g>
</g>
<!-- Node0&#45;&gt;Node3 -->
<g id="edge3" class="edge">
<title>Node0&#45;&gt;Node3</title>
<path fill="none" stroke="#191970" d="M451.4253,-391.0928C459.3277,-381.7536 468.1433,-371.3351 475.7722,-362.3191"/>
<polygon fill="#191970" stroke="#191970" points="478.5969,-364.3992 482.3845,-354.5046 473.2532,-359.8776 478.5969,-364.3992"/>
</g>
<!-- Node40 -->
<g id="node41" class="node">
<title>Node40</title>
<polygon fill="none" stroke="#bfbfbf" points="574.0807,-330 574.0807,-349 622.0807,-349 622.0807,-330 574.0807,-330"/>
<text text-anchor="middle" x="598.0807" y="-337" font-family="Helvetica,sans-Serif" font-size="10.00" fill="#000000">TFile.h</text>
</g>
<!-- Node0&#45;&gt;Node40 -->
<g id="edge61" class="edge">
<title>Node0&#45;&gt;Node40</title>
<path fill="none" stroke="#191970" d="M486.0358,-391.4538C510.4033,-380.2771 539.1584,-367.0439 565.0807,-355 566.2431,-354.4599 567.4281,-353.9083 568.6248,-353.3503"/>
<polygon fill="#191970" stroke="#191970" points="570.274,-356.443 577.8488,-349.0354 567.3078,-350.1024 570.274,-356.443"/>
</g>
<!-- Node4 -->
<g id="node5" class="node">
<title>Node4</title>
<g id="a_node5"><a xlink:href="../../dc/d27/DataFormats_2Detectors_2EMCAL_2include_2DataFormatsEMCAL_2Cluster_8h.html" target="_top" xlink:title="DataFormatsEMCAL/Cluster.h">
<polygon fill="none" stroke="#000000" points="290.0807,-201.5 290.0807,-220.5 448.0807,-220.5 448.0807,-201.5 290.0807,-201.5"/>
<text text-anchor="middle" x="369.0807" y="-208.5" font-family="Helvetica,sans-Serif" font-size="10.00" fill="#000000">DataFormatsEMCAL/Cluster.h</text>
</a>
</g>
</g>
<!-- Node3&#45;&gt;Node4 -->
<g id="edge4" class="edge">
<title>Node3&#45;&gt;Node4</title>
<path fill="none" stroke="#191970" d="M487.7365,-324.4401C478.5948,-306.7811 461.6498,-277.3433 441.0807,-257 428.3631,-244.422 411.6513,-233.4871 397.5298,-225.4382"/>
<polygon fill="#191970" stroke="#191970" points="399.141,-222.3299 388.6921,-220.5773 395.7675,-228.4634 399.141,-222.3299"/>
</g>
<!-- Node13 -->
<g id="node14" class="node">
<title>Node13</title>
<g id="a_node14"><a xlink:href="../../d3/d6e/DataFormats_2Detectors_2EMCAL_2include_2DataFormatsEMCAL_2Digit_8h.html" target="_top" xlink:title="DataFormatsEMCAL/Digit.h">
<polygon fill="none" stroke="#000000" points="553.0807,-201.5 553.0807,-220.5 701.0807,-220.5 701.0807,-201.5 553.0807,-201.5"/>
<text text-anchor="middle" x="627.0807" y="-208.5" font-family="Helvetica,sans-Serif" font-size="10.00" fill="#000000">DataFormatsEMCAL/Digit.h</text>
</a>
</g>
</g>
<!-- Node3&#45;&gt;Node13 -->
<g id="edge14" class="edge">
<title>Node3&#45;&gt;Node13</title>
<path fill="none" stroke="#191970" d="M504.2432,-324.2598C515.2926,-306.6937 535.136,-277.602 557.0807,-257 569.9156,-244.9503 586.2657,-234.01 599.9359,-225.8246"/>
<polygon fill="#191970" stroke="#191970" points="602.008,-228.6686 608.8957,-220.6181 598.491,-222.6163 602.008,-228.6686"/>
</g>
<!-- Node19 -->
<g id="node20" class="node">
<title>Node19</title>
<g id="a_node20"><a xlink:href="../../dd/da8/EMCAL_2base_2include_2EMCALBase_2Geometry_8h.html" target="_top" xlink:title="EMCALBase/Geometry.h">
<polygon fill="none" stroke="#000000" points="1288.5807,-201.5 1288.5807,-220.5 1421.5807,-220.5 1421.5807,-201.5 1288.5807,-201.5"/>
<text text-anchor="middle" x="1355.0807" y="-208.5" font-family="Helvetica,sans-Serif" font-size="10.00" fill="#000000">EMCALBase/Geometry.h</text>
</a>
</g>
</g>
<!-- Node3&#45;&gt;Node19 -->
<g id="edge25" class="edge">
<title>Node3&#45;&gt;Node19</title>
<path fill="none" stroke="#191970" d="M556.1089,-325.7008C559.1384,-325.1056 562.1416,-324.5348 565.0807,-324 825.2278,-276.6629 1136.5566,-237.1031 1278.1713,-220.0334"/>
<polygon fill="#191970" stroke="#191970" points="1278.9698,-223.4627 1288.4807,-218.7944 1278.1345,-216.5127 1278.9698,-223.4627"/>
</g>
<!-- Node36 -->
<g id="node37" class="node">
<title>Node36</title>
<g id="a_node37"><a xlink:href="../../d1/dff/DigitReader_8h.html" target="_top" xlink:title="Definition of EMCAL digit reader. ">
<polygon fill="none" stroke="#000000" points="566.0807,-257.5 566.0807,-287.5 688.0807,-287.5 688.0807,-257.5 566.0807,-257.5"/>
<text text-anchor="start" x="574.0807" y="-275.5" font-family="Helvetica,sans-Serif" font-size="10.00" fill="#000000">EMCALReconstruction</text>
<text text-anchor="middle" x="627.0807" y="-264.5" font-family="Helvetica,sans-Serif" font-size="10.00" fill="#000000">/DigitReader.h</text>
</a>
</g>
</g>
<!-- Node3&#45;&gt;Node36 -->
<g id="edge50" class="edge">
<title>Node3&#45;&gt;Node36</title>
<path fill="none" stroke="#191970" d="M524.704,-324.4639C543.4243,-314.9619 567.8227,-302.5779 588.1053,-292.283"/>
<polygon fill="#191970" stroke="#191970" points="589.7665,-295.3649 597.0995,-287.7177 586.5982,-289.1229 589.7665,-295.3649"/>
</g>
<!-- Node38 -->
<g id="node39" class="node">
<title>Node38</title>
<g id="a_node39"><a xlink:href="../../d2/d45/ClusterizerParameters_8h.html" target="_top" xlink:title="Definition of the EMCAL clusterizer parameter class. ">
<polygon fill="none" stroke="#000000" points="27.5807,-257.5 27.5807,-287.5 164.5807,-287.5 164.5807,-257.5 27.5807,-257.5"/>
<text text-anchor="start" x="35.5807" y="-275.5" font-family="Helvetica,sans-Serif" font-size="10.00" fill="#000000">EMCALReconstruction</text>
<text text-anchor="middle" x="96.0807" y="-264.5" font-family="Helvetica,sans-Serif" font-size="10.00" fill="#000000">/ClusterizerParameters.h</text>
</a>
</g>
</g>
<!-- Node3&#45;&gt;Node38 -->
<g id="edge53" class="edge">
<title>Node3&#45;&gt;Node38</title>
<path fill="none" stroke="#191970" d="M434.0436,-325.7486C431.0164,-325.1407 428.0161,-324.5542 425.0807,-324 339.8387,-307.9072 241.4966,-292.9868 174.695,-283.393"/>
<polygon fill="#191970" stroke="#191970" points="175.0575,-279.9093 164.6627,-281.9582 174.0664,-286.8388 175.0575,-279.9093"/>
</g>
<!-- Node39 -->
<g id="node40" class="node">
<title>Node39</title>
<g id="a_node40"><a xlink:href="../../da/d9a/EMCAL_2reconstruction_2include_2EMCALReconstruction_2Clusterizer_8h.html" target="_top" xlink:title="EMCALReconstruction\l/Clusterizer.h">
<polygon fill="none" stroke="#000000" points="310.0807,-257.5 310.0807,-287.5 432.0807,-287.5 432.0807,-257.5 310.0807,-257.5"/>
<text text-anchor="start" x="318.0807" y="-275.5" font-family="Helvetica,sans-Serif" font-size="10.00" fill="#000000">EMCALReconstruction</text>
<text text-anchor="middle" x="371.0807" y="-264.5" font-family="Helvetica,sans-Serif" font-size="10.00" fill="#000000">/Clusterizer.h</text>
</a>
</g>
</g>
<!-- Node3&#45;&gt;Node39 -->
<g id="edge55" class="edge">
<title>Node3&#45;&gt;Node39</title>
<path fill="none" stroke="#191970" d="M467.2527,-324.4639C449.8254,-315.0475 427.1598,-302.8008 408.2098,-292.5617"/>
<polygon fill="#191970" stroke="#191970" points="409.7065,-289.3922 399.2448,-287.7177 406.3789,-295.5507 409.7065,-289.3922"/>
</g>
<!-- Node5 -->
<g id="node6" class="node">
<title>Node5</title>
<polygon fill="none" stroke="#bfbfbf" points="30.0807,-140 30.0807,-159 72.0807,-159 72.0807,-140 30.0807,-140"/>
<text text-anchor="middle" x="51.0807" y="-147" font-family="Helvetica,sans-Serif" font-size="10.00" fill="#000000">array</text>
</g>
<!-- Node4&#45;&gt;Node5 -->
<g id="edge5" class="edge">
<title>Node4&#45;&gt;Node5</title>
<path fill="none" stroke="#191970" d="M289.8652,-205.1805C231.0961,-199.2354 149.6244,-187.5351 81.0807,-165 79.6188,-164.5194 78.1412,-163.9743 76.6667,-163.3832"/>
<polygon fill="#191970" stroke="#191970" points="77.7217,-160.0155 67.1751,-159.0058 74.7902,-166.3721 77.7217,-160.0155"/>
</g>
<!-- Node6 -->
<g id="node7" class="node">
<title>Node6</title>
<polygon fill="none" stroke="#bfbfbf" points="753.5807,-73 753.5807,-92 802.5807,-92 802.5807,-73 753.5807,-73"/>
<text text-anchor="middle" x="778.0807" y="-80" font-family="Helvetica,sans-Serif" font-size="10.00" fill="#000000">iosfwd</text>
</g>
<!-- Node4&#45;&gt;Node6 -->
<g id="edge6" class="edge">
<title>Node4&#45;&gt;Node6</title>
<path fill="none" stroke="#191970" d="M362.3405,-201.4092C351.9977,-185.4132 335.0996,-153.1576 352.0807,-134 365.058,-119.3593 643.6542,-94.0631 743.1513,-85.4617"/>
<polygon fill="#191970" stroke="#191970" points="743.6294,-88.9336 753.2926,-84.5893 743.0294,-81.9594 743.6294,-88.9336"/>
</g>
<!-- Node7 -->
<g id="node8" class="node">
<title>Node7</title>
<polygon fill="none" stroke="#bfbfbf" points="982.0807,-73 982.0807,-92 1026.0807,-92 1026.0807,-73 982.0807,-73"/>
<text text-anchor="middle" x="1004.0807" y="-80" font-family="Helvetica,sans-Serif" font-size="10.00" fill="#000000">string</text>
</g>
<!-- Node4&#45;&gt;Node7 -->
<g id="edge7" class="edge">
<title>Node4&#45;&gt;Node7</title>
<path fill="none" stroke="#191970" d="M367.793,-201.4171C366.166,-184.8318 365.6061,-150.9309 385.0807,-134 431.2983,-93.8191 874.4653,-106.7378 935.0807,-98 947.1758,-96.2565 960.296,-93.5257 971.8159,-90.8389"/>
<polygon fill="#191970" stroke="#191970" points="972.9698,-94.161 981.8701,-88.4134 971.3282,-87.3562 972.9698,-94.161"/>
</g>
<!-- Node8 -->
<g id="node9" class="node">
<title>Node8</title>
<polygon fill="none" stroke="#bfbfbf" points="739.5807,-140 739.5807,-159 786.5807,-159 786.5807,-140 739.5807,-140"/>
<text text-anchor="middle" x="763.0807" y="-147" font-family="Helvetica,sans-Serif" font-size="10.00" fill="#000000">vector</text>
</g>
<!-- Node4&#45;&gt;Node8 -->
<g id="edge8" class="edge">
<title>Node4&#45;&gt;Node8</title>
<path fill="none" stroke="#191970" d="M448.3097,-203.9542C538.4393,-195.4074 679.7637,-180.2428 731.0807,-165 732.9447,-164.4463 734.8344,-163.7942 736.7154,-163.0763"/>
<polygon fill="#191970" stroke="#191970" points="738.1116,-166.2859 745.8871,-159.0892 735.3208,-159.8662 738.1116,-166.2859"/>
</g>
<!-- Node9 -->
<g id="node10" class="node">
<title>Node9</title>
<g id="a_node10"><a xlink:href="../../df/d5d/common_2include_2CommonDataFormat_2TimeStamp_8h.html" target="_top" xlink:title="CommonDataFormat/TimeStamp.h">
<polygon fill="none" stroke="#000000" points="393.5807,-140 393.5807,-159 580.5807,-159 580.5807,-140 393.5807,-140"/>
<text text-anchor="middle" x="487.0807" y="-147" font-family="Helvetica,sans-Serif" font-size="10.00" fill="#000000">CommonDataFormat/TimeStamp.h</text>
</a>
</g>
</g>
<!-- Node4&#45;&gt;Node9 -->
<g id="edge9" class="edge">
<title>Node4&#45;&gt;Node9</title>
<path fill="none" stroke="#191970" d="M387.5182,-201.3906C406.9154,-191.2811 437.6497,-175.2628 459.8424,-163.6962"/>
<polygon fill="#191970" stroke="#191970" points="461.5224,-166.7675 468.7726,-159.0419 458.2871,-160.56 461.5224,-166.7675"/>
</g>
<!-- Node12 -->
<g id="node13" class="node">
<title>Node12</title>
<g id="a_node13"><a xlink:href="../../de/d64/RangeReference_8h.html" target="_top" xlink:title="Class to refer to the 1st entry and N elements of some group in the continuous container. ">
<polygon fill="none" stroke="#000000" points="90.0807,-140 90.0807,-159 300.0807,-159 300.0807,-140 90.0807,-140"/>
<text text-anchor="middle" x="195.0807" y="-147" font-family="Helvetica,sans-Serif" font-size="10.00" fill="#000000">CommonDataFormat/RangeReference.h</text>
</a>
</g>
</g>
<!-- Node4&#45;&gt;Node12 -->
<g id="edge12" class="edge">
<title>Node4&#45;&gt;Node12</title>
<path fill="none" stroke="#191970" d="M341.8932,-201.3906C312.269,-190.92 264.712,-174.1111 231.7889,-162.4745"/>
<polygon fill="#191970" stroke="#191970" points="232.672,-159.0745 222.0773,-159.0419 230.3393,-165.6744 232.672,-159.0745"/>
</g>
<!-- Node10 -->
<g id="node11" class="node">
<title>Node10</title>
<g id="a_node11"><a xlink:href="../../d2/d45/GPUCommonRtypes_8h.html" target="_top" xlink:title="GPUCommonRtypes.h">
<polygon fill="none" stroke="#000000" points="424.5807,-73 424.5807,-92 549.5807,-92 549.5807,-73 424.5807,-73"/>
<text text-anchor="middle" x="487.0807" y="-80" font-family="Helvetica,sans-Serif" font-size="10.00" fill="#000000">GPUCommonRtypes.h</text>
</a>
</g>
</g>
<!-- Node9&#45;&gt;Node10 -->
<g id="edge10" class="edge">
<title>Node9&#45;&gt;Node10</title>
<path fill="none" stroke="#191970" d="M487.0807,-139.9005C487.0807,-130.149 487.0807,-114.7597 487.0807,-102.3695"/>
<polygon fill="#191970" stroke="#191970" points="490.5808,-102.0816 487.0807,-92.0817 483.5808,-102.0817 490.5808,-102.0816"/>
</g>
<!-- Node11 -->
<g id="node12" class="node">
<title>Node11</title>
<polygon fill="none" stroke="#bfbfbf" points="518.5807,-6 518.5807,-25 577.5807,-25 577.5807,-6 518.5807,-6"/>
<text text-anchor="middle" x="548.0807" y="-13" font-family="Helvetica,sans-Serif" font-size="10.00" fill="#000000">Rtypes.h</text>
</g>
<!-- Node10&#45;&gt;Node11 -->
<g id="edge11" class="edge">
<title>Node10&#45;&gt;Node11</title>
<path fill="none" stroke="#191970" d="M495.8205,-72.9005C505.3329,-62.4525 520.7377,-45.5325 532.3631,-32.7635"/>
<polygon fill="#191970" stroke="#191970" points="535.2129,-34.8324 539.3571,-25.0817 530.0368,-30.1198 535.2129,-34.8324"/>
</g>
<!-- Node12&#45;&gt;Node10 -->
<g id="edge13" class="edge">
<title>Node12&#45;&gt;Node10</title>
<path fill="none" stroke="#191970" d="M236.607,-139.9717C288.8913,-127.975 378.7133,-107.3651 435.3897,-94.3606"/>
<polygon fill="#191970" stroke="#191970" points="436.2608,-97.7518 445.2248,-92.1039 434.6953,-90.929 436.2608,-97.7518"/>
</g>
<!-- Node13&#45;&gt;Node6 -->
<g id="edge15" class="edge">
<title>Node13&#45;&gt;Node6</title>
<path fill="none" stroke="#191970" d="M629.6538,-201.4699C634.3895,-185.5633 645.8949,-153.4361 666.0807,-134 687.7991,-113.0882 719.5306,-99.5963 743.6781,-91.6906"/>
<polygon fill="#191970" stroke="#191970" points="744.9981,-94.9457 753.5115,-88.6391 742.9234,-88.2602 744.9981,-94.9457"/>
</g>
<!-- Node13&#45;&gt;Node9 -->
<g id="edge18" class="edge">
<title>Node13&#45;&gt;Node9</title>
<path fill="none" stroke="#191970" d="M605.2057,-201.3906C581.7811,-191.1005 544.421,-174.6888 517.9966,-163.0809"/>
<polygon fill="#191970" stroke="#191970" points="519.3653,-159.8594 508.8021,-159.0419 516.5499,-166.2683 519.3653,-159.8594"/>
</g>
<!-- Node13&#45;&gt;Node11 -->
<g id="edge17" class="edge">
<title>Node13&#45;&gt;Node11</title>
<path fill="none" stroke="#191970" d="M623.163,-201.3051C610.7902,-170.6863 572.3903,-75.6587 555.8211,-34.6551"/>
<polygon fill="#191970" stroke="#191970" points="559.0137,-33.2137 552.0219,-25.2534 552.5235,-35.8364 559.0137,-33.2137"/>
</g>
<!-- Node14 -->
<g id="node15" class="node">
<title>Node14</title>
<polygon fill="none" stroke="#bfbfbf" points="674.5807,-140 674.5807,-159 721.5807,-159 721.5807,-140 674.5807,-140"/>
<text text-anchor="middle" x="698.0807" y="-147" font-family="Helvetica,sans-Serif" font-size="10.00" fill="#000000">cmath</text>
</g>
<!-- Node13&#45;&gt;Node14 -->
<g id="edge16" class="edge">
<title>Node13&#45;&gt;Node14</title>
<path fill="none" stroke="#191970" d="M638.1744,-201.3906C649.0522,-191.9683 665.8555,-177.4134 678.9007,-166.1137"/>
<polygon fill="#191970" stroke="#191970" points="681.5634,-168.4377 686.8305,-159.2449 676.9803,-163.1466 681.5634,-168.4377"/>
</g>
<!-- Node15 -->
<g id="node16" class="node">
<title>Node15</title>
<g id="a_node16"><a xlink:href="../../dd/dda/DataFormats_2Detectors_2EMCAL_2include_2DataFormatsEMCAL_2Constants_8h.html" target="_top" xlink:title="DataFormatsEMCAL/Constants.h">
<polygon fill="none" stroke="#000000" points="929.5807,-140 929.5807,-159 1102.5807,-159 1102.5807,-140 929.5807,-140"/>
<text text-anchor="middle" x="1016.0807" y="-147" font-family="Helvetica,sans-Serif" font-size="10.00" fill="#000000">DataFormatsEMCAL/Constants.h</text>
</a>
</g>
</g>
<!-- Node13&#45;&gt;Node15 -->
<g id="edge19" class="edge">
<title>Node13&#45;&gt;Node15</title>
<path fill="none" stroke="#191970" d="M688.7598,-201.4693C748.261,-192.2469 840.8591,-177.8201 921.0807,-165 929.7731,-163.6109 938.9106,-162.1372 947.9419,-160.6725"/>
<polygon fill="#191970" stroke="#191970" points="948.7549,-164.0864 958.064,-159.0276 947.6321,-157.177 948.7549,-164.0864"/>
</g>
<!-- Node18 -->
<g id="node19" class="node">
<title>Node18</title>
<polygon fill="none" stroke="#bfbfbf" points="804.5807,-134.5 804.5807,-164.5 911.5807,-164.5 911.5807,-134.5 804.5807,-134.5"/>
<text text-anchor="start" x="812.5807" y="-152.5" font-family="Helvetica,sans-Serif" font-size="10.00" fill="#000000">boost/serialization</text>
<text text-anchor="middle" x="858.0807" y="-141.5" font-family="Helvetica,sans-Serif" font-size="10.00" fill="#000000">/base_object.hpp</text>
</g>
<!-- Node13&#45;&gt;Node18 -->
<g id="edge24" class="edge">
<title>Node13&#45;&gt;Node18</title>
<path fill="none" stroke="#191970" d="M662.921,-201.4581C698.0738,-192.0992 752.4211,-177.6301 794.8461,-166.3352"/>
<polygon fill="#191970" stroke="#191970" points="795.7655,-169.7124 804.5284,-163.7574 793.9646,-162.948 795.7655,-169.7124"/>
</g>
<!-- Node15&#45;&gt;Node6 -->
<g id="edge21" class="edge">
<title>Node15&#45;&gt;Node6</title>
<path fill="none" stroke="#191970" d="M982.2338,-139.9717C937.1341,-127.2755 857.7671,-104.9327 812.4196,-92.1668"/>
<polygon fill="#191970" stroke="#191970" points="813.3183,-88.7839 802.744,-89.443 811.4214,-95.522 813.3183,-88.7839"/>
</g>
<!-- Node15&#45;&gt;Node11 -->
<g id="edge20" class="edge">
<title>Node15&#45;&gt;Node11</title>
<path fill="none" stroke="#191970" d="M1007.9748,-139.782C991.1992,-119.9286 952.7665,-75.8382 935.0807,-67 874.6951,-36.8233 673.9796,-22.4276 587.873,-17.5245"/>
<polygon fill="#191970" stroke="#191970" points="587.8941,-14.0204 577.7153,-16.9601 587.5057,-21.0096 587.8941,-14.0204"/>
</g>
<!-- Node16 -->
<g id="node17" class="node">
<title>Node16</title>
<polygon fill="none" stroke="#bfbfbf" points="1044.5807,-73 1044.5807,-92 1109.5807,-92 1109.5807,-73 1044.5807,-73"/>
<text text-anchor="middle" x="1077.0807" y="-80" font-family="Helvetica,sans-Serif" font-size="10.00" fill="#000000">exception</text>
</g>
<!-- Node15&#45;&gt;Node16 -->
<g id="edge22" class="edge">
<title>Node15&#45;&gt;Node16</title>
<path fill="none" stroke="#191970" d="M1024.8205,-139.9005C1034.3329,-129.4525 1049.7377,-112.5325 1061.3631,-99.7635"/>
<polygon fill="#191970" stroke="#191970" points="1064.2129,-101.8324 1068.3571,-92.0817 1059.0368,-97.1198 1064.2129,-101.8324"/>
</g>
<!-- Node17 -->
<g id="node18" class="node">
<title>Node17</title>
<polygon fill="none" stroke="#bfbfbf" points="876.0807,-73 876.0807,-92 926.0807,-92 926.0807,-73 876.0807,-73"/>
<text text-anchor="middle" x="901.0807" y="-80" font-family="Helvetica,sans-Serif" font-size="10.00" fill="#000000">cstdint</text>
</g>
<!-- Node15&#45;&gt;Node17 -->
<g id="edge23" class="edge">
<title>Node15&#45;&gt;Node17</title>
<path fill="none" stroke="#191970" d="M999.604,-139.9005C980.4752,-128.7559 948.7074,-110.2477 926.4291,-97.2682"/>
<polygon fill="#191970" stroke="#191970" points="927.9293,-94.0916 917.5268,-92.0817 924.4054,-100.1399 927.9293,-94.0916"/>
</g>
<!-- Node19&#45;&gt;Node7 -->
<g id="edge27" class="edge">
<title>Node19&#45;&gt;Node7</title>
<path fill="none" stroke="#191970" d="M1288.3309,-203.966C1246.9348,-197.711 1193.5461,-186.1311 1150.0807,-165 1130.4785,-155.4702 1130.5087,-145.6392 1112.0807,-134 1080.4803,-114.0411 1069.7886,-114.1467 1036.0807,-98 1035.0786,-97.52 1034.0592,-97.0308 1033.0299,-96.5362"/>
<polygon fill="#191970" stroke="#191970" points="1034.2261,-93.2274 1023.6985,-92.0357 1031.1852,-99.5324 1034.2261,-93.2274"/>
</g>
<!-- Node19&#45;&gt;Node8 -->
<g id="edge29" class="edge">
<title>Node19&#45;&gt;Node8</title>
<path fill="none" stroke="#191970" d="M1288.1648,-208.4747C1160.6042,-203.1699 887.229,-189.3068 796.0807,-165 794.1083,-164.474 792.1091,-163.8346 790.1213,-163.1186"/>
<polygon fill="#191970" stroke="#191970" points="791.028,-159.704 780.4521,-159.072 788.3256,-166.1613 791.028,-159.704"/>
</g>
<!-- Node19&#45;&gt;Node15 -->
<g id="edge35" class="edge">
<title>Node19&#45;&gt;Node15</title>
<path fill="none" stroke="#191970" d="M1302.4839,-201.4581C1242.0223,-190.4894 1142.8679,-172.5012 1078.5365,-160.8305"/>
<polygon fill="#191970" stroke="#191970" points="1078.9861,-157.355 1068.5219,-159.0137 1077.7365,-164.2426 1078.9861,-157.355"/>
</g>
<!-- Node19&#45;&gt;Node16 -->
<g id="edge26" class="edge">
<title>Node19&#45;&gt;Node16</title>
<path fill="none" stroke="#191970" d="M1421.8007,-202.1571C1424.9372,-201.7615 1428.0427,-201.374 1431.0807,-201 1572.7086,-183.5648 1843.0434,-237.7582 1745.0807,-134 1697.2513,-83.3411 1187.2853,-112.2163 1119.0807,-98 1115.8089,-97.318 1112.4512,-96.4279 1109.1289,-95.4187"/>
<polygon fill="#191970" stroke="#191970" points="1109.9832,-92.0129 1099.3889,-92.1232 1107.7396,-98.6436 1109.9832,-92.0129"/>
</g>
<!-- Node20 -->
<g id="node21" class="node">
<title>Node20</title>
<polygon fill="none" stroke="#bfbfbf" points="1334.5807,-140 1334.5807,-159 1375.5807,-159 1375.5807,-140 1334.5807,-140"/>
<text text-anchor="middle" x="1355.0807" y="-147" font-family="Helvetica,sans-Serif" font-size="10.00" fill="#000000">tuple</text>
</g>
<!-- Node19&#45;&gt;Node20 -->
<g id="edge28" class="edge">
<title>Node19&#45;&gt;Node20</title>
<path fill="none" stroke="#191970" d="M1355.0807,-201.3906C1355.0807,-192.8657 1355.0807,-180.1392 1355.0807,-169.4235"/>
<polygon fill="#191970" stroke="#191970" points="1358.5808,-169.2448 1355.0807,-159.2449 1351.5808,-169.2449 1358.5808,-169.2448"/>
</g>
<!-- Node21 -->
<g id="node22" class="node">
<title>Node21</title>
<polygon fill="none" stroke="#bfbfbf" points="1394.0807,-140 1394.0807,-159 1478.0807,-159 1478.0807,-140 1394.0807,-140"/>
<text text-anchor="middle" x="1436.0807" y="-147" font-family="Helvetica,sans-Serif" font-size="10.00" fill="#000000">RStringView.h</text>
</g>
<!-- Node19&#45;&gt;Node21 -->
<g id="edge30" class="edge">
<title>Node19&#45;&gt;Node21</title>
<path fill="none" stroke="#191970" d="M1367.7369,-201.3906C1380.4575,-191.7324 1400.281,-176.6812 1415.3091,-165.271"/>
<polygon fill="#191970" stroke="#191970" points="1417.6653,-167.8766 1423.5133,-159.0419 1413.4323,-162.3015 1417.6653,-167.8766"/>
</g>
<!-- Node22 -->
<g id="node23" class="node">
<title>Node22</title>
<polygon fill="none" stroke="#bfbfbf" points="2266.0807,-73 2266.0807,-92 2348.0807,-92 2348.0807,-73 2266.0807,-73"/>
<text text-anchor="middle" x="2307.0807" y="-80" font-family="Helvetica,sans-Serif" font-size="10.00" fill="#000000">TGeoMatrix.h</text>
</g>
<!-- Node19&#45;&gt;Node22 -->
<g id="edge31" class="edge">
<title>Node19&#45;&gt;Node22</title>
<path fill="none" stroke="#191970" d="M1421.7825,-201.9941C1424.9238,-201.6421 1428.0354,-201.3084 1431.0807,-201 1655.3907,-178.2839 1713.7888,-196.173 1937.0807,-165 2080.9912,-144.9091 2116.4184,-134.4418 2257.0807,-98 2260.6795,-97.0677 2264.4048,-96.0375 2268.1243,-94.9646"/>
<polygon fill="#191970" stroke="#191970" points="2269.2813,-98.272 2277.8658,-92.0626 2267.2827,-91.5634 2269.2813,-98.272"/>
</g>
<!-- Node23 -->
<g id="node24" class="node">
<title>Node23</title>
<polygon fill="none" stroke="#bfbfbf" points="1496.5807,-140 1496.5807,-159 1563.5807,-159 1563.5807,-140 1496.5807,-140"/>
<text text-anchor="middle" x="1530.0807" y="-147" font-family="Helvetica,sans-Serif" font-size="10.00" fill="#000000">TNamed.h</text>
</g>
<!-- Node19&#45;&gt;Node23 -->
<g id="edge32" class="edge">
<title>Node19&#45;&gt;Node23</title>
<path fill="none" stroke="#191970" d="M1382.6677,-201.482C1409.3935,-192.2385 1451.0544,-177.77 1487.0807,-165 1489.3526,-164.1947 1491.6907,-163.3623 1494.0474,-162.5205"/>
<polygon fill="#191970" stroke="#191970" points="1495.4858,-165.723 1503.7176,-159.0531 1493.123,-159.1338 1495.4858,-165.723"/>
</g>
<!-- Node24 -->
<g id="node25" class="node">
<title>Node24</title>
<polygon fill="none" stroke="#bfbfbf" points="1582.0807,-140 1582.0807,-159 1650.0807,-159 1650.0807,-140 1582.0807,-140"/>
<text text-anchor="middle" x="1616.0807" y="-147" font-family="Helvetica,sans-Serif" font-size="10.00" fill="#000000">TParticle.h</text>
</g>
<!-- Node19&#45;&gt;Node24 -->
<g id="edge33" class="edge">
<title>Node19&#45;&gt;Node24</title>
<path fill="none" stroke="#191970" d="M1410.6968,-201.4562C1455.0588,-193.3198 1518.5731,-180.4948 1573.0807,-165 1575.8715,-164.2067 1578.7423,-163.3237 1581.6132,-162.3931"/>
<polygon fill="#191970" stroke="#191970" points="1582.9229,-165.6444 1591.259,-159.1053 1580.6645,-159.0187 1582.9229,-165.6444"/>
</g>
<!-- Node25 -->
<g id="node26" class="node">
<title>Node25</title>
<polygon fill="none" stroke="#bfbfbf" points="1668.0807,-140 1668.0807,-159 1736.0807,-159 1736.0807,-140 1668.0807,-140"/>
<text text-anchor="middle" x="1702.0807" y="-147" font-family="Helvetica,sans-Serif" font-size="10.00" fill="#000000">TVector3.h</text>
</g>
<!-- Node19&#45;&gt;Node25 -->
<g id="edge34" class="edge">
<title>Node19&#45;&gt;Node25</title>
<path fill="none" stroke="#191970" d="M1421.7424,-201.6195C1504.2205,-189.9032 1636.5718,-170.7013 1659.0807,-165 1662.2346,-164.2011 1665.4813,-163.2606 1668.71,-162.2442"/>
<polygon fill="#191970" stroke="#191970" points="1669.8745,-165.5453 1678.232,-159.0336 1667.6379,-158.9122 1669.8745,-165.5453"/>
</g>
<!-- Node26 -->
<g id="node27" class="node">
<title>Node26</title>
<g id="a_node27"><a xlink:href="../../d5/d5e/GeometryBase_8h.html" target="_top" xlink:title="EMCALBase/GeometryBase.h">
<polygon fill="none" stroke="#000000" points="1159.0807,-140 1159.0807,-159 1317.0807,-159 1317.0807,-140 1159.0807,-140"/>
<text text-anchor="middle" x="1238.0807" y="-147" font-family="Helvetica,sans-Serif" font-size="10.00" fill="#000000">EMCALBase/GeometryBase.h</text>
</a>
</g>
</g>
<!-- Node19&#45;&gt;Node26 -->
<g id="edge36" class="edge">
<title>Node19&#45;&gt;Node26</title>
<path fill="none" stroke="#191970" d="M1336.7994,-201.3906C1317.5666,-191.2811 1287.0928,-175.2628 1265.0881,-163.6962"/>
<polygon fill="#191970" stroke="#191970" points="1266.7137,-160.5967 1256.2335,-159.0419 1263.4567,-166.7928 1266.7137,-160.5967"/>
</g>
<!-- Node27 -->
<g id="node28" class="node">
<title>Node27</title>
<g id="a_node28"><a xlink:href="../../dd/d76/Cartesian3D_8h.html" target="_top" xlink:title="MathUtils/Cartesian3D.h">
<polygon fill="none" stroke="#000000" points="1792.5807,-140 1792.5807,-159 1927.5807,-159 1927.5807,-140 1792.5807,-140"/>
<text text-anchor="middle" x="1860.0807" y="-147" font-family="Helvetica,sans-Serif" font-size="10.00" fill="#000000">MathUtils/Cartesian3D.h</text>
</a>
</g>
</g>
<!-- Node19&#45;&gt;Node27 -->
<g id="edge38" class="edge">
<title>Node19&#45;&gt;Node27</title>
<path fill="none" stroke="#191970" d="M1421.7959,-202.1164C1424.9336,-201.7317 1428.0408,-201.3576 1431.0807,-201 1585.0688,-182.8848 1624.66,-187.4186 1778.0807,-165 1786.3238,-163.7955 1795.0009,-162.3501 1803.501,-160.8328"/>
<polygon fill="#191970" stroke="#191970" points="1804.1548,-164.2713 1813.3616,-159.0287 1802.8949,-157.3856 1804.1548,-164.2713"/>
</g>
<!-- Node26&#45;&gt;Node7 -->
<g id="edge37" class="edge">
<title>Node26&#45;&gt;Node7</title>
<path fill="none" stroke="#191970" d="M1189.5029,-139.9947C1148.0612,-131.2079 1087.2397,-116.6949 1036.0807,-98 1034.4862,-97.4173 1032.8651,-96.781 1031.2414,-96.1093"/>
<polygon fill="#191970" stroke="#191970" points="1032.6384,-92.9 1022.0817,-92.0016 1029.774,-99.2871 1032.6384,-92.9"/>
</g>
<!-- Node27&#45;&gt;Node6 -->
<g id="edge46" class="edge">
<title>Node27&#45;&gt;Node6</title>
<path fill="none" stroke="#191970" d="M1797.5296,-139.9942C1780.5479,-137.7074 1762.1391,-135.496 1745.0807,-134 1356.0239,-99.8793 1255.4095,-139.5941 867.0807,-98 849.1711,-96.0817 829.419,-92.7652 813.082,-89.691"/>
<polygon fill="#191970" stroke="#191970" points="813.3753,-86.183 802.893,-87.7229 812.0477,-93.056 813.3753,-86.183"/>
</g>
<!-- Node27&#45;&gt;Node11 -->
<g id="edge44" class="edge">
<title>Node27&#45;&gt;Node11</title>
<path fill="none" stroke="#191970" d="M1903.6844,-139.9733C1962.3653,-126.9475 2060.0455,-104.4566 2065.0807,-98 2073.5535,-87.1354 2074.6563,-76.9063 2065.0807,-67 2038.6443,-39.6509 825.2589,-19.7332 588.0528,-16.0972"/>
<polygon fill="#191970" stroke="#191970" points="587.8676,-12.5941 577.8153,-15.9411 587.7608,-19.5933 587.8676,-12.5941"/>
</g>
<!-- Node27&#45;&gt;Node22 -->
<g id="edge45" class="edge">
<title>Node27&#45;&gt;Node22</title>
<path fill="none" stroke="#191970" d="M1927.768,-144.2812C2007.2753,-137.3329 2142.8324,-122.9255 2257.0807,-98 2261.1762,-97.1065 2265.4191,-96.0318 2269.6232,-94.8701"/>
<polygon fill="#191970" stroke="#191970" points="2270.6603,-98.2135 2279.2752,-92.0464 2268.6947,-91.4951 2270.6603,-98.2135"/>
</g>
<!-- Node28 -->
<g id="node29" class="node">
<title>Node28</title>
<polygon fill="none" stroke="#bfbfbf" points="1128.0807,-67.5 1128.0807,-97.5 1292.0807,-97.5 1292.0807,-67.5 1128.0807,-67.5"/>
<text text-anchor="start" x="1136.0807" y="-85.5" font-family="Helvetica,sans-Serif" font-size="10.00" fill="#000000">Math/GenVector/Displacement</text>
<text text-anchor="middle" x="1210.0807" y="-74.5" font-family="Helvetica,sans-Serif" font-size="10.00" fill="#000000">Vector3D.h</text>
</g>
<!-- Node27&#45;&gt;Node28 -->
<g id="edge39" class="edge">
<title>Node27&#45;&gt;Node28</title>
<path fill="none" stroke="#191970" d="M1814.6839,-139.986C1802.8136,-137.7548 1790.0026,-135.5726 1778.0807,-134 1571.0295,-106.6878 1514.4426,-123.118 1302.4965,-97.9621"/>
<polygon fill="#191970" stroke="#191970" points="1302.632,-94.4532 1292.2852,-96.7324 1301.795,-101.403 1302.632,-94.4532"/>
</g>
<!-- Node29 -->
<g id="node30" class="node">
<title>Node29</title>
<polygon fill="none" stroke="#bfbfbf" points="1310.5807,-73 1310.5807,-92 1499.5807,-92 1499.5807,-73 1310.5807,-73"/>
<text text-anchor="middle" x="1405.0807" y="-80" font-family="Helvetica,sans-Serif" font-size="10.00" fill="#000000">Math/GenVector/PositionVector3D.h</text>
</g>
<!-- Node27&#45;&gt;Node29 -->
<g id="edge40" class="edge">
<title>Node27&#45;&gt;Node29</title>
<path fill="none" stroke="#191970" d="M1812.0273,-139.969C1800.9009,-137.8867 1789.0942,-135.7766 1778.0807,-134 1658.9985,-114.7912 1628.5136,-114.8909 1509.0807,-98 1499.013,-96.5762 1488.403,-95.0382 1477.9633,-93.5031"/>
<polygon fill="#191970" stroke="#191970" points="1478.4336,-90.0346 1468.0295,-92.036 1477.4108,-96.9595 1478.4336,-90.0346"/>
</g>
<!-- Node30 -->
<g id="node31" class="node">
<title>Node30</title>
<polygon fill="none" stroke="#bfbfbf" points="1518.0807,-73 1518.0807,-92 1678.0807,-92 1678.0807,-73 1518.0807,-73"/>
<text text-anchor="middle" x="1598.0807" y="-80" font-family="Helvetica,sans-Serif" font-size="10.00" fill="#000000">Math/GenVector/Rotation3D.h</text>
</g>
<!-- Node27&#45;&gt;Node30 -->
<g id="edge41" class="edge">
<title>Node27&#45;&gt;Node30</title>
<path fill="none" stroke="#191970" d="M1822.8207,-139.9717C1776.1995,-128.0495 1696.3143,-107.6208 1645.4119,-94.6038"/>
<polygon fill="#191970" stroke="#191970" points="1646.1917,-91.1906 1635.6363,-92.1039 1644.4574,-97.9724 1646.1917,-91.1906"/>
</g>
<!-- Node31 -->
<g id="node32" class="node">
<title>Node31</title>
<polygon fill="none" stroke="#bfbfbf" points="1696.0807,-73 1696.0807,-92 1864.0807,-92 1864.0807,-73 1696.0807,-73"/>
<text text-anchor="middle" x="1780.0807" y="-80" font-family="Helvetica,sans-Serif" font-size="10.00" fill="#000000">Math/GenVector/Transform3D.h</text>
</g>
<!-- Node27&#45;&gt;Node31 -->
<g id="edge42" class="edge">
<title>Node27&#45;&gt;Node31</title>
<path fill="none" stroke="#191970" d="M1848.6186,-139.9005C1835.7869,-129.1539 1814.7796,-111.5603 1799.3994,-98.6794"/>
<polygon fill="#191970" stroke="#191970" points="1801.4352,-95.8191 1791.5215,-92.0817 1796.9407,-101.1856 1801.4352,-95.8191"/>
</g>
<!-- Node32 -->
<g id="node33" class="node">
<title>Node32</title>
<polygon fill="none" stroke="#bfbfbf" points="1882.5807,-73 1882.5807,-92 2055.5807,-92 2055.5807,-73 1882.5807,-73"/>
<text text-anchor="middle" x="1969.0807" y="-80" font-family="Helvetica,sans-Serif" font-size="10.00" fill="#000000">Math/GenVector/Translation3D.h</text>
</g>
<!-- Node27&#45;&gt;Node32 -->
<g id="edge43" class="edge">
<title>Node27&#45;&gt;Node32</title>
<path fill="none" stroke="#191970" d="M1875.6977,-139.9005C1893.7475,-128.8057 1923.6703,-110.4128 1944.7714,-97.4424"/>
<polygon fill="#191970" stroke="#191970" points="1946.8061,-100.3001 1953.4926,-92.0817 1943.1405,-94.3366 1946.8061,-100.3001"/>
</g>
<!-- Node33 -->
<g id="node34" class="node">
<title>Node33</title>
<g id="a_node34"><a xlink:href="../../d2/dd0/Cartesian2D_8h.html" target="_top" xlink:title="MathUtils/Cartesian2D.h">
<polygon fill="none" stroke="#000000" points="2112.5807,-73 2112.5807,-92 2247.5807,-92 2247.5807,-73 2112.5807,-73"/>
<text text-anchor="middle" x="2180.0807" y="-80" font-family="Helvetica,sans-Serif" font-size="10.00" fill="#000000">MathUtils/Cartesian2D.h</text>
</a>
</g>
</g>
<!-- Node27&#45;&gt;Node33 -->
<g id="edge47" class="edge">
<title>Node27&#45;&gt;Node33</title>
<path fill="none" stroke="#191970" d="M1905.589,-139.9717C1963.2059,-127.9082 2062.4192,-107.1354 2124.467,-94.1441"/>
<polygon fill="#191970" stroke="#191970" points="2125.4,-97.5247 2134.4705,-92.0496 2123.9655,-90.6733 2125.4,-97.5247"/>
</g>
<!-- Node34 -->
<g id="node35" class="node">
<title>Node34</title>
<polygon fill="none" stroke="#bfbfbf" points="2195.0807,-.5 2195.0807,-30.5 2359.0807,-30.5 2359.0807,-.5 2195.0807,-.5"/>
<text text-anchor="start" x="2203.0807" y="-18.5" font-family="Helvetica,sans-Serif" font-size="10.00" fill="#000000">Math/GenVector/Displacement</text>
<text text-anchor="middle" x="2277.0807" y="-7.5" font-family="Helvetica,sans-Serif" font-size="10.00" fill="#000000">Vector2D.h</text>
</g>
<!-- Node33&#45;&gt;Node34 -->
<g id="edge48" class="edge">
<title>Node33&#45;&gt;Node34</title>
<path fill="none" stroke="#191970" d="M2193.9784,-72.9005C2207.7542,-63.3853 2229.3012,-48.5023 2247.0027,-36.2755"/>
<polygon fill="#191970" stroke="#191970" points="2249.0939,-39.0849 2255.3327,-30.5218 2245.1155,-33.3253 2249.0939,-39.0849"/>
</g>
<!-- Node35 -->
<g id="node36" class="node">
<title>Node35</title>
<polygon fill="none" stroke="#bfbfbf" points="1987.5807,-6 1987.5807,-25 2176.5807,-25 2176.5807,-6 1987.5807,-6"/>
<text text-anchor="middle" x="2082.0807" y="-13" font-family="Helvetica,sans-Serif" font-size="10.00" fill="#000000">Math/GenVector/PositionVector2D.h</text>
</g>
<!-- Node33&#45;&gt;Node35 -->
<g id="edge49" class="edge">
<title>Node33&#45;&gt;Node35</title>
<path fill="none" stroke="#191970" d="M2166.0397,-72.9005C2149.9569,-61.9052 2123.3901,-43.7422 2104.449,-30.7927"/>
<polygon fill="#191970" stroke="#191970" points="2106.3261,-27.8362 2096.0956,-25.0817 2102.3754,-33.6148 2106.3261,-27.8362"/>
</g>
<!-- Node36&#45;&gt;Node13 -->
<g id="edge52" class="edge">
<title>Node36&#45;&gt;Node13</title>
<path fill="none" stroke="#191970" d="M627.0807,-257.2977C627.0807,-249.3834 627.0807,-239.6043 627.0807,-231.0759"/>
<polygon fill="#191970" stroke="#191970" points="630.5808,-230.8469 627.0807,-220.8469 623.5808,-230.847 630.5808,-230.8469"/>
</g>
<!-- Node37 -->
<g id="node38" class="node">
<title>Node37</title>
<polygon fill="none" stroke="#bfbfbf" points="1440.0807,-201.5 1440.0807,-220.5 1492.0807,-220.5 1492.0807,-201.5 1440.0807,-201.5"/>
<text text-anchor="middle" x="1466.0807" y="-208.5" font-family="Helvetica,sans-Serif" font-size="10.00" fill="#000000">TTree.h</text>
</g>
<!-- Node36&#45;&gt;Node37 -->
<g id="edge51" class="edge">
<title>Node36&#45;&gt;Node37</title>
<path fill="none" stroke="#191970" d="M688.1993,-270.2827C846.7874,-264.264 1269.6482,-246.4559 1429.6914,-220.8461"/>
<polygon fill="#191970" stroke="#191970" points="1430.5616,-224.2493 1439.8475,-219.148 1429.4072,-217.3451 1430.5616,-224.2493"/>
</g>
<!-- Node38&#45;&gt;Node11 -->
<g id="edge54" class="edge">
<title>Node38&#45;&gt;Node11</title>
<path fill="none" stroke="#191970" d="M61.7336,-257.4552C45.951,-248.9055 28.2906,-236.7344 17.0807,-221 2.1945,-200.1056 6.2153,-190.4627 3.0807,-165 1.3973,-151.3255 -2.239,-146.7094 3.0807,-134 19.4621,-94.8624 32.7445,-85.1779 71.0807,-67 148.3129,-30.3788 408.2937,-19.3758 508.3619,-16.452"/>
<polygon fill="#191970" stroke="#191970" points="508.4721,-19.9504 518.3699,-16.1712 508.2757,-12.9532 508.4721,-19.9504"/>
</g>
<!-- Node39&#45;&gt;Node4 -->
<g id="edge58" class="edge">
<title>Node39&#45;&gt;Node4</title>
<path fill="none" stroke="#191970" d="M370.5863,-257.2977C370.3289,-249.3834 370.0109,-239.6043 369.7335,-231.0759"/>
<polygon fill="#191970" stroke="#191970" points="373.2242,-230.7279 369.4009,-220.8469 366.2279,-230.9554 373.2242,-230.7279"/>
</g>
<!-- Node39&#45;&gt;Node5 -->
<g id="edge56" class="edge">
<title>Node39&#45;&gt;Node5</title>
<path fill="none" stroke="#191970" d="M325.1886,-257.4263C267.432,-238.0159 165.5617,-202.3162 81.0807,-165 80.0618,-164.5499 79.0289,-164.0813 77.9897,-163.5993"/>
<polygon fill="#191970" stroke="#191970" points="79.1946,-160.2925 68.6738,-159.0428 76.119,-166.5807 79.1946,-160.2925"/>
</g>
<!-- Node39&#45;&gt;Node11 -->
<g id="edge57" class="edge">
<title>Node39&#45;&gt;Node11</title>
<path fill="none" stroke="#191970" d="M309.6883,-269.7526C189.3674,-262.1376 -59.041,-234.1381 21.0807,-134 82.4486,-57.3007 396.2902,-26.777 508.2967,-18.2178"/>
<polygon fill="#191970" stroke="#191970" points="508.7788,-21.6916 518.4907,-17.4572 508.258,-14.711 508.7788,-21.6916"/>
</g>
<!-- Node39&#45;&gt;Node13 -->
<g id="edge59" class="edge">
<title>Node39&#45;&gt;Node13</title>
<path fill="none" stroke="#191970" d="M432.399,-257.7692C476.8113,-247.0999 536.0831,-232.8607 577.5141,-222.9076"/>
<polygon fill="#191970" stroke="#191970" points="578.4744,-226.2766 587.3802,-220.5374 576.8392,-219.4702 578.4744,-226.2766"/>
</g>
<!-- Node39&#45;&gt;Node19 -->
<g id="edge60" class="edge">
<title>Node39&#45;&gt;Node19</title>
<path fill="none" stroke="#191970" d="M432.2047,-267.0105C468.4798,-263.8515 515.3835,-259.9387 557.0807,-257 821.6073,-238.3569 1135.8622,-221.9153 1278.2118,-214.7764"/>
<polygon fill="#191970" stroke="#191970" points="1278.7597,-218.2534 1288.5723,-214.258 1278.4099,-211.2622 1278.7597,-218.2534"/>
</g>
</g>
</svg>
