<?xml version="1.0" encoding="UTF-8" standalone="no"?>
<!DOCTYPE svg PUBLIC "-//W3C//DTD SVG 1.1//EN"
 "http://www.w3.org/Graphics/SVG/1.1/DTD/svg11.dtd">
<!-- Generated by graphviz version 2.40.1 (20161225.0304)
 -->
<!-- Title: /home/travis/build/AliceO2Group/AliceO2/Detectors/Base/include/DetectorsBase/MatLayerCylSet.h Pages: 1 -->
<!--zoomable 428 -->
<svg id="main" version="1.1" xmlns="http://www.w3.org/2000/svg" xmlns:xlink="http://www.w3.org/1999/xlink" xml:space="preserve" onload="init(evt)">
<style type="text/css"><![CDATA[
.edge:hover path { stroke: red; }
.edge:hover polygon { stroke: red; fill: red; }
]]></style>
<script type="text/javascript"><![CDATA[
var edges = document.getElementsByTagName('g');
if (edges && edges.length) {
  for (var i=0;i<edges.length;i++) {
    if (edges[i].id.substr(0,4)=='edge') {
      edges[i].setAttribute('class','edge');
    }
  }
}
]]></script>
        <defs>
                <circle id="rim" cx="0" cy="0" r="7"/>
                <circle id="rim2" cx="0" cy="0" r="3.5"/>
                <g id="zoomPlus">
                        <use xlink:href="#rim" fill="#404040">
                                <set attributeName="fill" to="#808080" begin="zoomplus.mouseover" end="zoomplus.mouseout"/>
                        </use>
                        <path d="M-4,0h8M0,-4v8" fill="none" stroke="white" stroke-width="1.5" pointer-events="none"/>
                </g>
                <g id="zoomMin">
                        <use xlink:href="#rim" fill="#404040">
                                <set attributeName="fill" to="#808080" begin="zoomminus.mouseover" end="zoomminus.mouseout"/>
                        </use>
                        <path d="M-4,0h8" fill="none" stroke="white" stroke-width="1.5" pointer-events="none"/>
                </g>
                <g id="dirArrow">
                        <path fill="none" stroke="white" stroke-width="1.5" d="M0,-3.0v7 M-2.5,-0.5L0,-3.0L2.5,-0.5"/>
                </g>
               <g id="resetDef">
                       <use xlink:href="#rim2" fill="#404040">
                               <set attributeName="fill" to="#808080" begin="reset.mouseover" end="reset.mouseout"/>
                       </use>
               </g>
        </defs>

<script type="text/javascript">
var viewWidth = 2256;
var viewHeight = 428;
var sectionId = 'dynsection-1';
</script>
<script xlink:href="../../svgpan.js"/>
<svg id="graph" class="graph">
<g id="viewport">
<title>/home/travis/build/AliceO2Group/AliceO2/Detectors/Base/include/DetectorsBase/MatLayerCylSet.h</title>
<!-- Node31 -->
<g id="node1" class="node">
<title>Node31</title>
<polygon fill="#bfbfbf" stroke="#000000" points="1122,-367.5 1122,-419.5 1301,-419.5 1301,-367.5 1122,-367.5"/>
<text text-anchor="start" x="1130" y="-407.5" font-family="Helvetica,sans-Serif" font-size="10.00" fill="#000000">/home/travis/build</text>
<text text-anchor="start" x="1130" y="-396.5" font-family="Helvetica,sans-Serif" font-size="10.00" fill="#000000">/AliceO2Group/AliceO2</text>
<text text-anchor="start" x="1130" y="-385.5" font-family="Helvetica,sans-Serif" font-size="10.00" fill="#000000">/Detectors/Base/include</text>
<text text-anchor="middle" x="1211.5" y="-374.5" font-family="Helvetica,sans-Serif" font-size="10.00" fill="#000000">/DetectorsBase/MatLayerCylSet.h</text>
</g>
<!-- Node32 -->
<g id="node2" class="node">
<title>Node32</title>
<g id="a_node2"><a xlink:href="../../d2/df9/Propagator_8h.html" target="_top" xlink:title="/home/travis/build\l/AliceO2Group/AliceO2\l/Detectors/Base/include\l/DetectorsBase/Propagator.h">
<polygon fill="none" stroke="#000000" points="959,-278.5 959,-330.5 1114,-330.5 1114,-278.5 959,-278.5"/>
<text text-anchor="start" x="967" y="-318.5" font-family="Helvetica,sans-Serif" font-size="10.00" fill="#000000">/home/travis/build</text>
<text text-anchor="start" x="967" y="-307.5" font-family="Helvetica,sans-Serif" font-size="10.00" fill="#000000">/AliceO2Group/AliceO2</text>
<text text-anchor="start" x="967" y="-296.5" font-family="Helvetica,sans-Serif" font-size="10.00" fill="#000000">/Detectors/Base/include</text>
<text text-anchor="middle" x="1036.5" y="-285.5" font-family="Helvetica,sans-Serif" font-size="10.00" fill="#000000">/DetectorsBase/Propagator.h</text>
</a>
</g>
</g>
<!-- Node31&#45;&gt;Node32 -->
<g id="edge1" class="edge">
<title>Node31&#45;&gt;Node32</title>
<path fill="none" stroke="#191970" d="M1150.9498,-362.7059C1130.3321,-352.2203 1107.502,-340.6096 1087.6907,-330.5341"/>
<polygon fill="#191970" stroke="#191970" points="1149.4406,-365.865 1159.9407,-367.2784 1152.6139,-359.6255 1149.4406,-365.865"/>
</g>
<!-- Node49 -->
<g id="node19" class="node">
<title>Node49</title>
<g id="a_node19"><a xlink:href="../../d0/daa/MatLayerCylSet_8cxx.html" target="_top" xlink:title="Implementation of the wrapper for the set of cylindrical material layers. ">
<polygon fill="none" stroke="#000000" points="1132,-278.5 1132,-330.5 1291,-330.5 1291,-278.5 1132,-278.5"/>
<text text-anchor="start" x="1140" y="-318.5" font-family="Helvetica,sans-Serif" font-size="10.00" fill="#000000">/home/travis/build</text>
<text text-anchor="start" x="1140" y="-307.5" font-family="Helvetica,sans-Serif" font-size="10.00" fill="#000000">/AliceO2Group/AliceO2</text>
<text text-anchor="start" x="1140" y="-296.5" font-family="Helvetica,sans-Serif" font-size="10.00" fill="#000000">/Detectors/Base/src/MatLayer</text>
<text text-anchor="middle" x="1211.5" y="-285.5" font-family="Helvetica,sans-Serif" font-size="10.00" fill="#000000">CylSet.cxx</text>
</a>
</g>
</g>
<!-- Node31&#45;&gt;Node49 -->
<g id="edge22" class="edge">
<title>Node31&#45;&gt;Node49</title>
<path fill="none" stroke="#191970" d="M1211.5,-357.1155C1211.5,-348.2061 1211.5,-338.8475 1211.5,-330.5341"/>
<polygon fill="#191970" stroke="#191970" points="1208.0001,-357.2784 1211.5,-367.2784 1215.0001,-357.2785 1208.0001,-357.2784"/>
</g>
<!-- Node50 -->
<g id="node20" class="node">
<title>Node50</title>
<g id="a_node20"><a xlink:href="../../da/d78/CATrackerSpec_8cxx.html" target="_top" xlink:title="Processor spec for running TPC CA tracking. ">
<polygon fill="none" stroke="#000000" points="1309.5,-278.5 1309.5,-330.5 1445.5,-330.5 1445.5,-278.5 1309.5,-278.5"/>
<text text-anchor="start" x="1317.5" y="-318.5" font-family="Helvetica,sans-Serif" font-size="10.00" fill="#000000">/home/travis/build</text>
<text text-anchor="start" x="1317.5" y="-307.5" font-family="Helvetica,sans-Serif" font-size="10.00" fill="#000000">/AliceO2Group/AliceO2</text>
<text text-anchor="start" x="1317.5" y="-296.5" font-family="Helvetica,sans-Serif" font-size="10.00" fill="#000000">/Detectors/TPC/workflow</text>
<text text-anchor="middle" x="1377.5" y="-285.5" font-family="Helvetica,sans-Serif" font-size="10.00" fill="#000000">/src/CATrackerSpec.cxx</text>
</a>
</g>
</g>
<!-- Node31&#45;&gt;Node50 -->
<g id="edge23" class="edge">
<title>Node31&#45;&gt;Node50</title>
<path fill="none" stroke="#191970" d="M1269.4629,-362.4235C1288.8818,-352.0122 1310.3181,-340.5192 1328.9419,-330.5341"/>
<polygon fill="#191970" stroke="#191970" points="1267.567,-359.4686 1260.4076,-367.2784 1270.8747,-365.6379 1267.567,-359.4686"/>
</g>
<!-- Node33 -->
<g id="node3" class="node">
<title>Node33</title>
<g id="a_node3"><a xlink:href="../../d8/dee/Propagator_8cxx.html" target="_top" xlink:title="/home/travis/build\l/AliceO2Group/AliceO2\l/Detectors/Base/src/Propagator.cxx">
<polygon fill="none" stroke="#000000" points="0,-195 0,-236 187,-236 187,-195 0,-195"/>
<text text-anchor="start" x="8" y="-224" font-family="Helvetica,sans-Serif" font-size="10.00" fill="#000000">/home/travis/build</text>
<text text-anchor="start" x="8" y="-213" font-family="Helvetica,sans-Serif" font-size="10.00" fill="#000000">/AliceO2Group/AliceO2</text>
<text text-anchor="middle" x="93.5" y="-202" font-family="Helvetica,sans-Serif" font-size="10.00" fill="#000000">/Detectors/Base/src/Propagator.cxx</text>
</a>
</g>
</g>
<!-- Node32&#45;&gt;Node33 -->
<g id="edge2" class="edge">
<title>Node32&#45;&gt;Node33</title>
<path fill="none" stroke="#191970" d="M948.5002,-302.7778C795.5037,-298.7041 470.9374,-285.2825 200.5,-242 190.4845,-240.3971 180.0298,-238.322 169.7471,-236.039"/>
<polygon fill="#191970" stroke="#191970" points="948.6845,-306.2837 958.7719,-303.0441 948.866,-299.286 948.6845,-306.2837"/>
</g>
<!-- Node34 -->
<g id="node4" class="node">
<title>Node34</title>
<g id="a_node4"><a xlink:href="../../d3/dac/MatchTPCITS_8h.html" target="_top" xlink:title="Class to perform TPC ITS matching. ">
<polygon fill="none" stroke="#000000" points="423,-189.5 423,-241.5 628,-241.5 628,-189.5 423,-189.5"/>
<text text-anchor="start" x="431" y="-229.5" font-family="Helvetica,sans-Serif" font-size="10.00" fill="#000000">/home/travis/build</text>
<text text-anchor="start" x="431" y="-218.5" font-family="Helvetica,sans-Serif" font-size="10.00" fill="#000000">/AliceO2Group/AliceO2</text>
<text text-anchor="start" x="431" y="-207.5" font-family="Helvetica,sans-Serif" font-size="10.00" fill="#000000">/Detectors/GlobalTracking</text>
<text text-anchor="middle" x="525.5" y="-196.5" font-family="Helvetica,sans-Serif" font-size="10.00" fill="#000000">/include/GlobalTracking/MatchTPCITS.h</text>
</a>
</g>
</g>
<!-- Node32&#45;&gt;Node34 -->
<g id="edge3" class="edge">
<title>Node32&#45;&gt;Node34</title>
<path fill="none" stroke="#191970" d="M948.8242,-292.2706C868.7893,-280.709 747.344,-262.1666 642.5,-242 637.796,-241.0952 632.9929,-240.1391 628.1463,-239.1481"/>
<polygon fill="#191970" stroke="#191970" points="948.4649,-295.7549 958.8616,-293.7153 949.4623,-288.8263 948.4649,-295.7549"/>
</g>
<!-- Node36 -->
<g id="node6" class="node">
<title>Node36</title>
<g id="a_node6"><a xlink:href="../../db/d6a/MatchTOF_8cxx.html" target="_top" xlink:title="/home/travis/build\l/AliceO2Group/AliceO2\l/Detectors/GlobalTracking\l/src/MatchTOF.cxx">
<polygon fill="none" stroke="#000000" points="181.5,-.5 181.5,-52.5 323.5,-52.5 323.5,-.5 181.5,-.5"/>
<text text-anchor="start" x="189.5" y="-40.5" font-family="Helvetica,sans-Serif" font-size="10.00" fill="#000000">/home/travis/build</text>
<text text-anchor="start" x="189.5" y="-29.5" font-family="Helvetica,sans-Serif" font-size="10.00" fill="#000000">/AliceO2Group/AliceO2</text>
<text text-anchor="start" x="189.5" y="-18.5" font-family="Helvetica,sans-Serif" font-size="10.00" fill="#000000">/Detectors/GlobalTracking</text>
<text text-anchor="middle" x="252.5" y="-7.5" font-family="Helvetica,sans-Serif" font-size="10.00" fill="#000000">/src/MatchTOF.cxx</text>
</a>
</g>
</g>
<!-- Node32&#45;&gt;Node36 -->
<g id="edge12" class="edge">
<title>Node32&#45;&gt;Node36</title>
<path fill="none" stroke="#191970" d="M948.3779,-299.8287C801.0552,-291.3232 511.2751,-271.4282 413.5,-242 332.212,-217.5341 288.366,-225.678 244.5,-153 226.0218,-122.385 234.2257,-79.6664 242.6833,-52.5457"/>
<polygon fill="#191970" stroke="#191970" points="948.5507,-303.3442 958.7344,-300.4214 948.9507,-296.3556 948.5507,-303.3442"/>
</g>
<!-- Node37 -->
<g id="node7" class="node">
<title>Node37</title>
<g id="a_node7"><a xlink:href="../../d8/d84/RecoWorkflowSpec_8cxx.html" target="_top" xlink:title="/home/travis/build\l/AliceO2Group/AliceO2\l/Detectors/GlobalTrackingWorkflow\l/tofworkflow/src/RecoWorkflowSpec.cxx">
<polygon fill="none" stroke="#000000" points="358,-.5 358,-52.5 567,-52.5 567,-.5 358,-.5"/>
<text text-anchor="start" x="366" y="-40.5" font-family="Helvetica,sans-Serif" font-size="10.00" fill="#000000">/home/travis/build</text>
<text text-anchor="start" x="366" y="-29.5" font-family="Helvetica,sans-Serif" font-size="10.00" fill="#000000">/AliceO2Group/AliceO2</text>
<text text-anchor="start" x="366" y="-18.5" font-family="Helvetica,sans-Serif" font-size="10.00" fill="#000000">/Detectors/GlobalTrackingWorkflow</text>
<text text-anchor="middle" x="462.5" y="-7.5" font-family="Helvetica,sans-Serif" font-size="10.00" fill="#000000">/tofworkflow/src/RecoWorkflowSpec.cxx</text>
</a>
</g>
</g>
<!-- Node32&#45;&gt;Node37 -->
<g id="edge14" class="edge">
<title>Node32&#45;&gt;Node37</title>
<path fill="none" stroke="#191970" d="M948.7801,-288.6297C903.7507,-278.6228 848.78,-263.4656 802.5,-242 739.6429,-212.8456 721.4099,-203.9946 674.5,-153 652.256,-128.8192 662.7388,-110.0359 637.5,-89 617.3025,-72.1659 592.2284,-59.7159 567.4298,-50.5647"/>
<polygon fill="#191970" stroke="#191970" points="948.3029,-292.1077 958.8182,-290.8124 949.7902,-285.2675 948.3029,-292.1077"/>
</g>
<!-- Node41 -->
<g id="node11" class="node">
<title>Node41</title>
<g id="a_node11"><a xlink:href="../../d6/d73/TPCITSMatchingSpec_8cxx.html" target="_top" xlink:title="/home/travis/build\l/AliceO2Group/AliceO2\l/Detectors/GlobalTrackingWorkflow\l/src/TPCITSMatchingSpec.cxx">
<polygon fill="none" stroke="#000000" points="805,-.5 805,-52.5 992,-52.5 992,-.5 805,-.5"/>
<text text-anchor="start" x="813" y="-40.5" font-family="Helvetica,sans-Serif" font-size="10.00" fill="#000000">/home/travis/build</text>
<text text-anchor="start" x="813" y="-29.5" font-family="Helvetica,sans-Serif" font-size="10.00" fill="#000000">/AliceO2Group/AliceO2</text>
<text text-anchor="start" x="813" y="-18.5" font-family="Helvetica,sans-Serif" font-size="10.00" fill="#000000">/Detectors/GlobalTrackingWorkflow</text>
<text text-anchor="middle" x="898.5" y="-7.5" font-family="Helvetica,sans-Serif" font-size="10.00" fill="#000000">/src/TPCITSMatchingSpec.cxx</text>
</a>
</g>
</g>
<!-- Node32&#45;&gt;Node41 -->
<g id="edge13" class="edge">
<title>Node32&#45;&gt;Node41</title>
<path fill="none" stroke="#191970" d="M948.8445,-290.7634C894.5156,-280.2573 832.0306,-263.8539 815.5,-242 801.2897,-223.2136 803.6081,-209.3334 815.5,-189 831.976,-160.8286 860.9718,-179.8662 879.5,-153 900.0514,-123.2002 902.1347,-80.0641 900.9361,-52.6558"/>
<polygon fill="#191970" stroke="#191970" points="948.4056,-294.2423 958.881,-292.6565 949.7031,-287.3636 948.4056,-294.2423"/>
</g>
<!-- Node42 -->
<g id="node12" class="node">
<title>Node42</title>
<g id="a_node12"><a xlink:href="../../da/dfd/tof-reco-workflow_8cxx.html" target="_top" xlink:title="Basic DPL workflow for TOF reconstruction starting from digits. ">
<polygon fill="none" stroke="#000000" points="825,-189.5 825,-241.5 1028,-241.5 1028,-189.5 825,-189.5"/>
<text text-anchor="start" x="833" y="-229.5" font-family="Helvetica,sans-Serif" font-size="10.00" fill="#000000">/home/travis/build</text>
<text text-anchor="start" x="833" y="-218.5" font-family="Helvetica,sans-Serif" font-size="10.00" fill="#000000">/AliceO2Group/AliceO2</text>
<text text-anchor="start" x="833" y="-207.5" font-family="Helvetica,sans-Serif" font-size="10.00" fill="#000000">/Detectors/GlobalTrackingWorkflow</text>
<text text-anchor="middle" x="926.5" y="-196.5" font-family="Helvetica,sans-Serif" font-size="10.00" fill="#000000">/tofworkflow/src/tof&#45;reco&#45;workflow.cxx</text>
</a>
</g>
</g>
<!-- Node32&#45;&gt;Node42 -->
<g id="edge15" class="edge">
<title>Node32&#45;&gt;Node42</title>
<path fill="none" stroke="#191970" d="M996.1599,-271.8612C983.8135,-261.8718 970.4039,-251.0222 958.677,-241.5341"/>
<polygon fill="#191970" stroke="#191970" points="994.1157,-274.7094 1004.0913,-278.2784 998.5187,-269.2675 994.1157,-274.7094"/>
</g>
<!-- Node43 -->
<g id="node13" class="node">
<title>Node43</title>
<g id="a_node13"><a xlink:href="../../d7/dca/CookedTracker_8cxx.html" target="_top" xlink:title="Implementation of the &quot;Cooked Matrix&quot; ITS tracker. ">
<polygon fill="none" stroke="#000000" points="1046,-189.5 1046,-241.5 1247,-241.5 1247,-189.5 1046,-189.5"/>
<text text-anchor="start" x="1054" y="-229.5" font-family="Helvetica,sans-Serif" font-size="10.00" fill="#000000">/home/travis/build</text>
<text text-anchor="start" x="1054" y="-218.5" font-family="Helvetica,sans-Serif" font-size="10.00" fill="#000000">/AliceO2Group/AliceO2</text>
<text text-anchor="start" x="1054" y="-207.5" font-family="Helvetica,sans-Serif" font-size="10.00" fill="#000000">/Detectors/ITSMFT/ITS</text>
<text text-anchor="middle" x="1146.5" y="-196.5" font-family="Helvetica,sans-Serif" font-size="10.00" fill="#000000">/reconstruction/src/CookedTracker.cxx</text>
</a>
</g>
</g>
<!-- Node32&#45;&gt;Node43 -->
<g id="edge16" class="edge">
<title>Node32&#45;&gt;Node43</title>
<path fill="none" stroke="#191970" d="M1076.8401,-271.8612C1089.1865,-261.8718 1102.5961,-251.0222 1114.323,-241.5341"/>
<polygon fill="#191970" stroke="#191970" points="1074.4813,-269.2675 1068.9087,-278.2784 1078.8843,-274.7094 1074.4813,-269.2675"/>
</g>
<!-- Node44 -->
<g id="node14" class="node">
<title>Node44</title>
<g id="a_node14"><a xlink:href="../../d6/dbc/CookedTrackerSpec_8cxx.html" target="_top" xlink:title="/home/travis/build\l/AliceO2Group/AliceO2\l/Detectors/ITSMFT/ITS\l/workflow/src/CookedTrackerSpec.cxx">
<polygon fill="none" stroke="#000000" points="1265.5,-189.5 1265.5,-241.5 1465.5,-241.5 1465.5,-189.5 1265.5,-189.5"/>
<text text-anchor="start" x="1273.5" y="-229.5" font-family="Helvetica,sans-Serif" font-size="10.00" fill="#000000">/home/travis/build</text>
<text text-anchor="start" x="1273.5" y="-218.5" font-family="Helvetica,sans-Serif" font-size="10.00" fill="#000000">/AliceO2Group/AliceO2</text>
<text text-anchor="start" x="1273.5" y="-207.5" font-family="Helvetica,sans-Serif" font-size="10.00" fill="#000000">/Detectors/ITSMFT/ITS</text>
<text text-anchor="middle" x="1365.5" y="-196.5" font-family="Helvetica,sans-Serif" font-size="10.00" fill="#000000">/workflow/src/CookedTrackerSpec.cxx</text>
</a>
</g>
</g>
<!-- Node32&#45;&gt;Node44 -->
<g id="edge17" class="edge">
<title>Node32&#45;&gt;Node44</title>
<path fill="none" stroke="#191970" d="M1123.9946,-277.9009C1176.0112,-263.3529 1224.3144,-250.7639 1265.456,-240.3115"/>
<polygon fill="#191970" stroke="#191970" points="1122.921,-274.5669 1114.2396,-280.6401 1124.8134,-281.3063 1122.921,-274.5669"/>
</g>
<!-- Node45 -->
<g id="node15" class="node">
<title>Node45</title>
<g id="a_node15"><a xlink:href="../../de/d95/ITSMFT_2ITS_2workflow_2src_2TrackerSpec_8cxx.html" target="_top" xlink:title="/home/travis/build\l/AliceO2Group/AliceO2\l/Detectors/ITSMFT/ITS\l/workflow/src/TrackerSpec.cxx">
<polygon fill="none" stroke="#000000" points="1484,-189.5 1484,-241.5 1647,-241.5 1647,-189.5 1484,-189.5"/>
<text text-anchor="start" x="1492" y="-229.5" font-family="Helvetica,sans-Serif" font-size="10.00" fill="#000000">/home/travis/build</text>
<text text-anchor="start" x="1492" y="-218.5" font-family="Helvetica,sans-Serif" font-size="10.00" fill="#000000">/AliceO2Group/AliceO2</text>
<text text-anchor="start" x="1492" y="-207.5" font-family="Helvetica,sans-Serif" font-size="10.00" fill="#000000">/Detectors/ITSMFT/ITS</text>
<text text-anchor="middle" x="1565.5" y="-196.5" font-family="Helvetica,sans-Serif" font-size="10.00" fill="#000000">/workflow/src/TrackerSpec.cxx</text>
</a>
</g>
</g>
<!-- Node32&#45;&gt;Node45 -->
<g id="edge18" class="edge">
<title>Node32&#45;&gt;Node45</title>
<path fill="none" stroke="#191970" d="M1123.9846,-278.0905C1279.0504,-248.012 1323.7433,-271.4298 1474.5,-242 1477.5685,-241.401 1480.6828,-240.7449 1483.8192,-240.0436"/>
<polygon fill="#191970" stroke="#191970" points="1123.2258,-274.6727 1114.0976,-280.0511 1124.5874,-281.539 1123.2258,-274.6727"/>
</g>
<!-- Node46 -->
<g id="node16" class="node">
<title>Node46</title>
<g id="a_node16"><a xlink:href="../../d1/dd0/ITSMFT_2MFT_2workflow_2src_2TrackerSpec_8cxx.html" target="_top" xlink:title="/home/travis/build\l/AliceO2Group/AliceO2\l/Detectors/ITSMFT/MFT\l/workflow/src/TrackerSpec.cxx">
<polygon fill="none" stroke="#000000" points="1665,-189.5 1665,-241.5 1828,-241.5 1828,-189.5 1665,-189.5"/>
<text text-anchor="start" x="1673" y="-229.5" font-family="Helvetica,sans-Serif" font-size="10.00" fill="#000000">/home/travis/build</text>
<text text-anchor="start" x="1673" y="-218.5" font-family="Helvetica,sans-Serif" font-size="10.00" fill="#000000">/AliceO2Group/AliceO2</text>
<text text-anchor="start" x="1673" y="-207.5" font-family="Helvetica,sans-Serif" font-size="10.00" fill="#000000">/Detectors/ITSMFT/MFT</text>
<text text-anchor="middle" x="1746.5" y="-196.5" font-family="Helvetica,sans-Serif" font-size="10.00" fill="#000000">/workflow/src/TrackerSpec.cxx</text>
</a>
</g>
</g>
<!-- Node32&#45;&gt;Node46 -->
<g id="edge19" class="edge">
<title>Node32&#45;&gt;Node46</title>
<path fill="none" stroke="#191970" d="M1123.9376,-278.1288C1358.8555,-236.4436 1425.972,-283.2102 1656.5,-242 1659.2258,-241.5127 1661.9864,-240.9733 1664.7653,-240.3908"/>
<polygon fill="#191970" stroke="#191970" points="1123.2883,-274.6893 1114.0711,-279.9137 1124.5345,-281.5775 1123.2883,-274.6893"/>
</g>
<!-- Node47 -->
<g id="node17" class="node">
<title>Node47</title>
<g id="a_node17"><a xlink:href="../../d4/d15/TrackInterpolation_8cxx.html" target="_top" xlink:title="Implementation of the TrackInterpolation class. ">
<polygon fill="none" stroke="#000000" points="1846,-189.5 1846,-241.5 2053,-241.5 2053,-189.5 1846,-189.5"/>
<text text-anchor="start" x="1854" y="-229.5" font-family="Helvetica,sans-Serif" font-size="10.00" fill="#000000">/home/travis/build</text>
<text text-anchor="start" x="1854" y="-218.5" font-family="Helvetica,sans-Serif" font-size="10.00" fill="#000000">/AliceO2Group/AliceO2</text>
<text text-anchor="start" x="1854" y="-207.5" font-family="Helvetica,sans-Serif" font-size="10.00" fill="#000000">/Detectors/TPC/calibration</text>
<text text-anchor="middle" x="1949.5" y="-196.5" font-family="Helvetica,sans-Serif" font-size="10.00" fill="#000000">/SpacePoints/src/TrackInterpolation.cxx</text>
</a>
</g>
</g>
<!-- Node32&#45;&gt;Node47 -->
<g id="edge20" class="edge">
<title>Node32&#45;&gt;Node47</title>
<path fill="none" stroke="#191970" d="M1124.3688,-278.065C1438.3757,-224.6491 1526.3118,-286.2837 1837.5,-242 1840.2695,-241.6059 1843.071,-241.1756 1845.8928,-240.7144"/>
<polygon fill="#191970" stroke="#191970" points="1123.3172,-274.6947 1114.059,-279.8461 1124.5089,-281.5925 1123.3172,-274.6947"/>
</g>
<!-- Node48 -->
<g id="node18" class="node">
<title>Node48</title>
<g id="a_node18"><a xlink:href="../../d2/dd7/SimpleDigitizerWorkflow_8cxx.html" target="_top" xlink:title="/home/travis/build\l/AliceO2Group/AliceO2\l/Steer/DigitizerWorkflow\l/src/SimpleDigitizerWorkflow.cxx">
<polygon fill="none" stroke="#000000" points="2071.5,-189.5 2071.5,-241.5 2247.5,-241.5 2247.5,-189.5 2071.5,-189.5"/>
<text text-anchor="start" x="2079.5" y="-229.5" font-family="Helvetica,sans-Serif" font-size="10.00" fill="#000000">/home/travis/build</text>
<text text-anchor="start" x="2079.5" y="-218.5" font-family="Helvetica,sans-Serif" font-size="10.00" fill="#000000">/AliceO2Group/AliceO2</text>
<text text-anchor="start" x="2079.5" y="-207.5" font-family="Helvetica,sans-Serif" font-size="10.00" fill="#000000">/Steer/DigitizerWorkflow</text>
<text text-anchor="middle" x="2159.5" y="-196.5" font-family="Helvetica,sans-Serif" font-size="10.00" fill="#000000">/src/SimpleDigitizerWorkflow.cxx</text>
</a>
</g>
</g>
<!-- Node32&#45;&gt;Node48 -->
<g id="edge21" class="edge">
<title>Node32&#45;&gt;Node48</title>
<path fill="none" stroke="#191970" d="M1124.1736,-278.1094C1537.1924,-210.1305 1653.033,-304.934 2062.5,-242 2065.4333,-241.5492 2068.4048,-241.0413 2071.3964,-240.4861"/>
<polygon fill="#191970" stroke="#191970" points="1123.3385,-274.7003 1114.0508,-279.7982 1124.4904,-281.6049 1123.3385,-274.7003"/>
</g>
<!-- Node35 -->
<g id="node5" class="node">
<title>Node35</title>
<g id="a_node5"><a xlink:href="../../d0/d74/MatchTOF_8h.html" target="_top" xlink:title="Class to perform TOF matching to global tracks. ">
<polygon fill="none" stroke="#000000" points="280.5,-95 280.5,-147 468.5,-147 468.5,-95 280.5,-95"/>
<text text-anchor="start" x="288.5" y="-135" font-family="Helvetica,sans-Serif" font-size="10.00" fill="#000000">/home/travis/build</text>
<text text-anchor="start" x="288.5" y="-124" font-family="Helvetica,sans-Serif" font-size="10.00" fill="#000000">/AliceO2Group/AliceO2</text>
<text text-anchor="start" x="288.5" y="-113" font-family="Helvetica,sans-Serif" font-size="10.00" fill="#000000">/Detectors/GlobalTracking</text>
<text text-anchor="middle" x="374.5" y="-102" font-family="Helvetica,sans-Serif" font-size="10.00" fill="#000000">/include/GlobalTracking/MatchTOF.h</text>
</a>
</g>
</g>
<!-- Node34&#45;&gt;Node35 -->
<g id="edge4" class="edge">
<title>Node34&#45;&gt;Node35</title>
<path fill="none" stroke="#191970" d="M475.2433,-184.0479C456.1161,-172.0776 434.5463,-158.5786 416.287,-147.1515"/>
<polygon fill="#191970" stroke="#191970" points="473.5052,-187.0891 483.8389,-189.4273 477.2188,-181.1553 473.5052,-187.0891"/>
</g>
<!-- Node34&#45;&gt;Node36 -->
<g id="edge7" class="edge">
<title>Node34&#45;&gt;Node36</title>
<path fill="none" stroke="#191970" d="M412.661,-200.2652C354.2032,-190.008 291.024,-174.4123 271.5,-153 246.7358,-125.8408 246.05,-80.9279 248.66,-52.5673"/>
<polygon fill="#191970" stroke="#191970" points="412.3027,-203.7547 422.7498,-201.9919 413.4836,-196.855 412.3027,-203.7547"/>
</g>
<!-- Node38 -->
<g id="node8" class="node">
<title>Node38</title>
<g id="a_node8"><a xlink:href="../../dc/d59/MatchTPCITS_8cxx.html" target="_top" xlink:title="/home/travis/build\l/AliceO2Group/AliceO2\l/Detectors/GlobalTracking\l/src/MatchTPCITS.cxx">
<polygon fill="none" stroke="#000000" points="486.5,-95 486.5,-147 628.5,-147 628.5,-95 486.5,-95"/>
<text text-anchor="start" x="494.5" y="-135" font-family="Helvetica,sans-Serif" font-size="10.00" fill="#000000">/home/travis/build</text>
<text text-anchor="start" x="494.5" y="-124" font-family="Helvetica,sans-Serif" font-size="10.00" fill="#000000">/AliceO2Group/AliceO2</text>
<text text-anchor="start" x="494.5" y="-113" font-family="Helvetica,sans-Serif" font-size="10.00" fill="#000000">/Detectors/GlobalTracking</text>
<text text-anchor="middle" x="557.5" y="-102" font-family="Helvetica,sans-Serif" font-size="10.00" fill="#000000">/src/MatchTPCITS.cxx</text>
</a>
</g>
</g>
<!-- Node34&#45;&gt;Node38 -->
<g id="edge8" class="edge">
<title>Node34&#45;&gt;Node38</title>
<path fill="none" stroke="#191970" d="M537.58,-179.8263C541.235,-169.0326 545.1808,-157.38 548.5889,-147.3157"/>
<polygon fill="#191970" stroke="#191970" points="534.2212,-178.833 534.3288,-189.4273 540.8514,-181.0782 534.2212,-178.833"/>
</g>
<!-- Node39 -->
<g id="node9" class="node">
<title>Node39</title>
<g id="a_node9"><a xlink:href="../../da/d20/TPCITSMatchingSpec_8h.html" target="_top" xlink:title="/home/travis/build\l/AliceO2Group/AliceO2\l/Detectors/GlobalTrackingWorkflow\l/include/GlobalTrackingWorkflow\l/TPCITSMatchingSpec.h">
<polygon fill="none" stroke="#000000" points="684,-89.5 684,-152.5 871,-152.5 871,-89.5 684,-89.5"/>
<text text-anchor="start" x="692" y="-140.5" font-family="Helvetica,sans-Serif" font-size="10.00" fill="#000000">/home/travis/build</text>
<text text-anchor="start" x="692" y="-129.5" font-family="Helvetica,sans-Serif" font-size="10.00" fill="#000000">/AliceO2Group/AliceO2</text>
<text text-anchor="start" x="692" y="-118.5" font-family="Helvetica,sans-Serif" font-size="10.00" fill="#000000">/Detectors/GlobalTrackingWorkflow</text>
<text text-anchor="start" x="692" y="-107.5" font-family="Helvetica,sans-Serif" font-size="10.00" fill="#000000">/include/GlobalTrackingWorkflow</text>
<text text-anchor="middle" x="777.5" y="-96.5" font-family="Helvetica,sans-Serif" font-size="10.00" fill="#000000">/TPCITSMatchingSpec.h</text>
</a>
</g>
</g>
<!-- Node34&#45;&gt;Node39 -->
<g id="edge9" class="edge">
<title>Node34&#45;&gt;Node39</title>
<path fill="none" stroke="#191970" d="M604.4659,-185.8878C632.745,-175.2831 664.7147,-163.2945 693.4111,-152.5333"/>
<polygon fill="#191970" stroke="#191970" points="603.1615,-182.6389 595.0272,-189.4273 605.6194,-189.1932 603.1615,-182.6389"/>
</g>
<!-- Node35&#45;&gt;Node36 -->
<g id="edge5" class="edge">
<title>Node35&#45;&gt;Node36</title>
<path fill="none" stroke="#191970" d="M332.6729,-88.6011C317.6018,-76.9272 300.7926,-63.907 286.4737,-52.8157"/>
<polygon fill="#191970" stroke="#191970" points="330.791,-91.5706 340.84,-94.9273 335.0776,-86.0366 330.791,-91.5706"/>
</g>
<!-- Node35&#45;&gt;Node37 -->
<g id="edge6" class="edge">
<title>Node35&#45;&gt;Node37</title>
<path fill="none" stroke="#191970" d="M405.8833,-87.2986C416.437,-75.9654 428.0485,-63.4962 437.9944,-52.8157"/>
<polygon fill="#191970" stroke="#191970" points="403.0329,-85.2238 398.7793,-94.9273 408.1557,-89.9942 403.0329,-85.2238"/>
</g>
<!-- Node40 -->
<g id="node10" class="node">
<title>Node40</title>
<g id="a_node10"><a xlink:href="../../d5/db4/MatchTPCITSWorkflow_8cxx.html" target="_top" xlink:title="/home/travis/build\l/AliceO2Group/AliceO2\l/Detectors/GlobalTrackingWorkflow\l/src/MatchTPCITSWorkflow.cxx">
<polygon fill="none" stroke="#000000" points="600,-.5 600,-52.5 787,-52.5 787,-.5 600,-.5"/>
<text text-anchor="start" x="608" y="-40.5" font-family="Helvetica,sans-Serif" font-size="10.00" fill="#000000">/home/travis/build</text>
<text text-anchor="start" x="608" y="-29.5" font-family="Helvetica,sans-Serif" font-size="10.00" fill="#000000">/AliceO2Group/AliceO2</text>
<text text-anchor="start" x="608" y="-18.5" font-family="Helvetica,sans-Serif" font-size="10.00" fill="#000000">/Detectors/GlobalTrackingWorkflow</text>
<text text-anchor="middle" x="693.5" y="-7.5" font-family="Helvetica,sans-Serif" font-size="10.00" fill="#000000">/src/MatchTPCITSWorkflow.cxx</text>
</a>
</g>
</g>
<!-- Node39&#45;&gt;Node40 -->
<g id="edge10" class="edge">
<title>Node39&#45;&gt;Node40</title>
<path fill="none" stroke="#191970" d="M742.4537,-81.573C733.7771,-71.8118 724.6932,-61.5924 716.7392,-52.6442"/>
<polygon fill="#191970" stroke="#191970" points="740.0359,-84.1211 749.2955,-89.27 745.2678,-79.4706 740.0359,-84.1211"/>
</g>
<!-- Node39&#45;&gt;Node41 -->
<g id="edge11" class="edge">
<title>Node39&#45;&gt;Node41</title>
<path fill="none" stroke="#191970" d="M826.1317,-83.0191C839.1822,-72.8267 852.9997,-62.0354 865.0244,-52.6442"/>
<polygon fill="#191970" stroke="#191970" points="823.8548,-80.3563 818.1279,-89.27 828.1634,-85.8732 823.8548,-80.3563"/>
</g>
</g>
</svg>
        <g id="navigator" transform="translate(0 0)" fill="#404254">
                <rect fill="#f2f5e9" fill-opacity="0.5" stroke="#606060" stroke-width=".5" x="0" y="0" width="60" height="60"/>
                <use id="zoomplus" xlink:href="#zoomPlus" x="17" y="9" onmousedown="handleZoom(evt,'in')"/>
                <use id="zoomminus" xlink:href="#zoomMin" x="42" y="9" onmousedown="handleZoom(evt,'out')"/>
                <use id="reset" xlink:href="#resetDef" x="30" y="36" onmousedown="handleReset()"/>
                <g id="arrowUp" xlink:href="#dirArrow" transform="translate(30 24)" onmousedown="handlePan(0,-1)">
                  <use xlink:href="#rim" fill="#404040">
                        <set attributeName="fill" to="#808080" begin="arrowUp.mouseover" end="arrowUp.mouseout"/>
                  </use>
                  <path fill="none" stroke="white" stroke-width="1.5" d="M0,-3.0v7 M-2.5,-0.5L0,-3.0L2.5,-0.5"/>
                </g>
                <g id="arrowRight" xlink:href="#dirArrow" transform="rotate(90) translate(36 -43)" onmousedown="handlePan(1,0)">
                  <use xlink:href="#rim" fill="#404040">
                        <set attributeName="fill" to="#808080" begin="arrowRight.mouseover" end="arrowRight.mouseout"/>
                  </use>
                  <path fill="none" stroke="white" stroke-width="1.5" d="M0,-3.0v7 M-2.5,-0.5L0,-3.0L2.5,-0.5"/>
                </g>
                <g id="arrowDown" xlink:href="#dirArrow" transform="rotate(180) translate(-30 -48)" onmousedown="handlePan(0,1)">
                  <use xlink:href="#rim" fill="#404040">
                        <set attributeName="fill" to="#808080" begin="arrowDown.mouseover" end="arrowDown.mouseout"/>
                  </use>
                  <path fill="none" stroke="white" stroke-width="1.5" d="M0,-3.0v7 M-2.5,-0.5L0,-3.0L2.5,-0.5"/>
                </g>
                <g id="arrowLeft" xlink:href="#dirArrow" transform="rotate(270) translate(-36 17)" onmousedown="handlePan(-1,0)">
                  <use xlink:href="#rim" fill="#404040">
                        <set attributeName="fill" to="#808080" begin="arrowLeft.mouseover" end="arrowLeft.mouseout"/>
                  </use>
                  <path fill="none" stroke="white" stroke-width="1.5" d="M0,-3.0v7 M-2.5,-0.5L0,-3.0L2.5,-0.5"/>
                </g>
        </g>
        <svg viewBox="0 0 15 15" width="100%" height="30px" preserveAspectRatio="xMaxYMin meet">
         <g id="arrow_out" transform="scale(0.3 0.3)">
          <a xlink:href="MatLayerCylSet_8h__dep__incl_org.svg" target="_base">
           <rect id="button" ry="5" rx="5" y="6" x="6" height="38" width="38"
                fill="#f2f5e9" fill-opacity="0.5" stroke="#606060" stroke-width="1.0"/>
           <path id="arrow"
             d="M 11.500037,31.436501 C 11.940474,20.09759 22.043105,11.32322 32.158766,21.979434 L 37.068811,17.246167 C 37.068811,17.246167 37.088388,32 37.088388,32 L 22.160133,31.978069 C 22.160133,31.978069 26.997745,27.140456 26.997745,27.140456 C 18.528582,18.264221 13.291696,25.230495 11.500037,31.436501 z"
             style="fill:#404040;"/>
          </a>
         </g>
        </svg>
</svg>
