<?xml version="1.0" encoding="UTF-8" standalone="no"?>
<!DOCTYPE svg PUBLIC "-//W3C//DTD SVG 1.1//EN"
 "http://www.w3.org/Graphics/SVG/1.1/DTD/svg11.dtd">
<!-- Generated by graphviz version 2.40.1 (20161225.0304)
 -->
<!-- Title: /home/travis/build/AliceO2Group/AliceO2/Framework/Core/include/Framework/DataDescriptorMatcher.h Pages: 1 -->
<!--zoomable 251 -->
<svg id="main" version="1.1" xmlns="http://www.w3.org/2000/svg" xmlns:xlink="http://www.w3.org/1999/xlink" xml:space="preserve" onload="init(evt)">
<style type="text/css"><![CDATA[
.edge:hover path { stroke: red; }
.edge:hover polygon { stroke: red; fill: red; }
]]></style>
<script type="text/javascript"><![CDATA[
var edges = document.getElementsByTagName('g');
if (edges && edges.length) {
  for (var i=0;i<edges.length;i++) {
    if (edges[i].id.substr(0,4)=='edge') {
      edges[i].setAttribute('class','edge');
    }
  }
}
]]></script>
        <defs>
                <circle id="rim" cx="0" cy="0" r="7"/>
                <circle id="rim2" cx="0" cy="0" r="3.5"/>
                <g id="zoomPlus">
                        <use xlink:href="#rim" fill="#404040">
                                <set attributeName="fill" to="#808080" begin="zoomplus.mouseover" end="zoomplus.mouseout"/>
                        </use>
                        <path d="M-4,0h8M0,-4v8" fill="none" stroke="white" stroke-width="1.5" pointer-events="none"/>
                </g>
                <g id="zoomMin">
                        <use xlink:href="#rim" fill="#404040">
                                <set attributeName="fill" to="#808080" begin="zoomminus.mouseover" end="zoomminus.mouseout"/>
                        </use>
                        <path d="M-4,0h8" fill="none" stroke="white" stroke-width="1.5" pointer-events="none"/>
                </g>
                <g id="dirArrow">
                        <path fill="none" stroke="white" stroke-width="1.5" d="M0,-3.0v7 M-2.5,-0.5L0,-3.0L2.5,-0.5"/>
                </g>
               <g id="resetDef">
                       <use xlink:href="#rim2" fill="#404040">
                               <set attributeName="fill" to="#808080" begin="reset.mouseover" end="reset.mouseout"/>
                       </use>
               </g>
        </defs>

<script type="text/javascript">
var viewWidth = 2390;
var viewHeight = 251;
var sectionId = 'dynsection-0';
</script>
<script xlink:href="../../svgpan.js"/>
<svg id="graph" class="graph">
<g id="viewport">
<title>/home/travis/build/AliceO2Group/AliceO2/Framework/Core/include/Framework/DataDescriptorMatcher.h</title>
<!-- Node0 -->
<g id="node1" class="node">
<title>Node0</title>
<polygon fill="#bfbfbf" stroke="#000000" points="517.5,-190.5 517.5,-242.5 714.5,-242.5 714.5,-190.5 517.5,-190.5"/>
<text text-anchor="start" x="525.5" y="-230.5" font-family="Helvetica,sans-Serif" font-size="10.00" fill="#000000">/home/travis/build</text>
<text text-anchor="start" x="525.5" y="-219.5" font-family="Helvetica,sans-Serif" font-size="10.00" fill="#000000">/AliceO2Group/AliceO2</text>
<text text-anchor="start" x="525.5" y="-208.5" font-family="Helvetica,sans-Serif" font-size="10.00" fill="#000000">/Framework/Core/include</text>
<text text-anchor="middle" x="616" y="-197.5" font-family="Helvetica,sans-Serif" font-size="10.00" fill="#000000">/Framework/DataDescriptorMatcher.h</text>
</g>
<!-- Node1 -->
<g id="node2" class="node">
<title>Node1</title>
<g id="a_node2"><a xlink:href="../../d0/d1b/ConcreteDataMatcher_8h.html" target="_top" xlink:title="Framework/ConcreteDataMatcher.h">
<polygon fill="none" stroke="#000000" points="286,-129 286,-148 474,-148 474,-129 286,-129"/>
<text text-anchor="middle" x="380" y="-136" font-family="Helvetica,sans-Serif" font-size="10.00" fill="#000000">Framework/ConcreteDataMatcher.h</text>
</a>
</g>
</g>
<!-- Node0&#45;&gt;Node1 -->
<g id="edge1" class="edge">
<title>Node0&#45;&gt;Node1</title>
<path fill="none" stroke="#191970" d="M537.0873,-190.4187C497.3072,-177.271 450.8457,-161.9151 418.8249,-151.332"/>
<polygon fill="#191970" stroke="#191970" points="419.5559,-147.8874 408.9627,-148.0724 417.3592,-154.5338 419.5559,-147.8874"/>
</g>
<!-- Node2 -->
<g id="node3" class="node">
<title>Node2</title>
<g id="a_node3"><a xlink:href="../../dc/dcd/DataHeader_8h.html" target="_top" xlink:title="Headers/DataHeader.h">
<polygon fill="none" stroke="#000000" points="316.5,-67.5 316.5,-86.5 443.5,-86.5 443.5,-67.5 316.5,-67.5"/>
<text text-anchor="middle" x="380" y="-74.5" font-family="Helvetica,sans-Serif" font-size="10.00" fill="#000000">Headers/DataHeader.h</text>
</a>
</g>
</g>
<!-- Node0&#45;&gt;Node2 -->
<g id="edge19" class="edge">
<title>Node0&#45;&gt;Node2</title>
<path fill="none" stroke="#191970" d="M578.238,-190.4957C562.1004,-179.3261 543.0815,-166.087 526,-154 506.7681,-140.3914 503.4183,-134.754 483,-123 461.1209,-110.4051 435.1599,-98.8309 414.7753,-90.4429"/>
<polygon fill="#191970" stroke="#191970" points="415.8413,-87.0985 405.2586,-86.5905 413.2147,-93.5871 415.8413,-87.0985"/>
</g>
<!-- Node3 -->
<g id="node4" class="node">
<title>Node3</title>
<polygon fill="none" stroke="#bfbfbf" points="0,-6 0,-25 50,-25 50,-6 0,-6"/>
<text text-anchor="middle" x="25" y="-13" font-family="Helvetica,sans-Serif" font-size="10.00" fill="#000000">cstdint</text>
</g>
<!-- Node0&#45;&gt;Node3 -->
<g id="edge39" class="edge">
<title>Node0&#45;&gt;Node3</title>
<path fill="none" stroke="#191970" d="M517.403,-209.575C376.0799,-198.9128 129.1029,-177.2594 95,-154 53.9657,-126.0131 35.7299,-66.5069 28.737,-35.3934"/>
<polygon fill="#191970" stroke="#191970" points="32.1069,-34.4064 26.648,-25.3262 25.2529,-35.8288 32.1069,-34.4064"/>
</g>
<!-- Node9 -->
<g id="node10" class="node">
<title>Node9</title>
<polygon fill="none" stroke="#bfbfbf" points="514,-6 514,-25 558,-25 558,-6 514,-6"/>
<text text-anchor="middle" x="536" y="-13" font-family="Helvetica,sans-Serif" font-size="10.00" fill="#000000">string</text>
</g>
<!-- Node0&#45;&gt;Node9 -->
<g id="edge41" class="edge">
<title>Node0&#45;&gt;Node9</title>
<path fill="none" stroke="#191970" d="M586.0383,-190.4884C575.92,-180.1342 565.5422,-167.4751 559,-154 540.0064,-114.8786 536.3159,-63.0142 535.8235,-35.1717"/>
<polygon fill="#191970" stroke="#191970" points="539.3234,-35.1089 535.7705,-25.1276 532.3235,-35.146 539.3234,-35.1089"/>
</g>
<!-- Node13 -->
<g id="node14" class="node">
<title>Node13</title>
<g id="a_node14"><a xlink:href="../../d6/dc9/DataProcessingHeader_8h.html" target="_top" xlink:title="Framework/DataProcessing\lHeader.h">
<polygon fill="none" stroke="#000000" points="104.5,-123.5 104.5,-153.5 253.5,-153.5 253.5,-123.5 104.5,-123.5"/>
<text text-anchor="start" x="112.5" y="-141.5" font-family="Helvetica,sans-Serif" font-size="10.00" fill="#000000">Framework/DataProcessing</text>
<text text-anchor="middle" x="179" y="-130.5" font-family="Helvetica,sans-Serif" font-size="10.00" fill="#000000">Header.h</text>
</a>
</g>
</g>
<!-- Node0&#45;&gt;Node13 -->
<g id="edge13" class="edge">
<title>Node0&#45;&gt;Node13</title>
<path fill="none" stroke="#191970" d="M517.3838,-198.898C441.0482,-185.2729 336.438,-166.6011 263.8215,-153.6398"/>
<polygon fill="#191970" stroke="#191970" points="264.253,-150.1615 253.7936,-151.8499 263.023,-157.0526 264.253,-150.1615"/>
</g>
<!-- Node15 -->
<g id="node16" class="node">
<title>Node15</title>
<g id="a_node16"><a xlink:href="../../d4/d00/Headers_2include_2Headers_2Stack_8h.html" target="_top" xlink:title="Headers/Stack.h">
<polygon fill="none" stroke="#000000" points="568,-129 568,-148 664,-148 664,-129 568,-129"/>
<text text-anchor="middle" x="616" y="-136" font-family="Helvetica,sans-Serif" font-size="10.00" fill="#000000">Headers/Stack.h</text>
</a>
</g>
</g>
<!-- Node0&#45;&gt;Node15 -->
<g id="edge20" class="edge">
<title>Node0&#45;&gt;Node15</title>
<path fill="none" stroke="#191970" d="M616,-190.0928C616,-179.6735 616,-167.911 616,-158.2512"/>
<polygon fill="#191970" stroke="#191970" points="619.5001,-158.0838 616,-148.0839 612.5001,-158.0839 619.5001,-158.0838"/>
</g>
<!-- Node23 -->
<g id="node24" class="node">
<title>Node23</title>
<polygon fill="none" stroke="#bfbfbf" points="2334.5,-6 2334.5,-25 2381.5,-25 2381.5,-6 2334.5,-6"/>
<text text-anchor="middle" x="2358" y="-13" font-family="Helvetica,sans-Serif" font-size="10.00" fill="#000000">vector</text>
</g>
<!-- Node0&#45;&gt;Node23 -->
<g id="edge43" class="edge">
<title>Node0&#45;&gt;Node23</title>
<path fill="none" stroke="#191970" d="M640.6285,-190.4421C665.7774,-164.1355 702.3258,-126.8443 711,-123 731.5401,-113.8969 2304.2539,-36.6452 2326,-31 2327.9717,-30.4882 2329.9669,-29.8507 2331.9466,-29.1285"/>
<polygon fill="#191970" stroke="#191970" points="2333.7354,-32.1691 2341.5374,-25.0011 2330.9683,-25.7393 2333.7354,-32.1691"/>
</g>
<!-- Node29 -->
<g id="node30" class="node">
<title>Node29</title>
<polygon fill="none" stroke="#bfbfbf" points="720,-129 720,-148 762,-148 762,-129 720,-129"/>
<text text-anchor="middle" x="741" y="-136" font-family="Helvetica,sans-Serif" font-size="10.00" fill="#000000">array</text>
</g>
<!-- Node0&#45;&gt;Node29 -->
<g id="edge38" class="edge">
<title>Node0&#45;&gt;Node29</title>
<path fill="none" stroke="#191970" d="M657.9709,-190.3101C677.5995,-178.0619 700.2671,-163.9173 716.9535,-153.505"/>
<polygon fill="#191970" stroke="#191970" points="718.9202,-156.4034 725.5511,-148.1401 715.2144,-150.4647 718.9202,-156.4034"/>
</g>
<!-- Node30 -->
<g id="node31" class="node">
<title>Node30</title>
<polygon fill="none" stroke="#bfbfbf" points="780.5,-129 780.5,-148 829.5,-148 829.5,-129 780.5,-129"/>
<text text-anchor="middle" x="805" y="-136" font-family="Helvetica,sans-Serif" font-size="10.00" fill="#000000">iosfwd</text>
</g>
<!-- Node0&#45;&gt;Node30 -->
<g id="edge40" class="edge">
<title>Node0&#45;&gt;Node30</title>
<path fill="none" stroke="#191970" d="M682.644,-190.3803C710.1192,-179.4169 742.2051,-166.3617 771,-154 772.2071,-153.4818 773.436,-152.9486 774.6757,-152.4059"/>
<polygon fill="#191970" stroke="#191970" points="776.4995,-155.425 784.2073,-148.1558 773.6487,-149.0317 776.4995,-155.425"/>
</g>
<!-- Node31 -->
<g id="node32" class="node">
<title>Node31</title>
<polygon fill="none" stroke="#bfbfbf" points="847.5,-129 847.5,-148 898.5,-148 898.5,-129 847.5,-129"/>
<text text-anchor="middle" x="873" y="-136" font-family="Helvetica,sans-Serif" font-size="10.00" fill="#000000">variant</text>
</g>
<!-- Node0&#45;&gt;Node31 -->
<g id="edge42" class="edge">
<title>Node0&#45;&gt;Node31</title>
<path fill="none" stroke="#191970" d="M714.7351,-192.3453C753.8589,-181.8647 798.9716,-168.634 839,-154 840.6336,-153.4028 842.298,-152.7606 843.9688,-152.0895"/>
<polygon fill="#191970" stroke="#191970" points="845.62,-155.19 853.4385,-148.0401 842.8677,-148.7538 845.62,-155.19"/>
</g>
<!-- Node32 -->
<g id="node33" class="node">
<title>Node32</title>
<polygon fill="none" stroke="#bfbfbf" points="917,-129 917,-148 1063,-148 1063,-129 917,-129"/>
<text text-anchor="middle" x="990" y="-136" font-family="Helvetica,sans-Serif" font-size="10.00" fill="#000000">DataDescriptorMatcher.inc</text>
</g>
<!-- Node0&#45;&gt;Node32 -->
<g id="edge44" class="edge">
<title>Node0&#45;&gt;Node32</title>
<path fill="none" stroke="#191970" d="M714.7533,-195.9044C784.7797,-181.3 876.2281,-162.2278 934.0539,-150.1679"/>
<polygon fill="#191970" stroke="#191970" points="935.0194,-153.5419 944.0942,-148.0739 933.5902,-146.6894 935.0194,-153.5419"/>
</g>
<!-- Node1&#45;&gt;Node2 -->
<g id="edge2" class="edge">
<title>Node1&#45;&gt;Node2</title>
<path fill="none" stroke="#191970" d="M380,-128.8906C380,-120.3657 380,-107.6392 380,-96.9235"/>
<polygon fill="#191970" stroke="#191970" points="383.5001,-96.7448 380,-86.7449 376.5001,-96.7449 383.5001,-96.7448"/>
</g>
<!-- Node2&#45;&gt;Node3 -->
<g id="edge3" class="edge">
<title>Node2&#45;&gt;Node3</title>
<path fill="none" stroke="#191970" d="M316.4341,-73.2508C250.8456,-68.1464 146.1185,-56.5268 59,-31 57.039,-30.4254 55.0458,-29.7575 53.058,-29.028"/>
<polygon fill="#191970" stroke="#191970" points="53.9173,-25.5962 43.3385,-25.0136 51.245,-32.0661 53.9173,-25.5962"/>
</g>
<!-- Node4 -->
<g id="node5" class="node">
<title>Node4</title>
<polygon fill="none" stroke="#bfbfbf" points="68,-6 68,-25 126,-25 126,-6 68,-6"/>
<text text-anchor="middle" x="97" y="-13" font-family="Helvetica,sans-Serif" font-size="10.00" fill="#000000">memory</text>
</g>
<!-- Node2&#45;&gt;Node4 -->
<g id="edge4" class="edge">
<title>Node2&#45;&gt;Node4</title>
<path fill="none" stroke="#191970" d="M316.4849,-68.67C266.5319,-61.2613 195.5075,-48.8221 135,-31 132.6933,-30.3206 130.3344,-29.5509 127.977,-28.7266"/>
<polygon fill="#191970" stroke="#191970" points="129.0252,-25.3812 118.4335,-25.1214 126.5514,-31.9295 129.0252,-25.3812"/>
</g>
<!-- Node5 -->
<g id="node6" class="node">
<title>Node5</title>
<polygon fill="none" stroke="#bfbfbf" points="144,-6 144,-25 196,-25 196,-6 144,-6"/>
<text text-anchor="middle" x="170" y="-13" font-family="Helvetica,sans-Serif" font-size="10.00" fill="#000000">cassert</text>
</g>
<!-- Node2&#45;&gt;Node5 -->
<g id="edge5" class="edge">
<title>Node2&#45;&gt;Node5</title>
<path fill="none" stroke="#191970" d="M335.906,-67.471C300.1633,-59.2568 248.7298,-46.3199 205,-31 203.1655,-30.3573 201.2933,-29.6591 199.4159,-28.9265"/>
<polygon fill="#191970" stroke="#191970" points="200.7148,-25.6762 190.1371,-25.0743 198.0307,-32.1412 200.7148,-25.6762"/>
</g>
<!-- Node6 -->
<g id="node7" class="node">
<title>Node6</title>
<polygon fill="none" stroke="#bfbfbf" points="740,-6 740,-25 790,-25 790,-6 740,-6"/>
<text text-anchor="middle" x="765" y="-13" font-family="Helvetica,sans-Serif" font-size="10.00" fill="#000000">cstring</text>
</g>
<!-- Node2&#45;&gt;Node6 -->
<g id="edge6" class="edge">
<title>Node2&#45;&gt;Node6</title>
<path fill="none" stroke="#191970" d="M443.6002,-74.3405C514.812,-70.0652 633.0721,-59.056 731,-31 732.9644,-30.4372 734.9602,-29.7782 736.9499,-29.0552"/>
<polygon fill="#191970" stroke="#191970" points="738.7567,-32.0967 746.6739,-25.0562 736.0942,-25.6228 738.7567,-32.0967"/>
</g>
<!-- Node7 -->
<g id="node8" class="node">
<title>Node7</title>
<polygon fill="none" stroke="#bfbfbf" points="348,-6 348,-25 412,-25 412,-6 348,-6"/>
<text text-anchor="middle" x="380" y="-13" font-family="Helvetica,sans-Serif" font-size="10.00" fill="#000000">algorithm</text>
</g>
<!-- Node2&#45;&gt;Node7 -->
<g id="edge7" class="edge">
<title>Node2&#45;&gt;Node7</title>
<path fill="none" stroke="#191970" d="M380,-67.3906C380,-58.8657 380,-46.1392 380,-35.4235"/>
<polygon fill="#191970" stroke="#191970" points="383.5001,-35.2448 380,-25.2449 376.5001,-35.2449 383.5001,-35.2448"/>
</g>
<!-- Node8 -->
<g id="node9" class="node">
<title>Node8</title>
<polygon fill="none" stroke="#bfbfbf" points="430.5,-6 430.5,-25 495.5,-25 495.5,-6 430.5,-6"/>
<text text-anchor="middle" x="463" y="-13" font-family="Helvetica,sans-Serif" font-size="10.00" fill="#000000">stdexcept</text>
</g>
<!-- Node2&#45;&gt;Node8 -->
<g id="edge8" class="edge">
<title>Node2&#45;&gt;Node8</title>
<path fill="none" stroke="#191970" d="M392.9688,-67.3906C406.0034,-57.7324 426.3164,-42.6812 441.7155,-31.271"/>
<polygon fill="#191970" stroke="#191970" points="444.1713,-33.8075 450.1223,-25.0419 440.0039,-28.1832 444.1713,-33.8075"/>
</g>
<!-- Node2&#45;&gt;Node9 -->
<g id="edge9" class="edge">
<title>Node2&#45;&gt;Node9</title>
<path fill="none" stroke="#191970" d="M408.3737,-67.3459C433.7051,-58.5215 471.6856,-44.7825 504,-31 505.1818,-30.496 506.3829,-29.9714 507.5924,-29.4331"/>
<polygon fill="#191970" stroke="#191970" points="509.2443,-32.5252 516.8468,-25.146 506.3019,-26.1736 509.2443,-32.5252"/>
</g>
<!-- Node10 -->
<g id="node11" class="node">
<title>Node10</title>
<polygon fill="none" stroke="#bfbfbf" points="214,-6 214,-25 264,-25 264,-6 214,-6"/>
<text text-anchor="middle" x="239" y="-13" font-family="Helvetica,sans-Serif" font-size="10.00" fill="#000000">climits</text>
</g>
<!-- Node2&#45;&gt;Node10 -->
<g id="edge10" class="edge">
<title>Node2&#45;&gt;Node10</title>
<path fill="none" stroke="#191970" d="M357.3937,-67.4497C335.6948,-58.2431 302.0271,-43.8541 273,-31 271.7988,-30.4681 270.575,-29.9233 269.3395,-29.3711"/>
<polygon fill="#191970" stroke="#191970" points="270.3803,-26.0011 259.8256,-25.0804 267.5025,-32.3822 270.3803,-26.0011"/>
</g>
<!-- Node11 -->
<g id="node12" class="node">
<title>Node11</title>
<g id="a_node12"><a xlink:href="../../d7/df8/Types_8h.html" target="_top" xlink:title="MemoryResources/Types.h">
<polygon fill="none" stroke="#000000" points="576,-6 576,-25 722,-25 722,-6 576,-6"/>
<text text-anchor="middle" x="649" y="-13" font-family="Helvetica,sans-Serif" font-size="10.00" fill="#000000">MemoryResources/Types.h</text>
</a>
</g>
</g>
<!-- Node2&#45;&gt;Node11 -->
<g id="edge11" class="edge">
<title>Node2&#45;&gt;Node11</title>
<path fill="none" stroke="#191970" d="M421.7361,-67.4581C469.0515,-56.6406 546.2292,-38.9959 597.3136,-27.3168"/>
<polygon fill="#191970" stroke="#191970" points="598.1976,-30.7051 607.166,-25.0643 596.6374,-23.8811 598.1976,-30.7051"/>
</g>
<!-- Node12 -->
<g id="node13" class="node">
<title>Node12</title>
<polygon fill="none" stroke="#bfbfbf" points="282.5,-6 282.5,-25 329.5,-25 329.5,-6 282.5,-6"/>
<text text-anchor="middle" x="306" y="-13" font-family="Helvetica,sans-Serif" font-size="10.00" fill="#000000">cerrno</text>
</g>
<!-- Node2&#45;&gt;Node12 -->
<g id="edge12" class="edge">
<title>Node2&#45;&gt;Node12</title>
<path fill="none" stroke="#191970" d="M368.4375,-67.3906C356.9921,-57.8786 339.2527,-43.1357 325.603,-31.7917"/>
<polygon fill="#191970" stroke="#191970" points="327.6533,-28.9447 317.7255,-25.2449 323.1792,-34.3283 327.6533,-28.9447"/>
</g>
<!-- Node13&#45;&gt;Node2 -->
<g id="edge14" class="edge">
<title>Node13&#45;&gt;Node2</title>
<path fill="none" stroke="#191970" d="M228.1701,-123.4554C262.1488,-113.059 306.8281,-99.3884 338.9086,-89.5727"/>
<polygon fill="#191970" stroke="#191970" points="340.3138,-92.803 348.8521,-86.5303 338.2657,-86.1094 340.3138,-92.803"/>
</g>
<!-- Node13&#45;&gt;Node3 -->
<g id="edge15" class="edge">
<title>Node13&#45;&gt;Node3</title>
<path fill="none" stroke="#191970" d="M142.2702,-123.3725C123.1408,-114.4548 100.0435,-101.9808 82,-87 63.5913,-71.716 47.1013,-49.6454 36.6516,-34.077"/>
<polygon fill="#191970" stroke="#191970" points="39.3531,-31.8118 30.9625,-25.3427 33.4876,-35.6322 39.3531,-31.8118"/>
</g>
<!-- Node13&#45;&gt;Node4 -->
<g id="edge17" class="edge">
<title>Node13&#45;&gt;Node4</title>
<path fill="none" stroke="#191970" d="M173.6362,-123.2293C167.9833,-108.2103 158.2106,-84.9842 146,-67 137.3572,-54.2706 125.5112,-41.7255 115.6318,-32.2041"/>
<polygon fill="#191970" stroke="#191970" points="117.9203,-29.5521 108.229,-25.2707 113.1351,-34.6612 117.9203,-29.5521"/>
</g>
<!-- Node13&#45;&gt;Node5 -->
<g id="edge18" class="edge">
<title>Node13&#45;&gt;Node5</title>
<path fill="none" stroke="#191970" d="M179.7554,-123.4025C180.3023,-108.9091 180.6838,-86.4158 179,-67 178.0869,-56.4711 176.1426,-44.866 174.294,-35.3418"/>
<polygon fill="#191970" stroke="#191970" points="177.6735,-34.399 172.2354,-25.3063 170.8163,-35.8057 177.6735,-34.399"/>
</g>
<!-- Node14 -->
<g id="node15" class="node">
<title>Node14</title>
<polygon fill="none" stroke="#bfbfbf" points="91,-67.5 91,-86.5 137,-86.5 137,-67.5 91,-67.5"/>
<text text-anchor="middle" x="114" y="-74.5" font-family="Helvetica,sans-Serif" font-size="10.00" fill="#000000">cstdio</text>
</g>
<!-- Node13&#45;&gt;Node14 -->
<g id="edge16" class="edge">
<title>Node13&#45;&gt;Node14</title>
<path fill="none" stroke="#191970" d="M162.9326,-123.2977C153.534,-114.4052 141.6473,-103.1586 131.943,-93.9769"/>
<polygon fill="#191970" stroke="#191970" points="134.0768,-91.1774 124.4073,-86.8469 129.2658,-96.2621 134.0768,-91.1774"/>
</g>
<!-- Node15&#45;&gt;Node2 -->
<g id="edge37" class="edge">
<title>Node15&#45;&gt;Node2</title>
<path fill="none" stroke="#191970" d="M579.3839,-128.9581C538.2189,-118.2308 471.2899,-100.7895 426.4709,-89.11"/>
<polygon fill="#191970" stroke="#191970" points="427.2614,-85.6992 416.702,-86.5643 425.4962,-92.473 427.2614,-85.6992"/>
</g>
<!-- Node16 -->
<g id="node17" class="node">
<title>Node16</title>
<g id="a_node17"><a xlink:href="../../dc/d03/MemoryResources_8h.html" target="_top" xlink:title="MemoryResources/MemoryResources.h">
<polygon fill="none" stroke="#000000" points="1054.5,-67.5 1054.5,-86.5 1261.5,-86.5 1261.5,-67.5 1054.5,-67.5"/>
<text text-anchor="middle" x="1158" y="-74.5" font-family="Helvetica,sans-Serif" font-size="10.00" fill="#000000">MemoryResources/MemoryResources.h</text>
</a>
</g>
</g>
<!-- Node15&#45;&gt;Node16 -->
<g id="edge21" class="edge">
<title>Node15&#45;&gt;Node16</title>
<path fill="none" stroke="#191970" d="M650.2399,-128.9692C659.2161,-126.7382 668.9242,-124.5604 678,-123 802.3081,-101.6284 946.5598,-89.4793 1044.2209,-83.0999"/>
<polygon fill="#191970" stroke="#191970" points="1044.6569,-86.5792 1054.4114,-82.4441 1044.2073,-79.5936 1044.6569,-86.5792"/>
</g>
<!-- Node16&#45;&gt;Node6 -->
<g id="edge26" class="edge">
<title>Node16&#45;&gt;Node6</title>
<path fill="none" stroke="#191970" d="M1054.1964,-71.6088C981.8729,-65.9362 883.7414,-54.3876 800,-31 797.8158,-30.39 795.592,-29.6672 793.3779,-28.8725"/>
<polygon fill="#191970" stroke="#191970" points="794.4706,-25.5395 783.8868,-25.0552 791.8585,-32.0339 794.4706,-25.5395"/>
</g>
<!-- Node16&#45;&gt;Node9 -->
<g id="edge27" class="edge">
<title>Node16&#45;&gt;Node9</title>
<path fill="none" stroke="#191970" d="M1054.4555,-73.7252C910.0444,-68.3398 655.8791,-55.6614 567,-31 565.2859,-30.5244 563.5543,-29.9519 561.8321,-29.3113"/>
<polygon fill="#191970" stroke="#191970" points="562.8211,-25.9226 552.2584,-25.0972 560.0009,-32.3294 562.8211,-25.9226"/>
</g>
<!-- Node16&#45;&gt;Node11 -->
<g id="edge36" class="edge">
<title>Node16&#45;&gt;Node11</title>
<path fill="none" stroke="#191970" d="M1054.1656,-68.1415C967.5172,-60.1918 840.8964,-47.2797 731,-31 722.9507,-29.8076 714.4864,-28.3923 706.1767,-26.9094"/>
<polygon fill="#191970" stroke="#191970" points="706.622,-23.4329 696.1555,-25.0775 705.3631,-30.3188 706.622,-23.4329"/>
</g>
<!-- Node17 -->
<g id="node18" class="node">
<title>Node17</title>
<polygon fill="none" stroke="#bfbfbf" points="1439.5,-.5 1439.5,-30.5 1550.5,-30.5 1550.5,-.5 1439.5,-.5"/>
<text text-anchor="start" x="1447.5" y="-18.5" font-family="Helvetica,sans-Serif" font-size="10.00" fill="#000000">boost/container/flat</text>
<text text-anchor="middle" x="1495" y="-7.5" font-family="Helvetica,sans-Serif" font-size="10.00" fill="#000000">_map.hpp</text>
</g>
<!-- Node16&#45;&gt;Node17 -->
<g id="edge22" class="edge">
<title>Node16&#45;&gt;Node17</title>
<path fill="none" stroke="#191970" d="M1221.4258,-67.4975C1274.4263,-59.2774 1352.2023,-46.568 1429.4747,-31.0286"/>
<polygon fill="#191970" stroke="#191970" points="1430.2797,-34.4366 1439.3848,-29.0193 1428.8887,-27.5762 1430.2797,-34.4366"/>
</g>
<!-- Node18 -->
<g id="node19" class="node">
<title>Node18</title>
<polygon fill="none" stroke="#bfbfbf" points="1568.5,-.5 1568.5,-30.5 1697.5,-30.5 1697.5,-.5 1568.5,-.5"/>
<text text-anchor="start" x="1576.5" y="-18.5" font-family="Helvetica,sans-Serif" font-size="10.00" fill="#000000">boost/container/pmr</text>
<text text-anchor="middle" x="1633" y="-7.5" font-family="Helvetica,sans-Serif" font-size="10.00" fill="#000000">/memory_resource.hpp</text>
</g>
<!-- Node16&#45;&gt;Node18 -->
<g id="edge23" class="edge">
<title>Node16&#45;&gt;Node18</title>
<path fill="none" stroke="#191970" d="M1261.6512,-67.878C1340.5903,-60.2912 1452.126,-48.2021 1558.2587,-31.204"/>
<polygon fill="#191970" stroke="#191970" points="1558.8695,-34.6508 1568.1817,-29.5977 1557.7508,-27.7407 1558.8695,-34.6508"/>
</g>
<!-- Node19 -->
<g id="node20" class="node">
<title>Node19</title>
<polygon fill="none" stroke="#bfbfbf" points="1715.5,-.5 1715.5,-30.5 1888.5,-30.5 1888.5,-.5 1715.5,-.5"/>
<text text-anchor="start" x="1723.5" y="-18.5" font-family="Helvetica,sans-Serif" font-size="10.00" fill="#000000">boost/container/pmr</text>
<text text-anchor="middle" x="1802" y="-7.5" font-family="Helvetica,sans-Serif" font-size="10.00" fill="#000000">/monotonic_buffer_resource.hpp</text>
</g>
<!-- Node16&#45;&gt;Node19 -->
<g id="edge24" class="edge">
<title>Node16&#45;&gt;Node19</title>
<path fill="none" stroke="#191970" d="M1261.6035,-68.2129C1266.4701,-67.8024 1271.288,-67.3965 1276,-67 1464.2723,-51.1595 1514.5133,-54.3771 1705.2414,-31.1652"/>
<polygon fill="#191970" stroke="#191970" points="1705.8189,-34.6207 1715.3189,-29.9302 1704.9673,-27.6727 1705.8189,-34.6207"/>
</g>
<!-- Node20 -->
<g id="node21" class="node">
<title>Node20</title>
<polygon fill="none" stroke="#bfbfbf" points="1906.5,-.5 1906.5,-30.5 2055.5,-30.5 2055.5,-.5 1906.5,-.5"/>
<text text-anchor="start" x="1914.5" y="-18.5" font-family="Helvetica,sans-Serif" font-size="10.00" fill="#000000">boost/container/pmr</text>
<text text-anchor="middle" x="1981" y="-7.5" font-family="Helvetica,sans-Serif" font-size="10.00" fill="#000000">/polymorphic_allocator.hpp</text>
</g>
<!-- Node16&#45;&gt;Node20 -->
<g id="edge25" class="edge">
<title>Node16&#45;&gt;Node20</title>
<path fill="none" stroke="#191970" d="M1261.5919,-68.0634C1266.4616,-67.6929 1271.2833,-67.3363 1276,-67 1548.8343,-47.5472 1621.3628,-64.0698 1896.1323,-31.1344"/>
<polygon fill="#191970" stroke="#191970" points="1896.9053,-34.5665 1906.4125,-29.8906 1896.0644,-27.6172 1896.9053,-34.5665"/>
</g>
<!-- Node21 -->
<g id="node22" class="node">
<title>Node21</title>
<polygon fill="none" stroke="#bfbfbf" points="2073.5,-6 2073.5,-25 2142.5,-25 2142.5,-6 2073.5,-6"/>
<text text-anchor="middle" x="2108" y="-13" font-family="Helvetica,sans-Serif" font-size="10.00" fill="#000000">type_traits</text>
</g>
<!-- Node16&#45;&gt;Node21 -->
<g id="edge28" class="edge">
<title>Node16&#45;&gt;Node21</title>
<path fill="none" stroke="#191970" d="M1261.587,-67.9918C1266.458,-67.6404 1271.2813,-67.3075 1276,-67 1626.2886,-44.1746 1720.6746,-99.2873 2065,-31 2068.639,-30.2783 2072.3829,-29.3033 2076.072,-28.1916"/>
<polygon fill="#191970" stroke="#191970" points="2077.2236,-31.4971 2085.5998,-25.0094 2075.0061,-24.8576 2077.2236,-31.4971"/>
</g>
<!-- Node22 -->
<g id="node23" class="node">
<title>Node22</title>
<polygon fill="none" stroke="#bfbfbf" points="2160.5,-6 2160.5,-25 2205.5,-25 2205.5,-6 2160.5,-6"/>
<text text-anchor="middle" x="2183" y="-13" font-family="Helvetica,sans-Serif" font-size="10.00" fill="#000000">utility</text>
</g>
<!-- Node16&#45;&gt;Node22 -->
<g id="edge29" class="edge">
<title>Node16&#45;&gt;Node22</title>
<path fill="none" stroke="#191970" d="M1261.5853,-67.9653C1266.4568,-67.621 1271.2806,-67.2968 1276,-67 1470.4468,-54.771 1963.3401,-79.6474 2152,-31 2153.9228,-30.5042 2155.865,-29.8787 2157.7896,-29.1651"/>
<polygon fill="#191970" stroke="#191970" points="2159.3611,-32.2972 2167.0955,-25.0564 2156.5338,-25.8936 2159.3611,-32.2972"/>
</g>
<!-- Node16&#45;&gt;Node23 -->
<g id="edge30" class="edge">
<title>Node16&#45;&gt;Node23</title>
<path fill="none" stroke="#191970" d="M1261.5829,-67.9254C1266.455,-67.5918 1271.2796,-67.2808 1276,-67 1509.0586,-53.1381 2099.3703,-87.1021 2326,-31 2327.9774,-30.5105 2329.9767,-29.8896 2331.9595,-29.1794"/>
<polygon fill="#191970" stroke="#191970" points="2333.7367,-32.2262 2341.5569,-25.0781 2330.9859,-25.7893 2333.7367,-32.2262"/>
</g>
<!-- Node24 -->
<g id="node25" class="node">
<title>Node24</title>
<polygon fill="none" stroke="#bfbfbf" points="2223.5,-6 2223.5,-25 2316.5,-25 2316.5,-6 2223.5,-6"/>
<text text-anchor="middle" x="2270" y="-13" font-family="Helvetica,sans-Serif" font-size="10.00" fill="#000000">unordered_map</text>
</g>
<!-- Node16&#45;&gt;Node24 -->
<g id="edge31" class="edge">
<title>Node16&#45;&gt;Node24</title>
<path fill="none" stroke="#191970" d="M1261.5843,-67.9491C1266.4561,-67.6092 1271.2802,-67.2903 1276,-67 1692.8521,-41.3598 1802.4646,-96.097 2215,-31 2220.3896,-30.1495 2226.0021,-28.9491 2231.4928,-27.5882"/>
<polygon fill="#191970" stroke="#191970" points="2232.4104,-30.9659 2241.1703,-25.0065 2230.6061,-24.2024 2232.4104,-30.9659"/>
</g>
<!-- Node25 -->
<g id="node26" class="node">
<title>Node25</title>
<polygon fill="none" stroke="#bfbfbf" points="808.5,-6 808.5,-25 909.5,-25 909.5,-6 808.5,-6"/>
<text text-anchor="middle" x="859" y="-13" font-family="Helvetica,sans-Serif" font-size="10.00" fill="#000000">FairMQMessage.h</text>
</g>
<!-- Node16&#45;&gt;Node25 -->
<g id="edge32" class="edge">
<title>Node16&#45;&gt;Node25</title>
<path fill="none" stroke="#191970" d="M1103.2172,-67.4641C1054.6438,-58.7694 981.8643,-45.1551 919,-31 914.2637,-29.9335 909.333,-28.7615 904.4234,-27.5541"/>
<polygon fill="#191970" stroke="#191970" points="904.9959,-24.0893 894.4446,-25.0489 903.2914,-30.8786 904.9959,-24.0893"/>
</g>
<!-- Node26 -->
<g id="node27" class="node">
<title>Node26</title>
<polygon fill="none" stroke="#bfbfbf" points="927.5,-6 927.5,-25 1064.5,-25 1064.5,-6 927.5,-6"/>
<text text-anchor="middle" x="996" y="-13" font-family="Helvetica,sans-Serif" font-size="10.00" fill="#000000">FairMQTransportFactory.h</text>
</g>
<!-- Node16&#45;&gt;Node26 -->
<g id="edge33" class="edge">
<title>Node16&#45;&gt;Node26</title>
<path fill="none" stroke="#191970" d="M1132.6875,-67.3906C1105.2253,-56.9652 1061.2105,-40.2559 1030.5737,-28.6252"/>
<polygon fill="#191970" stroke="#191970" points="1031.726,-25.319 1021.1348,-25.0419 1029.2415,-31.8633 1031.726,-25.319"/>
</g>
<!-- Node27 -->
<g id="node28" class="node">
<title>Node27</title>
<polygon fill="none" stroke="#bfbfbf" points="1083,-6 1083,-25 1233,-25 1233,-6 1083,-6"/>
<text text-anchor="middle" x="1158" y="-13" font-family="Helvetica,sans-Serif" font-size="10.00" fill="#000000">fairmq/MemoryResources.h</text>
</g>
<!-- Node16&#45;&gt;Node27 -->
<g id="edge34" class="edge">
<title>Node16&#45;&gt;Node27</title>
<path fill="none" stroke="#191970" d="M1158,-67.3906C1158,-58.8657 1158,-46.1392 1158,-35.4235"/>
<polygon fill="#191970" stroke="#191970" points="1161.5001,-35.2448 1158,-25.2449 1154.5001,-35.2449 1161.5001,-35.2448"/>
</g>
<!-- Node28 -->
<g id="node29" class="node">
<title>Node28</title>
<polygon fill="none" stroke="#bfbfbf" points="1251,-6 1251,-25 1421,-25 1421,-6 1251,-6"/>
<text text-anchor="middle" x="1336" y="-13" font-family="Helvetica,sans-Serif" font-size="10.00" fill="#000000">fairmq/MemoryResourceTools.h</text>
</g>
<!-- Node16&#45;&gt;Node28 -->
<g id="edge35" class="edge">
<title>Node16&#45;&gt;Node28</title>
<path fill="none" stroke="#191970" d="M1185.8125,-67.3906C1216.2483,-56.8749 1265.1877,-39.966 1298.8826,-28.3243"/>
<polygon fill="#191970" stroke="#191970" points="1300.074,-31.6157 1308.3828,-25.0419 1297.788,-24.9995 1300.074,-31.6157"/>
</g>
</g>
</svg>
        <g id="navigator" transform="translate(0 0)" fill="#404254">
                <rect fill="#f2f5e9" fill-opacity="0.5" stroke="#606060" stroke-width=".5" x="0" y="0" width="60" height="60"/>
                <use id="zoomplus" xlink:href="#zoomPlus" x="17" y="9" onmousedown="handleZoom(evt,'in')"/>
                <use id="zoomminus" xlink:href="#zoomMin" x="42" y="9" onmousedown="handleZoom(evt,'out')"/>
                <use id="reset" xlink:href="#resetDef" x="30" y="36" onmousedown="handleReset()"/>
                <g id="arrowUp" xlink:href="#dirArrow" transform="translate(30 24)" onmousedown="handlePan(0,-1)">
                  <use xlink:href="#rim" fill="#404040">
                        <set attributeName="fill" to="#808080" begin="arrowUp.mouseover" end="arrowUp.mouseout"/>
                  </use>
                  <path fill="none" stroke="white" stroke-width="1.5" d="M0,-3.0v7 M-2.5,-0.5L0,-3.0L2.5,-0.5"/>
                </g>
                <g id="arrowRight" xlink:href="#dirArrow" transform="rotate(90) translate(36 -43)" onmousedown="handlePan(1,0)">
                  <use xlink:href="#rim" fill="#404040">
                        <set attributeName="fill" to="#808080" begin="arrowRight.mouseover" end="arrowRight.mouseout"/>
                  </use>
                  <path fill="none" stroke="white" stroke-width="1.5" d="M0,-3.0v7 M-2.5,-0.5L0,-3.0L2.5,-0.5"/>
                </g>
                <g id="arrowDown" xlink:href="#dirArrow" transform="rotate(180) translate(-30 -48)" onmousedown="handlePan(0,1)">
                  <use xlink:href="#rim" fill="#404040">
                        <set attributeName="fill" to="#808080" begin="arrowDown.mouseover" end="arrowDown.mouseout"/>
                  </use>
                  <path fill="none" stroke="white" stroke-width="1.5" d="M0,-3.0v7 M-2.5,-0.5L0,-3.0L2.5,-0.5"/>
                </g>
                <g id="arrowLeft" xlink:href="#dirArrow" transform="rotate(270) translate(-36 17)" onmousedown="handlePan(-1,0)">
                  <use xlink:href="#rim" fill="#404040">
                        <set attributeName="fill" to="#808080" begin="arrowLeft.mouseover" end="arrowLeft.mouseout"/>
                  </use>
                  <path fill="none" stroke="white" stroke-width="1.5" d="M0,-3.0v7 M-2.5,-0.5L0,-3.0L2.5,-0.5"/>
                </g>
        </g>
        <svg viewBox="0 0 15 15" width="100%" height="30px" preserveAspectRatio="xMaxYMin meet">
         <g id="arrow_out" transform="scale(0.3 0.3)">
          <a xlink:href="DataDescriptorMatcher_8h__incl_org.svg" target="_base">
           <rect id="button" ry="5" rx="5" y="6" x="6" height="38" width="38"
                fill="#f2f5e9" fill-opacity="0.5" stroke="#606060" stroke-width="1.0"/>
           <path id="arrow"
             d="M 11.500037,31.436501 C 11.940474,20.09759 22.043105,11.32322 32.158766,21.979434 L 37.068811,17.246167 C 37.068811,17.246167 37.088388,32 37.088388,32 L 22.160133,31.978069 C 22.160133,31.978069 26.997745,27.140456 26.997745,27.140456 C 18.528582,18.264221 13.291696,25.230495 11.500037,31.436501 z"
             style="fill:#404040;"/>
          </a>
         </g>
        </svg>
</svg>
