<?xml version="1.0" encoding="UTF-8" standalone="no"?>
<!DOCTYPE svg PUBLIC "-//W3C//DTD SVG 1.1//EN"
 "http://www.w3.org/Graphics/SVG/1.1/DTD/svg11.dtd">
<!-- Generated by graphviz version 2.40.1 (20161225.0304)
 -->
<!-- Title: /home/travis/build/AliceO2Group/AliceO2/Common/MathUtils/include/MathUtils/CachingTF1.h Pages: 1 -->
<svg width="693pt" height="239pt"
 viewBox="0.00 0.00 693.00 239.00" xmlns="http://www.w3.org/2000/svg" xmlns:xlink="http://www.w3.org/1999/xlink">
<g id="graph0" class="graph" transform="scale(1 1) rotate(0) translate(4 235)">
<title>/home/travis/build/AliceO2Group/AliceO2/Common/MathUtils/include/MathUtils/CachingTF1.h</title>
<!-- Node2 -->
<g id="node1" class="node">
<title>Node2</title>
<polygon fill="#bfbfbf" stroke="#000000" points="236.5,-178.5 236.5,-230.5 388.5,-230.5 388.5,-178.5 236.5,-178.5"/>
<text text-anchor="start" x="244.5" y="-218.5" font-family="Helvetica,sans-Serif" font-size="10.00" fill="#000000">/home/travis/build</text>
<text text-anchor="start" x="244.5" y="-207.5" font-family="Helvetica,sans-Serif" font-size="10.00" fill="#000000">/AliceO2Group/AliceO2</text>
<text text-anchor="start" x="244.5" y="-196.5" font-family="Helvetica,sans-Serif" font-size="10.00" fill="#000000">/Common/MathUtils/include</text>
<text text-anchor="middle" x="312.5" y="-185.5" font-family="Helvetica,sans-Serif" font-size="10.00" fill="#000000">/MathUtils/CachingTF1.h</text>
</g>
<!-- Node3 -->
<g id="node2" class="node">
<title>Node3</title>
<g id="a_node2"><a xlink:href="../../de/d28/CachingTF1_8cxx.html" target="_top" xlink:title="/home/travis/build\l/AliceO2Group/AliceO2\l/Common/MathUtils/src\l/CachingTF1.cxx">
<polygon fill="none" stroke="#000000" points="0,-89.5 0,-141.5 131,-141.5 131,-89.5 0,-89.5"/>
<text text-anchor="start" x="8" y="-129.5" font-family="Helvetica,sans-Serif" font-size="10.00" fill="#000000">/home/travis/build</text>
<text text-anchor="start" x="8" y="-118.5" font-family="Helvetica,sans-Serif" font-size="10.00" fill="#000000">/AliceO2Group/AliceO2</text>
<text text-anchor="start" x="8" y="-107.5" font-family="Helvetica,sans-Serif" font-size="10.00" fill="#000000">/Common/MathUtils/src</text>
<text text-anchor="middle" x="65.5" y="-96.5" font-family="Helvetica,sans-Serif" font-size="10.00" fill="#000000">/CachingTF1.cxx</text>
</a>
</g>
</g>
<!-- Node2&#45;&gt;Node3 -->
<g id="edge1" class="edge">
<title>Node2&#45;&gt;Node3</title>
<path fill="none" stroke="#191970" d="M230.6301,-175.0003C198.3258,-163.3603 161.7178,-150.1696 131.1935,-139.171"/>
<polygon fill="#191970" stroke="#191970" points="229.4664,-178.3012 240.0608,-178.3984 231.8394,-171.7157 229.4664,-178.3012"/>
</g>
<!-- Node4 -->
<g id="node3" class="node">
<title>Node4</title>
<g id="a_node3"><a xlink:href="../../da/d5e/testCachingTF1_8cxx.html" target="_top" xlink:title="/home/travis/build\l/AliceO2Group/AliceO2\l/Common/MathUtils/test\l/testCachingTF1.cxx">
<polygon fill="none" stroke="#000000" points="149,-89.5 149,-141.5 284,-141.5 284,-89.5 149,-89.5"/>
<text text-anchor="start" x="157" y="-129.5" font-family="Helvetica,sans-Serif" font-size="10.00" fill="#000000">/home/travis/build</text>
<text text-anchor="start" x="157" y="-118.5" font-family="Helvetica,sans-Serif" font-size="10.00" fill="#000000">/AliceO2Group/AliceO2</text>
<text text-anchor="start" x="157" y="-107.5" font-family="Helvetica,sans-Serif" font-size="10.00" fill="#000000">/Common/MathUtils/test</text>
<text text-anchor="middle" x="216.5" y="-96.5" font-family="Helvetica,sans-Serif" font-size="10.00" fill="#000000">/testCachingTF1.cxx</text>
</a>
</g>
</g>
<!-- Node2&#45;&gt;Node4 -->
<g id="edge2" class="edge">
<title>Node2&#45;&gt;Node4</title>
<path fill="none" stroke="#191970" d="M276.6774,-171.2894C266.0737,-161.459 254.6212,-150.8415 244.5818,-141.5341"/>
<polygon fill="#191970" stroke="#191970" points="274.5031,-174.0464 284.2161,-178.2784 279.2622,-168.9131 274.5031,-174.0464"/>
</g>
<!-- Node5 -->
<g id="node4" class="node">
<title>Node5</title>
<g id="a_node4"><a xlink:href="../../d3/d51/FIT_2FDD_2simulation_2include_2FDDSimulation_2Digitizer_8h.html" target="_top" xlink:title="/home/travis/build\l/AliceO2Group/AliceO2\l/Detectors/FIT/FDD/simulation\l/include/FDDSimulation/Digitizer.h">
<polygon fill="none" stroke="#000000" points="341,-89.5 341,-141.5 524,-141.5 524,-89.5 341,-89.5"/>
<text text-anchor="start" x="349" y="-129.5" font-family="Helvetica,sans-Serif" font-size="10.00" fill="#000000">/home/travis/build</text>
<text text-anchor="start" x="349" y="-118.5" font-family="Helvetica,sans-Serif" font-size="10.00" fill="#000000">/AliceO2Group/AliceO2</text>
<text text-anchor="start" x="349" y="-107.5" font-family="Helvetica,sans-Serif" font-size="10.00" fill="#000000">/Detectors/FIT/FDD/simulation</text>
<text text-anchor="middle" x="432.5" y="-96.5" font-family="Helvetica,sans-Serif" font-size="10.00" fill="#000000">/include/FDDSimulation/Digitizer.h</text>
</a>
</g>
</g>
<!-- Node2&#45;&gt;Node5 -->
<g id="edge3" class="edge">
<title>Node2&#45;&gt;Node5</title>
<path fill="none" stroke="#191970" d="M356.1229,-172.1463C369.6974,-162.0786 384.483,-151.1126 397.3978,-141.5341"/>
<polygon fill="#191970" stroke="#191970" points="353.802,-169.5101 347.8549,-178.2784 357.9719,-175.1325 353.802,-169.5101"/>
</g>
<!-- Node6 -->
<g id="node5" class="node">
<title>Node6</title>
<g id="a_node5"><a xlink:href="../../d0/d8c/FIT_2FDD_2simulation_2src_2Digitizer_8cxx.html" target="_top" xlink:title="/home/travis/build\l/AliceO2Group/AliceO2\l/Detectors/FIT/FDD/simulation\l/src/Digitizer.cxx">
<polygon fill="none" stroke="#000000" points="231.5,-.5 231.5,-52.5 393.5,-52.5 393.5,-.5 231.5,-.5"/>
<text text-anchor="start" x="239.5" y="-40.5" font-family="Helvetica,sans-Serif" font-size="10.00" fill="#000000">/home/travis/build</text>
<text text-anchor="start" x="239.5" y="-29.5" font-family="Helvetica,sans-Serif" font-size="10.00" fill="#000000">/AliceO2Group/AliceO2</text>
<text text-anchor="start" x="239.5" y="-18.5" font-family="Helvetica,sans-Serif" font-size="10.00" fill="#000000">/Detectors/FIT/FDD/simulation</text>
<text text-anchor="middle" x="312.5" y="-7.5" font-family="Helvetica,sans-Serif" font-size="10.00" fill="#000000">/src/Digitizer.cxx</text>
</a>
</g>
</g>
<!-- Node2&#45;&gt;Node6 -->
<g id="edge6" class="edge">
<title>Node2&#45;&gt;Node6</title>
<path fill="none" stroke="#191970" d="M312.5,-168.1378C312.5,-133.7809 312.5,-83.0886 312.5,-52.5823"/>
<polygon fill="#191970" stroke="#191970" points="309.0001,-168.2355 312.5,-178.2355 316.0001,-168.2355 309.0001,-168.2355"/>
</g>
<!-- Node8 -->
<g id="node7" class="node">
<title>Node8</title>
<g id="a_node7"><a xlink:href="../../db/d6c/GEMAmplification_8cxx.html" target="_top" xlink:title="Implementation of the GEM amplification. ">
<polygon fill="none" stroke="#000000" points="542,-89.5 542,-141.5 685,-141.5 685,-89.5 542,-89.5"/>
<text text-anchor="start" x="550" y="-129.5" font-family="Helvetica,sans-Serif" font-size="10.00" fill="#000000">/home/travis/build</text>
<text text-anchor="start" x="550" y="-118.5" font-family="Helvetica,sans-Serif" font-size="10.00" fill="#000000">/AliceO2Group/AliceO2</text>
<text text-anchor="start" x="550" y="-107.5" font-family="Helvetica,sans-Serif" font-size="10.00" fill="#000000">/Detectors/TPC/simulation</text>
<text text-anchor="middle" x="613.5" y="-96.5" font-family="Helvetica,sans-Serif" font-size="10.00" fill="#000000">/src/GEMAmplification.cxx</text>
</a>
</g>
</g>
<!-- Node2&#45;&gt;Node8 -->
<g id="edge7" class="edge">
<title>Node2&#45;&gt;Node8</title>
<path fill="none" stroke="#191970" d="M398.3797,-181.1649C439.4048,-169.7748 489.1236,-155.6175 533.5,-142 536.1576,-141.1845 538.8614,-140.344 541.5898,-139.4869"/>
<polygon fill="#191970" stroke="#191970" points="397.3907,-177.807 388.6878,-183.8493 399.2592,-184.553 397.3907,-177.807"/>
</g>
<!-- Node5&#45;&gt;Node6 -->
<g id="edge4" class="edge">
<title>Node5&#45;&gt;Node6</title>
<path fill="none" stroke="#191970" d="M388.8771,-83.1463C375.3026,-73.0786 360.517,-62.1126 347.6022,-52.5341"/>
<polygon fill="#191970" stroke="#191970" points="387.0281,-86.1325 397.1451,-89.2784 391.198,-80.5101 387.0281,-86.1325"/>
</g>
<!-- Node7 -->
<g id="node6" class="node">
<title>Node7</title>
<g id="a_node6"><a xlink:href="../../d2/d97/FDDDigitizerSpec_8cxx.html" target="_top" xlink:title="/home/travis/build\l/AliceO2Group/AliceO2\l/Steer/DigitizerWorkflow\l/src/FDDDigitizerSpec.cxx">
<polygon fill="none" stroke="#000000" points="411.5,-.5 411.5,-52.5 553.5,-52.5 553.5,-.5 411.5,-.5"/>
<text text-anchor="start" x="419.5" y="-40.5" font-family="Helvetica,sans-Serif" font-size="10.00" fill="#000000">/home/travis/build</text>
<text text-anchor="start" x="419.5" y="-29.5" font-family="Helvetica,sans-Serif" font-size="10.00" fill="#000000">/AliceO2Group/AliceO2</text>
<text text-anchor="start" x="419.5" y="-18.5" font-family="Helvetica,sans-Serif" font-size="10.00" fill="#000000">/Steer/DigitizerWorkflow</text>
<text text-anchor="middle" x="482.5" y="-7.5" font-family="Helvetica,sans-Serif" font-size="10.00" fill="#000000">/src/FDDDigitizerSpec.cxx</text>
</a>
</g>
</g>
<!-- Node5&#45;&gt;Node7 -->
<g id="edge5" class="edge">
<title>Node5&#45;&gt;Node7</title>
<path fill="none" stroke="#191970" d="M452.2894,-80.2749C457.4877,-71.0219 463.0006,-61.209 467.8741,-52.5341"/>
<polygon fill="#191970" stroke="#191970" points="449.0778,-78.8457 447.2312,-89.2784 455.1807,-82.2744 449.0778,-78.8457"/>
</g>
</g>
</svg>
