<?xml version="1.0" encoding="UTF-8" standalone="no"?>
<!DOCTYPE svg PUBLIC "-//W3C//DTD SVG 1.1//EN"
 "http://www.w3.org/Graphics/SVG/1.1/DTD/svg11.dtd">
<!-- Generated by graphviz version 2.40.1 (20161225.0304)
 -->
<!-- Title: /home/travis/build/AliceO2Group/AliceO2/Framework/Core/include/Framework/DeviceInfo.h Pages: 1 -->
<svg width="1110pt" height="239pt"
 viewBox="0.00 0.00 1110.00 239.00" xmlns="http://www.w3.org/2000/svg" xmlns:xlink="http://www.w3.org/1999/xlink">
<g id="graph0" class="graph" transform="scale(1 1) rotate(0) translate(4 235)">
<title>/home/travis/build/AliceO2Group/AliceO2/Framework/Core/include/Framework/DeviceInfo.h</title>
<!-- Node22 -->
<g id="node1" class="node">
<title>Node22</title>
<polygon fill="#bfbfbf" stroke="#000000" points="569.5,-178.5 569.5,-230.5 707.5,-230.5 707.5,-178.5 569.5,-178.5"/>
<text text-anchor="start" x="577.5" y="-218.5" font-family="Helvetica,sans-Serif" font-size="10.00" fill="#000000">/home/travis/build</text>
<text text-anchor="start" x="577.5" y="-207.5" font-family="Helvetica,sans-Serif" font-size="10.00" fill="#000000">/AliceO2Group/AliceO2</text>
<text text-anchor="start" x="577.5" y="-196.5" font-family="Helvetica,sans-Serif" font-size="10.00" fill="#000000">/Framework/Core/include</text>
<text text-anchor="middle" x="638.5" y="-185.5" font-family="Helvetica,sans-Serif" font-size="10.00" fill="#000000">/Framework/DeviceInfo.h</text>
</g>
<!-- Node23 -->
<g id="node2" class="node">
<title>Node23</title>
<g id="a_node2"><a xlink:href="../../dd/d9a/FrameworkGUIDebugger_8h.html" target="_top" xlink:title="/home/travis/build\l/AliceO2Group/AliceO2\l/Framework/Core/include\l/Framework/FrameworkGUIDebugger.h">
<polygon fill="none" stroke="#000000" points="233.5,-89.5 233.5,-141.5 437.5,-141.5 437.5,-89.5 233.5,-89.5"/>
<text text-anchor="start" x="241.5" y="-129.5" font-family="Helvetica,sans-Serif" font-size="10.00" fill="#000000">/home/travis/build</text>
<text text-anchor="start" x="241.5" y="-118.5" font-family="Helvetica,sans-Serif" font-size="10.00" fill="#000000">/AliceO2Group/AliceO2</text>
<text text-anchor="start" x="241.5" y="-107.5" font-family="Helvetica,sans-Serif" font-size="10.00" fill="#000000">/Framework/Core/include</text>
<text text-anchor="middle" x="335.5" y="-96.5" font-family="Helvetica,sans-Serif" font-size="10.00" fill="#000000">/Framework/FrameworkGUIDebugger.h</text>
</a>
</g>
</g>
<!-- Node22&#45;&gt;Node23 -->
<g id="edge1" class="edge">
<title>Node22&#45;&gt;Node23</title>
<path fill="none" stroke="#191970" d="M559.5775,-181.3182C518.0798,-169.1291 467.0695,-154.1458 424.2068,-141.5558"/>
<polygon fill="#191970" stroke="#191970" points="558.7844,-184.733 569.3655,-184.1932 560.7572,-178.0167 558.7844,-184.733"/>
</g>
<!-- Node26 -->
<g id="node5" class="node">
<title>Node26</title>
<g id="a_node5"><a xlink:href="../../d7/d54/runDataProcessing_8cxx.html" target="_top" xlink:title="/home/travis/build\l/AliceO2Group/AliceO2\l/Framework/Core/src/runDataProcessing.cxx">
<polygon fill="none" stroke="#000000" points="0,-6 0,-47 231,-47 231,-6 0,-6"/>
<text text-anchor="start" x="8" y="-35" font-family="Helvetica,sans-Serif" font-size="10.00" fill="#000000">/home/travis/build</text>
<text text-anchor="start" x="8" y="-24" font-family="Helvetica,sans-Serif" font-size="10.00" fill="#000000">/AliceO2Group/AliceO2</text>
<text text-anchor="middle" x="115.5" y="-13" font-family="Helvetica,sans-Serif" font-size="10.00" fill="#000000">/Framework/Core/src/runDataProcessing.cxx</text>
</a>
</g>
</g>
<!-- Node22&#45;&gt;Node26 -->
<g id="edge11" class="edge">
<title>Node22&#45;&gt;Node26</title>
<path fill="none" stroke="#191970" d="M559.3215,-198.7125C455.8696,-190.1048 281.2197,-171.6797 224.5,-142 181.749,-119.6297 146.5109,-73.8706 128.4917,-47.1532"/>
<polygon fill="#191970" stroke="#191970" points="559.1598,-202.2109 569.4124,-199.5398 559.7318,-195.2343 559.1598,-202.2109"/>
</g>
<!-- Node27 -->
<g id="node6" class="node">
<title>Node27</title>
<g id="a_node6"><a xlink:href="../../dd/d49/FrameworkGUIDevicesGraph_8h.html" target="_top" xlink:title="/home/travis/build\l/AliceO2Group/AliceO2\l/Framework/Core/include\l/Framework/FrameworkGUIDevicesGraph.h">
<polygon fill="none" stroke="#000000" points="455.5,-89.5 455.5,-141.5 681.5,-141.5 681.5,-89.5 455.5,-89.5"/>
<text text-anchor="start" x="463.5" y="-129.5" font-family="Helvetica,sans-Serif" font-size="10.00" fill="#000000">/home/travis/build</text>
<text text-anchor="start" x="463.5" y="-118.5" font-family="Helvetica,sans-Serif" font-size="10.00" fill="#000000">/AliceO2Group/AliceO2</text>
<text text-anchor="start" x="463.5" y="-107.5" font-family="Helvetica,sans-Serif" font-size="10.00" fill="#000000">/Framework/Core/include</text>
<text text-anchor="middle" x="568.5" y="-96.5" font-family="Helvetica,sans-Serif" font-size="10.00" fill="#000000">/Framework/FrameworkGUIDevicesGraph.h</text>
</a>
</g>
</g>
<!-- Node22&#45;&gt;Node27 -->
<g id="edge5" class="edge">
<title>Node22&#45;&gt;Node27</title>
<path fill="none" stroke="#191970" d="M611.4758,-170.1407C604.0005,-160.6363 596.0124,-150.4801 588.9763,-141.5341"/>
<polygon fill="#191970" stroke="#191970" points="608.9431,-172.582 617.8763,-178.2784 614.4452,-168.2545 608.9431,-172.582"/>
</g>
<!-- Node28 -->
<g id="node7" class="node">
<title>Node28</title>
<g id="a_node7"><a xlink:href="../../d7/d5a/FrameworkGUIDevicesGraph_8cxx.html" target="_top" xlink:title="/home/travis/build\l/AliceO2Group/AliceO2\l/Framework/Core/src/Framework\lGUIDevicesGraph.cxx">
<polygon fill="none" stroke="#000000" points="631,-.5 631,-52.5 804,-52.5 804,-.5 631,-.5"/>
<text text-anchor="start" x="639" y="-40.5" font-family="Helvetica,sans-Serif" font-size="10.00" fill="#000000">/home/travis/build</text>
<text text-anchor="start" x="639" y="-29.5" font-family="Helvetica,sans-Serif" font-size="10.00" fill="#000000">/AliceO2Group/AliceO2</text>
<text text-anchor="start" x="639" y="-18.5" font-family="Helvetica,sans-Serif" font-size="10.00" fill="#000000">/Framework/Core/src/Framework</text>
<text text-anchor="middle" x="717.5" y="-7.5" font-family="Helvetica,sans-Serif" font-size="10.00" fill="#000000">GUIDevicesGraph.cxx</text>
</a>
</g>
</g>
<!-- Node22&#45;&gt;Node28 -->
<g id="edge10" class="edge">
<title>Node22&#45;&gt;Node28</title>
<path fill="none" stroke="#191970" d="M671.4064,-170.7064C678.5691,-161.9111 685.4923,-152.0619 690.5,-142 704.7216,-113.4247 711.6197,-77.1109 714.8491,-52.9049"/>
<polygon fill="#191970" stroke="#191970" points="668.6218,-168.5782 664.8093,-178.4633 673.9541,-173.1132 668.6218,-168.5782"/>
</g>
<!-- Node29 -->
<g id="node8" class="node">
<title>Node29</title>
<g id="a_node8"><a xlink:href="../../d8/d1c/FrameworkGUIDataRelayerUsage_8cxx.html" target="_top" xlink:title="/home/travis/build\l/AliceO2Group/AliceO2\l/Framework/Core/src/Framework\lGUIDataRelayerUsage.cxx">
<polygon fill="none" stroke="#000000" points="738,-89.5 738,-141.5 911,-141.5 911,-89.5 738,-89.5"/>
<text text-anchor="start" x="746" y="-129.5" font-family="Helvetica,sans-Serif" font-size="10.00" fill="#000000">/home/travis/build</text>
<text text-anchor="start" x="746" y="-118.5" font-family="Helvetica,sans-Serif" font-size="10.00" fill="#000000">/AliceO2Group/AliceO2</text>
<text text-anchor="start" x="746" y="-107.5" font-family="Helvetica,sans-Serif" font-size="10.00" fill="#000000">/Framework/Core/src/Framework</text>
<text text-anchor="middle" x="824.5" y="-96.5" font-family="Helvetica,sans-Serif" font-size="10.00" fill="#000000">GUIDataRelayerUsage.cxx</text>
</a>
</g>
</g>
<!-- Node22&#45;&gt;Node29 -->
<g id="edge8" class="edge">
<title>Node22&#45;&gt;Node29</title>
<path fill="none" stroke="#191970" d="M702.3156,-173.9646C724.3218,-163.4347 748.7541,-151.744 769.9516,-141.6011"/>
<polygon fill="#191970" stroke="#191970" points="700.5592,-170.9249 693.0494,-178.3984 703.5806,-177.2393 700.5592,-170.9249"/>
</g>
<!-- Node30 -->
<g id="node9" class="node">
<title>Node30</title>
<g id="a_node9"><a xlink:href="../../d4/d72/FrameworkGUIDeviceInspector_8cxx.html" target="_top" xlink:title="/home/travis/build\l/AliceO2Group/AliceO2\l/Framework/Core/src/Framework\lGUIDeviceInspector.cxx">
<polygon fill="none" stroke="#000000" points="929,-89.5 929,-141.5 1102,-141.5 1102,-89.5 929,-89.5"/>
<text text-anchor="start" x="937" y="-129.5" font-family="Helvetica,sans-Serif" font-size="10.00" fill="#000000">/home/travis/build</text>
<text text-anchor="start" x="937" y="-118.5" font-family="Helvetica,sans-Serif" font-size="10.00" fill="#000000">/AliceO2Group/AliceO2</text>
<text text-anchor="start" x="937" y="-107.5" font-family="Helvetica,sans-Serif" font-size="10.00" fill="#000000">/Framework/Core/src/Framework</text>
<text text-anchor="middle" x="1015.5" y="-96.5" font-family="Helvetica,sans-Serif" font-size="10.00" fill="#000000">GUIDeviceInspector.cxx</text>
</a>
</g>
</g>
<!-- Node22&#45;&gt;Node30 -->
<g id="edge9" class="edge">
<title>Node22&#45;&gt;Node30</title>
<path fill="none" stroke="#191970" d="M717.6703,-188.1465C774.3405,-176.1502 852.3496,-159.0442 920.5,-142 923.2408,-141.3145 926.023,-140.6073 928.8298,-139.8841"/>
<polygon fill="#191970" stroke="#191970" points="716.7617,-184.761 707.7002,-190.2509 718.2075,-191.6101 716.7617,-184.761"/>
</g>
<!-- Node24 -->
<g id="node3" class="node">
<title>Node24</title>
<g id="a_node3"><a xlink:href="../../de/ddc/FrameworkDummyDebugger_8cxx.html" target="_top" xlink:title="/home/travis/build\l/AliceO2Group/AliceO2\l/Framework/Core/src/Framework\lDummyDebugger.cxx">
<polygon fill="none" stroke="#000000" points="249,-.5 249,-52.5 422,-52.5 422,-.5 249,-.5"/>
<text text-anchor="start" x="257" y="-40.5" font-family="Helvetica,sans-Serif" font-size="10.00" fill="#000000">/home/travis/build</text>
<text text-anchor="start" x="257" y="-29.5" font-family="Helvetica,sans-Serif" font-size="10.00" fill="#000000">/AliceO2Group/AliceO2</text>
<text text-anchor="start" x="257" y="-18.5" font-family="Helvetica,sans-Serif" font-size="10.00" fill="#000000">/Framework/Core/src/Framework</text>
<text text-anchor="middle" x="335.5" y="-7.5" font-family="Helvetica,sans-Serif" font-size="10.00" fill="#000000">DummyDebugger.cxx</text>
</a>
</g>
</g>
<!-- Node23&#45;&gt;Node24 -->
<g id="edge2" class="edge">
<title>Node23&#45;&gt;Node24</title>
<path fill="none" stroke="#191970" d="M335.5,-79.1155C335.5,-70.2061 335.5,-60.8475 335.5,-52.5341"/>
<polygon fill="#191970" stroke="#191970" points="332.0001,-79.2784 335.5,-89.2784 339.0001,-79.2785 332.0001,-79.2784"/>
</g>
<!-- Node25 -->
<g id="node4" class="node">
<title>Node25</title>
<g id="a_node4"><a xlink:href="../../d3/d29/FrameworkGUIDebugger_8cxx.html" target="_top" xlink:title="/home/travis/build\l/AliceO2Group/AliceO2\l/Framework/Core/src/Framework\lGUIDebugger.cxx">
<polygon fill="none" stroke="#000000" points="440,-.5 440,-52.5 613,-52.5 613,-.5 440,-.5"/>
<text text-anchor="start" x="448" y="-40.5" font-family="Helvetica,sans-Serif" font-size="10.00" fill="#000000">/home/travis/build</text>
<text text-anchor="start" x="448" y="-29.5" font-family="Helvetica,sans-Serif" font-size="10.00" fill="#000000">/AliceO2Group/AliceO2</text>
<text text-anchor="start" x="448" y="-18.5" font-family="Helvetica,sans-Serif" font-size="10.00" fill="#000000">/Framework/Core/src/Framework</text>
<text text-anchor="middle" x="526.5" y="-7.5" font-family="Helvetica,sans-Serif" font-size="10.00" fill="#000000">GUIDebugger.cxx</text>
</a>
</g>
</g>
<!-- Node23&#45;&gt;Node25 -->
<g id="edge3" class="edge">
<title>Node23&#45;&gt;Node25</title>
<path fill="none" stroke="#191970" d="M400.7286,-85.1055C423.4048,-74.5391 448.6208,-62.7893 470.4853,-52.6011"/>
<polygon fill="#191970" stroke="#191970" points="399.1017,-82.0022 391.5157,-89.3984 402.0583,-88.3472 399.1017,-82.0022"/>
</g>
<!-- Node23&#45;&gt;Node26 -->
<g id="edge4" class="edge">
<title>Node23&#45;&gt;Node26</title>
<path fill="none" stroke="#191970" d="M261.4354,-85.5375C230.1917,-72.898 194.6027,-58.5007 166.3918,-47.0881"/>
<polygon fill="#191970" stroke="#191970" points="260.3965,-88.8927 270.9792,-89.3984 263.0217,-82.4036 260.3965,-88.8927"/>
</g>
<!-- Node27&#45;&gt;Node25 -->
<g id="edge6" class="edge">
<title>Node27&#45;&gt;Node25</title>
<path fill="none" stroke="#191970" d="M551.7404,-79.9856C547.4139,-70.8176 542.8369,-61.1186 538.7858,-52.5341"/>
<polygon fill="#191970" stroke="#191970" points="548.6927,-81.7286 556.1258,-89.2784 555.0232,-78.7411 548.6927,-81.7286"/>
</g>
<!-- Node27&#45;&gt;Node28 -->
<g id="edge7" class="edge">
<title>Node27&#45;&gt;Node28</title>
<path fill="none" stroke="#191970" d="M621.2377,-83.9989C638.4791,-73.7004 657.4251,-62.3837 673.9147,-52.5341"/>
<polygon fill="#191970" stroke="#191970" points="619.1893,-81.1456 612.399,-89.2784 622.7789,-87.1552 619.1893,-81.1456"/>
</g>
</g>
</svg>
