<?xml version="1.0" encoding="UTF-8" standalone="no"?>
<!DOCTYPE svg PUBLIC "-//W3C//DTD SVG 1.1//EN"
 "http://www.w3.org/Graphics/SVG/1.1/DTD/svg11.dtd">
<!-- Generated by graphviz version 2.40.1 (20161225.0304)
 -->
<!-- Title: /home/travis/build/AliceO2Group/AliceO2/Detectors/TPC/reconstruction/include/TPCReconstruction/RawReader.h Pages: 1 -->
<!--zoomable 361 -->
<svg id="main" version="1.1" xmlns="http://www.w3.org/2000/svg" xmlns:xlink="http://www.w3.org/1999/xlink" xml:space="preserve" onload="init(evt)">
<style type="text/css"><![CDATA[
.edge:hover path { stroke: red; }
.edge:hover polygon { stroke: red; fill: red; }
]]></style>
<script type="text/javascript"><![CDATA[
var edges = document.getElementsByTagName('g');
if (edges && edges.length) {
  for (var i=0;i<edges.length;i++) {
    if (edges[i].id.substr(0,4)=='edge') {
      edges[i].setAttribute('class','edge');
    }
  }
}
]]></script>
        <defs>
                <circle id="rim" cx="0" cy="0" r="7"/>
                <circle id="rim2" cx="0" cy="0" r="3.5"/>
                <g id="zoomPlus">
                        <use xlink:href="#rim" fill="#404040">
                                <set attributeName="fill" to="#808080" begin="zoomplus.mouseover" end="zoomplus.mouseout"/>
                        </use>
                        <path d="M-4,0h8M0,-4v8" fill="none" stroke="white" stroke-width="1.5" pointer-events="none"/>
                </g>
                <g id="zoomMin">
                        <use xlink:href="#rim" fill="#404040">
                                <set attributeName="fill" to="#808080" begin="zoomminus.mouseover" end="zoomminus.mouseout"/>
                        </use>
                        <path d="M-4,0h8" fill="none" stroke="white" stroke-width="1.5" pointer-events="none"/>
                </g>
                <g id="dirArrow">
                        <path fill="none" stroke="white" stroke-width="1.5" d="M0,-3.0v7 M-2.5,-0.5L0,-3.0L2.5,-0.5"/>
                </g>
               <g id="resetDef">
                       <use xlink:href="#rim2" fill="#404040">
                               <set attributeName="fill" to="#808080" begin="reset.mouseover" end="reset.mouseout"/>
                       </use>
               </g>
        </defs>

<script type="text/javascript">
var viewWidth = 1002;
var viewHeight = 361;
var sectionId = 'dynsection-1';
</script>
<script xlink:href="../../svgpan.js"/>
<svg id="graph" class="graph">
<g id="viewport">
<title>/home/travis/build/AliceO2Group/AliceO2/Detectors/TPC/reconstruction/include/TPCReconstruction/RawReader.h</title>
<!-- Node44 -->
<g id="node1" class="node">
<title>Node44</title>
<polygon fill="#bfbfbf" stroke="#000000" points="646,-289.5 646,-352.5 807,-352.5 807,-289.5 646,-289.5"/>
<text text-anchor="start" x="654" y="-340.5" font-family="Helvetica,sans-Serif" font-size="10.00" fill="#000000">/home/travis/build</text>
<text text-anchor="start" x="654" y="-329.5" font-family="Helvetica,sans-Serif" font-size="10.00" fill="#000000">/AliceO2Group/AliceO2</text>
<text text-anchor="start" x="654" y="-318.5" font-family="Helvetica,sans-Serif" font-size="10.00" fill="#000000">/Detectors/TPC/reconstruction</text>
<text text-anchor="start" x="654" y="-307.5" font-family="Helvetica,sans-Serif" font-size="10.00" fill="#000000">/include/TPCReconstruction</text>
<text text-anchor="middle" x="726.5" y="-296.5" font-family="Helvetica,sans-Serif" font-size="10.00" fill="#000000">/RawReader.h</text>
</g>
<!-- Node45 -->
<g id="node2" class="node">
<title>Node45</title>
<g id="a_node2"><a xlink:href="../../d7/dd7/CalibRawBase_8h.html" target="_top" xlink:title="/home/travis/build\l/AliceO2Group/AliceO2\l/Detectors/TPC/calibration\l/include/TPCCalibration/CalibRaw\lBase.h">
<polygon fill="none" stroke="#000000" points="449,-189.5 449,-252.5 628,-252.5 628,-189.5 449,-189.5"/>
<text text-anchor="start" x="457" y="-240.5" font-family="Helvetica,sans-Serif" font-size="10.00" fill="#000000">/home/travis/build</text>
<text text-anchor="start" x="457" y="-229.5" font-family="Helvetica,sans-Serif" font-size="10.00" fill="#000000">/AliceO2Group/AliceO2</text>
<text text-anchor="start" x="457" y="-218.5" font-family="Helvetica,sans-Serif" font-size="10.00" fill="#000000">/Detectors/TPC/calibration</text>
<text text-anchor="start" x="457" y="-207.5" font-family="Helvetica,sans-Serif" font-size="10.00" fill="#000000">/include/TPCCalibration/CalibRaw</text>
<text text-anchor="middle" x="538.5" y="-196.5" font-family="Helvetica,sans-Serif" font-size="10.00" fill="#000000">Base.h</text>
</a>
</g>
</g>
<!-- Node44&#45;&gt;Node45 -->
<g id="edge1" class="edge">
<title>Node44&#45;&gt;Node45</title>
<path fill="none" stroke="#191970" d="M658.2947,-284.7206C638.4674,-274.1741 616.9806,-262.745 597.7515,-252.5168"/>
<polygon fill="#191970" stroke="#191970" points="656.8013,-287.8905 667.2737,-289.4966 660.0886,-281.7104 656.8013,-287.8905"/>
</g>
<!-- Node55 -->
<g id="node12" class="node">
<title>Node55</title>
<g id="a_node12"><a xlink:href="../../d0/db1/readRawData_8cxx.html" target="_top" xlink:title="/home/travis/build\l/AliceO2Group/AliceO2\l/Detectors/TPC/reconstruction\l/run/readRawData.cxx">
<polygon fill="none" stroke="#000000" points="646,-195 646,-247 807,-247 807,-195 646,-195"/>
<text text-anchor="start" x="654" y="-235" font-family="Helvetica,sans-Serif" font-size="10.00" fill="#000000">/home/travis/build</text>
<text text-anchor="start" x="654" y="-224" font-family="Helvetica,sans-Serif" font-size="10.00" fill="#000000">/AliceO2Group/AliceO2</text>
<text text-anchor="start" x="654" y="-213" font-family="Helvetica,sans-Serif" font-size="10.00" fill="#000000">/Detectors/TPC/reconstruction</text>
<text text-anchor="middle" x="726.5" y="-202" font-family="Helvetica,sans-Serif" font-size="10.00" fill="#000000">/run/readRawData.cxx</text>
</a>
</g>
</g>
<!-- Node44&#45;&gt;Node55 -->
<g id="edge11" class="edge">
<title>Node44&#45;&gt;Node55</title>
<path fill="none" stroke="#191970" d="M726.5,-279.1631C726.5,-268.2863 726.5,-256.8798 726.5,-247.078"/>
<polygon fill="#191970" stroke="#191970" points="723.0001,-279.3593 726.5,-289.3594 730.0001,-279.3594 723.0001,-279.3593"/>
</g>
<!-- Node56 -->
<g id="node13" class="node">
<title>Node56</title>
<g id="a_node13"><a xlink:href="../../d4/ddf/RawReader_8cxx.html" target="_top" xlink:title="/home/travis/build\l/AliceO2Group/AliceO2\l/Detectors/TPC/reconstruction\l/src/RawReader.cxx">
<polygon fill="none" stroke="#000000" points="825,-195 825,-247 986,-247 986,-195 825,-195"/>
<text text-anchor="start" x="833" y="-235" font-family="Helvetica,sans-Serif" font-size="10.00" fill="#000000">/home/travis/build</text>
<text text-anchor="start" x="833" y="-224" font-family="Helvetica,sans-Serif" font-size="10.00" fill="#000000">/AliceO2Group/AliceO2</text>
<text text-anchor="start" x="833" y="-213" font-family="Helvetica,sans-Serif" font-size="10.00" fill="#000000">/Detectors/TPC/reconstruction</text>
<text text-anchor="middle" x="905.5" y="-202" font-family="Helvetica,sans-Serif" font-size="10.00" fill="#000000">/src/RawReader.cxx</text>
</a>
</g>
</g>
<!-- Node44&#45;&gt;Node56 -->
<g id="edge12" class="edge">
<title>Node44&#45;&gt;Node56</title>
<path fill="none" stroke="#191970" d="M792.143,-284.3279C814.259,-271.9726 838.4716,-258.446 858.8204,-247.078"/>
<polygon fill="#191970" stroke="#191970" points="790.1598,-281.4267 783.1367,-289.3594 793.5738,-287.5377 790.1598,-281.4267"/>
</g>
<!-- Node46 -->
<g id="node3" class="node">
<title>Node46</title>
<g id="a_node3"><a xlink:href="../../da/df1/CalibPedestal_8h.html" target="_top" xlink:title="/home/travis/build\l/AliceO2Group/AliceO2\l/Detectors/TPC/calibration\l/include/TPCCalibration/CalibPedestal.h">
<polygon fill="none" stroke="#000000" points="0,-95 0,-147 209,-147 209,-95 0,-95"/>
<text text-anchor="start" x="8" y="-135" font-family="Helvetica,sans-Serif" font-size="10.00" fill="#000000">/home/travis/build</text>
<text text-anchor="start" x="8" y="-124" font-family="Helvetica,sans-Serif" font-size="10.00" fill="#000000">/AliceO2Group/AliceO2</text>
<text text-anchor="start" x="8" y="-113" font-family="Helvetica,sans-Serif" font-size="10.00" fill="#000000">/Detectors/TPC/calibration</text>
<text text-anchor="middle" x="104.5" y="-102" font-family="Helvetica,sans-Serif" font-size="10.00" fill="#000000">/include/TPCCalibration/CalibPedestal.h</text>
</a>
</g>
</g>
<!-- Node45&#45;&gt;Node46 -->
<g id="edge2" class="edge">
<title>Node45&#45;&gt;Node46</title>
<path fill="none" stroke="#191970" d="M438.8489,-201.5407C375.5139,-188.7497 291.9168,-171.0848 218.5,-153 210.9152,-151.1316 203.0703,-149.1129 195.2097,-147.0295"/>
<polygon fill="#191970" stroke="#191970" points="438.341,-205.0086 448.8351,-203.551 439.7225,-198.1463 438.341,-205.0086"/>
</g>
<!-- Node48 -->
<g id="node5" class="node">
<title>Node48</title>
<g id="a_node5"><a xlink:href="../../d2/d5d/CalibPulser_8h.html" target="_top" xlink:title="/home/travis/build\l/AliceO2Group/AliceO2\l/Detectors/TPC/calibration\l/include/TPCCalibration/CalibPulser.h">
<polygon fill="none" stroke="#000000" points="227.5,-95 227.5,-147 423.5,-147 423.5,-95 227.5,-95"/>
<text text-anchor="start" x="235.5" y="-135" font-family="Helvetica,sans-Serif" font-size="10.00" fill="#000000">/home/travis/build</text>
<text text-anchor="start" x="235.5" y="-124" font-family="Helvetica,sans-Serif" font-size="10.00" fill="#000000">/AliceO2Group/AliceO2</text>
<text text-anchor="start" x="235.5" y="-113" font-family="Helvetica,sans-Serif" font-size="10.00" fill="#000000">/Detectors/TPC/calibration</text>
<text text-anchor="middle" x="325.5" y="-102" font-family="Helvetica,sans-Serif" font-size="10.00" fill="#000000">/include/TPCCalibration/CalibPulser.h</text>
</a>
</g>
</g>
<!-- Node45&#45;&gt;Node48 -->
<g id="edge4" class="edge">
<title>Node45&#45;&gt;Node48</title>
<path fill="none" stroke="#191970" d="M462.0757,-185.12C435.3614,-172.5781 405.8969,-158.745 381.1948,-147.1478"/>
<polygon fill="#191970" stroke="#191970" points="460.8583,-188.415 471.3978,-189.4966 463.8332,-182.0786 460.8583,-188.415"/>
</g>
<!-- Node50 -->
<g id="node7" class="node">
<title>Node50</title>
<g id="a_node7"><a xlink:href="../../d6/d25/DigitDump_8h.html" target="_top" xlink:title="/home/travis/build\l/AliceO2Group/AliceO2\l/Detectors/TPC/calibration\l/include/TPCCalibration/DigitDump.h">
<polygon fill="none" stroke="#000000" points="441.5,-95 441.5,-147 635.5,-147 635.5,-95 441.5,-95"/>
<text text-anchor="start" x="449.5" y="-135" font-family="Helvetica,sans-Serif" font-size="10.00" fill="#000000">/home/travis/build</text>
<text text-anchor="start" x="449.5" y="-124" font-family="Helvetica,sans-Serif" font-size="10.00" fill="#000000">/AliceO2Group/AliceO2</text>
<text text-anchor="start" x="449.5" y="-113" font-family="Helvetica,sans-Serif" font-size="10.00" fill="#000000">/Detectors/TPC/calibration</text>
<text text-anchor="middle" x="538.5" y="-102" font-family="Helvetica,sans-Serif" font-size="10.00" fill="#000000">/include/TPCCalibration/DigitDump.h</text>
</a>
</g>
</g>
<!-- Node45&#45;&gt;Node50 -->
<g id="edge6" class="edge">
<title>Node45&#45;&gt;Node50</title>
<path fill="none" stroke="#191970" d="M538.5,-179.1631C538.5,-168.2863 538.5,-156.8798 538.5,-147.078"/>
<polygon fill="#191970" stroke="#191970" points="535.0001,-179.3593 538.5,-189.3594 542.0001,-179.3594 535.0001,-179.3593"/>
</g>
<!-- Node52 -->
<g id="node9" class="node">
<title>Node52</title>
<g id="a_node9"><a xlink:href="../../d9/d74/CalibRawBase_8cxx.html" target="_top" xlink:title="/home/travis/build\l/AliceO2Group/AliceO2\l/Detectors/TPC/calibration\l/src/CalibRawBase.cxx">
<polygon fill="none" stroke="#000000" points="654,-95 654,-147 797,-147 797,-95 654,-95"/>
<text text-anchor="start" x="662" y="-135" font-family="Helvetica,sans-Serif" font-size="10.00" fill="#000000">/home/travis/build</text>
<text text-anchor="start" x="662" y="-124" font-family="Helvetica,sans-Serif" font-size="10.00" fill="#000000">/AliceO2Group/AliceO2</text>
<text text-anchor="start" x="662" y="-113" font-family="Helvetica,sans-Serif" font-size="10.00" fill="#000000">/Detectors/TPC/calibration</text>
<text text-anchor="middle" x="725.5" y="-102" font-family="Helvetica,sans-Serif" font-size="10.00" fill="#000000">/src/CalibRawBase.cxx</text>
</a>
</g>
</g>
<!-- Node45&#45;&gt;Node52 -->
<g id="edge8" class="edge">
<title>Node45&#45;&gt;Node52</title>
<path fill="none" stroke="#191970" d="M606.5185,-184.6265C629.726,-172.2161 655.2009,-158.5931 676.6036,-147.1478"/>
<polygon fill="#191970" stroke="#191970" points="604.5791,-181.6945 597.4113,-189.4966 607.8801,-187.8673 604.5791,-181.6945"/>
</g>
<!-- Node53 -->
<g id="node10" class="node">
<title>Node53</title>
<g id="a_node10"><a xlink:href="../../db/dc3/SimpleEventDisplay_8h.html" target="_top" xlink:title="/home/travis/build\l/AliceO2Group/AliceO2\l/Detectors/TPC/monitor\l/include/TPCMonitor/SimpleEvent\lDisplay.h">
<polygon fill="none" stroke="#000000" points="815.5,-89.5 815.5,-152.5 993.5,-152.5 993.5,-89.5 815.5,-89.5"/>
<text text-anchor="start" x="823.5" y="-140.5" font-family="Helvetica,sans-Serif" font-size="10.00" fill="#000000">/home/travis/build</text>
<text text-anchor="start" x="823.5" y="-129.5" font-family="Helvetica,sans-Serif" font-size="10.00" fill="#000000">/AliceO2Group/AliceO2</text>
<text text-anchor="start" x="823.5" y="-118.5" font-family="Helvetica,sans-Serif" font-size="10.00" fill="#000000">/Detectors/TPC/monitor</text>
<text text-anchor="start" x="823.5" y="-107.5" font-family="Helvetica,sans-Serif" font-size="10.00" fill="#000000">/include/TPCMonitor/SimpleEvent</text>
<text text-anchor="middle" x="904.5" y="-96.5" font-family="Helvetica,sans-Serif" font-size="10.00" fill="#000000">Display.h</text>
</a>
</g>
</g>
<!-- Node45&#45;&gt;Node53 -->
<g id="edge9" class="edge">
<title>Node45&#45;&gt;Node53</title>
<path fill="none" stroke="#191970" d="M638.0121,-188.698C712.8905,-169.2752 734.9669,-172.194 806.5,-153 809.4387,-152.2115 812.4193,-151.3866 815.4232,-150.5336"/>
<polygon fill="#191970" stroke="#191970" points="636.8802,-185.3769 628.1067,-191.3162 638.6691,-192.1444 636.8802,-185.3769"/>
</g>
<!-- Node47 -->
<g id="node4" class="node">
<title>Node47</title>
<g id="a_node4"><a xlink:href="../../d6/d99/CalibPedestal_8cxx.html" target="_top" xlink:title="/home/travis/build\l/AliceO2Group/AliceO2\l/Detectors/TPC/calibration\l/src/CalibPedestal.cxx">
<polygon fill="none" stroke="#000000" points="33,-.5 33,-52.5 176,-52.5 176,-.5 33,-.5"/>
<text text-anchor="start" x="41" y="-40.5" font-family="Helvetica,sans-Serif" font-size="10.00" fill="#000000">/home/travis/build</text>
<text text-anchor="start" x="41" y="-29.5" font-family="Helvetica,sans-Serif" font-size="10.00" fill="#000000">/AliceO2Group/AliceO2</text>
<text text-anchor="start" x="41" y="-18.5" font-family="Helvetica,sans-Serif" font-size="10.00" fill="#000000">/Detectors/TPC/calibration</text>
<text text-anchor="middle" x="104.5" y="-7.5" font-family="Helvetica,sans-Serif" font-size="10.00" fill="#000000">/src/CalibPedestal.cxx</text>
</a>
</g>
</g>
<!-- Node46&#45;&gt;Node47 -->
<g id="edge3" class="edge">
<title>Node46&#45;&gt;Node47</title>
<path fill="none" stroke="#191970" d="M104.5,-84.6645C104.5,-74.0577 104.5,-62.6746 104.5,-52.8157"/>
<polygon fill="#191970" stroke="#191970" points="101.0001,-84.9273 104.5,-94.9273 108.0001,-84.9273 101.0001,-84.9273"/>
</g>
<!-- Node49 -->
<g id="node6" class="node">
<title>Node49</title>
<g id="a_node6"><a xlink:href="../../d4/ddc/CalibPulser_8cxx.html" target="_top" xlink:title="/home/travis/build\l/AliceO2Group/AliceO2\l/Detectors/TPC/calibration\l/src/CalibPulser.cxx">
<polygon fill="none" stroke="#000000" points="254,-.5 254,-52.5 397,-52.5 397,-.5 254,-.5"/>
<text text-anchor="start" x="262" y="-40.5" font-family="Helvetica,sans-Serif" font-size="10.00" fill="#000000">/home/travis/build</text>
<text text-anchor="start" x="262" y="-29.5" font-family="Helvetica,sans-Serif" font-size="10.00" fill="#000000">/AliceO2Group/AliceO2</text>
<text text-anchor="start" x="262" y="-18.5" font-family="Helvetica,sans-Serif" font-size="10.00" fill="#000000">/Detectors/TPC/calibration</text>
<text text-anchor="middle" x="325.5" y="-7.5" font-family="Helvetica,sans-Serif" font-size="10.00" fill="#000000">/src/CalibPulser.cxx</text>
</a>
</g>
</g>
<!-- Node48&#45;&gt;Node49 -->
<g id="edge5" class="edge">
<title>Node48&#45;&gt;Node49</title>
<path fill="none" stroke="#191970" d="M325.5,-84.6645C325.5,-74.0577 325.5,-62.6746 325.5,-52.8157"/>
<polygon fill="#191970" stroke="#191970" points="322.0001,-84.9273 325.5,-94.9273 329.0001,-84.9273 322.0001,-84.9273"/>
</g>
<!-- Node51 -->
<g id="node8" class="node">
<title>Node51</title>
<g id="a_node8"><a xlink:href="../../d6/d66/DigitDump_8cxx.html" target="_top" xlink:title="/home/travis/build\l/AliceO2Group/AliceO2\l/Detectors/TPC/calibration\l/src/DigitDump.cxx">
<polygon fill="none" stroke="#000000" points="467,-.5 467,-52.5 610,-52.5 610,-.5 467,-.5"/>
<text text-anchor="start" x="475" y="-40.5" font-family="Helvetica,sans-Serif" font-size="10.00" fill="#000000">/home/travis/build</text>
<text text-anchor="start" x="475" y="-29.5" font-family="Helvetica,sans-Serif" font-size="10.00" fill="#000000">/AliceO2Group/AliceO2</text>
<text text-anchor="start" x="475" y="-18.5" font-family="Helvetica,sans-Serif" font-size="10.00" fill="#000000">/Detectors/TPC/calibration</text>
<text text-anchor="middle" x="538.5" y="-7.5" font-family="Helvetica,sans-Serif" font-size="10.00" fill="#000000">/src/DigitDump.cxx</text>
</a>
</g>
</g>
<!-- Node50&#45;&gt;Node51 -->
<g id="edge7" class="edge">
<title>Node50&#45;&gt;Node51</title>
<path fill="none" stroke="#191970" d="M538.5,-84.6645C538.5,-74.0577 538.5,-62.6746 538.5,-52.8157"/>
<polygon fill="#191970" stroke="#191970" points="535.0001,-84.9273 538.5,-94.9273 542.0001,-84.9273 535.0001,-84.9273"/>
</g>
<!-- Node54 -->
<g id="node11" class="node">
<title>Node54</title>
<g id="a_node11"><a xlink:href="../../d9/df5/SimpleEventDisplay_8cxx.html" target="_top" xlink:title="/home/travis/build\l/AliceO2Group/AliceO2\l/Detectors/TPC/monitor\l/src/SimpleEventDisplay.cxx">
<polygon fill="none" stroke="#000000" points="827.5,-.5 827.5,-52.5 981.5,-52.5 981.5,-.5 827.5,-.5"/>
<text text-anchor="start" x="835.5" y="-40.5" font-family="Helvetica,sans-Serif" font-size="10.00" fill="#000000">/home/travis/build</text>
<text text-anchor="start" x="835.5" y="-29.5" font-family="Helvetica,sans-Serif" font-size="10.00" fill="#000000">/AliceO2Group/AliceO2</text>
<text text-anchor="start" x="835.5" y="-18.5" font-family="Helvetica,sans-Serif" font-size="10.00" fill="#000000">/Detectors/TPC/monitor</text>
<text text-anchor="middle" x="904.5" y="-7.5" font-family="Helvetica,sans-Serif" font-size="10.00" fill="#000000">/src/SimpleEventDisplay.cxx</text>
</a>
</g>
</g>
<!-- Node53&#45;&gt;Node54 -->
<g id="edge10" class="edge">
<title>Node53&#45;&gt;Node54</title>
<path fill="none" stroke="#191970" d="M904.5,-79.2457C904.5,-70.2008 904.5,-60.8836 904.5,-52.6442"/>
<polygon fill="#191970" stroke="#191970" points="901.0001,-79.2699 904.5,-89.27 908.0001,-79.27 901.0001,-79.2699"/>
</g>
</g>
</svg>
        <g id="navigator" transform="translate(0 0)" fill="#404254">
                <rect fill="#f2f5e9" fill-opacity="0.5" stroke="#606060" stroke-width=".5" x="0" y="0" width="60" height="60"/>
                <use id="zoomplus" xlink:href="#zoomPlus" x="17" y="9" onmousedown="handleZoom(evt,'in')"/>
                <use id="zoomminus" xlink:href="#zoomMin" x="42" y="9" onmousedown="handleZoom(evt,'out')"/>
                <use id="reset" xlink:href="#resetDef" x="30" y="36" onmousedown="handleReset()"/>
                <g id="arrowUp" xlink:href="#dirArrow" transform="translate(30 24)" onmousedown="handlePan(0,-1)">
                  <use xlink:href="#rim" fill="#404040">
                        <set attributeName="fill" to="#808080" begin="arrowUp.mouseover" end="arrowUp.mouseout"/>
                  </use>
                  <path fill="none" stroke="white" stroke-width="1.5" d="M0,-3.0v7 M-2.5,-0.5L0,-3.0L2.5,-0.5"/>
                </g>
                <g id="arrowRight" xlink:href="#dirArrow" transform="rotate(90) translate(36 -43)" onmousedown="handlePan(1,0)">
                  <use xlink:href="#rim" fill="#404040">
                        <set attributeName="fill" to="#808080" begin="arrowRight.mouseover" end="arrowRight.mouseout"/>
                  </use>
                  <path fill="none" stroke="white" stroke-width="1.5" d="M0,-3.0v7 M-2.5,-0.5L0,-3.0L2.5,-0.5"/>
                </g>
                <g id="arrowDown" xlink:href="#dirArrow" transform="rotate(180) translate(-30 -48)" onmousedown="handlePan(0,1)">
                  <use xlink:href="#rim" fill="#404040">
                        <set attributeName="fill" to="#808080" begin="arrowDown.mouseover" end="arrowDown.mouseout"/>
                  </use>
                  <path fill="none" stroke="white" stroke-width="1.5" d="M0,-3.0v7 M-2.5,-0.5L0,-3.0L2.5,-0.5"/>
                </g>
                <g id="arrowLeft" xlink:href="#dirArrow" transform="rotate(270) translate(-36 17)" onmousedown="handlePan(-1,0)">
                  <use xlink:href="#rim" fill="#404040">
                        <set attributeName="fill" to="#808080" begin="arrowLeft.mouseover" end="arrowLeft.mouseout"/>
                  </use>
                  <path fill="none" stroke="white" stroke-width="1.5" d="M0,-3.0v7 M-2.5,-0.5L0,-3.0L2.5,-0.5"/>
                </g>
        </g>
        <svg viewBox="0 0 15 15" width="100%" height="30px" preserveAspectRatio="xMaxYMin meet">
         <g id="arrow_out" transform="scale(0.3 0.3)">
          <a xlink:href="RawReader_8h__dep__incl_org.svg" target="_base">
           <rect id="button" ry="5" rx="5" y="6" x="6" height="38" width="38"
                fill="#f2f5e9" fill-opacity="0.5" stroke="#606060" stroke-width="1.0"/>
           <path id="arrow"
             d="M 11.500037,31.436501 C 11.940474,20.09759 22.043105,11.32322 32.158766,21.979434 L 37.068811,17.246167 C 37.068811,17.246167 37.088388,32 37.088388,32 L 22.160133,31.978069 C 22.160133,31.978069 26.997745,27.140456 26.997745,27.140456 C 18.528582,18.264221 13.291696,25.230495 11.500037,31.436501 z"
             style="fill:#404040;"/>
          </a>
         </g>
        </svg>
</svg>
