<?xml version="1.0" encoding="UTF-8" standalone="no"?>
<!DOCTYPE svg PUBLIC "-//W3C//DTD SVG 1.1//EN"
 "http://www.w3.org/Graphics/SVG/1.1/DTD/svg11.dtd">
<!-- Generated by graphviz version 2.40.1 (20161225.0304)
 -->
<!-- Title: /home/travis/build/AliceO2Group/AliceO2/Framework/Utils/include/DPLUtils/RawParser.h Pages: 1 -->
<svg width="828pt" height="150pt"
 viewBox="0.00 0.00 828.00 150.00" xmlns="http://www.w3.org/2000/svg" xmlns:xlink="http://www.w3.org/1999/xlink">
<g id="graph0" class="graph" transform="scale(1 1) rotate(0) translate(4 146)">
<title>/home/travis/build/AliceO2Group/AliceO2/Framework/Utils/include/DPLUtils/RawParser.h</title>
<!-- Node11 -->
<g id="node1" class="node">
<title>Node11</title>
<polygon fill="#bfbfbf" stroke="#000000" points="343,-89.5 343,-141.5 480,-141.5 480,-89.5 343,-89.5"/>
<text text-anchor="start" x="351" y="-129.5" font-family="Helvetica,sans-Serif" font-size="10.00" fill="#000000">/home/travis/build</text>
<text text-anchor="start" x="351" y="-118.5" font-family="Helvetica,sans-Serif" font-size="10.00" fill="#000000">/AliceO2Group/AliceO2</text>
<text text-anchor="start" x="351" y="-107.5" font-family="Helvetica,sans-Serif" font-size="10.00" fill="#000000">/Framework/Utils/include</text>
<text text-anchor="middle" x="411.5" y="-96.5" font-family="Helvetica,sans-Serif" font-size="10.00" fill="#000000">/DPLUtils/RawParser.h</text>
</g>
<!-- Node12 -->
<g id="node2" class="node">
<title>Node12</title>
<g id="a_node2"><a xlink:href="../../dd/d58/calib-pedestal_8cxx.html" target="_top" xlink:title="/home/travis/build\l/AliceO2Group/AliceO2\l/Detectors/TPC/calibration\l/run/calib&#45;pedestal.cxx">
<polygon fill="none" stroke="#000000" points="0,-.5 0,-52.5 143,-52.5 143,-.5 0,-.5"/>
<text text-anchor="start" x="8" y="-40.5" font-family="Helvetica,sans-Serif" font-size="10.00" fill="#000000">/home/travis/build</text>
<text text-anchor="start" x="8" y="-29.5" font-family="Helvetica,sans-Serif" font-size="10.00" fill="#000000">/AliceO2Group/AliceO2</text>
<text text-anchor="start" x="8" y="-18.5" font-family="Helvetica,sans-Serif" font-size="10.00" fill="#000000">/Detectors/TPC/calibration</text>
<text text-anchor="middle" x="71.5" y="-7.5" font-family="Helvetica,sans-Serif" font-size="10.00" fill="#000000">/run/calib&#45;pedestal.cxx</text>
</a>
</g>
</g>
<!-- Node11&#45;&gt;Node12 -->
<g id="edge1" class="edge">
<title>Node11&#45;&gt;Node12</title>
<path fill="none" stroke="#191970" d="M333.1394,-98.4679C281.3046,-86.7593 211.9994,-70.2588 151.5,-53 148.8267,-52.2374 146.1096,-51.442 143.3699,-50.6229"/>
<polygon fill="#191970" stroke="#191970" points="332.4126,-101.8918 342.9368,-100.671 333.9483,-95.0623 332.4126,-101.8918"/>
</g>
<!-- Node13 -->
<g id="node3" class="node">
<title>Node13</title>
<g id="a_node3"><a xlink:href="../../d4/d96/raw-parser_8cxx.html" target="_top" xlink:title="/home/travis/build\l/AliceO2Group/AliceO2\l/Framework/Utils/src/raw\l&#45;parser.cxx">
<polygon fill="none" stroke="#000000" points="161,-.5 161,-52.5 298,-52.5 298,-.5 161,-.5"/>
<text text-anchor="start" x="169" y="-40.5" font-family="Helvetica,sans-Serif" font-size="10.00" fill="#000000">/home/travis/build</text>
<text text-anchor="start" x="169" y="-29.5" font-family="Helvetica,sans-Serif" font-size="10.00" fill="#000000">/AliceO2Group/AliceO2</text>
<text text-anchor="start" x="169" y="-18.5" font-family="Helvetica,sans-Serif" font-size="10.00" fill="#000000">/Framework/Utils/src/raw</text>
<text text-anchor="middle" x="229.5" y="-7.5" font-family="Helvetica,sans-Serif" font-size="10.00" fill="#000000">&#45;parser.cxx</text>
</a>
</g>
</g>
<!-- Node11&#45;&gt;Node13 -->
<g id="edge2" class="edge">
<title>Node11&#45;&gt;Node13</title>
<path fill="none" stroke="#191970" d="M348.8162,-84.8469C327.2984,-74.3245 303.4345,-62.6548 282.7384,-52.5341"/>
<polygon fill="#191970" stroke="#191970" points="347.3574,-88.0296 357.8784,-89.2784 350.4325,-81.7412 347.3574,-88.0296"/>
</g>
<!-- Node14 -->
<g id="node4" class="node">
<title>Node14</title>
<g id="a_node4"><a xlink:href="../../d8/d93/RawParser_8cxx.html" target="_top" xlink:title="Generic parser for consecutive raw pages. ">
<polygon fill="none" stroke="#000000" points="316.5,-6 316.5,-47 506.5,-47 506.5,-6 316.5,-6"/>
<text text-anchor="start" x="324.5" y="-35" font-family="Helvetica,sans-Serif" font-size="10.00" fill="#000000">/home/travis/build</text>
<text text-anchor="start" x="324.5" y="-24" font-family="Helvetica,sans-Serif" font-size="10.00" fill="#000000">/AliceO2Group/AliceO2</text>
<text text-anchor="middle" x="411.5" y="-13" font-family="Helvetica,sans-Serif" font-size="10.00" fill="#000000">/Framework/Utils/src/RawParser.cxx</text>
</a>
</g>
</g>
<!-- Node11&#45;&gt;Node14 -->
<g id="edge3" class="edge">
<title>Node11&#45;&gt;Node14</title>
<path fill="none" stroke="#191970" d="M411.5,-79.1335C411.5,-68.2443 411.5,-56.6825 411.5,-47.1771"/>
<polygon fill="#191970" stroke="#191970" points="408.0001,-79.2784 411.5,-89.2784 415.0001,-79.2785 408.0001,-79.2784"/>
</g>
<!-- Node15 -->
<g id="node5" class="node">
<title>Node15</title>
<g id="a_node5"><a xlink:href="../../d2/d34/benchmark__RawParser_8cxx.html" target="_top" xlink:title="/home/travis/build\l/AliceO2Group/AliceO2\l/Framework/Utils/test\l/benchmark_RawParser.cxx">
<polygon fill="none" stroke="#000000" points="524.5,-.5 524.5,-52.5 674.5,-52.5 674.5,-.5 524.5,-.5"/>
<text text-anchor="start" x="532.5" y="-40.5" font-family="Helvetica,sans-Serif" font-size="10.00" fill="#000000">/home/travis/build</text>
<text text-anchor="start" x="532.5" y="-29.5" font-family="Helvetica,sans-Serif" font-size="10.00" fill="#000000">/AliceO2Group/AliceO2</text>
<text text-anchor="start" x="532.5" y="-18.5" font-family="Helvetica,sans-Serif" font-size="10.00" fill="#000000">/Framework/Utils/test</text>
<text text-anchor="middle" x="599.5" y="-7.5" font-family="Helvetica,sans-Serif" font-size="10.00" fill="#000000">/benchmark_RawParser.cxx</text>
</a>
</g>
</g>
<!-- Node11&#45;&gt;Node15 -->
<g id="edge4" class="edge">
<title>Node11&#45;&gt;Node15</title>
<path fill="none" stroke="#191970" d="M475.704,-85.1055C498.0241,-74.5391 522.844,-62.7893 544.3651,-52.6011"/>
<polygon fill="#191970" stroke="#191970" points="474.1767,-81.9561 466.6359,-89.3984 477.1719,-88.283 474.1767,-81.9561"/>
</g>
<!-- Node16 -->
<g id="node6" class="node">
<title>Node16</title>
<g id="a_node6"><a xlink:href="../../dd/d7b/test__RawParser_8cxx.html" target="_top" xlink:title="/home/travis/build\l/AliceO2Group/AliceO2\l/Framework/Utils/test\l/test_RawParser.cxx">
<polygon fill="none" stroke="#000000" points="693,-.5 693,-52.5 820,-52.5 820,-.5 693,-.5"/>
<text text-anchor="start" x="701" y="-40.5" font-family="Helvetica,sans-Serif" font-size="10.00" fill="#000000">/home/travis/build</text>
<text text-anchor="start" x="701" y="-29.5" font-family="Helvetica,sans-Serif" font-size="10.00" fill="#000000">/AliceO2Group/AliceO2</text>
<text text-anchor="start" x="701" y="-18.5" font-family="Helvetica,sans-Serif" font-size="10.00" fill="#000000">/Framework/Utils/test</text>
<text text-anchor="middle" x="756.5" y="-7.5" font-family="Helvetica,sans-Serif" font-size="10.00" fill="#000000">/test_RawParser.cxx</text>
</a>
</g>
</g>
<!-- Node11&#45;&gt;Node16 -->
<g id="edge5" class="edge">
<title>Node11&#45;&gt;Node16</title>
<path fill="none" stroke="#191970" d="M489.9821,-100.124C544.6732,-88.7636 619.0817,-72.0158 683.5,-53 686.6035,-52.0839 689.7667,-51.1066 692.9511,-50.0877"/>
<polygon fill="#191970" stroke="#191970" points="489.0931,-96.7336 480.0064,-102.1819 490.5074,-103.5893 489.0931,-96.7336"/>
</g>
</g>
</svg>
