<?xml version="1.0" encoding="UTF-8" standalone="no"?>
<!DOCTYPE svg PUBLIC "-//W3C//DTD SVG 1.1//EN"
 "http://www.w3.org/Graphics/SVG/1.1/DTD/svg11.dtd">
<!-- Generated by graphviz version 2.40.1 (20161225.0304)
 -->
<!-- Title: GPUCA_NAMESPACE::gpu::GPUChainTracking::InOutMemory Pages: 1 -->
<svg width="2457pt" height="226pt"
 viewBox="0.00 0.00 2456.50 226.00" xmlns="http://www.w3.org/2000/svg" xmlns:xlink="http://www.w3.org/1999/xlink">
<g id="graph0" class="graph" transform="scale(1 1) rotate(0) translate(4 222)">
<title>GPUCA_NAMESPACE::gpu::GPUChainTracking::InOutMemory</title>
<!-- Node1 -->
<g id="node1" class="node">
<title>Node1</title>
<polygon fill="#bfbfbf" stroke="#000000" points="1197,-.5 1197,-101.5 1381,-101.5 1381,-.5 1197,-.5"/>
<text text-anchor="start" x="1205" y="-89.5" font-family="Helvetica,sans-Serif" font-size="10.00" fill="#000000">GPUCA_NAMESPACE::gpu</text>
<text text-anchor="middle" x="1289" y="-78.5" font-family="Helvetica,sans-Serif" font-size="10.00" fill="#000000">::GPUChainTracking::InOutMemory</text>
<polyline fill="none" stroke="#000000" points="1197,-71.5 1381,-71.5 "/>
<text text-anchor="middle" x="1289" y="-59.5" font-family="Helvetica,sans-Serif" font-size="10.00" fill="#000000"> </text>
<polyline fill="none" stroke="#000000" points="1197,-52.5 1381,-52.5 "/>
<text text-anchor="start" x="1205" y="-40.5" font-family="Helvetica,sans-Serif" font-size="10.00" fill="#000000">+ InOutMemory()</text>
<text text-anchor="start" x="1205" y="-29.5" font-family="Helvetica,sans-Serif" font-size="10.00" fill="#000000">+ ~InOutMemory()</text>
<text text-anchor="start" x="1205" y="-18.5" font-family="Helvetica,sans-Serif" font-size="10.00" fill="#000000">+ InOutMemory()</text>
<text text-anchor="start" x="1205" y="-7.5" font-family="Helvetica,sans-Serif" font-size="10.00" fill="#000000">+ operator=()</text>
</g>
<!-- Node2 -->
<g id="node2" class="node">
<title>Node2</title>
<polygon fill="none" stroke="#bfbfbf" points="0,-149.5 0,-217.5 194,-217.5 194,-149.5 0,-149.5"/>
<text text-anchor="start" x="8" y="-205.5" font-family="Helvetica,sans-Serif" font-size="10.00" fill="#000000">unique_ptr&lt; GPUCA_NAMESPACE</text>
<text text-anchor="middle" x="97" y="-194.5" font-family="Helvetica,sans-Serif" font-size="10.00" fill="#000000">::gpu::GPUTPCGMMergedTrackHit[]&gt;</text>
<polyline fill="none" stroke="#bfbfbf" points="0,-187.5 194,-187.5 "/>
<text text-anchor="middle" x="97" y="-175.5" font-family="Helvetica,sans-Serif" font-size="10.00" fill="#000000"> </text>
<polyline fill="none" stroke="#bfbfbf" points="0,-168.5 194,-168.5 "/>
<text text-anchor="middle" x="97" y="-156.5" font-family="Helvetica,sans-Serif" font-size="10.00" fill="#000000"> </text>
</g>
<!-- Node2&#45;&gt;Node1 -->
<g id="edge1" class="edge">
<title>Node2&#45;&gt;Node1</title>
<path fill="none" stroke="#404040" d="M194.1495,-151.1808C197.1247,-150.4157 200.0798,-149.6861 203,-149 288.7249,-128.8579 311.4936,-129.8537 399,-120 682.3984,-88.0877 1018.2424,-66.4011 1184.6976,-56.7286"/>
<polygon fill="none" stroke="#404040" points="1184.8925,-56.7175 1190.6517,-52.3779 1196.8725,-56.0251 1191.1133,-60.3646 1184.8925,-56.7175"/>
<text text-anchor="middle" x="446" y="-123" font-family="Helvetica,sans-Serif" font-size="10.00" fill="#000000"> +mergedTrackHits</text>
</g>
<!-- Node3 -->
<g id="node3" class="node">
<title>Node3</title>
<polygon fill="none" stroke="#bfbfbf" points="212.5,-149.5 212.5,-217.5 393.5,-217.5 393.5,-149.5 212.5,-149.5"/>
<text text-anchor="start" x="220.5" y="-205.5" font-family="Helvetica,sans-Serif" font-size="10.00" fill="#000000">unique_ptr&lt; GPUCA_NAMESPACE</text>
<text text-anchor="middle" x="303" y="-194.5" font-family="Helvetica,sans-Serif" font-size="10.00" fill="#000000">::gpu::deprecated::PackedDigit[]&gt;</text>
<polyline fill="none" stroke="#bfbfbf" points="212.5,-187.5 393.5,-187.5 "/>
<text text-anchor="middle" x="303" y="-175.5" font-family="Helvetica,sans-Serif" font-size="10.00" fill="#000000"> </text>
<polyline fill="none" stroke="#bfbfbf" points="212.5,-168.5 393.5,-168.5 "/>
<text text-anchor="middle" x="303" y="-156.5" font-family="Helvetica,sans-Serif" font-size="10.00" fill="#000000"> </text>
</g>
<!-- Node3&#45;&gt;Node1 -->
<g id="edge2" class="edge">
<title>Node3&#45;&gt;Node1</title>
<path fill="none" stroke="#404040" d="M393.6823,-151.0678C396.476,-150.3355 399.2532,-149.6435 402,-149 679.9554,-83.8875 1017.3175,-61.7362 1184.5625,-54.4345"/>
<polygon fill="none" stroke="#404040" points="1184.8061,-54.4243 1190.6305,-50.1727 1196.7952,-53.9138 1190.9708,-58.1654 1184.8061,-54.4243"/>
<text text-anchor="middle" x="548.5" y="-123" font-family="Helvetica,sans-Serif" font-size="10.00" fill="#000000"> +tpcDigits</text>
</g>
<!-- Node4 -->
<g id="node4" class="node">
<title>Node4</title>
<polygon fill="none" stroke="#bfbfbf" points="411.5,-149.5 411.5,-217.5 590.5,-217.5 590.5,-149.5 411.5,-149.5"/>
<text text-anchor="start" x="419.5" y="-205.5" font-family="Helvetica,sans-Serif" font-size="10.00" fill="#000000">unique_ptr&lt; GPUCA_NAMESPACE</text>
<text text-anchor="middle" x="501" y="-194.5" font-family="Helvetica,sans-Serif" font-size="10.00" fill="#000000">::gpu::GPUTPCGMMergedTrack[]&gt;</text>
<polyline fill="none" stroke="#bfbfbf" points="411.5,-187.5 590.5,-187.5 "/>
<text text-anchor="middle" x="501" y="-175.5" font-family="Helvetica,sans-Serif" font-size="10.00" fill="#000000"> </text>
<polyline fill="none" stroke="#bfbfbf" points="411.5,-168.5 590.5,-168.5 "/>
<text text-anchor="middle" x="501" y="-156.5" font-family="Helvetica,sans-Serif" font-size="10.00" fill="#000000"> </text>
</g>
<!-- Node4&#45;&gt;Node1 -->
<g id="edge3" class="edge">
<title>Node4&#45;&gt;Node1</title>
<path fill="none" stroke="#404040" d="M590.515,-151.2245C593.366,-150.4411 596.1994,-149.6967 599,-149 803.3009,-98.1768 1048.64,-71.168 1184.8512,-59.0798"/>
<polygon fill="none" stroke="#404040" points="1184.9277,-59.0732 1190.5556,-54.5648 1196.8819,-58.0259 1191.2539,-62.5343 1184.9277,-59.0732"/>
<text text-anchor="middle" x="770" y="-123" font-family="Helvetica,sans-Serif" font-size="10.00" fill="#000000"> +mergedTracks</text>
</g>
<!-- Node5 -->
<g id="node5" class="node">
<title>Node5</title>
<polygon fill="none" stroke="#bfbfbf" points="608.5,-149.5 608.5,-217.5 787.5,-217.5 787.5,-149.5 608.5,-149.5"/>
<text text-anchor="start" x="616.5" y="-205.5" font-family="Helvetica,sans-Serif" font-size="10.00" fill="#000000">unique_ptr&lt; GPUCA_NAMESPACE</text>
<text text-anchor="middle" x="698" y="-194.5" font-family="Helvetica,sans-Serif" font-size="10.00" fill="#000000">::gpu::GPUTPCClusterData[]&gt;</text>
<polyline fill="none" stroke="#bfbfbf" points="608.5,-187.5 787.5,-187.5 "/>
<text text-anchor="middle" x="698" y="-175.5" font-family="Helvetica,sans-Serif" font-size="10.00" fill="#000000"> </text>
<polyline fill="none" stroke="#bfbfbf" points="608.5,-168.5 787.5,-168.5 "/>
<text text-anchor="middle" x="698" y="-156.5" font-family="Helvetica,sans-Serif" font-size="10.00" fill="#000000"> </text>
</g>
<!-- Node5&#45;&gt;Node1 -->
<g id="edge4" class="edge">
<title>Node5&#45;&gt;Node1</title>
<path fill="none" stroke="#404040" d="M787.5602,-151.3978C790.3982,-150.5643 793.2166,-149.7624 796,-149 928.4359,-112.7236 1084.3253,-84.0174 1184.8006,-67.2806"/>
<polygon fill="none" stroke="#404040" points="1184.9347,-67.2585 1190.2011,-62.3325 1196.7737,-65.2992 1191.5073,-70.2252 1184.9347,-67.2585"/>
<text text-anchor="middle" x="937" y="-123" font-family="Helvetica,sans-Serif" font-size="10.00" fill="#000000"> +clusterData</text>
</g>
<!-- Node6 -->
<g id="node6" class="node">
<title>Node6</title>
<polygon fill="none" stroke="#bfbfbf" points="805.5,-149.5 805.5,-217.5 984.5,-217.5 984.5,-149.5 805.5,-149.5"/>
<text text-anchor="start" x="813.5" y="-205.5" font-family="Helvetica,sans-Serif" font-size="10.00" fill="#000000">unique_ptr&lt; GPUCA_NAMESPACE</text>
<text text-anchor="middle" x="895" y="-194.5" font-family="Helvetica,sans-Serif" font-size="10.00" fill="#000000">::gpu::GPUTRDTrackletLabels[]&gt;</text>
<polyline fill="none" stroke="#bfbfbf" points="805.5,-187.5 984.5,-187.5 "/>
<text text-anchor="middle" x="895" y="-175.5" font-family="Helvetica,sans-Serif" font-size="10.00" fill="#000000"> </text>
<polyline fill="none" stroke="#bfbfbf" points="805.5,-168.5 984.5,-168.5 "/>
<text text-anchor="middle" x="895" y="-156.5" font-family="Helvetica,sans-Serif" font-size="10.00" fill="#000000"> </text>
</g>
<!-- Node6&#45;&gt;Node1 -->
<g id="edge5" class="edge">
<title>Node6&#45;&gt;Node1</title>
<path fill="none" stroke="#404040" d="M984.6983,-151.8468C987.4964,-150.8837 990.2689,-149.9327 993,-149 1056.7405,-127.2309 1128.4466,-103.4717 1185.3169,-84.7998"/>
<polygon fill="none" stroke="#404040" points="1185.4501,-84.7562 1189.9043,-79.0852 1196.8522,-81.0155 1192.3981,-86.6865 1185.4501,-84.7562"/>
<text text-anchor="middle" x="1117" y="-123" font-family="Helvetica,sans-Serif" font-size="10.00" fill="#000000"> +trdTrackletsMC</text>
</g>
<!-- Node7 -->
<g id="node7" class="node">
<title>Node7</title>
<polygon fill="none" stroke="#bfbfbf" points="1002.5,-149.5 1002.5,-217.5 1181.5,-217.5 1181.5,-149.5 1002.5,-149.5"/>
<text text-anchor="start" x="1010.5" y="-205.5" font-family="Helvetica,sans-Serif" font-size="10.00" fill="#000000">unique_ptr&lt; GPUCA_NAMESPACE</text>
<text text-anchor="middle" x="1092" y="-194.5" font-family="Helvetica,sans-Serif" font-size="10.00" fill="#000000">::gpu::GPUTPCHitId[]&gt;</text>
<polyline fill="none" stroke="#bfbfbf" points="1002.5,-187.5 1181.5,-187.5 "/>
<text text-anchor="middle" x="1092" y="-175.5" font-family="Helvetica,sans-Serif" font-size="10.00" fill="#000000"> </text>
<polyline fill="none" stroke="#bfbfbf" points="1002.5,-168.5 1181.5,-168.5 "/>
<text text-anchor="middle" x="1092" y="-156.5" font-family="Helvetica,sans-Serif" font-size="10.00" fill="#000000"> </text>
</g>
<!-- Node7&#45;&gt;Node1 -->
<g id="edge6" class="edge">
<title>Node7&#45;&gt;Node1</title>
<path fill="none" stroke="#404040" d="M1142.7324,-149.378C1161.347,-136.858 1182.9647,-122.3182 1203.7769,-108.3201"/>
<polygon fill="none" stroke="#404040" points="1203.9551,-108.2003 1206.7014,-101.5326 1213.9124,-101.5031 1211.1662,-108.1708 1203.9551,-108.2003"/>
<text text-anchor="middle" x="1230.5" y="-123" font-family="Helvetica,sans-Serif" font-size="10.00" fill="#000000"> +sliceOutClusters</text>
</g>
<!-- Node8 -->
<g id="node8" class="node">
<title>Node8</title>
<polygon fill="none" stroke="#bfbfbf" points="1199.5,-149.5 1199.5,-217.5 1378.5,-217.5 1378.5,-149.5 1199.5,-149.5"/>
<text text-anchor="start" x="1207.5" y="-205.5" font-family="Helvetica,sans-Serif" font-size="10.00" fill="#000000">unique_ptr&lt; GPUCA_NAMESPACE</text>
<text text-anchor="middle" x="1289" y="-194.5" font-family="Helvetica,sans-Serif" font-size="10.00" fill="#000000">::gpu::GPUTPCTrack[]&gt;</text>
<polyline fill="none" stroke="#bfbfbf" points="1199.5,-187.5 1378.5,-187.5 "/>
<text text-anchor="middle" x="1289" y="-175.5" font-family="Helvetica,sans-Serif" font-size="10.00" fill="#000000"> </text>
<polyline fill="none" stroke="#bfbfbf" points="1199.5,-168.5 1378.5,-168.5 "/>
<text text-anchor="middle" x="1289" y="-156.5" font-family="Helvetica,sans-Serif" font-size="10.00" fill="#000000"> </text>
</g>
<!-- Node8&#45;&gt;Node1 -->
<g id="edge7" class="edge">
<title>Node8&#45;&gt;Node1</title>
<path fill="none" stroke="#404040" d="M1289,-149.378C1289,-138.4514 1289,-125.9865 1289,-113.6859"/>
<polygon fill="none" stroke="#404040" points="1289.0001,-113.5031 1285,-107.5031 1289,-101.5031 1293,-107.503 1289.0001,-113.5031"/>
<text text-anchor="middle" x="1330" y="-123" font-family="Helvetica,sans-Serif" font-size="10.00" fill="#000000"> +sliceOutTracks</text>
</g>
<!-- Node9 -->
<g id="node9" class="node">
<title>Node9</title>
<polygon fill="none" stroke="#bfbfbf" points="1396.5,-149.5 1396.5,-217.5 1509.5,-217.5 1509.5,-149.5 1396.5,-149.5"/>
<text text-anchor="start" x="1404.5" y="-205.5" font-family="Helvetica,sans-Serif" font-size="10.00" fill="#000000">unique_ptr&lt; o2::tpc</text>
<text text-anchor="middle" x="1453" y="-194.5" font-family="Helvetica,sans-Serif" font-size="10.00" fill="#000000">::ClusterNative[]&gt;</text>
<polyline fill="none" stroke="#bfbfbf" points="1396.5,-187.5 1509.5,-187.5 "/>
<text text-anchor="middle" x="1453" y="-175.5" font-family="Helvetica,sans-Serif" font-size="10.00" fill="#000000"> </text>
<polyline fill="none" stroke="#bfbfbf" points="1396.5,-168.5 1509.5,-168.5 "/>
<text text-anchor="middle" x="1453" y="-156.5" font-family="Helvetica,sans-Serif" font-size="10.00" fill="#000000"> </text>
</g>
<!-- Node9&#45;&gt;Node1 -->
<g id="edge8" class="edge">
<title>Node9&#45;&gt;Node1</title>
<path fill="none" stroke="#404040" d="M1410.9449,-149.1716C1399.3145,-139.7029 1386.6795,-129.4394 1375,-120 1370.7826,-116.5915 1366.4454,-113.0924 1362.0668,-109.5646"/>
<polygon fill="none" stroke="#404040" points="1361.7928,-109.3441 1354.6107,-108.6977 1352.445,-101.8195 1359.6271,-102.4659 1361.7928,-109.3441"/>
<text text-anchor="middle" x="1428" y="-123" font-family="Helvetica,sans-Serif" font-size="10.00" fill="#000000"> +clustersNative</text>
</g>
<!-- Node10 -->
<g id="node10" class="node">
<title>Node10</title>
<polygon fill="none" stroke="#bfbfbf" points="1527.5,-149.5 1527.5,-217.5 1706.5,-217.5 1706.5,-149.5 1527.5,-149.5"/>
<text text-anchor="start" x="1535.5" y="-205.5" font-family="Helvetica,sans-Serif" font-size="10.00" fill="#000000">unique_ptr&lt; GPUCA_NAMESPACE</text>
<text text-anchor="middle" x="1617" y="-194.5" font-family="Helvetica,sans-Serif" font-size="10.00" fill="#000000">::gpu::GPUTPCMCInfo[]&gt;</text>
<polyline fill="none" stroke="#bfbfbf" points="1527.5,-187.5 1706.5,-187.5 "/>
<text text-anchor="middle" x="1617" y="-175.5" font-family="Helvetica,sans-Serif" font-size="10.00" fill="#000000"> </text>
<polyline fill="none" stroke="#bfbfbf" points="1527.5,-168.5 1706.5,-168.5 "/>
<text text-anchor="middle" x="1617" y="-156.5" font-family="Helvetica,sans-Serif" font-size="10.00" fill="#000000"> </text>
</g>
<!-- Node10&#45;&gt;Node1 -->
<g id="edge9" class="edge">
<title>Node10&#45;&gt;Node1</title>
<path fill="none" stroke="#404040" d="M1541.8604,-149.4063C1519.7841,-139.6502 1495.5185,-129.1787 1473,-120 1447.1308,-109.4555 1418.9858,-98.5973 1392.6676,-88.7048"/>
<polygon fill="none" stroke="#404040" points="1392.3553,-88.5879 1385.3337,-90.2303 1381.117,-84.3806 1388.1386,-82.7381 1392.3553,-88.5879"/>
<text text-anchor="middle" x="1531" y="-123" font-family="Helvetica,sans-Serif" font-size="10.00" fill="#000000"> +mcInfosTPC</text>
</g>
<!-- Node11 -->
<g id="node11" class="node">
<title>Node11</title>
<polygon fill="none" stroke="#bfbfbf" points="1724.5,-149.5 1724.5,-217.5 1887.5,-217.5 1887.5,-149.5 1724.5,-149.5"/>
<text text-anchor="start" x="1732.5" y="-205.5" font-family="Helvetica,sans-Serif" font-size="10.00" fill="#000000">unique_ptr&lt; AliHLTTPCCluster</text>
<text text-anchor="middle" x="1806" y="-194.5" font-family="Helvetica,sans-Serif" font-size="10.00" fill="#000000">MCLabel[]&gt;</text>
<polyline fill="none" stroke="#bfbfbf" points="1724.5,-187.5 1887.5,-187.5 "/>
<text text-anchor="middle" x="1806" y="-175.5" font-family="Helvetica,sans-Serif" font-size="10.00" fill="#000000"> </text>
<polyline fill="none" stroke="#bfbfbf" points="1724.5,-168.5 1887.5,-168.5 "/>
<text text-anchor="middle" x="1806" y="-156.5" font-family="Helvetica,sans-Serif" font-size="10.00" fill="#000000"> </text>
</g>
<!-- Node11&#45;&gt;Node1 -->
<g id="edge10" class="edge">
<title>Node11&#45;&gt;Node1</title>
<path fill="none" stroke="#404040" d="M1724.2532,-151.6047C1721.4778,-150.7007 1718.7212,-149.8293 1716,-149 1607.4265,-115.9099 1480.3358,-88.0969 1393.211,-70.653"/>
<polygon fill="none" stroke="#404040" points="1392.9579,-70.6028 1386.2927,-73.355 1381.1886,-68.261 1387.8539,-65.5088 1392.9579,-70.6028"/>
<text text-anchor="middle" x="1685.5" y="-123" font-family="Helvetica,sans-Serif" font-size="10.00" fill="#000000"> +mcLabelsTPC</text>
</g>
<!-- Node12 -->
<g id="node12" class="node">
<title>Node12</title>
<polygon fill="none" stroke="#bfbfbf" points="1905.5,-149.5 1905.5,-217.5 2084.5,-217.5 2084.5,-149.5 1905.5,-149.5"/>
<text text-anchor="start" x="1913.5" y="-205.5" font-family="Helvetica,sans-Serif" font-size="10.00" fill="#000000">unique_ptr&lt; GPUCA_NAMESPACE</text>
<text text-anchor="middle" x="1995" y="-194.5" font-family="Helvetica,sans-Serif" font-size="10.00" fill="#000000">::gpu::GPUTRDTrackletWord[]&gt;</text>
<polyline fill="none" stroke="#bfbfbf" points="1905.5,-187.5 2084.5,-187.5 "/>
<text text-anchor="middle" x="1995" y="-175.5" font-family="Helvetica,sans-Serif" font-size="10.00" fill="#000000"> </text>
<polyline fill="none" stroke="#bfbfbf" points="1905.5,-168.5 2084.5,-168.5 "/>
<text text-anchor="middle" x="1995" y="-156.5" font-family="Helvetica,sans-Serif" font-size="10.00" fill="#000000"> </text>
</g>
<!-- Node12&#45;&gt;Node1 -->
<g id="edge11" class="edge">
<title>Node12&#45;&gt;Node1</title>
<path fill="none" stroke="#404040" d="M1905.4655,-151.3012C1902.6201,-150.4956 1899.7932,-149.7258 1897,-149 1723.0455,-103.7998 1515.3834,-75.7046 1393.2886,-61.7401"/>
<polygon fill="none" stroke="#404040" points="1392.9406,-61.7008 1386.5288,-65.0007 1381.0167,-60.3513 1387.4285,-57.0514 1392.9406,-61.7008"/>
<text text-anchor="middle" x="1849.5" y="-123" font-family="Helvetica,sans-Serif" font-size="10.00" fill="#000000"> +trdTracklets</text>
</g>
<!-- Node13 -->
<g id="node13" class="node">
<title>Node13</title>
<polygon fill="none" stroke="#bfbfbf" points="2102.5,-149.5 2102.5,-217.5 2281.5,-217.5 2281.5,-149.5 2102.5,-149.5"/>
<text text-anchor="start" x="2110.5" y="-205.5" font-family="Helvetica,sans-Serif" font-size="10.00" fill="#000000">unique_ptr&lt; GPUCA_NAMESPACE</text>
<text text-anchor="middle" x="2192" y="-194.5" font-family="Helvetica,sans-Serif" font-size="10.00" fill="#000000">::gpu::GPUTRDTrack_t[]&gt;</text>
<polyline fill="none" stroke="#bfbfbf" points="2102.5,-187.5 2281.5,-187.5 "/>
<text text-anchor="middle" x="2192" y="-175.5" font-family="Helvetica,sans-Serif" font-size="10.00" fill="#000000"> </text>
<polyline fill="none" stroke="#bfbfbf" points="2102.5,-168.5 2281.5,-168.5 "/>
<text text-anchor="middle" x="2192" y="-156.5" font-family="Helvetica,sans-Serif" font-size="10.00" fill="#000000"> </text>
</g>
<!-- Node13&#45;&gt;Node1 -->
<g id="edge12" class="edge">
<title>Node13&#45;&gt;Node1</title>
<path fill="none" stroke="#404040" d="M2102.4935,-151.1902C2099.64,-150.4167 2096.8038,-149.6837 2094,-149 1847.1277,-88.8021 1548.2223,-64.7743 1393.3648,-55.837"/>
<polygon fill="none" stroke="#404040" points="1393.0852,-55.8213 1386.8689,-59.4761 1381.1044,-55.1436 1387.3207,-51.4888 1393.0852,-55.8213"/>
<text text-anchor="middle" x="2036" y="-123" font-family="Helvetica,sans-Serif" font-size="10.00" fill="#000000"> +trdTracks</text>
</g>
<!-- Node14 -->
<g id="node14" class="node">
<title>Node14</title>
<polygon fill="none" stroke="#bfbfbf" points="2299.5,-149.5 2299.5,-217.5 2448.5,-217.5 2448.5,-149.5 2299.5,-149.5"/>
<text text-anchor="start" x="2307.5" y="-205.5" font-family="Helvetica,sans-Serif" font-size="10.00" fill="#000000">unique_ptr&lt; AliHLTTPCRaw</text>
<text text-anchor="middle" x="2374" y="-194.5" font-family="Helvetica,sans-Serif" font-size="10.00" fill="#000000">Cluster[]&gt;</text>
<polyline fill="none" stroke="#bfbfbf" points="2299.5,-187.5 2448.5,-187.5 "/>
<text text-anchor="middle" x="2374" y="-175.5" font-family="Helvetica,sans-Serif" font-size="10.00" fill="#000000"> </text>
<polyline fill="none" stroke="#bfbfbf" points="2299.5,-168.5 2448.5,-168.5 "/>
<text text-anchor="middle" x="2374" y="-156.5" font-family="Helvetica,sans-Serif" font-size="10.00" fill="#000000"> </text>
</g>
<!-- Node14&#45;&gt;Node1 -->
<g id="edge13" class="edge">
<title>Node14&#45;&gt;Node1</title>
<path fill="none" stroke="#404040" d="M2299.2088,-151.3716C2296.4554,-150.5215 2293.7133,-149.7265 2291,-149 2194.4554,-123.1488 2167.3544,-130.8558 2068,-120 1826.9395,-93.6609 1543.0661,-70.4884 1393.4537,-58.8845"/>
<polygon fill="none" stroke="#404040" points="1393.1223,-58.8589 1386.8317,-62.3843 1381.1581,-57.9335 1387.4487,-54.4081 1393.1223,-58.8589"/>
<text text-anchor="middle" x="2234" y="-123" font-family="Helvetica,sans-Serif" font-size="10.00" fill="#000000"> +rawClusters</text>
</g>
</g>
</svg>
