<?xml version="1.0" encoding="UTF-8" standalone="no"?>
<!DOCTYPE svg PUBLIC "-//W3C//DTD SVG 1.1//EN"
 "http://www.w3.org/Graphics/SVG/1.1/DTD/svg11.dtd">
<!-- Generated by graphviz version 2.40.1 (20161225.0304)
 -->
<!-- Title: /home/travis/build/AliceO2Group/AliceO2/Framework/Core/src/DataProcessorInfo.h Pages: 1 -->
<!--zoomable 417 -->
<svg id="main" version="1.1" xmlns="http://www.w3.org/2000/svg" xmlns:xlink="http://www.w3.org/1999/xlink" xml:space="preserve" onload="init(evt)">
<style type="text/css"><![CDATA[
.edge:hover path { stroke: red; }
.edge:hover polygon { stroke: red; fill: red; }
]]></style>
<script type="text/javascript"><![CDATA[
var edges = document.getElementsByTagName('g');
if (edges && edges.length) {
  for (var i=0;i<edges.length;i++) {
    if (edges[i].id.substr(0,4)=='edge') {
      edges[i].setAttribute('class','edge');
    }
  }
}
]]></script>
        <defs>
                <circle id="rim" cx="0" cy="0" r="7"/>
                <circle id="rim2" cx="0" cy="0" r="3.5"/>
                <g id="zoomPlus">
                        <use xlink:href="#rim" fill="#404040">
                                <set attributeName="fill" to="#808080" begin="zoomplus.mouseover" end="zoomplus.mouseout"/>
                        </use>
                        <path d="M-4,0h8M0,-4v8" fill="none" stroke="white" stroke-width="1.5" pointer-events="none"/>
                </g>
                <g id="zoomMin">
                        <use xlink:href="#rim" fill="#404040">
                                <set attributeName="fill" to="#808080" begin="zoomminus.mouseover" end="zoomminus.mouseout"/>
                        </use>
                        <path d="M-4,0h8" fill="none" stroke="white" stroke-width="1.5" pointer-events="none"/>
                </g>
                <g id="dirArrow">
                        <path fill="none" stroke="white" stroke-width="1.5" d="M0,-3.0v7 M-2.5,-0.5L0,-3.0L2.5,-0.5"/>
                </g>
               <g id="resetDef">
                       <use xlink:href="#rim2" fill="#404040">
                               <set attributeName="fill" to="#808080" begin="reset.mouseover" end="reset.mouseout"/>
                       </use>
               </g>
        </defs>

<script type="text/javascript">
var viewWidth = 2235;
var viewHeight = 417;
var sectionId = 'dynsection-1';
</script>
<script xlink:href="../../svgpan.js"/>
<svg id="graph" class="graph">
<g id="viewport">
<title>/home/travis/build/AliceO2Group/AliceO2/Framework/Core/src/DataProcessorInfo.h</title>
<!-- Node12 -->
<g id="node1" class="node">
<title>Node12</title>
<polygon fill="#bfbfbf" stroke="#000000" points="709.5,-356.5 709.5,-408.5 899.5,-408.5 899.5,-356.5 709.5,-356.5"/>
<text text-anchor="start" x="717.5" y="-396.5" font-family="Helvetica,sans-Serif" font-size="10.00" fill="#000000">/home/travis/build</text>
<text text-anchor="start" x="717.5" y="-385.5" font-family="Helvetica,sans-Serif" font-size="10.00" fill="#000000">/AliceO2Group/AliceO2</text>
<text text-anchor="start" x="717.5" y="-374.5" font-family="Helvetica,sans-Serif" font-size="10.00" fill="#000000">/Framework/Core/src/DataProcessor</text>
<text text-anchor="middle" x="804.5" y="-363.5" font-family="Helvetica,sans-Serif" font-size="10.00" fill="#000000">Info.h</text>
</g>
<!-- Node13 -->
<g id="node2" class="node">
<title>Node13</title>
<g id="a_node2"><a xlink:href="../../dd/d9a/FrameworkGUIDebugger_8h.html" target="_top" xlink:title="/home/travis/build\l/AliceO2Group/AliceO2\l/Framework/Core/include\l/Framework/FrameworkGUIDebugger.h">
<polygon fill="none" stroke="#000000" points="106.5,-267.5 106.5,-319.5 310.5,-319.5 310.5,-267.5 106.5,-267.5"/>
<text text-anchor="start" x="114.5" y="-307.5" font-family="Helvetica,sans-Serif" font-size="10.00" fill="#000000">/home/travis/build</text>
<text text-anchor="start" x="114.5" y="-296.5" font-family="Helvetica,sans-Serif" font-size="10.00" fill="#000000">/AliceO2Group/AliceO2</text>
<text text-anchor="start" x="114.5" y="-285.5" font-family="Helvetica,sans-Serif" font-size="10.00" fill="#000000">/Framework/Core/include</text>
<text text-anchor="middle" x="208.5" y="-274.5" font-family="Helvetica,sans-Serif" font-size="10.00" fill="#000000">/Framework/FrameworkGUIDebugger.h</text>
</a>
</g>
</g>
<!-- Node12&#45;&gt;Node13 -->
<g id="edge1" class="edge">
<title>Node12&#45;&gt;Node13</title>
<path fill="none" stroke="#191970" d="M699.2127,-371.7062C601.666,-361.0165 452.7328,-342.9421 324.5,-320 319.9247,-319.1814 315.2575,-318.302 310.55,-317.3788"/>
<polygon fill="#191970" stroke="#191970" points="699.0524,-375.2093 709.3727,-372.8132 699.8107,-368.2505 699.0524,-375.2093"/>
</g>
<!-- Node14 -->
<g id="node3" class="node">
<title>Node14</title>
<g id="a_node3"><a xlink:href="../../de/ddc/FrameworkDummyDebugger_8cxx.html" target="_top" xlink:title="/home/travis/build\l/AliceO2Group/AliceO2\l/Framework/Core/src/Framework\lDummyDebugger.cxx">
<polygon fill="none" stroke="#000000" points="0,-178.5 0,-230.5 173,-230.5 173,-178.5 0,-178.5"/>
<text text-anchor="start" x="8" y="-218.5" font-family="Helvetica,sans-Serif" font-size="10.00" fill="#000000">/home/travis/build</text>
<text text-anchor="start" x="8" y="-207.5" font-family="Helvetica,sans-Serif" font-size="10.00" fill="#000000">/AliceO2Group/AliceO2</text>
<text text-anchor="start" x="8" y="-196.5" font-family="Helvetica,sans-Serif" font-size="10.00" fill="#000000">/Framework/Core/src/Framework</text>
<text text-anchor="middle" x="86.5" y="-185.5" font-family="Helvetica,sans-Serif" font-size="10.00" fill="#000000">DummyDebugger.cxx</text>
</a>
</g>
</g>
<!-- Node12&#45;&gt;Node14 -->
<g id="edge33" class="edge">
<title>Node12&#45;&gt;Node14</title>
<path fill="none" stroke="#191970" d="M699.3011,-380.4855C512.6799,-375.8632 139.2696,-361.4874 97.5,-320 74.491,-297.1464 76.0722,-257.3555 80.4144,-230.9703"/>
<polygon fill="#191970" stroke="#191970" points="699.3269,-383.9871 709.409,-380.7308 699.4969,-376.9891 699.3269,-383.9871"/>
</g>
<!-- Node16 -->
<g id="node5" class="node">
<title>Node16</title>
<g id="a_node5"><a xlink:href="../../d7/d54/runDataProcessing_8cxx.html" target="_top" xlink:title="/home/travis/build\l/AliceO2Group/AliceO2\l/Framework/Core/src/runDataProcessing.cxx">
<polygon fill="none" stroke="#000000" points="308,-95 308,-136 539,-136 539,-95 308,-95"/>
<text text-anchor="start" x="316" y="-124" font-family="Helvetica,sans-Serif" font-size="10.00" fill="#000000">/home/travis/build</text>
<text text-anchor="start" x="316" y="-113" font-family="Helvetica,sans-Serif" font-size="10.00" fill="#000000">/AliceO2Group/AliceO2</text>
<text text-anchor="middle" x="423.5" y="-102" font-family="Helvetica,sans-Serif" font-size="10.00" fill="#000000">/Framework/Core/src/runDataProcessing.cxx</text>
</a>
</g>
</g>
<!-- Node12&#45;&gt;Node16 -->
<g id="edge35" class="edge">
<title>Node12&#45;&gt;Node16</title>
<path fill="none" stroke="#191970" d="M699.4724,-366.8489C565.6451,-344.3646 346.452,-298.1057 303.5,-231 290.8014,-211.1604 291.2821,-198.1392 303.5,-178 315.0136,-159.0217 334.3787,-145.5381 354.2298,-136.0788"/>
<polygon fill="#191970" stroke="#191970" points="698.9163,-370.3044 709.355,-368.4922 700.0646,-363.3992 698.9163,-370.3044"/>
</g>
<!-- Node17 -->
<g id="node6" class="node">
<title>Node17</title>
<g id="a_node6"><a xlink:href="../../dd/d49/FrameworkGUIDevicesGraph_8h.html" target="_top" xlink:title="/home/travis/build\l/AliceO2Group/AliceO2\l/Framework/Core/include\l/Framework/FrameworkGUIDevicesGraph.h">
<polygon fill="none" stroke="#000000" points="911.5,-267.5 911.5,-319.5 1137.5,-319.5 1137.5,-267.5 911.5,-267.5"/>
<text text-anchor="start" x="919.5" y="-307.5" font-family="Helvetica,sans-Serif" font-size="10.00" fill="#000000">/home/travis/build</text>
<text text-anchor="start" x="919.5" y="-296.5" font-family="Helvetica,sans-Serif" font-size="10.00" fill="#000000">/AliceO2Group/AliceO2</text>
<text text-anchor="start" x="919.5" y="-285.5" font-family="Helvetica,sans-Serif" font-size="10.00" fill="#000000">/Framework/Core/include</text>
<text text-anchor="middle" x="1024.5" y="-274.5" font-family="Helvetica,sans-Serif" font-size="10.00" fill="#000000">/Framework/FrameworkGUIDevicesGraph.h</text>
</a>
</g>
</g>
<!-- Node12&#45;&gt;Node17 -->
<g id="edge5" class="edge">
<title>Node12&#45;&gt;Node17</title>
<path fill="none" stroke="#191970" d="M878.5892,-352.5276C904.9764,-341.8527 934.4604,-329.9251 959.9804,-319.6011"/>
<polygon fill="#191970" stroke="#191970" points="876.9783,-349.4036 869.0208,-356.3984 879.6035,-355.8927 876.9783,-349.4036"/>
</g>
<!-- Node19 -->
<g id="node8" class="node">
<title>Node19</title>
<g id="a_node8"><a xlink:href="../../d9/da0/WorkflowHelpers_8h.html" target="_top" xlink:title="/home/travis/build\l/AliceO2Group/AliceO2\l/Framework/Core/src/Workflow\lHelpers.h">
<polygon fill="none" stroke="#000000" points="1505.5,-267.5 1505.5,-319.5 1669.5,-319.5 1669.5,-267.5 1505.5,-267.5"/>
<text text-anchor="start" x="1513.5" y="-307.5" font-family="Helvetica,sans-Serif" font-size="10.00" fill="#000000">/home/travis/build</text>
<text text-anchor="start" x="1513.5" y="-296.5" font-family="Helvetica,sans-Serif" font-size="10.00" fill="#000000">/AliceO2Group/AliceO2</text>
<text text-anchor="start" x="1513.5" y="-285.5" font-family="Helvetica,sans-Serif" font-size="10.00" fill="#000000">/Framework/Core/src/Workflow</text>
<text text-anchor="middle" x="1587.5" y="-274.5" font-family="Helvetica,sans-Serif" font-size="10.00" fill="#000000">Helpers.h</text>
</a>
</g>
</g>
<!-- Node12&#45;&gt;Node19 -->
<g id="edge8" class="edge">
<title>Node12&#45;&gt;Node19</title>
<path fill="none" stroke="#191970" d="M909.9273,-370.5166C1067.8131,-352.5704 1362.3782,-319.0886 1505.3874,-302.8334"/>
<polygon fill="#191970" stroke="#191970" points="909.2691,-367.0688 899.7284,-371.6758 910.0597,-374.024 909.2691,-367.0688"/>
</g>
<!-- Node21 -->
<g id="node10" class="node">
<title>Node21</title>
<g id="a_node10"><a xlink:href="../../df/dda/DeviceSpecHelpers_8h.html" target="_top" xlink:title="/home/travis/build\l/AliceO2Group/AliceO2\l/Framework/Core/src/DeviceSpec\lHelpers.h">
<polygon fill="none" stroke="#000000" points="1216.5,-178.5 1216.5,-230.5 1392.5,-230.5 1392.5,-178.5 1216.5,-178.5"/>
<text text-anchor="start" x="1224.5" y="-218.5" font-family="Helvetica,sans-Serif" font-size="10.00" fill="#000000">/home/travis/build</text>
<text text-anchor="start" x="1224.5" y="-207.5" font-family="Helvetica,sans-Serif" font-size="10.00" fill="#000000">/AliceO2Group/AliceO2</text>
<text text-anchor="start" x="1224.5" y="-196.5" font-family="Helvetica,sans-Serif" font-size="10.00" fill="#000000">/Framework/Core/src/DeviceSpec</text>
<text text-anchor="middle" x="1304.5" y="-185.5" font-family="Helvetica,sans-Serif" font-size="10.00" fill="#000000">Helpers.h</text>
</a>
</g>
</g>
<!-- Node12&#45;&gt;Node21 -->
<g id="edge24" class="edge">
<title>Node12&#45;&gt;Node21</title>
<path fill="none" stroke="#191970" d="M909.6882,-375.5556C979.1984,-368.0455 1071.0531,-352.433 1146.5,-320 1197.2262,-298.1939 1247.2165,-257.5332 1276.9661,-230.7407"/>
<polygon fill="#191970" stroke="#191970" points="909.1831,-372.0891 899.5993,-376.6059 909.908,-379.0515 909.1831,-372.0891"/>
</g>
<!-- Node31 -->
<g id="node20" class="node">
<title>Node31</title>
<g id="a_node20"><a xlink:href="../../de/da9/DriverInfo_8h.html" target="_top" xlink:title="/home/travis/build\l/AliceO2Group/AliceO2\l/Framework/Core/src/DriverInfo.h">
<polygon fill="none" stroke="#000000" points="716,-273 716,-314 893,-314 893,-273 716,-273"/>
<text text-anchor="start" x="724" y="-302" font-family="Helvetica,sans-Serif" font-size="10.00" fill="#000000">/home/travis/build</text>
<text text-anchor="start" x="724" y="-291" font-family="Helvetica,sans-Serif" font-size="10.00" fill="#000000">/AliceO2Group/AliceO2</text>
<text text-anchor="middle" x="804.5" y="-280" font-family="Helvetica,sans-Serif" font-size="10.00" fill="#000000">/Framework/Core/src/DriverInfo.h</text>
</a>
</g>
</g>
<!-- Node12&#45;&gt;Node31 -->
<g id="edge25" class="edge">
<title>Node12&#45;&gt;Node31</title>
<path fill="none" stroke="#191970" d="M804.5,-346.1335C804.5,-335.2443 804.5,-323.6825 804.5,-314.1771"/>
<polygon fill="#191970" stroke="#191970" points="801.0001,-346.2784 804.5,-356.2784 808.0001,-346.2785 801.0001,-346.2784"/>
</g>
<!-- Node35 -->
<g id="node24" class="node">
<title>Node35</title>
<g id="a_node24"><a xlink:href="../../d4/d72/FrameworkGUIDeviceInspector_8cxx.html" target="_top" xlink:title="/home/travis/build\l/AliceO2Group/AliceO2\l/Framework/Core/src/Framework\lGUIDeviceInspector.cxx">
<polygon fill="none" stroke="#000000" points="1688,-267.5 1688,-319.5 1861,-319.5 1861,-267.5 1688,-267.5"/>
<text text-anchor="start" x="1696" y="-307.5" font-family="Helvetica,sans-Serif" font-size="10.00" fill="#000000">/home/travis/build</text>
<text text-anchor="start" x="1696" y="-296.5" font-family="Helvetica,sans-Serif" font-size="10.00" fill="#000000">/AliceO2Group/AliceO2</text>
<text text-anchor="start" x="1696" y="-285.5" font-family="Helvetica,sans-Serif" font-size="10.00" fill="#000000">/Framework/Core/src/Framework</text>
<text text-anchor="middle" x="1774.5" y="-274.5" font-family="Helvetica,sans-Serif" font-size="10.00" fill="#000000">GUIDeviceInspector.cxx</text>
</a>
</g>
</g>
<!-- Node12&#45;&gt;Node35 -->
<g id="edge34" class="edge">
<title>Node12&#45;&gt;Node35</title>
<path fill="none" stroke="#191970" d="M909.7568,-377.5881C1108.8326,-367.865 1533.5353,-344.9381 1678.5,-320 1681.5671,-319.4724 1684.6776,-318.8879 1687.8101,-318.2572"/>
<polygon fill="#191970" stroke="#191970" points="909.3982,-374.1013 899.5801,-378.0832 909.7384,-381.093 909.3982,-374.1013"/>
</g>
<!-- Node36 -->
<g id="node25" class="node">
<title>Node36</title>
<g id="a_node25"><a xlink:href="../../d3/d50/WorkflowSerializationHelpers_8h.html" target="_top" xlink:title="/home/travis/build\l/AliceO2Group/AliceO2\l/Framework/Core/src/Workflow\lSerializationHelpers.h">
<polygon fill="none" stroke="#000000" points="505.5,-267.5 505.5,-319.5 669.5,-319.5 669.5,-267.5 505.5,-267.5"/>
<text text-anchor="start" x="513.5" y="-307.5" font-family="Helvetica,sans-Serif" font-size="10.00" fill="#000000">/home/travis/build</text>
<text text-anchor="start" x="513.5" y="-296.5" font-family="Helvetica,sans-Serif" font-size="10.00" fill="#000000">/AliceO2Group/AliceO2</text>
<text text-anchor="start" x="513.5" y="-285.5" font-family="Helvetica,sans-Serif" font-size="10.00" fill="#000000">/Framework/Core/src/Workflow</text>
<text text-anchor="middle" x="587.5" y="-274.5" font-family="Helvetica,sans-Serif" font-size="10.00" fill="#000000">SerializationHelpers.h</text>
</a>
</g>
</g>
<!-- Node12&#45;&gt;Node36 -->
<g id="edge36" class="edge">
<title>Node12&#45;&gt;Node36</title>
<path fill="none" stroke="#191970" d="M731.4211,-352.5276C705.3937,-341.8527 676.3118,-329.9251 651.1398,-319.6011"/>
<polygon fill="#191970" stroke="#191970" points="730.2789,-355.842 740.8591,-356.3984 732.9351,-349.3655 730.2789,-355.842"/>
</g>
<!-- Node13&#45;&gt;Node14 -->
<g id="edge2" class="edge">
<title>Node13&#45;&gt;Node14</title>
<path fill="none" stroke="#191970" d="M164.15,-261.1463C150.3493,-251.0786 135.3173,-240.1126 122.1873,-230.5341"/>
<polygon fill="#191970" stroke="#191970" points="162.4143,-264.2124 172.5558,-267.2784 166.5398,-258.5573 162.4143,-264.2124"/>
</g>
<!-- Node15 -->
<g id="node4" class="node">
<title>Node15</title>
<g id="a_node4"><a xlink:href="../../d3/d29/FrameworkGUIDebugger_8cxx.html" target="_top" xlink:title="/home/travis/build\l/AliceO2Group/AliceO2\l/Framework/Core/src/Framework\lGUIDebugger.cxx">
<polygon fill="none" stroke="#000000" points="680,-.5 680,-52.5 853,-52.5 853,-.5 680,-.5"/>
<text text-anchor="start" x="688" y="-40.5" font-family="Helvetica,sans-Serif" font-size="10.00" fill="#000000">/home/travis/build</text>
<text text-anchor="start" x="688" y="-29.5" font-family="Helvetica,sans-Serif" font-size="10.00" fill="#000000">/AliceO2Group/AliceO2</text>
<text text-anchor="start" x="688" y="-18.5" font-family="Helvetica,sans-Serif" font-size="10.00" fill="#000000">/Framework/Core/src/Framework</text>
<text text-anchor="middle" x="766.5" y="-7.5" font-family="Helvetica,sans-Serif" font-size="10.00" fill="#000000">GUIDebugger.cxx</text>
</a>
</g>
</g>
<!-- Node13&#45;&gt;Node15 -->
<g id="edge3" class="edge">
<title>Node13&#45;&gt;Node15</title>
<path fill="none" stroke="#191970" d="M210.6578,-257.0169C213.1078,-233.6052 218.3378,-203.0175 229.5,-178 249.8936,-132.2924 255.1156,-113.9577 298.5,-89 361.6485,-52.6726 562.7284,-36.6607 679.7542,-30.2662"/>
<polygon fill="#191970" stroke="#191970" points="207.1497,-256.9437 209.7164,-267.2229 214.1202,-257.5867 207.1497,-256.9437"/>
</g>
<!-- Node13&#45;&gt;Node16 -->
<g id="edge4" class="edge">
<title>Node13&#45;&gt;Node16</title>
<path fill="none" stroke="#191970" d="M220.3033,-257.6496C230.2073,-232.4446 246.6093,-199.5086 270.5,-178 291.3979,-159.1857 318.7173,-145.617 344.4793,-136.0349"/>
<polygon fill="#191970" stroke="#191970" points="216.9432,-256.6415 216.7004,-267.2335 223.4955,-259.1047 216.9432,-256.6415"/>
</g>
<!-- Node17&#45;&gt;Node15 -->
<g id="edge6" class="edge">
<title>Node17&#45;&gt;Node15</title>
<path fill="none" stroke="#191970" d="M1018.1827,-257.0881C1008.2633,-201.6587 988.9842,-101.22 977.5,-89 960.0356,-70.4165 903.4054,-54.2184 853.2075,-42.9715"/>
<polygon fill="#191970" stroke="#191970" points="1014.7852,-257.9745 1019.9794,-267.2087 1021.6775,-256.7509 1014.7852,-257.9745"/>
</g>
<!-- Node18 -->
<g id="node7" class="node">
<title>Node18</title>
<g id="a_node7"><a xlink:href="../../d7/d5a/FrameworkGUIDevicesGraph_8cxx.html" target="_top" xlink:title="/home/travis/build\l/AliceO2Group/AliceO2\l/Framework/Core/src/Framework\lGUIDevicesGraph.cxx">
<polygon fill="none" stroke="#000000" points="1025,-178.5 1025,-230.5 1198,-230.5 1198,-178.5 1025,-178.5"/>
<text text-anchor="start" x="1033" y="-218.5" font-family="Helvetica,sans-Serif" font-size="10.00" fill="#000000">/home/travis/build</text>
<text text-anchor="start" x="1033" y="-207.5" font-family="Helvetica,sans-Serif" font-size="10.00" fill="#000000">/AliceO2Group/AliceO2</text>
<text text-anchor="start" x="1033" y="-196.5" font-family="Helvetica,sans-Serif" font-size="10.00" fill="#000000">/Framework/Core/src/Framework</text>
<text text-anchor="middle" x="1111.5" y="-185.5" font-family="Helvetica,sans-Serif" font-size="10.00" fill="#000000">GUIDevicesGraph.cxx</text>
</a>
</g>
</g>
<!-- Node17&#45;&gt;Node18 -->
<g id="edge7" class="edge">
<title>Node17&#45;&gt;Node18</title>
<path fill="none" stroke="#191970" d="M1057.2444,-260.0029C1066.7752,-250.2529 1077.041,-239.7511 1086.0509,-230.5341"/>
<polygon fill="#191970" stroke="#191970" points="1054.6198,-257.6808 1050.1323,-267.2784 1059.6255,-262.5741 1054.6198,-257.6808"/>
</g>
<!-- Node19&#45;&gt;Node18 -->
<g id="edge19" class="edge">
<title>Node19&#45;&gt;Node18</title>
<path fill="none" stroke="#191970" d="M1495.2944,-281.136C1418.0157,-270.1051 1304.9946,-252.4104 1207.5,-231 1204.3758,-230.3139 1201.2018,-229.5886 1198.0015,-228.8333"/>
<polygon fill="#191970" stroke="#191970" points="1495.0901,-284.642 1505.4826,-282.5813 1496.0733,-277.7114 1495.0901,-284.642"/>
</g>
<!-- Node20 -->
<g id="node9" class="node">
<title>Node20</title>
<g id="a_node9"><a xlink:href="../../d8/d84/DeviceSpec_8cxx.html" target="_top" xlink:title="/home/travis/build\l/AliceO2Group/AliceO2\l/Framework/Core/src/DeviceSpec.cxx">
<polygon fill="none" stroke="#000000" points="1951,-184 1951,-225 2148,-225 2148,-184 1951,-184"/>
<text text-anchor="start" x="1959" y="-213" font-family="Helvetica,sans-Serif" font-size="10.00" fill="#000000">/home/travis/build</text>
<text text-anchor="start" x="1959" y="-202" font-family="Helvetica,sans-Serif" font-size="10.00" fill="#000000">/AliceO2Group/AliceO2</text>
<text text-anchor="middle" x="2049.5" y="-191" font-family="Helvetica,sans-Serif" font-size="10.00" fill="#000000">/Framework/Core/src/DeviceSpec.cxx</text>
</a>
</g>
</g>
<!-- Node19&#45;&gt;Node20 -->
<g id="edge9" class="edge">
<title>Node19&#45;&gt;Node20</title>
<path fill="none" stroke="#191970" d="M1679.6857,-266.8788C1795.6915,-242.998 1828.7761,-252.4835 1941.5,-231 1950.6979,-229.247 1960.2871,-227.2071 1969.7891,-225.0519"/>
<polygon fill="#191970" stroke="#191970" points="1678.7701,-263.4946 1669.7018,-268.9734 1680.2074,-270.3454 1678.7701,-263.4946"/>
</g>
<!-- Node19&#45;&gt;Node21 -->
<g id="edge10" class="edge">
<title>Node19&#45;&gt;Node21</title>
<path fill="none" stroke="#191970" d="M1495.5755,-264.5909C1460.7631,-253.6428 1421.3679,-241.2535 1387.4309,-230.5807"/>
<polygon fill="#191970" stroke="#191970" points="1494.6751,-267.9767 1505.2645,-267.638 1496.7752,-261.2991 1494.6751,-267.9767"/>
</g>
<!-- Node22 -->
<g id="node11" class="node">
<title>Node22</title>
<g id="a_node11"><a xlink:href="../../d1/dd9/DeviceSpecHelpers_8cxx.html" target="_top" xlink:title="/home/travis/build\l/AliceO2Group/AliceO2\l/Framework/Core/src/DeviceSpec\lHelpers.cxx">
<polygon fill="none" stroke="#000000" points="1831.5,-89.5 1831.5,-141.5 2007.5,-141.5 2007.5,-89.5 1831.5,-89.5"/>
<text text-anchor="start" x="1839.5" y="-129.5" font-family="Helvetica,sans-Serif" font-size="10.00" fill="#000000">/home/travis/build</text>
<text text-anchor="start" x="1839.5" y="-118.5" font-family="Helvetica,sans-Serif" font-size="10.00" fill="#000000">/AliceO2Group/AliceO2</text>
<text text-anchor="start" x="1839.5" y="-107.5" font-family="Helvetica,sans-Serif" font-size="10.00" fill="#000000">/Framework/Core/src/DeviceSpec</text>
<text text-anchor="middle" x="1919.5" y="-96.5" font-family="Helvetica,sans-Serif" font-size="10.00" fill="#000000">Helpers.cxx</text>
</a>
</g>
</g>
<!-- Node19&#45;&gt;Node22 -->
<g id="edge18" class="edge">
<title>Node19&#45;&gt;Node22</title>
<path fill="none" stroke="#191970" d="M1679.5933,-267.3915C1764.6278,-258.4982 2122.797,-268.4091 2157.5,-231 2173.52,-213.7308 2171.8863,-196.652 2157.5,-178 2147.9441,-165.6107 2071.3831,-146.9334 2007.6359,-133.2222"/>
<polygon fill="#191970" stroke="#191970" points="1679.0934,-263.9272 1669.6566,-268.7435 1680.0371,-270.8633 1679.0934,-263.9272"/>
</g>
<!-- Node23 -->
<g id="node12" class="node">
<title>Node23</title>
<g id="a_node12"><a xlink:href="../../d9/d51/test__DeviceSpec_8cxx.html" target="_top" xlink:title="/home/travis/build\l/AliceO2Group/AliceO2\l/Framework/Core/test/test\l_DeviceSpec.cxx">
<polygon fill="none" stroke="#000000" points="2084,-89.5 2084,-141.5 2227,-141.5 2227,-89.5 2084,-89.5"/>
<text text-anchor="start" x="2092" y="-129.5" font-family="Helvetica,sans-Serif" font-size="10.00" fill="#000000">/home/travis/build</text>
<text text-anchor="start" x="2092" y="-118.5" font-family="Helvetica,sans-Serif" font-size="10.00" fill="#000000">/AliceO2Group/AliceO2</text>
<text text-anchor="start" x="2092" y="-107.5" font-family="Helvetica,sans-Serif" font-size="10.00" fill="#000000">/Framework/Core/test/test</text>
<text text-anchor="middle" x="2155.5" y="-96.5" font-family="Helvetica,sans-Serif" font-size="10.00" fill="#000000">_DeviceSpec.cxx</text>
</a>
</g>
</g>
<!-- Node19&#45;&gt;Node23 -->
<g id="edge22" class="edge">
<title>Node19&#45;&gt;Node23</title>
<path fill="none" stroke="#191970" d="M1679.6724,-267.3822C1767.2813,-258.328 2140.3357,-269.873 2176.5,-231 2198.7115,-207.1249 2184.9555,-167.9765 2171.515,-141.9726"/>
<polygon fill="#191970" stroke="#191970" points="1679.0973,-263.9279 1669.6546,-268.7327 1680.0326,-270.8652 1679.0973,-263.9279"/>
</g>
<!-- Node28 -->
<g id="node17" class="node">
<title>Node28</title>
<g id="a_node17"><a xlink:href="../../dc/da7/WorkflowHelpers_8cxx.html" target="_top" xlink:title="/home/travis/build\l/AliceO2Group/AliceO2\l/Framework/Core/src/Workflow\lHelpers.cxx">
<polygon fill="none" stroke="#000000" points="1410.5,-178.5 1410.5,-230.5 1574.5,-230.5 1574.5,-178.5 1410.5,-178.5"/>
<text text-anchor="start" x="1418.5" y="-218.5" font-family="Helvetica,sans-Serif" font-size="10.00" fill="#000000">/home/travis/build</text>
<text text-anchor="start" x="1418.5" y="-207.5" font-family="Helvetica,sans-Serif" font-size="10.00" fill="#000000">/AliceO2Group/AliceO2</text>
<text text-anchor="start" x="1418.5" y="-196.5" font-family="Helvetica,sans-Serif" font-size="10.00" fill="#000000">/Framework/Core/src/Workflow</text>
<text text-anchor="middle" x="1492.5" y="-185.5" font-family="Helvetica,sans-Serif" font-size="10.00" fill="#000000">Helpers.cxx</text>
</a>
</g>
</g>
<!-- Node19&#45;&gt;Node28 -->
<g id="edge20" class="edge">
<title>Node19&#45;&gt;Node28</title>
<path fill="none" stroke="#191970" d="M1552.0505,-260.2894C1541.5573,-250.459 1530.2241,-239.8415 1520.2893,-230.5341"/>
<polygon fill="#191970" stroke="#191970" points="1549.82,-262.9958 1559.5107,-267.2784 1554.6058,-257.8873 1549.82,-262.9958"/>
</g>
<!-- Node29 -->
<g id="node18" class="node">
<title>Node29</title>
<g id="a_node18"><a xlink:href="../../df/d36/benchmark__WorkflowHelpers_8cxx.html" target="_top" xlink:title="/home/travis/build\l/AliceO2Group/AliceO2\l/Framework/Core/test/benchmark\l_WorkflowHelpers.cxx">
<polygon fill="none" stroke="#000000" points="1593,-178.5 1593,-230.5 1772,-230.5 1772,-178.5 1593,-178.5"/>
<text text-anchor="start" x="1601" y="-218.5" font-family="Helvetica,sans-Serif" font-size="10.00" fill="#000000">/home/travis/build</text>
<text text-anchor="start" x="1601" y="-207.5" font-family="Helvetica,sans-Serif" font-size="10.00" fill="#000000">/AliceO2Group/AliceO2</text>
<text text-anchor="start" x="1601" y="-196.5" font-family="Helvetica,sans-Serif" font-size="10.00" fill="#000000">/Framework/Core/test/benchmark</text>
<text text-anchor="middle" x="1682.5" y="-185.5" font-family="Helvetica,sans-Serif" font-size="10.00" fill="#000000">_WorkflowHelpers.cxx</text>
</a>
</g>
</g>
<!-- Node19&#45;&gt;Node29 -->
<g id="edge21" class="edge">
<title>Node19&#45;&gt;Node29</title>
<path fill="none" stroke="#191970" d="M1622.9495,-260.2894C1633.4427,-250.459 1644.7759,-239.8415 1654.7107,-230.5341"/>
<polygon fill="#191970" stroke="#191970" points="1620.3942,-257.8873 1615.4893,-267.2784 1625.18,-262.9958 1620.3942,-257.8873"/>
</g>
<!-- Node30 -->
<g id="node19" class="node">
<title>Node30</title>
<g id="a_node19"><a xlink:href="../../de/dc3/test__WorkflowHelpers_8cxx.html" target="_top" xlink:title="/home/travis/build\l/AliceO2Group/AliceO2\l/Framework/Core/test/test\l_WorkflowHelpers.cxx">
<polygon fill="none" stroke="#000000" points="1790,-178.5 1790,-230.5 1933,-230.5 1933,-178.5 1790,-178.5"/>
<text text-anchor="start" x="1798" y="-218.5" font-family="Helvetica,sans-Serif" font-size="10.00" fill="#000000">/home/travis/build</text>
<text text-anchor="start" x="1798" y="-207.5" font-family="Helvetica,sans-Serif" font-size="10.00" fill="#000000">/AliceO2Group/AliceO2</text>
<text text-anchor="start" x="1798" y="-196.5" font-family="Helvetica,sans-Serif" font-size="10.00" fill="#000000">/Framework/Core/test/test</text>
<text text-anchor="middle" x="1861.5" y="-185.5" font-family="Helvetica,sans-Serif" font-size="10.00" fill="#000000">_WorkflowHelpers.cxx</text>
</a>
</g>
</g>
<!-- Node19&#45;&gt;Node30 -->
<g id="edge23" class="edge">
<title>Node19&#45;&gt;Node30</title>
<path fill="none" stroke="#191970" d="M1678.1538,-264.2053C1710.4637,-253.7479 1747.1141,-241.867 1780.5,-231 1783.5953,-229.9925 1786.7567,-228.9625 1789.9502,-227.9212"/>
<polygon fill="#191970" stroke="#191970" points="1676.711,-260.9934 1668.2743,-267.4023 1678.8662,-267.6534 1676.711,-260.9934"/>
</g>
<!-- Node21&#45;&gt;Node16 -->
<g id="edge12" class="edge">
<title>Node21&#45;&gt;Node16</title>
<path fill="none" stroke="#191970" d="M1206.2701,-178.1413C915.0968,-132.5574 834.987,-180.3336 547.5,-142 535.7168,-140.4288 523.3873,-138.3414 511.2662,-136.0254"/>
<polygon fill="#191970" stroke="#191970" points="1205.8485,-181.6182 1216.2739,-179.731 1206.9471,-174.7049 1205.8485,-181.6182"/>
</g>
<!-- Node21&#45;&gt;Node22 -->
<g id="edge11" class="edge">
<title>Node21&#45;&gt;Node22</title>
<path fill="none" stroke="#191970" d="M1402.4947,-177.9176C1536.7612,-152.2858 1573.5977,-157.9767 1705.5,-142 1746.846,-136.9919 1792.6707,-131.332 1831.2732,-126.5326"/>
<polygon fill="#191970" stroke="#191970" points="1401.8112,-174.4849 1392.6565,-179.818 1403.1388,-181.3578 1401.8112,-174.4849"/>
</g>
<!-- Node21&#45;&gt;Node23 -->
<g id="edge13" class="edge">
<title>Node21&#45;&gt;Node23</title>
<path fill="none" stroke="#191970" d="M1402.7445,-177.9489C1673.5047,-134.6963 1748.0986,-175.2976 2016.5,-142 2038.5636,-139.2628 2062.3989,-135.1491 2083.9958,-130.9742"/>
<polygon fill="#191970" stroke="#191970" points="1401.9267,-174.5357 1392.6158,-179.5911 1403.0471,-181.4455 1401.9267,-174.5357"/>
</g>
<!-- Node24 -->
<g id="node13" class="node">
<title>Node24</title>
<g id="a_node13"><a xlink:href="../../d4/de8/test__DeviceSpecHelpers_8cxx.html" target="_top" xlink:title="/home/travis/build\l/AliceO2Group/AliceO2\l/Framework/Core/test/test\l_DeviceSpecHelpers.cxx">
<polygon fill="none" stroke="#000000" points="1554,-89.5 1554,-141.5 1697,-141.5 1697,-89.5 1554,-89.5"/>
<text text-anchor="start" x="1562" y="-129.5" font-family="Helvetica,sans-Serif" font-size="10.00" fill="#000000">/home/travis/build</text>
<text text-anchor="start" x="1562" y="-118.5" font-family="Helvetica,sans-Serif" font-size="10.00" fill="#000000">/AliceO2Group/AliceO2</text>
<text text-anchor="start" x="1562" y="-107.5" font-family="Helvetica,sans-Serif" font-size="10.00" fill="#000000">/Framework/Core/test/test</text>
<text text-anchor="middle" x="1625.5" y="-96.5" font-family="Helvetica,sans-Serif" font-size="10.00" fill="#000000">_DeviceSpecHelpers.cxx</text>
</a>
</g>
</g>
<!-- Node21&#45;&gt;Node24 -->
<g id="edge14" class="edge">
<title>Node21&#45;&gt;Node24</title>
<path fill="none" stroke="#191970" d="M1402.3299,-177.8146C1466.5543,-161.2168 1484.4905,-159.3472 1544.5,-142 1547.4849,-141.1371 1550.5252,-140.2375 1553.5917,-139.313"/>
<polygon fill="#191970" stroke="#191970" points="1401.3021,-174.4654 1392.5078,-180.3739 1403.0672,-181.2393 1401.3021,-174.4654"/>
</g>
<!-- Node25 -->
<g id="node14" class="node">
<title>Node25</title>
<g id="a_node14"><a xlink:href="../../d6/d53/test__FrameworkDataFlowToDDS_8cxx.html" target="_top" xlink:title="/home/travis/build\l/AliceO2Group/AliceO2\l/Framework/Core/test/test\l_FrameworkDataFlowToDDS.cxx">
<polygon fill="none" stroke="#000000" points="1033,-89.5 1033,-141.5 1206,-141.5 1206,-89.5 1033,-89.5"/>
<text text-anchor="start" x="1041" y="-129.5" font-family="Helvetica,sans-Serif" font-size="10.00" fill="#000000">/home/travis/build</text>
<text text-anchor="start" x="1041" y="-118.5" font-family="Helvetica,sans-Serif" font-size="10.00" fill="#000000">/AliceO2Group/AliceO2</text>
<text text-anchor="start" x="1041" y="-107.5" font-family="Helvetica,sans-Serif" font-size="10.00" fill="#000000">/Framework/Core/test/test</text>
<text text-anchor="middle" x="1119.5" y="-96.5" font-family="Helvetica,sans-Serif" font-size="10.00" fill="#000000">_FrameworkDataFlowToDDS.cxx</text>
</a>
</g>
</g>
<!-- Node21&#45;&gt;Node25 -->
<g id="edge15" class="edge">
<title>Node21&#45;&gt;Node25</title>
<path fill="none" stroke="#191970" d="M1240.7829,-173.8469C1218.9104,-163.3245 1194.6532,-151.6548 1173.6159,-141.5341"/>
<polygon fill="#191970" stroke="#191970" points="1239.4657,-177.0972 1249.9945,-178.2784 1242.5004,-170.7891 1239.4657,-177.0972"/>
</g>
<!-- Node26 -->
<g id="node15" class="node">
<title>Node26</title>
<g id="a_node15"><a xlink:href="../../d4/dc4/test__Graphviz_8cxx.html" target="_top" xlink:title="/home/travis/build\l/AliceO2Group/AliceO2\l/Framework/Core/test/test\l_Graphviz.cxx">
<polygon fill="none" stroke="#000000" points="1224,-89.5 1224,-141.5 1367,-141.5 1367,-89.5 1224,-89.5"/>
<text text-anchor="start" x="1232" y="-129.5" font-family="Helvetica,sans-Serif" font-size="10.00" fill="#000000">/home/travis/build</text>
<text text-anchor="start" x="1232" y="-118.5" font-family="Helvetica,sans-Serif" font-size="10.00" fill="#000000">/AliceO2Group/AliceO2</text>
<text text-anchor="start" x="1232" y="-107.5" font-family="Helvetica,sans-Serif" font-size="10.00" fill="#000000">/Framework/Core/test/test</text>
<text text-anchor="middle" x="1295.5" y="-96.5" font-family="Helvetica,sans-Serif" font-size="10.00" fill="#000000">_Graphviz.cxx</text>
</a>
</g>
</g>
<!-- Node21&#45;&gt;Node26 -->
<g id="edge16" class="edge">
<title>Node21&#45;&gt;Node26</title>
<path fill="none" stroke="#191970" d="M1300.8207,-168.1155C1299.9197,-159.2061 1298.9733,-149.8475 1298.1327,-141.5341"/>
<polygon fill="#191970" stroke="#191970" points="1297.3599,-168.6813 1301.8484,-178.2784 1304.3244,-167.977 1297.3599,-168.6813"/>
</g>
<!-- Node27 -->
<g id="node16" class="node">
<title>Node27</title>
<g id="a_node16"><a xlink:href="../../dd/d8a/test__TimeParallelPipelining_8cxx.html" target="_top" xlink:title="/home/travis/build\l/AliceO2Group/AliceO2\l/Framework/Core/test/test\l_TimeParallelPipelining.cxx">
<polygon fill="none" stroke="#000000" points="1385,-89.5 1385,-141.5 1536,-141.5 1536,-89.5 1385,-89.5"/>
<text text-anchor="start" x="1393" y="-129.5" font-family="Helvetica,sans-Serif" font-size="10.00" fill="#000000">/home/travis/build</text>
<text text-anchor="start" x="1393" y="-118.5" font-family="Helvetica,sans-Serif" font-size="10.00" fill="#000000">/AliceO2Group/AliceO2</text>
<text text-anchor="start" x="1393" y="-107.5" font-family="Helvetica,sans-Serif" font-size="10.00" fill="#000000">/Framework/Core/test/test</text>
<text text-anchor="middle" x="1460.5" y="-96.5" font-family="Helvetica,sans-Serif" font-size="10.00" fill="#000000">_TimeParallelPipelining.cxx</text>
</a>
</g>
</g>
<!-- Node21&#45;&gt;Node27 -->
<g id="edge17" class="edge">
<title>Node21&#45;&gt;Node27</title>
<path fill="none" stroke="#191970" d="M1359.219,-173.2821C1377.4025,-162.9082 1397.4444,-151.4741 1414.8671,-141.5341"/>
<polygon fill="#191970" stroke="#191970" points="1357.4129,-170.2829 1350.4614,-178.2784 1360.8817,-176.363 1357.4129,-170.2829"/>
</g>
<!-- Node31&#45;&gt;Node16 -->
<g id="edge32" class="edge">
<title>Node31&#45;&gt;Node16</title>
<path fill="none" stroke="#191970" d="M770.0433,-266.348C756.6016,-255.545 741.168,-242.8779 727.5,-231 701.3894,-208.3091 700.8836,-194.5372 670.5,-178 656.3435,-170.2949 578.2432,-151.1044 513.5988,-136.0042"/>
<polygon fill="#191970" stroke="#191970" points="768.1262,-269.2966 778.1216,-272.8099 772.4988,-263.8302 768.1262,-269.2966"/>
</g>
<!-- Node32 -->
<g id="node21" class="node">
<title>Node32</title>
<g id="a_node21"><a xlink:href="../../de/d66/DriverControl_8h.html" target="_top" xlink:title="/home/travis/build\l/AliceO2Group/AliceO2\l/Framework/Core/src/DriverControl.h">
<polygon fill="none" stroke="#000000" points="736.5,-184 736.5,-225 930.5,-225 930.5,-184 736.5,-184"/>
<text text-anchor="start" x="744.5" y="-213" font-family="Helvetica,sans-Serif" font-size="10.00" fill="#000000">/home/travis/build</text>
<text text-anchor="start" x="744.5" y="-202" font-family="Helvetica,sans-Serif" font-size="10.00" fill="#000000">/AliceO2Group/AliceO2</text>
<text text-anchor="middle" x="833.5" y="-191" font-family="Helvetica,sans-Serif" font-size="10.00" fill="#000000">/Framework/Core/src/DriverControl.h</text>
</a>
</g>
</g>
<!-- Node31&#45;&gt;Node32 -->
<g id="edge26" class="edge">
<title>Node31&#45;&gt;Node32</title>
<path fill="none" stroke="#191970" d="M814.3671,-263.2183C818.4674,-250.6346 823.1199,-236.356 826.8104,-225.0301"/>
<polygon fill="#191970" stroke="#191970" points="810.9965,-262.2656 811.2261,-272.8579 817.652,-264.4343 810.9965,-262.2656"/>
</g>
<!-- Node34 -->
<g id="node23" class="node">
<title>Node34</title>
<g id="a_node23"><a xlink:href="../../d6/d76/DriverInfo_8cxx.html" target="_top" xlink:title="/home/travis/build\l/AliceO2Group/AliceO2\l/Framework/Core/src/DriverInfo.cxx">
<polygon fill="none" stroke="#000000" points="780.5,-95 780.5,-136 968.5,-136 968.5,-95 780.5,-95"/>
<text text-anchor="start" x="788.5" y="-124" font-family="Helvetica,sans-Serif" font-size="10.00" fill="#000000">/home/travis/build</text>
<text text-anchor="start" x="788.5" y="-113" font-family="Helvetica,sans-Serif" font-size="10.00" fill="#000000">/AliceO2Group/AliceO2</text>
<text text-anchor="middle" x="874.5" y="-102" font-family="Helvetica,sans-Serif" font-size="10.00" fill="#000000">/Framework/Core/src/DriverInfo.cxx</text>
</a>
</g>
</g>
<!-- Node31&#45;&gt;Node34 -->
<g id="edge30" class="edge">
<title>Node31&#45;&gt;Node34</title>
<path fill="none" stroke="#191970" d="M895.6347,-268.5591C913.0096,-259.563 929.0192,-247.4017 939.5,-231 952.1837,-211.1509 948.7272,-199.6731 939.5,-178 932.3864,-161.2913 918.3735,-146.8923 905.1745,-136.1404"/>
<polygon fill="#191970" stroke="#191970" points="893.9397,-265.4905 886.4464,-272.9806 896.975,-271.7982 893.9397,-265.4905"/>
</g>
<!-- Node32&#45;&gt;Node16 -->
<g id="edge29" class="edge">
<title>Node32&#45;&gt;Node16</title>
<path fill="none" stroke="#191970" d="M738.7797,-181.6759C733.2756,-180.4152 727.8187,-179.1817 722.5,-178 644.9836,-160.7783 625.2159,-158.2977 547.5,-142 538.3433,-140.0798 528.8093,-138.0667 519.2757,-136.0446"/>
<polygon fill="#191970" stroke="#191970" points="738.1872,-185.1311 748.7182,-183.9692 739.7611,-178.3104 738.1872,-185.1311"/>
</g>
<!-- Node33 -->
<g id="node22" class="node">
<title>Node33</title>
<g id="a_node22"><a xlink:href="../../d5/d3a/DriverControl_8cxx.html" target="_top" xlink:title="/home/travis/build\l/AliceO2Group/AliceO2\l/Framework/Core/src/DriverControl.cxx">
<polygon fill="none" stroke="#000000" points="557,-95 557,-136 762,-136 762,-95 557,-95"/>
<text text-anchor="start" x="565" y="-124" font-family="Helvetica,sans-Serif" font-size="10.00" fill="#000000">/home/travis/build</text>
<text text-anchor="start" x="565" y="-113" font-family="Helvetica,sans-Serif" font-size="10.00" fill="#000000">/AliceO2Group/AliceO2</text>
<text text-anchor="middle" x="659.5" y="-102" font-family="Helvetica,sans-Serif" font-size="10.00" fill="#000000">/Framework/Core/src/DriverControl.cxx</text>
</a>
</g>
</g>
<!-- Node32&#45;&gt;Node33 -->
<g id="edge27" class="edge">
<title>Node32&#45;&gt;Node33</title>
<path fill="none" stroke="#191970" d="M783.9632,-179.1622C757.2615,-165.5044 724.74,-148.8699 699.6376,-136.0301"/>
<polygon fill="#191970" stroke="#191970" points="782.6467,-182.4201 793.1436,-183.8579 785.8344,-176.188 782.6467,-182.4201"/>
</g>
<!-- Node33&#45;&gt;Node15 -->
<g id="edge28" class="edge">
<title>Node33&#45;&gt;Node15</title>
<path fill="none" stroke="#191970" d="M692.0456,-88.4294C705.6499,-77.1136 721.4012,-64.012 734.903,-52.7816"/>
<polygon fill="#191970" stroke="#191970" points="689.7668,-85.7723 684.3169,-94.8579 694.2432,-91.1539 689.7668,-85.7723"/>
</g>
<!-- Node34&#45;&gt;Node15 -->
<g id="edge31" class="edge">
<title>Node34&#45;&gt;Node15</title>
<path fill="none" stroke="#191970" d="M841.6502,-88.4294C827.9188,-77.1136 812.0202,-64.012 798.3923,-52.7816"/>
<polygon fill="#191970" stroke="#191970" points="839.508,-91.1993 849.4512,-94.8579 843.9598,-85.7973 839.508,-91.1993"/>
</g>
<!-- Node36&#45;&gt;Node16 -->
<g id="edge37" class="edge">
<title>Node36&#45;&gt;Node16</title>
<path fill="none" stroke="#191970" d="M631.1987,-260.3191C639.4568,-251.7521 646.9308,-241.8486 651.5,-231 660.6432,-209.2913 665.7859,-196.729 651.5,-178 642.9434,-166.7821 577.8035,-149.5843 519.3317,-136.0665"/>
<polygon fill="#191970" stroke="#191970" points="628.5399,-258.0218 623.793,-267.4938 633.4106,-263.0494 628.5399,-258.0218"/>
</g>
<!-- Node37 -->
<g id="node26" class="node">
<title>Node37</title>
<g id="a_node26"><a xlink:href="../../d0/d54/WorkflowSerializationHelpers_8cxx.html" target="_top" xlink:title="/home/travis/build\l/AliceO2Group/AliceO2\l/Framework/Core/src/Workflow\lSerializationHelpers.cxx">
<polygon fill="none" stroke="#000000" points="478.5,-178.5 478.5,-230.5 642.5,-230.5 642.5,-178.5 478.5,-178.5"/>
<text text-anchor="start" x="486.5" y="-218.5" font-family="Helvetica,sans-Serif" font-size="10.00" fill="#000000">/home/travis/build</text>
<text text-anchor="start" x="486.5" y="-207.5" font-family="Helvetica,sans-Serif" font-size="10.00" fill="#000000">/AliceO2Group/AliceO2</text>
<text text-anchor="start" x="486.5" y="-196.5" font-family="Helvetica,sans-Serif" font-size="10.00" fill="#000000">/Framework/Core/src/Workflow</text>
<text text-anchor="middle" x="560.5" y="-185.5" font-family="Helvetica,sans-Serif" font-size="10.00" fill="#000000">SerializationHelpers.cxx</text>
</a>
</g>
</g>
<!-- Node36&#45;&gt;Node37 -->
<g id="edge38" class="edge">
<title>Node36&#45;&gt;Node37</title>
<path fill="none" stroke="#191970" d="M576.6381,-257.6959C573.8828,-248.6135 570.9749,-239.0282 568.398,-230.5341"/>
<polygon fill="#191970" stroke="#191970" points="573.2927,-258.7252 579.5451,-267.2784 579.9913,-256.693 573.2927,-258.7252"/>
</g>
<!-- Node38 -->
<g id="node27" class="node">
<title>Node38</title>
<g id="a_node27"><a xlink:href="../../da/d5e/test__WorkflowSerialization_8cxx.html" target="_top" xlink:title="/home/travis/build\l/AliceO2Group/AliceO2\l/Framework/Core/test/test\l_WorkflowSerialization.cxx">
<polygon fill="none" stroke="#000000" points="312.5,-178.5 312.5,-230.5 460.5,-230.5 460.5,-178.5 312.5,-178.5"/>
<text text-anchor="start" x="320.5" y="-218.5" font-family="Helvetica,sans-Serif" font-size="10.00" fill="#000000">/home/travis/build</text>
<text text-anchor="start" x="320.5" y="-207.5" font-family="Helvetica,sans-Serif" font-size="10.00" fill="#000000">/AliceO2Group/AliceO2</text>
<text text-anchor="start" x="320.5" y="-196.5" font-family="Helvetica,sans-Serif" font-size="10.00" fill="#000000">/Framework/Core/test/test</text>
<text text-anchor="middle" x="386.5" y="-185.5" font-family="Helvetica,sans-Serif" font-size="10.00" fill="#000000">_WorkflowSerialization.cxx</text>
</a>
</g>
</g>
<!-- Node36&#45;&gt;Node38 -->
<g id="edge39" class="edge">
<title>Node36&#45;&gt;Node38</title>
<path fill="none" stroke="#191970" d="M519.1744,-263.2464C495.2288,-252.6436 468.5589,-240.8346 445.4475,-230.6011"/>
<polygon fill="#191970" stroke="#191970" points="517.9907,-266.55 528.5515,-267.3984 520.8248,-260.1493 517.9907,-266.55"/>
</g>
</g>
</svg>
        <g id="navigator" transform="translate(0 0)" fill="#404254">
                <rect fill="#f2f5e9" fill-opacity="0.5" stroke="#606060" stroke-width=".5" x="0" y="0" width="60" height="60"/>
                <use id="zoomplus" xlink:href="#zoomPlus" x="17" y="9" onmousedown="handleZoom(evt,'in')"/>
                <use id="zoomminus" xlink:href="#zoomMin" x="42" y="9" onmousedown="handleZoom(evt,'out')"/>
                <use id="reset" xlink:href="#resetDef" x="30" y="36" onmousedown="handleReset()"/>
                <g id="arrowUp" xlink:href="#dirArrow" transform="translate(30 24)" onmousedown="handlePan(0,-1)">
                  <use xlink:href="#rim" fill="#404040">
                        <set attributeName="fill" to="#808080" begin="arrowUp.mouseover" end="arrowUp.mouseout"/>
                  </use>
                  <path fill="none" stroke="white" stroke-width="1.5" d="M0,-3.0v7 M-2.5,-0.5L0,-3.0L2.5,-0.5"/>
                </g>
                <g id="arrowRight" xlink:href="#dirArrow" transform="rotate(90) translate(36 -43)" onmousedown="handlePan(1,0)">
                  <use xlink:href="#rim" fill="#404040">
                        <set attributeName="fill" to="#808080" begin="arrowRight.mouseover" end="arrowRight.mouseout"/>
                  </use>
                  <path fill="none" stroke="white" stroke-width="1.5" d="M0,-3.0v7 M-2.5,-0.5L0,-3.0L2.5,-0.5"/>
                </g>
                <g id="arrowDown" xlink:href="#dirArrow" transform="rotate(180) translate(-30 -48)" onmousedown="handlePan(0,1)">
                  <use xlink:href="#rim" fill="#404040">
                        <set attributeName="fill" to="#808080" begin="arrowDown.mouseover" end="arrowDown.mouseout"/>
                  </use>
                  <path fill="none" stroke="white" stroke-width="1.5" d="M0,-3.0v7 M-2.5,-0.5L0,-3.0L2.5,-0.5"/>
                </g>
                <g id="arrowLeft" xlink:href="#dirArrow" transform="rotate(270) translate(-36 17)" onmousedown="handlePan(-1,0)">
                  <use xlink:href="#rim" fill="#404040">
                        <set attributeName="fill" to="#808080" begin="arrowLeft.mouseover" end="arrowLeft.mouseout"/>
                  </use>
                  <path fill="none" stroke="white" stroke-width="1.5" d="M0,-3.0v7 M-2.5,-0.5L0,-3.0L2.5,-0.5"/>
                </g>
        </g>
        <svg viewBox="0 0 15 15" width="100%" height="30px" preserveAspectRatio="xMaxYMin meet">
         <g id="arrow_out" transform="scale(0.3 0.3)">
          <a xlink:href="DataProcessorInfo_8h__dep__incl_org.svg" target="_base">
           <rect id="button" ry="5" rx="5" y="6" x="6" height="38" width="38"
                fill="#f2f5e9" fill-opacity="0.5" stroke="#606060" stroke-width="1.0"/>
           <path id="arrow"
             d="M 11.500037,31.436501 C 11.940474,20.09759 22.043105,11.32322 32.158766,21.979434 L 37.068811,17.246167 C 37.068811,17.246167 37.088388,32 37.088388,32 L 22.160133,31.978069 C 22.160133,31.978069 26.997745,27.140456 26.997745,27.140456 C 18.528582,18.264221 13.291696,25.230495 11.500037,31.436501 z"
             style="fill:#404040;"/>
          </a>
         </g>
        </svg>
</svg>
