<?xml version="1.0" encoding="UTF-8" standalone="no"?>
<!DOCTYPE svg PUBLIC "-//W3C//DTD SVG 1.1//EN"
 "http://www.w3.org/Graphics/SVG/1.1/DTD/svg11.dtd">
<!-- Generated by graphviz version 2.40.1 (20161225.0304)
 -->
<!-- Title: /home/travis/build/AliceO2Group/AliceO2/GPU/GPUTracking/Merger/GPUTPCGMSliceTrack.h Pages: 1 -->
<svg width="1038pt" height="397pt"
 viewBox="0.00 0.00 1037.50 397.00" xmlns="http://www.w3.org/2000/svg" xmlns:xlink="http://www.w3.org/1999/xlink">
<g id="graph0" class="graph" transform="scale(1 1) rotate(0) translate(4 393)">
<title>/home/travis/build/AliceO2Group/AliceO2/GPU/GPUTracking/Merger/GPUTPCGMSliceTrack.h</title>
<!-- Node0 -->
<g id="node1" class="node">
<title>Node0</title>
<polygon fill="#bfbfbf" stroke="#000000" points="676.5,-336.5 676.5,-388.5 818.5,-388.5 818.5,-336.5 676.5,-336.5"/>
<text text-anchor="start" x="684.5" y="-376.5" font-family="Helvetica,sans-Serif" font-size="10.00" fill="#000000">/home/travis/build</text>
<text text-anchor="start" x="684.5" y="-365.5" font-family="Helvetica,sans-Serif" font-size="10.00" fill="#000000">/AliceO2Group/AliceO2</text>
<text text-anchor="start" x="684.5" y="-354.5" font-family="Helvetica,sans-Serif" font-size="10.00" fill="#000000">/GPU/GPUTracking/Merger</text>
<text text-anchor="middle" x="747.5" y="-343.5" font-family="Helvetica,sans-Serif" font-size="10.00" fill="#000000">/GPUTPCGMSliceTrack.h</text>
</g>
<!-- Node1 -->
<g id="node2" class="node">
<title>Node1</title>
<g id="a_node2"><a xlink:href="../../df/d9b/GPUTPCSliceOutTrack_8h.html" target="_top" xlink:title="GPUTPCSliceOutTrack.h">
<polygon fill="none" stroke="#000000" points="446,-280.5 446,-299.5 577,-299.5 577,-280.5 446,-280.5"/>
<text text-anchor="middle" x="511.5" y="-287.5" font-family="Helvetica,sans-Serif" font-size="10.00" fill="#000000">GPUTPCSliceOutTrack.h</text>
</a>
</g>
</g>
<!-- Node0&#45;&gt;Node1 -->
<g id="edge1" class="edge">
<title>Node0&#45;&gt;Node1</title>
<path fill="none" stroke="#191970" d="M676.3722,-340.6493C635.7321,-328.1645 586.2346,-312.9587 552.141,-302.4851"/>
<polygon fill="#191970" stroke="#191970" points="553.1052,-299.1199 542.5182,-299.5289 551.0495,-305.8112 553.1052,-299.1199"/>
</g>
<!-- Node14 -->
<g id="node15" class="node">
<title>Node14</title>
<g id="a_node15"><a xlink:href="../../d8/d33/GPUTPCGMTrackParam_8h.html" target="_top" xlink:title="GPUTPCGMTrackParam.h">
<polygon fill="none" stroke="#000000" points="732,-224.5 732,-243.5 869,-243.5 869,-224.5 732,-224.5"/>
<text text-anchor="middle" x="800.5" y="-231.5" font-family="Helvetica,sans-Serif" font-size="10.00" fill="#000000">GPUTPCGMTrackParam.h</text>
</a>
</g>
</g>
<!-- Node0&#45;&gt;Node14 -->
<g id="edge15" class="edge">
<title>Node0&#45;&gt;Node14</title>
<path fill="none" stroke="#191970" d="M758.2253,-336.4961C768.4613,-311.6787 783.6342,-274.8915 792.7463,-252.799"/>
<polygon fill="#191970" stroke="#191970" points="795.9985,-254.0933 796.5759,-243.5142 789.5273,-251.4242 795.9985,-254.0933"/>
</g>
<!-- Node16 -->
<g id="node17" class="node">
<title>Node16</title>
<g id="a_node17"><a xlink:href="../../d6/da2/GPUCommonMath_8h.html" target="_top" xlink:title="GPUCommonMath.h">
<polygon fill="none" stroke="#000000" points="862,-168.5 862,-187.5 977,-187.5 977,-168.5 862,-168.5"/>
<text text-anchor="middle" x="919.5" y="-175.5" font-family="Helvetica,sans-Serif" font-size="10.00" fill="#000000">GPUCommonMath.h</text>
</a>
</g>
</g>
<!-- Node0&#45;&gt;Node16 -->
<g id="edge25" class="edge">
<title>Node0&#45;&gt;Node16</title>
<path fill="none" stroke="#191970" d="M781.3961,-336.3108C809.376,-313.6956 849.1164,-279.1941 878.5,-244 890.8829,-229.1685 902.2442,-210.2723 909.8506,-196.503"/>
<polygon fill="#191970" stroke="#191970" points="913.0308,-197.979 914.6865,-187.5143 906.8664,-194.6625 913.0308,-197.979"/>
</g>
<!-- Node21 -->
<g id="node22" class="node">
<title>Node21</title>
<g id="a_node22"><a xlink:href="../../d5/d5c/GPUO2DataTypes_8h.html" target="_top" xlink:title="GPUO2DataTypes.h">
<polygon fill="none" stroke="#000000" points="603,-224.5 603,-243.5 714,-243.5 714,-224.5 603,-224.5"/>
<text text-anchor="middle" x="658.5" y="-231.5" font-family="Helvetica,sans-Serif" font-size="10.00" fill="#000000">GPUO2DataTypes.h</text>
</a>
</g>
</g>
<!-- Node0&#45;&gt;Node21 -->
<g id="edge26" class="edge">
<title>Node0&#45;&gt;Node21</title>
<path fill="none" stroke="#191970" d="M729.4895,-336.4961C712.0675,-311.3418 686.1285,-273.8906 670.9029,-251.9075"/>
<polygon fill="#191970" stroke="#191970" points="673.6607,-249.7421 665.0896,-243.5142 667.9061,-253.7278 673.6607,-249.7421"/>
</g>
<!-- Node2 -->
<g id="node3" class="node">
<title>Node2</title>
<g id="a_node3"><a xlink:href="../../df/d00/GPUTPCBaseTrackParam_8h.html" target="_top" xlink:title="GPUTPCBaseTrackParam.h">
<polygon fill="none" stroke="#000000" points="438.5,-224.5 438.5,-243.5 584.5,-243.5 584.5,-224.5 438.5,-224.5"/>
<text text-anchor="middle" x="511.5" y="-231.5" font-family="Helvetica,sans-Serif" font-size="10.00" fill="#000000">GPUTPCBaseTrackParam.h</text>
</a>
</g>
</g>
<!-- Node1&#45;&gt;Node2 -->
<g id="edge2" class="edge">
<title>Node1&#45;&gt;Node2</title>
<path fill="none" stroke="#191970" d="M511.5,-280.2455C511.5,-272.9382 511.5,-262.6944 511.5,-253.7046"/>
<polygon fill="#191970" stroke="#191970" points="515.0001,-253.6426 511.5,-243.6427 508.0001,-253.6427 515.0001,-253.6426"/>
</g>
<!-- Node13 -->
<g id="node14" class="node">
<title>Node13</title>
<g id="a_node14"><a xlink:href="../../d2/dd5/GPUTPCSliceOutCluster_8h.html" target="_top" xlink:title="GPUTPCSliceOutCluster.h">
<polygon fill="none" stroke="#000000" points="280.5,-224.5 280.5,-243.5 420.5,-243.5 420.5,-224.5 280.5,-224.5"/>
<text text-anchor="middle" x="350.5" y="-231.5" font-family="Helvetica,sans-Serif" font-size="10.00" fill="#000000">GPUTPCSliceOutCluster.h</text>
</a>
</g>
</g>
<!-- Node1&#45;&gt;Node13 -->
<g id="edge13" class="edge">
<title>Node1&#45;&gt;Node13</title>
<path fill="none" stroke="#191970" d="M483.8231,-280.3733C457.1672,-271.1016 416.6762,-257.0178 387.3116,-246.804"/>
<polygon fill="#191970" stroke="#191970" points="388.4105,-243.4807 377.8157,-243.5011 386.1109,-250.0921 388.4105,-243.4807"/>
</g>
<!-- Node3 -->
<g id="node4" class="node">
<title>Node3</title>
<g id="a_node4"><a xlink:href="../../da/dab/GPUTPCDef_8h.html" target="_top" xlink:title="GPUTPCDef.h">
<polygon fill="none" stroke="#000000" points="411.5,-168.5 411.5,-187.5 493.5,-187.5 493.5,-168.5 411.5,-168.5"/>
<text text-anchor="middle" x="452.5" y="-175.5" font-family="Helvetica,sans-Serif" font-size="10.00" fill="#000000">GPUTPCDef.h</text>
</a>
</g>
</g>
<!-- Node2&#45;&gt;Node3 -->
<g id="edge3" class="edge">
<title>Node2&#45;&gt;Node3</title>
<path fill="none" stroke="#191970" d="M501.223,-224.2455C492.6782,-216.1352 480.3222,-204.4075 470.1915,-194.7919"/>
<polygon fill="#191970" stroke="#191970" points="472.3218,-191.9884 462.6592,-187.6427 467.5028,-197.0655 472.3218,-191.9884"/>
</g>
<!-- Node4 -->
<g id="node5" class="node">
<title>Node4</title>
<g id="a_node5"><a xlink:href="../../d2/d6d/GPUDef_8h.html" target="_top" xlink:title="GPUDef.h">
<polygon fill="none" stroke="#000000" points="405,-112.5 405,-131.5 468,-131.5 468,-112.5 405,-112.5"/>
<text text-anchor="middle" x="436.5" y="-119.5" font-family="Helvetica,sans-Serif" font-size="10.00" fill="#000000">GPUDef.h</text>
</a>
</g>
</g>
<!-- Node3&#45;&gt;Node4 -->
<g id="edge4" class="edge">
<title>Node3&#45;&gt;Node4</title>
<path fill="none" stroke="#191970" d="M449.713,-168.2455C447.6023,-160.8579 444.634,-150.4689 442.0453,-141.4087"/>
<polygon fill="#191970" stroke="#191970" points="445.3677,-140.2964 439.255,-131.6427 438.637,-142.2195 445.3677,-140.2964"/>
</g>
<!-- Node5 -->
<g id="node6" class="node">
<title>Node5</title>
<g id="a_node6"><a xlink:href="../../df/d21/GPUCommonDef_8h.html" target="_top" xlink:title="GPUCommonDef.h">
<polygon fill="none" stroke="#000000" points="673,-56.5 673,-75.5 780,-75.5 780,-56.5 673,-56.5"/>
<text text-anchor="middle" x="726.5" y="-63.5" font-family="Helvetica,sans-Serif" font-size="10.00" fill="#000000">GPUCommonDef.h</text>
</a>
</g>
</g>
<!-- Node4&#45;&gt;Node5 -->
<g id="edge5" class="edge">
<title>Node4&#45;&gt;Node5</title>
<path fill="none" stroke="#191970" d="M468.0871,-115.9004C515.6859,-106.7089 606.6341,-89.1465 666.937,-77.5018"/>
<polygon fill="#191970" stroke="#191970" points="667.9258,-80.8756 677.0808,-75.543 666.5986,-74.0026 667.9258,-80.8756"/>
</g>
<!-- Node8 -->
<g id="node9" class="node">
<title>Node8</title>
<g id="a_node9"><a xlink:href="../../d2/d37/GPUDefConstantsAndSettings_8h.html" target="_top" xlink:title="GPUDefConstantsAndSettings.h">
<polygon fill="none" stroke="#000000" points="0,-56.5 0,-75.5 171,-75.5 171,-56.5 0,-56.5"/>
<text text-anchor="middle" x="85.5" y="-63.5" font-family="Helvetica,sans-Serif" font-size="10.00" fill="#000000">GPUDefConstantsAndSettings.h</text>
</a>
</g>
</g>
<!-- Node4&#45;&gt;Node8 -->
<g id="edge8" class="edge">
<title>Node4&#45;&gt;Node8</title>
<path fill="none" stroke="#191970" d="M404.732,-116.9316C348.6907,-107.9905 231.0471,-89.2212 155.2898,-77.1346"/>
<polygon fill="#191970" stroke="#191970" points="155.775,-73.6678 145.3485,-75.5485 154.6721,-80.5804 155.775,-73.6678"/>
</g>
<!-- Node9 -->
<g id="node10" class="node">
<title>Node9</title>
<g id="a_node10"><a xlink:href="../../dc/de9/GPUDefGPUParameters_8h.html" target="_top" xlink:title="GPUDefGPUParameters.h">
<polygon fill="none" stroke="#000000" points="189.5,-56.5 189.5,-75.5 329.5,-75.5 329.5,-56.5 189.5,-56.5"/>
<text text-anchor="middle" x="259.5" y="-63.5" font-family="Helvetica,sans-Serif" font-size="10.00" fill="#000000">GPUDefGPUParameters.h</text>
</a>
</g>
</g>
<!-- Node4&#45;&gt;Node9 -->
<g id="edge9" class="edge">
<title>Node4&#45;&gt;Node9</title>
<path fill="none" stroke="#191970" d="M406.0726,-112.3733C376.5128,-103.021 331.4774,-88.7725 299.1305,-78.5385"/>
<polygon fill="#191970" stroke="#191970" points="300.1203,-75.1807 289.5303,-75.5011 298.0087,-81.8546 300.1203,-75.1807"/>
</g>
<!-- Node10 -->
<g id="node11" class="node">
<title>Node10</title>
<g id="a_node11"><a xlink:href="../../d3/d4c/GPUDefOpenCL12Templates_8h.html" target="_top" xlink:title="GPUDefOpenCL12Templates.h">
<polygon fill="none" stroke="#000000" points="347.5,-56.5 347.5,-75.5 511.5,-75.5 511.5,-56.5 347.5,-56.5"/>
<text text-anchor="middle" x="429.5" y="-63.5" font-family="Helvetica,sans-Serif" font-size="10.00" fill="#000000">GPUDefOpenCL12Templates.h</text>
</a>
</g>
</g>
<!-- Node4&#45;&gt;Node10 -->
<g id="edge10" class="edge">
<title>Node4&#45;&gt;Node10</title>
<path fill="none" stroke="#191970" d="M435.2807,-112.2455C434.3673,-104.9382 433.0868,-94.6944 431.9631,-85.7046"/>
<polygon fill="#191970" stroke="#191970" points="435.4187,-85.1313 430.7053,-75.6427 428.4728,-85.9996 435.4187,-85.1313"/>
</g>
<!-- Node11 -->
<g id="node12" class="node">
<title>Node11</title>
<g id="a_node12"><a xlink:href="../../d2/d45/GPUCommonRtypes_8h.html" target="_top" xlink:title="GPUCommonRtypes.h">
<polygon fill="none" stroke="#000000" points="530,-56.5 530,-75.5 655,-75.5 655,-56.5 530,-56.5"/>
<text text-anchor="middle" x="592.5" y="-63.5" font-family="Helvetica,sans-Serif" font-size="10.00" fill="#000000">GPUCommonRtypes.h</text>
</a>
</g>
</g>
<!-- Node4&#45;&gt;Node11 -->
<g id="edge11" class="edge">
<title>Node4&#45;&gt;Node11</title>
<path fill="none" stroke="#191970" d="M463.3174,-112.3733C489.0332,-103.1419 528.038,-89.1402 556.4599,-78.9375"/>
<polygon fill="#191970" stroke="#191970" points="557.8032,-82.174 566.0326,-75.5011 555.4381,-75.5857 557.8032,-82.174"/>
</g>
<!-- Node6 -->
<g id="node7" class="node">
<title>Node6</title>
<g id="a_node7"><a xlink:href="../../d5/d93/GPUCommonDefSettings_8h.html" target="_top" xlink:title="GPUCommonDefSettings.h">
<polygon fill="none" stroke="#000000" points="794.5,-.5 794.5,-19.5 942.5,-19.5 942.5,-.5 794.5,-.5"/>
<text text-anchor="middle" x="868.5" y="-7.5" font-family="Helvetica,sans-Serif" font-size="10.00" fill="#000000">GPUCommonDefSettings.h</text>
</a>
</g>
</g>
<!-- Node5&#45;&gt;Node6 -->
<g id="edge6" class="edge">
<title>Node5&#45;&gt;Node6</title>
<path fill="none" stroke="#191970" d="M750.9107,-56.3733C774.1142,-47.2226 809.2038,-33.3844 835.0142,-23.2057"/>
<polygon fill="#191970" stroke="#191970" points="836.3892,-26.4258 844.4079,-19.5011 833.8211,-19.9139 836.3892,-26.4258"/>
</g>
<!-- Node7 -->
<g id="node8" class="node">
<title>Node7</title>
<g id="a_node8"><a xlink:href="../../da/d5a/GPUCommonDefAPI_8h.html" target="_top" xlink:title="GPUCommonDefAPI.h">
<polygon fill="none" stroke="#000000" points="652.5,-.5 652.5,-19.5 776.5,-19.5 776.5,-.5 652.5,-.5"/>
<text text-anchor="middle" x="714.5" y="-7.5" font-family="Helvetica,sans-Serif" font-size="10.00" fill="#000000">GPUCommonDefAPI.h</text>
</a>
</g>
</g>
<!-- Node5&#45;&gt;Node7 -->
<g id="edge7" class="edge">
<title>Node5&#45;&gt;Node7</title>
<path fill="none" stroke="#191970" d="M724.4098,-56.2455C722.8439,-48.9382 720.6488,-38.6944 718.7224,-29.7046"/>
<polygon fill="#191970" stroke="#191970" points="722.084,-28.6873 716.5663,-19.6427 715.2393,-30.1541 722.084,-28.6873"/>
</g>
<!-- Node12 -->
<g id="node13" class="node">
<title>Node12</title>
<polygon fill="none" stroke="#bfbfbf" points="563,-.5 563,-19.5 622,-19.5 622,-.5 563,-.5"/>
<text text-anchor="middle" x="592.5" y="-7.5" font-family="Helvetica,sans-Serif" font-size="10.00" fill="#000000">Rtypes.h</text>
</g>
<!-- Node11&#45;&gt;Node12 -->
<g id="edge12" class="edge">
<title>Node11&#45;&gt;Node12</title>
<path fill="none" stroke="#191970" d="M592.5,-56.2455C592.5,-48.9382 592.5,-38.6944 592.5,-29.7046"/>
<polygon fill="#191970" stroke="#191970" points="596.0001,-29.6426 592.5,-19.6427 589.0001,-29.6427 596.0001,-29.6426"/>
</g>
<!-- Node13&#45;&gt;Node3 -->
<g id="edge14" class="edge">
<title>Node13&#45;&gt;Node3</title>
<path fill="none" stroke="#191970" d="M368.267,-224.2455C384.2095,-215.4928 407.8259,-202.527 425.9989,-192.5496"/>
<polygon fill="#191970" stroke="#191970" points="427.8552,-195.5233 434.9366,-187.6427 424.4863,-189.3873 427.8552,-195.5233"/>
</g>
<!-- Node14&#45;&gt;Node3 -->
<g id="edge16" class="edge">
<title>Node14&#45;&gt;Node3</title>
<path fill="none" stroke="#191970" d="M739.5801,-224.4855C681.0731,-215.3048 590.2086,-200.9339 511.5,-188 508.9883,-187.5873 506.4171,-187.1619 503.8205,-186.7302"/>
<polygon fill="#191970" stroke="#191970" points="504.1939,-183.2441 493.7535,-185.0464 503.0391,-190.1482 504.1939,-183.2441"/>
</g>
<!-- Node15 -->
<g id="node16" class="node">
<title>Node15</title>
<g id="a_node16"><a xlink:href="../../d3/dcc/GPUTPCGMMergedTrackHit_8h.html" target="_top" xlink:title="GPUTPCGMMergedTrackHit.h">
<polygon fill="none" stroke="#000000" points="648,-112.5 648,-131.5 805,-131.5 805,-112.5 648,-112.5"/>
<text text-anchor="middle" x="726.5" y="-119.5" font-family="Helvetica,sans-Serif" font-size="10.00" fill="#000000">GPUTPCGMMergedTrackHit.h</text>
</a>
</g>
</g>
<!-- Node14&#45;&gt;Node15 -->
<g id="edge17" class="edge">
<title>Node14&#45;&gt;Node15</title>
<path fill="none" stroke="#191970" d="M795.2844,-224.3869C788.104,-211.3436 774.5726,-187.4373 761.5,-168 755.0159,-158.359 747.2378,-148.0294 740.6624,-139.6062"/>
<polygon fill="#191970" stroke="#191970" points="743.2994,-137.2983 734.3502,-131.6272 737.8096,-141.6413 743.2994,-137.2983"/>
</g>
<!-- Node14&#45;&gt;Node16 -->
<g id="edge19" class="edge">
<title>Node14&#45;&gt;Node16</title>
<path fill="none" stroke="#191970" d="M820.9568,-224.3733C839.9738,-215.4241 868.5175,-201.9917 889.9976,-191.8835"/>
<polygon fill="#191970" stroke="#191970" points="891.7522,-194.926 899.3101,-187.5011 888.7716,-188.5923 891.7522,-194.926"/>
</g>
<!-- Node19 -->
<g id="node20" class="node">
<title>Node19</title>
<g id="a_node20"><a xlink:href="../../d3/d1f/GPUdEdxInfo_8h.html" target="_top" xlink:title="GPUdEdxInfo.h">
<polygon fill="none" stroke="#000000" points="664,-168.5 664,-187.5 753,-187.5 753,-168.5 664,-168.5"/>
<text text-anchor="middle" x="708.5" y="-175.5" font-family="Helvetica,sans-Serif" font-size="10.00" fill="#000000">GPUdEdxInfo.h</text>
</a>
</g>
</g>
<!-- Node14&#45;&gt;Node19 -->
<g id="edge23" class="edge">
<title>Node14&#45;&gt;Node19</title>
<path fill="none" stroke="#191970" d="M784.4748,-224.2455C770.3592,-215.6534 749.5737,-203.0014 733.3101,-193.1018"/>
<polygon fill="#191970" stroke="#191970" points="734.7034,-189.8525 724.3415,-187.6427 731.0637,-195.8319 734.7034,-189.8525"/>
</g>
<!-- Node20 -->
<g id="node21" class="node">
<title>Node20</title>
<polygon fill="none" stroke="#bfbfbf" points="803,-56.5 803,-75.5 856,-75.5 856,-56.5 803,-56.5"/>
<text text-anchor="middle" x="829.5" y="-63.5" font-family="Helvetica,sans-Serif" font-size="10.00" fill="#000000">cstddef</text>
</g>
<!-- Node14&#45;&gt;Node20 -->
<g id="edge24" class="edge">
<title>Node14&#45;&gt;Node20</title>
<path fill="none" stroke="#191970" d="M802.1423,-224.4862C806.7463,-197.8144 819.8486,-121.9117 826.1003,-85.695"/>
<polygon fill="#191970" stroke="#191970" points="829.5514,-86.2775 827.8035,-75.8279 822.6534,-85.0868 829.5514,-86.2775"/>
</g>
<!-- Node15&#45;&gt;Node5 -->
<g id="edge18" class="edge">
<title>Node15&#45;&gt;Node5</title>
<path fill="none" stroke="#191970" d="M726.5,-112.2455C726.5,-104.9382 726.5,-94.6944 726.5,-85.7046"/>
<polygon fill="#191970" stroke="#191970" points="730.0001,-85.6426 726.5,-75.6427 723.0001,-85.6427 730.0001,-85.6426"/>
</g>
<!-- Node16&#45;&gt;Node5 -->
<g id="edge20" class="edge">
<title>Node16&#45;&gt;Node5</title>
<path fill="none" stroke="#191970" d="M922.6978,-168.2597C926.6516,-154.1881 931.3964,-128.0988 918.5,-112 910.2708,-101.7274 842.7962,-87.2218 790.1334,-77.261"/>
<polygon fill="#191970" stroke="#191970" points="790.6288,-73.7931 780.1556,-75.3941 789.3413,-80.6737 790.6288,-73.7931"/>
</g>
<!-- Node17 -->
<g id="node18" class="node">
<title>Node17</title>
<polygon fill="none" stroke="#bfbfbf" points="862,-112.5 862,-131.5 909,-131.5 909,-112.5 862,-112.5"/>
<text text-anchor="middle" x="885.5" y="-119.5" font-family="Helvetica,sans-Serif" font-size="10.00" fill="#000000">cmath</text>
</g>
<!-- Node16&#45;&gt;Node17 -->
<g id="edge21" class="edge">
<title>Node16&#45;&gt;Node17</title>
<path fill="none" stroke="#191970" d="M913.5777,-168.2455C908.8973,-160.5367 902.2327,-149.5598 896.5711,-140.2348"/>
<polygon fill="#191970" stroke="#191970" points="899.5361,-138.3741 891.3545,-131.6427 893.5525,-142.007 899.5361,-138.3741"/>
</g>
<!-- Node18 -->
<g id="node19" class="node">
<title>Node18</title>
<polygon fill="none" stroke="#bfbfbf" points="965.5,-112.5 965.5,-131.5 1029.5,-131.5 1029.5,-112.5 965.5,-112.5"/>
<text text-anchor="middle" x="997.5" y="-119.5" font-family="Helvetica,sans-Serif" font-size="10.00" fill="#000000">algorithm</text>
</g>
<!-- Node16&#45;&gt;Node18 -->
<g id="edge22" class="edge">
<title>Node16&#45;&gt;Node18</title>
<path fill="none" stroke="#191970" d="M933.0866,-168.2455C944.8305,-159.814 962.0199,-147.4729 975.6882,-137.6598"/>
<polygon fill="#191970" stroke="#191970" points="977.9871,-140.3179 984.0691,-131.6427 973.9046,-134.6316 977.9871,-140.3179"/>
</g>
<!-- Node21&#45;&gt;Node19 -->
<g id="edge32" class="edge">
<title>Node21&#45;&gt;Node19</title>
<path fill="none" stroke="#191970" d="M667.2093,-224.2455C674.3073,-216.2958 684.5084,-204.8706 692.995,-195.3656"/>
<polygon fill="#191970" stroke="#191970" points="695.8411,-197.4331 699.8905,-187.6427 690.6195,-192.771 695.8411,-197.4331"/>
</g>
<!-- Node22 -->
<g id="node23" class="node">
<title>Node22</title>
<g id="a_node23"><a xlink:href="../../da/d28/GPUO2FakeClasses_8h.html" target="_top" xlink:title="GPUO2FakeClasses.h">
<polygon fill="none" stroke="#000000" points="520.5,-168.5 520.5,-187.5 640.5,-187.5 640.5,-168.5 520.5,-168.5"/>
<text text-anchor="middle" x="580.5" y="-175.5" font-family="Helvetica,sans-Serif" font-size="10.00" fill="#000000">GPUO2FakeClasses.h</text>
</a>
</g>
</g>
<!-- Node21&#45;&gt;Node22 -->
<g id="edge27" class="edge">
<title>Node21&#45;&gt;Node22</title>
<path fill="none" stroke="#191970" d="M644.9134,-224.2455C633.1695,-215.814 615.9801,-203.4729 602.3118,-193.6598"/>
<polygon fill="#191970" stroke="#191970" points="604.0954,-190.6316 593.9309,-187.6427 600.0129,-196.3179 604.0954,-190.6316"/>
</g>
<!-- Node22&#45;&gt;Node5 -->
<g id="edge28" class="edge">
<title>Node22&#45;&gt;Node5</title>
<path fill="none" stroke="#191970" d="M561.3578,-168.4039C538.6756,-155.7704 505.9241,-132.7298 522.5,-112 531.4166,-100.8489 606.401,-86.0333 662.8927,-76.2671"/>
<polygon fill="#191970" stroke="#191970" points="663.5829,-79.7 672.8499,-74.5645 662.403,-72.8001 663.5829,-79.7"/>
</g>
<!-- Node23 -->
<g id="node24" class="node">
<title>Node23</title>
<g id="a_node24"><a xlink:href="../../d4/dc5/GPUDataTypes_8h.html" target="_top" xlink:title="GPUDataTypes.h">
<polygon fill="none" stroke="#000000" points="531.5,-112.5 531.5,-131.5 629.5,-131.5 629.5,-112.5 531.5,-112.5"/>
<text text-anchor="middle" x="580.5" y="-119.5" font-family="Helvetica,sans-Serif" font-size="10.00" fill="#000000">GPUDataTypes.h</text>
</a>
</g>
</g>
<!-- Node22&#45;&gt;Node23 -->
<g id="edge29" class="edge">
<title>Node22&#45;&gt;Node23</title>
<path fill="none" stroke="#191970" d="M580.5,-168.2455C580.5,-160.9382 580.5,-150.6944 580.5,-141.7046"/>
<polygon fill="#191970" stroke="#191970" points="584.0001,-141.6426 580.5,-131.6427 577.0001,-141.6427 584.0001,-141.6426"/>
</g>
<!-- Node23&#45;&gt;Node5 -->
<g id="edge30" class="edge">
<title>Node23&#45;&gt;Node5</title>
<path fill="none" stroke="#191970" d="M605.5983,-112.3733C629.4555,-103.2226 665.5335,-89.3844 692.071,-79.2057"/>
<polygon fill="#191970" stroke="#191970" points="693.6459,-82.3503 701.7292,-75.5011 691.139,-75.8145 693.6459,-82.3503"/>
</g>
<!-- Node23&#45;&gt;Node20 -->
<g id="edge31" class="edge">
<title>Node23&#45;&gt;Node20</title>
<path fill="none" stroke="#191970" d="M624.7903,-112.4949C666.9425,-103.3801 732.1243,-89.1073 788.5,-76 789.9273,-75.6682 791.3818,-75.3271 792.8506,-74.9804"/>
<polygon fill="#191970" stroke="#191970" points="793.7019,-78.3756 802.6135,-72.6456 792.0737,-71.5675 793.7019,-78.3756"/>
</g>
</g>
</svg>
