<?xml version="1.0" encoding="UTF-8" standalone="no"?>
<!DOCTYPE svg PUBLIC "-//W3C//DTD SVG 1.1//EN"
 "http://www.w3.org/Graphics/SVG/1.1/DTD/svg11.dtd">
<!-- Generated by graphviz version 2.40.1 (20161225.0304)
 -->
<!-- Title: /home/travis/build/AliceO2Group/AliceO2/Detectors/TPC/reconstruction/include/TPCReconstruction/TPCFastTransformHelperO2.h Pages: 1 -->
<!--zoomable 464 -->
<svg id="main" version="1.1" xmlns="http://www.w3.org/2000/svg" xmlns:xlink="http://www.w3.org/1999/xlink" xml:space="preserve" onload="init(evt)">
<style type="text/css"><![CDATA[
.edge:hover path { stroke: red; }
.edge:hover polygon { stroke: red; fill: red; }
]]></style>
<script type="text/javascript"><![CDATA[
var edges = document.getElementsByTagName('g');
if (edges && edges.length) {
  for (var i=0;i<edges.length;i++) {
    if (edges[i].id.substr(0,4)=='edge') {
      edges[i].setAttribute('class','edge');
    }
  }
}
]]></script>
        <defs>
                <circle id="rim" cx="0" cy="0" r="7"/>
                <circle id="rim2" cx="0" cy="0" r="3.5"/>
                <g id="zoomPlus">
                        <use xlink:href="#rim" fill="#404040">
                                <set attributeName="fill" to="#808080" begin="zoomplus.mouseover" end="zoomplus.mouseout"/>
                        </use>
                        <path d="M-4,0h8M0,-4v8" fill="none" stroke="white" stroke-width="1.5" pointer-events="none"/>
                </g>
                <g id="zoomMin">
                        <use xlink:href="#rim" fill="#404040">
                                <set attributeName="fill" to="#808080" begin="zoomminus.mouseover" end="zoomminus.mouseout"/>
                        </use>
                        <path d="M-4,0h8" fill="none" stroke="white" stroke-width="1.5" pointer-events="none"/>
                </g>
                <g id="dirArrow">
                        <path fill="none" stroke="white" stroke-width="1.5" d="M0,-3.0v7 M-2.5,-0.5L0,-3.0L2.5,-0.5"/>
                </g>
               <g id="resetDef">
                       <use xlink:href="#rim2" fill="#404040">
                               <set attributeName="fill" to="#808080" begin="reset.mouseover" end="reset.mouseout"/>
                       </use>
               </g>
        </defs>

<script type="text/javascript">
var viewWidth = 858;
var viewHeight = 464;
var sectionId = 'dynsection-0';
</script>
<script xlink:href="../../svgpan.js"/>
<svg id="graph" class="graph">
<g id="viewport">
<title>/home/travis/build/AliceO2Group/AliceO2/Detectors/TPC/reconstruction/include/TPCReconstruction/TPCFastTransformHelperO2.h</title>
<!-- Node0 -->
<g id="node1" class="node">
<title>Node0</title>
<polygon fill="#bfbfbf" stroke="#000000" points="676,-392.5 676,-455.5 837,-455.5 837,-392.5 676,-392.5"/>
<text text-anchor="start" x="684" y="-443.5" font-family="Helvetica,sans-Serif" font-size="10.00" fill="#000000">/home/travis/build</text>
<text text-anchor="start" x="684" y="-432.5" font-family="Helvetica,sans-Serif" font-size="10.00" fill="#000000">/AliceO2Group/AliceO2</text>
<text text-anchor="start" x="684" y="-421.5" font-family="Helvetica,sans-Serif" font-size="10.00" fill="#000000">/Detectors/TPC/reconstruction</text>
<text text-anchor="start" x="684" y="-410.5" font-family="Helvetica,sans-Serif" font-size="10.00" fill="#000000">/include/TPCReconstruction</text>
<text text-anchor="middle" x="756.5" y="-399.5" font-family="Helvetica,sans-Serif" font-size="10.00" fill="#000000">/TPCFastTransformHelperO2.h</text>
</g>
<!-- Node1 -->
<g id="node2" class="node">
<title>Node1</title>
<g id="a_node2"><a xlink:href="../../d4/db1/TPCFastTransform_8h.html" target="_top" xlink:title="Definition of TPCFastTransform class. ">
<polygon fill="none" stroke="#000000" points="397,-336.5 397,-355.5 510,-355.5 510,-336.5 397,-336.5"/>
<text text-anchor="middle" x="453.5" y="-343.5" font-family="Helvetica,sans-Serif" font-size="10.00" fill="#000000">TPCFastTransform.h</text>
</a>
</g>
</g>
<!-- Node0&#45;&gt;Node1 -->
<g id="edge1" class="edge">
<title>Node0&#45;&gt;Node1</title>
<path fill="none" stroke="#191970" d="M675.6996,-403.1999C619.6784,-388.7786 547.0316,-370.0774 500.3343,-358.0563"/>
<polygon fill="#191970" stroke="#191970" points="501.0478,-354.626 490.4909,-355.5224 499.3026,-361.405 501.0478,-354.626"/>
</g>
<!-- Node11 -->
<g id="node12" class="node">
<title>Node11</title>
<polygon fill="none" stroke="#bfbfbf" points="687,-.5 687,-19.5 746,-19.5 746,-.5 687,-.5"/>
<text text-anchor="middle" x="716.5" y="-7.5" font-family="Helvetica,sans-Serif" font-size="10.00" fill="#000000">Rtypes.h</text>
</g>
<!-- Node0&#45;&gt;Node11 -->
<g id="edge33" class="edge">
<title>Node0&#45;&gt;Node11</title>
<path fill="none" stroke="#191970" d="M756.5,-392.3228C756.5,-365.1701 756.5,-325.0122 756.5,-290 756.5,-290 756.5,-290 756.5,-122 756.5,-87.4432 739.403,-50.1996 727.5642,-28.5529"/>
<polygon fill="#191970" stroke="#191970" points="730.5578,-26.7365 722.5751,-19.7703 724.4713,-30.1941 730.5578,-26.7365"/>
</g>
<!-- Node20 -->
<g id="node21" class="node">
<title>Node20</title>
<polygon fill="none" stroke="#bfbfbf" points="785,-336.5 785,-355.5 850,-355.5 850,-336.5 785,-336.5"/>
<text text-anchor="middle" x="817.5" y="-343.5" font-family="Helvetica,sans-Serif" font-size="10.00" fill="#000000">functional</text>
</g>
<!-- Node0&#45;&gt;Node20 -->
<g id="edge34" class="edge">
<title>Node0&#45;&gt;Node20</title>
<path fill="none" stroke="#191970" d="M781.311,-392.2744C788.9491,-382.5078 797.0806,-372.1101 803.6969,-363.6499"/>
<polygon fill="#191970" stroke="#191970" points="806.5556,-365.6759 809.959,-355.6426 801.0416,-361.3636 806.5556,-365.6759"/>
</g>
<!-- Node2 -->
<g id="node3" class="node">
<title>Node2</title>
<g id="a_node3"><a xlink:href="../../db/dff/FlatObject_8h.html" target="_top" xlink:title="Definition of FlatObject class. ">
<polygon fill="none" stroke="#000000" points="163,-112.5 163,-131.5 238,-131.5 238,-112.5 163,-112.5"/>
<text text-anchor="middle" x="200.5" y="-119.5" font-family="Helvetica,sans-Serif" font-size="10.00" fill="#000000">FlatObject.h</text>
</a>
</g>
</g>
<!-- Node1&#45;&gt;Node2 -->
<g id="edge2" class="edge">
<title>Node1&#45;&gt;Node2</title>
<path fill="none" stroke="#191970" d="M396.7541,-338.6475C363.0333,-332.3163 320.5418,-320.7683 287.5,-300 236.1427,-267.7195 227.8129,-245.8294 209.5,-188 204.7476,-172.9925 202.5045,-155.2839 201.4459,-141.9901"/>
<polygon fill="#191970" stroke="#191970" points="204.9144,-141.3809 200.7872,-131.623 197.9285,-141.8248 204.9144,-141.3809"/>
</g>
<!-- Node12 -->
<g id="node13" class="node">
<title>Node12</title>
<g id="a_node13"><a xlink:href="../../d5/dde/TPCFastTransformGeo_8h.html" target="_top" xlink:title="Definition of TPCFastTransformGeo class. ">
<polygon fill="none" stroke="#000000" points="428.5,-168.5 428.5,-187.5 560.5,-187.5 560.5,-168.5 428.5,-168.5"/>
<text text-anchor="middle" x="494.5" y="-175.5" font-family="Helvetica,sans-Serif" font-size="10.00" fill="#000000">TPCFastTransformGeo.h</text>
</a>
</g>
</g>
<!-- Node1&#45;&gt;Node12 -->
<g id="edge12" class="edge">
<title>Node1&#45;&gt;Node12</title>
<path fill="none" stroke="#191970" d="M459.0782,-336.4652C464.1391,-327.3877 471.4149,-313.1918 475.5,-300 486.3385,-264.9995 491.1739,-222.3488 493.1907,-197.8676"/>
<polygon fill="#191970" stroke="#191970" points="496.695,-197.9389 493.9494,-187.706 489.7144,-197.4176 496.695,-197.9389"/>
</g>
<!-- Node13 -->
<g id="node14" class="node">
<title>Node13</title>
<g id="a_node14"><a xlink:href="../../d0/d28/TPCDistortionIRS_8h.html" target="_top" xlink:title="Definition of TPCDistortionIRS class. ">
<polygon fill="none" stroke="#000000" points="358.5,-280.5 358.5,-299.5 466.5,-299.5 466.5,-280.5 358.5,-280.5"/>
<text text-anchor="middle" x="412.5" y="-287.5" font-family="Helvetica,sans-Serif" font-size="10.00" fill="#000000">TPCDistortionIRS.h</text>
</a>
</g>
</g>
<!-- Node1&#45;&gt;Node13 -->
<g id="edge15" class="edge">
<title>Node1&#45;&gt;Node13</title>
<path fill="none" stroke="#191970" d="M446.3583,-336.2455C440.6556,-328.4564 432.51,-317.3308 425.6375,-307.9439"/>
<polygon fill="#191970" stroke="#191970" points="428.2913,-305.6437 419.5598,-299.6427 422.6432,-309.7789 428.2913,-305.6437"/>
</g>
<!-- Node16 -->
<g id="node17" class="node">
<title>Node16</title>
<g id="a_node17"><a xlink:href="../../d6/da2/GPUCommonMath_8h.html" target="_top" xlink:title="GPUCommonMath.h">
<polygon fill="none" stroke="#000000" points="564,-280.5 564,-299.5 679,-299.5 679,-280.5 564,-280.5"/>
<text text-anchor="middle" x="621.5" y="-287.5" font-family="Helvetica,sans-Serif" font-size="10.00" fill="#000000">GPUCommonMath.h</text>
</a>
</g>
</g>
<!-- Node1&#45;&gt;Node16 -->
<g id="edge28" class="edge">
<title>Node1&#45;&gt;Node16</title>
<path fill="none" stroke="#191970" d="M482.3802,-336.3733C510.3161,-327.0613 552.8142,-312.8953 583.4869,-302.671"/>
<polygon fill="#191970" stroke="#191970" points="584.6166,-305.9839 592.9966,-299.5011 582.403,-299.3431 584.6166,-305.9839"/>
</g>
<!-- Node19 -->
<g id="node20" class="node">
<title>Node19</title>
<polygon fill="none" stroke="#bfbfbf" points="296.5,-280.5 296.5,-299.5 340.5,-299.5 340.5,-280.5 296.5,-280.5"/>
<text text-anchor="middle" x="318.5" y="-287.5" font-family="Helvetica,sans-Serif" font-size="10.00" fill="#000000">string</text>
</g>
<!-- Node1&#45;&gt;Node19 -->
<g id="edge32" class="edge">
<title>Node1&#45;&gt;Node19</title>
<path fill="none" stroke="#191970" d="M430.2927,-336.3733C408.0639,-327.1524 374.3612,-313.1721 349.7725,-302.9723"/>
<polygon fill="#191970" stroke="#191970" points="351.0885,-299.729 340.5105,-299.1303 348.4063,-306.1948 351.0885,-299.729"/>
</g>
<!-- Node3 -->
<g id="node4" class="node">
<title>Node3</title>
<polygon fill="none" stroke="#bfbfbf" points="282,-56.5 282,-75.5 335,-75.5 335,-56.5 282,-56.5"/>
<text text-anchor="middle" x="308.5" y="-63.5" font-family="Helvetica,sans-Serif" font-size="10.00" fill="#000000">cstddef</text>
</g>
<!-- Node2&#45;&gt;Node3 -->
<g id="edge3" class="edge">
<title>Node2&#45;&gt;Node3</title>
<path fill="none" stroke="#191970" d="M219.3122,-112.2455C236.3473,-103.4125 261.6575,-90.2887 280.9681,-80.2758"/>
<polygon fill="#191970" stroke="#191970" points="282.637,-83.353 289.9034,-75.6427 279.4147,-77.1388 282.637,-83.353"/>
</g>
<!-- Node4 -->
<g id="node5" class="node">
<title>Node4</title>
<polygon fill="none" stroke="#bfbfbf" points="353.5,-56.5 353.5,-75.5 411.5,-75.5 411.5,-56.5 353.5,-56.5"/>
<text text-anchor="middle" x="382.5" y="-63.5" font-family="Helvetica,sans-Serif" font-size="10.00" fill="#000000">memory</text>
</g>
<!-- Node2&#45;&gt;Node4 -->
<g id="edge4" class="edge">
<title>Node2&#45;&gt;Node4</title>
<path fill="none" stroke="#191970" d="M231.7869,-112.3733C262.7344,-102.851 310.1785,-88.2528 343.5511,-77.9843"/>
<polygon fill="#191970" stroke="#191970" points="344.8941,-81.2331 353.4225,-74.9469 342.8354,-74.5426 344.8941,-81.2331"/>
</g>
<!-- Node5 -->
<g id="node6" class="node">
<title>Node5</title>
<polygon fill="none" stroke="#bfbfbf" points="213.5,-56.5 213.5,-75.5 263.5,-75.5 263.5,-56.5 213.5,-56.5"/>
<text text-anchor="middle" x="238.5" y="-63.5" font-family="Helvetica,sans-Serif" font-size="10.00" fill="#000000">cstring</text>
</g>
<!-- Node2&#45;&gt;Node5 -->
<g id="edge5" class="edge">
<title>Node2&#45;&gt;Node5</title>
<path fill="none" stroke="#191970" d="M207.1191,-112.2455C212.4046,-104.4564 219.9541,-93.3308 226.3238,-83.9439"/>
<polygon fill="#191970" stroke="#191970" points="229.2379,-85.8827 231.9568,-75.6427 223.4455,-81.9522 229.2379,-85.8827"/>
</g>
<!-- Node6 -->
<g id="node7" class="node">
<title>Node6</title>
<polygon fill="none" stroke="#bfbfbf" points="143.5,-56.5 143.5,-75.5 195.5,-75.5 195.5,-56.5 143.5,-56.5"/>
<text text-anchor="middle" x="169.5" y="-63.5" font-family="Helvetica,sans-Serif" font-size="10.00" fill="#000000">cassert</text>
</g>
<!-- Node2&#45;&gt;Node6 -->
<g id="edge6" class="edge">
<title>Node2&#45;&gt;Node6</title>
<path fill="none" stroke="#191970" d="M195.1002,-112.2455C190.8773,-104.617 184.8827,-93.7881 179.7559,-84.5267"/>
<polygon fill="#191970" stroke="#191970" points="182.7432,-82.6965 174.8379,-75.6427 176.619,-86.0867 182.7432,-82.6965"/>
</g>
<!-- Node7 -->
<g id="node8" class="node">
<title>Node7</title>
<g id="a_node8"><a xlink:href="../../df/d21/GPUCommonDef_8h.html" target="_top" xlink:title="GPUCommonDef.h">
<polygon fill="none" stroke="#000000" points="437,-56.5 437,-75.5 544,-75.5 544,-56.5 437,-56.5"/>
<text text-anchor="middle" x="490.5" y="-63.5" font-family="Helvetica,sans-Serif" font-size="10.00" fill="#000000">GPUCommonDef.h</text>
</a>
</g>
</g>
<!-- Node2&#45;&gt;Node7 -->
<g id="edge7" class="edge">
<title>Node2&#45;&gt;Node7</title>
<path fill="none" stroke="#191970" d="M238.1151,-114.7364C287.0538,-105.2862 373.1215,-88.6662 430.9681,-77.4958"/>
<polygon fill="#191970" stroke="#191970" points="431.9133,-80.878 441.0683,-75.5454 430.5861,-74.005 431.9133,-80.878"/>
</g>
<!-- Node10 -->
<g id="node11" class="node">
<title>Node10</title>
<g id="a_node11"><a xlink:href="../../d2/d45/GPUCommonRtypes_8h.html" target="_top" xlink:title="GPUCommonRtypes.h">
<polygon fill="none" stroke="#000000" points="0,-56.5 0,-75.5 125,-75.5 125,-56.5 0,-56.5"/>
<text text-anchor="middle" x="62.5" y="-63.5" font-family="Helvetica,sans-Serif" font-size="10.00" fill="#000000">GPUCommonRtypes.h</text>
</a>
</g>
</g>
<!-- Node2&#45;&gt;Node10 -->
<g id="edge10" class="edge">
<title>Node2&#45;&gt;Node10</title>
<path fill="none" stroke="#191970" d="M176.777,-112.3733C154.3263,-103.2629 120.4261,-89.5062 95.3745,-79.3404"/>
<polygon fill="#191970" stroke="#191970" points="96.4957,-76.0182 85.9135,-75.5011 93.8635,-82.5045 96.4957,-76.0182"/>
</g>
<!-- Node8 -->
<g id="node9" class="node">
<title>Node8</title>
<g id="a_node9"><a xlink:href="../../d5/d93/GPUCommonDefSettings_8h.html" target="_top" xlink:title="GPUCommonDefSettings.h">
<polygon fill="none" stroke="#000000" points="302.5,-.5 302.5,-19.5 450.5,-19.5 450.5,-.5 302.5,-.5"/>
<text text-anchor="middle" x="376.5" y="-7.5" font-family="Helvetica,sans-Serif" font-size="10.00" fill="#000000">GPUCommonDefSettings.h</text>
</a>
</g>
</g>
<!-- Node7&#45;&gt;Node8 -->
<g id="edge8" class="edge">
<title>Node7&#45;&gt;Node8</title>
<path fill="none" stroke="#191970" d="M470.9027,-56.3733C452.7669,-47.4644 425.5865,-34.1127 405.0413,-24.0203"/>
<polygon fill="#191970" stroke="#191970" points="406.3603,-20.7688 395.8416,-19.5011 403.2739,-27.0517 406.3603,-20.7688"/>
</g>
<!-- Node9 -->
<g id="node10" class="node">
<title>Node9</title>
<g id="a_node10"><a xlink:href="../../da/d5a/GPUCommonDefAPI_8h.html" target="_top" xlink:title="GPUCommonDefAPI.h">
<polygon fill="none" stroke="#000000" points="468.5,-.5 468.5,-19.5 592.5,-19.5 592.5,-.5 468.5,-.5"/>
<text text-anchor="middle" x="530.5" y="-7.5" font-family="Helvetica,sans-Serif" font-size="10.00" fill="#000000">GPUCommonDefAPI.h</text>
</a>
</g>
</g>
<!-- Node7&#45;&gt;Node9 -->
<g id="edge9" class="edge">
<title>Node7&#45;&gt;Node9</title>
<path fill="none" stroke="#191970" d="M497.4675,-56.2455C503.0311,-48.4564 510.978,-37.3308 517.6829,-27.9439"/>
<polygon fill="#191970" stroke="#191970" points="520.648,-29.8144 523.6124,-19.6427 514.9519,-25.7457 520.648,-29.8144"/>
</g>
<!-- Node10&#45;&gt;Node11 -->
<g id="edge11" class="edge">
<title>Node10&#45;&gt;Node11</title>
<path fill="none" stroke="#191970" d="M125.3007,-57.0477C128.4092,-56.6767 131.4887,-56.3249 134.5,-56 341.4703,-33.6707 394.0254,-37.0171 601.5,-20 626.502,-17.9493 654.549,-15.5132 676.6854,-13.5588"/>
<polygon fill="#191970" stroke="#191970" points="677.0702,-17.0386 686.7224,-12.67 676.4526,-10.0658 677.0702,-17.0386"/>
</g>
<!-- Node12&#45;&gt;Node4 -->
<g id="edge14" class="edge">
<title>Node12&#45;&gt;Node4</title>
<path fill="none" stroke="#191970" d="M484.9509,-168.4509C465.9401,-149.4401 423.1423,-106.6423 399.316,-82.816"/>
<polygon fill="#191970" stroke="#191970" points="401.5709,-80.1211 392.0249,-75.5249 396.6211,-85.0709 401.5709,-80.1211"/>
</g>
<!-- Node12&#45;&gt;Node7 -->
<g id="edge13" class="edge">
<title>Node12&#45;&gt;Node7</title>
<path fill="none" stroke="#191970" d="M494.159,-168.4509C493.5066,-150.184 492.0698,-109.9553 491.2035,-85.6976"/>
<polygon fill="#191970" stroke="#191970" points="494.695,-85.3936 490.8402,-75.5249 487.6994,-85.6435 494.695,-85.3936"/>
</g>
<!-- Node13&#45;&gt;Node2 -->
<g id="edge26" class="edge">
<title>Node13&#45;&gt;Node2</title>
<path fill="none" stroke="#191970" d="M367.1946,-280.4922C328.3043,-271.6028 275.9911,-257.6805 259.5,-244 227.1926,-217.1989 211.2599,-168.4962 204.5702,-141.4385"/>
<polygon fill="#191970" stroke="#191970" points="207.9608,-140.5651 202.3128,-131.6012 201.1381,-142.1307 207.9608,-140.5651"/>
</g>
<!-- Node13&#45;&gt;Node7 -->
<g id="edge27" class="edge">
<title>Node13&#45;&gt;Node7</title>
<path fill="none" stroke="#191970" d="M442.524,-280.4902C480.0453,-266.7962 542.5955,-237.5634 569.5,-188 590.975,-148.4388 544.1597,-104.7719 513.8008,-81.9316"/>
<polygon fill="#191970" stroke="#191970" points="515.5185,-78.8531 505.3729,-75.8005 511.4005,-84.5137 515.5185,-78.8531"/>
</g>
<!-- Node13&#45;&gt;Node12 -->
<g id="edge25" class="edge">
<title>Node13&#45;&gt;Node12</title>
<path fill="none" stroke="#191970" d="M419.4913,-280.4509C433.2284,-261.688 463.9296,-219.7548 481.4986,-195.758"/>
<polygon fill="#191970" stroke="#191970" points="484.443,-197.6611 487.5264,-187.5249 478.795,-193.5259 484.443,-197.6611"/>
</g>
<!-- Node14 -->
<g id="node15" class="node">
<title>Node14</title>
<g id="a_node15"><a xlink:href="../../d8/d4b/IrregularSpline2D3D_8h.html" target="_top" xlink:title="Definition of IrregularSpline2D3D class. ">
<polygon fill="none" stroke="#000000" points="268.5,-224.5 268.5,-243.5 392.5,-243.5 392.5,-224.5 268.5,-224.5"/>
<text text-anchor="middle" x="330.5" y="-231.5" font-family="Helvetica,sans-Serif" font-size="10.00" fill="#000000">IrregularSpline2D3D.h</text>
</a>
</g>
</g>
<!-- Node13&#45;&gt;Node14 -->
<g id="edge16" class="edge">
<title>Node13&#45;&gt;Node14</title>
<path fill="none" stroke="#191970" d="M398.2167,-280.2455C385.753,-271.7337 367.4549,-259.2375 353.0208,-249.3801"/>
<polygon fill="#191970" stroke="#191970" points="354.8515,-246.392 344.6196,-243.6427 350.9038,-252.1726 354.8515,-246.392"/>
</g>
<!-- Node14&#45;&gt;Node2 -->
<g id="edge23" class="edge">
<title>Node14&#45;&gt;Node2</title>
<path fill="none" stroke="#191970" d="M310.2307,-224.4269C293.9013,-216.1432 270.8816,-203.1332 253.5,-188 237.3165,-173.9099 222.352,-154.4215 212.4809,-140.2768"/>
<polygon fill="#191970" stroke="#191970" points="215.2813,-138.1705 206.768,-131.8638 209.4902,-142.103 215.2813,-138.1705"/>
</g>
<!-- Node14&#45;&gt;Node7 -->
<g id="edge24" class="edge">
<title>Node14&#45;&gt;Node7</title>
<path fill="none" stroke="#191970" d="M341.7596,-224.4616C352.3104,-215.3814 368.3782,-201.1838 381.5,-188 416.8329,-152.5 455.2092,-108.0183 475.6704,-83.7738"/>
<polygon fill="#191970" stroke="#191970" points="478.607,-85.7194 482.3593,-75.8113 473.2472,-81.2169 478.607,-85.7194"/>
</g>
<!-- Node15 -->
<g id="node16" class="node">
<title>Node15</title>
<g id="a_node16"><a xlink:href="../../d4/de4/IrregularSpline1D_8h.html" target="_top" xlink:title="Definition of IrregularSpline1D class. ">
<polygon fill="none" stroke="#000000" points="262.5,-168.5 262.5,-187.5 372.5,-187.5 372.5,-168.5 262.5,-168.5"/>
<text text-anchor="middle" x="317.5" y="-175.5" font-family="Helvetica,sans-Serif" font-size="10.00" fill="#000000">IrregularSpline1D.h</text>
</a>
</g>
</g>
<!-- Node14&#45;&gt;Node15 -->
<g id="edge17" class="edge">
<title>Node14&#45;&gt;Node15</title>
<path fill="none" stroke="#191970" d="M328.2356,-224.2455C326.5206,-216.8579 324.1088,-206.4689 322.0056,-197.4087"/>
<polygon fill="#191970" stroke="#191970" points="325.4092,-196.5922 319.7385,-187.6427 318.5905,-198.1751 325.4092,-196.5922"/>
</g>
<!-- Node15&#45;&gt;Node2 -->
<g id="edge19" class="edge">
<title>Node15&#45;&gt;Node2</title>
<path fill="none" stroke="#191970" d="M297.387,-168.3733C278.6897,-159.4241 250.6256,-145.9917 229.5066,-135.8835"/>
<polygon fill="#191970" stroke="#191970" points="230.8817,-132.6614 220.3506,-131.5011 227.8595,-138.9755 230.8817,-132.6614"/>
</g>
<!-- Node15&#45;&gt;Node3 -->
<g id="edge20" class="edge">
<title>Node15&#45;&gt;Node3</title>
<path fill="none" stroke="#191970" d="M316.7327,-168.4509C315.2648,-150.184 312.0321,-109.9553 310.0828,-85.6976"/>
<polygon fill="#191970" stroke="#191970" points="313.5552,-85.2124 309.2654,-75.5249 306.5777,-85.7731 313.5552,-85.2124"/>
</g>
<!-- Node15&#45;&gt;Node4 -->
<g id="edge21" class="edge">
<title>Node15&#45;&gt;Node4</title>
<path fill="none" stroke="#191970" d="M323.0419,-168.4509C333.8351,-149.8533 357.8395,-108.4919 371.8235,-84.3964"/>
<polygon fill="#191970" stroke="#191970" points="374.9798,-85.9307 376.9722,-75.5249 368.9255,-82.417 374.9798,-85.9307"/>
</g>
<!-- Node15&#45;&gt;Node5 -->
<g id="edge22" class="edge">
<title>Node15&#45;&gt;Node5</title>
<path fill="none" stroke="#191970" d="M310.7645,-168.4509C297.5299,-149.688 267.952,-107.7548 251.0257,-83.758"/>
<polygon fill="#191970" stroke="#191970" points="253.8426,-81.6792 245.2184,-75.5249 248.1224,-85.714 253.8426,-81.6792"/>
</g>
<!-- Node15&#45;&gt;Node7 -->
<g id="edge18" class="edge">
<title>Node15&#45;&gt;Node7</title>
<path fill="none" stroke="#191970" d="M332.2499,-168.4509C362.381,-148.9441 431.1962,-104.3932 467.3445,-80.9909"/>
<polygon fill="#191970" stroke="#191970" points="469.2951,-83.8975 475.7875,-75.5249 465.4909,-78.0214 469.2951,-83.8975"/>
</g>
<!-- Node16&#45;&gt;Node7 -->
<g id="edge29" class="edge">
<title>Node16&#45;&gt;Node7</title>
<path fill="none" stroke="#191970" d="M650.17,-280.4055C677.0589,-269.614 711.475,-250.1232 699.5,-224 665.2929,-149.3779 575.4496,-101.4463 525.4118,-79.6583"/>
<polygon fill="#191970" stroke="#191970" points="526.536,-76.3333 515.9633,-75.6491 523.8017,-82.7772 526.536,-76.3333"/>
</g>
<!-- Node17 -->
<g id="node18" class="node">
<title>Node17</title>
<polygon fill="none" stroke="#bfbfbf" points="561,-224.5 561,-243.5 608,-243.5 608,-224.5 561,-224.5"/>
<text text-anchor="middle" x="584.5" y="-231.5" font-family="Helvetica,sans-Serif" font-size="10.00" fill="#000000">cmath</text>
</g>
<!-- Node16&#45;&gt;Node17 -->
<g id="edge30" class="edge">
<title>Node16&#45;&gt;Node17</title>
<path fill="none" stroke="#191970" d="M615.0551,-280.2455C609.9618,-272.5367 602.7092,-261.5598 596.548,-252.2348"/>
<polygon fill="#191970" stroke="#191970" points="599.3038,-250.0566 590.8711,-243.6427 593.4635,-253.9155 599.3038,-250.0566"/>
</g>
<!-- Node18 -->
<g id="node19" class="node">
<title>Node18</title>
<polygon fill="none" stroke="#bfbfbf" points="626.5,-224.5 626.5,-243.5 690.5,-243.5 690.5,-224.5 626.5,-224.5"/>
<text text-anchor="middle" x="658.5" y="-231.5" font-family="Helvetica,sans-Serif" font-size="10.00" fill="#000000">algorithm</text>
</g>
<!-- Node16&#45;&gt;Node18 -->
<g id="edge31" class="edge">
<title>Node16&#45;&gt;Node18</title>
<path fill="none" stroke="#191970" d="M627.9449,-280.2455C633.0382,-272.5367 640.2908,-261.5598 646.452,-252.2348"/>
<polygon fill="#191970" stroke="#191970" points="649.5365,-253.9155 652.1289,-243.6427 643.6962,-250.0566 649.5365,-253.9155"/>
</g>
</g>
</svg>
        <g id="navigator" transform="translate(0 0)" fill="#404254">
                <rect fill="#f2f5e9" fill-opacity="0.5" stroke="#606060" stroke-width=".5" x="0" y="0" width="60" height="60"/>
                <use id="zoomplus" xlink:href="#zoomPlus" x="17" y="9" onmousedown="handleZoom(evt,'in')"/>
                <use id="zoomminus" xlink:href="#zoomMin" x="42" y="9" onmousedown="handleZoom(evt,'out')"/>
                <use id="reset" xlink:href="#resetDef" x="30" y="36" onmousedown="handleReset()"/>
                <g id="arrowUp" xlink:href="#dirArrow" transform="translate(30 24)" onmousedown="handlePan(0,-1)">
                  <use xlink:href="#rim" fill="#404040">
                        <set attributeName="fill" to="#808080" begin="arrowUp.mouseover" end="arrowUp.mouseout"/>
                  </use>
                  <path fill="none" stroke="white" stroke-width="1.5" d="M0,-3.0v7 M-2.5,-0.5L0,-3.0L2.5,-0.5"/>
                </g>
                <g id="arrowRight" xlink:href="#dirArrow" transform="rotate(90) translate(36 -43)" onmousedown="handlePan(1,0)">
                  <use xlink:href="#rim" fill="#404040">
                        <set attributeName="fill" to="#808080" begin="arrowRight.mouseover" end="arrowRight.mouseout"/>
                  </use>
                  <path fill="none" stroke="white" stroke-width="1.5" d="M0,-3.0v7 M-2.5,-0.5L0,-3.0L2.5,-0.5"/>
                </g>
                <g id="arrowDown" xlink:href="#dirArrow" transform="rotate(180) translate(-30 -48)" onmousedown="handlePan(0,1)">
                  <use xlink:href="#rim" fill="#404040">
                        <set attributeName="fill" to="#808080" begin="arrowDown.mouseover" end="arrowDown.mouseout"/>
                  </use>
                  <path fill="none" stroke="white" stroke-width="1.5" d="M0,-3.0v7 M-2.5,-0.5L0,-3.0L2.5,-0.5"/>
                </g>
                <g id="arrowLeft" xlink:href="#dirArrow" transform="rotate(270) translate(-36 17)" onmousedown="handlePan(-1,0)">
                  <use xlink:href="#rim" fill="#404040">
                        <set attributeName="fill" to="#808080" begin="arrowLeft.mouseover" end="arrowLeft.mouseout"/>
                  </use>
                  <path fill="none" stroke="white" stroke-width="1.5" d="M0,-3.0v7 M-2.5,-0.5L0,-3.0L2.5,-0.5"/>
                </g>
        </g>
        <svg viewBox="0 0 15 15" width="100%" height="30px" preserveAspectRatio="xMaxYMin meet">
         <g id="arrow_out" transform="scale(0.3 0.3)">
          <a xlink:href="TPCFastTransformHelperO2_8h__incl_org.svg" target="_base">
           <rect id="button" ry="5" rx="5" y="6" x="6" height="38" width="38"
                fill="#f2f5e9" fill-opacity="0.5" stroke="#606060" stroke-width="1.0"/>
           <path id="arrow"
             d="M 11.500037,31.436501 C 11.940474,20.09759 22.043105,11.32322 32.158766,21.979434 L 37.068811,17.246167 C 37.068811,17.246167 37.088388,32 37.088388,32 L 22.160133,31.978069 C 22.160133,31.978069 26.997745,27.140456 26.997745,27.140456 C 18.528582,18.264221 13.291696,25.230495 11.500037,31.436501 z"
             style="fill:#404040;"/>
          </a>
         </g>
        </svg>
</svg>
