<?xml version="1.0" encoding="UTF-8" standalone="no"?>
<!DOCTYPE svg PUBLIC "-//W3C//DTD SVG 1.1//EN"
 "http://www.w3.org/Graphics/SVG/1.1/DTD/svg11.dtd">
<!-- Generated by graphviz version 2.40.1 (20161225.0304)
 -->
<!-- Title: /home/travis/build/AliceO2Group/AliceO2/Detectors/MUON/MCH/Mapping/Interface/include/MCHMappingInterface/CathodeSegmentationCInterface.h Pages: 1 -->
<!--zoomable 461 -->
<svg id="main" version="1.1" xmlns="http://www.w3.org/2000/svg" xmlns:xlink="http://www.w3.org/1999/xlink" xml:space="preserve" onload="init(evt)">
<style type="text/css"><![CDATA[
.edge:hover path { stroke: red; }
.edge:hover polygon { stroke: red; fill: red; }
]]></style>
<script type="text/javascript"><![CDATA[
var edges = document.getElementsByTagName('g');
if (edges && edges.length) {
  for (var i=0;i<edges.length;i++) {
    if (edges[i].id.substr(0,4)=='edge') {
      edges[i].setAttribute('class','edge');
    }
  }
}
]]></script>
        <defs>
                <circle id="rim" cx="0" cy="0" r="7"/>
                <circle id="rim2" cx="0" cy="0" r="3.5"/>
                <g id="zoomPlus">
                        <use xlink:href="#rim" fill="#404040">
                                <set attributeName="fill" to="#808080" begin="zoomplus.mouseover" end="zoomplus.mouseout"/>
                        </use>
                        <path d="M-4,0h8M0,-4v8" fill="none" stroke="white" stroke-width="1.5" pointer-events="none"/>
                </g>
                <g id="zoomMin">
                        <use xlink:href="#rim" fill="#404040">
                                <set attributeName="fill" to="#808080" begin="zoomminus.mouseover" end="zoomminus.mouseout"/>
                        </use>
                        <path d="M-4,0h8" fill="none" stroke="white" stroke-width="1.5" pointer-events="none"/>
                </g>
                <g id="dirArrow">
                        <path fill="none" stroke="white" stroke-width="1.5" d="M0,-3.0v7 M-2.5,-0.5L0,-3.0L2.5,-0.5"/>
                </g>
               <g id="resetDef">
                       <use xlink:href="#rim2" fill="#404040">
                               <set attributeName="fill" to="#808080" begin="reset.mouseover" end="reset.mouseout"/>
                       </use>
               </g>
        </defs>

<script type="text/javascript">
var viewWidth = 2723;
var viewHeight = 461;
var sectionId = 'dynsection-0';
</script>
<script xlink:href="../../svgpan.js"/>
<svg id="graph" class="graph">
<g id="viewport">
<title>/home/travis/build/AliceO2Group/AliceO2/Detectors/MUON/MCH/Mapping/Interface/include/MCHMappingInterface/CathodeSegmentationCInterface.h</title>
<!-- Node1 -->
<g id="node1" class="node">
<title>Node1</title>
<polygon fill="#bfbfbf" stroke="#000000" points="812.5,-389.5 812.5,-452.5 1024.5,-452.5 1024.5,-389.5 812.5,-389.5"/>
<text text-anchor="start" x="820.5" y="-440.5" font-family="Helvetica,sans-Serif" font-size="10.00" fill="#000000">/home/travis/build</text>
<text text-anchor="start" x="820.5" y="-429.5" font-family="Helvetica,sans-Serif" font-size="10.00" fill="#000000">/AliceO2Group/AliceO2</text>
<text text-anchor="start" x="820.5" y="-418.5" font-family="Helvetica,sans-Serif" font-size="10.00" fill="#000000">/Detectors/MUON/MCH/Mapping</text>
<text text-anchor="start" x="820.5" y="-407.5" font-family="Helvetica,sans-Serif" font-size="10.00" fill="#000000">/Interface/include/MCHMappingInterface</text>
<text text-anchor="middle" x="918.5" y="-396.5" font-family="Helvetica,sans-Serif" font-size="10.00" fill="#000000">/CathodeSegmentationCInterface.h</text>
</g>
<!-- Node2 -->
<g id="node2" class="node">
<title>Node2</title>
<g id="a_node2"><a xlink:href="../../d7/d08/CathodeSegmentationCImpl3_8cxx.html" target="_top" xlink:title="/home/travis/build\l/AliceO2Group/AliceO2\l/Detectors/MUON/MCH/Mapping\l/Impl3/src/CathodeSegmentationCImpl3.cxx">
<polygon fill="none" stroke="#000000" points="683,-295 683,-347 914,-347 914,-295 683,-295"/>
<text text-anchor="start" x="691" y="-335" font-family="Helvetica,sans-Serif" font-size="10.00" fill="#000000">/home/travis/build</text>
<text text-anchor="start" x="691" y="-324" font-family="Helvetica,sans-Serif" font-size="10.00" fill="#000000">/AliceO2Group/AliceO2</text>
<text text-anchor="start" x="691" y="-313" font-family="Helvetica,sans-Serif" font-size="10.00" fill="#000000">/Detectors/MUON/MCH/Mapping</text>
<text text-anchor="middle" x="798.5" y="-302" font-family="Helvetica,sans-Serif" font-size="10.00" fill="#000000">/Impl3/src/CathodeSegmentationCImpl3.cxx</text>
</a>
</g>
</g>
<!-- Node1&#45;&gt;Node2 -->
<g id="edge1" class="edge">
<title>Node1&#45;&gt;Node2</title>
<path fill="none" stroke="#191970" d="M872.7078,-382.8399C858.3727,-370.8939 842.8896,-357.9913 829.7936,-347.078"/>
<polygon fill="#191970" stroke="#191970" points="870.6084,-385.6463 880.5313,-389.3594 875.0897,-380.2687 870.6084,-385.6463"/>
</g>
<!-- Node3 -->
<g id="node3" class="node">
<title>Node3</title>
<g id="a_node3"><a xlink:href="../../df/db6/CathodeSegmentation_8h.html" target="_top" xlink:title="/home/travis/build\l/AliceO2Group/AliceO2\l/Detectors/MUON/MCH/Mapping\l/Interface/include/MCHMappingInterface\l/CathodeSegmentation.h">
<polygon fill="none" stroke="#000000" points="932.5,-289.5 932.5,-352.5 1144.5,-352.5 1144.5,-289.5 932.5,-289.5"/>
<text text-anchor="start" x="940.5" y="-340.5" font-family="Helvetica,sans-Serif" font-size="10.00" fill="#000000">/home/travis/build</text>
<text text-anchor="start" x="940.5" y="-329.5" font-family="Helvetica,sans-Serif" font-size="10.00" fill="#000000">/AliceO2Group/AliceO2</text>
<text text-anchor="start" x="940.5" y="-318.5" font-family="Helvetica,sans-Serif" font-size="10.00" fill="#000000">/Detectors/MUON/MCH/Mapping</text>
<text text-anchor="start" x="940.5" y="-307.5" font-family="Helvetica,sans-Serif" font-size="10.00" fill="#000000">/Interface/include/MCHMappingInterface</text>
<text text-anchor="middle" x="1038.5" y="-296.5" font-family="Helvetica,sans-Serif" font-size="10.00" fill="#000000">/CathodeSegmentation.h</text>
</a>
</g>
</g>
<!-- Node1&#45;&gt;Node3 -->
<g id="edge2" class="edge">
<title>Node1&#45;&gt;Node3</title>
<path fill="none" stroke="#191970" d="M964.1784,-382.9347C976.1193,-372.9839 988.8639,-362.3634 1000.3664,-352.778"/>
<polygon fill="#191970" stroke="#191970" points="961.9103,-380.2687 956.4688,-389.3594 966.3916,-385.6463 961.9103,-380.2687"/>
</g>
<!-- Node4 -->
<g id="node4" class="node">
<title>Node4</title>
<g id="a_node4"><a xlink:href="../../d7/d47/CathodeSegmentationImpl3_8cxx.html" target="_top" xlink:title="/home/travis/build\l/AliceO2Group/AliceO2\l/Detectors/MUON/MCH/Mapping\l/Impl3/src/CathodeSegmentationImpl3.cxx">
<polygon fill="none" stroke="#000000" points="407.5,-195 407.5,-247 631.5,-247 631.5,-195 407.5,-195"/>
<text text-anchor="start" x="415.5" y="-235" font-family="Helvetica,sans-Serif" font-size="10.00" fill="#000000">/home/travis/build</text>
<text text-anchor="start" x="415.5" y="-224" font-family="Helvetica,sans-Serif" font-size="10.00" fill="#000000">/AliceO2Group/AliceO2</text>
<text text-anchor="start" x="415.5" y="-213" font-family="Helvetica,sans-Serif" font-size="10.00" fill="#000000">/Detectors/MUON/MCH/Mapping</text>
<text text-anchor="middle" x="519.5" y="-202" font-family="Helvetica,sans-Serif" font-size="10.00" fill="#000000">/Impl3/src/CathodeSegmentationImpl3.cxx</text>
</a>
</g>
</g>
<!-- Node3&#45;&gt;Node4 -->
<g id="edge3" class="edge">
<title>Node3&#45;&gt;Node4</title>
<path fill="none" stroke="#191970" d="M922.8073,-289.0621C922.7048,-289.0414 922.6024,-289.0207 922.5,-289 800.8086,-264.4328 767.4363,-276.3212 645.5,-253 636.3004,-251.2405 626.7723,-249.2106 617.2639,-247.044"/>
<polygon fill="#191970" stroke="#191970" points="921.9336,-292.4546 932.4419,-291.1035 923.3845,-285.6067 921.9336,-292.4546"/>
</g>
<!-- Node5 -->
<g id="node5" class="node">
<title>Node5</title>
<g id="a_node5"><a xlink:href="../../d6/d1f/MUON_2MCH_2Mapping_2Interface_2include_2MCHMappingInterface_2Segmentation_8h.html" target="_top" xlink:title="/home/travis/build\l/AliceO2Group/AliceO2\l/Detectors/MUON/MCH/Mapping\l/Interface/include/MCHMappingInterface\l/Segmentation.h">
<polygon fill="none" stroke="#000000" points="1852.5,-189.5 1852.5,-252.5 2064.5,-252.5 2064.5,-189.5 1852.5,-189.5"/>
<text text-anchor="start" x="1860.5" y="-240.5" font-family="Helvetica,sans-Serif" font-size="10.00" fill="#000000">/home/travis/build</text>
<text text-anchor="start" x="1860.5" y="-229.5" font-family="Helvetica,sans-Serif" font-size="10.00" fill="#000000">/AliceO2Group/AliceO2</text>
<text text-anchor="start" x="1860.5" y="-218.5" font-family="Helvetica,sans-Serif" font-size="10.00" fill="#000000">/Detectors/MUON/MCH/Mapping</text>
<text text-anchor="start" x="1860.5" y="-207.5" font-family="Helvetica,sans-Serif" font-size="10.00" fill="#000000">/Interface/include/MCHMappingInterface</text>
<text text-anchor="middle" x="1958.5" y="-196.5" font-family="Helvetica,sans-Serif" font-size="10.00" fill="#000000">/Segmentation.h</text>
</a>
</g>
</g>
<!-- Node3&#45;&gt;Node5 -->
<g id="edge4" class="edge">
<title>Node3&#45;&gt;Node5</title>
<path fill="none" stroke="#191970" d="M1154.9742,-308.3398C1335.1194,-288.7588 1678.627,-251.421 1852.3142,-232.5419"/>
<polygon fill="#191970" stroke="#191970" points="1154.4977,-304.8709 1144.9344,-309.431 1155.2541,-311.8299 1154.4977,-304.8709"/>
</g>
<!-- Node14 -->
<g id="node14" class="node">
<title>Node14</title>
<g id="a_node14"><a xlink:href="../../d2/d32/CathodeSegmentationContours_8h.html" target="_top" xlink:title="/home/travis/build\l/AliceO2Group/AliceO2\l/Detectors/MUON/MCH/Mapping\l/SegContour/include/MCHMappingSegContour\l/CathodeSegmentationContours.h">
<polygon fill="none" stroke="#000000" points="726,-189.5 726,-252.5 963,-252.5 963,-189.5 726,-189.5"/>
<text text-anchor="start" x="734" y="-240.5" font-family="Helvetica,sans-Serif" font-size="10.00" fill="#000000">/home/travis/build</text>
<text text-anchor="start" x="734" y="-229.5" font-family="Helvetica,sans-Serif" font-size="10.00" fill="#000000">/AliceO2Group/AliceO2</text>
<text text-anchor="start" x="734" y="-218.5" font-family="Helvetica,sans-Serif" font-size="10.00" fill="#000000">/Detectors/MUON/MCH/Mapping</text>
<text text-anchor="start" x="734" y="-207.5" font-family="Helvetica,sans-Serif" font-size="10.00" fill="#000000">/SegContour/include/MCHMappingSegContour</text>
<text text-anchor="middle" x="844.5" y="-196.5" font-family="Helvetica,sans-Serif" font-size="10.00" fill="#000000">/CathodeSegmentationContours.h</text>
</a>
</g>
</g>
<!-- Node3&#45;&gt;Node14 -->
<g id="edge14" class="edge">
<title>Node3&#45;&gt;Node14</title>
<path fill="none" stroke="#191970" d="M968.3943,-284.863C947.8576,-274.2771 925.5746,-262.7911 905.6425,-252.5168"/>
<polygon fill="#191970" stroke="#191970" points="966.8912,-288.0258 977.3835,-289.4966 970.0985,-281.8038 966.8912,-288.0258"/>
</g>
<!-- Node16 -->
<g id="node16" class="node">
<title>Node16</title>
<g id="a_node16"><a xlink:href="../../de/d54/CathodeSegmentationSVGWriter_8cxx.html" target="_top" xlink:title="/home/travis/build\l/AliceO2Group/AliceO2\l/Detectors/MUON/MCH/Mapping\l/SegContour/src/CathodeSegmentation\lSVGWriter.cxx">
<polygon fill="none" stroke="#000000" points="0,-89.5 0,-152.5 205,-152.5 205,-89.5 0,-89.5"/>
<text text-anchor="start" x="8" y="-140.5" font-family="Helvetica,sans-Serif" font-size="10.00" fill="#000000">/home/travis/build</text>
<text text-anchor="start" x="8" y="-129.5" font-family="Helvetica,sans-Serif" font-size="10.00" fill="#000000">/AliceO2Group/AliceO2</text>
<text text-anchor="start" x="8" y="-118.5" font-family="Helvetica,sans-Serif" font-size="10.00" fill="#000000">/Detectors/MUON/MCH/Mapping</text>
<text text-anchor="start" x="8" y="-107.5" font-family="Helvetica,sans-Serif" font-size="10.00" fill="#000000">/SegContour/src/CathodeSegmentation</text>
<text text-anchor="middle" x="102.5" y="-96.5" font-family="Helvetica,sans-Serif" font-size="10.00" fill="#000000">SVGWriter.cxx</text>
</a>
</g>
</g>
<!-- Node3&#45;&gt;Node16 -->
<g id="edge23" class="edge">
<title>Node3&#45;&gt;Node16</title>
<path fill="none" stroke="#191970" d="M922.8068,-289.0643C922.7045,-289.0428 922.6022,-289.0214 922.5,-289 813.0554,-266.0871 764.5606,-317.8929 673.5,-253 647.4377,-234.4271 667.103,-206.7898 640.5,-189 561.3424,-136.0662 307.146,-170.2724 213.5,-153 210.7388,-152.4907 207.9476,-151.9414 205.138,-151.358"/>
<polygon fill="#191970" stroke="#191970" points="921.9127,-292.4515 932.4292,-291.1654 923.406,-285.6126 921.9127,-292.4515"/>
</g>
<!-- Node17 -->
<g id="node17" class="node">
<title>Node17</title>
<g id="a_node17"><a xlink:href="../../de/d56/SegmentationSVGWriter_8cxx.html" target="_top" xlink:title="/home/travis/build\l/AliceO2Group/AliceO2\l/Detectors/MUON/MCH/Mapping\l/SegContour/src/SegmentationSVGWriter.cxx">
<polygon fill="none" stroke="#000000" points="223,-95 223,-147 456,-147 456,-95 223,-95"/>
<text text-anchor="start" x="231" y="-135" font-family="Helvetica,sans-Serif" font-size="10.00" fill="#000000">/home/travis/build</text>
<text text-anchor="start" x="231" y="-124" font-family="Helvetica,sans-Serif" font-size="10.00" fill="#000000">/AliceO2Group/AliceO2</text>
<text text-anchor="start" x="231" y="-113" font-family="Helvetica,sans-Serif" font-size="10.00" fill="#000000">/Detectors/MUON/MCH/Mapping</text>
<text text-anchor="middle" x="339.5" y="-102" font-family="Helvetica,sans-Serif" font-size="10.00" fill="#000000">/SegContour/src/SegmentationSVGWriter.cxx</text>
</a>
</g>
</g>
<!-- Node3&#45;&gt;Node17 -->
<g id="edge24" class="edge">
<title>Node3&#45;&gt;Node17</title>
<path fill="none" stroke="#191970" d="M922.8059,-289.0688C922.7039,-289.0458 922.6019,-289.0229 922.5,-289 831.8192,-268.6183 794.4413,-303.6317 716.5,-253 687.7628,-234.332 702.2599,-207.633 673.5,-189 594.3946,-137.7489 556.6743,-172.7037 464.5,-153 455.9565,-151.1737 447.1151,-149.1612 438.2647,-147.0616"/>
<polygon fill="#191970" stroke="#191970" points="921.8697,-292.4446 932.4017,-291.2921 923.4497,-285.6252 921.8697,-292.4446"/>
</g>
<!-- Node18 -->
<g id="node18" class="node">
<title>Node18</title>
<g id="a_node18"><a xlink:href="../../d2/d0f/SVGSegmentation_8cxx.html" target="_top" xlink:title="/home/travis/build\l/AliceO2Group/AliceO2\l/Detectors/MUON/MCH/Mapping\l/SegContour/src/SVGSegmentation.cxx">
<polygon fill="none" stroke="#000000" points="736,-95 736,-147 941,-147 941,-95 736,-95"/>
<text text-anchor="start" x="744" y="-135" font-family="Helvetica,sans-Serif" font-size="10.00" fill="#000000">/home/travis/build</text>
<text text-anchor="start" x="744" y="-124" font-family="Helvetica,sans-Serif" font-size="10.00" fill="#000000">/AliceO2Group/AliceO2</text>
<text text-anchor="start" x="744" y="-113" font-family="Helvetica,sans-Serif" font-size="10.00" fill="#000000">/Detectors/MUON/MCH/Mapping</text>
<text text-anchor="middle" x="838.5" y="-102" font-family="Helvetica,sans-Serif" font-size="10.00" fill="#000000">/SegContour/src/SVGSegmentation.cxx</text>
</a>
</g>
</g>
<!-- Node3&#45;&gt;Node18 -->
<g id="edge25" class="edge">
<title>Node3&#45;&gt;Node18</title>
<path fill="none" stroke="#191970" d="M1025.2402,-279.6723C1014.4458,-251.3277 996.8218,-214.3963 971.5,-189 954.1049,-171.5537 931.3048,-157.6915 909.5066,-147.1559"/>
<polygon fill="#191970" stroke="#191970" points="1022.0448,-281.1244 1028.7749,-289.307 1028.6165,-278.7134 1022.0448,-281.1244"/>
</g>
<!-- Node19 -->
<g id="node19" class="node">
<title>Node19</title>
<g id="a_node19"><a xlink:href="../../d8/df7/BenchCathodeSegmentation_8cxx.html" target="_top" xlink:title="/home/travis/build\l/AliceO2Group/AliceO2\l/Detectors/MUON/MCH/Mapping\l/test/src/BenchCathodeSegmentation.cxx">
<polygon fill="none" stroke="#000000" points="959.5,-95 959.5,-147 1177.5,-147 1177.5,-95 959.5,-95"/>
<text text-anchor="start" x="967.5" y="-135" font-family="Helvetica,sans-Serif" font-size="10.00" fill="#000000">/home/travis/build</text>
<text text-anchor="start" x="967.5" y="-124" font-family="Helvetica,sans-Serif" font-size="10.00" fill="#000000">/AliceO2Group/AliceO2</text>
<text text-anchor="start" x="967.5" y="-113" font-family="Helvetica,sans-Serif" font-size="10.00" fill="#000000">/Detectors/MUON/MCH/Mapping</text>
<text text-anchor="middle" x="1068.5" y="-102" font-family="Helvetica,sans-Serif" font-size="10.00" fill="#000000">/test/src/BenchCathodeSegmentation.cxx</text>
</a>
</g>
</g>
<!-- Node3&#45;&gt;Node19 -->
<g id="edge26" class="edge">
<title>Node3&#45;&gt;Node19</title>
<path fill="none" stroke="#191970" d="M1044.7441,-279.3728C1050.7164,-239.5576 1059.5381,-180.7459 1064.5813,-147.1249"/>
<polygon fill="#191970" stroke="#191970" points="1041.2758,-278.9008 1043.2536,-289.3094 1048.1984,-279.9393 1041.2758,-278.9008"/>
</g>
<!-- Node20 -->
<g id="node20" class="node">
<title>Node20</title>
<g id="a_node20"><a xlink:href="../../df/dc1/CathodeSegmentation_8cxx.html" target="_top" xlink:title="/home/travis/build\l/AliceO2Group/AliceO2\l/Detectors/MUON/MCH/Mapping\l/test/src/CathodeSegmentation.cxx">
<polygon fill="none" stroke="#000000" points="1195.5,-95 1195.5,-147 1383.5,-147 1383.5,-95 1195.5,-95"/>
<text text-anchor="start" x="1203.5" y="-135" font-family="Helvetica,sans-Serif" font-size="10.00" fill="#000000">/home/travis/build</text>
<text text-anchor="start" x="1203.5" y="-124" font-family="Helvetica,sans-Serif" font-size="10.00" fill="#000000">/AliceO2Group/AliceO2</text>
<text text-anchor="start" x="1203.5" y="-113" font-family="Helvetica,sans-Serif" font-size="10.00" fill="#000000">/Detectors/MUON/MCH/Mapping</text>
<text text-anchor="middle" x="1289.5" y="-102" font-family="Helvetica,sans-Serif" font-size="10.00" fill="#000000">/test/src/CathodeSegmentation.cxx</text>
</a>
</g>
</g>
<!-- Node3&#45;&gt;Node20 -->
<g id="edge27" class="edge">
<title>Node3&#45;&gt;Node20</title>
<path fill="none" stroke="#191970" d="M1086.3511,-282.8717C1136.2946,-243.076 1213.2647,-181.7453 1256.7133,-147.1249"/>
<polygon fill="#191970" stroke="#191970" points="1083.9114,-280.3403 1078.2717,-289.3094 1088.2737,-285.8149 1083.9114,-280.3403"/>
</g>
<!-- Node21 -->
<g id="node21" class="node">
<title>Node21</title>
<g id="a_node21"><a xlink:href="../../d2/dba/CathodeSegmentationLong_8cxx.html" target="_top" xlink:title="/home/travis/build\l/AliceO2Group/AliceO2\l/Detectors/MUON/MCH/Mapping\l/test/src/CathodeSegmentationLong.cxx">
<polygon fill="none" stroke="#000000" points="1402,-95 1402,-147 1613,-147 1613,-95 1402,-95"/>
<text text-anchor="start" x="1410" y="-135" font-family="Helvetica,sans-Serif" font-size="10.00" fill="#000000">/home/travis/build</text>
<text text-anchor="start" x="1410" y="-124" font-family="Helvetica,sans-Serif" font-size="10.00" fill="#000000">/AliceO2Group/AliceO2</text>
<text text-anchor="start" x="1410" y="-113" font-family="Helvetica,sans-Serif" font-size="10.00" fill="#000000">/Detectors/MUON/MCH/Mapping</text>
<text text-anchor="middle" x="1507.5" y="-102" font-family="Helvetica,sans-Serif" font-size="10.00" fill="#000000">/test/src/CathodeSegmentationLong.cxx</text>
</a>
</g>
</g>
<!-- Node3&#45;&gt;Node21 -->
<g id="edge28" class="edge">
<title>Node3&#45;&gt;Node21</title>
<path fill="none" stroke="#191970" d="M1121.9534,-285.4122C1215.1158,-245.6841 1363.6468,-182.3447 1446.5244,-147.0024"/>
<polygon fill="#191970" stroke="#191970" points="1120.3813,-282.2776 1112.5556,-289.4198 1123.1271,-288.7166 1120.3813,-282.2776"/>
</g>
<!-- Node22 -->
<g id="node22" class="node">
<title>Node22</title>
<g id="a_node22"><a xlink:href="../../df/da1/MCH_2Simulation_2test_2testGeometry_8cxx.html" target="_top" xlink:title="/home/travis/build\l/AliceO2Group/AliceO2\l/Detectors/MUON/MCH/Simulation\l/test/testGeometry.cxx">
<polygon fill="none" stroke="#000000" points="2082.5,-195 2082.5,-247 2264.5,-247 2264.5,-195 2082.5,-195"/>
<text text-anchor="start" x="2090.5" y="-235" font-family="Helvetica,sans-Serif" font-size="10.00" fill="#000000">/home/travis/build</text>
<text text-anchor="start" x="2090.5" y="-224" font-family="Helvetica,sans-Serif" font-size="10.00" fill="#000000">/AliceO2Group/AliceO2</text>
<text text-anchor="start" x="2090.5" y="-213" font-family="Helvetica,sans-Serif" font-size="10.00" fill="#000000">/Detectors/MUON/MCH/Simulation</text>
<text text-anchor="middle" x="2173.5" y="-202" font-family="Helvetica,sans-Serif" font-size="10.00" fill="#000000">/test/testGeometry.cxx</text>
</a>
</g>
</g>
<!-- Node3&#45;&gt;Node22 -->
<g id="edge29" class="edge">
<title>Node3&#45;&gt;Node22</title>
<path fill="none" stroke="#191970" d="M1154.8518,-316.9324C1387.0257,-308.2276 1900.3764,-285.8742 2073.5,-253 2081.8274,-251.4187 2090.4289,-249.3561 2098.9302,-247.0392"/>
<polygon fill="#191970" stroke="#191970" points="1154.5482,-313.4412 1144.6856,-317.3116 1154.8092,-320.4363 1154.5482,-313.4412"/>
</g>
<!-- Node6 -->
<g id="node6" class="node">
<title>Node6</title>
<g id="a_node6"><a xlink:href="../../d0/d28/CreateSegmentation_8h.html" target="_top" xlink:title="/home/travis/build\l/AliceO2Group/AliceO2\l/Detectors/MUON/MCH/Mapping\l/Factory/include/MCHMappingFactory\l/CreateSegmentation.h">
<polygon fill="none" stroke="#000000" points="1924,-89.5 1924,-152.5 2119,-152.5 2119,-89.5 1924,-89.5"/>
<text text-anchor="start" x="1932" y="-140.5" font-family="Helvetica,sans-Serif" font-size="10.00" fill="#000000">/home/travis/build</text>
<text text-anchor="start" x="1932" y="-129.5" font-family="Helvetica,sans-Serif" font-size="10.00" fill="#000000">/AliceO2Group/AliceO2</text>
<text text-anchor="start" x="1932" y="-118.5" font-family="Helvetica,sans-Serif" font-size="10.00" fill="#000000">/Detectors/MUON/MCH/Mapping</text>
<text text-anchor="start" x="1932" y="-107.5" font-family="Helvetica,sans-Serif" font-size="10.00" fill="#000000">/Factory/include/MCHMappingFactory</text>
<text text-anchor="middle" x="2021.5" y="-96.5" font-family="Helvetica,sans-Serif" font-size="10.00" fill="#000000">/CreateSegmentation.h</text>
</a>
</g>
</g>
<!-- Node5&#45;&gt;Node6 -->
<g id="edge5" class="edge">
<title>Node5&#45;&gt;Node6</title>
<path fill="none" stroke="#191970" d="M1983.9209,-180.6493C1989.7659,-171.3716 1995.9011,-161.6331 2001.4798,-152.778"/>
<polygon fill="#191970" stroke="#191970" points="1980.8027,-179.0328 1978.4336,-189.3594 1986.7253,-182.7641 1980.8027,-179.0328"/>
</g>
<!-- Node8 -->
<g id="node8" class="node">
<title>Node8</title>
<g id="a_node8"><a xlink:href="../../dd/d1c/SegmentationContours_8h.html" target="_top" xlink:title="/home/travis/build\l/AliceO2Group/AliceO2\l/Detectors/MUON/MCH/Mapping\l/SegContour/include/MCHMappingSegContour\l/SegmentationContours.h">
<polygon fill="none" stroke="#000000" points="1631,-89.5 1631,-152.5 1868,-152.5 1868,-89.5 1631,-89.5"/>
<text text-anchor="start" x="1639" y="-140.5" font-family="Helvetica,sans-Serif" font-size="10.00" fill="#000000">/home/travis/build</text>
<text text-anchor="start" x="1639" y="-129.5" font-family="Helvetica,sans-Serif" font-size="10.00" fill="#000000">/AliceO2Group/AliceO2</text>
<text text-anchor="start" x="1639" y="-118.5" font-family="Helvetica,sans-Serif" font-size="10.00" fill="#000000">/Detectors/MUON/MCH/Mapping</text>
<text text-anchor="start" x="1639" y="-107.5" font-family="Helvetica,sans-Serif" font-size="10.00" fill="#000000">/SegContour/include/MCHMappingSegContour</text>
<text text-anchor="middle" x="1749.5" y="-96.5" font-family="Helvetica,sans-Serif" font-size="10.00" fill="#000000">/SegmentationContours.h</text>
</a>
</g>
</g>
<!-- Node5&#45;&gt;Node8 -->
<g id="edge7" class="edge">
<title>Node5&#45;&gt;Node8</title>
<path fill="none" stroke="#191970" d="M1883.5686,-185.1476C1861.28,-174.4833 1837.0359,-162.8832 1815.37,-152.5168"/>
<polygon fill="#191970" stroke="#191970" points="1882.1267,-188.3377 1892.658,-189.4966 1885.148,-182.0233 1882.1267,-188.3377"/>
</g>
<!-- Node10 -->
<g id="node10" class="node">
<title>Node10</title>
<g id="a_node10"><a xlink:href="../../d5/d2d/MUON_2MCH_2Mapping_2test_2src_2Segmentation_8cxx.html" target="_top" xlink:title="/home/travis/build\l/AliceO2Group/AliceO2\l/Detectors/MUON/MCH/Mapping\l/test/src/Segmentation.cxx">
<polygon fill="none" stroke="#000000" points="1699.5,-.5 1699.5,-52.5 1869.5,-52.5 1869.5,-.5 1699.5,-.5"/>
<text text-anchor="start" x="1707.5" y="-40.5" font-family="Helvetica,sans-Serif" font-size="10.00" fill="#000000">/home/travis/build</text>
<text text-anchor="start" x="1707.5" y="-29.5" font-family="Helvetica,sans-Serif" font-size="10.00" fill="#000000">/AliceO2Group/AliceO2</text>
<text text-anchor="start" x="1707.5" y="-18.5" font-family="Helvetica,sans-Serif" font-size="10.00" fill="#000000">/Detectors/MUON/MCH/Mapping</text>
<text text-anchor="middle" x="1784.5" y="-7.5" font-family="Helvetica,sans-Serif" font-size="10.00" fill="#000000">/test/src/Segmentation.cxx</text>
</a>
</g>
</g>
<!-- Node5&#45;&gt;Node10 -->
<g id="edge11" class="edge">
<title>Node5&#45;&gt;Node10</title>
<path fill="none" stroke="#191970" d="M1932.7968,-180.7662C1927.0557,-171.6654 1921.0312,-162.0249 1915.5,-153 1898.2137,-124.7953 1900.2286,-113.0361 1877.5,-89 1864.4017,-75.1482 1847.703,-62.7425 1832.0801,-52.7058"/>
<polygon fill="#191970" stroke="#191970" points="1929.8845,-182.7093 1938.1889,-189.2886 1935.7999,-178.9666 1929.8845,-182.7093"/>
</g>
<!-- Node11 -->
<g id="node11" class="node">
<title>Node11</title>
<g id="a_node11"><a xlink:href="../../da/d72/BenchSegmentation_8cxx.html" target="_top" xlink:title="/home/travis/build\l/AliceO2Group/AliceO2\l/Detectors/MUON/MCH/Mapping\l/test/src/BenchSegmentation.cxx">
<polygon fill="none" stroke="#000000" points="2137,-95 2137,-147 2314,-147 2314,-95 2137,-95"/>
<text text-anchor="start" x="2145" y="-135" font-family="Helvetica,sans-Serif" font-size="10.00" fill="#000000">/home/travis/build</text>
<text text-anchor="start" x="2145" y="-124" font-family="Helvetica,sans-Serif" font-size="10.00" fill="#000000">/AliceO2Group/AliceO2</text>
<text text-anchor="start" x="2145" y="-113" font-family="Helvetica,sans-Serif" font-size="10.00" fill="#000000">/Detectors/MUON/MCH/Mapping</text>
<text text-anchor="middle" x="2225.5" y="-102" font-family="Helvetica,sans-Serif" font-size="10.00" fill="#000000">/test/src/BenchSegmentation.cxx</text>
</a>
</g>
</g>
<!-- Node5&#45;&gt;Node11 -->
<g id="edge10" class="edge">
<title>Node5&#45;&gt;Node11</title>
<path fill="none" stroke="#191970" d="M2052.1111,-185.9397C2086.1707,-173.1832 2124.0447,-158.9982 2155.6854,-147.1478"/>
<polygon fill="#191970" stroke="#191970" points="2050.7511,-182.7115 2042.614,-189.4966 2053.2063,-189.2668 2050.7511,-182.7115"/>
</g>
<!-- Node12 -->
<g id="node12" class="node">
<title>Node12</title>
<g id="a_node12"><a xlink:href="../../d7/de0/MUON_2MCH_2Simulation_2src_2Digitizer_8cxx.html" target="_top" xlink:title="/home/travis/build\l/AliceO2Group/AliceO2\l/Detectors/MUON/MCH/Simulation\l/src/Digitizer.cxx">
<polygon fill="none" stroke="#000000" points="2332.5,-95 2332.5,-147 2514.5,-147 2514.5,-95 2332.5,-95"/>
<text text-anchor="start" x="2340.5" y="-135" font-family="Helvetica,sans-Serif" font-size="10.00" fill="#000000">/home/travis/build</text>
<text text-anchor="start" x="2340.5" y="-124" font-family="Helvetica,sans-Serif" font-size="10.00" fill="#000000">/AliceO2Group/AliceO2</text>
<text text-anchor="start" x="2340.5" y="-113" font-family="Helvetica,sans-Serif" font-size="10.00" fill="#000000">/Detectors/MUON/MCH/Simulation</text>
<text text-anchor="middle" x="2423.5" y="-102" font-family="Helvetica,sans-Serif" font-size="10.00" fill="#000000">/src/Digitizer.cxx</text>
</a>
</g>
</g>
<!-- Node5&#45;&gt;Node12 -->
<g id="edge12" class="edge">
<title>Node5&#45;&gt;Node12</title>
<path fill="none" stroke="#191970" d="M2074.467,-188.9074C2185.1608,-166.5717 2217.2046,-177.4806 2323.5,-153 2331.0494,-151.2613 2338.8483,-149.218 2346.6058,-147.019"/>
<polygon fill="#191970" stroke="#191970" points="2073.6703,-185.498 2064.584,-190.9468 2075.085,-192.3535 2073.6703,-185.498"/>
</g>
<!-- Node13 -->
<g id="node13" class="node">
<title>Node13</title>
<g id="a_node13"><a xlink:href="../../dc/dc3/testDigitization_8cxx.html" target="_top" xlink:title="/home/travis/build\l/AliceO2Group/AliceO2\l/Detectors/MUON/MCH/Simulation\l/test/testDigitization.cxx">
<polygon fill="none" stroke="#000000" points="2532.5,-95 2532.5,-147 2714.5,-147 2714.5,-95 2532.5,-95"/>
<text text-anchor="start" x="2540.5" y="-135" font-family="Helvetica,sans-Serif" font-size="10.00" fill="#000000">/home/travis/build</text>
<text text-anchor="start" x="2540.5" y="-124" font-family="Helvetica,sans-Serif" font-size="10.00" fill="#000000">/AliceO2Group/AliceO2</text>
<text text-anchor="start" x="2540.5" y="-113" font-family="Helvetica,sans-Serif" font-size="10.00" fill="#000000">/Detectors/MUON/MCH/Simulation</text>
<text text-anchor="middle" x="2623.5" y="-102" font-family="Helvetica,sans-Serif" font-size="10.00" fill="#000000">/test/testDigitization.cxx</text>
</a>
</g>
</g>
<!-- Node5&#45;&gt;Node13 -->
<g id="edge13" class="edge">
<title>Node5&#45;&gt;Node13</title>
<path fill="none" stroke="#191970" d="M2074.4025,-188.9789C2272.8816,-155.1471 2329.8263,-191.2055 2523.5,-153 2531.6371,-151.3948 2540.0406,-149.3494 2548.3589,-147.0709"/>
<polygon fill="#191970" stroke="#191970" points="2073.7866,-185.5334 2064.5358,-190.698 2074.9882,-192.4295 2073.7866,-185.5334"/>
</g>
<!-- Node7 -->
<g id="node7" class="node">
<title>Node7</title>
<g id="a_node7"><a xlink:href="../../d2/d7e/CreateSegmentation_8cxx.html" target="_top" xlink:title="/home/travis/build\l/AliceO2Group/AliceO2\l/Detectors/MUON/MCH/Mapping\l/Factory/src/CreateSegmentation.cxx">
<polygon fill="none" stroke="#000000" points="1923.5,-.5 1923.5,-52.5 2119.5,-52.5 2119.5,-.5 1923.5,-.5"/>
<text text-anchor="start" x="1931.5" y="-40.5" font-family="Helvetica,sans-Serif" font-size="10.00" fill="#000000">/home/travis/build</text>
<text text-anchor="start" x="1931.5" y="-29.5" font-family="Helvetica,sans-Serif" font-size="10.00" fill="#000000">/AliceO2Group/AliceO2</text>
<text text-anchor="start" x="1931.5" y="-18.5" font-family="Helvetica,sans-Serif" font-size="10.00" fill="#000000">/Detectors/MUON/MCH/Mapping</text>
<text text-anchor="middle" x="2021.5" y="-7.5" font-family="Helvetica,sans-Serif" font-size="10.00" fill="#000000">/Factory/src/CreateSegmentation.cxx</text>
</a>
</g>
</g>
<!-- Node6&#45;&gt;Node7 -->
<g id="edge6" class="edge">
<title>Node6&#45;&gt;Node7</title>
<path fill="none" stroke="#191970" d="M2021.5,-79.2457C2021.5,-70.2008 2021.5,-60.8836 2021.5,-52.6442"/>
<polygon fill="#191970" stroke="#191970" points="2018.0001,-79.2699 2021.5,-89.27 2025.0001,-79.27 2018.0001,-79.2699"/>
</g>
<!-- Node9 -->
<g id="node9" class="node">
<title>Node9</title>
<g id="a_node9"><a xlink:href="../../de/de2/SegmentationContours_8cxx.html" target="_top" xlink:title="/home/travis/build\l/AliceO2Group/AliceO2\l/Detectors/MUON/MCH/Mapping\l/SegContour/src/SegmentationContours.cxx">
<polygon fill="none" stroke="#000000" points="1041.5,-.5 1041.5,-52.5 1269.5,-52.5 1269.5,-.5 1041.5,-.5"/>
<text text-anchor="start" x="1049.5" y="-40.5" font-family="Helvetica,sans-Serif" font-size="10.00" fill="#000000">/home/travis/build</text>
<text text-anchor="start" x="1049.5" y="-29.5" font-family="Helvetica,sans-Serif" font-size="10.00" fill="#000000">/AliceO2Group/AliceO2</text>
<text text-anchor="start" x="1049.5" y="-18.5" font-family="Helvetica,sans-Serif" font-size="10.00" fill="#000000">/Detectors/MUON/MCH/Mapping</text>
<text text-anchor="middle" x="1155.5" y="-7.5" font-family="Helvetica,sans-Serif" font-size="10.00" fill="#000000">/SegContour/src/SegmentationContours.cxx</text>
</a>
</g>
</g>
<!-- Node8&#45;&gt;Node9 -->
<g id="edge8" class="edge">
<title>Node8&#45;&gt;Node9</title>
<path fill="none" stroke="#191970" d="M1620.8133,-88.7432C1495.7488,-65.1163 1362.2088,-48.3728 1269.8026,-38.1218"/>
<polygon fill="#191970" stroke="#191970" points="1620.4756,-92.2418 1630.9544,-90.6779 1621.7875,-85.3658 1620.4756,-92.2418"/>
</g>
<!-- Node8&#45;&gt;Node10 -->
<g id="edge9" class="edge">
<title>Node8&#45;&gt;Node10</title>
<path fill="none" stroke="#191970" d="M1764.7486,-79.8289C1768.1659,-70.6021 1771.6997,-61.0608 1774.817,-52.6442"/>
<polygon fill="#191970" stroke="#191970" points="1761.4429,-78.6769 1761.2519,-89.27 1768.0072,-81.1081 1761.4429,-78.6769"/>
</g>
<!-- Node14&#45;&gt;Node9 -->
<g id="edge17" class="edge">
<title>Node14&#45;&gt;Node9</title>
<path fill="none" stroke="#191970" d="M754.666,-183.5178C743.4227,-175.1127 733.4495,-165.0256 726.5,-153 712.2678,-128.3721 707.893,-110.5143 726.5,-89 746.9326,-65.3749 921.2488,-46.1092 1041.2895,-35.4829"/>
<polygon fill="#191970" stroke="#191970" points="752.8429,-186.5129 763.0524,-189.3444 756.837,-180.7642 752.8429,-186.5129"/>
</g>
<!-- Node15 -->
<g id="node15" class="node">
<title>Node15</title>
<g id="a_node15"><a xlink:href="../../da/d65/CathodeSegmentationContours_8cxx.html" target="_top" xlink:title="/home/travis/build\l/AliceO2Group/AliceO2\l/Detectors/MUON/MCH/Mapping\l/SegContour/src/CathodeSegmentation\lContours.cxx">
<polygon fill="none" stroke="#000000" points="474,-89.5 474,-152.5 679,-152.5 679,-89.5 474,-89.5"/>
<text text-anchor="start" x="482" y="-140.5" font-family="Helvetica,sans-Serif" font-size="10.00" fill="#000000">/home/travis/build</text>
<text text-anchor="start" x="482" y="-129.5" font-family="Helvetica,sans-Serif" font-size="10.00" fill="#000000">/AliceO2Group/AliceO2</text>
<text text-anchor="start" x="482" y="-118.5" font-family="Helvetica,sans-Serif" font-size="10.00" fill="#000000">/Detectors/MUON/MCH/Mapping</text>
<text text-anchor="start" x="482" y="-107.5" font-family="Helvetica,sans-Serif" font-size="10.00" fill="#000000">/SegContour/src/CathodeSegmentation</text>
<text text-anchor="middle" x="576.5" y="-96.5" font-family="Helvetica,sans-Serif" font-size="10.00" fill="#000000">Contours.cxx</text>
</a>
</g>
</g>
<!-- Node14&#45;&gt;Node15 -->
<g id="edge15" class="edge">
<title>Node14&#45;&gt;Node15</title>
<path fill="none" stroke="#191970" d="M750.6967,-185.9988C721.4955,-175.1028 689.4878,-163.1596 660.9649,-152.5168"/>
<polygon fill="#191970" stroke="#191970" points="749.4784,-189.2798 760.071,-189.4966 751.9255,-182.7215 749.4784,-189.2798"/>
</g>
<!-- Node14&#45;&gt;Node16 -->
<g id="edge16" class="edge">
<title>Node14&#45;&gt;Node16</title>
<path fill="none" stroke="#191970" d="M715.386,-195.3241C701.2843,-192.9719 687.113,-190.8012 673.5,-189 470.2022,-162.1012 415.2788,-189.5904 213.5,-153 210.7373,-152.499 207.9447,-151.9571 205.1339,-151.3803"/>
<polygon fill="#191970" stroke="#191970" points="715.1879,-198.8405 725.6331,-197.0662 716.3612,-191.9395 715.1879,-198.8405"/>
</g>
<!-- Node14&#45;&gt;Node17 -->
<g id="edge18" class="edge">
<title>Node14&#45;&gt;Node17</title>
<path fill="none" stroke="#191970" d="M715.8955,-189.8585C714.4231,-189.5672 712.9575,-189.2809 711.5,-189 602.5676,-168.0025 573.2773,-174.7869 464.5,-153 455.6042,-151.2183 446.3945,-149.1994 437.193,-147.063"/>
<polygon fill="#191970" stroke="#191970" points="715.2033,-193.2893 725.6996,-191.8475 716.5952,-186.429 715.2033,-193.2893"/>
</g>
<!-- Node14&#45;&gt;Node18 -->
<g id="edge19" class="edge">
<title>Node14&#45;&gt;Node18</title>
<path fill="none" stroke="#191970" d="M841.9898,-179.1631C841.3372,-168.2863 840.6528,-156.8798 840.0647,-147.078"/>
<polygon fill="#191970" stroke="#191970" points="838.5088,-179.587 842.6016,-189.3594 845.4963,-179.1677 838.5088,-179.587"/>
</g>
<!-- Node14&#45;&gt;Node19 -->
<g id="edge20" class="edge">
<title>Node14&#45;&gt;Node19</title>
<path fill="none" stroke="#191970" d="M924.5032,-185.2843C952.6943,-172.699 983.8377,-158.7957 1009.9289,-147.1478"/>
<polygon fill="#191970" stroke="#191970" points="922.7721,-182.2241 915.0675,-189.4966 925.6257,-188.6161 922.7721,-182.2241"/>
</g>
<!-- Node14&#45;&gt;Node20 -->
<g id="edge21" class="edge">
<title>Node14&#45;&gt;Node20</title>
<path fill="none" stroke="#191970" d="M973.31,-198.6962C1037.7011,-186.7099 1116.6034,-170.7543 1186.5,-153 1193.6688,-151.1791 1201.0774,-149.1582 1208.4814,-147.0425"/>
<polygon fill="#191970" stroke="#191970" points="972.2997,-195.3237 963.1038,-200.5855 973.5739,-202.2067 972.2997,-195.3237"/>
</g>
<!-- Node14&#45;&gt;Node21 -->
<g id="edge22" class="edge">
<title>Node14&#45;&gt;Node21</title>
<path fill="none" stroke="#191970" d="M973.4576,-210.428C1085.0577,-199.9889 1250.4037,-181.4237 1392.5,-153 1401.1365,-151.2724 1410.075,-149.2365 1418.9771,-147.0422"/>
<polygon fill="#191970" stroke="#191970" points="972.7994,-206.9739 963.1651,-211.382 973.4455,-213.944 972.7994,-206.9739"/>
</g>
</g>
</svg>
        <g id="navigator" transform="translate(0 0)" fill="#404254">
                <rect fill="#f2f5e9" fill-opacity="0.5" stroke="#606060" stroke-width=".5" x="0" y="0" width="60" height="60"/>
                <use id="zoomplus" xlink:href="#zoomPlus" x="17" y="9" onmousedown="handleZoom(evt,'in')"/>
                <use id="zoomminus" xlink:href="#zoomMin" x="42" y="9" onmousedown="handleZoom(evt,'out')"/>
                <use id="reset" xlink:href="#resetDef" x="30" y="36" onmousedown="handleReset()"/>
                <g id="arrowUp" xlink:href="#dirArrow" transform="translate(30 24)" onmousedown="handlePan(0,-1)">
                  <use xlink:href="#rim" fill="#404040">
                        <set attributeName="fill" to="#808080" begin="arrowUp.mouseover" end="arrowUp.mouseout"/>
                  </use>
                  <path fill="none" stroke="white" stroke-width="1.5" d="M0,-3.0v7 M-2.5,-0.5L0,-3.0L2.5,-0.5"/>
                </g>
                <g id="arrowRight" xlink:href="#dirArrow" transform="rotate(90) translate(36 -43)" onmousedown="handlePan(1,0)">
                  <use xlink:href="#rim" fill="#404040">
                        <set attributeName="fill" to="#808080" begin="arrowRight.mouseover" end="arrowRight.mouseout"/>
                  </use>
                  <path fill="none" stroke="white" stroke-width="1.5" d="M0,-3.0v7 M-2.5,-0.5L0,-3.0L2.5,-0.5"/>
                </g>
                <g id="arrowDown" xlink:href="#dirArrow" transform="rotate(180) translate(-30 -48)" onmousedown="handlePan(0,1)">
                  <use xlink:href="#rim" fill="#404040">
                        <set attributeName="fill" to="#808080" begin="arrowDown.mouseover" end="arrowDown.mouseout"/>
                  </use>
                  <path fill="none" stroke="white" stroke-width="1.5" d="M0,-3.0v7 M-2.5,-0.5L0,-3.0L2.5,-0.5"/>
                </g>
                <g id="arrowLeft" xlink:href="#dirArrow" transform="rotate(270) translate(-36 17)" onmousedown="handlePan(-1,0)">
                  <use xlink:href="#rim" fill="#404040">
                        <set attributeName="fill" to="#808080" begin="arrowLeft.mouseover" end="arrowLeft.mouseout"/>
                  </use>
                  <path fill="none" stroke="white" stroke-width="1.5" d="M0,-3.0v7 M-2.5,-0.5L0,-3.0L2.5,-0.5"/>
                </g>
        </g>
        <svg viewBox="0 0 15 15" width="100%" height="30px" preserveAspectRatio="xMaxYMin meet">
         <g id="arrow_out" transform="scale(0.3 0.3)">
          <a xlink:href="CathodeSegmentationCInterface_8h__dep__incl_org.svg" target="_base">
           <rect id="button" ry="5" rx="5" y="6" x="6" height="38" width="38"
                fill="#f2f5e9" fill-opacity="0.5" stroke="#606060" stroke-width="1.0"/>
           <path id="arrow"
             d="M 11.500037,31.436501 C 11.940474,20.09759 22.043105,11.32322 32.158766,21.979434 L 37.068811,17.246167 C 37.068811,17.246167 37.088388,32 37.088388,32 L 22.160133,31.978069 C 22.160133,31.978069 26.997745,27.140456 26.997745,27.140456 C 18.528582,18.264221 13.291696,25.230495 11.500037,31.436501 z"
             style="fill:#404040;"/>
          </a>
         </g>
        </svg>
</svg>
