<?xml version="1.0" encoding="UTF-8" standalone="no"?>
<!DOCTYPE svg PUBLIC "-//W3C//DTD SVG 1.1//EN"
 "http://www.w3.org/Graphics/SVG/1.1/DTD/svg11.dtd">
<!-- Generated by graphviz version 2.40.1 (20161225.0304)
 -->
<!-- Title: /home/travis/build/AliceO2Group/AliceO2/Common/MathUtils/include/MathUtils/RandomRing.h Pages: 1 -->
<!--zoomable 595 -->
<svg id="main" version="1.1" xmlns="http://www.w3.org/2000/svg" xmlns:xlink="http://www.w3.org/1999/xlink" xml:space="preserve" onload="init(evt)">
<style type="text/css"><![CDATA[
.edge:hover path { stroke: red; }
.edge:hover polygon { stroke: red; fill: red; }
]]></style>
<script type="text/javascript"><![CDATA[
var edges = document.getElementsByTagName('g');
if (edges && edges.length) {
  for (var i=0;i<edges.length;i++) {
    if (edges[i].id.substr(0,4)=='edge') {
      edges[i].setAttribute('class','edge');
    }
  }
}
]]></script>
        <defs>
                <circle id="rim" cx="0" cy="0" r="7"/>
                <circle id="rim2" cx="0" cy="0" r="3.5"/>
                <g id="zoomPlus">
                        <use xlink:href="#rim" fill="#404040">
                                <set attributeName="fill" to="#808080" begin="zoomplus.mouseover" end="zoomplus.mouseout"/>
                        </use>
                        <path d="M-4,0h8M0,-4v8" fill="none" stroke="white" stroke-width="1.5" pointer-events="none"/>
                </g>
                <g id="zoomMin">
                        <use xlink:href="#rim" fill="#404040">
                                <set attributeName="fill" to="#808080" begin="zoomminus.mouseover" end="zoomminus.mouseout"/>
                        </use>
                        <path d="M-4,0h8" fill="none" stroke="white" stroke-width="1.5" pointer-events="none"/>
                </g>
                <g id="dirArrow">
                        <path fill="none" stroke="white" stroke-width="1.5" d="M0,-3.0v7 M-2.5,-0.5L0,-3.0L2.5,-0.5"/>
                </g>
               <g id="resetDef">
                       <use xlink:href="#rim2" fill="#404040">
                               <set attributeName="fill" to="#808080" begin="reset.mouseover" end="reset.mouseout"/>
                       </use>
               </g>
        </defs>

<script type="text/javascript">
var viewWidth = 2556;
var viewHeight = 595;
var sectionId = 'dynsection-1';
</script>
<script xlink:href="../../svgpan.js"/>
<svg id="graph" class="graph">
<g id="viewport">
<title>/home/travis/build/AliceO2Group/AliceO2/Common/MathUtils/include/MathUtils/RandomRing.h</title>
<!-- Node6 -->
<g id="node1" class="node">
<title>Node6</title>
<polygon fill="#bfbfbf" stroke="#000000" points="1041,-534.5 1041,-586.5 1193,-586.5 1193,-534.5 1041,-534.5"/>
<text text-anchor="start" x="1049" y="-574.5" font-family="Helvetica,sans-Serif" font-size="10.00" fill="#000000">/home/travis/build</text>
<text text-anchor="start" x="1049" y="-563.5" font-family="Helvetica,sans-Serif" font-size="10.00" fill="#000000">/AliceO2Group/AliceO2</text>
<text text-anchor="start" x="1049" y="-552.5" font-family="Helvetica,sans-Serif" font-size="10.00" fill="#000000">/Common/MathUtils/include</text>
<text text-anchor="middle" x="1117" y="-541.5" font-family="Helvetica,sans-Serif" font-size="10.00" fill="#000000">/MathUtils/RandomRing.h</text>
</g>
<!-- Node7 -->
<g id="node2" class="node">
<title>Node7</title>
<g id="a_node2"><a xlink:href="../../df/d05/RandomRing_8cxx.html" target="_top" xlink:title="/home/travis/build\l/AliceO2Group/AliceO2\l/Common/MathUtils/src\l/RandomRing.cxx">
<polygon fill="none" stroke="#000000" points="78.5,-445.5 78.5,-497.5 209.5,-497.5 209.5,-445.5 78.5,-445.5"/>
<text text-anchor="start" x="86.5" y="-485.5" font-family="Helvetica,sans-Serif" font-size="10.00" fill="#000000">/home/travis/build</text>
<text text-anchor="start" x="86.5" y="-474.5" font-family="Helvetica,sans-Serif" font-size="10.00" fill="#000000">/AliceO2Group/AliceO2</text>
<text text-anchor="start" x="86.5" y="-463.5" font-family="Helvetica,sans-Serif" font-size="10.00" fill="#000000">/Common/MathUtils/src</text>
<text text-anchor="middle" x="144" y="-452.5" font-family="Helvetica,sans-Serif" font-size="10.00" fill="#000000">/RandomRing.cxx</text>
</a>
</g>
</g>
<!-- Node6&#45;&gt;Node7 -->
<g id="edge1" class="edge">
<title>Node6&#45;&gt;Node7</title>
<path fill="none" stroke="#191970" d="M1030.668,-557.5158C836.7529,-550.3234 371.6296,-530.2065 218,-498 215.3288,-497.44 212.6234,-496.8058 209.9053,-496.1123"/>
<polygon fill="#191970" stroke="#191970" points="1030.691,-561.019 1040.8131,-557.8895 1030.9487,-554.0237 1030.691,-561.019"/>
</g>
<!-- Node8 -->
<g id="node3" class="node">
<title>Node8</title>
<g id="a_node3"><a xlink:href="../../d6/d82/FIT_2FV0_2simulation_2include_2FV0Simulation_2Digitizer_8h.html" target="_top" xlink:title="/home/travis/build\l/AliceO2Group/AliceO2\l/Detectors/FIT/FV0/simulation\l/include/FV0Simulation/Digitizer.h">
<polygon fill="none" stroke="#000000" points="227.5,-445.5 227.5,-497.5 408.5,-497.5 408.5,-445.5 227.5,-445.5"/>
<text text-anchor="start" x="235.5" y="-485.5" font-family="Helvetica,sans-Serif" font-size="10.00" fill="#000000">/home/travis/build</text>
<text text-anchor="start" x="235.5" y="-474.5" font-family="Helvetica,sans-Serif" font-size="10.00" fill="#000000">/AliceO2Group/AliceO2</text>
<text text-anchor="start" x="235.5" y="-463.5" font-family="Helvetica,sans-Serif" font-size="10.00" fill="#000000">/Detectors/FIT/FV0/simulation</text>
<text text-anchor="middle" x="318" y="-452.5" font-family="Helvetica,sans-Serif" font-size="10.00" fill="#000000">/include/FV0Simulation/Digitizer.h</text>
</a>
</g>
</g>
<!-- Node6&#45;&gt;Node8 -->
<g id="edge2" class="edge">
<title>Node6&#45;&gt;Node8</title>
<path fill="none" stroke="#191970" d="M1030.6367,-551.5138C917.4526,-539.6598 712.7849,-517.9596 538,-498 495.4779,-493.1442 448.3662,-487.5042 408.6842,-482.6786"/>
<polygon fill="#191970" stroke="#191970" points="1030.3214,-554.9998 1040.6314,-552.5599 1031.0501,-548.0379 1030.3214,-554.9998"/>
</g>
<!-- Node11 -->
<g id="node6" class="node">
<title>Node11</title>
<g id="a_node6"><a xlink:href="../../d2/da8/ElectronTransport_8h.html" target="_top" xlink:title="Definition of the electron transport. ">
<polygon fill="none" stroke="#000000" points="547,-445.5 547,-497.5 773,-497.5 773,-445.5 547,-445.5"/>
<text text-anchor="start" x="555" y="-485.5" font-family="Helvetica,sans-Serif" font-size="10.00" fill="#000000">/home/travis/build</text>
<text text-anchor="start" x="555" y="-474.5" font-family="Helvetica,sans-Serif" font-size="10.00" fill="#000000">/AliceO2Group/AliceO2</text>
<text text-anchor="start" x="555" y="-463.5" font-family="Helvetica,sans-Serif" font-size="10.00" fill="#000000">/Detectors/TPC/simulation</text>
<text text-anchor="middle" x="660" y="-452.5" font-family="Helvetica,sans-Serif" font-size="10.00" fill="#000000">/include/TPCSimulation/ElectronTransport.h</text>
</a>
</g>
</g>
<!-- Node6&#45;&gt;Node11 -->
<g id="edge5" class="edge">
<title>Node6&#45;&gt;Node11</title>
<path fill="none" stroke="#191970" d="M1030.7019,-543.6936C957.831,-529.5021 852.9344,-509.0737 773.3094,-493.5668"/>
<polygon fill="#191970" stroke="#191970" points="1030.2811,-547.1773 1040.7658,-545.6535 1031.6192,-540.3064 1030.2811,-547.1773"/>
</g>
<!-- Node15 -->
<g id="node10" class="node">
<title>Node15</title>
<g id="a_node10"><a xlink:href="../../d9/d79/GEMAmplification_8h.html" target="_top" xlink:title="Definition of the GEM amplification. ">
<polygon fill="none" stroke="#000000" points="1003.5,-445.5 1003.5,-497.5 1230.5,-497.5 1230.5,-445.5 1003.5,-445.5"/>
<text text-anchor="start" x="1011.5" y="-485.5" font-family="Helvetica,sans-Serif" font-size="10.00" fill="#000000">/home/travis/build</text>
<text text-anchor="start" x="1011.5" y="-474.5" font-family="Helvetica,sans-Serif" font-size="10.00" fill="#000000">/AliceO2Group/AliceO2</text>
<text text-anchor="start" x="1011.5" y="-463.5" font-family="Helvetica,sans-Serif" font-size="10.00" fill="#000000">/Detectors/TPC/simulation</text>
<text text-anchor="middle" x="1117" y="-452.5" font-family="Helvetica,sans-Serif" font-size="10.00" fill="#000000">/include/TPCSimulation/GEMAmplification.h</text>
</a>
</g>
</g>
<!-- Node6&#45;&gt;Node15 -->
<g id="edge9" class="edge">
<title>Node6&#45;&gt;Node15</title>
<path fill="none" stroke="#191970" d="M1117,-524.1155C1117,-515.2061 1117,-505.8475 1117,-497.5341"/>
<polygon fill="#191970" stroke="#191970" points="1113.5001,-524.2784 1117,-534.2784 1120.5001,-524.2785 1113.5001,-524.2784"/>
</g>
<!-- Node19 -->
<g id="node14" class="node">
<title>Node19</title>
<g id="a_node14"><a xlink:href="../../d0/d45/SAMPAProcessing_8h.html" target="_top" xlink:title="Definition of the SAMPA response. ">
<polygon fill="none" stroke="#000000" points="1403.5,-445.5 1403.5,-497.5 1630.5,-497.5 1630.5,-445.5 1403.5,-445.5"/>
<text text-anchor="start" x="1411.5" y="-485.5" font-family="Helvetica,sans-Serif" font-size="10.00" fill="#000000">/home/travis/build</text>
<text text-anchor="start" x="1411.5" y="-474.5" font-family="Helvetica,sans-Serif" font-size="10.00" fill="#000000">/AliceO2Group/AliceO2</text>
<text text-anchor="start" x="1411.5" y="-463.5" font-family="Helvetica,sans-Serif" font-size="10.00" fill="#000000">/Detectors/TPC/simulation</text>
<text text-anchor="middle" x="1517" y="-452.5" font-family="Helvetica,sans-Serif" font-size="10.00" fill="#000000">/include/TPCSimulation/SAMPAProcessing.h</text>
</a>
</g>
</g>
<!-- Node6&#45;&gt;Node19 -->
<g id="edge14" class="edge">
<title>Node6&#45;&gt;Node19</title>
<path fill="none" stroke="#191970" d="M1203.1307,-541.3359C1261.6406,-528.3175 1339.6492,-510.9605 1403.2581,-496.8076"/>
<polygon fill="#191970" stroke="#191970" points="1202.1796,-537.9619 1193.1785,-543.5503 1203.6999,-544.7948 1202.1796,-537.9619"/>
</g>
<!-- Node31 -->
<g id="node26" class="node">
<title>Node31</title>
<g id="a_node26"><a xlink:href="../../d3/db6/SpaceCharge_8h.html" target="_top" xlink:title="Definition of the handler for the ALICE TPC space&#45;charge distortions calculations. ">
<polygon fill="none" stroke="#000000" points="1950.5,-445.5 1950.5,-497.5 2155.5,-497.5 2155.5,-445.5 1950.5,-445.5"/>
<text text-anchor="start" x="1958.5" y="-485.5" font-family="Helvetica,sans-Serif" font-size="10.00" fill="#000000">/home/travis/build</text>
<text text-anchor="start" x="1958.5" y="-474.5" font-family="Helvetica,sans-Serif" font-size="10.00" fill="#000000">/AliceO2Group/AliceO2</text>
<text text-anchor="start" x="1958.5" y="-463.5" font-family="Helvetica,sans-Serif" font-size="10.00" fill="#000000">/Detectors/TPC/simulation</text>
<text text-anchor="middle" x="2053" y="-452.5" font-family="Helvetica,sans-Serif" font-size="10.00" fill="#000000">/include/TPCSimulation/SpaceCharge.h</text>
</a>
</g>
</g>
<!-- Node6&#45;&gt;Node31 -->
<g id="edge30" class="edge">
<title>Node6&#45;&gt;Node31</title>
<path fill="none" stroke="#191970" d="M1203.2775,-552.2963C1376.2578,-535.8483 1764.752,-498.9082 1950.4118,-481.2546"/>
<polygon fill="#191970" stroke="#191970" points="1202.8237,-548.8235 1193.1999,-553.2545 1203.4864,-555.7921 1202.8237,-548.8235"/>
</g>
<!-- Node33 -->
<g id="node28" class="node">
<title>Node33</title>
<g id="a_node28"><a xlink:href="../../d4/dae/TRD_2simulation_2include_2TRDSimulation_2Digitizer_8h.html" target="_top" xlink:title="/home/travis/build\l/AliceO2Group/AliceO2\l/Detectors/TRD/simulation\l/include/TRDSimulation/Digitizer.h">
<polygon fill="none" stroke="#000000" points="2223.5,-445.5 2223.5,-497.5 2406.5,-497.5 2406.5,-445.5 2223.5,-445.5"/>
<text text-anchor="start" x="2231.5" y="-485.5" font-family="Helvetica,sans-Serif" font-size="10.00" fill="#000000">/home/travis/build</text>
<text text-anchor="start" x="2231.5" y="-474.5" font-family="Helvetica,sans-Serif" font-size="10.00" fill="#000000">/AliceO2Group/AliceO2</text>
<text text-anchor="start" x="2231.5" y="-463.5" font-family="Helvetica,sans-Serif" font-size="10.00" fill="#000000">/Detectors/TRD/simulation</text>
<text text-anchor="middle" x="2315" y="-452.5" font-family="Helvetica,sans-Serif" font-size="10.00" fill="#000000">/include/TRDSimulation/Digitizer.h</text>
</a>
</g>
</g>
<!-- Node6&#45;&gt;Node33 -->
<g id="edge33" class="edge">
<title>Node6&#45;&gt;Node33</title>
<path fill="none" stroke="#191970" d="M1203.3016,-558.6783C1382.7427,-554.1584 1808.9536,-539.6143 2164,-498 2183.2975,-495.7382 2203.8679,-492.6115 2223.4159,-489.2971"/>
<polygon fill="#191970" stroke="#191970" points="1203.0428,-555.1835 1193.1326,-558.9303 1203.2163,-562.1814 1203.0428,-555.1835"/>
</g>
<!-- Node9 -->
<g id="node4" class="node">
<title>Node9</title>
<g id="a_node4"><a xlink:href="../../da/d9b/FIT_2FV0_2simulation_2src_2Digitizer_8cxx.html" target="_top" xlink:title="/home/travis/build\l/AliceO2Group/AliceO2\l/Detectors/FIT/FV0/simulation\l/src/Digitizer.cxx">
<polygon fill="none" stroke="#000000" points="0,-356.5 0,-408.5 160,-408.5 160,-356.5 0,-356.5"/>
<text text-anchor="start" x="8" y="-396.5" font-family="Helvetica,sans-Serif" font-size="10.00" fill="#000000">/home/travis/build</text>
<text text-anchor="start" x="8" y="-385.5" font-family="Helvetica,sans-Serif" font-size="10.00" fill="#000000">/AliceO2Group/AliceO2</text>
<text text-anchor="start" x="8" y="-374.5" font-family="Helvetica,sans-Serif" font-size="10.00" fill="#000000">/Detectors/FIT/FV0/simulation</text>
<text text-anchor="middle" x="80" y="-363.5" font-family="Helvetica,sans-Serif" font-size="10.00" fill="#000000">/src/Digitizer.cxx</text>
</a>
</g>
</g>
<!-- Node8&#45;&gt;Node9 -->
<g id="edge3" class="edge">
<title>Node8&#45;&gt;Node9</title>
<path fill="none" stroke="#191970" d="M238.5994,-441.8082C209.8627,-431.0621 177.6487,-419.0157 149.7985,-408.6011"/>
<polygon fill="#191970" stroke="#191970" points="237.6078,-445.174 248.2003,-445.3984 240.0597,-438.6175 237.6078,-445.174"/>
</g>
<!-- Node10 -->
<g id="node5" class="node">
<title>Node10</title>
<g id="a_node5"><a xlink:href="../../d0/d1c/FV0DigitizerSpec_8cxx.html" target="_top" xlink:title="/home/travis/build\l/AliceO2Group/AliceO2\l/Steer/DigitizerWorkflow\l/src/FV0DigitizerSpec.cxx">
<polygon fill="none" stroke="#000000" points="178,-356.5 178,-408.5 318,-408.5 318,-356.5 178,-356.5"/>
<text text-anchor="start" x="186" y="-396.5" font-family="Helvetica,sans-Serif" font-size="10.00" fill="#000000">/home/travis/build</text>
<text text-anchor="start" x="186" y="-385.5" font-family="Helvetica,sans-Serif" font-size="10.00" fill="#000000">/AliceO2Group/AliceO2</text>
<text text-anchor="start" x="186" y="-374.5" font-family="Helvetica,sans-Serif" font-size="10.00" fill="#000000">/Steer/DigitizerWorkflow</text>
<text text-anchor="middle" x="248" y="-363.5" font-family="Helvetica,sans-Serif" font-size="10.00" fill="#000000">/src/FV0DigitizerSpec.cxx</text>
</a>
</g>
</g>
<!-- Node8&#45;&gt;Node10 -->
<g id="edge4" class="edge">
<title>Node8&#45;&gt;Node10</title>
<path fill="none" stroke="#191970" d="M290.9758,-437.1407C283.5005,-427.6363 275.5124,-417.4801 268.4763,-408.5341"/>
<polygon fill="#191970" stroke="#191970" points="288.4431,-439.582 297.3763,-445.2784 293.9452,-435.2545 288.4431,-439.582"/>
</g>
<!-- Node12 -->
<g id="node7" class="node">
<title>Node12</title>
<g id="a_node7"><a xlink:href="../../d7/d0a/TPC_2simulation_2src_2Digitizer_8cxx.html" target="_top" xlink:title="/home/travis/build\l/AliceO2Group/AliceO2\l/Detectors/TPC/simulation\l/src/Digitizer.cxx">
<polygon fill="none" stroke="#000000" points="1253.5,-.5 1253.5,-52.5 1396.5,-52.5 1396.5,-.5 1253.5,-.5"/>
<text text-anchor="start" x="1261.5" y="-40.5" font-family="Helvetica,sans-Serif" font-size="10.00" fill="#000000">/home/travis/build</text>
<text text-anchor="start" x="1261.5" y="-29.5" font-family="Helvetica,sans-Serif" font-size="10.00" fill="#000000">/AliceO2Group/AliceO2</text>
<text text-anchor="start" x="1261.5" y="-18.5" font-family="Helvetica,sans-Serif" font-size="10.00" fill="#000000">/Detectors/TPC/simulation</text>
<text text-anchor="middle" x="1325" y="-7.5" font-family="Helvetica,sans-Serif" font-size="10.00" fill="#000000">/src/Digitizer.cxx</text>
</a>
</g>
</g>
<!-- Node11&#45;&gt;Node12 -->
<g id="edge6" class="edge">
<title>Node11&#45;&gt;Node12</title>
<path fill="none" stroke="#191970" d="M678.9906,-436.2738C683.1071,-427.5501 687.0925,-418.0925 690,-409 705.8674,-359.3779 710,-345.5972 710,-293.5 710,-293.5 710,-293.5 710,-204.5 710,-92.5133 1091.0178,-46.5399 1253.2481,-32.0407"/>
<polygon fill="#191970" stroke="#191970" points="675.776,-434.8801 674.5173,-445.3999 682.0615,-437.9611 675.776,-434.8801"/>
</g>
<!-- Node13 -->
<g id="node8" class="node">
<title>Node13</title>
<g id="a_node8"><a xlink:href="../../d1/d98/ElectronTransport_8cxx.html" target="_top" xlink:title="Implementation of the electron transport. ">
<polygon fill="none" stroke="#000000" points="538.5,-356.5 538.5,-408.5 681.5,-408.5 681.5,-356.5 538.5,-356.5"/>
<text text-anchor="start" x="546.5" y="-396.5" font-family="Helvetica,sans-Serif" font-size="10.00" fill="#000000">/home/travis/build</text>
<text text-anchor="start" x="546.5" y="-385.5" font-family="Helvetica,sans-Serif" font-size="10.00" fill="#000000">/AliceO2Group/AliceO2</text>
<text text-anchor="start" x="546.5" y="-374.5" font-family="Helvetica,sans-Serif" font-size="10.00" fill="#000000">/Detectors/TPC/simulation</text>
<text text-anchor="middle" x="610" y="-363.5" font-family="Helvetica,sans-Serif" font-size="10.00" fill="#000000">/src/ElectronTransport.cxx</text>
</a>
</g>
</g>
<!-- Node11&#45;&gt;Node13 -->
<g id="edge7" class="edge">
<title>Node11&#45;&gt;Node13</title>
<path fill="none" stroke="#191970" d="M640.2106,-436.2749C635.0123,-427.0219 629.4994,-417.209 624.6259,-408.5341"/>
<polygon fill="#191970" stroke="#191970" points="637.3193,-438.2744 645.2688,-445.2784 643.4222,-434.8457 637.3193,-438.2744"/>
</g>
<!-- Node14 -->
<g id="node9" class="node">
<title>Node14</title>
<g id="a_node9"><a xlink:href="../../d4/d82/testTPCElectronTransport_8cxx.html" target="_top" xlink:title="This task tests the ElectronTransport module of the TPC digitization. ">
<polygon fill="none" stroke="#000000" points="336,-356.5 336,-408.5 520,-408.5 520,-356.5 336,-356.5"/>
<text text-anchor="start" x="344" y="-396.5" font-family="Helvetica,sans-Serif" font-size="10.00" fill="#000000">/home/travis/build</text>
<text text-anchor="start" x="344" y="-385.5" font-family="Helvetica,sans-Serif" font-size="10.00" fill="#000000">/AliceO2Group/AliceO2</text>
<text text-anchor="start" x="344" y="-374.5" font-family="Helvetica,sans-Serif" font-size="10.00" fill="#000000">/Detectors/TPC/simulation</text>
<text text-anchor="middle" x="428" y="-363.5" font-family="Helvetica,sans-Serif" font-size="10.00" fill="#000000">/test/testTPCElectronTransport.cxx</text>
</a>
</g>
</g>
<!-- Node11&#45;&gt;Node14 -->
<g id="edge8" class="edge">
<title>Node11&#45;&gt;Node14</title>
<path fill="none" stroke="#191970" d="M582.6011,-441.8082C554.5889,-431.0621 523.1869,-419.0157 496.0388,-408.6011"/>
<polygon fill="#191970" stroke="#191970" points="581.3697,-445.0845 591.9599,-445.3984 583.877,-438.5489 581.3697,-445.0845"/>
</g>
<!-- Node15&#45;&gt;Node12 -->
<g id="edge10" class="edge">
<title>Node15&#45;&gt;Node12</title>
<path fill="none" stroke="#191970" d="M1239.9132,-443.7977C1257.4226,-435.166 1273.6467,-423.8458 1286,-409 1319.3229,-368.9537 1306,-345.5972 1306,-293.5 1306,-293.5 1306,-293.5 1306,-204.5 1306,-150.2683 1314.828,-87.2648 1320.449,-52.6459"/>
<polygon fill="#191970" stroke="#191970" points="1238.2667,-440.7028 1230.6535,-448.0709 1241.1998,-447.0587 1238.2667,-440.7028"/>
</g>
<!-- Node16 -->
<g id="node11" class="node">
<title>Node16</title>
<g id="a_node11"><a xlink:href="../../db/d6c/GEMAmplification_8cxx.html" target="_top" xlink:title="Implementation of the GEM amplification. ">
<polygon fill="none" stroke="#000000" points="1134.5,-356.5 1134.5,-408.5 1277.5,-408.5 1277.5,-356.5 1134.5,-356.5"/>
<text text-anchor="start" x="1142.5" y="-396.5" font-family="Helvetica,sans-Serif" font-size="10.00" fill="#000000">/home/travis/build</text>
<text text-anchor="start" x="1142.5" y="-385.5" font-family="Helvetica,sans-Serif" font-size="10.00" fill="#000000">/AliceO2Group/AliceO2</text>
<text text-anchor="start" x="1142.5" y="-374.5" font-family="Helvetica,sans-Serif" font-size="10.00" fill="#000000">/Detectors/TPC/simulation</text>
<text text-anchor="middle" x="1206" y="-363.5" font-family="Helvetica,sans-Serif" font-size="10.00" fill="#000000">/src/GEMAmplification.cxx</text>
</a>
</g>
</g>
<!-- Node15&#45;&gt;Node16 -->
<g id="edge11" class="edge">
<title>Node15&#45;&gt;Node16</title>
<path fill="none" stroke="#191970" d="M1150.4971,-438.0029C1160.2471,-428.2529 1170.7489,-417.7511 1179.9659,-408.5341"/>
<polygon fill="#191970" stroke="#191970" points="1147.8178,-435.7325 1143.2216,-445.2784 1152.7675,-440.6822 1147.8178,-435.7325"/>
</g>
<!-- Node17 -->
<g id="node12" class="node">
<title>Node17</title>
<g id="a_node12"><a xlink:href="../../d5/d97/testTPCGEMAmplification_8cxx.html" target="_top" xlink:title="/home/travis/build\l/AliceO2Group/AliceO2\l/Detectors/TPC/simulation\l/test/testTPCGEMAmplification.cxx">
<polygon fill="none" stroke="#000000" points="737.5,-356.5 737.5,-408.5 922.5,-408.5 922.5,-356.5 737.5,-356.5"/>
<text text-anchor="start" x="745.5" y="-396.5" font-family="Helvetica,sans-Serif" font-size="10.00" fill="#000000">/home/travis/build</text>
<text text-anchor="start" x="745.5" y="-385.5" font-family="Helvetica,sans-Serif" font-size="10.00" fill="#000000">/AliceO2Group/AliceO2</text>
<text text-anchor="start" x="745.5" y="-374.5" font-family="Helvetica,sans-Serif" font-size="10.00" fill="#000000">/Detectors/TPC/simulation</text>
<text text-anchor="middle" x="830" y="-363.5" font-family="Helvetica,sans-Serif" font-size="10.00" fill="#000000">/test/testTPCGEMAmplification.cxx</text>
</a>
</g>
</g>
<!-- Node15&#45;&gt;Node17 -->
<g id="edge12" class="edge">
<title>Node15&#45;&gt;Node17</title>
<path fill="none" stroke="#191970" d="M1023.0564,-442.3677C987.9519,-431.4816 948.3369,-419.1968 914.1687,-408.6011"/>
<polygon fill="#191970" stroke="#191970" points="1022.2418,-445.7794 1032.8297,-445.3984 1024.3151,-439.0935 1022.2418,-445.7794"/>
</g>
<!-- Node18 -->
<g id="node13" class="node">
<title>Node18</title>
<g id="a_node13"><a xlink:href="../../d2/dd7/SimpleDigitizerWorkflow_8cxx.html" target="_top" xlink:title="/home/travis/build\l/AliceO2Group/AliceO2\l/Steer/DigitizerWorkflow\l/src/SimpleDigitizerWorkflow.cxx">
<polygon fill="none" stroke="#000000" points="940,-356.5 940,-408.5 1116,-408.5 1116,-356.5 940,-356.5"/>
<text text-anchor="start" x="948" y="-396.5" font-family="Helvetica,sans-Serif" font-size="10.00" fill="#000000">/home/travis/build</text>
<text text-anchor="start" x="948" y="-385.5" font-family="Helvetica,sans-Serif" font-size="10.00" fill="#000000">/AliceO2Group/AliceO2</text>
<text text-anchor="start" x="948" y="-374.5" font-family="Helvetica,sans-Serif" font-size="10.00" fill="#000000">/Steer/DigitizerWorkflow</text>
<text text-anchor="middle" x="1028" y="-363.5" font-family="Helvetica,sans-Serif" font-size="10.00" fill="#000000">/src/SimpleDigitizerWorkflow.cxx</text>
</a>
</g>
</g>
<!-- Node15&#45;&gt;Node18 -->
<g id="edge13" class="edge">
<title>Node15&#45;&gt;Node18</title>
<path fill="none" stroke="#191970" d="M1083.5029,-438.0029C1073.7529,-428.2529 1063.2511,-417.7511 1054.0341,-408.5341"/>
<polygon fill="#191970" stroke="#191970" points="1081.2325,-440.6822 1090.7784,-445.2784 1086.1822,-435.7325 1081.2325,-440.6822"/>
</g>
<!-- Node19&#45;&gt;Node12 -->
<g id="edge25" class="edge">
<title>Node19&#45;&gt;Node12</title>
<path fill="none" stroke="#191970" d="M1419.3559,-440.7639C1403.9211,-432.4344 1389.3403,-422.0014 1378,-409 1342.8257,-368.6735 1344,-347.0113 1344,-293.5 1344,-293.5 1344,-293.5 1344,-204.5 1344,-150.2683 1335.172,-87.2648 1329.551,-52.6459"/>
<polygon fill="#191970" stroke="#191970" points="1418.0245,-444.0134 1428.5244,-445.4286 1421.1988,-437.7745 1418.0245,-444.0134"/>
</g>
<!-- Node20 -->
<g id="node15" class="node">
<title>Node20</title>
<g id="a_node15"><a xlink:href="../../d5/dcb/DigitGlobalPad_8h.html" target="_top" xlink:title="Definition of the GlobalPad container. ">
<polygon fill="none" stroke="#000000" points="1410.5,-356.5 1410.5,-408.5 1623.5,-408.5 1623.5,-356.5 1410.5,-356.5"/>
<text text-anchor="start" x="1418.5" y="-396.5" font-family="Helvetica,sans-Serif" font-size="10.00" fill="#000000">/home/travis/build</text>
<text text-anchor="start" x="1418.5" y="-385.5" font-family="Helvetica,sans-Serif" font-size="10.00" fill="#000000">/AliceO2Group/AliceO2</text>
<text text-anchor="start" x="1418.5" y="-374.5" font-family="Helvetica,sans-Serif" font-size="10.00" fill="#000000">/Detectors/TPC/simulation</text>
<text text-anchor="middle" x="1517" y="-363.5" font-family="Helvetica,sans-Serif" font-size="10.00" fill="#000000">/include/TPCSimulation/DigitGlobalPad.h</text>
</a>
</g>
</g>
<!-- Node19&#45;&gt;Node20 -->
<g id="edge15" class="edge">
<title>Node19&#45;&gt;Node20</title>
<path fill="none" stroke="#191970" d="M1517,-435.1155C1517,-426.2061 1517,-416.8475 1517,-408.5341"/>
<polygon fill="#191970" stroke="#191970" points="1513.5001,-435.2784 1517,-445.2784 1520.5001,-435.2785 1513.5001,-435.2784"/>
</g>
<!-- Node24 -->
<g id="node19" class="node">
<title>Node24</title>
<g id="a_node19"><a xlink:href="../../d2/d0b/TPCDigitizerSpec_8cxx.html" target="_top" xlink:title="/home/travis/build\l/AliceO2Group/AliceO2\l/Steer/DigitizerWorkflow\l/src/TPCDigitizerSpec.cxx">
<polygon fill="none" stroke="#000000" points="1879,-.5 1879,-52.5 2019,-52.5 2019,-.5 1879,-.5"/>
<text text-anchor="start" x="1887" y="-40.5" font-family="Helvetica,sans-Serif" font-size="10.00" fill="#000000">/home/travis/build</text>
<text text-anchor="start" x="1887" y="-29.5" font-family="Helvetica,sans-Serif" font-size="10.00" fill="#000000">/AliceO2Group/AliceO2</text>
<text text-anchor="start" x="1887" y="-18.5" font-family="Helvetica,sans-Serif" font-size="10.00" fill="#000000">/Steer/DigitizerWorkflow</text>
<text text-anchor="middle" x="1949" y="-7.5" font-family="Helvetica,sans-Serif" font-size="10.00" fill="#000000">/src/TPCDigitizerSpec.cxx</text>
</a>
</g>
</g>
<!-- Node19&#45;&gt;Node24 -->
<g id="edge29" class="edge">
<title>Node19&#45;&gt;Node24</title>
<path fill="none" stroke="#191970" d="M1640.9543,-462.9439C1774.3195,-452.5562 1970.8111,-433.3639 1996,-409 2033.3933,-372.8315 2015,-345.5233 2015,-293.5 2015,-293.5 2015,-293.5 2015,-204.5 2015,-147.4815 1984.8591,-86.238 1965.3146,-52.519"/>
<polygon fill="#191970" stroke="#191970" points="1640.3648,-459.4789 1630.6637,-463.7378 1640.9033,-466.4582 1640.3648,-459.4789"/>
</g>
<!-- Node26 -->
<g id="node21" class="node">
<title>Node26</title>
<g id="a_node21"><a xlink:href="../../dd/d5e/testTPCDigitContainer_8cxx.html" target="_top" xlink:title="This task tests the DigitContainer of the TPC digitization. ">
<polygon fill="none" stroke="#000000" points="1402.5,-89.5 1402.5,-141.5 1571.5,-141.5 1571.5,-89.5 1402.5,-89.5"/>
<text text-anchor="start" x="1410.5" y="-129.5" font-family="Helvetica,sans-Serif" font-size="10.00" fill="#000000">/home/travis/build</text>
<text text-anchor="start" x="1410.5" y="-118.5" font-family="Helvetica,sans-Serif" font-size="10.00" fill="#000000">/AliceO2Group/AliceO2</text>
<text text-anchor="start" x="1410.5" y="-107.5" font-family="Helvetica,sans-Serif" font-size="10.00" fill="#000000">/Detectors/TPC/simulation</text>
<text text-anchor="middle" x="1487" y="-96.5" font-family="Helvetica,sans-Serif" font-size="10.00" fill="#000000">/test/testTPCDigitContainer.cxx</text>
</a>
</g>
</g>
<!-- Node19&#45;&gt;Node26 -->
<g id="edge27" class="edge">
<title>Node19&#45;&gt;Node26</title>
<path fill="none" stroke="#191970" d="M1431.8992,-440.05C1419.5734,-431.8212 1408.5279,-421.607 1401,-409 1377.8466,-370.2249 1357.5131,-291.9595 1415,-178 1422.1569,-163.8125 1434.0711,-151.4765 1446.1682,-141.5986"/>
<polygon fill="#191970" stroke="#191970" points="1430.2632,-443.1534 1440.6096,-445.4346 1433.944,-437.1993 1430.2632,-443.1534"/>
</g>
<!-- Node29 -->
<g id="node24" class="node">
<title>Node29</title>
<g id="a_node24"><a xlink:href="../../d1/dd8/SAMPAProcessing_8cxx.html" target="_top" xlink:title="Implementation of the SAMPA response. ">
<polygon fill="none" stroke="#000000" points="1641.5,-356.5 1641.5,-408.5 1784.5,-408.5 1784.5,-356.5 1641.5,-356.5"/>
<text text-anchor="start" x="1649.5" y="-396.5" font-family="Helvetica,sans-Serif" font-size="10.00" fill="#000000">/home/travis/build</text>
<text text-anchor="start" x="1649.5" y="-385.5" font-family="Helvetica,sans-Serif" font-size="10.00" fill="#000000">/AliceO2Group/AliceO2</text>
<text text-anchor="start" x="1649.5" y="-374.5" font-family="Helvetica,sans-Serif" font-size="10.00" fill="#000000">/Detectors/TPC/simulation</text>
<text text-anchor="middle" x="1713" y="-363.5" font-family="Helvetica,sans-Serif" font-size="10.00" fill="#000000">/src/SAMPAProcessing.cxx</text>
</a>
</g>
</g>
<!-- Node19&#45;&gt;Node29 -->
<g id="edge26" class="edge">
<title>Node19&#45;&gt;Node29</title>
<path fill="none" stroke="#191970" d="M1583.626,-441.2464C1606.9759,-430.6436 1632.9823,-418.8346 1655.5189,-408.6011"/>
<polygon fill="#191970" stroke="#191970" points="1582.1403,-438.077 1574.4821,-445.3984 1585.0345,-444.4507 1582.1403,-438.077"/>
</g>
<!-- Node30 -->
<g id="node25" class="node">
<title>Node30</title>
<g id="a_node25"><a xlink:href="../../d0/d5c/testTPCSAMPAProcessing_8cxx.html" target="_top" xlink:title="/home/travis/build\l/AliceO2Group/AliceO2\l/Detectors/TPC/simulation\l/test/testTPCSAMPAProcessing.cxx">
<polygon fill="none" stroke="#000000" points="1802.5,-356.5 1802.5,-408.5 1987.5,-408.5 1987.5,-356.5 1802.5,-356.5"/>
<text text-anchor="start" x="1810.5" y="-396.5" font-family="Helvetica,sans-Serif" font-size="10.00" fill="#000000">/home/travis/build</text>
<text text-anchor="start" x="1810.5" y="-385.5" font-family="Helvetica,sans-Serif" font-size="10.00" fill="#000000">/AliceO2Group/AliceO2</text>
<text text-anchor="start" x="1810.5" y="-374.5" font-family="Helvetica,sans-Serif" font-size="10.00" fill="#000000">/Detectors/TPC/simulation</text>
<text text-anchor="middle" x="1895" y="-363.5" font-family="Helvetica,sans-Serif" font-size="10.00" fill="#000000">/test/testTPCSAMPAProcessing.cxx</text>
</a>
</g>
</g>
<!-- Node19&#45;&gt;Node30 -->
<g id="edge28" class="edge">
<title>Node19&#45;&gt;Node30</title>
<path fill="none" stroke="#191970" d="M1640.4169,-444.4237C1688.1597,-433.7214 1743.2009,-421.1043 1793,-409 1796.1113,-408.2438 1799.2738,-407.4671 1802.466,-406.6763"/>
<polygon fill="#191970" stroke="#191970" points="1639.6518,-441.0083 1630.6574,-446.6076 1641.1804,-447.8394 1639.6518,-441.0083"/>
</g>
<!-- Node21 -->
<g id="node16" class="node">
<title>Node21</title>
<g id="a_node16"><a xlink:href="../../d0/d60/DigitTime_8h.html" target="_top" xlink:title="Definition of the Time Bin container. ">
<polygon fill="none" stroke="#000000" points="1591.5,-267.5 1591.5,-319.5 1780.5,-319.5 1780.5,-267.5 1591.5,-267.5"/>
<text text-anchor="start" x="1599.5" y="-307.5" font-family="Helvetica,sans-Serif" font-size="10.00" fill="#000000">/home/travis/build</text>
<text text-anchor="start" x="1599.5" y="-296.5" font-family="Helvetica,sans-Serif" font-size="10.00" fill="#000000">/AliceO2Group/AliceO2</text>
<text text-anchor="start" x="1599.5" y="-285.5" font-family="Helvetica,sans-Serif" font-size="10.00" fill="#000000">/Detectors/TPC/simulation</text>
<text text-anchor="middle" x="1686" y="-274.5" font-family="Helvetica,sans-Serif" font-size="10.00" fill="#000000">/include/TPCSimulation/DigitTime.h</text>
</a>
</g>
</g>
<!-- Node20&#45;&gt;Node21 -->
<g id="edge16" class="edge">
<title>Node20&#45;&gt;Node21</title>
<path fill="none" stroke="#191970" d="M1575.7421,-351.5648C1595.5827,-341.1162 1617.5181,-329.5644 1636.5644,-319.5341"/>
<polygon fill="#191970" stroke="#191970" points="1574.0087,-348.5219 1566.7915,-356.2784 1577.2705,-354.7156 1574.0087,-348.5219"/>
</g>
<!-- Node28 -->
<g id="node23" class="node">
<title>Node28</title>
<g id="a_node23"><a xlink:href="../../d1/ddd/DigitGlobalPad_8cxx.html" target="_top" xlink:title="Implementation of the Pad container. ">
<polygon fill="none" stroke="#000000" points="1430.5,-267.5 1430.5,-319.5 1573.5,-319.5 1573.5,-267.5 1430.5,-267.5"/>
<text text-anchor="start" x="1438.5" y="-307.5" font-family="Helvetica,sans-Serif" font-size="10.00" fill="#000000">/home/travis/build</text>
<text text-anchor="start" x="1438.5" y="-296.5" font-family="Helvetica,sans-Serif" font-size="10.00" fill="#000000">/AliceO2Group/AliceO2</text>
<text text-anchor="start" x="1438.5" y="-285.5" font-family="Helvetica,sans-Serif" font-size="10.00" fill="#000000">/Detectors/TPC/simulation</text>
<text text-anchor="middle" x="1502" y="-274.5" font-family="Helvetica,sans-Serif" font-size="10.00" fill="#000000">/src/DigitGlobalPad.cxx</text>
</a>
</g>
</g>
<!-- Node20&#45;&gt;Node28 -->
<g id="edge24" class="edge">
<title>Node20&#45;&gt;Node28</title>
<path fill="none" stroke="#191970" d="M1510.9167,-346.4059C1509.4005,-337.4097 1507.8041,-327.9379 1506.3878,-319.5341"/>
<polygon fill="#191970" stroke="#191970" points="1507.4673,-346.9992 1512.5806,-356.2784 1514.3699,-345.8358 1507.4673,-346.9992"/>
</g>
<!-- Node22 -->
<g id="node17" class="node">
<title>Node22</title>
<g id="a_node17"><a xlink:href="../../dd/d94/DigitContainer_8h.html" target="_top" xlink:title="Definition of the Digit Container. ">
<polygon fill="none" stroke="#000000" points="1585.5,-178.5 1585.5,-230.5 1796.5,-230.5 1796.5,-178.5 1585.5,-178.5"/>
<text text-anchor="start" x="1593.5" y="-218.5" font-family="Helvetica,sans-Serif" font-size="10.00" fill="#000000">/home/travis/build</text>
<text text-anchor="start" x="1593.5" y="-207.5" font-family="Helvetica,sans-Serif" font-size="10.00" fill="#000000">/AliceO2Group/AliceO2</text>
<text text-anchor="start" x="1593.5" y="-196.5" font-family="Helvetica,sans-Serif" font-size="10.00" fill="#000000">/Detectors/TPC/simulation</text>
<text text-anchor="middle" x="1691" y="-185.5" font-family="Helvetica,sans-Serif" font-size="10.00" fill="#000000">/include/TPCSimulation/DigitContainer.h</text>
</a>
</g>
</g>
<!-- Node21&#45;&gt;Node22 -->
<g id="edge17" class="edge">
<title>Node21&#45;&gt;Node22</title>
<path fill="none" stroke="#191970" d="M1688.0441,-257.1155C1688.5446,-248.2061 1689.0704,-238.8475 1689.5374,-230.5341"/>
<polygon fill="#191970" stroke="#191970" points="1684.5396,-257.0978 1687.4731,-267.2784 1691.5286,-257.4905 1684.5396,-257.0978"/>
</g>
<!-- Node27 -->
<g id="node22" class="node">
<title>Node27</title>
<g id="a_node22"><a xlink:href="../../dd/dcd/DigitTime_8cxx.html" target="_top" xlink:title="Implementation of the Time Bin container. ">
<polygon fill="none" stroke="#000000" points="1424.5,-178.5 1424.5,-230.5 1567.5,-230.5 1567.5,-178.5 1424.5,-178.5"/>
<text text-anchor="start" x="1432.5" y="-218.5" font-family="Helvetica,sans-Serif" font-size="10.00" fill="#000000">/home/travis/build</text>
<text text-anchor="start" x="1432.5" y="-207.5" font-family="Helvetica,sans-Serif" font-size="10.00" fill="#000000">/AliceO2Group/AliceO2</text>
<text text-anchor="start" x="1432.5" y="-196.5" font-family="Helvetica,sans-Serif" font-size="10.00" fill="#000000">/Detectors/TPC/simulation</text>
<text text-anchor="middle" x="1496" y="-185.5" font-family="Helvetica,sans-Serif" font-size="10.00" fill="#000000">/src/DigitTime.cxx</text>
</a>
</g>
</g>
<!-- Node21&#45;&gt;Node27 -->
<g id="edge23" class="edge">
<title>Node21&#45;&gt;Node27</title>
<path fill="none" stroke="#191970" d="M1621.113,-263.1055C1598.5554,-252.5391 1573.4715,-240.7893 1551.7215,-230.6011"/>
<polygon fill="#191970" stroke="#191970" points="1619.7371,-266.326 1630.2775,-267.3984 1622.7065,-259.987 1619.7371,-266.326"/>
</g>
<!-- Node23 -->
<g id="node18" class="node">
<title>Node23</title>
<g id="a_node18"><a xlink:href="../../de/d92/TPC_2simulation_2include_2TPCSimulation_2Digitizer_8h.html" target="_top" xlink:title="/home/travis/build\l/AliceO2Group/AliceO2\l/Detectors/TPC/simulation\l/include/TPCSimulation/Digitizer.h">
<polygon fill="none" stroke="#000000" points="1793,-89.5 1793,-141.5 1975,-141.5 1975,-89.5 1793,-89.5"/>
<text text-anchor="start" x="1801" y="-129.5" font-family="Helvetica,sans-Serif" font-size="10.00" fill="#000000">/home/travis/build</text>
<text text-anchor="start" x="1801" y="-118.5" font-family="Helvetica,sans-Serif" font-size="10.00" fill="#000000">/AliceO2Group/AliceO2</text>
<text text-anchor="start" x="1801" y="-107.5" font-family="Helvetica,sans-Serif" font-size="10.00" fill="#000000">/Detectors/TPC/simulation</text>
<text text-anchor="middle" x="1884" y="-96.5" font-family="Helvetica,sans-Serif" font-size="10.00" fill="#000000">/include/TPCSimulation/Digitizer.h</text>
</a>
</g>
</g>
<!-- Node22&#45;&gt;Node23 -->
<g id="edge18" class="edge">
<title>Node22&#45;&gt;Node23</title>
<path fill="none" stroke="#191970" d="M1756.9116,-174.1055C1779.8253,-163.5391 1805.3053,-151.7893 1827.3987,-141.6011"/>
<polygon fill="#191970" stroke="#191970" points="1755.2176,-171.0324 1747.6023,-178.3984 1758.149,-177.3891 1755.2176,-171.0324"/>
</g>
<!-- Node25 -->
<g id="node20" class="node">
<title>Node25</title>
<g id="a_node20"><a xlink:href="../../df/d53/DigitContainer_8cxx.html" target="_top" xlink:title="Implementation of the Digit Container. ">
<polygon fill="none" stroke="#000000" points="1619.5,-89.5 1619.5,-141.5 1762.5,-141.5 1762.5,-89.5 1619.5,-89.5"/>
<text text-anchor="start" x="1627.5" y="-129.5" font-family="Helvetica,sans-Serif" font-size="10.00" fill="#000000">/home/travis/build</text>
<text text-anchor="start" x="1627.5" y="-118.5" font-family="Helvetica,sans-Serif" font-size="10.00" fill="#000000">/AliceO2Group/AliceO2</text>
<text text-anchor="start" x="1627.5" y="-107.5" font-family="Helvetica,sans-Serif" font-size="10.00" fill="#000000">/Detectors/TPC/simulation</text>
<text text-anchor="middle" x="1691" y="-96.5" font-family="Helvetica,sans-Serif" font-size="10.00" fill="#000000">/src/DigitContainer.cxx</text>
</a>
</g>
</g>
<!-- Node22&#45;&gt;Node25 -->
<g id="edge21" class="edge">
<title>Node22&#45;&gt;Node25</title>
<path fill="none" stroke="#191970" d="M1691,-168.1155C1691,-159.2061 1691,-149.8475 1691,-141.5341"/>
<polygon fill="#191970" stroke="#191970" points="1687.5001,-168.2784 1691,-178.2784 1694.5001,-168.2785 1687.5001,-168.2784"/>
</g>
<!-- Node22&#45;&gt;Node26 -->
<g id="edge22" class="edge">
<title>Node22&#45;&gt;Node26</title>
<path fill="none" stroke="#191970" d="M1621.977,-174.387C1597.5912,-163.7481 1570.3875,-151.8798 1546.8273,-141.6011"/>
<polygon fill="#191970" stroke="#191970" points="1620.6064,-177.6076 1631.1717,-178.3984 1623.4055,-171.1916 1620.6064,-177.6076"/>
</g>
<!-- Node23&#45;&gt;Node12 -->
<g id="edge19" class="edge">
<title>Node23&#45;&gt;Node12</title>
<path fill="none" stroke="#191970" d="M1782.8706,-91.3094C1778.8676,-90.5024 1774.8996,-89.7289 1771,-89 1639.7684,-64.47 1485.1818,-44.8577 1396.7776,-34.5159"/>
<polygon fill="#191970" stroke="#191970" points="1782.3722,-94.7803 1792.8738,-93.3778 1783.7897,-87.9253 1782.3722,-94.7803"/>
</g>
<!-- Node23&#45;&gt;Node24 -->
<g id="edge20" class="edge">
<title>Node23&#45;&gt;Node24</title>
<path fill="none" stroke="#191970" d="M1909.0939,-81.1407C1916.0353,-71.6363 1923.4528,-61.4801 1929.9863,-52.5341"/>
<polygon fill="#191970" stroke="#191970" points="1906.2221,-79.1386 1903.1506,-89.2784 1911.875,-83.2671 1906.2221,-79.1386"/>
</g>
<!-- Node31&#45;&gt;Node23 -->
<g id="edge31" class="edge">
<title>Node31&#45;&gt;Node23</title>
<path fill="none" stroke="#191970" d="M2036.2734,-436.2653C2002.4,-364.9107 1926.3743,-204.7617 1896.4452,-141.7159"/>
<polygon fill="#191970" stroke="#191970" points="2033.1227,-437.7897 2040.573,-445.3225 2039.4463,-434.7877 2033.1227,-437.7897"/>
</g>
<!-- Node32 -->
<g id="node27" class="node">
<title>Node32</title>
<g id="a_node27"><a xlink:href="../../da/d8e/SpaceCharge_8cxx.html" target="_top" xlink:title="Implementation of the interface for the ALICE TPC space&#45;charge distortions calculations. ">
<polygon fill="none" stroke="#000000" points="2081.5,-356.5 2081.5,-408.5 2224.5,-408.5 2224.5,-356.5 2081.5,-356.5"/>
<text text-anchor="start" x="2089.5" y="-396.5" font-family="Helvetica,sans-Serif" font-size="10.00" fill="#000000">/home/travis/build</text>
<text text-anchor="start" x="2089.5" y="-385.5" font-family="Helvetica,sans-Serif" font-size="10.00" fill="#000000">/AliceO2Group/AliceO2</text>
<text text-anchor="start" x="2089.5" y="-374.5" font-family="Helvetica,sans-Serif" font-size="10.00" fill="#000000">/Detectors/TPC/simulation</text>
<text text-anchor="middle" x="2153" y="-363.5" font-family="Helvetica,sans-Serif" font-size="10.00" fill="#000000">/src/SpaceCharge.cxx</text>
</a>
</g>
</g>
<!-- Node31&#45;&gt;Node32 -->
<g id="edge32" class="edge">
<title>Node31&#45;&gt;Node32</title>
<path fill="none" stroke="#191970" d="M2089.9938,-438.5755C2101.1289,-428.6653 2113.1889,-417.9319 2123.7481,-408.5341"/>
<polygon fill="#191970" stroke="#191970" points="2087.6055,-436.0156 2082.4624,-445.2784 2092.2593,-441.2446 2087.6055,-436.0156"/>
</g>
<!-- Node34 -->
<g id="node29" class="node">
<title>Node34</title>
<g id="a_node29"><a xlink:href="../../d7/d40/TRD_2simulation_2src_2Digitizer_8cxx.html" target="_top" xlink:title="/home/travis/build\l/AliceO2Group/AliceO2\l/Detectors/TRD/simulation\l/src/Digitizer.cxx">
<polygon fill="none" stroke="#000000" points="2242.5,-356.5 2242.5,-408.5 2387.5,-408.5 2387.5,-356.5 2242.5,-356.5"/>
<text text-anchor="start" x="2250.5" y="-396.5" font-family="Helvetica,sans-Serif" font-size="10.00" fill="#000000">/home/travis/build</text>
<text text-anchor="start" x="2250.5" y="-385.5" font-family="Helvetica,sans-Serif" font-size="10.00" fill="#000000">/AliceO2Group/AliceO2</text>
<text text-anchor="start" x="2250.5" y="-374.5" font-family="Helvetica,sans-Serif" font-size="10.00" fill="#000000">/Detectors/TRD/simulation</text>
<text text-anchor="middle" x="2315" y="-363.5" font-family="Helvetica,sans-Serif" font-size="10.00" fill="#000000">/src/Digitizer.cxx</text>
</a>
</g>
</g>
<!-- Node33&#45;&gt;Node34 -->
<g id="edge34" class="edge">
<title>Node33&#45;&gt;Node34</title>
<path fill="none" stroke="#191970" d="M2315,-435.1155C2315,-426.2061 2315,-416.8475 2315,-408.5341"/>
<polygon fill="#191970" stroke="#191970" points="2311.5001,-435.2784 2315,-445.2784 2318.5001,-435.2785 2311.5001,-435.2784"/>
</g>
<!-- Node35 -->
<g id="node30" class="node">
<title>Node35</title>
<g id="a_node30"><a xlink:href="../../d6/df2/TRDDigitizerSpec_8cxx.html" target="_top" xlink:title="/home/travis/build\l/AliceO2Group/AliceO2\l/Detectors/TRD/workflow\l/src/TRDDigitizerSpec.cxx">
<polygon fill="none" stroke="#000000" points="2406,-356.5 2406,-408.5 2548,-408.5 2548,-356.5 2406,-356.5"/>
<text text-anchor="start" x="2414" y="-396.5" font-family="Helvetica,sans-Serif" font-size="10.00" fill="#000000">/home/travis/build</text>
<text text-anchor="start" x="2414" y="-385.5" font-family="Helvetica,sans-Serif" font-size="10.00" fill="#000000">/AliceO2Group/AliceO2</text>
<text text-anchor="start" x="2414" y="-374.5" font-family="Helvetica,sans-Serif" font-size="10.00" fill="#000000">/Detectors/TRD/workflow</text>
<text text-anchor="middle" x="2477" y="-363.5" font-family="Helvetica,sans-Serif" font-size="10.00" fill="#000000">/src/TRDDigitizerSpec.cxx</text>
</a>
</g>
</g>
<!-- Node33&#45;&gt;Node35 -->
<g id="edge35" class="edge">
<title>Node33&#45;&gt;Node35</title>
<path fill="none" stroke="#191970" d="M2371.5662,-440.4235C2390.5172,-430.0122 2411.4369,-418.5192 2429.612,-408.5341"/>
<polygon fill="#191970" stroke="#191970" points="2369.8083,-437.3958 2362.7291,-445.2784 2373.1789,-443.5309 2369.8083,-437.3958"/>
</g>
</g>
</svg>
        <g id="navigator" transform="translate(0 0)" fill="#404254">
                <rect fill="#f2f5e9" fill-opacity="0.5" stroke="#606060" stroke-width=".5" x="0" y="0" width="60" height="60"/>
                <use id="zoomplus" xlink:href="#zoomPlus" x="17" y="9" onmousedown="handleZoom(evt,'in')"/>
                <use id="zoomminus" xlink:href="#zoomMin" x="42" y="9" onmousedown="handleZoom(evt,'out')"/>
                <use id="reset" xlink:href="#resetDef" x="30" y="36" onmousedown="handleReset()"/>
                <g id="arrowUp" xlink:href="#dirArrow" transform="translate(30 24)" onmousedown="handlePan(0,-1)">
                  <use xlink:href="#rim" fill="#404040">
                        <set attributeName="fill" to="#808080" begin="arrowUp.mouseover" end="arrowUp.mouseout"/>
                  </use>
                  <path fill="none" stroke="white" stroke-width="1.5" d="M0,-3.0v7 M-2.5,-0.5L0,-3.0L2.5,-0.5"/>
                </g>
                <g id="arrowRight" xlink:href="#dirArrow" transform="rotate(90) translate(36 -43)" onmousedown="handlePan(1,0)">
                  <use xlink:href="#rim" fill="#404040">
                        <set attributeName="fill" to="#808080" begin="arrowRight.mouseover" end="arrowRight.mouseout"/>
                  </use>
                  <path fill="none" stroke="white" stroke-width="1.5" d="M0,-3.0v7 M-2.5,-0.5L0,-3.0L2.5,-0.5"/>
                </g>
                <g id="arrowDown" xlink:href="#dirArrow" transform="rotate(180) translate(-30 -48)" onmousedown="handlePan(0,1)">
                  <use xlink:href="#rim" fill="#404040">
                        <set attributeName="fill" to="#808080" begin="arrowDown.mouseover" end="arrowDown.mouseout"/>
                  </use>
                  <path fill="none" stroke="white" stroke-width="1.5" d="M0,-3.0v7 M-2.5,-0.5L0,-3.0L2.5,-0.5"/>
                </g>
                <g id="arrowLeft" xlink:href="#dirArrow" transform="rotate(270) translate(-36 17)" onmousedown="handlePan(-1,0)">
                  <use xlink:href="#rim" fill="#404040">
                        <set attributeName="fill" to="#808080" begin="arrowLeft.mouseover" end="arrowLeft.mouseout"/>
                  </use>
                  <path fill="none" stroke="white" stroke-width="1.5" d="M0,-3.0v7 M-2.5,-0.5L0,-3.0L2.5,-0.5"/>
                </g>
        </g>
        <svg viewBox="0 0 15 15" width="100%" height="30px" preserveAspectRatio="xMaxYMin meet">
         <g id="arrow_out" transform="scale(0.3 0.3)">
          <a xlink:href="RandomRing_8h__dep__incl_org.svg" target="_base">
           <rect id="button" ry="5" rx="5" y="6" x="6" height="38" width="38"
                fill="#f2f5e9" fill-opacity="0.5" stroke="#606060" stroke-width="1.0"/>
           <path id="arrow"
             d="M 11.500037,31.436501 C 11.940474,20.09759 22.043105,11.32322 32.158766,21.979434 L 37.068811,17.246167 C 37.068811,17.246167 37.088388,32 37.088388,32 L 22.160133,31.978069 C 22.160133,31.978069 26.997745,27.140456 26.997745,27.140456 C 18.528582,18.264221 13.291696,25.230495 11.500037,31.436501 z"
             style="fill:#404040;"/>
          </a>
         </g>
        </svg>
</svg>
