<?xml version="1.0" encoding="UTF-8" standalone="no"?>
<!DOCTYPE svg PUBLIC "-//W3C//DTD SVG 1.1//EN"
 "http://www.w3.org/Graphics/SVG/1.1/DTD/svg11.dtd">
<!-- Generated by graphviz version 2.40.1 (20161225.0304)
 -->
<!-- Title: /home/travis/build/AliceO2Group/AliceO2/Algorithm/include/Algorithm/Parser.h Pages: 1 -->
<svg width="680pt" height="150pt"
 viewBox="0.00 0.00 679.50 150.00" xmlns="http://www.w3.org/2000/svg" xmlns:xlink="http://www.w3.org/1999/xlink">
<g id="graph0" class="graph" transform="scale(1 1) rotate(0) translate(4 146)">
<title>/home/travis/build/AliceO2Group/AliceO2/Algorithm/include/Algorithm/Parser.h</title>
<!-- Node3 -->
<g id="node1" class="node">
<title>Node3</title>
<polygon fill="#bfbfbf" stroke="#000000" points="256,-89.5 256,-141.5 413,-141.5 413,-89.5 256,-89.5"/>
<text text-anchor="start" x="264" y="-129.5" font-family="Helvetica,sans-Serif" font-size="10.00" fill="#000000">/home/travis/build</text>
<text text-anchor="start" x="264" y="-118.5" font-family="Helvetica,sans-Serif" font-size="10.00" fill="#000000">/AliceO2Group/AliceO2</text>
<text text-anchor="start" x="264" y="-107.5" font-family="Helvetica,sans-Serif" font-size="10.00" fill="#000000">/Algorithm/include/Algorithm</text>
<text text-anchor="middle" x="334.5" y="-96.5" font-family="Helvetica,sans-Serif" font-size="10.00" fill="#000000">/Parser.h</text>
</g>
<!-- Node4 -->
<g id="node2" class="node">
<title>Node4</title>
<g id="a_node2"><a xlink:href="../../da/d35/parser_8cxx.html" target="_top" xlink:title="Unit test for parser of objects in memory pages. ">
<polygon fill="none" stroke="#000000" points="0,-6 0,-47 143,-47 143,-6 0,-6"/>
<text text-anchor="start" x="8" y="-35" font-family="Helvetica,sans-Serif" font-size="10.00" fill="#000000">/home/travis/build</text>
<text text-anchor="start" x="8" y="-24" font-family="Helvetica,sans-Serif" font-size="10.00" fill="#000000">/AliceO2Group/AliceO2</text>
<text text-anchor="middle" x="71.5" y="-13" font-family="Helvetica,sans-Serif" font-size="10.00" fill="#000000">/Algorithm/test/parser.cxx</text>
</a>
</g>
</g>
<!-- Node3&#45;&gt;Node4 -->
<g id="edge1" class="edge">
<title>Node3&#45;&gt;Node4</title>
<path fill="none" stroke="#191970" d="M247.8864,-86.1897C210.0784,-73.3954 166.6452,-58.6974 132.3389,-47.0881"/>
<polygon fill="#191970" stroke="#191970" points="246.7741,-89.5082 257.3684,-89.3984 249.018,-82.8776 246.7741,-89.5082"/>
</g>
<!-- Node5 -->
<g id="node3" class="node">
<title>Node5</title>
<g id="a_node3"><a xlink:href="../../d4/d51/tableview_8cxx.html" target="_top" xlink:title="/home/travis/build\l/AliceO2Group/AliceO2\l/Algorithm/test/tableview.cxx">
<polygon fill="none" stroke="#000000" points="161.5,-6 161.5,-47 321.5,-47 321.5,-6 161.5,-6"/>
<text text-anchor="start" x="169.5" y="-35" font-family="Helvetica,sans-Serif" font-size="10.00" fill="#000000">/home/travis/build</text>
<text text-anchor="start" x="169.5" y="-24" font-family="Helvetica,sans-Serif" font-size="10.00" fill="#000000">/AliceO2Group/AliceO2</text>
<text text-anchor="middle" x="241.5" y="-13" font-family="Helvetica,sans-Serif" font-size="10.00" fill="#000000">/Algorithm/test/tableview.cxx</text>
</a>
</g>
</g>
<!-- Node3&#45;&gt;Node5 -->
<g id="edge2" class="edge">
<title>Node3&#45;&gt;Node5</title>
<path fill="none" stroke="#191970" d="M299.6458,-82.1449C287.3809,-70.4075 273.9606,-57.5645 263.1064,-47.1771"/>
<polygon fill="#191970" stroke="#191970" points="297.4553,-84.8931 307.0999,-89.2784 302.2951,-79.8357 297.4553,-84.8931"/>
</g>
<!-- Node6 -->
<g id="node4" class="node">
<title>Node6</title>
<g id="a_node4"><a xlink:href="../../d5/d1e/ClusterNativeHelper_8cxx.html" target="_top" xlink:title="Helper class to read the binary format of TPC ClusterNative. ">
<polygon fill="none" stroke="#000000" points="340,-.5 340,-52.5 517,-52.5 517,-.5 340,-.5"/>
<text text-anchor="start" x="348" y="-40.5" font-family="Helvetica,sans-Serif" font-size="10.00" fill="#000000">/home/travis/build</text>
<text text-anchor="start" x="348" y="-29.5" font-family="Helvetica,sans-Serif" font-size="10.00" fill="#000000">/AliceO2Group/AliceO2</text>
<text text-anchor="start" x="348" y="-18.5" font-family="Helvetica,sans-Serif" font-size="10.00" fill="#000000">/DataFormats/Detectors</text>
<text text-anchor="middle" x="428.5" y="-7.5" font-family="Helvetica,sans-Serif" font-size="10.00" fill="#000000">/TPC/src/ClusterNativeHelper.cxx</text>
</a>
</g>
</g>
<!-- Node3&#45;&gt;Node6 -->
<g id="edge3" class="edge">
<title>Node3&#45;&gt;Node6</title>
<path fill="none" stroke="#191970" d="M369.5763,-82.2894C379.959,-72.459 391.173,-61.8415 401.0033,-52.5341"/>
<polygon fill="#191970" stroke="#191970" points="367.0499,-79.8615 362.1947,-89.2784 371.8626,-84.9447 367.0499,-79.8615"/>
</g>
<!-- Node7 -->
<g id="node5" class="node">
<title>Node7</title>
<g id="a_node5"><a xlink:href="../../da/d78/CATrackerSpec_8cxx.html" target="_top" xlink:title="Processor spec for running TPC CA tracking. ">
<polygon fill="none" stroke="#000000" points="535.5,-.5 535.5,-52.5 671.5,-52.5 671.5,-.5 535.5,-.5"/>
<text text-anchor="start" x="543.5" y="-40.5" font-family="Helvetica,sans-Serif" font-size="10.00" fill="#000000">/home/travis/build</text>
<text text-anchor="start" x="543.5" y="-29.5" font-family="Helvetica,sans-Serif" font-size="10.00" fill="#000000">/AliceO2Group/AliceO2</text>
<text text-anchor="start" x="543.5" y="-18.5" font-family="Helvetica,sans-Serif" font-size="10.00" fill="#000000">/Detectors/TPC/workflow</text>
<text text-anchor="middle" x="603.5" y="-7.5" font-family="Helvetica,sans-Serif" font-size="10.00" fill="#000000">/src/CATrackerSpec.cxx</text>
</a>
</g>
</g>
<!-- Node3&#45;&gt;Node7 -->
<g id="edge4" class="edge">
<title>Node3&#45;&gt;Node7</title>
<path fill="none" stroke="#191970" d="M422.5983,-87.1643C455.2721,-76.5651 492.6147,-64.3452 526.5,-53 529.3153,-52.0574 532.1868,-51.0911 535.0865,-50.1114"/>
<polygon fill="#191970" stroke="#191970" points="421.5005,-83.8407 413.0666,-90.2533 423.6586,-90.4998 421.5005,-83.8407"/>
</g>
</g>
</svg>
