<?xml version="1.0" encoding="UTF-8" standalone="no"?>
<!DOCTYPE svg PUBLIC "-//W3C//DTD SVG 1.1//EN"
 "http://www.w3.org/Graphics/SVG/1.1/DTD/svg11.dtd">
<!-- Generated by graphviz version 2.40.1 (20161225.0304)
 -->
<!-- Title: /home/travis/build/AliceO2Group/AliceO2/DataFormats/Detectors/ITSMFT/MFT/include/DataFormatsMFT/TrackMFT.h Pages: 1 -->
<!--zoomable 361 -->
<svg id="main" version="1.1" xmlns="http://www.w3.org/2000/svg" xmlns:xlink="http://www.w3.org/1999/xlink" xml:space="preserve" onload="init(evt)">
<style type="text/css"><![CDATA[
.edge:hover path { stroke: red; }
.edge:hover polygon { stroke: red; fill: red; }
]]></style>
<script type="text/javascript"><![CDATA[
var edges = document.getElementsByTagName('g');
if (edges && edges.length) {
  for (var i=0;i<edges.length;i++) {
    if (edges[i].id.substr(0,4)=='edge') {
      edges[i].setAttribute('class','edge');
    }
  }
}
]]></script>
        <defs>
                <circle id="rim" cx="0" cy="0" r="7"/>
                <circle id="rim2" cx="0" cy="0" r="3.5"/>
                <g id="zoomPlus">
                        <use xlink:href="#rim" fill="#404040">
                                <set attributeName="fill" to="#808080" begin="zoomplus.mouseover" end="zoomplus.mouseout"/>
                        </use>
                        <path d="M-4,0h8M0,-4v8" fill="none" stroke="white" stroke-width="1.5" pointer-events="none"/>
                </g>
                <g id="zoomMin">
                        <use xlink:href="#rim" fill="#404040">
                                <set attributeName="fill" to="#808080" begin="zoomminus.mouseover" end="zoomminus.mouseout"/>
                        </use>
                        <path d="M-4,0h8" fill="none" stroke="white" stroke-width="1.5" pointer-events="none"/>
                </g>
                <g id="dirArrow">
                        <path fill="none" stroke="white" stroke-width="1.5" d="M0,-3.0v7 M-2.5,-0.5L0,-3.0L2.5,-0.5"/>
                </g>
               <g id="resetDef">
                       <use xlink:href="#rim2" fill="#404040">
                               <set attributeName="fill" to="#808080" begin="reset.mouseover" end="reset.mouseout"/>
                       </use>
               </g>
        </defs>

<script type="text/javascript">
var viewWidth = 990;
var viewHeight = 361;
var sectionId = 'dynsection-1';
</script>
<script xlink:href="../../svgpan.js"/>
<svg id="graph" class="graph">
<g id="viewport">
<title>/home/travis/build/AliceO2Group/AliceO2/DataFormats/Detectors/ITSMFT/MFT/include/DataFormatsMFT/TrackMFT.h</title>
<!-- Node43 -->
<g id="node1" class="node">
<title>Node43</title>
<polygon fill="#bfbfbf" stroke="#000000" points="362,-289.5 362,-352.5 543,-352.5 543,-289.5 362,-289.5"/>
<text text-anchor="start" x="370" y="-340.5" font-family="Helvetica,sans-Serif" font-size="10.00" fill="#000000">/home/travis/build</text>
<text text-anchor="start" x="370" y="-329.5" font-family="Helvetica,sans-Serif" font-size="10.00" fill="#000000">/AliceO2Group/AliceO2</text>
<text text-anchor="start" x="370" y="-318.5" font-family="Helvetica,sans-Serif" font-size="10.00" fill="#000000">/DataFormats/Detectors</text>
<text text-anchor="start" x="370" y="-307.5" font-family="Helvetica,sans-Serif" font-size="10.00" fill="#000000">/ITSMFT/MFT/include/DataFormats</text>
<text text-anchor="middle" x="452.5" y="-296.5" font-family="Helvetica,sans-Serif" font-size="10.00" fill="#000000">MFT/TrackMFT.h</text>
</g>
<!-- Node44 -->
<g id="node2" class="node">
<title>Node44</title>
<g id="a_node2"><a xlink:href="../../d7/d4a/TrackMFT_8cxx.html" target="_top" xlink:title="Implementation of the MFT track. ">
<polygon fill="none" stroke="#000000" points="27,-195 27,-247 188,-247 188,-195 27,-195"/>
<text text-anchor="start" x="35" y="-235" font-family="Helvetica,sans-Serif" font-size="10.00" fill="#000000">/home/travis/build</text>
<text text-anchor="start" x="35" y="-224" font-family="Helvetica,sans-Serif" font-size="10.00" fill="#000000">/AliceO2Group/AliceO2</text>
<text text-anchor="start" x="35" y="-213" font-family="Helvetica,sans-Serif" font-size="10.00" fill="#000000">/DataFormats/Detectors</text>
<text text-anchor="middle" x="107.5" y="-202" font-family="Helvetica,sans-Serif" font-size="10.00" fill="#000000">/ITSMFT/MFT/src/TrackMFT.cxx</text>
</a>
</g>
</g>
<!-- Node43&#45;&gt;Node44 -->
<g id="edge1" class="edge">
<title>Node43&#45;&gt;Node44</title>
<path fill="none" stroke="#191970" d="M351.946,-295.1068C306.1722,-282.9464 251.412,-267.8755 202.5,-253 196.3393,-251.1264 189.9749,-249.1258 183.5945,-247.0743"/>
<polygon fill="#191970" stroke="#191970" points="351.3082,-298.5585 361.871,-297.7354 353.1004,-291.7918 351.3082,-298.5585"/>
</g>
<!-- Node45 -->
<g id="node3" class="node">
<title>Node45</title>
<g id="a_node3"><a xlink:href="../../d6/d36/ITSMFT_2MFT_2reconstruction_2include_2MFTReconstruction_2Tracker_8h.html" target="_top" xlink:title="/home/travis/build\l/AliceO2Group/AliceO2\l/Detectors/ITSMFT/MFT\l/reconstruction/include\l/MFTReconstruction/Tracker.h">
<polygon fill="none" stroke="#000000" points="244.5,-189.5 244.5,-252.5 402.5,-252.5 402.5,-189.5 244.5,-189.5"/>
<text text-anchor="start" x="252.5" y="-240.5" font-family="Helvetica,sans-Serif" font-size="10.00" fill="#000000">/home/travis/build</text>
<text text-anchor="start" x="252.5" y="-229.5" font-family="Helvetica,sans-Serif" font-size="10.00" fill="#000000">/AliceO2Group/AliceO2</text>
<text text-anchor="start" x="252.5" y="-218.5" font-family="Helvetica,sans-Serif" font-size="10.00" fill="#000000">/Detectors/ITSMFT/MFT</text>
<text text-anchor="start" x="252.5" y="-207.5" font-family="Helvetica,sans-Serif" font-size="10.00" fill="#000000">/reconstruction/include</text>
<text text-anchor="middle" x="323.5" y="-196.5" font-family="Helvetica,sans-Serif" font-size="10.00" fill="#000000">/MFTReconstruction/Tracker.h</text>
</a>
</g>
</g>
<!-- Node43&#45;&gt;Node45 -->
<g id="edge2" class="edge">
<title>Node43&#45;&gt;Node45</title>
<path fill="none" stroke="#191970" d="M403.7622,-283.2188C390.8204,-273.1863 376.9766,-262.4547 364.4937,-252.778"/>
<polygon fill="#191970" stroke="#191970" points="401.6358,-285.9989 411.6836,-289.3594 405.9245,-280.4665 401.6358,-285.9989"/>
</g>
<!-- Node46 -->
<g id="node4" class="node">
<title>Node46</title>
<g id="a_node4"><a xlink:href="../../d2/de5/TrackerTask_8h.html" target="_top" xlink:title="Task driving the track finding from MFT clusters. ">
<polygon fill="none" stroke="#000000" points="3.5,-89.5 3.5,-152.5 183.5,-152.5 183.5,-89.5 3.5,-89.5"/>
<text text-anchor="start" x="11.5" y="-140.5" font-family="Helvetica,sans-Serif" font-size="10.00" fill="#000000">/home/travis/build</text>
<text text-anchor="start" x="11.5" y="-129.5" font-family="Helvetica,sans-Serif" font-size="10.00" fill="#000000">/AliceO2Group/AliceO2</text>
<text text-anchor="start" x="11.5" y="-118.5" font-family="Helvetica,sans-Serif" font-size="10.00" fill="#000000">/Detectors/ITSMFT/MFT</text>
<text text-anchor="start" x="11.5" y="-107.5" font-family="Helvetica,sans-Serif" font-size="10.00" fill="#000000">/reconstruction/include</text>
<text text-anchor="middle" x="93.5" y="-96.5" font-family="Helvetica,sans-Serif" font-size="10.00" fill="#000000">/MFTReconstruction/TrackerTask.h</text>
</a>
</g>
</g>
<!-- Node43&#45;&gt;Node46 -->
<g id="edge6" class="edge">
<title>Node43&#45;&gt;Node46</title>
<path fill="none" stroke="#191970" d="M352.0501,-305.3269C312.6583,-295.3578 268.9745,-279.1729 235.5,-253 209.2592,-232.4829 219.623,-212.9762 196.5,-189 183.2616,-175.2732 166.779,-162.872 150.9079,-152.5337"/>
<polygon fill="#191970" stroke="#191970" points="351.4205,-308.7756 361.9636,-307.7298 353.0695,-301.9726 351.4205,-308.7756"/>
</g>
<!-- Node49 -->
<g id="node7" class="node">
<title>Node49</title>
<g id="a_node7"><a xlink:href="../../dd/dbf/ITSMFT_2MFT_2tracking_2include_2MFTTracking_2Tracker_8h.html" target="_top" xlink:title="/home/travis/build\l/AliceO2Group/AliceO2\l/Detectors/ITSMFT/MFT\l/tracking/include/MFTTracking\l/Tracker.h">
<polygon fill="none" stroke="#000000" points="461,-189.5 461,-252.5 622,-252.5 622,-189.5 461,-189.5"/>
<text text-anchor="start" x="469" y="-240.5" font-family="Helvetica,sans-Serif" font-size="10.00" fill="#000000">/home/travis/build</text>
<text text-anchor="start" x="469" y="-229.5" font-family="Helvetica,sans-Serif" font-size="10.00" fill="#000000">/AliceO2Group/AliceO2</text>
<text text-anchor="start" x="469" y="-218.5" font-family="Helvetica,sans-Serif" font-size="10.00" fill="#000000">/Detectors/ITSMFT/MFT</text>
<text text-anchor="start" x="469" y="-207.5" font-family="Helvetica,sans-Serif" font-size="10.00" fill="#000000">/tracking/include/MFTTracking</text>
<text text-anchor="middle" x="541.5" y="-196.5" font-family="Helvetica,sans-Serif" font-size="10.00" fill="#000000">/Tracker.h</text>
</a>
</g>
</g>
<!-- Node43&#45;&gt;Node49 -->
<g id="edge7" class="edge">
<title>Node43&#45;&gt;Node49</title>
<path fill="none" stroke="#191970" d="M487.3928,-281.7946C495.9531,-272.1763 505.0115,-261.9983 513.2176,-252.778"/>
<polygon fill="#191970" stroke="#191970" points="484.694,-279.5625 480.6602,-289.3594 489.923,-284.2163 484.694,-279.5625"/>
</g>
<!-- Node53 -->
<g id="node11" class="node">
<title>Node53</title>
<g id="a_node11"><a xlink:href="../../d1/dd0/ITSMFT_2MFT_2workflow_2src_2TrackerSpec_8cxx.html" target="_top" xlink:title="/home/travis/build\l/AliceO2Group/AliceO2\l/Detectors/ITSMFT/MFT\l/workflow/src/TrackerSpec.cxx">
<polygon fill="none" stroke="#000000" points="671,-.5 671,-52.5 834,-52.5 834,-.5 671,-.5"/>
<text text-anchor="start" x="679" y="-40.5" font-family="Helvetica,sans-Serif" font-size="10.00" fill="#000000">/home/travis/build</text>
<text text-anchor="start" x="679" y="-29.5" font-family="Helvetica,sans-Serif" font-size="10.00" fill="#000000">/AliceO2Group/AliceO2</text>
<text text-anchor="start" x="679" y="-18.5" font-family="Helvetica,sans-Serif" font-size="10.00" fill="#000000">/Detectors/ITSMFT/MFT</text>
<text text-anchor="middle" x="752.5" y="-7.5" font-family="Helvetica,sans-Serif" font-size="10.00" fill="#000000">/workflow/src/TrackerSpec.cxx</text>
</a>
</g>
</g>
<!-- Node43&#45;&gt;Node53 -->
<g id="edge13" class="edge">
<title>Node43&#45;&gt;Node53</title>
<path fill="none" stroke="#191970" d="M552.7444,-295.0992C621.9414,-271.1096 707.8403,-227.5654 744.5,-153 760.1315,-121.2057 759.2657,-79.369 756.4705,-52.6967"/>
<polygon fill="#191970" stroke="#191970" points="551.4533,-291.8409 543.0981,-298.3556 553.6923,-298.4732 551.4533,-291.8409"/>
</g>
<!-- Node54 -->
<g id="node12" class="node">
<title>Node54</title>
<g id="a_node12"><a xlink:href="../../d3/daa/MFT_2workflow_2src_2TrackWriterSpec_8cxx.html" target="_top" xlink:title="/home/travis/build\l/AliceO2Group/AliceO2\l/Detectors/ITSMFT/MFT\l/workflow/src/TrackWriterSpec.cxx">
<polygon fill="none" stroke="#000000" points="799.5,-195 799.5,-247 981.5,-247 981.5,-195 799.5,-195"/>
<text text-anchor="start" x="807.5" y="-235" font-family="Helvetica,sans-Serif" font-size="10.00" fill="#000000">/home/travis/build</text>
<text text-anchor="start" x="807.5" y="-224" font-family="Helvetica,sans-Serif" font-size="10.00" fill="#000000">/AliceO2Group/AliceO2</text>
<text text-anchor="start" x="807.5" y="-213" font-family="Helvetica,sans-Serif" font-size="10.00" fill="#000000">/Detectors/ITSMFT/MFT</text>
<text text-anchor="middle" x="890.5" y="-202" font-family="Helvetica,sans-Serif" font-size="10.00" fill="#000000">/workflow/src/TrackWriterSpec.cxx</text>
</a>
</g>
</g>
<!-- Node43&#45;&gt;Node54 -->
<g id="edge14" class="edge">
<title>Node43&#45;&gt;Node54</title>
<path fill="none" stroke="#191970" d="M553.1618,-303.0078C619.5114,-290.5203 708.1179,-272.6458 785.5,-253 792.7037,-251.1711 800.1494,-249.1568 807.5962,-247.056"/>
<polygon fill="#191970" stroke="#191970" points="552.3088,-299.6066 543.1241,-304.8879 553.5976,-306.487 552.3088,-299.6066"/>
</g>
<!-- Node45&#45;&gt;Node46 -->
<g id="edge3" class="edge">
<title>Node45&#45;&gt;Node46</title>
<path fill="none" stroke="#191970" d="M241.6932,-185.4318C216.986,-174.6896 190.0433,-162.9753 165.9886,-152.5168"/>
<polygon fill="#191970" stroke="#191970" points="240.476,-188.7191 251.0423,-189.4966 243.2671,-182.2996 240.476,-188.7191"/>
</g>
<!-- Node48 -->
<g id="node6" class="node">
<title>Node48</title>
<g id="a_node6"><a xlink:href="../../de/d4b/ITSMFT_2MFT_2reconstruction_2src_2Tracker_8cxx.html" target="_top" xlink:title="/home/travis/build\l/AliceO2Group/AliceO2\l/Detectors/ITSMFT/MFT\l/reconstruction/src/Tracker.cxx">
<polygon fill="none" stroke="#000000" points="201.5,-95 201.5,-147 365.5,-147 365.5,-95 201.5,-95"/>
<text text-anchor="start" x="209.5" y="-135" font-family="Helvetica,sans-Serif" font-size="10.00" fill="#000000">/home/travis/build</text>
<text text-anchor="start" x="209.5" y="-124" font-family="Helvetica,sans-Serif" font-size="10.00" fill="#000000">/AliceO2Group/AliceO2</text>
<text text-anchor="start" x="209.5" y="-113" font-family="Helvetica,sans-Serif" font-size="10.00" fill="#000000">/Detectors/ITSMFT/MFT</text>
<text text-anchor="middle" x="283.5" y="-102" font-family="Helvetica,sans-Serif" font-size="10.00" fill="#000000">/reconstruction/src/Tracker.cxx</text>
</a>
</g>
</g>
<!-- Node45&#45;&gt;Node48 -->
<g id="edge5" class="edge">
<title>Node45&#45;&gt;Node48</title>
<path fill="none" stroke="#191970" d="M307.0341,-179.8352C302.6029,-168.7573 297.9327,-157.0819 293.9312,-147.078"/>
<polygon fill="#191970" stroke="#191970" points="303.8801,-181.3745 310.8438,-189.3594 310.3795,-178.7747 303.8801,-181.3745"/>
</g>
<!-- Node47 -->
<g id="node5" class="node">
<title>Node47</title>
<g id="a_node5"><a xlink:href="../../d7/d1b/TrackerTask_8cxx.html" target="_top" xlink:title="Task driving the track finding from MFT clusters. ">
<polygon fill="none" stroke="#000000" points="0,-.5 0,-52.5 187,-52.5 187,-.5 0,-.5"/>
<text text-anchor="start" x="8" y="-40.5" font-family="Helvetica,sans-Serif" font-size="10.00" fill="#000000">/home/travis/build</text>
<text text-anchor="start" x="8" y="-29.5" font-family="Helvetica,sans-Serif" font-size="10.00" fill="#000000">/AliceO2Group/AliceO2</text>
<text text-anchor="start" x="8" y="-18.5" font-family="Helvetica,sans-Serif" font-size="10.00" fill="#000000">/Detectors/ITSMFT/MFT</text>
<text text-anchor="middle" x="93.5" y="-7.5" font-family="Helvetica,sans-Serif" font-size="10.00" fill="#000000">/reconstruction/src/TrackerTask.cxx</text>
</a>
</g>
</g>
<!-- Node46&#45;&gt;Node47 -->
<g id="edge4" class="edge">
<title>Node46&#45;&gt;Node47</title>
<path fill="none" stroke="#191970" d="M93.5,-79.2457C93.5,-70.2008 93.5,-60.8836 93.5,-52.6442"/>
<polygon fill="#191970" stroke="#191970" points="90.0001,-79.2699 93.5,-89.27 97.0001,-79.27 90.0001,-79.2699"/>
</g>
<!-- Node50 -->
<g id="node8" class="node">
<title>Node50</title>
<g id="a_node8"><a xlink:href="../../d4/d77/ITSMFT_2MFT_2tracking_2src_2Tracker_8cxx.html" target="_top" xlink:title="/home/travis/build\l/AliceO2Group/AliceO2\l/Detectors/ITSMFT/MFT\l/tracking/src/Tracker.cxx">
<polygon fill="none" stroke="#000000" points="383.5,-95 383.5,-147 517.5,-147 517.5,-95 383.5,-95"/>
<text text-anchor="start" x="391.5" y="-135" font-family="Helvetica,sans-Serif" font-size="10.00" fill="#000000">/home/travis/build</text>
<text text-anchor="start" x="391.5" y="-124" font-family="Helvetica,sans-Serif" font-size="10.00" fill="#000000">/AliceO2Group/AliceO2</text>
<text text-anchor="start" x="391.5" y="-113" font-family="Helvetica,sans-Serif" font-size="10.00" fill="#000000">/Detectors/ITSMFT/MFT</text>
<text text-anchor="middle" x="450.5" y="-102" font-family="Helvetica,sans-Serif" font-size="10.00" fill="#000000">/tracking/src/Tracker.cxx</text>
</a>
</g>
</g>
<!-- Node49&#45;&gt;Node50 -->
<g id="edge8" class="edge">
<title>Node49&#45;&gt;Node50</title>
<path fill="none" stroke="#191970" d="M505.8664,-181.8422C495.2526,-170.1787 483.8862,-157.6881 474.2309,-147.078"/>
<polygon fill="#191970" stroke="#191970" points="503.388,-184.319 512.707,-189.3594 508.5652,-179.6076 503.388,-184.319"/>
</g>
<!-- Node51 -->
<g id="node9" class="node">
<title>Node51</title>
<g id="a_node9"><a xlink:href="../../d8/da1/ITSMFT_2MFT_2workflow_2include_2MFTWorkflow_2TrackerSpec_8h.html" target="_top" xlink:title="/home/travis/build\l/AliceO2Group/AliceO2\l/Detectors/ITSMFT/MFT\l/workflow/include/MFTWorkflow\l/TrackerSpec.h">
<polygon fill="none" stroke="#000000" points="535.5,-89.5 535.5,-152.5 705.5,-152.5 705.5,-89.5 535.5,-89.5"/>
<text text-anchor="start" x="543.5" y="-140.5" font-family="Helvetica,sans-Serif" font-size="10.00" fill="#000000">/home/travis/build</text>
<text text-anchor="start" x="543.5" y="-129.5" font-family="Helvetica,sans-Serif" font-size="10.00" fill="#000000">/AliceO2Group/AliceO2</text>
<text text-anchor="start" x="543.5" y="-118.5" font-family="Helvetica,sans-Serif" font-size="10.00" fill="#000000">/Detectors/ITSMFT/MFT</text>
<text text-anchor="start" x="543.5" y="-107.5" font-family="Helvetica,sans-Serif" font-size="10.00" fill="#000000">/workflow/include/MFTWorkflow</text>
<text text-anchor="middle" x="620.5" y="-96.5" font-family="Helvetica,sans-Serif" font-size="10.00" fill="#000000">/TrackerSpec.h</text>
</a>
</g>
</g>
<!-- Node49&#45;&gt;Node51 -->
<g id="edge9" class="edge">
<title>Node49&#45;&gt;Node51</title>
<path fill="none" stroke="#191970" d="M572.6981,-181.5088C580.2299,-171.9748 588.1835,-161.907 595.3954,-152.778"/>
<polygon fill="#191970" stroke="#191970" points="569.9487,-179.3429 566.4961,-189.3594 575.4415,-183.6822 569.9487,-179.3429"/>
</g>
<!-- Node49&#45;&gt;Node53 -->
<g id="edge12" class="edge">
<title>Node49&#45;&gt;Node53</title>
<path fill="none" stroke="#191970" d="M631.8423,-202.3831C661.6458,-192.2223 692.7069,-176.6741 714.5,-153 740.1258,-125.1624 748.5043,-80.6585 751.2229,-52.5365"/>
<polygon fill="#191970" stroke="#191970" points="630.6598,-199.087 622.2234,-205.4962 632.8153,-205.7469 630.6598,-199.087"/>
</g>
<!-- Node52 -->
<g id="node10" class="node">
<title>Node52</title>
<g id="a_node10"><a xlink:href="../../d1/df6/ITSMFT_2MFT_2workflow_2src_2RecoWorkflow_8cxx.html" target="_top" xlink:title="/home/travis/build\l/AliceO2Group/AliceO2\l/Detectors/ITSMFT/MFT\l/workflow/src/RecoWorkflow.cxx">
<polygon fill="none" stroke="#000000" points="480.5,-.5 480.5,-52.5 652.5,-52.5 652.5,-.5 480.5,-.5"/>
<text text-anchor="start" x="488.5" y="-40.5" font-family="Helvetica,sans-Serif" font-size="10.00" fill="#000000">/home/travis/build</text>
<text text-anchor="start" x="488.5" y="-29.5" font-family="Helvetica,sans-Serif" font-size="10.00" fill="#000000">/AliceO2Group/AliceO2</text>
<text text-anchor="start" x="488.5" y="-18.5" font-family="Helvetica,sans-Serif" font-size="10.00" fill="#000000">/Detectors/ITSMFT/MFT</text>
<text text-anchor="middle" x="566.5" y="-7.5" font-family="Helvetica,sans-Serif" font-size="10.00" fill="#000000">/workflow/src/RecoWorkflow.cxx</text>
</a>
</g>
</g>
<!-- Node51&#45;&gt;Node52 -->
<g id="edge10" class="edge">
<title>Node51&#45;&gt;Node52</title>
<path fill="none" stroke="#191970" d="M597.3064,-80.4112C591.931,-71.0043 586.3503,-61.238 581.4395,-52.6442"/>
<polygon fill="#191970" stroke="#191970" points="594.3683,-82.324 602.3686,-89.27 600.446,-78.851 594.3683,-82.324"/>
</g>
<!-- Node51&#45;&gt;Node53 -->
<g id="edge11" class="edge">
<title>Node51&#45;&gt;Node53</title>
<path fill="none" stroke="#191970" d="M673.15,-83.3074C687.5051,-73.0304 702.7395,-62.124 715.9812,-52.6442"/>
<polygon fill="#191970" stroke="#191970" points="670.915,-80.6029 664.8213,-89.27 674.9898,-86.2947 670.915,-80.6029"/>
</g>
</g>
</svg>
        <g id="navigator" transform="translate(0 0)" fill="#404254">
                <rect fill="#f2f5e9" fill-opacity="0.5" stroke="#606060" stroke-width=".5" x="0" y="0" width="60" height="60"/>
                <use id="zoomplus" xlink:href="#zoomPlus" x="17" y="9" onmousedown="handleZoom(evt,'in')"/>
                <use id="zoomminus" xlink:href="#zoomMin" x="42" y="9" onmousedown="handleZoom(evt,'out')"/>
                <use id="reset" xlink:href="#resetDef" x="30" y="36" onmousedown="handleReset()"/>
                <g id="arrowUp" xlink:href="#dirArrow" transform="translate(30 24)" onmousedown="handlePan(0,-1)">
                  <use xlink:href="#rim" fill="#404040">
                        <set attributeName="fill" to="#808080" begin="arrowUp.mouseover" end="arrowUp.mouseout"/>
                  </use>
                  <path fill="none" stroke="white" stroke-width="1.5" d="M0,-3.0v7 M-2.5,-0.5L0,-3.0L2.5,-0.5"/>
                </g>
                <g id="arrowRight" xlink:href="#dirArrow" transform="rotate(90) translate(36 -43)" onmousedown="handlePan(1,0)">
                  <use xlink:href="#rim" fill="#404040">
                        <set attributeName="fill" to="#808080" begin="arrowRight.mouseover" end="arrowRight.mouseout"/>
                  </use>
                  <path fill="none" stroke="white" stroke-width="1.5" d="M0,-3.0v7 M-2.5,-0.5L0,-3.0L2.5,-0.5"/>
                </g>
                <g id="arrowDown" xlink:href="#dirArrow" transform="rotate(180) translate(-30 -48)" onmousedown="handlePan(0,1)">
                  <use xlink:href="#rim" fill="#404040">
                        <set attributeName="fill" to="#808080" begin="arrowDown.mouseover" end="arrowDown.mouseout"/>
                  </use>
                  <path fill="none" stroke="white" stroke-width="1.5" d="M0,-3.0v7 M-2.5,-0.5L0,-3.0L2.5,-0.5"/>
                </g>
                <g id="arrowLeft" xlink:href="#dirArrow" transform="rotate(270) translate(-36 17)" onmousedown="handlePan(-1,0)">
                  <use xlink:href="#rim" fill="#404040">
                        <set attributeName="fill" to="#808080" begin="arrowLeft.mouseover" end="arrowLeft.mouseout"/>
                  </use>
                  <path fill="none" stroke="white" stroke-width="1.5" d="M0,-3.0v7 M-2.5,-0.5L0,-3.0L2.5,-0.5"/>
                </g>
        </g>
        <svg viewBox="0 0 15 15" width="100%" height="30px" preserveAspectRatio="xMaxYMin meet">
         <g id="arrow_out" transform="scale(0.3 0.3)">
          <a xlink:href="TrackMFT_8h__dep__incl_org.svg" target="_base">
           <rect id="button" ry="5" rx="5" y="6" x="6" height="38" width="38"
                fill="#f2f5e9" fill-opacity="0.5" stroke="#606060" stroke-width="1.0"/>
           <path id="arrow"
             d="M 11.500037,31.436501 C 11.940474,20.09759 22.043105,11.32322 32.158766,21.979434 L 37.068811,17.246167 C 37.068811,17.246167 37.088388,32 37.088388,32 L 22.160133,31.978069 C 22.160133,31.978069 26.997745,27.140456 26.997745,27.140456 C 18.528582,18.264221 13.291696,25.230495 11.500037,31.436501 z"
             style="fill:#404040;"/>
          </a>
         </g>
        </svg>
</svg>
