<?xml version="1.0" encoding="UTF-8" standalone="no"?>
<!DOCTYPE svg PUBLIC "-//W3C//DTD SVG 1.1//EN"
 "http://www.w3.org/Graphics/SVG/1.1/DTD/svg11.dtd">
<!-- Generated by graphviz version 2.40.1 (20161225.0304)
 -->
<!-- Title: /home/travis/build/AliceO2Group/AliceO2/Detectors/TOF/compression/include/TOFCompression/Compressor.h Pages: 1 -->
<svg width="718pt" height="184pt"
 viewBox="0.00 0.00 717.50 184.00" xmlns="http://www.w3.org/2000/svg" xmlns:xlink="http://www.w3.org/1999/xlink">
<g id="graph0" class="graph" transform="scale(1 1) rotate(0) translate(4 180)">
<title>/home/travis/build/AliceO2Group/AliceO2/Detectors/TOF/compression/include/TOFCompression/Compressor.h</title>
<!-- Node0 -->
<g id="node1" class="node">
<title>Node0</title>
<polygon fill="#bfbfbf" stroke="#000000" points="91.5,-123.5 91.5,-175.5 301.5,-175.5 301.5,-123.5 91.5,-123.5"/>
<text text-anchor="start" x="99.5" y="-163.5" font-family="Helvetica,sans-Serif" font-size="10.00" fill="#000000">/home/travis/build</text>
<text text-anchor="start" x="99.5" y="-152.5" font-family="Helvetica,sans-Serif" font-size="10.00" fill="#000000">/AliceO2Group/AliceO2</text>
<text text-anchor="start" x="99.5" y="-141.5" font-family="Helvetica,sans-Serif" font-size="10.00" fill="#000000">/Detectors/TOF/compression</text>
<text text-anchor="middle" x="196.5" y="-130.5" font-family="Helvetica,sans-Serif" font-size="10.00" fill="#000000">/include/TOFCompression/Compressor.h</text>
</g>
<!-- Node1 -->
<g id="node2" class="node">
<title>Node1</title>
<polygon fill="none" stroke="#bfbfbf" points="0,-62 0,-81 55,-81 55,-62 0,-62"/>
<text text-anchor="middle" x="27.5" y="-69" font-family="Helvetica,sans-Serif" font-size="10.00" fill="#000000">fstream</text>
</g>
<!-- Node0&#45;&gt;Node1 -->
<g id="edge1" class="edge">
<title>Node0&#45;&gt;Node1</title>
<path fill="none" stroke="#191970" d="M139.7553,-123.3101C112.2345,-110.6083 80.2951,-95.867 57.5381,-85.3637"/>
<polygon fill="#191970" stroke="#191970" points="58.9332,-82.1529 48.3869,-81.1401 55.9998,-88.5086 58.9332,-82.1529"/>
</g>
<!-- Node2 -->
<g id="node3" class="node">
<title>Node2</title>
<polygon fill="none" stroke="#bfbfbf" points="73.5,-62 73.5,-81 117.5,-81 117.5,-62 73.5,-62"/>
<text text-anchor="middle" x="95.5" y="-69" font-family="Helvetica,sans-Serif" font-size="10.00" fill="#000000">string</text>
</g>
<!-- Node0&#45;&gt;Node2 -->
<g id="edge2" class="edge">
<title>Node0&#45;&gt;Node2</title>
<path fill="none" stroke="#191970" d="M162.5875,-123.3101C147.1681,-111.4021 129.4278,-97.7017 116.0641,-87.3812"/>
<polygon fill="#191970" stroke="#191970" points="118.0366,-84.4823 107.9827,-81.1401 113.758,-90.0225 118.0366,-84.4823"/>
</g>
<!-- Node3 -->
<g id="node4" class="node">
<title>Node3</title>
<polygon fill="none" stroke="#bfbfbf" points="315.5,-.5 315.5,-19.5 365.5,-19.5 365.5,-.5 315.5,-.5"/>
<text text-anchor="middle" x="340.5" y="-7.5" font-family="Helvetica,sans-Serif" font-size="10.00" fill="#000000">cstdint</text>
</g>
<!-- Node0&#45;&gt;Node3 -->
<g id="edge3" class="edge">
<title>Node0&#45;&gt;Node3</title>
<path fill="none" stroke="#191970" d="M175.0929,-123.1141C161.5803,-103.0713 149.2948,-75.6901 164.5,-56 181.5573,-33.9115 258.9453,-20.3975 305.2341,-14.1464"/>
<polygon fill="#191970" stroke="#191970" points="305.9774,-17.5792 315.4417,-12.8172 305.0735,-10.6378 305.9774,-17.5792"/>
</g>
<!-- Node4 -->
<g id="node5" class="node">
<title>Node4</title>
<g id="a_node5"><a xlink:href="../../d4/d78/DataFormats_2Headers_2include_2Headers_2RAWDataHeader_8h.html" target="_top" xlink:title="Headers/RAWDataHeader.h">
<polygon fill="none" stroke="#000000" points="173,-62 173,-81 322,-81 322,-62 173,-62"/>
<text text-anchor="middle" x="247.5" y="-69" font-family="Helvetica,sans-Serif" font-size="10.00" fill="#000000">Headers/RAWDataHeader.h</text>
</a>
</g>
</g>
<!-- Node0&#45;&gt;Node4 -->
<g id="edge4" class="edge">
<title>Node0&#45;&gt;Node4</title>
<path fill="none" stroke="#191970" d="M213.7663,-123.0928C220.9491,-112.1073 229.1083,-99.6285 235.603,-89.6954"/>
<polygon fill="#191970" stroke="#191970" points="238.6905,-91.369 241.2336,-81.0839 232.8317,-87.5382 238.6905,-91.369"/>
</g>
<!-- Node5 -->
<g id="node6" class="node">
<title>Node5</title>
<g id="a_node6"><a xlink:href="../../d6/de8/RawDataFormat_8h.html" target="_top" xlink:title="TOF raw data format. ">
<polygon fill="none" stroke="#000000" points="340,-62 340,-81 529,-81 529,-62 340,-62"/>
<text text-anchor="middle" x="434.5" y="-69" font-family="Helvetica,sans-Serif" font-size="10.00" fill="#000000">DataFormatsTOF/RawDataFormat.h</text>
</a>
</g>
</g>
<!-- Node0&#45;&gt;Node5 -->
<g id="edge6" class="edge">
<title>Node0&#45;&gt;Node5</title>
<path fill="none" stroke="#191970" d="M276.0814,-123.4187C316.3723,-110.2141 363.4597,-94.7821 395.7647,-84.1948"/>
<polygon fill="#191970" stroke="#191970" points="396.8792,-87.5128 405.2919,-81.0724 394.6991,-80.8609 396.8792,-87.5128"/>
</g>
<!-- Node6 -->
<g id="node7" class="node">
<title>Node6</title>
<g id="a_node7"><a xlink:href="../../da/d2e/CompressedDataFormat_8h.html" target="_top" xlink:title="DataFormatsTOF/Compressed\lDataFormat.h">
<polygon fill="none" stroke="#000000" points="547.5,-56.5 547.5,-86.5 709.5,-86.5 709.5,-56.5 547.5,-56.5"/>
<text text-anchor="start" x="555.5" y="-74.5" font-family="Helvetica,sans-Serif" font-size="10.00" fill="#000000">DataFormatsTOF/Compressed</text>
<text text-anchor="middle" x="628.5" y="-63.5" font-family="Helvetica,sans-Serif" font-size="10.00" fill="#000000">DataFormat.h</text>
</a>
</g>
</g>
<!-- Node0&#45;&gt;Node6 -->
<g id="edge8" class="edge">
<title>Node0&#45;&gt;Node6</title>
<path fill="none" stroke="#191970" d="M301.6267,-130.5188C373.7543,-117.4957 468.5118,-100.3868 537.4219,-87.9447"/>
<polygon fill="#191970" stroke="#191970" points="538.1767,-91.3651 547.3957,-86.1438 536.9329,-84.4764 538.1767,-91.3651"/>
</g>
<!-- Node4&#45;&gt;Node3 -->
<g id="edge5" class="edge">
<title>Node4&#45;&gt;Node3</title>
<path fill="none" stroke="#191970" d="M262.0313,-61.8906C276.9094,-52.0519 300.2504,-36.6167 317.6128,-25.1351"/>
<polygon fill="#191970" stroke="#191970" points="319.6602,-27.9773 326.0708,-19.5419 315.799,-22.1385 319.6602,-27.9773"/>
</g>
<!-- Node5&#45;&gt;Node3 -->
<g id="edge7" class="edge">
<title>Node5&#45;&gt;Node3</title>
<path fill="none" stroke="#191970" d="M419.8125,-61.8906C404.7744,-52.0519 381.1824,-36.6167 363.6333,-25.1351"/>
<polygon fill="#191970" stroke="#191970" points="365.3687,-22.088 355.0844,-19.5419 361.5363,-27.9457 365.3687,-22.088"/>
</g>
<!-- Node6&#45;&gt;Node3 -->
<g id="edge9" class="edge">
<title>Node6&#45;&gt;Node3</title>
<path fill="none" stroke="#191970" d="M558.0473,-56.4554C500.2668,-44.1169 420.8909,-27.1668 375.7249,-17.522"/>
<polygon fill="#191970" stroke="#191970" points="376.3299,-14.0723 365.8194,-15.4068 374.868,-20.918 376.3299,-14.0723"/>
</g>
</g>
</svg>
