<?xml version="1.0" encoding="UTF-8" standalone="no"?>
<!DOCTYPE svg PUBLIC "-//W3C//DTD SVG 1.1//EN"
 "http://www.w3.org/Graphics/SVG/1.1/DTD/svg11.dtd">
<!-- Generated by graphviz version 2.40.1 (20161225.0304)
 -->
<!-- Title: /home/travis/build/AliceO2Group/AliceO2/Detectors/MUON/MID/Raw/src/Decoder.cxx Pages: 1 -->
<!--zoomable 352 -->
<svg id="main" version="1.1" xmlns="http://www.w3.org/2000/svg" xmlns:xlink="http://www.w3.org/1999/xlink" xml:space="preserve" onload="init(evt)">
<style type="text/css"><![CDATA[
.edge:hover path { stroke: red; }
.edge:hover polygon { stroke: red; fill: red; }
]]></style>
<script type="text/javascript"><![CDATA[
var edges = document.getElementsByTagName('g');
if (edges && edges.length) {
  for (var i=0;i<edges.length;i++) {
    if (edges[i].id.substr(0,4)=='edge') {
      edges[i].setAttribute('class','edge');
    }
  }
}
]]></script>
        <defs>
                <circle id="rim" cx="0" cy="0" r="7"/>
                <circle id="rim2" cx="0" cy="0" r="3.5"/>
                <g id="zoomPlus">
                        <use xlink:href="#rim" fill="#404040">
                                <set attributeName="fill" to="#808080" begin="zoomplus.mouseover" end="zoomplus.mouseout"/>
                        </use>
                        <path d="M-4,0h8M0,-4v8" fill="none" stroke="white" stroke-width="1.5" pointer-events="none"/>
                </g>
                <g id="zoomMin">
                        <use xlink:href="#rim" fill="#404040">
                                <set attributeName="fill" to="#808080" begin="zoomminus.mouseover" end="zoomminus.mouseout"/>
                        </use>
                        <path d="M-4,0h8" fill="none" stroke="white" stroke-width="1.5" pointer-events="none"/>
                </g>
                <g id="dirArrow">
                        <path fill="none" stroke="white" stroke-width="1.5" d="M0,-3.0v7 M-2.5,-0.5L0,-3.0L2.5,-0.5"/>
                </g>
               <g id="resetDef">
                       <use xlink:href="#rim2" fill="#404040">
                               <set attributeName="fill" to="#808080" begin="reset.mouseover" end="reset.mouseout"/>
                       </use>
               </g>
        </defs>

<script type="text/javascript">
var viewWidth = 1317;
var viewHeight = 352;
var sectionId = 'dynsection-0';
</script>
<script xlink:href="../../svgpan.js"/>
<svg id="graph" class="graph">
<g id="viewport">
<title>/home/travis/build/AliceO2Group/AliceO2/Detectors/MUON/MID/Raw/src/Decoder.cxx</title>
<!-- Node0 -->
<g id="node1" class="node">
<title>Node0</title>
<polygon fill="#bfbfbf" stroke="#000000" points="1052.6501,-291.5 1052.6501,-343.5 1198.6501,-343.5 1198.6501,-291.5 1052.6501,-291.5"/>
<text text-anchor="start" x="1060.6501" y="-331.5" font-family="Helvetica,sans-Serif" font-size="10.00" fill="#000000">/home/travis/build</text>
<text text-anchor="start" x="1060.6501" y="-320.5" font-family="Helvetica,sans-Serif" font-size="10.00" fill="#000000">/AliceO2Group/AliceO2</text>
<text text-anchor="start" x="1060.6501" y="-309.5" font-family="Helvetica,sans-Serif" font-size="10.00" fill="#000000">/Detectors/MUON/MID/Raw</text>
<text text-anchor="middle" x="1125.6501" y="-298.5" font-family="Helvetica,sans-Serif" font-size="10.00" fill="#000000">/src/Decoder.cxx</text>
</g>
<!-- Node1 -->
<g id="node2" class="node">
<title>Node1</title>
<g id="a_node2"><a xlink:href="../../de/dc5/MUON_2MID_2Raw_2include_2MIDRaw_2Decoder_8h.html" target="_top" xlink:title="Mid raw data decoder. ">
<polygon fill="none" stroke="#000000" points="427.6501,-235.5 427.6501,-254.5 535.6501,-254.5 535.6501,-235.5 427.6501,-235.5"/>
<text text-anchor="middle" x="481.6501" y="-242.5" font-family="Helvetica,sans-Serif" font-size="10.00" fill="#000000">MIDRaw/Decoder.h</text>
</a>
</g>
</g>
<!-- Node0&#45;&gt;Node1 -->
<g id="edge1" class="edge">
<title>Node0&#45;&gt;Node1</title>
<path fill="none" stroke="#191970" d="M1052.4021,-309.2539C925.3892,-294.9551 666.3494,-265.793 545.8971,-252.2328"/>
<polygon fill="#191970" stroke="#191970" points="546.0538,-248.7284 535.725,-251.0876 545.2706,-255.6844 546.0538,-248.7284"/>
</g>
<!-- Node22 -->
<g id="node23" class="node">
<title>Node22</title>
<g id="a_node23"><a xlink:href="../../dc/de4/DetectorParameters_8h.html" target="_top" xlink:title="Useful detector parameters for MID. ">
<polygon fill="none" stroke="#000000" points="1041.1501,-235.5 1041.1501,-254.5 1210.1501,-254.5 1210.1501,-235.5 1041.1501,-235.5"/>
<text text-anchor="middle" x="1125.6501" y="-242.5" font-family="Helvetica,sans-Serif" font-size="10.00" fill="#000000">MIDBase/DetectorParameters.h</text>
</a>
</g>
</g>
<!-- Node0&#45;&gt;Node22 -->
<g id="edge39" class="edge">
<title>Node0&#45;&gt;Node22</title>
<path fill="none" stroke="#191970" d="M1125.6501,-291.3258C1125.6501,-282.5142 1125.6501,-272.8397 1125.6501,-264.621"/>
<polygon fill="#191970" stroke="#191970" points="1129.1502,-264.534 1125.6501,-254.534 1122.1502,-264.534 1129.1502,-264.534"/>
</g>
<!-- Node24 -->
<g id="node25" class="node">
<title>Node24</title>
<g id="a_node25"><a xlink:href="../../d2/da5/CrateParameters_8h.html" target="_top" xlink:title="MID RO crate parameters. ">
<polygon fill="none" stroke="#000000" points="1158.6501,-123.5 1158.6501,-142.5 1308.6501,-142.5 1308.6501,-123.5 1158.6501,-123.5"/>
<text text-anchor="middle" x="1233.6501" y="-130.5" font-family="Helvetica,sans-Serif" font-size="10.00" fill="#000000">MIDRaw/CrateParameters.h</text>
</a>
</g>
</g>
<!-- Node0&#45;&gt;Node24 -->
<g id="edge42" class="edge">
<title>Node0&#45;&gt;Node24</title>
<path fill="none" stroke="#191970" d="M1181.8434,-291.4031C1196.4112,-281.9644 1210.5463,-269.8774 1219.6501,-255 1239.0368,-223.3182 1238.5205,-178.2553 1236.2121,-152.697"/>
<polygon fill="#191970" stroke="#191970" points="1239.6898,-152.3011 1235.1283,-142.7385 1232.7309,-153.0585 1239.6898,-152.3011"/>
</g>
<!-- Node2 -->
<g id="node3" class="node">
<title>Node2</title>
<polygon fill="none" stroke="#bfbfbf" points="513.6501,-.5 513.6501,-19.5 563.6501,-19.5 563.6501,-.5 513.6501,-.5"/>
<text text-anchor="middle" x="538.6501" y="-7.5" font-family="Helvetica,sans-Serif" font-size="10.00" fill="#000000">cstdint</text>
</g>
<!-- Node1&#45;&gt;Node2 -->
<g id="edge2" class="edge">
<title>Node1&#45;&gt;Node2</title>
<path fill="none" stroke="#191970" d="M427.5085,-243.8009C308.3508,-240.602 31.7134,-229.8936 3.6501,-199 -2.3267,-192.4204 1.0033,-187.4857 3.6501,-179 23.4365,-115.5642 31.4508,-89.8208 88.6501,-56 124.0742,-35.0544 403.1816,-17.5694 503.168,-11.9206"/>
<polygon fill="#191970" stroke="#191970" points="503.5748,-15.4034 513.3638,-11.3506 503.184,-8.4143 503.5748,-15.4034"/>
</g>
<!-- Node3 -->
<g id="node4" class="node">
<title>Node3</title>
<polygon fill="none" stroke="#bfbfbf" points="138.1501,-62 138.1501,-81 185.1501,-81 185.1501,-62 138.1501,-62"/>
<text text-anchor="middle" x="161.6501" y="-69" font-family="Helvetica,sans-Serif" font-size="10.00" fill="#000000">vector</text>
</g>
<!-- Node1&#45;&gt;Node3 -->
<g id="edge3" class="edge">
<title>Node1&#45;&gt;Node3</title>
<path fill="none" stroke="#191970" d="M427.2505,-239.0667C387.2052,-233.0642 332.3554,-221.3421 288.6501,-199 237.1908,-172.6941 193.7889,-117.8339 173.6683,-89.4198"/>
<polygon fill="#191970" stroke="#191970" points="176.5428,-87.423 167.9729,-81.1935 170.7875,-91.4076 176.5428,-87.423"/>
</g>
<!-- Node4 -->
<g id="node5" class="node">
<title>Node4</title>
<polygon fill="none" stroke="#bfbfbf" points="203.6501,-62 203.6501,-81 251.6501,-81 251.6501,-62 203.6501,-62"/>
<text text-anchor="middle" x="227.6501" y="-69" font-family="Helvetica,sans-Serif" font-size="10.00" fill="#000000">gsl/gsl</text>
</g>
<!-- Node1&#45;&gt;Node4 -->
<g id="edge4" class="edge">
<title>Node1&#45;&gt;Node4</title>
<path fill="none" stroke="#191970" d="M431.1185,-235.4872C399.7952,-228.2855 359.425,-216.5808 326.6501,-199 292.4502,-180.6549 283.066,-173.9494 259.6501,-143 247.6329,-127.1166 238.8925,-106.0061 233.6126,-90.8473"/>
<polygon fill="#191970" stroke="#191970" points="236.8303,-89.4279 230.3822,-81.0212 230.1804,-91.6141 236.8303,-89.4279"/>
</g>
<!-- Node5 -->
<g id="node6" class="node">
<title>Node5</title>
<g id="a_node6"><a xlink:href="../../d3/d53/ColumnData_8h.html" target="_top" xlink:title="Strip pattern (aka digits) ">
<polygon fill="none" stroke="#000000" points="750.1501,-123.5 750.1501,-142.5 921.1501,-142.5 921.1501,-123.5 750.1501,-123.5"/>
<text text-anchor="middle" x="835.6501" y="-130.5" font-family="Helvetica,sans-Serif" font-size="10.00" fill="#000000">DataFormatsMID/ColumnData.h</text>
</a>
</g>
</g>
<!-- Node1&#45;&gt;Node5 -->
<g id="edge5" class="edge">
<title>Node1&#45;&gt;Node5</title>
<path fill="none" stroke="#191970" d="M511.8319,-235.4509C575.7081,-215.2415 724.546,-168.1516 795.9936,-145.5467"/>
<polygon fill="#191970" stroke="#191970" points="797.0662,-148.8784 805.5446,-142.5249 794.9546,-142.2045 797.0662,-148.8784"/>
</g>
<!-- Node8 -->
<g id="node9" class="node">
<title>Node8</title>
<g id="a_node9"><a xlink:href="../../d2/df9/MUON_2MID_2include_2DataFormatsMID_2ROFRecord_8h.html" target="_top" xlink:title="Definition of the MID event record. ">
<polygon fill="none" stroke="#000000" points="939.1501,-123.5 939.1501,-142.5 1102.1501,-142.5 1102.1501,-123.5 939.1501,-123.5"/>
<text text-anchor="middle" x="1020.6501" y="-130.5" font-family="Helvetica,sans-Serif" font-size="10.00" fill="#000000">DataFormatsMID/ROFRecord.h</text>
</a>
</g>
</g>
<!-- Node1&#45;&gt;Node8 -->
<g id="edge9" class="edge">
<title>Node1&#45;&gt;Node8</title>
<path fill="none" stroke="#191970" d="M527.6049,-235.4509C626.2549,-214.9522 857.9978,-166.7979 964.8678,-144.5911"/>
<polygon fill="#191970" stroke="#191970" points="965.7328,-147.9862 974.8116,-142.5249 964.3086,-141.1326 965.7328,-147.9862"/>
</g>
<!-- Node14 -->
<g id="node15" class="node">
<title>Node14</title>
<g id="a_node15"><a xlink:href="../../db/d83/CrateMapper_8h.html" target="_top" xlink:title="Mapper to convert the RO Ids to a format suitable for O2. ">
<polygon fill="none" stroke="#000000" points="12.6501,-179.5 12.6501,-198.5 142.6501,-198.5 142.6501,-179.5 12.6501,-179.5"/>
<text text-anchor="middle" x="77.6501" y="-186.5" font-family="Helvetica,sans-Serif" font-size="10.00" fill="#000000">MIDRaw/CrateMapper.h</text>
</a>
</g>
</g>
<!-- Node1&#45;&gt;Node14 -->
<g id="edge16" class="edge">
<title>Node1&#45;&gt;Node14</title>
<path fill="none" stroke="#191970" d="M427.584,-237.5057C356.8597,-227.7023 232.5783,-210.4752 152.7451,-199.4092"/>
<polygon fill="#191970" stroke="#191970" points="153.1392,-195.9305 142.7533,-198.0242 152.1781,-202.8642 153.1392,-195.9305"/>
</g>
<!-- Node16 -->
<g id="node17" class="node">
<title>Node16</title>
<g id="a_node17"><a xlink:href="../../da/d46/CRUUserLogicDecoder_8h.html" target="_top" xlink:title="MID CRU user logic decoder. ">
<polygon fill="none" stroke="#000000" points="335.1501,-179.5 335.1501,-198.5 512.1501,-198.5 512.1501,-179.5 335.1501,-179.5"/>
<text text-anchor="middle" x="423.6501" y="-186.5" font-family="Helvetica,sans-Serif" font-size="10.00" fill="#000000">MIDRaw/CRUUserLogicDecoder.h</text>
</a>
</g>
</g>
<!-- Node1&#45;&gt;Node16 -->
<g id="edge19" class="edge">
<title>Node1&#45;&gt;Node16</title>
<path fill="none" stroke="#191970" d="M471.5473,-235.2455C463.1473,-227.1352 451.0007,-215.4075 441.0417,-205.7919"/>
<polygon fill="#191970" stroke="#191970" points="443.2623,-203.0707 433.6371,-198.6427 438.4001,-208.1066 443.2623,-203.0707"/>
</g>
<!-- Node17 -->
<g id="node18" class="node">
<title>Node17</title>
<g id="a_node18"><a xlink:href="../../d3/d4a/LocalBoardRO_8h.html" target="_top" xlink:title="Structure to store the FEE local board information. ">
<polygon fill="none" stroke="#000000" points="595.6501,-123.5 595.6501,-142.5 731.6501,-142.5 731.6501,-123.5 595.6501,-123.5"/>
<text text-anchor="middle" x="663.6501" y="-130.5" font-family="Helvetica,sans-Serif" font-size="10.00" fill="#000000">MIDRaw/LocalBoardRO.h</text>
</a>
</g>
</g>
<!-- Node1&#45;&gt;Node17 -->
<g id="edge37" class="edge">
<title>Node1&#45;&gt;Node17</title>
<path fill="none" stroke="#191970" d="M497.1673,-235.4509C528.8659,-215.9441 601.2611,-171.3932 639.2899,-147.9909"/>
<polygon fill="#191970" stroke="#191970" points="641.4899,-150.7467 648.1721,-142.5249 637.8212,-144.7851 641.4899,-150.7467"/>
</g>
<!-- Node20 -->
<g id="node21" class="node">
<title>Node20</title>
<g id="a_node21"><a xlink:href="../../df/db7/RawUnit_8h.html" target="_top" xlink:title="Raw data format MID. ">
<polygon fill="none" stroke="#000000" points="467.6501,-123.5 467.6501,-142.5 577.6501,-142.5 577.6501,-123.5 467.6501,-123.5"/>
<text text-anchor="middle" x="522.6501" y="-130.5" font-family="Helvetica,sans-Serif" font-size="10.00" fill="#000000">MIDRaw/RawUnit.h</text>
</a>
</g>
</g>
<!-- Node1&#45;&gt;Node20 -->
<g id="edge38" class="edge">
<title>Node1&#45;&gt;Node20</title>
<path fill="none" stroke="#191970" d="M493.6267,-235.4972C503.2191,-227.071 515.977,-213.8264 521.6501,-199 527.2811,-184.2835 527.1517,-166.3356 525.8253,-152.8731"/>
<polygon fill="#191970" stroke="#191970" points="529.2756,-152.2614 524.5298,-142.7889 522.3326,-153.1534 529.2756,-152.2614"/>
</g>
<!-- Node5&#45;&gt;Node2 -->
<g id="edge6" class="edge">
<title>Node5&#45;&gt;Node2</title>
<path fill="none" stroke="#191970" d="M812.345,-123.3484C759.7531,-101.5679 631.7435,-48.5538 571.2904,-23.5177"/>
<polygon fill="#191970" stroke="#191970" points="572.4252,-20.1994 561.8469,-19.6068 569.7467,-26.6668 572.4252,-20.1994"/>
</g>
<!-- Node6 -->
<g id="node7" class="node">
<title>Node6</title>
<polygon fill="none" stroke="#bfbfbf" points="757.6501,-62 757.6501,-81 817.6501,-81 817.6501,-62 757.6501,-62"/>
<text text-anchor="middle" x="787.6501" y="-69" font-family="Helvetica,sans-Serif" font-size="10.00" fill="#000000">iostream</text>
</g>
<!-- Node5&#45;&gt;Node6 -->
<g id="edge7" class="edge">
<title>Node5&#45;&gt;Node6</title>
<path fill="none" stroke="#191970" d="M828.1501,-123.3906C821.0763,-114.3273 810.2958,-100.5149 801.6355,-89.4188"/>
<polygon fill="#191970" stroke="#191970" points="804.1677,-86.9746 795.2558,-81.2449 798.6495,-91.2815 804.1677,-86.9746"/>
</g>
<!-- Node7 -->
<g id="node8" class="node">
<title>Node7</title>
<polygon fill="none" stroke="#bfbfbf" points="835.6501,-62 835.6501,-81 877.6501,-81 877.6501,-62 835.6501,-62"/>
<text text-anchor="middle" x="856.6501" y="-69" font-family="Helvetica,sans-Serif" font-size="10.00" fill="#000000">array</text>
</g>
<!-- Node5&#45;&gt;Node7 -->
<g id="edge8" class="edge">
<title>Node5&#45;&gt;Node7</title>
<path fill="none" stroke="#191970" d="M838.9313,-123.3906C841.9036,-114.6862 846.3715,-101.6015 850.0771,-90.7494"/>
<polygon fill="#191970" stroke="#191970" points="853.4033,-91.8394 853.3226,-81.2449 846.7788,-89.5773 853.4033,-91.8394"/>
</g>
<!-- Node9 -->
<g id="node10" class="node">
<title>Node9</title>
<g id="a_node10"><a xlink:href="../../d9/d80/InteractionRecord_8h.html" target="_top" xlink:title="CommonDataFormat/Interaction\lRecord.h">
<polygon fill="none" stroke="#000000" points="933.6501,-56.5 933.6501,-86.5 1107.6501,-86.5 1107.6501,-56.5 933.6501,-56.5"/>
<text text-anchor="start" x="941.6501" y="-74.5" font-family="Helvetica,sans-Serif" font-size="10.00" fill="#000000">CommonDataFormat/Interaction</text>
<text text-anchor="middle" x="1020.6501" y="-63.5" font-family="Helvetica,sans-Serif" font-size="10.00" fill="#000000">Record.h</text>
</a>
</g>
</g>
<!-- Node8&#45;&gt;Node9 -->
<g id="edge10" class="edge">
<title>Node8&#45;&gt;Node9</title>
<path fill="none" stroke="#191970" d="M1020.6501,-123.3906C1020.6501,-116.2234 1020.6501,-106.0862 1020.6501,-96.671"/>
<polygon fill="#191970" stroke="#191970" points="1024.1502,-96.5446 1020.6501,-86.5446 1017.1502,-96.5446 1024.1502,-96.5446"/>
</g>
<!-- Node9&#45;&gt;Node2 -->
<g id="edge14" class="edge">
<title>Node9&#45;&gt;Node2</title>
<path fill="none" stroke="#191970" d="M933.6297,-57.9639C928.903,-57.2853 924.2198,-56.6263 919.6501,-56 792.7696,-38.6092 641.628,-21.4006 574.1896,-13.905"/>
<polygon fill="#191970" stroke="#191970" points="574.4261,-10.4099 564.1013,-12.7869 573.6549,-17.3673 574.4261,-10.4099"/>
</g>
<!-- Node10 -->
<g id="node11" class="node">
<title>Node10</title>
<polygon fill="none" stroke="#bfbfbf" points="886.1501,-.5 886.1501,-19.5 945.1501,-19.5 945.1501,-.5 886.1501,-.5"/>
<text text-anchor="middle" x="915.6501" y="-7.5" font-family="Helvetica,sans-Serif" font-size="10.00" fill="#000000">Rtypes.h</text>
</g>
<!-- Node9&#45;&gt;Node10 -->
<g id="edge11" class="edge">
<title>Node9&#45;&gt;Node10</title>
<path fill="none" stroke="#191970" d="M994.9642,-56.4554C978.5204,-46.8241 957.2793,-34.3828 940.9177,-24.7996"/>
<polygon fill="#191970" stroke="#191970" points="942.3191,-21.5643 931.9214,-19.5303 938.7813,-27.6045 942.3191,-21.5643"/>
</g>
<!-- Node11 -->
<g id="node12" class="node">
<title>Node11</title>
<polygon fill="none" stroke="#bfbfbf" points="963.1501,-.5 963.1501,-19.5 1012.1501,-19.5 1012.1501,-.5 963.1501,-.5"/>
<text text-anchor="middle" x="987.6501" y="-7.5" font-family="Helvetica,sans-Serif" font-size="10.00" fill="#000000">iosfwd</text>
</g>
<!-- Node9&#45;&gt;Node11 -->
<g id="edge12" class="edge">
<title>Node9&#45;&gt;Node11</title>
<path fill="none" stroke="#191970" d="M1012.4928,-56.2977C1008.0552,-48.0277 1002.5251,-37.7215 997.8097,-28.9339"/>
<polygon fill="#191970" stroke="#191970" points="1000.7461,-27.0037 992.9338,-19.8469 994.578,-30.3134 1000.7461,-27.0037"/>
</g>
<!-- Node12 -->
<g id="node13" class="node">
<title>Node12</title>
<polygon fill="none" stroke="#bfbfbf" points="1030.1501,-.5 1030.1501,-19.5 1077.1501,-19.5 1077.1501,-.5 1030.1501,-.5"/>
<text text-anchor="middle" x="1053.6501" y="-7.5" font-family="Helvetica,sans-Serif" font-size="10.00" fill="#000000">cmath</text>
</g>
<!-- Node9&#45;&gt;Node12 -->
<g id="edge13" class="edge">
<title>Node9&#45;&gt;Node12</title>
<path fill="none" stroke="#191970" d="M1028.8074,-56.2977C1033.245,-48.0277 1038.7751,-37.7215 1043.4905,-28.9339"/>
<polygon fill="#191970" stroke="#191970" points="1046.7222,-30.3134 1048.3664,-19.8469 1040.5541,-27.0037 1046.7222,-30.3134"/>
</g>
<!-- Node13 -->
<g id="node14" class="node">
<title>Node13</title>
<g id="a_node14"><a xlink:href="../../d4/dc6/LHCConstants_8h.html" target="_top" xlink:title="Header to collect LHC related constants. ">
<polygon fill="none" stroke="#000000" points="1095.6501,-.5 1095.6501,-19.5 1285.6501,-19.5 1285.6501,-.5 1095.6501,-.5"/>
<text text-anchor="middle" x="1190.6501" y="-7.5" font-family="Helvetica,sans-Serif" font-size="10.00" fill="#000000">CommonConstants/LHCConstants.h</text>
</a>
</g>
</g>
<!-- Node9&#45;&gt;Node13 -->
<g id="edge15" class="edge">
<title>Node9&#45;&gt;Node13</title>
<path fill="none" stroke="#191970" d="M1062.2368,-56.4554C1090.6017,-46.194 1127.7834,-32.7429 1154.8337,-22.9571"/>
<polygon fill="#191970" stroke="#191970" points="1156.0932,-26.2235 1164.3061,-19.5303 1153.7119,-19.641 1156.0932,-26.2235"/>
</g>
<!-- Node14&#45;&gt;Node2 -->
<g id="edge17" class="edge">
<title>Node14&#45;&gt;Node2</title>
<path fill="none" stroke="#191970" d="M75.4776,-179.2735C72.9828,-166.1017 70.0262,-142.0503 76.6501,-123 89.1195,-87.1379 96.4539,-74.428 129.6501,-56 193.5209,-20.5437 416.2836,-12.3809 503.3724,-10.5313"/>
<polygon fill="#191970" stroke="#191970" points="503.611,-14.0274 513.5401,-10.3313 503.4732,-7.0287 503.611,-14.0274"/>
</g>
<!-- Node15 -->
<g id="node16" class="node">
<title>Node15</title>
<polygon fill="none" stroke="#bfbfbf" points="85.6501,-123.5 85.6501,-142.5 123.6501,-142.5 123.6501,-123.5 85.6501,-123.5"/>
<text text-anchor="middle" x="104.6501" y="-130.5" font-family="Helvetica,sans-Serif" font-size="10.00" fill="#000000">map</text>
</g>
<!-- Node14&#45;&gt;Node15 -->
<g id="edge18" class="edge">
<title>Node14&#45;&gt;Node15</title>
<path fill="none" stroke="#191970" d="M82.3531,-179.2455C85.9924,-171.6973 91.1425,-161.0158 95.5763,-151.8197"/>
<polygon fill="#191970" stroke="#191970" points="98.8106,-153.1704 100.0009,-142.6427 92.5052,-150.1303 98.8106,-153.1704"/>
</g>
<!-- Node16&#45;&gt;Node2 -->
<g id="edge20" class="edge">
<title>Node16&#45;&gt;Node2</title>
<path fill="none" stroke="#191970" d="M428.3322,-179.43C434.778,-166.4356 446.9234,-142.5845 458.6501,-123 477.0777,-92.2244 482.7807,-85.1751 503.6501,-56 510.4097,-46.5502 518.2142,-36.2388 524.7357,-27.7783"/>
<polygon fill="#191970" stroke="#191970" points="527.604,-29.791 530.9698,-19.7451 522.0739,-25.4994 527.604,-29.791"/>
</g>
<!-- Node16&#45;&gt;Node3 -->
<g id="edge21" class="edge">
<title>Node16&#45;&gt;Node3</title>
<path fill="none" stroke="#191970" d="M372.0701,-179.4867C338.8837,-172.1831 295.4309,-160.3674 259.6501,-143 229.2537,-128.2461 198.4677,-103.9042 179.7178,-87.7857"/>
<polygon fill="#191970" stroke="#191970" points="181.8237,-84.9775 171.9946,-81.0226 177.212,-90.2437 181.8237,-84.9775"/>
</g>
<!-- Node16&#45;&gt;Node4 -->
<g id="edge22" class="edge">
<title>Node16&#45;&gt;Node4</title>
<path fill="none" stroke="#191970" d="M372.1849,-179.4635C344.4686,-172.5608 310.7175,-161.1677 284.6501,-143 264.8049,-129.1689 248.39,-106.4717 238.3527,-90.3629"/>
<polygon fill="#191970" stroke="#191970" points="241.0859,-88.1133 232.9535,-81.3225 235.0761,-91.7026 241.0859,-88.1133"/>
</g>
<!-- Node16&#45;&gt;Node8 -->
<g id="edge23" class="edge">
<title>Node16&#45;&gt;Node8</title>
<path fill="none" stroke="#191970" d="M512.5403,-181.4816C611.6345,-172.9758 776.9459,-158.4168 928.7615,-143.1767"/>
<polygon fill="#191970" stroke="#191970" points="929.1419,-146.6562 938.741,-142.1719 928.4406,-139.6914 929.1419,-146.6562"/>
</g>
<!-- Node16&#45;&gt;Node17 -->
<g id="edge24" class="edge">
<title>Node16&#45;&gt;Node17</title>
<path fill="none" stroke="#191970" d="M464.6349,-179.4369C505.6227,-169.8731 568.7505,-155.1432 612.8858,-144.845"/>
<polygon fill="#191970" stroke="#191970" points="613.8913,-148.2045 622.8344,-142.5237 612.3006,-141.3876 613.8913,-148.2045"/>
</g>
<!-- Node18 -->
<g id="node19" class="node">
<title>Node18</title>
<g id="a_node19"><a xlink:href="../../db/d21/MUON_2MID_2Raw_2include_2MIDRaw_2RawBuffer_8h.html" target="_top" xlink:title="Handler of the RAW buffer. ">
<polygon fill="none" stroke="#000000" points="293.6501,-123.5 293.6501,-142.5 411.6501,-142.5 411.6501,-123.5 293.6501,-123.5"/>
<text text-anchor="middle" x="352.6501" y="-130.5" font-family="Helvetica,sans-Serif" font-size="10.00" fill="#000000">MIDRaw/RawBuffer.h</text>
</a>
</g>
</g>
<!-- Node16&#45;&gt;Node18 -->
<g id="edge27" class="edge">
<title>Node16&#45;&gt;Node18</title>
<path fill="none" stroke="#191970" d="M411.2828,-179.2455C400.6947,-170.8943 385.2437,-158.7076 372.8608,-148.9408"/>
<polygon fill="#191970" stroke="#191970" points="374.8948,-146.0875 364.8756,-142.6427 370.5598,-151.5837 374.8948,-146.0875"/>
</g>
<!-- Node16&#45;&gt;Node20 -->
<g id="edge33" class="edge">
<title>Node16&#45;&gt;Node20</title>
<path fill="none" stroke="#191970" d="M440.8946,-179.2455C456.2262,-170.5731 478.87,-157.7645 496.4416,-147.825"/>
<polygon fill="#191970" stroke="#191970" points="498.6224,-150.6126 505.6032,-142.6427 495.176,-144.5198 498.6224,-150.6126"/>
</g>
<!-- Node17&#45;&gt;Node2 -->
<g id="edge25" class="edge">
<title>Node17&#45;&gt;Node2</title>
<path fill="none" stroke="#191970" d="M654.7501,-123.3037C641.0629,-108.4928 613.8851,-79.4802 589.6501,-56 579.2132,-45.8882 567.1548,-34.9785 557.3843,-26.3226"/>
<polygon fill="#191970" stroke="#191970" points="559.6201,-23.6279 549.801,-19.6486 554.9955,-28.8827 559.6201,-23.6279"/>
</g>
<!-- Node17&#45;&gt;Node7 -->
<g id="edge26" class="edge">
<title>Node17&#45;&gt;Node7</title>
<path fill="none" stroke="#191970" d="M706.2977,-123.4677C739.6421,-115.4207 786.8558,-102.7089 826.6501,-87 827.8463,-86.5278 829.0578,-86.0227 830.2732,-85.4938"/>
<polygon fill="#191970" stroke="#191970" points="831.944,-88.5751 839.4769,-81.1249 828.9422,-82.2514 831.944,-88.5751"/>
</g>
<!-- Node18&#45;&gt;Node2 -->
<g id="edge28" class="edge">
<title>Node18&#45;&gt;Node2</title>
<path fill="none" stroke="#191970" d="M337.3377,-123.4055C315.3877,-108.482 279.6141,-79.0311 298.6501,-56 324.2114,-25.0742 443.0142,-14.7361 503.3234,-11.4456"/>
<polygon fill="#191970" stroke="#191970" points="503.7121,-14.9305 513.5211,-10.9262 503.356,-7.9395 503.7121,-14.9305"/>
</g>
<!-- Node18&#45;&gt;Node3 -->
<g id="edge29" class="edge">
<title>Node18&#45;&gt;Node3</title>
<path fill="none" stroke="#191970" d="M313.7873,-123.4938C281.4625,-115.1588 234.4716,-102.044 194.6501,-87 193.0625,-86.4002 191.4454,-85.756 189.8225,-85.0834"/>
<polygon fill="#191970" stroke="#191970" points="191.1898,-81.8612 180.6277,-81.0294 188.3658,-88.2663 191.1898,-81.8612"/>
</g>
<!-- Node18&#45;&gt;Node4 -->
<g id="edge30" class="edge">
<title>Node18&#45;&gt;Node4</title>
<path fill="none" stroke="#191970" d="M333.1188,-123.3906C312.4792,-113.2359 279.7225,-97.1196 256.1899,-85.5416"/>
<polygon fill="#191970" stroke="#191970" points="257.5621,-82.3161 247.0442,-81.0419 254.4719,-88.5971 257.5621,-82.3161"/>
</g>
<!-- Node19 -->
<g id="node20" class="node">
<title>Node19</title>
<g id="a_node20"><a xlink:href="../../d4/d78/DataFormats_2Headers_2include_2Headers_2RAWDataHeader_8h.html" target="_top" xlink:title="Headers/RAWDataHeader.h">
<polygon fill="none" stroke="#000000" points="307.1501,-62 307.1501,-81 456.1501,-81 456.1501,-62 307.1501,-62"/>
<text text-anchor="middle" x="381.6501" y="-69" font-family="Helvetica,sans-Serif" font-size="10.00" fill="#000000">Headers/RAWDataHeader.h</text>
</a>
</g>
</g>
<!-- Node18&#45;&gt;Node19 -->
<g id="edge31" class="edge">
<title>Node18&#45;&gt;Node19</title>
<path fill="none" stroke="#191970" d="M357.1813,-123.3906C361.3282,-114.5965 367.5833,-101.3312 372.731,-90.4145"/>
<polygon fill="#191970" stroke="#191970" points="375.9555,-91.7825 377.0549,-81.2449 369.6241,-88.7969 375.9555,-91.7825"/>
</g>
<!-- Node19&#45;&gt;Node2 -->
<g id="edge32" class="edge">
<title>Node19&#45;&gt;Node2</title>
<path fill="none" stroke="#191970" d="M406.1813,-61.8906C432.6807,-51.5103 475.0832,-34.9004 504.7571,-23.2766"/>
<polygon fill="#191970" stroke="#191970" points="506.2566,-26.4482 514.2911,-19.5419 503.7034,-19.9304 506.2566,-26.4482"/>
</g>
<!-- Node20&#45;&gt;Node2 -->
<g id="edge34" class="edge">
<title>Node20&#45;&gt;Node2</title>
<path fill="none" stroke="#191970" d="M539.7068,-123.377C551.959,-115.4014 567.5209,-102.8248 574.6501,-87 580.3093,-74.4381 579.141,-69.0253 574.6501,-56 570.9314,-45.2144 563.5288,-35.0249 556.3982,-26.9904"/>
<polygon fill="#191970" stroke="#191970" points="558.9292,-24.5729 549.5049,-19.7321 553.8534,-29.3934 558.9292,-24.5729"/>
</g>
<!-- Node20&#45;&gt;Node19 -->
<g id="edge36" class="edge">
<title>Node20&#45;&gt;Node19</title>
<path fill="none" stroke="#191970" d="M500.6188,-123.3906C477.0269,-113.1005 439.4,-96.6888 412.7868,-85.0809"/>
<polygon fill="#191970" stroke="#191970" points="414.092,-81.8318 403.5266,-81.0419 411.2934,-88.248 414.092,-81.8318"/>
</g>
<!-- Node21 -->
<g id="node22" class="node">
<title>Node21</title>
<polygon fill="none" stroke="#bfbfbf" points="512.1501,-62 512.1501,-81 565.1501,-81 565.1501,-62 512.1501,-62"/>
<text text-anchor="middle" x="538.6501" y="-69" font-family="Helvetica,sans-Serif" font-size="10.00" fill="#000000">cstddef</text>
</g>
<!-- Node20&#45;&gt;Node21 -->
<g id="edge35" class="edge">
<title>Node20&#45;&gt;Node21</title>
<path fill="none" stroke="#191970" d="M525.1501,-123.3906C527.3913,-114.776 530.7487,-101.8708 533.5546,-91.0858"/>
<polygon fill="#191970" stroke="#191970" points="536.9842,-91.804 536.1148,-81.2449 530.2097,-90.0414 536.9842,-91.804"/>
</g>
<!-- Node22&#45;&gt;Node7 -->
<g id="edge40" class="edge">
<title>Node22&#45;&gt;Node7</title>
<path fill="none" stroke="#191970" d="M1127.9506,-235.4939C1132.8579,-212.6462 1141.6085,-154.2337 1111.6501,-123 1040.3322,-48.6463 979.5456,-122.014 882.6501,-87 881.6122,-86.6249 880.5696,-86.2071 879.5301,-85.7561"/>
<polygon fill="#191970" stroke="#191970" points="880.9557,-82.5528 870.4669,-81.057 877.7336,-88.7672 880.9557,-82.5528"/>
</g>
<!-- Node23 -->
<g id="node24" class="node">
<title>Node23</title>
<polygon fill="none" stroke="#bfbfbf" points="1158.6501,-179.5 1158.6501,-198.5 1202.6501,-198.5 1202.6501,-179.5 1158.6501,-179.5"/>
<text text-anchor="middle" x="1180.6501" y="-186.5" font-family="Helvetica,sans-Serif" font-size="10.00" fill="#000000">string</text>
</g>
<!-- Node22&#45;&gt;Node23 -->
<g id="edge41" class="edge">
<title>Node22&#45;&gt;Node23</title>
<path fill="none" stroke="#191970" d="M1135.2304,-235.2455C1143.1958,-227.1352 1154.7141,-215.4075 1164.158,-205.7919"/>
<polygon fill="#191970" stroke="#191970" points="1166.6696,-208.2297 1171.1796,-198.6427 1161.6754,-203.3247 1166.6696,-208.2297"/>
</g>
<!-- Node24&#45;&gt;Node2 -->
<g id="edge43" class="edge">
<title>Node24&#45;&gt;Node2</title>
<path fill="none" stroke="#191970" d="M1158.4811,-123.9283C1073.9395,-113.3922 945.6415,-96.2746 924.6501,-87 904.7134,-78.1914 906.6581,-64.6452 886.6501,-56 830.8823,-31.9035 650.9066,-17.4394 574.0137,-12.2195"/>
<polygon fill="#191970" stroke="#191970" points="574.082,-8.7163 563.8716,-11.5442 573.6169,-15.7009 574.082,-8.7163"/>
</g>
<!-- Node24&#45;&gt;Node7 -->
<g id="edge44" class="edge">
<title>Node24&#45;&gt;Node7</title>
<path fill="none" stroke="#191970" d="M1158.5809,-124.0452C1065.712,-112.7892 916.7294,-94.0842 891.6501,-87 889.4677,-86.3835 887.2452,-85.656 885.0321,-84.8579"/>
<polygon fill="#191970" stroke="#191970" points="886.1264,-81.5255 875.543,-81.0337 883.5097,-88.018 886.1264,-81.5255"/>
</g>
</g>
</svg>
        <g id="navigator" transform="translate(0 0)" fill="#404254">
                <rect fill="#f2f5e9" fill-opacity="0.5" stroke="#606060" stroke-width=".5" x="0" y="0" width="60" height="60"/>
                <use id="zoomplus" xlink:href="#zoomPlus" x="17" y="9" onmousedown="handleZoom(evt,'in')"/>
                <use id="zoomminus" xlink:href="#zoomMin" x="42" y="9" onmousedown="handleZoom(evt,'out')"/>
                <use id="reset" xlink:href="#resetDef" x="30" y="36" onmousedown="handleReset()"/>
                <g id="arrowUp" xlink:href="#dirArrow" transform="translate(30 24)" onmousedown="handlePan(0,-1)">
                  <use xlink:href="#rim" fill="#404040">
                        <set attributeName="fill" to="#808080" begin="arrowUp.mouseover" end="arrowUp.mouseout"/>
                  </use>
                  <path fill="none" stroke="white" stroke-width="1.5" d="M0,-3.0v7 M-2.5,-0.5L0,-3.0L2.5,-0.5"/>
                </g>
                <g id="arrowRight" xlink:href="#dirArrow" transform="rotate(90) translate(36 -43)" onmousedown="handlePan(1,0)">
                  <use xlink:href="#rim" fill="#404040">
                        <set attributeName="fill" to="#808080" begin="arrowRight.mouseover" end="arrowRight.mouseout"/>
                  </use>
                  <path fill="none" stroke="white" stroke-width="1.5" d="M0,-3.0v7 M-2.5,-0.5L0,-3.0L2.5,-0.5"/>
                </g>
                <g id="arrowDown" xlink:href="#dirArrow" transform="rotate(180) translate(-30 -48)" onmousedown="handlePan(0,1)">
                  <use xlink:href="#rim" fill="#404040">
                        <set attributeName="fill" to="#808080" begin="arrowDown.mouseover" end="arrowDown.mouseout"/>
                  </use>
                  <path fill="none" stroke="white" stroke-width="1.5" d="M0,-3.0v7 M-2.5,-0.5L0,-3.0L2.5,-0.5"/>
                </g>
                <g id="arrowLeft" xlink:href="#dirArrow" transform="rotate(270) translate(-36 17)" onmousedown="handlePan(-1,0)">
                  <use xlink:href="#rim" fill="#404040">
                        <set attributeName="fill" to="#808080" begin="arrowLeft.mouseover" end="arrowLeft.mouseout"/>
                  </use>
                  <path fill="none" stroke="white" stroke-width="1.5" d="M0,-3.0v7 M-2.5,-0.5L0,-3.0L2.5,-0.5"/>
                </g>
        </g>
        <svg viewBox="0 0 15 15" width="100%" height="30px" preserveAspectRatio="xMaxYMin meet">
         <g id="arrow_out" transform="scale(0.3 0.3)">
          <a xlink:href="MUON_2MID_2Raw_2src_2Decoder_8cxx__incl_org.svg" target="_base">
           <rect id="button" ry="5" rx="5" y="6" x="6" height="38" width="38"
                fill="#f2f5e9" fill-opacity="0.5" stroke="#606060" stroke-width="1.0"/>
           <path id="arrow"
             d="M 11.500037,31.436501 C 11.940474,20.09759 22.043105,11.32322 32.158766,21.979434 L 37.068811,17.246167 C 37.068811,17.246167 37.088388,32 37.088388,32 L 22.160133,31.978069 C 22.160133,31.978069 26.997745,27.140456 26.997745,27.140456 C 18.528582,18.264221 13.291696,25.230495 11.500037,31.436501 z"
             style="fill:#404040;"/>
          </a>
         </g>
        </svg>
</svg>
