<?xml version="1.0" encoding="UTF-8" standalone="no"?>
<!DOCTYPE svg PUBLIC "-//W3C//DTD SVG 1.1//EN"
 "http://www.w3.org/Graphics/SVG/1.1/DTD/svg11.dtd">
<!-- Generated by graphviz version 2.40.1 (20161225.0304)
 -->
<!-- Title: /home/travis/build/AliceO2Group/AliceO2/Detectors/TPC/reconstruction/include/TPCReconstruction/AdcClockMonitor.h Pages: 1 -->
<svg width="1372pt" height="461pt"
 viewBox="0.00 0.00 1371.50 461.00" xmlns="http://www.w3.org/2000/svg" xmlns:xlink="http://www.w3.org/1999/xlink">
<g id="graph0" class="graph" transform="scale(1 1) rotate(0) translate(4 457)">
<title>/home/travis/build/AliceO2Group/AliceO2/Detectors/TPC/reconstruction/include/TPCReconstruction/AdcClockMonitor.h</title>
<!-- Node4 -->
<g id="node1" class="node">
<title>Node4</title>
<polygon fill="#bfbfbf" stroke="#000000" points="914,-389.5 914,-452.5 1075,-452.5 1075,-389.5 914,-389.5"/>
<text text-anchor="start" x="922" y="-440.5" font-family="Helvetica,sans-Serif" font-size="10.00" fill="#000000">/home/travis/build</text>
<text text-anchor="start" x="922" y="-429.5" font-family="Helvetica,sans-Serif" font-size="10.00" fill="#000000">/AliceO2Group/AliceO2</text>
<text text-anchor="start" x="922" y="-418.5" font-family="Helvetica,sans-Serif" font-size="10.00" fill="#000000">/Detectors/TPC/reconstruction</text>
<text text-anchor="start" x="922" y="-407.5" font-family="Helvetica,sans-Serif" font-size="10.00" fill="#000000">/include/TPCReconstruction</text>
<text text-anchor="middle" x="994.5" y="-396.5" font-family="Helvetica,sans-Serif" font-size="10.00" fill="#000000">/AdcClockMonitor.h</text>
</g>
<!-- Node5 -->
<g id="node2" class="node">
<title>Node5</title>
<g id="a_node2"><a xlink:href="../../db/d52/GBTFrameContainer_8h.html" target="_top" xlink:title="Container class for the GBT Frames. ">
<polygon fill="none" stroke="#000000" points="646,-289.5 646,-352.5 807,-352.5 807,-289.5 646,-289.5"/>
<text text-anchor="start" x="654" y="-340.5" font-family="Helvetica,sans-Serif" font-size="10.00" fill="#000000">/home/travis/build</text>
<text text-anchor="start" x="654" y="-329.5" font-family="Helvetica,sans-Serif" font-size="10.00" fill="#000000">/AliceO2Group/AliceO2</text>
<text text-anchor="start" x="654" y="-318.5" font-family="Helvetica,sans-Serif" font-size="10.00" fill="#000000">/Detectors/TPC/reconstruction</text>
<text text-anchor="start" x="654" y="-307.5" font-family="Helvetica,sans-Serif" font-size="10.00" fill="#000000">/include/TPCReconstruction</text>
<text text-anchor="middle" x="726.5" y="-296.5" font-family="Helvetica,sans-Serif" font-size="10.00" fill="#000000">/GBTFrameContainer.h</text>
</a>
</g>
</g>
<!-- Node4&#45;&gt;Node5 -->
<g id="edge1" class="edge">
<title>Node4&#45;&gt;Node5</title>
<path fill="none" stroke="#191970" d="M904.1018,-387.2693C872.6849,-375.5466 837.6793,-362.4848 807.1068,-351.0772"/>
<polygon fill="#191970" stroke="#191970" points="903.1351,-390.6443 913.7277,-390.8611 905.5823,-384.086 903.1351,-390.6443"/>
</g>
<!-- Node18 -->
<g id="node15" class="node">
<title>Node18</title>
<g id="a_node15"><a xlink:href="../../d1/da7/AdcClockMonitor_8cxx.html" target="_top" xlink:title="/home/travis/build\l/AliceO2Group/AliceO2\l/Detectors/TPC/reconstruction\l/src/AdcClockMonitor.cxx">
<polygon fill="none" stroke="#000000" points="825,-295 825,-347 986,-347 986,-295 825,-295"/>
<text text-anchor="start" x="833" y="-335" font-family="Helvetica,sans-Serif" font-size="10.00" fill="#000000">/home/travis/build</text>
<text text-anchor="start" x="833" y="-324" font-family="Helvetica,sans-Serif" font-size="10.00" fill="#000000">/AliceO2Group/AliceO2</text>
<text text-anchor="start" x="833" y="-313" font-family="Helvetica,sans-Serif" font-size="10.00" fill="#000000">/Detectors/TPC/reconstruction</text>
<text text-anchor="middle" x="905.5" y="-302" font-family="Helvetica,sans-Serif" font-size="10.00" fill="#000000">/src/AdcClockMonitor.cxx</text>
</a>
</g>
</g>
<!-- Node4&#45;&gt;Node18 -->
<g id="edge14" class="edge">
<title>Node4&#45;&gt;Node18</title>
<path fill="none" stroke="#191970" d="M959.6496,-381.8422C949.269,-370.1787 938.1525,-357.6881 928.7094,-347.078"/>
<polygon fill="#191970" stroke="#191970" points="957.077,-384.2163 966.3398,-389.3594 962.306,-379.5625 957.077,-384.2163"/>
</g>
<!-- Node19 -->
<g id="node16" class="node">
<title>Node19</title>
<g id="a_node16"><a xlink:href="../../d4/ddf/RawReader_8cxx.html" target="_top" xlink:title="/home/travis/build\l/AliceO2Group/AliceO2\l/Detectors/TPC/reconstruction\l/src/RawReader.cxx">
<polygon fill="none" stroke="#000000" points="1004,-295 1004,-347 1165,-347 1165,-295 1004,-295"/>
<text text-anchor="start" x="1012" y="-335" font-family="Helvetica,sans-Serif" font-size="10.00" fill="#000000">/home/travis/build</text>
<text text-anchor="start" x="1012" y="-324" font-family="Helvetica,sans-Serif" font-size="10.00" fill="#000000">/AliceO2Group/AliceO2</text>
<text text-anchor="start" x="1012" y="-313" font-family="Helvetica,sans-Serif" font-size="10.00" fill="#000000">/Detectors/TPC/reconstruction</text>
<text text-anchor="middle" x="1084.5" y="-302" font-family="Helvetica,sans-Serif" font-size="10.00" fill="#000000">/src/RawReader.cxx</text>
</a>
</g>
</g>
<!-- Node4&#45;&gt;Node19 -->
<g id="edge15" class="edge">
<title>Node4&#45;&gt;Node19</title>
<path fill="none" stroke="#191970" d="M1029.742,-381.8422C1040.2392,-370.1787 1051.4807,-357.6881 1061.0298,-347.078"/>
<polygon fill="#191970" stroke="#191970" points="1027.0647,-379.585 1022.9766,-389.3594 1032.2678,-384.2678 1027.0647,-379.585"/>
</g>
<!-- Node20 -->
<g id="node17" class="node">
<title>Node20</title>
<g id="a_node17"><a xlink:href="../../dc/d28/testTPCAdcClockMonitor_8cxx.html" target="_top" xlink:title="This task tests the AdcClockMonitor.cxx module of the TPC GBT frame reader. ">
<polygon fill="none" stroke="#000000" points="1183.5,-295 1183.5,-347 1363.5,-347 1363.5,-295 1183.5,-295"/>
<text text-anchor="start" x="1191.5" y="-335" font-family="Helvetica,sans-Serif" font-size="10.00" fill="#000000">/home/travis/build</text>
<text text-anchor="start" x="1191.5" y="-324" font-family="Helvetica,sans-Serif" font-size="10.00" fill="#000000">/AliceO2Group/AliceO2</text>
<text text-anchor="start" x="1191.5" y="-313" font-family="Helvetica,sans-Serif" font-size="10.00" fill="#000000">/Detectors/TPC/reconstruction</text>
<text text-anchor="middle" x="1273.5" y="-302" font-family="Helvetica,sans-Serif" font-size="10.00" fill="#000000">/test/testTPCAdcClockMonitor.cxx</text>
</a>
</g>
</g>
<!-- Node4&#45;&gt;Node20 -->
<g id="edge16" class="edge">
<title>Node4&#45;&gt;Node20</title>
<path fill="none" stroke="#191970" d="M1085.0883,-388.5311C1122.4934,-375.1242 1165.2703,-359.792 1200.6003,-347.1289"/>
<polygon fill="#191970" stroke="#191970" points="1083.431,-385.407 1075.1984,-392.0759 1085.7929,-391.9965 1083.431,-385.407"/>
</g>
<!-- Node6 -->
<g id="node3" class="node">
<title>Node6</title>
<g id="a_node3"><a xlink:href="../../d7/dd7/CalibRawBase_8h.html" target="_top" xlink:title="/home/travis/build\l/AliceO2Group/AliceO2\l/Detectors/TPC/calibration\l/include/TPCCalibration/CalibRaw\lBase.h">
<polygon fill="none" stroke="#000000" points="449,-189.5 449,-252.5 628,-252.5 628,-189.5 449,-189.5"/>
<text text-anchor="start" x="457" y="-240.5" font-family="Helvetica,sans-Serif" font-size="10.00" fill="#000000">/home/travis/build</text>
<text text-anchor="start" x="457" y="-229.5" font-family="Helvetica,sans-Serif" font-size="10.00" fill="#000000">/AliceO2Group/AliceO2</text>
<text text-anchor="start" x="457" y="-218.5" font-family="Helvetica,sans-Serif" font-size="10.00" fill="#000000">/Detectors/TPC/calibration</text>
<text text-anchor="start" x="457" y="-207.5" font-family="Helvetica,sans-Serif" font-size="10.00" fill="#000000">/include/TPCCalibration/CalibRaw</text>
<text text-anchor="middle" x="538.5" y="-196.5" font-family="Helvetica,sans-Serif" font-size="10.00" fill="#000000">Base.h</text>
</a>
</g>
</g>
<!-- Node5&#45;&gt;Node6 -->
<g id="edge2" class="edge">
<title>Node5&#45;&gt;Node6</title>
<path fill="none" stroke="#191970" d="M658.2947,-284.7206C638.4674,-274.1741 616.9806,-262.745 597.7515,-252.5168"/>
<polygon fill="#191970" stroke="#191970" points="656.8013,-287.8905 667.2737,-289.4966 660.0886,-281.7104 656.8013,-287.8905"/>
</g>
<!-- Node16 -->
<g id="node13" class="node">
<title>Node16</title>
<g id="a_node13"><a xlink:href="../../db/dc7/readGBTFrames_8cxx.html" target="_top" xlink:title="/home/travis/build\l/AliceO2Group/AliceO2\l/Detectors/TPC/reconstruction\l/run/readGBTFrames.cxx">
<polygon fill="none" stroke="#000000" points="646,-195 646,-247 807,-247 807,-195 646,-195"/>
<text text-anchor="start" x="654" y="-235" font-family="Helvetica,sans-Serif" font-size="10.00" fill="#000000">/home/travis/build</text>
<text text-anchor="start" x="654" y="-224" font-family="Helvetica,sans-Serif" font-size="10.00" fill="#000000">/AliceO2Group/AliceO2</text>
<text text-anchor="start" x="654" y="-213" font-family="Helvetica,sans-Serif" font-size="10.00" fill="#000000">/Detectors/TPC/reconstruction</text>
<text text-anchor="middle" x="726.5" y="-202" font-family="Helvetica,sans-Serif" font-size="10.00" fill="#000000">/run/readGBTFrames.cxx</text>
</a>
</g>
</g>
<!-- Node5&#45;&gt;Node16 -->
<g id="edge12" class="edge">
<title>Node5&#45;&gt;Node16</title>
<path fill="none" stroke="#191970" d="M726.5,-279.1631C726.5,-268.2863 726.5,-256.8798 726.5,-247.078"/>
<polygon fill="#191970" stroke="#191970" points="723.0001,-279.3593 726.5,-289.3594 730.0001,-279.3594 723.0001,-279.3593"/>
</g>
<!-- Node17 -->
<g id="node14" class="node">
<title>Node17</title>
<g id="a_node14"><a xlink:href="../../d4/dfc/GBTFrameContainer_8cxx.html" target="_top" xlink:title="/home/travis/build\l/AliceO2Group/AliceO2\l/Detectors/TPC/reconstruction\l/src/GBTFrameContainer.cxx">
<polygon fill="none" stroke="#000000" points="825,-195 825,-247 986,-247 986,-195 825,-195"/>
<text text-anchor="start" x="833" y="-235" font-family="Helvetica,sans-Serif" font-size="10.00" fill="#000000">/home/travis/build</text>
<text text-anchor="start" x="833" y="-224" font-family="Helvetica,sans-Serif" font-size="10.00" fill="#000000">/AliceO2Group/AliceO2</text>
<text text-anchor="start" x="833" y="-213" font-family="Helvetica,sans-Serif" font-size="10.00" fill="#000000">/Detectors/TPC/reconstruction</text>
<text text-anchor="middle" x="905.5" y="-202" font-family="Helvetica,sans-Serif" font-size="10.00" fill="#000000">/src/GBTFrameContainer.cxx</text>
</a>
</g>
</g>
<!-- Node5&#45;&gt;Node17 -->
<g id="edge13" class="edge">
<title>Node5&#45;&gt;Node17</title>
<path fill="none" stroke="#191970" d="M792.143,-284.3279C814.259,-271.9726 838.4716,-258.446 858.8204,-247.078"/>
<polygon fill="#191970" stroke="#191970" points="790.1598,-281.4267 783.1367,-289.3594 793.5738,-287.5377 790.1598,-281.4267"/>
</g>
<!-- Node7 -->
<g id="node4" class="node">
<title>Node7</title>
<g id="a_node4"><a xlink:href="../../da/df1/CalibPedestal_8h.html" target="_top" xlink:title="/home/travis/build\l/AliceO2Group/AliceO2\l/Detectors/TPC/calibration\l/include/TPCCalibration/CalibPedestal.h">
<polygon fill="none" stroke="#000000" points="0,-95 0,-147 209,-147 209,-95 0,-95"/>
<text text-anchor="start" x="8" y="-135" font-family="Helvetica,sans-Serif" font-size="10.00" fill="#000000">/home/travis/build</text>
<text text-anchor="start" x="8" y="-124" font-family="Helvetica,sans-Serif" font-size="10.00" fill="#000000">/AliceO2Group/AliceO2</text>
<text text-anchor="start" x="8" y="-113" font-family="Helvetica,sans-Serif" font-size="10.00" fill="#000000">/Detectors/TPC/calibration</text>
<text text-anchor="middle" x="104.5" y="-102" font-family="Helvetica,sans-Serif" font-size="10.00" fill="#000000">/include/TPCCalibration/CalibPedestal.h</text>
</a>
</g>
</g>
<!-- Node6&#45;&gt;Node7 -->
<g id="edge3" class="edge">
<title>Node6&#45;&gt;Node7</title>
<path fill="none" stroke="#191970" d="M438.8489,-201.5407C375.5139,-188.7497 291.9168,-171.0848 218.5,-153 210.9152,-151.1316 203.0703,-149.1129 195.2097,-147.0295"/>
<polygon fill="#191970" stroke="#191970" points="438.341,-205.0086 448.8351,-203.551 439.7225,-198.1463 438.341,-205.0086"/>
</g>
<!-- Node9 -->
<g id="node6" class="node">
<title>Node9</title>
<g id="a_node6"><a xlink:href="../../d2/d5d/CalibPulser_8h.html" target="_top" xlink:title="/home/travis/build\l/AliceO2Group/AliceO2\l/Detectors/TPC/calibration\l/include/TPCCalibration/CalibPulser.h">
<polygon fill="none" stroke="#000000" points="227.5,-95 227.5,-147 423.5,-147 423.5,-95 227.5,-95"/>
<text text-anchor="start" x="235.5" y="-135" font-family="Helvetica,sans-Serif" font-size="10.00" fill="#000000">/home/travis/build</text>
<text text-anchor="start" x="235.5" y="-124" font-family="Helvetica,sans-Serif" font-size="10.00" fill="#000000">/AliceO2Group/AliceO2</text>
<text text-anchor="start" x="235.5" y="-113" font-family="Helvetica,sans-Serif" font-size="10.00" fill="#000000">/Detectors/TPC/calibration</text>
<text text-anchor="middle" x="325.5" y="-102" font-family="Helvetica,sans-Serif" font-size="10.00" fill="#000000">/include/TPCCalibration/CalibPulser.h</text>
</a>
</g>
</g>
<!-- Node6&#45;&gt;Node9 -->
<g id="edge5" class="edge">
<title>Node6&#45;&gt;Node9</title>
<path fill="none" stroke="#191970" d="M462.0757,-185.12C435.3614,-172.5781 405.8969,-158.745 381.1948,-147.1478"/>
<polygon fill="#191970" stroke="#191970" points="460.8583,-188.415 471.3978,-189.4966 463.8332,-182.0786 460.8583,-188.415"/>
</g>
<!-- Node11 -->
<g id="node8" class="node">
<title>Node11</title>
<g id="a_node8"><a xlink:href="../../d6/d25/DigitDump_8h.html" target="_top" xlink:title="/home/travis/build\l/AliceO2Group/AliceO2\l/Detectors/TPC/calibration\l/include/TPCCalibration/DigitDump.h">
<polygon fill="none" stroke="#000000" points="441.5,-95 441.5,-147 635.5,-147 635.5,-95 441.5,-95"/>
<text text-anchor="start" x="449.5" y="-135" font-family="Helvetica,sans-Serif" font-size="10.00" fill="#000000">/home/travis/build</text>
<text text-anchor="start" x="449.5" y="-124" font-family="Helvetica,sans-Serif" font-size="10.00" fill="#000000">/AliceO2Group/AliceO2</text>
<text text-anchor="start" x="449.5" y="-113" font-family="Helvetica,sans-Serif" font-size="10.00" fill="#000000">/Detectors/TPC/calibration</text>
<text text-anchor="middle" x="538.5" y="-102" font-family="Helvetica,sans-Serif" font-size="10.00" fill="#000000">/include/TPCCalibration/DigitDump.h</text>
</a>
</g>
</g>
<!-- Node6&#45;&gt;Node11 -->
<g id="edge7" class="edge">
<title>Node6&#45;&gt;Node11</title>
<path fill="none" stroke="#191970" d="M538.5,-179.1631C538.5,-168.2863 538.5,-156.8798 538.5,-147.078"/>
<polygon fill="#191970" stroke="#191970" points="535.0001,-179.3593 538.5,-189.3594 542.0001,-179.3594 535.0001,-179.3593"/>
</g>
<!-- Node13 -->
<g id="node10" class="node">
<title>Node13</title>
<g id="a_node10"><a xlink:href="../../d9/d74/CalibRawBase_8cxx.html" target="_top" xlink:title="/home/travis/build\l/AliceO2Group/AliceO2\l/Detectors/TPC/calibration\l/src/CalibRawBase.cxx">
<polygon fill="none" stroke="#000000" points="654,-95 654,-147 797,-147 797,-95 654,-95"/>
<text text-anchor="start" x="662" y="-135" font-family="Helvetica,sans-Serif" font-size="10.00" fill="#000000">/home/travis/build</text>
<text text-anchor="start" x="662" y="-124" font-family="Helvetica,sans-Serif" font-size="10.00" fill="#000000">/AliceO2Group/AliceO2</text>
<text text-anchor="start" x="662" y="-113" font-family="Helvetica,sans-Serif" font-size="10.00" fill="#000000">/Detectors/TPC/calibration</text>
<text text-anchor="middle" x="725.5" y="-102" font-family="Helvetica,sans-Serif" font-size="10.00" fill="#000000">/src/CalibRawBase.cxx</text>
</a>
</g>
</g>
<!-- Node6&#45;&gt;Node13 -->
<g id="edge9" class="edge">
<title>Node6&#45;&gt;Node13</title>
<path fill="none" stroke="#191970" d="M606.5185,-184.6265C629.726,-172.2161 655.2009,-158.5931 676.6036,-147.1478"/>
<polygon fill="#191970" stroke="#191970" points="604.5791,-181.6945 597.4113,-189.4966 607.8801,-187.8673 604.5791,-181.6945"/>
</g>
<!-- Node14 -->
<g id="node11" class="node">
<title>Node14</title>
<g id="a_node11"><a xlink:href="../../db/dc3/SimpleEventDisplay_8h.html" target="_top" xlink:title="/home/travis/build\l/AliceO2Group/AliceO2\l/Detectors/TPC/monitor\l/include/TPCMonitor/SimpleEvent\lDisplay.h">
<polygon fill="none" stroke="#000000" points="815.5,-89.5 815.5,-152.5 993.5,-152.5 993.5,-89.5 815.5,-89.5"/>
<text text-anchor="start" x="823.5" y="-140.5" font-family="Helvetica,sans-Serif" font-size="10.00" fill="#000000">/home/travis/build</text>
<text text-anchor="start" x="823.5" y="-129.5" font-family="Helvetica,sans-Serif" font-size="10.00" fill="#000000">/AliceO2Group/AliceO2</text>
<text text-anchor="start" x="823.5" y="-118.5" font-family="Helvetica,sans-Serif" font-size="10.00" fill="#000000">/Detectors/TPC/monitor</text>
<text text-anchor="start" x="823.5" y="-107.5" font-family="Helvetica,sans-Serif" font-size="10.00" fill="#000000">/include/TPCMonitor/SimpleEvent</text>
<text text-anchor="middle" x="904.5" y="-96.5" font-family="Helvetica,sans-Serif" font-size="10.00" fill="#000000">Display.h</text>
</a>
</g>
</g>
<!-- Node6&#45;&gt;Node14 -->
<g id="edge10" class="edge">
<title>Node6&#45;&gt;Node14</title>
<path fill="none" stroke="#191970" d="M638.0121,-188.698C712.8905,-169.2752 734.9669,-172.194 806.5,-153 809.4387,-152.2115 812.4193,-151.3866 815.4232,-150.5336"/>
<polygon fill="#191970" stroke="#191970" points="636.8802,-185.3769 628.1067,-191.3162 638.6691,-192.1444 636.8802,-185.3769"/>
</g>
<!-- Node8 -->
<g id="node5" class="node">
<title>Node8</title>
<g id="a_node5"><a xlink:href="../../d6/d99/CalibPedestal_8cxx.html" target="_top" xlink:title="/home/travis/build\l/AliceO2Group/AliceO2\l/Detectors/TPC/calibration\l/src/CalibPedestal.cxx">
<polygon fill="none" stroke="#000000" points="33,-.5 33,-52.5 176,-52.5 176,-.5 33,-.5"/>
<text text-anchor="start" x="41" y="-40.5" font-family="Helvetica,sans-Serif" font-size="10.00" fill="#000000">/home/travis/build</text>
<text text-anchor="start" x="41" y="-29.5" font-family="Helvetica,sans-Serif" font-size="10.00" fill="#000000">/AliceO2Group/AliceO2</text>
<text text-anchor="start" x="41" y="-18.5" font-family="Helvetica,sans-Serif" font-size="10.00" fill="#000000">/Detectors/TPC/calibration</text>
<text text-anchor="middle" x="104.5" y="-7.5" font-family="Helvetica,sans-Serif" font-size="10.00" fill="#000000">/src/CalibPedestal.cxx</text>
</a>
</g>
</g>
<!-- Node7&#45;&gt;Node8 -->
<g id="edge4" class="edge">
<title>Node7&#45;&gt;Node8</title>
<path fill="none" stroke="#191970" d="M104.5,-84.6645C104.5,-74.0577 104.5,-62.6746 104.5,-52.8157"/>
<polygon fill="#191970" stroke="#191970" points="101.0001,-84.9273 104.5,-94.9273 108.0001,-84.9273 101.0001,-84.9273"/>
</g>
<!-- Node10 -->
<g id="node7" class="node">
<title>Node10</title>
<g id="a_node7"><a xlink:href="../../d4/ddc/CalibPulser_8cxx.html" target="_top" xlink:title="/home/travis/build\l/AliceO2Group/AliceO2\l/Detectors/TPC/calibration\l/src/CalibPulser.cxx">
<polygon fill="none" stroke="#000000" points="254,-.5 254,-52.5 397,-52.5 397,-.5 254,-.5"/>
<text text-anchor="start" x="262" y="-40.5" font-family="Helvetica,sans-Serif" font-size="10.00" fill="#000000">/home/travis/build</text>
<text text-anchor="start" x="262" y="-29.5" font-family="Helvetica,sans-Serif" font-size="10.00" fill="#000000">/AliceO2Group/AliceO2</text>
<text text-anchor="start" x="262" y="-18.5" font-family="Helvetica,sans-Serif" font-size="10.00" fill="#000000">/Detectors/TPC/calibration</text>
<text text-anchor="middle" x="325.5" y="-7.5" font-family="Helvetica,sans-Serif" font-size="10.00" fill="#000000">/src/CalibPulser.cxx</text>
</a>
</g>
</g>
<!-- Node9&#45;&gt;Node10 -->
<g id="edge6" class="edge">
<title>Node9&#45;&gt;Node10</title>
<path fill="none" stroke="#191970" d="M325.5,-84.6645C325.5,-74.0577 325.5,-62.6746 325.5,-52.8157"/>
<polygon fill="#191970" stroke="#191970" points="322.0001,-84.9273 325.5,-94.9273 329.0001,-84.9273 322.0001,-84.9273"/>
</g>
<!-- Node12 -->
<g id="node9" class="node">
<title>Node12</title>
<g id="a_node9"><a xlink:href="../../d6/d66/DigitDump_8cxx.html" target="_top" xlink:title="/home/travis/build\l/AliceO2Group/AliceO2\l/Detectors/TPC/calibration\l/src/DigitDump.cxx">
<polygon fill="none" stroke="#000000" points="467,-.5 467,-52.5 610,-52.5 610,-.5 467,-.5"/>
<text text-anchor="start" x="475" y="-40.5" font-family="Helvetica,sans-Serif" font-size="10.00" fill="#000000">/home/travis/build</text>
<text text-anchor="start" x="475" y="-29.5" font-family="Helvetica,sans-Serif" font-size="10.00" fill="#000000">/AliceO2Group/AliceO2</text>
<text text-anchor="start" x="475" y="-18.5" font-family="Helvetica,sans-Serif" font-size="10.00" fill="#000000">/Detectors/TPC/calibration</text>
<text text-anchor="middle" x="538.5" y="-7.5" font-family="Helvetica,sans-Serif" font-size="10.00" fill="#000000">/src/DigitDump.cxx</text>
</a>
</g>
</g>
<!-- Node11&#45;&gt;Node12 -->
<g id="edge8" class="edge">
<title>Node11&#45;&gt;Node12</title>
<path fill="none" stroke="#191970" d="M538.5,-84.6645C538.5,-74.0577 538.5,-62.6746 538.5,-52.8157"/>
<polygon fill="#191970" stroke="#191970" points="535.0001,-84.9273 538.5,-94.9273 542.0001,-84.9273 535.0001,-84.9273"/>
</g>
<!-- Node15 -->
<g id="node12" class="node">
<title>Node15</title>
<g id="a_node12"><a xlink:href="../../d9/df5/SimpleEventDisplay_8cxx.html" target="_top" xlink:title="/home/travis/build\l/AliceO2Group/AliceO2\l/Detectors/TPC/monitor\l/src/SimpleEventDisplay.cxx">
<polygon fill="none" stroke="#000000" points="827.5,-.5 827.5,-52.5 981.5,-52.5 981.5,-.5 827.5,-.5"/>
<text text-anchor="start" x="835.5" y="-40.5" font-family="Helvetica,sans-Serif" font-size="10.00" fill="#000000">/home/travis/build</text>
<text text-anchor="start" x="835.5" y="-29.5" font-family="Helvetica,sans-Serif" font-size="10.00" fill="#000000">/AliceO2Group/AliceO2</text>
<text text-anchor="start" x="835.5" y="-18.5" font-family="Helvetica,sans-Serif" font-size="10.00" fill="#000000">/Detectors/TPC/monitor</text>
<text text-anchor="middle" x="904.5" y="-7.5" font-family="Helvetica,sans-Serif" font-size="10.00" fill="#000000">/src/SimpleEventDisplay.cxx</text>
</a>
</g>
</g>
<!-- Node14&#45;&gt;Node15 -->
<g id="edge11" class="edge">
<title>Node14&#45;&gt;Node15</title>
<path fill="none" stroke="#191970" d="M904.5,-79.2457C904.5,-70.2008 904.5,-60.8836 904.5,-52.6442"/>
<polygon fill="#191970" stroke="#191970" points="901.0001,-79.2699 904.5,-89.27 908.0001,-79.27 901.0001,-79.2699"/>
</g>
</g>
</svg>
