<?xml version="1.0" encoding="UTF-8" standalone="no"?>
<!DOCTYPE svg PUBLIC "-//W3C//DTD SVG 1.1//EN"
 "http://www.w3.org/Graphics/SVG/1.1/DTD/svg11.dtd">
<!-- Generated by graphviz version 2.40.1 (20161225.0304)
 -->
<!-- Title: /home/travis/build/AliceO2Group/AliceO2/Detectors/MUON/MCH/Tracking/src/Cluster.h Pages: 1 -->
<svg width="1279pt" height="417pt"
 viewBox="0.00 0.00 1279.00 417.00" xmlns="http://www.w3.org/2000/svg" xmlns:xlink="http://www.w3.org/1999/xlink">
<g id="graph0" class="graph" transform="scale(1 1) rotate(0) translate(4 413)">
<title>/home/travis/build/AliceO2Group/AliceO2/Detectors/MUON/MCH/Tracking/src/Cluster.h</title>
<!-- Node4 -->
<g id="node1" class="node">
<title>Node4</title>
<polygon fill="#bfbfbf" stroke="#000000" points="536,-356.5 536,-408.5 706,-408.5 706,-356.5 536,-356.5"/>
<text text-anchor="start" x="544" y="-396.5" font-family="Helvetica,sans-Serif" font-size="10.00" fill="#000000">/home/travis/build</text>
<text text-anchor="start" x="544" y="-385.5" font-family="Helvetica,sans-Serif" font-size="10.00" fill="#000000">/AliceO2Group/AliceO2</text>
<text text-anchor="start" x="544" y="-374.5" font-family="Helvetica,sans-Serif" font-size="10.00" fill="#000000">/Detectors/MUON/MCH/Tracking</text>
<text text-anchor="middle" x="621" y="-363.5" font-family="Helvetica,sans-Serif" font-size="10.00" fill="#000000">/src/Cluster.h</text>
</g>
<!-- Node5 -->
<g id="node2" class="node">
<title>Node5</title>
<g id="a_node2"><a xlink:href="../../d6/d5f/Detectors_2MUON_2MCH_2Tracking_2src_2Cluster_8cxx.html" target="_top" xlink:title="/home/travis/build\l/AliceO2Group/AliceO2\l/Detectors/MUON/MCH/Tracking\l/src/Cluster.cxx">
<polygon fill="none" stroke="#000000" points="0,-267.5 0,-319.5 170,-319.5 170,-267.5 0,-267.5"/>
<text text-anchor="start" x="8" y="-307.5" font-family="Helvetica,sans-Serif" font-size="10.00" fill="#000000">/home/travis/build</text>
<text text-anchor="start" x="8" y="-296.5" font-family="Helvetica,sans-Serif" font-size="10.00" fill="#000000">/AliceO2Group/AliceO2</text>
<text text-anchor="start" x="8" y="-285.5" font-family="Helvetica,sans-Serif" font-size="10.00" fill="#000000">/Detectors/MUON/MCH/Tracking</text>
<text text-anchor="middle" x="85" y="-274.5" font-family="Helvetica,sans-Serif" font-size="10.00" fill="#000000">/src/Cluster.cxx</text>
</a>
</g>
</g>
<!-- Node4&#45;&gt;Node5 -->
<g id="edge1" class="edge">
<title>Node4&#45;&gt;Node5</title>
<path fill="none" stroke="#191970" d="M525.8262,-372.2114C436.9205,-361.8165 300.762,-343.8879 184,-320 179.4678,-319.0728 174.835,-318.0605 170.1689,-316.9901"/>
<polygon fill="#191970" stroke="#191970" points="525.5542,-375.7032 535.891,-373.3795 526.3613,-368.7499 525.5542,-375.7032"/>
</g>
<!-- Node6 -->
<g id="node3" class="node">
<title>Node6</title>
<g id="a_node3"><a xlink:href="../../d8/d80/Detectors_2MUON_2MCH_2Tracking_2src_2Track_8h.html" target="_top" xlink:title="/home/travis/build\l/AliceO2Group/AliceO2\l/Detectors/MUON/MCH/Tracking\l/src/Track.h">
<polygon fill="none" stroke="#000000" points="536,-267.5 536,-319.5 706,-319.5 706,-267.5 536,-267.5"/>
<text text-anchor="start" x="544" y="-307.5" font-family="Helvetica,sans-Serif" font-size="10.00" fill="#000000">/home/travis/build</text>
<text text-anchor="start" x="544" y="-296.5" font-family="Helvetica,sans-Serif" font-size="10.00" fill="#000000">/AliceO2Group/AliceO2</text>
<text text-anchor="start" x="544" y="-285.5" font-family="Helvetica,sans-Serif" font-size="10.00" fill="#000000">/Detectors/MUON/MCH/Tracking</text>
<text text-anchor="middle" x="621" y="-274.5" font-family="Helvetica,sans-Serif" font-size="10.00" fill="#000000">/src/Track.h</text>
</a>
</g>
</g>
<!-- Node4&#45;&gt;Node6 -->
<g id="edge2" class="edge">
<title>Node4&#45;&gt;Node6</title>
<path fill="none" stroke="#191970" d="M621,-346.1155C621,-337.2061 621,-327.8475 621,-319.5341"/>
<polygon fill="#191970" stroke="#191970" points="617.5001,-346.2784 621,-356.2784 624.5001,-346.2785 617.5001,-346.2784"/>
</g>
<!-- Node8 -->
<g id="node5" class="node">
<title>Node8</title>
<g id="a_node5"><a xlink:href="../../d5/d91/TrackFinder_8h.html" target="_top" xlink:title="Definition of a class to reconstruct tracks. ">
<polygon fill="none" stroke="#000000" points="273,-89.5 273,-141.5 443,-141.5 443,-89.5 273,-89.5"/>
<text text-anchor="start" x="281" y="-129.5" font-family="Helvetica,sans-Serif" font-size="10.00" fill="#000000">/home/travis/build</text>
<text text-anchor="start" x="281" y="-118.5" font-family="Helvetica,sans-Serif" font-size="10.00" fill="#000000">/AliceO2Group/AliceO2</text>
<text text-anchor="start" x="281" y="-107.5" font-family="Helvetica,sans-Serif" font-size="10.00" fill="#000000">/Detectors/MUON/MCH/Tracking</text>
<text text-anchor="middle" x="358" y="-96.5" font-family="Helvetica,sans-Serif" font-size="10.00" fill="#000000">/src/TrackFinder.h</text>
</a>
</g>
</g>
<!-- Node4&#45;&gt;Node8 -->
<g id="edge18" class="edge">
<title>Node4&#45;&gt;Node8</title>
<path fill="none" stroke="#191970" d="M525.7294,-367.9567C493.2311,-358.8491 458.8615,-344.0479 434,-320 383.227,-270.8886 366.096,-184.7987 360.5365,-141.6743"/>
<polygon fill="#191970" stroke="#191970" points="525.18,-371.4316 535.7425,-370.6043 526.9694,-364.6642 525.18,-371.4316"/>
</g>
<!-- Node10 -->
<g id="node7" class="node">
<title>Node10</title>
<g id="a_node7"><a xlink:href="../../dd/dea/TrackFinderSpec_8cxx.html" target="_top" xlink:title="Implementation of a data processor to read clusters, reconstruct tracks and send them. ">
<polygon fill="none" stroke="#000000" points="95,-.5 95,-52.5 265,-52.5 265,-.5 95,-.5"/>
<text text-anchor="start" x="103" y="-40.5" font-family="Helvetica,sans-Serif" font-size="10.00" fill="#000000">/home/travis/build</text>
<text text-anchor="start" x="103" y="-29.5" font-family="Helvetica,sans-Serif" font-size="10.00" fill="#000000">/AliceO2Group/AliceO2</text>
<text text-anchor="start" x="103" y="-18.5" font-family="Helvetica,sans-Serif" font-size="10.00" fill="#000000">/Detectors/MUON/MCH/Tracking</text>
<text text-anchor="middle" x="180" y="-7.5" font-family="Helvetica,sans-Serif" font-size="10.00" fill="#000000">/src/TrackFinderSpec.cxx</text>
</a>
</g>
</g>
<!-- Node4&#45;&gt;Node10 -->
<g id="edge22" class="edge">
<title>Node4&#45;&gt;Node10</title>
<path fill="none" stroke="#191970" d="M526.1919,-367.9099C483.7183,-358.5508 434.2484,-343.5747 394,-320 298.0021,-263.7712 276.0367,-236.9159 218,-142 200.8212,-113.9051 190.4683,-77.1613 185.0013,-52.7422"/>
<polygon fill="#191970" stroke="#191970" points="525.4724,-371.3351 535.9823,-369.9961 526.9313,-364.4888 525.4724,-371.3351"/>
</g>
<!-- Node11 -->
<g id="node8" class="node">
<title>Node11</title>
<g id="a_node8"><a xlink:href="../../d4/d9c/TrackFitter_8h.html" target="_top" xlink:title="Definition of a class to fit a track to a set of clusters. ">
<polygon fill="none" stroke="#000000" points="687,-178.5 687,-230.5 857,-230.5 857,-178.5 687,-178.5"/>
<text text-anchor="start" x="695" y="-218.5" font-family="Helvetica,sans-Serif" font-size="10.00" fill="#000000">/home/travis/build</text>
<text text-anchor="start" x="695" y="-207.5" font-family="Helvetica,sans-Serif" font-size="10.00" fill="#000000">/AliceO2Group/AliceO2</text>
<text text-anchor="start" x="695" y="-196.5" font-family="Helvetica,sans-Serif" font-size="10.00" fill="#000000">/Detectors/MUON/MCH/Tracking</text>
<text text-anchor="middle" x="772" y="-185.5" font-family="Helvetica,sans-Serif" font-size="10.00" fill="#000000">/src/TrackFitter.h</text>
</a>
</g>
</g>
<!-- Node4&#45;&gt;Node11 -->
<g id="edge19" class="edge">
<title>Node4&#45;&gt;Node11</title>
<path fill="none" stroke="#191970" d="M679.1315,-350.7728C691.9934,-341.9639 704.8094,-331.5901 715,-320 738.329,-293.4671 754.5737,-255.6895 763.5923,-230.6542"/>
<polygon fill="#191970" stroke="#191970" points="677.1215,-347.9057 670.6998,-356.3327 680.975,-353.7496 677.1215,-347.9057"/>
</g>
<!-- Node12 -->
<g id="node9" class="node">
<title>Node12</title>
<g id="a_node9"><a xlink:href="../../d7/d7f/TrackFinderOriginal_8h.html" target="_top" xlink:title="Definition of a class to reconstruct tracks with the original algorithm. ">
<polygon fill="none" stroke="#000000" points="461,-89.5 461,-141.5 631,-141.5 631,-89.5 461,-89.5"/>
<text text-anchor="start" x="469" y="-129.5" font-family="Helvetica,sans-Serif" font-size="10.00" fill="#000000">/home/travis/build</text>
<text text-anchor="start" x="469" y="-118.5" font-family="Helvetica,sans-Serif" font-size="10.00" fill="#000000">/AliceO2Group/AliceO2</text>
<text text-anchor="start" x="469" y="-107.5" font-family="Helvetica,sans-Serif" font-size="10.00" fill="#000000">/Detectors/MUON/MCH/Tracking</text>
<text text-anchor="middle" x="546" y="-96.5" font-family="Helvetica,sans-Serif" font-size="10.00" fill="#000000">/src/TrackFinderOriginal.h</text>
</a>
</g>
</g>
<!-- Node4&#45;&gt;Node12 -->
<g id="edge20" class="edge">
<title>Node4&#45;&gt;Node12</title>
<path fill="none" stroke="#191970" d="M548.272,-351.6602C500.1616,-326.8611 441.1263,-286.8946 414,-231 403.7154,-209.8082 401.4021,-197.9037 414,-178 424.9842,-160.646 442.2323,-148.0167 460.6809,-138.8597"/>
<polygon fill="#191970" stroke="#191970" points="546.9203,-354.8981 557.4264,-356.2663 550.0665,-348.645 546.9203,-354.8981"/>
</g>
<!-- Node14 -->
<g id="node11" class="node">
<title>Node14</title>
<g id="a_node11"><a xlink:href="../../d7/d30/TrackFinderOriginalSpec_8cxx.html" target="_top" xlink:title="Implementation of a data processor to read clusters, reconstruct tracks and send them. ">
<polygon fill="none" stroke="#000000" points="659.5,-.5 659.5,-52.5 832.5,-52.5 832.5,-.5 659.5,-.5"/>
<text text-anchor="start" x="667.5" y="-40.5" font-family="Helvetica,sans-Serif" font-size="10.00" fill="#000000">/home/travis/build</text>
<text text-anchor="start" x="667.5" y="-29.5" font-family="Helvetica,sans-Serif" font-size="10.00" fill="#000000">/AliceO2Group/AliceO2</text>
<text text-anchor="start" x="667.5" y="-18.5" font-family="Helvetica,sans-Serif" font-size="10.00" fill="#000000">/Detectors/MUON/MCH/Tracking</text>
<text text-anchor="middle" x="746" y="-7.5" font-family="Helvetica,sans-Serif" font-size="10.00" fill="#000000">/src/TrackFinderOriginalSpec.cxx</text>
</a>
</g>
</g>
<!-- Node4&#45;&gt;Node14 -->
<g id="edge21" class="edge">
<title>Node4&#45;&gt;Node14</title>
<path fill="none" stroke="#191970" d="M716.2227,-363.5333C823.9966,-336.0917 992.5483,-273.4385 1054,-142 1063.9765,-120.6614 1068.9084,-107.2375 1054,-89 1026.4604,-55.3107 913.676,-39.3397 832.5603,-32.0861"/>
<polygon fill="#191970" stroke="#191970" points="715.1697,-360.1886 706.3119,-366.0015 716.8613,-366.9811 715.1697,-360.1886"/>
</g>
<!-- Node16 -->
<g id="node13" class="node">
<title>Node16</title>
<g id="a_node13"><a xlink:href="../../db/d54/TrackFitterSpec_8cxx.html" target="_top" xlink:title="Implementation of a data processor to read, refit and send tracks with attached clusters. ">
<polygon fill="none" stroke="#000000" points="875,-89.5 875,-141.5 1045,-141.5 1045,-89.5 875,-89.5"/>
<text text-anchor="start" x="883" y="-129.5" font-family="Helvetica,sans-Serif" font-size="10.00" fill="#000000">/home/travis/build</text>
<text text-anchor="start" x="883" y="-118.5" font-family="Helvetica,sans-Serif" font-size="10.00" fill="#000000">/AliceO2Group/AliceO2</text>
<text text-anchor="start" x="883" y="-107.5" font-family="Helvetica,sans-Serif" font-size="10.00" fill="#000000">/Detectors/MUON/MCH/Tracking</text>
<text text-anchor="middle" x="960" y="-96.5" font-family="Helvetica,sans-Serif" font-size="10.00" fill="#000000">/src/TrackFitterSpec.cxx</text>
</a>
</g>
</g>
<!-- Node4&#45;&gt;Node16 -->
<g id="edge23" class="edge">
<title>Node4&#45;&gt;Node16</title>
<path fill="none" stroke="#191970" d="M711.9675,-352.8466C774.1429,-328.5845 854.6385,-288.7722 908,-231 931.7241,-205.3149 946.0378,-166.9805 953.4788,-141.6179"/>
<polygon fill="#191970" stroke="#191970" points="710.6271,-349.612 702.5432,-356.4604 713.1334,-356.1479 710.6271,-349.612"/>
</g>
<!-- Node17 -->
<g id="node14" class="node">
<title>Node17</title>
<g id="a_node14"><a xlink:href="../../dc/d16/TrackParam_8cxx.html" target="_top" xlink:title="Implementation of the MCH track parameters for internal use. ">
<polygon fill="none" stroke="#000000" points="1101,-267.5 1101,-319.5 1271,-319.5 1271,-267.5 1101,-267.5"/>
<text text-anchor="start" x="1109" y="-307.5" font-family="Helvetica,sans-Serif" font-size="10.00" fill="#000000">/home/travis/build</text>
<text text-anchor="start" x="1109" y="-296.5" font-family="Helvetica,sans-Serif" font-size="10.00" fill="#000000">/AliceO2Group/AliceO2</text>
<text text-anchor="start" x="1109" y="-285.5" font-family="Helvetica,sans-Serif" font-size="10.00" fill="#000000">/Detectors/MUON/MCH/Tracking</text>
<text text-anchor="middle" x="1186" y="-274.5" font-family="Helvetica,sans-Serif" font-size="10.00" fill="#000000">/src/TrackParam.cxx</text>
</a>
</g>
</g>
<!-- Node4&#45;&gt;Node17 -->
<g id="edge24" class="edge">
<title>Node4&#45;&gt;Node17</title>
<path fill="none" stroke="#191970" d="M716.2707,-373.3379C810.8721,-363.393 959.7678,-345.4516 1087,-320 1091.5362,-319.0926 1096.1722,-318.0961 1100.8408,-317.0381"/>
<polygon fill="#191970" stroke="#191970" points="715.7327,-369.8749 706.1496,-374.3931 716.4587,-376.8372 715.7327,-369.8749"/>
</g>
<!-- Node7 -->
<g id="node4" class="node">
<title>Node7</title>
<g id="a_node4"><a xlink:href="../../d9/da9/Detectors_2MUON_2MCH_2Tracking_2src_2Track_8cxx.html" target="_top" xlink:title="/home/travis/build\l/AliceO2Group/AliceO2\l/Detectors/MUON/MCH/Tracking\l/src/Track.cxx">
<polygon fill="none" stroke="#000000" points="423,-178.5 423,-230.5 593,-230.5 593,-178.5 423,-178.5"/>
<text text-anchor="start" x="431" y="-218.5" font-family="Helvetica,sans-Serif" font-size="10.00" fill="#000000">/home/travis/build</text>
<text text-anchor="start" x="431" y="-207.5" font-family="Helvetica,sans-Serif" font-size="10.00" fill="#000000">/AliceO2Group/AliceO2</text>
<text text-anchor="start" x="431" y="-196.5" font-family="Helvetica,sans-Serif" font-size="10.00" fill="#000000">/Detectors/MUON/MCH/Tracking</text>
<text text-anchor="middle" x="508" y="-185.5" font-family="Helvetica,sans-Serif" font-size="10.00" fill="#000000">/src/Track.cxx</text>
</a>
</g>
</g>
<!-- Node6&#45;&gt;Node7 -->
<g id="edge3" class="edge">
<title>Node6&#45;&gt;Node7</title>
<path fill="none" stroke="#191970" d="M579.5597,-260.8612C566.8766,-250.8718 553.1013,-240.0222 541.0546,-230.5341"/>
<polygon fill="#191970" stroke="#191970" points="577.6859,-263.8406 587.7075,-267.2784 582.0171,-258.3414 577.6859,-263.8406"/>
</g>
<!-- Node6&#45;&gt;Node8 -->
<g id="edge4" class="edge">
<title>Node6&#45;&gt;Node8</title>
<path fill="none" stroke="#191970" d="M525.6675,-281.6699C487.462,-272.8959 445.1979,-257.6146 414,-231 386.7045,-207.7145 371.5924,-168.0349 364.1352,-141.7918"/>
<polygon fill="#191970" stroke="#191970" points="525.2869,-285.1687 535.8018,-283.8696 526.7718,-278.328 525.2869,-285.1687"/>
</g>
<!-- Node6&#45;&gt;Node10 -->
<g id="edge16" class="edge">
<title>Node6&#45;&gt;Node10</title>
<path fill="none" stroke="#191970" d="M525.9639,-279.174C478.8628,-269.6651 422.1299,-254.4868 375,-231 318.4051,-202.7964 307.6486,-187.7518 264,-142 237.3005,-114.014 211.9486,-77.2464 196.2165,-52.7921"/>
<polygon fill="#191970" stroke="#191970" points="525.3746,-282.6251 535.8617,-281.118 526.7237,-275.7563 525.3746,-282.6251"/>
</g>
<!-- Node6&#45;&gt;Node11 -->
<g id="edge7" class="edge">
<title>Node6&#45;&gt;Node11</title>
<path fill="none" stroke="#191970" d="M674.4456,-261.9989C691.9184,-251.7004 711.1187,-240.3837 727.8297,-230.5341"/>
<polygon fill="#191970" stroke="#191970" points="672.326,-259.1855 665.4883,-267.2784 675.8804,-265.2159 672.326,-259.1855"/>
</g>
<!-- Node6&#45;&gt;Node12 -->
<g id="edge14" class="edge">
<title>Node6&#45;&gt;Node12</title>
<path fill="none" stroke="#191970" d="M620.2342,-257.2113C618.5091,-233.6356 613.879,-202.7923 602,-178 595.5788,-164.5984 585.3843,-151.9542 575.4428,-141.5914"/>
<polygon fill="#191970" stroke="#191970" points="616.7572,-257.7068 620.8381,-267.4841 623.7452,-257.296 616.7572,-257.7068"/>
</g>
<!-- Node6&#45;&gt;Node14 -->
<g id="edge15" class="edge">
<title>Node6&#45;&gt;Node14</title>
<path fill="none" stroke="#191970" d="M624.9447,-257.4971C630.9532,-214.6684 645.3596,-142.2769 678,-89 686.3766,-75.3274 698.585,-62.7997 710.3534,-52.6089"/>
<polygon fill="#191970" stroke="#191970" points="621.4685,-257.0877 623.6243,-267.4609 628.4078,-258.0074 621.4685,-257.0877"/>
</g>
<!-- Node6&#45;&gt;Node16 -->
<g id="edge17" class="edge">
<title>Node6&#45;&gt;Node16</title>
<path fill="none" stroke="#191970" d="M716.3195,-283.5331C764.1582,-275.107 821.2824,-259.5819 866,-231 901.2901,-208.4438 929.5587,-168.1831 945.5603,-141.6579"/>
<polygon fill="#191970" stroke="#191970" points="715.5407,-280.1148 706.26,-285.2255 716.7022,-287.0178 715.5407,-280.1148"/>
</g>
<!-- Node9 -->
<g id="node6" class="node">
<title>Node9</title>
<g id="a_node6"><a xlink:href="../../d1/d8b/TrackFinder_8cxx.html" target="_top" xlink:title="Implementation of a class to reconstruct tracks. ">
<polygon fill="none" stroke="#000000" points="283,-.5 283,-52.5 453,-52.5 453,-.5 283,-.5"/>
<text text-anchor="start" x="291" y="-40.5" font-family="Helvetica,sans-Serif" font-size="10.00" fill="#000000">/home/travis/build</text>
<text text-anchor="start" x="291" y="-29.5" font-family="Helvetica,sans-Serif" font-size="10.00" fill="#000000">/AliceO2Group/AliceO2</text>
<text text-anchor="start" x="291" y="-18.5" font-family="Helvetica,sans-Serif" font-size="10.00" fill="#000000">/Detectors/MUON/MCH/Tracking</text>
<text text-anchor="middle" x="368" y="-7.5" font-family="Helvetica,sans-Serif" font-size="10.00" fill="#000000">/src/TrackFinder.cxx</text>
</a>
</g>
</g>
<!-- Node8&#45;&gt;Node9 -->
<g id="edge5" class="edge">
<title>Node8&#45;&gt;Node9</title>
<path fill="none" stroke="#191970" d="M362.0881,-79.1155C363.0892,-70.2061 364.1407,-60.8475 365.0748,-52.5341"/>
<polygon fill="#191970" stroke="#191970" points="358.5848,-78.9501 360.9462,-89.2784 365.541,-79.7318 358.5848,-78.9501"/>
</g>
<!-- Node8&#45;&gt;Node10 -->
<g id="edge6" class="edge">
<title>Node8&#45;&gt;Node10</title>
<path fill="none" stroke="#191970" d="M296.4118,-84.7059C275.4406,-74.2203 252.2192,-62.6096 232.0683,-52.5341"/>
<polygon fill="#191970" stroke="#191970" points="295.0473,-87.9367 305.5569,-89.2784 298.1779,-81.6757 295.0473,-87.9367"/>
</g>
<!-- Node11&#45;&gt;Node8 -->
<g id="edge8" class="edge">
<title>Node11&#45;&gt;Node8</title>
<path fill="none" stroke="#191970" d="M676.6447,-187.9884C612.7882,-176.4137 527.0053,-159.8656 452,-142 449.1135,-141.3125 446.1824,-140.5951 443.2263,-139.8552"/>
<polygon fill="#191970" stroke="#191970" points="676.2374,-191.4714 686.7001,-189.8028 677.4805,-184.5826 676.2374,-191.4714"/>
</g>
<!-- Node11&#45;&gt;Node12 -->
<g id="edge9" class="edge">
<title>Node11&#45;&gt;Node12</title>
<path fill="none" stroke="#191970" d="M696.2467,-174.6679C669.0491,-163.9574 638.6102,-151.9704 612.2792,-141.6011"/>
<polygon fill="#191970" stroke="#191970" points="695.1326,-177.9908 705.7196,-178.3984 697.6976,-171.4776 695.1326,-177.9908"/>
</g>
<!-- Node15 -->
<g id="node12" class="node">
<title>Node15</title>
<g id="a_node12"><a xlink:href="../../d9/d47/TrackFitter_8cxx.html" target="_top" xlink:title="Implementation of a class to fit a track to a set of clusters. ">
<polygon fill="none" stroke="#000000" points="687,-89.5 687,-141.5 857,-141.5 857,-89.5 687,-89.5"/>
<text text-anchor="start" x="695" y="-129.5" font-family="Helvetica,sans-Serif" font-size="10.00" fill="#000000">/home/travis/build</text>
<text text-anchor="start" x="695" y="-118.5" font-family="Helvetica,sans-Serif" font-size="10.00" fill="#000000">/AliceO2Group/AliceO2</text>
<text text-anchor="start" x="695" y="-107.5" font-family="Helvetica,sans-Serif" font-size="10.00" fill="#000000">/Detectors/MUON/MCH/Tracking</text>
<text text-anchor="middle" x="772" y="-96.5" font-family="Helvetica,sans-Serif" font-size="10.00" fill="#000000">/src/TrackFitter.cxx</text>
</a>
</g>
</g>
<!-- Node11&#45;&gt;Node15 -->
<g id="edge12" class="edge">
<title>Node11&#45;&gt;Node15</title>
<path fill="none" stroke="#191970" d="M772,-168.1155C772,-159.2061 772,-149.8475 772,-141.5341"/>
<polygon fill="#191970" stroke="#191970" points="768.5001,-168.2784 772,-178.2784 775.5001,-168.2785 768.5001,-168.2784"/>
</g>
<!-- Node11&#45;&gt;Node16 -->
<g id="edge13" class="edge">
<title>Node11&#45;&gt;Node16</title>
<path fill="none" stroke="#191970" d="M836.204,-174.1055C858.5241,-163.5391 883.344,-151.7893 904.8651,-141.6011"/>
<polygon fill="#191970" stroke="#191970" points="834.6767,-170.9561 827.1359,-178.3984 837.6719,-177.283 834.6767,-170.9561"/>
</g>
<!-- Node13 -->
<g id="node10" class="node">
<title>Node13</title>
<g id="a_node10"><a xlink:href="../../d6/d6d/TrackFinderOriginal_8cxx.html" target="_top" xlink:title="Implementation of a class to reconstruct tracks with the original algorithm. ">
<polygon fill="none" stroke="#000000" points="471,-.5 471,-52.5 641,-52.5 641,-.5 471,-.5"/>
<text text-anchor="start" x="479" y="-40.5" font-family="Helvetica,sans-Serif" font-size="10.00" fill="#000000">/home/travis/build</text>
<text text-anchor="start" x="479" y="-29.5" font-family="Helvetica,sans-Serif" font-size="10.00" fill="#000000">/AliceO2Group/AliceO2</text>
<text text-anchor="start" x="479" y="-18.5" font-family="Helvetica,sans-Serif" font-size="10.00" fill="#000000">/Detectors/MUON/MCH/Tracking</text>
<text text-anchor="middle" x="556" y="-7.5" font-family="Helvetica,sans-Serif" font-size="10.00" fill="#000000">/src/TrackFinderOriginal.cxx</text>
</a>
</g>
</g>
<!-- Node12&#45;&gt;Node13 -->
<g id="edge10" class="edge">
<title>Node12&#45;&gt;Node13</title>
<path fill="none" stroke="#191970" d="M550.0881,-79.1155C551.0892,-70.2061 552.1407,-60.8475 553.0748,-52.5341"/>
<polygon fill="#191970" stroke="#191970" points="546.5848,-78.9501 548.9462,-89.2784 553.541,-79.7318 546.5848,-78.9501"/>
</g>
<!-- Node12&#45;&gt;Node14 -->
<g id="edge11" class="edge">
<title>Node12&#45;&gt;Node14</title>
<path fill="none" stroke="#191970" d="M613.9857,-85.2464C637.8121,-74.6436 664.3493,-62.8346 687.3458,-52.6011"/>
<polygon fill="#191970" stroke="#191970" points="612.3685,-82.1351 604.6552,-89.3984 615.2145,-88.5304 612.3685,-82.1351"/>
</g>
</g>
</svg>
