<?xml version="1.0" encoding="UTF-8" standalone="no"?>
<!DOCTYPE svg PUBLIC "-//W3C//DTD SVG 1.1//EN"
 "http://www.w3.org/Graphics/SVG/1.1/DTD/svg11.dtd">
<!-- Generated by graphviz version 2.40.1 (20161225.0304)
 -->
<!-- Title: /home/travis/build/AliceO2Group/AliceO2/DataFormats/Detectors/TOF/include/DataFormatsTOF/CalibInfoTOF.h Pages: 1 -->
<svg width="1044pt" height="261pt"
 viewBox="0.00 0.00 1043.50 261.00" xmlns="http://www.w3.org/2000/svg" xmlns:xlink="http://www.w3.org/1999/xlink">
<g id="graph0" class="graph" transform="scale(1 1) rotate(0) translate(4 257)">
<title>/home/travis/build/AliceO2Group/AliceO2/DataFormats/Detectors/TOF/include/DataFormatsTOF/CalibInfoTOF.h</title>
<!-- Node2 -->
<g id="node1" class="node">
<title>Node2</title>
<polygon fill="#bfbfbf" stroke="#000000" points="390.5,-189.5 390.5,-252.5 551.5,-252.5 551.5,-189.5 390.5,-189.5"/>
<text text-anchor="start" x="398.5" y="-240.5" font-family="Helvetica,sans-Serif" font-size="10.00" fill="#000000">/home/travis/build</text>
<text text-anchor="start" x="398.5" y="-229.5" font-family="Helvetica,sans-Serif" font-size="10.00" fill="#000000">/AliceO2Group/AliceO2</text>
<text text-anchor="start" x="398.5" y="-218.5" font-family="Helvetica,sans-Serif" font-size="10.00" fill="#000000">/DataFormats/Detectors</text>
<text text-anchor="start" x="398.5" y="-207.5" font-family="Helvetica,sans-Serif" font-size="10.00" fill="#000000">/TOF/include/DataFormatsTOF</text>
<text text-anchor="middle" x="471" y="-196.5" font-family="Helvetica,sans-Serif" font-size="10.00" fill="#000000">/CalibInfoTOF.h</text>
</g>
<!-- Node3 -->
<g id="node2" class="node">
<title>Node3</title>
<g id="a_node2"><a xlink:href="../../da/d1f/CalibInfoTOF_8cxx.html" target="_top" xlink:title="Class to store the output of the matching to TOF for calibration. ">
<polygon fill="none" stroke="#000000" points="0,-95 0,-147 140,-147 140,-95 0,-95"/>
<text text-anchor="start" x="8" y="-135" font-family="Helvetica,sans-Serif" font-size="10.00" fill="#000000">/home/travis/build</text>
<text text-anchor="start" x="8" y="-124" font-family="Helvetica,sans-Serif" font-size="10.00" fill="#000000">/AliceO2Group/AliceO2</text>
<text text-anchor="start" x="8" y="-113" font-family="Helvetica,sans-Serif" font-size="10.00" fill="#000000">/DataFormats/Detectors</text>
<text text-anchor="middle" x="70" y="-102" font-family="Helvetica,sans-Serif" font-size="10.00" fill="#000000">/TOF/src/CalibInfoTOF.cxx</text>
</a>
</g>
</g>
<!-- Node2&#45;&gt;Node3 -->
<g id="edge1" class="edge">
<title>Node2&#45;&gt;Node3</title>
<path fill="none" stroke="#191970" d="M380.0399,-206.2243C314.9439,-194.5805 225.6348,-176.4118 149,-153 143.1977,-151.2274 137.2275,-149.2018 131.2922,-147.0497"/>
<polygon fill="#191970" stroke="#191970" points="379.8167,-209.7392 390.2739,-208.0368 381.0375,-202.8464 379.8167,-209.7392"/>
</g>
<!-- Node4 -->
<g id="node3" class="node">
<title>Node4</title>
<g id="a_node3"><a xlink:href="../../d0/d74/MatchTOF_8h.html" target="_top" xlink:title="Class to perform TOF matching to global tracks. ">
<polygon fill="none" stroke="#000000" points="158,-95 158,-147 346,-147 346,-95 158,-95"/>
<text text-anchor="start" x="166" y="-135" font-family="Helvetica,sans-Serif" font-size="10.00" fill="#000000">/home/travis/build</text>
<text text-anchor="start" x="166" y="-124" font-family="Helvetica,sans-Serif" font-size="10.00" fill="#000000">/AliceO2Group/AliceO2</text>
<text text-anchor="start" x="166" y="-113" font-family="Helvetica,sans-Serif" font-size="10.00" fill="#000000">/Detectors/GlobalTracking</text>
<text text-anchor="middle" x="252" y="-102" font-family="Helvetica,sans-Serif" font-size="10.00" fill="#000000">/include/GlobalTracking/MatchTOF.h</text>
</a>
</g>
</g>
<!-- Node2&#45;&gt;Node4 -->
<g id="edge2" class="edge">
<title>Node2&#45;&gt;Node4</title>
<path fill="none" stroke="#191970" d="M392.7825,-185.2843C365.2207,-172.699 334.7725,-158.7957 309.2637,-147.1478"/>
<polygon fill="#191970" stroke="#191970" points="391.4573,-188.5267 402.0076,-189.4966 394.3649,-182.1591 391.4573,-188.5267"/>
</g>
<!-- Node7 -->
<g id="node6" class="node">
<title>Node7</title>
<g id="a_node6"><a xlink:href="../../dc/d9f/TOFCalibWriterSpec_8cxx.html" target="_top" xlink:title="/home/travis/build\l/AliceO2Group/AliceO2\l/Detectors/GlobalTrackingWorkflow\l/tofworkflow/src/TOFCalibWriterSpec.cxx">
<polygon fill="none" stroke="#000000" points="364,-95 364,-147 578,-147 578,-95 364,-95"/>
<text text-anchor="start" x="372" y="-135" font-family="Helvetica,sans-Serif" font-size="10.00" fill="#000000">/home/travis/build</text>
<text text-anchor="start" x="372" y="-124" font-family="Helvetica,sans-Serif" font-size="10.00" fill="#000000">/AliceO2Group/AliceO2</text>
<text text-anchor="start" x="372" y="-113" font-family="Helvetica,sans-Serif" font-size="10.00" fill="#000000">/Detectors/GlobalTrackingWorkflow</text>
<text text-anchor="middle" x="471" y="-102" font-family="Helvetica,sans-Serif" font-size="10.00" fill="#000000">/tofworkflow/src/TOFCalibWriterSpec.cxx</text>
</a>
</g>
</g>
<!-- Node2&#45;&gt;Node7 -->
<g id="edge5" class="edge">
<title>Node2&#45;&gt;Node7</title>
<path fill="none" stroke="#191970" d="M471,-179.1631C471,-168.2863 471,-156.8798 471,-147.078"/>
<polygon fill="#191970" stroke="#191970" points="467.5001,-179.3593 471,-189.3594 474.5001,-179.3594 467.5001,-179.3593"/>
</g>
<!-- Node8 -->
<g id="node7" class="node">
<title>Node8</title>
<g id="a_node7"><a xlink:href="../../d1/dd9/TOFMatchedWriterSpec_8cxx.html" target="_top" xlink:title="/home/travis/build\l/AliceO2Group/AliceO2\l/Detectors/GlobalTrackingWorkflow\l/tofworkflow/src/TOFMatchedWriterSpec.cxx">
<polygon fill="none" stroke="#000000" points="596,-95 596,-147 826,-147 826,-95 596,-95"/>
<text text-anchor="start" x="604" y="-135" font-family="Helvetica,sans-Serif" font-size="10.00" fill="#000000">/home/travis/build</text>
<text text-anchor="start" x="604" y="-124" font-family="Helvetica,sans-Serif" font-size="10.00" fill="#000000">/AliceO2Group/AliceO2</text>
<text text-anchor="start" x="604" y="-113" font-family="Helvetica,sans-Serif" font-size="10.00" fill="#000000">/Detectors/GlobalTrackingWorkflow</text>
<text text-anchor="middle" x="711" y="-102" font-family="Helvetica,sans-Serif" font-size="10.00" fill="#000000">/tofworkflow/src/TOFMatchedWriterSpec.cxx</text>
</a>
</g>
</g>
<!-- Node2&#45;&gt;Node8 -->
<g id="edge6" class="edge">
<title>Node2&#45;&gt;Node8</title>
<path fill="none" stroke="#191970" d="M555.9305,-185.6123C586.3418,-172.9409 620.0473,-158.8969 648.2453,-147.1478"/>
<polygon fill="#191970" stroke="#191970" points="554.4927,-182.4196 546.6081,-189.4966 557.185,-188.8812 554.4927,-182.4196"/>
</g>
<!-- Node9 -->
<g id="node8" class="node">
<title>Node9</title>
<g id="a_node8"><a xlink:href="../../d8/d60/CollectCalibInfoTOF_8h.html" target="_top" xlink:title="/home/travis/build\l/AliceO2Group/AliceO2\l/Detectors/TOF/calibration\l/include/TOFCalibration/CollectCalib\lInfoTOF.h">
<polygon fill="none" stroke="#000000" points="844.5,-89.5 844.5,-152.5 1035.5,-152.5 1035.5,-89.5 844.5,-89.5"/>
<text text-anchor="start" x="852.5" y="-140.5" font-family="Helvetica,sans-Serif" font-size="10.00" fill="#000000">/home/travis/build</text>
<text text-anchor="start" x="852.5" y="-129.5" font-family="Helvetica,sans-Serif" font-size="10.00" fill="#000000">/AliceO2Group/AliceO2</text>
<text text-anchor="start" x="852.5" y="-118.5" font-family="Helvetica,sans-Serif" font-size="10.00" fill="#000000">/Detectors/TOF/calibration</text>
<text text-anchor="start" x="852.5" y="-107.5" font-family="Helvetica,sans-Serif" font-size="10.00" fill="#000000">/include/TOFCalibration/CollectCalib</text>
<text text-anchor="middle" x="940" y="-96.5" font-family="Helvetica,sans-Serif" font-size="10.00" fill="#000000">InfoTOF.h</text>
</a>
</g>
</g>
<!-- Node2&#45;&gt;Node9 -->
<g id="edge7" class="edge">
<title>Node2&#45;&gt;Node9</title>
<path fill="none" stroke="#191970" d="M562.01,-206.8833C636.0053,-194.7155 742.862,-175.5723 835,-153 838.0541,-152.2518 841.1507,-151.4671 844.2716,-150.6537"/>
<polygon fill="#191970" stroke="#191970" points="561.0963,-203.4861 551.792,-208.5535 562.2256,-210.3944 561.0963,-203.4861"/>
</g>
<!-- Node5 -->
<g id="node4" class="node">
<title>Node5</title>
<g id="a_node4"><a xlink:href="../../db/d6a/MatchTOF_8cxx.html" target="_top" xlink:title="/home/travis/build\l/AliceO2Group/AliceO2\l/Detectors/GlobalTracking\l/src/MatchTOF.cxx">
<polygon fill="none" stroke="#000000" points="84,-.5 84,-52.5 226,-52.5 226,-.5 84,-.5"/>
<text text-anchor="start" x="92" y="-40.5" font-family="Helvetica,sans-Serif" font-size="10.00" fill="#000000">/home/travis/build</text>
<text text-anchor="start" x="92" y="-29.5" font-family="Helvetica,sans-Serif" font-size="10.00" fill="#000000">/AliceO2Group/AliceO2</text>
<text text-anchor="start" x="92" y="-18.5" font-family="Helvetica,sans-Serif" font-size="10.00" fill="#000000">/Detectors/GlobalTracking</text>
<text text-anchor="middle" x="155" y="-7.5" font-family="Helvetica,sans-Serif" font-size="10.00" fill="#000000">/src/MatchTOF.cxx</text>
</a>
</g>
</g>
<!-- Node4&#45;&gt;Node5 -->
<g id="edge3" class="edge">
<title>Node4&#45;&gt;Node5</title>
<path fill="none" stroke="#191970" d="M217.7423,-87.6253C206.0203,-76.2054 193.0803,-63.5989 182.0119,-52.8157"/>
<polygon fill="#191970" stroke="#191970" points="215.6324,-90.4561 225.2376,-94.9273 220.5171,-85.4421 215.6324,-90.4561"/>
</g>
<!-- Node6 -->
<g id="node5" class="node">
<title>Node6</title>
<g id="a_node5"><a xlink:href="../../d8/d84/RecoWorkflowSpec_8cxx.html" target="_top" xlink:title="/home/travis/build\l/AliceO2Group/AliceO2\l/Detectors/GlobalTrackingWorkflow\l/tofworkflow/src/RecoWorkflowSpec.cxx">
<polygon fill="none" stroke="#000000" points="244.5,-.5 244.5,-52.5 453.5,-52.5 453.5,-.5 244.5,-.5"/>
<text text-anchor="start" x="252.5" y="-40.5" font-family="Helvetica,sans-Serif" font-size="10.00" fill="#000000">/home/travis/build</text>
<text text-anchor="start" x="252.5" y="-29.5" font-family="Helvetica,sans-Serif" font-size="10.00" fill="#000000">/AliceO2Group/AliceO2</text>
<text text-anchor="start" x="252.5" y="-18.5" font-family="Helvetica,sans-Serif" font-size="10.00" fill="#000000">/Detectors/GlobalTrackingWorkflow</text>
<text text-anchor="middle" x="349" y="-7.5" font-family="Helvetica,sans-Serif" font-size="10.00" fill="#000000">/tofworkflow/src/RecoWorkflowSpec.cxx</text>
</a>
</g>
</g>
<!-- Node4&#45;&gt;Node6 -->
<g id="edge4" class="edge">
<title>Node4&#45;&gt;Node6</title>
<path fill="none" stroke="#191970" d="M286.2577,-87.6253C297.9797,-76.2054 310.9197,-63.5989 321.9881,-52.8157"/>
<polygon fill="#191970" stroke="#191970" points="283.4829,-85.4421 278.7624,-94.9273 288.3676,-90.4561 283.4829,-85.4421"/>
</g>
<!-- Node10 -->
<g id="node9" class="node">
<title>Node10</title>
<g id="a_node9"><a xlink:href="../../d0/dd5/CollectCalibInfoTOF_8cxx.html" target="_top" xlink:title="/home/travis/build\l/AliceO2Group/AliceO2\l/Detectors/TOF/calibration\l/src/CollectCalibInfoTOF.cxx">
<polygon fill="none" stroke="#000000" points="864,-.5 864,-52.5 1016,-52.5 1016,-.5 864,-.5"/>
<text text-anchor="start" x="872" y="-40.5" font-family="Helvetica,sans-Serif" font-size="10.00" fill="#000000">/home/travis/build</text>
<text text-anchor="start" x="872" y="-29.5" font-family="Helvetica,sans-Serif" font-size="10.00" fill="#000000">/AliceO2Group/AliceO2</text>
<text text-anchor="start" x="872" y="-18.5" font-family="Helvetica,sans-Serif" font-size="10.00" fill="#000000">/Detectors/TOF/calibration</text>
<text text-anchor="middle" x="940" y="-7.5" font-family="Helvetica,sans-Serif" font-size="10.00" fill="#000000">/src/CollectCalibInfoTOF.cxx</text>
</a>
</g>
</g>
<!-- Node9&#45;&gt;Node10 -->
<g id="edge8" class="edge">
<title>Node9&#45;&gt;Node10</title>
<path fill="none" stroke="#191970" d="M940,-79.2457C940,-70.2008 940,-60.8836 940,-52.6442"/>
<polygon fill="#191970" stroke="#191970" points="936.5001,-79.2699 940,-89.27 943.5001,-79.27 936.5001,-79.2699"/>
</g>
</g>
</svg>
