<?xml version="1.0" encoding="UTF-8" standalone="no"?>
<!DOCTYPE svg PUBLIC "-//W3C//DTD SVG 1.1//EN"
 "http://www.w3.org/Graphics/SVG/1.1/DTD/svg11.dtd">
<!-- Generated by graphviz version 2.40.1 (20161225.0304)
 -->
<!-- Title: /home/travis/build/AliceO2Group/AliceO2/Detectors/MUON/MCH/Raw/Encoder/Payload/BareElinkEncoderMerger.h Pages: 1 -->
<svg width="472pt" height="184pt"
 viewBox="0.00 0.00 471.50 184.00" xmlns="http://www.w3.org/2000/svg" xmlns:xlink="http://www.w3.org/1999/xlink">
<g id="graph0" class="graph" transform="scale(1 1) rotate(0) translate(4 180)">
<title>/home/travis/build/AliceO2Group/AliceO2/Detectors/MUON/MCH/Raw/Encoder/Payload/BareElinkEncoderMerger.h</title>
<!-- Node0 -->
<g id="node1" class="node">
<title>Node0</title>
<polygon fill="#bfbfbf" stroke="#000000" points="117,-112.5 117,-175.5 305,-175.5 305,-112.5 117,-112.5"/>
<text text-anchor="start" x="125" y="-163.5" font-family="Helvetica,sans-Serif" font-size="10.00" fill="#000000">/home/travis/build</text>
<text text-anchor="start" x="125" y="-152.5" font-family="Helvetica,sans-Serif" font-size="10.00" fill="#000000">/AliceO2Group/AliceO2</text>
<text text-anchor="start" x="125" y="-141.5" font-family="Helvetica,sans-Serif" font-size="10.00" fill="#000000">/Detectors/MUON/MCH/Raw</text>
<text text-anchor="start" x="125" y="-130.5" font-family="Helvetica,sans-Serif" font-size="10.00" fill="#000000">/Encoder/Payload/BareElinkEncoder</text>
<text text-anchor="middle" x="211" y="-119.5" font-family="Helvetica,sans-Serif" font-size="10.00" fill="#000000">Merger.h</text>
</g>
<!-- Node1 -->
<g id="node2" class="node">
<title>Node1</title>
<g id="a_node2"><a xlink:href="../../df/d0f/ElinkEncoder_8h.html" target="_top" xlink:title="ElinkEncoder.h">
<polygon fill="none" stroke="#000000" points="0,-56.5 0,-75.5 88,-75.5 88,-56.5 0,-56.5"/>
<text text-anchor="middle" x="44" y="-63.5" font-family="Helvetica,sans-Serif" font-size="10.00" fill="#000000">ElinkEncoder.h</text>
</a>
</g>
</g>
<!-- Node0&#45;&gt;Node1 -->
<g id="edge1" class="edge">
<title>Node0&#45;&gt;Node1</title>
<path fill="none" stroke="#191970" d="M143.5561,-112.4992C119.2396,-101.1418 93.0352,-88.9027 73.617,-79.8331"/>
<polygon fill="#191970" stroke="#191970" points="74.9395,-76.5879 64.3978,-75.5271 71.9771,-82.9302 74.9395,-76.5879"/>
</g>
<!-- Node4 -->
<g id="node5" class="node">
<title>Node4</title>
<polygon fill="none" stroke="#bfbfbf" points="152.5,-.5 152.5,-19.5 209.5,-19.5 209.5,-.5 152.5,-.5"/>
<text text-anchor="middle" x="181" y="-7.5" font-family="Helvetica,sans-Serif" font-size="10.00" fill="#000000">gsl/span</text>
</g>
<!-- Node0&#45;&gt;Node4 -->
<g id="edge10" class="edge">
<title>Node0&#45;&gt;Node4</title>
<path fill="none" stroke="#191970" d="M231.3425,-112.1829C239.6056,-95.0639 245.4419,-73.8593 237,-56 230.9754,-43.2547 219.4968,-32.8542 208.4926,-25.1874"/>
<polygon fill="#191970" stroke="#191970" points="210.1828,-22.1127 199.8824,-19.6324 206.3879,-27.9948 210.1828,-22.1127"/>
</g>
<!-- Node5 -->
<g id="node6" class="node">
<title>Node5</title>
<g id="a_node6"><a xlink:href="../../da/d93/ElinkEncoderMerger_8h.html" target="_top" xlink:title="ElinkEncoderMerger.h">
<polygon fill="none" stroke="#000000" points="106,-56.5 106,-75.5 228,-75.5 228,-56.5 106,-56.5"/>
<text text-anchor="middle" x="167" y="-63.5" font-family="Helvetica,sans-Serif" font-size="10.00" fill="#000000">ElinkEncoderMerger.h</text>
</a>
</g>
</g>
<!-- Node0&#45;&gt;Node5 -->
<g id="edge5" class="edge">
<title>Node0&#45;&gt;Node5</title>
<path fill="none" stroke="#191970" d="M193.1035,-112.2744C187.7681,-102.8162 182.0988,-92.7661 177.4117,-84.4571"/>
<polygon fill="#191970" stroke="#191970" points="180.4011,-82.6327 172.4394,-75.6426 174.3042,-86.072 180.4011,-82.6327"/>
</g>
<!-- Node6 -->
<g id="node7" class="node">
<title>Node6</title>
<g id="a_node7"><a xlink:href="../../d0/d64/DataFormats_8h.html" target="_top" xlink:title="MCHRawCommon/DataFormats.h">
<polygon fill="none" stroke="#000000" points="284.5,-56.5 284.5,-75.5 463.5,-75.5 463.5,-56.5 284.5,-56.5"/>
<text text-anchor="middle" x="374" y="-63.5" font-family="Helvetica,sans-Serif" font-size="10.00" fill="#000000">MCHRawCommon/DataFormats.h</text>
</a>
</g>
</g>
<!-- Node0&#45;&gt;Node6 -->
<g id="edge9" class="edge">
<title>Node0&#45;&gt;Node6</title>
<path fill="none" stroke="#191970" d="M276.8285,-112.4992C300.4542,-101.1937 325.9057,-89.0144 344.8323,-79.9575"/>
<polygon fill="#191970" stroke="#191970" points="346.5811,-83.0009 354.0907,-75.5271 343.5595,-76.6866 346.5811,-83.0009"/>
</g>
<!-- Node2 -->
<g id="node3" class="node">
<title>Node2</title>
<polygon fill="none" stroke="#bfbfbf" points="87.5,-.5 87.5,-19.5 134.5,-19.5 134.5,-.5 87.5,-.5"/>
<text text-anchor="middle" x="111" y="-7.5" font-family="Helvetica,sans-Serif" font-size="10.00" fill="#000000">vector</text>
</g>
<!-- Node1&#45;&gt;Node2 -->
<g id="edge2" class="edge">
<title>Node1&#45;&gt;Node2</title>
<path fill="none" stroke="#191970" d="M55.6705,-56.2455C65.5661,-47.9746 79.9627,-35.9416 91.5901,-26.2232"/>
<polygon fill="#191970" stroke="#191970" points="94.035,-28.7413 99.4632,-19.6427 89.5458,-23.3703 94.035,-28.7413"/>
</g>
<!-- Node3 -->
<g id="node4" class="node">
<title>Node3</title>
<polygon fill="none" stroke="#bfbfbf" points="19,-.5 19,-19.5 69,-19.5 69,-.5 19,-.5"/>
<text text-anchor="middle" x="44" y="-7.5" font-family="Helvetica,sans-Serif" font-size="10.00" fill="#000000">cstdint</text>
</g>
<!-- Node1&#45;&gt;Node3 -->
<g id="edge3" class="edge">
<title>Node1&#45;&gt;Node3</title>
<path fill="none" stroke="#191970" d="M44,-56.2455C44,-48.9382 44,-38.6944 44,-29.7046"/>
<polygon fill="#191970" stroke="#191970" points="47.5001,-29.6426 44,-19.6427 40.5001,-29.6427 47.5001,-29.6426"/>
</g>
<!-- Node1&#45;&gt;Node4 -->
<g id="edge4" class="edge">
<title>Node1&#45;&gt;Node4</title>
<path fill="none" stroke="#191970" d="M67.5511,-56.3733C89.8391,-47.2629 123.4937,-33.5062 148.3637,-23.3404"/>
<polygon fill="#191970" stroke="#191970" points="149.8239,-26.5247 157.7562,-19.5011 147.1753,-20.0451 149.8239,-26.5247"/>
</g>
<!-- Node5&#45;&gt;Node2 -->
<g id="edge8" class="edge">
<title>Node5&#45;&gt;Node2</title>
<path fill="none" stroke="#191970" d="M157.2455,-56.2455C149.1352,-48.1352 137.4075,-36.4075 127.7919,-26.7919"/>
<polygon fill="#191970" stroke="#191970" points="130.1887,-24.2389 120.6427,-19.6427 125.2389,-29.1887 130.1887,-24.2389"/>
</g>
<!-- Node5&#45;&gt;Node3 -->
<g id="edge7" class="edge">
<title>Node5&#45;&gt;Node3</title>
<path fill="none" stroke="#191970" d="M145.8555,-56.3733C126.1108,-47.3838 96.4302,-33.8706 74.1945,-23.7471"/>
<polygon fill="#191970" stroke="#191970" points="75.42,-20.4594 64.8685,-19.5011 72.5194,-26.8302 75.42,-20.4594"/>
</g>
<!-- Node5&#45;&gt;Node4 -->
<g id="edge6" class="edge">
<title>Node5&#45;&gt;Node4</title>
<path fill="none" stroke="#191970" d="M169.4386,-56.2455C171.2855,-48.8579 173.8828,-38.4689 176.1478,-29.4087"/>
<polygon fill="#191970" stroke="#191970" points="179.5594,-30.193 178.5893,-19.6427 172.7684,-28.4952 179.5594,-30.193"/>
</g>
</g>
</svg>
