<?xml version="1.0" encoding="UTF-8" standalone="no"?>
<!DOCTYPE svg PUBLIC "-//W3C//DTD SVG 1.1//EN"
 "http://www.w3.org/Graphics/SVG/1.1/DTD/svg11.dtd">
<!-- Generated by graphviz version 2.40.1 (20161225.0304)
 -->
<!-- Title: o2::itsmft::BuildTopologyDictionary Pages: 1 -->
<svg width="168pt" height="303pt"
 viewBox="0.00 0.00 167.50 303.00" xmlns="http://www.w3.org/2000/svg" xmlns:xlink="http://www.w3.org/1999/xlink">
<g id="graph0" class="graph" transform="scale(1 1) rotate(0) translate(4 299)">
<title>o2::itsmft::BuildTopologyDictionary</title>
<!-- Node1 -->
<g id="node1" class="node">
<title>Node1</title>
<polygon fill="#bfbfbf" stroke="#000000" points="0,-.5 0,-189.5 155,-189.5 155,-.5 0,-.5"/>
<text text-anchor="start" x="8" y="-177.5" font-family="Helvetica,sans-Serif" font-size="10.00" fill="#000000">o2::itsmft::BuildTopology</text>
<text text-anchor="middle" x="77.5" y="-166.5" font-family="Helvetica,sans-Serif" font-size="10.00" fill="#000000">Dictionary</text>
<polyline fill="none" stroke="#000000" points="0,-159.5 155,-159.5 "/>
<text text-anchor="middle" x="77.5" y="-147.5" font-family="Helvetica,sans-Serif" font-size="10.00" fill="#000000"> </text>
<polyline fill="none" stroke="#000000" points="0,-140.5 155,-140.5 "/>
<text text-anchor="start" x="8" y="-128.5" font-family="Helvetica,sans-Serif" font-size="10.00" fill="#000000">+ BuildTopologyDictionary()</text>
<text text-anchor="start" x="8" y="-117.5" font-family="Helvetica,sans-Serif" font-size="10.00" fill="#000000">+ accountTopology()</text>
<text text-anchor="start" x="8" y="-106.5" font-family="Helvetica,sans-Serif" font-size="10.00" fill="#000000">+ setNGroups()</text>
<text text-anchor="start" x="8" y="-95.5" font-family="Helvetica,sans-Serif" font-size="10.00" fill="#000000">+ setThreshold()</text>
<text text-anchor="start" x="8" y="-84.5" font-family="Helvetica,sans-Serif" font-size="10.00" fill="#000000">+ setThresholdCumulative()</text>
<text text-anchor="start" x="8" y="-73.5" font-family="Helvetica,sans-Serif" font-size="10.00" fill="#000000">+ groupRareTopologies()</text>
<text text-anchor="start" x="8" y="-62.5" font-family="Helvetica,sans-Serif" font-size="10.00" fill="#000000">+ printDictionary()</text>
<text text-anchor="start" x="8" y="-51.5" font-family="Helvetica,sans-Serif" font-size="10.00" fill="#000000">+ printDictionaryBinary()</text>
<text text-anchor="start" x="8" y="-40.5" font-family="Helvetica,sans-Serif" font-size="10.00" fill="#000000">+ saveDictionaryRoot()</text>
<text text-anchor="start" x="8" y="-29.5" font-family="Helvetica,sans-Serif" font-size="10.00" fill="#000000">+ getTotClusters()</text>
<text text-anchor="start" x="8" y="-18.5" font-family="Helvetica,sans-Serif" font-size="10.00" fill="#000000">+ getNotInGroups()</text>
<text text-anchor="start" x="8" y="-7.5" font-family="Helvetica,sans-Serif" font-size="10.00" fill="#000000">+ getNGroups()</text>
</g>
<!-- Node2 -->
<g id="node2" class="node">
<title>Node2</title>
<polygon fill="none" stroke="#bfbfbf" points="22,-237.5 22,-294.5 63,-294.5 63,-237.5 22,-237.5"/>
<text text-anchor="middle" x="42.5" y="-282.5" font-family="Helvetica,sans-Serif" font-size="10.00" fill="#000000">TH1F</text>
<polyline fill="none" stroke="#bfbfbf" points="22,-275.5 63,-275.5 "/>
<text text-anchor="middle" x="42.5" y="-263.5" font-family="Helvetica,sans-Serif" font-size="10.00" fill="#000000"> </text>
<polyline fill="none" stroke="#bfbfbf" points="22,-256.5 63,-256.5 "/>
<text text-anchor="middle" x="42.5" y="-244.5" font-family="Helvetica,sans-Serif" font-size="10.00" fill="#000000"> </text>
</g>
<!-- Node2&#45;&gt;Node1 -->
<g id="edge1" class="edge">
<title>Node2&#45;&gt;Node1</title>
<path fill="none" stroke="#404040" d="M41.4393,-237.2503C41.5074,-227.8774 42.0253,-217.4531 43.5,-208 43.8404,-205.8177 44.2125,-203.6187 44.613,-201.4084"/>
<polygon fill="none" stroke="#404040" points="44.6398,-201.2744 41.9016,-194.6034 47.0063,-189.5101 49.7445,-196.181 44.6398,-201.2744"/>
<text text-anchor="middle" x="67" y="-211" font-family="Helvetica,sans-Serif" font-size="10.00" fill="#000000"> +mHdist</text>
</g>
<!-- Node3 -->
<g id="node3" class="node">
<title>Node3</title>
<polygon fill="none" stroke="#bfbfbf" points="90.5,-237.5 90.5,-294.5 134.5,-294.5 134.5,-237.5 90.5,-237.5"/>
<text text-anchor="middle" x="112.5" y="-282.5" font-family="Helvetica,sans-Serif" font-size="10.00" fill="#000000">static</text>
<polyline fill="none" stroke="#bfbfbf" points="90.5,-275.5 134.5,-275.5 "/>
<text text-anchor="middle" x="112.5" y="-263.5" font-family="Helvetica,sans-Serif" font-size="10.00" fill="#000000"> </text>
<polyline fill="none" stroke="#bfbfbf" points="90.5,-256.5 134.5,-256.5 "/>
<text text-anchor="middle" x="112.5" y="-244.5" font-family="Helvetica,sans-Serif" font-size="10.00" fill="#000000"> </text>
</g>
<!-- Node3&#45;&gt;Node1 -->
<g id="edge2" class="edge">
<title>Node3&#45;&gt;Node1</title>
<path fill="none" stroke="#404040" d="M106.6418,-237.3784C104.541,-227.1146 102.0306,-214.8493 99.3766,-201.8829"/>
<polygon fill="none" stroke="#404040" points="99.313,-201.5715 94.191,-196.4954 96.9066,-189.8152 102.0285,-194.8912 99.313,-201.5715"/>
<text text-anchor="middle" x="130.5" y="-211" font-family="Helvetica,sans-Serif" font-size="10.00" fill="#000000"> +IgnoreVal</text>
</g>
</g>
</svg>
