<?xml version="1.0" encoding="UTF-8" standalone="no"?>
<!DOCTYPE svg PUBLIC "-//W3C//DTD SVG 1.1//EN"
 "http://www.w3.org/Graphics/SVG/1.1/DTD/svg11.dtd">
<!-- Generated by graphviz version 2.40.1 (20161225.0304)
 -->
<!-- Title: o2::its::VertexerStoreConfigurationGPU Pages: 1 -->
<svg width="333pt" height="281pt"
 viewBox="0.00 0.00 333.00 281.00" xmlns="http://www.w3.org/2000/svg" xmlns:xlink="http://www.w3.org/1999/xlink">
<g id="graph0" class="graph" transform="scale(1 1) rotate(0) translate(4 277)">
<title>o2::its::VertexerStoreConfigurationGPU</title>
<!-- Node1 -->
<g id="node1" class="node">
<title>Node1</title>
<polygon fill="#bfbfbf" stroke="#000000" points="0,-.5 0,-57.5 206,-57.5 206,-.5 0,-.5"/>
<text text-anchor="middle" x="103" y="-45.5" font-family="Helvetica,sans-Serif" font-size="10.00" fill="#000000">o2::its::VertexerStoreConfigurationGPU</text>
<polyline fill="none" stroke="#000000" points="0,-38.5 206,-38.5 "/>
<text text-anchor="middle" x="103" y="-26.5" font-family="Helvetica,sans-Serif" font-size="10.00" fill="#000000"> </text>
<polyline fill="none" stroke="#000000" points="0,-19.5 206,-19.5 "/>
<text text-anchor="middle" x="103" y="-7.5" font-family="Helvetica,sans-Serif" font-size="10.00" fill="#000000"> </text>
</g>
<!-- Node2 -->
<g id="node2" class="node">
<title>Node2</title>
<g id="a_node2"><a xlink:href="../../d4/dc3/classfloat.html" target="_top" xlink:title="{float\n||}">
<polygon fill="none" stroke="#000000" points="9,-215.5 9,-272.5 47,-272.5 47,-215.5 9,-215.5"/>
<text text-anchor="middle" x="28" y="-260.5" font-family="Helvetica,sans-Serif" font-size="10.00" fill="#000000">float</text>
<polyline fill="none" stroke="#000000" points="9,-253.5 47,-253.5 "/>
<text text-anchor="middle" x="28" y="-241.5" font-family="Helvetica,sans-Serif" font-size="10.00" fill="#000000"> </text>
<polyline fill="none" stroke="#000000" points="9,-234.5 47,-234.5 "/>
<text text-anchor="middle" x="28" y="-222.5" font-family="Helvetica,sans-Serif" font-size="10.00" fill="#000000"> </text>
</a>
</g>
</g>
<!-- Node2&#45;&gt;Node1 -->
<g id="edge1" class="edge">
<title>Node2&#45;&gt;Node1</title>
<path fill="none" stroke="#404040" d="M20.3384,-215.4772C12.5619,-180.2906 4.7795,-119.7669 29,-76 30.8561,-72.6459 33.0634,-69.4969 35.5346,-66.545"/>
<polygon fill="none" stroke="#404040" points="35.7738,-66.3036 37.155,-59.226 44.2194,-57.7788 42.8382,-64.8564 35.7738,-66.3036"/>
<text text-anchor="middle" x="92.5" y="-156" font-family="Helvetica,sans-Serif" font-size="10.00" fill="#000000"> +highHistBoundariesXYZ</text>
<text text-anchor="middle" x="92.5" y="-145" font-family="Helvetica,sans-Serif" font-size="10.00" fill="#000000">+binSizeHistX</text>
<text text-anchor="middle" x="92.5" y="-134" font-family="Helvetica,sans-Serif" font-size="10.00" fill="#000000">+binSizeHistY</text>
<text text-anchor="middle" x="92.5" y="-123" font-family="Helvetica,sans-Serif" font-size="10.00" fill="#000000">+binSizeHistZ</text>
<text text-anchor="middle" x="92.5" y="-112" font-family="Helvetica,sans-Serif" font-size="10.00" fill="#000000">+lowHistBoundariesXYZ</text>
</g>
<!-- Node3 -->
<g id="node3" class="node">
<title>Node3</title>
<polygon fill="none" stroke="#bfbfbf" points="163.5,-215.5 163.5,-272.5 192.5,-272.5 192.5,-215.5 163.5,-215.5"/>
<text text-anchor="middle" x="178" y="-260.5" font-family="Helvetica,sans-Serif" font-size="10.00" fill="#000000">int</text>
<polyline fill="none" stroke="#bfbfbf" points="163.5,-253.5 192.5,-253.5 "/>
<text text-anchor="middle" x="178" y="-241.5" font-family="Helvetica,sans-Serif" font-size="10.00" fill="#000000"> </text>
<polyline fill="none" stroke="#bfbfbf" points="163.5,-234.5 192.5,-234.5 "/>
<text text-anchor="middle" x="178" y="-222.5" font-family="Helvetica,sans-Serif" font-size="10.00" fill="#000000"> </text>
</g>
<!-- Node3&#45;&gt;Node1 -->
<g id="edge2" class="edge">
<title>Node3&#45;&gt;Node1</title>
<path fill="none" stroke="#404040" d="M180.1311,-215.4319C181.4705,-180.4661 179.5738,-120.4348 156,-76 154.352,-72.8936 152.4109,-69.8947 150.2627,-67.0182"/>
<polygon fill="none" stroke="#404040" points="150.1048,-66.8343 143.1612,-64.8886 142.2866,-57.7307 149.2303,-59.6764 150.1048,-66.8343"/>
<text text-anchor="middle" x="252.5" y="-189" font-family="Helvetica,sans-Serif" font-size="10.00" fill="#000000"> +tmpCUBBufferSize</text>
<text text-anchor="middle" x="252.5" y="-178" font-family="Helvetica,sans-Serif" font-size="10.00" fill="#000000">+dupletsCapacity</text>
<text text-anchor="middle" x="252.5" y="-167" font-family="Helvetica,sans-Serif" font-size="10.00" fill="#000000">+maxTrackletCapacity</text>
<text text-anchor="middle" x="252.5" y="-156" font-family="Helvetica,sans-Serif" font-size="10.00" fill="#000000">+clustersPerLayerCapacity</text>
<text text-anchor="middle" x="252.5" y="-145" font-family="Helvetica,sans-Serif" font-size="10.00" fill="#000000">+nMaxVertices</text>
<text text-anchor="middle" x="252.5" y="-134" font-family="Helvetica,sans-Serif" font-size="10.00" fill="#000000">+binSpanXYZ</text>
<text text-anchor="middle" x="252.5" y="-123" font-family="Helvetica,sans-Serif" font-size="10.00" fill="#000000">+processedTrackletsCapacity</text>
<text text-anchor="middle" x="252.5" y="-112" font-family="Helvetica,sans-Serif" font-size="10.00" fill="#000000">+maxCentroidsXYCapacity</text>
<text text-anchor="middle" x="252.5" y="-101" font-family="Helvetica,sans-Serif" font-size="10.00" fill="#000000">+maxTrackletsPerCluster</text>
<text text-anchor="middle" x="252.5" y="-90" font-family="Helvetica,sans-Serif" font-size="10.00" fill="#000000">+nBinsXYZ</text>
<text text-anchor="middle" x="252.5" y="-79" font-family="Helvetica,sans-Serif" font-size="10.00" fill="#000000">...</text>
</g>
</g>
</svg>
