<?xml version="1.0" encoding="UTF-8" standalone="no"?>
<!DOCTYPE svg PUBLIC "-//W3C//DTD SVG 1.1//EN"
 "http://www.w3.org/Graphics/SVG/1.1/DTD/svg11.dtd">
<!-- Generated by graphviz version 2.40.1 (20161225.0304)
 -->
<!-- Title: /home/travis/build/AliceO2Group/AliceO2/Detectors/TOF/reconstruction/src/DataReader.cxx Pages: 1 -->
<!--zoomable 352 -->
<svg id="main" version="1.1" xmlns="http://www.w3.org/2000/svg" xmlns:xlink="http://www.w3.org/1999/xlink" xml:space="preserve" onload="init(evt)">
<style type="text/css"><![CDATA[
.edge:hover path { stroke: red; }
.edge:hover polygon { stroke: red; fill: red; }
]]></style>
<script type="text/javascript"><![CDATA[
var edges = document.getElementsByTagName('g');
if (edges && edges.length) {
  for (var i=0;i<edges.length;i++) {
    if (edges[i].id.substr(0,4)=='edge') {
      edges[i].setAttribute('class','edge');
    }
  }
}
]]></script>
        <defs>
                <circle id="rim" cx="0" cy="0" r="7"/>
                <circle id="rim2" cx="0" cy="0" r="3.5"/>
                <g id="zoomPlus">
                        <use xlink:href="#rim" fill="#404040">
                                <set attributeName="fill" to="#808080" begin="zoomplus.mouseover" end="zoomplus.mouseout"/>
                        </use>
                        <path d="M-4,0h8M0,-4v8" fill="none" stroke="white" stroke-width="1.5" pointer-events="none"/>
                </g>
                <g id="zoomMin">
                        <use xlink:href="#rim" fill="#404040">
                                <set attributeName="fill" to="#808080" begin="zoomminus.mouseover" end="zoomminus.mouseout"/>
                        </use>
                        <path d="M-4,0h8" fill="none" stroke="white" stroke-width="1.5" pointer-events="none"/>
                </g>
                <g id="dirArrow">
                        <path fill="none" stroke="white" stroke-width="1.5" d="M0,-3.0v7 M-2.5,-0.5L0,-3.0L2.5,-0.5"/>
                </g>
               <g id="resetDef">
                       <use xlink:href="#rim2" fill="#404040">
                               <set attributeName="fill" to="#808080" begin="reset.mouseover" end="reset.mouseout"/>
                       </use>
               </g>
        </defs>

<script type="text/javascript">
var viewWidth = 730;
var viewHeight = 352;
var sectionId = 'dynsection-0';
</script>
<script xlink:href="../../svgpan.js"/>
<svg id="graph" class="graph">
<g id="viewport">
<title>/home/travis/build/AliceO2Group/AliceO2/Detectors/TOF/reconstruction/src/DataReader.cxx</title>
<!-- Node0 -->
<g id="node1" class="node">
<title>Node0</title>
<polygon fill="#bfbfbf" stroke="#000000" points="485.7642,-291.5 485.7642,-343.5 646.7642,-343.5 646.7642,-291.5 485.7642,-291.5"/>
<text text-anchor="start" x="493.7642" y="-331.5" font-family="Helvetica,sans-Serif" font-size="10.00" fill="#000000">/home/travis/build</text>
<text text-anchor="start" x="493.7642" y="-320.5" font-family="Helvetica,sans-Serif" font-size="10.00" fill="#000000">/AliceO2Group/AliceO2</text>
<text text-anchor="start" x="493.7642" y="-309.5" font-family="Helvetica,sans-Serif" font-size="10.00" fill="#000000">/Detectors/TOF/reconstruction</text>
<text text-anchor="middle" x="566.2642" y="-298.5" font-family="Helvetica,sans-Serif" font-size="10.00" fill="#000000">/src/DataReader.cxx</text>
</g>
<!-- Node1 -->
<g id="node2" class="node">
<title>Node1</title>
<g id="a_node2"><a xlink:href="../../da/d07/Detectors_2TOF_2reconstruction_2include_2TOFReconstruction_2DataReader_8h.html" target="_top" xlink:title="TOFReconstruction/DataReader.h">
<polygon fill="none" stroke="#000000" points="307.2642,-235.5 307.2642,-254.5 483.2642,-254.5 483.2642,-235.5 307.2642,-235.5"/>
<text text-anchor="middle" x="395.2642" y="-242.5" font-family="Helvetica,sans-Serif" font-size="10.00" fill="#000000">TOFReconstruction/DataReader.h</text>
</a>
</g>
</g>
<!-- Node0&#45;&gt;Node1 -->
<g id="edge1" class="edge">
<title>Node0&#45;&gt;Node1</title>
<path fill="none" stroke="#191970" d="M504.5293,-291.3258C478.3139,-280.2111 448.8605,-267.7236 427.1449,-258.5167"/>
<polygon fill="#191970" stroke="#191970" points="428.3242,-255.2151 417.7513,-254.534 425.5918,-261.6598 428.3242,-255.2151"/>
</g>
<!-- Node5 -->
<g id="node6" class="node">
<title>Node5</title>
<g id="a_node6"><a xlink:href="../../d4/d54/Geo_8h.html" target="_top" xlink:title="TOFBase/Geo.h">
<polygon fill="none" stroke="#000000" points="516.7642,-118 516.7642,-137 607.7642,-137 607.7642,-118 516.7642,-118"/>
<text text-anchor="middle" x="562.2642" y="-125" font-family="Helvetica,sans-Serif" font-size="10.00" fill="#000000">TOFBase/Geo.h</text>
</a>
</g>
</g>
<!-- Node0&#45;&gt;Node5 -->
<g id="edge13" class="edge">
<title>Node0&#45;&gt;Node5</title>
<path fill="none" stroke="#191970" d="M560.6405,-291.4824C558.4978,-280.3105 556.3185,-267.0733 555.2642,-255 551.936,-216.8884 556.2758,-172.2212 559.4579,-147.1552"/>
<polygon fill="#191970" stroke="#191970" points="562.9445,-147.4885 560.8068,-137.1116 556.0068,-146.5567 562.9445,-147.4885"/>
</g>
<!-- Node11 -->
<g id="node12" class="node">
<title>Node11</title>
<polygon fill="none" stroke="#bfbfbf" points="564.2642,-235.5 564.2642,-254.5 628.2642,-254.5 628.2642,-235.5 564.2642,-235.5"/>
<text text-anchor="middle" x="596.2642" y="-242.5" font-family="Helvetica,sans-Serif" font-size="10.00" fill="#000000">algorithm</text>
</g>
<!-- Node0&#45;&gt;Node11 -->
<g id="edge14" class="edge">
<title>Node0&#45;&gt;Node11</title>
<path fill="none" stroke="#191970" d="M577.0949,-291.3258C580.8654,-282.2138 585.0177,-272.179 588.4908,-263.7857"/>
<polygon fill="#191970" stroke="#191970" points="591.7296,-265.1124 592.3191,-254.534 585.2615,-262.4359 591.7296,-265.1124"/>
</g>
<!-- Node12 -->
<g id="node13" class="node">
<title>Node12</title>
<polygon fill="none" stroke="#bfbfbf" points="646.7642,-235.5 646.7642,-254.5 721.7642,-254.5 721.7642,-235.5 646.7642,-235.5"/>
<text text-anchor="middle" x="684.2642" y="-242.5" font-family="Helvetica,sans-Serif" font-size="10.00" fill="#000000">FairLogger.h</text>
</g>
<!-- Node0&#45;&gt;Node12 -->
<g id="edge15" class="edge">
<title>Node0&#45;&gt;Node12</title>
<path fill="none" stroke="#191970" d="M608.8649,-291.3258C626.1402,-280.7118 645.4531,-268.8458 660.2079,-259.7804"/>
<polygon fill="#191970" stroke="#191970" points="662.0587,-262.7511 668.7468,-254.534 658.3942,-256.7869 662.0587,-262.7511"/>
</g>
<!-- Node2 -->
<g id="node3" class="node">
<title>Node2</title>
<g id="a_node3"><a xlink:href="../../d1/d90/Detectors_2TOF_2base_2include_2TOFBase_2Digit_8h.html" target="_top" xlink:title="TOFBase/Digit.h">
<polygon fill="none" stroke="#000000" points="297.7642,-179.5 297.7642,-198.5 392.7642,-198.5 392.7642,-179.5 297.7642,-179.5"/>
<text text-anchor="middle" x="345.2642" y="-186.5" font-family="Helvetica,sans-Serif" font-size="10.00" fill="#000000">TOFBase/Digit.h</text>
</a>
</g>
</g>
<!-- Node1&#45;&gt;Node2 -->
<g id="edge2" class="edge">
<title>Node1&#45;&gt;Node2</title>
<path fill="none" stroke="#191970" d="M386.5549,-235.2455C379.4569,-227.2958 369.2558,-215.8706 360.7692,-206.3656"/>
<polygon fill="#191970" stroke="#191970" points="363.1447,-203.771 353.8737,-198.6427 357.9231,-208.4331 363.1447,-203.771"/>
</g>
<!-- Node3 -->
<g id="node4" class="node">
<title>Node3</title>
<polygon fill="none" stroke="#bfbfbf" points="20.7642,-118 20.7642,-137 69.7642,-137 69.7642,-118 20.7642,-118"/>
<text text-anchor="middle" x="45.2642" y="-125" font-family="Helvetica,sans-Serif" font-size="10.00" fill="#000000">iosfwd</text>
</g>
<!-- Node2&#45;&gt;Node3 -->
<g id="edge3" class="edge">
<title>Node2&#45;&gt;Node3</title>
<path fill="none" stroke="#191970" d="M297.3132,-184.4519C243.3761,-178.4802 153.5988,-165.9526 79.2642,-143 77.3582,-142.4115 75.4195,-141.7407 73.4835,-141.0159"/>
<polygon fill="#191970" stroke="#191970" points="74.5671,-137.6761 63.9895,-137.0728 71.8821,-144.1408 74.5671,-137.6761"/>
</g>
<!-- Node4 -->
<g id="node5" class="node">
<title>Node4</title>
<polygon fill="none" stroke="#bfbfbf" points="163.7642,-.5 163.7642,-19.5 222.7642,-19.5 222.7642,-.5 163.7642,-.5"/>
<text text-anchor="middle" x="193.2642" y="-7.5" font-family="Helvetica,sans-Serif" font-size="10.00" fill="#000000">Rtypes.h</text>
</g>
<!-- Node2&#45;&gt;Node4 -->
<g id="edge4" class="edge">
<title>Node2&#45;&gt;Node4</title>
<path fill="none" stroke="#191970" d="M297.5674,-185.8572C209.7683,-179.5838 29.7983,-164.2616 11.2642,-143 -37.6557,-86.8808 86.6302,-40.7234 153.7161,-20.7117"/>
<polygon fill="#191970" stroke="#191970" points="154.9446,-23.9993 163.5642,-17.8387 152.9842,-17.2794 154.9446,-23.9993"/>
</g>
<!-- Node2&#45;&gt;Node5 -->
<g id="edge5" class="edge">
<title>Node2&#45;&gt;Node5</title>
<path fill="none" stroke="#191970" d="M379.3056,-179.441C412.29,-170.1674 463.7221,-155.6776 508.2642,-143 511.8524,-141.9787 515.5739,-140.9166 519.3087,-139.8486"/>
<polygon fill="#191970" stroke="#191970" points="520.4939,-143.15 529.1438,-137.0321 518.5666,-136.4205 520.4939,-143.15"/>
</g>
<!-- Node7 -->
<g id="node8" class="node">
<title>Node7</title>
<g id="a_node8"><a xlink:href="../../de/d64/RangeReference_8h.html" target="_top" xlink:title="Class to refer to the 1st entry and N elements of some group in the continuous container. ">
<polygon fill="none" stroke="#000000" points="88.2642,-118 88.2642,-137 298.2642,-137 298.2642,-118 88.2642,-118"/>
<text text-anchor="middle" x="193.2642" y="-125" font-family="Helvetica,sans-Serif" font-size="10.00" fill="#000000">CommonDataFormat/RangeReference.h</text>
</a>
</g>
</g>
<!-- Node2&#45;&gt;Node7 -->
<g id="edge8" class="edge">
<title>Node2&#45;&gt;Node7</title>
<path fill="none" stroke="#191970" d="M321.5142,-179.3906C295.9703,-169.0554 255.1634,-152.5447 226.4532,-140.9284"/>
<polygon fill="#191970" stroke="#191970" points="227.4302,-137.5481 216.8474,-137.0419 224.8047,-144.0371 227.4302,-137.5481"/>
</g>
<!-- Node9 -->
<g id="node10" class="node">
<title>Node9</title>
<polygon fill="none" stroke="#bfbfbf" points="316.7642,-118 316.7642,-137 373.7642,-137 373.7642,-118 316.7642,-118"/>
<text text-anchor="middle" x="345.2642" y="-125" font-family="Helvetica,sans-Serif" font-size="10.00" fill="#000000">gsl/span</text>
</g>
<!-- Node2&#45;&gt;Node9 -->
<g id="edge11" class="edge">
<title>Node2&#45;&gt;Node9</title>
<path fill="none" stroke="#191970" d="M345.2642,-179.3906C345.2642,-170.8657 345.2642,-158.1392 345.2642,-147.4235"/>
<polygon fill="#191970" stroke="#191970" points="348.7643,-147.2448 345.2642,-137.2449 341.7643,-147.2449 348.7643,-147.2448"/>
</g>
<!-- Node10 -->
<g id="node11" class="node">
<title>Node10</title>
<polygon fill="none" stroke="#bfbfbf" points="391.7642,-112.5 391.7642,-142.5 498.7642,-142.5 498.7642,-112.5 391.7642,-112.5"/>
<text text-anchor="start" x="399.7642" y="-130.5" font-family="Helvetica,sans-Serif" font-size="10.00" fill="#000000">boost/serialization</text>
<text text-anchor="middle" x="445.2642" y="-119.5" font-family="Helvetica,sans-Serif" font-size="10.00" fill="#000000">/base_object.hpp</text>
</g>
<!-- Node2&#45;&gt;Node10 -->
<g id="edge12" class="edge">
<title>Node2&#45;&gt;Node10</title>
<path fill="none" stroke="#191970" d="M360.8892,-179.3906C374.5483,-170.9903 394.841,-158.5103 412.1024,-147.8945"/>
<polygon fill="#191970" stroke="#191970" points="414.1169,-150.7646 420.8015,-142.5446 410.4499,-144.8019 414.1169,-150.7646"/>
</g>
<!-- Node5&#45;&gt;Node4 -->
<g id="edge6" class="edge">
<title>Node5&#45;&gt;Node4</title>
<path fill="none" stroke="#191970" d="M532.38,-117.984C466.1776,-96.9033 307.161,-46.268 232.8217,-22.5962"/>
<polygon fill="#191970" stroke="#191970" points="233.5031,-19.1401 222.9125,-19.4409 231.3791,-25.8101 233.5031,-19.1401"/>
</g>
<!-- Node6 -->
<g id="node7" class="node">
<title>Node6</title>
<g id="a_node7"><a xlink:href="../../d4/dc6/LHCConstants_8h.html" target="_top" xlink:title="Header to collect LHC related constants. ">
<polygon fill="none" stroke="#000000" points="467.2642,-56.5 467.2642,-75.5 657.2642,-75.5 657.2642,-56.5 467.2642,-56.5"/>
<text text-anchor="middle" x="562.2642" y="-63.5" font-family="Helvetica,sans-Serif" font-size="10.00" fill="#000000">CommonConstants/LHCConstants.h</text>
</a>
</g>
</g>
<!-- Node5&#45;&gt;Node6 -->
<g id="edge7" class="edge">
<title>Node5&#45;&gt;Node6</title>
<path fill="none" stroke="#191970" d="M562.2642,-117.8906C562.2642,-109.3657 562.2642,-96.6392 562.2642,-85.9235"/>
<polygon fill="#191970" stroke="#191970" points="565.7643,-85.7448 562.2642,-75.7449 558.7643,-85.7449 565.7643,-85.7448"/>
</g>
<!-- Node8 -->
<g id="node9" class="node">
<title>Node8</title>
<g id="a_node9"><a xlink:href="../../d2/d45/GPUCommonRtypes_8h.html" target="_top" xlink:title="GPUCommonRtypes.h">
<polygon fill="none" stroke="#000000" points="130.7642,-56.5 130.7642,-75.5 255.7642,-75.5 255.7642,-56.5 130.7642,-56.5"/>
<text text-anchor="middle" x="193.2642" y="-63.5" font-family="Helvetica,sans-Serif" font-size="10.00" fill="#000000">GPUCommonRtypes.h</text>
</a>
</g>
</g>
<!-- Node7&#45;&gt;Node8 -->
<g id="edge9" class="edge">
<title>Node7&#45;&gt;Node8</title>
<path fill="none" stroke="#191970" d="M193.2642,-117.8906C193.2642,-109.3657 193.2642,-96.6392 193.2642,-85.9235"/>
<polygon fill="#191970" stroke="#191970" points="196.7643,-85.7448 193.2642,-75.7449 189.7643,-85.7449 196.7643,-85.7448"/>
</g>
<!-- Node8&#45;&gt;Node4 -->
<g id="edge10" class="edge">
<title>Node8&#45;&gt;Node4</title>
<path fill="none" stroke="#191970" d="M193.2642,-56.2455C193.2642,-48.9382 193.2642,-38.6944 193.2642,-29.7046"/>
<polygon fill="#191970" stroke="#191970" points="196.7643,-29.6426 193.2642,-19.6427 189.7643,-29.6427 196.7643,-29.6426"/>
</g>
</g>
</svg>
        <g id="navigator" transform="translate(0 0)" fill="#404254">
                <rect fill="#f2f5e9" fill-opacity="0.5" stroke="#606060" stroke-width=".5" x="0" y="0" width="60" height="60"/>
                <use id="zoomplus" xlink:href="#zoomPlus" x="17" y="9" onmousedown="handleZoom(evt,'in')"/>
                <use id="zoomminus" xlink:href="#zoomMin" x="42" y="9" onmousedown="handleZoom(evt,'out')"/>
                <use id="reset" xlink:href="#resetDef" x="30" y="36" onmousedown="handleReset()"/>
                <g id="arrowUp" xlink:href="#dirArrow" transform="translate(30 24)" onmousedown="handlePan(0,-1)">
                  <use xlink:href="#rim" fill="#404040">
                        <set attributeName="fill" to="#808080" begin="arrowUp.mouseover" end="arrowUp.mouseout"/>
                  </use>
                  <path fill="none" stroke="white" stroke-width="1.5" d="M0,-3.0v7 M-2.5,-0.5L0,-3.0L2.5,-0.5"/>
                </g>
                <g id="arrowRight" xlink:href="#dirArrow" transform="rotate(90) translate(36 -43)" onmousedown="handlePan(1,0)">
                  <use xlink:href="#rim" fill="#404040">
                        <set attributeName="fill" to="#808080" begin="arrowRight.mouseover" end="arrowRight.mouseout"/>
                  </use>
                  <path fill="none" stroke="white" stroke-width="1.5" d="M0,-3.0v7 M-2.5,-0.5L0,-3.0L2.5,-0.5"/>
                </g>
                <g id="arrowDown" xlink:href="#dirArrow" transform="rotate(180) translate(-30 -48)" onmousedown="handlePan(0,1)">
                  <use xlink:href="#rim" fill="#404040">
                        <set attributeName="fill" to="#808080" begin="arrowDown.mouseover" end="arrowDown.mouseout"/>
                  </use>
                  <path fill="none" stroke="white" stroke-width="1.5" d="M0,-3.0v7 M-2.5,-0.5L0,-3.0L2.5,-0.5"/>
                </g>
                <g id="arrowLeft" xlink:href="#dirArrow" transform="rotate(270) translate(-36 17)" onmousedown="handlePan(-1,0)">
                  <use xlink:href="#rim" fill="#404040">
                        <set attributeName="fill" to="#808080" begin="arrowLeft.mouseover" end="arrowLeft.mouseout"/>
                  </use>
                  <path fill="none" stroke="white" stroke-width="1.5" d="M0,-3.0v7 M-2.5,-0.5L0,-3.0L2.5,-0.5"/>
                </g>
        </g>
        <svg viewBox="0 0 15 15" width="100%" height="30px" preserveAspectRatio="xMaxYMin meet">
         <g id="arrow_out" transform="scale(0.3 0.3)">
          <a xlink:href="DataReader_8cxx__incl_org.svg" target="_base">
           <rect id="button" ry="5" rx="5" y="6" x="6" height="38" width="38"
                fill="#f2f5e9" fill-opacity="0.5" stroke="#606060" stroke-width="1.0"/>
           <path id="arrow"
             d="M 11.500037,31.436501 C 11.940474,20.09759 22.043105,11.32322 32.158766,21.979434 L 37.068811,17.246167 C 37.068811,17.246167 37.088388,32 37.088388,32 L 22.160133,31.978069 C 22.160133,31.978069 26.997745,27.140456 26.997745,27.140456 C 18.528582,18.264221 13.291696,25.230495 11.500037,31.436501 z"
             style="fill:#404040;"/>
          </a>
         </g>
        </svg>
</svg>
