<?xml version="1.0" encoding="UTF-8" standalone="no"?>
<!DOCTYPE svg PUBLIC "-//W3C//DTD SVG 1.1//EN"
 "http://www.w3.org/Graphics/SVG/1.1/DTD/svg11.dtd">
<!-- Generated by graphviz version 2.40.1 (20161225.0304)
 -->
<!-- Title: /home/travis/build/AliceO2Group/AliceO2/Detectors/TOF/calibration/include/TOFCalibration/CalibTOF.h Pages: 1 -->
<svg width="1556pt" height="307pt"
 viewBox="0.00 0.00 1555.50 307.00" xmlns="http://www.w3.org/2000/svg" xmlns:xlink="http://www.w3.org/1999/xlink">
<g id="graph0" class="graph" transform="scale(1 1) rotate(0) translate(4 303)">
<title>/home/travis/build/AliceO2Group/AliceO2/Detectors/TOF/calibration/include/TOFCalibration/CalibTOF.h</title>
<!-- Node0 -->
<g id="node1" class="node">
<title>Node0</title>
<polygon fill="#bfbfbf" stroke="#000000" points="770,-246.5 770,-298.5 954,-298.5 954,-246.5 770,-246.5"/>
<text text-anchor="start" x="778" y="-286.5" font-family="Helvetica,sans-Serif" font-size="10.00" fill="#000000">/home/travis/build</text>
<text text-anchor="start" x="778" y="-275.5" font-family="Helvetica,sans-Serif" font-size="10.00" fill="#000000">/AliceO2Group/AliceO2</text>
<text text-anchor="start" x="778" y="-264.5" font-family="Helvetica,sans-Serif" font-size="10.00" fill="#000000">/Detectors/TOF/calibration</text>
<text text-anchor="middle" x="862" y="-253.5" font-family="Helvetica,sans-Serif" font-size="10.00" fill="#000000">/include/TOFCalibration/CalibTOF.h</text>
</g>
<!-- Node1 -->
<g id="node2" class="node">
<title>Node1</title>
<polygon fill="none" stroke="#bfbfbf" points="278.5,-56.5 278.5,-75.5 337.5,-75.5 337.5,-56.5 278.5,-56.5"/>
<text text-anchor="middle" x="308" y="-63.5" font-family="Helvetica,sans-Serif" font-size="10.00" fill="#000000">Rtypes.h</text>
</g>
<!-- Node0&#45;&gt;Node1 -->
<g id="edge1" class="edge">
<title>Node0&#45;&gt;Node1</title>
<path fill="none" stroke="#191970" d="M769.7308,-266.903C618.8369,-255.4925 330.4537,-223.4462 275,-143 262.0663,-124.2372 277.3274,-99.5968 291.1147,-83.3025"/>
<polygon fill="#191970" stroke="#191970" points="293.9434,-85.3915 298.033,-75.6178 288.7411,-80.7079 293.9434,-85.3915"/>
</g>
<!-- Node2 -->
<g id="node3" class="node">
<title>Node2</title>
<polygon fill="none" stroke="#bfbfbf" points="801,-185 801,-204 843,-204 843,-185 801,-185"/>
<text text-anchor="middle" x="822" y="-192" font-family="Helvetica,sans-Serif" font-size="10.00" fill="#000000">array</text>
</g>
<!-- Node0&#45;&gt;Node2 -->
<g id="edge2" class="edge">
<title>Node0&#45;&gt;Node2</title>
<path fill="none" stroke="#191970" d="M848.4578,-246.0928C842.8823,-235.2205 836.5567,-222.8856 831.4889,-213.0034"/>
<polygon fill="#191970" stroke="#191970" points="834.5924,-211.3849 826.9148,-204.0839 828.3637,-214.5792 834.5924,-211.3849"/>
</g>
<!-- Node3 -->
<g id="node4" class="node">
<title>Node3</title>
<polygon fill="none" stroke="#bfbfbf" points="495.5,-56.5 495.5,-75.5 542.5,-75.5 542.5,-56.5 495.5,-56.5"/>
<text text-anchor="middle" x="519" y="-63.5" font-family="Helvetica,sans-Serif" font-size="10.00" fill="#000000">vector</text>
</g>
<!-- Node0&#45;&gt;Node3 -->
<g id="edge3" class="edge">
<title>Node0&#45;&gt;Node3</title>
<path fill="none" stroke="#191970" d="M805.2261,-246.3914C788.7329,-236.749 771.7495,-224.553 759,-210 727.6572,-174.2236 752.8023,-142.1316 716,-112 660.3059,-66.4009 626.4169,-92.821 552.4178,-76.0577"/>
<polygon fill="#191970" stroke="#191970" points="553.2453,-72.657 542.6981,-73.6608 551.5692,-79.4534 553.2453,-72.657"/>
</g>
<!-- Node4 -->
<g id="node5" class="node">
<title>Node4</title>
<polygon fill="none" stroke="#bfbfbf" points="883,-.5 883,-19.5 927,-19.5 927,-.5 883,-.5"/>
<text text-anchor="middle" x="905" y="-7.5" font-family="Helvetica,sans-Serif" font-size="10.00" fill="#000000">string</text>
</g>
<!-- Node0&#45;&gt;Node4 -->
<g id="edge4" class="edge">
<title>Node0&#45;&gt;Node4</title>
<path fill="none" stroke="#191970" d="M821.5501,-246.4028C797.4802,-227.5937 774.7066,-201.6414 792,-179 828.9109,-130.6744 887.0891,-191.3256 924,-143 949.7232,-109.3219 929.3638,-56.4558 915.3762,-28.6014"/>
<polygon fill="#191970" stroke="#191970" points="918.3665,-26.7682 910.6084,-19.5527 912.1736,-30.0313 918.3665,-26.7682"/>
</g>
<!-- Node5 -->
<g id="node6" class="node">
<title>Node5</title>
<polygon fill="none" stroke="#bfbfbf" points="861.5,-185 861.5,-204 944.5,-204 944.5,-185 861.5,-185"/>
<text text-anchor="middle" x="903" y="-192" font-family="Helvetica,sans-Serif" font-size="10.00" fill="#000000">TStopwatch.h</text>
</g>
<!-- Node0&#45;&gt;Node5 -->
<g id="edge5" class="edge">
<title>Node0&#45;&gt;Node5</title>
<path fill="none" stroke="#191970" d="M875.8807,-246.0928C881.5956,-235.2205 888.0794,-222.8856 893.2738,-213.0034"/>
<polygon fill="#191970" stroke="#191970" points="896.4076,-214.564 897.9623,-204.0839 890.2114,-211.307 896.4076,-214.564"/>
</g>
<!-- Node6 -->
<g id="node7" class="node">
<title>Node6</title>
<g id="a_node7"><a xlink:href="../../d4/d78/CalibInfoTOFshort_8h.html" target="_top" xlink:title="Class to store the output of the matching to TOF for calibration (no channel info, available in CalibInfoTOF.h) ">
<polygon fill="none" stroke="#000000" points="962.5,-179.5 962.5,-209.5 1107.5,-209.5 1107.5,-179.5 962.5,-179.5"/>
<text text-anchor="start" x="970.5" y="-197.5" font-family="Helvetica,sans-Serif" font-size="10.00" fill="#000000">DataFormatsTOF/CalibInfo</text>
<text text-anchor="middle" x="1035" y="-186.5" font-family="Helvetica,sans-Serif" font-size="10.00" fill="#000000">TOFshort.h</text>
</a>
</g>
</g>
<!-- Node0&#45;&gt;Node6 -->
<g id="edge6" class="edge">
<title>Node0&#45;&gt;Node6</title>
<path fill="none" stroke="#191970" d="M920.0878,-246.3101C943.6878,-235.6697 970.462,-223.5981 992.2256,-213.7856"/>
<polygon fill="#191970" stroke="#191970" points="993.8541,-216.8907 1001.5317,-209.5897 990.9769,-210.5093 993.8541,-216.8907"/>
</g>
<!-- Node7 -->
<g id="node8" class="node">
<title>Node7</title>
<g id="a_node8"><a xlink:href="../../d8/de0/CalibLHCphaseTOF_8h.html" target="_top" xlink:title="Class to store the output of the matching to TOF for calibration. ">
<polygon fill="none" stroke="#000000" points="453.5,-112.5 453.5,-142.5 628.5,-142.5 628.5,-112.5 453.5,-112.5"/>
<text text-anchor="start" x="461.5" y="-130.5" font-family="Helvetica,sans-Serif" font-size="10.00" fill="#000000">DataFormatsTOF/CalibLHCphase</text>
<text text-anchor="middle" x="541" y="-119.5" font-family="Helvetica,sans-Serif" font-size="10.00" fill="#000000">TOF.h</text>
</a>
</g>
</g>
<!-- Node0&#45;&gt;Node7 -->
<g id="edge7" class="edge">
<title>Node0&#45;&gt;Node7</title>
<path fill="none" stroke="#191970" d="M769.9497,-267.3601C685.3035,-260.481 568.7108,-244.8194 540,-210 527.0501,-194.2948 528.7857,-170.6034 532.8931,-152.6319"/>
<polygon fill="#191970" stroke="#191970" points="536.3161,-153.3779 535.4924,-142.8152 529.5493,-151.5861 536.3161,-153.3779"/>
</g>
<!-- Node8 -->
<g id="node9" class="node">
<title>Node8</title>
<g id="a_node9"><a xlink:href="../../d3/d81/CalibTimeSlewingParamTOF_8h.html" target="_top" xlink:title="Class to store the output of the matching to TOF for calibration. ">
<polygon fill="none" stroke="#000000" points="284.5,-112.5 284.5,-142.5 435.5,-142.5 435.5,-112.5 284.5,-112.5"/>
<text text-anchor="start" x="292.5" y="-130.5" font-family="Helvetica,sans-Serif" font-size="10.00" fill="#000000">DataFormatsTOF/CalibTime</text>
<text text-anchor="middle" x="360" y="-119.5" font-family="Helvetica,sans-Serif" font-size="10.00" fill="#000000">SlewingParamTOF.h</text>
</a>
</g>
</g>
<!-- Node0&#45;&gt;Node8 -->
<g id="edge10" class="edge">
<title>Node0&#45;&gt;Node8</title>
<path fill="none" stroke="#191970" d="M769.7801,-262.4815C701.0416,-253.3251 605.5364,-237.0032 525,-210 477.1208,-193.9465 425.627,-166.3713 393.1346,-147.5573"/>
<polygon fill="#191970" stroke="#191970" points="394.8913,-144.5301 384.4928,-142.5 391.3557,-150.5716 394.8913,-144.5301"/>
</g>
<!-- Node9 -->
<g id="node10" class="node">
<title>Node9</title>
<g id="a_node10"><a xlink:href="../../d4/d54/Geo_8h.html" target="_top" xlink:title="TOFBase/Geo.h">
<polygon fill="none" stroke="#000000" points="136.5,-185 136.5,-204 227.5,-204 227.5,-185 136.5,-185"/>
<text text-anchor="middle" x="182" y="-192" font-family="Helvetica,sans-Serif" font-size="10.00" fill="#000000">TOFBase/Geo.h</text>
</a>
</g>
</g>
<!-- Node0&#45;&gt;Node9 -->
<g id="edge13" class="edge">
<title>Node0&#45;&gt;Node9</title>
<path fill="none" stroke="#191970" d="M769.7406,-267.6001C648.0877,-260.1369 427.7113,-243.1489 242,-210 236.5058,-209.0193 230.7745,-207.7996 225.1279,-206.478"/>
<polygon fill="#191970" stroke="#191970" points="225.6713,-203.0075 215.1249,-204.0188 224.0001,-209.8051 225.6713,-203.0075"/>
</g>
<!-- Node11 -->
<g id="node12" class="node">
<title>Node11</title>
<polygon fill="none" stroke="#bfbfbf" points="1125.5,-185 1125.5,-204 1174.5,-204 1174.5,-185 1125.5,-185"/>
<text text-anchor="middle" x="1150" y="-192" font-family="Helvetica,sans-Serif" font-size="10.00" fill="#000000">TH1F.h</text>
</g>
<!-- Node0&#45;&gt;Node11 -->
<g id="edge16" class="edge">
<title>Node0&#45;&gt;Node11</title>
<path fill="none" stroke="#191970" d="M954.1639,-254.5482C1003.208,-243.8409 1064.1397,-228.683 1117,-210 1118.6412,-209.4199 1120.3105,-208.7857 1121.9831,-208.1155"/>
<polygon fill="#191970" stroke="#191970" points="1123.6476,-211.2084 1131.4236,-204.0123 1120.8573,-204.7886 1123.6476,-211.2084"/>
</g>
<!-- Node12 -->
<g id="node13" class="node">
<title>Node12</title>
<polygon fill="none" stroke="#bfbfbf" points="1192.5,-185 1192.5,-204 1245.5,-204 1245.5,-185 1192.5,-185"/>
<text text-anchor="middle" x="1219" y="-192" font-family="Helvetica,sans-Serif" font-size="10.00" fill="#000000">TH1D.h</text>
</g>
<!-- Node0&#45;&gt;Node12 -->
<g id="edge17" class="edge">
<title>Node0&#45;&gt;Node12</title>
<path fill="none" stroke="#191970" d="M954.2737,-260.2384C1019.4047,-250.2229 1108.2101,-233.8027 1184,-210 1185.9021,-209.4026 1187.839,-208.7324 1189.7765,-208.0146"/>
<polygon fill="#191970" stroke="#191970" points="1191.3597,-211.1494 1199.3099,-204.1462 1188.7277,-204.6631 1191.3597,-211.1494"/>
</g>
<!-- Node13 -->
<g id="node14" class="node">
<title>Node13</title>
<polygon fill="none" stroke="#bfbfbf" points="1263.5,-185 1263.5,-204 1312.5,-204 1312.5,-185 1263.5,-185"/>
<text text-anchor="middle" x="1288" y="-192" font-family="Helvetica,sans-Serif" font-size="10.00" fill="#000000">TH2F.h</text>
</g>
<!-- Node0&#45;&gt;Node13 -->
<g id="edge18" class="edge">
<title>Node0&#45;&gt;Node13</title>
<path fill="none" stroke="#191970" d="M954.1868,-265.2222C1034.9011,-257.1186 1154.6294,-240.8738 1255,-210 1256.8604,-209.4278 1258.7499,-208.7694 1260.6348,-208.0537"/>
<polygon fill="#191970" stroke="#191970" points="1262.0285,-211.2645 1269.8639,-204.133 1259.2914,-204.8218 1262.0285,-211.2645"/>
</g>
<!-- Node14 -->
<g id="node15" class="node">
<title>Node14</title>
<polygon fill="none" stroke="#bfbfbf" points="1330.5,-185 1330.5,-204 1373.5,-204 1373.5,-185 1330.5,-185"/>
<text text-anchor="middle" x="1352" y="-192" font-family="Helvetica,sans-Serif" font-size="10.00" fill="#000000">TF1.h</text>
</g>
<!-- Node0&#45;&gt;Node14 -->
<g id="edge19" class="edge">
<title>Node0&#45;&gt;Node14</title>
<path fill="none" stroke="#191970" d="M954.3478,-269.1889C1048.6935,-263.6831 1198.4608,-249.0244 1322,-210 1323.4674,-209.5365 1324.9493,-209.005 1326.4273,-208.4245"/>
<polygon fill="#191970" stroke="#191970" points="1328.2903,-211.4212 1335.9294,-204.0799 1325.3796,-205.0551 1328.2903,-211.4212"/>
</g>
<!-- Node15 -->
<g id="node16" class="node">
<title>Node15</title>
<polygon fill="none" stroke="#bfbfbf" points="1392,-185 1392,-204 1440,-204 1440,-185 1392,-185"/>
<text text-anchor="middle" x="1416" y="-192" font-family="Helvetica,sans-Serif" font-size="10.00" fill="#000000">TFile.h</text>
</g>
<!-- Node0&#45;&gt;Node15 -->
<g id="edge20" class="edge">
<title>Node0&#45;&gt;Node15</title>
<path fill="none" stroke="#191970" d="M954.0443,-265.015C1081.4436,-254.0459 1304.6788,-232.4582 1383,-210 1384.9166,-209.4504 1386.8612,-208.8014 1388.7978,-208.0858"/>
<polygon fill="#191970" stroke="#191970" points="1390.3922,-211.2121 1398.2488,-204.104 1387.6744,-204.7612 1390.3922,-211.2121"/>
</g>
<!-- Node16 -->
<g id="node17" class="node">
<title>Node16</title>
<polygon fill="none" stroke="#bfbfbf" points="1458.5,-185 1458.5,-204 1547.5,-204 1547.5,-185 1458.5,-185"/>
<text text-anchor="middle" x="1503" y="-192" font-family="Helvetica,sans-Serif" font-size="10.00" fill="#000000">TGraphErrors.h</text>
</g>
<!-- Node0&#45;&gt;Node16 -->
<g id="edge21" class="edge">
<title>Node0&#45;&gt;Node16</title>
<path fill="none" stroke="#191970" d="M954.2432,-267.638C1070.4813,-260.3786 1275.9905,-243.7754 1449,-210 1453.7176,-209.079 1458.62,-207.9382 1463.4613,-206.6964"/>
<polygon fill="#191970" stroke="#191970" points="1464.5002,-210.0411 1473.2339,-204.0434 1462.6662,-203.2856 1464.5002,-210.0411"/>
</g>
<!-- Node17 -->
<g id="node18" class="node">
<title>Node17</title>
<g id="a_node18"><a xlink:href="../../d7/d65/CalibTOFapi_8h.html" target="_top" xlink:title="Class to use TOF calibration (decalibration, calibration) ">
<polygon fill="none" stroke="#000000" points="549,-185 549,-204 707,-204 707,-185 549,-185"/>
<text text-anchor="middle" x="628" y="-192" font-family="Helvetica,sans-Serif" font-size="10.00" fill="#000000">TOFCalibration/CalibTOFapi.h</text>
</a>
</g>
</g>
<!-- Node0&#45;&gt;Node17 -->
<g id="edge22" class="edge">
<title>Node0&#45;&gt;Node17</title>
<path fill="none" stroke="#191970" d="M783.7561,-246.4187C744.3131,-233.271 698.2453,-217.9151 666.4959,-207.332"/>
<polygon fill="#191970" stroke="#191970" points="667.3109,-203.9144 656.7173,-204.0724 665.0973,-210.5552 667.3109,-203.9144"/>
</g>
<!-- Node7&#45;&gt;Node1 -->
<g id="edge9" class="edge">
<title>Node7&#45;&gt;Node1</title>
<path fill="none" stroke="#191970" d="M484.0018,-112.4554C441.7623,-101.3063 385.2576,-86.392 347.797,-76.5044"/>
<polygon fill="#191970" stroke="#191970" points="348.326,-73.0242 337.7639,-73.8561 346.5395,-79.7924 348.326,-73.0242"/>
</g>
<!-- Node7&#45;&gt;Node3 -->
<g id="edge8" class="edge">
<title>Node7&#45;&gt;Node3</title>
<path fill="none" stroke="#191970" d="M535.5618,-112.2977C532.667,-104.2055 529.0749,-94.1639 525.9766,-85.5029"/>
<polygon fill="#191970" stroke="#191970" points="529.1862,-84.0837 522.5225,-75.8469 522.5953,-86.4415 529.1862,-84.0837"/>
</g>
<!-- Node8&#45;&gt;Node1 -->
<g id="edge12" class="edge">
<title>Node8&#45;&gt;Node1</title>
<path fill="none" stroke="#191970" d="M347.1461,-112.2977C339.7776,-103.5831 330.4974,-92.6075 322.8223,-83.5302"/>
<polygon fill="#191970" stroke="#191970" points="325.4552,-81.2233 316.3259,-75.8469 320.1098,-85.743 325.4552,-81.2233"/>
</g>
<!-- Node8&#45;&gt;Node3 -->
<g id="edge11" class="edge">
<title>Node8&#45;&gt;Node3</title>
<path fill="none" stroke="#191970" d="M398.8958,-112.4554C425.5173,-102.1584 460.4423,-88.6497 485.7638,-78.8555"/>
<polygon fill="#191970" stroke="#191970" points="487.2341,-82.0396 495.2981,-75.1677 484.7088,-75.5109 487.2341,-82.0396"/>
</g>
<!-- Node9&#45;&gt;Node1 -->
<g id="edge14" class="edge">
<title>Node9&#45;&gt;Node1</title>
<path fill="none" stroke="#191970" d="M187.572,-184.8029C197.2348,-168.517 218.3477,-135.1815 242,-112 254.0399,-100.1998 269.3987,-89.3009 282.27,-81.0766"/>
<polygon fill="#191970" stroke="#191970" points="284.4674,-83.8323 291.1197,-75.5862 280.7771,-77.884 284.4674,-83.8323"/>
</g>
<!-- Node10 -->
<g id="node11" class="node">
<title>Node10</title>
<g id="a_node11"><a xlink:href="../../d4/dc6/LHCConstants_8h.html" target="_top" xlink:title="Header to collect LHC related constants. ">
<polygon fill="none" stroke="#000000" points="0,-118 0,-137 190,-137 190,-118 0,-118"/>
<text text-anchor="middle" x="95" y="-125" font-family="Helvetica,sans-Serif" font-size="10.00" fill="#000000">CommonConstants/LHCConstants.h</text>
</a>
</g>
</g>
<!-- Node9&#45;&gt;Node10 -->
<g id="edge15" class="edge">
<title>Node9&#45;&gt;Node10</title>
<path fill="none" stroke="#191970" d="M169.535,-184.9005C155.4513,-174.0544 132.3112,-156.2339 115.5461,-143.3229"/>
<polygon fill="#191970" stroke="#191970" points="117.5003,-140.4102 107.4419,-137.0817 113.2292,-145.9562 117.5003,-140.4102"/>
</g>
<!-- Node17&#45;&gt;Node7 -->
<g id="edge35" class="edge">
<title>Node17&#45;&gt;Node7</title>
<path fill="none" stroke="#191970" d="M615.535,-184.9005C603.4041,-175.5583 584.5542,-161.0417 568.8465,-148.945"/>
<polygon fill="#191970" stroke="#191970" points="570.5643,-145.8503 560.5059,-142.5218 566.2932,-151.3963 570.5643,-145.8503"/>
</g>
<!-- Node17&#45;&gt;Node8 -->
<g id="edge36" class="edge">
<title>Node17&#45;&gt;Node8</title>
<path fill="none" stroke="#191970" d="M589.8867,-184.9717C548.4299,-174.6075 481.2594,-157.8148 430.205,-145.0512"/>
<polygon fill="#191970" stroke="#191970" points="430.7717,-141.5853 420.2214,-142.5553 429.0739,-148.3763 430.7717,-141.5853"/>
</g>
<!-- Node18 -->
<g id="node19" class="node">
<title>Node18</title>
<polygon fill="none" stroke="#bfbfbf" points="647,-118 647,-137 707,-137 707,-118 647,-118"/>
<text text-anchor="middle" x="677" y="-125" font-family="Helvetica,sans-Serif" font-size="10.00" fill="#000000">iostream</text>
</g>
<!-- Node17&#45;&gt;Node18 -->
<g id="edge23" class="edge">
<title>Node17&#45;&gt;Node18</title>
<path fill="none" stroke="#191970" d="M635.0205,-184.9005C642.5161,-174.6515 654.5663,-158.1747 663.8376,-145.4976"/>
<polygon fill="#191970" stroke="#191970" points="666.9144,-147.2195 669.9925,-137.0817 661.2642,-143.0873 666.9144,-147.2195"/>
</g>
<!-- Node19 -->
<g id="node20" class="node">
<title>Node19</title>
<g id="a_node20"><a xlink:href="../../d5/df3/BasicCCDBManager_8h.html" target="_top" xlink:title="CCDB/BasicCCDBManager.h">
<polygon fill="none" stroke="#000000" points="763,-118 763,-137 915,-137 915,-118 763,-118"/>
<text text-anchor="middle" x="839" y="-125" font-family="Helvetica,sans-Serif" font-size="10.00" fill="#000000">CCDB/BasicCCDBManager.h</text>
</a>
</g>
</g>
<!-- Node17&#45;&gt;Node19 -->
<g id="edge24" class="edge">
<title>Node17&#45;&gt;Node19</title>
<path fill="none" stroke="#191970" d="M658.2312,-184.9005C695.2869,-173.134 758.1929,-153.1591 799.1644,-140.1492"/>
<polygon fill="#191970" stroke="#191970" points="800.3532,-143.444 808.8249,-137.0817 798.2346,-136.7723 800.3532,-143.444"/>
</g>
<!-- Node19&#45;&gt;Node4 -->
<g id="edge33" class="edge">
<title>Node19&#45;&gt;Node4</title>
<path fill="none" stroke="#191970" d="M850.2847,-117.9751C860.9482,-108.3967 876.6631,-92.6913 886,-76 894.004,-61.6915 898.8912,-43.7133 901.7007,-30.1354"/>
<polygon fill="#191970" stroke="#191970" points="905.2089,-30.4131 903.5948,-19.9419 898.3267,-29.1342 905.2089,-30.4131"/>
</g>
<!-- Node20 -->
<g id="node21" class="node">
<title>Node20</title>
<g id="a_node21"><a xlink:href="../../dd/d3e/CcdbApi_8h.html" target="_top" xlink:title="CCDB/CcdbApi.h">
<polygon fill="none" stroke="#000000" points="599,-56.5 599,-75.5 695,-75.5 695,-56.5 599,-56.5"/>
<text text-anchor="middle" x="647" y="-63.5" font-family="Helvetica,sans-Serif" font-size="10.00" fill="#000000">CCDB/CcdbApi.h</text>
</a>
</g>
</g>
<!-- Node19&#45;&gt;Node20 -->
<g id="edge25" class="edge">
<title>Node19&#45;&gt;Node20</title>
<path fill="none" stroke="#191970" d="M809,-117.8906C776.0295,-107.3298 722.9283,-90.3208 686.5697,-78.6747"/>
<polygon fill="#191970" stroke="#191970" points="687.3804,-75.2592 676.7893,-75.5419 685.245,-81.9256 687.3804,-75.2592"/>
</g>
<!-- Node22 -->
<g id="node23" class="node">
<title>Node22</title>
<polygon fill="none" stroke="#bfbfbf" points="482,-.5 482,-19.5 520,-19.5 520,-.5 482,-.5"/>
<text text-anchor="middle" x="501" y="-7.5" font-family="Helvetica,sans-Serif" font-size="10.00" fill="#000000">map</text>
</g>
<!-- Node19&#45;&gt;Node22 -->
<g id="edge34" class="edge">
<title>Node19&#45;&gt;Node22</title>
<path fill="none" stroke="#191970" d="M787.0177,-117.988C719.4026,-105.4246 607.7776,-83.9607 590,-76 562.3896,-63.6362 535.1149,-41.5554 518.1832,-26.3623"/>
<polygon fill="#191970" stroke="#191970" points="520.4781,-23.7178 510.746,-19.5299 515.7423,-28.8727 520.4781,-23.7178"/>
</g>
<!-- Node26 -->
<g id="node27" class="node">
<title>Node26</title>
<g id="a_node27"><a xlink:href="../../da/d86/CCDBTimeStampUtils_8h.html" target="_top" xlink:title="CCDB/CCDBTimeStampUtils.h">
<polygon fill="none" stroke="#000000" points="713.5,-56.5 713.5,-75.5 876.5,-75.5 876.5,-56.5 713.5,-56.5"/>
<text text-anchor="middle" x="795" y="-63.5" font-family="Helvetica,sans-Serif" font-size="10.00" fill="#000000">CCDB/CCDBTimeStampUtils.h</text>
</a>
</g>
</g>
<!-- Node19&#45;&gt;Node26 -->
<g id="edge32" class="edge">
<title>Node19&#45;&gt;Node26</title>
<path fill="none" stroke="#191970" d="M832.125,-117.8906C825.6407,-108.8273 815.7586,-95.0149 807.8199,-83.9188"/>
<polygon fill="#191970" stroke="#191970" points="810.6371,-81.8412 801.9719,-75.7449 804.9441,-85.9143 810.6371,-81.8412"/>
</g>
<!-- Node20&#45;&gt;Node4 -->
<g id="edge26" class="edge">
<title>Node20&#45;&gt;Node4</title>
<path fill="none" stroke="#191970" d="M692.7673,-56.4532C736.3285,-47.3086 803.6972,-33.0154 862,-20 865.4714,-19.2251 869.0972,-18.4025 872.7074,-17.575"/>
<polygon fill="#191970" stroke="#191970" points="873.7445,-20.9276 882.6993,-15.2654 872.1679,-14.1074 873.7445,-20.9276"/>
</g>
<!-- Node21 -->
<g id="node22" class="node">
<title>Node21</title>
<polygon fill="none" stroke="#bfbfbf" points="630,-.5 630,-19.5 688,-19.5 688,-.5 630,-.5"/>
<text text-anchor="middle" x="659" y="-7.5" font-family="Helvetica,sans-Serif" font-size="10.00" fill="#000000">memory</text>
</g>
<!-- Node20&#45;&gt;Node21 -->
<g id="edge27" class="edge">
<title>Node20&#45;&gt;Node21</title>
<path fill="none" stroke="#191970" d="M649.0902,-56.2455C650.6561,-48.9382 652.8512,-38.6944 654.7776,-29.7046"/>
<polygon fill="#191970" stroke="#191970" points="658.2607,-30.1541 656.9337,-19.6427 651.416,-28.6873 658.2607,-30.1541"/>
</g>
<!-- Node20&#45;&gt;Node22 -->
<g id="edge28" class="edge">
<title>Node20&#45;&gt;Node22</title>
<path fill="none" stroke="#191970" d="M621.9017,-56.3733C596.3094,-46.557 556.6541,-31.3468 529.7988,-21.0461"/>
<polygon fill="#191970" stroke="#191970" points="530.7791,-17.6736 520.1889,-17.3601 528.2723,-24.2093 530.7791,-17.6736"/>
</g>
<!-- Node23 -->
<g id="node24" class="node">
<title>Node23</title>
<polygon fill="none" stroke="#bfbfbf" points="706.5,-.5 706.5,-19.5 771.5,-19.5 771.5,-.5 706.5,-.5"/>
<text text-anchor="middle" x="739" y="-7.5" font-family="Helvetica,sans-Serif" font-size="10.00" fill="#000000">curl/curl.h</text>
</g>
<!-- Node20&#45;&gt;Node23 -->
<g id="edge29" class="edge">
<title>Node20&#45;&gt;Node23</title>
<path fill="none" stroke="#191970" d="M663.0252,-56.2455C677.1408,-47.6534 697.9263,-35.0014 714.1899,-25.1018"/>
<polygon fill="#191970" stroke="#191970" points="716.4363,-27.8319 723.1585,-19.6427 712.7966,-21.8525 716.4363,-27.8319"/>
</g>
<!-- Node24 -->
<g id="node25" class="node">
<title>Node24</title>
<polygon fill="none" stroke="#bfbfbf" points="789.5,-.5 789.5,-19.5 852.5,-19.5 852.5,-.5 789.5,-.5"/>
<text text-anchor="middle" x="821" y="-7.5" font-family="Helvetica,sans-Serif" font-size="10.00" fill="#000000">TObject.h</text>
</g>
<!-- Node20&#45;&gt;Node24 -->
<g id="edge30" class="edge">
<title>Node20&#45;&gt;Node24</title>
<path fill="none" stroke="#191970" d="M676.9117,-56.3733C705.8452,-47.0613 749.8611,-32.8953 781.6293,-22.671"/>
<polygon fill="#191970" stroke="#191970" points="783.0318,-25.8965 791.4787,-19.5011 780.8872,-19.2331 783.0318,-25.8965"/>
</g>
<!-- Node25 -->
<g id="node26" class="node">
<title>Node25</title>
<polygon fill="none" stroke="#bfbfbf" points="538,-.5 538,-19.5 612,-19.5 612,-.5 538,-.5"/>
<text text-anchor="middle" x="575" y="-7.5" font-family="Helvetica,sans-Serif" font-size="10.00" fill="#000000">TMessage.h</text>
</g>
<!-- Node20&#45;&gt;Node25 -->
<g id="edge31" class="edge">
<title>Node20&#45;&gt;Node25</title>
<path fill="none" stroke="#191970" d="M634.4586,-56.2455C623.7213,-47.8943 608.0527,-35.7076 595.4953,-25.9408"/>
<polygon fill="#191970" stroke="#191970" points="597.4401,-23.0194 587.3977,-19.6427 593.1425,-28.5449 597.4401,-23.0194"/>
</g>
</g>
</svg>
