<?xml version="1.0" encoding="UTF-8" standalone="no"?>
<!DOCTYPE svg PUBLIC "-//W3C//DTD SVG 1.1//EN"
 "http://www.w3.org/Graphics/SVG/1.1/DTD/svg11.dtd">
<!-- Generated by graphviz version 2.40.1 (20161225.0304)
 -->
<!-- Title: /home/travis/build/AliceO2Group/AliceO2/Detectors/Raw/include/DetectorsRaw/HBFUtils.h Pages: 1 -->
<svg width="2435pt" height="350pt"
 viewBox="0.00 0.00 2434.91 350.00" xmlns="http://www.w3.org/2000/svg" xmlns:xlink="http://www.w3.org/1999/xlink">
<g id="graph0" class="graph" transform="scale(1 1) rotate(0) translate(4 346)">
<title>/home/travis/build/AliceO2Group/AliceO2/Detectors/Raw/include/DetectorsRaw/HBFUtils.h</title>
<!-- Node9 -->
<g id="node1" class="node">
<title>Node9</title>
<polygon fill="#bfbfbf" stroke="#000000" points="1151.4079,-289.5 1151.4079,-341.5 1293.4079,-341.5 1293.4079,-289.5 1151.4079,-289.5"/>
<text text-anchor="start" x="1159.4079" y="-329.5" font-family="Helvetica,sans-Serif" font-size="10.00" fill="#000000">/home/travis/build</text>
<text text-anchor="start" x="1159.4079" y="-318.5" font-family="Helvetica,sans-Serif" font-size="10.00" fill="#000000">/AliceO2Group/AliceO2</text>
<text text-anchor="start" x="1159.4079" y="-307.5" font-family="Helvetica,sans-Serif" font-size="10.00" fill="#000000">/Detectors/Raw/include</text>
<text text-anchor="middle" x="1222.4079" y="-296.5" font-family="Helvetica,sans-Serif" font-size="10.00" fill="#000000">/DetectorsRaw/HBFUtils.h</text>
</g>
<!-- Node10 -->
<g id="node2" class="node">
<title>Node10</title>
<g id="a_node2"><a xlink:href="../../d8/d6b/MC2RawEncoder_8cxx.html" target="_top" xlink:title="/home/travis/build\l/AliceO2Group/AliceO2\l/Detectors/ITSMFT/common\l/simulation/src/MC2RawEncoder.cxx">
<polygon fill="none" stroke="#000000" points="69.4079,-.5 69.4079,-52.5 261.4079,-52.5 261.4079,-.5 69.4079,-.5"/>
<text text-anchor="start" x="77.4079" y="-40.5" font-family="Helvetica,sans-Serif" font-size="10.00" fill="#000000">/home/travis/build</text>
<text text-anchor="start" x="77.4079" y="-29.5" font-family="Helvetica,sans-Serif" font-size="10.00" fill="#000000">/AliceO2Group/AliceO2</text>
<text text-anchor="start" x="77.4079" y="-18.5" font-family="Helvetica,sans-Serif" font-size="10.00" fill="#000000">/Detectors/ITSMFT/common</text>
<text text-anchor="middle" x="165.4079" y="-7.5" font-family="Helvetica,sans-Serif" font-size="10.00" fill="#000000">/simulation/src/MC2RawEncoder.cxx</text>
</a>
</g>
</g>
<!-- Node9&#45;&gt;Node10 -->
<g id="edge1" class="edge">
<title>Node9&#45;&gt;Node10</title>
<path fill="none" stroke="#191970" d="M1141.3396,-311.916C955.2091,-303.3255 501.7332,-280.2369 351.4079,-253 196.8394,-224.9943 106.4669,-278.812 12.4079,-153 -4.624,-130.2184 -3.4528,-112.612 12.4079,-89 25.8474,-68.9924 46.9401,-55.3857 69.2167,-46.1334"/>
<polygon fill="#191970" stroke="#191970" points="1141.1882,-315.4127 1151.3383,-312.3754 1141.5095,-308.4201 1141.1882,-315.4127"/>
</g>
<!-- Node11 -->
<g id="node3" class="node">
<title>Node11</title>
<g id="a_node3"><a xlink:href="../../db/de0/MUON_2MID_2Raw_2include_2MIDRaw_2Encoder_8h.html" target="_top" xlink:title="MID raw data encoder. ">
<polygon fill="none" stroke="#000000" points="1199.4079,-195 1199.4079,-247 1347.4079,-247 1347.4079,-195 1199.4079,-195"/>
<text text-anchor="start" x="1207.4079" y="-235" font-family="Helvetica,sans-Serif" font-size="10.00" fill="#000000">/home/travis/build</text>
<text text-anchor="start" x="1207.4079" y="-224" font-family="Helvetica,sans-Serif" font-size="10.00" fill="#000000">/AliceO2Group/AliceO2</text>
<text text-anchor="start" x="1207.4079" y="-213" font-family="Helvetica,sans-Serif" font-size="10.00" fill="#000000">/Detectors/MUON/MID/Raw</text>
<text text-anchor="middle" x="1273.4079" y="-202" font-family="Helvetica,sans-Serif" font-size="10.00" fill="#000000">/include/MIDRaw/Encoder.h</text>
</a>
</g>
</g>
<!-- Node9&#45;&gt;Node11 -->
<g id="edge2" class="edge">
<title>Node9&#45;&gt;Node11</title>
<path fill="none" stroke="#191970" d="M1241.3043,-280.4861C1247.2285,-269.5089 1253.6634,-257.5854 1259.2058,-247.3157"/>
<polygon fill="#191970" stroke="#191970" points="1238.1482,-278.9648 1236.4789,-289.4273 1244.3083,-282.2894 1238.1482,-278.9648"/>
</g>
<!-- Node16 -->
<g id="node8" class="node">
<title>Node16</title>
<g id="a_node8"><a xlink:href="../../de/da2/Raw_2include_2DetectorsRaw_2RawFileReader_8h.html" target="_top" xlink:title="/home/travis/build\l/AliceO2Group/AliceO2\l/Detectors/Raw/include\l/DetectorsRaw/RawFileReader.h">
<polygon fill="none" stroke="#000000" points="891.4079,-195 891.4079,-247 1061.4079,-247 1061.4079,-195 891.4079,-195"/>
<text text-anchor="start" x="899.4079" y="-235" font-family="Helvetica,sans-Serif" font-size="10.00" fill="#000000">/home/travis/build</text>
<text text-anchor="start" x="899.4079" y="-224" font-family="Helvetica,sans-Serif" font-size="10.00" fill="#000000">/AliceO2Group/AliceO2</text>
<text text-anchor="start" x="899.4079" y="-213" font-family="Helvetica,sans-Serif" font-size="10.00" fill="#000000">/Detectors/Raw/include</text>
<text text-anchor="middle" x="976.4079" y="-202" font-family="Helvetica,sans-Serif" font-size="10.00" fill="#000000">/DetectorsRaw/RawFileReader.h</text>
</a>
</g>
</g>
<!-- Node9&#45;&gt;Node16 -->
<g id="edge7" class="edge">
<title>Node9&#45;&gt;Node16</title>
<path fill="none" stroke="#191970" d="M1145.1343,-285.8156C1112.8675,-273.4205 1075.7056,-259.1449 1044.4848,-247.1515"/>
<polygon fill="#191970" stroke="#191970" points="1143.9461,-289.1085 1154.5361,-289.4273 1146.4563,-282.574 1143.9461,-289.1085"/>
</g>
<!-- Node18 -->
<g id="node10" class="node">
<title>Node18</title>
<g id="a_node10"><a xlink:href="../../db/de5/Raw_2src_2RawFileReader_8cxx.html" target="_top" xlink:title="/home/travis/build\l/AliceO2Group/AliceO2\l/Detectors/Raw/src/RawFileReader.cxx">
<polygon fill="none" stroke="#000000" points="875.4079,-100.5 875.4079,-141.5 1077.4079,-141.5 1077.4079,-100.5 875.4079,-100.5"/>
<text text-anchor="start" x="883.4079" y="-129.5" font-family="Helvetica,sans-Serif" font-size="10.00" fill="#000000">/home/travis/build</text>
<text text-anchor="start" x="883.4079" y="-118.5" font-family="Helvetica,sans-Serif" font-size="10.00" fill="#000000">/AliceO2Group/AliceO2</text>
<text text-anchor="middle" x="976.4079" y="-107.5" font-family="Helvetica,sans-Serif" font-size="10.00" fill="#000000">/Detectors/Raw/src/RawFileReader.cxx</text>
</a>
</g>
</g>
<!-- Node9&#45;&gt;Node18 -->
<g id="edge18" class="edge">
<title>Node9&#45;&gt;Node18</title>
<path fill="none" stroke="#191970" d="M1184.5232,-282.7519C1154.122,-256.7715 1110.1136,-219.827 1070.4079,-189 1049.2479,-172.5717 1024.7027,-154.8593 1006.001,-141.6314"/>
<polygon fill="#191970" stroke="#191970" points="1182.4627,-285.5954 1192.3345,-289.4421 1187.0161,-280.2788 1182.4627,-285.5954"/>
</g>
<!-- Node19 -->
<g id="node11" class="node">
<title>Node19</title>
<g id="a_node11"><a xlink:href="../../d3/d87/RawFileReaderWorkflow_8cxx.html" target="_top" xlink:title="/home/travis/build\l/AliceO2Group/AliceO2\l/Detectors/Raw/src/RawFileReader\lWorkflow.cxx">
<polygon fill="none" stroke="#000000" points="1095.4079,-95 1095.4079,-147 1277.4079,-147 1277.4079,-95 1095.4079,-95"/>
<text text-anchor="start" x="1103.4079" y="-135" font-family="Helvetica,sans-Serif" font-size="10.00" fill="#000000">/home/travis/build</text>
<text text-anchor="start" x="1103.4079" y="-124" font-family="Helvetica,sans-Serif" font-size="10.00" fill="#000000">/AliceO2Group/AliceO2</text>
<text text-anchor="start" x="1103.4079" y="-113" font-family="Helvetica,sans-Serif" font-size="10.00" fill="#000000">/Detectors/Raw/src/RawFileReader</text>
<text text-anchor="middle" x="1186.4079" y="-102" font-family="Helvetica,sans-Serif" font-size="10.00" fill="#000000">Workflow.cxx</text>
</a>
</g>
</g>
<!-- Node9&#45;&gt;Node19 -->
<g id="edge19" class="edge">
<title>Node9&#45;&gt;Node19</title>
<path fill="none" stroke="#191970" d="M1201.04,-280.4183C1196.7301,-271.7473 1192.794,-262.2769 1190.4079,-253 1181.1845,-217.1398 1182.0065,-173.9912 1183.8702,-147.022"/>
<polygon fill="#191970" stroke="#191970" points="1198.0496,-282.2512 1205.8077,-289.4666 1204.2425,-278.988 1198.0496,-282.2512"/>
</g>
<!-- Node20 -->
<g id="node12" class="node">
<title>Node20</title>
<g id="a_node12"><a xlink:href="../../d3/d09/testRawReaderWriter_8cxx.html" target="_top" xlink:title="/home/travis/build\l/AliceO2Group/AliceO2\l/Detectors/Raw/test/testRawReader\lWriter.cxx">
<polygon fill="none" stroke="#000000" points="455.9079,-95 455.9079,-147 644.9079,-147 644.9079,-95 455.9079,-95"/>
<text text-anchor="start" x="463.9079" y="-135" font-family="Helvetica,sans-Serif" font-size="10.00" fill="#000000">/home/travis/build</text>
<text text-anchor="start" x="463.9079" y="-124" font-family="Helvetica,sans-Serif" font-size="10.00" fill="#000000">/AliceO2Group/AliceO2</text>
<text text-anchor="start" x="463.9079" y="-113" font-family="Helvetica,sans-Serif" font-size="10.00" fill="#000000">/Detectors/Raw/test/testRawReader</text>
<text text-anchor="middle" x="550.4079" y="-102" font-family="Helvetica,sans-Serif" font-size="10.00" fill="#000000">Writer.cxx</text>
</a>
</g>
</g>
<!-- Node9&#45;&gt;Node20 -->
<g id="edge21" class="edge">
<title>Node9&#45;&gt;Node20</title>
<path fill="none" stroke="#191970" d="M1141.1276,-305.1465C1071.5907,-295.2044 969.2668,-277.9871 882.4079,-253 782.5611,-224.2767 671.2426,-176.6307 606.209,-147.1208"/>
<polygon fill="#191970" stroke="#191970" points="1140.7524,-308.6282 1151.1435,-306.5606 1141.7311,-301.6969 1140.7524,-308.6282"/>
</g>
<!-- Node21 -->
<g id="node13" class="node">
<title>Node21</title>
<g id="a_node13"><a xlink:href="../../da/d08/RawFileWriter_8h.html" target="_top" xlink:title="Utility class to write detectors data to (multiple) raw data file(s) respecting CRU format...">
<polygon fill="none" stroke="#000000" points="360.4079,-195 360.4079,-247 526.4079,-247 526.4079,-195 360.4079,-195"/>
<text text-anchor="start" x="368.4079" y="-235" font-family="Helvetica,sans-Serif" font-size="10.00" fill="#000000">/home/travis/build</text>
<text text-anchor="start" x="368.4079" y="-224" font-family="Helvetica,sans-Serif" font-size="10.00" fill="#000000">/AliceO2Group/AliceO2</text>
<text text-anchor="start" x="368.4079" y="-213" font-family="Helvetica,sans-Serif" font-size="10.00" fill="#000000">/Detectors/Raw/include</text>
<text text-anchor="middle" x="443.4079" y="-202" font-family="Helvetica,sans-Serif" font-size="10.00" fill="#000000">/DetectorsRaw/RawFileWriter.h</text>
</a>
</g>
</g>
<!-- Node9&#45;&gt;Node21 -->
<g id="edge12" class="edge">
<title>Node9&#45;&gt;Node21</title>
<path fill="none" stroke="#191970" d="M1141.2643,-306.1608C1037.4156,-294.1514 851.9669,-272.514 693.4079,-253 637.7099,-246.1452 575.0743,-238.1273 526.4312,-231.8321"/>
<polygon fill="#191970" stroke="#191970" points="1141.0274,-309.6566 1151.3632,-307.328 1141.8312,-302.7029 1141.0274,-309.6566"/>
</g>
<!-- Node24 -->
<g id="node16" class="node">
<title>Node24</title>
<g id="a_node16"><a xlink:href="../../dc/da0/HBFUtils_8cxx.html" target="_top" xlink:title="/home/travis/build\l/AliceO2Group/AliceO2\l/Detectors/Raw/src/HBFUtils.cxx">
<polygon fill="none" stroke="#000000" points="1365.9079,-200.5 1365.9079,-241.5 1538.9079,-241.5 1538.9079,-200.5 1365.9079,-200.5"/>
<text text-anchor="start" x="1373.9079" y="-229.5" font-family="Helvetica,sans-Serif" font-size="10.00" fill="#000000">/home/travis/build</text>
<text text-anchor="start" x="1373.9079" y="-218.5" font-family="Helvetica,sans-Serif" font-size="10.00" fill="#000000">/AliceO2Group/AliceO2</text>
<text text-anchor="middle" x="1452.4079" y="-207.5" font-family="Helvetica,sans-Serif" font-size="10.00" fill="#000000">/Detectors/Raw/src/HBFUtils.cxx</text>
</a>
</g>
</g>
<!-- Node9&#45;&gt;Node24 -->
<g id="edge17" class="edge">
<title>Node9&#45;&gt;Node24</title>
<path fill="none" stroke="#191970" d="M1295.5094,-285.4648C1330.3052,-271.1683 1371.029,-254.4361 1402.2664,-241.6016"/>
<polygon fill="#191970" stroke="#191970" points="1293.7848,-282.3894 1285.8653,-289.4273 1296.4451,-288.8642 1293.7848,-282.3894"/>
</g>
<!-- Node25 -->
<g id="node17" class="node">
<title>Node25</title>
<g id="a_node17"><a xlink:href="../../dd/d85/testHBFUtils_8cxx.html" target="_top" xlink:title="/home/travis/build\l/AliceO2Group/AliceO2\l/Detectors/Raw/test/testHBFUtils.cxx">
<polygon fill="none" stroke="#000000" points="1556.9079,-200.5 1556.9079,-241.5 1753.9079,-241.5 1753.9079,-200.5 1556.9079,-200.5"/>
<text text-anchor="start" x="1564.9079" y="-229.5" font-family="Helvetica,sans-Serif" font-size="10.00" fill="#000000">/home/travis/build</text>
<text text-anchor="start" x="1564.9079" y="-218.5" font-family="Helvetica,sans-Serif" font-size="10.00" fill="#000000">/AliceO2Group/AliceO2</text>
<text text-anchor="middle" x="1655.4079" y="-207.5" font-family="Helvetica,sans-Serif" font-size="10.00" fill="#000000">/Detectors/Raw/test/testHBFUtils.cxx</text>
</a>
</g>
</g>
<!-- Node9&#45;&gt;Node25 -->
<g id="edge20" class="edge">
<title>Node9&#45;&gt;Node25</title>
<path fill="none" stroke="#191970" d="M1303.4615,-302.1878C1369.501,-290.797 1464.973,-273.0878 1547.4079,-253 1561.1827,-249.6433 1575.8174,-245.6214 1589.7202,-241.5802"/>
<polygon fill="#191970" stroke="#191970" points="1302.7938,-298.7511 1293.5296,-303.8915 1303.9774,-305.6503 1302.7938,-298.7511"/>
</g>
<!-- Node26 -->
<g id="node18" class="node">
<title>Node26</title>
<g id="a_node18"><a xlink:href="../../da/dc7/CompressedInspectorTask_8cxx.html" target="_top" xlink:title="TOF compressed data inspector task. ">
<polygon fill="none" stroke="#000000" points="1771.9079,-195 1771.9079,-247 1956.9079,-247 1956.9079,-195 1771.9079,-195"/>
<text text-anchor="start" x="1779.9079" y="-235" font-family="Helvetica,sans-Serif" font-size="10.00" fill="#000000">/home/travis/build</text>
<text text-anchor="start" x="1779.9079" y="-224" font-family="Helvetica,sans-Serif" font-size="10.00" fill="#000000">/AliceO2Group/AliceO2</text>
<text text-anchor="start" x="1779.9079" y="-213" font-family="Helvetica,sans-Serif" font-size="10.00" fill="#000000">/Detectors/TOF/compression</text>
<text text-anchor="middle" x="1864.4079" y="-202" font-family="Helvetica,sans-Serif" font-size="10.00" fill="#000000">/src/CompressedInspectorTask.cxx</text>
</a>
</g>
</g>
<!-- Node9&#45;&gt;Node26 -->
<g id="edge22" class="edge">
<title>Node9&#45;&gt;Node26</title>
<path fill="none" stroke="#191970" d="M1303.4447,-310.9044C1409.7517,-303.789 1601.6658,-287.1962 1762.4079,-253 1770.3045,-251.3201 1778.4626,-249.2871 1786.5653,-247.0696"/>
<polygon fill="#191970" stroke="#191970" points="1303.1766,-307.4143 1293.4281,-311.5636 1303.6364,-314.3992 1303.1766,-307.4143"/>
</g>
<!-- Node27 -->
<g id="node19" class="node">
<title>Node27</title>
<g id="a_node19"><a xlink:href="../../d8/d7f/Compressor_8cxx.html" target="_top" xlink:title="/home/travis/build\l/AliceO2Group/AliceO2\l/Detectors/TOF/compression\l/src/Compressor.cxx">
<polygon fill="none" stroke="#000000" points="1975.4079,-195 1975.4079,-247 2129.4079,-247 2129.4079,-195 1975.4079,-195"/>
<text text-anchor="start" x="1983.4079" y="-235" font-family="Helvetica,sans-Serif" font-size="10.00" fill="#000000">/home/travis/build</text>
<text text-anchor="start" x="1983.4079" y="-224" font-family="Helvetica,sans-Serif" font-size="10.00" fill="#000000">/AliceO2Group/AliceO2</text>
<text text-anchor="start" x="1983.4079" y="-213" font-family="Helvetica,sans-Serif" font-size="10.00" fill="#000000">/Detectors/TOF/compression</text>
<text text-anchor="middle" x="2052.4079" y="-202" font-family="Helvetica,sans-Serif" font-size="10.00" fill="#000000">/src/Compressor.cxx</text>
</a>
</g>
</g>
<!-- Node9&#45;&gt;Node27 -->
<g id="edge23" class="edge">
<title>Node9&#45;&gt;Node27</title>
<path fill="none" stroke="#191970" d="M1303.7016,-311.4201C1469.4284,-302.6507 1841.1559,-280.549 1965.4079,-253 1972.6354,-251.3975 1980.0745,-249.3377 1987.4159,-247.0367"/>
<polygon fill="#191970" stroke="#191970" points="1303.3694,-307.9326 1293.5672,-311.9533 1303.7373,-314.923 1303.3694,-307.9326"/>
</g>
<!-- Node28 -->
<g id="node20" class="node">
<title>Node28</title>
<g id="a_node20"><a xlink:href="../../d8/d76/TOF_2reconstruction_2include_2TOFReconstruction_2Encoder_8h.html" target="_top" xlink:title="/home/travis/build\l/AliceO2Group/AliceO2\l/Detectors/TOF/reconstruction\l/include/TOFReconstruction\l/Encoder.h">
<polygon fill="none" stroke="#000000" points="2147.9079,-189.5 2147.9079,-252.5 2308.9079,-252.5 2308.9079,-189.5 2147.9079,-189.5"/>
<text text-anchor="start" x="2155.9079" y="-240.5" font-family="Helvetica,sans-Serif" font-size="10.00" fill="#000000">/home/travis/build</text>
<text text-anchor="start" x="2155.9079" y="-229.5" font-family="Helvetica,sans-Serif" font-size="10.00" fill="#000000">/AliceO2Group/AliceO2</text>
<text text-anchor="start" x="2155.9079" y="-218.5" font-family="Helvetica,sans-Serif" font-size="10.00" fill="#000000">/Detectors/TOF/reconstruction</text>
<text text-anchor="start" x="2155.9079" y="-207.5" font-family="Helvetica,sans-Serif" font-size="10.00" fill="#000000">/include/TOFReconstruction</text>
<text text-anchor="middle" x="2228.4079" y="-196.5" font-family="Helvetica,sans-Serif" font-size="10.00" fill="#000000">/Encoder.h</text>
</a>
</g>
</g>
<!-- Node9&#45;&gt;Node28 -->
<g id="edge24" class="edge">
<title>Node9&#45;&gt;Node28</title>
<path fill="none" stroke="#191970" d="M1303.5874,-312.8042C1496.8717,-305.9272 1980.0084,-285.9132 2138.4079,-253 2141.4928,-252.359 2144.6156,-251.6369 2147.7536,-250.8492"/>
<polygon fill="#191970" stroke="#191970" points="1303.3643,-309.3098 1293.4942,-313.1607 1303.6115,-316.3054 1303.3643,-309.3098"/>
</g>
<!-- Node12 -->
<g id="node4" class="node">
<title>Node12</title>
<g id="a_node4"><a xlink:href="../../d8/dc6/MUON_2MID_2Raw_2src_2Encoder_8cxx.html" target="_top" xlink:title="MID raw data encoder. ">
<polygon fill="none" stroke="#000000" points="1483.4079,-95 1483.4079,-147 1629.4079,-147 1629.4079,-95 1483.4079,-95"/>
<text text-anchor="start" x="1491.4079" y="-135" font-family="Helvetica,sans-Serif" font-size="10.00" fill="#000000">/home/travis/build</text>
<text text-anchor="start" x="1491.4079" y="-124" font-family="Helvetica,sans-Serif" font-size="10.00" fill="#000000">/AliceO2Group/AliceO2</text>
<text text-anchor="start" x="1491.4079" y="-113" font-family="Helvetica,sans-Serif" font-size="10.00" fill="#000000">/Detectors/MUON/MID/Raw</text>
<text text-anchor="middle" x="1556.4079" y="-102" font-family="Helvetica,sans-Serif" font-size="10.00" fill="#000000">/src/Encoder.cxx</text>
</a>
</g>
</g>
<!-- Node11&#45;&gt;Node12 -->
<g id="edge3" class="edge">
<title>Node11&#45;&gt;Node12</title>
<path fill="none" stroke="#191970" d="M1349.4912,-191.4211C1351.8193,-190.5948 1354.1289,-189.7858 1356.4079,-189 1408.2437,-171.1263 1422.6087,-170.9796 1474.4079,-153 1479.7495,-151.1459 1485.26,-149.1593 1490.7789,-147.1172"/>
<polygon fill="#191970" stroke="#191970" points="1348.0656,-188.2146 1339.8477,-194.9016 1350.442,-194.7989 1348.0656,-188.2146"/>
</g>
<!-- Node13 -->
<g id="node5" class="node">
<title>Node13</title>
<g id="a_node5"><a xlink:href="../../d5/d52/bench__Raw_8cxx.html" target="_top" xlink:title="/home/travis/build\l/AliceO2Group/AliceO2\l/Detectors/MUON/MID/Raw\l/test/bench_Raw.cxx">
<polygon fill="none" stroke="#000000" points="1647.4079,-95 1647.4079,-147 1793.4079,-147 1793.4079,-95 1647.4079,-95"/>
<text text-anchor="start" x="1655.4079" y="-135" font-family="Helvetica,sans-Serif" font-size="10.00" fill="#000000">/home/travis/build</text>
<text text-anchor="start" x="1655.4079" y="-124" font-family="Helvetica,sans-Serif" font-size="10.00" fill="#000000">/AliceO2Group/AliceO2</text>
<text text-anchor="start" x="1655.4079" y="-113" font-family="Helvetica,sans-Serif" font-size="10.00" fill="#000000">/Detectors/MUON/MID/Raw</text>
<text text-anchor="middle" x="1720.4079" y="-102" font-family="Helvetica,sans-Serif" font-size="10.00" fill="#000000">/test/bench_Raw.cxx</text>
</a>
</g>
</g>
<!-- Node11&#45;&gt;Node13 -->
<g id="edge4" class="edge">
<title>Node11&#45;&gt;Node13</title>
<path fill="none" stroke="#191970" d="M1346.103,-191.8481C1349.5641,-190.8158 1353.0109,-189.8583 1356.4079,-189 1478.9089,-158.0494 1515.9704,-184.2009 1638.4079,-153 1644.9236,-151.3396 1651.6219,-149.3046 1658.2476,-147.0729"/>
<polygon fill="#191970" stroke="#191970" points="1344.8199,-188.583 1336.3407,-194.9356 1346.9307,-195.2572 1344.8199,-188.583"/>
</g>
<!-- Node14 -->
<g id="node6" class="node">
<title>Node14</title>
<g id="a_node6"><a xlink:href="../../d8/d4c/testRaw_8cxx.html" target="_top" xlink:title="/home/travis/build\l/AliceO2Group/AliceO2\l/Detectors/MUON/MID/Raw\l/test/testRaw.cxx">
<polygon fill="none" stroke="#000000" points="1811.4079,-95 1811.4079,-147 1957.4079,-147 1957.4079,-95 1811.4079,-95"/>
<text text-anchor="start" x="1819.4079" y="-135" font-family="Helvetica,sans-Serif" font-size="10.00" fill="#000000">/home/travis/build</text>
<text text-anchor="start" x="1819.4079" y="-124" font-family="Helvetica,sans-Serif" font-size="10.00" fill="#000000">/AliceO2Group/AliceO2</text>
<text text-anchor="start" x="1819.4079" y="-113" font-family="Helvetica,sans-Serif" font-size="10.00" fill="#000000">/Detectors/MUON/MID/Raw</text>
<text text-anchor="middle" x="1884.4079" y="-102" font-family="Helvetica,sans-Serif" font-size="10.00" fill="#000000">/test/testRaw.cxx</text>
</a>
</g>
</g>
<!-- Node11&#45;&gt;Node14 -->
<g id="edge5" class="edge">
<title>Node11&#45;&gt;Node14</title>
<path fill="none" stroke="#191970" d="M1344.9213,-191.9738C1348.7754,-190.8672 1352.6202,-189.864 1356.4079,-189 1550.2949,-144.7746 1608.6117,-197.6215 1802.4079,-153 1809.2583,-151.4227 1816.2943,-149.3791 1823.2282,-147.0876"/>
<polygon fill="#191970" stroke="#191970" points="1343.8786,-188.6326 1335.3493,-194.9176 1345.9363,-195.3234 1343.8786,-188.6326"/>
</g>
<!-- Node15 -->
<g id="node7" class="node">
<title>Node15</title>
<g id="a_node7"><a xlink:href="../../db/dd6/RawWriterSpec_8cxx.html" target="_top" xlink:title="Digits to raw converter spec for MID. ">
<polygon fill="none" stroke="#000000" points="1295.4079,-95 1295.4079,-147 1465.4079,-147 1465.4079,-95 1295.4079,-95"/>
<text text-anchor="start" x="1303.4079" y="-135" font-family="Helvetica,sans-Serif" font-size="10.00" fill="#000000">/home/travis/build</text>
<text text-anchor="start" x="1303.4079" y="-124" font-family="Helvetica,sans-Serif" font-size="10.00" fill="#000000">/AliceO2Group/AliceO2</text>
<text text-anchor="start" x="1303.4079" y="-113" font-family="Helvetica,sans-Serif" font-size="10.00" fill="#000000">/Detectors/MUON/MID/Workflow</text>
<text text-anchor="middle" x="1380.4079" y="-102" font-family="Helvetica,sans-Serif" font-size="10.00" fill="#000000">/src/RawWriterSpec.cxx</text>
</a>
</g>
</g>
<!-- Node11&#45;&gt;Node15 -->
<g id="edge6" class="edge">
<title>Node11&#45;&gt;Node15</title>
<path fill="none" stroke="#191970" d="M1308.8687,-187.8591C1323.0028,-174.6496 1339.0394,-159.6622 1352.3419,-147.2299"/>
<polygon fill="#191970" stroke="#191970" points="1306.1578,-185.602 1301.2416,-194.9872 1310.9374,-190.7163 1306.1578,-185.602"/>
</g>
<!-- Node17 -->
<g id="node9" class="node">
<title>Node17</title>
<g id="a_node9"><a xlink:href="../../d0/d6f/rawfileCheck_8cxx.html" target="_top" xlink:title="/home/travis/build\l/AliceO2Group/AliceO2\l/Detectors/Raw/src/rawfileCheck.cxx">
<polygon fill="none" stroke="#000000" points="663.4079,-100.5 663.4079,-141.5 857.4079,-141.5 857.4079,-100.5 663.4079,-100.5"/>
<text text-anchor="start" x="671.4079" y="-129.5" font-family="Helvetica,sans-Serif" font-size="10.00" fill="#000000">/home/travis/build</text>
<text text-anchor="start" x="671.4079" y="-118.5" font-family="Helvetica,sans-Serif" font-size="10.00" fill="#000000">/AliceO2Group/AliceO2</text>
<text text-anchor="middle" x="760.4079" y="-107.5" font-family="Helvetica,sans-Serif" font-size="10.00" fill="#000000">/Detectors/Raw/src/rawfileCheck.cxx</text>
</a>
</g>
</g>
<!-- Node16&#45;&gt;Node17 -->
<g id="edge8" class="edge">
<title>Node16&#45;&gt;Node17</title>
<path fill="none" stroke="#191970" d="M910.7305,-190.5938C876.3963,-174.6983 835.283,-155.6644 804.7379,-141.5232"/>
<polygon fill="#191970" stroke="#191970" points="909.6752,-193.9621 920.2203,-194.9872 912.6161,-187.6098 909.6752,-193.9621"/>
</g>
<!-- Node16&#45;&gt;Node18 -->
<g id="edge9" class="edge">
<title>Node16&#45;&gt;Node18</title>
<path fill="none" stroke="#191970" d="M976.4079,-184.7667C976.4079,-170.2133 976.4079,-153.9723 976.4079,-141.5232"/>
<polygon fill="#191970" stroke="#191970" points="972.908,-184.9872 976.4079,-194.9872 979.908,-184.9873 972.908,-184.9872"/>
</g>
<!-- Node16&#45;&gt;Node19 -->
<g id="edge10" class="edge">
<title>Node16&#45;&gt;Node19</title>
<path fill="none" stroke="#191970" d="M1040.3189,-190.5662C1069.5023,-176.6693 1103.7135,-160.3783 1131.6902,-147.0561"/>
<polygon fill="#191970" stroke="#191970" points="1038.5586,-187.5278 1031.0347,-194.9872 1041.5681,-193.8479 1038.5586,-187.5278"/>
</g>
<!-- Node16&#45;&gt;Node20 -->
<g id="edge11" class="edge">
<title>Node16&#45;&gt;Node20</title>
<path fill="none" stroke="#191970" d="M881.0416,-203.2102C816.6797,-190.6296 730.0131,-172.572 654.4079,-153 647.2756,-151.1536 639.9026,-149.1272 632.528,-147.0183"/>
<polygon fill="#191970" stroke="#191970" points="880.6902,-206.7074 891.1746,-205.1817 882.0271,-199.8362 880.6902,-206.7074"/>
</g>
<!-- Node21&#45;&gt;Node20 -->
<g id="edge16" class="edge">
<title>Node21&#45;&gt;Node20</title>
<path fill="none" stroke="#191970" d="M478.8687,-187.8591C493.0028,-174.6496 509.0394,-159.6622 522.3419,-147.2299"/>
<polygon fill="#191970" stroke="#191970" points="476.1578,-185.602 471.2416,-194.9872 480.9374,-190.7163 476.1578,-185.602"/>
</g>
<!-- Node22 -->
<g id="node14" class="node">
<title>Node22</title>
<g id="a_node14"><a xlink:href="../../df/d56/MC2RawEncoder_8h.html" target="_top" xlink:title="Definition of the ITS/MFT Alpide pixel MC&#45;&gt;raw converter. ">
<polygon fill="none" stroke="#000000" points="237.4079,-89.5 237.4079,-152.5 437.4079,-152.5 437.4079,-89.5 237.4079,-89.5"/>
<text text-anchor="start" x="245.4079" y="-140.5" font-family="Helvetica,sans-Serif" font-size="10.00" fill="#000000">/home/travis/build</text>
<text text-anchor="start" x="245.4079" y="-129.5" font-family="Helvetica,sans-Serif" font-size="10.00" fill="#000000">/AliceO2Group/AliceO2</text>
<text text-anchor="start" x="245.4079" y="-118.5" font-family="Helvetica,sans-Serif" font-size="10.00" fill="#000000">/Detectors/ITSMFT/common</text>
<text text-anchor="start" x="245.4079" y="-107.5" font-family="Helvetica,sans-Serif" font-size="10.00" fill="#000000">/simulation/include/ITSMFTSimulation</text>
<text text-anchor="middle" x="337.4079" y="-96.5" font-family="Helvetica,sans-Serif" font-size="10.00" fill="#000000">/MC2RawEncoder.h</text>
</a>
</g>
</g>
<!-- Node21&#45;&gt;Node22 -->
<g id="edge13" class="edge">
<title>Node21&#45;&gt;Node22</title>
<path fill="none" stroke="#191970" d="M408.5111,-188.0785C396.4098,-176.6621 382.8773,-163.8957 370.8924,-152.5891"/>
<polygon fill="#191970" stroke="#191970" points="406.1586,-190.6709 415.8344,-194.9872 410.9622,-185.5791 406.1586,-190.6709"/>
</g>
<!-- Node23 -->
<g id="node15" class="node">
<title>Node23</title>
<g id="a_node15"><a xlink:href="../../df/dd8/RawFileWriter_8cxx.html" target="_top" xlink:title="Utility class to write detectors data to (multiple) raw data file(s) respecting CRU format...">
<polygon fill="none" stroke="#000000" points="21.9079,-100.5 21.9079,-141.5 218.9079,-141.5 218.9079,-100.5 21.9079,-100.5"/>
<text text-anchor="start" x="29.9079" y="-129.5" font-family="Helvetica,sans-Serif" font-size="10.00" fill="#000000">/home/travis/build</text>
<text text-anchor="start" x="29.9079" y="-118.5" font-family="Helvetica,sans-Serif" font-size="10.00" fill="#000000">/AliceO2Group/AliceO2</text>
<text text-anchor="middle" x="120.4079" y="-107.5" font-family="Helvetica,sans-Serif" font-size="10.00" fill="#000000">/Detectors/Raw/src/RawFileWriter.cxx</text>
</a>
</g>
</g>
<!-- Node21&#45;&gt;Node23 -->
<g id="edge15" class="edge">
<title>Node21&#45;&gt;Node23</title>
<path fill="none" stroke="#191970" d="M350.5968,-192.2659C298.2458,-176.0582 234.0604,-156.1865 186.7786,-141.5482"/>
<polygon fill="#191970" stroke="#191970" points="349.6396,-195.6334 360.2274,-195.2475 351.7099,-188.9465 349.6396,-195.6334"/>
</g>
<!-- Node22&#45;&gt;Node10 -->
<g id="edge14" class="edge">
<title>Node22&#45;&gt;Node10</title>
<path fill="none" stroke="#191970" d="M270.6351,-84.3138C251.3997,-73.7455 230.8117,-62.4341 212.993,-52.6442"/>
<polygon fill="#191970" stroke="#191970" points="269.2062,-87.5222 279.6559,-89.27 272.577,-81.3871 269.2062,-87.5222"/>
</g>
<!-- Node29 -->
<g id="node21" class="node">
<title>Node29</title>
<g id="a_node21"><a xlink:href="../../de/d5e/TOF_2reconstruction_2src_2Encoder_8cxx.html" target="_top" xlink:title="/home/travis/build\l/AliceO2Group/AliceO2\l/Detectors/TOF/reconstruction\l/src/Encoder.cxx">
<polygon fill="none" stroke="#000000" points="2265.9079,-95 2265.9079,-147 2426.9079,-147 2426.9079,-95 2265.9079,-95"/>
<text text-anchor="start" x="2273.9079" y="-135" font-family="Helvetica,sans-Serif" font-size="10.00" fill="#000000">/home/travis/build</text>
<text text-anchor="start" x="2273.9079" y="-124" font-family="Helvetica,sans-Serif" font-size="10.00" fill="#000000">/AliceO2Group/AliceO2</text>
<text text-anchor="start" x="2273.9079" y="-113" font-family="Helvetica,sans-Serif" font-size="10.00" fill="#000000">/Detectors/TOF/reconstruction</text>
<text text-anchor="middle" x="2346.4079" y="-102" font-family="Helvetica,sans-Serif" font-size="10.00" fill="#000000">/src/Encoder.cxx</text>
</a>
</g>
</g>
<!-- Node28&#45;&gt;Node29 -->
<g id="edge25" class="edge">
<title>Node28&#45;&gt;Node29</title>
<path fill="none" stroke="#191970" d="M2273.4369,-182.8399C2287.5331,-170.8939 2302.7582,-157.9913 2315.6359,-147.078"/>
<polygon fill="#191970" stroke="#191970" points="2271.11,-180.224 2265.7438,-189.3594 2275.6357,-185.5643 2271.11,-180.224"/>
</g>
<!-- Node30 -->
<g id="node22" class="node">
<title>Node30</title>
<g id="a_node22"><a xlink:href="../../dc/df7/TOFRawWriterSpec_8h.html" target="_top" xlink:title="/home/travis/build\l/AliceO2Group/AliceO2\l/Detectors/TOF/workflow\l/include/TOFWorkflow/TOFRawWriter\lSpec.h">
<polygon fill="none" stroke="#000000" points="2053.4079,-89.5 2053.4079,-152.5 2247.4079,-152.5 2247.4079,-89.5 2053.4079,-89.5"/>
<text text-anchor="start" x="2061.4079" y="-140.5" font-family="Helvetica,sans-Serif" font-size="10.00" fill="#000000">/home/travis/build</text>
<text text-anchor="start" x="2061.4079" y="-129.5" font-family="Helvetica,sans-Serif" font-size="10.00" fill="#000000">/AliceO2Group/AliceO2</text>
<text text-anchor="start" x="2061.4079" y="-118.5" font-family="Helvetica,sans-Serif" font-size="10.00" fill="#000000">/Detectors/TOF/workflow</text>
<text text-anchor="start" x="2061.4079" y="-107.5" font-family="Helvetica,sans-Serif" font-size="10.00" fill="#000000">/include/TOFWorkflow/TOFRawWriter</text>
<text text-anchor="middle" x="2150.4079" y="-96.5" font-family="Helvetica,sans-Serif" font-size="10.00" fill="#000000">Spec.h</text>
</a>
</g>
</g>
<!-- Node28&#45;&gt;Node30 -->
<g id="edge26" class="edge">
<title>Node28&#45;&gt;Node30</title>
<path fill="none" stroke="#191970" d="M2197.3815,-181.2226C2190.0113,-171.7736 2182.2442,-161.8157 2175.1948,-152.778"/>
<polygon fill="#191970" stroke="#191970" points="2194.8181,-183.627 2203.7282,-189.3594 2200.3376,-179.3217 2194.8181,-183.627"/>
</g>
<!-- Node31 -->
<g id="node23" class="node">
<title>Node31</title>
<g id="a_node23"><a xlink:href="../../da/dfd/tof-reco-workflow_8cxx.html" target="_top" xlink:title="Basic DPL workflow for TOF reconstruction starting from digits. ">
<polygon fill="none" stroke="#000000" points="2145.9079,-.5 2145.9079,-52.5 2348.9079,-52.5 2348.9079,-.5 2145.9079,-.5"/>
<text text-anchor="start" x="2153.9079" y="-40.5" font-family="Helvetica,sans-Serif" font-size="10.00" fill="#000000">/home/travis/build</text>
<text text-anchor="start" x="2153.9079" y="-29.5" font-family="Helvetica,sans-Serif" font-size="10.00" fill="#000000">/AliceO2Group/AliceO2</text>
<text text-anchor="start" x="2153.9079" y="-18.5" font-family="Helvetica,sans-Serif" font-size="10.00" fill="#000000">/Detectors/GlobalTrackingWorkflow</text>
<text text-anchor="middle" x="2247.4079" y="-7.5" font-family="Helvetica,sans-Serif" font-size="10.00" fill="#000000">/tofworkflow/src/tof&#45;reco&#45;workflow.cxx</text>
</a>
</g>
</g>
<!-- Node30&#45;&gt;Node31 -->
<g id="edge27" class="edge">
<title>Node30&#45;&gt;Node31</title>
<path fill="none" stroke="#191970" d="M2190.2833,-82.1523C2200.4815,-72.217 2211.2053,-61.7696 2220.5721,-52.6442"/>
<polygon fill="#191970" stroke="#191970" points="2187.6978,-79.7848 2182.9773,-89.27 2192.5825,-84.7988 2187.6978,-79.7848"/>
</g>
<!-- Node32 -->
<g id="node24" class="node">
<title>Node32</title>
<g id="a_node24"><a xlink:href="../../db/dfb/TOFRawWriterSpec_8cxx.html" target="_top" xlink:title="/home/travis/build\l/AliceO2Group/AliceO2\l/Detectors/TOF/workflow\l/src/TOFRawWriterSpec.cxx">
<polygon fill="none" stroke="#000000" points="1978.9079,-.5 1978.9079,-52.5 2127.9079,-52.5 2127.9079,-.5 1978.9079,-.5"/>
<text text-anchor="start" x="1986.9079" y="-40.5" font-family="Helvetica,sans-Serif" font-size="10.00" fill="#000000">/home/travis/build</text>
<text text-anchor="start" x="1986.9079" y="-29.5" font-family="Helvetica,sans-Serif" font-size="10.00" fill="#000000">/AliceO2Group/AliceO2</text>
<text text-anchor="start" x="1986.9079" y="-18.5" font-family="Helvetica,sans-Serif" font-size="10.00" fill="#000000">/Detectors/TOF/workflow</text>
<text text-anchor="middle" x="2053.4079" y="-7.5" font-family="Helvetica,sans-Serif" font-size="10.00" fill="#000000">/src/TOFRawWriterSpec.cxx</text>
</a>
</g>
</g>
<!-- Node30&#45;&gt;Node32 -->
<g id="edge28" class="edge">
<title>Node30&#45;&gt;Node32</title>
<path fill="none" stroke="#191970" d="M2110.5325,-82.1523C2100.3343,-72.217 2089.6106,-61.7696 2080.2437,-52.6442"/>
<polygon fill="#191970" stroke="#191970" points="2108.2333,-84.7988 2117.8385,-89.27 2113.118,-79.7848 2108.2333,-84.7988"/>
</g>
</g>
</svg>
