<?xml version="1.0" encoding="UTF-8" standalone="no"?>
<!DOCTYPE svg PUBLIC "-//W3C//DTD SVG 1.1//EN"
 "http://www.w3.org/Graphics/SVG/1.1/DTD/svg11.dtd">
<!-- Generated by graphviz version 2.40.1 (20161225.0304)
 -->
<!-- Title: /home/travis/build/AliceO2Group/AliceO2/Detectors/ITSMFT/MFT/base/src/Ladder.cxx Pages: 1 -->
<svg width="2119pt" height="307pt"
 viewBox="0.00 0.00 2119.50 307.00" xmlns="http://www.w3.org/2000/svg" xmlns:xlink="http://www.w3.org/1999/xlink">
<g id="graph0" class="graph" transform="scale(1 1) rotate(0) translate(4 303)">
<title>/home/travis/build/AliceO2Group/AliceO2/Detectors/ITSMFT/MFT/base/src/Ladder.cxx</title>
<!-- Node0 -->
<g id="node1" class="node">
<title>Node0</title>
<polygon fill="#bfbfbf" stroke="#000000" points="1267,-246.5 1267,-298.5 1394,-298.5 1394,-246.5 1267,-246.5"/>
<text text-anchor="start" x="1275" y="-286.5" font-family="Helvetica,sans-Serif" font-size="10.00" fill="#000000">/home/travis/build</text>
<text text-anchor="start" x="1275" y="-275.5" font-family="Helvetica,sans-Serif" font-size="10.00" fill="#000000">/AliceO2Group/AliceO2</text>
<text text-anchor="start" x="1275" y="-264.5" font-family="Helvetica,sans-Serif" font-size="10.00" fill="#000000">/Detectors/ITSMFT/MFT</text>
<text text-anchor="middle" x="1330.5" y="-253.5" font-family="Helvetica,sans-Serif" font-size="10.00" fill="#000000">/base/src/Ladder.cxx</text>
</g>
<!-- Node1 -->
<g id="node2" class="node">
<title>Node1</title>
<polygon fill="none" stroke="#bfbfbf" points="1375.5,-6 1375.5,-25 1457.5,-25 1457.5,-6 1375.5,-6"/>
<text text-anchor="middle" x="1416.5" y="-13" font-family="Helvetica,sans-Serif" font-size="10.00" fill="#000000">TGeoMatrix.h</text>
</g>
<!-- Node0&#45;&gt;Node1 -->
<g id="edge1" class="edge">
<title>Node0&#45;&gt;Node1</title>
<path fill="none" stroke="#191970" d="M1394.0418,-256.1448C1434.5368,-244.2913 1481.5661,-227.357 1493.5,-210 1520.1725,-171.2069 1441.653,-163.4777 1435.5,-154 1411.6993,-117.3389 1411.9827,-63.7157 1414.2432,-35.1393"/>
<polygon fill="#191970" stroke="#191970" points="1417.7275,-35.4697 1415.1962,-25.1817 1410.7593,-34.8027 1417.7275,-35.4697"/>
</g>
<!-- Node2 -->
<g id="node3" class="node">
<title>Node2</title>
<polygon fill="none" stroke="#bfbfbf" points="1132.5,-134.5 1132.5,-153.5 1224.5,-153.5 1224.5,-134.5 1132.5,-134.5"/>
<text text-anchor="middle" x="1178.5" y="-141.5" font-family="Helvetica,sans-Serif" font-size="10.00" fill="#000000">TGeoManager.h</text>
</g>
<!-- Node0&#45;&gt;Node2 -->
<g id="edge2" class="edge">
<title>Node0&#45;&gt;Node2</title>
<path fill="none" stroke="#191970" d="M1266.7486,-270.239C1124.6917,-264.5454 791.9706,-247.3269 758.5,-210 752.5658,-203.382 752.5666,-196.6187 758.5,-190 782.3648,-163.3787 1013.4732,-150.6259 1122.3246,-146.058"/>
<polygon fill="#191970" stroke="#191970" points="1122.6181,-149.549 1132.4659,-145.6413 1122.3306,-142.5549 1122.6181,-149.549"/>
</g>
<!-- Node3 -->
<g id="node4" class="node">
<title>Node3</title>
<polygon fill="none" stroke="#bfbfbf" points="768,-190.5 768,-209.5 845,-209.5 845,-190.5 768,-190.5"/>
<text text-anchor="middle" x="806.5" y="-197.5" font-family="Helvetica,sans-Serif" font-size="10.00" fill="#000000">TGeoBBox.h</text>
</g>
<!-- Node0&#45;&gt;Node3 -->
<g id="edge3" class="edge">
<title>Node0&#45;&gt;Node3</title>
<path fill="none" stroke="#191970" d="M1266.7539,-265.6656C1177.1858,-255.7222 1008.8193,-235.7885 855.3141,-210.0322"/>
<polygon fill="#191970" stroke="#191970" points="855.6689,-206.5426 845.2254,-208.3273 854.5024,-213.4447 855.6689,-206.5426"/>
</g>
<!-- Node4 -->
<g id="node5" class="node">
<title>Node4</title>
<polygon fill="none" stroke="#bfbfbf" points="863.5,-190.5 863.5,-209.5 937.5,-209.5 937.5,-190.5 863.5,-190.5"/>
<text text-anchor="middle" x="900.5" y="-197.5" font-family="Helvetica,sans-Serif" font-size="10.00" fill="#000000">TGeoTube.h</text>
</g>
<!-- Node0&#45;&gt;Node4 -->
<g id="edge4" class="edge">
<title>Node0&#45;&gt;Node4</title>
<path fill="none" stroke="#191970" d="M1266.7895,-263.182C1192.5486,-252.0879 1065.9685,-232.4434 947.5861,-210.1337"/>
<polygon fill="#191970" stroke="#191970" points="948.0996,-206.6688 937.6228,-208.246 946.7964,-213.5464 948.0996,-206.6688"/>
</g>
<!-- Node5 -->
<g id="node6" class="node">
<title>Node5</title>
<polygon fill="none" stroke="#bfbfbf" points="955.5,-190.5 955.5,-209.5 1089.5,-209.5 1089.5,-190.5 955.5,-190.5"/>
<text text-anchor="middle" x="1022.5" y="-197.5" font-family="Helvetica,sans-Serif" font-size="10.00" fill="#000000">TGeoCompositeShape.h</text>
</g>
<!-- Node0&#45;&gt;Node5 -->
<g id="edge5" class="edge">
<title>Node0&#45;&gt;Node5</title>
<path fill="none" stroke="#191970" d="M1266.6822,-257.478C1209.2423,-243.9572 1125.9582,-224.353 1073.0252,-211.8931"/>
<polygon fill="#191970" stroke="#191970" points="1073.7199,-208.4611 1063.184,-209.5766 1072.116,-215.2748 1073.7199,-208.4611"/>
</g>
<!-- Node6 -->
<g id="node7" class="node">
<title>Node6</title>
<polygon fill="none" stroke="#bfbfbf" points="1107.5,-190.5 1107.5,-209.5 1205.5,-209.5 1205.5,-190.5 1107.5,-190.5"/>
<text text-anchor="middle" x="1156.5" y="-197.5" font-family="Helvetica,sans-Serif" font-size="10.00" fill="#000000">TGeoBoolNode.h</text>
</g>
<!-- Node0&#45;&gt;Node6 -->
<g id="edge6" class="edge">
<title>Node0&#45;&gt;Node6</title>
<path fill="none" stroke="#191970" d="M1267.682,-246.3258C1240.8865,-235.161 1210.7665,-222.6111 1188.6418,-213.3924"/>
<polygon fill="#191970" stroke="#191970" points="1189.9586,-210.1494 1179.3816,-209.534 1187.2662,-216.611 1189.9586,-210.1494"/>
</g>
<!-- Node7 -->
<g id="node8" class="node">
<title>Node7</title>
<polygon fill="none" stroke="#bfbfbf" points="1224,-190.5 1224,-209.5 1299,-209.5 1299,-190.5 1224,-190.5"/>
<text text-anchor="middle" x="1261.5" y="-197.5" font-family="Helvetica,sans-Serif" font-size="10.00" fill="#000000">FairLogger.h</text>
</g>
<!-- Node0&#45;&gt;Node7 -->
<g id="edge7" class="edge">
<title>Node0&#45;&gt;Node7</title>
<path fill="none" stroke="#191970" d="M1305.5894,-246.3258C1296.2501,-236.5128 1285.8925,-225.6298 1277.5642,-216.879"/>
<polygon fill="#191970" stroke="#191970" points="1280.0032,-214.3649 1270.5737,-209.534 1274.9325,-219.1907 1280.0032,-214.3649"/>
</g>
<!-- Node8 -->
<g id="node9" class="node">
<title>Node8</title>
<g id="a_node9"><a xlink:href="../../da/d2d/AlpideChip_8h.html" target="_top" xlink:title="Creates an ALPIDE chip in simulation. ">
<polygon fill="none" stroke="#000000" points="1316.5,-190.5 1316.5,-209.5 1484.5,-209.5 1484.5,-190.5 1316.5,-190.5"/>
<text text-anchor="middle" x="1400.5" y="-197.5" font-family="Helvetica,sans-Serif" font-size="10.00" fill="#000000">ITSMFTSimulation/AlpideChip.h</text>
</a>
</g>
</g>
<!-- Node0&#45;&gt;Node8 -->
<g id="edge8" class="edge">
<title>Node0&#45;&gt;Node8</title>
<path fill="none" stroke="#191970" d="M1355.7716,-246.3258C1365.2462,-236.5128 1375.754,-225.6298 1384.203,-216.879"/>
<polygon fill="#191970" stroke="#191970" points="1386.8667,-219.1591 1391.2948,-209.534 1381.8309,-214.297 1386.8667,-219.1591"/>
</g>
<!-- Node10 -->
<g id="node11" class="node">
<title>Node10</title>
<g id="a_node11"><a xlink:href="../../d3/dba/SegmentationAlpide_8h.html" target="_top" xlink:title="Definition of the SegmentationAlpide class. ">
<polygon fill="none" stroke="#000000" points="525.5,-190.5 525.5,-209.5 711.5,-209.5 711.5,-190.5 525.5,-190.5"/>
<text text-anchor="middle" x="618.5" y="-197.5" font-family="Helvetica,sans-Serif" font-size="10.00" fill="#000000">ITSMFTBase/SegmentationAlpide.h</text>
</a>
</g>
</g>
<!-- Node0&#45;&gt;Node10 -->
<g id="edge11" class="edge">
<title>Node0&#45;&gt;Node10</title>
<path fill="none" stroke="#191970" d="M1266.6882,-266.0023C1143.316,-253.4398 871.1002,-225.7212 721.6762,-210.506"/>
<polygon fill="#191970" stroke="#191970" points="721.8772,-207.0085 711.5741,-209.4773 721.168,-213.9724 721.8772,-207.0085"/>
</g>
<!-- Node21 -->
<g id="node22" class="node">
<title>Node21</title>
<g id="a_node22"><a xlink:href="../../d9/de7/LadderSegmentation_8h.html" target="_top" xlink:title="Description of the virtual segmentation of a ladder. ">
<polygon fill="none" stroke="#000000" points="1541,-190.5 1541,-209.5 1714,-209.5 1714,-190.5 1541,-190.5"/>
<text text-anchor="middle" x="1627.5" y="-197.5" font-family="Helvetica,sans-Serif" font-size="10.00" fill="#000000">MFTBase/LadderSegmentation.h</text>
</a>
</g>
</g>
<!-- Node0&#45;&gt;Node21 -->
<g id="edge25" class="edge">
<title>Node0&#45;&gt;Node21</title>
<path fill="none" stroke="#191970" d="M1394.214,-256.9469C1449.3872,-243.4787 1528.043,-224.2782 1578.4357,-211.977"/>
<polygon fill="#191970" stroke="#191970" points="1579.5468,-215.3086 1588.4315,-209.5369 1577.8867,-208.5083 1579.5468,-215.3086"/>
</g>
<!-- Node26 -->
<g id="node27" class="node">
<title>Node26</title>
<g id="a_node27"><a xlink:href="../../d3/dbd/ChipSegmentation_8h.html" target="_top" xlink:title="Chip (sensor) segmentation description. ">
<polygon fill="none" stroke="#000000" points="1693.5,-134.5 1693.5,-153.5 1855.5,-153.5 1855.5,-134.5 1693.5,-134.5"/>
<text text-anchor="middle" x="1774.5" y="-141.5" font-family="Helvetica,sans-Serif" font-size="10.00" fill="#000000">MFTBase/ChipSegmentation.h</text>
</a>
</g>
</g>
<!-- Node0&#45;&gt;Node26 -->
<g id="edge33" class="edge">
<title>Node0&#45;&gt;Node26</title>
<path fill="none" stroke="#191970" d="M1394.2858,-267.9708C1490.6896,-260.1923 1668.0449,-241.9647 1722.5,-210 1741.4883,-198.854 1756.1623,-177.9079 1765.0085,-162.5927"/>
<polygon fill="#191970" stroke="#191970" points="1768.2515,-163.9561 1769.9669,-153.5011 1762.1061,-160.6045 1768.2515,-163.9561"/>
</g>
<!-- Node27 -->
<g id="node28" class="node">
<title>Node27</title>
<g id="a_node28"><a xlink:href="../../d2/d8d/Flex_8h.html" target="_top" xlink:title="Flex (Printed Cabled Board) class for ALICE MFT upgrade. ">
<polygon fill="none" stroke="#000000" points="1770.5,-190.5 1770.5,-209.5 1862.5,-209.5 1862.5,-190.5 1770.5,-190.5"/>
<text text-anchor="middle" x="1816.5" y="-197.5" font-family="Helvetica,sans-Serif" font-size="10.00" fill="#000000">MFTBase/Flex.h</text>
</a>
</g>
</g>
<!-- Node0&#45;&gt;Node27 -->
<g id="edge34" class="edge">
<title>Node0&#45;&gt;Node27</title>
<path fill="none" stroke="#191970" d="M1394.0711,-263.5672C1477.3799,-251.7707 1628.0024,-230.1323 1756.5,-210 1757.7618,-209.8023 1759.0382,-209.601 1760.3251,-209.3968"/>
<polygon fill="#191970" stroke="#191970" points="1761.0093,-212.8318 1770.3269,-207.7886 1759.898,-205.9206 1761.0093,-212.8318"/>
</g>
<!-- Node28 -->
<g id="node29" class="node">
<title>Node28</title>
<g id="a_node29"><a xlink:href="../../d0/d12/Ladder_8h.html" target="_top" xlink:title="Class building the Ladder geometry. ">
<polygon fill="none" stroke="#000000" points="2003.5,-190.5 2003.5,-209.5 2107.5,-209.5 2107.5,-190.5 2003.5,-190.5"/>
<text text-anchor="middle" x="2055.5" y="-197.5" font-family="Helvetica,sans-Serif" font-size="10.00" fill="#000000">MFTBase/Ladder.h</text>
</a>
</g>
</g>
<!-- Node0&#45;&gt;Node28 -->
<g id="edge35" class="edge">
<title>Node0&#45;&gt;Node28</title>
<path fill="none" stroke="#191970" d="M1394.2035,-266.1296C1531.9386,-252.3561 1856.0412,-219.9459 1992.8344,-206.2666"/>
<polygon fill="#191970" stroke="#191970" points="1993.5356,-209.714 2003.1377,-205.2362 1992.839,-202.7487 1993.5356,-209.714"/>
</g>
<!-- Node30 -->
<g id="node31" class="node">
<title>Node30</title>
<g id="a_node31"><a xlink:href="../../d6/d2e/ITSMFT_2MFT_2base_2include_2MFTBase_2Geometry_8h.html" target="_top" xlink:title="MFTBase/Geometry.h">
<polygon fill="none" stroke="#000000" points="1874,-134.5 1874,-153.5 1993,-153.5 1993,-134.5 1874,-134.5"/>
<text text-anchor="middle" x="1933.5" y="-141.5" font-family="Helvetica,sans-Serif" font-size="10.00" fill="#000000">MFTBase/Geometry.h</text>
</a>
</g>
</g>
<!-- Node0&#45;&gt;Node30 -->
<g id="edge38" class="edge">
<title>Node0&#45;&gt;Node30</title>
<path fill="none" stroke="#191970" d="M1394.4621,-270.5803C1519.0466,-265.9585 1789.2432,-251.3528 1871.5,-210 1893.1046,-199.1388 1911.1296,-177.5033 1922.0773,-161.9614"/>
<polygon fill="#191970" stroke="#191970" points="1924.9968,-163.8919 1927.6789,-153.6422 1919.1904,-159.9823 1924.9968,-163.8919"/>
</g>
<!-- Node8&#45;&gt;Node2 -->
<g id="edge9" class="edge">
<title>Node8&#45;&gt;Node2</title>
<path fill="none" stroke="#191970" d="M1362.5891,-190.4369C1324.835,-180.9133 1266.7735,-166.2672 1225.9736,-155.9753"/>
<polygon fill="#191970" stroke="#191970" points="1226.8069,-152.576 1216.2546,-153.5237 1225.0947,-159.3633 1226.8069,-152.576"/>
</g>
<!-- Node9 -->
<g id="node10" class="node">
<title>Node9</title>
<polygon fill="none" stroke="#bfbfbf" points="1328,-73 1328,-92 1387,-92 1387,-73 1328,-73"/>
<text text-anchor="middle" x="1357.5" y="-80" font-family="Helvetica,sans-Serif" font-size="10.00" fill="#000000">Rtypes.h</text>
</g>
<!-- Node8&#45;&gt;Node9 -->
<g id="edge10" class="edge">
<title>Node8&#45;&gt;Node9</title>
<path fill="none" stroke="#191970" d="M1396.9811,-190.3845C1389.9258,-171.1053 1373.9301,-127.3963 1364.6084,-101.9241"/>
<polygon fill="#191970" stroke="#191970" points="1367.7911,-100.4364 1361.0675,-92.2484 1361.2174,-102.8422 1367.7911,-100.4364"/>
</g>
<!-- Node10&#45;&gt;Node9 -->
<g id="edge12" class="edge">
<title>Node10&#45;&gt;Node9</title>
<path fill="none" stroke="#191970" d="M690.4927,-190.4807C856.8945,-168.3385 1258.5517,-114.0435 1318.5,-98 1321.1152,-97.3001 1323.7928,-96.4769 1326.4596,-95.5808"/>
<polygon fill="#191970" stroke="#191970" points="1327.7542,-98.8341 1335.9395,-92.1072 1325.3458,-92.2614 1327.7542,-98.8341"/>
</g>
<!-- Node11 -->
<g id="node12" class="node">
<title>Node11</title>
<g id="a_node12"><a xlink:href="../../dd/d76/Cartesian3D_8h.html" target="_top" xlink:title="MathUtils/Cartesian3D.h">
<polygon fill="none" stroke="#000000" points="554,-134.5 554,-153.5 689,-153.5 689,-134.5 554,-134.5"/>
<text text-anchor="middle" x="621.5" y="-141.5" font-family="Helvetica,sans-Serif" font-size="10.00" fill="#000000">MathUtils/Cartesian3D.h</text>
</a>
</g>
</g>
<!-- Node10&#45;&gt;Node11 -->
<g id="edge13" class="edge">
<title>Node10&#45;&gt;Node11</title>
<path fill="none" stroke="#191970" d="M619.0226,-190.2455C619.414,-182.9382 619.9628,-172.6944 620.4444,-163.7046"/>
<polygon fill="#191970" stroke="#191970" points="623.9434,-163.8156 620.9834,-153.6427 616.9534,-163.4411 623.9434,-163.8156"/>
</g>
<!-- Node11&#45;&gt;Node1 -->
<g id="edge20" class="edge">
<title>Node11&#45;&gt;Node1</title>
<path fill="none" stroke="#191970" d="M605.5319,-134.4415C582.1468,-119.3126 543.5231,-89.2831 564.5,-67 592.0565,-37.7276 1185.2755,-21.0731 1365.2133,-16.6815"/>
<polygon fill="#191970" stroke="#191970" points="1365.3057,-20.1804 1375.2181,-16.4397 1365.1364,-13.1825 1365.3057,-20.1804"/>
</g>
<!-- Node11&#45;&gt;Node9 -->
<g id="edge19" class="edge">
<title>Node11&#45;&gt;Node9</title>
<path fill="none" stroke="#191970" d="M689.2233,-140.734C852.3862,-132.6933 1258.2453,-111.6069 1318.5,-98 1321.365,-97.353 1324.2948,-96.5254 1327.1979,-95.5902"/>
<polygon fill="#191970" stroke="#191970" points="1328.6216,-98.7971 1336.8326,-92.1016 1326.2384,-92.2153 1328.6216,-98.7971"/>
</g>
<!-- Node12 -->
<g id="node13" class="node">
<title>Node12</title>
<polygon fill="none" stroke="#bfbfbf" points="573.5,-67.5 573.5,-97.5 737.5,-97.5 737.5,-67.5 573.5,-67.5"/>
<text text-anchor="start" x="581.5" y="-85.5" font-family="Helvetica,sans-Serif" font-size="10.00" fill="#000000">Math/GenVector/Displacement</text>
<text text-anchor="middle" x="655.5" y="-74.5" font-family="Helvetica,sans-Serif" font-size="10.00" fill="#000000">Vector3D.h</text>
</g>
<!-- Node11&#45;&gt;Node12 -->
<g id="edge14" class="edge">
<title>Node11&#45;&gt;Node12</title>
<path fill="none" stroke="#191970" d="M626.8125,-134.3906C630.9453,-126.9151 636.8643,-116.2087 642.2536,-106.4605"/>
<polygon fill="#191970" stroke="#191970" points="645.4074,-107.9896 647.1827,-97.5446 639.2812,-104.6028 645.4074,-107.9896"/>
</g>
<!-- Node13 -->
<g id="node14" class="node">
<title>Node13</title>
<polygon fill="none" stroke="#bfbfbf" points="756,-73 756,-92 945,-92 945,-73 756,-73"/>
<text text-anchor="middle" x="850.5" y="-80" font-family="Helvetica,sans-Serif" font-size="10.00" fill="#000000">Math/GenVector/PositionVector3D.h</text>
</g>
<!-- Node11&#45;&gt;Node13 -->
<g id="edge15" class="edge">
<title>Node11&#45;&gt;Node13</title>
<path fill="none" stroke="#191970" d="M657.2813,-134.3906C697.1936,-123.6718 761.8397,-106.3105 805.2372,-94.6557"/>
<polygon fill="#191970" stroke="#191970" points="806.22,-98.0159 814.97,-92.0419 804.4044,-91.2554 806.22,-98.0159"/>
</g>
<!-- Node14 -->
<g id="node15" class="node">
<title>Node14</title>
<polygon fill="none" stroke="#bfbfbf" points="963.5,-73 963.5,-92 1123.5,-92 1123.5,-73 963.5,-73"/>
<text text-anchor="middle" x="1043.5" y="-80" font-family="Helvetica,sans-Serif" font-size="10.00" fill="#000000">Math/GenVector/Rotation3D.h</text>
</g>
<!-- Node11&#45;&gt;Node14 -->
<g id="edge16" class="edge">
<title>Node11&#45;&gt;Node14</title>
<path fill="none" stroke="#191970" d="M689.3138,-135.2677C756.4788,-126.4626 862.219,-112.1801 953.5,-98 962.0374,-96.6738 971.018,-95.2098 979.8665,-93.7269"/>
<polygon fill="#191970" stroke="#191970" points="980.494,-97.1706 989.7698,-92.0509 979.3259,-90.2687 980.494,-97.1706"/>
</g>
<!-- Node15 -->
<g id="node16" class="node">
<title>Node15</title>
<polygon fill="none" stroke="#bfbfbf" points="1141.5,-73 1141.5,-92 1309.5,-92 1309.5,-73 1141.5,-73"/>
<text text-anchor="middle" x="1225.5" y="-80" font-family="Helvetica,sans-Serif" font-size="10.00" fill="#000000">Math/GenVector/Transform3D.h</text>
</g>
<!-- Node11&#45;&gt;Node15 -->
<g id="edge17" class="edge">
<title>Node11&#45;&gt;Node15</title>
<path fill="none" stroke="#191970" d="M689.0461,-139.5482C787.0102,-132.7225 974.1301,-118.2964 1132.5,-98 1142.2415,-96.7516 1152.5252,-95.2369 1162.562,-93.6493"/>
<polygon fill="#191970" stroke="#191970" points="1163.1741,-97.0959 1172.4873,-92.0447 1162.0568,-90.1857 1163.1741,-97.0959"/>
</g>
<!-- Node16 -->
<g id="node17" class="node">
<title>Node16</title>
<polygon fill="none" stroke="#bfbfbf" points="277,-73 277,-92 450,-92 450,-73 277,-73"/>
<text text-anchor="middle" x="363.5" y="-80" font-family="Helvetica,sans-Serif" font-size="10.00" fill="#000000">Math/GenVector/Translation3D.h</text>
</g>
<!-- Node11&#45;&gt;Node16 -->
<g id="edge18" class="edge">
<title>Node11&#45;&gt;Node16</title>
<path fill="none" stroke="#191970" d="M581.4706,-134.4581C536.1845,-123.6632 462.3766,-106.0694 413.3794,-94.3899"/>
<polygon fill="#191970" stroke="#191970" points="414.1624,-90.9785 403.6233,-92.0643 412.5392,-97.7877 414.1624,-90.9785"/>
</g>
<!-- Node17 -->
<g id="node18" class="node">
<title>Node17</title>
<polygon fill="none" stroke="#bfbfbf" points="468,-73 468,-92 517,-92 517,-73 468,-73"/>
<text text-anchor="middle" x="492.5" y="-80" font-family="Helvetica,sans-Serif" font-size="10.00" fill="#000000">iosfwd</text>
</g>
<!-- Node11&#45;&gt;Node17 -->
<g id="edge21" class="edge">
<title>Node11&#45;&gt;Node17</title>
<path fill="none" stroke="#191970" d="M601.3438,-134.3906C579.949,-124.1908 545.938,-107.9763 521.6298,-96.3875"/>
<polygon fill="#191970" stroke="#191970" points="523.0476,-93.186 512.5147,-92.0419 520.0352,-99.5047 523.0476,-93.186"/>
</g>
<!-- Node18 -->
<g id="node19" class="node">
<title>Node18</title>
<g id="a_node19"><a xlink:href="../../d2/dd0/Cartesian2D_8h.html" target="_top" xlink:title="MathUtils/Cartesian2D.h">
<polygon fill="none" stroke="#000000" points="124,-73 124,-92 259,-92 259,-73 124,-73"/>
<text text-anchor="middle" x="191.5" y="-80" font-family="Helvetica,sans-Serif" font-size="10.00" fill="#000000">MathUtils/Cartesian2D.h</text>
</a>
</g>
</g>
<!-- Node11&#45;&gt;Node18 -->
<g id="edge22" class="edge">
<title>Node11&#45;&gt;Node18</title>
<path fill="none" stroke="#191970" d="M553.7519,-136.6643C482.3433,-128.5894 366.6854,-114.5365 267.5,-98 260.3771,-96.8125 252.9036,-95.4423 245.5388,-94.0182"/>
<polygon fill="#191970" stroke="#191970" points="246.0954,-90.5605 235.6065,-92.0548 244.7379,-97.4276 246.0954,-90.5605"/>
</g>
<!-- Node19 -->
<g id="node20" class="node">
<title>Node19</title>
<polygon fill="none" stroke="#bfbfbf" points="207.5,-.5 207.5,-30.5 371.5,-30.5 371.5,-.5 207.5,-.5"/>
<text text-anchor="start" x="215.5" y="-18.5" font-family="Helvetica,sans-Serif" font-size="10.00" fill="#000000">Math/GenVector/Displacement</text>
<text text-anchor="middle" x="289.5" y="-7.5" font-family="Helvetica,sans-Serif" font-size="10.00" fill="#000000">Vector2D.h</text>
</g>
<!-- Node18&#45;&gt;Node19 -->
<g id="edge23" class="edge">
<title>Node18&#45;&gt;Node19</title>
<path fill="none" stroke="#191970" d="M205.541,-72.9005C219.4588,-63.3853 241.228,-48.5023 259.112,-36.2755"/>
<polygon fill="#191970" stroke="#191970" points="261.2481,-39.0549 267.5279,-30.5218 257.2974,-33.2763 261.2481,-39.0549"/>
</g>
<!-- Node20 -->
<g id="node21" class="node">
<title>Node20</title>
<polygon fill="none" stroke="#bfbfbf" points="0,-6 0,-25 189,-25 189,-6 0,-6"/>
<text text-anchor="middle" x="94.5" y="-13" font-family="Helvetica,sans-Serif" font-size="10.00" fill="#000000">Math/GenVector/PositionVector2D.h</text>
</g>
<!-- Node18&#45;&gt;Node20 -->
<g id="edge24" class="edge">
<title>Node18&#45;&gt;Node20</title>
<path fill="none" stroke="#191970" d="M177.6023,-72.9005C161.6836,-61.9052 135.3879,-43.7422 116.6401,-30.7927"/>
<polygon fill="#191970" stroke="#191970" points="118.5892,-27.8852 108.372,-25.0817 114.6108,-33.6448 118.5892,-27.8852"/>
</g>
<!-- Node22 -->
<g id="node23" class="node">
<title>Node22</title>
<polygon fill="none" stroke="#bfbfbf" points="1445,-134.5 1445,-153.5 1534,-153.5 1534,-134.5 1445,-134.5"/>
<text text-anchor="middle" x="1489.5" y="-141.5" font-family="Helvetica,sans-Serif" font-size="10.00" fill="#000000">TClonesArray.h</text>
</g>
<!-- Node21&#45;&gt;Node22 -->
<g id="edge26" class="edge">
<title>Node21&#45;&gt;Node22</title>
<path fill="none" stroke="#191970" d="M1603.777,-190.3733C1581.3263,-181.2629 1547.4261,-167.5062 1522.3745,-157.3404"/>
<polygon fill="#191970" stroke="#191970" points="1523.4957,-154.0182 1512.9135,-153.5011 1520.8635,-160.5045 1523.4957,-154.0182"/>
</g>
<!-- Node23 -->
<g id="node24" class="node">
<title>Node23</title>
<polygon fill="none" stroke="#bfbfbf" points="1552,-134.5 1552,-153.5 1637,-153.5 1637,-134.5 1552,-134.5"/>
<text text-anchor="middle" x="1594.5" y="-141.5" font-family="Helvetica,sans-Serif" font-size="10.00" fill="#000000">TXMLEngine.h</text>
</g>
<!-- Node21&#45;&gt;Node23 -->
<g id="edge27" class="edge">
<title>Node21&#45;&gt;Node23</title>
<path fill="none" stroke="#191970" d="M1621.7518,-190.2455C1617.2565,-182.617 1610.8752,-171.7881 1605.4175,-162.5267"/>
<polygon fill="#191970" stroke="#191970" points="1608.2747,-160.4811 1600.1823,-153.6427 1602.2439,-164.035 1608.2747,-160.4811"/>
</g>
<!-- Node24 -->
<g id="node25" class="node">
<title>Node24</title>
<g id="a_node25"><a xlink:href="../../d3/de7/VSegmentation_8h.html" target="_top" xlink:title="Abstract base class for MFT Segmentation description. ">
<polygon fill="none" stroke="#000000" points="1647,-73 1647,-92 1794,-92 1794,-73 1647,-73"/>
<text text-anchor="middle" x="1720.5" y="-80" font-family="Helvetica,sans-Serif" font-size="10.00" fill="#000000">MFTBase/VSegmentation.h</text>
</a>
</g>
</g>
<!-- Node21&#45;&gt;Node24 -->
<g id="edge28" class="edge">
<title>Node21&#45;&gt;Node24</title>
<path fill="none" stroke="#191970" d="M1635.1106,-190.3845C1650.7105,-170.6749 1686.5191,-125.4328 1706.4541,-100.2461"/>
<polygon fill="#191970" stroke="#191970" points="1709.3225,-102.2617 1712.7843,-92.2484 1703.8336,-97.9174 1709.3225,-102.2617"/>
</g>
<!-- Node21&#45;&gt;Node26 -->
<g id="edge31" class="edge">
<title>Node21&#45;&gt;Node26</title>
<path fill="none" stroke="#191970" d="M1652.7702,-190.3733C1676.8966,-181.1822 1713.4362,-167.2624 1740.1877,-157.0713"/>
<polygon fill="#191970" stroke="#191970" points="1741.4607,-160.3318 1749.5596,-153.5011 1738.9687,-153.7904 1741.4607,-160.3318"/>
</g>
<!-- Node24&#45;&gt;Node1 -->
<g id="edge30" class="edge">
<title>Node24&#45;&gt;Node1</title>
<path fill="none" stroke="#191970" d="M1677.2671,-72.9717C1621.9466,-60.7794 1526.2611,-39.6908 1467.4569,-26.7306"/>
<polygon fill="#191970" stroke="#191970" points="1468.1554,-23.3007 1457.6365,-24.5663 1466.6488,-30.1366 1468.1554,-23.3007"/>
</g>
<!-- Node25 -->
<g id="node26" class="node">
<title>Node25</title>
<polygon fill="none" stroke="#bfbfbf" points="1900,-6 1900,-25 1967,-25 1967,-6 1900,-6"/>
<text text-anchor="middle" x="1933.5" y="-13" font-family="Helvetica,sans-Serif" font-size="10.00" fill="#000000">TNamed.h</text>
</g>
<!-- Node24&#45;&gt;Node25 -->
<g id="edge29" class="edge">
<title>Node24&#45;&gt;Node25</title>
<path fill="none" stroke="#191970" d="M1751.0177,-72.9005C1788.4247,-61.134 1851.9269,-41.1591 1893.2869,-28.1492"/>
<polygon fill="#191970" stroke="#191970" points="1894.5499,-31.421 1903.0389,-25.0817 1892.4495,-24.7436 1894.5499,-31.421"/>
</g>
<!-- Node26&#45;&gt;Node24 -->
<g id="edge32" class="edge">
<title>Node26&#45;&gt;Node24</title>
<path fill="none" stroke="#191970" d="M1766.0625,-134.3906C1757.9469,-125.1478 1745.4945,-110.966 1735.6576,-99.7628"/>
<polygon fill="#191970" stroke="#191970" points="1738.2846,-97.45 1729.0565,-92.2449 1733.0245,-102.0686 1738.2846,-97.45"/>
</g>
<!-- Node28&#45;&gt;Node25 -->
<g id="edge36" class="edge">
<title>Node28&#45;&gt;Node25</title>
<path fill="none" stroke="#191970" d="M2073.044,-190.3452C2092.6733,-178.1893 2120.2775,-156.1986 2108.5,-134 2079.7033,-79.7229 2013.7009,-45.7501 1971.4887,-28.7425"/>
<polygon fill="#191970" stroke="#191970" points="1972.6746,-25.4483 1962.0863,-25.0754 1970.131,-31.9698 1972.6746,-25.4483"/>
</g>
<!-- Node29 -->
<g id="node30" class="node">
<title>Node29</title>
<polygon fill="none" stroke="#bfbfbf" points="2011.5,-134.5 2011.5,-153.5 2099.5,-153.5 2099.5,-134.5 2011.5,-134.5"/>
<text text-anchor="middle" x="2055.5" y="-141.5" font-family="Helvetica,sans-Serif" font-size="10.00" fill="#000000">TGeoVolume.h</text>
</g>
<!-- Node28&#45;&gt;Node29 -->
<g id="edge37" class="edge">
<title>Node28&#45;&gt;Node29</title>
<path fill="none" stroke="#191970" d="M2055.5,-190.2455C2055.5,-182.9382 2055.5,-172.6944 2055.5,-163.7046"/>
<polygon fill="#191970" stroke="#191970" points="2059.0001,-163.6426 2055.5,-153.6427 2052.0001,-163.6427 2059.0001,-163.6426"/>
</g>
<!-- Node30&#45;&gt;Node25 -->
<g id="edge39" class="edge">
<title>Node30&#45;&gt;Node25</title>
<path fill="none" stroke="#191970" d="M1933.5,-134.3416C1933.5,-113.4114 1933.5,-63.504 1933.5,-35.4762"/>
<polygon fill="#191970" stroke="#191970" points="1937.0001,-35.2704 1933.5,-25.2705 1930.0001,-35.2705 1937.0001,-35.2704"/>
</g>
</g>
</svg>
