<?xml version="1.0" encoding="UTF-8" standalone="no"?>
<!DOCTYPE svg PUBLIC "-//W3C//DTD SVG 1.1//EN"
 "http://www.w3.org/Graphics/SVG/1.1/DTD/svg11.dtd">
<!-- Generated by graphviz version 2.40.1 (20161225.0304)
 -->
<!-- Title: /home/travis/build/AliceO2Group/AliceO2/GPU/GPUTracking/Base/GPUReconstructionConvert.cxx Pages: 1 -->
<!--zoomable 453 -->
<svg id="main" version="1.1" xmlns="http://www.w3.org/2000/svg" xmlns:xlink="http://www.w3.org/1999/xlink" xml:space="preserve" onload="init(evt)">
<style type="text/css"><![CDATA[
.edge:hover path { stroke: red; }
.edge:hover polygon { stroke: red; fill: red; }
]]></style>
<script type="text/javascript"><![CDATA[
var edges = document.getElementsByTagName('g');
if (edges && edges.length) {
  for (var i=0;i<edges.length;i++) {
    if (edges[i].id.substr(0,4)=='edge') {
      edges[i].setAttribute('class','edge');
    }
  }
}
]]></script>
        <defs>
                <circle id="rim" cx="0" cy="0" r="7"/>
                <circle id="rim2" cx="0" cy="0" r="3.5"/>
                <g id="zoomPlus">
                        <use xlink:href="#rim" fill="#404040">
                                <set attributeName="fill" to="#808080" begin="zoomplus.mouseover" end="zoomplus.mouseout"/>
                        </use>
                        <path d="M-4,0h8M0,-4v8" fill="none" stroke="white" stroke-width="1.5" pointer-events="none"/>
                </g>
                <g id="zoomMin">
                        <use xlink:href="#rim" fill="#404040">
                                <set attributeName="fill" to="#808080" begin="zoomminus.mouseover" end="zoomminus.mouseout"/>
                        </use>
                        <path d="M-4,0h8" fill="none" stroke="white" stroke-width="1.5" pointer-events="none"/>
                </g>
                <g id="dirArrow">
                        <path fill="none" stroke="white" stroke-width="1.5" d="M0,-3.0v7 M-2.5,-0.5L0,-3.0L2.5,-0.5"/>
                </g>
               <g id="resetDef">
                       <use xlink:href="#rim2" fill="#404040">
                               <set attributeName="fill" to="#808080" begin="reset.mouseover" end="reset.mouseout"/>
                       </use>
               </g>
        </defs>

<script type="text/javascript">
var viewWidth = 1499;
var viewHeight = 453;
var sectionId = 'dynsection-0';
</script>
<script xlink:href="../../svgpan.js"/>
<svg id="graph" class="graph">
<g id="viewport">
<title>/home/travis/build/AliceO2Group/AliceO2/GPU/GPUTracking/Base/GPUReconstructionConvert.cxx</title>
<!-- Node0 -->
<g id="node1" class="node">
<title>Node0</title>
<polygon fill="#bfbfbf" stroke="#000000" points="866.5,-392.5 866.5,-444.5 1037.5,-444.5 1037.5,-392.5 866.5,-392.5"/>
<text text-anchor="start" x="874.5" y="-432.5" font-family="Helvetica,sans-Serif" font-size="10.00" fill="#000000">/home/travis/build</text>
<text text-anchor="start" x="874.5" y="-421.5" font-family="Helvetica,sans-Serif" font-size="10.00" fill="#000000">/AliceO2Group/AliceO2</text>
<text text-anchor="start" x="874.5" y="-410.5" font-family="Helvetica,sans-Serif" font-size="10.00" fill="#000000">/GPU/GPUTracking/Base</text>
<text text-anchor="middle" x="952" y="-399.5" font-family="Helvetica,sans-Serif" font-size="10.00" fill="#000000">/GPUReconstructionConvert.cxx</text>
</g>
<!-- Node1 -->
<g id="node2" class="node">
<title>Node1</title>
<g id="a_node2"><a xlink:href="../../d1/dfa/GPUReconstructionConvert_8h.html" target="_top" xlink:title="GPUReconstructionConvert.h">
<polygon fill="none" stroke="#000000" points="494.5,-168.5 494.5,-187.5 651.5,-187.5 651.5,-168.5 494.5,-168.5"/>
<text text-anchor="middle" x="573" y="-175.5" font-family="Helvetica,sans-Serif" font-size="10.00" fill="#000000">GPUReconstructionConvert.h</text>
</a>
</g>
</g>
<!-- Node0&#45;&gt;Node1 -->
<g id="edge1" class="edge">
<title>Node0&#45;&gt;Node1</title>
<path fill="none" stroke="#191970" d="M906.3834,-392.4314C848.9828,-359.2726 747.7713,-299.6199 664,-244 639.2686,-227.5796 611.7996,-207.3714 593.5776,-193.6738"/>
<polygon fill="#191970" stroke="#191970" points="595.5166,-190.7522 585.4276,-187.5176 591.2975,-196.3378 595.5166,-190.7522"/>
</g>
<!-- Node12 -->
<g id="node13" class="node">
<title>Node12</title>
<g id="a_node13"><a xlink:href="../../d4/db1/TPCFastTransform_8h.html" target="_top" xlink:title="Definition of TPCFastTransform class. ">
<polygon fill="none" stroke="#000000" points="307.5,-336.5 307.5,-355.5 420.5,-355.5 420.5,-336.5 307.5,-336.5"/>
<text text-anchor="middle" x="364" y="-343.5" font-family="Helvetica,sans-Serif" font-size="10.00" fill="#000000">TPCFastTransform.h</text>
</a>
</g>
</g>
<!-- Node0&#45;&gt;Node12 -->
<g id="edge12" class="edge">
<title>Node0&#45;&gt;Node12</title>
<path fill="none" stroke="#191970" d="M866.4998,-407.9579C748.4745,-393.4054 538.087,-367.4648 430.8457,-354.242"/>
<polygon fill="#191970" stroke="#191970" points="431.1493,-350.753 420.7961,-353.0029 430.2926,-357.7004 431.1493,-350.753"/>
</g>
<!-- Node23 -->
<g id="node24" class="node">
<title>Node23</title>
<polygon fill="none" stroke="#bfbfbf" points="1280,-112.5 1280,-131.5 1344,-131.5 1344,-112.5 1280,-112.5"/>
<text text-anchor="middle" x="1312" y="-119.5" font-family="Helvetica,sans-Serif" font-size="10.00" fill="#000000">algorithm</text>
</g>
<!-- Node0&#45;&gt;Node23 -->
<g id="edge63" class="edge">
<title>Node0&#45;&gt;Node23</title>
<path fill="none" stroke="#191970" d="M1037.7311,-412.2596C1171.5701,-400.1294 1415,-367.4245 1415,-290 1415,-290 1415,-290 1415,-234 1415,-189.4711 1370.3441,-155.0241 1339.8393,-136.6879"/>
<polygon fill="#191970" stroke="#191970" points="1341.3019,-133.4909 1330.8918,-131.5213 1337.8015,-139.5529 1341.3019,-133.4909"/>
</g>
<!-- Node25 -->
<g id="node26" class="node">
<title>Node25</title>
<g id="a_node26"><a xlink:href="../../d1/dde/GPUTPCClusterData_8h.html" target="_top" xlink:title="GPUTPCClusterData.h">
<polygon fill="none" stroke="#000000" points="1187.5,-280.5 1187.5,-299.5 1310.5,-299.5 1310.5,-280.5 1187.5,-280.5"/>
<text text-anchor="middle" x="1249" y="-287.5" font-family="Helvetica,sans-Serif" font-size="10.00" fill="#000000">GPUTPCClusterData.h</text>
</a>
</g>
</g>
<!-- Node0&#45;&gt;Node25 -->
<g id="edge41" class="edge">
<title>Node0&#45;&gt;Node25</title>
<path fill="none" stroke="#191970" d="M963.3237,-392.4154C972.8045,-373.7457 988.1462,-349.5968 1009,-336 1036.2119,-318.2577 1116.7512,-305.2814 1177.0786,-297.7181"/>
<polygon fill="#191970" stroke="#191970" points="1177.8322,-301.1519 1187.3314,-296.4599 1176.9795,-294.204 1177.8322,-301.1519"/>
</g>
<!-- Node27 -->
<g id="node28" class="node">
<title>Node27</title>
<g id="a_node28"><a xlink:href="../../d5/d5c/GPUO2DataTypes_8h.html" target="_top" xlink:title="GPUO2DataTypes.h">
<polygon fill="none" stroke="#000000" points="673.5,-224.5 673.5,-243.5 784.5,-243.5 784.5,-224.5 673.5,-224.5"/>
<text text-anchor="middle" x="729" y="-231.5" font-family="Helvetica,sans-Serif" font-size="10.00" fill="#000000">GPUO2DataTypes.h</text>
</a>
</g>
</g>
<!-- Node0&#45;&gt;Node27 -->
<g id="edge44" class="edge">
<title>Node0&#45;&gt;Node27</title>
<path fill="none" stroke="#191970" d="M920.5225,-392.457C873.8666,-353.856 787.7013,-282.5668 748.8799,-250.4477"/>
<polygon fill="#191970" stroke="#191970" points="750.8577,-247.5414 740.9217,-243.8635 746.3954,-252.9348 750.8577,-247.5414"/>
</g>
<!-- Node29 -->
<g id="node30" class="node">
<title>Node29</title>
<g id="a_node30"><a xlink:href="../../d4/dc5/GPUDataTypes_8h.html" target="_top" xlink:title="GPUDataTypes.h">
<polygon fill="none" stroke="#000000" points="568,-112.5 568,-131.5 666,-131.5 666,-112.5 568,-112.5"/>
<text text-anchor="middle" x="617" y="-119.5" font-family="Helvetica,sans-Serif" font-size="10.00" fill="#000000">GPUDataTypes.h</text>
</a>
</g>
</g>
<!-- Node0&#45;&gt;Node29 -->
<g id="edge51" class="edge">
<title>Node0&#45;&gt;Node29</title>
<path fill="none" stroke="#191970" d="M866.2317,-413.397C726.7107,-402.7192 466,-371.8198 466,-290 466,-290 466,-290 466,-234 466,-203.4754 464.0178,-190.1698 485,-168 504.0713,-147.8494 532.434,-136.5225 557.986,-130.1571"/>
<polygon fill="#191970" stroke="#191970" points="559.014,-133.5126 567.9847,-127.8755 557.4567,-126.688 559.014,-133.5126"/>
</g>
<!-- Node31 -->
<g id="node32" class="node">
<title>Node31</title>
<g id="a_node32"><a xlink:href="../../dd/d86/AliHLTTPCRawCluster_8h.html" target="_top" xlink:title="AliHLTTPCRawCluster.h">
<polygon fill="none" stroke="#000000" points="1018.5,-336.5 1018.5,-355.5 1147.5,-355.5 1147.5,-336.5 1018.5,-336.5"/>
<text text-anchor="middle" x="1083" y="-343.5" font-family="Helvetica,sans-Serif" font-size="10.00" fill="#000000">AliHLTTPCRawCluster.h</text>
</a>
</g>
</g>
<!-- Node0&#45;&gt;Node31 -->
<g id="edge52" class="edge">
<title>Node0&#45;&gt;Node31</title>
<path fill="none" stroke="#191970" d="M999.294,-392.3258C1018.6534,-381.6116 1040.3178,-369.6218 1056.7556,-360.5246"/>
<polygon fill="#191970" stroke="#191970" points="1058.7184,-363.4386 1065.773,-355.534 1055.3288,-357.314 1058.7184,-363.4386"/>
</g>
<!-- Node32 -->
<g id="node33" class="node">
<title>Node32</title>
<g id="a_node33"><a xlink:href="../../df/d13/GPUParam_8h.html" target="_top" xlink:title="GPUParam.h">
<polygon fill="none" stroke="#000000" points="1015.5,-280.5 1015.5,-299.5 1092.5,-299.5 1092.5,-280.5 1015.5,-280.5"/>
<text text-anchor="middle" x="1054" y="-287.5" font-family="Helvetica,sans-Serif" font-size="10.00" fill="#000000">GPUParam.h</text>
</a>
</g>
</g>
<!-- Node0&#45;&gt;Node32 -->
<g id="edge53" class="edge">
<title>Node0&#45;&gt;Node32</title>
<path fill="none" stroke="#191970" d="M954.5467,-392.4352C957.383,-374.959 963.3705,-352.2554 976,-336 986.943,-321.9153 1003.5063,-311.28 1018.559,-303.803"/>
<polygon fill="#191970" stroke="#191970" points="1020.0888,-306.9515 1027.6725,-299.553 1017.1302,-300.6074 1020.0888,-306.9515"/>
</g>
<!-- Node36 -->
<g id="node37" class="node">
<title>Node36</title>
<polygon fill="none" stroke="#bfbfbf" points="1443.5,-336.5 1443.5,-355.5 1490.5,-355.5 1490.5,-336.5 1443.5,-336.5"/>
<text text-anchor="middle" x="1467" y="-343.5" font-family="Helvetica,sans-Serif" font-size="10.00" fill="#000000">vector</text>
</g>
<!-- Node0&#45;&gt;Node36 -->
<g id="edge64" class="edge">
<title>Node0&#45;&gt;Node36</title>
<path fill="none" stroke="#191970" d="M1037.8355,-410.5709C1133.7411,-400.9436 1293.3616,-382.6215 1429,-356 1430.4643,-355.7126 1431.9559,-355.4013 1433.4593,-355.0723"/>
<polygon fill="#191970" stroke="#191970" points="1434.4724,-358.429 1443.3907,-352.7094 1432.8521,-351.6191 1434.4724,-358.429"/>
</g>
<!-- Node2 -->
<g id="node3" class="node">
<title>Node2</title>
<polygon fill="none" stroke="#bfbfbf" points="179,-56.5 179,-75.5 237,-75.5 237,-56.5 179,-56.5"/>
<text text-anchor="middle" x="208" y="-63.5" font-family="Helvetica,sans-Serif" font-size="10.00" fill="#000000">memory</text>
</g>
<!-- Node1&#45;&gt;Node2 -->
<g id="edge2" class="edge">
<title>Node1&#45;&gt;Node2</title>
<path fill="none" stroke="#191970" d="M563.2134,-168.263C547.6805,-153.4471 515.7721,-125.5381 483,-112 387.5107,-72.5534 352.4611,-96.0587 247.4305,-76.0666"/>
<polygon fill="#191970" stroke="#191970" points="247.8766,-72.5867 237.3853,-74.0638 246.5079,-79.4516 247.8766,-72.5867"/>
</g>
<!-- Node3 -->
<g id="node4" class="node">
<title>Node3</title>
<g id="a_node4"><a xlink:href="../../d2/d6d/GPUDef_8h.html" target="_top" xlink:title="GPUDef.h">
<polygon fill="none" stroke="#000000" points="1095.5,-112.5 1095.5,-131.5 1158.5,-131.5 1158.5,-112.5 1095.5,-112.5"/>
<text text-anchor="middle" x="1127" y="-119.5" font-family="Helvetica,sans-Serif" font-size="10.00" fill="#000000">GPUDef.h</text>
</a>
</g>
</g>
<!-- Node1&#45;&gt;Node3 -->
<g id="edge3" class="edge">
<title>Node1&#45;&gt;Node3</title>
<path fill="none" stroke="#191970" d="M651.6704,-168.9472C654.8206,-168.6205 657.9398,-168.3034 661,-168 846.4165,-149.6158 897.1879,-162.107 1085.3733,-131.8581"/>
<polygon fill="#191970" stroke="#191970" points="1086.0069,-135.3012 1095.3153,-130.2412 1084.8831,-128.3919 1086.0069,-135.3012"/>
</g>
<!-- Node4 -->
<g id="node5" class="node">
<title>Node4</title>
<g id="a_node5"><a xlink:href="../../df/d21/GPUCommonDef_8h.html" target="_top" xlink:title="GPUCommonDef.h">
<polygon fill="none" stroke="#000000" points="563.5,-56.5 563.5,-75.5 670.5,-75.5 670.5,-56.5 563.5,-56.5"/>
<text text-anchor="middle" x="617" y="-63.5" font-family="Helvetica,sans-Serif" font-size="10.00" fill="#000000">GPUCommonDef.h</text>
</a>
</g>
</g>
<!-- Node3&#45;&gt;Node4 -->
<g id="edge4" class="edge">
<title>Node3&#45;&gt;Node4</title>
<path fill="none" stroke="#191970" d="M1095.3083,-113.801C1092.1754,-113.132 1089.0336,-112.5161 1086,-112 942.3243,-87.5589 771.5129,-74.8591 680.8966,-69.3947"/>
<polygon fill="#191970" stroke="#191970" points="680.9728,-65.8932 670.7831,-68.7949 680.5584,-72.8809 680.9728,-65.8932"/>
</g>
<!-- Node7 -->
<g id="node8" class="node">
<title>Node7</title>
<g id="a_node8"><a xlink:href="../../d2/d37/GPUDefConstantsAndSettings_8h.html" target="_top" xlink:title="GPUDefConstantsAndSettings.h">
<polygon fill="none" stroke="#000000" points="867.5,-56.5 867.5,-75.5 1038.5,-75.5 1038.5,-56.5 867.5,-56.5"/>
<text text-anchor="middle" x="953" y="-63.5" font-family="Helvetica,sans-Serif" font-size="10.00" fill="#000000">GPUDefConstantsAndSettings.h</text>
</a>
</g>
</g>
<!-- Node3&#45;&gt;Node7 -->
<g id="edge7" class="edge">
<title>Node3&#45;&gt;Node7</title>
<path fill="none" stroke="#191970" d="M1097.0883,-112.3733C1068.1548,-103.0613 1024.1389,-88.8953 992.3707,-78.671"/>
<polygon fill="#191970" stroke="#191970" points="993.1128,-75.2331 982.5213,-75.5011 990.9682,-81.8965 993.1128,-75.2331"/>
</g>
<!-- Node8 -->
<g id="node9" class="node">
<title>Node8</title>
<g id="a_node9"><a xlink:href="../../dc/de9/GPUDefGPUParameters_8h.html" target="_top" xlink:title="GPUDefGPUParameters.h">
<polygon fill="none" stroke="#000000" points="1057,-56.5 1057,-75.5 1197,-75.5 1197,-56.5 1057,-56.5"/>
<text text-anchor="middle" x="1127" y="-63.5" font-family="Helvetica,sans-Serif" font-size="10.00" fill="#000000">GPUDefGPUParameters.h</text>
</a>
</g>
</g>
<!-- Node3&#45;&gt;Node8 -->
<g id="edge8" class="edge">
<title>Node3&#45;&gt;Node8</title>
<path fill="none" stroke="#191970" d="M1127,-112.2455C1127,-104.9382 1127,-94.6944 1127,-85.7046"/>
<polygon fill="#191970" stroke="#191970" points="1130.5001,-85.6426 1127,-75.6427 1123.5001,-85.6427 1130.5001,-85.6426"/>
</g>
<!-- Node9 -->
<g id="node10" class="node">
<title>Node9</title>
<g id="a_node10"><a xlink:href="../../d3/d4c/GPUDefOpenCL12Templates_8h.html" target="_top" xlink:title="GPUDefOpenCL12Templates.h">
<polygon fill="none" stroke="#000000" points="1215,-56.5 1215,-75.5 1379,-75.5 1379,-56.5 1215,-56.5"/>
<text text-anchor="middle" x="1297" y="-63.5" font-family="Helvetica,sans-Serif" font-size="10.00" fill="#000000">GPUDefOpenCL12Templates.h</text>
</a>
</g>
</g>
<!-- Node3&#45;&gt;Node9 -->
<g id="edge9" class="edge">
<title>Node3&#45;&gt;Node9</title>
<path fill="none" stroke="#191970" d="M1156.224,-112.3733C1184.4925,-103.0613 1227.4965,-88.8953 1258.5344,-78.671"/>
<polygon fill="#191970" stroke="#191970" points="1259.7544,-81.9542 1268.1573,-75.5011 1257.5643,-75.3056 1259.7544,-81.9542"/>
</g>
<!-- Node10 -->
<g id="node11" class="node">
<title>Node10</title>
<g id="a_node11"><a xlink:href="../../d2/d45/GPUCommonRtypes_8h.html" target="_top" xlink:title="GPUCommonRtypes.h">
<polygon fill="none" stroke="#000000" points="373.5,-56.5 373.5,-75.5 498.5,-75.5 498.5,-56.5 373.5,-56.5"/>
<text text-anchor="middle" x="436" y="-63.5" font-family="Helvetica,sans-Serif" font-size="10.00" fill="#000000">GPUCommonRtypes.h</text>
</a>
</g>
</g>
<!-- Node3&#45;&gt;Node10 -->
<g id="edge10" class="edge">
<title>Node3&#45;&gt;Node10</title>
<path fill="none" stroke="#191970" d="M1095.3239,-113.7049C1092.1879,-113.0553 1089.0411,-112.4702 1086,-112 851.7976,-75.7891 790.3001,-94.0065 554,-76 539.4257,-74.8894 523.8458,-73.6244 508.9428,-72.3765"/>
<polygon fill="#191970" stroke="#191970" points="509.0129,-68.8701 498.7541,-71.5173 508.4246,-75.8453 509.0129,-68.8701"/>
</g>
<!-- Node5 -->
<g id="node6" class="node">
<title>Node5</title>
<g id="a_node6"><a xlink:href="../../d5/d93/GPUCommonDefSettings_8h.html" target="_top" xlink:title="GPUCommonDefSettings.h">
<polygon fill="none" stroke="#000000" points="661,-.5 661,-19.5 809,-19.5 809,-.5 661,-.5"/>
<text text-anchor="middle" x="735" y="-7.5" font-family="Helvetica,sans-Serif" font-size="10.00" fill="#000000">GPUCommonDefSettings.h</text>
</a>
</g>
</g>
<!-- Node4&#45;&gt;Node5 -->
<g id="edge5" class="edge">
<title>Node4&#45;&gt;Node5</title>
<path fill="none" stroke="#191970" d="M637.2849,-56.3733C656.1421,-47.4241 684.446,-33.9917 705.7455,-23.8835"/>
<polygon fill="#191970" stroke="#191970" points="707.4461,-26.9506 714.9798,-19.5011 704.4449,-20.6266 707.4461,-26.9506"/>
</g>
<!-- Node6 -->
<g id="node7" class="node">
<title>Node6</title>
<g id="a_node7"><a xlink:href="../../da/d5a/GPUCommonDefAPI_8h.html" target="_top" xlink:title="GPUCommonDefAPI.h">
<polygon fill="none" stroke="#000000" points="519,-.5 519,-19.5 643,-19.5 643,-.5 519,-.5"/>
<text text-anchor="middle" x="581" y="-7.5" font-family="Helvetica,sans-Serif" font-size="10.00" fill="#000000">GPUCommonDefAPI.h</text>
</a>
</g>
</g>
<!-- Node4&#45;&gt;Node6 -->
<g id="edge6" class="edge">
<title>Node4&#45;&gt;Node6</title>
<path fill="none" stroke="#191970" d="M610.7293,-56.2455C605.7736,-48.5367 598.717,-37.5598 592.7224,-28.2348"/>
<polygon fill="#191970" stroke="#191970" points="595.5506,-26.1618 587.1989,-19.6427 589.6624,-29.9471 595.5506,-26.1618"/>
</g>
<!-- Node11 -->
<g id="node12" class="node">
<title>Node11</title>
<polygon fill="none" stroke="#bfbfbf" points="406.5,-.5 406.5,-19.5 465.5,-19.5 465.5,-.5 406.5,-.5"/>
<text text-anchor="middle" x="436" y="-7.5" font-family="Helvetica,sans-Serif" font-size="10.00" fill="#000000">Rtypes.h</text>
</g>
<!-- Node10&#45;&gt;Node11 -->
<g id="edge11" class="edge">
<title>Node10&#45;&gt;Node11</title>
<path fill="none" stroke="#191970" d="M436,-56.2455C436,-48.9382 436,-38.6944 436,-29.7046"/>
<polygon fill="#191970" stroke="#191970" points="439.5001,-29.6426 436,-19.6427 432.5001,-29.6427 439.5001,-29.6426"/>
</g>
<!-- Node13 -->
<g id="node14" class="node">
<title>Node13</title>
<g id="a_node14"><a xlink:href="../../db/dff/FlatObject_8h.html" target="_top" xlink:title="Definition of FlatObject class. ">
<polygon fill="none" stroke="#000000" points="96.5,-112.5 96.5,-131.5 171.5,-131.5 171.5,-112.5 96.5,-112.5"/>
<text text-anchor="middle" x="134" y="-119.5" font-family="Helvetica,sans-Serif" font-size="10.00" fill="#000000">FlatObject.h</text>
</a>
</g>
</g>
<!-- Node12&#45;&gt;Node13 -->
<g id="edge13" class="edge">
<title>Node12&#45;&gt;Node13</title>
<path fill="none" stroke="#191970" d="M325.3126,-336.462C279.0422,-323.1686 202.0774,-294.7865 156,-244 130.4392,-215.8269 129.687,-168.4003 131.6709,-141.7365"/>
<polygon fill="#191970" stroke="#191970" points="135.1632,-141.9832 132.6243,-131.6971 128.1945,-141.3214 135.1632,-141.9832"/>
</g>
<!-- Node17 -->
<g id="node18" class="node">
<title>Node17</title>
<g id="a_node18"><a xlink:href="../../d5/dde/TPCFastTransformGeo_8h.html" target="_top" xlink:title="Definition of TPCFastTransformGeo class. ">
<polygon fill="none" stroke="#000000" points="342,-112.5 342,-131.5 474,-131.5 474,-112.5 342,-112.5"/>
<text text-anchor="middle" x="408" y="-119.5" font-family="Helvetica,sans-Serif" font-size="10.00" fill="#000000">TPCFastTransformGeo.h</text>
</a>
</g>
</g>
<!-- Node12&#45;&gt;Node17 -->
<g id="edge20" class="edge">
<title>Node12&#45;&gt;Node17</title>
<path fill="none" stroke="#191970" d="M378.3737,-336.1853C389.0705,-327.9414 402.8409,-315.1035 409,-300 430.9115,-246.2678 420.1413,-175.5943 412.8442,-141.7404"/>
<polygon fill="#191970" stroke="#191970" points="416.1999,-140.7144 410.5549,-131.7487 409.3767,-142.2778 416.1999,-140.7144"/>
</g>
<!-- Node18 -->
<g id="node19" class="node">
<title>Node18</title>
<g id="a_node19"><a xlink:href="../../d0/d28/TPCDistortionIRS_8h.html" target="_top" xlink:title="Definition of TPCDistortionIRS class. ">
<polygon fill="none" stroke="#000000" points="292,-280.5 292,-299.5 400,-299.5 400,-280.5 292,-280.5"/>
<text text-anchor="middle" x="346" y="-287.5" font-family="Helvetica,sans-Serif" font-size="10.00" fill="#000000">TPCDistortionIRS.h</text>
</a>
</g>
</g>
<!-- Node12&#45;&gt;Node18 -->
<g id="edge23" class="edge">
<title>Node12&#45;&gt;Node18</title>
<path fill="none" stroke="#191970" d="M360.8646,-336.2455C358.49,-328.8579 355.1507,-318.4689 352.2385,-309.4087"/>
<polygon fill="#191970" stroke="#191970" points="355.4917,-308.0919 349.0994,-299.6427 348.8275,-310.234 355.4917,-308.0919"/>
</g>
<!-- Node21 -->
<g id="node22" class="node">
<title>Node21</title>
<g id="a_node22"><a xlink:href="../../d6/da2/GPUCommonMath_8h.html" target="_top" xlink:title="GPUCommonMath.h">
<polygon fill="none" stroke="#000000" points="996.5,-168.5 996.5,-187.5 1111.5,-187.5 1111.5,-168.5 996.5,-168.5"/>
<text text-anchor="middle" x="1054" y="-175.5" font-family="Helvetica,sans-Serif" font-size="10.00" fill="#000000">GPUCommonMath.h</text>
</a>
</g>
</g>
<!-- Node12&#45;&gt;Node21 -->
<g id="edge36" class="edge">
<title>Node12&#45;&gt;Node21</title>
<path fill="none" stroke="#191970" d="M405.4825,-336.4378C482.1373,-318.7012 651.1024,-279.2932 793,-244 827.3124,-235.4657 835.7375,-232.7323 870,-224 915.9357,-212.2926 968.3967,-199.2052 1005.5166,-189.9925"/>
<polygon fill="#191970" stroke="#191970" points="1006.698,-193.3056 1015.5613,-187.5011 1005.0128,-186.5114 1006.698,-193.3056"/>
</g>
<!-- Node24 -->
<g id="node25" class="node">
<title>Node24</title>
<polygon fill="none" stroke="#bfbfbf" points="0,-280.5 0,-299.5 44,-299.5 44,-280.5 0,-280.5"/>
<text text-anchor="middle" x="22" y="-287.5" font-family="Helvetica,sans-Serif" font-size="10.00" fill="#000000">string</text>
</g>
<!-- Node12&#45;&gt;Node24 -->
<g id="edge40" class="edge">
<title>Node12&#45;&gt;Node24</title>
<path fill="none" stroke="#191970" d="M307.2304,-339.5659C245.515,-332.0839 144.1669,-318.3729 58,-300 56.751,-299.7337 55.4812,-299.4492 54.2012,-299.1509"/>
<polygon fill="#191970" stroke="#191970" points="54.9169,-295.7218 44.3642,-296.6663 53.2026,-302.5087 54.9169,-295.7218"/>
</g>
<!-- Node13&#45;&gt;Node2 -->
<g id="edge15" class="edge">
<title>Node13&#45;&gt;Node2</title>
<path fill="none" stroke="#191970" d="M146.8898,-112.2455C157.9254,-103.8943 174.0292,-91.7076 186.9353,-81.9408"/>
<polygon fill="#191970" stroke="#191970" points="189.3959,-84.4681 195.2579,-75.6427 185.1717,-78.8862 189.3959,-84.4681"/>
</g>
<!-- Node13&#45;&gt;Node4 -->
<g id="edge18" class="edge">
<title>Node13&#45;&gt;Node4</title>
<path fill="none" stroke="#191970" d="M171.9002,-117.6058C254.4618,-108.0334 451.3116,-85.2103 553.3012,-73.3854"/>
<polygon fill="#191970" stroke="#191970" points="553.9348,-76.8354 563.4651,-72.2069 553.1285,-69.882 553.9348,-76.8354"/>
</g>
<!-- Node13&#45;&gt;Node10 -->
<g id="edge19" class="edge">
<title>Node13&#45;&gt;Node10</title>
<path fill="none" stroke="#191970" d="M171.6379,-115.0208C222.563,-105.5777 314.0269,-88.6175 374.8773,-77.334"/>
<polygon fill="#191970" stroke="#191970" points="375.5489,-80.7692 384.7431,-75.5046 374.2726,-73.8866 375.5489,-80.7692"/>
</g>
<!-- Node14 -->
<g id="node15" class="node">
<title>Node14</title>
<polygon fill="none" stroke="#bfbfbf" points="255.5,-56.5 255.5,-75.5 308.5,-75.5 308.5,-56.5 255.5,-56.5"/>
<text text-anchor="middle" x="282" y="-63.5" font-family="Helvetica,sans-Serif" font-size="10.00" fill="#000000">cstddef</text>
</g>
<!-- Node13&#45;&gt;Node14 -->
<g id="edge14" class="edge">
<title>Node13&#45;&gt;Node14</title>
<path fill="none" stroke="#191970" d="M159.4421,-112.3733C183.7326,-103.1822 220.5208,-89.2624 247.4543,-79.0713"/>
<polygon fill="#191970" stroke="#191970" points="248.7757,-82.3136 256.8899,-75.5011 246.2984,-75.7666 248.7757,-82.3136"/>
</g>
<!-- Node15 -->
<g id="node16" class="node">
<title>Node15</title>
<polygon fill="none" stroke="#bfbfbf" points="41,-56.5 41,-75.5 91,-75.5 91,-56.5 41,-56.5"/>
<text text-anchor="middle" x="66" y="-63.5" font-family="Helvetica,sans-Serif" font-size="10.00" fill="#000000">cstring</text>
</g>
<!-- Node13&#45;&gt;Node15 -->
<g id="edge16" class="edge">
<title>Node13&#45;&gt;Node15</title>
<path fill="none" stroke="#191970" d="M122.1553,-112.2455C112.112,-103.9746 97.5005,-91.9416 85.6996,-82.2232"/>
<polygon fill="#191970" stroke="#191970" points="87.6533,-79.298 77.709,-75.6427 83.2033,-84.7015 87.6533,-79.298"/>
</g>
<!-- Node16 -->
<g id="node17" class="node">
<title>Node16</title>
<polygon fill="none" stroke="#bfbfbf" points="109,-56.5 109,-75.5 161,-75.5 161,-56.5 109,-56.5"/>
<text text-anchor="middle" x="135" y="-63.5" font-family="Helvetica,sans-Serif" font-size="10.00" fill="#000000">cassert</text>
</g>
<!-- Node13&#45;&gt;Node16 -->
<g id="edge17" class="edge">
<title>Node13&#45;&gt;Node16</title>
<path fill="none" stroke="#191970" d="M134.1742,-112.2455C134.3047,-104.9382 134.4876,-94.6944 134.6481,-85.7046"/>
<polygon fill="#191970" stroke="#191970" points="138.1486,-85.7036 134.8278,-75.6427 131.1497,-85.5786 138.1486,-85.7036"/>
</g>
<!-- Node17&#45;&gt;Node2 -->
<g id="edge22" class="edge">
<title>Node17&#45;&gt;Node2</title>
<path fill="none" stroke="#191970" d="M373.6188,-112.3733C338.3986,-102.5116 283.7352,-87.2059 246.9406,-76.9034"/>
<polygon fill="#191970" stroke="#191970" points="247.6409,-73.4649 237.0675,-74.1389 245.7534,-80.2056 247.6409,-73.4649"/>
</g>
<!-- Node17&#45;&gt;Node4 -->
<g id="edge21" class="edge">
<title>Node17&#45;&gt;Node4</title>
<path fill="none" stroke="#191970" d="M443.9284,-112.3733C479.2837,-102.9001 533.388,-88.4032 571.6788,-78.1435"/>
<polygon fill="#191970" stroke="#191970" points="572.787,-81.4701 581.5405,-75.5011 570.9753,-74.7086 572.787,-81.4701"/>
</g>
<!-- Node18&#45;&gt;Node4 -->
<g id="edge35" class="edge">
<title>Node18&#45;&gt;Node4</title>
<path fill="none" stroke="#191970" d="M352.86,-280.2582C368.5974,-258.3648 409.245,-204.3473 452,-168 495.6235,-130.9144 554.0791,-98.0995 588.4255,-80.2397"/>
<polygon fill="#191970" stroke="#191970" points="590.146,-83.2908 597.4413,-75.6078 586.9471,-77.0645 590.146,-83.2908"/>
</g>
<!-- Node18&#45;&gt;Node13 -->
<g id="edge34" class="edge">
<title>Node18&#45;&gt;Node13</title>
<path fill="none" stroke="#191970" d="M292.2006,-280.49C249.3451,-272.0116 193.7022,-258.6967 176,-244 145.2498,-218.4706 136.9612,-169.267 134.7616,-141.7889"/>
<polygon fill="#191970" stroke="#191970" points="138.2541,-141.5576 134.1564,-131.7873 131.2669,-141.9804 138.2541,-141.5576"/>
</g>
<!-- Node18&#45;&gt;Node17 -->
<g id="edge33" class="edge">
<title>Node18&#45;&gt;Node17</title>
<path fill="none" stroke="#191970" d="M347.141,-280.4313C349.912,-259.3337 358.1246,-207.5532 376,-168 380.531,-157.9741 387.3039,-147.829 393.4536,-139.6268"/>
<polygon fill="#191970" stroke="#191970" points="396.3392,-141.6186 399.7464,-131.5866 390.8268,-137.3042 396.3392,-141.6186"/>
</g>
<!-- Node19 -->
<g id="node20" class="node">
<title>Node19</title>
<g id="a_node20"><a xlink:href="../../d8/d4b/IrregularSpline2D3D_8h.html" target="_top" xlink:title="Definition of IrregularSpline2D3D class. ">
<polygon fill="none" stroke="#000000" points="185,-224.5 185,-243.5 309,-243.5 309,-224.5 185,-224.5"/>
<text text-anchor="middle" x="247" y="-231.5" font-family="Helvetica,sans-Serif" font-size="10.00" fill="#000000">IrregularSpline2D3D.h</text>
</a>
</g>
</g>
<!-- Node18&#45;&gt;Node19 -->
<g id="edge24" class="edge">
<title>Node18&#45;&gt;Node19</title>
<path fill="none" stroke="#191970" d="M328.7555,-280.2455C313.4239,-271.5731 290.7801,-258.7645 273.2084,-248.825"/>
<polygon fill="#191970" stroke="#191970" points="274.4741,-245.5198 264.0469,-243.6427 271.0276,-251.6126 274.4741,-245.5198"/>
</g>
<!-- Node19&#45;&gt;Node4 -->
<g id="edge32" class="edge">
<title>Node19&#45;&gt;Node4</title>
<path fill="none" stroke="#191970" d="M259.1754,-224.3853C269.6208,-215.6914 284.591,-202.1226 295,-188 317.406,-157.6003 302.5713,-134.3666 333,-112 350.4767,-99.1538 474.9875,-82.5625 553.2367,-73.2226"/>
<polygon fill="#191970" stroke="#191970" points="553.9637,-76.661 563.4827,-72.0094 553.1405,-69.7096 553.9637,-76.661"/>
</g>
<!-- Node19&#45;&gt;Node13 -->
<g id="edge31" class="edge">
<title>Node19&#45;&gt;Node13</title>
<path fill="none" stroke="#191970" d="M222.4576,-224.4393C205.1964,-216.7171 182.5021,-204.4314 167,-188 154.39,-174.6341 145.5509,-155.5261 140.2157,-141.3067"/>
<polygon fill="#191970" stroke="#191970" points="143.4144,-139.8501 136.8144,-131.5621 136.8054,-142.1569 143.4144,-139.8501"/>
</g>
<!-- Node20 -->
<g id="node21" class="node">
<title>Node20</title>
<g id="a_node21"><a xlink:href="../../d4/de4/IrregularSpline1D_8h.html" target="_top" xlink:title="Definition of IrregularSpline1D class. ">
<polygon fill="none" stroke="#000000" points="176,-168.5 176,-187.5 286,-187.5 286,-168.5 176,-168.5"/>
<text text-anchor="middle" x="231" y="-175.5" font-family="Helvetica,sans-Serif" font-size="10.00" fill="#000000">IrregularSpline1D.h</text>
</a>
</g>
</g>
<!-- Node19&#45;&gt;Node20 -->
<g id="edge25" class="edge">
<title>Node19&#45;&gt;Node20</title>
<path fill="none" stroke="#191970" d="M244.213,-224.2455C242.1023,-216.8579 239.134,-206.4689 236.5453,-197.4087"/>
<polygon fill="#191970" stroke="#191970" points="239.8677,-196.2964 233.755,-187.6427 233.137,-198.2195 239.8677,-196.2964"/>
</g>
<!-- Node20&#45;&gt;Node2 -->
<g id="edge29" class="edge">
<title>Node20&#45;&gt;Node2</title>
<path fill="none" stroke="#191970" d="M229.039,-168.4509C225.2708,-150.1013 216.9517,-109.5908 211.9776,-85.3693"/>
<polygon fill="#191970" stroke="#191970" points="215.3961,-84.6164 209.956,-75.5249 208.5392,-86.0246 215.3961,-84.6164"/>
</g>
<!-- Node20&#45;&gt;Node4 -->
<g id="edge26" class="edge">
<title>Node20&#45;&gt;Node4</title>
<path fill="none" stroke="#191970" d="M237.7978,-168.4466C248.9327,-153.6147 272.5835,-125.367 300,-112 322.2757,-101.1394 467.2243,-83.1007 553.2102,-73.1459"/>
<polygon fill="#191970" stroke="#191970" points="553.8581,-76.5945 563.3918,-71.973 553.057,-69.6405 553.8581,-76.5945"/>
</g>
<!-- Node20&#45;&gt;Node13 -->
<g id="edge27" class="edge">
<title>Node20&#45;&gt;Node13</title>
<path fill="none" stroke="#191970" d="M214.1039,-168.2455C199.082,-159.5731 176.8957,-146.7645 159.679,-136.825"/>
<polygon fill="#191970" stroke="#191970" points="161.1128,-133.6114 150.7025,-131.6427 157.6129,-139.6737 161.1128,-133.6114"/>
</g>
<!-- Node20&#45;&gt;Node14 -->
<g id="edge28" class="edge">
<title>Node20&#45;&gt;Node14</title>
<path fill="none" stroke="#191970" d="M235.3482,-168.4509C243.7791,-149.936 262.4838,-108.8591 273.4763,-84.7187"/>
<polygon fill="#191970" stroke="#191970" points="276.7039,-86.0762 277.6628,-75.5249 270.3333,-83.1753 276.7039,-86.0762"/>
</g>
<!-- Node20&#45;&gt;Node15 -->
<g id="edge30" class="edge">
<title>Node20&#45;&gt;Node15</title>
<path fill="none" stroke="#191970" d="M186.3543,-168.4657C149.5354,-159.772 101.1422,-146.1584 87,-132 74.8112,-119.7972 69.6885,-100.549 67.5402,-85.9813"/>
<polygon fill="#191970" stroke="#191970" points="71.0074,-85.493 66.4093,-75.948 64.0514,-86.2771 71.0074,-85.493"/>
</g>
<!-- Node21&#45;&gt;Node4 -->
<g id="edge37" class="edge">
<title>Node21&#45;&gt;Node4</title>
<path fill="none" stroke="#191970" d="M1046.3108,-168.3923C1033.77,-153.486 1007.348,-125.1383 978,-112 926.2917,-88.8516 769.8676,-75.5612 680.8193,-69.6771"/>
<polygon fill="#191970" stroke="#191970" points="681.0392,-66.1841 670.8337,-69.0297 680.5862,-73.1695 681.0392,-66.1841"/>
</g>
<!-- Node22 -->
<g id="node23" class="node">
<title>Node22</title>
<polygon fill="none" stroke="#bfbfbf" points="1030.5,-112.5 1030.5,-131.5 1077.5,-131.5 1077.5,-112.5 1030.5,-112.5"/>
<text text-anchor="middle" x="1054" y="-119.5" font-family="Helvetica,sans-Serif" font-size="10.00" fill="#000000">cmath</text>
</g>
<!-- Node21&#45;&gt;Node22 -->
<g id="edge38" class="edge">
<title>Node21&#45;&gt;Node22</title>
<path fill="none" stroke="#191970" d="M1054,-168.2455C1054,-160.9382 1054,-150.6944 1054,-141.7046"/>
<polygon fill="#191970" stroke="#191970" points="1057.5001,-141.6426 1054,-131.6427 1050.5001,-141.6427 1057.5001,-141.6426"/>
</g>
<!-- Node21&#45;&gt;Node23 -->
<g id="edge39" class="edge">
<title>Node21&#45;&gt;Node23</title>
<path fill="none" stroke="#191970" d="M1098.0586,-168.4369C1146.1945,-157.9888 1222.7355,-141.3752 1270.0301,-131.1097"/>
<polygon fill="#191970" stroke="#191970" points="1270.9157,-134.4991 1279.9458,-128.9575 1269.4309,-127.6584 1270.9157,-134.4991"/>
</g>
<!-- Node26 -->
<g id="node27" class="node">
<title>Node26</title>
<g id="a_node27"><a xlink:href="../../da/dab/GPUTPCDef_8h.html" target="_top" xlink:title="GPUTPCDef.h">
<polygon fill="none" stroke="#000000" points="1229,-168.5 1229,-187.5 1311,-187.5 1311,-168.5 1229,-168.5"/>
<text text-anchor="middle" x="1270" y="-175.5" font-family="Helvetica,sans-Serif" font-size="10.00" fill="#000000">GPUTPCDef.h</text>
</a>
</g>
</g>
<!-- Node25&#45;&gt;Node26 -->
<g id="edge42" class="edge">
<title>Node25&#45;&gt;Node26</title>
<path fill="none" stroke="#191970" d="M1303.018,-280.4617C1323.8276,-273.8668 1345.5668,-262.742 1358,-244 1373.5275,-220.5935 1342.1643,-202.2966 1312.6659,-190.9644"/>
<polygon fill="#191970" stroke="#191970" points="1313.81,-187.6562 1303.2159,-187.5321 1311.4203,-194.2357 1313.81,-187.6562"/>
</g>
<!-- Node26&#45;&gt;Node3 -->
<g id="edge43" class="edge">
<title>Node26&#45;&gt;Node3</title>
<path fill="none" stroke="#191970" d="M1245.4174,-168.3733C1222.0504,-159.2226 1186.7138,-145.3844 1160.7216,-135.2057"/>
<polygon fill="#191970" stroke="#191970" points="1161.8495,-131.8886 1151.2618,-131.5011 1159.297,-138.4066 1161.8495,-131.8886"/>
</g>
<!-- Node28 -->
<g id="node29" class="node">
<title>Node28</title>
<g id="a_node29"><a xlink:href="../../da/d28/GPUO2FakeClasses_8h.html" target="_top" xlink:title="GPUO2FakeClasses.h">
<polygon fill="none" stroke="#000000" points="670,-168.5 670,-187.5 790,-187.5 790,-168.5 670,-168.5"/>
<text text-anchor="middle" x="730" y="-175.5" font-family="Helvetica,sans-Serif" font-size="10.00" fill="#000000">GPUO2FakeClasses.h</text>
</a>
</g>
</g>
<!-- Node27&#45;&gt;Node28 -->
<g id="edge45" class="edge">
<title>Node27&#45;&gt;Node28</title>
<path fill="none" stroke="#191970" d="M729.1742,-224.2455C729.3047,-216.9382 729.4876,-206.6944 729.6481,-197.7046"/>
<polygon fill="#191970" stroke="#191970" points="733.1486,-197.7036 729.8278,-187.6427 726.1497,-197.5786 733.1486,-197.7036"/>
</g>
<!-- Node30 -->
<g id="node31" class="node">
<title>Node30</title>
<g id="a_node31"><a xlink:href="../../d3/d1f/GPUdEdxInfo_8h.html" target="_top" xlink:title="GPUdEdxInfo.h">
<polygon fill="none" stroke="#000000" points="808.5,-168.5 808.5,-187.5 897.5,-187.5 897.5,-168.5 808.5,-168.5"/>
<text text-anchor="middle" x="853" y="-175.5" font-family="Helvetica,sans-Serif" font-size="10.00" fill="#000000">GPUdEdxInfo.h</text>
</a>
</g>
</g>
<!-- Node27&#45;&gt;Node30 -->
<g id="edge50" class="edge">
<title>Node27&#45;&gt;Node30</title>
<path fill="none" stroke="#191970" d="M750.3164,-224.3733C770.2216,-215.3838 800.1436,-201.8706 822.56,-191.7471"/>
<polygon fill="#191970" stroke="#191970" points="824.2887,-194.8068 831.9618,-187.5011 821.4075,-188.4272 824.2887,-194.8068"/>
</g>
<!-- Node28&#45;&gt;Node4 -->
<g id="edge46" class="edge">
<title>Node28&#45;&gt;Node4</title>
<path fill="none" stroke="#191970" d="M722.7473,-168.0643C712.7372,-154.6555 693.7857,-130.3362 675,-112 663.7135,-100.9836 649.9197,-89.9584 638.616,-81.4645"/>
<polygon fill="#191970" stroke="#191970" points="640.6646,-78.6264 630.5401,-75.5045 636.508,-84.2587 640.6646,-78.6264"/>
</g>
<!-- Node28&#45;&gt;Node29 -->
<g id="edge47" class="edge">
<title>Node28&#45;&gt;Node29</title>
<path fill="none" stroke="#191970" d="M710.5746,-168.3733C692.5979,-159.4644 665.6559,-146.1127 645.291,-136.0203"/>
<polygon fill="#191970" stroke="#191970" points="646.6861,-132.8055 636.1719,-131.5011 643.5778,-139.0776 646.6861,-132.8055"/>
</g>
<!-- Node29&#45;&gt;Node4 -->
<g id="edge48" class="edge">
<title>Node29&#45;&gt;Node4</title>
<path fill="none" stroke="#191970" d="M617,-112.2455C617,-104.9382 617,-94.6944 617,-85.7046"/>
<polygon fill="#191970" stroke="#191970" points="620.5001,-85.6426 617,-75.6427 613.5001,-85.6427 620.5001,-85.6426"/>
</g>
<!-- Node29&#45;&gt;Node14 -->
<g id="edge49" class="edge">
<title>Node29&#45;&gt;Node14</title>
<path fill="none" stroke="#191970" d="M567.9294,-113.7971C500.0689,-102.4533 379.1118,-82.2336 318.597,-72.1177"/>
<polygon fill="#191970" stroke="#191970" points="319.1636,-68.6639 308.7233,-70.4672 318.0094,-75.5681 319.1636,-68.6639"/>
</g>
<!-- Node32&#45;&gt;Node3 -->
<g id="edge56" class="edge">
<title>Node32&#45;&gt;Node3</title>
<path fill="none" stroke="#191970" d="M1078.2572,-280.4782C1093.6869,-273.0309 1112.4931,-261.0561 1122,-244 1139.9807,-211.7412 1135.8038,-166.8866 1131.3002,-141.5204"/>
<polygon fill="#191970" stroke="#191970" points="1134.7209,-140.776 1129.3501,-131.6434 1127.8535,-142.132 1134.7209,-140.776"/>
</g>
<!-- Node32&#45;&gt;Node4 -->
<g id="edge54" class="edge">
<title>Node32&#45;&gt;Node4</title>
<path fill="none" stroke="#191970" d="M1015.3033,-285.8671C966.7501,-279.7914 887.6804,-266.6446 870,-244 846.9986,-214.5403 927.5871,-198.5112 906,-168 878.5748,-129.2373 748.9077,-94.9436 672.8988,-77.7299"/>
<polygon fill="#191970" stroke="#191970" points="673.5223,-74.2829 662.9994,-75.5157 671.9943,-81.1142 673.5223,-74.2829"/>
</g>
<!-- Node32&#45;&gt;Node21 -->
<g id="edge55" class="edge">
<title>Node32&#45;&gt;Node21</title>
<path fill="none" stroke="#191970" d="M1071.0567,-280.377C1083.3089,-272.4014 1098.8708,-259.8248 1106,-244 1114.674,-224.746 1096.9093,-206.1625 1079.8338,-193.6481"/>
<polygon fill="#191970" stroke="#191970" points="1081.3417,-190.4393 1071.111,-187.6858 1077.3916,-196.2183 1081.3417,-190.4393"/>
</g>
<!-- Node33 -->
<g id="node34" class="node">
<title>Node33</title>
<g id="a_node34"><a xlink:href="../../dd/dc6/GPUSettings_8h.html" target="_top" xlink:title="GPUSettings.h">
<polygon fill="none" stroke="#000000" points="1011,-224.5 1011,-243.5 1097,-243.5 1097,-224.5 1011,-224.5"/>
<text text-anchor="middle" x="1054" y="-231.5" font-family="Helvetica,sans-Serif" font-size="10.00" fill="#000000">GPUSettings.h</text>
</a>
</g>
</g>
<!-- Node32&#45;&gt;Node33 -->
<g id="edge57" class="edge">
<title>Node32&#45;&gt;Node33</title>
<path fill="none" stroke="#191970" d="M1054,-280.2455C1054,-272.9382 1054,-262.6944 1054,-253.7046"/>
<polygon fill="#191970" stroke="#191970" points="1057.5001,-253.6426 1054,-243.6427 1050.5001,-253.6427 1057.5001,-253.6426"/>
</g>
<!-- Node34 -->
<g id="node35" class="node">
<title>Node34</title>
<g id="a_node35"><a xlink:href="../../d6/d1b/GPUTPCGeometry_8h.html" target="_top" xlink:title="GPUTPCGeometry.h">
<polygon fill="none" stroke="#000000" points="879.5,-224.5 879.5,-243.5 992.5,-243.5 992.5,-224.5 879.5,-224.5"/>
<text text-anchor="middle" x="936" y="-231.5" font-family="Helvetica,sans-Serif" font-size="10.00" fill="#000000">GPUTPCGeometry.h</text>
</a>
</g>
</g>
<!-- Node32&#45;&gt;Node34 -->
<g id="edge59" class="edge">
<title>Node32&#45;&gt;Node34</title>
<path fill="none" stroke="#191970" d="M1033.7151,-280.3733C1014.8579,-271.4241 986.554,-257.9917 965.2545,-247.8835"/>
<polygon fill="#191970" stroke="#191970" points="966.5551,-244.6266 956.0202,-243.5011 963.5539,-250.9506 966.5551,-244.6266"/>
</g>
<!-- Node35 -->
<g id="node36" class="node">
<title>Node35</title>
<g id="a_node36"><a xlink:href="../../d9/d9c/GPUTPCGMPolynomialField_8h.html" target="_top" xlink:title="GPUTPCGMPolynomialField.h">
<polygon fill="none" stroke="#000000" points="1191,-224.5 1191,-243.5 1349,-243.5 1349,-224.5 1191,-224.5"/>
<text text-anchor="middle" x="1270" y="-231.5" font-family="Helvetica,sans-Serif" font-size="10.00" fill="#000000">GPUTPCGMPolynomialField.h</text>
</a>
</g>
</g>
<!-- Node32&#45;&gt;Node35 -->
<g id="edge61" class="edge">
<title>Node32&#45;&gt;Node35</title>
<path fill="none" stroke="#191970" d="M1091.1317,-280.3733C1127.8267,-270.8598 1184.0639,-256.2797 1223.6651,-246.0127"/>
<polygon fill="#191970" stroke="#191970" points="1224.5512,-249.3988 1233.3528,-243.5011 1222.7944,-242.6228 1224.5512,-249.3988"/>
</g>
<!-- Node33&#45;&gt;Node21 -->
<g id="edge58" class="edge">
<title>Node33&#45;&gt;Node21</title>
<path fill="none" stroke="#191970" d="M1054,-224.2455C1054,-216.9382 1054,-206.6944 1054,-197.7046"/>
<polygon fill="#191970" stroke="#191970" points="1057.5001,-197.6426 1054,-187.6427 1050.5001,-197.6427 1057.5001,-197.6426"/>
</g>
<!-- Node34&#45;&gt;Node4 -->
<g id="edge60" class="edge">
<title>Node34&#45;&gt;Node4</title>
<path fill="none" stroke="#191970" d="M940.2037,-224.321C949.3451,-201.6002 968.0547,-144.3332 940,-112 923.2674,-92.7156 769.8832,-77.7774 680.6353,-70.6292"/>
<polygon fill="#191970" stroke="#191970" points="680.8584,-67.136 670.6139,-69.8376 680.3072,-74.1142 680.8584,-67.136"/>
</g>
<!-- Node35&#45;&gt;Node26 -->
<g id="edge62" class="edge">
<title>Node35&#45;&gt;Node26</title>
<path fill="none" stroke="#191970" d="M1270,-224.2455C1270,-216.9382 1270,-206.6944 1270,-197.7046"/>
<polygon fill="#191970" stroke="#191970" points="1273.5001,-197.6426 1270,-187.6427 1266.5001,-197.6427 1273.5001,-197.6426"/>
</g>
</g>
</svg>
        <g id="navigator" transform="translate(0 0)" fill="#404254">
                <rect fill="#f2f5e9" fill-opacity="0.5" stroke="#606060" stroke-width=".5" x="0" y="0" width="60" height="60"/>
                <use id="zoomplus" xlink:href="#zoomPlus" x="17" y="9" onmousedown="handleZoom(evt,'in')"/>
                <use id="zoomminus" xlink:href="#zoomMin" x="42" y="9" onmousedown="handleZoom(evt,'out')"/>
                <use id="reset" xlink:href="#resetDef" x="30" y="36" onmousedown="handleReset()"/>
                <g id="arrowUp" xlink:href="#dirArrow" transform="translate(30 24)" onmousedown="handlePan(0,-1)">
                  <use xlink:href="#rim" fill="#404040">
                        <set attributeName="fill" to="#808080" begin="arrowUp.mouseover" end="arrowUp.mouseout"/>
                  </use>
                  <path fill="none" stroke="white" stroke-width="1.5" d="M0,-3.0v7 M-2.5,-0.5L0,-3.0L2.5,-0.5"/>
                </g>
                <g id="arrowRight" xlink:href="#dirArrow" transform="rotate(90) translate(36 -43)" onmousedown="handlePan(1,0)">
                  <use xlink:href="#rim" fill="#404040">
                        <set attributeName="fill" to="#808080" begin="arrowRight.mouseover" end="arrowRight.mouseout"/>
                  </use>
                  <path fill="none" stroke="white" stroke-width="1.5" d="M0,-3.0v7 M-2.5,-0.5L0,-3.0L2.5,-0.5"/>
                </g>
                <g id="arrowDown" xlink:href="#dirArrow" transform="rotate(180) translate(-30 -48)" onmousedown="handlePan(0,1)">
                  <use xlink:href="#rim" fill="#404040">
                        <set attributeName="fill" to="#808080" begin="arrowDown.mouseover" end="arrowDown.mouseout"/>
                  </use>
                  <path fill="none" stroke="white" stroke-width="1.5" d="M0,-3.0v7 M-2.5,-0.5L0,-3.0L2.5,-0.5"/>
                </g>
                <g id="arrowLeft" xlink:href="#dirArrow" transform="rotate(270) translate(-36 17)" onmousedown="handlePan(-1,0)">
                  <use xlink:href="#rim" fill="#404040">
                        <set attributeName="fill" to="#808080" begin="arrowLeft.mouseover" end="arrowLeft.mouseout"/>
                  </use>
                  <path fill="none" stroke="white" stroke-width="1.5" d="M0,-3.0v7 M-2.5,-0.5L0,-3.0L2.5,-0.5"/>
                </g>
        </g>
        <svg viewBox="0 0 15 15" width="100%" height="30px" preserveAspectRatio="xMaxYMin meet">
         <g id="arrow_out" transform="scale(0.3 0.3)">
          <a xlink:href="GPUReconstructionConvert_8cxx__incl_org.svg" target="_base">
           <rect id="button" ry="5" rx="5" y="6" x="6" height="38" width="38"
                fill="#f2f5e9" fill-opacity="0.5" stroke="#606060" stroke-width="1.0"/>
           <path id="arrow"
             d="M 11.500037,31.436501 C 11.940474,20.09759 22.043105,11.32322 32.158766,21.979434 L 37.068811,17.246167 C 37.068811,17.246167 37.088388,32 37.088388,32 L 22.160133,31.978069 C 22.160133,31.978069 26.997745,27.140456 26.997745,27.140456 C 18.528582,18.264221 13.291696,25.230495 11.500037,31.436501 z"
             style="fill:#404040;"/>
          </a>
         </g>
        </svg>
</svg>
