<?xml version="1.0" encoding="UTF-8" standalone="no"?>
<!DOCTYPE svg PUBLIC "-//W3C//DTD SVG 1.1//EN"
 "http://www.w3.org/Graphics/SVG/1.1/DTD/svg11.dtd">
<!-- Generated by graphviz version 2.40.1 (20161225.0304)
 -->
<!-- Title: o2::itsmft::ClusterReader Pages: 1 -->
<!--zoomable 1096 -->
<svg id="main" version="1.1" xmlns="http://www.w3.org/2000/svg" xmlns:xlink="http://www.w3.org/1999/xlink" xml:space="preserve" onload="init(evt)">
<style type="text/css"><![CDATA[
.edge:hover path { stroke: red; }
.edge:hover polygon { stroke: red; fill: red; }
]]></style>
<script type="text/javascript"><![CDATA[
var edges = document.getElementsByTagName('g');
if (edges && edges.length) {
  for (var i=0;i<edges.length;i++) {
    if (edges[i].id.substr(0,4)=='edge') {
      edges[i].setAttribute('class','edge');
    }
  }
}
]]></script>
        <defs>
                <circle id="rim" cx="0" cy="0" r="7"/>
                <circle id="rim2" cx="0" cy="0" r="3.5"/>
                <g id="zoomPlus">
                        <use xlink:href="#rim" fill="#404040">
                                <set attributeName="fill" to="#808080" begin="zoomplus.mouseover" end="zoomplus.mouseout"/>
                        </use>
                        <path d="M-4,0h8M0,-4v8" fill="none" stroke="white" stroke-width="1.5" pointer-events="none"/>
                </g>
                <g id="zoomMin">
                        <use xlink:href="#rim" fill="#404040">
                                <set attributeName="fill" to="#808080" begin="zoomminus.mouseover" end="zoomminus.mouseout"/>
                        </use>
                        <path d="M-4,0h8" fill="none" stroke="white" stroke-width="1.5" pointer-events="none"/>
                </g>
                <g id="dirArrow">
                        <path fill="none" stroke="white" stroke-width="1.5" d="M0,-3.0v7 M-2.5,-0.5L0,-3.0L2.5,-0.5"/>
                </g>
               <g id="resetDef">
                       <use xlink:href="#rim2" fill="#404040">
                               <set attributeName="fill" to="#808080" begin="reset.mouseover" end="reset.mouseout"/>
                       </use>
               </g>
        </defs>

<script type="text/javascript">
var viewWidth = 1388;
var viewHeight = 1096;
var sectionId = 'dynsection-1';
</script>
<script xlink:href="../../svgpan.js"/>
<svg id="graph" class="graph">
<g id="viewport">
<title>o2::itsmft::ClusterReader</title>
<!-- Node4 -->
<g id="node1" class="node">
<title>Node4</title>
<polygon fill="#bfbfbf" stroke="#000000" points="594,-.5 594,-112.5 732,-112.5 732,-.5 594,-.5"/>
<text text-anchor="middle" x="663" y="-100.5" font-family="Helvetica,sans-Serif" font-size="10.00" fill="#000000">o2::itsmft::ClusterReader</text>
<polyline fill="none" stroke="#000000" points="594,-93.5 732,-93.5 "/>
<text text-anchor="middle" x="663" y="-81.5" font-family="Helvetica,sans-Serif" font-size="10.00" fill="#000000"> </text>
<polyline fill="none" stroke="#000000" points="594,-74.5 732,-74.5 "/>
<text text-anchor="start" x="602" y="-62.5" font-family="Helvetica,sans-Serif" font-size="10.00" fill="#000000">+ ClusterReader()</text>
<text text-anchor="start" x="602" y="-51.5" font-family="Helvetica,sans-Serif" font-size="10.00" fill="#000000">+ ClusterReader()</text>
<text text-anchor="start" x="602" y="-40.5" font-family="Helvetica,sans-Serif" font-size="10.00" fill="#000000">+ ~ClusterReader()</text>
<text text-anchor="start" x="602" y="-29.5" font-family="Helvetica,sans-Serif" font-size="10.00" fill="#000000">+ init()</text>
<text text-anchor="start" x="602" y="-18.5" font-family="Helvetica,sans-Serif" font-size="10.00" fill="#000000">+ run()</text>
<text text-anchor="start" x="602" y="-7.5" font-family="Helvetica,sans-Serif" font-size="10.00" fill="#000000"># read()</text>
</g>
<!-- Node5 -->
<g id="node2" class="node">
<title>Node5</title>
<g id="a_node2"><a xlink:href="../../de/dac/classo2_1_1framework_1_1Task.html" target="_top" xlink:title="{o2::framework::Task\n||+ ~Task()\l+ init()\l+ run()\l+ endOfStream()\l}">
<polygon fill="none" stroke="#000000" points="0,-309 0,-399 116,-399 116,-309 0,-309"/>
<text text-anchor="middle" x="58" y="-387" font-family="Helvetica,sans-Serif" font-size="10.00" fill="#000000">o2::framework::Task</text>
<polyline fill="none" stroke="#000000" points="0,-380 116,-380 "/>
<text text-anchor="middle" x="58" y="-368" font-family="Helvetica,sans-Serif" font-size="10.00" fill="#000000"> </text>
<polyline fill="none" stroke="#000000" points="0,-361 116,-361 "/>
<text text-anchor="start" x="8" y="-349" font-family="Helvetica,sans-Serif" font-size="10.00" fill="#000000">+ ~Task()</text>
<text text-anchor="start" x="8" y="-338" font-family="Helvetica,sans-Serif" font-size="10.00" fill="#000000">+ init()</text>
<text text-anchor="start" x="8" y="-327" font-family="Helvetica,sans-Serif" font-size="10.00" fill="#000000">+ run()</text>
<text text-anchor="start" x="8" y="-316" font-family="Helvetica,sans-Serif" font-size="10.00" fill="#000000">+ endOfStream()</text>
</a>
</g>
</g>
<!-- Node5&#45;&gt;Node4 -->
<g id="edge1" class="edge">
<title>Node5&#45;&gt;Node4</title>
<path fill="none" stroke="#191970" d="M72.2861,-299.1527C82.9005,-265.9311 99.9282,-224.1094 125,-193 155.2503,-155.4651 169.3477,-149.1692 214,-131 281.6093,-103.4896 485.483,-76.8854 593.7302,-64.2074"/>
<polygon fill="none" stroke="#191970" points="68.9379,-298.1332 69.3288,-308.7209 75.6258,-300.2004 68.9379,-298.1332"/>
</g>
<!-- Node6 -->
<g id="node3" class="node">
<title>Node6</title>
<polygon fill="none" stroke="#bfbfbf" points="134,-320 134,-388 240,-388 240,-320 134,-320"/>
<text text-anchor="start" x="142" y="-376" font-family="Helvetica,sans-Serif" font-size="10.00" fill="#000000">vector&lt; o2::itsmft</text>
<text text-anchor="middle" x="187" y="-365" font-family="Helvetica,sans-Serif" font-size="10.00" fill="#000000">::Cluster &gt; *</text>
<polyline fill="none" stroke="#bfbfbf" points="134,-358 240,-358 "/>
<text text-anchor="middle" x="187" y="-346" font-family="Helvetica,sans-Serif" font-size="10.00" fill="#000000"> </text>
<polyline fill="none" stroke="#bfbfbf" points="134,-339 240,-339 "/>
<text text-anchor="middle" x="187" y="-327" font-family="Helvetica,sans-Serif" font-size="10.00" fill="#000000"> </text>
</g>
<!-- Node6&#45;&gt;Node4 -->
<g id="edge2" class="edge">
<title>Node6&#45;&gt;Node4</title>
<path fill="none" stroke="#404040" d="M185.6671,-319.6099C185.7695,-270.2217 193.8338,-179.7982 247,-131 294.7544,-87.1691 474.7596,-68.3524 581.7086,-60.9003"/>
<polygon fill="none" stroke="#404040" points="581.7638,-60.8966 587.4808,-56.5016 593.7366,-60.0885 588.0196,-64.4835 581.7638,-60.8966"/>
<text text-anchor="middle" x="295" y="-150.5" font-family="Helvetica,sans-Serif" font-size="10.00" fill="#000000"> #mClusterArrayPtr</text>
</g>
<!-- Node7 -->
<g id="node4" class="node">
<title>Node7</title>
<polygon fill="none" stroke="#bfbfbf" points="258,-320 258,-388 364,-388 364,-320 258,-320"/>
<text text-anchor="start" x="266" y="-376" font-family="Helvetica,sans-Serif" font-size="10.00" fill="#000000">vector&lt; o2::itsmft</text>
<text text-anchor="middle" x="311" y="-365" font-family="Helvetica,sans-Serif" font-size="10.00" fill="#000000">::ROFRecord &gt;</text>
<polyline fill="none" stroke="#bfbfbf" points="258,-358 364,-358 "/>
<text text-anchor="middle" x="311" y="-346" font-family="Helvetica,sans-Serif" font-size="10.00" fill="#000000"> </text>
<polyline fill="none" stroke="#bfbfbf" points="258,-339 364,-339 "/>
<text text-anchor="middle" x="311" y="-327" font-family="Helvetica,sans-Serif" font-size="10.00" fill="#000000"> </text>
</g>
<!-- Node7&#45;&gt;Node4 -->
<g id="edge3" class="edge">
<title>Node7&#45;&gt;Node4</title>
<path fill="none" stroke="#404040" d="M311.2058,-319.6618C313.4237,-270.7557 324.9167,-181.3961 377,-131 406.0786,-102.8633 507.8841,-81.1183 581.766,-68.569"/>
<polygon fill="none" stroke="#404040" points="581.9913,-68.5316 587.2522,-63.5998 593.8281,-66.5592 588.5672,-71.491 581.9913,-68.5316"/>
<text text-anchor="middle" x="416.5" y="-150.5" font-family="Helvetica,sans-Serif" font-size="10.00" fill="#000000"> #mClusROFRec</text>
</g>
<!-- Node8 -->
<g id="node5" class="node">
<title>Node8</title>
<g id="a_node5"><a xlink:href="../../d9/db3/structo2_1_1header_1_1Descriptor.html" target="_top" xlink:title="{o2::header::Descriptor\l\&lt; gSizeDataOriginString,\l printDataOrigin \&gt;\n||+ Descriptor()\l+ Descriptor()\l+ Descriptor()\l+ Descriptor()\l+ operator=()\l+ operator ItgType()\l+ runtimeInit()\l+ operator==()\l+ operator==()\l+ operator\&lt;()\l+ operator!=()\l+ operator!=()\l+ as()\l+ print()\l}">
<polygon fill="none" stroke="#000000" points="382,-243 382,-465 520,-465 520,-243 382,-243"/>
<text text-anchor="start" x="390" y="-453" font-family="Helvetica,sans-Serif" font-size="10.00" fill="#000000">o2::header::Descriptor</text>
<text text-anchor="start" x="390" y="-442" font-family="Helvetica,sans-Serif" font-size="10.00" fill="#000000">&lt; gSizeDataOriginString,</text>
<text text-anchor="middle" x="451" y="-431" font-family="Helvetica,sans-Serif" font-size="10.00" fill="#000000"> printDataOrigin &gt;</text>
<polyline fill="none" stroke="#000000" points="382,-424 520,-424 "/>
<text text-anchor="middle" x="451" y="-412" font-family="Helvetica,sans-Serif" font-size="10.00" fill="#000000"> </text>
<polyline fill="none" stroke="#000000" points="382,-405 520,-405 "/>
<text text-anchor="start" x="390" y="-393" font-family="Helvetica,sans-Serif" font-size="10.00" fill="#000000">+ Descriptor()</text>
<text text-anchor="start" x="390" y="-382" font-family="Helvetica,sans-Serif" font-size="10.00" fill="#000000">+ Descriptor()</text>
<text text-anchor="start" x="390" y="-371" font-family="Helvetica,sans-Serif" font-size="10.00" fill="#000000">+ Descriptor()</text>
<text text-anchor="start" x="390" y="-360" font-family="Helvetica,sans-Serif" font-size="10.00" fill="#000000">+ Descriptor()</text>
<text text-anchor="start" x="390" y="-349" font-family="Helvetica,sans-Serif" font-size="10.00" fill="#000000">+ operator=()</text>
<text text-anchor="start" x="390" y="-338" font-family="Helvetica,sans-Serif" font-size="10.00" fill="#000000">+ operator ItgType()</text>
<text text-anchor="start" x="390" y="-327" font-family="Helvetica,sans-Serif" font-size="10.00" fill="#000000">+ runtimeInit()</text>
<text text-anchor="start" x="390" y="-316" font-family="Helvetica,sans-Serif" font-size="10.00" fill="#000000">+ operator==()</text>
<text text-anchor="start" x="390" y="-305" font-family="Helvetica,sans-Serif" font-size="10.00" fill="#000000">+ operator==()</text>
<text text-anchor="start" x="390" y="-294" font-family="Helvetica,sans-Serif" font-size="10.00" fill="#000000">+ operator&lt;()</text>
<text text-anchor="start" x="390" y="-283" font-family="Helvetica,sans-Serif" font-size="10.00" fill="#000000">+ operator!=()</text>
<text text-anchor="start" x="390" y="-272" font-family="Helvetica,sans-Serif" font-size="10.00" fill="#000000">+ operator!=()</text>
<text text-anchor="start" x="390" y="-261" font-family="Helvetica,sans-Serif" font-size="10.00" fill="#000000">+ as()</text>
<text text-anchor="start" x="390" y="-250" font-family="Helvetica,sans-Serif" font-size="10.00" fill="#000000">+ print()</text>
</a>
</g>
</g>
<!-- Node8&#45;&gt;Node4 -->
<g id="edge4" class="edge">
<title>Node8&#45;&gt;Node4</title>
<path fill="none" stroke="#404040" d="M445.2622,-242.9114C448.5241,-204.1014 458.5861,-162.4278 483,-131 507.0468,-100.0448 546.2136,-81.8485 581.8812,-71.203"/>
<polygon fill="none" stroke="#404040" points="582.2571,-71.0983 586.9621,-65.6335 593.8161,-67.8748 589.1111,-73.3395 582.2571,-71.0983"/>
<text text-anchor="middle" x="508.5" y="-150.5" font-family="Helvetica,sans-Serif" font-size="10.00" fill="#000000"> #mOrigin</text>
</g>
<!-- Node9 -->
<g id="node6" class="node">
<title>Node9</title>
<polygon fill="none" stroke="#bfbfbf" points="110.5,-1030.5 110.5,-1087.5 149.5,-1087.5 149.5,-1030.5 110.5,-1030.5"/>
<text text-anchor="middle" x="130" y="-1075.5" font-family="Helvetica,sans-Serif" font-size="10.00" fill="#000000">Type</text>
<polyline fill="none" stroke="#bfbfbf" points="110.5,-1068.5 149.5,-1068.5 "/>
<text text-anchor="middle" x="130" y="-1056.5" font-family="Helvetica,sans-Serif" font-size="10.00" fill="#000000"> </text>
<polyline fill="none" stroke="#bfbfbf" points="110.5,-1049.5 149.5,-1049.5 "/>
<text text-anchor="middle" x="130" y="-1037.5" font-family="Helvetica,sans-Serif" font-size="10.00" fill="#000000"> </text>
</g>
<!-- Node9&#45;&gt;Node8 -->
<g id="edge5" class="edge">
<title>Node9&#45;&gt;Node8</title>
<path fill="none" stroke="#404040" d="M127.761,-1030.2508C123.1701,-961.544 115.7299,-782.8269 149,-639 160.5741,-588.9653 153.5354,-563.3005 195,-533 259.1998,-486.0857 307.8358,-560.5653 373,-515 387.5801,-504.805 399.5407,-491.1117 409.3239,-475.9961"/>
<polygon fill="none" stroke="#404040" points="409.5588,-475.6065 409.2311,-468.4028 415.7546,-465.3297 416.0823,-472.5333 409.5588,-475.6065"/>
<text text-anchor="middle" x="161.5" y="-797.5" font-family="Helvetica,sans-Serif" font-size="10.00" fill="#000000"> +itg</text>
</g>
<!-- Node13 -->
<g id="node10" class="node">
<title>Node13</title>
<g id="a_node10"><a xlink:href="../../d9/db3/structo2_1_1header_1_1Descriptor.html" target="_top" xlink:title="{o2::header::Descriptor\l\&lt; N, PrinterPolicy \&gt;\n||+ Descriptor()\l+ Descriptor()\l+ Descriptor()\l+ operator=()\l+ operator ItgType()\l+ Descriptor()\l+ runtimeInit()\l+ operator==()\l+ operator\&lt;()\l+ operator!=()\l+ operator==()\l+ operator!=()\l+ as()\l+ print()\l}">
<polygon fill="none" stroke="#000000" points="239.5,-694.5 239.5,-905.5 364.5,-905.5 364.5,-694.5 239.5,-694.5"/>
<text text-anchor="start" x="247.5" y="-893.5" font-family="Helvetica,sans-Serif" font-size="10.00" fill="#000000">o2::header::Descriptor</text>
<text text-anchor="middle" x="302" y="-882.5" font-family="Helvetica,sans-Serif" font-size="10.00" fill="#000000">&lt; N, PrinterPolicy &gt;</text>
<polyline fill="none" stroke="#000000" points="239.5,-875.5 364.5,-875.5 "/>
<text text-anchor="middle" x="302" y="-863.5" font-family="Helvetica,sans-Serif" font-size="10.00" fill="#000000"> </text>
<polyline fill="none" stroke="#000000" points="239.5,-856.5 364.5,-856.5 "/>
<text text-anchor="start" x="247.5" y="-844.5" font-family="Helvetica,sans-Serif" font-size="10.00" fill="#000000">+ Descriptor()</text>
<text text-anchor="start" x="247.5" y="-833.5" font-family="Helvetica,sans-Serif" font-size="10.00" fill="#000000">+ Descriptor()</text>
<text text-anchor="start" x="247.5" y="-822.5" font-family="Helvetica,sans-Serif" font-size="10.00" fill="#000000">+ Descriptor()</text>
<text text-anchor="start" x="247.5" y="-811.5" font-family="Helvetica,sans-Serif" font-size="10.00" fill="#000000">+ operator=()</text>
<text text-anchor="start" x="247.5" y="-800.5" font-family="Helvetica,sans-Serif" font-size="10.00" fill="#000000">+ operator ItgType()</text>
<text text-anchor="start" x="247.5" y="-789.5" font-family="Helvetica,sans-Serif" font-size="10.00" fill="#000000">+ Descriptor()</text>
<text text-anchor="start" x="247.5" y="-778.5" font-family="Helvetica,sans-Serif" font-size="10.00" fill="#000000">+ runtimeInit()</text>
<text text-anchor="start" x="247.5" y="-767.5" font-family="Helvetica,sans-Serif" font-size="10.00" fill="#000000">+ operator==()</text>
<text text-anchor="start" x="247.5" y="-756.5" font-family="Helvetica,sans-Serif" font-size="10.00" fill="#000000">+ operator&lt;()</text>
<text text-anchor="start" x="247.5" y="-745.5" font-family="Helvetica,sans-Serif" font-size="10.00" fill="#000000">+ operator!=()</text>
<text text-anchor="start" x="247.5" y="-734.5" font-family="Helvetica,sans-Serif" font-size="10.00" fill="#000000">+ operator==()</text>
<text text-anchor="start" x="247.5" y="-723.5" font-family="Helvetica,sans-Serif" font-size="10.00" fill="#000000">+ operator!=()</text>
<text text-anchor="start" x="247.5" y="-712.5" font-family="Helvetica,sans-Serif" font-size="10.00" fill="#000000">+ as()</text>
<text text-anchor="start" x="247.5" y="-701.5" font-family="Helvetica,sans-Serif" font-size="10.00" fill="#000000">+ print()</text>
</a>
</g>
</g>
<!-- Node9&#45;&gt;Node13 -->
<g id="edge10" class="edge">
<title>Node9&#45;&gt;Node13</title>
<path fill="none" stroke="#404040" d="M149.7681,-1042.1486C170.4561,-1023.7644 202.9374,-992.7029 225,-961 234.6345,-947.1557 243.6533,-931.9192 251.8826,-916.5084"/>
<polygon fill="none" stroke="#404040" points="251.904,-916.4673 251.1309,-909.2978 257.4516,-905.8266 258.2247,-912.9962 251.904,-916.4673"/>
<text text-anchor="middle" x="222.5" y="-993" font-family="Helvetica,sans-Serif" font-size="10.00" fill="#000000"> +itg</text>
</g>
<!-- Node10 -->
<g id="node7" class="node">
<title>Node10</title>
<polygon fill="none" stroke="#bfbfbf" points="322,-1030.5 322,-1087.5 360,-1087.5 360,-1030.5 322,-1030.5"/>
<text text-anchor="middle" x="341" y="-1075.5" font-family="Helvetica,sans-Serif" font-size="10.00" fill="#000000">char</text>
<polyline fill="none" stroke="#bfbfbf" points="322,-1068.5 360,-1068.5 "/>
<text text-anchor="middle" x="341" y="-1056.5" font-family="Helvetica,sans-Serif" font-size="10.00" fill="#000000"> </text>
<polyline fill="none" stroke="#bfbfbf" points="322,-1049.5 360,-1049.5 "/>
<text text-anchor="middle" x="341" y="-1037.5" font-family="Helvetica,sans-Serif" font-size="10.00" fill="#000000"> </text>
</g>
<!-- Node10&#45;&gt;Node8 -->
<g id="edge6" class="edge">
<title>Node10&#45;&gt;Node8</title>
<path fill="none" stroke="#404040" d="M351.9737,-1030.2403C358.9507,-1010.9195 367.6475,-984.7454 373,-961 410.2794,-795.6178 431.3892,-600.5851 442.0035,-477.1123"/>
<polygon fill="none" stroke="#404040" points="442.015,-476.9764 438.5364,-470.6598 443.0292,-465.0193 446.5078,-471.3359 442.015,-476.9764"/>
<text text-anchor="middle" x="437.5" y="-797.5" font-family="Helvetica,sans-Serif" font-size="10.00" fill="#000000"> +str</text>
</g>
<!-- Node10&#45;&gt;Node13 -->
<g id="edge11" class="edge">
<title>Node10&#45;&gt;Node13</title>
<path fill="none" stroke="#404040" d="M324.1246,-1030.4056C321.2926,-1024.4925 318.7192,-1018.1787 317,-1012 308.683,-982.1091 304.2114,-948.9817 301.9563,-917.9688"/>
<polygon fill="none" stroke="#404040" points="301.9403,-917.7183 297.5642,-911.9868 301.1717,-905.7429 305.5478,-911.4743 301.9403,-917.7183"/>
<text text-anchor="middle" x="329.5" y="-993" font-family="Helvetica,sans-Serif" font-size="10.00" fill="#000000"> +str</text>
</g>
<!-- Node11 -->
<g id="node8" class="node">
<title>Node11</title>
<polygon fill="none" stroke="#bfbfbf" points="447.5,-1030.5 447.5,-1087.5 476.5,-1087.5 476.5,-1030.5 447.5,-1030.5"/>
<text text-anchor="middle" x="462" y="-1075.5" font-family="Helvetica,sans-Serif" font-size="10.00" fill="#000000">int</text>
<polyline fill="none" stroke="#bfbfbf" points="447.5,-1068.5 476.5,-1068.5 "/>
<text text-anchor="middle" x="462" y="-1056.5" font-family="Helvetica,sans-Serif" font-size="10.00" fill="#000000"> </text>
<polyline fill="none" stroke="#bfbfbf" points="447.5,-1049.5 476.5,-1049.5 "/>
<text text-anchor="middle" x="462" y="-1037.5" font-family="Helvetica,sans-Serif" font-size="10.00" fill="#000000"> </text>
</g>
<!-- Node11&#45;&gt;Node4 -->
<g id="edge18" class="edge">
<title>Node11&#45;&gt;Node4</title>
<path fill="none" stroke="#404040" d="M476.7148,-1041.1999C491.1892,-1022.5238 512.4614,-991.6695 522,-961 572.7719,-797.7538 510.1847,-354.2425 567,-193 575.7691,-168.1133 590.4494,-143.6575 605.7249,-122.476"/>
<polygon fill="none" stroke="#404040" points="605.8523,-122.3044 606.2178,-115.1026 613.0062,-112.67 612.6407,-119.8719 605.8523,-122.3044"/>
<text text-anchor="middle" x="614.5" y="-613" font-family="Helvetica,sans-Serif" font-size="10.00" fill="#000000"> #mDetName</text>
<text text-anchor="middle" x="614.5" y="-602" font-family="Helvetica,sans-Serif" font-size="10.00" fill="#000000">#mClusterBranchName</text>
<text text-anchor="middle" x="614.5" y="-591" font-family="Helvetica,sans-Serif" font-size="10.00" fill="#000000">#mClusROFBranchName</text>
<text text-anchor="middle" x="614.5" y="-580" font-family="Helvetica,sans-Serif" font-size="10.00" fill="#000000">#mDetNameLC</text>
<text text-anchor="middle" x="614.5" y="-569" font-family="Helvetica,sans-Serif" font-size="10.00" fill="#000000">#mClusTreeName</text>
<text text-anchor="middle" x="614.5" y="-558" font-family="Helvetica,sans-Serif" font-size="10.00" fill="#000000">#mClusterCompBranchName</text>
<text text-anchor="middle" x="614.5" y="-547" font-family="Helvetica,sans-Serif" font-size="10.00" fill="#000000">#mInputFileName</text>
<text text-anchor="middle" x="614.5" y="-536" font-family="Helvetica,sans-Serif" font-size="10.00" fill="#000000">#mClustMCTruthBranchName</text>
</g>
<!-- Node11&#45;&gt;Node8 -->
<g id="edge7" class="edge">
<title>Node11&#45;&gt;Node8</title>
<path fill="none" stroke="#404040" d="M461.5552,-1030.49C460.1212,-938.5877 455.5609,-646.3137 452.9273,-477.5207"/>
<polygon fill="none" stroke="#404040" points="452.9245,-477.334 448.8313,-471.3972 452.7371,-465.3355 456.8303,-471.2723 452.9245,-477.334"/>
<text text-anchor="middle" x="489" y="-808.5" font-family="Helvetica,sans-Serif" font-size="10.00" fill="#000000"> +arraySize</text>
<text text-anchor="middle" x="489" y="-797.5" font-family="Helvetica,sans-Serif" font-size="10.00" fill="#000000">+size</text>
<text text-anchor="middle" x="489" y="-786.5" font-family="Helvetica,sans-Serif" font-size="10.00" fill="#000000">+bitcount</text>
</g>
<!-- Node11&#45;&gt;Node13 -->
<g id="edge12" class="edge">
<title>Node11&#45;&gt;Node13</title>
<path fill="none" stroke="#404040" d="M447.4298,-1052.7263C431.4042,-1045.1668 405.8297,-1031.0645 390,-1012 367.1139,-984.4372 349.4494,-950.0886 336.1614,-917.1193"/>
<polygon fill="none" stroke="#404040" points="336.0015,-916.709 330.0952,-912.5718 331.6425,-905.5286 337.5488,-909.6658 336.0015,-916.709"/>
<text text-anchor="middle" x="419" y="-1004" font-family="Helvetica,sans-Serif" font-size="10.00" fill="#000000"> +arraySize</text>
<text text-anchor="middle" x="419" y="-993" font-family="Helvetica,sans-Serif" font-size="10.00" fill="#000000">+size</text>
<text text-anchor="middle" x="419" y="-982" font-family="Helvetica,sans-Serif" font-size="10.00" fill="#000000">+bitcount</text>
</g>
<!-- Node12 -->
<g id="node9" class="node">
<title>Node12</title>
<polygon fill="none" stroke="#bfbfbf" points="180.5,-1030.5 180.5,-1087.5 287.5,-1087.5 287.5,-1030.5 180.5,-1030.5"/>
<text text-anchor="middle" x="234" y="-1075.5" font-family="Helvetica,sans-Serif" font-size="10.00" fill="#000000">anonymous:+@24</text>
<polyline fill="none" stroke="#bfbfbf" points="180.5,-1068.5 287.5,-1068.5 "/>
<text text-anchor="middle" x="234" y="-1056.5" font-family="Helvetica,sans-Serif" font-size="10.00" fill="#000000"> </text>
<polyline fill="none" stroke="#bfbfbf" points="180.5,-1049.5 287.5,-1049.5 "/>
<text text-anchor="middle" x="234" y="-1037.5" font-family="Helvetica,sans-Serif" font-size="10.00" fill="#000000"> </text>
</g>
<!-- Node12&#45;&gt;Node8 -->
<g id="edge8" class="edge">
<title>Node12&#45;&gt;Node8</title>
<path fill="none" stroke="#404040" d="M219.5934,-1030.2446C210.8501,-1011.1436 200.5304,-985.2149 196,-961 169.6818,-820.3297 172.6772,-780.1979 196,-639 204.1084,-589.9112 193.4754,-564.4851 232,-533 280.9167,-493.0217 321.7048,-551.877 373,-515 387.3429,-504.6886 399.1627,-491.0122 408.8726,-475.9749"/>
<polygon fill="none" stroke="#404040" points="409.0687,-475.6496 408.7398,-468.4459 415.2628,-465.3717 415.5917,-472.5754 409.0687,-475.6496"/>
<text text-anchor="middle" x="213" y="-797.5" font-family="Helvetica,sans-Serif" font-size="10.00" fill="#000000"> +@24</text>
</g>
<!-- Node12&#45;&gt;Node13 -->
<g id="edge13" class="edge">
<title>Node12&#45;&gt;Node13</title>
<path fill="none" stroke="#404040" d="M241.537,-1030.2929C248.7752,-1002.724 260.2008,-959.2056 271.1803,-917.3869"/>
<polygon fill="none" stroke="#404040" points="271.214,-917.2583 268.8688,-910.4392 274.2613,-905.6516 276.6065,-912.4707 271.214,-917.2583"/>
<text text-anchor="middle" x="272" y="-993" font-family="Helvetica,sans-Serif" font-size="10.00" fill="#000000"> +@24</text>
</g>
<!-- Node13&#45;&gt;Node8 -->
<g id="edge9" class="edge">
<title>Node13&#45;&gt;Node8</title>
<path fill="none" stroke="#ffa500" d="M247.4973,-684.6568C231.6573,-632.9026 226.828,-574.335 262,-533 294.3879,-494.9369 332.9192,-544.8547 373,-515 390.3114,-502.1054 403.9721,-484.3459 414.6884,-465.3133"/>
<polygon fill="#ffa500" stroke="#ffa500" points="244.1839,-685.7861 250.576,-694.2355 250.8481,-683.6441 244.1839,-685.7861"/>
<text text-anchor="start" x="262" y="-580" font-family="Helvetica,sans-Serif" font-size="10.00" fill="#000000"> &lt; gSizeDataOriginString,</text>
<text text-anchor="middle" x="324.5" y="-569" font-family="Helvetica,sans-Serif" font-size="10.00" fill="#000000"> printDataOrigin &gt;</text>
</g>
<!-- Node14 -->
<g id="node11" class="node">
<title>Node14</title>
<g id="a_node11"><a xlink:href="../../dc/daa/classo2_1_1dataformats_1_1MCTruthContainer.html" target="_top" xlink:title="{o2::dataformats::MCTruth\lContainer\&lt; o2::MCCompLabel \&gt;\n||+ MCTruthContainer()\l+ MCTruthContainer()\l+ MCTruthContainer()\l+ ~MCTruthContainer()\l+ operator=()\l+ operator=()\l+ getMCTruthHeader()\l+ getElement()\l+ getIndexedSize()\l+ getNElements()\l+ getLabels()\l+ getLabels()\l+ clear()\l+ addElement()\l+ addElements()\l+ addElements()\l+ addElementRandomAccess()\l+ mergeAtBack()\l+ flatten_to()\l+ restore_from()\l+ print()\l+ inflate()\l+ deflate()\l+ ClassDefNV()\l}">
<polygon fill="none" stroke="#000000" points="576,-193.5 576,-514.5 750,-514.5 750,-193.5 576,-193.5"/>
<text text-anchor="start" x="584" y="-502.5" font-family="Helvetica,sans-Serif" font-size="10.00" fill="#000000">o2::dataformats::MCTruth</text>
<text text-anchor="middle" x="663" y="-491.5" font-family="Helvetica,sans-Serif" font-size="10.00" fill="#000000">Container&lt; o2::MCCompLabel &gt;</text>
<polyline fill="none" stroke="#000000" points="576,-484.5 750,-484.5 "/>
<text text-anchor="middle" x="663" y="-472.5" font-family="Helvetica,sans-Serif" font-size="10.00" fill="#000000"> </text>
<polyline fill="none" stroke="#000000" points="576,-465.5 750,-465.5 "/>
<text text-anchor="start" x="584" y="-453.5" font-family="Helvetica,sans-Serif" font-size="10.00" fill="#000000">+ MCTruthContainer()</text>
<text text-anchor="start" x="584" y="-442.5" font-family="Helvetica,sans-Serif" font-size="10.00" fill="#000000">+ MCTruthContainer()</text>
<text text-anchor="start" x="584" y="-431.5" font-family="Helvetica,sans-Serif" font-size="10.00" fill="#000000">+ MCTruthContainer()</text>
<text text-anchor="start" x="584" y="-420.5" font-family="Helvetica,sans-Serif" font-size="10.00" fill="#000000">+ ~MCTruthContainer()</text>
<text text-anchor="start" x="584" y="-409.5" font-family="Helvetica,sans-Serif" font-size="10.00" fill="#000000">+ operator=()</text>
<text text-anchor="start" x="584" y="-398.5" font-family="Helvetica,sans-Serif" font-size="10.00" fill="#000000">+ operator=()</text>
<text text-anchor="start" x="584" y="-387.5" font-family="Helvetica,sans-Serif" font-size="10.00" fill="#000000">+ getMCTruthHeader()</text>
<text text-anchor="start" x="584" y="-376.5" font-family="Helvetica,sans-Serif" font-size="10.00" fill="#000000">+ getElement()</text>
<text text-anchor="start" x="584" y="-365.5" font-family="Helvetica,sans-Serif" font-size="10.00" fill="#000000">+ getIndexedSize()</text>
<text text-anchor="start" x="584" y="-354.5" font-family="Helvetica,sans-Serif" font-size="10.00" fill="#000000">+ getNElements()</text>
<text text-anchor="start" x="584" y="-343.5" font-family="Helvetica,sans-Serif" font-size="10.00" fill="#000000">+ getLabels()</text>
<text text-anchor="start" x="584" y="-332.5" font-family="Helvetica,sans-Serif" font-size="10.00" fill="#000000">+ getLabels()</text>
<text text-anchor="start" x="584" y="-321.5" font-family="Helvetica,sans-Serif" font-size="10.00" fill="#000000">+ clear()</text>
<text text-anchor="start" x="584" y="-310.5" font-family="Helvetica,sans-Serif" font-size="10.00" fill="#000000">+ addElement()</text>
<text text-anchor="start" x="584" y="-299.5" font-family="Helvetica,sans-Serif" font-size="10.00" fill="#000000">+ addElements()</text>
<text text-anchor="start" x="584" y="-288.5" font-family="Helvetica,sans-Serif" font-size="10.00" fill="#000000">+ addElements()</text>
<text text-anchor="start" x="584" y="-277.5" font-family="Helvetica,sans-Serif" font-size="10.00" fill="#000000">+ addElementRandomAccess()</text>
<text text-anchor="start" x="584" y="-266.5" font-family="Helvetica,sans-Serif" font-size="10.00" fill="#000000">+ mergeAtBack()</text>
<text text-anchor="start" x="584" y="-255.5" font-family="Helvetica,sans-Serif" font-size="10.00" fill="#000000">+ flatten_to()</text>
<text text-anchor="start" x="584" y="-244.5" font-family="Helvetica,sans-Serif" font-size="10.00" fill="#000000">+ restore_from()</text>
<text text-anchor="start" x="584" y="-233.5" font-family="Helvetica,sans-Serif" font-size="10.00" fill="#000000">+ print()</text>
<text text-anchor="start" x="584" y="-222.5" font-family="Helvetica,sans-Serif" font-size="10.00" fill="#000000">+ inflate()</text>
<text text-anchor="start" x="584" y="-211.5" font-family="Helvetica,sans-Serif" font-size="10.00" fill="#000000">+ deflate()</text>
<text text-anchor="start" x="584" y="-200.5" font-family="Helvetica,sans-Serif" font-size="10.00" fill="#000000">+ ClassDefNV()</text>
</a>
</g>
</g>
<!-- Node14&#45;&gt;Node4 -->
<g id="edge14" class="edge">
<title>Node14&#45;&gt;Node4</title>
<path fill="none" stroke="#404040" d="M663,-193.4945C663,-169.2901 663,-145.5034 663,-124.7194"/>
<polygon fill="none" stroke="#404040" points="663.0001,-124.5203 659,-118.5203 663,-112.5203 667,-118.5202 663.0001,-124.5203"/>
<text text-anchor="middle" x="716" y="-156" font-family="Helvetica,sans-Serif" font-size="10.00" fill="#000000"> #mClusterMCTruth</text>
<text text-anchor="middle" x="716" y="-145" font-family="Helvetica,sans-Serif" font-size="10.00" fill="#000000">#mClusterMCTruthPtr</text>
</g>
<!-- Node15 -->
<g id="node12" class="node">
<title>Node15</title>
<g id="a_node12"><a xlink:href="../../dc/daa/classo2_1_1dataformats_1_1MCTruthContainer.html" target="_top" xlink:title="A container to hold and manage MC truth information/labels. ">
<polygon fill="none" stroke="#000000" points="632,-639.5 632,-960.5 800,-960.5 800,-639.5 632,-639.5"/>
<text text-anchor="start" x="640" y="-948.5" font-family="Helvetica,sans-Serif" font-size="10.00" fill="#000000">o2::dataformats::MCTruth</text>
<text text-anchor="middle" x="716" y="-937.5" font-family="Helvetica,sans-Serif" font-size="10.00" fill="#000000">Container&lt; TruthElement &gt;</text>
<polyline fill="none" stroke="#000000" points="632,-930.5 800,-930.5 "/>
<text text-anchor="middle" x="716" y="-918.5" font-family="Helvetica,sans-Serif" font-size="10.00" fill="#000000"> </text>
<polyline fill="none" stroke="#000000" points="632,-911.5 800,-911.5 "/>
<text text-anchor="start" x="640" y="-899.5" font-family="Helvetica,sans-Serif" font-size="10.00" fill="#000000">+ MCTruthContainer()</text>
<text text-anchor="start" x="640" y="-888.5" font-family="Helvetica,sans-Serif" font-size="10.00" fill="#000000">+ ~MCTruthContainer()</text>
<text text-anchor="start" x="640" y="-877.5" font-family="Helvetica,sans-Serif" font-size="10.00" fill="#000000">+ MCTruthContainer()</text>
<text text-anchor="start" x="640" y="-866.5" font-family="Helvetica,sans-Serif" font-size="10.00" fill="#000000">+ MCTruthContainer()</text>
<text text-anchor="start" x="640" y="-855.5" font-family="Helvetica,sans-Serif" font-size="10.00" fill="#000000">+ operator=()</text>
<text text-anchor="start" x="640" y="-844.5" font-family="Helvetica,sans-Serif" font-size="10.00" fill="#000000">+ operator=()</text>
<text text-anchor="start" x="640" y="-833.5" font-family="Helvetica,sans-Serif" font-size="10.00" fill="#000000">+ getMCTruthHeader()</text>
<text text-anchor="start" x="640" y="-822.5" font-family="Helvetica,sans-Serif" font-size="10.00" fill="#000000">+ getElement()</text>
<text text-anchor="start" x="640" y="-811.5" font-family="Helvetica,sans-Serif" font-size="10.00" fill="#000000">+ getIndexedSize()</text>
<text text-anchor="start" x="640" y="-800.5" font-family="Helvetica,sans-Serif" font-size="10.00" fill="#000000">+ getNElements()</text>
<text text-anchor="start" x="640" y="-789.5" font-family="Helvetica,sans-Serif" font-size="10.00" fill="#000000">+ getLabels()</text>
<text text-anchor="start" x="640" y="-778.5" font-family="Helvetica,sans-Serif" font-size="10.00" fill="#000000">+ getLabels()</text>
<text text-anchor="start" x="640" y="-767.5" font-family="Helvetica,sans-Serif" font-size="10.00" fill="#000000">+ clear()</text>
<text text-anchor="start" x="640" y="-756.5" font-family="Helvetica,sans-Serif" font-size="10.00" fill="#000000">+ addElement()</text>
<text text-anchor="start" x="640" y="-745.5" font-family="Helvetica,sans-Serif" font-size="10.00" fill="#000000">+ addElements()</text>
<text text-anchor="start" x="640" y="-734.5" font-family="Helvetica,sans-Serif" font-size="10.00" fill="#000000">+ addElements()</text>
<text text-anchor="start" x="640" y="-723.5" font-family="Helvetica,sans-Serif" font-size="10.00" fill="#000000">+ addElementRandomAccess()</text>
<text text-anchor="start" x="640" y="-712.5" font-family="Helvetica,sans-Serif" font-size="10.00" fill="#000000">+ mergeAtBack()</text>
<text text-anchor="start" x="640" y="-701.5" font-family="Helvetica,sans-Serif" font-size="10.00" fill="#000000">+ flatten_to()</text>
<text text-anchor="start" x="640" y="-690.5" font-family="Helvetica,sans-Serif" font-size="10.00" fill="#000000">+ restore_from()</text>
<text text-anchor="start" x="640" y="-679.5" font-family="Helvetica,sans-Serif" font-size="10.00" fill="#000000">+ print()</text>
<text text-anchor="start" x="640" y="-668.5" font-family="Helvetica,sans-Serif" font-size="10.00" fill="#000000">+ inflate()</text>
<text text-anchor="start" x="640" y="-657.5" font-family="Helvetica,sans-Serif" font-size="10.00" fill="#000000">+ deflate()</text>
<text text-anchor="start" x="640" y="-646.5" font-family="Helvetica,sans-Serif" font-size="10.00" fill="#000000">+ ClassDefNV()</text>
</a>
</g>
</g>
<!-- Node15&#45;&gt;Node14 -->
<g id="edge15" class="edge">
<title>Node15&#45;&gt;Node14</title>
<path fill="none" stroke="#ffa500" d="M704.1782,-628.8384C701.3279,-596.9314 697.9422,-563.9117 694,-533 693.2419,-527.0557 692.4256,-521.0078 691.5639,-514.9044"/>
<polygon fill="#ffa500" stroke="#ffa500" points="700.7227,-629.4995 705.0849,-639.1546 707.6959,-628.8866 700.7227,-629.4995"/>
<text text-anchor="middle" x="760" y="-574.5" font-family="Helvetica,sans-Serif" font-size="10.00" fill="#000000"> &lt; o2::MCCompLabel &gt;</text>
</g>
<!-- Node16 -->
<g id="node13" class="node">
<title>Node16</title>
<polygon fill="none" stroke="#bfbfbf" points="768.5,-320 768.5,-388 889.5,-388 889.5,-320 768.5,-320"/>
<text text-anchor="start" x="776.5" y="-376" font-family="Helvetica,sans-Serif" font-size="10.00" fill="#000000">vector&lt; o2::itsmft</text>
<text text-anchor="middle" x="829" y="-365" font-family="Helvetica,sans-Serif" font-size="10.00" fill="#000000">::CompClusterExt &gt; *</text>
<polyline fill="none" stroke="#bfbfbf" points="768.5,-358 889.5,-358 "/>
<text text-anchor="middle" x="829" y="-346" font-family="Helvetica,sans-Serif" font-size="10.00" fill="#000000"> </text>
<polyline fill="none" stroke="#bfbfbf" points="768.5,-339 889.5,-339 "/>
<text text-anchor="middle" x="829" y="-327" font-family="Helvetica,sans-Serif" font-size="10.00" fill="#000000"> </text>
</g>
<!-- Node16&#45;&gt;Node4 -->
<g id="edge16" class="edge">
<title>Node16&#45;&gt;Node4</title>
<path fill="none" stroke="#404040" d="M827.8687,-319.9337C824.7783,-273.3265 813.5192,-188.8804 773,-131 764.6811,-119.1167 753.8109,-108.5759 742.1448,-99.4351"/>
<polygon fill="none" stroke="#404040" points="741.8493,-99.2168 734.6466,-98.8696 732.1968,-92.0873 739.3995,-92.4346 741.8493,-99.2168"/>
<text text-anchor="middle" x="858" y="-150.5" font-family="Helvetica,sans-Serif" font-size="10.00" fill="#000000"> #mClusterCompArrayPtr</text>
</g>
<!-- Node17 -->
<g id="node14" class="node">
<title>Node17</title>
<polygon fill="none" stroke="#bfbfbf" points="908,-320 908,-388 1014,-388 1014,-320 908,-320"/>
<text text-anchor="start" x="916" y="-376" font-family="Helvetica,sans-Serif" font-size="10.00" fill="#000000">vector&lt; o2::itsmft</text>
<text text-anchor="middle" x="961" y="-365" font-family="Helvetica,sans-Serif" font-size="10.00" fill="#000000">::Cluster &gt;</text>
<polyline fill="none" stroke="#bfbfbf" points="908,-358 1014,-358 "/>
<text text-anchor="middle" x="961" y="-346" font-family="Helvetica,sans-Serif" font-size="10.00" fill="#000000"> </text>
<polyline fill="none" stroke="#bfbfbf" points="908,-339 1014,-339 "/>
<text text-anchor="middle" x="961" y="-327" font-family="Helvetica,sans-Serif" font-size="10.00" fill="#000000"> </text>
</g>
<!-- Node17&#45;&gt;Node4 -->
<g id="edge17" class="edge">
<title>Node17&#45;&gt;Node4</title>
<path fill="none" stroke="#404040" d="M959.6871,-319.6537C956.8671,-264.1794 948.3659,-158.3046 924,-131 899.9889,-104.093 811.3893,-82.7291 744.0182,-69.8985"/>
<polygon fill="none" stroke="#404040" points="743.9276,-69.8817 737.2956,-72.7132 732.1312,-67.6804 738.7632,-64.8489 743.9276,-69.8817"/>
<text text-anchor="middle" x="983" y="-150.5" font-family="Helvetica,sans-Serif" font-size="10.00" fill="#000000"> #mClusterArray</text>
</g>
<!-- Node18 -->
<g id="node15" class="node">
<title>Node18</title>
<polygon fill="none" stroke="#bfbfbf" points="1032,-325.5 1032,-382.5 1070,-382.5 1070,-325.5 1032,-325.5"/>
<text text-anchor="middle" x="1051" y="-370.5" font-family="Helvetica,sans-Serif" font-size="10.00" fill="#000000">bool</text>
<polyline fill="none" stroke="#bfbfbf" points="1032,-363.5 1070,-363.5 "/>
<text text-anchor="middle" x="1051" y="-351.5" font-family="Helvetica,sans-Serif" font-size="10.00" fill="#000000"> </text>
<polyline fill="none" stroke="#bfbfbf" points="1032,-344.5 1070,-344.5 "/>
<text text-anchor="middle" x="1051" y="-332.5" font-family="Helvetica,sans-Serif" font-size="10.00" fill="#000000"> </text>
</g>
<!-- Node18&#45;&gt;Node4 -->
<g id="edge19" class="edge">
<title>Node18&#45;&gt;Node4</title>
<path fill="none" stroke="#404040" d="M1052.0884,-325.1881C1053.4842,-271.4471 1053.2172,-158.8339 1028,-131 990.7822,-89.9202 839.7522,-70.4513 744.0153,-62.0707"/>
<polygon fill="none" stroke="#404040" points="744.0051,-62.0699 737.6884,-65.5484 732.048,-61.0554 738.3647,-57.577 744.0051,-62.0699"/>
<text text-anchor="middle" x="1082" y="-167" font-family="Helvetica,sans-Serif" font-size="10.00" fill="#000000"> #mUseClFull</text>
<text text-anchor="middle" x="1082" y="-156" font-family="Helvetica,sans-Serif" font-size="10.00" fill="#000000">#mUseMC</text>
<text text-anchor="middle" x="1082" y="-145" font-family="Helvetica,sans-Serif" font-size="10.00" fill="#000000">#mFinished</text>
<text text-anchor="middle" x="1082" y="-134" font-family="Helvetica,sans-Serif" font-size="10.00" fill="#000000">#mUseClComp</text>
</g>
<!-- Node19 -->
<g id="node16" class="node">
<title>Node19</title>
<polygon fill="none" stroke="#bfbfbf" points="1093.5,-320 1093.5,-388 1206.5,-388 1206.5,-320 1093.5,-320"/>
<text text-anchor="start" x="1101.5" y="-376" font-family="Helvetica,sans-Serif" font-size="10.00" fill="#000000">vector&lt; o2::itsmft</text>
<text text-anchor="middle" x="1150" y="-365" font-family="Helvetica,sans-Serif" font-size="10.00" fill="#000000">::CompClusterExt &gt;</text>
<polyline fill="none" stroke="#bfbfbf" points="1093.5,-358 1206.5,-358 "/>
<text text-anchor="middle" x="1150" y="-346" font-family="Helvetica,sans-Serif" font-size="10.00" fill="#000000"> </text>
<polyline fill="none" stroke="#bfbfbf" points="1093.5,-339 1206.5,-339 "/>
<text text-anchor="middle" x="1150" y="-327" font-family="Helvetica,sans-Serif" font-size="10.00" fill="#000000"> </text>
</g>
<!-- Node19&#45;&gt;Node4 -->
<g id="edge20" class="edge">
<title>Node19&#45;&gt;Node4</title>
<path fill="none" stroke="#404040" d="M1157.38,-319.7037C1165.6903,-270.8492 1172.3684,-181.5525 1124,-131 1098.1335,-103.9655 869.8557,-77.181 744.5363,-64.3437"/>
<polygon fill="none" stroke="#404040" points="744.3094,-64.3207 737.9359,-67.694 732.3708,-63.1081 738.7443,-59.7349 744.3094,-64.3207"/>
<text text-anchor="middle" x="1204.5" y="-150.5" font-family="Helvetica,sans-Serif" font-size="10.00" fill="#000000"> #mClusterCompArray</text>
</g>
<!-- Node20 -->
<g id="node17" class="node">
<title>Node20</title>
<polygon fill="none" stroke="#bfbfbf" points="1231,-320 1231,-388 1337,-388 1337,-320 1231,-320"/>
<text text-anchor="start" x="1239" y="-376" font-family="Helvetica,sans-Serif" font-size="10.00" fill="#000000">vector&lt; o2::itsmft</text>
<text text-anchor="middle" x="1284" y="-365" font-family="Helvetica,sans-Serif" font-size="10.00" fill="#000000">::ROFRecord &gt; *</text>
<polyline fill="none" stroke="#bfbfbf" points="1231,-358 1337,-358 "/>
<text text-anchor="middle" x="1284" y="-346" font-family="Helvetica,sans-Serif" font-size="10.00" fill="#000000"> </text>
<polyline fill="none" stroke="#bfbfbf" points="1231,-339 1337,-339 "/>
<text text-anchor="middle" x="1284" y="-327" font-family="Helvetica,sans-Serif" font-size="10.00" fill="#000000"> </text>
</g>
<!-- Node20&#45;&gt;Node4 -->
<g id="edge21" class="edge">
<title>Node20&#45;&gt;Node4</title>
<path fill="none" stroke="#404040" d="M1292.2592,-319.9648C1301.9007,-271.0188 1310.8828,-181.1406 1262,-131 1226.4544,-94.5398 899.6064,-70.4991 744.273,-61.036"/>
<polygon fill="none" stroke="#404040" points="744.018,-61.0208 737.7884,-64.6528 732.0397,-60.2993 738.2693,-56.6673 744.018,-61.0208"/>
<text text-anchor="middle" x="1333.5" y="-150.5" font-family="Helvetica,sans-Serif" font-size="10.00" fill="#000000"> #mClusROFRecPtr</text>
</g>
</g>
</svg>
        <g id="navigator" transform="translate(0 0)" fill="#404254">
                <rect fill="#f2f5e9" fill-opacity="0.5" stroke="#606060" stroke-width=".5" x="0" y="0" width="60" height="60"/>
                <use id="zoomplus" xlink:href="#zoomPlus" x="17" y="9" onmousedown="handleZoom(evt,'in')"/>
                <use id="zoomminus" xlink:href="#zoomMin" x="42" y="9" onmousedown="handleZoom(evt,'out')"/>
                <use id="reset" xlink:href="#resetDef" x="30" y="36" onmousedown="handleReset()"/>
                <g id="arrowUp" xlink:href="#dirArrow" transform="translate(30 24)" onmousedown="handlePan(0,-1)">
                  <use xlink:href="#rim" fill="#404040">
                        <set attributeName="fill" to="#808080" begin="arrowUp.mouseover" end="arrowUp.mouseout"/>
                  </use>
                  <path fill="none" stroke="white" stroke-width="1.5" d="M0,-3.0v7 M-2.5,-0.5L0,-3.0L2.5,-0.5"/>
                </g>
                <g id="arrowRight" xlink:href="#dirArrow" transform="rotate(90) translate(36 -43)" onmousedown="handlePan(1,0)">
                  <use xlink:href="#rim" fill="#404040">
                        <set attributeName="fill" to="#808080" begin="arrowRight.mouseover" end="arrowRight.mouseout"/>
                  </use>
                  <path fill="none" stroke="white" stroke-width="1.5" d="M0,-3.0v7 M-2.5,-0.5L0,-3.0L2.5,-0.5"/>
                </g>
                <g id="arrowDown" xlink:href="#dirArrow" transform="rotate(180) translate(-30 -48)" onmousedown="handlePan(0,1)">
                  <use xlink:href="#rim" fill="#404040">
                        <set attributeName="fill" to="#808080" begin="arrowDown.mouseover" end="arrowDown.mouseout"/>
                  </use>
                  <path fill="none" stroke="white" stroke-width="1.5" d="M0,-3.0v7 M-2.5,-0.5L0,-3.0L2.5,-0.5"/>
                </g>
                <g id="arrowLeft" xlink:href="#dirArrow" transform="rotate(270) translate(-36 17)" onmousedown="handlePan(-1,0)">
                  <use xlink:href="#rim" fill="#404040">
                        <set attributeName="fill" to="#808080" begin="arrowLeft.mouseover" end="arrowLeft.mouseout"/>
                  </use>
                  <path fill="none" stroke="white" stroke-width="1.5" d="M0,-3.0v7 M-2.5,-0.5L0,-3.0L2.5,-0.5"/>
                </g>
        </g>
        <svg viewBox="0 0 15 15" width="100%" height="30px" preserveAspectRatio="xMaxYMin meet">
         <g id="arrow_out" transform="scale(0.3 0.3)">
          <a xlink:href="classo2_1_1itsmft_1_1ClusterReader__coll__graph_org.svg" target="_base">
           <rect id="button" ry="5" rx="5" y="6" x="6" height="38" width="38"
                fill="#f2f5e9" fill-opacity="0.5" stroke="#606060" stroke-width="1.0"/>
           <path id="arrow"
             d="M 11.500037,31.436501 C 11.940474,20.09759 22.043105,11.32322 32.158766,21.979434 L 37.068811,17.246167 C 37.068811,17.246167 37.088388,32 37.088388,32 L 22.160133,31.978069 C 22.160133,31.978069 26.997745,27.140456 26.997745,27.140456 C 18.528582,18.264221 13.291696,25.230495 11.500037,31.436501 z"
             style="fill:#404040;"/>
          </a>
         </g>
        </svg>
</svg>
