<?xml version="1.0" encoding="UTF-8" standalone="no"?>
<!DOCTYPE svg PUBLIC "-//W3C//DTD SVG 1.1//EN"
 "http://www.w3.org/Graphics/SVG/1.1/DTD/svg11.dtd">
<!-- Generated by graphviz version 2.40.1 (20161225.0304)
 -->
<!-- Title: /home/travis/build/AliceO2Group/AliceO2/Detectors/TOF/base/test/testTOFIndex.cxx Pages: 1 -->
<svg width="613pt" height="173pt"
 viewBox="0.00 0.00 612.50 173.00" xmlns="http://www.w3.org/2000/svg" xmlns:xlink="http://www.w3.org/1999/xlink">
<g id="graph0" class="graph" transform="scale(1 1) rotate(0) translate(4 169)">
<title>/home/travis/build/AliceO2Group/AliceO2/Detectors/TOF/base/test/testTOFIndex.cxx</title>
<!-- Node0 -->
<g id="node1" class="node">
<title>Node0</title>
<polygon fill="#bfbfbf" stroke="#000000" points="218,-112.5 218,-164.5 355,-164.5 355,-112.5 218,-112.5"/>
<text text-anchor="start" x="226" y="-152.5" font-family="Helvetica,sans-Serif" font-size="10.00" fill="#000000">/home/travis/build</text>
<text text-anchor="start" x="226" y="-141.5" font-family="Helvetica,sans-Serif" font-size="10.00" fill="#000000">/AliceO2Group/AliceO2</text>
<text text-anchor="start" x="226" y="-130.5" font-family="Helvetica,sans-Serif" font-size="10.00" fill="#000000">/Detectors/TOF/base/test</text>
<text text-anchor="middle" x="286.5" y="-119.5" font-family="Helvetica,sans-Serif" font-size="10.00" fill="#000000">/testTOFIndex.cxx</text>
</g>
<!-- Node1 -->
<g id="node2" class="node">
<title>Node1</title>
<polygon fill="none" stroke="#bfbfbf" points="0,-56.5 0,-75.5 75,-75.5 75,-56.5 0,-56.5"/>
<text text-anchor="middle" x="37.5" y="-63.5" font-family="Helvetica,sans-Serif" font-size="10.00" fill="#000000">FairLogger.h</text>
</g>
<!-- Node0&#45;&gt;Node1 -->
<g id="edge1" class="edge">
<title>Node0&#45;&gt;Node1</title>
<path fill="none" stroke="#191970" d="M217.8005,-118.4971C173.6651,-105.6465 117.7335,-89.3612 79.9604,-78.363"/>
<polygon fill="#191970" stroke="#191970" points="80.8702,-74.9826 70.2904,-75.5474 78.9133,-81.7035 80.8702,-74.9826"/>
</g>
<!-- Node2 -->
<g id="node3" class="node">
<title>Node2</title>
<g id="a_node3"><a xlink:href="../../d4/d54/Geo_8h.html" target="_top" xlink:title="TOFBase/Geo.h">
<polygon fill="none" stroke="#000000" points="93,-56.5 93,-75.5 184,-75.5 184,-56.5 93,-56.5"/>
<text text-anchor="middle" x="138.5" y="-63.5" font-family="Helvetica,sans-Serif" font-size="10.00" fill="#000000">TOFBase/Geo.h</text>
</a>
</g>
</g>
<!-- Node0&#45;&gt;Node2 -->
<g id="edge2" class="edge">
<title>Node0&#45;&gt;Node2</title>
<path fill="none" stroke="#191970" d="M233.0686,-112.3258C210.788,-101.4114 185.8052,-89.1731 167.115,-80.0175"/>
<polygon fill="#191970" stroke="#191970" points="168.4826,-76.7901 157.9625,-75.534 165.4032,-83.0764 168.4826,-76.7901"/>
</g>
<!-- Node5 -->
<g id="node6" class="node">
<title>Node5</title>
<polygon fill="none" stroke="#bfbfbf" points="202.5,-56.5 202.5,-75.5 274.5,-75.5 274.5,-56.5 202.5,-56.5"/>
<text text-anchor="middle" x="238.5" y="-63.5" font-family="Helvetica,sans-Serif" font-size="10.00" fill="#000000">TRandom.h</text>
</g>
<!-- Node0&#45;&gt;Node5 -->
<g id="edge5" class="edge">
<title>Node0&#45;&gt;Node5</title>
<path fill="none" stroke="#191970" d="M269.1709,-112.3258C262.9392,-102.9134 256.0557,-92.5164 250.3914,-83.961"/>
<polygon fill="#191970" stroke="#191970" points="253.251,-81.94 244.8122,-75.534 247.4143,-85.8043 253.251,-81.94"/>
</g>
<!-- Node6 -->
<g id="node7" class="node">
<title>Node6</title>
<polygon fill="none" stroke="#bfbfbf" points="293,-56.5 293,-75.5 376,-75.5 376,-56.5 293,-56.5"/>
<text text-anchor="middle" x="334.5" y="-63.5" font-family="Helvetica,sans-Serif" font-size="10.00" fill="#000000">TStopwatch.h</text>
</g>
<!-- Node0&#45;&gt;Node6 -->
<g id="edge6" class="edge">
<title>Node0&#45;&gt;Node6</title>
<path fill="none" stroke="#191970" d="M303.8291,-112.3258C310.0608,-102.9134 316.9443,-92.5164 322.6086,-83.961"/>
<polygon fill="#191970" stroke="#191970" points="325.5857,-85.8043 328.1878,-75.534 319.749,-81.94 325.5857,-85.8043"/>
</g>
<!-- Node7 -->
<g id="node8" class="node">
<title>Node7</title>
<polygon fill="none" stroke="#bfbfbf" points="394.5,-56.5 394.5,-75.5 526.5,-75.5 526.5,-56.5 394.5,-56.5"/>
<text text-anchor="middle" x="460.5" y="-63.5" font-family="Helvetica,sans-Serif" font-size="10.00" fill="#000000">boost/test/unit_test.hpp</text>
</g>
<!-- Node0&#45;&gt;Node7 -->
<g id="edge7" class="edge">
<title>Node0&#45;&gt;Node7</title>
<path fill="none" stroke="#191970" d="M349.318,-112.3258C376.1135,-101.161 406.2335,-88.6111 428.3582,-79.3924"/>
<polygon fill="#191970" stroke="#191970" points="429.7338,-82.611 437.6184,-75.534 427.0414,-76.1494 429.7338,-82.611"/>
</g>
<!-- Node8 -->
<g id="node9" class="node">
<title>Node8</title>
<polygon fill="none" stroke="#bfbfbf" points="544.5,-56.5 544.5,-75.5 604.5,-75.5 604.5,-56.5 544.5,-56.5"/>
<text text-anchor="middle" x="574.5" y="-63.5" font-family="Helvetica,sans-Serif" font-size="10.00" fill="#000000">iostream</text>
</g>
<!-- Node0&#45;&gt;Node8 -->
<g id="edge8" class="edge">
<title>Node0&#45;&gt;Node8</title>
<path fill="none" stroke="#191970" d="M355.2215,-121.3502C402.8915,-109.4309 468.1268,-93.0738 534.475,-76.2522"/>
<polygon fill="#191970" stroke="#191970" points="535.4378,-79.6188 544.2702,-73.7674 533.7166,-72.8338 535.4378,-79.6188"/>
</g>
<!-- Node3 -->
<g id="node4" class="node">
<title>Node3</title>
<polygon fill="none" stroke="#bfbfbf" points="37,-.5 37,-19.5 96,-19.5 96,-.5 37,-.5"/>
<text text-anchor="middle" x="66.5" y="-7.5" font-family="Helvetica,sans-Serif" font-size="10.00" fill="#000000">Rtypes.h</text>
</g>
<!-- Node2&#45;&gt;Node3 -->
<g id="edge3" class="edge">
<title>Node2&#45;&gt;Node3</title>
<path fill="none" stroke="#191970" d="M125.9586,-56.2455C115.2213,-47.8943 99.5527,-35.7076 86.9953,-25.9408"/>
<polygon fill="#191970" stroke="#191970" points="88.9401,-23.0194 78.8977,-19.6427 84.6425,-28.5449 88.9401,-23.0194"/>
</g>
<!-- Node4 -->
<g id="node5" class="node">
<title>Node4</title>
<g id="a_node5"><a xlink:href="../../d4/dc6/LHCConstants_8h.html" target="_top" xlink:title="Header to collect LHC related constants. ">
<polygon fill="none" stroke="#000000" points="114.5,-.5 114.5,-19.5 304.5,-19.5 304.5,-.5 114.5,-.5"/>
<text text-anchor="middle" x="209.5" y="-7.5" font-family="Helvetica,sans-Serif" font-size="10.00" fill="#000000">CommonConstants/LHCConstants.h</text>
</a>
</g>
</g>
<!-- Node2&#45;&gt;Node4 -->
<g id="edge4" class="edge">
<title>Node2&#45;&gt;Node4</title>
<path fill="none" stroke="#191970" d="M150.8673,-56.2455C161.4554,-47.8943 176.9064,-35.7076 189.2893,-25.9408"/>
<polygon fill="#191970" stroke="#191970" points="191.5903,-28.5837 197.2745,-19.6427 187.2553,-23.0875 191.5903,-28.5837"/>
</g>
</g>
</svg>
