<?xml version="1.0" encoding="UTF-8" standalone="no"?>
<!DOCTYPE svg PUBLIC "-//W3C//DTD SVG 1.1//EN"
 "http://www.w3.org/Graphics/SVG/1.1/DTD/svg11.dtd">
<!-- Generated by graphviz version 2.40.1 (20161225.0304)
 -->
<!-- Title: /home/travis/build/AliceO2Group/AliceO2/Detectors/MUON/MCH/Raw/Decoder/include/MCHRawDecoder/Decoder.h Pages: 1 -->
<svg width="666pt" height="528pt"
 viewBox="0.00 0.00 665.50 528.00" xmlns="http://www.w3.org/2000/svg" xmlns:xlink="http://www.w3.org/1999/xlink">
<g id="graph0" class="graph" transform="scale(1 1) rotate(0) translate(4 524)">
<title>/home/travis/build/AliceO2Group/AliceO2/Detectors/MUON/MCH/Raw/Decoder/include/MCHRawDecoder/Decoder.h</title>
<!-- Node16 -->
<g id="node1" class="node">
<title>Node16</title>
<polygon fill="#bfbfbf" stroke="#000000" points="219,-456.5 219,-519.5 404,-519.5 404,-456.5 219,-456.5"/>
<text text-anchor="start" x="227" y="-507.5" font-family="Helvetica,sans-Serif" font-size="10.00" fill="#000000">/home/travis/build</text>
<text text-anchor="start" x="227" y="-496.5" font-family="Helvetica,sans-Serif" font-size="10.00" fill="#000000">/AliceO2Group/AliceO2</text>
<text text-anchor="start" x="227" y="-485.5" font-family="Helvetica,sans-Serif" font-size="10.00" fill="#000000">/Detectors/MUON/MCH/Raw</text>
<text text-anchor="start" x="227" y="-474.5" font-family="Helvetica,sans-Serif" font-size="10.00" fill="#000000">/Decoder/include/MCHRawDecoder</text>
<text text-anchor="middle" x="311.5" y="-463.5" font-family="Helvetica,sans-Serif" font-size="10.00" fill="#000000">/Decoder.h</text>
</g>
<!-- Node17 -->
<g id="node2" class="node">
<title>Node17</title>
<g id="a_node2"><a xlink:href="../../d0/da1/PayloadDecoder_8h.html" target="_top" xlink:title="/home/travis/build\l/AliceO2Group/AliceO2\l/Detectors/MUON/MCH/Raw\l/Decoder/src/PayloadDecoder.h">
<polygon fill="none" stroke="#000000" points="0,-178.5 0,-230.5 167,-230.5 167,-178.5 0,-178.5"/>
<text text-anchor="start" x="8" y="-218.5" font-family="Helvetica,sans-Serif" font-size="10.00" fill="#000000">/home/travis/build</text>
<text text-anchor="start" x="8" y="-207.5" font-family="Helvetica,sans-Serif" font-size="10.00" fill="#000000">/AliceO2Group/AliceO2</text>
<text text-anchor="start" x="8" y="-196.5" font-family="Helvetica,sans-Serif" font-size="10.00" fill="#000000">/Detectors/MUON/MCH/Raw</text>
<text text-anchor="middle" x="83.5" y="-185.5" font-family="Helvetica,sans-Serif" font-size="10.00" fill="#000000">/Decoder/src/PayloadDecoder.h</text>
</a>
</g>
</g>
<!-- Node16&#45;&gt;Node17 -->
<g id="edge1" class="edge">
<title>Node16&#45;&gt;Node17</title>
<path fill="none" stroke="#191970" d="M209.2469,-465.9751C163.5423,-453.9674 116.7505,-437.9102 102.5,-420 58.6538,-364.8933 68.843,-274.9061 77.4352,-230.6944"/>
<polygon fill="#191970" stroke="#191970" points="208.4146,-469.3749 218.9711,-468.4752 210.1576,-462.5954 208.4146,-469.3749"/>
</g>
<!-- Node20 -->
<g id="node5" class="node">
<title>Node20</title>
<g id="a_node5"><a xlink:href="../../db/de7/UserLogicElinkDecoder_8h.html" target="_top" xlink:title="/home/travis/build\l/AliceO2Group/AliceO2\l/Detectors/MUON/MCH/Raw\l/Decoder/src/UserLogicElinkDecoder.h">
<polygon fill="none" stroke="#000000" points="112,-367.5 112,-419.5 313,-419.5 313,-367.5 112,-367.5"/>
<text text-anchor="start" x="120" y="-407.5" font-family="Helvetica,sans-Serif" font-size="10.00" fill="#000000">/home/travis/build</text>
<text text-anchor="start" x="120" y="-396.5" font-family="Helvetica,sans-Serif" font-size="10.00" fill="#000000">/AliceO2Group/AliceO2</text>
<text text-anchor="start" x="120" y="-385.5" font-family="Helvetica,sans-Serif" font-size="10.00" fill="#000000">/Detectors/MUON/MCH/Raw</text>
<text text-anchor="middle" x="212.5" y="-374.5" font-family="Helvetica,sans-Serif" font-size="10.00" fill="#000000">/Decoder/src/UserLogicElinkDecoder.h</text>
</a>
</g>
</g>
<!-- Node16&#45;&gt;Node20 -->
<g id="edge5" class="edge">
<title>Node16&#45;&gt;Node20</title>
<path fill="none" stroke="#191970" d="M270.8024,-449.1523C260.394,-439.217 249.4491,-428.7696 239.8891,-419.6442"/>
<polygon fill="#191970" stroke="#191970" points="268.6088,-451.8969 278.259,-456.27 273.4421,-446.8334 268.6088,-451.8969"/>
</g>
<!-- Node23 -->
<g id="node8" class="node">
<title>Node23</title>
<g id="a_node8"><a xlink:href="../../d7/d98/testDecoder_8cxx.html" target="_top" xlink:title="/home/travis/build\l/AliceO2Group/AliceO2\l/Detectors/MUON/MCH/Raw\l/Decoder/src/testDecoder.cxx">
<polygon fill="none" stroke="#000000" points="331,-367.5 331,-419.5 490,-419.5 490,-367.5 331,-367.5"/>
<text text-anchor="start" x="339" y="-407.5" font-family="Helvetica,sans-Serif" font-size="10.00" fill="#000000">/home/travis/build</text>
<text text-anchor="start" x="339" y="-396.5" font-family="Helvetica,sans-Serif" font-size="10.00" fill="#000000">/AliceO2Group/AliceO2</text>
<text text-anchor="start" x="339" y="-385.5" font-family="Helvetica,sans-Serif" font-size="10.00" fill="#000000">/Detectors/MUON/MCH/Raw</text>
<text text-anchor="middle" x="410.5" y="-374.5" font-family="Helvetica,sans-Serif" font-size="10.00" fill="#000000">/Decoder/src/testDecoder.cxx</text>
</a>
</g>
</g>
<!-- Node16&#45;&gt;Node23 -->
<g id="edge11" class="edge">
<title>Node16&#45;&gt;Node23</title>
<path fill="none" stroke="#191970" d="M352.1976,-449.1523C362.606,-439.217 373.5509,-428.7696 383.1109,-419.6442"/>
<polygon fill="#191970" stroke="#191970" points="349.5579,-446.8334 344.741,-456.27 354.3912,-451.8969 349.5579,-446.8334"/>
</g>
<!-- Node24 -->
<g id="node9" class="node">
<title>Node24</title>
<g id="a_node9"><a xlink:href="../../d4/dbc/rawdump_8cxx.html" target="_top" xlink:title="/home/travis/build\l/AliceO2Group/AliceO2\l/Detectors/MUON/MCH/Raw\l/Tools/rawdump.cxx">
<polygon fill="none" stroke="#000000" points="507.5,-367.5 507.5,-419.5 657.5,-419.5 657.5,-367.5 507.5,-367.5"/>
<text text-anchor="start" x="515.5" y="-407.5" font-family="Helvetica,sans-Serif" font-size="10.00" fill="#000000">/home/travis/build</text>
<text text-anchor="start" x="515.5" y="-396.5" font-family="Helvetica,sans-Serif" font-size="10.00" fill="#000000">/AliceO2Group/AliceO2</text>
<text text-anchor="start" x="515.5" y="-385.5" font-family="Helvetica,sans-Serif" font-size="10.00" fill="#000000">/Detectors/MUON/MCH/Raw</text>
<text text-anchor="middle" x="582.5" y="-374.5" font-family="Helvetica,sans-Serif" font-size="10.00" fill="#000000">/Tools/rawdump.cxx</text>
</a>
</g>
</g>
<!-- Node16&#45;&gt;Node24 -->
<g id="edge12" class="edge">
<title>Node16&#45;&gt;Node24</title>
<path fill="none" stroke="#191970" d="M411.8721,-452.9994C443.6221,-441.9279 478.136,-429.8926 507.7622,-419.5617"/>
<polygon fill="#191970" stroke="#191970" points="410.4058,-449.8039 402.1158,-456.4015 412.7107,-456.4136 410.4058,-449.8039"/>
</g>
<!-- Node17&#45;&gt;Node17 -->
<g id="edge4" class="edge">
<title>Node17&#45;&gt;Node17</title>
<path fill="none" stroke="#191970" d="M176.7878,-215.5549C181.9367,-212.8659 185,-209.1809 185,-204.5 185,-197.3672 177.887,-192.547 167.1203,-190.0393"/>
<polygon fill="#191970" stroke="#191970" points="175.3891,-212.3367 167.1203,-218.9607 177.7151,-218.939 175.3891,-212.3367"/>
</g>
<!-- Node18 -->
<g id="node3" class="node">
<title>Node18</title>
<g id="a_node3"><a xlink:href="../../d0/df0/Detectors_2MUON_2MCH_2Raw_2Decoder_2src_2PageParser_8h.html" target="_top" xlink:title="/home/travis/build\l/AliceO2Group/AliceO2\l/Detectors/MUON/MCH/Raw\l/Decoder/src/PageParser.h">
<polygon fill="none" stroke="#000000" points="22.5,-89.5 22.5,-141.5 172.5,-141.5 172.5,-89.5 22.5,-89.5"/>
<text text-anchor="start" x="30.5" y="-129.5" font-family="Helvetica,sans-Serif" font-size="10.00" fill="#000000">/home/travis/build</text>
<text text-anchor="start" x="30.5" y="-118.5" font-family="Helvetica,sans-Serif" font-size="10.00" fill="#000000">/AliceO2Group/AliceO2</text>
<text text-anchor="start" x="30.5" y="-107.5" font-family="Helvetica,sans-Serif" font-size="10.00" fill="#000000">/Detectors/MUON/MCH/Raw</text>
<text text-anchor="middle" x="97.5" y="-96.5" font-family="Helvetica,sans-Serif" font-size="10.00" fill="#000000">/Decoder/src/PageParser.h</text>
</a>
</g>
</g>
<!-- Node17&#45;&gt;Node18 -->
<g id="edge2" class="edge">
<title>Node17&#45;&gt;Node18</title>
<path fill="none" stroke="#191970" d="M89.2234,-168.1155C90.6249,-159.2061 92.097,-149.8475 93.4047,-141.5341"/>
<polygon fill="#191970" stroke="#191970" points="85.7213,-167.856 87.6247,-178.2784 92.6362,-168.9438 85.7213,-167.856"/>
</g>
<!-- Node19 -->
<g id="node4" class="node">
<title>Node19</title>
<g id="a_node4"><a xlink:href="../../d0/d6c/MUON_2MCH_2Raw_2Decoder_2src_2Decoder_8cxx.html" target="_top" xlink:title="/home/travis/build\l/AliceO2Group/AliceO2\l/Detectors/MUON/MCH/Raw\l/Decoder/src/Decoder.cxx">
<polygon fill="none" stroke="#000000" points="73.5,-.5 73.5,-52.5 223.5,-52.5 223.5,-.5 73.5,-.5"/>
<text text-anchor="start" x="81.5" y="-40.5" font-family="Helvetica,sans-Serif" font-size="10.00" fill="#000000">/home/travis/build</text>
<text text-anchor="start" x="81.5" y="-29.5" font-family="Helvetica,sans-Serif" font-size="10.00" fill="#000000">/AliceO2Group/AliceO2</text>
<text text-anchor="start" x="81.5" y="-18.5" font-family="Helvetica,sans-Serif" font-size="10.00" fill="#000000">/Detectors/MUON/MCH/Raw</text>
<text text-anchor="middle" x="148.5" y="-7.5" font-family="Helvetica,sans-Serif" font-size="10.00" fill="#000000">/Decoder/src/Decoder.cxx</text>
</a>
</g>
</g>
<!-- Node18&#45;&gt;Node19 -->
<g id="edge3" class="edge">
<title>Node18&#45;&gt;Node19</title>
<path fill="none" stroke="#191970" d="M117.5196,-80.5639C122.8702,-71.2264 128.5588,-61.2993 133.5816,-52.5341"/>
<polygon fill="#191970" stroke="#191970" points="114.461,-78.8618 112.5258,-89.2784 120.5345,-82.3422 114.461,-78.8618"/>
</g>
<!-- Node21 -->
<g id="node6" class="node">
<title>Node21</title>
<g id="a_node6"><a xlink:href="../../d3/d1b/UserLogicGBTDecoder_8h.html" target="_top" xlink:title="/home/travis/build\l/AliceO2Group/AliceO2\l/Detectors/MUON/MCH/Raw\l/Decoder/src/UserLogicGBTDecoder.h">
<polygon fill="none" stroke="#000000" points="113,-273 113,-325 310,-325 310,-273 113,-273"/>
<text text-anchor="start" x="121" y="-313" font-family="Helvetica,sans-Serif" font-size="10.00" fill="#000000">/home/travis/build</text>
<text text-anchor="start" x="121" y="-302" font-family="Helvetica,sans-Serif" font-size="10.00" fill="#000000">/AliceO2Group/AliceO2</text>
<text text-anchor="start" x="121" y="-291" font-family="Helvetica,sans-Serif" font-size="10.00" fill="#000000">/Detectors/MUON/MCH/Raw</text>
<text text-anchor="middle" x="211.5" y="-280" font-family="Helvetica,sans-Serif" font-size="10.00" fill="#000000">/Decoder/src/UserLogicGBTDecoder.h</text>
</a>
</g>
</g>
<!-- Node20&#45;&gt;Node21 -->
<g id="edge6" class="edge">
<title>Node20&#45;&gt;Node21</title>
<path fill="none" stroke="#191970" d="M212.1155,-357.1645C212.0033,-346.5577 211.8828,-335.1746 211.7785,-325.3157"/>
<polygon fill="#191970" stroke="#191970" points="208.6184,-357.4649 212.2241,-367.4273 215.618,-357.3908 208.6184,-357.4649"/>
</g>
<!-- Node22 -->
<g id="node7" class="node">
<title>Node22</title>
<g id="a_node7"><a xlink:href="../../d5/d93/testUserLogicElinkDecoder_8cxx.html" target="_top" xlink:title="/home/travis/build\l/AliceO2Group/AliceO2\l/Detectors/MUON/MCH/Raw\l/Decoder/src/testUserLogicElink\lDecoder.cxx">
<polygon fill="none" stroke="#000000" points="346,-267.5 346,-330.5 517,-330.5 517,-267.5 346,-267.5"/>
<text text-anchor="start" x="354" y="-318.5" font-family="Helvetica,sans-Serif" font-size="10.00" fill="#000000">/home/travis/build</text>
<text text-anchor="start" x="354" y="-307.5" font-family="Helvetica,sans-Serif" font-size="10.00" fill="#000000">/AliceO2Group/AliceO2</text>
<text text-anchor="start" x="354" y="-296.5" font-family="Helvetica,sans-Serif" font-size="10.00" fill="#000000">/Detectors/MUON/MCH/Raw</text>
<text text-anchor="start" x="354" y="-285.5" font-family="Helvetica,sans-Serif" font-size="10.00" fill="#000000">/Decoder/src/testUserLogicElink</text>
<text text-anchor="middle" x="431.5" y="-274.5" font-family="Helvetica,sans-Serif" font-size="10.00" fill="#000000">Decoder.cxx</text>
</a>
</g>
</g>
<!-- Node20&#45;&gt;Node22 -->
<g id="edge10" class="edge">
<title>Node20&#45;&gt;Node22</title>
<path fill="none" stroke="#191970" d="M282.4103,-363.3332C306.6665,-352.8665 333.9179,-341.1073 358.4228,-330.5333"/>
<polygon fill="#191970" stroke="#191970" points="280.7174,-360.2517 272.9224,-367.4273 283.4908,-366.6789 280.7174,-360.2517"/>
</g>
<!-- Node21&#45;&gt;Node17 -->
<g id="edge7" class="edge">
<title>Node21&#45;&gt;Node17</title>
<path fill="none" stroke="#191970" d="M168.0546,-266.925C152.1304,-255.1685 134.3068,-242.0097 119.1445,-230.8157"/>
<polygon fill="#191970" stroke="#191970" points="166.0607,-269.8035 176.1846,-272.9273 170.2184,-264.172 166.0607,-269.8035"/>
</g>
<!-- Node21&#45;&gt;Node19 -->
<g id="edge9" class="edge">
<title>Node21&#45;&gt;Node19</title>
<path fill="none" stroke="#191970" d="M210.0844,-262.6623C207.5719,-220.1063 200.6286,-147.9344 181.5,-89 177.4467,-76.5121 171.0167,-63.5447 164.9049,-52.6802"/>
<polygon fill="#191970" stroke="#191970" points="206.5986,-263.0206 210.6324,-272.8174 213.5884,-262.6433 206.5986,-263.0206"/>
</g>
<!-- Node21&#45;&gt;Node21 -->
<g id="edge8" class="edge">
<title>Node21&#45;&gt;Node21</title>
<path fill="none" stroke="#191970" d="M319.8178,-310.169C324.974,-307.3616 328,-303.6386 328,-299 328,-291.9316 320.9735,-286.9893 310.0908,-284.173"/>
<polygon fill="#191970" stroke="#191970" points="318.2188,-307.031 310.0908,-313.827 320.6828,-313.583 318.2188,-307.031"/>
</g>
</g>
</svg>
