<?xml version="1.0" encoding="UTF-8" standalone="no"?>
<!DOCTYPE svg PUBLIC "-//W3C//DTD SVG 1.1//EN"
 "http://www.w3.org/Graphics/SVG/1.1/DTD/svg11.dtd">
<!-- Generated by graphviz version 2.40.1 (20161225.0304)
 -->
<!-- Title: /home/travis/build/AliceO2Group/AliceO2/GPU/GPUTracking/Merger/GPUTPCGMMerger.h Pages: 1 -->
<!--zoomable 453 -->
<svg id="main" version="1.1" xmlns="http://www.w3.org/2000/svg" xmlns:xlink="http://www.w3.org/1999/xlink" xml:space="preserve" onload="init(evt)">
<style type="text/css"><![CDATA[
.edge:hover path { stroke: red; }
.edge:hover polygon { stroke: red; fill: red; }
]]></style>
<script type="text/javascript"><![CDATA[
var edges = document.getElementsByTagName('g');
if (edges && edges.length) {
  for (var i=0;i<edges.length;i++) {
    if (edges[i].id.substr(0,4)=='edge') {
      edges[i].setAttribute('class','edge');
    }
  }
}
]]></script>
        <defs>
                <circle id="rim" cx="0" cy="0" r="7"/>
                <circle id="rim2" cx="0" cy="0" r="3.5"/>
                <g id="zoomPlus">
                        <use xlink:href="#rim" fill="#404040">
                                <set attributeName="fill" to="#808080" begin="zoomplus.mouseover" end="zoomplus.mouseout"/>
                        </use>
                        <path d="M-4,0h8M0,-4v8" fill="none" stroke="white" stroke-width="1.5" pointer-events="none"/>
                </g>
                <g id="zoomMin">
                        <use xlink:href="#rim" fill="#404040">
                                <set attributeName="fill" to="#808080" begin="zoomminus.mouseover" end="zoomminus.mouseout"/>
                        </use>
                        <path d="M-4,0h8" fill="none" stroke="white" stroke-width="1.5" pointer-events="none"/>
                </g>
                <g id="dirArrow">
                        <path fill="none" stroke="white" stroke-width="1.5" d="M0,-3.0v7 M-2.5,-0.5L0,-3.0L2.5,-0.5"/>
                </g>
               <g id="resetDef">
                       <use xlink:href="#rim2" fill="#404040">
                               <set attributeName="fill" to="#808080" begin="reset.mouseover" end="reset.mouseout"/>
                       </use>
               </g>
        </defs>

<script type="text/javascript">
var viewWidth = 1522;
var viewHeight = 453;
var sectionId = 'dynsection-0';
</script>
<script xlink:href="../../svgpan.js"/>
<svg id="graph" class="graph">
<g id="viewport">
<title>/home/travis/build/AliceO2Group/AliceO2/GPU/GPUTracking/Merger/GPUTPCGMMerger.h</title>
<!-- Node0 -->
<g id="node1" class="node">
<title>Node0</title>
<polygon fill="#bfbfbf" stroke="#000000" points="498,-392.5 498,-444.5 640,-444.5 640,-392.5 498,-392.5"/>
<text text-anchor="start" x="506" y="-432.5" font-family="Helvetica,sans-Serif" font-size="10.00" fill="#000000">/home/travis/build</text>
<text text-anchor="start" x="506" y="-421.5" font-family="Helvetica,sans-Serif" font-size="10.00" fill="#000000">/AliceO2Group/AliceO2</text>
<text text-anchor="start" x="506" y="-410.5" font-family="Helvetica,sans-Serif" font-size="10.00" fill="#000000">/GPU/GPUTracking/Merger</text>
<text text-anchor="middle" x="569" y="-399.5" font-family="Helvetica,sans-Serif" font-size="10.00" fill="#000000">/GPUTPCGMMerger.h</text>
</g>
<!-- Node1 -->
<g id="node2" class="node">
<title>Node1</title>
<g id="a_node2"><a xlink:href="../../df/d13/GPUParam_8h.html" target="_top" xlink:title="GPUParam.h">
<polygon fill="none" stroke="#000000" points="346.5,-280.5 346.5,-299.5 423.5,-299.5 423.5,-280.5 346.5,-280.5"/>
<text text-anchor="middle" x="385" y="-287.5" font-family="Helvetica,sans-Serif" font-size="10.00" fill="#000000">GPUParam.h</text>
</a>
</g>
</g>
<!-- Node0&#45;&gt;Node1 -->
<g id="edge1" class="edge">
<title>Node0&#45;&gt;Node1</title>
<path fill="none" stroke="#191970" d="M531.7649,-392.4961C494.2991,-366.3312 437.7819,-326.8613 406.9575,-305.3345"/>
<polygon fill="#191970" stroke="#191970" points="408.826,-302.3703 398.6234,-299.5142 404.818,-308.1094 408.826,-302.3703"/>
</g>
<!-- Node2 -->
<g id="node3" class="node">
<title>Node2</title>
<g id="a_node3"><a xlink:href="../../df/d21/GPUCommonDef_8h.html" target="_top" xlink:title="GPUCommonDef.h">
<polygon fill="none" stroke="#000000" points="369.5,-56.5 369.5,-75.5 476.5,-75.5 476.5,-56.5 369.5,-56.5"/>
<text text-anchor="middle" x="423" y="-63.5" font-family="Helvetica,sans-Serif" font-size="10.00" fill="#000000">GPUCommonDef.h</text>
</a>
</g>
</g>
<!-- Node0&#45;&gt;Node2 -->
<g id="edge52" class="edge">
<title>Node0&#45;&gt;Node2</title>
<path fill="none" stroke="#191970" d="M497.9641,-414.9492C379.0015,-408.1181 145.2151,-390.6569 71,-356 31.963,-337.7706 0,-333.0836 0,-290 0,-290 0,-290 0,-178 0,-136.8295 28.1166,-130.2928 65,-112 115.2879,-87.0591 270.5247,-74.4979 359.1885,-69.2042"/>
<polygon fill="#191970" stroke="#191970" points="359.617,-72.6852 369.3964,-68.6092 359.2096,-65.6971 359.617,-72.6852"/>
</g>
<!-- Node6 -->
<g id="node7" class="node">
<title>Node6</title>
<polygon fill="none" stroke="#bfbfbf" points="74.5,-112.5 74.5,-131.5 121.5,-131.5 121.5,-112.5 74.5,-112.5"/>
<text text-anchor="middle" x="98" y="-119.5" font-family="Helvetica,sans-Serif" font-size="10.00" fill="#000000">cmath</text>
</g>
<!-- Node0&#45;&gt;Node6 -->
<g id="edge58" class="edge">
<title>Node0&#45;&gt;Node6</title>
<path fill="none" stroke="#191970" d="M497.938,-416.0832C353.2453,-409.2235 38,-383.5443 38,-290 38,-290 38,-290 38,-234 38,-196.7757 64.0711,-159.9604 81.8422,-139.1895"/>
<polygon fill="#191970" stroke="#191970" points="84.5973,-141.3582 88.625,-131.5588 79.3654,-136.7077 84.5973,-141.3582"/>
</g>
<!-- Node17 -->
<g id="node18" class="node">
<title>Node17</title>
<g id="a_node18"><a xlink:href="../../da/dab/GPUTPCDef_8h.html" target="_top" xlink:title="GPUTPCDef.h">
<polygon fill="none" stroke="#000000" points="1084,-168.5 1084,-187.5 1166,-187.5 1166,-168.5 1084,-168.5"/>
<text text-anchor="middle" x="1125" y="-175.5" font-family="Helvetica,sans-Serif" font-size="10.00" fill="#000000">GPUTPCDef.h</text>
</a>
</g>
</g>
<!-- Node0&#45;&gt;Node17 -->
<g id="edge23" class="edge">
<title>Node0&#45;&gt;Node17</title>
<path fill="none" stroke="#191970" d="M640.1766,-415.4743C825.9875,-405.8621 1317.515,-368.869 1407,-244 1412.1778,-236.7748 1412.7573,-230.7725 1407,-224 1392.2408,-206.6381 1253.3831,-190.5009 1176.18,-182.7751"/>
<polygon fill="#191970" stroke="#191970" points="1176.4666,-179.2865 1166.1709,-181.786 1175.7782,-186.2525 1176.4666,-179.2865"/>
</g>
<!-- Node18 -->
<g id="node19" class="node">
<title>Node18</title>
<g id="a_node19"><a xlink:href="../../d8/dd4/GPUTPCGMBorderTrack_8h.html" target="_top" xlink:title="GPUTPCGMBorderTrack.h">
<polygon fill="none" stroke="#000000" points="66.5,-224.5 66.5,-243.5 205.5,-243.5 205.5,-224.5 66.5,-224.5"/>
<text text-anchor="middle" x="136" y="-231.5" font-family="Helvetica,sans-Serif" font-size="10.00" fill="#000000">GPUTPCGMBorderTrack.h</text>
</a>
</g>
</g>
<!-- Node0&#45;&gt;Node18 -->
<g id="edge24" class="edge">
<title>Node0&#45;&gt;Node18</title>
<path fill="none" stroke="#191970" d="M507.88,-392.457C414.5912,-352.7069 239.9516,-278.2935 168.1179,-247.6853"/>
<polygon fill="#191970" stroke="#191970" points="169.255,-244.3654 158.6833,-243.6653 166.511,-250.8052 169.255,-244.3654"/>
</g>
<!-- Node19 -->
<g id="node20" class="node">
<title>Node19</title>
<g id="a_node20"><a xlink:href="../../d8/dfd/GPUTPCGMMergedTrack_8h.html" target="_top" xlink:title="GPUTPCGMMergedTrack.h">
<polygon fill="none" stroke="#000000" points="640.5,-280.5 640.5,-299.5 783.5,-299.5 783.5,-280.5 640.5,-280.5"/>
<text text-anchor="middle" x="712" y="-287.5" font-family="Helvetica,sans-Serif" font-size="10.00" fill="#000000">GPUTPCGMMergedTrack.h</text>
</a>
</g>
</g>
<!-- Node0&#45;&gt;Node19 -->
<g id="edge27" class="edge">
<title>Node0&#45;&gt;Node19</title>
<path fill="none" stroke="#191970" d="M600.6941,-392.465C613.93,-381.4041 629.3688,-368.2545 643,-356 661.137,-339.6948 681.217,-320.332 695.0162,-306.8115"/>
<polygon fill="#191970" stroke="#191970" points="697.6792,-309.1014 702.353,-299.5932 692.7699,-304.1115 697.6792,-309.1014"/>
</g>
<!-- Node24 -->
<g id="node25" class="node">
<title>Node24</title>
<g id="a_node25"><a xlink:href="../../d1/dc3/GPUTPCGMSliceTrack_8h.html" target="_top" xlink:title="GPUTPCGMSliceTrack.h">
<polygon fill="none" stroke="#000000" points="504,-336.5 504,-355.5 634,-355.5 634,-336.5 504,-336.5"/>
<text text-anchor="middle" x="569" y="-343.5" font-family="Helvetica,sans-Serif" font-size="10.00" fill="#000000">GPUTPCGMSliceTrack.h</text>
</a>
</g>
</g>
<!-- Node0&#45;&gt;Node24 -->
<g id="edge37" class="edge">
<title>Node0&#45;&gt;Node24</title>
<path fill="none" stroke="#191970" d="M569,-392.3258C569,-383.5142 569,-373.8397 569,-365.621"/>
<polygon fill="#191970" stroke="#191970" points="572.5001,-365.534 569,-355.534 565.5001,-365.534 572.5001,-365.534"/>
</g>
<!-- Node31 -->
<g id="node32" class="node">
<title>Node31</title>
<g id="a_node32"><a xlink:href="../../d6/d57/GPUProcessor_8h.html" target="_top" xlink:title="GPUProcessor.h">
<polygon fill="none" stroke="#000000" points="893.5,-168.5 893.5,-187.5 986.5,-187.5 986.5,-168.5 893.5,-168.5"/>
<text text-anchor="middle" x="940" y="-175.5" font-family="Helvetica,sans-Serif" font-size="10.00" fill="#000000">GPUProcessor.h</text>
</a>
</g>
</g>
<!-- Node0&#45;&gt;Node31 -->
<g id="edge53" class="edge">
<title>Node0&#45;&gt;Node31</title>
<path fill="none" stroke="#191970" d="M640.2651,-401.65C756.8727,-372.4762 980.0153,-309.3806 1025,-244 1040.6516,-221.252 1009.9014,-202.7722 981.1098,-191.2141"/>
<polygon fill="#191970" stroke="#191970" points="982.0819,-187.8395 971.4906,-187.5636 979.5981,-194.3841 982.0819,-187.8395"/>
</g>
<!-- Node32 -->
<g id="node33" class="node">
<title>Node32</title>
<polygon fill="none" stroke="#bfbfbf" points="1454,-336.5 1454,-355.5 1514,-355.5 1514,-336.5 1454,-336.5"/>
<text text-anchor="middle" x="1484" y="-343.5" font-family="Helvetica,sans-Serif" font-size="10.00" fill="#000000">iostream</text>
</g>
<!-- Node0&#45;&gt;Node32 -->
<g id="edge59" class="edge">
<title>Node0&#45;&gt;Node32</title>
<path fill="none" stroke="#191970" d="M640.2445,-417.0459C789.4021,-413.1996 1145.1477,-399.8255 1440,-356 1441.264,-355.8121 1442.5455,-355.6076 1443.8373,-355.3893"/>
<polygon fill="#191970" stroke="#191970" points="1444.6462,-358.7983 1453.8175,-353.4939 1443.3401,-351.9212 1444.6462,-358.7983"/>
</g>
<!-- Node1&#45;&gt;Node2 -->
<g id="edge2" class="edge">
<title>Node1&#45;&gt;Node2</title>
<path fill="none" stroke="#191970" d="M346.4029,-281.5887C324.5436,-274.908 298.3785,-263.3638 282,-244 243.2096,-198.1393 216.4929,-159.6984 253,-112 266.161,-94.8044 316.8019,-82.555 359.4183,-75.0426"/>
<polygon fill="#191970" stroke="#191970" points="360.2194,-78.4566 369.4896,-73.327 359.0439,-71.556 360.2194,-78.4566"/>
</g>
<!-- Node5 -->
<g id="node6" class="node">
<title>Node5</title>
<g id="a_node6"><a xlink:href="../../d6/da2/GPUCommonMath_8h.html" target="_top" xlink:title="GPUCommonMath.h">
<polygon fill="none" stroke="#000000" points="300.5,-168.5 300.5,-187.5 415.5,-187.5 415.5,-168.5 300.5,-168.5"/>
<text text-anchor="middle" x="358" y="-175.5" font-family="Helvetica,sans-Serif" font-size="10.00" fill="#000000">GPUCommonMath.h</text>
</a>
</g>
</g>
<!-- Node1&#45;&gt;Node5 -->
<g id="edge5" class="edge">
<title>Node1&#45;&gt;Node5</title>
<path fill="none" stroke="#191970" d="M389.3048,-280.3285C394.509,-267.2191 401.7769,-243.2381 395,-224 391.1691,-213.125 383.5598,-202.9246 376.2328,-194.9061"/>
<polygon fill="#191970" stroke="#191970" points="378.6466,-192.3686 369.1502,-187.6707 373.6443,-197.2652 378.6466,-192.3686"/>
</g>
<!-- Node8 -->
<g id="node9" class="node">
<title>Node8</title>
<g id="a_node9"><a xlink:href="../../d2/d6d/GPUDef_8h.html" target="_top" xlink:title="GPUDef.h">
<polygon fill="none" stroke="#000000" points="994.5,-112.5 994.5,-131.5 1057.5,-131.5 1057.5,-112.5 994.5,-112.5"/>
<text text-anchor="middle" x="1026" y="-119.5" font-family="Helvetica,sans-Serif" font-size="10.00" fill="#000000">GPUDef.h</text>
</a>
</g>
</g>
<!-- Node1&#45;&gt;Node8 -->
<g id="edge9" class="edge">
<title>Node1&#45;&gt;Node8</title>
<path fill="none" stroke="#191970" d="M423.7841,-287.4927C512.1488,-281.4829 726.104,-265.1689 795,-244 813.2435,-238.3945 815.0779,-230.5608 833,-224 902.6688,-198.496 938.3476,-234.6947 996,-188 1010.3243,-176.3982 1018.0776,-156.4704 1022.0902,-141.54"/>
<polygon fill="#191970" stroke="#191970" points="1025.5122,-142.2773 1024.3913,-131.742 1018.6976,-140.6768 1025.5122,-142.2773"/>
</g>
<!-- Node14 -->
<g id="node15" class="node">
<title>Node14</title>
<g id="a_node15"><a xlink:href="../../dd/dc6/GPUSettings_8h.html" target="_top" xlink:title="GPUSettings.h">
<polygon fill="none" stroke="#000000" points="300,-224.5 300,-243.5 386,-243.5 386,-224.5 300,-224.5"/>
<text text-anchor="middle" x="343" y="-231.5" font-family="Helvetica,sans-Serif" font-size="10.00" fill="#000000">GPUSettings.h</text>
</a>
</g>
</g>
<!-- Node1&#45;&gt;Node14 -->
<g id="edge16" class="edge">
<title>Node1&#45;&gt;Node14</title>
<path fill="none" stroke="#191970" d="M377.6842,-280.2455C371.7821,-272.3761 363.3258,-261.101 356.2406,-251.6542"/>
<polygon fill="#191970" stroke="#191970" points="359.0321,-249.5427 350.232,-243.6427 353.432,-253.7427 359.0321,-249.5427"/>
</g>
<!-- Node15 -->
<g id="node16" class="node">
<title>Node15</title>
<g id="a_node16"><a xlink:href="../../d6/d1b/GPUTPCGeometry_8h.html" target="_top" xlink:title="GPUTPCGeometry.h">
<polygon fill="none" stroke="#000000" points="262.5,-112.5 262.5,-131.5 375.5,-131.5 375.5,-112.5 262.5,-112.5"/>
<text text-anchor="middle" x="319" y="-119.5" font-family="Helvetica,sans-Serif" font-size="10.00" fill="#000000">GPUTPCGeometry.h</text>
</a>
</g>
</g>
<!-- Node1&#45;&gt;Node15 -->
<g id="edge18" class="edge">
<title>Node1&#45;&gt;Node15</title>
<path fill="none" stroke="#191970" d="M346.2736,-281.4862C326.0792,-274.8689 303.1185,-263.422 291,-244 286.4198,-236.6593 280.6653,-208.2784 292,-168 294.8067,-158.0261 300.3178,-147.9834 305.6332,-139.8373"/>
<polygon fill="#191970" stroke="#191970" points="308.56,-141.7588 311.3965,-131.5508 302.8132,-137.7619 308.56,-141.7588"/>
</g>
<!-- Node16 -->
<g id="node17" class="node">
<title>Node16</title>
<g id="a_node17"><a xlink:href="../../d9/d9c/GPUTPCGMPolynomialField_8h.html" target="_top" xlink:title="GPUTPCGMPolynomialField.h">
<polygon fill="none" stroke="#000000" points="842,-224.5 842,-243.5 1000,-243.5 1000,-224.5 842,-224.5"/>
<text text-anchor="middle" x="921" y="-231.5" font-family="Helvetica,sans-Serif" font-size="10.00" fill="#000000">GPUTPCGMPolynomialField.h</text>
</a>
</g>
</g>
<!-- Node1&#45;&gt;Node16 -->
<g id="edge20" class="edge">
<title>Node1&#45;&gt;Node16</title>
<path fill="none" stroke="#191970" d="M423.5214,-286.0478C500.4217,-278.1474 678.4392,-259.8059 828,-244 829.2717,-243.8656 830.5532,-243.73 831.8427,-243.5934"/>
<polygon fill="#191970" stroke="#191970" points="832.2799,-247.0668 841.8543,-242.5301 831.5406,-240.1059 832.2799,-247.0668"/>
</g>
<!-- Node3 -->
<g id="node4" class="node">
<title>Node3</title>
<g id="a_node4"><a xlink:href="../../d5/d93/GPUCommonDefSettings_8h.html" target="_top" xlink:title="GPUCommonDefSettings.h">
<polygon fill="none" stroke="#000000" points="426,-.5 426,-19.5 574,-19.5 574,-.5 426,-.5"/>
<text text-anchor="middle" x="500" y="-7.5" font-family="Helvetica,sans-Serif" font-size="10.00" fill="#000000">GPUCommonDefSettings.h</text>
</a>
</g>
</g>
<!-- Node2&#45;&gt;Node3 -->
<g id="edge3" class="edge">
<title>Node2&#45;&gt;Node3</title>
<path fill="none" stroke="#191970" d="M436.4124,-56.2455C448.0057,-47.814 464.9748,-35.4729 478.4678,-25.6598"/>
<polygon fill="#191970" stroke="#191970" points="480.7126,-28.355 486.7413,-19.6427 476.5953,-22.6938 480.7126,-28.355"/>
</g>
<!-- Node4 -->
<g id="node5" class="node">
<title>Node4</title>
<g id="a_node5"><a xlink:href="../../da/d5a/GPUCommonDefAPI_8h.html" target="_top" xlink:title="GPUCommonDefAPI.h">
<polygon fill="none" stroke="#000000" points="284,-.5 284,-19.5 408,-19.5 408,-.5 284,-.5"/>
<text text-anchor="middle" x="346" y="-7.5" font-family="Helvetica,sans-Serif" font-size="10.00" fill="#000000">GPUCommonDefAPI.h</text>
</a>
</g>
</g>
<!-- Node2&#45;&gt;Node4 -->
<g id="edge4" class="edge">
<title>Node2&#45;&gt;Node4</title>
<path fill="none" stroke="#191970" d="M409.5876,-56.2455C397.9943,-47.814 381.0252,-35.4729 367.5322,-25.6598"/>
<polygon fill="#191970" stroke="#191970" points="369.4047,-22.6938 359.2587,-19.6427 365.2874,-28.355 369.4047,-22.6938"/>
</g>
<!-- Node5&#45;&gt;Node2 -->
<g id="edge6" class="edge">
<title>Node5&#45;&gt;Node2</title>
<path fill="none" stroke="#191970" d="M363.608,-168.4988C369.0852,-159.2067 377.6466,-144.6489 385,-132 394.2139,-116.1507 404.5944,-98.1085 412.1749,-84.8984"/>
<polygon fill="#191970" stroke="#191970" points="415.4224,-86.271 417.3602,-75.8548 409.3498,-82.7891 415.4224,-86.271"/>
</g>
<!-- Node5&#45;&gt;Node6 -->
<g id="edge7" class="edge">
<title>Node5&#45;&gt;Node6</title>
<path fill="none" stroke="#191970" d="M313.5998,-168.4369C261.9564,-157.3137 177.8688,-139.2025 131.441,-129.2027"/>
<polygon fill="#191970" stroke="#191970" points="132.0964,-125.7636 121.5836,-127.0795 130.6224,-132.6067 132.0964,-125.7636"/>
</g>
<!-- Node7 -->
<g id="node8" class="node">
<title>Node7</title>
<polygon fill="none" stroke="#bfbfbf" points="836,-112.5 836,-131.5 900,-131.5 900,-112.5 836,-112.5"/>
<text text-anchor="middle" x="868" y="-119.5" font-family="Helvetica,sans-Serif" font-size="10.00" fill="#000000">algorithm</text>
</g>
<!-- Node5&#45;&gt;Node7 -->
<g id="edge8" class="edge">
<title>Node5&#45;&gt;Node7</title>
<path fill="none" stroke="#191970" d="M415.7209,-169.2176C418.8578,-168.7926 421.9664,-168.3837 425,-168 572.0152,-149.4053 747.183,-132.8716 825.9614,-125.7341"/>
<polygon fill="#191970" stroke="#191970" points="826.3333,-129.2148 835.9782,-124.8302 825.7041,-122.2431 826.3333,-129.2148"/>
</g>
<!-- Node8&#45;&gt;Node2 -->
<g id="edge10" class="edge">
<title>Node8&#45;&gt;Node2</title>
<path fill="none" stroke="#191970" d="M994.1149,-117.9753C978.4308,-116.0539 959.2372,-113.7895 942,-112 778.1962,-94.9945 584.8901,-78.9118 486.8871,-71.0399"/>
<polygon fill="#191970" stroke="#191970" points="487.0935,-67.5453 476.8459,-70.2354 486.5344,-74.523 487.0935,-67.5453"/>
</g>
<!-- Node9 -->
<g id="node10" class="node">
<title>Node9</title>
<g id="a_node10"><a xlink:href="../../d2/d37/GPUDefConstantsAndSettings_8h.html" target="_top" xlink:title="GPUDefConstantsAndSettings.h">
<polygon fill="none" stroke="#000000" points="1106.5,-56.5 1106.5,-75.5 1277.5,-75.5 1277.5,-56.5 1106.5,-56.5"/>
<text text-anchor="middle" x="1192" y="-63.5" font-family="Helvetica,sans-Serif" font-size="10.00" fill="#000000">GPUDefConstantsAndSettings.h</text>
</a>
</g>
</g>
<!-- Node8&#45;&gt;Node9 -->
<g id="edge11" class="edge">
<title>Node8&#45;&gt;Node9</title>
<path fill="none" stroke="#191970" d="M1054.5364,-112.3733C1082.0202,-103.1016 1123.7686,-89.0178 1154.0452,-78.804"/>
<polygon fill="#191970" stroke="#191970" points="1155.4794,-82.0141 1163.836,-75.5011 1153.2418,-75.3813 1155.4794,-82.0141"/>
</g>
<!-- Node10 -->
<g id="node11" class="node">
<title>Node10</title>
<g id="a_node11"><a xlink:href="../../dc/de9/GPUDefGPUParameters_8h.html" target="_top" xlink:title="GPUDefGPUParameters.h">
<polygon fill="none" stroke="#000000" points="1296,-56.5 1296,-75.5 1436,-75.5 1436,-56.5 1296,-56.5"/>
<text text-anchor="middle" x="1366" y="-63.5" font-family="Helvetica,sans-Serif" font-size="10.00" fill="#000000">GPUDefGPUParameters.h</text>
</a>
</g>
</g>
<!-- Node8&#45;&gt;Node10 -->
<g id="edge12" class="edge">
<title>Node8&#45;&gt;Node10</title>
<path fill="none" stroke="#191970" d="M1057.6811,-116.7819C1112.2368,-107.7963 1225.0761,-89.211 1298.063,-77.1896"/>
<polygon fill="#191970" stroke="#191970" points="1298.7888,-80.6173 1308.087,-75.5386 1297.6511,-73.7104 1298.7888,-80.6173"/>
</g>
<!-- Node11 -->
<g id="node12" class="node">
<title>Node11</title>
<g id="a_node12"><a xlink:href="../../d3/d4c/GPUDefOpenCL12Templates_8h.html" target="_top" xlink:title="GPUDefOpenCL12Templates.h">
<polygon fill="none" stroke="#000000" points="781,-56.5 781,-75.5 945,-75.5 945,-56.5 781,-56.5"/>
<text text-anchor="middle" x="863" y="-63.5" font-family="Helvetica,sans-Serif" font-size="10.00" fill="#000000">GPUDefOpenCL12Templates.h</text>
</a>
</g>
</g>
<!-- Node8&#45;&gt;Node11 -->
<g id="edge13" class="edge">
<title>Node8&#45;&gt;Node11</title>
<path fill="none" stroke="#191970" d="M997.9793,-112.3733C970.9922,-103.1016 929.9983,-89.0178 900.2689,-78.804"/>
<polygon fill="#191970" stroke="#191970" points="901.2497,-75.4403 890.6551,-75.5011 898.9752,-82.0605 901.2497,-75.4403"/>
</g>
<!-- Node12 -->
<g id="node13" class="node">
<title>Node12</title>
<g id="a_node13"><a xlink:href="../../d2/d45/GPUCommonRtypes_8h.html" target="_top" xlink:title="GPUCommonRtypes.h">
<polygon fill="none" stroke="#000000" points="963.5,-56.5 963.5,-75.5 1088.5,-75.5 1088.5,-56.5 963.5,-56.5"/>
<text text-anchor="middle" x="1026" y="-63.5" font-family="Helvetica,sans-Serif" font-size="10.00" fill="#000000">GPUCommonRtypes.h</text>
</a>
</g>
</g>
<!-- Node8&#45;&gt;Node12 -->
<g id="edge14" class="edge">
<title>Node8&#45;&gt;Node12</title>
<path fill="none" stroke="#191970" d="M1026,-112.2455C1026,-104.9382 1026,-94.6944 1026,-85.7046"/>
<polygon fill="#191970" stroke="#191970" points="1029.5001,-85.6426 1026,-75.6427 1022.5001,-85.6427 1029.5001,-85.6426"/>
</g>
<!-- Node13 -->
<g id="node14" class="node">
<title>Node13</title>
<polygon fill="none" stroke="#bfbfbf" points="996.5,-.5 996.5,-19.5 1055.5,-19.5 1055.5,-.5 996.5,-.5"/>
<text text-anchor="middle" x="1026" y="-7.5" font-family="Helvetica,sans-Serif" font-size="10.00" fill="#000000">Rtypes.h</text>
</g>
<!-- Node12&#45;&gt;Node13 -->
<g id="edge15" class="edge">
<title>Node12&#45;&gt;Node13</title>
<path fill="none" stroke="#191970" d="M1026,-56.2455C1026,-48.9382 1026,-38.6944 1026,-29.7046"/>
<polygon fill="#191970" stroke="#191970" points="1029.5001,-29.6426 1026,-19.6427 1022.5001,-29.6427 1029.5001,-29.6426"/>
</g>
<!-- Node14&#45;&gt;Node5 -->
<g id="edge17" class="edge">
<title>Node14&#45;&gt;Node5</title>
<path fill="none" stroke="#191970" d="M345.6128,-224.2455C347.5916,-216.8579 350.3744,-206.4689 352.8012,-197.4087"/>
<polygon fill="#191970" stroke="#191970" points="356.2105,-198.2078 355.4171,-187.6427 349.4489,-196.3966 356.2105,-198.2078"/>
</g>
<!-- Node15&#45;&gt;Node2 -->
<g id="edge19" class="edge">
<title>Node15&#45;&gt;Node2</title>
<path fill="none" stroke="#191970" d="M337.1154,-112.2455C353.445,-103.4527 377.671,-90.4079 396.2339,-80.4125"/>
<polygon fill="#191970" stroke="#191970" points="397.9468,-83.4654 405.0922,-75.6427 394.6281,-77.3021 397.9468,-83.4654"/>
</g>
<!-- Node16&#45;&gt;Node17 -->
<g id="edge21" class="edge">
<title>Node16&#45;&gt;Node17</title>
<path fill="none" stroke="#191970" d="M956.0689,-224.3733C990.4315,-214.9404 1042.9392,-200.5265 1080.2851,-190.2747"/>
<polygon fill="#191970" stroke="#191970" points="1081.672,-193.5235 1090.3888,-187.5011 1079.819,-186.7732 1081.672,-193.5235"/>
</g>
<!-- Node17&#45;&gt;Node8 -->
<g id="edge22" class="edge">
<title>Node17&#45;&gt;Node8</title>
<path fill="none" stroke="#191970" d="M1107.7555,-168.2455C1092.4239,-159.5731 1069.7801,-146.7645 1052.2084,-136.825"/>
<polygon fill="#191970" stroke="#191970" points="1053.4741,-133.5198 1043.0469,-131.6427 1050.0276,-139.6126 1053.4741,-133.5198"/>
</g>
<!-- Node18&#45;&gt;Node2 -->
<g id="edge25" class="edge">
<title>Node18&#45;&gt;Node2</title>
<path fill="none" stroke="#191970" d="M139.7527,-224.242C149.2843,-200.8348 176.7781,-141.2741 220,-112 242.51,-96.7541 308.6895,-83.5386 359.4267,-75.2337"/>
<polygon fill="#191970" stroke="#191970" points="360.0327,-78.6813 369.3508,-73.6391 358.9221,-71.77 360.0327,-78.6813"/>
</g>
<!-- Node18&#45;&gt;Node5 -->
<g id="edge26" class="edge">
<title>Node18&#45;&gt;Node5</title>
<path fill="none" stroke="#191970" d="M173.9109,-224.4369C211.665,-214.9133 269.7265,-200.2672 310.5264,-189.9753"/>
<polygon fill="#191970" stroke="#191970" points="311.4053,-193.3633 320.2454,-187.5237 309.6931,-186.576 311.4053,-193.3633"/>
</g>
<!-- Node20 -->
<g id="node21" class="node">
<title>Node20</title>
<g id="a_node21"><a xlink:href="../../d8/d33/GPUTPCGMTrackParam_8h.html" target="_top" xlink:title="GPUTPCGMTrackParam.h">
<polygon fill="none" stroke="#000000" points="648.5,-224.5 648.5,-243.5 785.5,-243.5 785.5,-224.5 648.5,-224.5"/>
<text text-anchor="middle" x="717" y="-231.5" font-family="Helvetica,sans-Serif" font-size="10.00" fill="#000000">GPUTPCGMTrackParam.h</text>
</a>
</g>
</g>
<!-- Node19&#45;&gt;Node20 -->
<g id="edge28" class="edge">
<title>Node19&#45;&gt;Node20</title>
<path fill="none" stroke="#191970" d="M712.8709,-280.2455C713.5234,-272.9382 714.438,-262.6944 715.2407,-253.7046"/>
<polygon fill="#191970" stroke="#191970" points="718.7358,-253.9143 716.139,-243.6427 711.7635,-253.2918 718.7358,-253.9143"/>
</g>
<!-- Node21 -->
<g id="node22" class="node">
<title>Node21</title>
<g id="a_node22"><a xlink:href="../../d3/dcc/GPUTPCGMMergedTrackHit_8h.html" target="_top" xlink:title="GPUTPCGMMergedTrackHit.h">
<polygon fill="none" stroke="#000000" points="572.5,-168.5 572.5,-187.5 729.5,-187.5 729.5,-168.5 572.5,-168.5"/>
<text text-anchor="middle" x="651" y="-175.5" font-family="Helvetica,sans-Serif" font-size="10.00" fill="#000000">GPUTPCGMMergedTrackHit.h</text>
</a>
</g>
</g>
<!-- Node19&#45;&gt;Node21 -->
<g id="edge35" class="edge">
<title>Node19&#45;&gt;Node21</title>
<path fill="none" stroke="#191970" d="M685.0356,-280.4934C668.8286,-273.2188 649.5492,-261.4326 640,-244 632.084,-229.549 636.3172,-210.8498 641.6666,-197.0466"/>
<polygon fill="#191970" stroke="#191970" points="644.9986,-198.1621 645.7922,-187.597 638.5833,-195.3612 644.9986,-198.1621"/>
</g>
<!-- Node22 -->
<g id="node23" class="node">
<title>Node22</title>
<g id="a_node23"><a xlink:href="../../d3/d1f/GPUdEdxInfo_8h.html" target="_top" xlink:title="GPUdEdxInfo.h">
<polygon fill="none" stroke="#000000" points="747.5,-168.5 747.5,-187.5 836.5,-187.5 836.5,-168.5 747.5,-168.5"/>
<text text-anchor="middle" x="792" y="-175.5" font-family="Helvetica,sans-Serif" font-size="10.00" fill="#000000">GPUdEdxInfo.h</text>
</a>
</g>
</g>
<!-- Node19&#45;&gt;Node22 -->
<g id="edge36" class="edge">
<title>Node19&#45;&gt;Node22</title>
<path fill="none" stroke="#191970" d="M783.6841,-283.7554C866.8447,-275.7714 994.4846,-260.9367 1009,-244 1014.7844,-237.2507 1014.5959,-230.9064 1009,-224 998.7728,-211.3776 907.7505,-195.4099 846.886,-185.9907"/>
<polygon fill="#191970" stroke="#191970" points="847.0614,-182.4769 836.647,-184.4237 846.0024,-189.3963 847.0614,-182.4769"/>
</g>
<!-- Node20&#45;&gt;Node5 -->
<g id="edge32" class="edge">
<title>Node20&#45;&gt;Node5</title>
<path fill="none" stroke="#191970" d="M655.6936,-224.4369C591.786,-214.468 491.8963,-198.8863 425.7046,-188.5612"/>
<polygon fill="#191970" stroke="#191970" points="426.2066,-185.0972 415.7866,-187.0141 425.1277,-192.0136 426.2066,-185.0972"/>
</g>
<!-- Node20&#45;&gt;Node17 -->
<g id="edge29" class="edge">
<title>Node20&#45;&gt;Node17</title>
<path fill="none" stroke="#191970" d="M785.7503,-224.5637C867.1384,-213.3928 1000.8003,-195.047 1073.6831,-185.0435"/>
<polygon fill="#191970" stroke="#191970" points="1074.5507,-188.4573 1083.9819,-183.6299 1073.5988,-181.5223 1074.5507,-188.4573"/>
</g>
<!-- Node20&#45;&gt;Node21 -->
<g id="edge30" class="edge">
<title>Node20&#45;&gt;Node21</title>
<path fill="none" stroke="#191970" d="M705.5037,-224.2455C695.7558,-215.9746 681.5741,-203.9416 670.1202,-194.2232"/>
<polygon fill="#191970" stroke="#191970" points="672.2541,-191.4437 662.3646,-187.6427 667.7253,-196.7813 672.2541,-191.4437"/>
</g>
<!-- Node20&#45;&gt;Node22 -->
<g id="edge33" class="edge">
<title>Node20&#45;&gt;Node22</title>
<path fill="none" stroke="#191970" d="M730.064,-224.2455C741.3562,-215.814 757.8845,-203.4729 771.0271,-193.6598"/>
<polygon fill="#191970" stroke="#191970" points="773.1669,-196.4301 779.0857,-187.6427 768.9789,-190.8211 773.1669,-196.4301"/>
</g>
<!-- Node23 -->
<g id="node24" class="node">
<title>Node23</title>
<polygon fill="none" stroke="#bfbfbf" points="709.5,-56.5 709.5,-75.5 762.5,-75.5 762.5,-56.5 709.5,-56.5"/>
<text text-anchor="middle" x="736" y="-63.5" font-family="Helvetica,sans-Serif" font-size="10.00" fill="#000000">cstddef</text>
</g>
<!-- Node20&#45;&gt;Node23 -->
<g id="edge34" class="edge">
<title>Node20&#45;&gt;Node23</title>
<path fill="none" stroke="#191970" d="M759.4151,-224.4524C792.9176,-215.9508 835.6896,-202.6229 846,-188 851.1222,-180.7353 849.5559,-176.1467 846,-168 828.964,-128.97 788.8131,-98.1856 762.0262,-81.0367"/>
<polygon fill="#191970" stroke="#191970" points="763.8497,-78.0492 753.507,-75.7515 760.1594,-83.9975 763.8497,-78.0492"/>
</g>
<!-- Node21&#45;&gt;Node2 -->
<g id="edge31" class="edge">
<title>Node21&#45;&gt;Node2</title>
<path fill="none" stroke="#191970" d="M600.9861,-168.4593C570.2763,-161.2712 530.8598,-149.5909 499,-132 475.5075,-119.029 452.8525,-97.871 438.4834,-83.0153"/>
<polygon fill="#191970" stroke="#191970" points="440.8069,-80.3776 431.4003,-75.5025 435.7136,-85.1796 440.8069,-80.3776"/>
</g>
<!-- Node24&#45;&gt;Node5 -->
<g id="edge44" class="edge">
<title>Node24&#45;&gt;Node5</title>
<path fill="none" stroke="#191970" d="M557.0512,-336.4862C522.3157,-308.8296 421.0985,-228.2396 377.907,-193.8502"/>
<polygon fill="#191970" stroke="#191970" points="380.0826,-191.1084 370.0793,-187.6177 375.7224,-196.5846 380.0826,-191.1084"/>
</g>
<!-- Node24&#45;&gt;Node20 -->
<g id="edge43" class="edge">
<title>Node24&#45;&gt;Node20</title>
<path fill="none" stroke="#191970" d="M576.7415,-336.1195C587.8882,-322.3387 609.5936,-297.1165 632,-280 648.4965,-267.3981 668.9005,-256.233 685.5824,-248.0592"/>
<polygon fill="#191970" stroke="#191970" points="687.3995,-251.0702 694.9166,-243.6041 684.3843,-244.7529 687.3995,-251.0702"/>
</g>
<!-- Node25 -->
<g id="node26" class="node">
<title>Node25</title>
<g id="a_node26"><a xlink:href="../../df/d9b/GPUTPCSliceOutTrack_8h.html" target="_top" xlink:title="GPUTPCSliceOutTrack.h">
<polygon fill="none" stroke="#000000" points="1101.5,-280.5 1101.5,-299.5 1232.5,-299.5 1232.5,-280.5 1101.5,-280.5"/>
<text text-anchor="middle" x="1167" y="-287.5" font-family="Helvetica,sans-Serif" font-size="10.00" fill="#000000">GPUTPCSliceOutTrack.h</text>
</a>
</g>
</g>
<!-- Node24&#45;&gt;Node25 -->
<g id="edge38" class="edge">
<title>Node24&#45;&gt;Node25</title>
<path fill="none" stroke="#191970" d="M634.1349,-339.9004C745.7606,-329.4472 973.0021,-308.167 1091.4198,-297.0777"/>
<polygon fill="#191970" stroke="#191970" points="1091.8609,-300.5518 1101.491,-296.1346 1091.2082,-293.5823 1091.8609,-300.5518"/>
</g>
<!-- Node28 -->
<g id="node29" class="node">
<title>Node28</title>
<g id="a_node29"><a xlink:href="../../d5/d5c/GPUO2DataTypes_8h.html" target="_top" xlink:title="GPUO2DataTypes.h">
<polygon fill="none" stroke="#000000" points="480.5,-224.5 480.5,-243.5 591.5,-243.5 591.5,-224.5 480.5,-224.5"/>
<text text-anchor="middle" x="536" y="-231.5" font-family="Helvetica,sans-Serif" font-size="10.00" fill="#000000">GPUO2DataTypes.h</text>
</a>
</g>
</g>
<!-- Node24&#45;&gt;Node28 -->
<g id="edge45" class="edge">
<title>Node24&#45;&gt;Node28</title>
<path fill="none" stroke="#191970" d="M566.1864,-336.4509C560.7798,-318.1013 548.8437,-277.5908 541.707,-253.3693"/>
<polygon fill="#191970" stroke="#191970" points="544.9901,-252.128 538.8064,-243.5249 538.2755,-254.1064 544.9901,-252.128"/>
</g>
<!-- Node26 -->
<g id="node27" class="node">
<title>Node26</title>
<g id="a_node27"><a xlink:href="../../df/d00/GPUTPCBaseTrackParam_8h.html" target="_top" xlink:title="GPUTPCBaseTrackParam.h">
<polygon fill="none" stroke="#000000" points="1094,-224.5 1094,-243.5 1240,-243.5 1240,-224.5 1094,-224.5"/>
<text text-anchor="middle" x="1167" y="-231.5" font-family="Helvetica,sans-Serif" font-size="10.00" fill="#000000">GPUTPCBaseTrackParam.h</text>
</a>
</g>
</g>
<!-- Node25&#45;&gt;Node26 -->
<g id="edge39" class="edge">
<title>Node25&#45;&gt;Node26</title>
<path fill="none" stroke="#191970" d="M1167,-280.2455C1167,-272.9382 1167,-262.6944 1167,-253.7046"/>
<polygon fill="#191970" stroke="#191970" points="1170.5001,-253.6426 1167,-243.6427 1163.5001,-253.6427 1170.5001,-253.6426"/>
</g>
<!-- Node27 -->
<g id="node28" class="node">
<title>Node27</title>
<g id="a_node28"><a xlink:href="../../d2/dd5/GPUTPCSliceOutCluster_8h.html" target="_top" xlink:title="GPUTPCSliceOutCluster.h">
<polygon fill="none" stroke="#000000" points="1258,-224.5 1258,-243.5 1398,-243.5 1398,-224.5 1258,-224.5"/>
<text text-anchor="middle" x="1328" y="-231.5" font-family="Helvetica,sans-Serif" font-size="10.00" fill="#000000">GPUTPCSliceOutCluster.h</text>
</a>
</g>
</g>
<!-- Node25&#45;&gt;Node27 -->
<g id="edge41" class="edge">
<title>Node25&#45;&gt;Node27</title>
<path fill="none" stroke="#191970" d="M1194.6769,-280.3733C1221.3328,-271.1016 1261.8238,-257.0178 1291.1884,-246.804"/>
<polygon fill="#191970" stroke="#191970" points="1292.3891,-250.0921 1300.6843,-243.5011 1290.0895,-243.4807 1292.3891,-250.0921"/>
</g>
<!-- Node26&#45;&gt;Node17 -->
<g id="edge40" class="edge">
<title>Node26&#45;&gt;Node17</title>
<path fill="none" stroke="#191970" d="M1159.6842,-224.2455C1153.7821,-216.3761 1145.3258,-205.101 1138.2406,-195.6542"/>
<polygon fill="#191970" stroke="#191970" points="1141.0321,-193.5427 1132.232,-187.6427 1135.432,-197.7427 1141.0321,-193.5427"/>
</g>
<!-- Node27&#45;&gt;Node17 -->
<g id="edge42" class="edge">
<title>Node27&#45;&gt;Node17</title>
<path fill="none" stroke="#191970" d="M1293.1031,-224.3733C1258.9089,-214.9404 1206.6585,-200.5265 1169.4958,-190.2747"/>
<polygon fill="#191970" stroke="#191970" points="1170.0123,-186.7865 1159.4416,-187.5011 1168.1507,-193.5345 1170.0123,-186.7865"/>
</g>
<!-- Node28&#45;&gt;Node22 -->
<g id="edge51" class="edge">
<title>Node28&#45;&gt;Node22</title>
<path fill="none" stroke="#191970" d="M579.7171,-224.4369C623.6216,-214.8328 691.3413,-200.0191 738.445,-189.7152"/>
<polygon fill="#191970" stroke="#191970" points="739.4422,-193.0799 748.4632,-187.5237 737.9463,-186.2416 739.4422,-193.0799"/>
</g>
<!-- Node29 -->
<g id="node30" class="node">
<title>Node29</title>
<g id="a_node30"><a xlink:href="../../da/d28/GPUO2FakeClasses_8h.html" target="_top" xlink:title="GPUO2FakeClasses.h">
<polygon fill="none" stroke="#000000" points="434,-168.5 434,-187.5 554,-187.5 554,-168.5 434,-168.5"/>
<text text-anchor="middle" x="494" y="-175.5" font-family="Helvetica,sans-Serif" font-size="10.00" fill="#000000">GPUO2FakeClasses.h</text>
</a>
</g>
</g>
<!-- Node28&#45;&gt;Node29 -->
<g id="edge46" class="edge">
<title>Node28&#45;&gt;Node29</title>
<path fill="none" stroke="#191970" d="M528.6842,-224.2455C522.7821,-216.3761 514.3258,-205.101 507.2406,-195.6542"/>
<polygon fill="#191970" stroke="#191970" points="510.0321,-193.5427 501.232,-187.6427 504.432,-197.7427 510.0321,-193.5427"/>
</g>
<!-- Node29&#45;&gt;Node2 -->
<g id="edge47" class="edge">
<title>Node29&#45;&gt;Node2</title>
<path fill="none" stroke="#191970" d="M487.9466,-168.4509C476.1046,-149.7707 449.7035,-108.1238 434.459,-84.0761"/>
<polygon fill="#191970" stroke="#191970" points="437.3483,-82.0969 429.0381,-75.5249 431.4362,-85.8448 437.3483,-82.0969"/>
</g>
<!-- Node30 -->
<g id="node31" class="node">
<title>Node30</title>
<g id="a_node31"><a xlink:href="../../d4/dc5/GPUDataTypes_8h.html" target="_top" xlink:title="GPUDataTypes.h">
<polygon fill="none" stroke="#000000" points="508,-112.5 508,-131.5 606,-131.5 606,-112.5 508,-112.5"/>
<text text-anchor="middle" x="557" y="-119.5" font-family="Helvetica,sans-Serif" font-size="10.00" fill="#000000">GPUDataTypes.h</text>
</a>
</g>
</g>
<!-- Node29&#45;&gt;Node30 -->
<g id="edge48" class="edge">
<title>Node29&#45;&gt;Node30</title>
<path fill="none" stroke="#191970" d="M504.9738,-168.2455C514.1882,-160.0549 527.5532,-148.1749 538.4297,-138.5069"/>
<polygon fill="#191970" stroke="#191970" points="541.0032,-140.9023 546.152,-131.6427 536.3526,-135.6704 541.0032,-140.9023"/>
</g>
<!-- Node30&#45;&gt;Node2 -->
<g id="edge49" class="edge">
<title>Node30&#45;&gt;Node2</title>
<path fill="none" stroke="#191970" d="M533.9646,-112.3733C512.2612,-103.3032 479.5382,-89.6279 455.245,-79.4755"/>
<polygon fill="#191970" stroke="#191970" points="456.3111,-76.1278 445.7348,-75.5011 453.6119,-82.5865 456.3111,-76.1278"/>
</g>
<!-- Node30&#45;&gt;Node23 -->
<g id="edge50" class="edge">
<title>Node30&#45;&gt;Node23</title>
<path fill="none" stroke="#191970" d="M587.7712,-112.3733C618.8427,-102.6526 666.8219,-87.6423 699.7262,-77.3482"/>
<polygon fill="#191970" stroke="#191970" points="700.9197,-80.6422 709.4185,-74.316 698.8296,-73.9615 700.9197,-80.6422"/>
</g>
<!-- Node31&#45;&gt;Node2 -->
<g id="edge54" class="edge">
<title>Node31&#45;&gt;Node2</title>
<path fill="none" stroke="#191970" d="M938.544,-168.4548C935.7312,-153.6341 928.0517,-125.4016 909,-112 875.2036,-88.2265 610.863,-73.979 486.8423,-68.5401"/>
<polygon fill="#191970" stroke="#191970" points="486.8656,-65.038 476.7236,-68.1023 486.5629,-72.0314 486.8656,-65.038"/>
</g>
<!-- Node31&#45;&gt;Node7 -->
<g id="edge57" class="edge">
<title>Node31&#45;&gt;Node7</title>
<path fill="none" stroke="#191970" d="M927.4586,-168.2455C916.7213,-159.8943 901.0527,-147.7076 888.4953,-137.9408"/>
<polygon fill="#191970" stroke="#191970" points="890.4401,-135.0194 880.3977,-131.6427 886.1425,-140.5449 890.4401,-135.0194"/>
</g>
<!-- Node31&#45;&gt;Node8 -->
<g id="edge55" class="edge">
<title>Node31&#45;&gt;Node8</title>
<path fill="none" stroke="#191970" d="M954.9801,-168.2455C968.1751,-159.6534 987.6051,-147.0014 1002.8079,-137.1018"/>
<polygon fill="#191970" stroke="#191970" points="1004.7215,-140.0325 1011.1916,-131.6427 1000.9017,-134.1665 1004.7215,-140.0325"/>
</g>
<!-- Node31&#45;&gt;Node23 -->
<g id="edge56" class="edge">
<title>Node31&#45;&gt;Node23</title>
<path fill="none" stroke="#191970" d="M943.8592,-168.2418C948.7251,-154.1478 954.9918,-128.0311 942,-112 895.3686,-54.4596 850.8271,-91.0426 772.8759,-75.8565"/>
<polygon fill="#191970" stroke="#191970" points="773.2066,-72.3456 762.6878,-73.6125 771.7008,-79.1817 773.2066,-72.3456"/>
</g>
</g>
</svg>
        <g id="navigator" transform="translate(0 0)" fill="#404254">
                <rect fill="#f2f5e9" fill-opacity="0.5" stroke="#606060" stroke-width=".5" x="0" y="0" width="60" height="60"/>
                <use id="zoomplus" xlink:href="#zoomPlus" x="17" y="9" onmousedown="handleZoom(evt,'in')"/>
                <use id="zoomminus" xlink:href="#zoomMin" x="42" y="9" onmousedown="handleZoom(evt,'out')"/>
                <use id="reset" xlink:href="#resetDef" x="30" y="36" onmousedown="handleReset()"/>
                <g id="arrowUp" xlink:href="#dirArrow" transform="translate(30 24)" onmousedown="handlePan(0,-1)">
                  <use xlink:href="#rim" fill="#404040">
                        <set attributeName="fill" to="#808080" begin="arrowUp.mouseover" end="arrowUp.mouseout"/>
                  </use>
                  <path fill="none" stroke="white" stroke-width="1.5" d="M0,-3.0v7 M-2.5,-0.5L0,-3.0L2.5,-0.5"/>
                </g>
                <g id="arrowRight" xlink:href="#dirArrow" transform="rotate(90) translate(36 -43)" onmousedown="handlePan(1,0)">
                  <use xlink:href="#rim" fill="#404040">
                        <set attributeName="fill" to="#808080" begin="arrowRight.mouseover" end="arrowRight.mouseout"/>
                  </use>
                  <path fill="none" stroke="white" stroke-width="1.5" d="M0,-3.0v7 M-2.5,-0.5L0,-3.0L2.5,-0.5"/>
                </g>
                <g id="arrowDown" xlink:href="#dirArrow" transform="rotate(180) translate(-30 -48)" onmousedown="handlePan(0,1)">
                  <use xlink:href="#rim" fill="#404040">
                        <set attributeName="fill" to="#808080" begin="arrowDown.mouseover" end="arrowDown.mouseout"/>
                  </use>
                  <path fill="none" stroke="white" stroke-width="1.5" d="M0,-3.0v7 M-2.5,-0.5L0,-3.0L2.5,-0.5"/>
                </g>
                <g id="arrowLeft" xlink:href="#dirArrow" transform="rotate(270) translate(-36 17)" onmousedown="handlePan(-1,0)">
                  <use xlink:href="#rim" fill="#404040">
                        <set attributeName="fill" to="#808080" begin="arrowLeft.mouseover" end="arrowLeft.mouseout"/>
                  </use>
                  <path fill="none" stroke="white" stroke-width="1.5" d="M0,-3.0v7 M-2.5,-0.5L0,-3.0L2.5,-0.5"/>
                </g>
        </g>
        <svg viewBox="0 0 15 15" width="100%" height="30px" preserveAspectRatio="xMaxYMin meet">
         <g id="arrow_out" transform="scale(0.3 0.3)">
          <a xlink:href="GPUTPCGMMerger_8h__incl_org.svg" target="_base">
           <rect id="button" ry="5" rx="5" y="6" x="6" height="38" width="38"
                fill="#f2f5e9" fill-opacity="0.5" stroke="#606060" stroke-width="1.0"/>
           <path id="arrow"
             d="M 11.500037,31.436501 C 11.940474,20.09759 22.043105,11.32322 32.158766,21.979434 L 37.068811,17.246167 C 37.068811,17.246167 37.088388,32 37.088388,32 L 22.160133,31.978069 C 22.160133,31.978069 26.997745,27.140456 26.997745,27.140456 C 18.528582,18.264221 13.291696,25.230495 11.500037,31.436501 z"
             style="fill:#404040;"/>
          </a>
         </g>
        </svg>
</svg>
