<?xml version="1.0" encoding="UTF-8" standalone="no"?>
<!DOCTYPE svg PUBLIC "-//W3C//DTD SVG 1.1//EN"
 "http://www.w3.org/Graphics/SVG/1.1/DTD/svg11.dtd">
<!-- Generated by graphviz version 2.40.1 (20161225.0304)
 -->
<!-- Title: /home/travis/build/AliceO2Group/AliceO2/Detectors/ITSMFT/ITS/reconstruction/include/ITSReconstruction/RecoGeomHelper.h Pages: 1 -->
<!--zoomable 340 -->
<svg id="main" version="1.1" xmlns="http://www.w3.org/2000/svg" xmlns:xlink="http://www.w3.org/1999/xlink" xml:space="preserve" onload="init(evt)">
<style type="text/css"><![CDATA[
.edge:hover path { stroke: red; }
.edge:hover polygon { stroke: red; fill: red; }
]]></style>
<script type="text/javascript"><![CDATA[
var edges = document.getElementsByTagName('g');
if (edges && edges.length) {
  for (var i=0;i<edges.length;i++) {
    if (edges[i].id.substr(0,4)=='edge') {
      edges[i].setAttribute('class','edge');
    }
  }
}
]]></script>
        <defs>
                <circle id="rim" cx="0" cy="0" r="7"/>
                <circle id="rim2" cx="0" cy="0" r="3.5"/>
                <g id="zoomPlus">
                        <use xlink:href="#rim" fill="#404040">
                                <set attributeName="fill" to="#808080" begin="zoomplus.mouseover" end="zoomplus.mouseout"/>
                        </use>
                        <path d="M-4,0h8M0,-4v8" fill="none" stroke="white" stroke-width="1.5" pointer-events="none"/>
                </g>
                <g id="zoomMin">
                        <use xlink:href="#rim" fill="#404040">
                                <set attributeName="fill" to="#808080" begin="zoomminus.mouseover" end="zoomminus.mouseout"/>
                        </use>
                        <path d="M-4,0h8" fill="none" stroke="white" stroke-width="1.5" pointer-events="none"/>
                </g>
                <g id="dirArrow">
                        <path fill="none" stroke="white" stroke-width="1.5" d="M0,-3.0v7 M-2.5,-0.5L0,-3.0L2.5,-0.5"/>
                </g>
               <g id="resetDef">
                       <use xlink:href="#rim2" fill="#404040">
                               <set attributeName="fill" to="#808080" begin="reset.mouseover" end="reset.mouseout"/>
                       </use>
               </g>
        </defs>

<script type="text/javascript">
var viewWidth = 2018;
var viewHeight = 340;
var sectionId = 'dynsection-0';
</script>
<script xlink:href="../../svgpan.js"/>
<svg id="graph" class="graph">
<g id="viewport">
<title>/home/travis/build/AliceO2Group/AliceO2/Detectors/ITSMFT/ITS/reconstruction/include/ITSReconstruction/RecoGeomHelper.h</title>
<!-- Node0 -->
<g id="node1" class="node">
<title>Node0</title>
<polygon fill="#bfbfbf" stroke="#000000" points="1107.5,-268.5 1107.5,-331.5 1310.5,-331.5 1310.5,-268.5 1107.5,-268.5"/>
<text text-anchor="start" x="1115.5" y="-319.5" font-family="Helvetica,sans-Serif" font-size="10.00" fill="#000000">/home/travis/build</text>
<text text-anchor="start" x="1115.5" y="-308.5" font-family="Helvetica,sans-Serif" font-size="10.00" fill="#000000">/AliceO2Group/AliceO2</text>
<text text-anchor="start" x="1115.5" y="-297.5" font-family="Helvetica,sans-Serif" font-size="10.00" fill="#000000">/Detectors/ITSMFT/ITS</text>
<text text-anchor="start" x="1115.5" y="-286.5" font-family="Helvetica,sans-Serif" font-size="10.00" fill="#000000">/reconstruction/include</text>
<text text-anchor="middle" x="1209" y="-275.5" font-family="Helvetica,sans-Serif" font-size="10.00" fill="#000000">/ITSReconstruction/RecoGeomHelper.h</text>
</g>
<!-- Node1 -->
<g id="node2" class="node">
<title>Node1</title>
<polygon fill="none" stroke="#bfbfbf" points="1682.5,-73 1682.5,-92 1741.5,-92 1741.5,-73 1682.5,-73"/>
<text text-anchor="middle" x="1712" y="-80" font-family="Helvetica,sans-Serif" font-size="10.00" fill="#000000">Rtypes.h</text>
</g>
<!-- Node0&#45;&gt;Node1 -->
<g id="edge1" class="edge">
<title>Node0&#45;&gt;Node1</title>
<path fill="none" stroke="#191970" d="M1310.6593,-296.0827C1425.3184,-289.7011 1602.5288,-273.2981 1654,-232 1694.5962,-199.4275 1706.8312,-134.6962 1710.4779,-102.1495"/>
<polygon fill="#191970" stroke="#191970" points="1713.9724,-102.3733 1711.442,-92.0851 1707.0043,-101.7057 1713.9724,-102.3733"/>
</g>
<!-- Node2 -->
<g id="node3" class="node">
<title>Node2</title>
<polygon fill="none" stroke="#bfbfbf" points="997.5,-207 997.5,-226 1044.5,-226 1044.5,-207 997.5,-207"/>
<text text-anchor="middle" x="1021" y="-214" font-family="Helvetica,sans-Serif" font-size="10.00" fill="#000000">vector</text>
</g>
<!-- Node0&#45;&gt;Node2 -->
<g id="edge2" class="edge">
<title>Node0&#45;&gt;Node2</title>
<path fill="none" stroke="#191970" d="M1137.9253,-268.4322C1108.2647,-255.2585 1075.3609,-240.6443 1052.0341,-230.2838"/>
<polygon fill="#191970" stroke="#191970" points="1053.2205,-226.981 1042.6606,-226.1205 1050.379,-233.3784 1053.2205,-226.981"/>
</g>
<!-- Node3 -->
<g id="node4" class="node">
<title>Node3</title>
<polygon fill="none" stroke="#bfbfbf" points="1090,-140 1090,-159 1132,-159 1132,-140 1090,-140"/>
<text text-anchor="middle" x="1111" y="-147" font-family="Helvetica,sans-Serif" font-size="10.00" fill="#000000">array</text>
</g>
<!-- Node0&#45;&gt;Node3 -->
<g id="edge3" class="edge">
<title>Node0&#45;&gt;Node3</title>
<path fill="none" stroke="#191970" d="M1186.0695,-268.4892C1177.9723,-257.1096 1168.9163,-244.0891 1161,-232 1146.8877,-210.4489 1131.6837,-185.0126 1121.7944,-168.1398"/>
<polygon fill="#191970" stroke="#191970" points="1124.6946,-166.1651 1116.6343,-159.2889 1118.6473,-169.6908 1124.6946,-166.1651"/>
</g>
<!-- Node4 -->
<g id="node5" class="node">
<title>Node4</title>
<g id="a_node5"><a xlink:href="../../dd/d76/Cartesian3D_8h.html" target="_top" xlink:title="MathUtils/Cartesian3D.h">
<polygon fill="none" stroke="#000000" points="1153.5,-140 1153.5,-159 1288.5,-159 1288.5,-140 1153.5,-140"/>
<text text-anchor="middle" x="1221" y="-147" font-family="Helvetica,sans-Serif" font-size="10.00" fill="#000000">MathUtils/Cartesian3D.h</text>
</a>
</g>
</g>
<!-- Node0&#45;&gt;Node4 -->
<g id="edge4" class="edge">
<title>Node0&#45;&gt;Node4</title>
<path fill="none" stroke="#191970" d="M1182.4347,-268.2956C1169.4711,-248.8452 1158.5126,-223.4475 1168,-201 1174.0499,-186.6858 1186.2397,-174.3878 1197.405,-165.4027"/>
<polygon fill="#191970" stroke="#191970" points="1199.7514,-168.0168 1205.6247,-159.1989 1195.5344,-162.4295 1199.7514,-168.0168"/>
</g>
<!-- Node15 -->
<g id="node16" class="node">
<title>Node15</title>
<g id="a_node16"><a xlink:href="../../d9/d52/Common_2MathUtils_2include_2MathUtils_2Utils_8h.html" target="_top" xlink:title="MathUtils/Utils.h">
<polygon fill="none" stroke="#000000" points="841,-207 841,-226 939,-226 939,-207 841,-207"/>
<text text-anchor="middle" x="890" y="-214" font-family="Helvetica,sans-Serif" font-size="10.00" fill="#000000">MathUtils/Utils.h</text>
</a>
</g>
</g>
<!-- Node0&#45;&gt;Node15 -->
<g id="edge16" class="edge">
<title>Node0&#45;&gt;Node15</title>
<path fill="none" stroke="#191970" d="M1107.1893,-273.3505C1049.7226,-258.3083 980.709,-240.2436 936.1386,-228.577"/>
<polygon fill="#191970" stroke="#191970" points="937.0214,-225.1903 926.461,-226.0439 935.2488,-231.9621 937.0214,-225.1903"/>
</g>
<!-- Node22 -->
<g id="node23" class="node">
<title>Node22</title>
<g id="a_node23"><a xlink:href="../../d6/d84/MathConstants_8h.html" target="_top" xlink:title="useful math constants ">
<polygon fill="none" stroke="#000000" points="836,-140 836,-159 1030,-159 1030,-140 836,-140"/>
<text text-anchor="middle" x="933" y="-147" font-family="Helvetica,sans-Serif" font-size="10.00" fill="#000000">CommonConstants/MathConstants.h</text>
</a>
</g>
</g>
<!-- Node0&#45;&gt;Node22 -->
<g id="edge30" class="edge">
<title>Node0&#45;&gt;Node22</title>
<path fill="none" stroke="#191970" d="M1163.3998,-268.3255C1132.8943,-247.8272 1091.4426,-221.2802 1053,-201 1025.1547,-186.3104 992.2086,-172.4036 967.889,-162.7527"/>
<polygon fill="#191970" stroke="#191970" points="968.9515,-159.4099 958.3641,-159.0152 966.3945,-165.9262 968.9515,-159.4099"/>
</g>
<!-- Node23 -->
<g id="node24" class="node">
<title>Node23</title>
<g id="a_node24"><a xlink:href="../../d8/d77/Primitive2D_8h.html" target="_top" xlink:title="Declarations of 2D primitives: straight line (XY interval) and circle. ">
<polygon fill="none" stroke="#000000" points="1381.5,-207 1381.5,-226 1514.5,-226 1514.5,-207 1381.5,-207"/>
<text text-anchor="middle" x="1448" y="-214" font-family="Helvetica,sans-Serif" font-size="10.00" fill="#000000">MathUtils/Primitive2D.h</text>
</a>
</g>
</g>
<!-- Node0&#45;&gt;Node23 -->
<g id="edge27" class="edge">
<title>Node0&#45;&gt;Node23</title>
<path fill="none" stroke="#191970" d="M1299.3557,-268.4322C1338.1912,-254.8641 1381.4004,-239.7681 1411.1771,-229.3649"/>
<polygon fill="#191970" stroke="#191970" points="1412.4486,-232.6282 1420.7346,-226.0258 1410.1398,-226.0199 1412.4486,-232.6282"/>
</g>
<!-- Node25 -->
<g id="node26" class="node">
<title>Node25</title>
<g id="a_node26"><a xlink:href="../../d4/d5d/Bracket_8h.html" target="_top" xlink:title="Class to represent an interval and some operations over it. ">
<polygon fill="none" stroke="#000000" points="1532.5,-207 1532.5,-226 1645.5,-226 1645.5,-207 1532.5,-207"/>
<text text-anchor="middle" x="1589" y="-214" font-family="Helvetica,sans-Serif" font-size="10.00" fill="#000000">MathUtils/Bracket.h</text>
</a>
</g>
</g>
<!-- Node0&#45;&gt;Node25 -->
<g id="edge31" class="edge">
<title>Node0&#45;&gt;Node25</title>
<path fill="none" stroke="#191970" d="M1310.562,-278.4738C1372.0938,-265.3157 1452.1321,-247.9939 1523,-232 1528.1074,-230.8473 1533.4327,-229.6272 1538.7459,-228.3979"/>
<polygon fill="#191970" stroke="#191970" points="1539.9416,-231.7133 1548.8881,-226.0379 1538.3551,-224.8954 1539.9416,-231.7133"/>
</g>
<!-- Node26 -->
<g id="node27" class="node">
<title>Node26</title>
<g id="a_node27"><a xlink:href="../../d3/d57/ChipMappingITS_8h.html" target="_top" xlink:title="ITSMFTReconstruction\l/ChipMappingITS.h">
<polygon fill="none" stroke="#000000" points="1703.5,-201.5 1703.5,-231.5 1826.5,-231.5 1826.5,-201.5 1703.5,-201.5"/>
<text text-anchor="start" x="1711.5" y="-219.5" font-family="Helvetica,sans-Serif" font-size="10.00" fill="#000000">ITSMFTReconstruction</text>
<text text-anchor="middle" x="1765" y="-208.5" font-family="Helvetica,sans-Serif" font-size="10.00" fill="#000000">/ChipMappingITS.h</text>
</a>
</g>
</g>
<!-- Node0&#45;&gt;Node26 -->
<g id="edge33" class="edge">
<title>Node0&#45;&gt;Node26</title>
<path fill="none" stroke="#191970" d="M1310.6517,-287.2967C1407.7957,-274.7489 1558.2343,-254.2527 1688,-232 1689.7094,-231.7069 1691.439,-231.4046 1693.1826,-231.0948"/>
<polygon fill="#191970" stroke="#191970" points="1694.0702,-234.4907 1703.2782,-229.25 1692.8119,-227.6047 1694.0702,-234.4907"/>
</g>
<!-- Node31 -->
<g id="node32" class="node">
<title>Node31</title>
<g id="a_node32"><a xlink:href="../../d3/dba/SegmentationAlpide_8h.html" target="_top" xlink:title="Definition of the SegmentationAlpide class. ">
<polygon fill="none" stroke="#000000" points="1177,-207 1177,-226 1363,-226 1363,-207 1177,-207"/>
<text text-anchor="middle" x="1270" y="-214" font-family="Helvetica,sans-Serif" font-size="10.00" fill="#000000">ITSMFTBase/SegmentationAlpide.h</text>
</a>
</g>
</g>
<!-- Node0&#45;&gt;Node31 -->
<g id="edge42" class="edge">
<title>Node0&#45;&gt;Node31</title>
<path fill="none" stroke="#191970" d="M1232.0615,-268.4322C1240.4308,-256.9759 1249.5958,-244.4303 1256.821,-234.5401"/>
<polygon fill="#191970" stroke="#191970" points="1259.7597,-236.4507 1262.8325,-226.3112 1254.1074,-232.3214 1259.7597,-236.4507"/>
</g>
<!-- Node4&#45;&gt;Node1 -->
<g id="edge10" class="edge">
<title>Node4&#45;&gt;Node1</title>
<path fill="none" stroke="#191970" d="M1279.0939,-139.974C1292.8158,-137.8686 1307.4085,-135.7472 1321,-134 1476.977,-113.9494 1520.2509,-135.3975 1673,-98 1675.7866,-97.3178 1678.6385,-96.4787 1681.4699,-95.5472"/>
<polygon fill="#191970" stroke="#191970" points="1682.6922,-98.8271 1690.8919,-92.1177 1680.2979,-92.2493 1682.6922,-98.8271"/>
</g>
<!-- Node5 -->
<g id="node6" class="node">
<title>Node5</title>
<polygon fill="none" stroke="#bfbfbf" points="569,-67.5 569,-97.5 733,-97.5 733,-67.5 569,-67.5"/>
<text text-anchor="start" x="577" y="-85.5" font-family="Helvetica,sans-Serif" font-size="10.00" fill="#000000">Math/GenVector/Displacement</text>
<text text-anchor="middle" x="651" y="-74.5" font-family="Helvetica,sans-Serif" font-size="10.00" fill="#000000">Vector3D.h</text>
</g>
<!-- Node4&#45;&gt;Node5 -->
<g id="edge5" class="edge">
<title>Node4&#45;&gt;Node5</title>
<path fill="none" stroke="#191970" d="M1175.8649,-139.9258C1164.5211,-137.7485 1152.346,-135.6068 1141,-134 967.9764,-109.4971 920.3233,-120.5363 743.4671,-98.1236"/>
<polygon fill="#191970" stroke="#191970" points="743.6608,-94.6198 733.2962,-96.8161 742.7682,-101.5626 743.6608,-94.6198"/>
</g>
<!-- Node6 -->
<g id="node7" class="node">
<title>Node6</title>
<polygon fill="none" stroke="#bfbfbf" points="751.5,-73 751.5,-92 940.5,-92 940.5,-73 751.5,-73"/>
<text text-anchor="middle" x="846" y="-80" font-family="Helvetica,sans-Serif" font-size="10.00" fill="#000000">Math/GenVector/PositionVector3D.h</text>
</g>
<!-- Node4&#45;&gt;Node6 -->
<g id="edge6" class="edge">
<title>Node4&#45;&gt;Node6</title>
<path fill="none" stroke="#191970" d="M1172.3756,-139.9295C1162.026,-137.9343 1151.1567,-135.8703 1141,-134 1062.5781,-119.5589 972.234,-103.9357 912.4036,-93.7307"/>
<polygon fill="#191970" stroke="#191970" points="912.7802,-90.2445 902.3344,-92.0152 911.6045,-97.145 912.7802,-90.2445"/>
</g>
<!-- Node7 -->
<g id="node8" class="node">
<title>Node7</title>
<polygon fill="none" stroke="#bfbfbf" points="959,-73 959,-92 1119,-92 1119,-73 959,-73"/>
<text text-anchor="middle" x="1039" y="-80" font-family="Helvetica,sans-Serif" font-size="10.00" fill="#000000">Math/GenVector/Rotation3D.h</text>
</g>
<!-- Node4&#45;&gt;Node7 -->
<g id="edge7" class="edge">
<title>Node4&#45;&gt;Node7</title>
<path fill="none" stroke="#191970" d="M1194.9238,-139.9005C1163.2989,-128.2584 1109.8456,-108.5805 1074.4876,-95.5641"/>
<polygon fill="#191970" stroke="#191970" points="1075.6213,-92.2519 1065.0278,-92.0817 1073.203,-98.8209 1075.6213,-92.2519"/>
</g>
<!-- Node8 -->
<g id="node9" class="node">
<title>Node8</title>
<polygon fill="none" stroke="#bfbfbf" points="1137,-73 1137,-92 1305,-92 1305,-73 1137,-73"/>
<text text-anchor="middle" x="1221" y="-80" font-family="Helvetica,sans-Serif" font-size="10.00" fill="#000000">Math/GenVector/Transform3D.h</text>
</g>
<!-- Node4&#45;&gt;Node8 -->
<g id="edge8" class="edge">
<title>Node4&#45;&gt;Node8</title>
<path fill="none" stroke="#191970" d="M1221,-139.9005C1221,-130.149 1221,-114.7597 1221,-102.3695"/>
<polygon fill="#191970" stroke="#191970" points="1224.5001,-102.0816 1221,-92.0817 1217.5001,-102.0817 1224.5001,-102.0816"/>
</g>
<!-- Node9 -->
<g id="node10" class="node">
<title>Node9</title>
<polygon fill="none" stroke="#bfbfbf" points="1323.5,-73 1323.5,-92 1496.5,-92 1496.5,-73 1323.5,-73"/>
<text text-anchor="middle" x="1410" y="-80" font-family="Helvetica,sans-Serif" font-size="10.00" fill="#000000">Math/GenVector/Translation3D.h</text>
</g>
<!-- Node4&#45;&gt;Node9 -->
<g id="edge9" class="edge">
<title>Node4&#45;&gt;Node9</title>
<path fill="none" stroke="#191970" d="M1248.0791,-139.9005C1280.9203,-128.2584 1336.4296,-108.5805 1373.1475,-95.5641"/>
<polygon fill="#191970" stroke="#191970" points="1374.7153,-98.7218 1382.9711,-92.0817 1372.3764,-92.1241 1374.7153,-98.7218"/>
</g>
<!-- Node10 -->
<g id="node11" class="node">
<title>Node10</title>
<polygon fill="none" stroke="#bfbfbf" points="1515,-73 1515,-92 1597,-92 1597,-73 1515,-73"/>
<text text-anchor="middle" x="1556" y="-80" font-family="Helvetica,sans-Serif" font-size="10.00" fill="#000000">TGeoMatrix.h</text>
</g>
<!-- Node4&#45;&gt;Node10 -->
<g id="edge11" class="edge">
<title>Node4&#45;&gt;Node10</title>
<path fill="none" stroke="#191970" d="M1277.9161,-139.9819C1347.9835,-128.1241 1462.869,-108.1861 1505,-98 1508.8861,-97.0605 1512.913,-95.9966 1516.9226,-94.8771"/>
<polygon fill="#191970" stroke="#191970" points="1518.1366,-98.1692 1526.7636,-92.0189 1516.1842,-91.447 1518.1366,-98.1692"/>
</g>
<!-- Node11 -->
<g id="node12" class="node">
<title>Node11</title>
<polygon fill="none" stroke="#bfbfbf" points="1615.5,-73 1615.5,-92 1664.5,-92 1664.5,-73 1615.5,-73"/>
<text text-anchor="middle" x="1640" y="-80" font-family="Helvetica,sans-Serif" font-size="10.00" fill="#000000">iosfwd</text>
</g>
<!-- Node4&#45;&gt;Node11 -->
<g id="edge12" class="edge">
<title>Node4&#45;&gt;Node11</title>
<path fill="none" stroke="#191970" d="M1280.7122,-139.9634C1293.9663,-137.9251 1307.9521,-135.8349 1321,-134 1447.4291,-116.2203 1483.183,-132.8772 1606,-98 1607.9658,-97.4418 1609.9625,-96.7862 1611.9529,-96.0658"/>
<polygon fill="#191970" stroke="#191970" points="1613.7573,-99.1086 1621.6786,-92.0728 1611.0986,-92.6331 1613.7573,-99.1086"/>
</g>
<!-- Node12 -->
<g id="node13" class="node">
<title>Node12</title>
<g id="a_node13"><a xlink:href="../../d2/dd0/Cartesian2D_8h.html" target="_top" xlink:title="MathUtils/Cartesian2D.h">
<polygon fill="none" stroke="#000000" points="415.5,-73 415.5,-92 550.5,-92 550.5,-73 415.5,-73"/>
<text text-anchor="middle" x="483" y="-80" font-family="Helvetica,sans-Serif" font-size="10.00" fill="#000000">MathUtils/Cartesian2D.h</text>
</a>
</g>
</g>
<!-- Node4&#45;&gt;Node12 -->
<g id="edge13" class="edge">
<title>Node4&#45;&gt;Node12</title>
<path fill="none" stroke="#191970" d="M1177.1519,-139.9438C1165.454,-137.6855 1152.7885,-135.5008 1141,-134 884.3541,-101.3259 816.5255,-131.6062 560,-98 551.9256,-96.9422 543.4282,-95.5345 535.1445,-93.9976"/>
<polygon fill="#191970" stroke="#191970" points="535.6714,-90.5347 525.189,-92.0737 534.3432,-97.4076 535.6714,-90.5347"/>
</g>
<!-- Node13 -->
<g id="node14" class="node">
<title>Node13</title>
<polygon fill="none" stroke="#bfbfbf" points="370,-.5 370,-30.5 534,-30.5 534,-.5 370,-.5"/>
<text text-anchor="start" x="378" y="-18.5" font-family="Helvetica,sans-Serif" font-size="10.00" fill="#000000">Math/GenVector/Displacement</text>
<text text-anchor="middle" x="452" y="-7.5" font-family="Helvetica,sans-Serif" font-size="10.00" fill="#000000">Vector2D.h</text>
</g>
<!-- Node12&#45;&gt;Node13 -->
<g id="edge14" class="edge">
<title>Node12&#45;&gt;Node13</title>
<path fill="none" stroke="#191970" d="M478.5585,-72.9005C474.5561,-64.2503 468.5012,-51.164 463.1831,-39.6699"/>
<polygon fill="#191970" stroke="#191970" points="466.3261,-38.1277 458.9504,-30.5218 459.9731,-41.0671 466.3261,-38.1277"/>
</g>
<!-- Node14 -->
<g id="node15" class="node">
<title>Node14</title>
<polygon fill="none" stroke="#bfbfbf" points="552.5,-6 552.5,-25 741.5,-25 741.5,-6 552.5,-6"/>
<text text-anchor="middle" x="647" y="-13" font-family="Helvetica,sans-Serif" font-size="10.00" fill="#000000">Math/GenVector/PositionVector2D.h</text>
</g>
<!-- Node12&#45;&gt;Node14 -->
<g id="edge15" class="edge">
<title>Node12&#45;&gt;Node14</title>
<path fill="none" stroke="#191970" d="M506.4972,-72.9005C534.7508,-61.3579 582.3392,-41.9163 614.2017,-28.8993"/>
<polygon fill="#191970" stroke="#191970" points="615.6128,-32.1037 623.5464,-25.0817 612.9654,-25.6236 615.6128,-32.1037"/>
</g>
<!-- Node15&#45;&gt;Node3 -->
<g id="edge17" class="edge">
<title>Node15&#45;&gt;Node3</title>
<path fill="none" stroke="#191970" d="M921.6639,-206.9005C963.8939,-194.0978 1038.1783,-171.5772 1080.0457,-158.8843"/>
<polygon fill="#191970" stroke="#191970" points="1081.1502,-162.2069 1089.7046,-155.9561 1079.1192,-155.508 1081.1502,-162.2069"/>
</g>
<!-- Node16 -->
<g id="node17" class="node">
<title>Node16</title>
<polygon fill="none" stroke="#bfbfbf" points="350.5,-73 350.5,-92 397.5,-92 397.5,-73 350.5,-73"/>
<text text-anchor="middle" x="374" y="-80" font-family="Helvetica,sans-Serif" font-size="10.00" fill="#000000">cmath</text>
</g>
<!-- Node15&#45;&gt;Node16 -->
<g id="edge18" class="edge">
<title>Node15&#45;&gt;Node16</title>
<path fill="none" stroke="#191970" d="M840.9148,-208.0349C752.3491,-191.9849 560.6501,-153.6801 406,-98 404.4028,-97.4249 402.7795,-96.7946 401.1541,-96.1274"/>
<polygon fill="#191970" stroke="#191970" points="402.5476,-92.9166 391.9897,-92.0329 399.6921,-99.3077 402.5476,-92.9166"/>
</g>
<!-- Node17 -->
<g id="node18" class="node">
<title>Node17</title>
<g id="a_node18"><a xlink:href="../../df/d21/GPUCommonDef_8h.html" target="_top" xlink:title="GPUCommonDef.h">
<polygon fill="none" stroke="#000000" points="142.5,-73 142.5,-92 249.5,-92 249.5,-73 142.5,-73"/>
<text text-anchor="middle" x="196" y="-80" font-family="Helvetica,sans-Serif" font-size="10.00" fill="#000000">GPUCommonDef.h</text>
</a>
</g>
</g>
<!-- Node15&#45;&gt;Node17 -->
<g id="edge19" class="edge">
<title>Node15&#45;&gt;Node17</title>
<path fill="none" stroke="#191970" d="M840.5846,-214.4909C702.711,-208.5929 320.5974,-190.1483 270,-165 241.423,-150.7965 218.8132,-120.3674 206.4339,-100.6995"/>
<polygon fill="#191970" stroke="#191970" points="209.3625,-98.7784 201.1973,-92.0271 203.3702,-102.3967 209.3625,-98.7784"/>
</g>
<!-- Node20 -->
<g id="node21" class="node">
<title>Node20</title>
<g id="a_node21"><a xlink:href="../../d6/da2/GPUCommonMath_8h.html" target="_top" xlink:title="GPUCommonMath.h">
<polygon fill="none" stroke="#000000" points="279.5,-140 279.5,-159 394.5,-159 394.5,-140 279.5,-140"/>
<text text-anchor="middle" x="337" y="-147" font-family="Helvetica,sans-Serif" font-size="10.00" fill="#000000">GPUCommonMath.h</text>
</a>
</g>
</g>
<!-- Node15&#45;&gt;Node20 -->
<g id="edge22" class="edge">
<title>Node15&#45;&gt;Node20</title>
<path fill="none" stroke="#191970" d="M840.9249,-210.5542C741.8521,-198.5508 517.7907,-171.4041 404.8214,-157.7171"/>
<polygon fill="#191970" stroke="#191970" points="404.9216,-154.2037 394.5732,-156.4754 404.0796,-161.1529 404.9216,-154.2037"/>
</g>
<!-- Node15&#45;&gt;Node22 -->
<g id="edge26" class="edge">
<title>Node15&#45;&gt;Node22</title>
<path fill="none" stroke="#191970" d="M896.1609,-206.9005C902.7386,-196.6515 913.3133,-180.1747 921.4493,-167.4976"/>
<polygon fill="#191970" stroke="#191970" points="924.3949,-169.388 926.8506,-159.0817 918.5037,-165.6071 924.3949,-169.388"/>
</g>
<!-- Node18 -->
<g id="node19" class="node">
<title>Node18</title>
<g id="a_node19"><a xlink:href="../../d5/d93/GPUCommonDefSettings_8h.html" target="_top" xlink:title="GPUCommonDefSettings.h">
<polygon fill="none" stroke="#000000" points="0,-6 0,-25 148,-25 148,-6 0,-6"/>
<text text-anchor="middle" x="74" y="-13" font-family="Helvetica,sans-Serif" font-size="10.00" fill="#000000">GPUCommonDefSettings.h</text>
</a>
</g>
</g>
<!-- Node17&#45;&gt;Node18 -->
<g id="edge20" class="edge">
<title>Node17&#45;&gt;Node18</title>
<path fill="none" stroke="#191970" d="M178.5204,-72.9005C158.046,-61.6564 123.9228,-42.9166 100.2607,-29.9219"/>
<polygon fill="#191970" stroke="#191970" points="101.8972,-26.8276 91.4472,-25.0817 98.5276,-32.9632 101.8972,-26.8276"/>
</g>
<!-- Node19 -->
<g id="node20" class="node">
<title>Node19</title>
<g id="a_node20"><a xlink:href="../../da/d5a/GPUCommonDefAPI_8h.html" target="_top" xlink:title="GPUCommonDefAPI.h">
<polygon fill="none" stroke="#000000" points="166,-6 166,-25 290,-25 290,-6 166,-6"/>
<text text-anchor="middle" x="228" y="-13" font-family="Helvetica,sans-Serif" font-size="10.00" fill="#000000">GPUCommonDefAPI.h</text>
</a>
</g>
</g>
<!-- Node17&#45;&gt;Node19 -->
<g id="edge21" class="edge">
<title>Node17&#45;&gt;Node19</title>
<path fill="none" stroke="#191970" d="M200.5848,-72.9005C205.3848,-62.8505 213.0449,-46.8122 219.0494,-34.2403"/>
<polygon fill="#191970" stroke="#191970" points="222.2721,-35.6137 223.4237,-25.0817 215.9556,-32.5968 222.2721,-35.6137"/>
</g>
<!-- Node20&#45;&gt;Node16 -->
<g id="edge24" class="edge">
<title>Node20&#45;&gt;Node16</title>
<path fill="none" stroke="#191970" d="M342.3012,-139.9005C347.9062,-129.751 356.8839,-113.4941 363.8565,-100.8679"/>
<polygon fill="#191970" stroke="#191970" points="366.9382,-102.5275 368.7086,-92.0817 360.8105,-99.1435 366.9382,-102.5275"/>
</g>
<!-- Node20&#45;&gt;Node17 -->
<g id="edge23" class="edge">
<title>Node20&#45;&gt;Node17</title>
<path fill="none" stroke="#191970" d="M316.7981,-139.9005C292.821,-128.5072 252.6479,-109.4178 225.2679,-96.4075"/>
<polygon fill="#191970" stroke="#191970" points="226.6987,-93.2123 216.1644,-92.0817 223.6944,-99.5348 226.6987,-93.2123"/>
</g>
<!-- Node21 -->
<g id="node22" class="node">
<title>Node21</title>
<polygon fill="none" stroke="#bfbfbf" points="268,-73 268,-92 332,-92 332,-73 268,-73"/>
<text text-anchor="middle" x="300" y="-80" font-family="Helvetica,sans-Serif" font-size="10.00" fill="#000000">algorithm</text>
</g>
<!-- Node20&#45;&gt;Node21 -->
<g id="edge25" class="edge">
<title>Node20&#45;&gt;Node21</title>
<path fill="none" stroke="#191970" d="M331.6988,-139.9005C326.0938,-129.751 317.1161,-113.4941 310.1435,-100.8679"/>
<polygon fill="#191970" stroke="#191970" points="313.1895,-99.1435 305.2914,-92.0817 307.0618,-102.5275 313.1895,-99.1435"/>
</g>
<!-- Node24 -->
<g id="node25" class="node">
<title>Node24</title>
<g id="a_node25"><a xlink:href="../../d2/d45/GPUCommonRtypes_8h.html" target="_top" xlink:title="GPUCommonRtypes.h">
<polygon fill="none" stroke="#000000" points="1431.5,-140 1431.5,-159 1556.5,-159 1556.5,-140 1431.5,-140"/>
<text text-anchor="middle" x="1494" y="-147" font-family="Helvetica,sans-Serif" font-size="10.00" fill="#000000">GPUCommonRtypes.h</text>
</a>
</g>
</g>
<!-- Node23&#45;&gt;Node24 -->
<g id="edge28" class="edge">
<title>Node23&#45;&gt;Node24</title>
<path fill="none" stroke="#191970" d="M1454.5907,-206.9005C1461.6273,-196.6515 1472.9398,-180.1747 1481.6434,-167.4976"/>
<polygon fill="#191970" stroke="#191970" points="1484.6468,-169.3067 1487.4215,-159.0817 1478.876,-165.3446 1484.6468,-169.3067"/>
</g>
<!-- Node24&#45;&gt;Node1 -->
<g id="edge29" class="edge">
<title>Node24&#45;&gt;Node1</title>
<path fill="none" stroke="#191970" d="M1531.0101,-139.9903C1567.4384,-130.3639 1624.4984,-114.5707 1673,-98 1675.1287,-97.2727 1677.3113,-96.4954 1679.5037,-95.6907"/>
<polygon fill="#191970" stroke="#191970" points="1680.9432,-98.8878 1689.0426,-92.0576 1678.4517,-92.3462 1680.9432,-98.8878"/>
</g>
<!-- Node25&#45;&gt;Node1 -->
<g id="edge32" class="edge">
<title>Node25&#45;&gt;Node1</title>
<path fill="none" stroke="#191970" d="M1597.0627,-206.628C1609.9837,-190.9244 1636.2887,-159.4307 1660,-134 1671.1857,-122.0031 1684.3133,-109.0097 1694.5798,-99.0754"/>
<polygon fill="#191970" stroke="#191970" points="1697.009,-101.5952 1701.7934,-92.1421 1692.1583,-96.5483 1697.009,-101.5952"/>
</g>
<!-- Node26&#45;&gt;Node1 -->
<g id="edge34" class="edge">
<title>Node26&#45;&gt;Node1</title>
<path fill="none" stroke="#191970" d="M1752.7181,-201.1057C1745.4368,-191.2845 1736.5714,-177.9984 1731,-165 1722.2127,-144.4987 1717.1668,-119.312 1714.5145,-102.1995"/>
<polygon fill="#191970" stroke="#191970" points="1717.9729,-101.6591 1713.1018,-92.2505 1711.0424,-102.6432 1717.9729,-101.6591"/>
</g>
<!-- Node26&#45;&gt;Node3 -->
<g id="edge35" class="edge">
<title>Node26&#45;&gt;Node3</title>
<path fill="none" stroke="#191970" d="M1703.4434,-207.1418C1687.3765,-204.9085 1670.0617,-202.6863 1654,-201 1428.0114,-177.2734 1363.8947,-222.2722 1144,-165 1142.0246,-164.4855 1140.0232,-163.8546 1138.0337,-163.1449"/>
<polygon fill="#191970" stroke="#191970" points="1138.9375,-159.7298 1128.3607,-159.1125 1136.244,-166.1909 1138.9375,-159.7298"/>
</g>
<!-- Node27 -->
<g id="node28" class="node">
<title>Node27</title>
<polygon fill="none" stroke="#bfbfbf" points="1740.5,-140 1740.5,-159 1789.5,-159 1789.5,-140 1740.5,-140"/>
<text text-anchor="middle" x="1765" y="-147" font-family="Helvetica,sans-Serif" font-size="10.00" fill="#000000">cstdlib</text>
</g>
<!-- Node26&#45;&gt;Node27 -->
<g id="edge36" class="edge">
<title>Node26&#45;&gt;Node27</title>
<path fill="none" stroke="#191970" d="M1765,-201.2967C1765,-191.7699 1765,-179.3954 1765,-169.1306"/>
<polygon fill="#191970" stroke="#191970" points="1768.5001,-169.0549 1765,-159.055 1761.5001,-169.055 1768.5001,-169.0549"/>
</g>
<!-- Node28 -->
<g id="node29" class="node">
<title>Node28</title>
<polygon fill="none" stroke="#bfbfbf" points="1952,-73 1952,-92 2002,-92 2002,-73 1952,-73"/>
<text text-anchor="middle" x="1977" y="-80" font-family="Helvetica,sans-Serif" font-size="10.00" fill="#000000">cstdint</text>
</g>
<!-- Node26&#45;&gt;Node28 -->
<g id="edge37" class="edge">
<title>Node26&#45;&gt;Node28</title>
<path fill="none" stroke="#191970" d="M1826.687,-211.7805C1889.6799,-205.5279 1981.2333,-191.9805 2003,-165 2018.0958,-146.2883 2004.1426,-118.7156 1991.5693,-100.6824"/>
<polygon fill="#191970" stroke="#191970" points="1994.0546,-98.1588 1985.2812,-92.2193 1988.4358,-102.3336 1994.0546,-98.1588"/>
</g>
<!-- Node29 -->
<g id="node30" class="node">
<title>Node29</title>
<polygon fill="none" stroke="#bfbfbf" points="1808,-140 1808,-159 1852,-159 1852,-140 1808,-140"/>
<text text-anchor="middle" x="1830" y="-147" font-family="Helvetica,sans-Serif" font-size="10.00" fill="#000000">string</text>
</g>
<!-- Node26&#45;&gt;Node29 -->
<g id="edge38" class="edge">
<title>Node26&#45;&gt;Node29</title>
<path fill="none" stroke="#191970" d="M1779.7495,-201.2967C1789.8768,-190.8578 1803.3212,-176.9997 1813.7552,-166.2446"/>
<polygon fill="#191970" stroke="#191970" points="1816.2792,-168.6695 1820.7303,-159.055 1811.255,-163.7953 1816.2792,-168.6695"/>
</g>
<!-- Node30 -->
<g id="node31" class="node">
<title>Node30</title>
<g id="a_node31"><a xlink:href="../../dc/dd8/RUInfo_8h.html" target="_top" xlink:title="ITSMFTReconstruction\l/RUInfo.h">
<polygon fill="none" stroke="#000000" points="1870.5,-134.5 1870.5,-164.5 1993.5,-164.5 1993.5,-134.5 1870.5,-134.5"/>
<text text-anchor="start" x="1878.5" y="-152.5" font-family="Helvetica,sans-Serif" font-size="10.00" fill="#000000">ITSMFTReconstruction</text>
<text text-anchor="middle" x="1932" y="-141.5" font-family="Helvetica,sans-Serif" font-size="10.00" fill="#000000">/RUInfo.h</text>
</a>
</g>
</g>
<!-- Node26&#45;&gt;Node30 -->
<g id="edge39" class="edge">
<title>Node26&#45;&gt;Node30</title>
<path fill="none" stroke="#191970" d="M1802.4781,-201.4639C1826.8878,-191.6708 1858.9283,-178.8162 1885.0342,-168.3426"/>
<polygon fill="#191970" stroke="#191970" points="1886.3808,-171.5736 1894.3585,-164.6017 1883.7743,-165.0769 1886.3808,-171.5736"/>
</g>
<!-- Node30&#45;&gt;Node1 -->
<g id="edge40" class="edge">
<title>Node30&#45;&gt;Node1</title>
<path fill="none" stroke="#191970" d="M1882.6277,-134.4639C1843.0244,-122.4029 1788.1736,-105.6983 1751.4582,-94.5168"/>
<polygon fill="#191970" stroke="#191970" points="1752.1972,-91.0832 1741.6113,-91.518 1750.1578,-97.7796 1752.1972,-91.0832"/>
</g>
<!-- Node30&#45;&gt;Node28 -->
<g id="edge41" class="edge">
<title>Node30&#45;&gt;Node28</title>
<path fill="none" stroke="#191970" d="M1942.2112,-134.2967C1948.9501,-124.2631 1957.8106,-111.0709 1964.9029,-100.5113"/>
<polygon fill="#191970" stroke="#191970" points="1967.9124,-102.3078 1970.5825,-92.055 1962.1014,-98.4049 1967.9124,-102.3078"/>
</g>
<!-- Node31&#45;&gt;Node1 -->
<g id="edge43" class="edge">
<title>Node31&#45;&gt;Node1</title>
<path fill="none" stroke="#191970" d="M1283.8925,-206.7325C1309.7432,-189.0812 1367.5604,-152.0324 1422,-134 1528.981,-98.564 1564.1015,-127.013 1673,-98 1675.6159,-97.3031 1678.2941,-96.4819 1680.9613,-95.5873"/>
<polygon fill="#191970" stroke="#191970" points="1682.2548,-98.8409 1690.4419,-92.1162 1679.8482,-92.2677 1682.2548,-98.8409"/>
</g>
<!-- Node31&#45;&gt;Node4 -->
<g id="edge44" class="edge">
<title>Node31&#45;&gt;Node4</title>
<path fill="none" stroke="#191970" d="M1262.9795,-206.9005C1255.4839,-196.6515 1243.4337,-180.1747 1234.1624,-167.4976"/>
<polygon fill="#191970" stroke="#191970" points="1236.7358,-165.0873 1228.0075,-159.0817 1231.0856,-169.2195 1236.7358,-165.0873"/>
</g>
</g>
</svg>
        <g id="navigator" transform="translate(0 0)" fill="#404254">
                <rect fill="#f2f5e9" fill-opacity="0.5" stroke="#606060" stroke-width=".5" x="0" y="0" width="60" height="60"/>
                <use id="zoomplus" xlink:href="#zoomPlus" x="17" y="9" onmousedown="handleZoom(evt,'in')"/>
                <use id="zoomminus" xlink:href="#zoomMin" x="42" y="9" onmousedown="handleZoom(evt,'out')"/>
                <use id="reset" xlink:href="#resetDef" x="30" y="36" onmousedown="handleReset()"/>
                <g id="arrowUp" xlink:href="#dirArrow" transform="translate(30 24)" onmousedown="handlePan(0,-1)">
                  <use xlink:href="#rim" fill="#404040">
                        <set attributeName="fill" to="#808080" begin="arrowUp.mouseover" end="arrowUp.mouseout"/>
                  </use>
                  <path fill="none" stroke="white" stroke-width="1.5" d="M0,-3.0v7 M-2.5,-0.5L0,-3.0L2.5,-0.5"/>
                </g>
                <g id="arrowRight" xlink:href="#dirArrow" transform="rotate(90) translate(36 -43)" onmousedown="handlePan(1,0)">
                  <use xlink:href="#rim" fill="#404040">
                        <set attributeName="fill" to="#808080" begin="arrowRight.mouseover" end="arrowRight.mouseout"/>
                  </use>
                  <path fill="none" stroke="white" stroke-width="1.5" d="M0,-3.0v7 M-2.5,-0.5L0,-3.0L2.5,-0.5"/>
                </g>
                <g id="arrowDown" xlink:href="#dirArrow" transform="rotate(180) translate(-30 -48)" onmousedown="handlePan(0,1)">
                  <use xlink:href="#rim" fill="#404040">
                        <set attributeName="fill" to="#808080" begin="arrowDown.mouseover" end="arrowDown.mouseout"/>
                  </use>
                  <path fill="none" stroke="white" stroke-width="1.5" d="M0,-3.0v7 M-2.5,-0.5L0,-3.0L2.5,-0.5"/>
                </g>
                <g id="arrowLeft" xlink:href="#dirArrow" transform="rotate(270) translate(-36 17)" onmousedown="handlePan(-1,0)">
                  <use xlink:href="#rim" fill="#404040">
                        <set attributeName="fill" to="#808080" begin="arrowLeft.mouseover" end="arrowLeft.mouseout"/>
                  </use>
                  <path fill="none" stroke="white" stroke-width="1.5" d="M0,-3.0v7 M-2.5,-0.5L0,-3.0L2.5,-0.5"/>
                </g>
        </g>
        <svg viewBox="0 0 15 15" width="100%" height="30px" preserveAspectRatio="xMaxYMin meet">
         <g id="arrow_out" transform="scale(0.3 0.3)">
          <a xlink:href="RecoGeomHelper_8h__incl_org.svg" target="_base">
           <rect id="button" ry="5" rx="5" y="6" x="6" height="38" width="38"
                fill="#f2f5e9" fill-opacity="0.5" stroke="#606060" stroke-width="1.0"/>
           <path id="arrow"
             d="M 11.500037,31.436501 C 11.940474,20.09759 22.043105,11.32322 32.158766,21.979434 L 37.068811,17.246167 C 37.068811,17.246167 37.088388,32 37.088388,32 L 22.160133,31.978069 C 22.160133,31.978069 26.997745,27.140456 26.997745,27.140456 C 18.528582,18.264221 13.291696,25.230495 11.500037,31.436501 z"
             style="fill:#404040;"/>
          </a>
         </g>
        </svg>
</svg>
