<?xml version="1.0" encoding="UTF-8" standalone="no"?>
<!DOCTYPE svg PUBLIC "-//W3C//DTD SVG 1.1//EN"
 "http://www.w3.org/Graphics/SVG/1.1/DTD/svg11.dtd">
<!-- Generated by graphviz version 2.40.1 (20161225.0304)
 -->
<!-- Title: o2::itsmft::PixelReader Pages: 1 -->
<svg width="390pt" height="760pt"
 viewBox="0.00 0.00 390.00 760.00" xmlns="http://www.w3.org/2000/svg" xmlns:xlink="http://www.w3.org/1999/xlink">
<g id="graph0" class="graph" transform="scale(1 1) rotate(0) translate(4 756)">
<title>o2::itsmft::PixelReader</title>
<!-- Node4 -->
<g id="node1" class="node">
<title>Node4</title>
<polygon fill="#bfbfbf" stroke="#000000" points="145.5,-.5 145.5,-178.5 296.5,-178.5 296.5,-.5 145.5,-.5"/>
<text text-anchor="middle" x="221" y="-166.5" font-family="Helvetica,sans-Serif" font-size="10.00" fill="#000000">o2::itsmft::PixelReader</text>
<polyline fill="none" stroke="#000000" points="145.5,-159.5 296.5,-159.5 "/>
<text text-anchor="middle" x="221" y="-147.5" font-family="Helvetica,sans-Serif" font-size="10.00" fill="#000000"> </text>
<polyline fill="none" stroke="#000000" points="145.5,-140.5 296.5,-140.5 "/>
<text text-anchor="start" x="153.5" y="-128.5" font-family="Helvetica,sans-Serif" font-size="10.00" fill="#000000">+ PixelReader()</text>
<text text-anchor="start" x="153.5" y="-117.5" font-family="Helvetica,sans-Serif" font-size="10.00" fill="#000000">+ ~PixelReader()</text>
<text text-anchor="start" x="153.5" y="-106.5" font-family="Helvetica,sans-Serif" font-size="10.00" fill="#000000">+ PixelReader()</text>
<text text-anchor="start" x="153.5" y="-95.5" font-family="Helvetica,sans-Serif" font-size="10.00" fill="#000000">+ operator=()</text>
<text text-anchor="start" x="153.5" y="-84.5" font-family="Helvetica,sans-Serif" font-size="10.00" fill="#000000">+ init()</text>
<text text-anchor="start" x="153.5" y="-73.5" font-family="Helvetica,sans-Serif" font-size="10.00" fill="#000000">+ getNextChipData()</text>
<text text-anchor="start" x="153.5" y="-62.5" font-family="Helvetica,sans-Serif" font-size="10.00" fill="#000000">+ getNextChipData()</text>
<text text-anchor="start" x="153.5" y="-51.5" font-family="Helvetica,sans-Serif" font-size="10.00" fill="#000000">+ getDigitsMCTruth()</text>
<text text-anchor="start" x="153.5" y="-40.5" font-family="Helvetica,sans-Serif" font-size="10.00" fill="#000000">+ getInteractionRecordHB()</text>
<text text-anchor="start" x="153.5" y="-29.5" font-family="Helvetica,sans-Serif" font-size="10.00" fill="#000000">+ getInteractionRecord()</text>
<text text-anchor="start" x="153.5" y="-18.5" font-family="Helvetica,sans-Serif" font-size="10.00" fill="#000000">+ getTrigger()</text>
<text text-anchor="start" x="153.5" y="-7.5" font-family="Helvetica,sans-Serif" font-size="10.00" fill="#000000"># ClassDef()</text>
</g>
<!-- Node5 -->
<g id="node2" class="node">
<title>Node5</title>
<g id="a_node2"><a xlink:href="../../d1/d21/structo2_1_1InteractionRecord.html" target="_top" xlink:title="{o2::InteractionRecord\n||+ InteractionRecord()\l+ InteractionRecord()\l+ InteractionRecord()\l+ InteractionRecord()\l+ clear()\l+ isDummy()\l+ setFromNS()\l+ bc2ns()\l+ operator==()\l+ operator!=()\l+ differenceInBC()\l+ toLong()\l+ operator\&gt;()\l+ operator\&gt;=()\l+ operator\&lt;()\l+ operator\&lt;=()\l+ operator&#45;&#45;()\l+ operator&#45;&#45;()\l+ operator++()\l+ operator++()\l+ operator+=()\l+ operator&#45;=()\l+ operator+=()\l+ operator&#45;=()\l+ operator+()\l+ operator&#45;()\l+ operator+()\l+ operator&#45;()\l+ print()\l+ ClassDefNV()\l+ bc2ns()\l+ ns2bc()\l}">
<polygon fill="none" stroke="#000000" points="82.5,-237.5 82.5,-635.5 203.5,-635.5 203.5,-237.5 82.5,-237.5"/>
<text text-anchor="middle" x="143" y="-623.5" font-family="Helvetica,sans-Serif" font-size="10.00" fill="#000000">o2::InteractionRecord</text>
<polyline fill="none" stroke="#000000" points="82.5,-616.5 203.5,-616.5 "/>
<text text-anchor="middle" x="143" y="-604.5" font-family="Helvetica,sans-Serif" font-size="10.00" fill="#000000"> </text>
<polyline fill="none" stroke="#000000" points="82.5,-597.5 203.5,-597.5 "/>
<text text-anchor="start" x="90.5" y="-585.5" font-family="Helvetica,sans-Serif" font-size="10.00" fill="#000000">+ InteractionRecord()</text>
<text text-anchor="start" x="90.5" y="-574.5" font-family="Helvetica,sans-Serif" font-size="10.00" fill="#000000">+ InteractionRecord()</text>
<text text-anchor="start" x="90.5" y="-563.5" font-family="Helvetica,sans-Serif" font-size="10.00" fill="#000000">+ InteractionRecord()</text>
<text text-anchor="start" x="90.5" y="-552.5" font-family="Helvetica,sans-Serif" font-size="10.00" fill="#000000">+ InteractionRecord()</text>
<text text-anchor="start" x="90.5" y="-541.5" font-family="Helvetica,sans-Serif" font-size="10.00" fill="#000000">+ clear()</text>
<text text-anchor="start" x="90.5" y="-530.5" font-family="Helvetica,sans-Serif" font-size="10.00" fill="#000000">+ isDummy()</text>
<text text-anchor="start" x="90.5" y="-519.5" font-family="Helvetica,sans-Serif" font-size="10.00" fill="#000000">+ setFromNS()</text>
<text text-anchor="start" x="90.5" y="-508.5" font-family="Helvetica,sans-Serif" font-size="10.00" fill="#000000">+ bc2ns()</text>
<text text-anchor="start" x="90.5" y="-497.5" font-family="Helvetica,sans-Serif" font-size="10.00" fill="#000000">+ operator==()</text>
<text text-anchor="start" x="90.5" y="-486.5" font-family="Helvetica,sans-Serif" font-size="10.00" fill="#000000">+ operator!=()</text>
<text text-anchor="start" x="90.5" y="-475.5" font-family="Helvetica,sans-Serif" font-size="10.00" fill="#000000">+ differenceInBC()</text>
<text text-anchor="start" x="90.5" y="-464.5" font-family="Helvetica,sans-Serif" font-size="10.00" fill="#000000">+ toLong()</text>
<text text-anchor="start" x="90.5" y="-453.5" font-family="Helvetica,sans-Serif" font-size="10.00" fill="#000000">+ operator&gt;()</text>
<text text-anchor="start" x="90.5" y="-442.5" font-family="Helvetica,sans-Serif" font-size="10.00" fill="#000000">+ operator&gt;=()</text>
<text text-anchor="start" x="90.5" y="-431.5" font-family="Helvetica,sans-Serif" font-size="10.00" fill="#000000">+ operator&lt;()</text>
<text text-anchor="start" x="90.5" y="-420.5" font-family="Helvetica,sans-Serif" font-size="10.00" fill="#000000">+ operator&lt;=()</text>
<text text-anchor="start" x="90.5" y="-409.5" font-family="Helvetica,sans-Serif" font-size="10.00" fill="#000000">+ operator&#45;&#45;()</text>
<text text-anchor="start" x="90.5" y="-398.5" font-family="Helvetica,sans-Serif" font-size="10.00" fill="#000000">+ operator&#45;&#45;()</text>
<text text-anchor="start" x="90.5" y="-387.5" font-family="Helvetica,sans-Serif" font-size="10.00" fill="#000000">+ operator++()</text>
<text text-anchor="start" x="90.5" y="-376.5" font-family="Helvetica,sans-Serif" font-size="10.00" fill="#000000">+ operator++()</text>
<text text-anchor="start" x="90.5" y="-365.5" font-family="Helvetica,sans-Serif" font-size="10.00" fill="#000000">+ operator+=()</text>
<text text-anchor="start" x="90.5" y="-354.5" font-family="Helvetica,sans-Serif" font-size="10.00" fill="#000000">+ operator&#45;=()</text>
<text text-anchor="start" x="90.5" y="-343.5" font-family="Helvetica,sans-Serif" font-size="10.00" fill="#000000">+ operator+=()</text>
<text text-anchor="start" x="90.5" y="-332.5" font-family="Helvetica,sans-Serif" font-size="10.00" fill="#000000">+ operator&#45;=()</text>
<text text-anchor="start" x="90.5" y="-321.5" font-family="Helvetica,sans-Serif" font-size="10.00" fill="#000000">+ operator+()</text>
<text text-anchor="start" x="90.5" y="-310.5" font-family="Helvetica,sans-Serif" font-size="10.00" fill="#000000">+ operator&#45;()</text>
<text text-anchor="start" x="90.5" y="-299.5" font-family="Helvetica,sans-Serif" font-size="10.00" fill="#000000">+ operator+()</text>
<text text-anchor="start" x="90.5" y="-288.5" font-family="Helvetica,sans-Serif" font-size="10.00" fill="#000000">+ operator&#45;()</text>
<text text-anchor="start" x="90.5" y="-277.5" font-family="Helvetica,sans-Serif" font-size="10.00" fill="#000000">+ print()</text>
<text text-anchor="start" x="90.5" y="-266.5" font-family="Helvetica,sans-Serif" font-size="10.00" fill="#000000">+ ClassDefNV()</text>
<text text-anchor="start" x="90.5" y="-255.5" font-family="Helvetica,sans-Serif" font-size="10.00" fill="#000000">+ bc2ns()</text>
<text text-anchor="start" x="90.5" y="-244.5" font-family="Helvetica,sans-Serif" font-size="10.00" fill="#000000">+ ns2bc()</text>
</a>
</g>
</g>
<!-- Node5&#45;&gt;Node4 -->
<g id="edge1" class="edge">
<title>Node5&#45;&gt;Node4</title>
<path fill="none" stroke="#404040" d="M153.2765,-237.3216C155.9286,-223.5557 159.1348,-209.998 163,-197 163.68,-194.7133 164.4123,-192.4199 165.1909,-190.1249"/>
<polygon fill="none" stroke="#404040" points="165.2702,-189.9109 163.606,-182.8944 169.4426,-178.6596 171.1068,-185.6761 165.2702,-189.9109"/>
<text text-anchor="middle" x="223.5" y="-211" font-family="Helvetica,sans-Serif" font-size="10.00" fill="#000000"> #mInteractionRecordHB</text>
<text text-anchor="middle" x="223.5" y="-200" font-family="Helvetica,sans-Serif" font-size="10.00" fill="#000000">#mInteractionRecord</text>
</g>
<!-- Node6 -->
<g id="node3" class="node">
<title>Node6</title>
<polygon fill="none" stroke="#bfbfbf" points="0,-694.5 0,-751.5 50,-751.5 50,-694.5 0,-694.5"/>
<text text-anchor="middle" x="25" y="-739.5" font-family="Helvetica,sans-Serif" font-size="10.00" fill="#000000">double</text>
<polyline fill="none" stroke="#bfbfbf" points="0,-732.5 50,-732.5 "/>
<text text-anchor="middle" x="25" y="-720.5" font-family="Helvetica,sans-Serif" font-size="10.00" fill="#000000"> </text>
<polyline fill="none" stroke="#bfbfbf" points="0,-713.5 50,-713.5 "/>
<text text-anchor="middle" x="25" y="-701.5" font-family="Helvetica,sans-Serif" font-size="10.00" fill="#000000"> </text>
</g>
<!-- Node6&#45;&gt;Node5 -->
<g id="edge2" class="edge">
<title>Node6&#45;&gt;Node5</title>
<path fill="none" stroke="#404040" d="M32.3775,-694.1713C35.8221,-681.6896 40.2174,-666.9919 45,-654 54.6398,-627.8136 65.9936,-600.3456 77.4914,-574.0844"/>
<polygon fill="none" stroke="#404040" points="77.5776,-573.889 76.3411,-566.7847 82.4233,-562.9108 83.6598,-570.0151 77.5776,-573.889"/>
<text text-anchor="middle" x="83" y="-662.5" font-family="Helvetica,sans-Serif" font-size="10.00" fill="#000000"> +DummyTime</text>
</g>
<!-- Node7 -->
<g id="node4" class="node">
<title>Node7</title>
<polygon fill="none" stroke="#bfbfbf" points="96,-694.5 96,-751.5 152,-751.5 152,-694.5 96,-694.5"/>
<text text-anchor="middle" x="124" y="-739.5" font-family="Helvetica,sans-Serif" font-size="10.00" fill="#000000">uint16_t</text>
<polyline fill="none" stroke="#bfbfbf" points="96,-732.5 152,-732.5 "/>
<text text-anchor="middle" x="124" y="-720.5" font-family="Helvetica,sans-Serif" font-size="10.00" fill="#000000"> </text>
<polyline fill="none" stroke="#bfbfbf" points="96,-713.5 152,-713.5 "/>
<text text-anchor="middle" x="124" y="-701.5" font-family="Helvetica,sans-Serif" font-size="10.00" fill="#000000"> </text>
</g>
<!-- Node7&#45;&gt;Node5 -->
<g id="edge3" class="edge">
<title>Node7&#45;&gt;Node5</title>
<path fill="none" stroke="#404040" d="M123.9781,-694.4512C124.0812,-682.019 124.3549,-667.2826 125,-654 125.1011,-651.9185 125.2062,-649.8261 125.315,-647.7242"/>
<polygon fill="none" stroke="#404040" points="125.3231,-647.5737 121.6563,-641.3645 125.9776,-635.5916 129.6444,-641.8008 125.3231,-647.5737"/>
<text text-anchor="middle" x="157" y="-668" font-family="Helvetica,sans-Serif" font-size="10.00" fill="#000000"> +DummyBC</text>
<text text-anchor="middle" x="157" y="-657" font-family="Helvetica,sans-Serif" font-size="10.00" fill="#000000">+bc</text>
</g>
<!-- Node8 -->
<g id="node5" class="node">
<title>Node8</title>
<polygon fill="none" stroke="#bfbfbf" points="226,-694.5 226,-751.5 282,-751.5 282,-694.5 226,-694.5"/>
<text text-anchor="middle" x="254" y="-739.5" font-family="Helvetica,sans-Serif" font-size="10.00" fill="#000000">uint32_t</text>
<polyline fill="none" stroke="#bfbfbf" points="226,-732.5 282,-732.5 "/>
<text text-anchor="middle" x="254" y="-720.5" font-family="Helvetica,sans-Serif" font-size="10.00" fill="#000000"> </text>
<polyline fill="none" stroke="#bfbfbf" points="226,-713.5 282,-713.5 "/>
<text text-anchor="middle" x="254" y="-701.5" font-family="Helvetica,sans-Serif" font-size="10.00" fill="#000000"> </text>
</g>
<!-- Node8&#45;&gt;Node4 -->
<g id="edge5" class="edge">
<title>Node8&#45;&gt;Node4</title>
<path fill="none" stroke="#404040" d="M275.7897,-694.4101C279.1738,-688.5969 282.1552,-682.3188 284,-676 343.6617,-471.6421 339.7675,-402.4548 284,-197 283.3731,-194.6905 282.6828,-192.3799 281.9356,-190.0726"/>
<polygon fill="none" stroke="#404040" points="281.8587,-189.8609 276.0489,-185.5893 277.7573,-178.5835 283.5671,-182.855 281.8587,-189.8609"/>
<text text-anchor="middle" x="354.5" y="-434" font-family="Helvetica,sans-Serif" font-size="10.00" fill="#000000"> #mTrigger</text>
</g>
<!-- Node8&#45;&gt;Node5 -->
<g id="edge4" class="edge">
<title>Node8&#45;&gt;Node5</title>
<path fill="none" stroke="#404040" d="M225.7879,-695.494C220.6624,-689.4435 215.7582,-682.8001 212,-676 206.8675,-666.7132 202.0851,-657.0081 197.633,-647.05"/>
<polygon fill="none" stroke="#404040" points="197.4945,-646.7286 191.4466,-642.8014 192.7455,-635.7083 198.7935,-639.6354 197.4945,-646.7286"/>
<text text-anchor="middle" x="248" y="-668" font-family="Helvetica,sans-Serif" font-size="10.00" fill="#000000"> +orbit</text>
<text text-anchor="middle" x="248" y="-657" font-family="Helvetica,sans-Serif" font-size="10.00" fill="#000000">+DummyOrbit</text>
</g>
</g>
</svg>
