<?xml version="1.0" encoding="UTF-8" standalone="no"?>
<!DOCTYPE svg PUBLIC "-//W3C//DTD SVG 1.1//EN"
 "http://www.w3.org/Graphics/SVG/1.1/DTD/svg11.dtd">
<!-- Generated by graphviz version 2.40.1 (20161225.0304)
 -->
<!-- Title: /home/travis/build/AliceO2Group/AliceO2/Framework/Core/include/Framework/Variant.h Pages: 1 -->
<svg width="532pt" height="117pt"
 viewBox="0.00 0.00 532.00 117.00" xmlns="http://www.w3.org/2000/svg" xmlns:xlink="http://www.w3.org/1999/xlink">
<g id="graph0" class="graph" transform="scale(1 1) rotate(0) translate(4 113)">
<title>/home/travis/build/AliceO2Group/AliceO2/Framework/Core/include/Framework/Variant.h</title>
<!-- Node0 -->
<g id="node1" class="node">
<title>Node0</title>
<polygon fill="#bfbfbf" stroke="#000000" points="180,-56.5 180,-108.5 317,-108.5 317,-56.5 180,-56.5"/>
<text text-anchor="start" x="188" y="-96.5" font-family="Helvetica,sans-Serif" font-size="10.00" fill="#000000">/home/travis/build</text>
<text text-anchor="start" x="188" y="-85.5" font-family="Helvetica,sans-Serif" font-size="10.00" fill="#000000">/AliceO2Group/AliceO2</text>
<text text-anchor="start" x="188" y="-74.5" font-family="Helvetica,sans-Serif" font-size="10.00" fill="#000000">/Framework/Core/include</text>
<text text-anchor="middle" x="248.5" y="-63.5" font-family="Helvetica,sans-Serif" font-size="10.00" fill="#000000">/Framework/Variant.h</text>
</g>
<!-- Node1 -->
<g id="node2" class="node">
<title>Node1</title>
<polygon fill="none" stroke="#bfbfbf" points="0,-.5 0,-19.5 69,-19.5 69,-.5 0,-.5"/>
<text text-anchor="middle" x="34.5" y="-7.5" font-family="Helvetica,sans-Serif" font-size="10.00" fill="#000000">type_traits</text>
</g>
<!-- Node0&#45;&gt;Node1 -->
<g id="edge1" class="edge">
<title>Node0&#45;&gt;Node1</title>
<path fill="none" stroke="#191970" d="M179.906,-59.2614C144.2088,-47.1677 101.9359,-32.8463 72.1977,-22.7714"/>
<polygon fill="#191970" stroke="#191970" points="73.215,-19.4207 62.6207,-19.5269 70.9688,-26.0506 73.215,-19.4207"/>
</g>
<!-- Node2 -->
<g id="node3" class="node">
<title>Node2</title>
<polygon fill="none" stroke="#bfbfbf" points="87.5,-.5 87.5,-19.5 137.5,-19.5 137.5,-.5 87.5,-.5"/>
<text text-anchor="middle" x="112.5" y="-7.5" font-family="Helvetica,sans-Serif" font-size="10.00" fill="#000000">cstring</text>
</g>
<!-- Node0&#45;&gt;Node2 -->
<g id="edge2" class="edge">
<title>Node0&#45;&gt;Node2</title>
<path fill="none" stroke="#191970" d="M199.4009,-56.3258C179.1147,-45.5115 156.3906,-33.3976 139.269,-24.2703"/>
<polygon fill="#191970" stroke="#191970" points="140.8554,-21.1497 130.3845,-19.534 137.5624,-27.3268 140.8554,-21.1497"/>
</g>
<!-- Node3 -->
<g id="node4" class="node">
<title>Node3</title>
<polygon fill="none" stroke="#bfbfbf" points="155.5,-.5 155.5,-19.5 205.5,-19.5 205.5,-.5 155.5,-.5"/>
<text text-anchor="middle" x="180.5" y="-7.5" font-family="Helvetica,sans-Serif" font-size="10.00" fill="#000000">cstdint</text>
</g>
<!-- Node0&#45;&gt;Node3 -->
<g id="edge3" class="edge">
<title>Node0&#45;&gt;Node3</title>
<path fill="none" stroke="#191970" d="M223.9504,-56.3258C214.7465,-46.5128 204.5389,-35.6298 196.3314,-26.879"/>
<polygon fill="#191970" stroke="#191970" points="198.8362,-24.4334 189.4422,-19.534 193.7305,-29.2222 198.8362,-24.4334"/>
</g>
<!-- Node4 -->
<g id="node5" class="node">
<title>Node4</title>
<polygon fill="none" stroke="#bfbfbf" points="224,-.5 224,-19.5 273,-19.5 273,-.5 224,-.5"/>
<text text-anchor="middle" x="248.5" y="-7.5" font-family="Helvetica,sans-Serif" font-size="10.00" fill="#000000">cstdlib</text>
</g>
<!-- Node0&#45;&gt;Node4 -->
<g id="edge4" class="edge">
<title>Node0&#45;&gt;Node4</title>
<path fill="none" stroke="#191970" d="M248.5,-56.3258C248.5,-47.5142 248.5,-37.8397 248.5,-29.621"/>
<polygon fill="#191970" stroke="#191970" points="252.0001,-29.534 248.5,-19.534 245.0001,-29.534 252.0001,-29.534"/>
</g>
<!-- Node5 -->
<g id="node6" class="node">
<title>Node5</title>
<polygon fill="none" stroke="#bfbfbf" points="291,-.5 291,-19.5 356,-19.5 356,-.5 291,-.5"/>
<text text-anchor="middle" x="323.5" y="-7.5" font-family="Helvetica,sans-Serif" font-size="10.00" fill="#000000">stdexcept</text>
</g>
<!-- Node0&#45;&gt;Node5 -->
<g id="edge5" class="edge">
<title>Node0&#45;&gt;Node5</title>
<path fill="none" stroke="#191970" d="M275.5767,-56.3258C285.8317,-46.4127 297.2163,-35.4075 306.3153,-26.6118"/>
<polygon fill="#191970" stroke="#191970" points="308.8799,-29.0007 313.6372,-19.534 304.0147,-23.9678 308.8799,-29.0007"/>
</g>
<!-- Node6 -->
<g id="node7" class="node">
<title>Node6</title>
<polygon fill="none" stroke="#bfbfbf" points="374,-.5 374,-19.5 423,-19.5 423,-.5 374,-.5"/>
<text text-anchor="middle" x="398.5" y="-7.5" font-family="Helvetica,sans-Serif" font-size="10.00" fill="#000000">iosfwd</text>
</g>
<!-- Node0&#45;&gt;Node6 -->
<g id="edge6" class="edge">
<title>Node0&#45;&gt;Node6</title>
<path fill="none" stroke="#191970" d="M302.6534,-56.3258C325.3387,-45.3613 350.7879,-33.0608 369.7586,-23.8917"/>
<polygon fill="#191970" stroke="#191970" points="371.2941,-27.037 378.7745,-19.534 368.2479,-20.7345 371.2941,-27.037"/>
</g>
<!-- Node7 -->
<g id="node8" class="node">
<title>Node7</title>
<polygon fill="none" stroke="#bfbfbf" points="441,-.5 441,-19.5 524,-19.5 524,-.5 441,-.5"/>
<text text-anchor="middle" x="482.5" y="-7.5" font-family="Helvetica,sans-Serif" font-size="10.00" fill="#000000">initializer_list</text>
</g>
<!-- Node0&#45;&gt;Node7 -->
<g id="edge7" class="edge">
<title>Node0&#45;&gt;Node7</title>
<path fill="none" stroke="#191970" d="M317.1266,-61.2375C357.6311,-48.688 407.5233,-33.2299 441.8505,-22.5944"/>
<polygon fill="#191970" stroke="#191970" points="443.0208,-25.896 451.537,-19.5932 440.9491,-19.2096 443.0208,-25.896"/>
</g>
</g>
</svg>
