<?xml version="1.0" encoding="UTF-8" standalone="no"?>
<!DOCTYPE svg PUBLIC "-//W3C//DTD SVG 1.1//EN"
 "http://www.w3.org/Graphics/SVG/1.1/DTD/svg11.dtd">
<!-- Generated by graphviz version 2.40.1 (20161225.0304)
 -->
<!-- Title: GPUCA_NAMESPACE::gpu::FlatObject Pages: 1 -->
<svg width="369pt" height="457pt"
 viewBox="0.00 0.00 369.00 457.00" xmlns="http://www.w3.org/2000/svg" xmlns:xlink="http://www.w3.org/1999/xlink">
<g id="graph0" class="graph" transform="scale(1 1) rotate(0) translate(4 453)">
<title>GPUCA_NAMESPACE::gpu::FlatObject</title>
<!-- Node8 -->
<g id="node1" class="node">
<title>Node8</title>
<polygon fill="#bfbfbf" stroke="#000000" points="76,-.5 76,-332.5 234,-332.5 234,-.5 76,-.5"/>
<text text-anchor="start" x="84" y="-320.5" font-family="Helvetica,sans-Serif" font-size="10.00" fill="#000000">GPUCA_NAMESPACE::gpu</text>
<text text-anchor="middle" x="155" y="-309.5" font-family="Helvetica,sans-Serif" font-size="10.00" fill="#000000">::FlatObject</text>
<polyline fill="none" stroke="#000000" points="76,-302.5 234,-302.5 "/>
<text text-anchor="middle" x="155" y="-290.5" font-family="Helvetica,sans-Serif" font-size="10.00" fill="#000000"> </text>
<polyline fill="none" stroke="#000000" points="76,-283.5 234,-283.5 "/>
<text text-anchor="start" x="84" y="-271.5" font-family="Helvetica,sans-Serif" font-size="10.00" fill="#000000">+ FlatObject()</text>
<text text-anchor="start" x="84" y="-260.5" font-family="Helvetica,sans-Serif" font-size="10.00" fill="#000000">+ ~FlatObject()</text>
<text text-anchor="start" x="84" y="-249.5" font-family="Helvetica,sans-Serif" font-size="10.00" fill="#000000">+ FlatObject()</text>
<text text-anchor="start" x="84" y="-238.5" font-family="Helvetica,sans-Serif" font-size="10.00" fill="#000000">+ operator=()</text>
<text text-anchor="start" x="84" y="-227.5" font-family="Helvetica,sans-Serif" font-size="10.00" fill="#000000">+ getFlatBufferSize()</text>
<text text-anchor="start" x="84" y="-216.5" font-family="Helvetica,sans-Serif" font-size="10.00" fill="#000000">+ getFlatBufferPtr()</text>
<text text-anchor="start" x="84" y="-205.5" font-family="Helvetica,sans-Serif" font-size="10.00" fill="#000000">+ isConstructed()</text>
<text text-anchor="start" x="84" y="-194.5" font-family="Helvetica,sans-Serif" font-size="10.00" fill="#000000">+ isBufferInternal()</text>
<text text-anchor="start" x="84" y="-183.5" font-family="Helvetica,sans-Serif" font-size="10.00" fill="#000000">+ adoptInternalBuffer()</text>
<text text-anchor="start" x="84" y="-172.5" font-family="Helvetica,sans-Serif" font-size="10.00" fill="#000000">+ clearInternalBufferPtr()</text>
<text text-anchor="start" x="84" y="-161.5" font-family="Helvetica,sans-Serif" font-size="10.00" fill="#000000">+ printC()</text>
<text text-anchor="start" x="84" y="-150.5" font-family="Helvetica,sans-Serif" font-size="10.00" fill="#000000">+ alignSize()</text>
<text text-anchor="start" x="84" y="-139.5" font-family="Helvetica,sans-Serif" font-size="10.00" fill="#000000">+ relocatePointer()</text>
<text text-anchor="start" x="84" y="-128.5" font-family="Helvetica,sans-Serif" font-size="10.00" fill="#000000">+ stressTest()</text>
<text text-anchor="start" x="84" y="-117.5" font-family="Helvetica,sans-Serif" font-size="10.00" fill="#000000"># startConstruction()</text>
<text text-anchor="start" x="84" y="-106.5" font-family="Helvetica,sans-Serif" font-size="10.00" fill="#000000"># finishConstruction()</text>
<text text-anchor="start" x="84" y="-95.5" font-family="Helvetica,sans-Serif" font-size="10.00" fill="#000000"># destroy()</text>
<text text-anchor="start" x="84" y="-84.5" font-family="Helvetica,sans-Serif" font-size="10.00" fill="#000000"># cloneFromObject()</text>
<text text-anchor="start" x="84" y="-73.5" font-family="Helvetica,sans-Serif" font-size="10.00" fill="#000000"># releaseInternalBuffer()</text>
<text text-anchor="start" x="84" y="-62.5" font-family="Helvetica,sans-Serif" font-size="10.00" fill="#000000"># moveBufferTo()</text>
<text text-anchor="start" x="84" y="-51.5" font-family="Helvetica,sans-Serif" font-size="10.00" fill="#000000"># setActualBufferAddress()</text>
<text text-anchor="start" x="84" y="-40.5" font-family="Helvetica,sans-Serif" font-size="10.00" fill="#000000"># setFutureBufferAddress()</text>
<text text-anchor="start" x="84" y="-29.5" font-family="Helvetica,sans-Serif" font-size="10.00" fill="#000000"># ClassDefNV()</text>
<text text-anchor="start" x="84" y="-18.5" font-family="Helvetica,sans-Serif" font-size="10.00" fill="#000000"># getClassAlignmentBytes()</text>
<text text-anchor="start" x="84" y="-7.5" font-family="Helvetica,sans-Serif" font-size="10.00" fill="#000000"># getBufferAlignmentBytes()</text>
</g>
<!-- Node9 -->
<g id="node2" class="node">
<title>Node9</title>
<polygon fill="none" stroke="#bfbfbf" points="0,-391.5 0,-448.5 38,-448.5 38,-391.5 0,-391.5"/>
<text text-anchor="middle" x="19" y="-436.5" font-family="Helvetica,sans-Serif" font-size="10.00" fill="#000000">char</text>
<polyline fill="none" stroke="#bfbfbf" points="0,-429.5 38,-429.5 "/>
<text text-anchor="middle" x="19" y="-417.5" font-family="Helvetica,sans-Serif" font-size="10.00" fill="#000000"> </text>
<polyline fill="none" stroke="#bfbfbf" points="0,-410.5 38,-410.5 "/>
<text text-anchor="middle" x="19" y="-398.5" font-family="Helvetica,sans-Serif" font-size="10.00" fill="#000000"> </text>
</g>
<!-- Node9&#45;&gt;Node8 -->
<g id="edge1" class="edge">
<title>Node9&#45;&gt;Node8</title>
<path fill="none" stroke="#404040" d="M24.8401,-391.4803C27.9461,-378.7859 32.3144,-363.8376 38,-351 46.9834,-330.7164 57.9692,-310.0705 69.5734,-290.2868"/>
<polygon fill="none" stroke="#404040" points="69.7346,-290.0164 69.373,-282.8144 75.882,-279.7106 76.2436,-286.9126 69.7346,-290.0164"/>
<text text-anchor="middle" x="94.5" y="-365" font-family="Helvetica,sans-Serif" font-size="10.00" fill="#000000"> #mFlatBufferPtr</text>
<text text-anchor="middle" x="94.5" y="-354" font-family="Helvetica,sans-Serif" font-size="10.00" fill="#000000">#mFlatBufferContainer</text>
</g>
<!-- Node10 -->
<g id="node3" class="node">
<title>Node10</title>
<polygon fill="none" stroke="#bfbfbf" points="140.5,-391.5 140.5,-448.5 169.5,-448.5 169.5,-391.5 140.5,-391.5"/>
<text text-anchor="middle" x="155" y="-436.5" font-family="Helvetica,sans-Serif" font-size="10.00" fill="#000000">int</text>
<polyline fill="none" stroke="#bfbfbf" points="140.5,-429.5 169.5,-429.5 "/>
<text text-anchor="middle" x="155" y="-417.5" font-family="Helvetica,sans-Serif" font-size="10.00" fill="#000000"> </text>
<polyline fill="none" stroke="#bfbfbf" points="140.5,-410.5 169.5,-410.5 "/>
<text text-anchor="middle" x="155" y="-398.5" font-family="Helvetica,sans-Serif" font-size="10.00" fill="#000000"> </text>
</g>
<!-- Node10&#45;&gt;Node8 -->
<g id="edge2" class="edge">
<title>Node10&#45;&gt;Node8</title>
<path fill="none" stroke="#404040" d="M155,-391.4131C155,-378.6747 155,-362.5279 155,-344.7529"/>
<polygon fill="none" stroke="#404040" points="155.0001,-344.5344 151,-338.5344 155,-332.5344 159,-338.5344 155.0001,-344.5344"/>
<text text-anchor="middle" x="199.5" y="-359.5" font-family="Helvetica,sans-Serif" font-size="10.00" fill="#000000"> #mFlatBufferSize</text>
</g>
<!-- Node11 -->
<g id="node4" class="node">
<title>Node11</title>
<polygon fill="none" stroke="#bfbfbf" points="236.5,-391.5 236.5,-448.5 297.5,-448.5 297.5,-391.5 236.5,-391.5"/>
<text text-anchor="middle" x="267" y="-436.5" font-family="Helvetica,sans-Serif" font-size="10.00" fill="#000000">unsigned</text>
<polyline fill="none" stroke="#bfbfbf" points="236.5,-429.5 297.5,-429.5 "/>
<text text-anchor="middle" x="267" y="-417.5" font-family="Helvetica,sans-Serif" font-size="10.00" fill="#000000"> </text>
<polyline fill="none" stroke="#bfbfbf" points="236.5,-410.5 297.5,-410.5 "/>
<text text-anchor="middle" x="267" y="-398.5" font-family="Helvetica,sans-Serif" font-size="10.00" fill="#000000"> </text>
</g>
<!-- Node11&#45;&gt;Node8 -->
<g id="edge3" class="edge">
<title>Node11&#45;&gt;Node8</title>
<path fill="none" stroke="#404040" d="M258.9218,-391.4722C255.1056,-378.912 250.2397,-364.071 245,-351 243.0068,-346.0276 240.9373,-341.0031 238.8075,-335.9497"/>
<polygon fill="none" stroke="#404040" points="238.7781,-335.881 232.7393,-331.9398 234.0546,-324.8497 240.0935,-328.7908 238.7781,-335.881"/>
<text text-anchor="middle" x="306.5" y="-359.5" font-family="Helvetica,sans-Serif" font-size="10.00" fill="#000000"> #mConstructionMask</text>
</g>
</g>
</svg>
