<?xml version="1.0" encoding="UTF-8" standalone="no"?>
<!DOCTYPE svg PUBLIC "-//W3C//DTD SVG 1.1//EN"
 "http://www.w3.org/Graphics/SVG/1.1/DTD/svg11.dtd">
<!-- Generated by graphviz version 2.40.1 (20161225.0304)
 -->
<!-- Title: /home/travis/build/AliceO2Group/AliceO2/Detectors/TPC/calibration/src/CalibPedestalParam.cxx Pages: 1 -->
<svg width="1927pt" height="385pt"
 viewBox="0.00 0.00 1927.00 385.00" xmlns="http://www.w3.org/2000/svg" xmlns:xlink="http://www.w3.org/1999/xlink">
<g id="graph0" class="graph" transform="scale(1 1) rotate(0) translate(4 381)">
<title>/home/travis/build/AliceO2Group/AliceO2/Detectors/TPC/calibration/src/CalibPedestalParam.cxx</title>
<!-- Node0 -->
<g id="node1" class="node">
<title>Node0</title>
<polygon fill="#bfbfbf" stroke="#000000" points="382,-324.5 382,-376.5 537,-376.5 537,-324.5 382,-324.5"/>
<text text-anchor="start" x="390" y="-364.5" font-family="Helvetica,sans-Serif" font-size="10.00" fill="#000000">/home/travis/build</text>
<text text-anchor="start" x="390" y="-353.5" font-family="Helvetica,sans-Serif" font-size="10.00" fill="#000000">/AliceO2Group/AliceO2</text>
<text text-anchor="start" x="390" y="-342.5" font-family="Helvetica,sans-Serif" font-size="10.00" fill="#000000">/Detectors/TPC/calibration</text>
<text text-anchor="middle" x="459.5" y="-331.5" font-family="Helvetica,sans-Serif" font-size="10.00" fill="#000000">/src/CalibPedestalParam.cxx</text>
</g>
<!-- Node1 -->
<g id="node2" class="node">
<title>Node1</title>
<g id="a_node2"><a xlink:href="../../d0/d41/CalibPedestalParam_8h.html" target="_top" xlink:title="Implementation of the parameter class for the pedestal calibration. ">
<polygon fill="none" stroke="#000000" points="380.5,-257.5 380.5,-287.5 538.5,-287.5 538.5,-257.5 380.5,-257.5"/>
<text text-anchor="start" x="388.5" y="-275.5" font-family="Helvetica,sans-Serif" font-size="10.00" fill="#000000">TPCCalibration/CalibPedestal</text>
<text text-anchor="middle" x="459.5" y="-264.5" font-family="Helvetica,sans-Serif" font-size="10.00" fill="#000000">Param.h</text>
</a>
</g>
</g>
<!-- Node0&#45;&gt;Node1 -->
<g id="edge1" class="edge">
<title>Node0&#45;&gt;Node1</title>
<path fill="none" stroke="#191970" d="M459.5,-324.0928C459.5,-315.516 459.5,-306.0289 459.5,-297.5538"/>
<polygon fill="#191970" stroke="#191970" points="463.0001,-297.5045 459.5,-287.5046 456.0001,-297.5046 463.0001,-297.5045"/>
</g>
<!-- Node2 -->
<g id="node3" class="node">
<title>Node2</title>
<g id="a_node3"><a xlink:href="../../db/d2c/ConfigurableParam_8h.html" target="_top" xlink:title="SimConfig/ConfigurableParam.h">
<polygon fill="none" stroke="#000000" points="204.5,-134.5 204.5,-153.5 374.5,-153.5 374.5,-134.5 204.5,-134.5"/>
<text text-anchor="middle" x="289.5" y="-141.5" font-family="Helvetica,sans-Serif" font-size="10.00" fill="#000000">SimConfig/ConfigurableParam.h</text>
</a>
</g>
</g>
<!-- Node1&#45;&gt;Node2 -->
<g id="edge2" class="edge">
<title>Node1&#45;&gt;Node2</title>
<path fill="none" stroke="#191970" d="M428.7492,-257.3328C410.7928,-247.893 388.0851,-234.9248 369.5,-221 345.3274,-202.8888 320.7756,-178.1023 305.3642,-161.5967"/>
<polygon fill="#191970" stroke="#191970" points="307.5357,-158.7877 298.1886,-153.7993 302.3848,-163.5278 307.5357,-158.7877"/>
</g>
<!-- Node9 -->
<g id="node10" class="node">
<title>Node9</title>
<g id="a_node10"><a xlink:href="../../da/d6b/ConfigurableParamHelper_8h.html" target="_top" xlink:title="SimConfig/ConfigurableParam\lHelper.h">
<polygon fill="none" stroke="#000000" points="379,-190.5 379,-220.5 540,-220.5 540,-190.5 379,-190.5"/>
<text text-anchor="start" x="387" y="-208.5" font-family="Helvetica,sans-Serif" font-size="10.00" fill="#000000">SimConfig/ConfigurableParam</text>
<text text-anchor="middle" x="459.5" y="-197.5" font-family="Helvetica,sans-Serif" font-size="10.00" fill="#000000">Helper.h</text>
</a>
</g>
</g>
<!-- Node1&#45;&gt;Node9 -->
<g id="edge9" class="edge">
<title>Node1&#45;&gt;Node9</title>
<path fill="none" stroke="#191970" d="M459.5,-257.2967C459.5,-249.5013 459.5,-239.7991 459.5,-230.9064"/>
<polygon fill="#191970" stroke="#191970" points="463.0001,-230.6431 459.5,-220.6432 456.0001,-230.6432 463.0001,-230.6431"/>
</g>
<!-- Node13 -->
<g id="node14" class="node">
<title>Node13</title>
<g id="a_node14"><a xlink:href="../../d1/d73/Defs_8h.html" target="_top" xlink:title="Common definitions for 2D coordinates. ">
<polygon fill="none" stroke="#000000" points="643,-196 643,-215 776,-215 776,-196 643,-196"/>
<text text-anchor="middle" x="709.5" y="-203" font-family="Helvetica,sans-Serif" font-size="10.00" fill="#000000">DataFormatsTPC/Defs.h</text>
</a>
</g>
</g>
<!-- Node1&#45;&gt;Node13 -->
<g id="edge15" class="edge">
<title>Node1&#45;&gt;Node13</title>
<path fill="none" stroke="#191970" d="M515.6049,-257.4639C560.4244,-245.4522 622.4292,-228.835 664.1478,-217.6544"/>
<polygon fill="#191970" stroke="#191970" points="665.2794,-220.9747 674.0325,-215.0053 663.4673,-214.2133 665.2794,-220.9747"/>
</g>
<!-- Node3 -->
<g id="node4" class="node">
<title>Node3</title>
<polygon fill="none" stroke="#bfbfbf" points="0,-73 0,-92 47,-92 47,-73 0,-73"/>
<text text-anchor="middle" x="23.5" y="-80" font-family="Helvetica,sans-Serif" font-size="10.00" fill="#000000">vector</text>
</g>
<!-- Node2&#45;&gt;Node3 -->
<g id="edge3" class="edge">
<title>Node2&#45;&gt;Node3</title>
<path fill="none" stroke="#191970" d="M217.7348,-134.4737C171.0634,-127.1515 109.2918,-115.32 56.5,-98 54.6506,-97.3933 52.7694,-96.7086 50.8907,-95.9736"/>
<polygon fill="#191970" stroke="#191970" points="52.2456,-92.7464 41.6767,-92.0055 49.4767,-99.1755 52.2456,-92.7464"/>
</g>
<!-- Node4 -->
<g id="node5" class="node">
<title>Node4</title>
<polygon fill="none" stroke="#bfbfbf" points="65.5,-73 65.5,-92 103.5,-92 103.5,-73 65.5,-73"/>
<text text-anchor="middle" x="84.5" y="-80" font-family="Helvetica,sans-Serif" font-size="10.00" fill="#000000">map</text>
</g>
<!-- Node2&#45;&gt;Node4 -->
<g id="edge4" class="edge">
<title>Node2&#45;&gt;Node4</title>
<path fill="none" stroke="#191970" d="M239.2213,-134.4607C203.1967,-126.7833 153.9278,-114.543 112.5,-98 111.468,-97.5879 110.4263,-97.1456 109.3828,-96.6803"/>
<polygon fill="#191970" stroke="#191970" points="110.6623,-93.407 100.1524,-92.0676 107.5331,-99.6687 110.6623,-93.407"/>
</g>
<!-- Node5 -->
<g id="node6" class="node">
<title>Node5</title>
<polygon fill="none" stroke="#bfbfbf" points="122,-73 122,-92 215,-92 215,-73 122,-73"/>
<text text-anchor="middle" x="168.5" y="-80" font-family="Helvetica,sans-Serif" font-size="10.00" fill="#000000">unordered_map</text>
</g>
<!-- Node2&#45;&gt;Node5 -->
<g id="edge5" class="edge">
<title>Node2&#45;&gt;Node5</title>
<path fill="none" stroke="#191970" d="M270.5938,-134.3906C250.7034,-124.2811 219.1877,-108.2628 196.4308,-96.6962"/>
<polygon fill="#191970" stroke="#191970" points="197.774,-93.4528 187.2735,-92.0419 194.6022,-99.693 197.774,-93.4528"/>
</g>
<!-- Node6 -->
<g id="node7" class="node">
<title>Node6</title>
<polygon fill="none" stroke="#bfbfbf" points="233,-67.5 233,-97.5 346,-97.5 346,-67.5 233,-67.5"/>
<text text-anchor="start" x="241" y="-85.5" font-family="Helvetica,sans-Serif" font-size="10.00" fill="#000000">boost/property_tree</text>
<text text-anchor="middle" x="289.5" y="-74.5" font-family="Helvetica,sans-Serif" font-size="10.00" fill="#000000">/ptree.hpp</text>
</g>
<!-- Node2&#45;&gt;Node6 -->
<g id="edge6" class="edge">
<title>Node2&#45;&gt;Node6</title>
<path fill="none" stroke="#191970" d="M289.5,-134.3906C289.5,-127.2234 289.5,-117.0862 289.5,-107.671"/>
<polygon fill="#191970" stroke="#191970" points="293.0001,-107.5446 289.5,-97.5446 286.0001,-107.5446 293.0001,-107.5446"/>
</g>
<!-- Node7 -->
<g id="node8" class="node">
<title>Node7</title>
<polygon fill="none" stroke="#bfbfbf" points="443,-73 443,-92 500,-92 500,-73 443,-73"/>
<text text-anchor="middle" x="471.5" y="-80" font-family="Helvetica,sans-Serif" font-size="10.00" fill="#000000">typeinfo</text>
</g>
<!-- Node2&#45;&gt;Node7 -->
<g id="edge7" class="edge">
<title>Node2&#45;&gt;Node7</title>
<path fill="none" stroke="#191970" d="M321.7709,-134.4801C351.1159,-125.637 395.5095,-111.7922 433.5,-98 435.3585,-97.3253 437.2606,-96.6147 439.1749,-95.884"/>
<polygon fill="#191970" stroke="#191970" points="440.68,-99.0531 448.7046,-92.1352 438.1174,-92.539 440.68,-99.0531"/>
</g>
<!-- Node8 -->
<g id="node9" class="node">
<title>Node8</title>
<polygon fill="none" stroke="#bfbfbf" points="364.5,-73 364.5,-92 424.5,-92 424.5,-73 364.5,-73"/>
<text text-anchor="middle" x="394.5" y="-80" font-family="Helvetica,sans-Serif" font-size="10.00" fill="#000000">iostream</text>
</g>
<!-- Node2&#45;&gt;Node8 -->
<g id="edge8" class="edge">
<title>Node2&#45;&gt;Node8</title>
<path fill="none" stroke="#191970" d="M305.9063,-134.3906C322.9353,-124.4165 349.7841,-108.6908 369.4651,-97.1633"/>
<polygon fill="#191970" stroke="#191970" points="371.349,-100.1161 378.209,-92.0419 367.8112,-94.0759 371.349,-100.1161"/>
</g>
<!-- Node9&#45;&gt;Node2 -->
<g id="edge10" class="edge">
<title>Node9&#45;&gt;Node2</title>
<path fill="none" stroke="#191970" d="M417.9133,-190.4554C389.5484,-180.194 352.3667,-166.7429 325.3164,-156.9571"/>
<polygon fill="#191970" stroke="#191970" points="326.4382,-153.641 315.844,-153.5303 324.0569,-160.2235 326.4382,-153.641"/>
</g>
<!-- Node9&#45;&gt;Node7 -->
<g id="edge13" class="edge">
<title>Node9&#45;&gt;Node7</title>
<path fill="none" stroke="#191970" d="M442.5984,-190.3225C428.9686,-176.1437 413.3107,-154.1915 421.5,-134 427.2477,-119.8284 438.9747,-107.4093 449.6275,-98.3189"/>
<polygon fill="#191970" stroke="#191970" points="451.8396,-101.0314 457.4476,-92.0425 447.458,-95.5723 451.8396,-101.0314"/>
</g>
<!-- Node10 -->
<g id="node11" class="node">
<title>Node10</title>
<polygon fill="none" stroke="#bfbfbf" points="431,-134.5 431,-153.5 488,-153.5 488,-134.5 431,-134.5"/>
<text text-anchor="middle" x="459.5" y="-141.5" font-family="Helvetica,sans-Serif" font-size="10.00" fill="#000000">TClass.h</text>
</g>
<!-- Node9&#45;&gt;Node10 -->
<g id="edge11" class="edge">
<title>Node9&#45;&gt;Node10</title>
<path fill="none" stroke="#191970" d="M459.5,-190.2977C459.5,-182.3834 459.5,-172.6043 459.5,-164.0759"/>
<polygon fill="#191970" stroke="#191970" points="463.0001,-163.8469 459.5,-153.8469 456.0001,-163.847 463.0001,-163.8469"/>
</g>
<!-- Node11 -->
<g id="node12" class="node">
<title>Node11</title>
<polygon fill="none" stroke="#bfbfbf" points="506,-134.5 506,-153.5 575,-153.5 575,-134.5 506,-134.5"/>
<text text-anchor="middle" x="540.5" y="-141.5" font-family="Helvetica,sans-Serif" font-size="10.00" fill="#000000">type_traits</text>
</g>
<!-- Node9&#45;&gt;Node11 -->
<g id="edge12" class="edge">
<title>Node9&#45;&gt;Node11</title>
<path fill="none" stroke="#191970" d="M479.5225,-190.2977C491.586,-181.1384 506.9388,-169.4816 519.2211,-160.1562"/>
<polygon fill="#191970" stroke="#191970" points="521.6829,-162.6816 527.5309,-153.8469 517.4499,-157.1065 521.6829,-162.6816"/>
</g>
<!-- Node12 -->
<g id="node13" class="node">
<title>Node12</title>
<polygon fill="none" stroke="#bfbfbf" points="593.5,-134.5 593.5,-153.5 641.5,-153.5 641.5,-134.5 593.5,-134.5"/>
<text text-anchor="middle" x="617.5" y="-141.5" font-family="Helvetica,sans-Serif" font-size="10.00" fill="#000000">TFile.h</text>
</g>
<!-- Node9&#45;&gt;Node12 -->
<g id="edge14" class="edge">
<title>Node9&#45;&gt;Node12</title>
<path fill="none" stroke="#191970" d="M498.1511,-190.4554C524.4439,-180.2212 558.8877,-166.8143 584.0115,-157.0351"/>
<polygon fill="#191970" stroke="#191970" points="585.4337,-160.2374 593.4831,-153.3484 582.8945,-153.7141 585.4337,-160.2374"/>
</g>
<!-- Node14 -->
<g id="node15" class="node">
<title>Node14</title>
<polygon fill="none" stroke="#bfbfbf" points="660,-134.5 660,-153.5 707,-153.5 707,-134.5 660,-134.5"/>
<text text-anchor="middle" x="683.5" y="-141.5" font-family="Helvetica,sans-Serif" font-size="10.00" fill="#000000">cmath</text>
</g>
<!-- Node13&#45;&gt;Node14 -->
<g id="edge16" class="edge">
<title>Node13&#45;&gt;Node14</title>
<path fill="none" stroke="#191970" d="M705.4375,-195.8906C701.7576,-187.1862 696.2258,-174.1015 691.638,-163.2494"/>
<polygon fill="#191970" stroke="#191970" points="694.7375,-161.5927 687.6198,-153.7449 688.29,-164.3185 694.7375,-161.5927"/>
</g>
<!-- Node15 -->
<g id="node16" class="node">
<title>Node15</title>
<g id="a_node16"><a xlink:href="../../d2/dd0/Cartesian2D_8h.html" target="_top" xlink:title="MathUtils/Cartesian2D.h">
<polygon fill="none" stroke="#000000" points="593,-73 593,-92 728,-92 728,-73 593,-73"/>
<text text-anchor="middle" x="660.5" y="-80" font-family="Helvetica,sans-Serif" font-size="10.00" fill="#000000">MathUtils/Cartesian2D.h</text>
</a>
</g>
</g>
<!-- Node13&#45;&gt;Node15 -->
<g id="edge17" class="edge">
<title>Node13&#45;&gt;Node15</title>
<path fill="none" stroke="#191970" d="M713.1309,-195.7759C717.8298,-181.563 724.4197,-154.5718 715.5,-134 709.1351,-119.3206 696.2971,-106.9121 684.6244,-97.9554"/>
<polygon fill="#191970" stroke="#191970" points="686.5999,-95.065 676.44,-92.0606 682.5088,-100.7451 686.5999,-95.065"/>
</g>
<!-- Node18 -->
<g id="node19" class="node">
<title>Node18</title>
<g id="a_node19"><a xlink:href="../../dd/d76/Cartesian3D_8h.html" target="_top" xlink:title="MathUtils/Cartesian3D.h">
<polygon fill="none" stroke="#000000" points="1240,-134.5 1240,-153.5 1375,-153.5 1375,-134.5 1240,-134.5"/>
<text text-anchor="middle" x="1307.5" y="-141.5" font-family="Helvetica,sans-Serif" font-size="10.00" fill="#000000">MathUtils/Cartesian3D.h</text>
</a>
</g>
</g>
<!-- Node13&#45;&gt;Node18 -->
<g id="edge20" class="edge">
<title>Node13&#45;&gt;Node18</title>
<path fill="none" stroke="#191970" d="M776.0692,-198.6538C887.4436,-187.1998 1110.9789,-164.2108 1229.5294,-152.0187"/>
<polygon fill="#191970" stroke="#191970" points="1230.0327,-155.4855 1239.6222,-150.9807 1229.3165,-148.5222 1230.0327,-155.4855"/>
</g>
<!-- Node16 -->
<g id="node17" class="node">
<title>Node16</title>
<polygon fill="none" stroke="#bfbfbf" points="481.5,-.5 481.5,-30.5 645.5,-30.5 645.5,-.5 481.5,-.5"/>
<text text-anchor="start" x="489.5" y="-18.5" font-family="Helvetica,sans-Serif" font-size="10.00" fill="#000000">Math/GenVector/Displacement</text>
<text text-anchor="middle" x="563.5" y="-7.5" font-family="Helvetica,sans-Serif" font-size="10.00" fill="#000000">Vector2D.h</text>
</g>
<!-- Node15&#45;&gt;Node16 -->
<g id="edge18" class="edge">
<title>Node15&#45;&gt;Node16</title>
<path fill="none" stroke="#191970" d="M646.6023,-72.9005C632.8265,-63.3853 611.2795,-48.5023 593.5779,-36.2755"/>
<polygon fill="#191970" stroke="#191970" points="595.4651,-33.3253 585.2479,-30.5218 591.4868,-39.0849 595.4651,-33.3253"/>
</g>
<!-- Node17 -->
<g id="node18" class="node">
<title>Node17</title>
<polygon fill="none" stroke="#bfbfbf" points="664,-6 664,-25 853,-25 853,-6 664,-6"/>
<text text-anchor="middle" x="758.5" y="-13" font-family="Helvetica,sans-Serif" font-size="10.00" fill="#000000">Math/GenVector/PositionVector2D.h</text>
</g>
<!-- Node15&#45;&gt;Node17 -->
<g id="edge19" class="edge">
<title>Node15&#45;&gt;Node17</title>
<path fill="none" stroke="#191970" d="M674.541,-72.9005C690.6238,-61.9052 717.1906,-43.7422 736.1316,-30.7927"/>
<polygon fill="#191970" stroke="#191970" points="738.2052,-33.6148 744.485,-25.0817 734.2545,-27.8362 738.2052,-33.6148"/>
</g>
<!-- Node18&#45;&gt;Node15 -->
<g id="edge29" class="edge">
<title>Node18&#45;&gt;Node15</title>
<path fill="none" stroke="#191970" d="M1239.6532,-141.1203C1132.5484,-135.9914 917.907,-123.3471 737.5,-98 729.5318,-96.8805 721.146,-95.4535 712.9583,-93.9204"/>
<polygon fill="#191970" stroke="#191970" points="713.5943,-90.4786 703.1109,-92.0111 712.2619,-97.3506 713.5943,-90.4786"/>
</g>
<!-- Node19 -->
<g id="node20" class="node">
<title>Node19</title>
<polygon fill="none" stroke="#bfbfbf" points="746.5,-67.5 746.5,-97.5 910.5,-97.5 910.5,-67.5 746.5,-67.5"/>
<text text-anchor="start" x="754.5" y="-85.5" font-family="Helvetica,sans-Serif" font-size="10.00" fill="#000000">Math/GenVector/Displacement</text>
<text text-anchor="middle" x="828.5" y="-74.5" font-family="Helvetica,sans-Serif" font-size="10.00" fill="#000000">Vector3D.h</text>
</g>
<!-- Node18&#45;&gt;Node19 -->
<g id="edge21" class="edge">
<title>Node18&#45;&gt;Node19</title>
<path fill="none" stroke="#191970" d="M1239.7256,-137.0177C1164.3003,-129.0097 1038.5605,-114.955 920.728,-98.1371"/>
<polygon fill="#191970" stroke="#191970" points="921.2065,-94.67 910.8104,-96.7122 920.211,-101.5988 921.2065,-94.67"/>
</g>
<!-- Node20 -->
<g id="node21" class="node">
<title>Node20</title>
<polygon fill="none" stroke="#bfbfbf" points="929,-73 929,-92 1118,-92 1118,-73 929,-73"/>
<text text-anchor="middle" x="1023.5" y="-80" font-family="Helvetica,sans-Serif" font-size="10.00" fill="#000000">Math/GenVector/PositionVector3D.h</text>
</g>
<!-- Node18&#45;&gt;Node20 -->
<g id="edge22" class="edge">
<title>Node18&#45;&gt;Node20</title>
<path fill="none" stroke="#191970" d="M1263.4366,-134.4581C1213.3787,-123.6181 1131.6618,-105.9224 1077.7318,-94.2439"/>
<polygon fill="#191970" stroke="#191970" points="1078.181,-90.7601 1067.6668,-92.0643 1076.6995,-97.6015 1078.181,-90.7601"/>
</g>
<!-- Node21 -->
<g id="node22" class="node">
<title>Node21</title>
<polygon fill="none" stroke="#bfbfbf" points="1136.5,-73 1136.5,-92 1296.5,-92 1296.5,-73 1136.5,-73"/>
<text text-anchor="middle" x="1216.5" y="-80" font-family="Helvetica,sans-Serif" font-size="10.00" fill="#000000">Math/GenVector/Rotation3D.h</text>
</g>
<!-- Node18&#45;&gt;Node21 -->
<g id="edge23" class="edge">
<title>Node18&#45;&gt;Node21</title>
<path fill="none" stroke="#191970" d="M1293.2813,-134.3906C1278.8566,-124.6421 1256.3024,-109.3994 1239.364,-97.9521"/>
<polygon fill="#191970" stroke="#191970" points="1240.8641,-94.7415 1230.6189,-92.0419 1236.9444,-100.5412 1240.8641,-94.7415"/>
</g>
<!-- Node22 -->
<g id="node23" class="node">
<title>Node22</title>
<polygon fill="none" stroke="#bfbfbf" points="1314.5,-73 1314.5,-92 1482.5,-92 1482.5,-73 1314.5,-73"/>
<text text-anchor="middle" x="1398.5" y="-80" font-family="Helvetica,sans-Serif" font-size="10.00" fill="#000000">Math/GenVector/Transform3D.h</text>
</g>
<!-- Node18&#45;&gt;Node22 -->
<g id="edge24" class="edge">
<title>Node18&#45;&gt;Node22</title>
<path fill="none" stroke="#191970" d="M1321.7188,-134.3906C1336.1434,-124.6421 1358.6976,-109.3994 1375.636,-97.9521"/>
<polygon fill="#191970" stroke="#191970" points="1378.0556,-100.5412 1384.3811,-92.0419 1374.1359,-94.7415 1378.0556,-100.5412"/>
</g>
<!-- Node23 -->
<g id="node24" class="node">
<title>Node23</title>
<polygon fill="none" stroke="#bfbfbf" points="1501,-73 1501,-92 1674,-92 1674,-73 1501,-73"/>
<text text-anchor="middle" x="1587.5" y="-80" font-family="Helvetica,sans-Serif" font-size="10.00" fill="#000000">Math/GenVector/Translation3D.h</text>
</g>
<!-- Node18&#45;&gt;Node23 -->
<g id="edge25" class="edge">
<title>Node18&#45;&gt;Node23</title>
<path fill="none" stroke="#191970" d="M1350.9428,-134.4581C1400.2956,-123.6181 1480.8616,-105.9224 1534.032,-94.2439"/>
<polygon fill="#191970" stroke="#191970" points="1534.939,-97.6282 1543.9553,-92.0643 1533.4372,-90.7911 1534.939,-97.6282"/>
</g>
<!-- Node24 -->
<g id="node25" class="node">
<title>Node24</title>
<polygon fill="none" stroke="#bfbfbf" points="1692,-73 1692,-92 1751,-92 1751,-73 1692,-73"/>
<text text-anchor="middle" x="1721.5" y="-80" font-family="Helvetica,sans-Serif" font-size="10.00" fill="#000000">Rtypes.h</text>
</g>
<!-- Node18&#45;&gt;Node24 -->
<g id="edge26" class="edge">
<title>Node18&#45;&gt;Node24</title>
<path fill="none" stroke="#191970" d="M1375.0661,-141.1328C1451.1161,-136.6678 1577.8478,-125.4861 1683.5,-98 1686.1246,-97.3172 1688.8087,-96.4948 1691.4767,-95.5894"/>
<polygon fill="#191970" stroke="#191970" points="1692.7957,-98.8329 1700.933,-92.048 1690.3406,-92.2775 1692.7957,-98.8329"/>
</g>
<!-- Node25 -->
<g id="node26" class="node">
<title>Node25</title>
<polygon fill="none" stroke="#bfbfbf" points="1769.5,-73 1769.5,-92 1851.5,-92 1851.5,-73 1769.5,-73"/>
<text text-anchor="middle" x="1810.5" y="-80" font-family="Helvetica,sans-Serif" font-size="10.00" fill="#000000">TGeoMatrix.h</text>
</g>
<!-- Node18&#45;&gt;Node25 -->
<g id="edge27" class="edge">
<title>Node18&#45;&gt;Node25</title>
<path fill="none" stroke="#191970" d="M1375.289,-141.3325C1464.419,-136.8674 1625.5254,-125.4875 1760.5,-98 1764.7078,-97.1431 1769.0656,-96.0745 1773.3747,-94.9015"/>
<polygon fill="#191970" stroke="#191970" points="1774.6254,-98.1827 1783.2475,-92.0256 1772.6677,-91.462 1774.6254,-98.1827"/>
</g>
<!-- Node26 -->
<g id="node27" class="node">
<title>Node26</title>
<polygon fill="none" stroke="#bfbfbf" points="1870,-73 1870,-92 1919,-92 1919,-73 1870,-73"/>
<text text-anchor="middle" x="1894.5" y="-80" font-family="Helvetica,sans-Serif" font-size="10.00" fill="#000000">iosfwd</text>
</g>
<!-- Node18&#45;&gt;Node26 -->
<g id="edge28" class="edge">
<title>Node18&#45;&gt;Node26</title>
<path fill="none" stroke="#191970" d="M1375.1458,-141.2801C1501.9156,-135.7033 1770.5481,-121.4831 1860.5,-98 1862.693,-97.4275 1864.9206,-96.7226 1867.1327,-95.932"/>
<polygon fill="#191970" stroke="#191970" points="1868.6482,-99.0935 1876.5744,-92.0632 1865.994,-92.6162 1868.6482,-99.0935"/>
</g>
</g>
</svg>
