<?xml version="1.0" encoding="UTF-8" standalone="no"?>
<!DOCTYPE svg PUBLIC "-//W3C//DTD SVG 1.1//EN"
 "http://www.w3.org/Graphics/SVG/1.1/DTD/svg11.dtd">
<!-- Generated by graphviz version 2.40.1 (20161225.0304)
 -->
<!-- Title: /home/travis/build/AliceO2Group/AliceO2/CCDB/test/testCcdbApi.cxx Pages: 1 -->
<svg width="2125pt" height="162pt"
 viewBox="0.00 0.00 2124.50 162.00" xmlns="http://www.w3.org/2000/svg" xmlns:xlink="http://www.w3.org/1999/xlink">
<g id="graph0" class="graph" transform="scale(1 1) rotate(0) translate(4 158)">
<title>/home/travis/build/AliceO2Group/AliceO2/CCDB/test/testCcdbApi.cxx</title>
<!-- Node0 -->
<g id="node1" class="node">
<title>Node0</title>
<polygon fill="#bfbfbf" stroke="#000000" points="1108,-112.5 1108,-153.5 1259,-153.5 1259,-112.5 1108,-112.5"/>
<text text-anchor="start" x="1116" y="-141.5" font-family="Helvetica,sans-Serif" font-size="10.00" fill="#000000">/home/travis/build</text>
<text text-anchor="start" x="1116" y="-130.5" font-family="Helvetica,sans-Serif" font-size="10.00" fill="#000000">/AliceO2Group/AliceO2</text>
<text text-anchor="middle" x="1183.5" y="-119.5" font-family="Helvetica,sans-Serif" font-size="10.00" fill="#000000">/CCDB/test/testCcdbApi.cxx</text>
</g>
<!-- Node1 -->
<g id="node2" class="node">
<title>Node1</title>
<g id="a_node2"><a xlink:href="../../dd/d3e/CcdbApi_8h.html" target="_top" xlink:title="CCDB/CcdbApi.h">
<polygon fill="none" stroke="#000000" points="246.5,-56.5 246.5,-75.5 342.5,-75.5 342.5,-56.5 246.5,-56.5"/>
<text text-anchor="middle" x="294.5" y="-63.5" font-family="Helvetica,sans-Serif" font-size="10.00" fill="#000000">CCDB/CcdbApi.h</text>
</a>
</g>
</g>
<!-- Node0&#45;&gt;Node1 -->
<g id="edge1" class="edge">
<title>Node0&#45;&gt;Node1</title>
<path fill="none" stroke="#191970" d="M1107.7488,-130.0899C961.9354,-123.9769 632.2667,-107.676 356.5,-76 355.2205,-75.853 353.9271,-75.6983 352.6237,-75.5369"/>
<polygon fill="#191970" stroke="#191970" points="352.8793,-72.0401 342.504,-74.1853 351.9526,-78.9785 352.8793,-72.0401"/>
</g>
<!-- Node5 -->
<g id="node6" class="node">
<title>Node5</title>
<polygon fill="none" stroke="#bfbfbf" points="272,-.5 272,-19.5 337,-19.5 337,-.5 272,-.5"/>
<text text-anchor="middle" x="304.5" y="-7.5" font-family="Helvetica,sans-Serif" font-size="10.00" fill="#000000">curl/curl.h</text>
</g>
<!-- Node0&#45;&gt;Node5 -->
<g id="edge22" class="edge">
<title>Node0&#45;&gt;Node5</title>
<path fill="none" stroke="#191970" d="M1107.9017,-132.2071C938.8564,-129.6688 535.0514,-119.1386 406.5,-76 374.2755,-65.1863 342.202,-41.8331 322.8591,-26.0129"/>
<polygon fill="#191970" stroke="#191970" points="325.0609,-23.2916 315.1489,-19.5495 320.5639,-28.656 325.0609,-23.2916"/>
</g>
<!-- Node7 -->
<g id="node8" class="node">
<title>Node7</title>
<polygon fill="none" stroke="#bfbfbf" points="355.5,-.5 355.5,-19.5 429.5,-19.5 429.5,-.5 355.5,-.5"/>
<text text-anchor="middle" x="392.5" y="-7.5" font-family="Helvetica,sans-Serif" font-size="10.00" fill="#000000">TMessage.h</text>
</g>
<!-- Node0&#45;&gt;Node7 -->
<g id="edge28" class="edge">
<title>Node0&#45;&gt;Node7</title>
<path fill="none" stroke="#191970" d="M1107.8942,-131.4081C927.6562,-127.0345 483.5059,-112.6315 427.5,-76 411.4289,-65.4885 402.24,-45.0583 397.3483,-29.699"/>
<polygon fill="#191970" stroke="#191970" points="400.5907,-28.301 394.5089,-19.6256 393.8533,-30.2001 400.5907,-28.301"/>
</g>
<!-- Node8 -->
<g id="node9" class="node">
<title>Node8</title>
<g id="a_node9"><a xlink:href="../../d4/dd1/IdPath_8h.html" target="_top" xlink:title="CCDB/IdPath.h">
<polygon fill="none" stroke="#000000" points="436.5,-56.5 436.5,-75.5 522.5,-75.5 522.5,-56.5 436.5,-56.5"/>
<text text-anchor="middle" x="479.5" y="-63.5" font-family="Helvetica,sans-Serif" font-size="10.00" fill="#000000">CCDB/IdPath.h</text>
</a>
</g>
</g>
<!-- Node0&#45;&gt;Node8 -->
<g id="edge8" class="edge">
<title>Node0&#45;&gt;Node8</title>
<path fill="none" stroke="#191970" d="M1107.5677,-128.4302C986.4528,-120.6649 742.2095,-103.0554 536.5,-76 535.2393,-75.8342 533.9639,-75.6603 532.6784,-75.4796"/>
<polygon fill="#191970" stroke="#191970" points="533.1091,-72.0051 522.7,-73.9801 532.0688,-78.9274 533.1091,-72.0051"/>
</g>
<!-- Node9 -->
<g id="node10" class="node">
<title>Node9</title>
<polygon fill="none" stroke="#bfbfbf" points="606.5,-.5 606.5,-19.5 666.5,-19.5 666.5,-.5 606.5,-.5"/>
<text text-anchor="middle" x="636.5" y="-7.5" font-family="Helvetica,sans-Serif" font-size="10.00" fill="#000000">TString.h</text>
</g>
<!-- Node0&#45;&gt;Node9 -->
<g id="edge32" class="edge">
<title>Node0&#45;&gt;Node9</title>
<path fill="none" stroke="#191970" d="M1107.9632,-131.5486C952.0339,-127.7686 606.0694,-115.0303 570.5,-76 553.6593,-57.5207 581.0918,-37.3424 605.5484,-24.2254"/>
<polygon fill="#191970" stroke="#191970" points="607.3642,-27.2281 614.6775,-19.5622 604.1799,-20.9943 607.3642,-27.2281"/>
</g>
<!-- Node11 -->
<g id="node12" class="node">
<title>Node11</title>
<g id="a_node12"><a xlink:href="../../da/de8/RootChain_8h.html" target="_top" xlink:title="CommonUtils/RootChain.h">
<polygon fill="none" stroke="#000000" points="55,-56.5 55,-75.5 200,-75.5 200,-56.5 55,-56.5"/>
<text text-anchor="middle" x="127.5" y="-63.5" font-family="Helvetica,sans-Serif" font-size="10.00" fill="#000000">CommonUtils/RootChain.h</text>
</a>
</g>
</g>
<!-- Node0&#45;&gt;Node11 -->
<g id="edge12" class="edge">
<title>Node0&#45;&gt;Node11</title>
<path fill="none" stroke="#191970" d="M1107.7267,-129.2201C947.1704,-121.0378 560.9156,-100.4385 237.5,-76 228.7474,-75.3386 219.6081,-74.5941 210.5001,-73.8172"/>
<polygon fill="#191970" stroke="#191970" points="210.5174,-70.3057 200.2526,-72.9291 209.913,-77.2795 210.5174,-70.3057"/>
</g>
<!-- Node13 -->
<g id="node14" class="node">
<title>Node13</title>
<g id="a_node14"><a xlink:href="../../da/d86/CCDBTimeStampUtils_8h.html" target="_top" xlink:title="CCDB/CCDBTimeStampUtils.h">
<polygon fill="none" stroke="#000000" points="579,-56.5 579,-75.5 742,-75.5 742,-56.5 579,-56.5"/>
<text text-anchor="middle" x="660.5" y="-63.5" font-family="Helvetica,sans-Serif" font-size="10.00" fill="#000000">CCDB/CCDBTimeStampUtils.h</text>
</a>
</g>
</g>
<!-- Node0&#45;&gt;Node13 -->
<g id="edge16" class="edge">
<title>Node0&#45;&gt;Node13</title>
<path fill="none" stroke="#191970" d="M1107.7308,-123.2934C1011.3904,-110.9515 845.5376,-89.7046 745.1406,-76.8431"/>
<polygon fill="#191970" stroke="#191970" points="745.3975,-73.3474 735.0338,-75.5483 744.5079,-80.2907 745.3975,-73.3474"/>
</g>
<!-- Node14 -->
<g id="node15" class="node">
<title>Node14</title>
<polygon fill="none" stroke="#bfbfbf" points="760.5,-56.5 760.5,-75.5 892.5,-75.5 892.5,-56.5 760.5,-56.5"/>
<text text-anchor="middle" x="826.5" y="-63.5" font-family="Helvetica,sans-Serif" font-size="10.00" fill="#000000">boost/test/unit_test.hpp</text>
</g>
<!-- Node0&#45;&gt;Node14 -->
<g id="edge17" class="edge">
<title>Node0&#45;&gt;Node14</title>
<path fill="none" stroke="#191970" d="M1107.7895,-118.791C1042.0633,-106.4559 948.1319,-88.8273 887.2303,-77.3976"/>
<polygon fill="#191970" stroke="#191970" points="887.8508,-73.953 877.3768,-75.5483 886.5596,-80.8329 887.8508,-73.953"/>
</g>
<!-- Node15 -->
<g id="node16" class="node">
<title>Node15</title>
<polygon fill="none" stroke="#bfbfbf" points="911,-56.5 911,-75.5 1030,-75.5 1030,-56.5 911,-56.5"/>
<text text-anchor="middle" x="970.5" y="-63.5" font-family="Helvetica,sans-Serif" font-size="10.00" fill="#000000">boost/filesystem.hpp</text>
</g>
<!-- Node0&#45;&gt;Node15 -->
<g id="edge18" class="edge">
<title>Node0&#45;&gt;Node15</title>
<path fill="none" stroke="#191970" d="M1118.1454,-112.4425C1082.9872,-101.3833 1040.7594,-88.1004 1010.4872,-78.5781"/>
<polygon fill="#191970" stroke="#191970" points="1011.2963,-75.1636 1000.7068,-75.5017 1009.1958,-81.8411 1011.2963,-75.1636"/>
</g>
<!-- Node16 -->
<g id="node17" class="node">
<title>Node16</title>
<polygon fill="none" stroke="#bfbfbf" points="1048.5,-56.5 1048.5,-75.5 1100.5,-75.5 1100.5,-56.5 1048.5,-56.5"/>
<text text-anchor="middle" x="1074.5" y="-63.5" font-family="Helvetica,sans-Serif" font-size="10.00" fill="#000000">cassert</text>
</g>
<!-- Node0&#45;&gt;Node16 -->
<g id="edge19" class="edge">
<title>Node0&#45;&gt;Node16</title>
<path fill="none" stroke="#191970" d="M1149.907,-112.3511C1133.4342,-102.2256 1113.9579,-90.254 1098.9257,-81.0139"/>
<polygon fill="#191970" stroke="#191970" points="1100.5589,-77.9095 1090.2068,-75.6546 1096.8932,-83.873 1100.5589,-77.9095"/>
</g>
<!-- Node17 -->
<g id="node18" class="node">
<title>Node17</title>
<polygon fill="none" stroke="#bfbfbf" points="1118.5,-56.5 1118.5,-75.5 1178.5,-75.5 1178.5,-56.5 1118.5,-56.5"/>
<text text-anchor="middle" x="1148.5" y="-63.5" font-family="Helvetica,sans-Serif" font-size="10.00" fill="#000000">iostream</text>
</g>
<!-- Node0&#45;&gt;Node17 -->
<g id="edge20" class="edge">
<title>Node0&#45;&gt;Node17</title>
<path fill="none" stroke="#191970" d="M1172.6176,-112.168C1168.0599,-103.4433 1162.7999,-93.374 1158.3575,-84.87"/>
<polygon fill="#191970" stroke="#191970" points="1161.3417,-83.0234 1153.6092,-75.7805 1155.1372,-86.2646 1161.3417,-83.0234"/>
</g>
<!-- Node18 -->
<g id="node19" class="node">
<title>Node18</title>
<polygon fill="none" stroke="#bfbfbf" points="1196.5,-56.5 1196.5,-75.5 1242.5,-75.5 1242.5,-56.5 1196.5,-56.5"/>
<text text-anchor="middle" x="1219.5" y="-63.5" font-family="Helvetica,sans-Serif" font-size="10.00" fill="#000000">cstdio</text>
</g>
<!-- Node0&#45;&gt;Node18 -->
<g id="edge21" class="edge">
<title>Node0&#45;&gt;Node18</title>
<path fill="none" stroke="#191970" d="M1194.6933,-112.168C1199.4322,-103.3484 1204.9093,-93.155 1209.5096,-84.5933"/>
<polygon fill="#191970" stroke="#191970" points="1212.5947,-86.246 1214.2448,-75.7805 1206.4285,-82.9328 1212.5947,-86.246"/>
</g>
<!-- Node19 -->
<g id="node20" class="node">
<title>Node19</title>
<polygon fill="none" stroke="#bfbfbf" points="1260.5,-56.5 1260.5,-75.5 1324.5,-75.5 1324.5,-56.5 1260.5,-56.5"/>
<text text-anchor="middle" x="1292.5" y="-63.5" font-family="Helvetica,sans-Serif" font-size="10.00" fill="#000000">sys/stat.h</text>
</g>
<!-- Node0&#45;&gt;Node19 -->
<g id="edge23" class="edge">
<title>Node0&#45;&gt;Node19</title>
<path fill="none" stroke="#191970" d="M1217.093,-112.3511C1233.5658,-102.2256 1253.0421,-90.254 1268.0743,-81.0139"/>
<polygon fill="#191970" stroke="#191970" points="1270.1068,-83.873 1276.7932,-75.6546 1266.4411,-77.9095 1270.1068,-83.873"/>
</g>
<!-- Node20 -->
<g id="node21" class="node">
<title>Node20</title>
<polygon fill="none" stroke="#bfbfbf" points="1343,-56.5 1343,-75.5 1390,-75.5 1390,-56.5 1343,-56.5"/>
<text text-anchor="middle" x="1366.5" y="-63.5" font-family="Helvetica,sans-Serif" font-size="10.00" fill="#000000">fcntl.h</text>
</g>
<!-- Node0&#45;&gt;Node20 -->
<g id="edge24" class="edge">
<title>Node0&#45;&gt;Node20</title>
<path fill="none" stroke="#191970" d="M1239.8993,-112.3511C1270.4434,-101.1683 1307.1383,-87.7335 1333.1399,-78.2138"/>
<polygon fill="#191970" stroke="#191970" points="1334.3595,-81.4946 1342.5466,-74.7698 1331.9528,-74.9213 1334.3595,-81.4946"/>
</g>
<!-- Node21 -->
<g id="node22" class="node">
<title>Node21</title>
<polygon fill="none" stroke="#bfbfbf" points="1408,-56.5 1408,-75.5 1457,-75.5 1457,-56.5 1408,-56.5"/>
<text text-anchor="middle" x="1432.5" y="-63.5" font-family="Helvetica,sans-Serif" font-size="10.00" fill="#000000">TH1F.h</text>
</g>
<!-- Node0&#45;&gt;Node21 -->
<g id="edge25" class="edge">
<title>Node0&#45;&gt;Node21</title>
<path fill="none" stroke="#191970" d="M1259.1546,-113.7516C1298.1712,-103.6559 1346.7428,-90.8287 1397.7679,-76.4342"/>
<polygon fill="#191970" stroke="#191970" points="1398.9944,-79.7246 1407.6621,-73.6318 1397.0868,-72.9895 1398.9944,-79.7246"/>
</g>
<!-- Node22 -->
<g id="node23" class="node">
<title>Node22</title>
<polygon fill="none" stroke="#bfbfbf" points="1475.5,-56.5 1475.5,-75.5 1525.5,-75.5 1525.5,-56.5 1475.5,-56.5"/>
<text text-anchor="middle" x="1500.5" y="-63.5" font-family="Helvetica,sans-Serif" font-size="10.00" fill="#000000">chrono</text>
</g>
<!-- Node0&#45;&gt;Node22 -->
<g id="edge26" class="edge">
<title>Node0&#45;&gt;Node22</title>
<path fill="none" stroke="#191970" d="M1259.2736,-119.5979C1314.0363,-109.4821 1389.9451,-94.5811 1465.1871,-76.1736"/>
<polygon fill="#191970" stroke="#191970" points="1466.446,-79.468 1475.3157,-73.6732 1464.7683,-72.672 1466.446,-79.468"/>
</g>
<!-- Node23 -->
<g id="node24" class="node">
<title>Node23</title>
<g id="a_node24"><a xlink:href="../../d4/d8f/StringUtils_8h.html" target="_top" xlink:title="CommonUtils/StringUtils.h">
<polygon fill="none" stroke="#000000" points="1543.5,-56.5 1543.5,-75.5 1689.5,-75.5 1689.5,-56.5 1543.5,-56.5"/>
<text text-anchor="middle" x="1616.5" y="-63.5" font-family="Helvetica,sans-Serif" font-size="10.00" fill="#000000">CommonUtils/StringUtils.h</text>
</a>
</g>
</g>
<!-- Node0&#45;&gt;Node23 -->
<g id="edge27" class="edge">
<title>Node0&#45;&gt;Node23</title>
<path fill="none" stroke="#191970" d="M1259.4183,-121.2528C1339.8487,-108.8075 1465.8843,-89.3054 1544.7105,-77.1083"/>
<polygon fill="#191970" stroke="#191970" points="1545.6869,-80.499 1555.034,-75.5109 1544.6164,-73.5813 1545.6869,-80.499"/>
</g>
<!-- Node24 -->
<g id="node25" class="node">
<title>Node24</title>
<polygon fill="none" stroke="#bfbfbf" points="1708,-56.5 1708,-75.5 1803,-75.5 1803,-56.5 1708,-56.5"/>
<text text-anchor="middle" x="1755.5" y="-63.5" font-family="Helvetica,sans-Serif" font-size="10.00" fill="#000000">TStreamerInfo.h</text>
</g>
<!-- Node0&#45;&gt;Node24 -->
<g id="edge29" class="edge">
<title>Node0&#45;&gt;Node24</title>
<path fill="none" stroke="#191970" d="M1259.1744,-126.1402C1357.6849,-116.871 1535.4068,-98.9919 1697.7728,-76.0238"/>
<polygon fill="#191970" stroke="#191970" points="1698.5436,-79.4494 1707.9502,-74.5745 1697.5566,-72.5194 1698.5436,-79.4494"/>
</g>
<!-- Node25 -->
<g id="node26" class="node">
<title>Node25</title>
<polygon fill="none" stroke="#bfbfbf" points="1821,-56.5 1821,-75.5 1882,-75.5 1882,-56.5 1821,-56.5"/>
<text text-anchor="middle" x="1851.5" y="-63.5" font-family="Helvetica,sans-Serif" font-size="10.00" fill="#000000">TGraph.h</text>
</g>
<!-- Node0&#45;&gt;Node25 -->
<g id="edge30" class="edge">
<title>Node0&#45;&gt;Node25</title>
<path fill="none" stroke="#191970" d="M1259.0465,-130.0755C1375.7482,-124.6931 1606.8869,-110.5944 1810.9405,-76.0436"/>
<polygon fill="#191970" stroke="#191970" points="1811.6783,-79.4683 1820.9435,-74.3296 1810.4961,-72.5688 1811.6783,-79.4683"/>
</g>
<!-- Node26 -->
<g id="node27" class="node">
<title>Node26</title>
<polygon fill="none" stroke="#bfbfbf" points="1900.5,-56.5 1900.5,-75.5 1952.5,-75.5 1952.5,-56.5 1900.5,-56.5"/>
<text text-anchor="middle" x="1926.5" y="-63.5" font-family="Helvetica,sans-Serif" font-size="10.00" fill="#000000">TTree.h</text>
</g>
<!-- Node0&#45;&gt;Node26 -->
<g id="edge31" class="edge">
<title>Node0&#45;&gt;Node26</title>
<path fill="none" stroke="#191970" d="M1259.0585,-131.8112C1387.3734,-128.7212 1655.9454,-117.6146 1890.1866,-75.9165"/>
<polygon fill="#191970" stroke="#191970" points="1891.0381,-79.3195 1900.2584,-74.1007 1889.7961,-72.4306 1891.0381,-79.3195"/>
</g>
<!-- Node27 -->
<g id="node28" class="node">
<title>Node27</title>
<polygon fill="none" stroke="#bfbfbf" points="1970.5,-56.5 1970.5,-75.5 2042.5,-75.5 2042.5,-56.5 1970.5,-56.5"/>
<text text-anchor="middle" x="2006.5" y="-63.5" font-family="Helvetica,sans-Serif" font-size="10.00" fill="#000000">sys/types.h</text>
</g>
<!-- Node0&#45;&gt;Node27 -->
<g id="edge33" class="edge">
<title>Node0&#45;&gt;Node27</title>
<path fill="none" stroke="#191970" d="M1259.0018,-131.1154C1396.689,-126.8812 1697.8034,-113.9414 1960.1349,-76.01"/>
<polygon fill="#191970" stroke="#191970" points="1960.846,-79.4433 1970.2349,-74.5343 1959.8339,-72.5169 1960.846,-79.4433"/>
</g>
<!-- Node28 -->
<g id="node29" class="node">
<title>Node28</title>
<polygon fill="none" stroke="#bfbfbf" points="2060.5,-56.5 2060.5,-75.5 2116.5,-75.5 2116.5,-56.5 2060.5,-56.5"/>
<text text-anchor="middle" x="2088.5" y="-63.5" font-family="Helvetica,sans-Serif" font-size="10.00" fill="#000000">unistd.h</text>
</g>
<!-- Node0&#45;&gt;Node28 -->
<g id="edge34" class="edge">
<title>Node0&#45;&gt;Node28</title>
<path fill="none" stroke="#191970" d="M1259.254,-129.9575C1437.7557,-122.4828 1881.7609,-102.0299 2050.3619,-75.8395"/>
<polygon fill="#191970" stroke="#191970" points="2051.0312,-79.2769 2060.3453,-74.2273 2049.9152,-72.3664 2051.0312,-79.2769"/>
</g>
<!-- Node2 -->
<g id="node3" class="node">
<title>Node2</title>
<polygon fill="none" stroke="#bfbfbf" points="77.5,-.5 77.5,-19.5 121.5,-19.5 121.5,-.5 77.5,-.5"/>
<text text-anchor="middle" x="99.5" y="-7.5" font-family="Helvetica,sans-Serif" font-size="10.00" fill="#000000">string</text>
</g>
<!-- Node1&#45;&gt;Node2 -->
<g id="edge2" class="edge">
<title>Node1&#45;&gt;Node2</title>
<path fill="none" stroke="#191970" d="M258.875,-56.4335C227.6585,-47.9565 180.8385,-35.0154 131.6782,-20.2828"/>
<polygon fill="#191970" stroke="#191970" points="132.4034,-16.846 121.8188,-17.3132 130.3845,-23.5485 132.4034,-16.846"/>
</g>
<!-- Node3 -->
<g id="node4" class="node">
<title>Node3</title>
<polygon fill="none" stroke="#bfbfbf" points="139.5,-.5 139.5,-19.5 197.5,-19.5 197.5,-.5 139.5,-.5"/>
<text text-anchor="middle" x="168.5" y="-7.5" font-family="Helvetica,sans-Serif" font-size="10.00" fill="#000000">memory</text>
</g>
<!-- Node1&#45;&gt;Node3 -->
<g id="edge3" class="edge">
<title>Node1&#45;&gt;Node3</title>
<path fill="none" stroke="#191970" d="M272.8398,-56.3733C252.5228,-47.3435 221.936,-33.7494 199.125,-23.6111"/>
<polygon fill="#191970" stroke="#191970" points="200.4372,-20.3642 189.8775,-19.5011 197.5941,-26.7609 200.4372,-20.3642"/>
</g>
<!-- Node4 -->
<g id="node5" class="node">
<title>Node4</title>
<polygon fill="none" stroke="#bfbfbf" points="215.5,-.5 215.5,-19.5 253.5,-19.5 253.5,-.5 215.5,-.5"/>
<text text-anchor="middle" x="234.5" y="-7.5" font-family="Helvetica,sans-Serif" font-size="10.00" fill="#000000">map</text>
</g>
<!-- Node1&#45;&gt;Node4 -->
<g id="edge4" class="edge">
<title>Node1&#45;&gt;Node4</title>
<path fill="none" stroke="#191970" d="M284.0488,-56.2455C275.2731,-48.0549 262.5446,-36.1749 252.186,-26.5069"/>
<polygon fill="#191970" stroke="#191970" points="254.5301,-23.9072 244.8314,-19.6427 249.7539,-29.0246 254.5301,-23.9072"/>
</g>
<!-- Node1&#45;&gt;Node5 -->
<g id="edge5" class="edge">
<title>Node1&#45;&gt;Node5</title>
<path fill="none" stroke="#191970" d="M296.2419,-56.2455C297.5467,-48.9382 299.376,-38.6944 300.9813,-29.7046"/>
<polygon fill="#191970" stroke="#191970" points="304.4656,-30.1022 302.7781,-19.6427 297.5746,-28.8717 304.4656,-30.1022"/>
</g>
<!-- Node6 -->
<g id="node7" class="node">
<title>Node6</title>
<polygon fill="none" stroke="#bfbfbf" points="448,-.5 448,-19.5 511,-19.5 511,-.5 448,-.5"/>
<text text-anchor="middle" x="479.5" y="-7.5" font-family="Helvetica,sans-Serif" font-size="10.00" fill="#000000">TObject.h</text>
</g>
<!-- Node1&#45;&gt;Node6 -->
<g id="edge6" class="edge">
<title>Node1&#45;&gt;Node6</title>
<path fill="none" stroke="#191970" d="M326.3026,-56.3733C357.3317,-46.9807 404.6754,-32.6496 438.5147,-22.4064"/>
<polygon fill="#191970" stroke="#191970" points="439.5553,-25.7483 448.1124,-19.5011 437.5272,-19.0485 439.5553,-25.7483"/>
</g>
<!-- Node1&#45;&gt;Node7 -->
<g id="edge7" class="edge">
<title>Node1&#45;&gt;Node7</title>
<path fill="none" stroke="#191970" d="M311.5703,-56.2455C326.747,-47.5731 349.1621,-34.7645 366.5563,-24.825"/>
<polygon fill="#191970" stroke="#191970" points="368.6794,-27.643 375.6253,-19.6427 365.2064,-21.5653 368.6794,-27.643"/>
</g>
<!-- Node8&#45;&gt;Node6 -->
<g id="edge9" class="edge">
<title>Node8&#45;&gt;Node6</title>
<path fill="none" stroke="#191970" d="M479.5,-56.2455C479.5,-48.9382 479.5,-38.6944 479.5,-29.7046"/>
<polygon fill="#191970" stroke="#191970" points="483.0001,-29.6426 479.5,-19.6427 476.0001,-29.6427 483.0001,-29.6426"/>
</g>
<!-- Node8&#45;&gt;Node9 -->
<g id="edge10" class="edge">
<title>Node8&#45;&gt;Node9</title>
<path fill="none" stroke="#191970" d="M506.4893,-56.3733C532.3699,-47.1419 571.6248,-33.1402 600.2289,-22.9375"/>
<polygon fill="#191970" stroke="#191970" points="601.62,-26.1573 609.8629,-19.5011 599.2683,-19.5642 601.62,-26.1573"/>
</g>
<!-- Node10 -->
<g id="node11" class="node">
<title>Node10</title>
<polygon fill="none" stroke="#bfbfbf" points="529,-.5 529,-19.5 588,-19.5 588,-.5 529,-.5"/>
<text text-anchor="middle" x="558.5" y="-7.5" font-family="Helvetica,sans-Serif" font-size="10.00" fill="#000000">Rtypes.h</text>
</g>
<!-- Node8&#45;&gt;Node10 -->
<g id="edge11" class="edge">
<title>Node8&#45;&gt;Node10</title>
<path fill="none" stroke="#191970" d="M493.2607,-56.2455C505.1552,-47.814 522.565,-35.4729 536.4085,-25.6598"/>
<polygon fill="#191970" stroke="#191970" points="538.7628,-28.2811 544.8969,-19.6427 534.7146,-22.5704 538.7628,-28.2811"/>
</g>
<!-- Node11&#45;&gt;Node2 -->
<g id="edge15" class="edge">
<title>Node11&#45;&gt;Node2</title>
<path fill="none" stroke="#191970" d="M122.6228,-56.2455C118.8487,-48.6973 113.5079,-38.0158 108.9099,-28.8197"/>
<polygon fill="#191970" stroke="#191970" points="111.924,-27.0217 104.3213,-19.6427 105.663,-30.1522 111.924,-27.0217"/>
</g>
<!-- Node11&#45;&gt;Node3 -->
<g id="edge13" class="edge">
<title>Node11&#45;&gt;Node3</title>
<path fill="none" stroke="#191970" d="M134.6417,-56.2455C140.3444,-48.4564 148.49,-37.3308 155.3625,-27.9439"/>
<polygon fill="#191970" stroke="#191970" points="158.3568,-29.7789 161.4402,-19.6427 152.7087,-25.6437 158.3568,-29.7789"/>
</g>
<!-- Node12 -->
<g id="node13" class="node">
<title>Node12</title>
<polygon fill="none" stroke="#bfbfbf" points="0,-.5 0,-19.5 59,-19.5 59,-.5 0,-.5"/>
<text text-anchor="middle" x="29.5" y="-7.5" font-family="Helvetica,sans-Serif" font-size="10.00" fill="#000000">TChain.h</text>
</g>
<!-- Node11&#45;&gt;Node12 -->
<g id="edge14" class="edge">
<title>Node11&#45;&gt;Node12</title>
<path fill="none" stroke="#191970" d="M110.4297,-56.2455C95.253,-47.5731 72.8379,-34.7645 55.4437,-24.825"/>
<polygon fill="#191970" stroke="#191970" points="56.7936,-21.5653 46.3747,-19.6427 53.3206,-27.643 56.7936,-21.5653"/>
</g>
</g>
</svg>
