<?xml version="1.0" encoding="UTF-8" standalone="no"?>
<!DOCTYPE svg PUBLIC "-//W3C//DTD SVG 1.1//EN"
 "http://www.w3.org/Graphics/SVG/1.1/DTD/svg11.dtd">
<!-- Generated by graphviz version 2.40.1 (20161225.0304)
 -->
<!-- Title: /home/travis/build/AliceO2Group/AliceO2/GPU/TPCFastTransformation/TPCFastTransform.cxx Pages: 1 -->
<!--zoomable 453 -->
<svg id="main" version="1.1" xmlns="http://www.w3.org/2000/svg" xmlns:xlink="http://www.w3.org/1999/xlink" xml:space="preserve" onload="init(evt)">
<style type="text/css"><![CDATA[
.edge:hover path { stroke: red; }
.edge:hover polygon { stroke: red; fill: red; }
]]></style>
<script type="text/javascript"><![CDATA[
var edges = document.getElementsByTagName('g');
if (edges && edges.length) {
  for (var i=0;i<edges.length;i++) {
    if (edges[i].id.substr(0,4)=='edge') {
      edges[i].setAttribute('class','edge');
    }
  }
}
]]></script>
        <defs>
                <circle id="rim" cx="0" cy="0" r="7"/>
                <circle id="rim2" cx="0" cy="0" r="3.5"/>
                <g id="zoomPlus">
                        <use xlink:href="#rim" fill="#404040">
                                <set attributeName="fill" to="#808080" begin="zoomplus.mouseover" end="zoomplus.mouseout"/>
                        </use>
                        <path d="M-4,0h8M0,-4v8" fill="none" stroke="white" stroke-width="1.5" pointer-events="none"/>
                </g>
                <g id="zoomMin">
                        <use xlink:href="#rim" fill="#404040">
                                <set attributeName="fill" to="#808080" begin="zoomminus.mouseover" end="zoomminus.mouseout"/>
                        </use>
                        <path d="M-4,0h8" fill="none" stroke="white" stroke-width="1.5" pointer-events="none"/>
                </g>
                <g id="dirArrow">
                        <path fill="none" stroke="white" stroke-width="1.5" d="M0,-3.0v7 M-2.5,-0.5L0,-3.0L2.5,-0.5"/>
                </g>
               <g id="resetDef">
                       <use xlink:href="#rim2" fill="#404040">
                               <set attributeName="fill" to="#808080" begin="reset.mouseover" end="reset.mouseout"/>
                       </use>
               </g>
        </defs>

<script type="text/javascript">
var viewWidth = 829;
var viewHeight = 453;
var sectionId = 'dynsection-0';
</script>
<script xlink:href="../../svgpan.js"/>
<svg id="graph" class="graph">
<g id="viewport">
<title>/home/travis/build/AliceO2Group/AliceO2/GPU/TPCFastTransformation/TPCFastTransform.cxx</title>
<!-- Node0 -->
<g id="node1" class="node">
<title>Node0</title>
<polygon fill="#bfbfbf" stroke="#000000" points="570.8906,-392.5 570.8906,-444.5 725.8906,-444.5 725.8906,-392.5 570.8906,-392.5"/>
<text text-anchor="start" x="578.8906" y="-432.5" font-family="Helvetica,sans-Serif" font-size="10.00" fill="#000000">/home/travis/build</text>
<text text-anchor="start" x="578.8906" y="-421.5" font-family="Helvetica,sans-Serif" font-size="10.00" fill="#000000">/AliceO2Group/AliceO2</text>
<text text-anchor="start" x="578.8906" y="-410.5" font-family="Helvetica,sans-Serif" font-size="10.00" fill="#000000">/GPU/TPCFastTransformation</text>
<text text-anchor="middle" x="648.3906" y="-399.5" font-family="Helvetica,sans-Serif" font-size="10.00" fill="#000000">/TPCFastTransform.cxx</text>
</g>
<!-- Node1 -->
<g id="node2" class="node">
<title>Node1</title>
<g id="a_node2"><a xlink:href="../../d4/db1/TPCFastTransform_8h.html" target="_top" xlink:title="Definition of TPCFastTransform class. ">
<polygon fill="none" stroke="#000000" points="317.8906,-336.5 317.8906,-355.5 430.8906,-355.5 430.8906,-336.5 317.8906,-336.5"/>
<text text-anchor="middle" x="374.3906" y="-343.5" font-family="Helvetica,sans-Serif" font-size="10.00" fill="#000000">TPCFastTransform.h</text>
</a>
</g>
</g>
<!-- Node0&#45;&gt;Node1 -->
<g id="edge1" class="edge">
<title>Node0&#45;&gt;Node1</title>
<path fill="none" stroke="#191970" d="M570.6061,-397.9183C522.0796,-385.0783 461.2794,-368.9906 420.3244,-358.154"/>
<polygon fill="#191970" stroke="#191970" points="421.1792,-354.7598 410.6166,-355.5853 419.3886,-361.5269 421.1792,-354.7598"/>
</g>
<!-- Node20 -->
<g id="node21" class="node">
<title>Node20</title>
<polygon fill="none" stroke="#bfbfbf" points="628.3906,-280.5 628.3906,-299.5 688.3906,-299.5 688.3906,-280.5 628.3906,-280.5"/>
<text text-anchor="middle" x="658.3906" y="-287.5" font-family="Helvetica,sans-Serif" font-size="10.00" fill="#000000">iostream</text>
</g>
<!-- Node0&#45;&gt;Node20 -->
<g id="edge33" class="edge">
<title>Node0&#45;&gt;Node20</title>
<path fill="none" stroke="#191970" d="M631.4519,-392.3735C623.0437,-376.0889 615.9292,-354.7403 622.3906,-336 626.1093,-325.2144 633.5119,-315.0249 640.6424,-306.9904"/>
<polygon fill="#191970" stroke="#191970" points="643.1872,-309.3934 647.5358,-299.7321 638.1115,-304.5729 643.1872,-309.3934"/>
</g>
<!-- Node21 -->
<g id="node22" class="node">
<title>Node21</title>
<polygon fill="none" stroke="#bfbfbf" points="773.3906,-336.5 773.3906,-355.5 821.3906,-355.5 821.3906,-336.5 773.3906,-336.5"/>
<text text-anchor="middle" x="797.3906" y="-343.5" font-family="Helvetica,sans-Serif" font-size="10.00" fill="#000000">TFile.h</text>
</g>
<!-- Node0&#45;&gt;Node21 -->
<g id="edge34" class="edge">
<title>Node0&#45;&gt;Node21</title>
<path fill="none" stroke="#191970" d="M702.183,-392.3258C724.6141,-381.4114 749.7658,-369.1731 768.5822,-360.0175"/>
<polygon fill="#191970" stroke="#191970" points="770.3359,-363.0566 777.7966,-355.534 767.2731,-356.7622 770.3359,-363.0566"/>
</g>
<!-- Node22 -->
<g id="node23" class="node">
<title>Node22</title>
<g id="a_node23"><a xlink:href="../../df/d5b/GPUCommonLogger_8h.html" target="_top" xlink:title="GPUCommonLogger.h">
<polygon fill="none" stroke="#000000" points="631.8906,-336.5 631.8906,-355.5 754.8906,-355.5 754.8906,-336.5 631.8906,-336.5"/>
<text text-anchor="middle" x="693.3906" y="-343.5" font-family="Helvetica,sans-Serif" font-size="10.00" fill="#000000">GPUCommonLogger.h</text>
</a>
</g>
</g>
<!-- Node0&#45;&gt;Node22 -->
<g id="edge35" class="edge">
<title>Node0&#45;&gt;Node22</title>
<path fill="none" stroke="#191970" d="M664.6366,-392.3258C670.4167,-383.0135 676.7949,-372.7375 682.0725,-364.2347"/>
<polygon fill="#191970" stroke="#191970" points="685.173,-365.8762 687.4729,-355.534 679.2255,-362.1846 685.173,-365.8762"/>
</g>
<!-- Node2 -->
<g id="node3" class="node">
<title>Node2</title>
<g id="a_node3"><a xlink:href="../../db/dff/FlatObject_8h.html" target="_top" xlink:title="Definition of FlatObject class. ">
<polygon fill="none" stroke="#000000" points="523.8906,-112.5 523.8906,-131.5 598.8906,-131.5 598.8906,-112.5 523.8906,-112.5"/>
<text text-anchor="middle" x="561.3906" y="-119.5" font-family="Helvetica,sans-Serif" font-size="10.00" fill="#000000">FlatObject.h</text>
</a>
</g>
</g>
<!-- Node1&#45;&gt;Node2 -->
<g id="edge2" class="edge">
<title>Node1&#45;&gt;Node2</title>
<path fill="none" stroke="#191970" d="M408.8499,-336.3943C431.7341,-328.9106 461.6375,-316.9267 484.3906,-300 532.6558,-264.0942 545.305,-246.2339 560.3906,-188 564.3025,-172.899 564.337,-155.1964 563.5114,-141.9286"/>
<polygon fill="#191970" stroke="#191970" points="566.9675,-141.2585 562.6404,-131.5876 559.9922,-141.846 566.9675,-141.2585"/>
</g>
<!-- Node12 -->
<g id="node13" class="node">
<title>Node12</title>
<g id="a_node13"><a xlink:href="../../d5/dde/TPCFastTransformGeo_8h.html" target="_top" xlink:title="Definition of TPCFastTransformGeo class. ">
<polygon fill="none" stroke="#000000" points="198.3906,-168.5 198.3906,-187.5 330.3906,-187.5 330.3906,-168.5 198.3906,-168.5"/>
<text text-anchor="middle" x="264.3906" y="-175.5" font-family="Helvetica,sans-Serif" font-size="10.00" fill="#000000">TPCFastTransformGeo.h</text>
</a>
</g>
</g>
<!-- Node1&#45;&gt;Node12 -->
<g id="edge12" class="edge">
<title>Node1&#45;&gt;Node12</title>
<path fill="none" stroke="#191970" d="M347.5404,-336.3968C330.4907,-328.973 309.2828,-317.0566 296.3906,-300 273.2725,-269.4145 266.8085,-223.5974 265.0317,-197.6911"/>
<polygon fill="#191970" stroke="#191970" points="268.5224,-197.4186 264.5121,-187.6121 261.5317,-197.779 268.5224,-197.4186"/>
</g>
<!-- Node13 -->
<g id="node14" class="node">
<title>Node13</title>
<g id="a_node14"><a xlink:href="../../d0/d28/TPCDistortionIRS_8h.html" target="_top" xlink:title="Definition of TPCDistortionIRS class. ">
<polygon fill="none" stroke="#000000" points="367.3906,-280.5 367.3906,-299.5 475.3906,-299.5 475.3906,-280.5 367.3906,-280.5"/>
<text text-anchor="middle" x="421.3906" y="-287.5" font-family="Helvetica,sans-Serif" font-size="10.00" fill="#000000">TPCDistortionIRS.h</text>
</a>
</g>
</g>
<!-- Node1&#45;&gt;Node13 -->
<g id="edge15" class="edge">
<title>Node1&#45;&gt;Node13</title>
<path fill="none" stroke="#191970" d="M382.5774,-336.2455C389.2494,-328.2958 398.8385,-316.8706 406.8159,-307.3656"/>
<polygon fill="#191970" stroke="#191970" points="409.5498,-309.5525 413.2976,-299.6427 404.188,-305.0524 409.5498,-309.5525"/>
</g>
<!-- Node16 -->
<g id="node17" class="node">
<title>Node16</title>
<g id="a_node17"><a xlink:href="../../d6/da2/GPUCommonMath_8h.html" target="_top" xlink:title="GPUCommonMath.h">
<polygon fill="none" stroke="#000000" points="15.8906,-280.5 15.8906,-299.5 130.8906,-299.5 130.8906,-280.5 15.8906,-280.5"/>
<text text-anchor="middle" x="73.3906" y="-287.5" font-family="Helvetica,sans-Serif" font-size="10.00" fill="#000000">GPUCommonMath.h</text>
</a>
</g>
</g>
<!-- Node1&#45;&gt;Node16 -->
<g id="edge28" class="edge">
<title>Node1&#45;&gt;Node16</title>
<path fill="none" stroke="#191970" d="M322.9889,-336.4369C270.8257,-326.7321 190.0709,-311.708 134.626,-301.3926"/>
<polygon fill="#191970" stroke="#191970" points="135.0518,-297.9119 124.5803,-299.5237 133.7714,-304.7938 135.0518,-297.9119"/>
</g>
<!-- Node19 -->
<g id="node20" class="node">
<title>Node19</title>
<polygon fill="none" stroke="#bfbfbf" points="305.3906,-280.5 305.3906,-299.5 349.3906,-299.5 349.3906,-280.5 305.3906,-280.5"/>
<text text-anchor="middle" x="327.3906" y="-287.5" font-family="Helvetica,sans-Serif" font-size="10.00" fill="#000000">string</text>
</g>
<!-- Node1&#45;&gt;Node19 -->
<g id="edge32" class="edge">
<title>Node1&#45;&gt;Node19</title>
<path fill="none" stroke="#191970" d="M366.2038,-336.2455C359.5317,-328.2958 349.9427,-316.8706 341.9653,-307.3656"/>
<polygon fill="#191970" stroke="#191970" points="344.5932,-305.0524 335.4835,-299.6427 339.2314,-309.5525 344.5932,-305.0524"/>
</g>
<!-- Node3 -->
<g id="node4" class="node">
<title>Node3</title>
<polygon fill="none" stroke="#bfbfbf" points="500.8906,-56.5 500.8906,-75.5 553.8906,-75.5 553.8906,-56.5 500.8906,-56.5"/>
<text text-anchor="middle" x="527.3906" y="-63.5" font-family="Helvetica,sans-Serif" font-size="10.00" fill="#000000">cstddef</text>
</g>
<!-- Node2&#45;&gt;Node3 -->
<g id="edge3" class="edge">
<title>Node2&#45;&gt;Node3</title>
<path fill="none" stroke="#191970" d="M555.4682,-112.2455C550.7879,-104.5367 544.1233,-93.5598 538.4617,-84.2348"/>
<polygon fill="#191970" stroke="#191970" points="541.4267,-82.3741 533.2451,-75.6427 535.4431,-86.007 541.4267,-82.3741"/>
</g>
<!-- Node4 -->
<g id="node5" class="node">
<title>Node4</title>
<polygon fill="none" stroke="#bfbfbf" points="356.3906,-56.5 356.3906,-75.5 414.3906,-75.5 414.3906,-56.5 356.3906,-56.5"/>
<text text-anchor="middle" x="385.3906" y="-63.5" font-family="Helvetica,sans-Serif" font-size="10.00" fill="#000000">memory</text>
</g>
<!-- Node2&#45;&gt;Node4 -->
<g id="edge4" class="edge">
<title>Node2&#45;&gt;Node4</title>
<path fill="none" stroke="#191970" d="M531.1351,-112.3733C501.5642,-102.9643 456.418,-88.5996 424.2138,-78.3528"/>
<polygon fill="#191970" stroke="#191970" points="425.2569,-75.0119 414.6664,-75.315 423.1345,-81.6824 425.2569,-75.0119"/>
</g>
<!-- Node5 -->
<g id="node6" class="node">
<title>Node5</title>
<polygon fill="none" stroke="#bfbfbf" points="432.3906,-56.5 432.3906,-75.5 482.3906,-75.5 482.3906,-56.5 432.3906,-56.5"/>
<text text-anchor="middle" x="457.3906" y="-63.5" font-family="Helvetica,sans-Serif" font-size="10.00" fill="#000000">cstring</text>
</g>
<!-- Node2&#45;&gt;Node5 -->
<g id="edge5" class="edge">
<title>Node2&#45;&gt;Node5</title>
<path fill="none" stroke="#191970" d="M543.2752,-112.2455C526.9455,-103.4527 502.7196,-90.4079 484.1567,-80.4125"/>
<polygon fill="#191970" stroke="#191970" points="485.7625,-77.3021 475.2984,-75.6427 482.4438,-83.4654 485.7625,-77.3021"/>
</g>
<!-- Node6 -->
<g id="node7" class="node">
<title>Node6</title>
<polygon fill="none" stroke="#bfbfbf" points="572.3906,-56.5 572.3906,-75.5 624.3906,-75.5 624.3906,-56.5 572.3906,-56.5"/>
<text text-anchor="middle" x="598.3906" y="-63.5" font-family="Helvetica,sans-Serif" font-size="10.00" fill="#000000">cassert</text>
</g>
<!-- Node2&#45;&gt;Node6 -->
<g id="edge6" class="edge">
<title>Node2&#45;&gt;Node6</title>
<path fill="none" stroke="#191970" d="M567.8355,-112.2455C572.9288,-104.5367 580.1814,-93.5598 586.3426,-84.2348"/>
<polygon fill="#191970" stroke="#191970" points="589.4271,-85.9155 592.0195,-75.6427 583.5867,-82.0566 589.4271,-85.9155"/>
</g>
<!-- Node7 -->
<g id="node8" class="node">
<title>Node7</title>
<g id="a_node8"><a xlink:href="../../df/d21/GPUCommonDef_8h.html" target="_top" xlink:title="GPUCommonDef.h">
<polygon fill="none" stroke="#000000" points="222.8906,-56.5 222.8906,-75.5 329.8906,-75.5 329.8906,-56.5 222.8906,-56.5"/>
<text text-anchor="middle" x="276.3906" y="-63.5" font-family="Helvetica,sans-Serif" font-size="10.00" fill="#000000">GPUCommonDef.h</text>
</a>
</g>
</g>
<!-- Node2&#45;&gt;Node7 -->
<g id="edge7" class="edge">
<title>Node2&#45;&gt;Node7</title>
<path fill="none" stroke="#191970" d="M523.8387,-114.6214C475.6431,-105.1514 391.5073,-88.6194 334.8879,-77.4942"/>
<polygon fill="#191970" stroke="#191970" points="335.4879,-74.0452 325.0006,-75.5514 334.1382,-80.9139 335.4879,-74.0452"/>
</g>
<!-- Node10 -->
<g id="node11" class="node">
<title>Node10</title>
<g id="a_node11"><a xlink:href="../../d2/d45/GPUCommonRtypes_8h.html" target="_top" xlink:title="GPUCommonRtypes.h">
<polygon fill="none" stroke="#000000" points="642.8906,-56.5 642.8906,-75.5 767.8906,-75.5 767.8906,-56.5 642.8906,-56.5"/>
<text text-anchor="middle" x="705.3906" y="-63.5" font-family="Helvetica,sans-Serif" font-size="10.00" fill="#000000">GPUCommonRtypes.h</text>
</a>
</g>
</g>
<!-- Node2&#45;&gt;Node10 -->
<g id="edge10" class="edge">
<title>Node2&#45;&gt;Node10</title>
<path fill="none" stroke="#191970" d="M586.1451,-112.3733C609.6755,-103.2226 645.2593,-89.3844 671.4332,-79.2057"/>
<polygon fill="#191970" stroke="#191970" points="672.9077,-82.3877 680.9591,-75.5011 670.3705,-75.8636 672.9077,-82.3877"/>
</g>
<!-- Node8 -->
<g id="node9" class="node">
<title>Node8</title>
<g id="a_node9"><a xlink:href="../../d5/d93/GPUCommonDefSettings_8h.html" target="_top" xlink:title="GPUCommonDefSettings.h">
<polygon fill="none" stroke="#000000" points="125.3906,-.5 125.3906,-19.5 273.3906,-19.5 273.3906,-.5 125.3906,-.5"/>
<text text-anchor="middle" x="199.3906" y="-7.5" font-family="Helvetica,sans-Serif" font-size="10.00" fill="#000000">GPUCommonDefSettings.h</text>
</a>
</g>
</g>
<!-- Node7&#45;&gt;Node8 -->
<g id="edge8" class="edge">
<title>Node7&#45;&gt;Node8</title>
<path fill="none" stroke="#191970" d="M262.9782,-56.2455C251.3849,-47.814 234.4158,-35.4729 220.9228,-25.6598"/>
<polygon fill="#191970" stroke="#191970" points="222.7953,-22.6938 212.6493,-19.6427 218.678,-28.355 222.7953,-22.6938"/>
</g>
<!-- Node9 -->
<g id="node10" class="node">
<title>Node9</title>
<g id="a_node10"><a xlink:href="../../da/d5a/GPUCommonDefAPI_8h.html" target="_top" xlink:title="GPUCommonDefAPI.h">
<polygon fill="none" stroke="#000000" points="291.3906,-.5 291.3906,-19.5 415.3906,-19.5 415.3906,-.5 291.3906,-.5"/>
<text text-anchor="middle" x="353.3906" y="-7.5" font-family="Helvetica,sans-Serif" font-size="10.00" fill="#000000">GPUCommonDefAPI.h</text>
</a>
</g>
</g>
<!-- Node7&#45;&gt;Node9 -->
<g id="edge9" class="edge">
<title>Node7&#45;&gt;Node9</title>
<path fill="none" stroke="#191970" d="M289.803,-56.2455C301.3963,-47.814 318.3653,-35.4729 331.8584,-25.6598"/>
<polygon fill="#191970" stroke="#191970" points="334.1031,-28.355 340.1319,-19.6427 329.9859,-22.6938 334.1031,-28.355"/>
</g>
<!-- Node11 -->
<g id="node12" class="node">
<title>Node11</title>
<polygon fill="none" stroke="#bfbfbf" points="675.8906,-.5 675.8906,-19.5 734.8906,-19.5 734.8906,-.5 675.8906,-.5"/>
<text text-anchor="middle" x="705.3906" y="-7.5" font-family="Helvetica,sans-Serif" font-size="10.00" fill="#000000">Rtypes.h</text>
</g>
<!-- Node10&#45;&gt;Node11 -->
<g id="edge11" class="edge">
<title>Node10&#45;&gt;Node11</title>
<path fill="none" stroke="#191970" d="M705.3906,-56.2455C705.3906,-48.9382 705.3906,-38.6944 705.3906,-29.7046"/>
<polygon fill="#191970" stroke="#191970" points="708.8907,-29.6426 705.3906,-19.6427 701.8907,-29.6427 708.8907,-29.6426"/>
</g>
<!-- Node12&#45;&gt;Node4 -->
<g id="edge14" class="edge">
<title>Node12&#45;&gt;Node4</title>
<path fill="none" stroke="#191970" d="M274.707,-168.4509C295.3348,-149.3574 341.8849,-106.2697 367.5578,-82.5063"/>
<polygon fill="#191970" stroke="#191970" points="370.1391,-84.8864 375.1003,-75.5249 365.384,-79.7492 370.1391,-84.8864"/>
</g>
<!-- Node12&#45;&gt;Node7 -->
<g id="edge13" class="edge">
<title>Node12&#45;&gt;Node7</title>
<path fill="none" stroke="#191970" d="M265.4137,-168.4509C267.3709,-150.184 271.6811,-109.9553 274.2801,-85.6976"/>
<polygon fill="#191970" stroke="#191970" points="277.7847,-85.8409 275.3701,-75.5249 270.8246,-85.0951 277.7847,-85.8409"/>
</g>
<!-- Node13&#45;&gt;Node2 -->
<g id="edge26" class="edge">
<title>Node13&#45;&gt;Node2</title>
<path fill="none" stroke="#191970" d="M450.4094,-280.3906C469.0339,-272.9641 492.6008,-261.0472 508.3906,-244 535.9896,-214.2033 550.6821,-167.7658 557.1757,-141.6159"/>
<polygon fill="#191970" stroke="#191970" points="560.6118,-142.2918 559.4704,-131.7586 553.7941,-140.7046 560.6118,-142.2918"/>
</g>
<!-- Node13&#45;&gt;Node7 -->
<g id="edge27" class="edge">
<title>Node13&#45;&gt;Node7</title>
<path fill="none" stroke="#191970" d="M388.5577,-280.4172C330.1977,-262.647 212.3577,-223.1865 189.3906,-188 163.6764,-148.605 217.7053,-103.9886 251.6469,-81.1861"/>
<polygon fill="#191970" stroke="#191970" points="253.7276,-84.0078 260.1937,-75.615 249.9051,-78.1437 253.7276,-84.0078"/>
</g>
<!-- Node13&#45;&gt;Node12 -->
<g id="edge25" class="edge">
<title>Node13&#45;&gt;Node12</title>
<path fill="none" stroke="#191970" d="M408.0049,-280.4509C380.8922,-261.1094 319.2656,-217.1465 286.245,-193.5904"/>
<polygon fill="#191970" stroke="#191970" points="287.9159,-190.4831 277.7424,-187.5249 283.8507,-196.1817 287.9159,-190.4831"/>
</g>
<!-- Node14 -->
<g id="node15" class="node">
<title>Node14</title>
<g id="a_node15"><a xlink:href="../../d8/d4b/IrregularSpline2D3D_8h.html" target="_top" xlink:title="Definition of IrregularSpline2D3D class. ">
<polygon fill="none" stroke="#000000" points="375.3906,-224.5 375.3906,-243.5 499.3906,-243.5 499.3906,-224.5 375.3906,-224.5"/>
<text text-anchor="middle" x="437.3906" y="-231.5" font-family="Helvetica,sans-Serif" font-size="10.00" fill="#000000">IrregularSpline2D3D.h</text>
</a>
</g>
</g>
<!-- Node13&#45;&gt;Node14 -->
<g id="edge16" class="edge">
<title>Node13&#45;&gt;Node14</title>
<path fill="none" stroke="#191970" d="M424.1776,-280.2455C426.2883,-272.8579 429.2566,-262.4689 431.8453,-253.4087"/>
<polygon fill="#191970" stroke="#191970" points="435.2536,-254.2195 434.6355,-243.6427 428.5229,-252.2964 435.2536,-254.2195"/>
</g>
<!-- Node14&#45;&gt;Node2 -->
<g id="edge23" class="edge">
<title>Node14&#45;&gt;Node2</title>
<path fill="none" stroke="#191970" d="M454.2382,-224.3838C468.5878,-215.7904 489.3668,-202.368 505.3906,-188 521.727,-173.3517 537.6459,-153.9419 548.309,-139.9677"/>
<polygon fill="#191970" stroke="#191970" points="551.3246,-141.7794 554.5087,-131.6743 545.718,-137.5881 551.3246,-141.7794"/>
</g>
<!-- Node14&#45;&gt;Node7 -->
<g id="edge24" class="edge">
<title>Node14&#45;&gt;Node7</title>
<path fill="none" stroke="#191970" d="M422.8436,-224.2459C410.2178,-215.4627 391.7596,-201.8411 377.3906,-188 342.2917,-154.1906 307.382,-108.7194 289.2228,-83.939"/>
<polygon fill="#191970" stroke="#191970" points="292.0268,-81.8438 283.3211,-75.8055 286.3611,-85.9548 292.0268,-81.8438"/>
</g>
<!-- Node15 -->
<g id="node16" class="node">
<title>Node15</title>
<g id="a_node16"><a xlink:href="../../d4/de4/IrregularSpline1D_8h.html" target="_top" xlink:title="Definition of IrregularSpline1D class. ">
<polygon fill="none" stroke="#000000" points="386.3906,-168.5 386.3906,-187.5 496.3906,-187.5 496.3906,-168.5 386.3906,-168.5"/>
<text text-anchor="middle" x="441.3906" y="-175.5" font-family="Helvetica,sans-Serif" font-size="10.00" fill="#000000">IrregularSpline1D.h</text>
</a>
</g>
</g>
<!-- Node14&#45;&gt;Node15 -->
<g id="edge17" class="edge">
<title>Node14&#45;&gt;Node15</title>
<path fill="none" stroke="#191970" d="M438.0873,-224.2455C438.6093,-216.9382 439.341,-206.6944 439.9831,-197.7046"/>
<polygon fill="#191970" stroke="#191970" points="443.4804,-197.8667 440.7018,-187.6427 436.4982,-197.3679 443.4804,-197.8667"/>
</g>
<!-- Node15&#45;&gt;Node2 -->
<g id="edge19" class="edge">
<title>Node15&#45;&gt;Node2</title>
<path fill="none" stroke="#191970" d="M462.0193,-168.3733C481.2824,-159.3838 510.2392,-145.8706 531.9325,-135.7471"/>
<polygon fill="#191970" stroke="#191970" points="533.4493,-138.9017 541.031,-131.5011 530.4891,-132.5584 533.4493,-138.9017"/>
</g>
<!-- Node15&#45;&gt;Node3 -->
<g id="edge20" class="edge">
<title>Node15&#45;&gt;Node3</title>
<path fill="none" stroke="#191970" d="M448.7229,-168.4509C463.1301,-149.688 495.3289,-107.7548 513.755,-83.758"/>
<polygon fill="#191970" stroke="#191970" points="516.7626,-85.588 520.0768,-75.5249 511.2105,-81.3248 516.7626,-85.588"/>
</g>
<!-- Node15&#45;&gt;Node4 -->
<g id="edge21" class="edge">
<title>Node15&#45;&gt;Node4</title>
<path fill="none" stroke="#191970" d="M436.6161,-168.4509C427.3586,-149.936 406.8201,-108.8591 394.7499,-84.7187"/>
<polygon fill="#191970" stroke="#191970" points="397.7557,-82.9039 390.153,-75.5249 391.4947,-86.0344 397.7557,-82.9039"/>
</g>
<!-- Node15&#45;&gt;Node5 -->
<g id="edge22" class="edge">
<title>Node15&#45;&gt;Node5</title>
<path fill="none" stroke="#191970" d="M442.7547,-168.4509C445.3643,-150.184 451.1113,-109.9553 454.5766,-85.6976"/>
<polygon fill="#191970" stroke="#191970" points="458.0804,-85.9194 456.0299,-75.5249 451.1508,-84.9294 458.0804,-85.9194"/>
</g>
<!-- Node15&#45;&gt;Node7 -->
<g id="edge18" class="edge">
<title>Node15&#45;&gt;Node7</title>
<path fill="none" stroke="#191970" d="M430.3817,-168.4771C414.7035,-155.1211 384.7995,-130.4005 357.3906,-112 340.2178,-100.4713 319.9863,-88.9804 304.0388,-80.3672"/>
<polygon fill="#191970" stroke="#191970" points="305.6698,-77.2704 295.1996,-75.6498 302.3739,-83.446 305.6698,-77.2704"/>
</g>
<!-- Node16&#45;&gt;Node7 -->
<g id="edge29" class="edge">
<title>Node16&#45;&gt;Node7</title>
<path fill="none" stroke="#191970" d="M48.8845,-280.403C23.5774,-268.9377 -10.4189,-248.2354 3.3906,-224 50.8702,-140.6738 161.1516,-97.4114 226.0883,-78.3937"/>
<polygon fill="#191970" stroke="#191970" points="227.4421,-81.6477 236.1044,-75.5473 225.5285,-74.9143 227.4421,-81.6477"/>
</g>
<!-- Node17 -->
<g id="node18" class="node">
<title>Node17</title>
<polygon fill="none" stroke="#bfbfbf" points="12.8906,-224.5 12.8906,-243.5 59.8906,-243.5 59.8906,-224.5 12.8906,-224.5"/>
<text text-anchor="middle" x="36.3906" y="-231.5" font-family="Helvetica,sans-Serif" font-size="10.00" fill="#000000">cmath</text>
</g>
<!-- Node16&#45;&gt;Node17 -->
<g id="edge30" class="edge">
<title>Node16&#45;&gt;Node17</title>
<path fill="none" stroke="#191970" d="M66.9457,-280.2455C61.8524,-272.5367 54.5997,-261.5598 48.4386,-252.2348"/>
<polygon fill="#191970" stroke="#191970" points="51.1944,-250.0566 42.7616,-243.6427 45.3541,-253.9155 51.1944,-250.0566"/>
</g>
<!-- Node18 -->
<g id="node19" class="node">
<title>Node18</title>
<polygon fill="none" stroke="#bfbfbf" points="78.3906,-224.5 78.3906,-243.5 142.3906,-243.5 142.3906,-224.5 78.3906,-224.5"/>
<text text-anchor="middle" x="110.3906" y="-231.5" font-family="Helvetica,sans-Serif" font-size="10.00" fill="#000000">algorithm</text>
</g>
<!-- Node16&#45;&gt;Node18 -->
<g id="edge31" class="edge">
<title>Node16&#45;&gt;Node18</title>
<path fill="none" stroke="#191970" d="M79.8355,-280.2455C84.9288,-272.5367 92.1814,-261.5598 98.3426,-252.2348"/>
<polygon fill="#191970" stroke="#191970" points="101.4271,-253.9155 104.0195,-243.6427 95.5867,-250.0566 101.4271,-253.9155"/>
</g>
<!-- Node22&#45;&gt;Node20 -->
<g id="edge36" class="edge">
<title>Node22&#45;&gt;Node20</title>
<path fill="none" stroke="#191970" d="M687.2941,-336.2455C682.476,-328.5367 675.6155,-317.5598 669.7873,-308.2348"/>
<polygon fill="#191970" stroke="#191970" points="672.6853,-306.2677 664.4173,-299.6427 666.7493,-309.9777 672.6853,-306.2677"/>
</g>
<!-- Node23 -->
<g id="node24" class="node">
<title>Node23</title>
<polygon fill="none" stroke="#bfbfbf" points="706.3906,-280.5 706.3906,-299.5 752.3906,-299.5 752.3906,-280.5 706.3906,-280.5"/>
<text text-anchor="middle" x="729.3906" y="-287.5" font-family="Helvetica,sans-Serif" font-size="10.00" fill="#000000">cstdio</text>
</g>
<!-- Node22&#45;&gt;Node23 -->
<g id="edge37" class="edge">
<title>Node22&#45;&gt;Node23</title>
<path fill="none" stroke="#191970" d="M699.6613,-336.2455C704.617,-328.5367 711.6736,-317.5598 717.6682,-308.2348"/>
<polygon fill="#191970" stroke="#191970" points="720.7282,-309.9471 723.1917,-299.6427 714.84,-306.1618 720.7282,-309.9471"/>
</g>
</g>
</svg>
        <g id="navigator" transform="translate(0 0)" fill="#404254">
                <rect fill="#f2f5e9" fill-opacity="0.5" stroke="#606060" stroke-width=".5" x="0" y="0" width="60" height="60"/>
                <use id="zoomplus" xlink:href="#zoomPlus" x="17" y="9" onmousedown="handleZoom(evt,'in')"/>
                <use id="zoomminus" xlink:href="#zoomMin" x="42" y="9" onmousedown="handleZoom(evt,'out')"/>
                <use id="reset" xlink:href="#resetDef" x="30" y="36" onmousedown="handleReset()"/>
                <g id="arrowUp" xlink:href="#dirArrow" transform="translate(30 24)" onmousedown="handlePan(0,-1)">
                  <use xlink:href="#rim" fill="#404040">
                        <set attributeName="fill" to="#808080" begin="arrowUp.mouseover" end="arrowUp.mouseout"/>
                  </use>
                  <path fill="none" stroke="white" stroke-width="1.5" d="M0,-3.0v7 M-2.5,-0.5L0,-3.0L2.5,-0.5"/>
                </g>
                <g id="arrowRight" xlink:href="#dirArrow" transform="rotate(90) translate(36 -43)" onmousedown="handlePan(1,0)">
                  <use xlink:href="#rim" fill="#404040">
                        <set attributeName="fill" to="#808080" begin="arrowRight.mouseover" end="arrowRight.mouseout"/>
                  </use>
                  <path fill="none" stroke="white" stroke-width="1.5" d="M0,-3.0v7 M-2.5,-0.5L0,-3.0L2.5,-0.5"/>
                </g>
                <g id="arrowDown" xlink:href="#dirArrow" transform="rotate(180) translate(-30 -48)" onmousedown="handlePan(0,1)">
                  <use xlink:href="#rim" fill="#404040">
                        <set attributeName="fill" to="#808080" begin="arrowDown.mouseover" end="arrowDown.mouseout"/>
                  </use>
                  <path fill="none" stroke="white" stroke-width="1.5" d="M0,-3.0v7 M-2.5,-0.5L0,-3.0L2.5,-0.5"/>
                </g>
                <g id="arrowLeft" xlink:href="#dirArrow" transform="rotate(270) translate(-36 17)" onmousedown="handlePan(-1,0)">
                  <use xlink:href="#rim" fill="#404040">
                        <set attributeName="fill" to="#808080" begin="arrowLeft.mouseover" end="arrowLeft.mouseout"/>
                  </use>
                  <path fill="none" stroke="white" stroke-width="1.5" d="M0,-3.0v7 M-2.5,-0.5L0,-3.0L2.5,-0.5"/>
                </g>
        </g>
        <svg viewBox="0 0 15 15" width="100%" height="30px" preserveAspectRatio="xMaxYMin meet">
         <g id="arrow_out" transform="scale(0.3 0.3)">
          <a xlink:href="TPCFastTransform_8cxx__incl_org.svg" target="_base">
           <rect id="button" ry="5" rx="5" y="6" x="6" height="38" width="38"
                fill="#f2f5e9" fill-opacity="0.5" stroke="#606060" stroke-width="1.0"/>
           <path id="arrow"
             d="M 11.500037,31.436501 C 11.940474,20.09759 22.043105,11.32322 32.158766,21.979434 L 37.068811,17.246167 C 37.068811,17.246167 37.088388,32 37.088388,32 L 22.160133,31.978069 C 22.160133,31.978069 26.997745,27.140456 26.997745,27.140456 C 18.528582,18.264221 13.291696,25.230495 11.500037,31.436501 z"
             style="fill:#404040;"/>
          </a>
         </g>
        </svg>
</svg>
