<?xml version="1.0" encoding="UTF-8" standalone="no"?>
<!DOCTYPE svg PUBLIC "-//W3C//DTD SVG 1.1//EN"
 "http://www.w3.org/Graphics/SVG/1.1/DTD/svg11.dtd">
<!-- Generated by graphviz version 2.40.1 (20161225.0304)
 -->
<!-- Title: /home/travis/build/AliceO2Group/AliceO2/Detectors/MUON/MID/Clustering/include/MIDClustering/PreClusterizer.h Pages: 1 -->
<svg width="924pt" height="240pt"
 viewBox="0.00 0.00 923.50 240.00" xmlns="http://www.w3.org/2000/svg" xmlns:xlink="http://www.w3.org/1999/xlink">
<g id="graph0" class="graph" transform="scale(1 1) rotate(0) translate(4 236)">
<title>/home/travis/build/AliceO2Group/AliceO2/Detectors/MUON/MID/Clustering/include/MIDClustering/PreClusterizer.h</title>
<!-- Node0 -->
<g id="node1" class="node">
<title>Node0</title>
<polygon fill="#bfbfbf" stroke="#000000" points="188.5,-179.5 188.5,-231.5 394.5,-231.5 394.5,-179.5 188.5,-179.5"/>
<text text-anchor="start" x="196.5" y="-219.5" font-family="Helvetica,sans-Serif" font-size="10.00" fill="#000000">/home/travis/build</text>
<text text-anchor="start" x="196.5" y="-208.5" font-family="Helvetica,sans-Serif" font-size="10.00" fill="#000000">/AliceO2Group/AliceO2</text>
<text text-anchor="start" x="196.5" y="-197.5" font-family="Helvetica,sans-Serif" font-size="10.00" fill="#000000">/Detectors/MUON/MID/Clustering</text>
<text text-anchor="middle" x="291.5" y="-186.5" font-family="Helvetica,sans-Serif" font-size="10.00" fill="#000000">/include/MIDClustering/PreClusterizer.h</text>
</g>
<!-- Node1 -->
<g id="node2" class="node">
<title>Node1</title>
<polygon fill="none" stroke="#bfbfbf" points="0,-123.5 0,-142.5 93,-142.5 93,-123.5 0,-123.5"/>
<text text-anchor="middle" x="46.5" y="-130.5" font-family="Helvetica,sans-Serif" font-size="10.00" fill="#000000">unordered_map</text>
</g>
<!-- Node0&#45;&gt;Node1 -->
<g id="edge1" class="edge">
<title>Node0&#45;&gt;Node1</title>
<path fill="none" stroke="#191970" d="M203.3955,-179.4283C164.2783,-167.8528 120.0692,-154.7705 88.572,-145.4499"/>
<polygon fill="#191970" stroke="#191970" points="89.3971,-142.0441 78.8149,-142.5626 87.4107,-148.7563 89.3971,-142.0441"/>
</g>
<!-- Node2 -->
<g id="node3" class="node">
<title>Node2</title>
<polygon fill="none" stroke="#bfbfbf" points="73,-62 73,-81 120,-81 120,-62 73,-62"/>
<text text-anchor="middle" x="96.5" y="-69" font-family="Helvetica,sans-Serif" font-size="10.00" fill="#000000">vector</text>
</g>
<!-- Node0&#45;&gt;Node2 -->
<g id="edge2" class="edge">
<title>Node0&#45;&gt;Node2</title>
<path fill="none" stroke="#191970" d="M202.3812,-179.3763C180.5969,-170.2145 158.423,-158.2746 140.5,-143 123.7561,-128.7303 111.461,-106.432 104.1893,-90.533"/>
<polygon fill="#191970" stroke="#191970" points="107.3182,-88.9503 100.1399,-81.1579 100.8921,-91.726 107.3182,-88.9503"/>
</g>
<!-- Node3 -->
<g id="node4" class="node">
<title>Node3</title>
<polygon fill="none" stroke="#bfbfbf" points="665.5,-123.5 665.5,-142.5 713.5,-142.5 713.5,-123.5 665.5,-123.5"/>
<text text-anchor="middle" x="689.5" y="-130.5" font-family="Helvetica,sans-Serif" font-size="10.00" fill="#000000">gsl/gsl</text>
</g>
<!-- Node0&#45;&gt;Node3 -->
<g id="edge3" class="edge">
<title>Node0&#45;&gt;Node3</title>
<path fill="none" stroke="#191970" d="M394.8484,-191.3155C465.8034,-180.7535 562.2045,-164.7868 655.5465,-143.0028"/>
<polygon fill="#191970" stroke="#191970" points="656.5144,-146.3707 665.4437,-140.6682 654.9072,-139.5577 656.5144,-146.3707"/>
</g>
<!-- Node4 -->
<g id="node5" class="node">
<title>Node4</title>
<g id="a_node5"><a xlink:href="../../d4/d73/MID_2Base_2include_2MIDBase_2Mapping_8h.html" target="_top" xlink:title="Mapping for MID. ">
<polygon fill="none" stroke="#000000" points="150,-123.5 150,-142.5 263,-142.5 263,-123.5 150,-123.5"/>
<text text-anchor="middle" x="206.5" y="-130.5" font-family="Helvetica,sans-Serif" font-size="10.00" fill="#000000">MIDBase/Mapping.h</text>
</a>
</g>
</g>
<!-- Node0&#45;&gt;Node4 -->
<g id="edge4" class="edge">
<title>Node0&#45;&gt;Node4</title>
<path fill="none" stroke="#191970" d="M260.813,-179.3258C248.956,-169.2124 235.7663,-157.9624 225.3542,-149.0815"/>
<polygon fill="#191970" stroke="#191970" points="227.5575,-146.3606 217.6778,-142.534 223.0148,-151.6864 227.5575,-146.3606"/>
</g>
<!-- Node7 -->
<g id="node8" class="node">
<title>Node7</title>
<g id="a_node8"><a xlink:href="../../d3/d53/ColumnData_8h.html" target="_top" xlink:title="Strip pattern (aka digits) ">
<polygon fill="none" stroke="#000000" points="303,-62 303,-81 474,-81 474,-62 303,-62"/>
<text text-anchor="middle" x="388.5" y="-69" font-family="Helvetica,sans-Serif" font-size="10.00" fill="#000000">DataFormatsMID/ColumnData.h</text>
</a>
</g>
</g>
<!-- Node0&#45;&gt;Node7 -->
<g id="edge9" class="edge">
<title>Node0&#45;&gt;Node7</title>
<path fill="none" stroke="#191970" d="M292.5563,-179.3161C294.3835,-162.0056 299.0176,-139.5413 310.5,-123 321.7934,-106.731 340.047,-94.2691 356.0575,-85.682"/>
<polygon fill="#191970" stroke="#191970" points="357.8156,-88.7149 365.1554,-81.0743 354.6529,-82.4701 357.8156,-88.7149"/>
</g>
<!-- Node10 -->
<g id="node11" class="node">
<title>Node10</title>
<g id="a_node11"><a xlink:href="../../d2/df9/MUON_2MID_2include_2DataFormatsMID_2ROFRecord_8h.html" target="_top" xlink:title="Definition of the MID event record. ">
<polygon fill="none" stroke="#000000" points="320,-123.5 320,-142.5 483,-142.5 483,-123.5 320,-123.5"/>
<text text-anchor="middle" x="401.5" y="-130.5" font-family="Helvetica,sans-Serif" font-size="10.00" fill="#000000">DataFormatsMID/ROFRecord.h</text>
</a>
</g>
</g>
<!-- Node0&#45;&gt;Node10 -->
<g id="edge13" class="edge">
<title>Node0&#45;&gt;Node10</title>
<path fill="none" stroke="#191970" d="M331.2125,-179.3258C347.1647,-168.8119 364.9806,-157.0696 378.6842,-148.0377"/>
<polygon fill="#191970" stroke="#191970" points="380.6111,-150.9595 387.0346,-142.534 376.7589,-145.1148 380.6111,-150.9595"/>
</g>
<!-- Node16 -->
<g id="node17" class="node">
<title>Node16</title>
<g id="a_node17"><a xlink:href="../../db/dfb/PreCluster_8h.html" target="_top" xlink:title="Pre&#45;cluster structure for MID. ">
<polygon fill="none" stroke="#000000" points="501.5,-123.5 501.5,-142.5 647.5,-142.5 647.5,-123.5 501.5,-123.5"/>
<text text-anchor="middle" x="574.5" y="-130.5" font-family="Helvetica,sans-Serif" font-size="10.00" fill="#000000">MIDClustering/PreCluster.h</text>
</a>
</g>
</g>
<!-- Node0&#45;&gt;Node16 -->
<g id="edge20" class="edge">
<title>Node0&#45;&gt;Node16</title>
<path fill="none" stroke="#191970" d="M393.2697,-179.4283C439.0409,-167.7024 490.8475,-154.4304 527.3125,-145.0887"/>
<polygon fill="#191970" stroke="#191970" points="528.3544,-148.4349 537.173,-142.5626 526.6172,-141.6538 528.3544,-148.4349"/>
</g>
<!-- Node4&#45;&gt;Node2 -->
<g id="edge6" class="edge">
<title>Node4&#45;&gt;Node2</title>
<path fill="none" stroke="#191970" d="M189.3125,-123.3906C171.3918,-113.3713 143.0905,-97.5483 122.4477,-86.0071"/>
<polygon fill="#191970" stroke="#191970" points="124.0033,-82.867 113.5668,-81.0419 120.5872,-88.9769 124.0033,-82.867"/>
</g>
<!-- Node5 -->
<g id="node6" class="node">
<title>Node5</title>
<polygon fill="none" stroke="#bfbfbf" points="209.5,-.5 209.5,-19.5 251.5,-19.5 251.5,-.5 209.5,-.5"/>
<text text-anchor="middle" x="230.5" y="-7.5" font-family="Helvetica,sans-Serif" font-size="10.00" fill="#000000">array</text>
</g>
<!-- Node4&#45;&gt;Node5 -->
<g id="edge5" class="edge">
<title>Node4&#45;&gt;Node5</title>
<path fill="none" stroke="#191970" d="M194.76,-123.4549C185.369,-115.0029 172.9091,-101.7442 167.5,-87 162.7547,-74.0652 161.2595,-68.2835 167.5,-56 174.5091,-42.2036 187.8126,-31.5588 200.395,-24.0007"/>
<polygon fill="#191970" stroke="#191970" points="202.2843,-26.9551 209.3292,-19.0419 198.8872,-20.8347 202.2843,-26.9551"/>
</g>
<!-- Node6 -->
<g id="node7" class="node">
<title>Node6</title>
<g id="a_node7"><a xlink:href="../../d7/d0a/MpArea_8h.html" target="_top" xlink:title="Mapping area for MID. ">
<polygon fill="none" stroke="#000000" points="176.5,-62 176.5,-81 284.5,-81 284.5,-62 176.5,-62"/>
<text text-anchor="middle" x="230.5" y="-69" font-family="Helvetica,sans-Serif" font-size="10.00" fill="#000000">MIDBase/MpArea.h</text>
</a>
</g>
</g>
<!-- Node4&#45;&gt;Node6 -->
<g id="edge7" class="edge">
<title>Node4&#45;&gt;Node6</title>
<path fill="none" stroke="#191970" d="M210.25,-123.3906C213.6468,-114.6862 218.7531,-101.6015 222.988,-90.7494"/>
<polygon fill="#191970" stroke="#191970" points="226.3222,-91.8331 226.6971,-81.2449 219.8011,-89.2882 226.3222,-91.8331"/>
</g>
<!-- Node6&#45;&gt;Node5 -->
<g id="edge8" class="edge">
<title>Node6&#45;&gt;Node5</title>
<path fill="none" stroke="#191970" d="M230.5,-61.8906C230.5,-53.3657 230.5,-40.6392 230.5,-29.9235"/>
<polygon fill="#191970" stroke="#191970" points="234.0001,-29.7448 230.5,-19.7449 227.0001,-29.7449 234.0001,-29.7448"/>
</g>
<!-- Node7&#45;&gt;Node5 -->
<g id="edge12" class="edge">
<title>Node7&#45;&gt;Node5</title>
<path fill="none" stroke="#191970" d="M363.8125,-61.8906C336.2086,-51.1461 291.4575,-33.7271 261.514,-22.0719"/>
<polygon fill="#191970" stroke="#191970" points="262.5615,-18.7239 251.973,-18.3582 260.0224,-25.2472 262.5615,-18.7239"/>
</g>
<!-- Node8 -->
<g id="node9" class="node">
<title>Node8</title>
<polygon fill="none" stroke="#bfbfbf" points="447.5,-.5 447.5,-19.5 497.5,-19.5 497.5,-.5 447.5,-.5"/>
<text text-anchor="middle" x="472.5" y="-7.5" font-family="Helvetica,sans-Serif" font-size="10.00" fill="#000000">cstdint</text>
</g>
<!-- Node7&#45;&gt;Node8 -->
<g id="edge10" class="edge">
<title>Node7&#45;&gt;Node8</title>
<path fill="none" stroke="#191970" d="M401.625,-61.8906C414.94,-52.1421 435.7594,-36.8994 451.3947,-25.4521"/>
<polygon fill="#191970" stroke="#191970" points="453.4661,-28.2734 459.4672,-19.5419 449.3309,-22.6253 453.4661,-28.2734"/>
</g>
<!-- Node9 -->
<g id="node10" class="node">
<title>Node9</title>
<polygon fill="none" stroke="#bfbfbf" points="358.5,-.5 358.5,-19.5 418.5,-19.5 418.5,-.5 358.5,-.5"/>
<text text-anchor="middle" x="388.5" y="-7.5" font-family="Helvetica,sans-Serif" font-size="10.00" fill="#000000">iostream</text>
</g>
<!-- Node7&#45;&gt;Node9 -->
<g id="edge11" class="edge">
<title>Node7&#45;&gt;Node9</title>
<path fill="none" stroke="#191970" d="M388.5,-61.8906C388.5,-53.3657 388.5,-40.6392 388.5,-29.9235"/>
<polygon fill="#191970" stroke="#191970" points="392.0001,-29.7448 388.5,-19.7449 385.0001,-29.7449 392.0001,-29.7448"/>
</g>
<!-- Node11 -->
<g id="node12" class="node">
<title>Node11</title>
<g id="a_node12"><a xlink:href="../../d9/d80/InteractionRecord_8h.html" target="_top" xlink:title="CommonDataFormat/Interaction\lRecord.h">
<polygon fill="none" stroke="#000000" points="530.5,-56.5 530.5,-86.5 704.5,-86.5 704.5,-56.5 530.5,-56.5"/>
<text text-anchor="start" x="538.5" y="-74.5" font-family="Helvetica,sans-Serif" font-size="10.00" fill="#000000">CommonDataFormat/Interaction</text>
<text text-anchor="middle" x="617.5" y="-63.5" font-family="Helvetica,sans-Serif" font-size="10.00" fill="#000000">Record.h</text>
</a>
</g>
</g>
<!-- Node10&#45;&gt;Node11 -->
<g id="edge14" class="edge">
<title>Node10&#45;&gt;Node11</title>
<path fill="none" stroke="#191970" d="M435.25,-123.3906C467.1897,-114.2967 515.922,-100.4215 554.9604,-89.3064"/>
<polygon fill="#191970" stroke="#191970" points="556.0012,-92.6493 564.6605,-86.5446 554.0842,-85.9168 556.0012,-92.6493"/>
</g>
<!-- Node11&#45;&gt;Node8 -->
<g id="edge18" class="edge">
<title>Node11&#45;&gt;Node8</title>
<path fill="none" stroke="#191970" d="M582.029,-56.4554C558.2598,-46.374 527.232,-33.2139 504.2715,-23.4755"/>
<polygon fill="#191970" stroke="#191970" points="505.5427,-20.2129 494.9699,-19.5303 502.8094,-26.6572 505.5427,-20.2129"/>
</g>
<!-- Node12 -->
<g id="node13" class="node">
<title>Node12</title>
<polygon fill="none" stroke="#bfbfbf" points="516,-.5 516,-19.5 575,-19.5 575,-.5 516,-.5"/>
<text text-anchor="middle" x="545.5" y="-7.5" font-family="Helvetica,sans-Serif" font-size="10.00" fill="#000000">Rtypes.h</text>
</g>
<!-- Node11&#45;&gt;Node12 -->
<g id="edge15" class="edge">
<title>Node11&#45;&gt;Node12</title>
<path fill="none" stroke="#191970" d="M599.7022,-56.2977C589.0833,-47.2274 575.5969,-35.7077 564.7333,-26.4285"/>
<polygon fill="#191970" stroke="#191970" points="566.9051,-23.6805 557.0281,-19.8469 562.3587,-29.0031 566.9051,-23.6805"/>
</g>
<!-- Node13 -->
<g id="node14" class="node">
<title>Node13</title>
<polygon fill="none" stroke="#bfbfbf" points="593,-.5 593,-19.5 642,-19.5 642,-.5 593,-.5"/>
<text text-anchor="middle" x="617.5" y="-7.5" font-family="Helvetica,sans-Serif" font-size="10.00" fill="#000000">iosfwd</text>
</g>
<!-- Node11&#45;&gt;Node13 -->
<g id="edge16" class="edge">
<title>Node11&#45;&gt;Node13</title>
<path fill="none" stroke="#191970" d="M617.5,-56.2977C617.5,-48.3834 617.5,-38.6043 617.5,-30.0759"/>
<polygon fill="#191970" stroke="#191970" points="621.0001,-29.8469 617.5,-19.8469 614.0001,-29.847 621.0001,-29.8469"/>
</g>
<!-- Node14 -->
<g id="node15" class="node">
<title>Node14</title>
<polygon fill="none" stroke="#bfbfbf" points="660,-.5 660,-19.5 707,-19.5 707,-.5 660,-.5"/>
<text text-anchor="middle" x="683.5" y="-7.5" font-family="Helvetica,sans-Serif" font-size="10.00" fill="#000000">cmath</text>
</g>
<!-- Node11&#45;&gt;Node14 -->
<g id="edge17" class="edge">
<title>Node11&#45;&gt;Node14</title>
<path fill="none" stroke="#191970" d="M633.8146,-56.2977C643.4533,-47.3163 655.6691,-35.9334 665.5759,-26.702"/>
<polygon fill="#191970" stroke="#191970" points="668.0025,-29.2249 672.9326,-19.8469 663.2304,-24.1036 668.0025,-29.2249"/>
</g>
<!-- Node15 -->
<g id="node16" class="node">
<title>Node15</title>
<g id="a_node16"><a xlink:href="../../d4/dc6/LHCConstants_8h.html" target="_top" xlink:title="Header to collect LHC related constants. ">
<polygon fill="none" stroke="#000000" points="725.5,-.5 725.5,-19.5 915.5,-19.5 915.5,-.5 725.5,-.5"/>
<text text-anchor="middle" x="820.5" y="-7.5" font-family="Helvetica,sans-Serif" font-size="10.00" fill="#000000">CommonConstants/LHCConstants.h</text>
</a>
</g>
</g>
<!-- Node11&#45;&gt;Node15 -->
<g id="edge19" class="edge">
<title>Node11&#45;&gt;Node15</title>
<path fill="none" stroke="#191970" d="M667.1594,-56.4554C701.6247,-46.0139 746.9909,-32.27 779.4198,-22.4455"/>
<polygon fill="#191970" stroke="#191970" points="780.4866,-25.7795 789.0422,-19.5303 778.4569,-19.0802 780.4866,-25.7795"/>
</g>
<!-- Node16&#45;&gt;Node8 -->
<g id="edge21" class="edge">
<title>Node16&#45;&gt;Node8</title>
<path fill="none" stroke="#191970" d="M561.352,-123.3384C550.0082,-114.6145 533.5906,-101.0279 521.5,-87 505.7371,-68.7113 491.3791,-44.9144 482.338,-28.6458"/>
<polygon fill="#191970" stroke="#191970" points="485.2776,-26.7245 477.4307,-19.6056 479.1255,-30.064 485.2776,-26.7245"/>
</g>
<!-- Node17 -->
<g id="node18" class="node">
<title>Node17</title>
<polygon fill="none" stroke="#bfbfbf" points="723,-62 723,-81 780,-81 780,-62 723,-62"/>
<text text-anchor="middle" x="751.5" y="-69" font-family="Helvetica,sans-Serif" font-size="10.00" fill="#000000">ostream</text>
</g>
<!-- Node16&#45;&gt;Node17 -->
<g id="edge22" class="edge">
<title>Node16&#45;&gt;Node17</title>
<path fill="none" stroke="#191970" d="M605.3493,-123.4511C633.655,-114.5337 676.6551,-100.5933 713.5,-87 715.355,-86.3156 717.2543,-85.5975 719.1665,-84.861"/>
<polygon fill="#191970" stroke="#191970" points="720.6773,-88.0274 728.6903,-81.0962 718.1038,-81.5176 720.6773,-88.0274"/>
</g>
</g>
</svg>
