<?xml version="1.0" encoding="UTF-8" standalone="no"?>
<!DOCTYPE svg PUBLIC "-//W3C//DTD SVG 1.1//EN"
 "http://www.w3.org/Graphics/SVG/1.1/DTD/svg11.dtd">
<!-- Generated by graphviz version 2.40.1 (20161225.0304)
 -->
<!-- Title: o2::itsmft::TopologyDictionary Pages: 1 -->
<svg width="293pt" height="369pt"
 viewBox="0.00 0.00 293.00 369.00" xmlns="http://www.w3.org/2000/svg" xmlns:xlink="http://www.w3.org/1999/xlink">
<g id="graph0" class="graph" transform="scale(1 1) rotate(0) translate(4 365)">
<title>o2::itsmft::TopologyDictionary</title>
<!-- Node1 -->
<g id="node1" class="node">
<title>Node1</title>
<polygon fill="#bfbfbf" stroke="#000000" points="11,-.5 11,-211.5 175,-211.5 175,-.5 11,-.5"/>
<text text-anchor="middle" x="93" y="-199.5" font-family="Helvetica,sans-Serif" font-size="10.00" fill="#000000">o2::itsmft::TopologyDictionary</text>
<polyline fill="none" stroke="#000000" points="11,-192.5 175,-192.5 "/>
<text text-anchor="middle" x="93" y="-180.5" font-family="Helvetica,sans-Serif" font-size="10.00" fill="#000000"> </text>
<polyline fill="none" stroke="#000000" points="11,-173.5 175,-173.5 "/>
<text text-anchor="start" x="19" y="-161.5" font-family="Helvetica,sans-Serif" font-size="10.00" fill="#000000">+ TopologyDictionary()</text>
<text text-anchor="start" x="19" y="-150.5" font-family="Helvetica,sans-Serif" font-size="10.00" fill="#000000">+ TopologyDictionary()</text>
<text text-anchor="start" x="19" y="-139.5" font-family="Helvetica,sans-Serif" font-size="10.00" fill="#000000">+ WriteBinaryFile()</text>
<text text-anchor="start" x="19" y="-128.5" font-family="Helvetica,sans-Serif" font-size="10.00" fill="#000000">+ ReadBinaryFile()</text>
<text text-anchor="start" x="19" y="-117.5" font-family="Helvetica,sans-Serif" font-size="10.00" fill="#000000">+ GetXcog()</text>
<text text-anchor="start" x="19" y="-106.5" font-family="Helvetica,sans-Serif" font-size="10.00" fill="#000000">+ GetErrX()</text>
<text text-anchor="start" x="19" y="-95.5" font-family="Helvetica,sans-Serif" font-size="10.00" fill="#000000">+ GetZcog()</text>
<text text-anchor="start" x="19" y="-84.5" font-family="Helvetica,sans-Serif" font-size="10.00" fill="#000000">+ GetErrZ()</text>
<text text-anchor="start" x="19" y="-73.5" font-family="Helvetica,sans-Serif" font-size="10.00" fill="#000000">+ GetHash()</text>
<text text-anchor="start" x="19" y="-62.5" font-family="Helvetica,sans-Serif" font-size="10.00" fill="#000000">+ GetNpixels()</text>
<text text-anchor="start" x="19" y="-51.5" font-family="Helvetica,sans-Serif" font-size="10.00" fill="#000000">+ IsGroup()</text>
<text text-anchor="start" x="19" y="-40.5" font-family="Helvetica,sans-Serif" font-size="10.00" fill="#000000">+ GetPattern()</text>
<text text-anchor="start" x="19" y="-29.5" font-family="Helvetica,sans-Serif" font-size="10.00" fill="#000000">+ GetFrequency()</text>
<text text-anchor="start" x="19" y="-18.5" font-family="Helvetica,sans-Serif" font-size="10.00" fill="#000000">+ GetSize()</text>
<text text-anchor="start" x="19" y="-7.5" font-family="Helvetica,sans-Serif" font-size="10.00" fill="#000000">+ getClusterCoordinates()</text>
</g>
<!-- Node2 -->
<g id="node2" class="node">
<title>Node2</title>
<polygon fill="none" stroke="#bfbfbf" points="0,-303.5 0,-360.5 44,-360.5 44,-303.5 0,-303.5"/>
<text text-anchor="middle" x="22" y="-348.5" font-family="Helvetica,sans-Serif" font-size="10.00" fill="#000000">static</text>
<polyline fill="none" stroke="#bfbfbf" points="0,-341.5 44,-341.5 "/>
<text text-anchor="middle" x="22" y="-329.5" font-family="Helvetica,sans-Serif" font-size="10.00" fill="#000000"> </text>
<polyline fill="none" stroke="#bfbfbf" points="0,-322.5 44,-322.5 "/>
<text text-anchor="middle" x="22" y="-310.5" font-family="Helvetica,sans-Serif" font-size="10.00" fill="#000000"> </text>
</g>
<!-- Node2&#45;&gt;Node1 -->
<g id="edge1" class="edge">
<title>Node2&#45;&gt;Node1</title>
<path fill="none" stroke="#404040" d="M18.5107,-303.3441C16.889,-282.6119 16.5358,-254.1187 23,-230 23.612,-227.7166 24.2759,-225.4308 24.9871,-223.146"/>
<polygon fill="none" stroke="#404040" points="25.006,-223.0907 23.1783,-216.1151 28.9143,-211.745 30.7421,-218.7207 25.006,-223.0907"/>
<text text-anchor="middle" x="82.5" y="-277" font-family="Helvetica,sans-Serif" font-size="10.00" fill="#000000"> +NumberOfRareGroups</text>
<text text-anchor="middle" x="82.5" y="-266" font-family="Helvetica,sans-Serif" font-size="10.00" fill="#000000">+MinimumClassArea</text>
<text text-anchor="middle" x="82.5" y="-255" font-family="Helvetica,sans-Serif" font-size="10.00" fill="#000000">+RowClassSpan</text>
<text text-anchor="middle" x="82.5" y="-244" font-family="Helvetica,sans-Serif" font-size="10.00" fill="#000000">+MaxNumberOfClasses</text>
<text text-anchor="middle" x="82.5" y="-233" font-family="Helvetica,sans-Serif" font-size="10.00" fill="#000000">+ColClassSpan</text>
</g>
<!-- Node3 -->
<g id="node3" class="node">
<title>Node3</title>
<polygon fill="none" stroke="#bfbfbf" points="141.5,-303.5 141.5,-360.5 186.5,-360.5 186.5,-303.5 141.5,-303.5"/>
<text text-anchor="middle" x="164" y="-348.5" font-family="Helvetica,sans-Serif" font-size="10.00" fill="#000000">friend</text>
<polyline fill="none" stroke="#bfbfbf" points="141.5,-341.5 186.5,-341.5 "/>
<text text-anchor="middle" x="164" y="-329.5" font-family="Helvetica,sans-Serif" font-size="10.00" fill="#000000"> </text>
<polyline fill="none" stroke="#bfbfbf" points="141.5,-322.5 186.5,-322.5 "/>
<text text-anchor="middle" x="164" y="-310.5" font-family="Helvetica,sans-Serif" font-size="10.00" fill="#000000"> </text>
</g>
<!-- Node3&#45;&gt;Node1 -->
<g id="edge2" class="edge">
<title>Node3&#45;&gt;Node1</title>
<path fill="none" stroke="#404040" d="M159.075,-303.1008C155.2484,-282.5008 149.3586,-254.2708 142,-230 141.32,-227.7571 140.6171,-225.4977 139.8942,-223.2265"/>
<polygon fill="none" stroke="#404040" points="139.883,-223.1922 134.2058,-218.7458 136.1267,-211.7952 141.8038,-216.2416 139.883,-223.1922"/>
<text text-anchor="middle" x="220" y="-266" font-family="Helvetica,sans-Serif" font-size="10.00" fill="#000000"> +BuildTopologyDictionary</text>
<text text-anchor="middle" x="220" y="-255" font-family="Helvetica,sans-Serif" font-size="10.00" fill="#000000">+TopologyFastSimulation</text>
<text text-anchor="middle" x="220" y="-244" font-family="Helvetica,sans-Serif" font-size="10.00" fill="#000000">+LookUp</text>
</g>
</g>
</svg>
