<?xml version="1.0" encoding="UTF-8" standalone="no"?>
<!DOCTYPE svg PUBLIC "-//W3C//DTD SVG 1.1//EN"
 "http://www.w3.org/Graphics/SVG/1.1/DTD/svg11.dtd">
<!-- Generated by graphviz version 2.40.1 (20161225.0304)
 -->
<!-- Title: /home/travis/build/AliceO2Group/AliceO2/Framework/Core/src/verifyAODFile.cxx Pages: 1 -->
<svg width="2633pt" height="397pt"
 viewBox="0.00 0.00 2632.50 397.00" xmlns="http://www.w3.org/2000/svg" xmlns:xlink="http://www.w3.org/1999/xlink">
<g id="graph0" class="graph" transform="scale(1 1) rotate(0) translate(4 393)">
<title>/home/travis/build/AliceO2Group/AliceO2/Framework/Core/src/verifyAODFile.cxx</title>
<!-- Node0 -->
<g id="node1" class="node">
<title>Node0</title>
<polygon fill="#bfbfbf" stroke="#000000" points="2233.5,-347.5 2233.5,-388.5 2439.5,-388.5 2439.5,-347.5 2233.5,-347.5"/>
<text text-anchor="start" x="2241.5" y="-376.5" font-family="Helvetica,sans-Serif" font-size="10.00" fill="#000000">/home/travis/build</text>
<text text-anchor="start" x="2241.5" y="-365.5" font-family="Helvetica,sans-Serif" font-size="10.00" fill="#000000">/AliceO2Group/AliceO2</text>
<text text-anchor="middle" x="2336.5" y="-354.5" font-family="Helvetica,sans-Serif" font-size="10.00" fill="#000000">/Framework/Core/src/verifyAODFile.cxx</text>
</g>
<!-- Node1 -->
<g id="node2" class="node">
<title>Node1</title>
<g id="a_node2"><a xlink:href="../../d2/d8c/AnalysisDataModel_8h.html" target="_top" xlink:title="Framework/AnalysisDataModel.h">
<polygon fill="none" stroke="#000000" points="1204.5,-286 1204.5,-305 1380.5,-305 1380.5,-286 1204.5,-286"/>
<text text-anchor="middle" x="1292.5" y="-293" font-family="Helvetica,sans-Serif" font-size="10.00" fill="#000000">Framework/AnalysisDataModel.h</text>
</a>
</g>
</g>
<!-- Node0&#45;&gt;Node1 -->
<g id="edge1" class="edge">
<title>Node0&#45;&gt;Node1</title>
<path fill="none" stroke="#191970" d="M2233.0607,-360.8167C2031.4311,-346.8147 1588.3324,-316.0439 1390.8463,-302.3296"/>
<polygon fill="#191970" stroke="#191970" points="1390.989,-298.8312 1380.7705,-301.6299 1390.504,-305.8144 1390.989,-298.8312"/>
</g>
<!-- Node2 -->
<g id="node3" class="node">
<title>Node2</title>
<g id="a_node3"><a xlink:href="../../de/d33/ASoA_8h.html" target="_top" xlink:title="Framework/ASoA.h">
<polygon fill="none" stroke="#000000" points="1122.5,-168.5 1122.5,-187.5 1230.5,-187.5 1230.5,-168.5 1122.5,-168.5"/>
<text text-anchor="middle" x="1176.5" y="-175.5" font-family="Helvetica,sans-Serif" font-size="10.00" fill="#000000">Framework/ASoA.h</text>
</a>
</g>
</g>
<!-- Node0&#45;&gt;Node2 -->
<g id="edge61" class="edge">
<title>Node0&#45;&gt;Node2</title>
<path fill="none" stroke="#191970" d="M2233.2503,-366.3703C1959.5236,-361.5831 1233.5101,-345.6654 1195.5,-311 1164.0199,-282.2901 1167.7905,-226.8371 1172.5342,-197.4221"/>
<polygon fill="#191970" stroke="#191970" points="1175.9868,-197.9977 1174.3284,-187.5334 1169.0992,-196.7479 1175.9868,-197.9977"/>
</g>
<!-- Node17 -->
<g id="node18" class="node">
<title>Node17</title>
<polygon fill="none" stroke="#bfbfbf" points="2069.5,-56.5 2069.5,-75.5 2127.5,-75.5 2127.5,-56.5 2069.5,-56.5"/>
<text text-anchor="middle" x="2098.5" y="-63.5" font-family="Helvetica,sans-Serif" font-size="10.00" fill="#000000">memory</text>
</g>
<!-- Node0&#45;&gt;Node17 -->
<g id="edge64" class="edge">
<title>Node0&#45;&gt;Node17</title>
<path fill="none" stroke="#191970" d="M2336.5,-347.1105C2336.5,-320.7489 2336.5,-274.0139 2336.5,-234 2336.5,-234 2336.5,-234 2336.5,-178 2336.5,-136.8295 2307.0957,-132.6871 2271.5,-112 2229.558,-87.6247 2174.4458,-75.8726 2137.817,-70.4123"/>
<polygon fill="#191970" stroke="#191970" points="2137.9294,-66.8939 2127.5406,-68.9731 2136.9585,-73.8263 2137.9294,-66.8939"/>
</g>
<!-- Node27 -->
<g id="node28" class="node">
<title>Node27</title>
<g id="a_node28"><a xlink:href="../../d9/dd5/RootTableBuilderHelpers_8h.html" target="_top" xlink:title="Framework/RootTableBuilder\lHelpers.h">
<polygon fill="none" stroke="#000000" points="1803,-280.5 1803,-310.5 1958,-310.5 1958,-280.5 1803,-280.5"/>
<text text-anchor="start" x="1811" y="-298.5" font-family="Helvetica,sans-Serif" font-size="10.00" fill="#000000">Framework/RootTableBuilder</text>
<text text-anchor="middle" x="1880.5" y="-287.5" font-family="Helvetica,sans-Serif" font-size="10.00" fill="#000000">Helpers.h</text>
</a>
</g>
</g>
<!-- Node0&#45;&gt;Node27 -->
<g id="edge35" class="edge">
<title>Node0&#45;&gt;Node27</title>
<path fill="none" stroke="#191970" d="M2233.3115,-351.5939C2153.3543,-338.8814 2043.7963,-321.4627 1968.0777,-309.4241"/>
<polygon fill="#191970" stroke="#191970" points="1968.5148,-305.9497 1958.0893,-307.836 1967.4156,-312.8629 1968.5148,-305.9497"/>
</g>
<!-- Node38 -->
<g id="node39" class="node">
<title>Node38</title>
<g id="a_node39"><a xlink:href="../../dd/da4/Logger_8h.html" target="_top" xlink:title="Framework/Logger.h">
<polygon fill="none" stroke="#000000" points="2365,-286 2365,-305 2480,-305 2480,-286 2365,-286"/>
<text text-anchor="middle" x="2422.5" y="-293" font-family="Helvetica,sans-Serif" font-size="10.00" fill="#000000">Framework/Logger.h</text>
</a>
</g>
</g>
<!-- Node0&#45;&gt;Node38 -->
<g id="edge60" class="edge">
<title>Node0&#45;&gt;Node38</title>
<path fill="none" stroke="#191970" d="M2360.9141,-347.4183C2374.3096,-336.1256 2390.6849,-322.3208 2403.1819,-311.7856"/>
<polygon fill="#191970" stroke="#191970" points="2405.74,-314.2068 2411.1298,-305.0853 2401.2282,-308.8549 2405.74,-314.2068"/>
</g>
<!-- Node39 -->
<g id="node40" class="node">
<title>Node39</title>
<polygon fill="none" stroke="#bfbfbf" points="2498.5,-286 2498.5,-305 2546.5,-305 2546.5,-286 2498.5,-286"/>
<text text-anchor="middle" x="2522.5" y="-293" font-family="Helvetica,sans-Serif" font-size="10.00" fill="#000000">TFile.h</text>
</g>
<!-- Node0&#45;&gt;Node39 -->
<g id="edge62" class="edge">
<title>Node0&#45;&gt;Node39</title>
<path fill="none" stroke="#191970" d="M2395.0652,-347.4647C2423.7485,-337.0825 2458.6644,-323.9596 2489.5,-311 2490.8494,-310.4329 2492.2243,-309.8417 2493.6091,-309.2355"/>
<polygon fill="#191970" stroke="#191970" points="2495.057,-312.4221 2502.7255,-305.1116 2492.1718,-306.0443 2495.057,-312.4221"/>
</g>
<!-- Node40 -->
<g id="node41" class="node">
<title>Node40</title>
<polygon fill="none" stroke="#bfbfbf" points="2564.5,-286 2564.5,-305 2624.5,-305 2624.5,-286 2564.5,-286"/>
<text text-anchor="middle" x="2594.5" y="-293" font-family="Helvetica,sans-Serif" font-size="10.00" fill="#000000">iostream</text>
</g>
<!-- Node0&#45;&gt;Node40 -->
<g id="edge63" class="edge">
<title>Node0&#45;&gt;Node40</title>
<path fill="none" stroke="#191970" d="M2425.6663,-347.4459C2465.6955,-337.5408 2513.3096,-324.8159 2555.5,-311 2557.6378,-310.2999 2559.8273,-309.5433 2562.0248,-308.7539"/>
<polygon fill="#191970" stroke="#191970" points="2563.451,-311.9568 2571.5758,-305.157 2560.9839,-305.4059 2563.451,-311.9568"/>
</g>
<!-- Node1&#45;&gt;Node2 -->
<g id="edge2" class="edge">
<title>Node1&#45;&gt;Node2</title>
<path fill="none" stroke="#191970" d="M1283.0072,-285.8845C1263.3793,-266.0028 1218.1026,-220.1406 1193.3726,-195.0908"/>
<polygon fill="#191970" stroke="#191970" points="1195.6402,-192.4058 1186.1239,-187.7484 1190.6587,-197.3237 1195.6402,-192.4058"/>
</g>
<!-- Node26 -->
<g id="node27" class="node">
<title>Node26</title>
<polygon fill="none" stroke="#bfbfbf" points="1267,-224.5 1267,-243.5 1314,-243.5 1314,-224.5 1267,-224.5"/>
<text text-anchor="middle" x="1290.5" y="-231.5" font-family="Helvetica,sans-Serif" font-size="10.00" fill="#000000">cmath</text>
</g>
<!-- Node1&#45;&gt;Node26 -->
<g id="edge34" class="edge">
<title>Node1&#45;&gt;Node26</title>
<path fill="none" stroke="#191970" d="M1292.1875,-285.8906C1291.9103,-277.3657 1291.4964,-264.6392 1291.1479,-253.9235"/>
<polygon fill="#191970" stroke="#191970" points="1294.6402,-253.6258 1290.8169,-243.7449 1287.6439,-253.8534 1294.6402,-253.6258"/>
</g>
<!-- Node3 -->
<g id="node4" class="node">
<title>Node3</title>
<g id="a_node4"><a xlink:href="../../de/d9b/FunctionalHelpers_8h.html" target="_top" xlink:title="Framework/FunctionalHelpers.h">
<polygon fill="none" stroke="#000000" points="1543.5,-56.5 1543.5,-75.5 1713.5,-75.5 1713.5,-56.5 1543.5,-56.5"/>
<text text-anchor="middle" x="1628.5" y="-63.5" font-family="Helvetica,sans-Serif" font-size="10.00" fill="#000000">Framework/FunctionalHelpers.h</text>
</a>
</g>
</g>
<!-- Node2&#45;&gt;Node3 -->
<g id="edge3" class="edge">
<title>Node2&#45;&gt;Node3</title>
<path fill="none" stroke="#191970" d="M1230.7307,-172.2592C1287.2608,-165.5263 1378.0979,-152.5918 1454.5,-132 1506.1745,-118.0728 1563.828,-94.5355 1598.0872,-79.656"/>
<polygon fill="#191970" stroke="#191970" points="1599.7673,-82.7411 1607.5205,-75.5203 1596.9566,-76.3301 1599.7673,-82.7411"/>
</g>
<!-- Node5 -->
<g id="node6" class="node">
<title>Node5</title>
<g id="a_node6"><a xlink:href="../../d9/de8/CompilerBuiltins_8h.html" target="_top" xlink:title="Framework/CompilerBuiltins.h">
<polygon fill="none" stroke="#000000" points="750.5,-56.5 750.5,-75.5 914.5,-75.5 914.5,-56.5 750.5,-56.5"/>
<text text-anchor="middle" x="832.5" y="-63.5" font-family="Helvetica,sans-Serif" font-size="10.00" fill="#000000">Framework/CompilerBuiltins.h</text>
</a>
</g>
</g>
<!-- Node2&#45;&gt;Node5 -->
<g id="edge5" class="edge">
<title>Node2&#45;&gt;Node5</title>
<path fill="none" stroke="#191970" d="M1122.4176,-174.2358C1071.3482,-169.2271 993.4226,-157.7748 930.5,-132 900.3768,-119.6607 869.9411,-97.2573 851.156,-82.009"/>
<polygon fill="#191970" stroke="#191970" points="853.3201,-79.2567 843.3879,-75.5684 848.8522,-84.6454 853.3201,-79.2567"/>
</g>
<!-- Node6 -->
<g id="node7" class="node">
<title>Node6</title>
<g id="a_node7"><a xlink:href="../../db/d31/Traits_8h.html" target="_top" xlink:title="Framework/Traits.h">
<polygon fill="none" stroke="#000000" points="143,-112.5 143,-131.5 252,-131.5 252,-112.5 143,-112.5"/>
<text text-anchor="middle" x="197.5" y="-119.5" font-family="Helvetica,sans-Serif" font-size="10.00" fill="#000000">Framework/Traits.h</text>
</a>
</g>
</g>
<!-- Node2&#45;&gt;Node6 -->
<g id="edge6" class="edge">
<title>Node2&#45;&gt;Node6</title>
<path fill="none" stroke="#191970" d="M1122.3735,-176.3957C983.183,-172.0125 601.4864,-158.3647 284.5,-132 277.3126,-131.4022 269.8016,-130.6826 262.3336,-129.9068"/>
<polygon fill="#191970" stroke="#191970" points="262.5277,-126.4076 252.2112,-128.8203 261.7806,-133.3676 262.5277,-126.4076"/>
</g>
<!-- Node8 -->
<g id="node9" class="node">
<title>Node8</title>
<g id="a_node9"><a xlink:href="../../d0/d91/Expressions_8h.html" target="_top" xlink:title="Framework/Expressions.h">
<polygon fill="none" stroke="#000000" points="940,-112.5 940,-131.5 1081,-131.5 1081,-112.5 940,-112.5"/>
<text text-anchor="middle" x="1010.5" y="-119.5" font-family="Helvetica,sans-Serif" font-size="10.00" fill="#000000">Framework/Expressions.h</text>
</a>
</g>
</g>
<!-- Node2&#45;&gt;Node8 -->
<g id="edge8" class="edge">
<title>Node2&#45;&gt;Node8</title>
<path fill="none" stroke="#191970" d="M1147.9636,-168.3733C1120.4798,-159.1016 1078.7314,-145.0178 1048.4548,-134.804"/>
<polygon fill="#191970" stroke="#191970" points="1049.2582,-131.3813 1038.664,-131.5011 1047.0206,-138.0141 1049.2582,-131.3813"/>
</g>
<!-- Node11 -->
<g id="node12" class="node">
<title>Node11</title>
<polygon fill="none" stroke="#bfbfbf" points="1732,-56.5 1732,-75.5 1813,-75.5 1813,-56.5 1732,-56.5"/>
<text text-anchor="middle" x="1772.5" y="-63.5" font-family="Helvetica,sans-Serif" font-size="10.00" fill="#000000">arrow/table.h</text>
</g>
<!-- Node2&#45;&gt;Node11 -->
<g id="edge27" class="edge">
<title>Node2&#45;&gt;Node11</title>
<path fill="none" stroke="#191970" d="M1230.5983,-171.8557C1294.7875,-164.2002 1404.9057,-149.9161 1498.5,-132 1579.9916,-116.4006 1673.7447,-92.5089 1727.7605,-78.1547"/>
<polygon fill="#191970" stroke="#191970" points="1728.9361,-81.4635 1737.6952,-75.503 1727.1309,-74.7003 1728.9361,-81.4635"/>
</g>
<!-- Node12 -->
<g id="node13" class="node">
<title>Node12</title>
<polygon fill="none" stroke="#bfbfbf" points="1316,-56.5 1316,-75.5 1463,-75.5 1463,-56.5 1316,-56.5"/>
<text text-anchor="middle" x="1389.5" y="-63.5" font-family="Helvetica,sans-Serif" font-size="10.00" fill="#000000">gandiva/selection_vector.h</text>
</g>
<!-- Node2&#45;&gt;Node12 -->
<g id="edge32" class="edge">
<title>Node2&#45;&gt;Node12</title>
<path fill="none" stroke="#191970" d="M1160.6711,-168.2885C1141.1692,-155.1337 1112.4707,-131.1015 1128.5,-112 1134.5238,-104.8217 1238.607,-88.1469 1313.4871,-76.9718"/>
<polygon fill="#191970" stroke="#191970" points="1314.0079,-80.4329 1323.3849,-75.5012 1312.979,-73.5089 1314.0079,-80.4329"/>
</g>
<!-- Node18 -->
<g id="node19" class="node">
<title>Node18</title>
<g id="a_node19"><a xlink:href="../../d0/d92/Kernels_8h.html" target="_top" xlink:title="Framework/Kernels.h">
<polygon fill="none" stroke="#000000" points="472,-112.5 472,-131.5 591,-131.5 591,-112.5 472,-112.5"/>
<text text-anchor="middle" x="531.5" y="-119.5" font-family="Helvetica,sans-Serif" font-size="10.00" fill="#000000">Framework/Kernels.h</text>
</a>
</g>
</g>
<!-- Node2&#45;&gt;Node18 -->
<g id="edge20" class="edge">
<title>Node2&#45;&gt;Node18</title>
<path fill="none" stroke="#191970" d="M1122.3406,-173.2978C1005.7178,-163.1724 730.9345,-139.3152 601.3932,-128.0682"/>
<polygon fill="#191970" stroke="#191970" points="601.4597,-124.5609 591.1944,-127.1828 600.8541,-131.5347 601.4597,-124.5609"/>
</g>
<!-- Node19 -->
<g id="node20" class="node">
<title>Node19</title>
<polygon fill="none" stroke="#bfbfbf" points="87,-56.5 87,-75.5 220,-75.5 220,-56.5 87,-56.5"/>
<text text-anchor="middle" x="153.5" y="-63.5" font-family="Helvetica,sans-Serif" font-size="10.00" fill="#000000">arrow/compute/kernel.h</text>
</g>
<!-- Node2&#45;&gt;Node19 -->
<g id="edge31" class="edge">
<title>Node2&#45;&gt;Node19</title>
<path fill="none" stroke="#191970" d="M1122.4887,-177.2089C1002.983,-174.8712 707.3594,-165.8529 462.5,-132 368.2409,-118.9683 259.8476,-93.294 199.7526,-78.0936"/>
<polygon fill="#191970" stroke="#191970" points="200.3743,-74.6403 189.8199,-75.5652 198.6474,-81.424 200.3743,-74.6403"/>
</g>
<!-- Node22 -->
<g id="node23" class="node">
<title>Node22</title>
<polygon fill="none" stroke="#bfbfbf" points="476.5,-56.5 476.5,-75.5 586.5,-75.5 586.5,-56.5 476.5,-56.5"/>
<text text-anchor="middle" x="531.5" y="-63.5" font-family="Helvetica,sans-Serif" font-size="10.00" fill="#000000">arrow/util/variant.h</text>
</g>
<!-- Node2&#45;&gt;Node22 -->
<g id="edge29" class="edge">
<title>Node2&#45;&gt;Node22</title>
<path fill="none" stroke="#191970" d="M1122.4835,-169.7279C1064.7475,-160.7961 970.5593,-145.966 889.5,-132 784.4275,-113.8966 662.3688,-90.9911 591.3422,-77.4745"/>
<polygon fill="#191970" stroke="#191970" points="591.7196,-73.9836 581.2412,-75.5501 590.4095,-80.8599 591.7196,-73.9836"/>
</g>
<!-- Node23 -->
<g id="node24" class="node">
<title>Node23</title>
<polygon fill="none" stroke="#bfbfbf" points="1137.5,-112.5 1137.5,-131.5 1217.5,-131.5 1217.5,-112.5 1137.5,-112.5"/>
<text text-anchor="middle" x="1177.5" y="-119.5" font-family="Helvetica,sans-Serif" font-size="10.00" fill="#000000">arrow/array.h</text>
</g>
<!-- Node2&#45;&gt;Node23 -->
<g id="edge28" class="edge">
<title>Node2&#45;&gt;Node23</title>
<path fill="none" stroke="#191970" d="M1176.6742,-168.2455C1176.8047,-160.9382 1176.9876,-150.6944 1177.1481,-141.7046"/>
<polygon fill="#191970" stroke="#191970" points="1180.6486,-141.7036 1177.3278,-131.6427 1173.6497,-141.5786 1180.6486,-141.7036"/>
</g>
<!-- Node24 -->
<g id="node25" class="node">
<title>Node24</title>
<polygon fill="none" stroke="#bfbfbf" points="1236,-112.5 1236,-131.5 1375,-131.5 1375,-112.5 1236,-112.5"/>
<text text-anchor="middle" x="1305.5" y="-119.5" font-family="Helvetica,sans-Serif" font-size="10.00" fill="#000000">arrow/compute/context.h</text>
</g>
<!-- Node2&#45;&gt;Node24 -->
<g id="edge30" class="edge">
<title>Node2&#45;&gt;Node24</title>
<path fill="none" stroke="#191970" d="M1198.6759,-168.3733C1219.4766,-159.3435 1250.7917,-145.7494 1274.1458,-135.6111"/>
<polygon fill="#191970" stroke="#191970" points="1275.8343,-138.6938 1283.6135,-131.5011 1273.0468,-132.2727 1275.8343,-138.6938"/>
</g>
<!-- Node25 -->
<g id="node26" class="node">
<title>Node25</title>
<polygon fill="none" stroke="#bfbfbf" points="1393.5,-112.5 1393.5,-131.5 1445.5,-131.5 1445.5,-112.5 1393.5,-112.5"/>
<text text-anchor="middle" x="1419.5" y="-119.5" font-family="Helvetica,sans-Serif" font-size="10.00" fill="#000000">cassert</text>
</g>
<!-- Node2&#45;&gt;Node25 -->
<g id="edge33" class="edge">
<title>Node2&#45;&gt;Node25</title>
<path fill="none" stroke="#191970" d="M1222.7028,-168.4556C1264.7605,-159.5961 1328.4966,-145.7409 1383.5,-132 1383.5983,-131.9754 1383.6968,-131.9508 1383.7954,-131.9261"/>
<polygon fill="#191970" stroke="#191970" points="1384.401,-135.3852 1393.1959,-129.4776 1382.6366,-128.6112 1384.401,-135.3852"/>
</g>
<!-- Node4 -->
<g id="node5" class="node">
<title>Node4</title>
<polygon fill="none" stroke="#bfbfbf" points="1702,-.5 1702,-19.5 1767,-19.5 1767,-.5 1702,-.5"/>
<text text-anchor="middle" x="1734.5" y="-7.5" font-family="Helvetica,sans-Serif" font-size="10.00" fill="#000000">functional</text>
</g>
<!-- Node3&#45;&gt;Node4 -->
<g id="edge4" class="edge">
<title>Node3&#45;&gt;Node4</title>
<path fill="none" stroke="#191970" d="M1646.9638,-56.2455C1663.6074,-47.4527 1688.2993,-34.4079 1707.2192,-24.4125"/>
<polygon fill="#191970" stroke="#191970" points="1709.0408,-27.4086 1716.2478,-19.6427 1705.7709,-21.2193 1709.0408,-27.4086"/>
</g>
<!-- Node7 -->
<g id="node8" class="node">
<title>Node7</title>
<polygon fill="none" stroke="#bfbfbf" points="0,-56.5 0,-75.5 69,-75.5 69,-56.5 0,-56.5"/>
<text text-anchor="middle" x="34.5" y="-63.5" font-family="Helvetica,sans-Serif" font-size="10.00" fill="#000000">type_traits</text>
</g>
<!-- Node6&#45;&gt;Node7 -->
<g id="edge7" class="edge">
<title>Node6&#45;&gt;Node7</title>
<path fill="none" stroke="#191970" d="M169.4793,-112.3733C142.4922,-103.1016 101.4983,-89.0178 71.7689,-78.804"/>
<polygon fill="#191970" stroke="#191970" points="72.7497,-75.4403 62.1551,-75.5011 70.4752,-82.0605 72.7497,-75.4403"/>
</g>
<!-- Node8&#45;&gt;Node3 -->
<g id="edge11" class="edge">
<title>Node8&#45;&gt;Node3</title>
<path fill="none" stroke="#191970" d="M1081.2545,-115.9517C1199.1096,-105.8507 1431.8723,-85.7823 1533.1998,-76.1059"/>
<polygon fill="#191970" stroke="#191970" points="1533.8343,-79.5611 1543.4528,-75.1185 1533.1633,-72.5933 1533.8343,-79.5611"/>
</g>
<!-- Node8&#45;&gt;Node5 -->
<g id="edge10" class="edge">
<title>Node8&#45;&gt;Node5</title>
<path fill="none" stroke="#191970" d="M979.9007,-112.3733C950.1739,-103.021 904.8841,-88.7725 872.3544,-78.5385"/>
<polygon fill="#191970" stroke="#191970" points="873.2895,-75.1636 862.7,-75.5011 871.1887,-81.8409 873.2895,-75.1636"/>
</g>
<!-- Node9 -->
<g id="node10" class="node">
<title>Node9</title>
<g id="a_node10"><a xlink:href="../../dd/dc2/BasicOps_8h.html" target="_top" xlink:title="Framework/BasicOps.h">
<polygon fill="none" stroke="#000000" points="604.5,-56.5 604.5,-75.5 732.5,-75.5 732.5,-56.5 604.5,-56.5"/>
<text text-anchor="middle" x="668.5" y="-63.5" font-family="Helvetica,sans-Serif" font-size="10.00" fill="#000000">Framework/BasicOps.h</text>
</a>
</g>
</g>
<!-- Node8&#45;&gt;Node9 -->
<g id="edge9" class="edge">
<title>Node8&#45;&gt;Node9</title>
<path fill="none" stroke="#191970" d="M952.0967,-112.4369C892.4594,-102.6717 799.9302,-87.5207 736.9035,-77.2006"/>
<polygon fill="#191970" stroke="#191970" points="737.0966,-73.6857 726.6624,-75.5237 735.9654,-80.5937 737.0966,-73.6857"/>
</g>
<!-- Node10 -->
<g id="node11" class="node">
<title>Node10</title>
<polygon fill="none" stroke="#bfbfbf" points="1109.5,-56.5 1109.5,-75.5 1187.5,-75.5 1187.5,-56.5 1109.5,-56.5"/>
<text text-anchor="middle" x="1148.5" y="-63.5" font-family="Helvetica,sans-Serif" font-size="10.00" fill="#000000">arrow/type.h</text>
</g>
<!-- Node8&#45;&gt;Node10 -->
<g id="edge12" class="edge">
<title>Node8&#45;&gt;Node10</title>
<path fill="none" stroke="#191970" d="M1034.223,-112.3733C1056.6737,-103.2629 1090.5739,-89.5062 1115.6255,-79.3404"/>
<polygon fill="#191970" stroke="#191970" points="1117.1365,-82.5045 1125.0865,-75.5011 1114.5043,-76.0182 1117.1365,-82.5045"/>
</g>
<!-- Node8&#45;&gt;Node11 -->
<g id="edge13" class="edge">
<title>Node8&#45;&gt;Node11</title>
<path fill="none" stroke="#191970" d="M1081.2995,-115.7218C1096.8449,-114.421 1113.2234,-113.1101 1128.5,-112 1388.94,-93.075 1458.4558,-109.584 1721.6675,-75.923"/>
<polygon fill="#191970" stroke="#191970" points="1722.4485,-79.3513 1731.9179,-74.5995 1721.552,-72.409 1722.4485,-79.3513"/>
</g>
<!-- Node8&#45;&gt;Node12 -->
<g id="edge14" class="edge">
<title>Node8&#45;&gt;Node12</title>
<path fill="none" stroke="#191970" d="M1075.2218,-112.4369C1141.7199,-102.6113 1245.1206,-87.3331 1314.9885,-77.0096"/>
<polygon fill="#191970" stroke="#191970" points="1315.6642,-80.4479 1325.0452,-75.5237 1314.6409,-73.523 1315.6642,-80.4479"/>
</g>
<!-- Node13 -->
<g id="node14" class="node">
<title>Node13</title>
<polygon fill="none" stroke="#bfbfbf" points="1205.5,-56.5 1205.5,-75.5 1297.5,-75.5 1297.5,-56.5 1205.5,-56.5"/>
<text text-anchor="middle" x="1251.5" y="-63.5" font-family="Helvetica,sans-Serif" font-size="10.00" fill="#000000">gandiva/node.h</text>
</g>
<!-- Node8&#45;&gt;Node13 -->
<g id="edge15" class="edge">
<title>Node8&#45;&gt;Node13</title>
<path fill="none" stroke="#191970" d="M1051.6555,-112.4369C1092.8142,-102.8731 1156.205,-88.1432 1200.5242,-77.845"/>
<polygon fill="#191970" stroke="#191970" points="1201.5659,-81.1963 1210.5142,-75.5237 1199.9815,-74.3779 1201.5659,-81.1963"/>
</g>
<!-- Node14 -->
<g id="node15" class="node">
<title>Node14</title>
<polygon fill="none" stroke="#bfbfbf" points="933,-56.5 933,-75.5 1022,-75.5 1022,-56.5 933,-56.5"/>
<text text-anchor="middle" x="977.5" y="-63.5" font-family="Helvetica,sans-Serif" font-size="10.00" fill="#000000">gandiva/filter.h</text>
</g>
<!-- Node8&#45;&gt;Node14 -->
<g id="edge16" class="edge">
<title>Node8&#45;&gt;Node14</title>
<path fill="none" stroke="#191970" d="M1004.7518,-112.2455C1000.2565,-104.617 993.8752,-93.7881 988.4175,-84.5267"/>
<polygon fill="#191970" stroke="#191970" points="991.2747,-82.4811 983.1823,-75.6427 985.2439,-86.035 991.2747,-82.4811"/>
</g>
<!-- Node15 -->
<g id="node16" class="node">
<title>Node15</title>
<polygon fill="none" stroke="#bfbfbf" points="1040,-56.5 1040,-75.5 1091,-75.5 1091,-56.5 1040,-56.5"/>
<text text-anchor="middle" x="1065.5" y="-63.5" font-family="Helvetica,sans-Serif" font-size="10.00" fill="#000000">variant</text>
</g>
<!-- Node8&#45;&gt;Node15 -->
<g id="edge17" class="edge">
<title>Node8&#45;&gt;Node15</title>
<path fill="none" stroke="#191970" d="M1020.0803,-112.2455C1028.0458,-104.1352 1039.5641,-92.4075 1049.0079,-82.7919"/>
<polygon fill="#191970" stroke="#191970" points="1051.5195,-85.2297 1056.0295,-75.6427 1046.5253,-80.3247 1051.5195,-85.2297"/>
</g>
<!-- Node16 -->
<g id="node17" class="node">
<title>Node16</title>
<polygon fill="none" stroke="#bfbfbf" points="1481.5,-56.5 1481.5,-75.5 1525.5,-75.5 1525.5,-56.5 1481.5,-56.5"/>
<text text-anchor="middle" x="1503.5" y="-63.5" font-family="Helvetica,sans-Serif" font-size="10.00" fill="#000000">string</text>
</g>
<!-- Node8&#45;&gt;Node16 -->
<g id="edge18" class="edge">
<title>Node8&#45;&gt;Node16</title>
<path fill="none" stroke="#191970" d="M1081.0504,-115.7572C1200.736,-105.0476 1434.2622,-83.5938 1471.5,-76 1471.5998,-75.9796 1471.6997,-75.9591 1471.7998,-75.9384"/>
<polygon fill="#191970" stroke="#191970" points="1472.413,-79.3926 1481.2718,-73.5812 1470.7225,-72.5998 1472.413,-79.3926"/>
</g>
<!-- Node8&#45;&gt;Node17 -->
<g id="edge19" class="edge">
<title>Node8&#45;&gt;Node17</title>
<path fill="none" stroke="#191970" d="M1081.289,-115.5703C1096.835,-114.2786 1113.2165,-113.0097 1128.5,-112 1489.6563,-88.1415 1927.2494,-71.9485 2059.0832,-67.3433"/>
<polygon fill="#191970" stroke="#191970" points="2059.2412,-70.84 2069.1135,-66.9947 2058.998,-63.8442 2059.2412,-70.84"/>
</g>
<!-- Node18&#45;&gt;Node9 -->
<g id="edge21" class="edge">
<title>Node18&#45;&gt;Node9</title>
<path fill="none" stroke="#191970" d="M555.0511,-112.3733C577.3391,-103.2629 610.9937,-89.5062 635.8637,-79.3404"/>
<polygon fill="#191970" stroke="#191970" points="637.3239,-82.5247 645.2562,-75.5011 634.6753,-76.0451 637.3239,-82.5247"/>
</g>
<!-- Node18&#45;&gt;Node16 -->
<g id="edge26" class="edge">
<title>Node18&#45;&gt;Node16</title>
<path fill="none" stroke="#191970" d="M591.1354,-119.9624C784.295,-113.2401 1385.2844,-91.3229 1471.5,-76 1471.6003,-75.9822 1471.7007,-75.9641 1471.8012,-75.9459"/>
<polygon fill="#191970" stroke="#191970" points="1472.357,-79.4103 1481.3,-73.7294 1470.7663,-72.5934 1472.357,-79.4103"/>
</g>
<!-- Node18&#45;&gt;Node19 -->
<g id="edge22" class="edge">
<title>Node18&#45;&gt;Node19</title>
<path fill="none" stroke="#191970" d="M471.6048,-113.1266C405.6311,-103.3528 299.4546,-87.6229 228.1205,-77.0549"/>
<polygon fill="#191970" stroke="#191970" points="228.2626,-73.5378 217.8576,-75.5345 227.2367,-80.4622 228.2626,-73.5378"/>
</g>
<!-- Node20 -->
<g id="node21" class="node">
<title>Node20</title>
<polygon fill="none" stroke="#bfbfbf" points="372.5,-56.5 372.5,-75.5 458.5,-75.5 458.5,-56.5 372.5,-56.5"/>
<text text-anchor="middle" x="415.5" y="-63.5" font-family="Helvetica,sans-Serif" font-size="10.00" fill="#000000">arrow/status.h</text>
</g>
<!-- Node18&#45;&gt;Node20 -->
<g id="edge23" class="edge">
<title>Node18&#45;&gt;Node20</title>
<path fill="none" stroke="#191970" d="M511.5589,-112.3733C493.0214,-103.4241 465.1972,-89.9917 444.2587,-79.8835"/>
<polygon fill="#191970" stroke="#191970" points="445.7081,-76.6967 435.1809,-75.5011 442.6648,-83.0006 445.7081,-76.6967"/>
</g>
<!-- Node21 -->
<g id="node22" class="node">
<title>Node21</title>
<polygon fill="none" stroke="#bfbfbf" points="238.5,-56.5 238.5,-75.5 354.5,-75.5 354.5,-56.5 238.5,-56.5"/>
<text text-anchor="middle" x="296.5" y="-63.5" font-family="Helvetica,sans-Serif" font-size="10.00" fill="#000000">arrow/util/visibility.h</text>
</g>
<!-- Node18&#45;&gt;Node21 -->
<g id="edge24" class="edge">
<title>Node18&#45;&gt;Node21</title>
<path fill="none" stroke="#191970" d="M491.3691,-112.4369C451.2351,-102.8731 389.4225,-88.1432 346.2067,-77.845"/>
<polygon fill="#191970" stroke="#191970" points="347.0044,-74.4372 336.4654,-75.5237 345.3817,-81.2465 347.0044,-74.4372"/>
</g>
<!-- Node18&#45;&gt;Node22 -->
<g id="edge25" class="edge">
<title>Node18&#45;&gt;Node22</title>
<path fill="none" stroke="#191970" d="M531.5,-112.2455C531.5,-104.9382 531.5,-94.6944 531.5,-85.7046"/>
<polygon fill="#191970" stroke="#191970" points="535.0001,-85.6426 531.5,-75.6427 528.0001,-85.6427 535.0001,-85.6426"/>
</g>
<!-- Node27&#45;&gt;Node11 -->
<g id="edge51" class="edge">
<title>Node27&#45;&gt;Node11</title>
<path fill="none" stroke="#191970" d="M1855.0583,-280.2972C1808.6348,-252.4353 1714.5539,-195.3599 1710.5,-188 1690.0203,-150.8188 1728.325,-106.1126 1753.3372,-82.4949"/>
<polygon fill="#191970" stroke="#191970" points="1755.8652,-84.9265 1760.8996,-75.6041 1751.1505,-79.7523 1755.8652,-84.9265"/>
</g>
<!-- Node27&#45;&gt;Node16 -->
<g id="edge57" class="edge">
<title>Node27&#45;&gt;Node16</title>
<path fill="none" stroke="#191970" d="M1802.9355,-292.9357C1671.7349,-287.7922 1417.5441,-274.0354 1390.5,-244 1384.5522,-237.3943 1387.7848,-232.464 1390.5,-224 1393.0804,-215.9563 1460.8604,-123.6928 1490.1856,-83.9887"/>
<polygon fill="#191970" stroke="#191970" points="1493.1594,-85.8537 1496.2895,-75.7318 1487.5304,-81.6925 1493.1594,-85.8537"/>
</g>
<!-- Node27&#45;&gt;Node17 -->
<g id="edge58" class="edge">
<title>Node27&#45;&gt;Node17</title>
<path fill="none" stroke="#191970" d="M1958.2356,-285.7573C2062.9351,-270.8562 2240.6658,-238.6819 2279.5,-188 2323.1469,-131.0372 2203.1791,-91.5906 2137.7726,-74.9154"/>
<polygon fill="#191970" stroke="#191970" points="2138.3257,-71.4466 2127.7771,-72.4355 2136.64,-78.2406 2138.3257,-71.4466"/>
</g>
<!-- Node28 -->
<g id="node29" class="node">
<title>Node28</title>
<g id="a_node29"><a xlink:href="../../d5/d98/TableBuilder_8h.html" target="_top" xlink:title="Framework/TableBuilder.h">
<polygon fill="none" stroke="#000000" points="1809.5,-224.5 1809.5,-243.5 1951.5,-243.5 1951.5,-224.5 1809.5,-224.5"/>
<text text-anchor="middle" x="1880.5" y="-231.5" font-family="Helvetica,sans-Serif" font-size="10.00" fill="#000000">Framework/TableBuilder.h</text>
</a>
</g>
</g>
<!-- Node27&#45;&gt;Node28 -->
<g id="edge36" class="edge">
<title>Node27&#45;&gt;Node28</title>
<path fill="none" stroke="#191970" d="M1880.5,-280.2977C1880.5,-272.3834 1880.5,-262.6043 1880.5,-254.0759"/>
<polygon fill="#191970" stroke="#191970" points="1884.0001,-253.8469 1880.5,-243.8469 1877.0001,-253.847 1884.0001,-253.8469"/>
</g>
<!-- Node30 -->
<g id="node31" class="node">
<title>Node30</title>
<polygon fill="none" stroke="#bfbfbf" points="1967.5,-168.5 1967.5,-187.5 2035.5,-187.5 2035.5,-168.5 1967.5,-168.5"/>
<text text-anchor="middle" x="2001.5" y="-175.5" font-family="Helvetica,sans-Serif" font-size="10.00" fill="#000000">arrow/stl.h</text>
</g>
<!-- Node27&#45;&gt;Node30 -->
<g id="edge49" class="edge">
<title>Node27&#45;&gt;Node30</title>
<path fill="none" stroke="#191970" d="M1922.676,-280.323C1940.9336,-271.9772 1961.323,-260.0132 1975.5,-244 1987.2096,-230.7738 1993.9598,-211.649 1997.632,-197.3878"/>
<polygon fill="#191970" stroke="#191970" points="2001.0509,-198.1374 1999.8713,-187.6084 1994.2275,-196.5749 2001.0509,-198.1374"/>
</g>
<!-- Node31 -->
<g id="node32" class="node">
<title>Node31</title>
<polygon fill="none" stroke="#bfbfbf" points="2054,-168.5 2054,-187.5 2163,-187.5 2163,-168.5 2054,-168.5"/>
<text text-anchor="middle" x="2108.5" y="-175.5" font-family="Helvetica,sans-Serif" font-size="10.00" fill="#000000">arrow/type_traits.h</text>
</g>
<!-- Node27&#45;&gt;Node31 -->
<g id="edge50" class="edge">
<title>Node27&#45;&gt;Node31</title>
<path fill="none" stroke="#191970" d="M1916.7121,-280.4703C1939.5947,-270.6828 1969.6239,-257.3019 1995.5,-244 2026.9333,-227.8413 2061.892,-206.949 2084.4839,-193.0432"/>
<polygon fill="#191970" stroke="#191970" points="2086.4158,-195.9637 2093.076,-187.724 2082.7311,-190.0119 2086.4158,-195.9637"/>
</g>
<!-- Node32 -->
<g id="node33" class="node">
<title>Node32</title>
<polygon fill="none" stroke="#bfbfbf" points="2181,-168.5 2181,-187.5 2270,-187.5 2270,-168.5 2181,-168.5"/>
<text text-anchor="middle" x="2225.5" y="-175.5" font-family="Helvetica,sans-Serif" font-size="10.00" fill="#000000">arrow/builder.h</text>
</g>
<!-- Node27&#45;&gt;Node32 -->
<g id="edge52" class="edge">
<title>Node27&#45;&gt;Node32</title>
<path fill="none" stroke="#191970" d="M1924.5449,-280.4992C1992.8276,-257.2435 2123.0619,-212.8883 2187.479,-190.9492"/>
<polygon fill="#191970" stroke="#191970" points="2188.8952,-194.1643 2197.2329,-187.6272 2186.6384,-187.5381 2188.8952,-194.1643"/>
</g>
<!-- Node33 -->
<g id="node34" class="node">
<title>Node33</title>
<polygon fill="none" stroke="#bfbfbf" points="1455,-168.5 1455,-187.5 1502,-187.5 1502,-168.5 1455,-168.5"/>
<text text-anchor="middle" x="1478.5" y="-175.5" font-family="Helvetica,sans-Serif" font-size="10.00" fill="#000000">vector</text>
</g>
<!-- Node27&#45;&gt;Node33 -->
<g id="edge56" class="edge">
<title>Node27&#45;&gt;Node33</title>
<path fill="none" stroke="#191970" d="M1802.8164,-292.7653C1673.5803,-287.4088 1425.9189,-273.3985 1399.5,-244 1380.4499,-222.8014 1415.7902,-202.4021 1445.1495,-190.0325"/>
<polygon fill="#191970" stroke="#191970" points="1446.8176,-193.1342 1454.7896,-186.1559 1444.2058,-186.6396 1446.8176,-193.1342"/>
</g>
<!-- Node34 -->
<g id="node35" class="node">
<title>Node34</title>
<polygon fill="none" stroke="#bfbfbf" points="1908,-168.5 1908,-187.5 1949,-187.5 1949,-168.5 1908,-168.5"/>
<text text-anchor="middle" x="1928.5" y="-175.5" font-family="Helvetica,sans-Serif" font-size="10.00" fill="#000000">tuple</text>
</g>
<!-- Node27&#45;&gt;Node34 -->
<g id="edge59" class="edge">
<title>Node27&#45;&gt;Node34</title>
<path fill="none" stroke="#191970" d="M1919.551,-280.3629C1935.2201,-272.128 1951.6401,-260.2406 1960.5,-244 1969.3886,-227.7069 1957.7834,-208.5728 1946.1389,-195.114"/>
<polygon fill="#191970" stroke="#191970" points="1948.4507,-192.4615 1939.0664,-187.5435 1943.3355,-197.2402 1948.4507,-192.4615"/>
</g>
<!-- Node35 -->
<g id="node36" class="node">
<title>Node35</title>
<polygon fill="none" stroke="#bfbfbf" points="1409,-224.5 1409,-243.5 1494,-243.5 1494,-224.5 1409,-224.5"/>
<text text-anchor="middle" x="1451.5" y="-231.5" font-family="Helvetica,sans-Serif" font-size="10.00" fill="#000000">TTreeReader.h</text>
</g>
<!-- Node27&#45;&gt;Node35 -->
<g id="edge53" class="edge">
<title>Node27&#45;&gt;Node35</title>
<path fill="none" stroke="#191970" d="M1802.8392,-286.2609C1728.6012,-277.1229 1613.2983,-262.1341 1504.2376,-244.2202"/>
<polygon fill="#191970" stroke="#191970" points="1504.4802,-240.7129 1494.0431,-242.534 1503.3379,-247.619 1504.4802,-240.7129"/>
</g>
<!-- Node36 -->
<g id="node37" class="node">
<title>Node36</title>
<polygon fill="none" stroke="#bfbfbf" points="1512,-224.5 1512,-243.5 1625,-243.5 1625,-224.5 1512,-224.5"/>
<text text-anchor="middle" x="1568.5" y="-231.5" font-family="Helvetica,sans-Serif" font-size="10.00" fill="#000000">TTreeReaderValue.h</text>
</g>
<!-- Node27&#45;&gt;Node36 -->
<g id="edge54" class="edge">
<title>Node27&#45;&gt;Node36</title>
<path fill="none" stroke="#191970" d="M1804.1762,-280.4554C1749.4925,-269.6764 1676.9539,-255.3779 1626.8679,-245.5052"/>
<polygon fill="#191970" stroke="#191970" points="1627.337,-242.0304 1616.8489,-243.5303 1625.9832,-248.8983 1627.337,-242.0304"/>
</g>
<!-- Node37 -->
<g id="node38" class="node">
<title>Node37</title>
<polygon fill="none" stroke="#bfbfbf" points="1643.5,-224.5 1643.5,-243.5 1753.5,-243.5 1753.5,-224.5 1643.5,-224.5"/>
<text text-anchor="middle" x="1698.5" y="-231.5" font-family="Helvetica,sans-Serif" font-size="10.00" fill="#000000">TTreeReaderArray.h</text>
</g>
<!-- Node27&#45;&gt;Node37 -->
<g id="edge55" class="edge">
<title>Node27&#45;&gt;Node37</title>
<path fill="none" stroke="#191970" d="M1835.9778,-280.4554C1805.4774,-270.149 1765.455,-256.6249 1736.4642,-246.8286"/>
<polygon fill="#191970" stroke="#191970" points="1737.2978,-243.4159 1726.7035,-243.5303 1735.0568,-250.0475 1737.2978,-243.4159"/>
</g>
<!-- Node28&#45;&gt;Node2 -->
<g id="edge37" class="edge">
<title>Node28&#45;&gt;Node2</title>
<path fill="none" stroke="#191970" d="M1809.3716,-227.9003C1793.9205,-226.5954 1777.6636,-225.2377 1762.5,-224 1572.8252,-208.5185 1348.5307,-191.1824 1240.7045,-182.9089"/>
<polygon fill="#191970" stroke="#191970" points="1240.8768,-179.4119 1230.6384,-182.1369 1240.3414,-186.3914 1240.8768,-179.4119"/>
</g>
<!-- Node28&#45;&gt;Node3 -->
<g id="edge38" class="edge">
<title>Node28&#45;&gt;Node3</title>
<path fill="none" stroke="#191970" d="M1809.4507,-226.3072C1776.9401,-220.0363 1739.3323,-208.6551 1710.5,-188 1673.3208,-161.3653 1648.0108,-112.2342 1636.1721,-85.1561"/>
<polygon fill="#191970" stroke="#191970" points="1639.2749,-83.5054 1632.1734,-75.6428 1632.8218,-86.2178 1639.2749,-83.5054"/>
</g>
<!-- Node28&#45;&gt;Node4 -->
<g id="edge44" class="edge">
<title>Node28&#45;&gt;Node4</title>
<path fill="none" stroke="#191970" d="M1879.859,-224.2872C1877.4715,-195.33 1866.788,-108.3609 1822.5,-56 1810.1224,-41.3662 1791.898,-30.767 1775.2398,-23.4581"/>
<polygon fill="#191970" stroke="#191970" points="1776.2488,-20.0889 1765.6687,-19.5293 1773.5906,-26.5646 1776.2488,-20.0889"/>
</g>
<!-- Node28&#45;&gt;Node11 -->
<g id="edge42" class="edge">
<title>Node28&#45;&gt;Node11</title>
<path fill="none" stroke="#191970" d="M1866.3766,-224.4123C1854.7315,-215.9343 1838.4106,-202.6614 1827.5,-188 1803.3351,-155.5278 1786.5881,-110.7502 1778.3543,-85.455"/>
<polygon fill="#191970" stroke="#191970" points="1781.5974,-84.1 1775.2617,-75.6082 1774.919,-86.1975 1781.5974,-84.1"/>
</g>
<!-- Node28&#45;&gt;Node16 -->
<g id="edge46" class="edge">
<title>Node28&#45;&gt;Node16</title>
<path fill="none" stroke="#191970" d="M1813.2491,-224.4305C1774.4989,-217.4074 1725.4989,-205.9074 1684.5,-188 1620.0618,-159.8549 1553.9445,-108.4153 1522.436,-82.2365"/>
<polygon fill="#191970" stroke="#191970" points="1524.4038,-79.3184 1514.4969,-75.563 1519.8996,-84.6768 1524.4038,-79.3184"/>
</g>
<!-- Node28&#45;&gt;Node17 -->
<g id="edge47" class="edge">
<title>Node28&#45;&gt;Node17</title>
<path fill="none" stroke="#191970" d="M1880.9228,-224.3844C1882.0076,-210.4681 1885.8594,-184.5704 1899.5,-168 1941.2488,-117.2843 2014.744,-89.0505 2059.7818,-75.7352"/>
<polygon fill="#191970" stroke="#191970" points="2060.8299,-79.0759 2069.4861,-72.9668 2058.9096,-72.3444 2060.8299,-79.0759"/>
</g>
<!-- Node29 -->
<g id="node30" class="node">
<title>Node29</title>
<polygon fill="none" stroke="#bfbfbf" points="1719.5,-168.5 1719.5,-187.5 1775.5,-187.5 1775.5,-168.5 1719.5,-168.5"/>
<text text-anchor="middle" x="1747.5" y="-175.5" font-family="Helvetica,sans-Serif" font-size="10.00" fill="#000000">sstream</text>
</g>
<!-- Node28&#45;&gt;Node29 -->
<g id="edge39" class="edge">
<title>Node28&#45;&gt;Node29</title>
<path fill="none" stroke="#191970" d="M1857.6365,-224.3733C1836.095,-215.3032 1803.6162,-201.6279 1779.5044,-191.4755"/>
<polygon fill="#191970" stroke="#191970" points="1780.6397,-188.156 1770.0652,-187.5011 1777.9233,-194.6075 1780.6397,-188.156"/>
</g>
<!-- Node28&#45;&gt;Node30 -->
<g id="edge40" class="edge">
<title>Node28&#45;&gt;Node30</title>
<path fill="none" stroke="#191970" d="M1901.3006,-224.3733C1920.7243,-215.3838 1949.9224,-201.8706 1971.7964,-191.7471"/>
<polygon fill="#191970" stroke="#191970" points="1973.3656,-194.8776 1980.9708,-187.5011 1970.4255,-188.5249 1973.3656,-194.8776"/>
</g>
<!-- Node28&#45;&gt;Node31 -->
<g id="edge41" class="edge">
<title>Node28&#45;&gt;Node31</title>
<path fill="none" stroke="#191970" d="M1919.4355,-224.4369C1958.292,-214.8932 2018.093,-200.2052 2060.0089,-189.9101"/>
<polygon fill="#191970" stroke="#191970" points="2060.8486,-193.308 2069.7251,-187.5237 2059.1788,-186.51 2060.8486,-193.308"/>
</g>
<!-- Node28&#45;&gt;Node32 -->
<g id="edge43" class="edge">
<title>Node28&#45;&gt;Node32</title>
<path fill="none" stroke="#191970" d="M1944.6758,-224.4605C2001.6444,-215.8621 2087.4095,-202.6005 2171.0603,-188.2141"/>
<polygon fill="#191970" stroke="#191970" points="2171.7262,-191.651 2180.9847,-186.5002 2170.5349,-184.7531 2171.7262,-191.651"/>
</g>
<!-- Node28&#45;&gt;Node33 -->
<g id="edge45" class="edge">
<title>Node28&#45;&gt;Node33</title>
<path fill="none" stroke="#191970" d="M1811.8505,-224.4369C1724.969,-212.334 1578.6984,-191.958 1512.6666,-182.7595"/>
<polygon fill="#191970" stroke="#191970" points="1512.796,-179.2438 1502.4087,-181.3306 1511.8302,-186.1769 1512.796,-179.2438"/>
</g>
<!-- Node28&#45;&gt;Node34 -->
<g id="edge48" class="edge">
<title>Node28&#45;&gt;Node34</title>
<path fill="none" stroke="#191970" d="M1888.861,-224.2455C1895.675,-216.2958 1905.4681,-204.8706 1913.6152,-195.3656"/>
<polygon fill="#191970" stroke="#191970" points="1916.3843,-197.513 1920.2349,-187.6427 1911.0695,-192.9575 1916.3843,-197.513"/>
</g>
</g>
</svg>
