<?xml version="1.0" encoding="UTF-8" standalone="no"?>
<!DOCTYPE svg PUBLIC "-//W3C//DTD SVG 1.1//EN"
 "http://www.w3.org/Graphics/SVG/1.1/DTD/svg11.dtd">
<!-- Generated by graphviz version 2.40.1 (20161225.0304)
 -->
<!-- Title: /home/travis/build/AliceO2Group/AliceO2/DataFormats/Detectors/ITSMFT/common/include/DataFormatsITSMFT/TopologyDictionary.h Pages: 1 -->
<!--zoomable 642 -->
<svg id="main" version="1.1" xmlns="http://www.w3.org/2000/svg" xmlns:xlink="http://www.w3.org/1999/xlink" xml:space="preserve" onload="init(evt)">
<style type="text/css"><![CDATA[
.edge:hover path { stroke: red; }
.edge:hover polygon { stroke: red; fill: red; }
]]></style>
<script type="text/javascript"><![CDATA[
var edges = document.getElementsByTagName('g');
if (edges && edges.length) {
  for (var i=0;i<edges.length;i++) {
    if (edges[i].id.substr(0,4)=='edge') {
      edges[i].setAttribute('class','edge');
    }
  }
}
]]></script>
        <defs>
                <circle id="rim" cx="0" cy="0" r="7"/>
                <circle id="rim2" cx="0" cy="0" r="3.5"/>
                <g id="zoomPlus">
                        <use xlink:href="#rim" fill="#404040">
                                <set attributeName="fill" to="#808080" begin="zoomplus.mouseover" end="zoomplus.mouseout"/>
                        </use>
                        <path d="M-4,0h8M0,-4v8" fill="none" stroke="white" stroke-width="1.5" pointer-events="none"/>
                </g>
                <g id="zoomMin">
                        <use xlink:href="#rim" fill="#404040">
                                <set attributeName="fill" to="#808080" begin="zoomminus.mouseover" end="zoomminus.mouseout"/>
                        </use>
                        <path d="M-4,0h8" fill="none" stroke="white" stroke-width="1.5" pointer-events="none"/>
                </g>
                <g id="dirArrow">
                        <path fill="none" stroke="white" stroke-width="1.5" d="M0,-3.0v7 M-2.5,-0.5L0,-3.0L2.5,-0.5"/>
                </g>
               <g id="resetDef">
                       <use xlink:href="#rim2" fill="#404040">
                               <set attributeName="fill" to="#808080" begin="reset.mouseover" end="reset.mouseout"/>
                       </use>
               </g>
        </defs>

<script type="text/javascript">
var viewWidth = 2220;
var viewHeight = 642;
var sectionId = 'dynsection-0';
</script>
<script xlink:href="../../svgpan.js"/>
<svg id="graph" class="graph">
<g id="viewport">
<title>/home/travis/build/AliceO2Group/AliceO2/DataFormats/Detectors/ITSMFT/common/include/DataFormatsITSMFT/TopologyDictionary.h</title>
<!-- Node0 -->
<g id="node1" class="node">
<title>Node0</title>
<polygon fill="#bfbfbf" stroke="#000000" points="896,-570.5 896,-633.5 1117,-633.5 1117,-570.5 896,-570.5"/>
<text text-anchor="start" x="904" y="-621.5" font-family="Helvetica,sans-Serif" font-size="10.00" fill="#000000">/home/travis/build</text>
<text text-anchor="start" x="904" y="-610.5" font-family="Helvetica,sans-Serif" font-size="10.00" fill="#000000">/AliceO2Group/AliceO2</text>
<text text-anchor="start" x="904" y="-599.5" font-family="Helvetica,sans-Serif" font-size="10.00" fill="#000000">/DataFormats/Detectors</text>
<text text-anchor="start" x="904" y="-588.5" font-family="Helvetica,sans-Serif" font-size="10.00" fill="#000000">/ITSMFT/common/include</text>
<text text-anchor="middle" x="1006.5" y="-577.5" font-family="Helvetica,sans-Serif" font-size="10.00" fill="#000000">/DataFormatsITSMFT/TopologyDictionary.h</text>
</g>
<!-- Node1 -->
<g id="node2" class="node">
<title>Node1</title>
<g id="a_node2"><a xlink:href="../../de/dc1/ClusterPattern_8h.html" target="_top" xlink:title="DataFormatsITSMFT/Cluster\lPattern.h">
<polygon fill="none" stroke="#000000" points="1278.5,-503.5 1278.5,-533.5 1430.5,-533.5 1430.5,-503.5 1278.5,-503.5"/>
<text text-anchor="start" x="1286.5" y="-521.5" font-family="Helvetica,sans-Serif" font-size="10.00" fill="#000000">DataFormatsITSMFT/Cluster</text>
<text text-anchor="middle" x="1354.5" y="-510.5" font-family="Helvetica,sans-Serif" font-size="10.00" fill="#000000">Pattern.h</text>
</a>
</g>
</g>
<!-- Node0&#45;&gt;Node1 -->
<g id="edge1" class="edge">
<title>Node0&#45;&gt;Node1</title>
<path fill="none" stroke="#191970" d="M1117.0875,-575.4653C1170.9713,-562.5363 1234.2541,-547.3521 1281.9286,-535.913"/>
<polygon fill="#191970" stroke="#191970" points="1282.9486,-539.2677 1291.8559,-533.531 1281.3153,-532.4609 1282.9486,-539.2677"/>
</g>
<!-- Node16 -->
<g id="node17" class="node">
<title>Node16</title>
<polygon fill="none" stroke="#bfbfbf" points="801,-252 801,-271 848,-271 848,-252 801,-252"/>
<text text-anchor="middle" x="824.5" y="-259" font-family="Helvetica,sans-Serif" font-size="10.00" fill="#000000">vector</text>
</g>
<!-- Node0&#45;&gt;Node16 -->
<g id="edge55" class="edge">
<title>Node0&#45;&gt;Node16</title>
<path fill="none" stroke="#191970" d="M895.9447,-570.7464C844.0802,-548.6557 793.5,-512.8062 793.5,-457 793.5,-457 793.5,-457 793.5,-395.5 793.5,-353.713 807.9863,-306.4384 817.1534,-280.7059"/>
<polygon fill="#191970" stroke="#191970" points="820.5285,-281.6688 820.6988,-271.0753 813.9595,-279.2505 820.5285,-281.6688"/>
</g>
<!-- Node29 -->
<g id="node30" class="node">
<title>Node29</title>
<g id="a_node30"><a xlink:href="../../dd/d76/Cartesian3D_8h.html" target="_top" xlink:title="MathUtils/Cartesian3D.h">
<polygon fill="none" stroke="#000000" points="958,-252 958,-271 1093,-271 1093,-252 958,-252"/>
<text text-anchor="middle" x="1025.5" y="-259" font-family="Helvetica,sans-Serif" font-size="10.00" fill="#000000">MathUtils/Cartesian3D.h</text>
</a>
</g>
</g>
<!-- Node0&#45;&gt;Node29 -->
<g id="edge56" class="edge">
<title>Node0&#45;&gt;Node29</title>
<path fill="none" stroke="#191970" d="M924.892,-570.4852C879.269,-546.9817 831.5,-509.7724 831.5,-457 831.5,-457 831.5,-457 831.5,-395.5 831.5,-326.8157 914.843,-290.6016 972.2762,-273.8001"/>
<polygon fill="#191970" stroke="#191970" points="973.2833,-277.1527 981.9626,-271.0765 971.3885,-270.414 973.2833,-277.1527"/>
</g>
<!-- Node39 -->
<g id="node40" class="node">
<title>Node39</title>
<g id="a_node40"><a xlink:href="../../dd/da4/Logger_8h.html" target="_top" xlink:title="Framework/Logger.h">
<polygon fill="none" stroke="#000000" points="898,-509 898,-528 1013,-528 1013,-509 898,-509"/>
<text text-anchor="middle" x="955.5" y="-516" font-family="Helvetica,sans-Serif" font-size="10.00" fill="#000000">Framework/Logger.h</text>
</a>
</g>
</g>
<!-- Node0&#45;&gt;Node39 -->
<g id="edge51" class="edge">
<title>Node0&#45;&gt;Node39</title>
<path fill="none" stroke="#191970" d="M987.2191,-570.4322C980.3646,-559.2097 972.8717,-546.9419 966.8903,-537.1489"/>
<polygon fill="#191970" stroke="#191970" points="969.6919,-535.0209 961.4925,-528.3112 963.718,-538.6697 969.6919,-535.0209"/>
</g>
<!-- Node40 -->
<g id="node41" class="node">
<title>Node40</title>
<polygon fill="none" stroke="#bfbfbf" points="1031,-509 1031,-528 1086,-528 1086,-509 1031,-509"/>
<text text-anchor="middle" x="1058.5" y="-516" font-family="Helvetica,sans-Serif" font-size="10.00" fill="#000000">fstream</text>
</g>
<!-- Node0&#45;&gt;Node40 -->
<g id="edge52" class="edge">
<title>Node0&#45;&gt;Node40</title>
<path fill="none" stroke="#191970" d="M1026.159,-570.4322C1033.2206,-559.0928 1040.9469,-546.6862 1047.0764,-536.8437"/>
<polygon fill="#191970" stroke="#191970" points="1050.0747,-538.65 1052.39,-528.3112 1044.1327,-534.9495 1050.0747,-538.65"/>
</g>
<!-- Node41 -->
<g id="node42" class="node">
<title>Node41</title>
<polygon fill="none" stroke="#bfbfbf" points="1104.5,-509 1104.5,-528 1148.5,-528 1148.5,-509 1104.5,-509"/>
<text text-anchor="middle" x="1126.5" y="-516" font-family="Helvetica,sans-Serif" font-size="10.00" fill="#000000">string</text>
</g>
<!-- Node0&#45;&gt;Node41 -->
<g id="edge53" class="edge">
<title>Node0&#45;&gt;Node41</title>
<path fill="none" stroke="#191970" d="M1051.8669,-570.4322C1069.7849,-557.9642 1089.5573,-544.206 1104.2467,-533.9846"/>
<polygon fill="#191970" stroke="#191970" points="1106.4648,-536.7052 1112.6741,-528.1205 1102.4666,-530.9593 1106.4648,-536.7052"/>
</g>
<!-- Node42 -->
<g id="node43" class="node">
<title>Node42</title>
<polygon fill="none" stroke="#bfbfbf" points="1167,-509 1167,-528 1260,-528 1260,-509 1167,-509"/>
<text text-anchor="middle" x="1213.5" y="-516" font-family="Helvetica,sans-Serif" font-size="10.00" fill="#000000">unordered_map</text>
</g>
<!-- Node0&#45;&gt;Node42 -->
<g id="edge54" class="edge">
<title>Node0&#45;&gt;Node42</title>
<path fill="none" stroke="#191970" d="M1084.7578,-570.4322C1117.8534,-557.0821 1154.6163,-542.2526 1180.3557,-531.8698"/>
<polygon fill="#191970" stroke="#191970" points="1181.6857,-535.1074 1189.6503,-528.1205 1179.067,-528.6157 1181.6857,-535.1074"/>
</g>
<!-- Node43 -->
<g id="node44" class="node">
<title>Node43</title>
<g id="a_node44"><a xlink:href="../../df/de4/CompCluster_8h.html" target="_top" xlink:title="Definition of the ITSMFT compact cluster. ">
<polygon fill="none" stroke="#000000" points="859.5,-447.5 859.5,-466.5 1047.5,-466.5 1047.5,-447.5 859.5,-447.5"/>
<text text-anchor="middle" x="953.5" y="-454.5" font-family="Helvetica,sans-Serif" font-size="10.00" fill="#000000">DataFormatsITSMFT/CompCluster.h</text>
</a>
</g>
</g>
<!-- Node0&#45;&gt;Node43 -->
<g id="edge57" class="edge">
<title>Node0&#45;&gt;Node43</title>
<path fill="none" stroke="#191970" d="M926.0265,-570.4167C911.4241,-560.9451 898.1125,-548.967 889.5,-534 882.6283,-522.0582 883.2136,-515.26 889.5,-503 896.433,-489.4789 909.3936,-479.0326 921.8481,-471.5377"/>
<polygon fill="#191970" stroke="#191970" points="923.6928,-474.5168 930.734,-466.6001 920.2928,-468.3979 923.6928,-474.5168"/>
</g>
<!-- Node2 -->
<g id="node3" class="node">
<title>Node2</title>
<polygon fill="none" stroke="#bfbfbf" points="1267,-185 1267,-204 1326,-204 1326,-185 1267,-185"/>
<text text-anchor="middle" x="1296.5" y="-192" font-family="Helvetica,sans-Serif" font-size="10.00" fill="#000000">Rtypes.h</text>
</g>
<!-- Node1&#45;&gt;Node2 -->
<g id="edge2" class="edge">
<title>Node1&#45;&gt;Node2</title>
<path fill="none" stroke="#191970" d="M1287.2529,-503.4196C1233.6418,-486.9589 1167.5,-454.6623 1167.5,-395.5 1167.5,-395.5 1167.5,-395.5 1167.5,-328.5 1167.5,-290.0556 1168.5509,-275.2492 1193.5,-246 1203.2066,-234.6205 1236.7523,-218.9502 1262.9547,-207.8921"/>
<polygon fill="#191970" stroke="#191970" points="1264.3265,-211.1123 1272.2183,-204.0432 1261.6407,-204.648 1264.3265,-211.1123"/>
</g>
<!-- Node3 -->
<g id="node4" class="node">
<title>Node3</title>
<polygon fill="none" stroke="#bfbfbf" points="1541.5,-118 1541.5,-137 1583.5,-137 1583.5,-118 1541.5,-118"/>
<text text-anchor="middle" x="1562.5" y="-125" font-family="Helvetica,sans-Serif" font-size="10.00" fill="#000000">array</text>
</g>
<!-- Node1&#45;&gt;Node3 -->
<g id="edge3" class="edge">
<title>Node1&#45;&gt;Node3</title>
<path fill="none" stroke="#191970" d="M1430.5271,-515.712C1571.7837,-508.4484 1860.5,-482.9107 1860.5,-395.5 1860.5,-395.5 1860.5,-395.5 1860.5,-261.5 1860.5,-223.8735 1868.6825,-205.0166 1841.5,-179 1832.5307,-170.4154 1664.5847,-143.4014 1593.6755,-132.3176"/>
<polygon fill="#191970" stroke="#191970" points="1593.9766,-128.8224 1583.557,-130.7413 1592.899,-135.739 1593.9766,-128.8224"/>
</g>
<!-- Node4 -->
<g id="node5" class="node">
<title>Node4</title>
<polygon fill="none" stroke="#bfbfbf" points="0,-185 0,-204 49,-204 49,-185 0,-185"/>
<text text-anchor="middle" x="24.5" y="-192" font-family="Helvetica,sans-Serif" font-size="10.00" fill="#000000">iosfwd</text>
</g>
<!-- Node1&#45;&gt;Node4 -->
<g id="edge4" class="edge">
<title>Node1&#45;&gt;Node4</title>
<path fill="none" stroke="#191970" d="M1289.8243,-503.4303C1257.8928,-494.8106 1219.2862,-482.5866 1186.5,-467 1176.5362,-462.2632 866.9808,-249.4449 856.5,-246 687.6512,-190.5018 230.0536,-252.6054 57.5,-210 55.3031,-209.4576 53.0763,-208.7644 50.8707,-207.9731"/>
<polygon fill="#191970" stroke="#191970" points="52.0713,-204.6813 41.4959,-204.0395 49.3628,-211.1361 52.0713,-204.6813"/>
</g>
<!-- Node5 -->
<g id="node6" class="node">
<title>Node5</title>
<g id="a_node6"><a xlink:href="../../d1/d62/DataFormats_2Detectors_2ITSMFT_2common_2include_2DataFormatsITSMFT_2Cluster_8h.html" target="_top" xlink:title="DataFormatsITSMFT/Cluster.h">
<polygon fill="none" stroke="#000000" points="1287.5,-447.5 1287.5,-466.5 1447.5,-466.5 1447.5,-447.5 1287.5,-447.5"/>
<text text-anchor="middle" x="1367.5" y="-454.5" font-family="Helvetica,sans-Serif" font-size="10.00" fill="#000000">DataFormatsITSMFT/Cluster.h</text>
</a>
</g>
</g>
<!-- Node1&#45;&gt;Node5 -->
<g id="edge5" class="edge">
<title>Node1&#45;&gt;Node5</title>
<path fill="none" stroke="#191970" d="M1357.7135,-503.2977C1359.4052,-495.2945 1361.5001,-485.3843 1363.317,-476.7889"/>
<polygon fill="#191970" stroke="#191970" points="1366.7747,-477.3546 1365.4185,-466.8469 1359.926,-475.9069 1366.7747,-477.3546"/>
</g>
<!-- Node6 -->
<g id="node7" class="node">
<title>Node6</title>
<g id="a_node7"><a xlink:href="../../d4/de2/BaseCluster_8h.html" target="_top" xlink:title="ReconstructionDataFormats\l/BaseCluster.h">
<polygon fill="none" stroke="#000000" points="1317.5,-380.5 1317.5,-410.5 1469.5,-410.5 1469.5,-380.5 1317.5,-380.5"/>
<text text-anchor="start" x="1325.5" y="-398.5" font-family="Helvetica,sans-Serif" font-size="10.00" fill="#000000">ReconstructionDataFormats</text>
<text text-anchor="middle" x="1393.5" y="-387.5" font-family="Helvetica,sans-Serif" font-size="10.00" fill="#000000">/BaseCluster.h</text>
</a>
</g>
</g>
<!-- Node5&#45;&gt;Node6 -->
<g id="edge6" class="edge">
<title>Node5&#45;&gt;Node6</title>
<path fill="none" stroke="#191970" d="M1371.5625,-447.3906C1374.6903,-439.9922 1379.156,-429.4291 1383.2428,-419.7623"/>
<polygon fill="#191970" stroke="#191970" points="1386.4694,-421.1182 1387.1397,-410.5446 1380.0219,-418.3924 1386.4694,-421.1182"/>
</g>
<!-- Node6&#45;&gt;Node4 -->
<g id="edge11" class="edge">
<title>Node6&#45;&gt;Node4</title>
<path fill="none" stroke="#191970" d="M1317.4088,-382.4715C1267.5588,-373.2886 1201.1909,-359.8328 1143.5,-344 1055.5332,-319.8582 1030.6977,-318.5683 949.5,-277 928.2065,-266.099 928.1456,-253.7086 905.5,-246 726.9471,-185.2203 240.6735,-254.9751 57.5,-210 55.3024,-209.4604 53.0751,-208.7693 50.8691,-207.9794"/>
<polygon fill="#191970" stroke="#191970" points="52.0692,-204.6874 41.4937,-204.0485 49.3625,-211.143 52.0692,-204.6874"/>
</g>
<!-- Node7 -->
<g id="node8" class="node">
<title>Node7</title>
<polygon fill="none" stroke="#bfbfbf" points="1234,-319 1234,-338 1297,-338 1297,-319 1234,-319"/>
<text text-anchor="middle" x="1265.5" y="-326" font-family="Helvetica,sans-Serif" font-size="10.00" fill="#000000">TObject.h</text>
</g>
<!-- Node6&#45;&gt;Node7 -->
<g id="edge7" class="edge">
<title>Node6&#45;&gt;Node7</title>
<path fill="none" stroke="#191970" d="M1364.7743,-380.4639C1343.2975,-369.2222 1314.1138,-353.9463 1292.9505,-342.8686"/>
<polygon fill="#191970" stroke="#191970" points="1294.3306,-339.6406 1283.8478,-338.1039 1291.0843,-345.8423 1294.3306,-339.6406"/>
</g>
<!-- Node8 -->
<g id="node9" class="node">
<title>Node8</title>
<polygon fill="none" stroke="#bfbfbf" points="1788.5,-185 1788.5,-204 1832.5,-204 1832.5,-185 1788.5,-185"/>
<text text-anchor="middle" x="1810.5" y="-192" font-family="Helvetica,sans-Serif" font-size="10.00" fill="#000000">bitset</text>
</g>
<!-- Node6&#45;&gt;Node8 -->
<g id="edge8" class="edge">
<title>Node6&#45;&gt;Node8</title>
<path fill="none" stroke="#191970" d="M1469.6615,-384.4662C1514.3885,-376.4476 1571.3989,-363.5232 1619.5,-344 1672.5412,-322.4717 1684.6605,-312.5845 1729.5,-277 1754.7671,-256.9481 1780.2309,-229.5608 1795.6875,-211.9494"/>
<polygon fill="#191970" stroke="#191970" points="1798.5281,-214.0156 1802.4267,-204.1641 1793.2355,-209.4342 1798.5281,-214.0156"/>
</g>
<!-- Node9 -->
<g id="node10" class="node">
<title>Node9</title>
<polygon fill="none" stroke="#bfbfbf" points="1504.5,-319 1504.5,-338 1560.5,-338 1560.5,-319 1504.5,-319"/>
<text text-anchor="middle" x="1532.5" y="-326" font-family="Helvetica,sans-Serif" font-size="10.00" fill="#000000">iomanip</text>
</g>
<!-- Node6&#45;&gt;Node9 -->
<g id="edge9" class="edge">
<title>Node6&#45;&gt;Node9</title>
<path fill="none" stroke="#191970" d="M1424.6943,-380.4639C1448.2268,-369.1209 1480.2802,-353.6707 1503.3094,-342.5703"/>
<polygon fill="#191970" stroke="#191970" points="1505.087,-345.5989 1512.5754,-338.1039 1502.0476,-339.2932 1505.087,-345.5989"/>
</g>
<!-- Node10 -->
<g id="node11" class="node">
<title>Node10</title>
<polygon fill="none" stroke="#bfbfbf" points="1579,-319 1579,-338 1610,-338 1610,-319 1579,-319"/>
<text text-anchor="middle" x="1594.5" y="-326" font-family="Helvetica,sans-Serif" font-size="10.00" fill="#000000">ios</text>
</g>
<!-- Node6&#45;&gt;Node10 -->
<g id="edge10" class="edge">
<title>Node6&#45;&gt;Node10</title>
<path fill="none" stroke="#191970" d="M1460.6215,-380.4153C1494.1016,-371.759 1534.7589,-359.5074 1569.5,-344 1570.1995,-343.6878 1570.9029,-343.3589 1571.6072,-343.0164"/>
<polygon fill="#191970" stroke="#191970" points="1573.5351,-345.9497 1580.5883,-338.0438 1570.1444,-339.8257 1573.5351,-345.9497"/>
</g>
<!-- Node11 -->
<g id="node12" class="node">
<title>Node11</title>
<g id="a_node12"><a xlink:href="../../d4/d20/DetMatrixCache_8h.html" target="_top" xlink:title="DetectorsCommonDataFormats\l/DetMatrixCache.h">
<polygon fill="none" stroke="#000000" points="1315,-313.5 1315,-343.5 1486,-343.5 1486,-313.5 1315,-313.5"/>
<text text-anchor="start" x="1323" y="-331.5" font-family="Helvetica,sans-Serif" font-size="10.00" fill="#000000">DetectorsCommonDataFormats</text>
<text text-anchor="middle" x="1400.5" y="-320.5" font-family="Helvetica,sans-Serif" font-size="10.00" fill="#000000">/DetMatrixCache.h</text>
</a>
</g>
</g>
<!-- Node6&#45;&gt;Node11 -->
<g id="edge12" class="edge">
<title>Node6&#45;&gt;Node11</title>
<path fill="none" stroke="#191970" d="M1395.0884,-380.2967C1395.9118,-372.4156 1396.9388,-362.5857 1397.8762,-353.6135"/>
<polygon fill="#191970" stroke="#191970" points="1401.3597,-353.9528 1398.9179,-343.6432 1394.3976,-353.2253 1401.3597,-353.9528"/>
</g>
<!-- Node6&#45;&gt;Node29 -->
<g id="edge50" class="edge">
<title>Node6&#45;&gt;Node29</title>
<path fill="none" stroke="#191970" d="M1339.7375,-380.4147C1306.5566,-370.7607 1263.2609,-357.5423 1225.5,-344 1164.5506,-322.1416 1094.9942,-292.3109 1056.0614,-275.1572"/>
<polygon fill="#191970" stroke="#191970" points="1057.408,-271.9258 1046.8469,-271.0818 1054.5766,-278.3276 1057.408,-271.9258"/>
</g>
<!-- Node11&#45;&gt;Node3 -->
<g id="edge18" class="edge">
<title>Node11&#45;&gt;Node3</title>
<path fill="none" stroke="#191970" d="M1429.5985,-313.4092C1445.1305,-304.3446 1463.8096,-291.721 1477.5,-277 1514.9677,-236.7117 1542.5373,-176.9623 1555.045,-146.6435"/>
<polygon fill="#191970" stroke="#191970" points="1558.348,-147.8107 1558.8325,-137.227 1551.8536,-145.1985 1558.348,-147.8107"/>
</g>
<!-- Node12 -->
<g id="node13" class="node">
<title>Node12</title>
<g id="a_node13"><a xlink:href="../../df/d5b/GPUCommonLogger_8h.html" target="_top" xlink:title="GPUCommonLogger.h">
<polygon fill="none" stroke="#000000" points="1345,-252 1345,-271 1468,-271 1468,-252 1345,-252"/>
<text text-anchor="middle" x="1406.5" y="-259" font-family="Helvetica,sans-Serif" font-size="10.00" fill="#000000">GPUCommonLogger.h</text>
</a>
</g>
</g>
<!-- Node11&#45;&gt;Node12 -->
<g id="edge13" class="edge">
<title>Node11&#45;&gt;Node12</title>
<path fill="none" stroke="#191970" d="M1401.8615,-313.2967C1402.7146,-303.7699 1403.8228,-291.3954 1404.742,-281.1306"/>
<polygon fill="#191970" stroke="#191970" points="1408.2383,-281.3273 1405.6443,-271.055 1401.2662,-280.7029 1408.2383,-281.3273"/>
</g>
<!-- Node15 -->
<g id="node16" class="node">
<title>Node15</title>
<g id="a_node16"><a xlink:href="../../d2/d45/GPUCommonRtypes_8h.html" target="_top" xlink:title="GPUCommonRtypes.h">
<polygon fill="none" stroke="#000000" points="1202,-252 1202,-271 1327,-271 1327,-252 1202,-252"/>
<text text-anchor="middle" x="1264.5" y="-259" font-family="Helvetica,sans-Serif" font-size="10.00" fill="#000000">GPUCommonRtypes.h</text>
</a>
</g>
</g>
<!-- Node11&#45;&gt;Node15 -->
<g id="edge16" class="edge">
<title>Node11&#45;&gt;Node15</title>
<path fill="none" stroke="#191970" d="M1369.9789,-313.4639C1346.9543,-302.1209 1315.5928,-286.6707 1293.0606,-275.5703"/>
<polygon fill="#191970" stroke="#191970" points="1294.5118,-272.3836 1283.9945,-271.1039 1291.4183,-278.6629 1294.5118,-272.3836"/>
</g>
<!-- Node11&#45;&gt;Node16 -->
<g id="edge19" class="edge">
<title>Node11&#45;&gt;Node16</title>
<path fill="none" stroke="#191970" d="M1314.9768,-314.1634C1312.119,-313.7592 1309.2873,-313.37 1306.5,-313 1148.4151,-292.0169 1107.9733,-294.8132 949.5,-277 918.6967,-273.5375 883.6812,-269.1573 858.5623,-265.9371"/>
<polygon fill="#191970" stroke="#191970" points="858.8093,-262.4401 848.4441,-264.6342 857.9152,-269.3828 858.8093,-262.4401"/>
</g>
<!-- Node17 -->
<g id="node18" class="node">
<title>Node17</title>
<g id="a_node18"><a xlink:href="../../d6/d31/DetID_8h.html" target="_top" xlink:title="DetectorsCommonDataFormats\l/DetID.h">
<polygon fill="none" stroke="#000000" points="1549,-246.5 1549,-276.5 1720,-276.5 1720,-246.5 1549,-246.5"/>
<text text-anchor="start" x="1557" y="-264.5" font-family="Helvetica,sans-Serif" font-size="10.00" fill="#000000">DetectorsCommonDataFormats</text>
<text text-anchor="middle" x="1634.5" y="-253.5" font-family="Helvetica,sans-Serif" font-size="10.00" fill="#000000">/DetID.h</text>
</a>
</g>
</g>
<!-- Node11&#45;&gt;Node17 -->
<g id="edge20" class="edge">
<title>Node11&#45;&gt;Node17</title>
<path fill="none" stroke="#191970" d="M1453.0142,-313.4639C1488.2671,-303.3701 1534.8788,-290.024 1572.0367,-279.3848"/>
<polygon fill="#191970" stroke="#191970" points="1573.1065,-282.7192 1581.7568,-276.6017 1571.1797,-275.9896 1573.1065,-282.7192"/>
</g>
<!-- Node11&#45;&gt;Node29 -->
<g id="edge38" class="edge">
<title>Node11&#45;&gt;Node29</title>
<path fill="none" stroke="#191970" d="M1316.3427,-313.4639C1247.4077,-301.1475 1151.3704,-283.9889 1088.8251,-272.8141"/>
<polygon fill="#191970" stroke="#191970" points="1089.161,-269.3187 1078.7012,-271.0053 1087.9297,-276.2096 1089.161,-269.3187"/>
</g>
<!-- Node13 -->
<g id="node14" class="node">
<title>Node13</title>
<polygon fill="none" stroke="#bfbfbf" points="1408.5,-185 1408.5,-204 1468.5,-204 1468.5,-185 1408.5,-185"/>
<text text-anchor="middle" x="1438.5" y="-192" font-family="Helvetica,sans-Serif" font-size="10.00" fill="#000000">iostream</text>
</g>
<!-- Node12&#45;&gt;Node13 -->
<g id="edge14" class="edge">
<title>Node12&#45;&gt;Node13</title>
<path fill="none" stroke="#191970" d="M1411.0848,-251.9005C1415.8848,-241.8505 1423.5449,-225.8122 1429.5494,-213.2403"/>
<polygon fill="#191970" stroke="#191970" points="1432.7721,-214.6137 1433.9237,-204.0817 1426.4556,-211.5968 1432.7721,-214.6137"/>
</g>
<!-- Node14 -->
<g id="node15" class="node">
<title>Node14</title>
<polygon fill="none" stroke="#bfbfbf" points="1344.5,-185 1344.5,-204 1390.5,-204 1390.5,-185 1344.5,-185"/>
<text text-anchor="middle" x="1367.5" y="-192" font-family="Helvetica,sans-Serif" font-size="10.00" fill="#000000">cstdio</text>
</g>
<!-- Node12&#45;&gt;Node14 -->
<g id="edge15" class="edge">
<title>Node12&#45;&gt;Node14</title>
<path fill="none" stroke="#191970" d="M1400.9123,-251.9005C1395.0043,-241.751 1385.5413,-225.4941 1378.1918,-212.8679"/>
<polygon fill="#191970" stroke="#191970" points="1381.133,-210.9634 1373.0774,-204.0817 1375.0833,-214.4849 1381.133,-210.9634"/>
</g>
<!-- Node15&#45;&gt;Node2 -->
<g id="edge17" class="edge">
<title>Node15&#45;&gt;Node2</title>
<path fill="none" stroke="#191970" d="M1269.0848,-251.9005C1273.8848,-241.8505 1281.5449,-225.8122 1287.5494,-213.2403"/>
<polygon fill="#191970" stroke="#191970" points="1290.7721,-214.6137 1291.9237,-204.0817 1284.4556,-211.5968 1290.7721,-214.6137"/>
</g>
<!-- Node17&#45;&gt;Node2 -->
<g id="edge21" class="edge">
<title>Node17&#45;&gt;Node2</title>
<path fill="none" stroke="#191970" d="M1548.7126,-251.5387C1488.3656,-243.368 1406.1039,-229.8774 1335.5,-210 1332.8941,-209.2664 1330.2231,-208.4191 1327.5607,-207.5068"/>
<polygon fill="#191970" stroke="#191970" points="1328.682,-204.1899 1318.0888,-204.004 1326.254,-210.7553 1328.682,-204.1899"/>
</g>
<!-- Node17&#45;&gt;Node3 -->
<g id="edge22" class="edge">
<title>Node17&#45;&gt;Node3</title>
<path fill="none" stroke="#191970" d="M1594.9741,-246.4754C1579.1115,-238.2614 1562.4845,-226.3591 1553.5,-210 1542.7594,-190.4433 1548.3065,-164.3581 1554.3662,-146.7991"/>
<polygon fill="#191970" stroke="#191970" points="1557.771,-147.6933 1558.0643,-137.1025 1551.2305,-145.1988 1557.771,-147.6933"/>
</g>
<!-- Node17&#45;&gt;Node8 -->
<g id="edge23" class="edge">
<title>Node17&#45;&gt;Node8</title>
<path fill="none" stroke="#191970" d="M1681.4208,-246.4593C1710.086,-236.8716 1747.3005,-223.7073 1779.5,-210 1780.6834,-209.4962 1781.8853,-208.9685 1783.0944,-208.4244"/>
<polygon fill="#191970" stroke="#191970" points="1784.7762,-211.5006 1792.3149,-204.0562 1781.7793,-205.1746 1784.7762,-211.5006"/>
</g>
<!-- Node18 -->
<g id="node19" class="node">
<title>Node18</title>
<polygon fill="none" stroke="#bfbfbf" points="1562.5,-185 1562.5,-204 1614.5,-204 1614.5,-185 1562.5,-185"/>
<text text-anchor="middle" x="1588.5" y="-192" font-family="Helvetica,sans-Serif" font-size="10.00" fill="#000000">cassert</text>
</g>
<!-- Node17&#45;&gt;Node18 -->
<g id="edge24" class="edge">
<title>Node17&#45;&gt;Node18</title>
<path fill="none" stroke="#191970" d="M1624.0619,-246.2967C1617.1732,-236.2631 1608.1158,-223.0709 1600.866,-212.5113"/>
<polygon fill="#191970" stroke="#191970" points="1603.6056,-210.318 1595.0601,-204.055 1597.8348,-214.28 1603.6056,-210.318"/>
</g>
<!-- Node19 -->
<g id="node20" class="node">
<title>Node19</title>
<polygon fill="none" stroke="#bfbfbf" points="1632.5,-185 1632.5,-204 1682.5,-204 1682.5,-185 1632.5,-185"/>
<text text-anchor="middle" x="1657.5" y="-192" font-family="Helvetica,sans-Serif" font-size="10.00" fill="#000000">cstdint</text>
</g>
<!-- Node17&#45;&gt;Node19 -->
<g id="edge25" class="edge">
<title>Node17&#45;&gt;Node19</title>
<path fill="none" stroke="#191970" d="M1639.7191,-246.2967C1643.0242,-236.6685 1647.3279,-224.1318 1650.8733,-213.8038"/>
<polygon fill="#191970" stroke="#191970" points="1654.2834,-214.6496 1654.2199,-204.055 1647.6626,-212.3768 1654.2834,-214.6496"/>
</g>
<!-- Node20 -->
<g id="node21" class="node">
<title>Node20</title>
<polygon fill="none" stroke="#bfbfbf" points="1701,-185 1701,-204 1770,-204 1770,-185 1701,-185"/>
<text text-anchor="middle" x="1735.5" y="-192" font-family="Helvetica,sans-Serif" font-size="10.00" fill="#000000">type_traits</text>
</g>
<!-- Node17&#45;&gt;Node20 -->
<g id="edge26" class="edge">
<title>Node17&#45;&gt;Node20</title>
<path fill="none" stroke="#191970" d="M1657.1664,-246.4639C1673.6549,-235.526 1695.9004,-220.769 1712.4722,-209.7759"/>
<polygon fill="#191970" stroke="#191970" points="1714.6241,-212.5485 1721.0224,-204.1039 1710.7545,-206.7153 1714.6241,-212.5485"/>
</g>
<!-- Node21 -->
<g id="node22" class="node">
<title>Node21</title>
<g id="a_node22"><a xlink:href="../../d9/d52/Common_2MathUtils_2include_2MathUtils_2Utils_8h.html" target="_top" xlink:title="MathUtils/Utils.h">
<polygon fill="none" stroke="#000000" points="1888.5,-185 1888.5,-204 1986.5,-204 1986.5,-185 1888.5,-185"/>
<text text-anchor="middle" x="1937.5" y="-192" font-family="Helvetica,sans-Serif" font-size="10.00" fill="#000000">MathUtils/Utils.h</text>
</a>
</g>
</g>
<!-- Node17&#45;&gt;Node21 -->
<g id="edge27" class="edge">
<title>Node17&#45;&gt;Node21</title>
<path fill="none" stroke="#191970" d="M1702.4991,-246.4639C1757.5095,-234.2999 1833.8801,-217.4127 1884.4454,-206.2315"/>
<polygon fill="#191970" stroke="#191970" points="1885.505,-209.5819 1894.5134,-204.0053 1883.9936,-202.747 1885.505,-209.5819"/>
</g>
<!-- Node21&#45;&gt;Node3 -->
<g id="edge28" class="edge">
<title>Node21&#45;&gt;Node3</title>
<path fill="none" stroke="#191970" d="M1900.6313,-184.9206C1892.0806,-182.8406 1882.996,-180.7436 1874.5,-179 1820.8998,-167.9999 1661.6046,-142.9057 1593.7126,-132.3357"/>
<polygon fill="#191970" stroke="#191970" points="1594.0503,-128.8462 1583.6313,-130.7684 1592.9749,-135.7631 1594.0503,-128.8462"/>
</g>
<!-- Node22 -->
<g id="node23" class="node">
<title>Node22</title>
<polygon fill="none" stroke="#bfbfbf" points="1871,-56.5 1871,-75.5 1918,-75.5 1918,-56.5 1871,-56.5"/>
<text text-anchor="middle" x="1894.5" y="-63.5" font-family="Helvetica,sans-Serif" font-size="10.00" fill="#000000">cmath</text>
</g>
<!-- Node21&#45;&gt;Node22 -->
<g id="edge29" class="edge">
<title>Node21&#45;&gt;Node22</title>
<path fill="none" stroke="#191970" d="M1932.5963,-184.8238C1927.5632,-174.6173 1919.7464,-157.9705 1914.5,-143 1907.8102,-123.9107 1902.2291,-101.4623 1898.6775,-85.7456"/>
<polygon fill="#191970" stroke="#191970" points="1902.0217,-84.6552 1896.4633,-75.6355 1895.1838,-86.1528 1902.0217,-84.6552"/>
</g>
<!-- Node23 -->
<g id="node24" class="node">
<title>Node23</title>
<g id="a_node24"><a xlink:href="../../df/d21/GPUCommonDef_8h.html" target="_top" xlink:title="GPUCommonDef.h">
<polygon fill="none" stroke="#000000" points="2019,-56.5 2019,-75.5 2126,-75.5 2126,-56.5 2019,-56.5"/>
<text text-anchor="middle" x="2072.5" y="-63.5" font-family="Helvetica,sans-Serif" font-size="10.00" fill="#000000">GPUCommonDef.h</text>
</a>
</g>
</g>
<!-- Node21&#45;&gt;Node23 -->
<g id="edge30" class="edge">
<title>Node21&#45;&gt;Node23</title>
<path fill="none" stroke="#191970" d="M1975.8917,-184.9892C1999.5338,-177.2965 2028.7956,-164.179 2047.5,-143 2061.6957,-126.9263 2067.8505,-102.6603 2070.5067,-85.6772"/>
<polygon fill="#191970" stroke="#191970" points="2073.9817,-86.0948 2071.7962,-75.7278 2067.0398,-85.1949 2073.9817,-86.0948"/>
</g>
<!-- Node26 -->
<g id="node27" class="node">
<title>Node26</title>
<g id="a_node27"><a xlink:href="../../d6/da2/GPUCommonMath_8h.html" target="_top" xlink:title="GPUCommonMath.h">
<polygon fill="none" stroke="#000000" points="1923,-118 1923,-137 2038,-137 2038,-118 1923,-118"/>
<text text-anchor="middle" x="1980.5" y="-125" font-family="Helvetica,sans-Serif" font-size="10.00" fill="#000000">GPUCommonMath.h</text>
</a>
</g>
</g>
<!-- Node21&#45;&gt;Node26 -->
<g id="edge33" class="edge">
<title>Node21&#45;&gt;Node26</title>
<path fill="none" stroke="#191970" d="M1943.6609,-184.9005C1950.2386,-174.6515 1960.8133,-158.1747 1968.9493,-145.4976"/>
<polygon fill="#191970" stroke="#191970" points="1971.8949,-147.388 1974.3506,-137.0817 1966.0037,-143.6071 1971.8949,-147.388"/>
</g>
<!-- Node28 -->
<g id="node29" class="node">
<title>Node28</title>
<g id="a_node29"><a xlink:href="../../d6/d84/MathConstants_8h.html" target="_top" xlink:title="useful math constants ">
<polygon fill="none" stroke="#000000" points="1672.5,-118 1672.5,-137 1866.5,-137 1866.5,-118 1672.5,-118"/>
<text text-anchor="middle" x="1769.5" y="-125" font-family="Helvetica,sans-Serif" font-size="10.00" fill="#000000">CommonConstants/MathConstants.h</text>
</a>
</g>
</g>
<!-- Node21&#45;&gt;Node28 -->
<g id="edge37" class="edge">
<title>Node21&#45;&gt;Node28</title>
<path fill="none" stroke="#191970" d="M1913.4297,-184.9005C1884.487,-173.3579 1835.7379,-153.9163 1803.0983,-140.8993"/>
<polygon fill="#191970" stroke="#191970" points="1804.1108,-137.5351 1793.5257,-137.0817 1801.5177,-144.0371 1804.1108,-137.5351"/>
</g>
<!-- Node24 -->
<g id="node25" class="node">
<title>Node24</title>
<g id="a_node25"><a xlink:href="../../d5/d93/GPUCommonDefSettings_8h.html" target="_top" xlink:title="GPUCommonDefSettings.h">
<polygon fill="none" stroke="#000000" points="1921.5,-.5 1921.5,-19.5 2069.5,-19.5 2069.5,-.5 1921.5,-.5"/>
<text text-anchor="middle" x="1995.5" y="-7.5" font-family="Helvetica,sans-Serif" font-size="10.00" fill="#000000">GPUCommonDefSettings.h</text>
</a>
</g>
</g>
<!-- Node23&#45;&gt;Node24 -->
<g id="edge31" class="edge">
<title>Node23&#45;&gt;Node24</title>
<path fill="none" stroke="#191970" d="M2059.0876,-56.2455C2047.4943,-47.814 2030.5252,-35.4729 2017.0322,-25.6598"/>
<polygon fill="#191970" stroke="#191970" points="2018.9047,-22.6938 2008.7587,-19.6427 2014.7874,-28.355 2018.9047,-22.6938"/>
</g>
<!-- Node25 -->
<g id="node26" class="node">
<title>Node25</title>
<g id="a_node26"><a xlink:href="../../da/d5a/GPUCommonDefAPI_8h.html" target="_top" xlink:title="GPUCommonDefAPI.h">
<polygon fill="none" stroke="#000000" points="2087.5,-.5 2087.5,-19.5 2211.5,-19.5 2211.5,-.5 2087.5,-.5"/>
<text text-anchor="middle" x="2149.5" y="-7.5" font-family="Helvetica,sans-Serif" font-size="10.00" fill="#000000">GPUCommonDefAPI.h</text>
</a>
</g>
</g>
<!-- Node23&#45;&gt;Node25 -->
<g id="edge32" class="edge">
<title>Node23&#45;&gt;Node25</title>
<path fill="none" stroke="#191970" d="M2085.9124,-56.2455C2097.5057,-47.814 2114.4748,-35.4729 2127.9678,-25.6598"/>
<polygon fill="#191970" stroke="#191970" points="2130.2126,-28.355 2136.2413,-19.6427 2126.0953,-22.6938 2130.2126,-28.355"/>
</g>
<!-- Node26&#45;&gt;Node22 -->
<g id="edge35" class="edge">
<title>Node26&#45;&gt;Node22</title>
<path fill="none" stroke="#191970" d="M1967.0625,-117.8906C1953.4305,-108.1421 1932.1154,-92.8994 1916.1078,-81.4521"/>
<polygon fill="#191970" stroke="#191970" points="1918.0132,-78.5118 1907.8431,-75.5419 1913.9414,-84.2057 1918.0132,-78.5118"/>
</g>
<!-- Node26&#45;&gt;Node23 -->
<g id="edge34" class="edge">
<title>Node26&#45;&gt;Node23</title>
<path fill="none" stroke="#191970" d="M1994.875,-117.8906C2009.5931,-108.0519 2032.6832,-92.6167 2049.8589,-81.1351"/>
<polygon fill="#191970" stroke="#191970" points="2051.8575,-84.0091 2058.2259,-75.5419 2047.9673,-78.1896 2051.8575,-84.0091"/>
</g>
<!-- Node27 -->
<g id="node28" class="node">
<title>Node27</title>
<polygon fill="none" stroke="#bfbfbf" points="1936.5,-56.5 1936.5,-75.5 2000.5,-75.5 2000.5,-56.5 1936.5,-56.5"/>
<text text-anchor="middle" x="1968.5" y="-63.5" font-family="Helvetica,sans-Serif" font-size="10.00" fill="#000000">algorithm</text>
</g>
<!-- Node26&#45;&gt;Node27 -->
<g id="edge36" class="edge">
<title>Node26&#45;&gt;Node27</title>
<path fill="none" stroke="#191970" d="M1978.625,-117.8906C1976.9441,-109.276 1974.426,-96.3708 1972.3216,-85.5858"/>
<polygon fill="#191970" stroke="#191970" points="1975.7518,-84.8895 1970.4014,-75.7449 1968.8814,-86.2301 1975.7518,-84.8895"/>
</g>
<!-- Node29&#45;&gt;Node2 -->
<g id="edge44" class="edge">
<title>Node29&#45;&gt;Node2</title>
<path fill="none" stroke="#191970" d="M1072.5892,-251.9759C1129.9736,-240.2072 1223.487,-220.4606 1257.5,-210 1259.7916,-209.2952 1262.1385,-208.5155 1264.4885,-207.6918"/>
<polygon fill="#191970" stroke="#191970" points="1265.884,-210.907 1274.0338,-204.1371 1263.441,-204.3471 1265.884,-210.907"/>
</g>
<!-- Node29&#45;&gt;Node4 -->
<g id="edge46" class="edge">
<title>Node29&#45;&gt;Node4</title>
<path fill="none" stroke="#191970" d="M981.4217,-251.9428C969.1954,-249.627 955.8794,-247.4138 943.5,-246 747.7213,-223.6406 248.91,-256.8131 57.5,-210 55.3019,-209.4624 53.0742,-208.7727 50.868,-207.9838"/>
<polygon fill="#191970" stroke="#191970" points="52.0678,-204.6918 41.4921,-204.0549 49.3623,-211.1478 52.0678,-204.6918"/>
</g>
<!-- Node30 -->
<g id="node31" class="node">
<title>Node30</title>
<polygon fill="none" stroke="#bfbfbf" points="1084.5,-179.5 1084.5,-209.5 1248.5,-209.5 1248.5,-179.5 1084.5,-179.5"/>
<text text-anchor="start" x="1092.5" y="-197.5" font-family="Helvetica,sans-Serif" font-size="10.00" fill="#000000">Math/GenVector/Displacement</text>
<text text-anchor="middle" x="1166.5" y="-186.5" font-family="Helvetica,sans-Serif" font-size="10.00" fill="#000000">Vector3D.h</text>
</g>
<!-- Node29&#45;&gt;Node30 -->
<g id="edge39" class="edge">
<title>Node29&#45;&gt;Node30</title>
<path fill="none" stroke="#191970" d="M1045.7019,-251.9005C1066.4546,-242.0393 1099.3402,-226.4128 1125.5625,-213.9526"/>
<polygon fill="#191970" stroke="#191970" points="1127.357,-216.975 1134.887,-209.5218 1124.3527,-210.6524 1127.357,-216.975"/>
</g>
<!-- Node31 -->
<g id="node32" class="node">
<title>Node31</title>
<polygon fill="none" stroke="#bfbfbf" points="67,-185 67,-204 256,-204 256,-185 67,-185"/>
<text text-anchor="middle" x="161.5" y="-192" font-family="Helvetica,sans-Serif" font-size="10.00" fill="#000000">Math/GenVector/PositionVector3D.h</text>
</g>
<!-- Node29&#45;&gt;Node31 -->
<g id="edge40" class="edge">
<title>Node29&#45;&gt;Node31</title>
<path fill="none" stroke="#191970" d="M980.9828,-251.9639C968.8739,-249.6772 955.7265,-247.4734 943.5,-246 643.9098,-209.8957 565.7352,-240.2752 265.5,-210 253.5806,-208.7981 240.938,-207.1938 228.7262,-205.4724"/>
<polygon fill="#191970" stroke="#191970" points="228.9933,-201.9747 218.5949,-204.0052 227.99,-208.9024 228.9933,-201.9747"/>
</g>
<!-- Node32 -->
<g id="node33" class="node">
<title>Node32</title>
<polygon fill="none" stroke="#bfbfbf" points="274.5,-185 274.5,-204 434.5,-204 434.5,-185 274.5,-185"/>
<text text-anchor="middle" x="354.5" y="-192" font-family="Helvetica,sans-Serif" font-size="10.00" fill="#000000">Math/GenVector/Rotation3D.h</text>
</g>
<!-- Node29&#45;&gt;Node32 -->
<g id="edge41" class="edge">
<title>Node29&#45;&gt;Node32</title>
<path fill="none" stroke="#191970" d="M980.1071,-251.9565C968.2367,-249.7257 955.4248,-247.5511 943.5,-246 722.5637,-217.2619 664.6374,-237.1475 443.5,-210 434.026,-208.8369 424.0265,-207.3509 414.2869,-205.7611"/>
<polygon fill="#191970" stroke="#191970" points="414.7061,-202.2825 404.2642,-204.076 413.5455,-209.1856 414.7061,-202.2825"/>
</g>
<!-- Node33 -->
<g id="node34" class="node">
<title>Node33</title>
<polygon fill="none" stroke="#bfbfbf" points="606.5,-185 606.5,-204 774.5,-204 774.5,-185 606.5,-185"/>
<text text-anchor="middle" x="690.5" y="-192" font-family="Helvetica,sans-Serif" font-size="10.00" fill="#000000">Math/GenVector/Transform3D.h</text>
</g>
<!-- Node29&#45;&gt;Node33 -->
<g id="edge42" class="edge">
<title>Node29&#45;&gt;Node33</title>
<path fill="none" stroke="#191970" d="M977.8584,-251.9717C917.4164,-239.8833 813.2484,-219.0497 748.3192,-206.0638"/>
<polygon fill="#191970" stroke="#191970" points="748.7404,-202.5788 738.2481,-204.0496 747.3675,-209.4429 748.7404,-202.5788"/>
</g>
<!-- Node34 -->
<g id="node35" class="node">
<title>Node34</title>
<polygon fill="none" stroke="#bfbfbf" points="793,-185 793,-204 966,-204 966,-185 793,-185"/>
<text text-anchor="middle" x="879.5" y="-192" font-family="Helvetica,sans-Serif" font-size="10.00" fill="#000000">Math/GenVector/Translation3D.h</text>
</g>
<!-- Node29&#45;&gt;Node34 -->
<g id="edge43" class="edge">
<title>Node29&#45;&gt;Node34</title>
<path fill="none" stroke="#191970" d="M1004.5818,-251.9005C979.7544,-240.5072 938.1567,-221.4178 909.8058,-208.4075"/>
<polygon fill="#191970" stroke="#191970" points="910.9279,-205.0715 900.3794,-204.0817 908.0083,-211.4336 910.9279,-205.0715"/>
</g>
<!-- Node35 -->
<g id="node36" class="node">
<title>Node35</title>
<polygon fill="none" stroke="#bfbfbf" points="984.5,-185 984.5,-204 1066.5,-204 1066.5,-185 984.5,-185"/>
<text text-anchor="middle" x="1025.5" y="-192" font-family="Helvetica,sans-Serif" font-size="10.00" fill="#000000">TGeoMatrix.h</text>
</g>
<!-- Node29&#45;&gt;Node35 -->
<g id="edge45" class="edge">
<title>Node29&#45;&gt;Node35</title>
<path fill="none" stroke="#191970" d="M1025.5,-251.9005C1025.5,-242.149 1025.5,-226.7597 1025.5,-214.3695"/>
<polygon fill="#191970" stroke="#191970" points="1029.0001,-214.0816 1025.5,-204.0817 1022.0001,-214.0817 1029.0001,-214.0816"/>
</g>
<!-- Node36 -->
<g id="node37" class="node">
<title>Node36</title>
<g id="a_node37"><a xlink:href="../../d2/dd0/Cartesian2D_8h.html" target="_top" xlink:title="MathUtils/Cartesian2D.h">
<polygon fill="none" stroke="#000000" points="453,-185 453,-204 588,-204 588,-185 453,-185"/>
<text text-anchor="middle" x="520.5" y="-192" font-family="Helvetica,sans-Serif" font-size="10.00" fill="#000000">MathUtils/Cartesian2D.h</text>
</a>
</g>
</g>
<!-- Node29&#45;&gt;Node36 -->
<g id="edge47" class="edge">
<title>Node29&#45;&gt;Node36</title>
<path fill="none" stroke="#191970" d="M978.7806,-251.9737C967.277,-249.8203 954.9685,-247.6776 943.5,-246 790.5201,-223.6226 750.345,-233.2814 597.5,-210 590.0013,-208.8578 582.126,-207.4802 574.3917,-206.0233"/>
<polygon fill="#191970" stroke="#191970" points="574.8324,-202.5437 564.3489,-204.0757 573.4996,-209.4156 574.8324,-202.5437"/>
</g>
<!-- Node37 -->
<g id="node38" class="node">
<title>Node37</title>
<polygon fill="none" stroke="#bfbfbf" points="536.5,-112.5 536.5,-142.5 700.5,-142.5 700.5,-112.5 536.5,-112.5"/>
<text text-anchor="start" x="544.5" y="-130.5" font-family="Helvetica,sans-Serif" font-size="10.00" fill="#000000">Math/GenVector/Displacement</text>
<text text-anchor="middle" x="618.5" y="-119.5" font-family="Helvetica,sans-Serif" font-size="10.00" fill="#000000">Vector2D.h</text>
</g>
<!-- Node36&#45;&gt;Node37 -->
<g id="edge48" class="edge">
<title>Node36&#45;&gt;Node37</title>
<path fill="none" stroke="#191970" d="M534.541,-184.9005C548.4588,-175.3853 570.228,-160.5023 588.112,-148.2755"/>
<polygon fill="#191970" stroke="#191970" points="590.2481,-151.0549 596.5279,-142.5218 586.2974,-145.2763 590.2481,-151.0549"/>
</g>
<!-- Node38 -->
<g id="node39" class="node">
<title>Node38</title>
<polygon fill="none" stroke="#bfbfbf" points="329,-118 329,-137 518,-137 518,-118 329,-118"/>
<text text-anchor="middle" x="423.5" y="-125" font-family="Helvetica,sans-Serif" font-size="10.00" fill="#000000">Math/GenVector/PositionVector2D.h</text>
</g>
<!-- Node36&#45;&gt;Node38 -->
<g id="edge49" class="edge">
<title>Node36&#45;&gt;Node38</title>
<path fill="none" stroke="#191970" d="M506.6023,-184.9005C490.6836,-173.9052 464.3879,-155.7422 445.6401,-142.7927"/>
<polygon fill="#191970" stroke="#191970" points="447.5892,-139.8852 437.372,-137.0817 443.6108,-145.6448 447.5892,-139.8852"/>
</g>
<!-- Node43&#45;&gt;Node2 -->
<g id="edge58" class="edge">
<title>Node43&#45;&gt;Node2</title>
<path fill="none" stroke="#191970" d="M959.9116,-447.4828C982.4839,-414.6761 1061.8736,-305.0793 1153.5,-246 1194.6086,-219.4938 1211.6499,-227.037 1257.5,-210 1259.3952,-209.2958 1261.3379,-208.5621 1263.2953,-207.8136"/>
<polygon fill="#191970" stroke="#191970" points="1265.0054,-210.9039 1273.0556,-204.0158 1262.467,-204.3803 1265.0054,-210.9039"/>
</g>
</g>
</svg>
        <g id="navigator" transform="translate(0 0)" fill="#404254">
                <rect fill="#f2f5e9" fill-opacity="0.5" stroke="#606060" stroke-width=".5" x="0" y="0" width="60" height="60"/>
                <use id="zoomplus" xlink:href="#zoomPlus" x="17" y="9" onmousedown="handleZoom(evt,'in')"/>
                <use id="zoomminus" xlink:href="#zoomMin" x="42" y="9" onmousedown="handleZoom(evt,'out')"/>
                <use id="reset" xlink:href="#resetDef" x="30" y="36" onmousedown="handleReset()"/>
                <g id="arrowUp" xlink:href="#dirArrow" transform="translate(30 24)" onmousedown="handlePan(0,-1)">
                  <use xlink:href="#rim" fill="#404040">
                        <set attributeName="fill" to="#808080" begin="arrowUp.mouseover" end="arrowUp.mouseout"/>
                  </use>
                  <path fill="none" stroke="white" stroke-width="1.5" d="M0,-3.0v7 M-2.5,-0.5L0,-3.0L2.5,-0.5"/>
                </g>
                <g id="arrowRight" xlink:href="#dirArrow" transform="rotate(90) translate(36 -43)" onmousedown="handlePan(1,0)">
                  <use xlink:href="#rim" fill="#404040">
                        <set attributeName="fill" to="#808080" begin="arrowRight.mouseover" end="arrowRight.mouseout"/>
                  </use>
                  <path fill="none" stroke="white" stroke-width="1.5" d="M0,-3.0v7 M-2.5,-0.5L0,-3.0L2.5,-0.5"/>
                </g>
                <g id="arrowDown" xlink:href="#dirArrow" transform="rotate(180) translate(-30 -48)" onmousedown="handlePan(0,1)">
                  <use xlink:href="#rim" fill="#404040">
                        <set attributeName="fill" to="#808080" begin="arrowDown.mouseover" end="arrowDown.mouseout"/>
                  </use>
                  <path fill="none" stroke="white" stroke-width="1.5" d="M0,-3.0v7 M-2.5,-0.5L0,-3.0L2.5,-0.5"/>
                </g>
                <g id="arrowLeft" xlink:href="#dirArrow" transform="rotate(270) translate(-36 17)" onmousedown="handlePan(-1,0)">
                  <use xlink:href="#rim" fill="#404040">
                        <set attributeName="fill" to="#808080" begin="arrowLeft.mouseover" end="arrowLeft.mouseout"/>
                  </use>
                  <path fill="none" stroke="white" stroke-width="1.5" d="M0,-3.0v7 M-2.5,-0.5L0,-3.0L2.5,-0.5"/>
                </g>
        </g>
        <svg viewBox="0 0 15 15" width="100%" height="30px" preserveAspectRatio="xMaxYMin meet">
         <g id="arrow_out" transform="scale(0.3 0.3)">
          <a xlink:href="TopologyDictionary_8h__incl_org.svg" target="_base">
           <rect id="button" ry="5" rx="5" y="6" x="6" height="38" width="38"
                fill="#f2f5e9" fill-opacity="0.5" stroke="#606060" stroke-width="1.0"/>
           <path id="arrow"
             d="M 11.500037,31.436501 C 11.940474,20.09759 22.043105,11.32322 32.158766,21.979434 L 37.068811,17.246167 C 37.068811,17.246167 37.088388,32 37.088388,32 L 22.160133,31.978069 C 22.160133,31.978069 26.997745,27.140456 26.997745,27.140456 C 18.528582,18.264221 13.291696,25.230495 11.500037,31.436501 z"
             style="fill:#404040;"/>
          </a>
         </g>
        </svg>
</svg>
