<?xml version="1.0" encoding="UTF-8" standalone="no"?>
<!DOCTYPE svg PUBLIC "-//W3C//DTD SVG 1.1//EN"
 "http://www.w3.org/Graphics/SVG/1.1/DTD/svg11.dtd">
<!-- Generated by graphviz version 2.40.1 (20161225.0304)
 -->
<!-- Title: /home/travis/build/AliceO2Group/AliceO2/Framework/Core/include/Framework/ConfigParamRegistry.h Pages: 1 -->
<svg width="430pt" height="184pt"
 viewBox="0.00 0.00 429.50 184.00" xmlns="http://www.w3.org/2000/svg" xmlns:xlink="http://www.w3.org/1999/xlink">
<g id="graph0" class="graph" transform="scale(1 1) rotate(0) translate(4 180)">
<title>/home/travis/build/AliceO2Group/AliceO2/Framework/Core/include/Framework/ConfigParamRegistry.h</title>
<!-- Node0 -->
<g id="node1" class="node">
<title>Node0</title>
<polygon fill="#bfbfbf" stroke="#000000" points="173,-123.5 173,-175.5 358,-175.5 358,-123.5 173,-123.5"/>
<text text-anchor="start" x="181" y="-163.5" font-family="Helvetica,sans-Serif" font-size="10.00" fill="#000000">/home/travis/build</text>
<text text-anchor="start" x="181" y="-152.5" font-family="Helvetica,sans-Serif" font-size="10.00" fill="#000000">/AliceO2Group/AliceO2</text>
<text text-anchor="start" x="181" y="-141.5" font-family="Helvetica,sans-Serif" font-size="10.00" fill="#000000">/Framework/Core/include</text>
<text text-anchor="middle" x="265.5" y="-130.5" font-family="Helvetica,sans-Serif" font-size="10.00" fill="#000000">/Framework/ConfigParamRegistry.h</text>
</g>
<!-- Node1 -->
<g id="node2" class="node">
<title>Node1</title>
<g id="a_node2"><a xlink:href="../../df/d72/ParamRetriever_8h.html" target="_top" xlink:title="Framework/ParamRetriever.h">
<polygon fill="none" stroke="#000000" points="80,-67.5 80,-86.5 237,-86.5 237,-67.5 80,-67.5"/>
<text text-anchor="middle" x="158.5" y="-74.5" font-family="Helvetica,sans-Serif" font-size="10.00" fill="#000000">Framework/ParamRetriever.h</text>
</a>
</g>
</g>
<!-- Node0&#45;&gt;Node1 -->
<g id="edge1" class="edge">
<title>Node0&#45;&gt;Node1</title>
<path fill="none" stroke="#191970" d="M226.8705,-123.3258C211.5012,-112.912 194.3533,-101.2931 181.0755,-92.2965"/>
<polygon fill="#191970" stroke="#191970" points="182.8128,-89.2459 172.5709,-86.534 178.8862,-95.0409 182.8128,-89.2459"/>
</g>
<!-- Node2 -->
<g id="node3" class="node">
<title>Node2</title>
<polygon fill="none" stroke="#bfbfbf" points="0,-.5 0,-30.5 113,-30.5 113,-.5 0,-.5"/>
<text text-anchor="start" x="8" y="-18.5" font-family="Helvetica,sans-Serif" font-size="10.00" fill="#000000">boost/property_tree</text>
<text text-anchor="middle" x="56.5" y="-7.5" font-family="Helvetica,sans-Serif" font-size="10.00" fill="#000000">/ptree.hpp</text>
</g>
<!-- Node0&#45;&gt;Node2 -->
<g id="edge5" class="edge">
<title>Node0&#45;&gt;Node2</title>
<path fill="none" stroke="#191970" d="M172.9964,-129.3727C129.8754,-118.1572 84.913,-103.2031 70.5,-87 59.4057,-74.5277 56.0292,-55.9137 55.3618,-40.8047"/>
<polygon fill="#191970" stroke="#191970" points="58.8599,-40.533 55.2829,-30.5603 51.8601,-40.587 58.8599,-40.533"/>
</g>
<!-- Node3 -->
<g id="node4" class="node">
<title>Node3</title>
<polygon fill="none" stroke="#bfbfbf" points="221.5,-6 221.5,-25 265.5,-25 265.5,-6 221.5,-6"/>
<text text-anchor="middle" x="243.5" y="-13" font-family="Helvetica,sans-Serif" font-size="10.00" fill="#000000">string</text>
</g>
<!-- Node0&#45;&gt;Node3 -->
<g id="edge7" class="edge">
<title>Node0&#45;&gt;Node3</title>
<path fill="none" stroke="#191970" d="M261.206,-123.3453C256.9719,-97.5564 250.5945,-58.7118 246.7602,-35.3578"/>
<polygon fill="#191970" stroke="#191970" points="250.1768,-34.5635 245.1028,-25.2626 243.2692,-35.6976 250.1768,-34.5635"/>
</g>
<!-- Node5 -->
<g id="node6" class="node">
<title>Node5</title>
<polygon fill="none" stroke="#bfbfbf" points="293.5,-67.5 293.5,-86.5 351.5,-86.5 351.5,-67.5 293.5,-67.5"/>
<text text-anchor="middle" x="322.5" y="-74.5" font-family="Helvetica,sans-Serif" font-size="10.00" fill="#000000">memory</text>
</g>
<!-- Node0&#45;&gt;Node5 -->
<g id="edge6" class="edge">
<title>Node0&#45;&gt;Node5</title>
<path fill="none" stroke="#191970" d="M286.0783,-123.3258C293.6359,-113.7131 302.0008,-103.0735 308.8063,-94.4174"/>
<polygon fill="#191970" stroke="#191970" points="311.5751,-96.5586 315.0043,-86.534 306.0722,-92.2321 311.5751,-96.5586"/>
</g>
<!-- Node6 -->
<g id="node7" class="node">
<title>Node6</title>
<polygon fill="none" stroke="#bfbfbf" points="369.5,-67.5 369.5,-86.5 421.5,-86.5 421.5,-67.5 369.5,-67.5"/>
<text text-anchor="middle" x="395.5" y="-74.5" font-family="Helvetica,sans-Serif" font-size="10.00" fill="#000000">cassert</text>
</g>
<!-- Node0&#45;&gt;Node6 -->
<g id="edge8" class="edge">
<title>Node0&#45;&gt;Node6</title>
<path fill="none" stroke="#191970" d="M312.433,-123.3258C331.6446,-112.6116 353.1437,-100.6218 369.456,-91.5246"/>
<polygon fill="#191970" stroke="#191970" points="371.3757,-94.4615 378.4045,-86.534 367.9661,-88.348 371.3757,-94.4615"/>
</g>
<!-- Node1&#45;&gt;Node2 -->
<g id="edge2" class="edge">
<title>Node1&#45;&gt;Node2</title>
<path fill="none" stroke="#191970" d="M142.5625,-67.3906C128.6302,-58.9903 107.9316,-46.5103 90.3251,-35.8945"/>
<polygon fill="#191970" stroke="#191970" points="91.823,-32.7108 81.452,-30.5446 88.2086,-38.7054 91.823,-32.7108"/>
</g>
<!-- Node1&#45;&gt;Node3 -->
<g id="edge3" class="edge">
<title>Node1&#45;&gt;Node3</title>
<path fill="none" stroke="#191970" d="M171.7813,-67.3906C185.2548,-57.6421 206.322,-42.3994 222.1435,-30.9521"/>
<polygon fill="#191970" stroke="#191970" points="224.2619,-33.7394 230.312,-25.0419 220.1586,-28.0682 224.2619,-33.7394"/>
</g>
<!-- Node4 -->
<g id="node5" class="node">
<title>Node4</title>
<polygon fill="none" stroke="#bfbfbf" points="135,-6 135,-25 182,-25 182,-6 135,-6"/>
<text text-anchor="middle" x="158.5" y="-13" font-family="Helvetica,sans-Serif" font-size="10.00" fill="#000000">vector</text>
</g>
<!-- Node1&#45;&gt;Node4 -->
<g id="edge4" class="edge">
<title>Node1&#45;&gt;Node4</title>
<path fill="none" stroke="#191970" d="M158.5,-67.3906C158.5,-58.8657 158.5,-46.1392 158.5,-35.4235"/>
<polygon fill="#191970" stroke="#191970" points="162.0001,-35.2448 158.5,-25.2449 155.0001,-35.2449 162.0001,-35.2448"/>
</g>
</g>
</svg>
