<?xml version="1.0" encoding="UTF-8" standalone="no"?>
<!DOCTYPE svg PUBLIC "-//W3C//DTD SVG 1.1//EN"
 "http://www.w3.org/Graphics/SVG/1.1/DTD/svg11.dtd">
<!-- Generated by graphviz version 2.40.1 (20161225.0304)
 -->
<!-- Title: /home/travis/build/AliceO2Group/AliceO2/Detectors/MUON/MCH/Raw/Decoder/include/MCHRawDecoder/Decoder.h Pages: 1 -->
<svg width="811pt" height="251pt"
 viewBox="0.00 0.00 810.50 251.00" xmlns="http://www.w3.org/2000/svg" xmlns:xlink="http://www.w3.org/1999/xlink">
<g id="graph0" class="graph" transform="scale(1 1) rotate(0) translate(4 247)">
<title>/home/travis/build/AliceO2Group/AliceO2/Detectors/MUON/MCH/Raw/Decoder/include/MCHRawDecoder/Decoder.h</title>
<!-- Node0 -->
<g id="node1" class="node">
<title>Node0</title>
<polygon fill="#bfbfbf" stroke="#000000" points="210,-179.5 210,-242.5 395,-242.5 395,-179.5 210,-179.5"/>
<text text-anchor="start" x="218" y="-230.5" font-family="Helvetica,sans-Serif" font-size="10.00" fill="#000000">/home/travis/build</text>
<text text-anchor="start" x="218" y="-219.5" font-family="Helvetica,sans-Serif" font-size="10.00" fill="#000000">/AliceO2Group/AliceO2</text>
<text text-anchor="start" x="218" y="-208.5" font-family="Helvetica,sans-Serif" font-size="10.00" fill="#000000">/Detectors/MUON/MCH/Raw</text>
<text text-anchor="start" x="218" y="-197.5" font-family="Helvetica,sans-Serif" font-size="10.00" fill="#000000">/Decoder/include/MCHRawDecoder</text>
<text text-anchor="middle" x="302.5" y="-186.5" font-family="Helvetica,sans-Serif" font-size="10.00" fill="#000000">/Decoder.h</text>
</g>
<!-- Node1 -->
<g id="node2" class="node">
<title>Node1</title>
<polygon fill="none" stroke="#bfbfbf" points="0,-.5 0,-19.5 49,-19.5 49,-.5 0,-.5"/>
<text text-anchor="middle" x="24.5" y="-7.5" font-family="Helvetica,sans-Serif" font-size="10.00" fill="#000000">cstdlib</text>
</g>
<!-- Node0&#45;&gt;Node1 -->
<g id="edge1" class="edge">
<title>Node0&#45;&gt;Node1</title>
<path fill="none" stroke="#191970" d="M209.6573,-192.7821C174.6364,-182.507 136.139,-166.7785 106.5,-143 68.0386,-112.1436 42.8535,-58.0494 31.4827,-29.2759"/>
<polygon fill="#191970" stroke="#191970" points="34.6258,-27.694 27.8022,-19.5891 28.0822,-30.1803 34.6258,-27.694"/>
</g>
<!-- Node2 -->
<g id="node3" class="node">
<title>Node2</title>
<polygon fill="none" stroke="#bfbfbf" points="308,-.5 308,-19.5 365,-19.5 365,-.5 308,-.5"/>
<text text-anchor="middle" x="336.5" y="-7.5" font-family="Helvetica,sans-Serif" font-size="10.00" fill="#000000">gsl/span</text>
</g>
<!-- Node0&#45;&gt;Node2 -->
<g id="edge2" class="edge">
<title>Node0&#45;&gt;Node2</title>
<path fill="none" stroke="#191970" d="M304.59,-179.2285C307.0866,-147.6819 312.152,-98.0809 321.5,-56 323.4759,-47.1055 326.4703,-37.49 329.2653,-29.3614"/>
<polygon fill="#191970" stroke="#191970" points="332.6425,-30.3123 332.7225,-19.7177 326.0531,-27.95 332.6425,-30.3123"/>
</g>
<!-- Node3 -->
<g id="node4" class="node">
<title>Node3</title>
<g id="a_node4"><a xlink:href="../../dd/d58/SampaChannelHandler_8h.html" target="_top" xlink:title="MCHRawDecoder/SampaChannel\lHandler.h">
<polygon fill="none" stroke="#000000" points="390,-112.5 390,-142.5 567,-142.5 567,-112.5 390,-112.5"/>
<text text-anchor="start" x="398" y="-130.5" font-family="Helvetica,sans-Serif" font-size="10.00" fill="#000000">MCHRawDecoder/SampaChannel</text>
<text text-anchor="middle" x="478.5" y="-119.5" font-family="Helvetica,sans-Serif" font-size="10.00" fill="#000000">Handler.h</text>
</a>
</g>
</g>
<!-- Node0&#45;&gt;Node3 -->
<g id="edge3" class="edge">
<title>Node0&#45;&gt;Node3</title>
<path fill="none" stroke="#191970" d="M369.0381,-179.4322C392.0637,-168.5081 417.1771,-156.5935 437.5348,-146.9352"/>
<polygon fill="#191970" stroke="#191970" points="439.2874,-149.9777 446.8219,-142.5291 436.2869,-143.6534 439.2874,-149.9777"/>
</g>
<!-- Node7 -->
<g id="node8" class="node">
<title>Node7</title>
<polygon fill="none" stroke="#bfbfbf" points="67.5,-.5 67.5,-19.5 127.5,-19.5 127.5,-.5 67.5,-.5"/>
<text text-anchor="middle" x="97.5" y="-7.5" font-family="Helvetica,sans-Serif" font-size="10.00" fill="#000000">iostream</text>
</g>
<!-- Node0&#45;&gt;Node7 -->
<g id="edge24" class="edge">
<title>Node0&#45;&gt;Node7</title>
<path fill="none" stroke="#191970" d="M209.9996,-179.7597C162.5437,-158.4837 109.0503,-125.1132 81.5,-76 73.2379,-61.2714 79.2301,-42.363 86.1122,-28.5629"/>
<polygon fill="#191970" stroke="#191970" points="89.3191,-29.9958 91.0896,-19.55 83.1914,-26.6118 89.3191,-29.9958"/>
</g>
<!-- Node13 -->
<g id="node14" class="node">
<title>Node13</title>
<g id="a_node14"><a xlink:href="../../d5/d65/RawDataHeaderHandler_8h.html" target="_top" xlink:title="MCHRawDecoder/RawDataHeader\lHandler.h">
<polygon fill="none" stroke="#000000" points="615,-112.5 615,-142.5 798,-142.5 798,-112.5 615,-112.5"/>
<text text-anchor="start" x="623" y="-130.5" font-family="Helvetica,sans-Serif" font-size="10.00" fill="#000000">MCHRawDecoder/RawDataHeader</text>
<text text-anchor="middle" x="706.5" y="-119.5" font-family="Helvetica,sans-Serif" font-size="10.00" fill="#000000">Handler.h</text>
</a>
</g>
</g>
<!-- Node0&#45;&gt;Node13 -->
<g id="edge14" class="edge">
<title>Node0&#45;&gt;Node13</title>
<path fill="none" stroke="#191970" d="M395.1858,-191.8434C464.0982,-177.6004 557.3002,-158.3371 623.721,-144.609"/>
<polygon fill="#191970" stroke="#191970" points="624.6469,-147.9917 633.7315,-142.54 623.23,-141.1366 624.6469,-147.9917"/>
</g>
<!-- Node4 -->
<g id="node5" class="node">
<title>Node4</title>
<polygon fill="none" stroke="#bfbfbf" points="663,-.5 663,-19.5 728,-19.5 728,-.5 663,-.5"/>
<text text-anchor="middle" x="695.5" y="-7.5" font-family="Helvetica,sans-Serif" font-size="10.00" fill="#000000">functional</text>
</g>
<!-- Node3&#45;&gt;Node4 -->
<g id="edge4" class="edge">
<title>Node3&#45;&gt;Node4</title>
<path fill="none" stroke="#191970" d="M567.1238,-114.0043C613.2502,-105.2324 663.3357,-92.3756 679.5,-76 691.5124,-63.8306 695.0494,-44.2668 695.8586,-29.5927"/>
<polygon fill="#191970" stroke="#191970" points="699.3591,-29.5897 696.0409,-19.528 692.3603,-29.4629 699.3591,-29.5897"/>
</g>
<!-- Node5 -->
<g id="node6" class="node">
<title>Node5</title>
<g id="a_node6"><a xlink:href="../../d0/d5b/SampaCluster_8h.html" target="_top" xlink:title="MCHRawCommon/SampaCluster.h">
<polygon fill="none" stroke="#000000" points="90.5,-56.5 90.5,-75.5 274.5,-75.5 274.5,-56.5 90.5,-56.5"/>
<text text-anchor="middle" x="182.5" y="-63.5" font-family="Helvetica,sans-Serif" font-size="10.00" fill="#000000">MCHRawCommon/SampaCluster.h</text>
</a>
</g>
</g>
<!-- Node3&#45;&gt;Node5 -->
<g id="edge5" class="edge">
<title>Node3&#45;&gt;Node5</title>
<path fill="none" stroke="#191970" d="M406.0903,-112.4554C354.3191,-101.6989 285.6794,-87.4376 238.1725,-77.5671"/>
<polygon fill="#191970" stroke="#191970" points="238.8724,-74.1378 228.3695,-75.5303 237.4484,-80.9915 238.8724,-74.1378"/>
</g>
<!-- Node9 -->
<g id="node10" class="node">
<title>Node9</title>
<g id="a_node10"><a xlink:href="../../d4/d09/DsElecId_8h.html" target="_top" xlink:title="MCHRawElecMap/DsElecId.h">
<polygon fill="none" stroke="#000000" points="515,-56.5 515,-75.5 670,-75.5 670,-56.5 515,-56.5"/>
<text text-anchor="middle" x="592.5" y="-63.5" font-family="Helvetica,sans-Serif" font-size="10.00" fill="#000000">MCHRawElecMap/DsElecId.h</text>
</a>
</g>
</g>
<!-- Node3&#45;&gt;Node9 -->
<g id="edge10" class="edge">
<title>Node3&#45;&gt;Node9</title>
<path fill="none" stroke="#191970" d="M506.3875,-112.4554C524.4076,-102.734 547.7341,-90.15 565.5632,-80.5317"/>
<polygon fill="#191970" stroke="#191970" points="567.6948,-83.3586 574.834,-75.5303 564.3713,-77.1979 567.6948,-83.3586"/>
</g>
<!-- Node5&#45;&gt;Node1 -->
<g id="edge6" class="edge">
<title>Node5&#45;&gt;Node1</title>
<path fill="none" stroke="#191970" d="M155.3388,-56.3733C128.6619,-46.9181 87.8651,-32.4585 58.9278,-22.2023"/>
<polygon fill="#191970" stroke="#191970" points="59.8243,-18.8067 49.2296,-18.7649 57.4858,-25.4046 59.8243,-18.8067"/>
</g>
<!-- Node6 -->
<g id="node7" class="node">
<title>Node6</title>
<polygon fill="none" stroke="#bfbfbf" points="243,-.5 243,-19.5 290,-19.5 290,-.5 243,-.5"/>
<text text-anchor="middle" x="266.5" y="-7.5" font-family="Helvetica,sans-Serif" font-size="10.00" fill="#000000">vector</text>
</g>
<!-- Node5&#45;&gt;Node6 -->
<g id="edge7" class="edge">
<title>Node5&#45;&gt;Node6</title>
<path fill="none" stroke="#191970" d="M197.1317,-56.2455C209.8994,-47.7337 228.6438,-35.2375 243.4299,-25.3801"/>
<polygon fill="#191970" stroke="#191970" points="245.6569,-28.1019 252.036,-19.6427 241.774,-22.2775 245.6569,-28.1019"/>
</g>
<!-- Node5&#45;&gt;Node7 -->
<g id="edge8" class="edge">
<title>Node5&#45;&gt;Node7</title>
<path fill="none" stroke="#191970" d="M167.6941,-56.2455C154.7744,-47.7337 135.8069,-35.2375 120.8448,-25.3801"/>
<polygon fill="#191970" stroke="#191970" points="122.4124,-22.2216 112.1362,-19.6427 118.5613,-28.067 122.4124,-22.2216"/>
</g>
<!-- Node8 -->
<g id="node9" class="node">
<title>Node8</title>
<polygon fill="none" stroke="#bfbfbf" points="146,-.5 146,-19.5 225,-19.5 225,-.5 146,-.5"/>
<text text-anchor="middle" x="185.5" y="-7.5" font-family="Helvetica,sans-Serif" font-size="10.00" fill="#000000">fmt/format.h</text>
</g>
<!-- Node5&#45;&gt;Node8 -->
<g id="edge9" class="edge">
<title>Node5&#45;&gt;Node8</title>
<path fill="none" stroke="#191970" d="M183.0226,-56.2455C183.414,-48.9382 183.9628,-38.6944 184.4444,-29.7046"/>
<polygon fill="#191970" stroke="#191970" points="187.9434,-29.8156 184.9834,-19.6427 180.9534,-29.4411 187.9434,-29.8156"/>
</g>
<!-- Node10 -->
<g id="node11" class="node">
<title>Node10</title>
<polygon fill="none" stroke="#bfbfbf" points="487.5,-.5 487.5,-19.5 537.5,-19.5 537.5,-.5 487.5,-.5"/>
<text text-anchor="middle" x="512.5" y="-7.5" font-family="Helvetica,sans-Serif" font-size="10.00" fill="#000000">cstdint</text>
</g>
<!-- Node9&#45;&gt;Node10 -->
<g id="edge11" class="edge">
<title>Node9&#45;&gt;Node10</title>
<path fill="none" stroke="#191970" d="M578.5651,-56.2455C566.4053,-47.7337 548.5536,-35.2375 534.4715,-25.3801"/>
<polygon fill="#191970" stroke="#191970" points="536.4747,-22.51 526.2752,-19.6427 532.4605,-28.2447 536.4747,-22.51"/>
</g>
<!-- Node11 -->
<g id="node12" class="node">
<title>Node11</title>
<polygon fill="none" stroke="#bfbfbf" points="568,-.5 568,-19.5 617,-19.5 617,-.5 568,-.5"/>
<text text-anchor="middle" x="592.5" y="-7.5" font-family="Helvetica,sans-Serif" font-size="10.00" fill="#000000">iosfwd</text>
</g>
<!-- Node9&#45;&gt;Node11 -->
<g id="edge12" class="edge">
<title>Node9&#45;&gt;Node11</title>
<path fill="none" stroke="#191970" d="M592.5,-56.2455C592.5,-48.9382 592.5,-38.6944 592.5,-29.7046"/>
<polygon fill="#191970" stroke="#191970" points="596.0001,-29.6426 592.5,-19.6427 589.0001,-29.6427 596.0001,-29.6426"/>
</g>
<!-- Node12 -->
<g id="node13" class="node">
<title>Node12</title>
<polygon fill="none" stroke="#bfbfbf" points="746.5,-.5 746.5,-19.5 802.5,-19.5 802.5,-.5 746.5,-.5"/>
<text text-anchor="middle" x="774.5" y="-7.5" font-family="Helvetica,sans-Serif" font-size="10.00" fill="#000000">optional</text>
</g>
<!-- Node9&#45;&gt;Node12 -->
<g id="edge13" class="edge">
<title>Node9&#45;&gt;Node12</title>
<path fill="none" stroke="#191970" d="M623.7869,-56.3733C655.0107,-46.7659 703.027,-31.9917 736.4416,-21.7103"/>
<polygon fill="#191970" stroke="#191970" points="737.7797,-24.9606 746.3081,-18.6744 735.721,-18.2701 737.7797,-24.9606"/>
</g>
<!-- Node13&#45;&gt;Node4 -->
<g id="edge15" class="edge">
<title>Node13&#45;&gt;Node4</title>
<path fill="none" stroke="#191970" d="M710.0429,-112.3289C712.9067,-97.7821 715.9436,-75.2517 712.5,-56 710.8557,-46.8071 707.4995,-37.047 704.2003,-28.8935"/>
<polygon fill="#191970" stroke="#191970" points="707.3606,-27.3833 700.1849,-19.5885 700.9335,-30.1569 707.3606,-27.3833"/>
</g>
<!-- Node13&#45;&gt;Node12 -->
<g id="edge23" class="edge">
<title>Node13&#45;&gt;Node12</title>
<path fill="none" stroke="#191970" d="M715.3898,-112.1389C727.864,-90.5843 750.5267,-51.4245 763.8744,-28.3604"/>
<polygon fill="#191970" stroke="#191970" points="766.988,-29.9677 768.9677,-19.5595 760.9295,-26.4615 766.988,-29.9677"/>
</g>
<!-- Node14 -->
<g id="node15" class="node">
<title>Node14</title>
<g id="a_node15"><a xlink:href="../../dc/d3a/RDHManip_8h.html" target="_top" xlink:title="MCHRawCommon/RDHManip.h">
<polygon fill="none" stroke="#000000" points="330,-56.5 330,-75.5 497,-75.5 497,-56.5 330,-56.5"/>
<text text-anchor="middle" x="413.5" y="-63.5" font-family="Helvetica,sans-Serif" font-size="10.00" fill="#000000">MCHRawCommon/RDHManip.h</text>
</a>
</g>
</g>
<!-- Node13&#45;&gt;Node14 -->
<g id="edge16" class="edge">
<title>Node13&#45;&gt;Node14</title>
<path fill="none" stroke="#191970" d="M634.8241,-112.4554C583.6849,-101.7214 515.9179,-87.4973 468.9037,-77.6291"/>
<polygon fill="#191970" stroke="#191970" points="469.4103,-74.1592 458.9046,-75.5303 467.9723,-81.01 469.4103,-74.1592"/>
</g>
<!-- Node14&#45;&gt;Node2 -->
<g id="edge20" class="edge">
<title>Node14&#45;&gt;Node2</title>
<path fill="none" stroke="#191970" d="M400.0876,-56.2455C388.4943,-47.814 371.5252,-35.4729 358.0322,-25.6598"/>
<polygon fill="#191970" stroke="#191970" points="359.9047,-22.6938 349.7587,-19.6427 355.7874,-28.355 359.9047,-22.6938"/>
</g>
<!-- Node14&#45;&gt;Node4 -->
<g id="edge22" class="edge">
<title>Node14&#45;&gt;Node4</title>
<path fill="none" stroke="#191970" d="M461.6571,-56.4369C515.3744,-45.7696 601.4552,-28.6756 652.8362,-18.4722"/>
<polygon fill="#191970" stroke="#191970" points="653.8129,-21.8467 662.9396,-16.4659 652.4494,-14.9808 653.8129,-21.8467"/>
</g>
<!-- Node14&#45;&gt;Node6 -->
<g id="edge19" class="edge">
<title>Node14&#45;&gt;Node6</title>
<path fill="none" stroke="#191970" d="M388.2298,-56.3733C363.8109,-47.0708 326.6762,-32.9242 299.8439,-22.7024"/>
<polygon fill="#191970" stroke="#191970" points="301.0579,-19.4196 290.467,-19.1303 298.5659,-25.961 301.0579,-19.4196"/>
</g>
<!-- Node14&#45;&gt;Node7 -->
<g id="edge18" class="edge">
<title>Node14&#45;&gt;Node7</title>
<path fill="none" stroke="#191970" d="M347.1402,-56.4608C291.0603,-48.0362 208.7208,-34.813 137.5,-20 137.3993,-19.979 137.2984,-19.958 137.1974,-19.9369"/>
<polygon fill="#191970" stroke="#191970" points="138.1036,-16.5531 127.5817,-17.7938 136.5808,-23.3854 138.1036,-16.5531"/>
</g>
<!-- Node14&#45;&gt;Node10 -->
<g id="edge17" class="edge">
<title>Node14&#45;&gt;Node10</title>
<path fill="none" stroke="#191970" d="M430.7445,-56.2455C446.0761,-47.5731 468.7199,-34.7645 486.2916,-24.825"/>
<polygon fill="#191970" stroke="#191970" points="488.4724,-27.6126 495.4531,-19.6427 485.0259,-21.5198 488.4724,-27.6126"/>
</g>
<!-- Node15 -->
<g id="node16" class="node">
<title>Node15</title>
<polygon fill="none" stroke="#bfbfbf" points="383,-.5 383,-19.5 456,-19.5 456,-.5 383,-.5"/>
<text text-anchor="middle" x="419.5" y="-7.5" font-family="Helvetica,sans-Serif" font-size="10.00" fill="#000000">string_view</text>
</g>
<!-- Node14&#45;&gt;Node15 -->
<g id="edge21" class="edge">
<title>Node14&#45;&gt;Node15</title>
<path fill="none" stroke="#191970" d="M414.5451,-56.2455C415.328,-48.9382 416.4256,-38.6944 417.3888,-29.7046"/>
<polygon fill="#191970" stroke="#191970" points="420.8815,-29.9587 418.4669,-19.6427 413.9214,-29.2129 420.8815,-29.9587"/>
</g>
</g>
</svg>
