<?xml version="1.0" encoding="UTF-8" standalone="no"?>
<!DOCTYPE svg PUBLIC "-//W3C//DTD SVG 1.1//EN"
 "http://www.w3.org/Graphics/SVG/1.1/DTD/svg11.dtd">
<!-- Generated by graphviz version 2.40.1 (20161225.0304)
 -->
<!-- Title: o2::raw::RawFileWriter::LinkData Pages: 1 -->
<svg width="1563pt" height="914pt"
 viewBox="0.00 0.00 1563.00 914.00" xmlns="http://www.w3.org/2000/svg" xmlns:xlink="http://www.w3.org/1999/xlink">
<g id="graph0" class="graph" transform="scale(1 1) rotate(0) translate(4 910)">
<title>o2::raw::RawFileWriter::LinkData</title>
<!-- Node1 -->
<g id="node1" class="node">
<title>Node1</title>
<polygon fill="#bfbfbf" stroke="#000000" points="862.5,-.5 862.5,-222.5 987.5,-222.5 987.5,-.5 862.5,-.5"/>
<text text-anchor="start" x="870.5" y="-210.5" font-family="Helvetica,sans-Serif" font-size="10.00" fill="#000000">o2::raw::RawFileWriter</text>
<text text-anchor="middle" x="925" y="-199.5" font-family="Helvetica,sans-Serif" font-size="10.00" fill="#000000">::LinkData</text>
<polyline fill="none" stroke="#000000" points="862.5,-192.5 987.5,-192.5 "/>
<text text-anchor="middle" x="925" y="-180.5" font-family="Helvetica,sans-Serif" font-size="10.00" fill="#000000"> </text>
<polyline fill="none" stroke="#000000" points="862.5,-173.5 987.5,-173.5 "/>
<text text-anchor="start" x="870.5" y="-161.5" font-family="Helvetica,sans-Serif" font-size="10.00" fill="#000000">+ LinkData()</text>
<text text-anchor="start" x="870.5" y="-150.5" font-family="Helvetica,sans-Serif" font-size="10.00" fill="#000000">+ ~LinkData()</text>
<text text-anchor="start" x="870.5" y="-139.5" font-family="Helvetica,sans-Serif" font-size="10.00" fill="#000000">+ close()</text>
<text text-anchor="start" x="870.5" y="-128.5" font-family="Helvetica,sans-Serif" font-size="10.00" fill="#000000">+ print()</text>
<text text-anchor="start" x="870.5" y="-117.5" font-family="Helvetica,sans-Serif" font-size="10.00" fill="#000000">+ addData()</text>
<text text-anchor="start" x="870.5" y="-106.5" font-family="Helvetica,sans-Serif" font-size="10.00" fill="#000000">+ getLastRDH()</text>
<text text-anchor="start" x="870.5" y="-95.5" font-family="Helvetica,sans-Serif" font-size="10.00" fill="#000000">+ describe()</text>
<text text-anchor="start" x="870.5" y="-84.5" font-family="Helvetica,sans-Serif" font-size="10.00" fill="#000000"># openHBFPage()</text>
<text text-anchor="start" x="870.5" y="-73.5" font-family="Helvetica,sans-Serif" font-size="10.00" fill="#000000"># addHBFPage()</text>
<text text-anchor="start" x="870.5" y="-62.5" font-family="Helvetica,sans-Serif" font-size="10.00" fill="#000000"># closeHBFPage()</text>
<text text-anchor="start" x="870.5" y="-51.5" font-family="Helvetica,sans-Serif" font-size="10.00" fill="#000000"># flushSuperPage()</text>
<text text-anchor="start" x="870.5" y="-40.5" font-family="Helvetica,sans-Serif" font-size="10.00" fill="#000000"># fillEmptyHBHs()</text>
<text text-anchor="start" x="870.5" y="-29.5" font-family="Helvetica,sans-Serif" font-size="10.00" fill="#000000"># expandBufferBy()</text>
<text text-anchor="start" x="870.5" y="-18.5" font-family="Helvetica,sans-Serif" font-size="10.00" fill="#000000"># pushBack()</text>
<text text-anchor="start" x="870.5" y="-7.5" font-family="Helvetica,sans-Serif" font-size="10.00" fill="#000000"># pushBack()</text>
</g>
<!-- Node2 -->
<g id="node2" class="node">
<title>Node2</title>
<g id="a_node2"><a xlink:href="../../d1/d21/structo2_1_1InteractionRecord.html" target="_top" xlink:title="{o2::InteractionRecord\n||+ InteractionRecord()\l+ InteractionRecord()\l+ InteractionRecord()\l+ InteractionRecord()\l+ clear()\l+ isDummy()\l+ setFromNS()\l+ bc2ns()\l+ operator==()\l+ operator!=()\l+ differenceInBC()\l+ toLong()\l+ operator\&gt;()\l+ operator\&gt;=()\l+ operator\&lt;()\l+ operator\&lt;=()\l+ operator&#45;&#45;()\l+ operator&#45;&#45;()\l+ operator++()\l+ operator++()\l+ operator+=()\l+ operator&#45;=()\l+ operator+=()\l+ operator&#45;=()\l+ operator+()\l+ operator&#45;()\l+ operator+()\l+ operator&#45;()\l+ print()\l+ ClassDefNV()\l+ bc2ns()\l+ ns2bc()\l}">
<polygon fill="none" stroke="#000000" points="206.5,-292.5 206.5,-690.5 327.5,-690.5 327.5,-292.5 206.5,-292.5"/>
<text text-anchor="middle" x="267" y="-678.5" font-family="Helvetica,sans-Serif" font-size="10.00" fill="#000000">o2::InteractionRecord</text>
<polyline fill="none" stroke="#000000" points="206.5,-671.5 327.5,-671.5 "/>
<text text-anchor="middle" x="267" y="-659.5" font-family="Helvetica,sans-Serif" font-size="10.00" fill="#000000"> </text>
<polyline fill="none" stroke="#000000" points="206.5,-652.5 327.5,-652.5 "/>
<text text-anchor="start" x="214.5" y="-640.5" font-family="Helvetica,sans-Serif" font-size="10.00" fill="#000000">+ InteractionRecord()</text>
<text text-anchor="start" x="214.5" y="-629.5" font-family="Helvetica,sans-Serif" font-size="10.00" fill="#000000">+ InteractionRecord()</text>
<text text-anchor="start" x="214.5" y="-618.5" font-family="Helvetica,sans-Serif" font-size="10.00" fill="#000000">+ InteractionRecord()</text>
<text text-anchor="start" x="214.5" y="-607.5" font-family="Helvetica,sans-Serif" font-size="10.00" fill="#000000">+ InteractionRecord()</text>
<text text-anchor="start" x="214.5" y="-596.5" font-family="Helvetica,sans-Serif" font-size="10.00" fill="#000000">+ clear()</text>
<text text-anchor="start" x="214.5" y="-585.5" font-family="Helvetica,sans-Serif" font-size="10.00" fill="#000000">+ isDummy()</text>
<text text-anchor="start" x="214.5" y="-574.5" font-family="Helvetica,sans-Serif" font-size="10.00" fill="#000000">+ setFromNS()</text>
<text text-anchor="start" x="214.5" y="-563.5" font-family="Helvetica,sans-Serif" font-size="10.00" fill="#000000">+ bc2ns()</text>
<text text-anchor="start" x="214.5" y="-552.5" font-family="Helvetica,sans-Serif" font-size="10.00" fill="#000000">+ operator==()</text>
<text text-anchor="start" x="214.5" y="-541.5" font-family="Helvetica,sans-Serif" font-size="10.00" fill="#000000">+ operator!=()</text>
<text text-anchor="start" x="214.5" y="-530.5" font-family="Helvetica,sans-Serif" font-size="10.00" fill="#000000">+ differenceInBC()</text>
<text text-anchor="start" x="214.5" y="-519.5" font-family="Helvetica,sans-Serif" font-size="10.00" fill="#000000">+ toLong()</text>
<text text-anchor="start" x="214.5" y="-508.5" font-family="Helvetica,sans-Serif" font-size="10.00" fill="#000000">+ operator&gt;()</text>
<text text-anchor="start" x="214.5" y="-497.5" font-family="Helvetica,sans-Serif" font-size="10.00" fill="#000000">+ operator&gt;=()</text>
<text text-anchor="start" x="214.5" y="-486.5" font-family="Helvetica,sans-Serif" font-size="10.00" fill="#000000">+ operator&lt;()</text>
<text text-anchor="start" x="214.5" y="-475.5" font-family="Helvetica,sans-Serif" font-size="10.00" fill="#000000">+ operator&lt;=()</text>
<text text-anchor="start" x="214.5" y="-464.5" font-family="Helvetica,sans-Serif" font-size="10.00" fill="#000000">+ operator&#45;&#45;()</text>
<text text-anchor="start" x="214.5" y="-453.5" font-family="Helvetica,sans-Serif" font-size="10.00" fill="#000000">+ operator&#45;&#45;()</text>
<text text-anchor="start" x="214.5" y="-442.5" font-family="Helvetica,sans-Serif" font-size="10.00" fill="#000000">+ operator++()</text>
<text text-anchor="start" x="214.5" y="-431.5" font-family="Helvetica,sans-Serif" font-size="10.00" fill="#000000">+ operator++()</text>
<text text-anchor="start" x="214.5" y="-420.5" font-family="Helvetica,sans-Serif" font-size="10.00" fill="#000000">+ operator+=()</text>
<text text-anchor="start" x="214.5" y="-409.5" font-family="Helvetica,sans-Serif" font-size="10.00" fill="#000000">+ operator&#45;=()</text>
<text text-anchor="start" x="214.5" y="-398.5" font-family="Helvetica,sans-Serif" font-size="10.00" fill="#000000">+ operator+=()</text>
<text text-anchor="start" x="214.5" y="-387.5" font-family="Helvetica,sans-Serif" font-size="10.00" fill="#000000">+ operator&#45;=()</text>
<text text-anchor="start" x="214.5" y="-376.5" font-family="Helvetica,sans-Serif" font-size="10.00" fill="#000000">+ operator+()</text>
<text text-anchor="start" x="214.5" y="-365.5" font-family="Helvetica,sans-Serif" font-size="10.00" fill="#000000">+ operator&#45;()</text>
<text text-anchor="start" x="214.5" y="-354.5" font-family="Helvetica,sans-Serif" font-size="10.00" fill="#000000">+ operator+()</text>
<text text-anchor="start" x="214.5" y="-343.5" font-family="Helvetica,sans-Serif" font-size="10.00" fill="#000000">+ operator&#45;()</text>
<text text-anchor="start" x="214.5" y="-332.5" font-family="Helvetica,sans-Serif" font-size="10.00" fill="#000000">+ print()</text>
<text text-anchor="start" x="214.5" y="-321.5" font-family="Helvetica,sans-Serif" font-size="10.00" fill="#000000">+ ClassDefNV()</text>
<text text-anchor="start" x="214.5" y="-310.5" font-family="Helvetica,sans-Serif" font-size="10.00" fill="#000000">+ bc2ns()</text>
<text text-anchor="start" x="214.5" y="-299.5" font-family="Helvetica,sans-Serif" font-size="10.00" fill="#000000">+ ns2bc()</text>
</a>
</g>
</g>
<!-- Node2&#45;&gt;Node1 -->
<g id="edge1" class="edge">
<title>Node2&#45;&gt;Node1</title>
<path fill="none" stroke="#404040" d="M281.024,-292.363C288.9166,-273.3544 299.622,-255.7182 314,-241 387.8559,-165.3962 703.535,-129.8424 849.9146,-117.1836"/>
<polygon fill="none" stroke="#404040" points="850.315,-117.1497 855.9552,-112.6565 862.272,-116.1347 856.6318,-120.6279 850.315,-117.1497"/>
<text text-anchor="middle" x="341.5" y="-255" font-family="Helvetica,sans-Serif" font-size="10.00" fill="#000000"> +updateIR</text>
</g>
<!-- Node3 -->
<g id="node3" class="node">
<title>Node3</title>
<polygon fill="none" stroke="#bfbfbf" points="0,-848.5 0,-905.5 50,-905.5 50,-848.5 0,-848.5"/>
<text text-anchor="middle" x="25" y="-893.5" font-family="Helvetica,sans-Serif" font-size="10.00" fill="#000000">double</text>
<polyline fill="none" stroke="#bfbfbf" points="0,-886.5 50,-886.5 "/>
<text text-anchor="middle" x="25" y="-874.5" font-family="Helvetica,sans-Serif" font-size="10.00" fill="#000000"> </text>
<polyline fill="none" stroke="#bfbfbf" points="0,-867.5 50,-867.5 "/>
<text text-anchor="middle" x="25" y="-855.5" font-family="Helvetica,sans-Serif" font-size="10.00" fill="#000000"> </text>
</g>
<!-- Node3&#45;&gt;Node2 -->
<g id="edge2" class="edge">
<title>Node3&#45;&gt;Node2</title>
<path fill="none" stroke="#404040" d="M21.1953,-848.3729C17.9554,-810.7708 18.6727,-745.2774 56,-709 93.414,-672.6384 130.1576,-722.1639 172,-691 181.8067,-683.696 190.6442,-675.118 198.6016,-665.6965"/>
<polygon fill="none" stroke="#404040" points="198.8213,-665.4189 199.4088,-658.2317 206.2691,-656.0097 205.6816,-663.1969 198.8213,-665.4189"/>
<text text-anchor="middle" x="94" y="-767" font-family="Helvetica,sans-Serif" font-size="10.00" fill="#000000"> +DummyTime</text>
</g>
<!-- Node4 -->
<g id="node4" class="node">
<title>Node4</title>
<polygon fill="none" stroke="#bfbfbf" points="121,-848.5 121,-905.5 177,-905.5 177,-848.5 121,-848.5"/>
<text text-anchor="middle" x="149" y="-893.5" font-family="Helvetica,sans-Serif" font-size="10.00" fill="#000000">uint16_t</text>
<polyline fill="none" stroke="#bfbfbf" points="121,-886.5 177,-886.5 "/>
<text text-anchor="middle" x="149" y="-874.5" font-family="Helvetica,sans-Serif" font-size="10.00" fill="#000000"> </text>
<polyline fill="none" stroke="#bfbfbf" points="121,-867.5 177,-867.5 "/>
<text text-anchor="middle" x="149" y="-855.5" font-family="Helvetica,sans-Serif" font-size="10.00" fill="#000000"> </text>
</g>
<!-- Node4&#45;&gt;Node1 -->
<g id="edge5" class="edge">
<title>Node4&#45;&gt;Node1</title>
<path fill="none" stroke="#404040" d="M136.8641,-848.3474C134.845,-842.3857 133.0637,-836.0682 132,-830 122.7147,-777.0299 131.162,-762.7712 132,-709 134.8892,-523.5991 35.9721,-441.9825 145,-292 228.0968,-177.6892 671.3309,-131.091 850.135,-116.7588"/>
<polygon fill="none" stroke="#404040" points="850.3257,-116.7438 855.9932,-112.2851 862.2887,-115.8018 856.6212,-120.2605 850.3257,-116.7438"/>
<text text-anchor="middle" x="171" y="-489" font-family="Helvetica,sans-Serif" font-size="10.00" fill="#000000"> +pageCnt</text>
</g>
<!-- Node4&#45;&gt;Node2 -->
<g id="edge3" class="edge">
<title>Node4&#45;&gt;Node2</title>
<path fill="none" stroke="#404040" d="M142.089,-848.3157C135.2421,-813.4966 128.5704,-753.876 150,-709 155.444,-697.5997 164.2069,-700.9435 172,-691 182.1874,-678.0014 191.6351,-663.7328 200.3037,-648.9889"/>
<polygon fill="none" stroke="#404040" points="200.5256,-648.6003 200.0283,-641.4064 206.4776,-638.1804 206.9749,-645.3743 200.5256,-648.6003"/>
<text text-anchor="middle" x="182" y="-772.5" font-family="Helvetica,sans-Serif" font-size="10.00" fill="#000000"> +DummyBC</text>
<text text-anchor="middle" x="182" y="-761.5" font-family="Helvetica,sans-Serif" font-size="10.00" fill="#000000">+bc</text>
</g>
<!-- Node14 -->
<g id="node14" class="node">
<title>Node14</title>
<g id="a_node14"><a xlink:href="../../d8/d47/structo2_1_1header_1_1RAWDataHeaderV4.html" target="_top" xlink:title="{o2::header::RAWDataHeaderV4\n|+ word0\l+ blockLength\l+ zero0\l+ word1\l+ word2\l+ word3\l+ word4\l+ heartbeatBC\l+ zero42\l+ word5\l+ word6\l+ detectorField\l+ stop\l+ pageCnt\l|}">
<polygon fill="none" stroke="#000000" points="595.5,-391.5 595.5,-591.5 762.5,-591.5 762.5,-391.5 595.5,-391.5"/>
<text text-anchor="middle" x="679" y="-579.5" font-family="Helvetica,sans-Serif" font-size="10.00" fill="#000000">o2::header::RAWDataHeaderV4</text>
<polyline fill="none" stroke="#000000" points="595.5,-572.5 762.5,-572.5 "/>
<text text-anchor="start" x="603.5" y="-560.5" font-family="Helvetica,sans-Serif" font-size="10.00" fill="#000000">+ word0</text>
<text text-anchor="start" x="603.5" y="-549.5" font-family="Helvetica,sans-Serif" font-size="10.00" fill="#000000">+ blockLength</text>
<text text-anchor="start" x="603.5" y="-538.5" font-family="Helvetica,sans-Serif" font-size="10.00" fill="#000000">+ zero0</text>
<text text-anchor="start" x="603.5" y="-527.5" font-family="Helvetica,sans-Serif" font-size="10.00" fill="#000000">+ word1</text>
<text text-anchor="start" x="603.5" y="-516.5" font-family="Helvetica,sans-Serif" font-size="10.00" fill="#000000">+ word2</text>
<text text-anchor="start" x="603.5" y="-505.5" font-family="Helvetica,sans-Serif" font-size="10.00" fill="#000000">+ word3</text>
<text text-anchor="start" x="603.5" y="-494.5" font-family="Helvetica,sans-Serif" font-size="10.00" fill="#000000">+ word4</text>
<text text-anchor="start" x="603.5" y="-483.5" font-family="Helvetica,sans-Serif" font-size="10.00" fill="#000000">+ heartbeatBC</text>
<text text-anchor="start" x="603.5" y="-472.5" font-family="Helvetica,sans-Serif" font-size="10.00" fill="#000000">+ zero42</text>
<text text-anchor="start" x="603.5" y="-461.5" font-family="Helvetica,sans-Serif" font-size="10.00" fill="#000000">+ word5</text>
<text text-anchor="start" x="603.5" y="-450.5" font-family="Helvetica,sans-Serif" font-size="10.00" fill="#000000">+ word6</text>
<text text-anchor="start" x="603.5" y="-439.5" font-family="Helvetica,sans-Serif" font-size="10.00" fill="#000000">+ detectorField</text>
<text text-anchor="start" x="603.5" y="-428.5" font-family="Helvetica,sans-Serif" font-size="10.00" fill="#000000">+ stop</text>
<text text-anchor="start" x="603.5" y="-417.5" font-family="Helvetica,sans-Serif" font-size="10.00" fill="#000000">+ pageCnt</text>
<polyline fill="none" stroke="#000000" points="595.5,-410.5 762.5,-410.5 "/>
<text text-anchor="middle" x="679" y="-398.5" font-family="Helvetica,sans-Serif" font-size="10.00" fill="#000000"> </text>
</a>
</g>
</g>
<!-- Node4&#45;&gt;Node14 -->
<g id="edge19" class="edge">
<title>Node4&#45;&gt;Node14</title>
<path fill="none" stroke="#404040" d="M177.0938,-862.9183C190.2028,-854.971 204.8886,-843.842 214,-830 244.2952,-783.9755 199.61,-745.3719 241,-709 274.188,-679.8357 398.1713,-707.8824 439,-691 493.578,-668.4324 545.1897,-628.9143 586.4663,-590.9717"/>
<polygon fill="none" stroke="#404040" points="586.6086,-590.8389 588.2667,-583.821 595.3825,-582.6524 593.7244,-589.6703 586.6086,-590.8389"/>
<text text-anchor="middle" x="259.5" y="-767" font-family="Helvetica,sans-Serif" font-size="10.00" fill="#000000"> +cruID</text>
</g>
<!-- Node5 -->
<g id="node5" class="node">
<title>Node5</title>
<polygon fill="none" stroke="#bfbfbf" points="263,-848.5 263,-905.5 319,-905.5 319,-848.5 263,-848.5"/>
<text text-anchor="middle" x="291" y="-893.5" font-family="Helvetica,sans-Serif" font-size="10.00" fill="#000000">uint32_t</text>
<polyline fill="none" stroke="#bfbfbf" points="263,-886.5 319,-886.5 "/>
<text text-anchor="middle" x="291" y="-874.5" font-family="Helvetica,sans-Serif" font-size="10.00" fill="#000000"> </text>
<polyline fill="none" stroke="#bfbfbf" points="263,-867.5 319,-867.5 "/>
<text text-anchor="middle" x="291" y="-855.5" font-family="Helvetica,sans-Serif" font-size="10.00" fill="#000000"> </text>
</g>
<!-- Node5&#45;&gt;Node1 -->
<g id="edge10" class="edge">
<title>Node5&#45;&gt;Node1</title>
<path fill="none" stroke="#404040" d="M319.2459,-853.8953C322.1448,-851.8188 325.0935,-849.8173 328,-848 343.5058,-838.3051 353.3838,-844.1239 365,-830 400.3346,-787.0374 381.1432,-762.3187 397,-709 452.6486,-521.8812 405.0387,-437.6719 535,-292 619.2873,-197.5235 763.203,-148.9862 850.6553,-126.998"/>
<polygon fill="none" stroke="#404040" points="850.6906,-126.9894 855.5656,-121.6759 862.3455,-124.1323 857.4704,-129.4458 850.6906,-126.9894"/>
<text text-anchor="middle" x="561" y="-489" font-family="Helvetica,sans-Serif" font-size="10.00" fill="#000000"> +subspec</text>
</g>
<!-- Node5&#45;&gt;Node2 -->
<g id="edge4" class="edge">
<title>Node5&#45;&gt;Node2</title>
<path fill="none" stroke="#404040" d="M289.2157,-848.3398C287.2034,-816.017 283.7392,-760.3741 280.1372,-702.5162"/>
<polygon fill="none" stroke="#404040" points="280.1369,-702.5103 275.7718,-696.7705 279.3912,-690.5335 283.7563,-696.2733 280.1369,-702.5103"/>
<text text-anchor="middle" x="325" y="-772.5" font-family="Helvetica,sans-Serif" font-size="10.00" fill="#000000"> +orbit</text>
<text text-anchor="middle" x="325" y="-761.5" font-family="Helvetica,sans-Serif" font-size="10.00" fill="#000000">+DummyOrbit</text>
</g>
<!-- Node5&#45;&gt;Node14 -->
<g id="edge22" class="edge">
<title>Node5&#45;&gt;Node14</title>
<path fill="none" stroke="#404040" d="M319.3418,-853.0326C322.1738,-851.1809 325.0828,-849.4654 328,-848 355.1694,-834.3519 373.7207,-852.6538 394,-830 430.3082,-789.4405 384.0608,-755.1073 413,-709 420.4716,-697.0959 427.8074,-699.5003 439,-691 488.6498,-653.2931 542.1535,-609.1784 586.016,-572.0339"/>
<polygon fill="none" stroke="#404040" points="586.0756,-571.9834 588.0618,-565.0511 595.2246,-564.2183 593.2385,-571.1505 586.0756,-571.9834"/>
<text text-anchor="middle" x="454.5" y="-783.5" font-family="Helvetica,sans-Serif" font-size="10.00" fill="#000000"> +heartbeatOrbit</text>
<text text-anchor="middle" x="454.5" y="-772.5" font-family="Helvetica,sans-Serif" font-size="10.00" fill="#000000">+triggerOrbit</text>
<text text-anchor="middle" x="454.5" y="-761.5" font-family="Helvetica,sans-Serif" font-size="10.00" fill="#000000">+memorySize</text>
<text text-anchor="middle" x="454.5" y="-750.5" font-family="Helvetica,sans-Serif" font-size="10.00" fill="#000000">+offsetToNext</text>
</g>
<!-- Node6 -->
<g id="node6" class="node">
<title>Node6</title>
<polygon fill="none" stroke="#bfbfbf" points="1413,-848.5 1413,-905.5 1463,-905.5 1463,-848.5 1413,-848.5"/>
<text text-anchor="middle" x="1438" y="-893.5" font-family="Helvetica,sans-Serif" font-size="10.00" fill="#000000">uint8_t</text>
<polyline fill="none" stroke="#bfbfbf" points="1413,-886.5 1463,-886.5 "/>
<text text-anchor="middle" x="1438" y="-874.5" font-family="Helvetica,sans-Serif" font-size="10.00" fill="#000000"> </text>
<polyline fill="none" stroke="#bfbfbf" points="1413,-867.5 1463,-867.5 "/>
<text text-anchor="middle" x="1438" y="-855.5" font-family="Helvetica,sans-Serif" font-size="10.00" fill="#000000"> </text>
</g>
<!-- Node6&#45;&gt;Node1 -->
<g id="edge6" class="edge">
<title>Node6&#45;&gt;Node1</title>
<path fill="none" stroke="#404040" d="M1444.7859,-848.3339C1466.1883,-750.2104 1522.0607,-423.7952 1367,-241 1319.5254,-185.034 1112.882,-142.746 999.7384,-123.2952"/>
<polygon fill="none" stroke="#404040" points="999.5858,-123.2693 993.0008,-126.2084 987.7551,-121.2604 994.3401,-118.3213 999.5858,-123.2693"/>
<text text-anchor="middle" x="1513.5" y="-489" font-family="Helvetica,sans-Serif" font-size="10.00" fill="#000000"> +packetCounter</text>
</g>
<!-- Node6&#45;&gt;Node14 -->
<g id="edge20" class="edge">
<title>Node6&#45;&gt;Node14</title>
<path fill="none" stroke="#404040" d="M1412.8353,-853.6354C1409.9693,-851.5615 1406.9977,-849.6331 1404,-848 1379.5518,-834.681 1362.6406,-850.6795 1344,-830 1307.3489,-789.34 1362.5893,-744.5931 1321,-709 1274.6302,-669.3157 822.9283,-724.635 772,-691 741.0594,-670.5657 720.2129,-636.9611 706.2537,-603.1056"/>
<polygon fill="none" stroke="#404040" points="706.1396,-602.813 700.2327,-598.6766 701.779,-591.6333 707.6859,-595.7696 706.1396,-602.813"/>
<text text-anchor="middle" x="1384" y="-778" font-family="Helvetica,sans-Serif" font-size="10.00" fill="#000000"> +linkID</text>
<text text-anchor="middle" x="1384" y="-767" font-family="Helvetica,sans-Serif" font-size="10.00" fill="#000000">+endPointID</text>
<text text-anchor="middle" x="1384" y="-756" font-family="Helvetica,sans-Serif" font-size="10.00" fill="#000000">+packetCounter</text>
</g>
<!-- Node7 -->
<g id="node7" class="node">
<title>Node7</title>
<polygon fill="none" stroke="#bfbfbf" points="780.5,-463 780.5,-520 871.5,-520 871.5,-463 780.5,-463"/>
<text text-anchor="middle" x="826" y="-508" font-family="Helvetica,sans-Serif" font-size="10.00" fill="#000000">vector&lt; char &gt;</text>
<polyline fill="none" stroke="#bfbfbf" points="780.5,-501 871.5,-501 "/>
<text text-anchor="middle" x="826" y="-489" font-family="Helvetica,sans-Serif" font-size="10.00" fill="#000000"> </text>
<polyline fill="none" stroke="#bfbfbf" points="780.5,-482 871.5,-482 "/>
<text text-anchor="middle" x="826" y="-470" font-family="Helvetica,sans-Serif" font-size="10.00" fill="#000000"> </text>
</g>
<!-- Node7&#45;&gt;Node1 -->
<g id="edge7" class="edge">
<title>Node7&#45;&gt;Node1</title>
<path fill="none" stroke="#404040" d="M825.8271,-462.9745C826.3012,-415.709 830.5155,-318.6627 855,-241 855.975,-237.9075 857.0252,-234.8035 858.1409,-231.6966"/>
<polygon fill="none" stroke="#404040" points="858.1562,-231.6566 856.5674,-224.6227 862.4491,-220.4507 864.038,-227.4846 858.1562,-231.6566"/>
<text text-anchor="middle" x="875" y="-255" font-family="Helvetica,sans-Serif" font-size="10.00" fill="#000000"> +buffer</text>
</g>
<!-- Node8 -->
<g id="node8" class="node">
<title>Node8</title>
<polygon fill="none" stroke="#bfbfbf" points="890,-463 890,-520 934,-520 934,-463 890,-463"/>
<text text-anchor="middle" x="912" y="-508" font-family="Helvetica,sans-Serif" font-size="10.00" fill="#000000">FILE *</text>
<polyline fill="none" stroke="#bfbfbf" points="890,-501 934,-501 "/>
<text text-anchor="middle" x="912" y="-489" font-family="Helvetica,sans-Serif" font-size="10.00" fill="#000000"> </text>
<polyline fill="none" stroke="#bfbfbf" points="890,-482 934,-482 "/>
<text text-anchor="middle" x="912" y="-470" font-family="Helvetica,sans-Serif" font-size="10.00" fill="#000000"> </text>
</g>
<!-- Node8&#45;&gt;Node1 -->
<g id="edge8" class="edge">
<title>Node8&#45;&gt;Node1</title>
<path fill="none" stroke="#404040" d="M908.2306,-462.8887C902.6573,-416.3025 893.6315,-321.1955 901,-241 901.1906,-238.9258 901.398,-236.8353 901.6208,-234.7322"/>
<polygon fill="none" stroke="#404040" points="901.6488,-234.4935 898.3795,-228.0661 903.055,-222.5762 906.3244,-229.0036 901.6488,-234.4935"/>
<text text-anchor="middle" x="914.5" y="-255" font-family="Helvetica,sans-Serif" font-size="10.00" fill="#000000"> +file</text>
</g>
<!-- Node9 -->
<g id="node9" class="node">
<title>Node9</title>
<polygon fill="none" stroke="#bfbfbf" points="952.5,-463 952.5,-520 997.5,-520 997.5,-463 952.5,-463"/>
<text text-anchor="middle" x="975" y="-508" font-family="Helvetica,sans-Serif" font-size="10.00" fill="#000000">size_t</text>
<polyline fill="none" stroke="#bfbfbf" points="952.5,-501 997.5,-501 "/>
<text text-anchor="middle" x="975" y="-489" font-family="Helvetica,sans-Serif" font-size="10.00" fill="#000000"> </text>
<polyline fill="none" stroke="#bfbfbf" points="952.5,-482 997.5,-482 "/>
<text text-anchor="middle" x="975" y="-470" font-family="Helvetica,sans-Serif" font-size="10.00" fill="#000000"> </text>
</g>
<!-- Node9&#45;&gt;Node1 -->
<g id="edge9" class="edge">
<title>Node9&#45;&gt;Node1</title>
<path fill="none" stroke="#404040" d="M971.2419,-462.9382C964.9448,-415.0809 951.907,-315.9932 941.2758,-235.196"/>
<polygon fill="none" stroke="#404040" points="941.2243,-234.8044 936.4758,-229.3775 939.6588,-222.9069 944.4074,-228.3338 941.2243,-234.8044"/>
<text text-anchor="middle" x="984" y="-266" font-family="Helvetica,sans-Serif" font-size="10.00" fill="#000000"> +nRDHWritten</text>
<text text-anchor="middle" x="984" y="-255" font-family="Helvetica,sans-Serif" font-size="10.00" fill="#000000">+nBytesWritten</text>
<text text-anchor="middle" x="984" y="-244" font-family="Helvetica,sans-Serif" font-size="10.00" fill="#000000">+nTFWritten</text>
</g>
<!-- Node10 -->
<g id="node10" class="node">
<title>Node10</title>
<polygon fill="none" stroke="#bfbfbf" points="1036.5,-463 1036.5,-520 1065.5,-520 1065.5,-463 1036.5,-463"/>
<text text-anchor="middle" x="1051" y="-508" font-family="Helvetica,sans-Serif" font-size="10.00" fill="#000000">int</text>
<polyline fill="none" stroke="#bfbfbf" points="1036.5,-501 1065.5,-501 "/>
<text text-anchor="middle" x="1051" y="-489" font-family="Helvetica,sans-Serif" font-size="10.00" fill="#000000"> </text>
<polyline fill="none" stroke="#bfbfbf" points="1036.5,-482 1065.5,-482 "/>
<text text-anchor="middle" x="1051" y="-470" font-family="Helvetica,sans-Serif" font-size="10.00" fill="#000000"> </text>
</g>
<!-- Node10&#45;&gt;Node1 -->
<g id="edge11" class="edge">
<title>Node10&#45;&gt;Node1</title>
<path fill="none" stroke="#404040" d="M1053.3587,-462.8582C1056.2025,-415.012 1057.3237,-316.6266 1027,-241 1019.2539,-221.6814 1007.6769,-202.8877 995.0708,-185.8799"/>
<polygon fill="none" stroke="#404040" points="994.857,-185.6013 988.0308,-183.2769 987.5508,-176.0818 994.3771,-178.4061 994.857,-185.6013"/>
<text text-anchor="middle" x="1076.5" y="-260.5" font-family="Helvetica,sans-Serif" font-size="10.00" fill="#000000"> +lastRDHoffset</text>
<text text-anchor="middle" x="1076.5" y="-249.5" font-family="Helvetica,sans-Serif" font-size="10.00" fill="#000000">+fileName</text>
</g>
<!-- Node11 -->
<g id="node11" class="node">
<title>Node11</title>
<polygon fill="none" stroke="#bfbfbf" points="1134,-463 1134,-520 1172,-520 1172,-463 1134,-463"/>
<text text-anchor="middle" x="1153" y="-508" font-family="Helvetica,sans-Serif" font-size="10.00" fill="#000000">bool</text>
<polyline fill="none" stroke="#bfbfbf" points="1134,-501 1172,-501 "/>
<text text-anchor="middle" x="1153" y="-489" font-family="Helvetica,sans-Serif" font-size="10.00" fill="#000000"> </text>
<polyline fill="none" stroke="#bfbfbf" points="1134,-482 1172,-482 "/>
<text text-anchor="middle" x="1153" y="-470" font-family="Helvetica,sans-Serif" font-size="10.00" fill="#000000"> </text>
</g>
<!-- Node11&#45;&gt;Node1 -->
<g id="edge12" class="edge">
<title>Node11&#45;&gt;Node1</title>
<path fill="none" stroke="#404040" d="M1156.4912,-462.6763C1160.9861,-413.2666 1163.6498,-310.9677 1120,-241 1091.802,-195.8006 1041.3513,-162.9349 998.8313,-141.6235"/>
<polygon fill="none" stroke="#404040" points="998.7189,-141.5688 991.5737,-142.5416 987.9276,-136.3202 995.0728,-135.3474 998.7189,-141.5688"/>
<text text-anchor="middle" x="1167" y="-255" font-family="Helvetica,sans-Serif" font-size="10.00" fill="#000000"> +startOfRun</text>
</g>
<!-- Node12 -->
<g id="node12" class="node">
<title>Node12</title>
<polygon fill="none" stroke="#bfbfbf" points="1218.5,-463 1218.5,-520 1261.5,-520 1261.5,-463 1218.5,-463"/>
<text text-anchor="middle" x="1240" y="-508" font-family="Helvetica,sans-Serif" font-size="10.00" fill="#000000">const</text>
<polyline fill="none" stroke="#bfbfbf" points="1218.5,-501 1261.5,-501 "/>
<text text-anchor="middle" x="1240" y="-489" font-family="Helvetica,sans-Serif" font-size="10.00" fill="#000000"> </text>
<polyline fill="none" stroke="#bfbfbf" points="1218.5,-482 1261.5,-482 "/>
<text text-anchor="middle" x="1240" y="-470" font-family="Helvetica,sans-Serif" font-size="10.00" fill="#000000"> </text>
</g>
<!-- Node12&#45;&gt;Node1 -->
<g id="edge13" class="edge">
<title>Node12&#45;&gt;Node1</title>
<path fill="none" stroke="#404040" d="M1243.93,-462.6931C1249.166,-412.4017 1252.6693,-307.6065 1203,-241 1154.0839,-175.4036 1063.7092,-141.8949 999.2828,-125.5881"/>
<polygon fill="none" stroke="#404040" points="999.2309,-125.5756 992.4556,-128.0443 987.5708,-122.7396 994.3462,-120.2709 999.2309,-125.5756"/>
<text text-anchor="middle" x="1240" y="-255" font-family="Helvetica,sans-Serif" font-size="10.00" fill="#000000"> +writer</text>
</g>
<!-- Node13 -->
<g id="node13" class="node">
<title>Node13</title>
<polygon fill="none" stroke="#bfbfbf" points="1281,-463 1281,-520 1325,-520 1325,-463 1281,-463"/>
<text text-anchor="middle" x="1303" y="-508" font-family="Helvetica,sans-Serif" font-size="10.00" fill="#000000">static</text>
<polyline fill="none" stroke="#bfbfbf" points="1281,-501 1325,-501 "/>
<text text-anchor="middle" x="1303" y="-489" font-family="Helvetica,sans-Serif" font-size="10.00" fill="#000000"> </text>
<polyline fill="none" stroke="#bfbfbf" points="1281,-482 1325,-482 "/>
<text text-anchor="middle" x="1303" y="-470" font-family="Helvetica,sans-Serif" font-size="10.00" fill="#000000"> </text>
</g>
<!-- Node13&#45;&gt;Node1 -->
<g id="edge14" class="edge">
<title>Node13&#45;&gt;Node1</title>
<path fill="none" stroke="#404040" d="M1307.0912,-462.6988C1312.6225,-411.9496 1316.4561,-305.8448 1264,-241 1199.0258,-160.6806 1078.2008,-130.124 999.7321,-118.5345"/>
<polygon fill="none" stroke="#404040" points="999.4023,-118.4886 992.9077,-121.6223 987.5171,-116.8326 994.0117,-113.6989 999.4023,-118.4886"/>
<text text-anchor="middle" x="1322.5" y="-255" font-family="Helvetica,sans-Serif" font-size="10.00" fill="#000000"> +MarginToFlush</text>
</g>
<!-- Node14&#45;&gt;Node1 -->
<g id="edge15" class="edge">
<title>Node14&#45;&gt;Node1</title>
<path fill="none" stroke="#404040" d="M712.4868,-391.2946C731.0323,-343.4464 756.8767,-286.7834 789,-241 807.0193,-215.3182 830.7076,-190.6462 853.2571,-169.8535"/>
<polygon fill="none" stroke="#404040" points="853.2688,-169.8429 855.0289,-162.8499 862.161,-161.785 860.4009,-168.778 853.2688,-169.8429"/>
<text text-anchor="middle" x="815" y="-255" font-family="Helvetica,sans-Serif" font-size="10.00" fill="#000000"> +rdhCopy</text>
</g>
<!-- Node15 -->
<g id="node15" class="node">
<title>Node15</title>
<polygon fill="none" stroke="#bfbfbf" points="712.5,-848.5 712.5,-905.5 819.5,-905.5 819.5,-848.5 712.5,-848.5"/>
<text text-anchor="middle" x="766" y="-893.5" font-family="Helvetica,sans-Serif" font-size="10.00" fill="#000000">anonymous:+@68</text>
<polyline fill="none" stroke="#bfbfbf" points="712.5,-886.5 819.5,-886.5 "/>
<text text-anchor="middle" x="766" y="-874.5" font-family="Helvetica,sans-Serif" font-size="10.00" fill="#000000"> </text>
<polyline fill="none" stroke="#bfbfbf" points="712.5,-867.5 819.5,-867.5 "/>
<text text-anchor="middle" x="766" y="-855.5" font-family="Helvetica,sans-Serif" font-size="10.00" fill="#000000"> </text>
</g>
<!-- Node15&#45;&gt;Node14 -->
<g id="edge16" class="edge">
<title>Node15&#45;&gt;Node14</title>
<path fill="none" stroke="#404040" d="M759.5319,-848.3398C747.9854,-797.1768 723.2528,-687.5857 704.2235,-603.2662"/>
<polygon fill="none" stroke="#404040" points="704.22,-603.2504 698.9972,-598.2782 701.5782,-591.5448 706.801,-596.517 704.22,-603.2504"/>
<text text-anchor="middle" x="772" y="-767" font-family="Helvetica,sans-Serif" font-size="10.00" fill="#000000"> +@68</text>
</g>
<!-- Node16 -->
<g id="node16" class="node">
<title>Node16</title>
<polygon fill="none" stroke="#bfbfbf" points="837.5,-848.5 837.5,-905.5 944.5,-905.5 944.5,-848.5 837.5,-848.5"/>
<text text-anchor="middle" x="891" y="-893.5" font-family="Helvetica,sans-Serif" font-size="10.00" fill="#000000">anonymous:+@70</text>
<polyline fill="none" stroke="#bfbfbf" points="837.5,-886.5 944.5,-886.5 "/>
<text text-anchor="middle" x="891" y="-874.5" font-family="Helvetica,sans-Serif" font-size="10.00" fill="#000000"> </text>
<polyline fill="none" stroke="#bfbfbf" points="837.5,-867.5 944.5,-867.5 "/>
<text text-anchor="middle" x="891" y="-855.5" font-family="Helvetica,sans-Serif" font-size="10.00" fill="#000000"> </text>
</g>
<!-- Node16&#45;&gt;Node14 -->
<g id="edge17" class="edge">
<title>Node16&#45;&gt;Node14</title>
<path fill="none" stroke="#404040" d="M877.9936,-848.4017C861.2839,-813.4053 829.9816,-753.3433 793,-709 785.1268,-699.5595 779.4315,-700.792 772,-691 751.8363,-664.4315 734.6115,-632.7894 720.6654,-602.6218"/>
<polygon fill="none" stroke="#404040" points="720.6197,-602.5207 714.5032,-598.7012 715.6763,-591.5862 721.7929,-595.4056 720.6197,-602.5207"/>
<text text-anchor="middle" x="885" y="-767" font-family="Helvetica,sans-Serif" font-size="10.00" fill="#000000"> +@70</text>
</g>
<!-- Node17 -->
<g id="node17" class="node">
<title>Node17</title>
<polygon fill="none" stroke="#bfbfbf" points="963,-848.5 963,-905.5 1019,-905.5 1019,-848.5 963,-848.5"/>
<text text-anchor="middle" x="991" y="-893.5" font-family="Helvetica,sans-Serif" font-size="10.00" fill="#000000">uint64_t</text>
<polyline fill="none" stroke="#bfbfbf" points="963,-886.5 1019,-886.5 "/>
<text text-anchor="middle" x="991" y="-874.5" font-family="Helvetica,sans-Serif" font-size="10.00" fill="#000000"> </text>
<polyline fill="none" stroke="#bfbfbf" points="963,-867.5 1019,-867.5 "/>
<text text-anchor="middle" x="991" y="-855.5" font-family="Helvetica,sans-Serif" font-size="10.00" fill="#000000"> </text>
</g>
<!-- Node17&#45;&gt;Node14 -->
<g id="edge18" class="edge">
<title>Node17&#45;&gt;Node14</title>
<path fill="none" stroke="#404040" d="M985.1844,-848.4548C975.7381,-809.9997 953.1566,-742.5207 906,-709 857.0227,-674.185 820.4108,-726.5986 772,-691 742.6117,-669.3895 722.2093,-636.1562 708.1776,-602.9728"/>
<polygon fill="none" stroke="#404040" points="708.1369,-602.8715 702.187,-598.7973 703.6595,-591.7381 709.6093,-595.8123 708.1369,-602.8715"/>
<text text-anchor="middle" x="1011" y="-822" font-family="Helvetica,sans-Serif" font-size="10.00" fill="#000000"> +word7</text>
<text text-anchor="middle" x="1011" y="-811" font-family="Helvetica,sans-Serif" font-size="10.00" fill="#000000">+triggerType</text>
<text text-anchor="middle" x="1011" y="-800" font-family="Helvetica,sans-Serif" font-size="10.00" fill="#000000">+zero6</text>
<text text-anchor="middle" x="1011" y="-789" font-family="Helvetica,sans-Serif" font-size="10.00" fill="#000000">+par</text>
<text text-anchor="middle" x="1011" y="-778" font-family="Helvetica,sans-Serif" font-size="10.00" fill="#000000">+feeId</text>
<text text-anchor="middle" x="1011" y="-767" font-family="Helvetica,sans-Serif" font-size="10.00" fill="#000000">+priority</text>
<text text-anchor="middle" x="1011" y="-756" font-family="Helvetica,sans-Serif" font-size="10.00" fill="#000000">+headerSize</text>
<text text-anchor="middle" x="1011" y="-745" font-family="Helvetica,sans-Serif" font-size="10.00" fill="#000000">+version</text>
<text text-anchor="middle" x="1011" y="-734" font-family="Helvetica,sans-Serif" font-size="10.00" fill="#000000">+triggerBC</text>
<text text-anchor="middle" x="1011" y="-723" font-family="Helvetica,sans-Serif" font-size="10.00" fill="#000000">+zero41</text>
<text text-anchor="middle" x="1011" y="-712" font-family="Helvetica,sans-Serif" font-size="10.00" fill="#000000">...</text>
</g>
<!-- Node18 -->
<g id="node18" class="node">
<title>Node18</title>
<polygon fill="none" stroke="#bfbfbf" points="1037.5,-848.5 1037.5,-905.5 1144.5,-905.5 1144.5,-848.5 1037.5,-848.5"/>
<text text-anchor="middle" x="1091" y="-893.5" font-family="Helvetica,sans-Serif" font-size="10.00" fill="#000000">anonymous:+@72</text>
<polyline fill="none" stroke="#bfbfbf" points="1037.5,-886.5 1144.5,-886.5 "/>
<text text-anchor="middle" x="1091" y="-874.5" font-family="Helvetica,sans-Serif" font-size="10.00" fill="#000000"> </text>
<polyline fill="none" stroke="#bfbfbf" points="1037.5,-867.5 1144.5,-867.5 "/>
<text text-anchor="middle" x="1091" y="-855.5" font-family="Helvetica,sans-Serif" font-size="10.00" fill="#000000"> </text>
</g>
<!-- Node18&#45;&gt;Node14 -->
<g id="edge21" class="edge">
<title>Node18&#45;&gt;Node14</title>
<path fill="none" stroke="#404040" d="M1092.7797,-848.2577C1093.4062,-809.8968 1088.0421,-742.8738 1047,-709 999.7676,-670.0171 822.5461,-725.5783 772,-691 741.5381,-670.1612 720.824,-636.6504 706.8383,-602.9952"/>
<polygon fill="none" stroke="#404040" points="706.7456,-602.7598 700.8254,-598.6427 702.3489,-591.5943 708.2691,-595.7115 706.7456,-602.7598"/>
<text text-anchor="middle" x="1109" y="-767" font-family="Helvetica,sans-Serif" font-size="10.00" fill="#000000"> +@72</text>
</g>
<!-- Node19 -->
<g id="node19" class="node">
<title>Node19</title>
<polygon fill="none" stroke="#bfbfbf" points="1162.5,-848.5 1162.5,-905.5 1269.5,-905.5 1269.5,-848.5 1162.5,-848.5"/>
<text text-anchor="middle" x="1216" y="-893.5" font-family="Helvetica,sans-Serif" font-size="10.00" fill="#000000">anonymous:+@74</text>
<polyline fill="none" stroke="#bfbfbf" points="1162.5,-886.5 1269.5,-886.5 "/>
<text text-anchor="middle" x="1216" y="-874.5" font-family="Helvetica,sans-Serif" font-size="10.00" fill="#000000"> </text>
<polyline fill="none" stroke="#bfbfbf" points="1162.5,-867.5 1269.5,-867.5 "/>
<text text-anchor="middle" x="1216" y="-855.5" font-family="Helvetica,sans-Serif" font-size="10.00" fill="#000000"> </text>
</g>
<!-- Node19&#45;&gt;Node14 -->
<g id="edge23" class="edge">
<title>Node19&#45;&gt;Node14</title>
<path fill="none" stroke="#404040" d="M1210.4771,-848.2053C1201.2971,-809.1319 1178.8403,-740.5782 1130,-709 1063.108,-665.7502 838.0825,-735.4768 772,-691 741.3102,-670.3442 720.5323,-636.7823 706.5586,-603.029"/>
<polygon fill="none" stroke="#404040" points="706.4554,-602.7656 700.5416,-598.6392 702.076,-591.5932 707.9898,-595.7196 706.4554,-602.7656"/>
<text text-anchor="middle" x="1221" y="-767" font-family="Helvetica,sans-Serif" font-size="10.00" fill="#000000"> +@74</text>
</g>
<!-- Node20 -->
<g id="node20" class="node">
<title>Node20</title>
<polygon fill="none" stroke="#bfbfbf" points="1287.5,-848.5 1287.5,-905.5 1394.5,-905.5 1394.5,-848.5 1287.5,-848.5"/>
<text text-anchor="middle" x="1341" y="-893.5" font-family="Helvetica,sans-Serif" font-size="10.00" fill="#000000">anonymous:+@76</text>
<polyline fill="none" stroke="#bfbfbf" points="1287.5,-886.5 1394.5,-886.5 "/>
<text text-anchor="middle" x="1341" y="-874.5" font-family="Helvetica,sans-Serif" font-size="10.00" fill="#000000"> </text>
<polyline fill="none" stroke="#bfbfbf" points="1287.5,-867.5 1394.5,-867.5 "/>
<text text-anchor="middle" x="1341" y="-855.5" font-family="Helvetica,sans-Serif" font-size="10.00" fill="#000000"> </text>
</g>
<!-- Node20&#45;&gt;Node14 -->
<g id="edge24" class="edge">
<title>Node20&#45;&gt;Node14</title>
<path fill="none" stroke="#404040" d="M1303.0755,-848.3817C1297.1644,-842.749 1291.5262,-836.541 1287,-830 1254.3513,-782.8183 1288.4793,-742.6411 1242,-709 1199.6649,-678.3585 815.5289,-719.9205 772,-691 741.1158,-670.4806 720.2829,-636.8554 706.3189,-603.0072"/>
<polygon fill="none" stroke="#404040" points="706.2056,-602.7168 700.2976,-598.5821 701.8419,-591.5383 707.7499,-595.673 706.2056,-602.7168"/>
<text text-anchor="middle" x="1304" y="-767" font-family="Helvetica,sans-Serif" font-size="10.00" fill="#000000"> +@76</text>
</g>
<!-- Node21 -->
<g id="node21" class="node">
<title>Node21</title>
<polygon fill="none" stroke="#bfbfbf" points="337.5,-848.5 337.5,-905.5 444.5,-905.5 444.5,-848.5 337.5,-848.5"/>
<text text-anchor="middle" x="391" y="-893.5" font-family="Helvetica,sans-Serif" font-size="10.00" fill="#000000">anonymous:+@78</text>
<polyline fill="none" stroke="#bfbfbf" points="337.5,-886.5 444.5,-886.5 "/>
<text text-anchor="middle" x="391" y="-874.5" font-family="Helvetica,sans-Serif" font-size="10.00" fill="#000000"> </text>
<polyline fill="none" stroke="#bfbfbf" points="337.5,-867.5 444.5,-867.5 "/>
<text text-anchor="middle" x="391" y="-855.5" font-family="Helvetica,sans-Serif" font-size="10.00" fill="#000000"> </text>
</g>
<!-- Node21&#45;&gt;Node14 -->
<g id="edge25" class="edge">
<title>Node21&#45;&gt;Node14</title>
<path fill="none" stroke="#404040" d="M444.6624,-851.6124C447.474,-850.3724 450.2656,-849.1613 453,-848 473.5885,-839.2558 485.9279,-847.3874 500,-830 534.2464,-787.6852 498.0524,-759.245 519,-709 535.9006,-668.4622 561.8614,-628.464 587.987,-594.0403"/>
<polygon fill="none" stroke="#404040" points="588.0274,-593.9878 588.5218,-586.7936 595.3527,-584.483 594.8583,-591.6772 588.0274,-593.9878"/>
<text text-anchor="middle" x="536" y="-767" font-family="Helvetica,sans-Serif" font-size="10.00" fill="#000000"> +@78</text>
</g>
<!-- Node22 -->
<g id="node22" class="node">
<title>Node22</title>
<polygon fill="none" stroke="#bfbfbf" points="462.5,-848.5 462.5,-905.5 569.5,-905.5 569.5,-848.5 462.5,-848.5"/>
<text text-anchor="middle" x="516" y="-893.5" font-family="Helvetica,sans-Serif" font-size="10.00" fill="#000000">anonymous:+@66</text>
<polyline fill="none" stroke="#bfbfbf" points="462.5,-886.5 569.5,-886.5 "/>
<text text-anchor="middle" x="516" y="-874.5" font-family="Helvetica,sans-Serif" font-size="10.00" fill="#000000"> </text>
<polyline fill="none" stroke="#bfbfbf" points="462.5,-867.5 569.5,-867.5 "/>
<text text-anchor="middle" x="516" y="-855.5" font-family="Helvetica,sans-Serif" font-size="10.00" fill="#000000"> </text>
</g>
<!-- Node22&#45;&gt;Node14 -->
<g id="edge26" class="edge">
<title>Node22&#45;&gt;Node14</title>
<path fill="none" stroke="#404040" d="M543.8193,-848.4555C548.6249,-842.6382 553.2674,-836.3469 557,-830 569.0523,-809.5063 609.915,-693.6774 641.0598,-603.1492"/>
<polygon fill="none" stroke="#404040" points="641.1004,-603.0308 639.267,-596.0566 644.9996,-591.6819 646.833,-598.6561 641.1004,-603.0308"/>
<text text-anchor="middle" x="620" y="-767" font-family="Helvetica,sans-Serif" font-size="10.00" fill="#000000"> +@66</text>
</g>
<!-- Node23 -->
<g id="node23" class="node">
<title>Node23</title>
<polygon fill="none" stroke="#bfbfbf" points="587.5,-848.5 587.5,-905.5 694.5,-905.5 694.5,-848.5 587.5,-848.5"/>
<text text-anchor="middle" x="641" y="-893.5" font-family="Helvetica,sans-Serif" font-size="10.00" fill="#000000">anonymous:+@80</text>
<polyline fill="none" stroke="#bfbfbf" points="587.5,-886.5 694.5,-886.5 "/>
<text text-anchor="middle" x="641" y="-874.5" font-family="Helvetica,sans-Serif" font-size="10.00" fill="#000000"> </text>
<polyline fill="none" stroke="#bfbfbf" points="587.5,-867.5 694.5,-867.5 "/>
<text text-anchor="middle" x="641" y="-855.5" font-family="Helvetica,sans-Serif" font-size="10.00" fill="#000000"> </text>
</g>
<!-- Node23&#45;&gt;Node14 -->
<g id="edge27" class="edge">
<title>Node23&#45;&gt;Node14</title>
<path fill="none" stroke="#404040" d="M643.8251,-848.3398C648.8633,-797.2291 659.6491,-687.8098 667.9573,-603.5249"/>
<polygon fill="none" stroke="#404040" points="667.961,-603.4869 664.5689,-597.1234 669.1383,-591.5448 672.5303,-597.9083 667.961,-603.4869"/>
<text text-anchor="middle" x="673" y="-767" font-family="Helvetica,sans-Serif" font-size="10.00" fill="#000000"> +@80</text>
</g>
</g>
</svg>
