<?xml version="1.0" encoding="UTF-8" standalone="no"?>
<!DOCTYPE svg PUBLIC "-//W3C//DTD SVG 1.1//EN"
 "http://www.w3.org/Graphics/SVG/1.1/DTD/svg11.dtd">
<!-- Generated by graphviz version 2.40.1 (20161225.0304)
 -->
<!-- Title: /home/travis/build/AliceO2Group/AliceO2/Detectors/MUON/MID/Simulation/src/PreClusterLabeler.cxx Pages: 1 -->
<!--zoomable 374 -->
<svg id="main" version="1.1" xmlns="http://www.w3.org/2000/svg" xmlns:xlink="http://www.w3.org/1999/xlink" xml:space="preserve" onload="init(evt)">
<style type="text/css"><![CDATA[
.edge:hover path { stroke: red; }
.edge:hover polygon { stroke: red; fill: red; }
]]></style>
<script type="text/javascript"><![CDATA[
var edges = document.getElementsByTagName('g');
if (edges && edges.length) {
  for (var i=0;i<edges.length;i++) {
    if (edges[i].id.substr(0,4)=='edge') {
      edges[i].setAttribute('class','edge');
    }
  }
}
]]></script>
        <defs>
                <circle id="rim" cx="0" cy="0" r="7"/>
                <circle id="rim2" cx="0" cy="0" r="3.5"/>
                <g id="zoomPlus">
                        <use xlink:href="#rim" fill="#404040">
                                <set attributeName="fill" to="#808080" begin="zoomplus.mouseover" end="zoomplus.mouseout"/>
                        </use>
                        <path d="M-4,0h8M0,-4v8" fill="none" stroke="white" stroke-width="1.5" pointer-events="none"/>
                </g>
                <g id="zoomMin">
                        <use xlink:href="#rim" fill="#404040">
                                <set attributeName="fill" to="#808080" begin="zoomminus.mouseover" end="zoomminus.mouseout"/>
                        </use>
                        <path d="M-4,0h8" fill="none" stroke="white" stroke-width="1.5" pointer-events="none"/>
                </g>
                <g id="dirArrow">
                        <path fill="none" stroke="white" stroke-width="1.5" d="M0,-3.0v7 M-2.5,-0.5L0,-3.0L2.5,-0.5"/>
                </g>
               <g id="resetDef">
                       <use xlink:href="#rim2" fill="#404040">
                               <set attributeName="fill" to="#808080" begin="reset.mouseover" end="reset.mouseout"/>
                       </use>
               </g>
        </defs>

<script type="text/javascript">
var viewWidth = 1162;
var viewHeight = 374;
var sectionId = 'dynsection-0';
</script>
<script xlink:href="../../svgpan.js"/>
<svg id="graph" class="graph">
<g id="viewport">
<title>/home/travis/build/AliceO2Group/AliceO2/Detectors/MUON/MID/Simulation/src/PreClusterLabeler.cxx</title>
<!-- Node0 -->
<g id="node1" class="node">
<title>Node0</title>
<polygon fill="#bfbfbf" stroke="#000000" points="659.5,-313.5 659.5,-365.5 837.5,-365.5 837.5,-313.5 659.5,-313.5"/>
<text text-anchor="start" x="667.5" y="-353.5" font-family="Helvetica,sans-Serif" font-size="10.00" fill="#000000">/home/travis/build</text>
<text text-anchor="start" x="667.5" y="-342.5" font-family="Helvetica,sans-Serif" font-size="10.00" fill="#000000">/AliceO2Group/AliceO2</text>
<text text-anchor="start" x="667.5" y="-331.5" font-family="Helvetica,sans-Serif" font-size="10.00" fill="#000000">/Detectors/MUON/MID/Simulation</text>
<text text-anchor="middle" x="748.5" y="-320.5" font-family="Helvetica,sans-Serif" font-size="10.00" fill="#000000">/src/PreClusterLabeler.cxx</text>
</g>
<!-- Node1 -->
<g id="node2" class="node">
<title>Node1</title>
<g id="a_node2"><a xlink:href="../../de/d28/PreClusterLabeler_8h.html" target="_top" xlink:title="PreClusterLabeler for MID. ">
<polygon fill="none" stroke="#000000" points="678,-246.5 678,-276.5 819,-276.5 819,-246.5 678,-246.5"/>
<text text-anchor="start" x="686" y="-264.5" font-family="Helvetica,sans-Serif" font-size="10.00" fill="#000000">MIDSimulation/PreCluster</text>
<text text-anchor="middle" x="748.5" y="-253.5" font-family="Helvetica,sans-Serif" font-size="10.00" fill="#000000">Labeler.h</text>
</a>
</g>
</g>
<!-- Node0&#45;&gt;Node1 -->
<g id="edge1" class="edge">
<title>Node0&#45;&gt;Node1</title>
<path fill="none" stroke="#191970" d="M748.5,-313.0928C748.5,-304.516 748.5,-295.0289 748.5,-286.5538"/>
<polygon fill="#191970" stroke="#191970" points="752.0001,-286.5045 748.5,-276.5046 745.0001,-286.5046 752.0001,-286.5045"/>
</g>
<!-- Node2 -->
<g id="node3" class="node">
<title>Node2</title>
<polygon fill="none" stroke="#bfbfbf" points="265.5,-118 265.5,-137 313.5,-137 313.5,-118 265.5,-118"/>
<text text-anchor="middle" x="289.5" y="-125" font-family="Helvetica,sans-Serif" font-size="10.00" fill="#000000">gsl/gsl</text>
</g>
<!-- Node1&#45;&gt;Node2 -->
<g id="edge2" class="edge">
<title>Node1&#45;&gt;Node2</title>
<path fill="none" stroke="#191970" d="M677.8293,-248.8112C629.9316,-239.5926 565.4154,-225.9661 509.5,-210 424.6083,-185.7601 404.1022,-176.6935 322.5,-143 321.1471,-142.4414 319.7693,-141.8572 318.3822,-141.2566"/>
<polygon fill="#191970" stroke="#191970" points="319.813,-138.0625 309.2573,-137.1528 316.9418,-144.4466 319.813,-138.0625"/>
</g>
<!-- Node3 -->
<g id="node4" class="node">
<title>Node3</title>
<g id="a_node4"><a xlink:href="../../d2/df9/MUON_2MID_2include_2DataFormatsMID_2ROFRecord_8h.html" target="_top" xlink:title="Definition of the MID event record. ">
<polygon fill="none" stroke="#000000" points="158,-185 158,-204 321,-204 321,-185 158,-185"/>
<text text-anchor="middle" x="239.5" y="-192" font-family="Helvetica,sans-Serif" font-size="10.00" fill="#000000">DataFormatsMID/ROFRecord.h</text>
</a>
</g>
</g>
<!-- Node1&#45;&gt;Node3 -->
<g id="edge3" class="edge">
<title>Node1&#45;&gt;Node3</title>
<path fill="none" stroke="#191970" d="M677.9931,-252.2191C584.7119,-239.9405 420.5857,-218.3364 321.7559,-205.3274"/>
<polygon fill="#191970" stroke="#191970" points="322.1813,-201.8533 311.8101,-204.0182 321.2677,-208.7934 322.1813,-201.8533"/>
</g>
<!-- Node10 -->
<g id="node11" class="node">
<title>Node10</title>
<g id="a_node11"><a xlink:href="../../db/d14/MCTruthContainer_8h.html" target="_top" xlink:title="Definition of a container to keep Monte Carlo truth external to simulation objects. ">
<polygon fill="none" stroke="#000000" points="519,-179.5 519,-209.5 646,-209.5 646,-179.5 519,-179.5"/>
<text text-anchor="start" x="527" y="-197.5" font-family="Helvetica,sans-Serif" font-size="10.00" fill="#000000">SimulationDataFormat</text>
<text text-anchor="middle" x="582.5" y="-186.5" font-family="Helvetica,sans-Serif" font-size="10.00" fill="#000000">/MCTruthContainer.h</text>
</a>
</g>
</g>
<!-- Node1&#45;&gt;Node10 -->
<g id="edge10" class="edge">
<title>Node1&#45;&gt;Node10</title>
<path fill="none" stroke="#191970" d="M711.2464,-246.4639C687.0892,-236.7137 655.4134,-223.9289 629.5264,-213.4805"/>
<polygon fill="#191970" stroke="#191970" points="630.4993,-210.0989 619.9161,-209.6017 627.8793,-216.5901 630.4993,-210.0989"/>
</g>
<!-- Node18 -->
<g id="node19" class="node">
<title>Node18</title>
<g id="a_node19"><a xlink:href="../../d7/dcd/MCCompLabel_8h.html" target="_top" xlink:title="SimulationDataFormat\l/MCCompLabel.h">
<polygon fill="none" stroke="#000000" points="1020,-112.5 1020,-142.5 1147,-142.5 1147,-112.5 1020,-112.5"/>
<text text-anchor="start" x="1028" y="-130.5" font-family="Helvetica,sans-Serif" font-size="10.00" fill="#000000">SimulationDataFormat</text>
<text text-anchor="middle" x="1083.5" y="-119.5" font-family="Helvetica,sans-Serif" font-size="10.00" fill="#000000">/MCCompLabel.h</text>
</a>
</g>
</g>
<!-- Node1&#45;&gt;Node18 -->
<g id="edge20" class="edge">
<title>Node1&#45;&gt;Node18</title>
<path fill="none" stroke="#191970" d="M819.0627,-252.7624C862.8459,-245.4301 919.3551,-232.4222 965.5,-210 985.4155,-200.3229 986.5392,-191.9491 1004.5,-179 1019.2373,-168.375 1036.0421,-157.2845 1050.3529,-148.1285"/>
<polygon fill="#191970" stroke="#191970" points="1052.336,-151.0153 1058.9003,-142.6991 1048.5826,-145.1066 1052.336,-151.0153"/>
</g>
<!-- Node20 -->
<g id="node21" class="node">
<title>Node20</title>
<g id="a_node21"><a xlink:href="../../db/dfb/PreCluster_8h.html" target="_top" xlink:title="Pre&#45;cluster structure for MID. ">
<polygon fill="none" stroke="#000000" points="810.5,-185 810.5,-204 956.5,-204 956.5,-185 810.5,-185"/>
<text text-anchor="middle" x="883.5" y="-192" font-family="Helvetica,sans-Serif" font-size="10.00" fill="#000000">MIDClustering/PreCluster.h</text>
</a>
</g>
</g>
<!-- Node1&#45;&gt;Node20 -->
<g id="edge23" class="edge">
<title>Node1&#45;&gt;Node20</title>
<path fill="none" stroke="#191970" d="M778.7966,-246.4639C801.652,-235.1209 832.7829,-219.6707 855.1494,-208.5703"/>
<polygon fill="#191970" stroke="#191970" points="856.7473,-211.6847 864.1488,-204.1039 853.6353,-205.4144 856.7473,-211.6847"/>
</g>
<!-- Node22 -->
<g id="node23" class="node">
<title>Node22</title>
<g id="a_node23"><a xlink:href="../../de/da1/Detectors_2MUON_2MID_2Simulation_2include_2MIDSimulation_2MCLabel_8h.html" target="_top" xlink:title="Label for MID. ">
<polygon fill="none" stroke="#000000" points="1013,-185 1013,-204 1154,-204 1154,-185 1013,-185"/>
<text text-anchor="middle" x="1083.5" y="-192" font-family="Helvetica,sans-Serif" font-size="10.00" fill="#000000">MIDSimulation/MCLabel.h</text>
</a>
</g>
</g>
<!-- Node1&#45;&gt;Node22 -->
<g id="edge26" class="edge">
<title>Node1&#45;&gt;Node22</title>
<path fill="none" stroke="#191970" d="M819.1355,-247.3729C880.6157,-235.0769 968.6227,-217.4755 1025.9137,-206.0173"/>
<polygon fill="#191970" stroke="#191970" points="1026.7692,-209.4156 1035.8886,-204.0223 1025.3964,-202.5515 1026.7692,-209.4156"/>
</g>
<!-- Node4 -->
<g id="node5" class="node">
<title>Node4</title>
<g id="a_node5"><a xlink:href="../../d9/d80/InteractionRecord_8h.html" target="_top" xlink:title="CommonDataFormat/Interaction\lRecord.h">
<polygon fill="none" stroke="#000000" points="73.5,-112.5 73.5,-142.5 247.5,-142.5 247.5,-112.5 73.5,-112.5"/>
<text text-anchor="start" x="81.5" y="-130.5" font-family="Helvetica,sans-Serif" font-size="10.00" fill="#000000">CommonDataFormat/Interaction</text>
<text text-anchor="middle" x="160.5" y="-119.5" font-family="Helvetica,sans-Serif" font-size="10.00" fill="#000000">Record.h</text>
</a>
</g>
</g>
<!-- Node3&#45;&gt;Node4 -->
<g id="edge4" class="edge">
<title>Node3&#45;&gt;Node4</title>
<path fill="none" stroke="#191970" d="M228.1812,-184.9005C217.2678,-175.6448 200.3657,-161.3101 186.1828,-149.2816"/>
<polygon fill="#191970" stroke="#191970" points="188.1026,-146.3206 178.2122,-142.5218 183.5749,-151.6592 188.1026,-146.3206"/>
</g>
<!-- Node5 -->
<g id="node6" class="node">
<title>Node5</title>
<polygon fill="none" stroke="#bfbfbf" points="547,-.5 547,-19.5 606,-19.5 606,-.5 547,-.5"/>
<text text-anchor="middle" x="576.5" y="-7.5" font-family="Helvetica,sans-Serif" font-size="10.00" fill="#000000">Rtypes.h</text>
</g>
<!-- Node4&#45;&gt;Node5 -->
<g id="edge5" class="edge">
<title>Node4&#45;&gt;Node5</title>
<path fill="none" stroke="#191970" d="M191.545,-112.3755C212.27,-102.2177 240.0964,-88.4619 264.5,-76 281.4973,-67.3202 284.4163,-62.1014 302.5,-56 383.053,-28.8215 482.5643,-17.2625 536.7471,-12.6983"/>
<polygon fill="#191970" stroke="#191970" points="537.2733,-16.1674 546.9602,-11.8762 536.7116,-9.1899 537.2733,-16.1674"/>
</g>
<!-- Node6 -->
<g id="node7" class="node">
<title>Node6</title>
<polygon fill="none" stroke="#bfbfbf" points="312,-56.5 312,-75.5 361,-75.5 361,-56.5 312,-56.5"/>
<text text-anchor="middle" x="336.5" y="-63.5" font-family="Helvetica,sans-Serif" font-size="10.00" fill="#000000">iosfwd</text>
</g>
<!-- Node4&#45;&gt;Node6 -->
<g id="edge6" class="edge">
<title>Node4&#45;&gt;Node6</title>
<path fill="none" stroke="#191970" d="M203.5544,-112.4554C233.8269,-101.8773 273.7994,-87.9096 301.982,-78.0617"/>
<polygon fill="#191970" stroke="#191970" points="303.5062,-81.2367 311.7919,-74.6338 301.197,-74.6285 303.5062,-81.2367"/>
</g>
<!-- Node7 -->
<g id="node8" class="node">
<title>Node7</title>
<polygon fill="none" stroke="#bfbfbf" points="0,-56.5 0,-75.5 47,-75.5 47,-56.5 0,-56.5"/>
<text text-anchor="middle" x="23.5" y="-63.5" font-family="Helvetica,sans-Serif" font-size="10.00" fill="#000000">cmath</text>
</g>
<!-- Node4&#45;&gt;Node7 -->
<g id="edge7" class="edge">
<title>Node4&#45;&gt;Node7</title>
<path fill="none" stroke="#191970" d="M126.986,-112.4554C104.7288,-102.464 75.7353,-89.4487 54.1015,-79.7372"/>
<polygon fill="#191970" stroke="#191970" points="55.2865,-76.4327 44.7301,-75.5303 52.4197,-82.8187 55.2865,-76.4327"/>
</g>
<!-- Node8 -->
<g id="node9" class="node">
<title>Node8</title>
<polygon fill="none" stroke="#bfbfbf" points="526.5,-56.5 526.5,-75.5 576.5,-75.5 576.5,-56.5 526.5,-56.5"/>
<text text-anchor="middle" x="551.5" y="-63.5" font-family="Helvetica,sans-Serif" font-size="10.00" fill="#000000">cstdint</text>
</g>
<!-- Node4&#45;&gt;Node8 -->
<g id="edge8" class="edge">
<title>Node4&#45;&gt;Node8</title>
<path fill="none" stroke="#191970" d="M247.6176,-113.4131C250.6145,-112.9352 253.5821,-112.4631 256.5,-112 350.2832,-97.1172 460.9083,-79.9788 516.2464,-71.4343"/>
<polygon fill="#191970" stroke="#191970" points="516.8886,-74.8767 526.2377,-69.8922 515.8208,-67.9586 516.8886,-74.8767"/>
</g>
<!-- Node9 -->
<g id="node10" class="node">
<title>Node9</title>
<g id="a_node10"><a xlink:href="../../d4/dc6/LHCConstants_8h.html" target="_top" xlink:title="Header to collect LHC related constants. ">
<polygon fill="none" stroke="#000000" points="65.5,-56.5 65.5,-75.5 255.5,-75.5 255.5,-56.5 65.5,-56.5"/>
<text text-anchor="middle" x="160.5" y="-63.5" font-family="Helvetica,sans-Serif" font-size="10.00" fill="#000000">CommonConstants/LHCConstants.h</text>
</a>
</g>
</g>
<!-- Node4&#45;&gt;Node9 -->
<g id="edge9" class="edge">
<title>Node4&#45;&gt;Node9</title>
<path fill="none" stroke="#191970" d="M160.5,-112.2977C160.5,-104.3834 160.5,-94.6043 160.5,-86.0759"/>
<polygon fill="#191970" stroke="#191970" points="164.0001,-85.8469 160.5,-75.8469 157.0001,-85.847 164.0001,-85.8469"/>
</g>
<!-- Node10&#45;&gt;Node2 -->
<g id="edge15" class="edge">
<title>Node10&#45;&gt;Node2</title>
<path fill="none" stroke="#191970" d="M518.8807,-186.3219C465.5505,-178.4236 387.859,-164.4657 322.5,-143 320.6508,-142.3927 318.7697,-141.7076 316.8911,-140.9723"/>
<polygon fill="#191970" stroke="#191970" points="318.2462,-137.7451 307.6774,-137.0033 315.4768,-144.174 318.2462,-137.7451"/>
</g>
<!-- Node10&#45;&gt;Node8 -->
<g id="edge12" class="edge">
<title>Node10&#45;&gt;Node8</title>
<path fill="none" stroke="#191970" d="M578.8222,-179.2548C573.1807,-155.87 562.3951,-111.1619 556.1962,-85.4665"/>
<polygon fill="#191970" stroke="#191970" points="559.5964,-84.6361 553.8487,-75.7358 552.7916,-86.2778 559.5964,-84.6361"/>
</g>
<!-- Node11 -->
<g id="node12" class="node">
<title>Node11</title>
<polygon fill="none" stroke="#bfbfbf" points="580,-118 580,-137 647,-137 647,-118 580,-118"/>
<text text-anchor="middle" x="613.5" y="-125" font-family="Helvetica,sans-Serif" font-size="10.00" fill="#000000">TNamed.h</text>
</g>
<!-- Node10&#45;&gt;Node11 -->
<g id="edge11" class="edge">
<title>Node10&#45;&gt;Node11</title>
<path fill="none" stroke="#191970" d="M589.5344,-179.2967C594.083,-169.4658 600.0346,-156.6026 604.8688,-146.1545"/>
<polygon fill="#191970" stroke="#191970" points="608.0563,-147.6003 609.079,-137.055 601.7033,-144.6609 608.0563,-147.6003"/>
</g>
<!-- Node12 -->
<g id="node13" class="node">
<title>Node12</title>
<polygon fill="none" stroke="#bfbfbf" points="665.5,-118 665.5,-137 717.5,-137 717.5,-118 665.5,-118"/>
<text text-anchor="middle" x="691.5" y="-125" font-family="Helvetica,sans-Serif" font-size="10.00" fill="#000000">cassert</text>
</g>
<!-- Node10&#45;&gt;Node12 -->
<g id="edge13" class="edge">
<title>Node10&#45;&gt;Node12</title>
<path fill="none" stroke="#191970" d="M606.9617,-179.4639C624.921,-168.4247 649.2089,-153.4954 667.1434,-142.4715"/>
<polygon fill="#191970" stroke="#191970" points="669.1893,-145.3223 675.8757,-137.1039 665.5236,-139.3588 669.1893,-145.3223"/>
</g>
<!-- Node13 -->
<g id="node14" class="node">
<title>Node13</title>
<polygon fill="none" stroke="#bfbfbf" points="736,-118 736,-137 801,-137 801,-118 736,-118"/>
<text text-anchor="middle" x="768.5" y="-125" font-family="Helvetica,sans-Serif" font-size="10.00" fill="#000000">stdexcept</text>
</g>
<!-- Node10&#45;&gt;Node13 -->
<g id="edge14" class="edge">
<title>Node10&#45;&gt;Node13</title>
<path fill="none" stroke="#191970" d="M625.0717,-179.4015C653.7589,-169.1961 692.4369,-155.3762 726.5,-143 728.7189,-142.1938 731.0026,-141.3607 733.3044,-140.5184"/>
<polygon fill="#191970" stroke="#191970" points="734.5691,-143.7826 742.7495,-137.0497 732.1559,-137.2117 734.5691,-143.7826"/>
</g>
<!-- Node14 -->
<g id="node15" class="node">
<title>Node14</title>
<polygon fill="none" stroke="#bfbfbf" points="819,-118 819,-137 888,-137 888,-118 819,-118"/>
<text text-anchor="middle" x="853.5" y="-125" font-family="Helvetica,sans-Serif" font-size="10.00" fill="#000000">type_traits</text>
</g>
<!-- Node10&#45;&gt;Node14 -->
<g id="edge16" class="edge">
<title>Node10&#45;&gt;Node14</title>
<path fill="none" stroke="#191970" d="M646.1134,-182.1218C691.8997,-172.7151 754.9475,-158.7398 809.5,-143 812.44,-142.1517 815.4705,-141.2163 818.5009,-140.2378"/>
<polygon fill="#191970" stroke="#191970" points="819.7057,-143.5253 828.0683,-137.0201 817.4743,-136.8905 819.7057,-143.5253"/>
</g>
<!-- Node15 -->
<g id="node16" class="node">
<title>Node15</title>
<polygon fill="none" stroke="#bfbfbf" points="331.5,-118 331.5,-137 381.5,-137 381.5,-118 331.5,-118"/>
<text text-anchor="middle" x="356.5" y="-125" font-family="Helvetica,sans-Serif" font-size="10.00" fill="#000000">cstring</text>
</g>
<!-- Node10&#45;&gt;Node15 -->
<g id="edge17" class="edge">
<title>Node10&#45;&gt;Node15</title>
<path fill="none" stroke="#191970" d="M518.9979,-180.2715C481.1993,-171.112 432.5606,-158.1106 390.5,-143 388.863,-142.4119 387.196,-141.777 385.5232,-141.1115"/>
<polygon fill="#191970" stroke="#191970" points="386.6195,-137.7743 376.0475,-137.0787 383.8783,-144.2153 386.6195,-137.7743"/>
</g>
<!-- Node16 -->
<g id="node17" class="node">
<title>Node16</title>
<polygon fill="none" stroke="#bfbfbf" points="399.5,-118 399.5,-137 457.5,-137 457.5,-118 399.5,-118"/>
<text text-anchor="middle" x="428.5" y="-125" font-family="Helvetica,sans-Serif" font-size="10.00" fill="#000000">memory</text>
</g>
<!-- Node10&#45;&gt;Node16 -->
<g id="edge18" class="edge">
<title>Node10&#45;&gt;Node16</title>
<path fill="none" stroke="#191970" d="M547.9394,-179.4639C521.5182,-167.969 485.4021,-152.2561 459.8209,-141.1266"/>
<polygon fill="#191970" stroke="#191970" points="461.1408,-137.884 450.5747,-137.1039 458.3481,-144.3028 461.1408,-137.884"/>
</g>
<!-- Node17 -->
<g id="node18" class="node">
<title>Node17</title>
<polygon fill="none" stroke="#bfbfbf" points="476,-118 476,-137 523,-137 523,-118 476,-118"/>
<text text-anchor="middle" x="499.5" y="-125" font-family="Helvetica,sans-Serif" font-size="10.00" fill="#000000">vector</text>
</g>
<!-- Node10&#45;&gt;Node17 -->
<g id="edge19" class="edge">
<title>Node10&#45;&gt;Node17</title>
<path fill="none" stroke="#191970" d="M563.666,-179.2967C550.4831,-168.6551 532.8985,-154.4602 519.4716,-143.6217"/>
<polygon fill="#191970" stroke="#191970" points="521.3164,-140.6128 511.3368,-137.055 516.9195,-146.0596 521.3164,-140.6128"/>
</g>
<!-- Node19 -->
<g id="node20" class="node">
<title>Node19</title>
<g id="a_node20"><a xlink:href="../../d2/d45/GPUCommonRtypes_8h.html" target="_top" xlink:title="GPUCommonRtypes.h">
<polygon fill="none" stroke="#000000" points="808,-56.5 808,-75.5 933,-75.5 933,-56.5 808,-56.5"/>
<text text-anchor="middle" x="870.5" y="-63.5" font-family="Helvetica,sans-Serif" font-size="10.00" fill="#000000">GPUCommonRtypes.h</text>
</a>
</g>
</g>
<!-- Node18&#45;&gt;Node19 -->
<g id="edge21" class="edge">
<title>Node18&#45;&gt;Node19</title>
<path fill="none" stroke="#191970" d="M1031.3943,-112.4554C995.0754,-101.9689 947.2197,-88.1515 913.1646,-78.3187"/>
<polygon fill="#191970" stroke="#191970" points="914.0859,-74.9418 903.5074,-75.5303 912.1441,-81.667 914.0859,-74.9418"/>
</g>
<!-- Node19&#45;&gt;Node5 -->
<g id="edge22" class="edge">
<title>Node19&#45;&gt;Node5</title>
<path fill="none" stroke="#191970" d="M820.2937,-56.4369C762.6361,-45.4545 669.2148,-27.66 616.3283,-17.5863"/>
<polygon fill="#191970" stroke="#191970" points="616.7924,-14.1119 606.3141,-15.6789 615.4825,-20.9883 616.7924,-14.1119"/>
</g>
<!-- Node20&#45;&gt;Node8 -->
<g id="edge24" class="edge">
<title>Node20&#45;&gt;Node8</title>
<path fill="none" stroke="#191970" d="M889.5924,-184.7494C899.3385,-167.779 915.5907,-132.655 897.5,-112 877.1832,-88.8034 670.4408,-73.4137 586.5689,-68.0808"/>
<polygon fill="#191970" stroke="#191970" points="586.7047,-64.5825 576.5059,-67.4519 586.268,-71.5689 586.7047,-64.5825"/>
</g>
<!-- Node21 -->
<g id="node22" class="node">
<title>Node21</title>
<polygon fill="none" stroke="#bfbfbf" points="945,-118 945,-137 1002,-137 1002,-118 945,-118"/>
<text text-anchor="middle" x="973.5" y="-125" font-family="Helvetica,sans-Serif" font-size="10.00" fill="#000000">ostream</text>
</g>
<!-- Node20&#45;&gt;Node21 -->
<g id="edge25" class="edge">
<title>Node20&#45;&gt;Node21</title>
<path fill="none" stroke="#191970" d="M896.3948,-184.9005C910.9642,-174.0544 934.9022,-156.2339 952.2454,-143.3229"/>
<polygon fill="#191970" stroke="#191970" points="954.6978,-145.8606 960.6291,-137.0817 950.5177,-140.2457 954.6978,-145.8606"/>
</g>
<!-- Node22&#45;&gt;Node18 -->
<g id="edge27" class="edge">
<title>Node22&#45;&gt;Node18</title>
<path fill="none" stroke="#191970" d="M1083.5,-184.9005C1083.5,-176.5099 1083.5,-163.9451 1083.5,-152.7085"/>
<polygon fill="#191970" stroke="#191970" points="1087.0001,-152.5217 1083.5,-142.5218 1080.0001,-152.5218 1087.0001,-152.5217"/>
</g>
</g>
</svg>
        <g id="navigator" transform="translate(0 0)" fill="#404254">
                <rect fill="#f2f5e9" fill-opacity="0.5" stroke="#606060" stroke-width=".5" x="0" y="0" width="60" height="60"/>
                <use id="zoomplus" xlink:href="#zoomPlus" x="17" y="9" onmousedown="handleZoom(evt,'in')"/>
                <use id="zoomminus" xlink:href="#zoomMin" x="42" y="9" onmousedown="handleZoom(evt,'out')"/>
                <use id="reset" xlink:href="#resetDef" x="30" y="36" onmousedown="handleReset()"/>
                <g id="arrowUp" xlink:href="#dirArrow" transform="translate(30 24)" onmousedown="handlePan(0,-1)">
                  <use xlink:href="#rim" fill="#404040">
                        <set attributeName="fill" to="#808080" begin="arrowUp.mouseover" end="arrowUp.mouseout"/>
                  </use>
                  <path fill="none" stroke="white" stroke-width="1.5" d="M0,-3.0v7 M-2.5,-0.5L0,-3.0L2.5,-0.5"/>
                </g>
                <g id="arrowRight" xlink:href="#dirArrow" transform="rotate(90) translate(36 -43)" onmousedown="handlePan(1,0)">
                  <use xlink:href="#rim" fill="#404040">
                        <set attributeName="fill" to="#808080" begin="arrowRight.mouseover" end="arrowRight.mouseout"/>
                  </use>
                  <path fill="none" stroke="white" stroke-width="1.5" d="M0,-3.0v7 M-2.5,-0.5L0,-3.0L2.5,-0.5"/>
                </g>
                <g id="arrowDown" xlink:href="#dirArrow" transform="rotate(180) translate(-30 -48)" onmousedown="handlePan(0,1)">
                  <use xlink:href="#rim" fill="#404040">
                        <set attributeName="fill" to="#808080" begin="arrowDown.mouseover" end="arrowDown.mouseout"/>
                  </use>
                  <path fill="none" stroke="white" stroke-width="1.5" d="M0,-3.0v7 M-2.5,-0.5L0,-3.0L2.5,-0.5"/>
                </g>
                <g id="arrowLeft" xlink:href="#dirArrow" transform="rotate(270) translate(-36 17)" onmousedown="handlePan(-1,0)">
                  <use xlink:href="#rim" fill="#404040">
                        <set attributeName="fill" to="#808080" begin="arrowLeft.mouseover" end="arrowLeft.mouseout"/>
                  </use>
                  <path fill="none" stroke="white" stroke-width="1.5" d="M0,-3.0v7 M-2.5,-0.5L0,-3.0L2.5,-0.5"/>
                </g>
        </g>
        <svg viewBox="0 0 15 15" width="100%" height="30px" preserveAspectRatio="xMaxYMin meet">
         <g id="arrow_out" transform="scale(0.3 0.3)">
          <a xlink:href="PreClusterLabeler_8cxx__incl_org.svg" target="_base">
           <rect id="button" ry="5" rx="5" y="6" x="6" height="38" width="38"
                fill="#f2f5e9" fill-opacity="0.5" stroke="#606060" stroke-width="1.0"/>
           <path id="arrow"
             d="M 11.500037,31.436501 C 11.940474,20.09759 22.043105,11.32322 32.158766,21.979434 L 37.068811,17.246167 C 37.068811,17.246167 37.088388,32 37.088388,32 L 22.160133,31.978069 C 22.160133,31.978069 26.997745,27.140456 26.997745,27.140456 C 18.528582,18.264221 13.291696,25.230495 11.500037,31.436501 z"
             style="fill:#404040;"/>
          </a>
         </g>
        </svg>
</svg>
