<?xml version="1.0" encoding="UTF-8" standalone="no"?>
<!DOCTYPE svg PUBLIC "-//W3C//DTD SVG 1.1//EN"
 "http://www.w3.org/Graphics/SVG/1.1/DTD/svg11.dtd">
<!-- Generated by graphviz version 2.40.1 (20161225.0304)
 -->
<!-- Title: /home/travis/build/AliceO2Group/AliceO2/Detectors/MUON/MCH/Raw/Encoder/Payload/ElinkEncoder.h Pages: 1 -->
<svg width="1224pt" height="350pt"
 viewBox="0.00 0.00 1224.29 350.00" xmlns="http://www.w3.org/2000/svg" xmlns:xlink="http://www.w3.org/1999/xlink">
<g id="graph0" class="graph" transform="scale(1 1) rotate(0) translate(4 346)">
<title>/home/travis/build/AliceO2Group/AliceO2/Detectors/MUON/MCH/Raw/Encoder/Payload/ElinkEncoder.h</title>
<!-- Node4 -->
<g id="node1" class="node">
<title>Node4</title>
<polygon fill="#bfbfbf" stroke="#000000" points="706.7937,-289.5 706.7937,-341.5 880.7937,-341.5 880.7937,-289.5 706.7937,-289.5"/>
<text text-anchor="start" x="714.7937" y="-329.5" font-family="Helvetica,sans-Serif" font-size="10.00" fill="#000000">/home/travis/build</text>
<text text-anchor="start" x="714.7937" y="-318.5" font-family="Helvetica,sans-Serif" font-size="10.00" fill="#000000">/AliceO2Group/AliceO2</text>
<text text-anchor="start" x="714.7937" y="-307.5" font-family="Helvetica,sans-Serif" font-size="10.00" fill="#000000">/Detectors/MUON/MCH/Raw</text>
<text text-anchor="middle" x="793.7937" y="-296.5" font-family="Helvetica,sans-Serif" font-size="10.00" fill="#000000">/Encoder/Payload/ElinkEncoder.h</text>
</g>
<!-- Node5 -->
<g id="node2" class="node">
<title>Node5</title>
<g id="a_node2"><a xlink:href="../../df/d23/BareElinkEncoder_8h.html" target="_top" xlink:title="/home/travis/build\l/AliceO2Group/AliceO2\l/Detectors/MUON/MCH/Raw\l/Encoder/Payload/BareElinkEncoder.h">
<polygon fill="none" stroke="#000000" points="180.2937,-195 180.2937,-247 377.2937,-247 377.2937,-195 180.2937,-195"/>
<text text-anchor="start" x="188.2937" y="-235" font-family="Helvetica,sans-Serif" font-size="10.00" fill="#000000">/home/travis/build</text>
<text text-anchor="start" x="188.2937" y="-224" font-family="Helvetica,sans-Serif" font-size="10.00" fill="#000000">/AliceO2Group/AliceO2</text>
<text text-anchor="start" x="188.2937" y="-213" font-family="Helvetica,sans-Serif" font-size="10.00" fill="#000000">/Detectors/MUON/MCH/Raw</text>
<text text-anchor="middle" x="278.7937" y="-202" font-family="Helvetica,sans-Serif" font-size="10.00" fill="#000000">/Encoder/Payload/BareElinkEncoder.h</text>
</a>
</g>
</g>
<!-- Node4&#45;&gt;Node5 -->
<g id="edge1" class="edge">
<title>Node4&#45;&gt;Node5</title>
<path fill="none" stroke="#191970" d="M696.6535,-297.6752C605.408,-280.9321 469.534,-255.9999 377.7137,-239.1513"/>
<polygon fill="#191970" stroke="#191970" points="696.2548,-301.1605 706.7223,-299.5228 697.5182,-294.2754 696.2548,-301.1605"/>
</g>
<!-- Node10 -->
<g id="node7" class="node">
<title>Node10</title>
<g id="a_node7"><a xlink:href="../../d8/d2e/BareElinkEncoderMerger_8h.html" target="_top" xlink:title="/home/travis/build\l/AliceO2Group/AliceO2\l/Detectors/MUON/MCH/Raw\l/Encoder/Payload/BareElinkEncoder\lMerger.h">
<polygon fill="none" stroke="#000000" points="836.7937,-89.5 836.7937,-152.5 1024.7937,-152.5 1024.7937,-89.5 836.7937,-89.5"/>
<text text-anchor="start" x="844.7937" y="-140.5" font-family="Helvetica,sans-Serif" font-size="10.00" fill="#000000">/home/travis/build</text>
<text text-anchor="start" x="844.7937" y="-129.5" font-family="Helvetica,sans-Serif" font-size="10.00" fill="#000000">/AliceO2Group/AliceO2</text>
<text text-anchor="start" x="844.7937" y="-118.5" font-family="Helvetica,sans-Serif" font-size="10.00" fill="#000000">/Detectors/MUON/MCH/Raw</text>
<text text-anchor="start" x="844.7937" y="-107.5" font-family="Helvetica,sans-Serif" font-size="10.00" fill="#000000">/Encoder/Payload/BareElinkEncoder</text>
<text text-anchor="middle" x="930.7937" y="-96.5" font-family="Helvetica,sans-Serif" font-size="10.00" fill="#000000">Merger.h</text>
</a>
</g>
</g>
<!-- Node4&#45;&gt;Node10 -->
<g id="edge6" class="edge">
<title>Node4&#45;&gt;Node10</title>
<path fill="none" stroke="#191970" d="M854.7124,-283.6977C866.9797,-275.07 878.8381,-264.7934 887.7937,-253 910.3865,-223.2479 921.3843,-181.1335 926.5456,-152.5337"/>
<polygon fill="#191970" stroke="#191970" points="852.5483,-280.9346 846.185,-289.4057 856.442,-286.7517 852.5483,-280.9346"/>
</g>
<!-- Node11 -->
<g id="node8" class="node">
<title>Node11</title>
<g id="a_node8"><a xlink:href="../../d5/d1a/ElinkEncoder_8cxx.html" target="_top" xlink:title="/home/travis/build\l/AliceO2Group/AliceO2\l/Detectors/MUON/MCH/Raw\l/Encoder/Payload/ElinkEncoder.cxx">
<polygon fill="none" stroke="#000000" points="934.2937,-195 934.2937,-247 1119.2937,-247 1119.2937,-195 934.2937,-195"/>
<text text-anchor="start" x="942.2937" y="-235" font-family="Helvetica,sans-Serif" font-size="10.00" fill="#000000">/home/travis/build</text>
<text text-anchor="start" x="942.2937" y="-224" font-family="Helvetica,sans-Serif" font-size="10.00" fill="#000000">/AliceO2Group/AliceO2</text>
<text text-anchor="start" x="942.2937" y="-213" font-family="Helvetica,sans-Serif" font-size="10.00" fill="#000000">/Detectors/MUON/MCH/Raw</text>
<text text-anchor="middle" x="1026.7937" y="-202" font-family="Helvetica,sans-Serif" font-size="10.00" fill="#000000">/Encoder/Payload/ElinkEncoder.cxx</text>
</a>
</g>
</g>
<!-- Node4&#45;&gt;Node11 -->
<g id="edge9" class="edge">
<title>Node4&#45;&gt;Node11</title>
<path fill="none" stroke="#191970" d="M867.3775,-285.6559C897.8474,-273.298 932.8703,-259.0934 962.3143,-247.1515"/>
<polygon fill="#191970" stroke="#191970" points="866.0301,-282.4254 858.0787,-289.4273 868.6611,-288.9122 866.0301,-282.4254"/>
</g>
<!-- Node12 -->
<g id="node9" class="node">
<title>Node12</title>
<g id="a_node9"><a xlink:href="../../d4/d54/GBTEncoder_8h.html" target="_top" xlink:title="/home/travis/build\l/AliceO2Group/AliceO2\l/Detectors/MUON/MCH/Raw\l/Encoder/Payload/GBTEncoder.h">
<polygon fill="none" stroke="#000000" points="708.7937,-195 708.7937,-247 878.7937,-247 878.7937,-195 708.7937,-195"/>
<text text-anchor="start" x="716.7937" y="-235" font-family="Helvetica,sans-Serif" font-size="10.00" fill="#000000">/home/travis/build</text>
<text text-anchor="start" x="716.7937" y="-224" font-family="Helvetica,sans-Serif" font-size="10.00" fill="#000000">/AliceO2Group/AliceO2</text>
<text text-anchor="start" x="716.7937" y="-213" font-family="Helvetica,sans-Serif" font-size="10.00" fill="#000000">/Detectors/MUON/MCH/Raw</text>
<text text-anchor="middle" x="793.7937" y="-202" font-family="Helvetica,sans-Serif" font-size="10.00" fill="#000000">/Encoder/Payload/GBTEncoder.h</text>
</a>
</g>
</g>
<!-- Node4&#45;&gt;Node12 -->
<g id="edge10" class="edge">
<title>Node4&#45;&gt;Node12</title>
<path fill="none" stroke="#191970" d="M793.7937,-279.1645C793.7937,-268.5577 793.7937,-257.1746 793.7937,-247.3157"/>
<polygon fill="#191970" stroke="#191970" points="790.2938,-279.4273 793.7937,-289.4273 797.2938,-279.4273 790.2938,-279.4273"/>
</g>
<!-- Node14 -->
<g id="node11" class="node">
<title>Node14</title>
<g id="a_node11"><a xlink:href="../../d8/d97/UserLogicElinkEncoder_8h.html" target="_top" xlink:title="/home/travis/build\l/AliceO2Group/AliceO2\l/Detectors/MUON/MCH/Raw\l/Encoder/Payload/UserLogicElink\lEncoder.h">
<polygon fill="none" stroke="#000000" points="515.2937,-189.5 515.2937,-252.5 690.2937,-252.5 690.2937,-189.5 515.2937,-189.5"/>
<text text-anchor="start" x="523.2937" y="-240.5" font-family="Helvetica,sans-Serif" font-size="10.00" fill="#000000">/home/travis/build</text>
<text text-anchor="start" x="523.2937" y="-229.5" font-family="Helvetica,sans-Serif" font-size="10.00" fill="#000000">/AliceO2Group/AliceO2</text>
<text text-anchor="start" x="523.2937" y="-218.5" font-family="Helvetica,sans-Serif" font-size="10.00" fill="#000000">/Detectors/MUON/MCH/Raw</text>
<text text-anchor="start" x="523.2937" y="-207.5" font-family="Helvetica,sans-Serif" font-size="10.00" fill="#000000">/Encoder/Payload/UserLogicElink</text>
<text text-anchor="middle" x="602.7937" y="-196.5" font-family="Helvetica,sans-Serif" font-size="10.00" fill="#000000">Encoder.h</text>
</a>
</g>
</g>
<!-- Node4&#45;&gt;Node14 -->
<g id="edge14" class="edge">
<title>Node4&#45;&gt;Node14</title>
<path fill="none" stroke="#191970" d="M731.9779,-284.9157C711.0361,-274.5545 687.6158,-262.967 666.5277,-252.5333"/>
<polygon fill="#191970" stroke="#191970" points="730.5814,-288.1297 741.0965,-289.4273 733.6856,-281.8557 730.5814,-288.1297"/>
</g>
<!-- Node6 -->
<g id="node3" class="node">
<title>Node6</title>
<g id="a_node3"><a xlink:href="../../d6/d9c/MUON_2MCH_2Raw_2Encoder_2Payload_2Encoder_8cxx.html" target="_top" xlink:title="/home/travis/build\l/AliceO2Group/AliceO2\l/Detectors/MUON/MCH/Raw\l/Encoder/Payload/Encoder.cxx">
<polygon fill="none" stroke="#000000" points="750.2937,-.5 750.2937,-52.5 911.2937,-52.5 911.2937,-.5 750.2937,-.5"/>
<text text-anchor="start" x="758.2937" y="-40.5" font-family="Helvetica,sans-Serif" font-size="10.00" fill="#000000">/home/travis/build</text>
<text text-anchor="start" x="758.2937" y="-29.5" font-family="Helvetica,sans-Serif" font-size="10.00" fill="#000000">/AliceO2Group/AliceO2</text>
<text text-anchor="start" x="758.2937" y="-18.5" font-family="Helvetica,sans-Serif" font-size="10.00" fill="#000000">/Detectors/MUON/MCH/Raw</text>
<text text-anchor="middle" x="830.7937" y="-7.5" font-family="Helvetica,sans-Serif" font-size="10.00" fill="#000000">/Encoder/Payload/Encoder.cxx</text>
</a>
</g>
</g>
<!-- Node5&#45;&gt;Node6 -->
<g id="edge2" class="edge">
<title>Node5&#45;&gt;Node6</title>
<path fill="none" stroke="#191970" d="M272.9136,-184.7872C270.2821,-154.6638 272.2902,-112.9724 297.7937,-89 333.7772,-55.1767 692.2403,-62.0219 740.7937,-53 743.8364,-52.4346 746.9232,-51.8072 750.0308,-51.13"/>
<polygon fill="#191970" stroke="#191970" points="269.4534,-185.3454 274.007,-194.9117 276.413,-184.5937 269.4534,-185.3454"/>
</g>
<!-- Node7 -->
<g id="node4" class="node">
<title>Node7</title>
<g id="a_node4"><a xlink:href="../../d7/d33/testBareElinkEncoder_8cxx.html" target="_top" xlink:title="/home/travis/build\l/AliceO2Group/AliceO2\l/Detectors/MUON/MCH/Raw\l/Encoder/Payload/testBareElinkEncoder.cxx">
<polygon fill="none" stroke="#000000" points="23.2937,-95 23.2937,-147 250.2937,-147 250.2937,-95 23.2937,-95"/>
<text text-anchor="start" x="31.2937" y="-135" font-family="Helvetica,sans-Serif" font-size="10.00" fill="#000000">/home/travis/build</text>
<text text-anchor="start" x="31.2937" y="-124" font-family="Helvetica,sans-Serif" font-size="10.00" fill="#000000">/AliceO2Group/AliceO2</text>
<text text-anchor="start" x="31.2937" y="-113" font-family="Helvetica,sans-Serif" font-size="10.00" fill="#000000">/Detectors/MUON/MCH/Raw</text>
<text text-anchor="middle" x="136.7937" y="-102" font-family="Helvetica,sans-Serif" font-size="10.00" fill="#000000">/Encoder/Payload/testBareElinkEncoder.cxx</text>
</a>
</g>
</g>
<!-- Node5&#45;&gt;Node7 -->
<g id="edge3" class="edge">
<title>Node5&#45;&gt;Node7</title>
<path fill="none" stroke="#191970" d="M233.5491,-189.1376C214.3594,-175.6237 192.2661,-160.0651 174.0402,-147.2299"/>
<polygon fill="#191970" stroke="#191970" points="231.6642,-192.091 241.8555,-194.9872 235.6947,-186.3678 231.6642,-192.091"/>
</g>
<!-- Node8 -->
<g id="node5" class="node">
<title>Node8</title>
<g id="a_node5"><a xlink:href="../../d4/df7/testElinkEncoder_8cxx.html" target="_top" xlink:title="/home/travis/build\l/AliceO2Group/AliceO2\l/Detectors/MUON/MCH/Raw\l/Encoder/Payload/testElinkEncoder.cxx">
<polygon fill="none" stroke="#000000" points="306.7937,-95 306.7937,-147 510.7937,-147 510.7937,-95 306.7937,-95"/>
<text text-anchor="start" x="314.7937" y="-135" font-family="Helvetica,sans-Serif" font-size="10.00" fill="#000000">/home/travis/build</text>
<text text-anchor="start" x="314.7937" y="-124" font-family="Helvetica,sans-Serif" font-size="10.00" fill="#000000">/AliceO2Group/AliceO2</text>
<text text-anchor="start" x="314.7937" y="-113" font-family="Helvetica,sans-Serif" font-size="10.00" fill="#000000">/Detectors/MUON/MCH/Raw</text>
<text text-anchor="middle" x="408.7937" y="-102" font-family="Helvetica,sans-Serif" font-size="10.00" fill="#000000">/Encoder/Payload/testElinkEncoder.cxx</text>
</a>
</g>
</g>
<!-- Node5&#45;&gt;Node8 -->
<g id="edge4" class="edge">
<title>Node5&#45;&gt;Node8</title>
<path fill="none" stroke="#191970" d="M320.9253,-188.5911C338.3264,-175.2056 358.2336,-159.8924 374.6948,-147.2299"/>
<polygon fill="#191970" stroke="#191970" points="318.4025,-186.1159 312.6103,-194.9872 322.6705,-191.6643 318.4025,-186.1159"/>
</g>
<!-- Node9 -->
<g id="node6" class="node">
<title>Node9</title>
<g id="a_node6"><a xlink:href="../../d5/dd6/testGBTEncoder_8cxx.html" target="_top" xlink:title="/home/travis/build\l/AliceO2Group/AliceO2\l/Detectors/MUON/MCH/Raw\l/Encoder/Payload/testGBTEncoder.cxx">
<polygon fill="none" stroke="#000000" points="531.7937,-.5 531.7937,-52.5 731.7937,-52.5 731.7937,-.5 531.7937,-.5"/>
<text text-anchor="start" x="539.7937" y="-40.5" font-family="Helvetica,sans-Serif" font-size="10.00" fill="#000000">/home/travis/build</text>
<text text-anchor="start" x="539.7937" y="-29.5" font-family="Helvetica,sans-Serif" font-size="10.00" fill="#000000">/AliceO2Group/AliceO2</text>
<text text-anchor="start" x="539.7937" y="-18.5" font-family="Helvetica,sans-Serif" font-size="10.00" fill="#000000">/Detectors/MUON/MCH/Raw</text>
<text text-anchor="middle" x="631.7937" y="-7.5" font-family="Helvetica,sans-Serif" font-size="10.00" fill="#000000">/Encoder/Payload/testGBTEncoder.cxx</text>
</a>
</g>
</g>
<!-- Node5&#45;&gt;Node9 -->
<g id="edge5" class="edge">
<title>Node5&#45;&gt;Node9</title>
<path fill="none" stroke="#191970" d="M170.0218,-206.7126C105.8385,-195.8017 33.4151,-178.292 13.7937,-153 -3.6417,-130.5257 -5.2809,-110.1009 13.7937,-89 47.8046,-51.3759 365.5636,-35.2975 531.6719,-29.4163"/>
<polygon fill="#191970" stroke="#191970" points="169.8049,-210.2244 180.2427,-208.4073 170.9499,-203.3187 169.8049,-210.2244"/>
</g>
<!-- Node10&#45;&gt;Node6 -->
<g id="edge7" class="edge">
<title>Node10&#45;&gt;Node6</title>
<path fill="none" stroke="#191970" d="M889.685,-82.1523C879.1714,-72.217 868.116,-61.7696 858.4594,-52.6442"/>
<polygon fill="#191970" stroke="#191970" points="887.5449,-84.9454 897.2169,-89.27 892.3527,-79.8577 887.5449,-84.9454"/>
</g>
<!-- Node10&#45;&gt;Node9 -->
<g id="edge8" class="edge">
<title>Node10&#45;&gt;Node9</title>
<path fill="none" stroke="#191970" d="M826.8399,-88.145C790.0476,-76.5167 749.1863,-63.6024 714.4082,-52.6106"/>
<polygon fill="#191970" stroke="#191970" points="826.0087,-91.5529 836.5986,-91.2293 828.1183,-84.8784 826.0087,-91.5529"/>
</g>
<!-- Node12&#45;&gt;Node9 -->
<g id="edge13" class="edge">
<title>Node12&#45;&gt;Node9</title>
<path fill="none" stroke="#191970" d="M789.8935,-184.7948C785.1404,-156.0157 774.6805,-116.2088 751.7937,-89 739.0168,-73.8103 721.6005,-61.8388 703.9995,-52.6157"/>
<polygon fill="#191970" stroke="#191970" points="786.4574,-185.483 791.3989,-194.8549 793.3803,-184.447 786.4574,-185.483"/>
</g>
<!-- Node13 -->
<g id="node10" class="node">
<title>Node13</title>
<g id="a_node10"><a xlink:href="../../df/da6/EncoderImpl_8h.html" target="_top" xlink:title="/home/travis/build\l/AliceO2Group/AliceO2\l/Detectors/MUON/MCH/Raw\l/Encoder/Payload/EncoderImpl.h">
<polygon fill="none" stroke="#000000" points="1043.2937,-95 1043.2937,-147 1216.2937,-147 1216.2937,-95 1043.2937,-95"/>
<text text-anchor="start" x="1051.2937" y="-135" font-family="Helvetica,sans-Serif" font-size="10.00" fill="#000000">/home/travis/build</text>
<text text-anchor="start" x="1051.2937" y="-124" font-family="Helvetica,sans-Serif" font-size="10.00" fill="#000000">/AliceO2Group/AliceO2</text>
<text text-anchor="start" x="1051.2937" y="-113" font-family="Helvetica,sans-Serif" font-size="10.00" fill="#000000">/Detectors/MUON/MCH/Raw</text>
<text text-anchor="middle" x="1129.7937" y="-102" font-family="Helvetica,sans-Serif" font-size="10.00" fill="#000000">/Encoder/Payload/EncoderImpl.h</text>
</a>
</g>
</g>
<!-- Node12&#45;&gt;Node13 -->
<g id="edge11" class="edge">
<title>Node12&#45;&gt;Node13</title>
<path fill="none" stroke="#191970" d="M888.9094,-195.1269C933.1042,-182.8298 986.2754,-167.6431 1033.7937,-153 1039.9217,-151.1116 1046.2538,-149.1112 1052.6073,-147.0691"/>
<polygon fill="#191970" stroke="#191970" points="887.7418,-191.8186 879.0423,-197.8659 889.6142,-198.5635 887.7418,-191.8186"/>
</g>
<!-- Node13&#45;&gt;Node6 -->
<g id="edge12" class="edge">
<title>Node13&#45;&gt;Node6</title>
<path fill="none" stroke="#191970" d="M1042.6693,-91.8615C1039.6761,-90.8914 1036.7109,-89.9352 1033.7937,-89 993.5864,-76.1111 948.7364,-62.2489 911.44,-50.8623"/>
<polygon fill="#191970" stroke="#191970" points="1041.7064,-95.2288 1052.2988,-94.9979 1043.8744,-88.5729 1041.7064,-95.2288"/>
</g>
<!-- Node14&#45;&gt;Node6 -->
<g id="edge15" class="edge">
<title>Node14&#45;&gt;Node6</title>
<path fill="none" stroke="#191970" d="M699.7408,-186.7816C718.2341,-177.5813 736.5503,-166.3789 751.7937,-153 783.8059,-124.9034 807.297,-80.6826 820,-52.661"/>
<polygon fill="#191970" stroke="#191970" points="698.1628,-183.6566 690.6608,-191.138 701.1908,-189.9678 698.1628,-183.6566"/>
</g>
<!-- Node14&#45;&gt;Node8 -->
<g id="edge19" class="edge">
<title>Node14&#45;&gt;Node8</title>
<path fill="none" stroke="#191970" d="M532.5485,-184.7911C508.3868,-172.3367 481.8225,-158.6437 459.5204,-147.1478"/>
<polygon fill="#191970" stroke="#191970" points="531.1849,-188.0258 541.6771,-189.4966 534.3922,-181.8038 531.1849,-188.0258"/>
</g>
<!-- Node14&#45;&gt;Node9 -->
<g id="edge20" class="edge">
<title>Node14&#45;&gt;Node9</title>
<path fill="none" stroke="#191970" d="M571.555,-180.8832C566.2976,-172.136 561.6312,-162.6085 558.7937,-153 550.7376,-125.7202 546.9007,-114.8388 558.7937,-89 565.351,-74.7536 576.9351,-62.5428 588.9704,-52.7934"/>
<polygon fill="#191970" stroke="#191970" points="568.6287,-182.8038 576.9636,-189.3445 574.5267,-179.0337 568.6287,-182.8038"/>
</g>
<!-- Node15 -->
<g id="node12" class="node">
<title>Node15</title>
<g id="a_node12"><a xlink:href="../../d8/dc5/UserLogicElinkEncoderMerger_8h.html" target="_top" xlink:title="/home/travis/build\l/AliceO2Group/AliceO2\l/Detectors/MUON/MCH/Raw\l/Encoder/Payload/UserLogicElink\lEncoderMerger.h">
<polygon fill="none" stroke="#000000" points="567.2937,-89.5 567.2937,-152.5 742.2937,-152.5 742.2937,-89.5 567.2937,-89.5"/>
<text text-anchor="start" x="575.2937" y="-140.5" font-family="Helvetica,sans-Serif" font-size="10.00" fill="#000000">/home/travis/build</text>
<text text-anchor="start" x="575.2937" y="-129.5" font-family="Helvetica,sans-Serif" font-size="10.00" fill="#000000">/AliceO2Group/AliceO2</text>
<text text-anchor="start" x="575.2937" y="-118.5" font-family="Helvetica,sans-Serif" font-size="10.00" fill="#000000">/Detectors/MUON/MCH/Raw</text>
<text text-anchor="start" x="575.2937" y="-107.5" font-family="Helvetica,sans-Serif" font-size="10.00" fill="#000000">/Encoder/Payload/UserLogicElink</text>
<text text-anchor="middle" x="654.7937" y="-96.5" font-family="Helvetica,sans-Serif" font-size="10.00" fill="#000000">EncoderMerger.h</text>
</a>
</g>
</g>
<!-- Node14&#45;&gt;Node15 -->
<g id="edge16" class="edge">
<title>Node14&#45;&gt;Node15</title>
<path fill="none" stroke="#191970" d="M623.9253,-180.3622C628.7048,-171.1709 633.7119,-161.5418 638.2691,-152.778"/>
<polygon fill="#191970" stroke="#191970" points="620.7551,-178.8724 619.2468,-189.3594 626.9656,-182.1019 620.7551,-178.8724"/>
</g>
<!-- Node15&#45;&gt;Node6 -->
<g id="edge17" class="edge">
<title>Node15&#45;&gt;Node6</title>
<path fill="none" stroke="#191970" d="M722.8523,-84.4572C742.6114,-73.8479 763.7864,-62.4784 782.1019,-52.6442"/>
<polygon fill="#191970" stroke="#191970" points="721.0434,-81.4558 713.8887,-89.27 724.3548,-87.623 721.0434,-81.4558"/>
</g>
<!-- Node15&#45;&gt;Node9 -->
<g id="edge18" class="edge">
<title>Node15&#45;&gt;Node9</title>
<path fill="none" stroke="#191970" d="M644.7022,-79.5374C642.4787,-70.4013 640.1837,-60.9722 638.1568,-52.6442"/>
<polygon fill="#191970" stroke="#191970" points="641.3054,-80.3813 647.071,-89.27 648.1069,-78.7259 641.3054,-80.3813"/>
</g>
</g>
</svg>
