<?xml version="1.0" encoding="UTF-8" standalone="no"?>
<!DOCTYPE svg PUBLIC "-//W3C//DTD SVG 1.1//EN"
 "http://www.w3.org/Graphics/SVG/1.1/DTD/svg11.dtd">
<!-- Generated by graphviz version 2.40.1 (20161225.0304)
 -->
<!-- Title: /home/travis/build/AliceO2Group/AliceO2/Detectors/MUON/MCH/Raw/Decoder/src/BareGBTDecoder.h Pages: 1 -->
<svg width="1366pt" height="307pt"
 viewBox="0.00 0.00 1366.06 307.00" xmlns="http://www.w3.org/2000/svg" xmlns:xlink="http://www.w3.org/1999/xlink">
<g id="graph0" class="graph" transform="scale(1 1) rotate(0) translate(4 303)">
<title>/home/travis/build/AliceO2Group/AliceO2/Detectors/MUON/MCH/Raw/Decoder/src/BareGBTDecoder.h</title>
<!-- Node0 -->
<g id="node1" class="node">
<title>Node0</title>
<polygon fill="#bfbfbf" stroke="#000000" points="845.5586,-246.5 845.5586,-298.5 1017.5586,-298.5 1017.5586,-246.5 845.5586,-246.5"/>
<text text-anchor="start" x="853.5586" y="-286.5" font-family="Helvetica,sans-Serif" font-size="10.00" fill="#000000">/home/travis/build</text>
<text text-anchor="start" x="853.5586" y="-275.5" font-family="Helvetica,sans-Serif" font-size="10.00" fill="#000000">/AliceO2Group/AliceO2</text>
<text text-anchor="start" x="853.5586" y="-264.5" font-family="Helvetica,sans-Serif" font-size="10.00" fill="#000000">/Detectors/MUON/MCH/Raw</text>
<text text-anchor="middle" x="931.5586" y="-253.5" font-family="Helvetica,sans-Serif" font-size="10.00" fill="#000000">/Decoder/src/BareGBTDecoder.h</text>
</g>
<!-- Node1 -->
<g id="node2" class="node">
<title>Node1</title>
<polygon fill="none" stroke="#bfbfbf" points="1001.5586,-118 1001.5586,-137 1043.5586,-137 1043.5586,-118 1001.5586,-118"/>
<text text-anchor="middle" x="1022.5586" y="-125" font-family="Helvetica,sans-Serif" font-size="10.00" fill="#000000">array</text>
</g>
<!-- Node0&#45;&gt;Node1 -->
<g id="edge1" class="edge">
<title>Node0&#45;&gt;Node1</title>
<path fill="none" stroke="#191970" d="M939.4344,-246.1239C945.9866,-226.591 956.5092,-199.8612 970.5586,-179 979.4949,-165.731 992.2193,-153.0567 1002.844,-143.6018"/>
<polygon fill="#191970" stroke="#191970" points="1005.1677,-146.2197 1010.462,-137.0425 1000.6003,-140.9151 1005.1677,-146.2197"/>
</g>
<!-- Node2 -->
<g id="node3" class="node">
<title>Node2</title>
<g id="a_node3"><a xlink:href="../../d7/ddc/BareElinkDecoder_8h.html" target="_top" xlink:title="BareElinkDecoder.h">
<polygon fill="none" stroke="#000000" points="343.5586,-185 343.5586,-204 455.5586,-204 455.5586,-185 343.5586,-185"/>
<text text-anchor="middle" x="399.5586" y="-192" font-family="Helvetica,sans-Serif" font-size="10.00" fill="#000000">BareElinkDecoder.h</text>
</a>
</g>
</g>
<!-- Node0&#45;&gt;Node2 -->
<g id="edge2" class="edge">
<title>Node0&#45;&gt;Node2</title>
<path fill="none" stroke="#191970" d="M845.4924,-259.8813C739.516,-244.3434 561.8065,-218.2882 465.8426,-204.2183"/>
<polygon fill="#191970" stroke="#191970" points="466.0877,-200.7169 455.6857,-202.7292 465.0722,-207.6429 466.0877,-200.7169"/>
</g>
<!-- Node3 -->
<g id="node4" class="node">
<title>Node3</title>
<g id="a_node4"><a xlink:href="../../dc/d46/Assertions_8h.html" target="_top" xlink:title="Assertions.h">
<polygon fill="none" stroke="#000000" points="18.0586,-118 18.0586,-137 95.0586,-137 95.0586,-118 18.0586,-118"/>
<text text-anchor="middle" x="56.5586" y="-125" font-family="Helvetica,sans-Serif" font-size="10.00" fill="#000000">Assertions.h</text>
</a>
</g>
</g>
<!-- Node0&#45;&gt;Node3 -->
<g id="edge35" class="edge">
<title>Node0&#45;&gt;Node3</title>
<path fill="none" stroke="#191970" d="M845.2981,-268.4616C728.5543,-261.8644 514.1908,-245.7399 334.5586,-210 245.9597,-192.3722 144.9839,-158.9244 92.5094,-140.4941"/>
<polygon fill="#191970" stroke="#191970" points="93.5791,-137.16 82.9843,-137.126 91.2454,-143.7596 93.5791,-137.16"/>
</g>
<!-- Node4 -->
<g id="node5" class="node">
<title>Node4</title>
<polygon fill="none" stroke="#bfbfbf" points="65.0586,-.5 65.0586,-19.5 144.0586,-19.5 144.0586,-.5 65.0586,-.5"/>
<text text-anchor="middle" x="104.5586" y="-7.5" font-family="Helvetica,sans-Serif" font-size="10.00" fill="#000000">fmt/format.h</text>
</g>
<!-- Node0&#45;&gt;Node4 -->
<g id="edge31" class="edge">
<title>Node0&#45;&gt;Node4</title>
<path fill="none" stroke="#191970" d="M845.5226,-267.4328C682.3973,-257.4215 333.874,-233.9898 215.5586,-210 120.788,-190.7841 65.4411,-221.1991 8.5586,-143 -22.5351,-100.2539 41.9321,-49.5735 79.7297,-24.9378"/>
<polygon fill="#191970" stroke="#191970" points="81.677,-27.8473 88.243,-19.5324 77.9248,-21.9378 81.677,-27.8473"/>
</g>
<!-- Node8 -->
<g id="node9" class="node">
<title>Node8</title>
<polygon fill="none" stroke="#bfbfbf" points="599.5586,-.5 599.5586,-19.5 659.5586,-19.5 659.5586,-.5 599.5586,-.5"/>
<text text-anchor="middle" x="629.5586" y="-7.5" font-family="Helvetica,sans-Serif" font-size="10.00" fill="#000000">iostream</text>
</g>
<!-- Node0&#45;&gt;Node8 -->
<g id="edge36" class="edge">
<title>Node0&#45;&gt;Node8</title>
<path fill="none" stroke="#191970" d="M1017.8256,-257.4322C1068.4274,-246.642 1125.3463,-230.4271 1140.5586,-210 1166.5736,-175.0671 1168.1787,-145.6781 1140.5586,-112 1080.7466,-39.069 779.3339,-17.2739 669.5938,-11.6982"/>
<polygon fill="#191970" stroke="#191970" points="669.746,-8.2015 659.5867,-11.208 669.4035,-15.1931 669.746,-8.2015"/>
</g>
<!-- Node9 -->
<g id="node10" class="node">
<title>Node9</title>
<g id="a_node10"><a xlink:href="../../dd/d58/SampaChannelHandler_8h.html" target="_top" xlink:title="MCHRawDecoder/SampaChannel\lHandler.h">
<polygon fill="none" stroke="#000000" points="717.0586,-112.5 717.0586,-142.5 894.0586,-142.5 894.0586,-112.5 717.0586,-112.5"/>
<text text-anchor="start" x="725.0586" y="-130.5" font-family="Helvetica,sans-Serif" font-size="10.00" fill="#000000">MCHRawDecoder/SampaChannel</text>
<text text-anchor="middle" x="805.5586" y="-119.5" font-family="Helvetica,sans-Serif" font-size="10.00" fill="#000000">Handler.h</text>
</a>
</g>
</g>
<!-- Node0&#45;&gt;Node9 -->
<g id="edge28" class="edge">
<title>Node0&#45;&gt;Node9</title>
<path fill="none" stroke="#191970" d="M908.741,-246.2416C885.064,-218.9942 848.3912,-176.7914 825.7391,-150.7236"/>
<polygon fill="#191970" stroke="#191970" points="828.1126,-148.1189 818.9115,-142.8663 822.8288,-152.7104 828.1126,-148.1189"/>
</g>
<!-- Node18 -->
<g id="node19" class="node">
<title>Node18</title>
<polygon fill="none" stroke="#bfbfbf" points="912.0586,-118 912.0586,-137 983.0586,-137 983.0586,-118 912.0586,-118"/>
<text text-anchor="middle" x="947.5586" y="-125" font-family="Helvetica,sans-Serif" font-size="10.00" fill="#000000">fmt/printf.h</text>
</g>
<!-- Node0&#45;&gt;Node18 -->
<g id="edge30" class="edge">
<title>Node0&#45;&gt;Node18</title>
<path fill="none" stroke="#191970" d="M931.8641,-246.2014C932.3502,-227.4086 933.5649,-201.5604 936.5586,-179 937.959,-168.447 940.3611,-156.8398 942.564,-147.3204"/>
<polygon fill="#191970" stroke="#191970" points="946.0403,-147.8351 944.9866,-137.2928 939.236,-146.1912 946.0403,-147.8351"/>
</g>
<!-- Node21 -->
<g id="node22" class="node">
<title>Node21</title>
<polygon fill="none" stroke="#bfbfbf" points="1074.0586,-185 1074.0586,-204 1131.0586,-204 1131.0586,-185 1074.0586,-185"/>
<text text-anchor="middle" x="1102.5586" y="-192" font-family="Helvetica,sans-Serif" font-size="10.00" fill="#000000">gsl/span</text>
</g>
<!-- Node0&#45;&gt;Node21 -->
<g id="edge29" class="edge">
<title>Node0&#45;&gt;Node21</title>
<path fill="none" stroke="#191970" d="M988.9749,-246.3101C1016.8213,-233.6083 1049.1388,-218.867 1072.1651,-208.3637"/>
<polygon fill="#191970" stroke="#191970" points="1073.7789,-211.4746 1081.4245,-204.1401 1070.8738,-205.1059 1073.7789,-211.4746"/>
</g>
<!-- Node22 -->
<g id="node23" class="node">
<title>Node22</title>
<g id="a_node23"><a xlink:href="../../d7/dee/MakeArray_8h.html" target="_top" xlink:title="MakeArray.h">
<polygon fill="none" stroke="#000000" points="979.0586,-185 979.0586,-204 1056.0586,-204 1056.0586,-185 979.0586,-185"/>
<text text-anchor="middle" x="1017.5586" y="-192" font-family="Helvetica,sans-Serif" font-size="10.00" fill="#000000">MakeArray.h</text>
</a>
</g>
</g>
<!-- Node0&#45;&gt;Node22 -->
<g id="edge32" class="edge">
<title>Node0&#45;&gt;Node22</title>
<path fill="none" stroke="#191970" d="M960.6743,-246.0928C973.5357,-234.4278 988.2536,-221.079 999.496,-210.8824"/>
<polygon fill="#191970" stroke="#191970" points="1001.9359,-213.3946 1006.9918,-204.0839 997.2332,-208.2095 1001.9359,-213.3946"/>
</g>
<!-- Node24 -->
<g id="node25" class="node">
<title>Node24</title>
<polygon fill="none" stroke="#bfbfbf" points="1187.5586,-179.5 1187.5586,-209.5 1303.5586,-209.5 1303.5586,-179.5 1187.5586,-179.5"/>
<text text-anchor="start" x="1195.5586" y="-197.5" font-family="Helvetica,sans-Serif" font-size="10.00" fill="#000000">boost/multiprecision</text>
<text text-anchor="middle" x="1245.5586" y="-186.5" font-family="Helvetica,sans-Serif" font-size="10.00" fill="#000000">/cpp_int.hpp</text>
</g>
<!-- Node0&#45;&gt;Node24 -->
<g id="edge37" class="edge">
<title>Node0&#45;&gt;Node24</title>
<path fill="none" stroke="#191970" d="M1017.7758,-251.083C1068.1171,-238.5778 1130.7381,-223.0223 1177.5742,-211.3878"/>
<polygon fill="#191970" stroke="#191970" points="1178.4576,-214.7749 1187.3188,-208.9672 1176.77,-207.9813 1178.4576,-214.7749"/>
</g>
<!-- Node2&#45;&gt;Node3 -->
<g id="edge3" class="edge">
<title>Node2&#45;&gt;Node3</title>
<path fill="none" stroke="#191970" d="M343.3246,-186.3704C284.6281,-177.4521 190.0888,-161.8672 109.5586,-143 105.4108,-142.0282 101.106,-140.9268 96.8237,-139.77"/>
<polygon fill="#191970" stroke="#191970" points="97.5305,-136.3333 86.957,-137.0052 95.6417,-143.0736 97.5305,-136.3333"/>
</g>
<!-- Node2&#45;&gt;Node4 -->
<g id="edge21" class="edge">
<title>Node2&#45;&gt;Node4</title>
<path fill="none" stroke="#191970" d="M343.3773,-186.8953C286.1967,-178.2278 202.4021,-162.6785 176.5586,-143 138.5855,-114.0853 118.2372,-59.1753 109.63,-29.7655"/>
<polygon fill="#191970" stroke="#191970" points="112.9279,-28.5586 106.8939,-19.8499 106.1801,-30.4206 112.9279,-28.5586"/>
</g>
<!-- Node5 -->
<g id="node6" class="node">
<title>Node5</title>
<g id="a_node6"><a xlink:href="../../d0/d64/DataFormats_8h.html" target="_top" xlink:title="MCHRawCommon/DataFormats.h">
<polygon fill="none" stroke="#000000" points="444.0586,-118 444.0586,-137 623.0586,-137 623.0586,-118 444.0586,-118"/>
<text text-anchor="middle" x="533.5586" y="-125" font-family="Helvetica,sans-Serif" font-size="10.00" fill="#000000">MCHRawCommon/DataFormats.h</text>
</a>
</g>
</g>
<!-- Node2&#45;&gt;Node5 -->
<g id="edge5" class="edge">
<title>Node2&#45;&gt;Node5</title>
<path fill="none" stroke="#191970" d="M418.7576,-184.9005C441.4448,-173.5569 479.3899,-154.5844 505.4021,-141.5783"/>
<polygon fill="#191970" stroke="#191970" points="507.0163,-144.6843 514.3953,-137.0817 503.8858,-138.4234 507.0163,-144.6843"/>
</g>
<!-- Node6 -->
<g id="node7" class="node">
<title>Node6</title>
<g id="a_node7"><a xlink:href="../../d5/d49/SampaHeader_8h.html" target="_top" xlink:title="MCHRawCommon/SampaHeader.h">
<polygon fill="none" stroke="#000000" points="477.0586,-56.5 477.0586,-75.5 662.0586,-75.5 662.0586,-56.5 477.0586,-56.5"/>
<text text-anchor="middle" x="569.5586" y="-63.5" font-family="Helvetica,sans-Serif" font-size="10.00" fill="#000000">MCHRawCommon/SampaHeader.h</text>
</a>
</g>
</g>
<!-- Node2&#45;&gt;Node6 -->
<g id="edge6" class="edge">
<title>Node2&#45;&gt;Node6</title>
<path fill="none" stroke="#191970" d="M455.8148,-189.9538C517.2872,-183.6814 609.9343,-169.9509 631.5586,-143 640.181,-132.2537 637.7521,-124.3072 631.5586,-112 624.885,-98.7387 612.3794,-88.3415 600.3379,-80.8125"/>
<polygon fill="#191970" stroke="#191970" points="601.7357,-77.5783 591.3245,-75.6143 598.2385,-83.6422 601.7357,-77.5783"/>
</g>
<!-- Node2&#45;&gt;Node8 -->
<g id="edge24" class="edge">
<title>Node2&#45;&gt;Node8</title>
<path fill="none" stroke="#191970" d="M455.7879,-189.3981C520.2433,-182.4561 620.6075,-167.9506 648.5586,-143 678.3125,-116.4402 684.7577,-93.2707 670.5586,-56 666.3311,-44.9034 658.0615,-34.7814 650.0499,-26.8751"/>
<polygon fill="#191970" stroke="#191970" points="652.0193,-23.9323 642.2834,-19.7534 647.2883,-29.0916 652.0193,-23.9323"/>
</g>
<!-- Node2&#45;&gt;Node9 -->
<g id="edge9" class="edge">
<title>Node2&#45;&gt;Node9</title>
<path fill="none" stroke="#191970" d="M455.5849,-185.2543C520.3583,-174.5651 628.161,-156.775 707.0358,-143.7587"/>
<polygon fill="#191970" stroke="#191970" points="707.6951,-147.1973 716.9918,-142.1157 706.5553,-140.2907 707.6951,-147.1973"/>
</g>
<!-- Node10 -->
<g id="node11" class="node">
<title>Node10</title>
<polygon fill="none" stroke="#bfbfbf" points="191.0586,-56.5 191.0586,-75.5 256.0586,-75.5 256.0586,-56.5 191.0586,-56.5"/>
<text text-anchor="middle" x="223.5586" y="-63.5" font-family="Helvetica,sans-Serif" font-size="10.00" fill="#000000">functional</text>
</g>
<!-- Node2&#45;&gt;Node10 -->
<g id="edge23" class="edge">
<title>Node2&#45;&gt;Node10</title>
<path fill="none" stroke="#191970" d="M343.4737,-186.0489C296.1392,-177.6343 233.7188,-163.0754 218.5586,-143 206.1237,-126.5334 210.4627,-102.0063 215.8922,-85.0798"/>
<polygon fill="#191970" stroke="#191970" points="219.1881,-86.2574 219.2735,-75.6629 212.5999,-83.8917 219.1881,-86.2574"/>
</g>
<!-- Node12 -->
<g id="node13" class="node">
<title>Node12</title>
<polygon fill="none" stroke="#bfbfbf" points="281.0586,-.5 281.0586,-19.5 328.0586,-19.5 328.0586,-.5 281.0586,-.5"/>
<text text-anchor="middle" x="304.5586" y="-7.5" font-family="Helvetica,sans-Serif" font-size="10.00" fill="#000000">vector</text>
</g>
<!-- Node2&#45;&gt;Node12 -->
<g id="edge26" class="edge">
<title>Node2&#45;&gt;Node12</title>
<path fill="none" stroke="#191970" d="M343.3849,-185.3883C293.8723,-176.3299 226.5849,-161.1837 206.5586,-143 176.7735,-115.9553 158.6283,-89.057 181.5586,-56 192.0528,-40.8713 238.2685,-26.5214 270.9522,-17.99"/>
<polygon fill="#191970" stroke="#191970" points="272.1956,-21.2854 281.0259,-15.4309 270.472,-14.5009 272.1956,-21.2854"/>
</g>
<!-- Node17 -->
<g id="node18" class="node">
<title>Node17</title>
<polygon fill="none" stroke="#bfbfbf" points="227.5586,-118 227.5586,-137 271.5586,-137 271.5586,-118 227.5586,-118"/>
<text text-anchor="middle" x="249.5586" y="-125" font-family="Helvetica,sans-Serif" font-size="10.00" fill="#000000">bitset</text>
</g>
<!-- Node2&#45;&gt;Node17 -->
<g id="edge20" class="edge">
<title>Node2&#45;&gt;Node17</title>
<path fill="none" stroke="#191970" d="M376.5787,-184.9985C352.488,-174.9346 313.6148,-158.4027 280.5586,-143 279.5496,-142.5298 278.5245,-142.0467 277.491,-141.5549"/>
<polygon fill="#191970" stroke="#191970" points="278.6882,-138.2449 268.1654,-137.0117 275.6225,-144.5379 278.6882,-138.2449"/>
</g>
<!-- Node2&#45;&gt;Node18 -->
<g id="edge22" class="edge">
<title>Node2&#45;&gt;Node18</title>
<path fill="none" stroke="#191970" d="M455.8125,-193.085C549.6739,-189.7634 743.6991,-178.7919 903.5586,-143 906.9818,-142.2336 910.5061,-141.2828 913.9994,-140.232"/>
<polygon fill="#191970" stroke="#191970" points="915.2352,-143.5103 923.6523,-137.0757 913.0597,-136.857 915.2352,-143.5103"/>
</g>
<!-- Node19 -->
<g id="node20" class="node">
<title>Node19</title>
<polygon fill="none" stroke="#bfbfbf" points="290.0586,-118 290.0586,-137 355.0586,-137 355.0586,-118 290.0586,-118"/>
<text text-anchor="middle" x="322.5586" y="-125" font-family="Helvetica,sans-Serif" font-size="10.00" fill="#000000">stdexcept</text>
</g>
<!-- Node2&#45;&gt;Node19 -->
<g id="edge25" class="edge">
<title>Node2&#45;&gt;Node19</title>
<path fill="none" stroke="#191970" d="M388.5264,-184.9005C376.1759,-174.1539 355.9563,-156.5603 341.1529,-143.6794"/>
<polygon fill="#191970" stroke="#191970" points="343.4118,-141.0055 333.5704,-137.0817 338.8169,-146.2863 343.4118,-141.0055"/>
</g>
<!-- Node20 -->
<g id="node21" class="node">
<title>Node20</title>
<polygon fill="none" stroke="#bfbfbf" points="373.5586,-118 373.5586,-137 425.5586,-137 425.5586,-118 373.5586,-118"/>
<text text-anchor="middle" x="399.5586" y="-125" font-family="Helvetica,sans-Serif" font-size="10.00" fill="#000000">cassert</text>
</g>
<!-- Node2&#45;&gt;Node20 -->
<g id="edge27" class="edge">
<title>Node2&#45;&gt;Node20</title>
<path fill="none" stroke="#191970" d="M399.5586,-184.9005C399.5586,-175.149 399.5586,-159.7597 399.5586,-147.3695"/>
<polygon fill="#191970" stroke="#191970" points="403.0587,-147.0816 399.5586,-137.0817 396.0587,-147.0817 403.0587,-147.0816"/>
</g>
<!-- Node3&#45;&gt;Node4 -->
<g id="edge4" class="edge">
<title>Node3&#45;&gt;Node4</title>
<path fill="none" stroke="#191970" d="M60.4867,-117.8845C68.3976,-98.5192 86.3776,-54.5055 96.7626,-29.084"/>
<polygon fill="#191970" stroke="#191970" points="100.0346,-30.3294 100.5763,-19.7484 93.5544,-27.6821 100.0346,-30.3294"/>
</g>
<!-- Node7 -->
<g id="node8" class="node">
<title>Node7</title>
<polygon fill="none" stroke="#bfbfbf" points="403.0586,-.5 403.0586,-19.5 452.0586,-19.5 452.0586,-.5 403.0586,-.5"/>
<text text-anchor="middle" x="427.5586" y="-7.5" font-family="Helvetica,sans-Serif" font-size="10.00" fill="#000000">cstdlib</text>
</g>
<!-- Node6&#45;&gt;Node7 -->
<g id="edge7" class="edge">
<title>Node6&#45;&gt;Node7</title>
<path fill="none" stroke="#191970" d="M545.148,-56.3733C521.9444,-47.2226 486.8548,-33.3844 461.0444,-23.2057"/>
<polygon fill="#191970" stroke="#191970" points="462.2376,-19.9139 451.6508,-19.5011 459.6694,-26.4258 462.2376,-19.9139"/>
</g>
<!-- Node6&#45;&gt;Node8 -->
<g id="edge8" class="edge">
<title>Node6&#45;&gt;Node8</title>
<path fill="none" stroke="#191970" d="M580.0098,-56.2455C588.7855,-48.0549 601.5141,-36.1749 611.8726,-26.5069"/>
<polygon fill="#191970" stroke="#191970" points="614.3047,-29.0246 619.2272,-19.6427 609.5285,-23.9072 614.3047,-29.0246"/>
</g>
<!-- Node9&#45;&gt;Node10 -->
<g id="edge10" class="edge">
<title>Node9&#45;&gt;Node10</title>
<path fill="none" stroke="#191970" d="M717.0016,-119.3773C579.8757,-106.7572 326.4357,-83.2478 266.6046,-75.7183"/>
<polygon fill="#191970" stroke="#191970" points="266.8758,-72.2221 256.4859,-74.2958 265.9012,-79.154 266.8758,-72.2221"/>
</g>
<!-- Node11 -->
<g id="node12" class="node">
<title>Node11</title>
<g id="a_node12"><a xlink:href="../../d0/d5b/SampaCluster_8h.html" target="_top" xlink:title="MCHRawCommon/SampaCluster.h">
<polygon fill="none" stroke="#000000" points="274.5586,-56.5 274.5586,-75.5 458.5586,-75.5 458.5586,-56.5 274.5586,-56.5"/>
<text text-anchor="middle" x="366.5586" y="-63.5" font-family="Helvetica,sans-Serif" font-size="10.00" fill="#000000">MCHRawCommon/SampaCluster.h</text>
</a>
</g>
</g>
<!-- Node9&#45;&gt;Node11 -->
<g id="edge11" class="edge">
<title>Node9&#45;&gt;Node11</title>
<path fill="none" stroke="#191970" d="M716.9846,-115.0916C637.1646,-103.9095 520.9437,-87.628 444.5622,-76.9276"/>
<polygon fill="#191970" stroke="#191970" points="444.9108,-73.4423 434.5219,-75.521 443.9395,-80.3746 444.9108,-73.4423"/>
</g>
<!-- Node13 -->
<g id="node14" class="node">
<title>Node13</title>
<g id="a_node14"><a xlink:href="../../d4/d09/DsElecId_8h.html" target="_top" xlink:title="MCHRawElecMap/DsElecId.h">
<polygon fill="none" stroke="#000000" points="1188.0586,-56.5 1188.0586,-75.5 1343.0586,-75.5 1343.0586,-56.5 1188.0586,-56.5"/>
<text text-anchor="middle" x="1265.5586" y="-63.5" font-family="Helvetica,sans-Serif" font-size="10.00" fill="#000000">MCHRawElecMap/DsElecId.h</text>
</a>
</g>
</g>
<!-- Node9&#45;&gt;Node13 -->
<g id="edge16" class="edge">
<title>Node9&#45;&gt;Node13</title>
<path fill="none" stroke="#191970" d="M894.2141,-113.354C897.3667,-112.8904 900.4891,-112.4377 903.5586,-112 997.0039,-98.6762 1104.2972,-85.28 1177.6671,-76.4087"/>
<polygon fill="#191970" stroke="#191970" points="1178.281,-79.8601 1187.7898,-75.1875 1177.4425,-72.9105 1178.281,-79.8601"/>
</g>
<!-- Node11&#45;&gt;Node4 -->
<g id="edge15" class="edge">
<title>Node11&#45;&gt;Node4</title>
<path fill="none" stroke="#191970" d="M321.8169,-56.4369C275.2883,-46.4918 202.6251,-30.9608 154.3165,-20.6353"/>
<polygon fill="#191970" stroke="#191970" points="154.9066,-17.1824 144.3959,-18.5148 153.4434,-24.0278 154.9066,-17.1824"/>
</g>
<!-- Node11&#45;&gt;Node7 -->
<g id="edge12" class="edge">
<title>Node11&#45;&gt;Node7</title>
<path fill="none" stroke="#191970" d="M377.184,-56.2455C386.1059,-48.0549 399.0467,-36.1749 409.5779,-26.5069"/>
<polygon fill="#191970" stroke="#191970" points="412.0554,-28.9837 417.055,-19.6427 407.3215,-23.8271 412.0554,-28.9837"/>
</g>
<!-- Node11&#45;&gt;Node8 -->
<g id="edge14" class="edge">
<title>Node11&#45;&gt;Node8</title>
<path fill="none" stroke="#191970" d="M411.4711,-56.4369C461.3599,-45.8142 541.1803,-28.8182 589.1674,-18.6004"/>
<polygon fill="#191970" stroke="#191970" points="590.1402,-21.9718 599.1921,-16.4659 588.6824,-15.1253 590.1402,-21.9718"/>
</g>
<!-- Node11&#45;&gt;Node12 -->
<g id="edge13" class="edge">
<title>Node11&#45;&gt;Node12</title>
<path fill="none" stroke="#191970" d="M355.7591,-56.2455C346.6909,-48.0549 333.538,-36.1749 322.8342,-26.5069"/>
<polygon fill="#191970" stroke="#191970" points="325.0015,-23.7482 315.2344,-19.6427 320.3095,-28.9429 325.0015,-23.7482"/>
</g>
<!-- Node14 -->
<g id="node15" class="node">
<title>Node14</title>
<polygon fill="none" stroke="#bfbfbf" points="1240.5586,-.5 1240.5586,-19.5 1290.5586,-19.5 1290.5586,-.5 1240.5586,-.5"/>
<text text-anchor="middle" x="1265.5586" y="-7.5" font-family="Helvetica,sans-Serif" font-size="10.00" fill="#000000">cstdint</text>
</g>
<!-- Node13&#45;&gt;Node14 -->
<g id="edge17" class="edge">
<title>Node13&#45;&gt;Node14</title>
<path fill="none" stroke="#191970" d="M1265.5586,-56.2455C1265.5586,-48.9382 1265.5586,-38.6944 1265.5586,-29.7046"/>
<polygon fill="#191970" stroke="#191970" points="1269.0587,-29.6426 1265.5586,-19.6427 1262.0587,-29.6427 1269.0587,-29.6426"/>
</g>
<!-- Node15 -->
<g id="node16" class="node">
<title>Node15</title>
<polygon fill="none" stroke="#bfbfbf" points="1309.0586,-.5 1309.0586,-19.5 1358.0586,-19.5 1358.0586,-.5 1309.0586,-.5"/>
<text text-anchor="middle" x="1333.5586" y="-7.5" font-family="Helvetica,sans-Serif" font-size="10.00" fill="#000000">iosfwd</text>
</g>
<!-- Node13&#45;&gt;Node15 -->
<g id="edge18" class="edge">
<title>Node13&#45;&gt;Node15</title>
<path fill="none" stroke="#191970" d="M1277.4033,-56.2455C1287.4466,-47.9746 1302.0581,-35.9416 1313.859,-26.2232"/>
<polygon fill="#191970" stroke="#191970" points="1316.3553,-28.7015 1321.8497,-19.6427 1311.9054,-23.298 1316.3553,-28.7015"/>
</g>
<!-- Node16 -->
<g id="node17" class="node">
<title>Node16</title>
<polygon fill="none" stroke="#bfbfbf" points="1166.5586,-.5 1166.5586,-19.5 1222.5586,-19.5 1222.5586,-.5 1166.5586,-.5"/>
<text text-anchor="middle" x="1194.5586" y="-7.5" font-family="Helvetica,sans-Serif" font-size="10.00" fill="#000000">optional</text>
</g>
<!-- Node13&#45;&gt;Node16 -->
<g id="edge19" class="edge">
<title>Node13&#45;&gt;Node16</title>
<path fill="none" stroke="#191970" d="M1253.1914,-56.2455C1242.6032,-47.8943 1227.1522,-35.7076 1214.7693,-25.9408"/>
<polygon fill="#191970" stroke="#191970" points="1216.8034,-23.0875 1206.7842,-19.6427 1212.4683,-28.5837 1216.8034,-23.0875"/>
</g>
<!-- Node22&#45;&gt;Node1 -->
<g id="edge33" class="edge">
<title>Node22&#45;&gt;Node1</title>
<path fill="none" stroke="#191970" d="M1018.275,-184.9005C1019.0027,-175.149 1020.1512,-159.7597 1021.0758,-147.3695"/>
<polygon fill="#191970" stroke="#191970" points="1024.5896,-147.3144 1021.8436,-137.0817 1017.609,-146.7934 1024.5896,-147.3144"/>
</g>
<!-- Node23 -->
<g id="node24" class="node">
<title>Node23</title>
<polygon fill="none" stroke="#bfbfbf" points="1062.0586,-118 1062.0586,-137 1131.0586,-137 1131.0586,-118 1062.0586,-118"/>
<text text-anchor="middle" x="1096.5586" y="-125" font-family="Helvetica,sans-Serif" font-size="10.00" fill="#000000">type_traits</text>
</g>
<!-- Node22&#45;&gt;Node23 -->
<g id="edge34" class="edge">
<title>Node22&#45;&gt;Node23</title>
<path fill="none" stroke="#191970" d="M1028.8774,-184.9005C1041.5487,-174.1539 1062.2935,-156.5603 1077.4814,-143.6794"/>
<polygon fill="#191970" stroke="#191970" points="1079.8981,-146.2191 1085.2609,-137.0817 1075.3705,-140.8805 1079.8981,-146.2191"/>
</g>
</g>
</svg>
