<?xml version="1.0" encoding="UTF-8" standalone="no"?>
<!DOCTYPE svg PUBLIC "-//W3C//DTD SVG 1.1//EN"
 "http://www.w3.org/Graphics/SVG/1.1/DTD/svg11.dtd">
<!-- Generated by graphviz version 2.40.1 (20161225.0304)
 -->
<!-- Title: /home/travis/build/AliceO2Group/AliceO2/Framework/Core/src/DataDescriptorQueryBuilder.cxx Pages: 1 -->
<svg width="2621pt" height="441pt"
 viewBox="0.00 0.00 2620.50 441.00" xmlns="http://www.w3.org/2000/svg" xmlns:xlink="http://www.w3.org/1999/xlink">
<g id="graph0" class="graph" transform="scale(1 1) rotate(0) translate(4 437)">
<title>/home/travis/build/AliceO2Group/AliceO2/Framework/Core/src/DataDescriptorQueryBuilder.cxx</title>
<!-- Node0 -->
<g id="node1" class="node">
<title>Node0</title>
<polygon fill="#bfbfbf" stroke="#000000" points="2281,-380.5 2281,-432.5 2474,-432.5 2474,-380.5 2281,-380.5"/>
<text text-anchor="start" x="2289" y="-420.5" font-family="Helvetica,sans-Serif" font-size="10.00" fill="#000000">/home/travis/build</text>
<text text-anchor="start" x="2289" y="-409.5" font-family="Helvetica,sans-Serif" font-size="10.00" fill="#000000">/AliceO2Group/AliceO2</text>
<text text-anchor="start" x="2289" y="-398.5" font-family="Helvetica,sans-Serif" font-size="10.00" fill="#000000">/Framework/Core/src/DataDescriptor</text>
<text text-anchor="middle" x="2377.5" y="-387.5" font-family="Helvetica,sans-Serif" font-size="10.00" fill="#000000">QueryBuilder.cxx</text>
</g>
<!-- Node1 -->
<g id="node2" class="node">
<title>Node1</title>
<g id="a_node2"><a xlink:href="../../db/de2/DataDescriptorQueryBuilder_8h.html" target="_top" xlink:title="Framework/DataDescriptor\lQueryBuilder.h">
<polygon fill="none" stroke="#000000" points="2253,-313.5 2253,-343.5 2400,-343.5 2400,-313.5 2253,-313.5"/>
<text text-anchor="start" x="2261" y="-331.5" font-family="Helvetica,sans-Serif" font-size="10.00" fill="#000000">Framework/DataDescriptor</text>
<text text-anchor="middle" x="2326.5" y="-320.5" font-family="Helvetica,sans-Serif" font-size="10.00" fill="#000000">QueryBuilder.h</text>
</a>
</g>
</g>
<!-- Node0&#45;&gt;Node1 -->
<g id="edge1" class="edge">
<title>Node0&#45;&gt;Node1</title>
<path fill="none" stroke="#191970" d="M2360.2337,-380.0928C2354.3143,-371.0395 2347.7317,-360.972 2341.9641,-352.151"/>
<polygon fill="#191970" stroke="#191970" points="2344.7126,-349.9589 2336.3107,-343.5046 2338.8538,-353.7897 2344.7126,-349.9589"/>
</g>
<!-- Node2 -->
<g id="node3" class="node">
<title>Node2</title>
<g id="a_node3"><a xlink:href="../../d5/d3f/InputSpec_8h.html" target="_top" xlink:title="Framework/InputSpec.h">
<polygon fill="none" stroke="#000000" points="2151,-257.5 2151,-276.5 2282,-276.5 2282,-257.5 2151,-257.5"/>
<text text-anchor="middle" x="2216.5" y="-264.5" font-family="Helvetica,sans-Serif" font-size="10.00" fill="#000000">Framework/InputSpec.h</text>
</a>
</g>
</g>
<!-- Node0&#45;&gt;Node2 -->
<g id="edge57" class="edge">
<title>Node0&#45;&gt;Node2</title>
<path fill="none" stroke="#191970" d="M2295.9027,-380.3709C2277.0964,-371.265 2258.5224,-359.353 2244.5,-344 2229.8635,-327.9747 2222.7276,-303.6994 2219.3508,-286.7009"/>
<polygon fill="#191970" stroke="#191970" points="2222.7818,-286.0009 2217.6335,-276.7411 2215.8836,-287.1904 2222.7818,-286.0009"/>
</g>
<!-- Node7 -->
<g id="node8" class="node">
<title>Node7</title>
<polygon fill="none" stroke="#bfbfbf" points="2361.5,-6 2361.5,-25 2419.5,-25 2419.5,-6 2361.5,-6"/>
<text text-anchor="middle" x="2390.5" y="-13" font-family="Helvetica,sans-Serif" font-size="10.00" fill="#000000">memory</text>
</g>
<!-- Node0&#45;&gt;Node7 -->
<g id="edge58" class="edge">
<title>Node0&#45;&gt;Node7</title>
<path fill="none" stroke="#191970" d="M2410.9886,-380.3012C2422.3163,-370.0158 2434.1873,-357.4502 2442.5,-344 2461.3454,-313.5075 2466.5,-302.846 2466.5,-267 2466.5,-267 2466.5,-267 2466.5,-138.5 2466.5,-94.9388 2431.5757,-53.9145 2409.0765,-32.0053"/>
<polygon fill="#191970" stroke="#191970" points="2411.3962,-29.3822 2401.7141,-25.0801 2406.6001,-34.481 2411.3962,-29.3822"/>
</g>
<!-- Node12 -->
<g id="node13" class="node">
<title>Node12</title>
<polygon fill="none" stroke="#bfbfbf" points="2261.5,-6 2261.5,-25 2305.5,-25 2305.5,-6 2261.5,-6"/>
<text text-anchor="middle" x="2283.5" y="-13" font-family="Helvetica,sans-Serif" font-size="10.00" fill="#000000">string</text>
</g>
<!-- Node0&#45;&gt;Node12 -->
<g id="edge61" class="edge">
<title>Node0&#45;&gt;Node12</title>
<path fill="none" stroke="#191970" d="M2393.3572,-380.2777C2408.3283,-352.9883 2428.5,-308.5163 2428.5,-267 2428.5,-267 2428.5,-267 2428.5,-205.5 2428.5,-126.4445 2348.1896,-59.8242 2307.1062,-30.9161"/>
<polygon fill="#191970" stroke="#191970" points="2308.9679,-27.9488 2298.7435,-25.1718 2305.0046,-33.7187 2308.9679,-27.9488"/>
</g>
<!-- Node16 -->
<g id="node17" class="node">
<title>Node16</title>
<g id="a_node17"><a xlink:href="../../d3/da3/DataDescriptorMatcher_8h.html" target="_top" xlink:title="Framework/DataDescriptor\lMatcher.h">
<polygon fill="none" stroke="#000000" points="1806,-190.5 1806,-220.5 1953,-220.5 1953,-190.5 1806,-190.5"/>
<text text-anchor="start" x="1814" y="-208.5" font-family="Helvetica,sans-Serif" font-size="10.00" fill="#000000">Framework/DataDescriptor</text>
<text text-anchor="middle" x="1879.5" y="-197.5" font-family="Helvetica,sans-Serif" font-size="10.00" fill="#000000">Matcher.h</text>
</a>
</g>
</g>
<!-- Node0&#45;&gt;Node16 -->
<g id="edge56" class="edge">
<title>Node0&#45;&gt;Node16</title>
<path fill="none" stroke="#191970" d="M2312.6407,-380.3552C2284.8778,-369.1619 2252.0978,-355.9429 2222.5,-344 2116.4954,-301.2263 1992.0809,-250.9773 1926.1039,-224.3265"/>
<polygon fill="#191970" stroke="#191970" points="1927.3858,-221.0696 1916.8027,-220.5694 1924.7639,-227.5601 1927.3858,-221.0696"/>
</g>
<!-- Node27 -->
<g id="node28" class="node">
<title>Node27</title>
<polygon fill="none" stroke="#bfbfbf" points="0,-6 0,-25 47,-25 47,-6 0,-6"/>
<text text-anchor="middle" x="23.5" y="-13" font-family="Helvetica,sans-Serif" font-size="10.00" fill="#000000">vector</text>
</g>
<!-- Node0&#45;&gt;Node27 -->
<g id="edge62" class="edge">
<title>Node0&#45;&gt;Node27</title>
<path fill="none" stroke="#191970" d="M2280.7175,-405.7616C1844.5154,-401.8107 82.5,-378.9243 82.5,-267 82.5,-267 82.5,-267 82.5,-138.5 82.5,-97.7288 55.8205,-56.1711 38.343,-33.3213"/>
<polygon fill="#191970" stroke="#191970" points="40.9066,-30.921 31.9533,-25.2563 35.4199,-35.268 40.9066,-30.921"/>
</g>
<!-- Node38 -->
<g id="node39" class="node">
<title>Node38</title>
<polygon fill="none" stroke="#bfbfbf" points="2494.5,-319 2494.5,-338 2550.5,-338 2550.5,-319 2494.5,-319"/>
<text text-anchor="middle" x="2522.5" y="-326" font-family="Helvetica,sans-Serif" font-size="10.00" fill="#000000">optional</text>
</g>
<!-- Node0&#45;&gt;Node38 -->
<g id="edge59" class="edge">
<title>Node0&#45;&gt;Node38</title>
<path fill="none" stroke="#191970" d="M2426.1863,-380.3101C2449.3771,-367.8351 2476.225,-353.3928 2495.6742,-342.9304"/>
<polygon fill="#191970" stroke="#191970" points="2497.4307,-345.9599 2504.5793,-338.1401 2494.1145,-339.7952 2497.4307,-345.9599"/>
</g>
<!-- Node39 -->
<g id="node40" class="node">
<title>Node39</title>
<polygon fill="none" stroke="#bfbfbf" points="2568.5,-319 2568.5,-338 2612.5,-338 2612.5,-319 2568.5,-319"/>
<text text-anchor="middle" x="2590.5" y="-326" font-family="Helvetica,sans-Serif" font-size="10.00" fill="#000000">regex</text>
</g>
<!-- Node0&#45;&gt;Node39 -->
<g id="edge60" class="edge">
<title>Node0&#45;&gt;Node39</title>
<path fill="none" stroke="#191970" d="M2460.8184,-380.4759C2492.1087,-370.0294 2527.7685,-357.3119 2559.5,-344 2560.686,-343.5024 2561.8901,-342.9799 2563.101,-342.44"/>
<polygon fill="#191970" stroke="#191970" points="2564.7765,-345.5196 2572.3288,-338.089 2561.7911,-339.1881 2564.7765,-345.5196"/>
</g>
<!-- Node1&#45;&gt;Node2 -->
<g id="edge2" class="edge">
<title>Node1&#45;&gt;Node2</title>
<path fill="none" stroke="#191970" d="M2299.591,-313.4554C2282.2032,-303.734 2259.6951,-291.15 2242.4916,-281.5317"/>
<polygon fill="#191970" stroke="#191970" points="2243.9826,-278.3554 2233.5461,-276.5303 2240.5665,-284.4653 2243.9826,-278.3554"/>
</g>
<!-- Node1&#45;&gt;Node7 -->
<g id="edge55" class="edge">
<title>Node1&#45;&gt;Node7</title>
<path fill="none" stroke="#191970" d="M2338.0231,-313.0914C2344.7842,-303.2648 2352.8818,-289.9781 2357.5,-277 2388.1239,-190.9401 2391.0539,-80.0895 2390.8592,-35.4396"/>
<polygon fill="#191970" stroke="#191970" points="2394.3581,-35.3072 2390.7535,-25.3444 2387.3585,-35.3805 2394.3581,-35.3072"/>
</g>
<!-- Node1&#45;&gt;Node12 -->
<g id="edge53" class="edge">
<title>Node1&#45;&gt;Node12</title>
<path fill="none" stroke="#191970" d="M2331.8872,-313.1866C2339.5028,-290.1344 2352.5,-245.0051 2352.5,-205.5 2352.5,-205.5 2352.5,-205.5 2352.5,-138.5 2352.5,-96.195 2321.0687,-54.9659 2300.6337,-32.6313"/>
<polygon fill="#191970" stroke="#191970" points="2303.0989,-30.1443 2293.6812,-25.2907 2298.0166,-34.9579 2303.0989,-30.1443"/>
</g>
<!-- Node1&#45;&gt;Node27 -->
<g id="edge54" class="edge">
<title>Node1&#45;&gt;Node27</title>
<path fill="none" stroke="#191970" d="M2252.7943,-327.8332C1894.7959,-324.121 354.5,-302.5122 354.5,-205.5 354.5,-205.5 354.5,-205.5 354.5,-138.5 354.5,2.7168 185.6732,-85.7459 55.5,-31 54.1486,-30.4316 52.7725,-29.8353 51.3879,-29.2212"/>
<polygon fill="#191970" stroke="#191970" points="52.8449,-26.0388 42.2996,-25.0154 49.905,-32.3916 52.8449,-26.0388"/>
</g>
<!-- Node3 -->
<g id="node4" class="node">
<title>Node3</title>
<g id="a_node4"><a xlink:href="../../dc/dca/Lifetime_8h.html" target="_top" xlink:title="Framework/Lifetime.h">
<polygon fill="none" stroke="#000000" points="2003,-196 2003,-215 2126,-215 2126,-196 2003,-196"/>
<text text-anchor="middle" x="2064.5" y="-203" font-family="Helvetica,sans-Serif" font-size="10.00" fill="#000000">Framework/Lifetime.h</text>
</a>
</g>
</g>
<!-- Node2&#45;&gt;Node3 -->
<g id="edge3" class="edge">
<title>Node2&#45;&gt;Node3</title>
<path fill="none" stroke="#191970" d="M2192.75,-257.3906C2167.2061,-247.0554 2126.3991,-230.5447 2097.689,-218.9284"/>
<polygon fill="#191970" stroke="#191970" points="2098.666,-215.5481 2088.0832,-215.0419 2096.0404,-222.0371 2098.666,-215.5481"/>
</g>
<!-- Node4 -->
<g id="node5" class="node">
<title>Node4</title>
<g id="a_node5"><a xlink:href="../../d0/d1b/ConcreteDataMatcher_8h.html" target="_top" xlink:title="Framework/ConcreteDataMatcher.h">
<polygon fill="none" stroke="#000000" points="1785.5,-129 1785.5,-148 1973.5,-148 1973.5,-129 1785.5,-129"/>
<text text-anchor="middle" x="1879.5" y="-136" font-family="Helvetica,sans-Serif" font-size="10.00" fill="#000000">Framework/ConcreteDataMatcher.h</text>
</a>
</g>
</g>
<!-- Node2&#45;&gt;Node4 -->
<g id="edge4" class="edge">
<title>Node2&#45;&gt;Node4</title>
<path fill="none" stroke="#191970" d="M2207.6332,-257.4557C2190.1404,-238.8396 2151.4185,-198.7354 2134.5,-190 2117.7896,-181.372 2014.8804,-162.1708 1945.0113,-149.807"/>
<polygon fill="#191970" stroke="#191970" points="1945.4125,-146.3238 1934.9567,-148.0345 1944.1972,-153.2176 1945.4125,-146.3238"/>
</g>
<!-- Node2&#45;&gt;Node12 -->
<g id="edge50" class="edge">
<title>Node2&#45;&gt;Node12</title>
<path fill="none" stroke="#191970" d="M2230.1726,-257.3777C2241.4283,-248.8787 2257.1607,-235.5942 2267.5,-221 2286.1567,-194.6655 2289.1539,-185.6434 2295.5,-154 2303.9257,-111.9871 2294.8933,-61.6343 2288.5651,-34.7157"/>
<polygon fill="#191970" stroke="#191970" points="2291.9614,-33.8698 2286.1562,-25.007 2285.1674,-35.5556 2291.9614,-33.8698"/>
</g>
<!-- Node2&#45;&gt;Node16 -->
<g id="edge16" class="edge">
<title>Node2&#45;&gt;Node16</title>
<path fill="none" stroke="#191970" d="M2164.2135,-257.4581C2110.514,-247.6583 2026.1114,-232.2555 1963.1243,-220.7608"/>
<polygon fill="#191970" stroke="#191970" points="1963.673,-217.3032 1953.2071,-218.951 1962.4163,-224.1895 1963.673,-217.3032"/>
</g>
<!-- Node35 -->
<g id="node36" class="node">
<title>Node35</title>
<polygon fill="none" stroke="#bfbfbf" points="2235,-129 2235,-148 2286,-148 2286,-129 2235,-129"/>
<text text-anchor="middle" x="2260.5" y="-136" font-family="Helvetica,sans-Serif" font-size="10.00" fill="#000000">variant</text>
</g>
<!-- Node2&#45;&gt;Node35 -->
<g id="edge52" class="edge">
<title>Node2&#45;&gt;Node35</title>
<path fill="none" stroke="#191970" d="M2225.6878,-257.2691C2233.3929,-248.5008 2243.9944,-234.888 2249.5,-221 2257.5476,-200.6999 2259.9271,-175.6168 2260.5261,-158.4723"/>
<polygon fill="#191970" stroke="#191970" points="2264.0331,-158.0858 2260.7041,-148.0276 2257.0341,-157.9665 2264.0331,-158.0858"/>
</g>
<!-- Node37 -->
<g id="node38" class="node">
<title>Node37</title>
<polygon fill="none" stroke="#bfbfbf" points="2183,-196 2183,-215 2240,-215 2240,-196 2183,-196"/>
<text text-anchor="middle" x="2211.5" y="-203" font-family="Helvetica,sans-Serif" font-size="10.00" fill="#000000">ostream</text>
</g>
<!-- Node2&#45;&gt;Node37 -->
<g id="edge51" class="edge">
<title>Node2&#45;&gt;Node37</title>
<path fill="none" stroke="#191970" d="M2215.7188,-257.3906C2215.0257,-248.8657 2213.991,-236.1392 2213.1198,-225.4235"/>
<polygon fill="#191970" stroke="#191970" points="2216.5912,-224.9283 2212.2923,-215.2449 2209.6142,-225.4956 2216.5912,-224.9283"/>
</g>
<!-- Node5 -->
<g id="node6" class="node">
<title>Node5</title>
<g id="a_node6"><a xlink:href="../../dc/dcd/DataHeader_8h.html" target="_top" xlink:title="Headers/DataHeader.h">
<polygon fill="none" stroke="#000000" points="1859,-67.5 1859,-86.5 1986,-86.5 1986,-67.5 1859,-67.5"/>
<text text-anchor="middle" x="1922.5" y="-74.5" font-family="Helvetica,sans-Serif" font-size="10.00" fill="#000000">Headers/DataHeader.h</text>
</a>
</g>
</g>
<!-- Node4&#45;&gt;Node5 -->
<g id="edge5" class="edge">
<title>Node4&#45;&gt;Node5</title>
<path fill="none" stroke="#191970" d="M1886.2188,-128.8906C1892.493,-119.917 1902.0223,-106.2879 1909.7404,-95.2491"/>
<polygon fill="#191970" stroke="#191970" points="1912.8247,-96.9459 1915.6865,-86.7449 1907.0879,-92.9348 1912.8247,-96.9459"/>
</g>
<!-- Node6 -->
<g id="node7" class="node">
<title>Node6</title>
<polygon fill="none" stroke="#bfbfbf" points="2193.5,-6 2193.5,-25 2243.5,-25 2243.5,-6 2193.5,-6"/>
<text text-anchor="middle" x="2218.5" y="-13" font-family="Helvetica,sans-Serif" font-size="10.00" fill="#000000">cstdint</text>
</g>
<!-- Node5&#45;&gt;Node6 -->
<g id="edge6" class="edge">
<title>Node5&#45;&gt;Node6</title>
<path fill="none" stroke="#191970" d="M1986.2759,-67.7038C2051.5716,-57.8462 2148.4411,-42.1847 2184.5,-31 2186.4053,-30.409 2188.3434,-29.7364 2190.279,-29.0102"/>
<polygon fill="#191970" stroke="#191970" points="2191.8817,-32.1344 2199.772,-25.0638 2189.1945,-25.6707 2191.8817,-32.1344"/>
</g>
<!-- Node5&#45;&gt;Node7 -->
<g id="edge7" class="edge">
<title>Node5&#45;&gt;Node7</title>
<path fill="none" stroke="#191970" d="M1986.137,-69.6745C2093.0148,-57.3513 2298.5369,-33.5597 2314.5,-31 2326.532,-29.0706 2339.5541,-26.5685 2351.3629,-24.1396"/>
<polygon fill="#191970" stroke="#191970" points="2352.3039,-27.5185 2361.3725,-22.0403 2350.867,-20.6675 2352.3039,-27.5185"/>
</g>
<!-- Node8 -->
<g id="node9" class="node">
<title>Node8</title>
<polygon fill="none" stroke="#bfbfbf" points="2123.5,-6 2123.5,-25 2175.5,-25 2175.5,-6 2123.5,-6"/>
<text text-anchor="middle" x="2149.5" y="-13" font-family="Helvetica,sans-Serif" font-size="10.00" fill="#000000">cassert</text>
</g>
<!-- Node5&#45;&gt;Node8 -->
<g id="edge8" class="edge">
<title>Node5&#45;&gt;Node8</title>
<path fill="none" stroke="#191970" d="M1972.2194,-67.4512C2011.1533,-59.3952 2066.4151,-46.6793 2113.5,-31 2115.3884,-30.3712 2117.3153,-29.6837 2119.2471,-28.9591"/>
<polygon fill="#191970" stroke="#191970" points="2120.8165,-32.1007 2128.7934,-25.1279 2118.2092,-25.6044 2120.8165,-32.1007"/>
</g>
<!-- Node9 -->
<g id="node10" class="node">
<title>Node9</title>
<polygon fill="none" stroke="#bfbfbf" points="1591.5,-6 1591.5,-25 1641.5,-25 1641.5,-6 1591.5,-6"/>
<text text-anchor="middle" x="1616.5" y="-13" font-family="Helvetica,sans-Serif" font-size="10.00" fill="#000000">cstring</text>
</g>
<!-- Node5&#45;&gt;Node9 -->
<g id="edge9" class="edge">
<title>Node5&#45;&gt;Node9</title>
<path fill="none" stroke="#191970" d="M1858.7601,-70.9629C1802.9376,-64.5623 1720.0963,-52.3484 1650.5,-31 1648.5929,-30.415 1646.6534,-29.7469 1644.7167,-29.0241"/>
<polygon fill="#191970" stroke="#191970" points="1645.7992,-25.684 1635.2212,-25.0858 1643.1174,-32.1499 1645.7992,-25.684"/>
</g>
<!-- Node10 -->
<g id="node11" class="node">
<title>Node10</title>
<polygon fill="none" stroke="#bfbfbf" points="1957.5,-6 1957.5,-25 2021.5,-25 2021.5,-6 1957.5,-6"/>
<text text-anchor="middle" x="1989.5" y="-13" font-family="Helvetica,sans-Serif" font-size="10.00" fill="#000000">algorithm</text>
</g>
<!-- Node5&#45;&gt;Node10 -->
<g id="edge10" class="edge">
<title>Node5&#45;&gt;Node10</title>
<path fill="none" stroke="#191970" d="M1932.9688,-67.3906C1943.2337,-57.9683 1959.0903,-43.4134 1971.4006,-32.1137"/>
<polygon fill="#191970" stroke="#191970" points="1973.8834,-34.5856 1978.8837,-25.2449 1969.1499,-29.4287 1973.8834,-34.5856"/>
</g>
<!-- Node11 -->
<g id="node12" class="node">
<title>Node11</title>
<polygon fill="none" stroke="#bfbfbf" points="2040,-6 2040,-25 2105,-25 2105,-6 2040,-6"/>
<text text-anchor="middle" x="2072.5" y="-13" font-family="Helvetica,sans-Serif" font-size="10.00" fill="#000000">stdexcept</text>
</g>
<!-- Node5&#45;&gt;Node11 -->
<g id="edge11" class="edge">
<title>Node5&#45;&gt;Node11</title>
<path fill="none" stroke="#191970" d="M1945.9375,-67.3906C1971.1453,-57.0554 2011.4153,-40.5447 2039.7477,-28.9284"/>
<polygon fill="#191970" stroke="#191970" points="2041.3023,-32.0739 2049.2271,-25.0419 2038.6468,-25.5971 2041.3023,-32.0739"/>
</g>
<!-- Node5&#45;&gt;Node12 -->
<g id="edge12" class="edge">
<title>Node5&#45;&gt;Node12</title>
<path fill="none" stroke="#191970" d="M1986.2814,-69.2399C2075.0175,-58.2706 2227.6749,-38.7085 2252.5,-31 2254.1593,-30.4848 2255.8387,-29.8886 2257.5125,-29.2362"/>
<polygon fill="#191970" stroke="#191970" points="2259.158,-32.3345 2266.8597,-25.0588 2256.3019,-25.9437 2259.158,-32.3345"/>
</g>
<!-- Node13 -->
<g id="node14" class="node">
<title>Node13</title>
<polygon fill="none" stroke="#bfbfbf" points="1823.5,-6 1823.5,-25 1873.5,-25 1873.5,-6 1823.5,-6"/>
<text text-anchor="middle" x="1848.5" y="-13" font-family="Helvetica,sans-Serif" font-size="10.00" fill="#000000">climits</text>
</g>
<!-- Node5&#45;&gt;Node13 -->
<g id="edge13" class="edge">
<title>Node5&#45;&gt;Node13</title>
<path fill="none" stroke="#191970" d="M1910.9375,-67.3906C1899.4921,-57.8786 1881.7527,-43.1357 1868.103,-31.7917"/>
<polygon fill="#191970" stroke="#191970" points="1870.1533,-28.9447 1860.2255,-25.2449 1865.6792,-34.3283 1870.1533,-28.9447"/>
</g>
<!-- Node14 -->
<g id="node15" class="node">
<title>Node14</title>
<g id="a_node15"><a xlink:href="../../d7/df8/Types_8h.html" target="_top" xlink:title="MemoryResources/Types.h">
<polygon fill="none" stroke="#000000" points="1659.5,-6 1659.5,-25 1805.5,-25 1805.5,-6 1659.5,-6"/>
<text text-anchor="middle" x="1732.5" y="-13" font-family="Helvetica,sans-Serif" font-size="10.00" fill="#000000">MemoryResources/Types.h</text>
</a>
</g>
</g>
<!-- Node5&#45;&gt;Node14 -->
<g id="edge14" class="edge">
<title>Node5&#45;&gt;Node14</title>
<path fill="none" stroke="#191970" d="M1892.8125,-67.3906C1860.1854,-56.8298 1807.6374,-39.8208 1771.6575,-28.1747"/>
<polygon fill="#191970" stroke="#191970" points="1772.5709,-24.7916 1761.979,-25.0419 1770.4152,-31.4514 1772.5709,-24.7916"/>
</g>
<!-- Node15 -->
<g id="node16" class="node">
<title>Node15</title>
<polygon fill="none" stroke="#bfbfbf" points="1892,-6 1892,-25 1939,-25 1939,-6 1892,-6"/>
<text text-anchor="middle" x="1915.5" y="-13" font-family="Helvetica,sans-Serif" font-size="10.00" fill="#000000">cerrno</text>
</g>
<!-- Node5&#45;&gt;Node15 -->
<g id="edge15" class="edge">
<title>Node5&#45;&gt;Node15</title>
<path fill="none" stroke="#191970" d="M1921.4063,-67.3906C1920.4359,-58.8657 1918.9874,-46.1392 1917.7677,-35.4235"/>
<polygon fill="#191970" stroke="#191970" points="1921.2177,-34.7849 1916.6092,-25.2449 1914.2626,-35.5766 1921.2177,-34.7849"/>
</g>
<!-- Node16&#45;&gt;Node4 -->
<g id="edge17" class="edge">
<title>Node16&#45;&gt;Node4</title>
<path fill="none" stroke="#191970" d="M1879.5,-190.2967C1879.5,-180.7699 1879.5,-168.3954 1879.5,-158.1306"/>
<polygon fill="#191970" stroke="#191970" points="1883.0001,-158.0549 1879.5,-148.055 1876.0001,-158.055 1883.0001,-158.0549"/>
</g>
<!-- Node16&#45;&gt;Node5 -->
<g id="edge24" class="edge">
<title>Node16&#45;&gt;Node5</title>
<path fill="none" stroke="#191970" d="M1823.351,-190.4979C1805.2069,-182.7009 1787.0633,-171.0918 1776.5,-154 1769.2566,-142.2799 1768.3519,-134.1102 1776.5,-123 1786.9872,-108.7005 1826.2166,-96.8089 1861.3716,-88.7008"/>
<polygon fill="#191970" stroke="#191970" points="1862.1558,-92.1119 1871.1518,-86.5153 1860.6292,-85.2804 1862.1558,-92.1119"/>
</g>
<!-- Node16&#45;&gt;Node6 -->
<g id="edge44" class="edge">
<title>Node16&#45;&gt;Node6</title>
<path fill="none" stroke="#191970" d="M1953.0143,-194.9152C2027.498,-183.6474 2133.9258,-165.8424 2149.5,-154 2183.8334,-127.8933 2173.225,-105.5852 2192.5,-67 2197.8816,-56.227 2203.9433,-44.2132 2208.8592,-34.5006"/>
<polygon fill="#191970" stroke="#191970" points="2212.0927,-35.8626 2213.4907,-25.3604 2205.8486,-32.6985 2212.0927,-35.8626"/>
</g>
<!-- Node16&#45;&gt;Node12 -->
<g id="edge46" class="edge">
<title>Node16&#45;&gt;Node12</title>
<path fill="none" stroke="#191970" d="M1953.255,-195.5512C2034.9231,-184.0897 2157.6187,-165.3785 2176.5,-154 2224.8998,-124.8327 2259.4479,-64.9491 2274.7264,-34.3714"/>
<polygon fill="#191970" stroke="#191970" points="2277.9536,-35.7376 2279.1613,-25.2118 2271.6532,-32.6871 2277.9536,-35.7376"/>
</g>
<!-- Node17 -->
<g id="node18" class="node">
<title>Node17</title>
<g id="a_node18"><a xlink:href="../../d6/dc9/DataProcessingHeader_8h.html" target="_top" xlink:title="Framework/DataProcessing\lHeader.h">
<polygon fill="none" stroke="#000000" points="1992,-123.5 1992,-153.5 2141,-153.5 2141,-123.5 1992,-123.5"/>
<text text-anchor="start" x="2000" y="-141.5" font-family="Helvetica,sans-Serif" font-size="10.00" fill="#000000">Framework/DataProcessing</text>
<text text-anchor="middle" x="2066.5" y="-130.5" font-family="Helvetica,sans-Serif" font-size="10.00" fill="#000000">Header.h</text>
</a>
</g>
</g>
<!-- Node16&#45;&gt;Node17 -->
<g id="edge18" class="edge">
<title>Node16&#45;&gt;Node17</title>
<path fill="none" stroke="#191970" d="M1921.4665,-190.4639C1949.0392,-180.5849 1985.3072,-167.5905 2014.6772,-157.0675"/>
<polygon fill="#191970" stroke="#191970" points="2016.1171,-160.2696 2024.3505,-153.6017 2013.756,-153.6798 2016.1171,-160.2696"/>
</g>
<!-- Node19 -->
<g id="node20" class="node">
<title>Node19</title>
<g id="a_node20"><a xlink:href="../../d4/d00/Headers_2include_2Headers_2Stack_8h.html" target="_top" xlink:title="Headers/Stack.h">
<polygon fill="none" stroke="#000000" points="1633.5,-129 1633.5,-148 1729.5,-148 1729.5,-129 1633.5,-129"/>
<text text-anchor="middle" x="1681.5" y="-136" font-family="Helvetica,sans-Serif" font-size="10.00" fill="#000000">Headers/Stack.h</text>
</a>
</g>
</g>
<!-- Node16&#45;&gt;Node19 -->
<g id="edge25" class="edge">
<title>Node16&#45;&gt;Node19</title>
<path fill="none" stroke="#191970" d="M1835.0649,-190.4639C1800.2433,-178.6808 1752.3239,-162.4657 1719.3222,-151.2984"/>
<polygon fill="#191970" stroke="#191970" points="1720.1845,-147.8953 1709.5902,-148.0053 1717.9408,-154.526 1720.1845,-147.8953"/>
</g>
<!-- Node16&#45;&gt;Node27 -->
<g id="edge48" class="edge">
<title>Node16&#45;&gt;Node27</title>
<path fill="none" stroke="#191970" d="M1805.6187,-198.5949C1700.5069,-188.7593 1501.7584,-170.1193 1332.5,-154 1261.5483,-147.2429 124.1228,-50.2542 55.5,-31 53.5832,-30.4622 51.6416,-29.8139 49.7117,-29.0915"/>
<polygon fill="#191970" stroke="#191970" points="50.8978,-25.7912 40.3304,-25.0303 48.1169,-32.2151 50.8978,-25.7912"/>
</g>
<!-- Node33 -->
<g id="node34" class="node">
<title>Node33</title>
<polygon fill="none" stroke="#bfbfbf" points="1341.5,-129 1341.5,-148 1383.5,-148 1383.5,-129 1341.5,-129"/>
<text text-anchor="middle" x="1362.5" y="-136" font-family="Helvetica,sans-Serif" font-size="10.00" fill="#000000">array</text>
</g>
<!-- Node16&#45;&gt;Node33 -->
<g id="edge43" class="edge">
<title>Node16&#45;&gt;Node33</title>
<path fill="none" stroke="#191970" d="M1805.7555,-201.053C1689.211,-193.4615 1467.9362,-176.6036 1392.5,-154 1390.8398,-153.5026 1389.1631,-152.9133 1387.4956,-152.2601"/>
<polygon fill="#191970" stroke="#191970" points="1388.7777,-148.9976 1378.2287,-148.0131 1385.8613,-155.3612 1388.7777,-148.9976"/>
</g>
<!-- Node34 -->
<g id="node35" class="node">
<title>Node34</title>
<polygon fill="none" stroke="#bfbfbf" points="1402,-129 1402,-148 1451,-148 1451,-129 1402,-129"/>
<text text-anchor="middle" x="1426.5" y="-136" font-family="Helvetica,sans-Serif" font-size="10.00" fill="#000000">iosfwd</text>
</g>
<!-- Node16&#45;&gt;Node34 -->
<g id="edge45" class="edge">
<title>Node16&#45;&gt;Node34</title>
<path fill="none" stroke="#191970" d="M1805.8776,-203.225C1721.1376,-199.062 1578.4719,-187.2877 1460.5,-154 1458.5333,-153.4451 1456.5358,-152.792 1454.5449,-152.0734"/>
<polygon fill="#191970" stroke="#191970" points="1455.3983,-148.6405 1444.818,-148.0847 1452.7423,-155.1171 1455.3983,-148.6405"/>
</g>
<!-- Node16&#45;&gt;Node35 -->
<g id="edge47" class="edge">
<title>Node16&#45;&gt;Node35</title>
<path fill="none" stroke="#191970" d="M1953.1055,-195.2604C2045.5592,-182.2623 2195.2208,-160.7191 2220.5,-154 2223.2666,-153.2646 2226.1042,-152.4007 2228.929,-151.4633"/>
<polygon fill="#191970" stroke="#191970" points="2230.1353,-154.749 2238.3628,-148.0737 2227.7683,-148.1614 2230.1353,-154.749"/>
</g>
<!-- Node36 -->
<g id="node37" class="node">
<title>Node36</title>
<polygon fill="none" stroke="#bfbfbf" points="1469.5,-129 1469.5,-148 1615.5,-148 1615.5,-129 1469.5,-129"/>
<text text-anchor="middle" x="1542.5" y="-136" font-family="Helvetica,sans-Serif" font-size="10.00" fill="#000000">DataDescriptorMatcher.inc</text>
</g>
<!-- Node16&#45;&gt;Node36 -->
<g id="edge49" class="edge">
<title>Node16&#45;&gt;Node36</title>
<path fill="none" stroke="#191970" d="M1805.9604,-190.8794C1744.2079,-178.6022 1657.1906,-161.302 1600.3263,-149.9966"/>
<polygon fill="#191970" stroke="#191970" points="1600.9124,-146.5447 1590.4218,-148.0275 1599.5473,-153.4103 1600.9124,-146.5447"/>
</g>
<!-- Node17&#45;&gt;Node5 -->
<g id="edge19" class="edge">
<title>Node17&#45;&gt;Node5</title>
<path fill="none" stroke="#191970" d="M2031.2736,-123.4554C2007.6684,-113.374 1976.8546,-100.2139 1954.0524,-90.4755"/>
<polygon fill="#191970" stroke="#191970" points="1955.386,-87.2393 1944.8149,-86.5303 1952.6366,-93.6767 1955.386,-87.2393"/>
</g>
<!-- Node17&#45;&gt;Node6 -->
<g id="edge20" class="edge">
<title>Node17&#45;&gt;Node6</title>
<path fill="none" stroke="#191970" d="M2085.0206,-123.4098C2102.8147,-108.9216 2130.4679,-86.432 2154.5,-67 2169.0972,-55.1969 2185.6028,-41.9166 2198.1956,-31.7984"/>
<polygon fill="#191970" stroke="#191970" points="2200.6121,-34.3467 2206.2169,-25.3557 2196.2286,-28.8891 2200.6121,-34.3467"/>
</g>
<!-- Node17&#45;&gt;Node7 -->
<g id="edge22" class="edge">
<title>Node17&#45;&gt;Node7</title>
<path fill="none" stroke="#191970" d="M2106.2288,-123.4178C2170.256,-99.1111 2295.2049,-51.6769 2355.8389,-28.6584"/>
<polygon fill="#191970" stroke="#191970" points="2357.2391,-31.8706 2365.3459,-25.0493 2354.7546,-25.3263 2357.2391,-31.8706"/>
</g>
<!-- Node17&#45;&gt;Node8 -->
<g id="edge23" class="edge">
<title>Node17&#45;&gt;Node8</title>
<path fill="none" stroke="#191970" d="M2076.6774,-123.4178C2092.0311,-100.6648 2121.0599,-57.6461 2137.4488,-33.3591"/>
<polygon fill="#191970" stroke="#191970" points="2140.3638,-35.2963 2143.0562,-25.0493 2134.5613,-31.3808 2140.3638,-35.2963"/>
</g>
<!-- Node18 -->
<g id="node19" class="node">
<title>Node18</title>
<polygon fill="none" stroke="#bfbfbf" points="2018.5,-67.5 2018.5,-86.5 2064.5,-86.5 2064.5,-67.5 2018.5,-67.5"/>
<text text-anchor="middle" x="2041.5" y="-74.5" font-family="Helvetica,sans-Serif" font-size="10.00" fill="#000000">cstdio</text>
</g>
<!-- Node17&#45;&gt;Node18 -->
<g id="edge21" class="edge">
<title>Node17&#45;&gt;Node18</title>
<path fill="none" stroke="#191970" d="M2060.3202,-123.2977C2056.9946,-115.1166 2052.8589,-104.943 2049.3121,-96.2179"/>
<polygon fill="#191970" stroke="#191970" points="2052.511,-94.7927 2045.5028,-86.8469 2046.0263,-97.4288 2052.511,-94.7927"/>
</g>
<!-- Node19&#45;&gt;Node5 -->
<g id="edge42" class="edge">
<title>Node19&#45;&gt;Node5</title>
<path fill="none" stroke="#191970" d="M1718.8918,-128.9581C1760.929,-118.2308 1829.276,-100.7895 1875.0446,-89.11"/>
<polygon fill="#191970" stroke="#191970" points="1876.1964,-92.4283 1885.0205,-86.5643 1874.4655,-85.6457 1876.1964,-92.4283"/>
</g>
<!-- Node20 -->
<g id="node21" class="node">
<title>Node20</title>
<g id="a_node21"><a xlink:href="../../dc/d03/MemoryResources_8h.html" target="_top" xlink:title="MemoryResources/MemoryResources.h">
<polygon fill="none" stroke="#000000" points="1007,-67.5 1007,-86.5 1214,-86.5 1214,-67.5 1007,-67.5"/>
<text text-anchor="middle" x="1110.5" y="-74.5" font-family="Helvetica,sans-Serif" font-size="10.00" fill="#000000">MemoryResources/MemoryResources.h</text>
</a>
</g>
</g>
<!-- Node19&#45;&gt;Node20 -->
<g id="edge26" class="edge">
<title>Node19&#45;&gt;Node20</title>
<path fill="none" stroke="#191970" d="M1650.3664,-128.9698C1642.0309,-126.7114 1632.9792,-124.52 1624.5,-123 1488.1614,-98.559 1329.0346,-86.8617 1224.368,-81.4299"/>
<polygon fill="#191970" stroke="#191970" points="1224.2607,-77.9201 1214.0959,-80.9079 1223.9054,-84.911 1224.2607,-77.9201"/>
</g>
<!-- Node20&#45;&gt;Node9 -->
<g id="edge31" class="edge">
<title>Node20&#45;&gt;Node9</title>
<path fill="none" stroke="#191970" d="M1214.2364,-70.7383C1331.4141,-62.9831 1514.5063,-48.6158 1581.5,-31 1583.8318,-30.3868 1586.2057,-29.6362 1588.5629,-28.7993"/>
<polygon fill="#191970" stroke="#191970" points="1590.0336,-31.9803 1598.0081,-25.0048 1587.4242,-25.4849 1590.0336,-31.9803"/>
</g>
<!-- Node20&#45;&gt;Node12 -->
<g id="edge32" class="edge">
<title>Node20&#45;&gt;Node12</title>
<path fill="none" stroke="#191970" d="M1214.2814,-75.3114C1476.8435,-70.6853 2153.7178,-56.4288 2252.5,-31 2254.423,-30.505 2256.3653,-29.88 2258.2901,-29.1668"/>
<polygon fill="#191970" stroke="#191970" points="2259.8611,-32.2992 2267.5962,-25.0591 2257.0344,-25.8954 2259.8611,-32.2992"/>
</g>
<!-- Node20&#45;&gt;Node14 -->
<g id="edge41" class="edge">
<title>Node20&#45;&gt;Node14</title>
<path fill="none" stroke="#191970" d="M1214.1154,-71.3169C1323.0792,-64.6062 1499.3638,-51.6668 1650.5,-31 1658.9603,-29.8431 1667.8713,-28.3974 1676.5771,-26.8571"/>
<polygon fill="#191970" stroke="#191970" points="1677.4538,-30.255 1686.6634,-25.0171 1676.1976,-23.3686 1677.4538,-30.255"/>
</g>
<!-- Node21 -->
<g id="node22" class="node">
<title>Node21</title>
<polygon fill="none" stroke="#bfbfbf" points="807,-.5 807,-30.5 918,-30.5 918,-.5 807,-.5"/>
<text text-anchor="start" x="815" y="-18.5" font-family="Helvetica,sans-Serif" font-size="10.00" fill="#000000">boost/container/flat</text>
<text text-anchor="middle" x="862.5" y="-7.5" font-family="Helvetica,sans-Serif" font-size="10.00" fill="#000000">_map.hpp</text>
</g>
<!-- Node20&#45;&gt;Node21 -->
<g id="edge27" class="edge">
<title>Node20&#45;&gt;Node21</title>
<path fill="none" stroke="#191970" d="M1072.0221,-67.4581C1033.6164,-57.9341 973.8699,-43.1179 927.9893,-31.7403"/>
<polygon fill="#191970" stroke="#191970" points="928.6762,-28.3047 918.1277,-29.2948 926.9912,-35.0989 928.6762,-28.3047"/>
</g>
<!-- Node22 -->
<g id="node23" class="node">
<title>Node22</title>
<polygon fill="none" stroke="#bfbfbf" points="936,-.5 936,-30.5 1065,-30.5 1065,-.5 936,-.5"/>
<text text-anchor="start" x="944" y="-18.5" font-family="Helvetica,sans-Serif" font-size="10.00" fill="#000000">boost/container/pmr</text>
<text text-anchor="middle" x="1000.5" y="-7.5" font-family="Helvetica,sans-Serif" font-size="10.00" fill="#000000">/memory_resource.hpp</text>
</g>
<!-- Node20&#45;&gt;Node22 -->
<g id="edge28" class="edge">
<title>Node20&#45;&gt;Node22</title>
<path fill="none" stroke="#191970" d="M1093.3125,-67.3906C1078.0807,-58.8747 1055.3497,-46.166 1036.196,-35.4573"/>
<polygon fill="#191970" stroke="#191970" points="1037.8455,-32.3697 1027.409,-30.5446 1034.4295,-38.4796 1037.8455,-32.3697"/>
</g>
<!-- Node23 -->
<g id="node24" class="node">
<title>Node23</title>
<polygon fill="none" stroke="#bfbfbf" points="1083,-.5 1083,-30.5 1256,-30.5 1256,-.5 1083,-.5"/>
<text text-anchor="start" x="1091" y="-18.5" font-family="Helvetica,sans-Serif" font-size="10.00" fill="#000000">boost/container/pmr</text>
<text text-anchor="middle" x="1169.5" y="-7.5" font-family="Helvetica,sans-Serif" font-size="10.00" fill="#000000">/monotonic_buffer_resource.hpp</text>
</g>
<!-- Node20&#45;&gt;Node23 -->
<g id="edge29" class="edge">
<title>Node20&#45;&gt;Node23</title>
<path fill="none" stroke="#191970" d="M1119.7188,-67.3906C1127.2601,-59.5298 1138.2287,-48.0964 1147.9518,-37.9612"/>
<polygon fill="#191970" stroke="#191970" points="1150.6698,-40.1839 1155.067,-30.5446 1145.6184,-35.3378 1150.6698,-40.1839"/>
</g>
<!-- Node24 -->
<g id="node25" class="node">
<title>Node24</title>
<polygon fill="none" stroke="#bfbfbf" points="1274,-.5 1274,-30.5 1423,-30.5 1423,-.5 1274,-.5"/>
<text text-anchor="start" x="1282" y="-18.5" font-family="Helvetica,sans-Serif" font-size="10.00" fill="#000000">boost/container/pmr</text>
<text text-anchor="middle" x="1348.5" y="-7.5" font-family="Helvetica,sans-Serif" font-size="10.00" fill="#000000">/polymorphic_allocator.hpp</text>
</g>
<!-- Node20&#45;&gt;Node24 -->
<g id="edge30" class="edge">
<title>Node20&#45;&gt;Node24</title>
<path fill="none" stroke="#191970" d="M1147.4264,-67.4581C1182.7965,-58.3183 1237.0277,-44.3048 1280.2595,-33.1336"/>
<polygon fill="#191970" stroke="#191970" points="1281.3414,-36.469 1290.1477,-30.5784 1279.5901,-29.6917 1281.3414,-36.469"/>
</g>
<!-- Node25 -->
<g id="node26" class="node">
<title>Node25</title>
<polygon fill="none" stroke="#bfbfbf" points="1441,-6 1441,-25 1510,-25 1510,-6 1441,-6"/>
<text text-anchor="middle" x="1475.5" y="-13" font-family="Helvetica,sans-Serif" font-size="10.00" fill="#000000">type_traits</text>
</g>
<!-- Node20&#45;&gt;Node25 -->
<g id="edge33" class="edge">
<title>Node20&#45;&gt;Node25</title>
<path fill="none" stroke="#191970" d="M1213.0395,-67.4966C1276.5513,-60.3344 1359.4618,-48.6683 1431.5,-31 1434.725,-30.209 1438.0456,-29.2738 1441.3485,-28.2609"/>
<polygon fill="#191970" stroke="#191970" points="1442.6854,-31.5057 1451.0904,-25.0554 1440.4975,-24.8564 1442.6854,-31.5057"/>
</g>
<!-- Node26 -->
<g id="node27" class="node">
<title>Node26</title>
<polygon fill="none" stroke="#bfbfbf" points="1528,-6 1528,-25 1573,-25 1573,-6 1528,-6"/>
<text text-anchor="middle" x="1550.5" y="-13" font-family="Helvetica,sans-Serif" font-size="10.00" fill="#000000">utility</text>
</g>
<!-- Node20&#45;&gt;Node26 -->
<g id="edge34" class="edge">
<title>Node20&#45;&gt;Node26</title>
<path fill="none" stroke="#191970" d="M1214.112,-69.3253C1315.7594,-61.0756 1463.2936,-46.9747 1518.5,-31 1520.2122,-30.5046 1521.9453,-29.9237 1523.6727,-29.2829"/>
<polygon fill="#191970" stroke="#191970" points="1525.5148,-32.3009 1533.3204,-25.1368 1522.7509,-25.8696 1525.5148,-32.3009"/>
</g>
<!-- Node20&#45;&gt;Node27 -->
<g id="edge35" class="edge">
<title>Node20&#45;&gt;Node27</title>
<path fill="none" stroke="#191970" d="M1006.9982,-74.8706C759.247,-69.4327 145.9329,-53.8335 55.5,-31 53.5249,-30.5013 51.5273,-29.8736 49.5457,-29.1585"/>
<polygon fill="#191970" stroke="#191970" points="50.5212,-25.7687 39.951,-25.0464 47.7637,-32.2027 50.5212,-25.7687"/>
</g>
<!-- Node28 -->
<g id="node29" class="node">
<title>Node28</title>
<polygon fill="none" stroke="#bfbfbf" points="65,-6 65,-25 158,-25 158,-6 65,-6"/>
<text text-anchor="middle" x="111.5" y="-13" font-family="Helvetica,sans-Serif" font-size="10.00" fill="#000000">unordered_map</text>
</g>
<!-- Node20&#45;&gt;Node28 -->
<g id="edge36" class="edge">
<title>Node20&#45;&gt;Node28</title>
<path fill="none" stroke="#191970" d="M1006.6036,-74.8973C796.044,-70.1495 325.5079,-56.9367 166.5,-31 161.3092,-30.1533 155.9095,-28.9925 150.6101,-27.6841"/>
<polygon fill="#191970" stroke="#191970" points="151.1876,-24.2161 140.624,-25.0297 149.3893,-30.9812 151.1876,-24.2161"/>
</g>
<!-- Node29 -->
<g id="node30" class="node">
<title>Node29</title>
<polygon fill="none" stroke="#bfbfbf" points="176,-6 176,-25 277,-25 277,-6 176,-6"/>
<text text-anchor="middle" x="226.5" y="-13" font-family="Helvetica,sans-Serif" font-size="10.00" fill="#000000">FairMQMessage.h</text>
</g>
<!-- Node20&#45;&gt;Node29 -->
<g id="edge37" class="edge">
<title>Node20&#45;&gt;Node29</title>
<path fill="none" stroke="#191970" d="M1006.7299,-73.8198C817.0643,-67.574 421.4462,-52.4236 285.5,-31 279.7364,-30.0917 273.7209,-28.8565 267.8289,-27.4771"/>
<polygon fill="#191970" stroke="#191970" points="268.6457,-24.0737 258.0961,-25.0519 266.9531,-30.866 268.6457,-24.0737"/>
</g>
<!-- Node30 -->
<g id="node31" class="node">
<title>Node30</title>
<polygon fill="none" stroke="#bfbfbf" points="295,-6 295,-25 432,-25 432,-6 295,-6"/>
<text text-anchor="middle" x="363.5" y="-13" font-family="Helvetica,sans-Serif" font-size="10.00" fill="#000000">FairMQTransportFactory.h</text>
</g>
<!-- Node20&#45;&gt;Node30 -->
<g id="edge38" class="edge">
<title>Node20&#45;&gt;Node30</title>
<path fill="none" stroke="#191970" d="M1006.9438,-73.9729C875.1156,-69.1816 640.5668,-57.5129 441.5,-31 433.3271,-29.9115 424.7227,-28.4873 416.3329,-26.9434"/>
<polygon fill="#191970" stroke="#191970" points="416.7284,-23.4557 406.249,-25.0152 415.4137,-30.3311 416.7284,-23.4557"/>
</g>
<!-- Node31 -->
<g id="node32" class="node">
<title>Node31</title>
<polygon fill="none" stroke="#bfbfbf" points="450.5,-6 450.5,-25 600.5,-25 600.5,-6 450.5,-6"/>
<text text-anchor="middle" x="525.5" y="-13" font-family="Helvetica,sans-Serif" font-size="10.00" fill="#000000">fairmq/MemoryResources.h</text>
</g>
<!-- Node20&#45;&gt;Node31 -->
<g id="edge39" class="edge">
<title>Node20&#45;&gt;Node31</title>
<path fill="none" stroke="#191970" d="M1006.5573,-70.2249C905.0111,-62.9542 746.2118,-49.8497 609.5,-31 600.8544,-29.8079 591.7445,-28.3448 582.8408,-26.7982"/>
<polygon fill="#191970" stroke="#191970" points="583.3708,-23.3376 572.9115,-25.0267 582.1412,-30.2288 583.3708,-23.3376"/>
</g>
<!-- Node32 -->
<g id="node33" class="node">
<title>Node32</title>
<polygon fill="none" stroke="#bfbfbf" points="618.5,-6 618.5,-25 788.5,-25 788.5,-6 618.5,-6"/>
<text text-anchor="middle" x="703.5" y="-13" font-family="Helvetica,sans-Serif" font-size="10.00" fill="#000000">fairmq/MemoryResourceTools.h</text>
</g>
<!-- Node20&#45;&gt;Node32 -->
<g id="edge40" class="edge">
<title>Node20&#45;&gt;Node32</title>
<path fill="none" stroke="#191970" d="M1043.2861,-67.4688C979.8683,-58.3938 882.1586,-44.1997 797.5,-31 788.6189,-29.6153 779.2725,-28.12 770.0585,-26.6235"/>
<polygon fill="#191970" stroke="#191970" points="770.5739,-23.1614 760.1406,-25.0043 769.446,-30.0699 770.5739,-23.1614"/>
</g>
</g>
</svg>
