<?xml version="1.0" encoding="UTF-8" standalone="no"?>
<!DOCTYPE svg PUBLIC "-//W3C//DTD SVG 1.1//EN"
 "http://www.w3.org/Graphics/SVG/1.1/DTD/svg11.dtd">
<!-- Generated by graphviz version 2.40.1 (20161225.0304)
 -->
<!-- Title: /home/travis/build/AliceO2Group/AliceO2/DataFormats/Detectors/ITSMFT/common/src/ClusterTopology.cxx Pages: 1 -->
<!--zoomable 698 -->
<svg id="main" version="1.1" xmlns="http://www.w3.org/2000/svg" xmlns:xlink="http://www.w3.org/1999/xlink" xml:space="preserve" onload="init(evt)">
<style type="text/css"><![CDATA[
.edge:hover path { stroke: red; }
.edge:hover polygon { stroke: red; fill: red; }
]]></style>
<script type="text/javascript"><![CDATA[
var edges = document.getElementsByTagName('g');
if (edges && edges.length) {
  for (var i=0;i<edges.length;i++) {
    if (edges[i].id.substr(0,4)=='edge') {
      edges[i].setAttribute('class','edge');
    }
  }
}
]]></script>
        <defs>
                <circle id="rim" cx="0" cy="0" r="7"/>
                <circle id="rim2" cx="0" cy="0" r="3.5"/>
                <g id="zoomPlus">
                        <use xlink:href="#rim" fill="#404040">
                                <set attributeName="fill" to="#808080" begin="zoomplus.mouseover" end="zoomplus.mouseout"/>
                        </use>
                        <path d="M-4,0h8M0,-4v8" fill="none" stroke="white" stroke-width="1.5" pointer-events="none"/>
                </g>
                <g id="zoomMin">
                        <use xlink:href="#rim" fill="#404040">
                                <set attributeName="fill" to="#808080" begin="zoomminus.mouseover" end="zoomminus.mouseout"/>
                        </use>
                        <path d="M-4,0h8" fill="none" stroke="white" stroke-width="1.5" pointer-events="none"/>
                </g>
                <g id="dirArrow">
                        <path fill="none" stroke="white" stroke-width="1.5" d="M0,-3.0v7 M-2.5,-0.5L0,-3.0L2.5,-0.5"/>
                </g>
               <g id="resetDef">
                       <use xlink:href="#rim2" fill="#404040">
                               <set attributeName="fill" to="#808080" begin="reset.mouseover" end="reset.mouseout"/>
                       </use>
               </g>
        </defs>

<script type="text/javascript">
var viewWidth = 2156;
var viewHeight = 698;
var sectionId = 'dynsection-0';
</script>
<script xlink:href="../../svgpan.js"/>
<svg id="graph" class="graph">
<g id="viewport">
<title>/home/travis/build/AliceO2Group/AliceO2/DataFormats/Detectors/ITSMFT/common/src/ClusterTopology.cxx</title>
<!-- Node0 -->
<g id="node1" class="node">
<title>Node0</title>
<polygon fill="#bfbfbf" stroke="#000000" points="1864.5,-637.5 1864.5,-689.5 2081.5,-689.5 2081.5,-637.5 1864.5,-637.5"/>
<text text-anchor="start" x="1872.5" y="-677.5" font-family="Helvetica,sans-Serif" font-size="10.00" fill="#000000">/home/travis/build</text>
<text text-anchor="start" x="1872.5" y="-666.5" font-family="Helvetica,sans-Serif" font-size="10.00" fill="#000000">/AliceO2Group/AliceO2</text>
<text text-anchor="start" x="1872.5" y="-655.5" font-family="Helvetica,sans-Serif" font-size="10.00" fill="#000000">/DataFormats/Detectors</text>
<text text-anchor="middle" x="1973" y="-644.5" font-family="Helvetica,sans-Serif" font-size="10.00" fill="#000000">/ITSMFT/common/src/ClusterTopology.cxx</text>
</g>
<!-- Node1 -->
<g id="node2" class="node">
<title>Node1</title>
<g id="a_node2"><a xlink:href="../../d8/ddb/ClusterTopology_8h.html" target="_top" xlink:title="Definition of the ClusterTopology class. ">
<polygon fill="none" stroke="#000000" points="1317,-570.5 1317,-600.5 1469,-600.5 1469,-570.5 1317,-570.5"/>
<text text-anchor="start" x="1325" y="-588.5" font-family="Helvetica,sans-Serif" font-size="10.00" fill="#000000">DataFormatsITSMFT/Cluster</text>
<text text-anchor="middle" x="1393" y="-577.5" font-family="Helvetica,sans-Serif" font-size="10.00" fill="#000000">Topology.h</text>
</a>
</g>
</g>
<!-- Node0&#45;&gt;Node1 -->
<g id="edge1" class="edge">
<title>Node0&#45;&gt;Node1</title>
<path fill="none" stroke="#191970" d="M1864.2468,-648.8746C1752.8245,-633.8902 1581.82,-610.893 1479.3384,-597.111"/>
<polygon fill="#191970" stroke="#191970" points="1479.7105,-593.6296 1469.3332,-595.7655 1478.7775,-600.5672 1479.7105,-593.6296"/>
</g>
<!-- Node14 -->
<g id="node15" class="node">
<title>Node14</title>
<polygon fill="none" stroke="#bfbfbf" points="1918,-185 1918,-204 1978,-204 1978,-185 1918,-185"/>
<text text-anchor="middle" x="1948" y="-192" font-family="Helvetica,sans-Serif" font-size="10.00" fill="#000000">iostream</text>
</g>
<!-- Node0&#45;&gt;Node14 -->
<g id="edge53" class="edge">
<title>Node0&#45;&gt;Node14</title>
<path fill="none" stroke="#191970" d="M1960.3312,-637.4638C1947.6472,-608.9587 1930,-561.5618 1930,-518.5 1930,-518.5 1930,-518.5 1930,-328.5 1930,-287.6059 1938.3365,-240.3117 1943.6628,-214.2681"/>
<polygon fill="#191970" stroke="#191970" points="1947.1489,-214.6995 1945.7928,-204.1918 1940.3002,-213.2516 1947.1489,-214.6995"/>
</g>
<!-- Node40 -->
<g id="node41" class="node">
<title>Node40</title>
<g id="a_node41"><a xlink:href="../../dd/da4/Logger_8h.html" target="_top" xlink:title="Framework/Logger.h">
<polygon fill="none" stroke="#000000" points="1958.5,-576 1958.5,-595 2073.5,-595 2073.5,-576 1958.5,-576"/>
<text text-anchor="middle" x="2016" y="-583" font-family="Helvetica,sans-Serif" font-size="10.00" fill="#000000">Framework/Logger.h</text>
</a>
</g>
</g>
<!-- Node0&#45;&gt;Node40 -->
<g id="edge52" class="edge">
<title>Node0&#45;&gt;Node40</title>
<path fill="none" stroke="#191970" d="M1987.5578,-637.0928C1993.5515,-626.2205 2000.3515,-613.8856 2005.7994,-604.0034"/>
<polygon fill="#191970" stroke="#191970" points="2008.9538,-605.531 2010.7166,-595.0839 2002.8236,-602.1515 2008.9538,-605.531"/>
</g>
<!-- Node41 -->
<g id="node42" class="node">
<title>Node41</title>
<polygon fill="none" stroke="#bfbfbf" points="2092,-576 2092,-595 2148,-595 2148,-576 2092,-576"/>
<text text-anchor="middle" x="2120" y="-583" font-family="Helvetica,sans-Serif" font-size="10.00" fill="#000000">TMath.h</text>
</g>
<!-- Node0&#45;&gt;Node41 -->
<g id="edge54" class="edge">
<title>Node0&#45;&gt;Node41</title>
<path fill="none" stroke="#191970" d="M2022.3578,-637.3101C2045.8685,-624.8351 2073.0867,-610.3928 2092.8042,-599.9304"/>
<polygon fill="#191970" stroke="#191970" points="2094.6391,-602.919 2101.8321,-595.1401 2091.3581,-596.7356 2094.6391,-602.919"/>
</g>
<!-- Node2 -->
<g id="node3" class="node">
<title>Node2</title>
<g id="a_node3"><a xlink:href="../../de/dc1/ClusterPattern_8h.html" target="_top" xlink:title="DataFormatsITSMFT/Cluster\lPattern.h">
<polygon fill="none" stroke="#000000" points="779,-503.5 779,-533.5 931,-533.5 931,-503.5 779,-503.5"/>
<text text-anchor="start" x="787" y="-521.5" font-family="Helvetica,sans-Serif" font-size="10.00" fill="#000000">DataFormatsITSMFT/Cluster</text>
<text text-anchor="middle" x="855" y="-510.5" font-family="Helvetica,sans-Serif" font-size="10.00" fill="#000000">Pattern.h</text>
</a>
</g>
</g>
<!-- Node1&#45;&gt;Node2 -->
<g id="edge2" class="edge">
<title>Node1&#45;&gt;Node2</title>
<path fill="none" stroke="#191970" d="M1316.7741,-576.0072C1217.7456,-563.6746 1045.2849,-542.1972 941.4726,-529.2689"/>
<polygon fill="#191970" stroke="#191970" points="941.6914,-525.7692 931.3355,-528.0065 940.8263,-532.7155 941.6914,-525.7692"/>
</g>
<!-- Node3 -->
<g id="node4" class="node">
<title>Node3</title>
<polygon fill="none" stroke="#bfbfbf" points="509.5,-185 509.5,-204 568.5,-204 568.5,-185 509.5,-185"/>
<text text-anchor="middle" x="539" y="-192" font-family="Helvetica,sans-Serif" font-size="10.00" fill="#000000">Rtypes.h</text>
</g>
<!-- Node2&#45;&gt;Node3 -->
<g id="edge3" class="edge">
<title>Node2&#45;&gt;Node3</title>
<path fill="none" stroke="#191970" d="M778.9218,-506.5705C678.9733,-488.7089 516,-451.065 516,-395.5 516,-395.5 516,-395.5 516,-328.5 516,-287.1928 526.7479,-239.7421 533.5493,-213.85"/>
<polygon fill="#191970" stroke="#191970" points="536.9393,-214.7216 536.1797,-204.1541 530.1835,-212.8888 536.9393,-214.7216"/>
</g>
<!-- Node4 -->
<g id="node5" class="node">
<title>Node4</title>
<polygon fill="none" stroke="#bfbfbf" points="0,-118 0,-137 42,-137 42,-118 0,-118"/>
<text text-anchor="middle" x="21" y="-125" font-family="Helvetica,sans-Serif" font-size="10.00" fill="#000000">array</text>
</g>
<!-- Node2&#45;&gt;Node4 -->
<g id="edge4" class="edge">
<title>Node2&#45;&gt;Node4</title>
<path fill="none" stroke="#191970" d="M778.927,-515.4732C569.861,-506.1487 2,-473.6307 2,-395.5 2,-395.5 2,-395.5 2,-261.5 2,-220.5645 10.7996,-173.2853 16.4218,-147.2554"/>
<polygon fill="#191970" stroke="#191970" points="19.907,-147.7073 18.6702,-137.1849 13.0752,-146.182 19.907,-147.7073"/>
</g>
<!-- Node5 -->
<g id="node6" class="node">
<title>Node5</title>
<polygon fill="none" stroke="#bfbfbf" points="1850.5,-185 1850.5,-204 1899.5,-204 1899.5,-185 1850.5,-185"/>
<text text-anchor="middle" x="1875" y="-192" font-family="Helvetica,sans-Serif" font-size="10.00" fill="#000000">iosfwd</text>
</g>
<!-- Node2&#45;&gt;Node5 -->
<g id="edge5" class="edge">
<title>Node2&#45;&gt;Node5</title>
<path fill="none" stroke="#191970" d="M931.2486,-517.3025C1168.0495,-512.5832 1875,-490.5358 1875,-395.5 1875,-395.5 1875,-395.5 1875,-328.5 1875,-287.9699 1875,-240.5443 1875,-214.3795"/>
<polygon fill="#191970" stroke="#191970" points="1878.5001,-214.2517 1875,-204.2517 1871.5001,-214.2518 1878.5001,-214.2517"/>
</g>
<!-- Node6 -->
<g id="node7" class="node">
<title>Node6</title>
<g id="a_node7"><a xlink:href="../../d1/d62/DataFormats_2Detectors_2ITSMFT_2common_2include_2DataFormatsITSMFT_2Cluster_8h.html" target="_top" xlink:title="DataFormatsITSMFT/Cluster.h">
<polygon fill="none" stroke="#000000" points="775,-447.5 775,-466.5 935,-466.5 935,-447.5 775,-447.5"/>
<text text-anchor="middle" x="855" y="-454.5" font-family="Helvetica,sans-Serif" font-size="10.00" fill="#000000">DataFormatsITSMFT/Cluster.h</text>
</a>
</g>
</g>
<!-- Node2&#45;&gt;Node6 -->
<g id="edge6" class="edge">
<title>Node2&#45;&gt;Node6</title>
<path fill="none" stroke="#191970" d="M855,-503.2977C855,-495.3834 855,-485.6043 855,-477.0759"/>
<polygon fill="#191970" stroke="#191970" points="858.5001,-476.8469 855,-466.8469 851.5001,-476.847 858.5001,-476.8469"/>
</g>
<!-- Node7 -->
<g id="node8" class="node">
<title>Node7</title>
<g id="a_node8"><a xlink:href="../../d4/de2/BaseCluster_8h.html" target="_top" xlink:title="ReconstructionDataFormats\l/BaseCluster.h">
<polygon fill="none" stroke="#000000" points="779,-380.5 779,-410.5 931,-410.5 931,-380.5 779,-380.5"/>
<text text-anchor="start" x="787" y="-398.5" font-family="Helvetica,sans-Serif" font-size="10.00" fill="#000000">ReconstructionDataFormats</text>
<text text-anchor="middle" x="855" y="-387.5" font-family="Helvetica,sans-Serif" font-size="10.00" fill="#000000">/BaseCluster.h</text>
</a>
</g>
</g>
<!-- Node6&#45;&gt;Node7 -->
<g id="edge7" class="edge">
<title>Node6&#45;&gt;Node7</title>
<path fill="none" stroke="#191970" d="M855,-447.3906C855,-440.2234 855,-430.0862 855,-420.671"/>
<polygon fill="#191970" stroke="#191970" points="858.5001,-420.5446 855,-410.5446 851.5001,-420.5446 858.5001,-420.5446"/>
</g>
<!-- Node7&#45;&gt;Node5 -->
<g id="edge12" class="edge">
<title>Node7&#45;&gt;Node5</title>
<path fill="none" stroke="#191970" d="M931.1877,-393.975C1131.4941,-388.7475 1667.7336,-366.5359 1817,-277 1841.4357,-262.3425 1858.2436,-232.9779 1867.2461,-213.5302"/>
<polygon fill="#191970" stroke="#191970" points="1870.5485,-214.7134 1871.3426,-204.1484 1864.1334,-211.9123 1870.5485,-214.7134"/>
</g>
<!-- Node8 -->
<g id="node9" class="node">
<title>Node8</title>
<polygon fill="none" stroke="#bfbfbf" points="997.5,-319 997.5,-338 1060.5,-338 1060.5,-319 997.5,-319"/>
<text text-anchor="middle" x="1029" y="-326" font-family="Helvetica,sans-Serif" font-size="10.00" fill="#000000">TObject.h</text>
</g>
<!-- Node7&#45;&gt;Node8 -->
<g id="edge8" class="edge">
<title>Node7&#45;&gt;Node8</title>
<path fill="none" stroke="#191970" d="M894.049,-380.4639C924.2542,-368.8332 965.6736,-352.8843 994.6307,-341.7342"/>
<polygon fill="#191970" stroke="#191970" points="996.2403,-344.865 1004.3146,-338.0053 993.7248,-338.3325 996.2403,-344.865"/>
</g>
<!-- Node9 -->
<g id="node10" class="node">
<title>Node9</title>
<polygon fill="none" stroke="#bfbfbf" points="68,-185 68,-204 112,-204 112,-185 68,-185"/>
<text text-anchor="middle" x="90" y="-192" font-family="Helvetica,sans-Serif" font-size="10.00" fill="#000000">bitset</text>
</g>
<!-- Node7&#45;&gt;Node9 -->
<g id="edge9" class="edge">
<title>Node7&#45;&gt;Node9</title>
<path fill="none" stroke="#191970" d="M778.9109,-382.1871C672.399,-362.8424 473.2362,-324.081 307,-277 220.8476,-252.6002 198.3867,-247.3333 117,-210 116.1618,-209.6155 115.3153,-209.2134 114.4655,-208.7977"/>
<polygon fill="#191970" stroke="#191970" points="115.9236,-205.6092 105.45,-204.0106 112.6407,-211.7917 115.9236,-205.6092"/>
</g>
<!-- Node10 -->
<g id="node11" class="node">
<title>Node10</title>
<polygon fill="none" stroke="#bfbfbf" points="646,-319 646,-338 702,-338 702,-319 646,-319"/>
<text text-anchor="middle" x="674" y="-326" font-family="Helvetica,sans-Serif" font-size="10.00" fill="#000000">iomanip</text>
</g>
<!-- Node7&#45;&gt;Node10 -->
<g id="edge10" class="edge">
<title>Node7&#45;&gt;Node10</title>
<path fill="none" stroke="#191970" d="M810.9778,-380.4382C782.3514,-370.4763 744.293,-356.9164 711,-344 709.1982,-343.301 707.3523,-342.5714 705.4929,-341.826"/>
<polygon fill="#191970" stroke="#191970" points="706.8078,-338.5824 696.227,-338.0368 704.1582,-345.0616 706.8078,-338.5824"/>
</g>
<!-- Node11 -->
<g id="node12" class="node">
<title>Node11</title>
<polygon fill="none" stroke="#bfbfbf" points="720.5,-319 720.5,-338 751.5,-338 751.5,-319 720.5,-319"/>
<text text-anchor="middle" x="736" y="-326" font-family="Helvetica,sans-Serif" font-size="10.00" fill="#000000">ios</text>
</g>
<!-- Node7&#45;&gt;Node11 -->
<g id="edge11" class="edge">
<title>Node7&#45;&gt;Node11</title>
<path fill="none" stroke="#191970" d="M825.5714,-380.2934C806.6403,-370.3286 781.6252,-356.8192 760,-344 759.704,-343.8245 759.4064,-343.6472 759.1075,-343.4682"/>
<polygon fill="#191970" stroke="#191970" points="760.6959,-340.3344 750.3557,-338.0253 756.9991,-346.2786 760.6959,-340.3344"/>
</g>
<!-- Node12 -->
<g id="node13" class="node">
<title>Node12</title>
<g id="a_node13"><a xlink:href="../../d4/d20/DetMatrixCache_8h.html" target="_top" xlink:title="DetectorsCommonDataFormats\l/DetMatrixCache.h">
<polygon fill="none" stroke="#000000" points="769.5,-313.5 769.5,-343.5 940.5,-343.5 940.5,-313.5 769.5,-313.5"/>
<text text-anchor="start" x="777.5" y="-331.5" font-family="Helvetica,sans-Serif" font-size="10.00" fill="#000000">DetectorsCommonDataFormats</text>
<text text-anchor="middle" x="855" y="-320.5" font-family="Helvetica,sans-Serif" font-size="10.00" fill="#000000">/DetMatrixCache.h</text>
</a>
</g>
</g>
<!-- Node7&#45;&gt;Node12 -->
<g id="edge13" class="edge">
<title>Node7&#45;&gt;Node12</title>
<path fill="none" stroke="#191970" d="M855,-380.2967C855,-372.5013 855,-362.7991 855,-353.9064"/>
<polygon fill="#191970" stroke="#191970" points="858.5001,-353.6431 855,-343.6432 851.5001,-353.6432 858.5001,-353.6431"/>
</g>
<!-- Node30 -->
<g id="node31" class="node">
<title>Node30</title>
<g id="a_node31"><a xlink:href="../../dd/d76/Cartesian3D_8h.html" target="_top" xlink:title="MathUtils/Cartesian3D.h">
<polygon fill="none" stroke="#000000" points="988.5,-252 988.5,-271 1123.5,-271 1123.5,-252 988.5,-252"/>
<text text-anchor="middle" x="1056" y="-259" font-family="Helvetica,sans-Serif" font-size="10.00" fill="#000000">MathUtils/Cartesian3D.h</text>
</a>
</g>
</g>
<!-- Node7&#45;&gt;Node30 -->
<g id="edge51" class="edge">
<title>Node7&#45;&gt;Node30</title>
<path fill="none" stroke="#191970" d="M885.8252,-380.3035C904.5572,-370.6588 928.6958,-357.4894 949,-344 967.4429,-331.7472 970.5065,-326.5739 988,-313 1003.6443,-300.861 1021.4971,-287.353 1034.9835,-277.2178"/>
<polygon fill="#191970" stroke="#191970" points="1037.2493,-279.8935 1043.1484,-271.0928 1033.0487,-274.2939 1037.2493,-279.8935"/>
</g>
<!-- Node12&#45;&gt;Node4 -->
<g id="edge19" class="edge">
<title>Node12&#45;&gt;Node4</title>
<path fill="none" stroke="#191970" d="M769.3414,-314.1909C766.1908,-313.7706 763.0691,-313.3717 760,-313 559.4969,-288.7181 506.0023,-311.4845 307,-277 194.5028,-257.5057 146.2138,-283.6845 59,-210 39.8681,-193.836 29.8488,-165.9728 24.9991,-147.1492"/>
<polygon fill="#191970" stroke="#191970" points="28.3767,-146.2203 22.7113,-137.2675 21.5571,-147.7993 28.3767,-146.2203"/>
</g>
<!-- Node13 -->
<g id="node14" class="node">
<title>Node13</title>
<g id="a_node14"><a xlink:href="../../df/d5b/GPUCommonLogger_8h.html" target="_top" xlink:title="GPUCommonLogger.h">
<polygon fill="none" stroke="#000000" points="1685.5,-252 1685.5,-271 1808.5,-271 1808.5,-252 1685.5,-252"/>
<text text-anchor="middle" x="1747" y="-259" font-family="Helvetica,sans-Serif" font-size="10.00" fill="#000000">GPUCommonLogger.h</text>
</a>
</g>
</g>
<!-- Node12&#45;&gt;Node13 -->
<g id="edge14" class="edge">
<title>Node12&#45;&gt;Node13</title>
<path fill="none" stroke="#191970" d="M940.7904,-317.8859C956.4816,-316.1199 972.722,-314.4078 988,-313 1240.189,-289.7626 1540.4243,-272.442 1675.2351,-265.212"/>
<polygon fill="#191970" stroke="#191970" points="1675.6317,-268.6959 1685.4308,-264.6676 1675.2583,-261.7059 1675.6317,-268.6959"/>
</g>
<!-- Node16 -->
<g id="node17" class="node">
<title>Node16</title>
<g id="a_node17"><a xlink:href="../../d2/d45/GPUCommonRtypes_8h.html" target="_top" xlink:title="GPUCommonRtypes.h">
<polygon fill="none" stroke="#000000" points="627.5,-252 627.5,-271 752.5,-271 752.5,-252 627.5,-252"/>
<text text-anchor="middle" x="690" y="-259" font-family="Helvetica,sans-Serif" font-size="10.00" fill="#000000">GPUCommonRtypes.h</text>
</a>
</g>
</g>
<!-- Node12&#45;&gt;Node16 -->
<g id="edge17" class="edge">
<title>Node12&#45;&gt;Node16</title>
<path fill="none" stroke="#191970" d="M817.9708,-313.4639C789.5377,-301.9183 750.6254,-286.1176 723.1966,-274.9798"/>
<polygon fill="#191970" stroke="#191970" points="724.2335,-271.6234 713.6514,-271.1039 721.5999,-278.1091 724.2335,-271.6234"/>
</g>
<!-- Node17 -->
<g id="node18" class="node">
<title>Node17</title>
<polygon fill="none" stroke="#bfbfbf" points="831.5,-252 831.5,-271 878.5,-271 878.5,-252 831.5,-252"/>
<text text-anchor="middle" x="855" y="-259" font-family="Helvetica,sans-Serif" font-size="10.00" fill="#000000">vector</text>
</g>
<!-- Node12&#45;&gt;Node17 -->
<g id="edge20" class="edge">
<title>Node12&#45;&gt;Node17</title>
<path fill="none" stroke="#191970" d="M855,-313.2967C855,-303.7699 855,-291.3954 855,-281.1306"/>
<polygon fill="#191970" stroke="#191970" points="858.5001,-281.0549 855,-271.055 851.5001,-281.055 858.5001,-281.0549"/>
</g>
<!-- Node18 -->
<g id="node19" class="node">
<title>Node18</title>
<g id="a_node19"><a xlink:href="../../d6/d31/DetID_8h.html" target="_top" xlink:title="DetectorsCommonDataFormats\l/DetID.h">
<polygon fill="none" stroke="#000000" points="316.5,-246.5 316.5,-276.5 487.5,-276.5 487.5,-246.5 316.5,-246.5"/>
<text text-anchor="start" x="324.5" y="-264.5" font-family="Helvetica,sans-Serif" font-size="10.00" fill="#000000">DetectorsCommonDataFormats</text>
<text text-anchor="middle" x="402" y="-253.5" font-family="Helvetica,sans-Serif" font-size="10.00" fill="#000000">/DetID.h</text>
</a>
</g>
</g>
<!-- Node12&#45;&gt;Node18 -->
<g id="edge21" class="edge">
<title>Node12&#45;&gt;Node18</title>
<path fill="none" stroke="#191970" d="M769.3069,-314.4422C766.166,-313.9512 763.0558,-313.469 760,-313 671.2318,-299.3748 569.9087,-284.8994 497.7661,-274.7766"/>
<polygon fill="#191970" stroke="#191970" points="498.1735,-271.2995 487.7845,-273.3776 497.2019,-278.2318 498.1735,-271.2995"/>
</g>
<!-- Node12&#45;&gt;Node30 -->
<g id="edge39" class="edge">
<title>Node12&#45;&gt;Node30</title>
<path fill="none" stroke="#191970" d="M900.1083,-313.4639C935.4576,-301.6808 984.103,-285.4657 1017.6047,-274.2984"/>
<polygon fill="#191970" stroke="#191970" points="1019.1041,-277.488 1027.4841,-271.0053 1016.8905,-270.8472 1019.1041,-277.488"/>
</g>
<!-- Node13&#45;&gt;Node14 -->
<g id="edge15" class="edge">
<title>Node13&#45;&gt;Node14</title>
<path fill="none" stroke="#191970" d="M1778.6543,-251.9903C1811.2571,-242.0518 1863.451,-225.7404 1908,-210 1910.111,-209.2541 1912.2779,-208.4697 1914.4583,-207.666"/>
<polygon fill="#191970" stroke="#191970" points="1915.851,-210.8815 1923.9739,-204.0794 1913.382,-204.3313 1915.851,-210.8815"/>
</g>
<!-- Node15 -->
<g id="node16" class="node">
<title>Node15</title>
<polygon fill="none" stroke="#bfbfbf" points="1786,-185 1786,-204 1832,-204 1832,-185 1786,-185"/>
<text text-anchor="middle" x="1809" y="-192" font-family="Helvetica,sans-Serif" font-size="10.00" fill="#000000">cstdio</text>
</g>
<!-- Node13&#45;&gt;Node15 -->
<g id="edge16" class="edge">
<title>Node13&#45;&gt;Node15</title>
<path fill="none" stroke="#191970" d="M1755.8831,-251.9005C1765.5514,-241.4525 1781.2088,-224.5325 1793.0248,-211.7635"/>
<polygon fill="#191970" stroke="#191970" points="1795.9103,-213.7985 1800.1334,-204.0817 1790.7726,-209.0441 1795.9103,-213.7985"/>
</g>
<!-- Node16&#45;&gt;Node3 -->
<g id="edge18" class="edge">
<title>Node16&#45;&gt;Node3</title>
<path fill="none" stroke="#191970" d="M668.3654,-251.9005C642.5757,-240.4574 599.2894,-221.2509 569.9603,-208.2374"/>
<polygon fill="#191970" stroke="#191970" points="571.1546,-204.9383 560.5945,-204.0817 568.3156,-211.3367 571.1546,-204.9383"/>
</g>
<!-- Node18&#45;&gt;Node3 -->
<g id="edge22" class="edge">
<title>Node18&#45;&gt;Node3</title>
<path fill="none" stroke="#191970" d="M432.7455,-246.4639C455.9394,-235.1209 487.5316,-219.6707 510.2294,-208.5703"/>
<polygon fill="#191970" stroke="#191970" points="511.9165,-211.6414 519.3621,-204.1039 508.8412,-205.3531 511.9165,-211.6414"/>
</g>
<!-- Node18&#45;&gt;Node4 -->
<g id="edge23" class="edge">
<title>Node18&#45;&gt;Node4</title>
<path fill="none" stroke="#191970" d="M316.4743,-247.7705C258.1086,-237.5717 186.5672,-223.2 159,-210 139.3415,-200.5869 139.2356,-190.9383 121,-179 91.7303,-159.8379 82.096,-159.0293 51,-143 50.1793,-142.5769 49.346,-142.1473 48.5048,-141.7134"/>
<polygon fill="#191970" stroke="#191970" points="49.8925,-138.491 39.4011,-137.0142 46.6817,-144.7112 49.8925,-138.491"/>
</g>
<!-- Node18&#45;&gt;Node9 -->
<g id="edge24" class="edge">
<title>Node18&#45;&gt;Node9</title>
<path fill="none" stroke="#191970" d="M316.2019,-247.6296C248.833,-236.3398 160.7982,-220.5937 126,-210 123.8843,-209.3559 121.7256,-208.6256 119.5689,-207.8412"/>
<polygon fill="#191970" stroke="#191970" points="120.8521,-204.585 110.2659,-204.1569 118.2746,-211.0932 120.8521,-204.585"/>
</g>
<!-- Node19 -->
<g id="node20" class="node">
<title>Node19</title>
<polygon fill="none" stroke="#bfbfbf" points="284,-185 284,-204 336,-204 336,-185 284,-185"/>
<text text-anchor="middle" x="310" y="-192" font-family="Helvetica,sans-Serif" font-size="10.00" fill="#000000">cassert</text>
</g>
<!-- Node18&#45;&gt;Node19 -->
<g id="edge25" class="edge">
<title>Node18&#45;&gt;Node19</title>
<path fill="none" stroke="#191970" d="M381.1238,-246.2967C366.2331,-235.4524 346.2757,-220.9182 331.2919,-210.006"/>
<polygon fill="#191970" stroke="#191970" points="333.2643,-207.1127 323.1203,-204.055 329.1434,-212.7712 333.2643,-207.1127"/>
</g>
<!-- Node20 -->
<g id="node21" class="node">
<title>Node20</title>
<polygon fill="none" stroke="#bfbfbf" points="354,-185 354,-204 404,-204 404,-185 354,-185"/>
<text text-anchor="middle" x="379" y="-192" font-family="Helvetica,sans-Serif" font-size="10.00" fill="#000000">cstdint</text>
</g>
<!-- Node18&#45;&gt;Node20 -->
<g id="edge26" class="edge">
<title>Node18&#45;&gt;Node20</title>
<path fill="none" stroke="#191970" d="M396.7809,-246.2967C393.4758,-236.6685 389.1721,-224.1318 385.6267,-213.8038"/>
<polygon fill="#191970" stroke="#191970" points="388.8374,-212.3768 382.2801,-204.055 382.2166,-214.6496 388.8374,-212.3768"/>
</g>
<!-- Node21 -->
<g id="node22" class="node">
<title>Node21</title>
<polygon fill="none" stroke="#bfbfbf" points="422.5,-185 422.5,-204 491.5,-204 491.5,-185 422.5,-185"/>
<text text-anchor="middle" x="457" y="-192" font-family="Helvetica,sans-Serif" font-size="10.00" fill="#000000">type_traits</text>
</g>
<!-- Node18&#45;&gt;Node21 -->
<g id="edge27" class="edge">
<title>Node18&#45;&gt;Node21</title>
<path fill="none" stroke="#191970" d="M414.4804,-246.2967C422.8832,-236.0605 433.9849,-222.5366 442.7373,-211.8746"/>
<polygon fill="#191970" stroke="#191970" points="445.5167,-214.005 449.1564,-204.055 440.1061,-209.5635 445.5167,-214.005"/>
</g>
<!-- Node22 -->
<g id="node23" class="node">
<title>Node22</title>
<g id="a_node23"><a xlink:href="../../d9/d52/Common_2MathUtils_2include_2MathUtils_2Utils_8h.html" target="_top" xlink:title="MathUtils/Utils.h">
<polygon fill="none" stroke="#000000" points="168,-185 168,-204 266,-204 266,-185 168,-185"/>
<text text-anchor="middle" x="217" y="-192" font-family="Helvetica,sans-Serif" font-size="10.00" fill="#000000">MathUtils/Utils.h</text>
</a>
</g>
</g>
<!-- Node18&#45;&gt;Node22 -->
<g id="edge28" class="edge">
<title>Node18&#45;&gt;Node22</title>
<path fill="none" stroke="#191970" d="M360.4824,-246.4639C328.0872,-234.7316 283.5596,-218.6054 252.7385,-207.4431"/>
<polygon fill="#191970" stroke="#191970" points="253.8402,-204.1197 243.2459,-204.0053 251.4565,-210.7014 253.8402,-204.1197"/>
</g>
<!-- Node22&#45;&gt;Node4 -->
<g id="edge29" class="edge">
<title>Node22&#45;&gt;Node4</title>
<path fill="none" stroke="#191970" d="M179.7515,-184.9679C145.6703,-175.7736 94.1391,-160.675 51,-143 49.8099,-142.5124 48.6035,-141.9946 47.3924,-141.4552"/>
<polygon fill="#191970" stroke="#191970" points="48.7349,-138.2174 38.205,-137.0456 45.7059,-144.5281 48.7349,-138.2174"/>
</g>
<!-- Node23 -->
<g id="node24" class="node">
<title>Node23</title>
<polygon fill="none" stroke="#bfbfbf" points="258.5,-56.5 258.5,-75.5 305.5,-75.5 305.5,-56.5 258.5,-56.5"/>
<text text-anchor="middle" x="282" y="-63.5" font-family="Helvetica,sans-Serif" font-size="10.00" fill="#000000">cmath</text>
</g>
<!-- Node22&#45;&gt;Node23 -->
<g id="edge30" class="edge">
<title>Node22&#45;&gt;Node23</title>
<path fill="none" stroke="#191970" d="M228.5786,-184.6362C239.1006,-175.0463 254.2731,-159.5407 263,-143 272.5132,-124.969 277.3778,-102.0378 279.7888,-85.9062"/>
<polygon fill="#191970" stroke="#191970" points="283.3195,-85.8976 281.1421,-75.529 276.3782,-84.9924 283.3195,-85.8976"/>
</g>
<!-- Node24 -->
<g id="node25" class="node">
<title>Node24</title>
<g id="a_node25"><a xlink:href="../../df/d21/GPUCommonDef_8h.html" target="_top" xlink:title="GPUCommonDef.h">
<polygon fill="none" stroke="#000000" points="406.5,-56.5 406.5,-75.5 513.5,-75.5 513.5,-56.5 406.5,-56.5"/>
<text text-anchor="middle" x="460" y="-63.5" font-family="Helvetica,sans-Serif" font-size="10.00" fill="#000000">GPUCommonDef.h</text>
</a>
</g>
</g>
<!-- Node22&#45;&gt;Node24 -->
<g id="edge31" class="edge">
<title>Node22&#45;&gt;Node24</title>
<path fill="none" stroke="#191970" d="M251.9083,-184.9382C259.5062,-182.9222 267.5117,-180.8476 275,-179 345.3458,-161.6435 380.1974,-191.5289 434,-143 450.1579,-128.4259 456.2838,-103.4674 458.6007,-85.925"/>
<polygon fill="#191970" stroke="#191970" points="462.1157,-85.9534 459.6405,-75.6517 455.1512,-85.2485 462.1157,-85.9534"/>
</g>
<!-- Node27 -->
<g id="node28" class="node">
<title>Node27</title>
<g id="a_node28"><a xlink:href="../../d6/da2/GPUCommonMath_8h.html" target="_top" xlink:title="GPUCommonMath.h">
<polygon fill="none" stroke="#000000" points="310.5,-118 310.5,-137 425.5,-137 425.5,-118 310.5,-118"/>
<text text-anchor="middle" x="368" y="-125" font-family="Helvetica,sans-Serif" font-size="10.00" fill="#000000">GPUCommonMath.h</text>
</a>
</g>
</g>
<!-- Node22&#45;&gt;Node27 -->
<g id="edge34" class="edge">
<title>Node22&#45;&gt;Node27</title>
<path fill="none" stroke="#191970" d="M238.6346,-184.9005C264.4243,-173.4574 307.7106,-154.2509 337.0397,-141.2374"/>
<polygon fill="#191970" stroke="#191970" points="338.6844,-144.3367 346.4055,-137.0817 335.8454,-137.9383 338.6844,-144.3367"/>
</g>
<!-- Node29 -->
<g id="node30" class="node">
<title>Node29</title>
<g id="a_node30"><a xlink:href="../../d6/d84/MathConstants_8h.html" target="_top" xlink:title="useful math constants ">
<polygon fill="none" stroke="#000000" points="60,-118 60,-137 254,-137 254,-118 60,-118"/>
<text text-anchor="middle" x="157" y="-125" font-family="Helvetica,sans-Serif" font-size="10.00" fill="#000000">CommonConstants/MathConstants.h</text>
</a>
</g>
</g>
<!-- Node22&#45;&gt;Node29 -->
<g id="edge38" class="edge">
<title>Node22&#45;&gt;Node29</title>
<path fill="none" stroke="#191970" d="M208.4035,-184.9005C199.047,-174.4525 183.8948,-157.5325 172.4599,-144.7635"/>
<polygon fill="#191970" stroke="#191970" points="174.8592,-142.1963 165.5806,-137.0817 169.6445,-146.8661 174.8592,-142.1963"/>
</g>
<!-- Node25 -->
<g id="node26" class="node">
<title>Node25</title>
<g id="a_node26"><a xlink:href="../../d5/d93/GPUCommonDefSettings_8h.html" target="_top" xlink:title="GPUCommonDefSettings.h">
<polygon fill="none" stroke="#000000" points="309,-.5 309,-19.5 457,-19.5 457,-.5 309,-.5"/>
<text text-anchor="middle" x="383" y="-7.5" font-family="Helvetica,sans-Serif" font-size="10.00" fill="#000000">GPUCommonDefSettings.h</text>
</a>
</g>
</g>
<!-- Node24&#45;&gt;Node25 -->
<g id="edge32" class="edge">
<title>Node24&#45;&gt;Node25</title>
<path fill="none" stroke="#191970" d="M446.5876,-56.2455C434.9943,-47.814 418.0252,-35.4729 404.5322,-25.6598"/>
<polygon fill="#191970" stroke="#191970" points="406.4047,-22.6938 396.2587,-19.6427 402.2874,-28.355 406.4047,-22.6938"/>
</g>
<!-- Node26 -->
<g id="node27" class="node">
<title>Node26</title>
<g id="a_node27"><a xlink:href="../../da/d5a/GPUCommonDefAPI_8h.html" target="_top" xlink:title="GPUCommonDefAPI.h">
<polygon fill="none" stroke="#000000" points="475,-.5 475,-19.5 599,-19.5 599,-.5 475,-.5"/>
<text text-anchor="middle" x="537" y="-7.5" font-family="Helvetica,sans-Serif" font-size="10.00" fill="#000000">GPUCommonDefAPI.h</text>
</a>
</g>
</g>
<!-- Node24&#45;&gt;Node26 -->
<g id="edge33" class="edge">
<title>Node24&#45;&gt;Node26</title>
<path fill="none" stroke="#191970" d="M473.4124,-56.2455C485.0057,-47.814 501.9748,-35.4729 515.4678,-25.6598"/>
<polygon fill="#191970" stroke="#191970" points="517.7126,-28.355 523.7413,-19.6427 513.5953,-22.6938 517.7126,-28.355"/>
</g>
<!-- Node27&#45;&gt;Node23 -->
<g id="edge36" class="edge">
<title>Node27&#45;&gt;Node23</title>
<path fill="none" stroke="#191970" d="M354.5625,-117.8906C340.9305,-108.1421 319.6154,-92.8994 303.6078,-81.4521"/>
<polygon fill="#191970" stroke="#191970" points="305.5132,-78.5118 295.3431,-75.5419 301.4414,-84.2057 305.5132,-78.5118"/>
</g>
<!-- Node27&#45;&gt;Node24 -->
<g id="edge35" class="edge">
<title>Node27&#45;&gt;Node24</title>
<path fill="none" stroke="#191970" d="M382.375,-117.8906C397.0931,-108.0519 420.1832,-92.6167 437.3589,-81.1351"/>
<polygon fill="#191970" stroke="#191970" points="439.3575,-84.0091 445.7259,-75.5419 435.4673,-78.1896 439.3575,-84.0091"/>
</g>
<!-- Node28 -->
<g id="node29" class="node">
<title>Node28</title>
<polygon fill="none" stroke="#bfbfbf" points="324,-56.5 324,-75.5 388,-75.5 388,-56.5 324,-56.5"/>
<text text-anchor="middle" x="356" y="-63.5" font-family="Helvetica,sans-Serif" font-size="10.00" fill="#000000">algorithm</text>
</g>
<!-- Node27&#45;&gt;Node28 -->
<g id="edge37" class="edge">
<title>Node27&#45;&gt;Node28</title>
<path fill="none" stroke="#191970" d="M366.125,-117.8906C364.4441,-109.276 361.926,-96.3708 359.8216,-85.5858"/>
<polygon fill="#191970" stroke="#191970" points="363.2518,-84.8895 357.9014,-75.7449 356.3814,-86.2301 363.2518,-84.8895"/>
</g>
<!-- Node30&#45;&gt;Node3 -->
<g id="edge45" class="edge">
<title>Node30&#45;&gt;Node3</title>
<path fill="none" stroke="#191970" d="M988.4549,-255.295C865.9007,-243.8805 615.9263,-219.8235 577,-210 574.3705,-209.3364 571.6829,-208.5275 569.0126,-207.6312"/>
<polygon fill="#191970" stroke="#191970" points="570.145,-204.3181 559.5523,-204.1055 567.7004,-210.8774 570.145,-204.3181"/>
</g>
<!-- Node30&#45;&gt;Node5 -->
<g id="edge47" class="edge">
<title>Node30&#45;&gt;Node5</title>
<path fill="none" stroke="#191970" d="M1123.5893,-260.1915C1288.1478,-256.5041 1705.9887,-243.9888 1841,-210 1843.1979,-209.4467 1845.4291,-208.7557 1847.6437,-207.9749"/>
<polygon fill="#191970" stroke="#191970" points="1849.1504,-211.1405 1857.0905,-204.1257 1846.509,-204.6579 1849.1504,-211.1405"/>
</g>
<!-- Node31 -->
<g id="node32" class="node">
<title>Node31</title>
<polygon fill="none" stroke="#bfbfbf" points="1604,-179.5 1604,-209.5 1768,-209.5 1768,-179.5 1604,-179.5"/>
<text text-anchor="start" x="1612" y="-197.5" font-family="Helvetica,sans-Serif" font-size="10.00" fill="#000000">Math/GenVector/Displacement</text>
<text text-anchor="middle" x="1686" y="-186.5" font-family="Helvetica,sans-Serif" font-size="10.00" fill="#000000">Vector3D.h</text>
</g>
<!-- Node30&#45;&gt;Node31 -->
<g id="edge40" class="edge">
<title>Node30&#45;&gt;Node31</title>
<path fill="none" stroke="#191970" d="M1123.696,-256.5812C1223.9556,-248.9501 1418.0232,-232.8557 1593.8341,-209.9567"/>
<polygon fill="#191970" stroke="#191970" points="1594.3256,-213.4223 1603.7851,-208.6507 1593.4146,-206.4818 1594.3256,-213.4223"/>
</g>
<!-- Node32 -->
<g id="node33" class="node">
<title>Node32</title>
<polygon fill="none" stroke="#bfbfbf" points="586.5,-185 586.5,-204 775.5,-204 775.5,-185 586.5,-185"/>
<text text-anchor="middle" x="681" y="-192" font-family="Helvetica,sans-Serif" font-size="10.00" fill="#000000">Math/GenVector/PositionVector3D.h</text>
</g>
<!-- Node30&#45;&gt;Node32 -->
<g id="edge41" class="edge">
<title>Node30&#45;&gt;Node32</title>
<path fill="none" stroke="#191970" d="M1002.6699,-251.9717C934.5933,-239.8087 816.9635,-218.7921 744.3821,-205.8243"/>
<polygon fill="#191970" stroke="#191970" points="744.9091,-202.3631 734.4494,-204.0496 743.6779,-209.254 744.9091,-202.3631"/>
</g>
<!-- Node33 -->
<g id="node34" class="node">
<title>Node33</title>
<polygon fill="none" stroke="#bfbfbf" points="794,-185 794,-204 954,-204 954,-185 794,-185"/>
<text text-anchor="middle" x="874" y="-192" font-family="Helvetica,sans-Serif" font-size="10.00" fill="#000000">Math/GenVector/Rotation3D.h</text>
</g>
<!-- Node30&#45;&gt;Node33 -->
<g id="edge42" class="edge">
<title>Node30&#45;&gt;Node33</title>
<path fill="none" stroke="#191970" d="M1029.9238,-251.9005C998.2989,-240.2584 944.8456,-220.5805 909.4876,-207.5641"/>
<polygon fill="#191970" stroke="#191970" points="910.6213,-204.2519 900.0278,-204.0817 908.203,-210.8209 910.6213,-204.2519"/>
</g>
<!-- Node34 -->
<g id="node35" class="node">
<title>Node34</title>
<polygon fill="none" stroke="#bfbfbf" points="972,-185 972,-204 1140,-204 1140,-185 972,-185"/>
<text text-anchor="middle" x="1056" y="-192" font-family="Helvetica,sans-Serif" font-size="10.00" fill="#000000">Math/GenVector/Transform3D.h</text>
</g>
<!-- Node30&#45;&gt;Node34 -->
<g id="edge43" class="edge">
<title>Node30&#45;&gt;Node34</title>
<path fill="none" stroke="#191970" d="M1056,-251.9005C1056,-242.149 1056,-226.7597 1056,-214.3695"/>
<polygon fill="#191970" stroke="#191970" points="1059.5001,-214.0816 1056,-204.0817 1052.5001,-214.0817 1059.5001,-214.0816"/>
</g>
<!-- Node35 -->
<g id="node36" class="node">
<title>Node35</title>
<polygon fill="none" stroke="#bfbfbf" points="1158.5,-185 1158.5,-204 1331.5,-204 1331.5,-185 1158.5,-185"/>
<text text-anchor="middle" x="1245" y="-192" font-family="Helvetica,sans-Serif" font-size="10.00" fill="#000000">Math/GenVector/Translation3D.h</text>
</g>
<!-- Node30&#45;&gt;Node35 -->
<g id="edge44" class="edge">
<title>Node30&#45;&gt;Node35</title>
<path fill="none" stroke="#191970" d="M1083.0791,-251.9005C1115.9203,-240.2584 1171.4296,-220.5805 1208.1475,-207.5641"/>
<polygon fill="#191970" stroke="#191970" points="1209.7153,-210.7218 1217.9711,-204.0817 1207.3764,-204.1241 1209.7153,-210.7218"/>
</g>
<!-- Node36 -->
<g id="node37" class="node">
<title>Node36</title>
<polygon fill="none" stroke="#bfbfbf" points="1350,-185 1350,-204 1432,-204 1432,-185 1350,-185"/>
<text text-anchor="middle" x="1391" y="-192" font-family="Helvetica,sans-Serif" font-size="10.00" fill="#000000">TGeoMatrix.h</text>
</g>
<!-- Node30&#45;&gt;Node36 -->
<g id="edge46" class="edge">
<title>Node30&#45;&gt;Node36</title>
<path fill="none" stroke="#191970" d="M1120.4537,-251.9922C1178.3073,-242.9421 1265.3575,-228.0465 1340,-210 1343.8861,-209.0605 1347.913,-207.9966 1351.9226,-206.8771"/>
<polygon fill="#191970" stroke="#191970" points="1353.1366,-210.1692 1361.7636,-204.0189 1351.1842,-203.447 1353.1366,-210.1692"/>
</g>
<!-- Node37 -->
<g id="node38" class="node">
<title>Node37</title>
<g id="a_node38"><a xlink:href="../../d2/dd0/Cartesian2D_8h.html" target="_top" xlink:title="MathUtils/Cartesian2D.h">
<polygon fill="none" stroke="#000000" points="1450.5,-185 1450.5,-204 1585.5,-204 1585.5,-185 1450.5,-185"/>
<text text-anchor="middle" x="1518" y="-192" font-family="Helvetica,sans-Serif" font-size="10.00" fill="#000000">MathUtils/Cartesian2D.h</text>
</a>
</g>
</g>
<!-- Node30&#45;&gt;Node37 -->
<g id="edge48" class="edge">
<title>Node30&#45;&gt;Node37</title>
<path fill="none" stroke="#191970" d="M1123.6622,-253.8127C1200.7102,-244.7429 1330.2596,-228.5321 1441,-210 1448.2121,-208.7931 1455.7814,-207.4117 1463.2418,-205.9818"/>
<polygon fill="#191970" stroke="#191970" points="1464.1616,-209.3683 1473.3038,-204.0139 1462.8179,-202.4985 1464.1616,-209.3683"/>
</g>
<!-- Node38 -->
<g id="node39" class="node">
<title>Node38</title>
<polygon fill="none" stroke="#bfbfbf" points="1533,-112.5 1533,-142.5 1697,-142.5 1697,-112.5 1533,-112.5"/>
<text text-anchor="start" x="1541" y="-130.5" font-family="Helvetica,sans-Serif" font-size="10.00" fill="#000000">Math/GenVector/Displacement</text>
<text text-anchor="middle" x="1615" y="-119.5" font-family="Helvetica,sans-Serif" font-size="10.00" fill="#000000">Vector2D.h</text>
</g>
<!-- Node37&#45;&gt;Node38 -->
<g id="edge49" class="edge">
<title>Node37&#45;&gt;Node38</title>
<path fill="none" stroke="#191970" d="M1531.8977,-184.9005C1545.6735,-175.3853 1567.2205,-160.5023 1584.9221,-148.2755"/>
<polygon fill="#191970" stroke="#191970" points="1587.0132,-151.0849 1593.2521,-142.5218 1583.0349,-145.3253 1587.0132,-151.0849"/>
</g>
<!-- Node39 -->
<g id="node40" class="node">
<title>Node39</title>
<polygon fill="none" stroke="#bfbfbf" points="1325.5,-118 1325.5,-137 1514.5,-137 1514.5,-118 1325.5,-118"/>
<text text-anchor="middle" x="1420" y="-125" font-family="Helvetica,sans-Serif" font-size="10.00" fill="#000000">Math/GenVector/PositionVector2D.h</text>
</g>
<!-- Node37&#45;&gt;Node39 -->
<g id="edge50" class="edge">
<title>Node37&#45;&gt;Node39</title>
<path fill="none" stroke="#191970" d="M1503.959,-184.9005C1487.8762,-173.9052 1461.3094,-155.7422 1442.3684,-142.7927"/>
<polygon fill="#191970" stroke="#191970" points="1444.2455,-139.8362 1434.015,-137.0817 1440.2948,-145.6148 1444.2455,-139.8362"/>
</g>
</g>
</svg>
        <g id="navigator" transform="translate(0 0)" fill="#404254">
                <rect fill="#f2f5e9" fill-opacity="0.5" stroke="#606060" stroke-width=".5" x="0" y="0" width="60" height="60"/>
                <use id="zoomplus" xlink:href="#zoomPlus" x="17" y="9" onmousedown="handleZoom(evt,'in')"/>
                <use id="zoomminus" xlink:href="#zoomMin" x="42" y="9" onmousedown="handleZoom(evt,'out')"/>
                <use id="reset" xlink:href="#resetDef" x="30" y="36" onmousedown="handleReset()"/>
                <g id="arrowUp" xlink:href="#dirArrow" transform="translate(30 24)" onmousedown="handlePan(0,-1)">
                  <use xlink:href="#rim" fill="#404040">
                        <set attributeName="fill" to="#808080" begin="arrowUp.mouseover" end="arrowUp.mouseout"/>
                  </use>
                  <path fill="none" stroke="white" stroke-width="1.5" d="M0,-3.0v7 M-2.5,-0.5L0,-3.0L2.5,-0.5"/>
                </g>
                <g id="arrowRight" xlink:href="#dirArrow" transform="rotate(90) translate(36 -43)" onmousedown="handlePan(1,0)">
                  <use xlink:href="#rim" fill="#404040">
                        <set attributeName="fill" to="#808080" begin="arrowRight.mouseover" end="arrowRight.mouseout"/>
                  </use>
                  <path fill="none" stroke="white" stroke-width="1.5" d="M0,-3.0v7 M-2.5,-0.5L0,-3.0L2.5,-0.5"/>
                </g>
                <g id="arrowDown" xlink:href="#dirArrow" transform="rotate(180) translate(-30 -48)" onmousedown="handlePan(0,1)">
                  <use xlink:href="#rim" fill="#404040">
                        <set attributeName="fill" to="#808080" begin="arrowDown.mouseover" end="arrowDown.mouseout"/>
                  </use>
                  <path fill="none" stroke="white" stroke-width="1.5" d="M0,-3.0v7 M-2.5,-0.5L0,-3.0L2.5,-0.5"/>
                </g>
                <g id="arrowLeft" xlink:href="#dirArrow" transform="rotate(270) translate(-36 17)" onmousedown="handlePan(-1,0)">
                  <use xlink:href="#rim" fill="#404040">
                        <set attributeName="fill" to="#808080" begin="arrowLeft.mouseover" end="arrowLeft.mouseout"/>
                  </use>
                  <path fill="none" stroke="white" stroke-width="1.5" d="M0,-3.0v7 M-2.5,-0.5L0,-3.0L2.5,-0.5"/>
                </g>
        </g>
        <svg viewBox="0 0 15 15" width="100%" height="30px" preserveAspectRatio="xMaxYMin meet">
         <g id="arrow_out" transform="scale(0.3 0.3)">
          <a xlink:href="ClusterTopology_8cxx__incl_org.svg" target="_base">
           <rect id="button" ry="5" rx="5" y="6" x="6" height="38" width="38"
                fill="#f2f5e9" fill-opacity="0.5" stroke="#606060" stroke-width="1.0"/>
           <path id="arrow"
             d="M 11.500037,31.436501 C 11.940474,20.09759 22.043105,11.32322 32.158766,21.979434 L 37.068811,17.246167 C 37.068811,17.246167 37.088388,32 37.088388,32 L 22.160133,31.978069 C 22.160133,31.978069 26.997745,27.140456 26.997745,27.140456 C 18.528582,18.264221 13.291696,25.230495 11.500037,31.436501 z"
             style="fill:#404040;"/>
          </a>
         </g>
        </svg>
</svg>
