<?xml version="1.0" encoding="UTF-8" standalone="no"?>
<!DOCTYPE svg PUBLIC "-//W3C//DTD SVG 1.1//EN"
 "http://www.w3.org/Graphics/SVG/1.1/DTD/svg11.dtd">
<!-- Generated by graphviz version 2.40.1 (20161225.0304)
 -->
<!-- Title: /home/travis/build/AliceO2Group/AliceO2/Framework/Core/src/TableBuilder.cxx Pages: 1 -->
<svg width="1935pt" height="330pt"
 viewBox="0.00 0.00 1935.00 330.00" xmlns="http://www.w3.org/2000/svg" xmlns:xlink="http://www.w3.org/1999/xlink">
<g id="graph0" class="graph" transform="scale(1 1) rotate(0) translate(4 326)">
<title>/home/travis/build/AliceO2Group/AliceO2/Framework/Core/src/TableBuilder.cxx</title>
<!-- Node0 -->
<g id="node1" class="node">
<title>Node0</title>
<polygon fill="#bfbfbf" stroke="#000000" points="1302.5,-280.5 1302.5,-321.5 1501.5,-321.5 1501.5,-280.5 1302.5,-280.5"/>
<text text-anchor="start" x="1310.5" y="-309.5" font-family="Helvetica,sans-Serif" font-size="10.00" fill="#000000">/home/travis/build</text>
<text text-anchor="start" x="1310.5" y="-298.5" font-family="Helvetica,sans-Serif" font-size="10.00" fill="#000000">/AliceO2Group/AliceO2</text>
<text text-anchor="middle" x="1402" y="-287.5" font-family="Helvetica,sans-Serif" font-size="10.00" fill="#000000">/Framework/Core/src/TableBuilder.cxx</text>
</g>
<!-- Node1 -->
<g id="node2" class="node">
<title>Node1</title>
<g id="a_node2"><a xlink:href="../../d5/d98/TableBuilder_8h.html" target="_top" xlink:title="Framework/TableBuilder.h">
<polygon fill="none" stroke="#000000" points="348,-224.5 348,-243.5 490,-243.5 490,-224.5 348,-224.5"/>
<text text-anchor="middle" x="419" y="-231.5" font-family="Helvetica,sans-Serif" font-size="10.00" fill="#000000">Framework/TableBuilder.h</text>
</a>
</g>
</g>
<!-- Node0&#45;&gt;Node1 -->
<g id="edge1" class="edge">
<title>Node0&#45;&gt;Node1</title>
<path fill="none" stroke="#191970" d="M1302.3351,-294.207C1107.4615,-280.9246 679.3829,-251.7474 500.2939,-239.5409"/>
<polygon fill="#191970" stroke="#191970" points="500.364,-236.0376 490.1492,-238.8494 499.888,-243.0214 500.364,-236.0376"/>
</g>
<!-- Node11 -->
<g id="node12" class="node">
<title>Node11</title>
<polygon fill="none" stroke="#bfbfbf" points="114.5,-56.5 114.5,-75.5 195.5,-75.5 195.5,-56.5 114.5,-56.5"/>
<text text-anchor="middle" x="155" y="-63.5" font-family="Helvetica,sans-Serif" font-size="10.00" fill="#000000">arrow/table.h</text>
</g>
<!-- Node0&#45;&gt;Node11 -->
<g id="edge49" class="edge">
<title>Node0&#45;&gt;Node11</title>
<path fill="none" stroke="#191970" d="M1302.4825,-298.7731C1074.9411,-293.1774 522.2086,-276.5884 339,-244 255.6765,-229.1788 213.0906,-251.3744 157,-188 132.0743,-159.8374 140.7592,-112.06 148.4243,-85.4191"/>
<polygon fill="#191970" stroke="#191970" points="151.8137,-86.3061 151.4438,-75.7178 145.13,-84.2258 151.8137,-86.3061"/>
</g>
<!-- Node17 -->
<g id="node18" class="node">
<title>Node17</title>
<polygon fill="none" stroke="#bfbfbf" points="0,-56.5 0,-75.5 58,-75.5 58,-56.5 0,-56.5"/>
<text text-anchor="middle" x="29" y="-63.5" font-family="Helvetica,sans-Serif" font-size="10.00" fill="#000000">memory</text>
</g>
<!-- Node0&#45;&gt;Node17 -->
<g id="edge45" class="edge">
<title>Node0&#45;&gt;Node17</title>
<path fill="none" stroke="#191970" d="M1302.3857,-299.4988C1032.8783,-294.9838 302.7114,-279.5852 200,-244 119.0098,-215.9403 89.9791,-203.6919 43,-132 33.9829,-118.2396 30.646,-99.7116 29.4708,-85.7895"/>
<polygon fill="#191970" stroke="#191970" points="32.9649,-85.5848 28.9244,-75.7907 25.9753,-85.9668 32.9649,-85.5848"/>
</g>
<!-- Node20 -->
<g id="node21" class="node">
<title>Node20</title>
<polygon fill="none" stroke="#bfbfbf" points="1841,-56.5 1841,-75.5 1927,-75.5 1927,-56.5 1841,-56.5"/>
<text text-anchor="middle" x="1884" y="-63.5" font-family="Helvetica,sans-Serif" font-size="10.00" fill="#000000">arrow/status.h</text>
</g>
<!-- Node0&#45;&gt;Node20 -->
<g id="edge51" class="edge">
<title>Node0&#45;&gt;Node20</title>
<path fill="none" stroke="#191970" d="M1436.486,-280.3746C1463.7096,-264.3621 1502.8342,-241.9415 1538,-224 1651.3915,-166.1478 1790.2012,-105.8333 1851.8547,-79.5677"/>
<polygon fill="#191970" stroke="#191970" points="1853.5822,-82.6366 1861.4165,-75.5039 1850.8441,-76.1943 1853.5822,-82.6366"/>
</g>
<!-- Node28 -->
<g id="node29" class="node">
<title>Node28</title>
<polygon fill="none" stroke="#bfbfbf" points="1274.5,-168.5 1274.5,-187.5 1383.5,-187.5 1383.5,-168.5 1274.5,-168.5"/>
<text text-anchor="middle" x="1329" y="-175.5" font-family="Helvetica,sans-Serif" font-size="10.00" fill="#000000">arrow/type_traits.h</text>
</g>
<!-- Node0&#45;&gt;Node28 -->
<g id="edge50" class="edge">
<title>Node0&#45;&gt;Node28</title>
<path fill="none" stroke="#191970" d="M1389.7814,-280.4126C1375.851,-256.9408 1353.2847,-218.918 1339.9199,-196.3993"/>
<polygon fill="#191970" stroke="#191970" points="1342.7626,-194.3313 1334.649,-187.5182 1336.743,-197.904 1342.7626,-194.3313"/>
</g>
<!-- Node29 -->
<g id="node30" class="node">
<title>Node29</title>
<polygon fill="none" stroke="#bfbfbf" points="1401.5,-168.5 1401.5,-187.5 1490.5,-187.5 1490.5,-168.5 1401.5,-168.5"/>
<text text-anchor="middle" x="1446" y="-175.5" font-family="Helvetica,sans-Serif" font-size="10.00" fill="#000000">arrow/builder.h</text>
</g>
<!-- Node0&#45;&gt;Node29 -->
<g id="edge46" class="edge">
<title>Node0&#45;&gt;Node29</title>
<path fill="none" stroke="#191970" d="M1409.3646,-280.4126C1417.6857,-257.1513 1431.1191,-219.5989 1439.2001,-197.0089"/>
<polygon fill="#191970" stroke="#191970" points="1442.5223,-198.1128 1442.5951,-187.5182 1435.9314,-195.755 1442.5223,-198.1128"/>
</g>
<!-- Node32 -->
<g id="node33" class="node">
<title>Node32</title>
<polygon fill="none" stroke="#bfbfbf" points="1547,-224.5 1547,-243.5 1671,-243.5 1671,-224.5 1547,-224.5"/>
<text text-anchor="middle" x="1609" y="-231.5" font-family="Helvetica,sans-Serif" font-size="10.00" fill="#000000">arrow/memory_pool.h</text>
</g>
<!-- Node0&#45;&gt;Node32 -->
<g id="edge47" class="edge">
<title>Node0&#45;&gt;Node32</title>
<path fill="none" stroke="#191970" d="M1465.5136,-280.4425C1499.5329,-269.4314 1540.363,-256.2158 1569.7548,-246.7026"/>
<polygon fill="#191970" stroke="#191970" points="1571.2078,-249.9111 1579.6441,-243.5017 1569.0522,-243.2513 1571.2078,-249.9111"/>
</g>
<!-- Node33 -->
<g id="node34" class="node">
<title>Node33</title>
<polygon fill="none" stroke="#bfbfbf" points="1689.5,-224.5 1689.5,-243.5 1808.5,-243.5 1808.5,-224.5 1689.5,-224.5"/>
<text text-anchor="middle" x="1749" y="-231.5" font-family="Helvetica,sans-Serif" font-size="10.00" fill="#000000">arrow/record_batch.h</text>
</g>
<!-- Node0&#45;&gt;Node33 -->
<g id="edge48" class="edge">
<title>Node0&#45;&gt;Node33</title>
<path fill="none" stroke="#191970" d="M1501.9012,-281.7107C1562.7169,-269.9682 1638.3421,-255.3662 1689.8003,-245.4305"/>
<polygon fill="#191970" stroke="#191970" points="1690.6031,-248.8402 1699.7582,-243.5078 1689.276,-241.9672 1690.6031,-248.8402"/>
</g>
<!-- Node2 -->
<g id="node3" class="node">
<title>Node2</title>
<g id="a_node3"><a xlink:href="../../de/d33/ASoA_8h.html" target="_top" xlink:title="Framework/ASoA.h">
<polygon fill="none" stroke="#000000" points="820,-168.5 820,-187.5 928,-187.5 928,-168.5 820,-168.5"/>
<text text-anchor="middle" x="874" y="-175.5" font-family="Helvetica,sans-Serif" font-size="10.00" fill="#000000">Framework/ASoA.h</text>
</a>
</g>
</g>
<!-- Node1&#45;&gt;Node2 -->
<g id="edge2" class="edge">
<title>Node1&#45;&gt;Node2</title>
<path fill="none" stroke="#191970" d="M490.0938,-225.25C577.7579,-214.4606 725.4758,-196.2799 809.8291,-185.898"/>
<polygon fill="#191970" stroke="#191970" points="810.2962,-189.367 819.7937,-184.6715 809.441,-182.4194 810.2962,-189.367"/>
</g>
<!-- Node3 -->
<g id="node4" class="node">
<title>Node3</title>
<g id="a_node4"><a xlink:href="../../de/d9b/FunctionalHelpers_8h.html" target="_top" xlink:title="Framework/FunctionalHelpers.h">
<polygon fill="none" stroke="#000000" points="214,-56.5 214,-75.5 384,-75.5 384,-56.5 214,-56.5"/>
<text text-anchor="middle" x="299" y="-63.5" font-family="Helvetica,sans-Serif" font-size="10.00" fill="#000000">Framework/FunctionalHelpers.h</text>
</a>
</g>
</g>
<!-- Node1&#45;&gt;Node3 -->
<g id="edge34" class="edge">
<title>Node1&#45;&gt;Node3</title>
<path fill="none" stroke="#191970" d="M417.5868,-224.4589C415.2889,-211.0814 409.8631,-186.3353 399,-168 378.0396,-132.6222 342.278,-100.281 319.683,-81.8851"/>
<polygon fill="#191970" stroke="#191970" points="321.727,-79.0384 311.7263,-75.5403 317.3627,-84.5114 321.727,-79.0384"/>
</g>
<!-- Node4 -->
<g id="node5" class="node">
<title>Node4</title>
<polygon fill="none" stroke="#bfbfbf" points="159.5,-.5 159.5,-19.5 224.5,-19.5 224.5,-.5 159.5,-.5"/>
<text text-anchor="middle" x="192" y="-7.5" font-family="Helvetica,sans-Serif" font-size="10.00" fill="#000000">functional</text>
</g>
<!-- Node1&#45;&gt;Node4 -->
<g id="edge40" class="edge">
<title>Node1&#45;&gt;Node4</title>
<path fill="none" stroke="#191970" d="M347.8324,-228.8822C280.7258,-222.77 186.2088,-210.4343 157,-188 106.9932,-149.5914 72.4617,-110.0107 105,-56 114.8023,-39.729 132.4998,-28.9146 149.3858,-21.8863"/>
<polygon fill="#191970" stroke="#191970" points="151.0614,-24.994 159.1685,-18.1729 148.5773,-18.4496 151.0614,-24.994"/>
</g>
<!-- Node1&#45;&gt;Node11 -->
<g id="edge38" class="edge">
<title>Node1&#45;&gt;Node11</title>
<path fill="none" stroke="#191970" d="M347.7236,-229.6007C284.1606,-224.1304 197.6086,-212.3544 174,-188 147.4984,-160.6612 148.6259,-112.5265 151.8002,-85.6159"/>
<polygon fill="#191970" stroke="#191970" points="155.2955,-85.8925 153.2114,-75.5047 148.3627,-84.9249 155.2955,-85.8925"/>
</g>
<!-- Node16 -->
<g id="node17" class="node">
<title>Node16</title>
<polygon fill="none" stroke="#bfbfbf" points="1651,-56.5 1651,-75.5 1695,-75.5 1695,-56.5 1651,-56.5"/>
<text text-anchor="middle" x="1673" y="-63.5" font-family="Helvetica,sans-Serif" font-size="10.00" fill="#000000">string</text>
</g>
<!-- Node1&#45;&gt;Node16 -->
<g id="edge42" class="edge">
<title>Node1&#45;&gt;Node16</title>
<path fill="none" stroke="#191970" d="M490.2355,-230.78C655.5086,-222.4388 1077.3791,-196.137 1424,-132 1435.1669,-129.9337 1595.9564,-88.2976 1640.8964,-76.0981"/>
<polygon fill="#191970" stroke="#191970" points="1642.0019,-79.4235 1650.6986,-73.3723 1640.1265,-72.6794 1642.0019,-79.4235"/>
</g>
<!-- Node1&#45;&gt;Node17 -->
<g id="edge43" class="edge">
<title>Node1&#45;&gt;Node17</title>
<path fill="none" stroke="#191970" d="M347.8495,-230.6366C267.2598,-225.6312 142.0547,-213.8709 103,-188 65.8068,-163.3622 44.3212,-113.0116 34.8498,-85.3189"/>
<polygon fill="#191970" stroke="#191970" points="38.114,-84.0378 31.7044,-75.6017 31.4542,-86.1936 38.114,-84.0378"/>
</g>
<!-- Node26 -->
<g id="node27" class="node">
<title>Node26</title>
<polygon fill="none" stroke="#bfbfbf" points="183,-168.5 183,-187.5 239,-187.5 239,-168.5 183,-168.5"/>
<text text-anchor="middle" x="211" y="-175.5" font-family="Helvetica,sans-Serif" font-size="10.00" fill="#000000">sstream</text>
</g>
<!-- Node1&#45;&gt;Node26 -->
<g id="edge35" class="edge">
<title>Node1&#45;&gt;Node26</title>
<path fill="none" stroke="#191970" d="M383.6266,-224.4974C351.0706,-215.7487 301.1768,-202.3337 249.0386,-188.2781"/>
<polygon fill="#191970" stroke="#191970" points="249.8472,-184.8712 239.2808,-185.6471 248.0248,-191.6298 249.8472,-184.8712"/>
</g>
<!-- Node27 -->
<g id="node28" class="node">
<title>Node27</title>
<polygon fill="none" stroke="#bfbfbf" points="257,-168.5 257,-187.5 325,-187.5 325,-168.5 257,-168.5"/>
<text text-anchor="middle" x="291" y="-175.5" font-family="Helvetica,sans-Serif" font-size="10.00" fill="#000000">arrow/stl.h</text>
</g>
<!-- Node1&#45;&gt;Node27 -->
<g id="edge36" class="edge">
<title>Node1&#45;&gt;Node27</title>
<path fill="none" stroke="#191970" d="M396.996,-224.3733C376.3565,-215.3435 345.2842,-201.7494 322.1111,-191.6111"/>
<polygon fill="#191970" stroke="#191970" points="323.2813,-188.3028 312.7169,-187.5011 320.4755,-194.7159 323.2813,-188.3028"/>
</g>
<!-- Node1&#45;&gt;Node28 -->
<g id="edge37" class="edge">
<title>Node1&#45;&gt;Node28</title>
<path fill="none" stroke="#191970" d="M490.0485,-232.2546C635.0803,-228.22 975.5376,-216.3357 1260,-188 1261.4679,-187.8538 1262.9525,-187.6988 1264.4488,-187.5363"/>
<polygon fill="#191970" stroke="#191970" points="1264.917,-191.0054 1274.4419,-186.3658 1264.1026,-184.053 1264.917,-191.0054"/>
</g>
<!-- Node1&#45;&gt;Node29 -->
<g id="edge39" class="edge">
<title>Node1&#45;&gt;Node29</title>
<path fill="none" stroke="#191970" d="M490.0944,-231.93C680.39,-226.1874 1199.3614,-209.1494 1391.2648,-188.0347"/>
<polygon fill="#191970" stroke="#191970" points="1391.7084,-191.5069 1401.2479,-186.8974 1390.916,-184.5519 1391.7084,-191.5069"/>
</g>
<!-- Node30 -->
<g id="node31" class="node">
<title>Node30</title>
<polygon fill="none" stroke="#bfbfbf" points="343.5,-168.5 343.5,-187.5 390.5,-187.5 390.5,-168.5 343.5,-168.5"/>
<text text-anchor="middle" x="367" y="-175.5" font-family="Helvetica,sans-Serif" font-size="10.00" fill="#000000">vector</text>
</g>
<!-- Node1&#45;&gt;Node30 -->
<g id="edge41" class="edge">
<title>Node1&#45;&gt;Node30</title>
<path fill="none" stroke="#191970" d="M409.9423,-224.2455C402.4858,-216.2155 391.7366,-204.6394 382.8583,-195.0781"/>
<polygon fill="#191970" stroke="#191970" points="385.3232,-192.589 375.9539,-187.6427 380.1937,-197.3522 385.3232,-192.589"/>
</g>
<!-- Node31 -->
<g id="node32" class="node">
<title>Node31</title>
<polygon fill="none" stroke="#bfbfbf" points="447.5,-168.5 447.5,-187.5 488.5,-187.5 488.5,-168.5 447.5,-168.5"/>
<text text-anchor="middle" x="468" y="-175.5" font-family="Helvetica,sans-Serif" font-size="10.00" fill="#000000">tuple</text>
</g>
<!-- Node1&#45;&gt;Node31 -->
<g id="edge44" class="edge">
<title>Node1&#45;&gt;Node31</title>
<path fill="none" stroke="#191970" d="M427.5351,-224.2455C434.4912,-216.2958 444.4883,-204.8706 452.8051,-195.3656"/>
<polygon fill="#191970" stroke="#191970" points="455.6116,-197.4732 459.5627,-187.6427 450.3436,-192.8637 455.6116,-197.4732"/>
</g>
<!-- Node2&#45;&gt;Node3 -->
<g id="edge3" class="edge">
<title>Node2&#45;&gt;Node3</title>
<path fill="none" stroke="#191970" d="M819.9211,-173.991C725.6907,-166.6456 535.3092,-150.1102 471,-132 450.712,-126.2866 447.5029,-119.9927 428,-112 398.1858,-99.7815 363.7892,-87.6092 338.0155,-78.8578"/>
<polygon fill="#191970" stroke="#191970" points="338.8325,-75.4398 328.2384,-75.5615 336.5961,-82.0729 338.8325,-75.4398"/>
</g>
<!-- Node5 -->
<g id="node6" class="node">
<title>Node5</title>
<g id="a_node6"><a xlink:href="../../d9/de8/CompilerBuiltins_8h.html" target="_top" xlink:title="Framework/CompilerBuiltins.h">
<polygon fill="none" stroke="#000000" points="1037,-56.5 1037,-75.5 1201,-75.5 1201,-56.5 1037,-56.5"/>
<text text-anchor="middle" x="1119" y="-63.5" font-family="Helvetica,sans-Serif" font-size="10.00" fill="#000000">Framework/CompilerBuiltins.h</text>
</a>
</g>
</g>
<!-- Node2&#45;&gt;Node5 -->
<g id="edge5" class="edge">
<title>Node2&#45;&gt;Node5</title>
<path fill="none" stroke="#191970" d="M890.3064,-168.4453C917.701,-152.4673 971.9326,-121.1727 992,-112 1020.3369,-99.0473 1053.4688,-87.149 1078.7856,-78.6995"/>
<polygon fill="#191970" stroke="#191970" points="1080.0231,-81.9769 1088.425,-75.5226 1077.8319,-75.3287 1080.0231,-81.9769"/>
</g>
<!-- Node6 -->
<g id="node7" class="node">
<title>Node6</title>
<g id="a_node7"><a xlink:href="../../db/d31/Traits_8h.html" target="_top" xlink:title="Framework/Traits.h">
<polygon fill="none" stroke="#000000" points="480.5,-112.5 480.5,-131.5 589.5,-131.5 589.5,-112.5 480.5,-112.5"/>
<text text-anchor="middle" x="535" y="-119.5" font-family="Helvetica,sans-Serif" font-size="10.00" fill="#000000">Framework/Traits.h</text>
</a>
</g>
</g>
<!-- Node2&#45;&gt;Node6 -->
<g id="edge6" class="edge">
<title>Node2&#45;&gt;Node6</title>
<path fill="none" stroke="#191970" d="M819.9096,-169.0647C760.024,-159.1721 663.5356,-143.233 599.6953,-132.6871"/>
<polygon fill="#191970" stroke="#191970" points="600.177,-129.2193 589.7402,-131.0426 599.0361,-136.1257 600.177,-129.2193"/>
</g>
<!-- Node8 -->
<g id="node9" class="node">
<title>Node8</title>
<g id="a_node9"><a xlink:href="../../d0/d91/Expressions_8h.html" target="_top" xlink:title="Framework/Expressions.h">
<polygon fill="none" stroke="#000000" points="803.5,-112.5 803.5,-131.5 944.5,-131.5 944.5,-112.5 803.5,-112.5"/>
<text text-anchor="middle" x="874" y="-119.5" font-family="Helvetica,sans-Serif" font-size="10.00" fill="#000000">Framework/Expressions.h</text>
</a>
</g>
</g>
<!-- Node2&#45;&gt;Node8 -->
<g id="edge8" class="edge">
<title>Node2&#45;&gt;Node8</title>
<path fill="none" stroke="#191970" d="M874,-168.2455C874,-160.9382 874,-150.6944 874,-141.7046"/>
<polygon fill="#191970" stroke="#191970" points="877.5001,-141.6426 874,-131.6427 870.5001,-141.6427 877.5001,-141.6426"/>
</g>
<!-- Node2&#45;&gt;Node11 -->
<g id="edge27" class="edge">
<title>Node2&#45;&gt;Node11</title>
<path fill="none" stroke="#191970" d="M819.9872,-174.9078C735.1759,-169.5077 565.8054,-156.5221 424,-132 342.9839,-117.9901 250.1923,-93.2531 197.4944,-78.3676"/>
<polygon fill="#191970" stroke="#191970" points="198.3948,-74.985 187.8189,-75.6179 196.4811,-81.7184 198.3948,-74.985"/>
</g>
<!-- Node12 -->
<g id="node13" class="node">
<title>Node12</title>
<polygon fill="none" stroke="#bfbfbf" points="489.5,-56.5 489.5,-75.5 636.5,-75.5 636.5,-56.5 489.5,-56.5"/>
<text text-anchor="middle" x="563" y="-63.5" font-family="Helvetica,sans-Serif" font-size="10.00" fill="#000000">gandiva/selection_vector.h</text>
</g>
<!-- Node2&#45;&gt;Node12 -->
<g id="edge32" class="edge">
<title>Node2&#45;&gt;Node12</title>
<path fill="none" stroke="#191970" d="M857.388,-168.4579C827.2221,-151.1794 765.5692,-116.1088 755,-112 714.9932,-96.4475 668.1839,-85.1035 630.8002,-77.5721"/>
<polygon fill="#191970" stroke="#191970" points="631.0072,-74.0457 620.5195,-75.5486 629.6553,-80.914 631.0072,-74.0457"/>
</g>
<!-- Node18 -->
<g id="node19" class="node">
<title>Node18</title>
<g id="a_node19"><a xlink:href="../../d0/d92/Kernels_8h.html" target="_top" xlink:title="Framework/Kernels.h">
<polygon fill="none" stroke="#000000" points="1197.5,-112.5 1197.5,-131.5 1316.5,-131.5 1316.5,-112.5 1197.5,-112.5"/>
<text text-anchor="middle" x="1257" y="-119.5" font-family="Helvetica,sans-Serif" font-size="10.00" fill="#000000">Framework/Kernels.h</text>
</a>
</g>
</g>
<!-- Node2&#45;&gt;Node18 -->
<g id="edge20" class="edge">
<title>Node2&#45;&gt;Node18</title>
<path fill="none" stroke="#191970" d="M928.0622,-170.0953C995.9069,-160.1755 1112.3949,-143.1433 1186.9896,-132.2365"/>
<polygon fill="#191970" stroke="#191970" points="1187.8393,-135.6496 1197.2277,-130.7395 1186.8265,-128.7232 1187.8393,-135.6496"/>
</g>
<!-- Node19 -->
<g id="node20" class="node">
<title>Node19</title>
<polygon fill="none" stroke="#bfbfbf" points="1365.5,-56.5 1365.5,-75.5 1498.5,-75.5 1498.5,-56.5 1365.5,-56.5"/>
<text text-anchor="middle" x="1432" y="-63.5" font-family="Helvetica,sans-Serif" font-size="10.00" fill="#000000">arrow/compute/kernel.h</text>
</g>
<!-- Node2&#45;&gt;Node19 -->
<g id="edge31" class="edge">
<title>Node2&#45;&gt;Node19</title>
<path fill="none" stroke="#191970" d="M917.8835,-168.4747C978.5347,-155.3787 1091.4409,-131.2476 1188,-112 1249.6993,-99.7012 1320.3523,-86.4748 1369.6969,-77.3758"/>
<polygon fill="#191970" stroke="#191970" points="1370.3814,-80.8087 1379.5822,-75.5557 1369.1137,-73.9245 1370.3814,-80.8087"/>
</g>
<!-- Node22 -->
<g id="node23" class="node">
<title>Node22</title>
<polygon fill="none" stroke="#bfbfbf" points="1713,-56.5 1713,-75.5 1823,-75.5 1823,-56.5 1713,-56.5"/>
<text text-anchor="middle" x="1768" y="-63.5" font-family="Helvetica,sans-Serif" font-size="10.00" fill="#000000">arrow/util/variant.h</text>
</g>
<!-- Node2&#45;&gt;Node22 -->
<g id="edge29" class="edge">
<title>Node2&#45;&gt;Node22</title>
<path fill="none" stroke="#191970" d="M928.2162,-176.3158C1027.2674,-172.6079 1243.8762,-161.578 1424,-132 1460.5911,-125.9914 1468.7151,-119.6433 1505,-112 1541.7575,-104.2571 1637.3927,-87.8798 1702.6182,-76.9051"/>
<polygon fill="#191970" stroke="#191970" points="1703.53,-80.301 1712.8117,-75.1922 1702.37,-73.3978 1703.53,-80.301"/>
</g>
<!-- Node23 -->
<g id="node24" class="node">
<title>Node23</title>
<polygon fill="none" stroke="#bfbfbf" points="1335,-112.5 1335,-131.5 1415,-131.5 1415,-112.5 1335,-112.5"/>
<text text-anchor="middle" x="1375" y="-119.5" font-family="Helvetica,sans-Serif" font-size="10.00" fill="#000000">arrow/array.h</text>
</g>
<!-- Node2&#45;&gt;Node23 -->
<g id="edge28" class="edge">
<title>Node2&#45;&gt;Node23</title>
<path fill="none" stroke="#191970" d="M928.0124,-174.1719C1012.8502,-167.7812 1182.3826,-153.4845 1325,-132 1325.1012,-131.9848 1325.2025,-131.9694 1325.304,-131.9541"/>
<polygon fill="#191970" stroke="#191970" points="1325.6462,-135.445 1334.9423,-130.3625 1324.5057,-128.5386 1325.6462,-135.445"/>
</g>
<!-- Node24 -->
<g id="node25" class="node">
<title>Node24</title>
<polygon fill="none" stroke="#bfbfbf" points="607.5,-112.5 607.5,-131.5 746.5,-131.5 746.5,-112.5 607.5,-112.5"/>
<text text-anchor="middle" x="677" y="-119.5" font-family="Helvetica,sans-Serif" font-size="10.00" fill="#000000">arrow/compute/context.h</text>
</g>
<!-- Node2&#45;&gt;Node24 -->
<g id="edge30" class="edge">
<title>Node2&#45;&gt;Node24</title>
<path fill="none" stroke="#191970" d="M840.1345,-168.3733C806.951,-158.9404 756.245,-144.5265 720.1806,-134.2747"/>
<polygon fill="#191970" stroke="#191970" points="720.9995,-130.8689 710.4236,-131.5011 719.0855,-137.6021 720.9995,-130.8689"/>
</g>
<!-- Node25 -->
<g id="node26" class="node">
<title>Node25</title>
<polygon fill="none" stroke="#bfbfbf" points="1001,-112.5 1001,-131.5 1053,-131.5 1053,-112.5 1001,-112.5"/>
<text text-anchor="middle" x="1027" y="-119.5" font-family="Helvetica,sans-Serif" font-size="10.00" fill="#000000">cassert</text>
</g>
<!-- Node2&#45;&gt;Node25 -->
<g id="edge33" class="edge">
<title>Node2&#45;&gt;Node25</title>
<path fill="none" stroke="#191970" d="M900.3016,-168.3733C925.4128,-159.1822 963.4438,-145.2624 991.2872,-135.0713"/>
<polygon fill="#191970" stroke="#191970" points="992.8538,-138.2251 1001.0416,-131.5011 990.4478,-131.6516 992.8538,-138.2251"/>
</g>
<!-- Node3&#45;&gt;Node4 -->
<g id="edge4" class="edge">
<title>Node3&#45;&gt;Node4</title>
<path fill="none" stroke="#191970" d="M280.362,-56.2455C263.5614,-47.4527 238.6366,-34.4079 219.5382,-24.4125"/>
<polygon fill="#191970" stroke="#191970" points="220.9073,-21.1787 210.4244,-19.6427 217.6614,-27.3807 220.9073,-21.1787"/>
</g>
<!-- Node7 -->
<g id="node8" class="node">
<title>Node7</title>
<polygon fill="none" stroke="#bfbfbf" points="402.5,-56.5 402.5,-75.5 471.5,-75.5 471.5,-56.5 402.5,-56.5"/>
<text text-anchor="middle" x="437" y="-63.5" font-family="Helvetica,sans-Serif" font-size="10.00" fill="#000000">type_traits</text>
</g>
<!-- Node6&#45;&gt;Node7 -->
<g id="edge7" class="edge">
<title>Node6&#45;&gt;Node7</title>
<path fill="none" stroke="#191970" d="M517.9297,-112.2455C502.753,-103.5731 480.3379,-90.7645 462.9437,-80.825"/>
<polygon fill="#191970" stroke="#191970" points="464.2936,-77.5653 453.8747,-75.6427 460.8206,-83.643 464.2936,-77.5653"/>
</g>
<!-- Node8&#45;&gt;Node3 -->
<g id="edge11" class="edge">
<title>Node8&#45;&gt;Node3</title>
<path fill="none" stroke="#191970" d="M803.4755,-115.4922C711.7261,-106.9728 546.1581,-91.4183 394.049,-76.0976"/>
<polygon fill="#191970" stroke="#191970" points="394.351,-72.6104 384.0502,-75.0889 393.6483,-79.575 394.351,-72.6104"/>
</g>
<!-- Node8&#45;&gt;Node5 -->
<g id="edge10" class="edge">
<title>Node8&#45;&gt;Node5</title>
<path fill="none" stroke="#191970" d="M915.8386,-112.4369C957.7685,-102.8529 1022.3948,-88.0812 1067.4624,-77.78"/>
<polygon fill="#191970" stroke="#191970" points="1068.3653,-81.164 1077.3339,-75.5237 1066.8054,-74.34 1068.3653,-81.164"/>
</g>
<!-- Node9 -->
<g id="node10" class="node">
<title>Node9</title>
<g id="a_node10"><a xlink:href="../../dd/dc2/BasicOps_8h.html" target="_top" xlink:title="Framework/BasicOps.h">
<polygon fill="none" stroke="#000000" points="1219,-56.5 1219,-75.5 1347,-75.5 1347,-56.5 1219,-56.5"/>
<text text-anchor="middle" x="1283" y="-63.5" font-family="Helvetica,sans-Serif" font-size="10.00" fill="#000000">Framework/BasicOps.h</text>
</a>
</g>
</g>
<!-- Node8&#45;&gt;Node9 -->
<g id="edge9" class="edge">
<title>Node8&#45;&gt;Node9</title>
<path fill="none" stroke="#191970" d="M943.4994,-112.4869C1009.19,-103.4947 1110.8114,-89.5831 1208.8222,-76.1612"/>
<polygon fill="#191970" stroke="#191970" points="1209.4733,-79.6048 1218.906,-74.7803 1208.5235,-72.6695 1209.4733,-79.6048"/>
</g>
<!-- Node10 -->
<g id="node11" class="node">
<title>Node10</title>
<polygon fill="none" stroke="#bfbfbf" points="831,-56.5 831,-75.5 909,-75.5 909,-56.5 831,-56.5"/>
<text text-anchor="middle" x="870" y="-63.5" font-family="Helvetica,sans-Serif" font-size="10.00" fill="#000000">arrow/type.h</text>
</g>
<!-- Node8&#45;&gt;Node10 -->
<g id="edge12" class="edge">
<title>Node8&#45;&gt;Node10</title>
<path fill="none" stroke="#191970" d="M873.3033,-112.2455C872.7813,-104.9382 872.0496,-94.6944 871.4075,-85.7046"/>
<polygon fill="#191970" stroke="#191970" points="874.8924,-85.3679 870.6888,-75.6427 867.9102,-85.8667 874.8924,-85.3679"/>
</g>
<!-- Node8&#45;&gt;Node11 -->
<g id="edge13" class="edge">
<title>Node8&#45;&gt;Node11</title>
<path fill="none" stroke="#191970" d="M803.2264,-115.8362C787.3624,-114.5149 770.6095,-113.1666 755,-112 514.0536,-93.9922 449.6091,-107.7047 205.8261,-75.9306"/>
<polygon fill="#191970" stroke="#191970" points="205.9554,-72.4175 195.5842,-74.5829 205.0421,-79.3577 205.9554,-72.4175"/>
</g>
<!-- Node8&#45;&gt;Node12 -->
<g id="edge14" class="edge">
<title>Node8&#45;&gt;Node12</title>
<path fill="none" stroke="#191970" d="M820.8906,-112.4369C766.8826,-102.712 683.2104,-87.6456 625.9136,-77.3285"/>
<polygon fill="#191970" stroke="#191970" points="626.3524,-73.8513 615.8904,-75.5237 625.1118,-80.7405 626.3524,-73.8513"/>
</g>
<!-- Node13 -->
<g id="node14" class="node">
<title>Node13</title>
<polygon fill="none" stroke="#bfbfbf" points="927,-56.5 927,-75.5 1019,-75.5 1019,-56.5 927,-56.5"/>
<text text-anchor="middle" x="973" y="-63.5" font-family="Helvetica,sans-Serif" font-size="10.00" fill="#000000">gandiva/node.h</text>
</g>
<!-- Node8&#45;&gt;Node13 -->
<g id="edge15" class="edge">
<title>Node8&#45;&gt;Node13</title>
<path fill="none" stroke="#191970" d="M891.2445,-112.2455C906.5761,-103.5731 929.2199,-90.7645 946.7916,-80.825"/>
<polygon fill="#191970" stroke="#191970" points="948.9724,-83.6126 955.9531,-75.6427 945.5259,-77.5198 948.9724,-83.6126"/>
</g>
<!-- Node14 -->
<g id="node15" class="node">
<title>Node14</title>
<polygon fill="none" stroke="#bfbfbf" points="654.5,-56.5 654.5,-75.5 743.5,-75.5 743.5,-56.5 654.5,-56.5"/>
<text text-anchor="middle" x="699" y="-63.5" font-family="Helvetica,sans-Serif" font-size="10.00" fill="#000000">gandiva/filter.h</text>
</g>
<!-- Node8&#45;&gt;Node14 -->
<g id="edge16" class="edge">
<title>Node8&#45;&gt;Node14</title>
<path fill="none" stroke="#191970" d="M843.9164,-112.3733C814.8166,-103.0613 770.5477,-88.8953 738.597,-78.671"/>
<polygon fill="#191970" stroke="#191970" points="739.282,-75.2155 728.691,-75.5011 737.1485,-81.8824 739.282,-75.2155"/>
</g>
<!-- Node15 -->
<g id="node16" class="node">
<title>Node15</title>
<polygon fill="none" stroke="#bfbfbf" points="761.5,-56.5 761.5,-75.5 812.5,-75.5 812.5,-56.5 761.5,-56.5"/>
<text text-anchor="middle" x="787" y="-63.5" font-family="Helvetica,sans-Serif" font-size="10.00" fill="#000000">variant</text>
</g>
<!-- Node8&#45;&gt;Node15 -->
<g id="edge17" class="edge">
<title>Node8&#45;&gt;Node15</title>
<path fill="none" stroke="#191970" d="M858.8458,-112.2455C845.4973,-103.6534 825.8414,-91.0014 810.4617,-81.1018"/>
<polygon fill="#191970" stroke="#191970" points="812.2836,-78.1121 801.9806,-75.6427 808.4949,-83.9982 812.2836,-78.1121"/>
</g>
<!-- Node8&#45;&gt;Node16 -->
<g id="edge18" class="edge">
<title>Node8&#45;&gt;Node16</title>
<path fill="none" stroke="#191970" d="M944.7952,-115.6618C960.3408,-114.3646 976.7206,-113.0703 992,-112 1277.242,-92.0187 1355.704,-127.9867 1640.6028,-75.8005"/>
<polygon fill="#191970" stroke="#191970" points="1641.6302,-79.1698 1650.8253,-73.9066 1640.355,-72.2869 1641.6302,-79.1698"/>
</g>
<!-- Node8&#45;&gt;Node17 -->
<g id="edge19" class="edge">
<title>Node8&#45;&gt;Node17</title>
<path fill="none" stroke="#191970" d="M803.2349,-115.7194C787.3703,-114.4045 770.6152,-113.0883 755,-112 466.3685,-91.8839 393.0792,-102.8915 105,-76 93.0093,-74.8807 79.9993,-73.3032 68.1889,-71.7313"/>
<polygon fill="#191970" stroke="#191970" points="68.5565,-68.2491 58.1747,-70.363 67.6088,-75.1846 68.5565,-68.2491"/>
</g>
<!-- Node18&#45;&gt;Node9 -->
<g id="edge21" class="edge">
<title>Node18&#45;&gt;Node9</title>
<path fill="none" stroke="#191970" d="M1261.5289,-112.2455C1265.0334,-104.6973 1269.9927,-94.0158 1274.2623,-84.8197"/>
<polygon fill="#191970" stroke="#191970" points="1277.4864,-86.1867 1278.523,-75.6427 1271.1373,-83.2389 1277.4864,-86.1867"/>
</g>
<!-- Node18&#45;&gt;Node16 -->
<g id="edge26" class="edge">
<title>Node18&#45;&gt;Node16</title>
<path fill="none" stroke="#191970" d="M1316.8238,-113.216C1319.926,-112.7962 1322.9989,-112.3883 1326,-112 1462.8986,-94.286 1502.0126,-105.2997 1640.6375,-75.9322"/>
<polygon fill="#191970" stroke="#191970" points="1641.7532,-79.2724 1650.7932,-73.747 1640.2807,-72.429 1641.7532,-79.2724"/>
</g>
<!-- Node18&#45;&gt;Node19 -->
<g id="edge22" class="edge">
<title>Node18&#45;&gt;Node19</title>
<path fill="none" stroke="#191970" d="M1287.0836,-112.3733C1316.1834,-103.0613 1360.4523,-88.8953 1392.403,-78.671"/>
<polygon fill="#191970" stroke="#191970" points="1393.8515,-81.8824 1402.309,-75.5011 1391.718,-75.2155 1393.8515,-81.8824"/>
</g>
<!-- Node18&#45;&gt;Node20 -->
<g id="edge23" class="edge">
<title>Node18&#45;&gt;Node20</title>
<path fill="none" stroke="#191970" d="M1316.8053,-113.0604C1319.9123,-112.6812 1322.9914,-112.3246 1326,-112 1546.8729,-88.1696 1606.7163,-104.8359 1830.8288,-76.0071"/>
<polygon fill="#191970" stroke="#191970" points="1831.4698,-79.4533 1840.9339,-74.691 1830.5656,-72.5119 1831.4698,-79.4533"/>
</g>
<!-- Node21 -->
<g id="node22" class="node">
<title>Node21</title>
<polygon fill="none" stroke="#bfbfbf" points="1517,-56.5 1517,-75.5 1633,-75.5 1633,-56.5 1517,-56.5"/>
<text text-anchor="middle" x="1575" y="-63.5" font-family="Helvetica,sans-Serif" font-size="10.00" fill="#000000">arrow/util/visibility.h</text>
</g>
<!-- Node18&#45;&gt;Node21 -->
<g id="edge24" class="edge">
<title>Node18&#45;&gt;Node21</title>
<path fill="none" stroke="#191970" d="M1311.3048,-112.4369C1366.6427,-102.6918 1452.4383,-87.5832 1511.0339,-77.2645"/>
<polygon fill="#191970" stroke="#191970" points="1511.6777,-80.705 1520.9192,-75.5237 1510.4637,-73.8111 1511.6777,-80.705"/>
</g>
<!-- Node18&#45;&gt;Node22 -->
<g id="edge25" class="edge">
<title>Node18&#45;&gt;Node22</title>
<path fill="none" stroke="#191970" d="M1316.8154,-113.1482C1319.9197,-112.7461 1322.9955,-112.3606 1326,-112 1490.3671,-92.2743 1534.8732,-96.849 1702.9422,-76.0682"/>
<polygon fill="#191970" stroke="#191970" points="1703.3822,-79.5405 1712.8717,-74.8289 1702.5152,-72.5944 1703.3822,-79.5405"/>
</g>
</g>
</svg>
