<?xml version="1.0" encoding="UTF-8" standalone="no"?>
<!DOCTYPE svg PUBLIC "-//W3C//DTD SVG 1.1//EN"
 "http://www.w3.org/Graphics/SVG/1.1/DTD/svg11.dtd">
<!-- Generated by graphviz version 2.40.1 (20161225.0304)
 -->
<!-- Title: /home/travis/build/AliceO2Group/AliceO2/DataFormats/Detectors/FIT/FDD/include/DataFormatsFDD/Digit.h Pages: 1 -->
<svg width="1474pt" height="439pt"
 viewBox="0.00 0.00 1474.19 439.00" xmlns="http://www.w3.org/2000/svg" xmlns:xlink="http://www.w3.org/1999/xlink">
<g id="graph0" class="graph" transform="scale(1 1) rotate(0) translate(4 435)">
<title>/home/travis/build/AliceO2Group/AliceO2/DataFormats/Detectors/FIT/FDD/include/DataFormatsFDD/Digit.h</title>
<!-- Node9 -->
<g id="node1" class="node">
<title>Node9</title>
<polygon fill="#bfbfbf" stroke="#000000" points="731.1866,-367.5 731.1866,-430.5 913.1866,-430.5 913.1866,-367.5 731.1866,-367.5"/>
<text text-anchor="start" x="739.1866" y="-418.5" font-family="Helvetica,sans-Serif" font-size="10.00" fill="#000000">/home/travis/build</text>
<text text-anchor="start" x="739.1866" y="-407.5" font-family="Helvetica,sans-Serif" font-size="10.00" fill="#000000">/AliceO2Group/AliceO2</text>
<text text-anchor="start" x="739.1866" y="-396.5" font-family="Helvetica,sans-Serif" font-size="10.00" fill="#000000">/DataFormats/Detectors</text>
<text text-anchor="start" x="739.1866" y="-385.5" font-family="Helvetica,sans-Serif" font-size="10.00" fill="#000000">/FIT/FDD/include/DataFormatsFDD</text>
<text text-anchor="middle" x="822.1866" y="-374.5" font-family="Helvetica,sans-Serif" font-size="10.00" fill="#000000">/Digit.h</text>
</g>
<!-- Node10 -->
<g id="node2" class="node">
<title>Node10</title>
<g id="a_node2"><a xlink:href="../../d8/d0c/RecPoint_8h.html" target="_top" xlink:title="Definition of the FDD RecPoint class. ">
<polygon fill="none" stroke="#000000" points="367.1866,-267.5 367.1866,-330.5 549.1866,-330.5 549.1866,-267.5 367.1866,-267.5"/>
<text text-anchor="start" x="375.1866" y="-318.5" font-family="Helvetica,sans-Serif" font-size="10.00" fill="#000000">/home/travis/build</text>
<text text-anchor="start" x="375.1866" y="-307.5" font-family="Helvetica,sans-Serif" font-size="10.00" fill="#000000">/AliceO2Group/AliceO2</text>
<text text-anchor="start" x="375.1866" y="-296.5" font-family="Helvetica,sans-Serif" font-size="10.00" fill="#000000">/DataFormats/Detectors</text>
<text text-anchor="start" x="375.1866" y="-285.5" font-family="Helvetica,sans-Serif" font-size="10.00" fill="#000000">/FIT/FDD/include/DataFormatsFDD</text>
<text text-anchor="middle" x="458.1866" y="-274.5" font-family="Helvetica,sans-Serif" font-size="10.00" fill="#000000">/RecPoint.h</text>
</a>
</g>
</g>
<!-- Node9&#45;&gt;Node10 -->
<g id="edge1" class="edge">
<title>Node9&#45;&gt;Node10</title>
<path fill="none" stroke="#191970" d="M720.9002,-371.1741C667.0933,-356.392 601.4835,-338.3673 549.2912,-324.0287"/>
<polygon fill="#191970" stroke="#191970" points="720.2339,-374.6206 730.8039,-373.8949 722.0884,-367.8707 720.2339,-374.6206"/>
</g>
<!-- Node11 -->
<g id="node3" class="node">
<title>Node11</title>
<g id="a_node3"><a xlink:href="../../d8/dbe/Reconstructor_8h.html" target="_top" xlink:title="/home/travis/build\l/AliceO2Group/AliceO2\l/Detectors/FIT/FDD/reconstruction\l/include/FDDReconstruction/Reconstructor.h">
<polygon fill="none" stroke="#000000" points="28.1866,-178.5 28.1866,-230.5 256.1866,-230.5 256.1866,-178.5 28.1866,-178.5"/>
<text text-anchor="start" x="36.1866" y="-218.5" font-family="Helvetica,sans-Serif" font-size="10.00" fill="#000000">/home/travis/build</text>
<text text-anchor="start" x="36.1866" y="-207.5" font-family="Helvetica,sans-Serif" font-size="10.00" fill="#000000">/AliceO2Group/AliceO2</text>
<text text-anchor="start" x="36.1866" y="-196.5" font-family="Helvetica,sans-Serif" font-size="10.00" fill="#000000">/Detectors/FIT/FDD/reconstruction</text>
<text text-anchor="middle" x="142.1866" y="-185.5" font-family="Helvetica,sans-Serif" font-size="10.00" fill="#000000">/include/FDDReconstruction/Reconstructor.h</text>
</a>
</g>
</g>
<!-- Node9&#45;&gt;Node11 -->
<g id="edge11" class="edge">
<title>Node9&#45;&gt;Node11</title>
<path fill="none" stroke="#191970" d="M720.9811,-388.7439C605.1976,-376.2087 423.2195,-353.8333 358.1866,-331 289.5053,-306.8857 218.2294,-260.172 177.1569,-230.7558"/>
<polygon fill="#191970" stroke="#191970" points="720.6146,-392.2246 730.9317,-389.8147 721.3636,-385.2648 720.6146,-392.2246"/>
</g>
<!-- Node14 -->
<g id="node6" class="node">
<title>Node14</title>
<g id="a_node6"><a xlink:href="../../d3/db6/ReconstructorSpec_8cxx.html" target="_top" xlink:title="/home/travis/build\l/AliceO2Group/AliceO2\l/Detectors/FIT/FDD/workflow\l/src/ReconstructorSpec.cxx">
<polygon fill="none" stroke="#000000" points="166.6866,-.5 166.6866,-52.5 321.6866,-52.5 321.6866,-.5 166.6866,-.5"/>
<text text-anchor="start" x="174.6866" y="-40.5" font-family="Helvetica,sans-Serif" font-size="10.00" fill="#000000">/home/travis/build</text>
<text text-anchor="start" x="174.6866" y="-29.5" font-family="Helvetica,sans-Serif" font-size="10.00" fill="#000000">/AliceO2Group/AliceO2</text>
<text text-anchor="start" x="174.6866" y="-18.5" font-family="Helvetica,sans-Serif" font-size="10.00" fill="#000000">/Detectors/FIT/FDD/workflow</text>
<text text-anchor="middle" x="244.1866" y="-7.5" font-family="Helvetica,sans-Serif" font-size="10.00" fill="#000000">/src/ReconstructorSpec.cxx</text>
</a>
</g>
</g>
<!-- Node9&#45;&gt;Node14 -->
<g id="edge18" class="edge">
<title>Node9&#45;&gt;Node14</title>
<path fill="none" stroke="#191970" d="M720.8278,-394.9988C521.9291,-384.5972 93.351,-348.702 19.1866,-231 -14.9351,-176.8474 -1.2029,-135.1125 43.1866,-89 60.6739,-70.834 117.716,-54.0914 166.5862,-42.5165"/>
<polygon fill="#191970" stroke="#191970" points="720.8255,-398.5031 730.9912,-395.5185 721.183,-391.5123 720.8255,-398.5031"/>
</g>
<!-- Node19 -->
<g id="node11" class="node">
<title>Node19</title>
<g id="a_node11"><a xlink:href="../../d3/d51/FIT_2FDD_2simulation_2include_2FDDSimulation_2Digitizer_8h.html" target="_top" xlink:title="/home/travis/build\l/AliceO2Group/AliceO2\l/Detectors/FIT/FDD/simulation\l/include/FDDSimulation/Digitizer.h">
<polygon fill="none" stroke="#000000" points="730.6866,-273 730.6866,-325 913.6866,-325 913.6866,-273 730.6866,-273"/>
<text text-anchor="start" x="738.6866" y="-313" font-family="Helvetica,sans-Serif" font-size="10.00" fill="#000000">/home/travis/build</text>
<text text-anchor="start" x="738.6866" y="-302" font-family="Helvetica,sans-Serif" font-size="10.00" fill="#000000">/AliceO2Group/AliceO2</text>
<text text-anchor="start" x="738.6866" y="-291" font-family="Helvetica,sans-Serif" font-size="10.00" fill="#000000">/Detectors/FIT/FDD/simulation</text>
<text text-anchor="middle" x="822.1866" y="-280" font-family="Helvetica,sans-Serif" font-size="10.00" fill="#000000">/include/FDDSimulation/Digitizer.h</text>
</a>
</g>
</g>
<!-- Node9&#45;&gt;Node19 -->
<g id="edge12" class="edge">
<title>Node9&#45;&gt;Node19</title>
<path fill="none" stroke="#191970" d="M822.1866,-357.1631C822.1866,-346.2863 822.1866,-334.8798 822.1866,-325.078"/>
<polygon fill="#191970" stroke="#191970" points="818.6867,-357.3593 822.1866,-367.3594 825.6867,-357.3594 818.6867,-357.3593"/>
</g>
<!-- Node21 -->
<g id="node13" class="node">
<title>Node21</title>
<g id="a_node13"><a xlink:href="../../d2/d97/FDDDigitizerSpec_8cxx.html" target="_top" xlink:title="/home/travis/build\l/AliceO2Group/AliceO2\l/Steer/DigitizerWorkflow\l/src/FDDDigitizerSpec.cxx">
<polygon fill="none" stroke="#000000" points="918.1866,-178.5 918.1866,-230.5 1060.1866,-230.5 1060.1866,-178.5 918.1866,-178.5"/>
<text text-anchor="start" x="926.1866" y="-218.5" font-family="Helvetica,sans-Serif" font-size="10.00" fill="#000000">/home/travis/build</text>
<text text-anchor="start" x="926.1866" y="-207.5" font-family="Helvetica,sans-Serif" font-size="10.00" fill="#000000">/AliceO2Group/AliceO2</text>
<text text-anchor="start" x="926.1866" y="-196.5" font-family="Helvetica,sans-Serif" font-size="10.00" fill="#000000">/Steer/DigitizerWorkflow</text>
<text text-anchor="middle" x="989.1866" y="-185.5" font-family="Helvetica,sans-Serif" font-size="10.00" fill="#000000">/src/FDDDigitizerSpec.cxx</text>
</a>
</g>
</g>
<!-- Node9&#45;&gt;Node21 -->
<g id="edge19" class="edge">
<title>Node9&#45;&gt;Node21</title>
<path fill="none" stroke="#191970" d="M887.1789,-361.6332C899.7158,-352.6198 912.0759,-342.29 922.1866,-331 949.2113,-300.8233 968.9842,-257.7903 979.784,-230.5066"/>
<polygon fill="#191970" stroke="#191970" points="885.1498,-358.7812 878.9367,-367.3631 889.1454,-364.5288 885.1498,-358.7812"/>
</g>
<!-- Node22 -->
<g id="node14" class="node">
<title>Node22</title>
<g id="a_node14"><a xlink:href="../../dd/d24/FIT_2FDD_2workflow_2include_2FDDWorkflow_2DigitReaderSpec_8h.html" target="_top" xlink:title="/home/travis/build\l/AliceO2Group/AliceO2\l/Detectors/FIT/FDD/workflow\l/include/FDDWorkflow/DigitReaderSpec.h">
<polygon fill="none" stroke="#000000" points="980.6866,-273 980.6866,-325 1195.6866,-325 1195.6866,-273 980.6866,-273"/>
<text text-anchor="start" x="988.6866" y="-313" font-family="Helvetica,sans-Serif" font-size="10.00" fill="#000000">/home/travis/build</text>
<text text-anchor="start" x="988.6866" y="-302" font-family="Helvetica,sans-Serif" font-size="10.00" fill="#000000">/AliceO2Group/AliceO2</text>
<text text-anchor="start" x="988.6866" y="-291" font-family="Helvetica,sans-Serif" font-size="10.00" fill="#000000">/Detectors/FIT/FDD/workflow</text>
<text text-anchor="middle" x="1088.1866" y="-280" font-family="Helvetica,sans-Serif" font-size="10.00" fill="#000000">/include/FDDWorkflow/DigitReaderSpec.h</text>
</a>
</g>
</g>
<!-- Node9&#45;&gt;Node22 -->
<g id="edge15" class="edge">
<title>Node9&#45;&gt;Node22</title>
<path fill="none" stroke="#191970" d="M915.4471,-363.9397C949.3792,-351.1832 987.1113,-336.9982 1018.6335,-325.1478"/>
<polygon fill="#191970" stroke="#191970" points="914.1143,-360.7015 905.9856,-367.4966 916.5776,-367.2538 914.1143,-360.7015"/>
</g>
<!-- Node24 -->
<g id="node16" class="node">
<title>Node24</title>
<g id="a_node16"><a xlink:href="../../d8/dcd/FDDDigitWriterSpec_8h.html" target="_top" xlink:title="/home/travis/build\l/AliceO2Group/AliceO2\l/Steer/DigitizerWorkflow\l/src/FDDDigitWriterSpec.h">
<polygon fill="none" stroke="#000000" points="1260.1866,-273 1260.1866,-325 1402.1866,-325 1402.1866,-273 1260.1866,-273"/>
<text text-anchor="start" x="1268.1866" y="-313" font-family="Helvetica,sans-Serif" font-size="10.00" fill="#000000">/home/travis/build</text>
<text text-anchor="start" x="1268.1866" y="-302" font-family="Helvetica,sans-Serif" font-size="10.00" fill="#000000">/AliceO2Group/AliceO2</text>
<text text-anchor="start" x="1268.1866" y="-291" font-family="Helvetica,sans-Serif" font-size="10.00" fill="#000000">/Steer/DigitizerWorkflow</text>
<text text-anchor="middle" x="1331.1866" y="-280" font-family="Helvetica,sans-Serif" font-size="10.00" fill="#000000">/src/FDDDigitWriterSpec.h</text>
</a>
</g>
</g>
<!-- Node9&#45;&gt;Node24 -->
<g id="edge20" class="edge">
<title>Node9&#45;&gt;Node24</title>
<path fill="none" stroke="#191970" d="M923.7114,-383.0489C1001.1331,-370.3836 1110.2567,-351.4532 1205.1866,-331 1223.0578,-327.1495 1242.2341,-322.5321 1260.1004,-318.0185"/>
<polygon fill="#191970" stroke="#191970" points="922.7858,-379.6534 913.479,-384.7165 923.9118,-386.5623 922.7858,-379.6534"/>
</g>
<!-- Node10&#45;&gt;Node11 -->
<g id="edge2" class="edge">
<title>Node10&#45;&gt;Node11</title>
<path fill="none" stroke="#191970" d="M357.0192,-268.7458C315.9051,-256.4506 268.8674,-242.384 229.3077,-230.5536"/>
<polygon fill="#191970" stroke="#191970" points="356.2027,-272.1547 366.7863,-271.6667 358.2084,-265.4482 356.2027,-272.1547"/>
</g>
<!-- Node13 -->
<g id="node5" class="node">
<title>Node13</title>
<g id="a_node5"><a xlink:href="../../d7/df4/ReconstructorSpec_8h.html" target="_top" xlink:title="/home/travis/build\l/AliceO2Group/AliceO2\l/Detectors/FIT/FDD/workflow\l/include/FDDWorkflow/ReconstructorSpec.h">
<polygon fill="none" stroke="#000000" points="265.6866,-89.5 265.6866,-141.5 490.6866,-141.5 490.6866,-89.5 265.6866,-89.5"/>
<text text-anchor="start" x="273.6866" y="-129.5" font-family="Helvetica,sans-Serif" font-size="10.00" fill="#000000">/home/travis/build</text>
<text text-anchor="start" x="273.6866" y="-118.5" font-family="Helvetica,sans-Serif" font-size="10.00" fill="#000000">/AliceO2Group/AliceO2</text>
<text text-anchor="start" x="273.6866" y="-107.5" font-family="Helvetica,sans-Serif" font-size="10.00" fill="#000000">/Detectors/FIT/FDD/workflow</text>
<text text-anchor="middle" x="378.1866" y="-96.5" font-family="Helvetica,sans-Serif" font-size="10.00" fill="#000000">/include/FDDWorkflow/ReconstructorSpec.h</text>
</a>
</g>
</g>
<!-- Node10&#45;&gt;Node13 -->
<g id="edge7" class="edge">
<title>Node10&#45;&gt;Node13</title>
<path fill="none" stroke="#191970" d="M457.3636,-257.0506C455.4311,-232.8472 450.4396,-202.4599 438.1866,-178 431.3824,-164.4171 420.6078,-151.8236 410.0549,-141.5529"/>
<polygon fill="#191970" stroke="#191970" points="453.8918,-257.5986 458.0342,-267.35 460.877,-257.1437 453.8918,-257.5986"/>
</g>
<!-- Node16 -->
<g id="node8" class="node">
<title>Node16</title>
<g id="a_node8"><a xlink:href="../../d7/da5/RecPointReaderSpec_8h.html" target="_top" xlink:title="/home/travis/build\l/AliceO2Group/AliceO2\l/Detectors/FIT/FDD/workflow\l/include/FDDWorkflow/RecPointReaderSpec.h">
<polygon fill="none" stroke="#000000" points="486.1866,-178.5 486.1866,-230.5 720.1866,-230.5 720.1866,-178.5 486.1866,-178.5"/>
<text text-anchor="start" x="494.1866" y="-218.5" font-family="Helvetica,sans-Serif" font-size="10.00" fill="#000000">/home/travis/build</text>
<text text-anchor="start" x="494.1866" y="-207.5" font-family="Helvetica,sans-Serif" font-size="10.00" fill="#000000">/AliceO2Group/AliceO2</text>
<text text-anchor="start" x="494.1866" y="-196.5" font-family="Helvetica,sans-Serif" font-size="10.00" fill="#000000">/Detectors/FIT/FDD/workflow</text>
<text text-anchor="middle" x="603.1866" y="-185.5" font-family="Helvetica,sans-Serif" font-size="10.00" fill="#000000">/include/FDDWorkflow/RecPointReaderSpec.h</text>
</a>
</g>
</g>
<!-- Node10&#45;&gt;Node16 -->
<g id="edge8" class="edge">
<title>Node10&#45;&gt;Node16</title>
<path fill="none" stroke="#191970" d="M515.58,-261.5953C531.4777,-251.2344 548.3895,-240.2126 563.0712,-230.6442"/>
<polygon fill="#191970" stroke="#191970" points="513.3397,-258.8777 506.8729,-267.27 517.1618,-264.7421 513.3397,-258.8777"/>
</g>
<!-- Node18 -->
<g id="node10" class="node">
<title>Node18</title>
<g id="a_node10"><a xlink:href="../../df/d0a/RecPointWriterSpec_8cxx.html" target="_top" xlink:title="/home/travis/build\l/AliceO2Group/AliceO2\l/Detectors/FIT/FDD/workflow\l/src/RecPointWriterSpec.cxx">
<polygon fill="none" stroke="#000000" points="274.6866,-178.5 274.6866,-230.5 429.6866,-230.5 429.6866,-178.5 274.6866,-178.5"/>
<text text-anchor="start" x="282.6866" y="-218.5" font-family="Helvetica,sans-Serif" font-size="10.00" fill="#000000">/home/travis/build</text>
<text text-anchor="start" x="282.6866" y="-207.5" font-family="Helvetica,sans-Serif" font-size="10.00" fill="#000000">/AliceO2Group/AliceO2</text>
<text text-anchor="start" x="282.6866" y="-196.5" font-family="Helvetica,sans-Serif" font-size="10.00" fill="#000000">/Detectors/FIT/FDD/workflow</text>
<text text-anchor="middle" x="352.1866" y="-185.5" font-family="Helvetica,sans-Serif" font-size="10.00" fill="#000000">/src/RecPointWriterSpec.cxx</text>
</a>
</g>
</g>
<!-- Node10&#45;&gt;Node18 -->
<g id="edge10" class="edge">
<title>Node10&#45;&gt;Node18</title>
<path fill="none" stroke="#191970" d="M414.9358,-260.4415C403.6947,-250.42 391.8476,-239.8582 381.5123,-230.6442"/>
<polygon fill="#191970" stroke="#191970" points="412.8018,-263.2279 422.5953,-267.27 417.46,-258.0029 412.8018,-263.2279"/>
</g>
<!-- Node12 -->
<g id="node4" class="node">
<title>Node12</title>
<g id="a_node4"><a xlink:href="../../d8/d07/Reconstructor_8cxx.html" target="_top" xlink:title="Implementation of the FDD reconstruction. ">
<polygon fill="none" stroke="#000000" points="52.1866,-89.5 52.1866,-141.5 232.1866,-141.5 232.1866,-89.5 52.1866,-89.5"/>
<text text-anchor="start" x="60.1866" y="-129.5" font-family="Helvetica,sans-Serif" font-size="10.00" fill="#000000">/home/travis/build</text>
<text text-anchor="start" x="60.1866" y="-118.5" font-family="Helvetica,sans-Serif" font-size="10.00" fill="#000000">/AliceO2Group/AliceO2</text>
<text text-anchor="start" x="60.1866" y="-107.5" font-family="Helvetica,sans-Serif" font-size="10.00" fill="#000000">/Detectors/FIT/FDD/reconstruction</text>
<text text-anchor="middle" x="142.1866" y="-96.5" font-family="Helvetica,sans-Serif" font-size="10.00" fill="#000000">/src/Reconstructor.cxx</text>
</a>
</g>
</g>
<!-- Node11&#45;&gt;Node12 -->
<g id="edge3" class="edge">
<title>Node11&#45;&gt;Node12</title>
<path fill="none" stroke="#191970" d="M142.1866,-168.1155C142.1866,-159.2061 142.1866,-149.8475 142.1866,-141.5341"/>
<polygon fill="#191970" stroke="#191970" points="138.6867,-168.2784 142.1866,-178.2784 145.6867,-168.2785 138.6867,-168.2784"/>
</g>
<!-- Node11&#45;&gt;Node13 -->
<g id="edge4" class="edge">
<title>Node11&#45;&gt;Node13</title>
<path fill="none" stroke="#191970" d="M220.92,-174.8082C249.4152,-164.0621 281.3585,-152.0157 308.9747,-141.6011"/>
<polygon fill="#191970" stroke="#191970" points="219.5215,-171.5949 211.3998,-178.3984 221.9916,-178.1446 219.5215,-171.5949"/>
</g>
<!-- Node13&#45;&gt;Node14 -->
<g id="edge5" class="edge">
<title>Node13&#45;&gt;Node14</title>
<path fill="none" stroke="#191970" d="M330.3309,-83.7152C314.94,-73.4929 298.0777,-62.2933 283.3841,-52.5341"/>
<polygon fill="#191970" stroke="#191970" points="328.4404,-86.6613 338.7069,-89.2784 332.3133,-80.8302 328.4404,-86.6613"/>
</g>
<!-- Node15 -->
<g id="node7" class="node">
<title>Node15</title>
<g id="a_node7"><a xlink:href="../../d6/d61/FIT_2FDD_2workflow_2src_2RecoWorkflow_8cxx.html" target="_top" xlink:title="/home/travis/build\l/AliceO2Group/AliceO2\l/Detectors/FIT/FDD/workflow\l/src/RecoWorkflow.cxx">
<polygon fill="none" stroke="#000000" points="434.6866,-.5 434.6866,-52.5 589.6866,-52.5 589.6866,-.5 434.6866,-.5"/>
<text text-anchor="start" x="442.6866" y="-40.5" font-family="Helvetica,sans-Serif" font-size="10.00" fill="#000000">/home/travis/build</text>
<text text-anchor="start" x="442.6866" y="-29.5" font-family="Helvetica,sans-Serif" font-size="10.00" fill="#000000">/AliceO2Group/AliceO2</text>
<text text-anchor="start" x="442.6866" y="-18.5" font-family="Helvetica,sans-Serif" font-size="10.00" fill="#000000">/Detectors/FIT/FDD/workflow</text>
<text text-anchor="middle" x="512.1866" y="-7.5" font-family="Helvetica,sans-Serif" font-size="10.00" fill="#000000">/src/RecoWorkflow.cxx</text>
</a>
</g>
</g>
<!-- Node13&#45;&gt;Node15 -->
<g id="edge6" class="edge">
<title>Node13&#45;&gt;Node15</title>
<path fill="none" stroke="#191970" d="M426.0423,-83.7152C441.4333,-73.4929 458.2955,-62.2933 472.9891,-52.5341"/>
<polygon fill="#191970" stroke="#191970" points="424.0599,-80.8302 417.6663,-89.2784 427.9328,-86.6613 424.0599,-80.8302"/>
</g>
<!-- Node17 -->
<g id="node9" class="node">
<title>Node17</title>
<g id="a_node9"><a xlink:href="../../d5/d58/RecPointReaderSpec_8cxx.html" target="_top" xlink:title="/home/travis/build\l/AliceO2Group/AliceO2\l/Detectors/FIT/FDD/workflow\l/src/RecPointReaderSpec.cxx">
<polygon fill="none" stroke="#000000" points="525.1866,-89.5 525.1866,-141.5 681.1866,-141.5 681.1866,-89.5 525.1866,-89.5"/>
<text text-anchor="start" x="533.1866" y="-129.5" font-family="Helvetica,sans-Serif" font-size="10.00" fill="#000000">/home/travis/build</text>
<text text-anchor="start" x="533.1866" y="-118.5" font-family="Helvetica,sans-Serif" font-size="10.00" fill="#000000">/AliceO2Group/AliceO2</text>
<text text-anchor="start" x="533.1866" y="-107.5" font-family="Helvetica,sans-Serif" font-size="10.00" fill="#000000">/Detectors/FIT/FDD/workflow</text>
<text text-anchor="middle" x="603.1866" y="-96.5" font-family="Helvetica,sans-Serif" font-size="10.00" fill="#000000">/src/RecPointReaderSpec.cxx</text>
</a>
</g>
</g>
<!-- Node16&#45;&gt;Node17 -->
<g id="edge9" class="edge">
<title>Node16&#45;&gt;Node17</title>
<path fill="none" stroke="#191970" d="M603.1866,-168.1155C603.1866,-159.2061 603.1866,-149.8475 603.1866,-141.5341"/>
<polygon fill="#191970" stroke="#191970" points="599.6867,-168.2784 603.1866,-178.2784 606.6867,-168.2785 599.6867,-168.2784"/>
</g>
<!-- Node20 -->
<g id="node12" class="node">
<title>Node20</title>
<g id="a_node12"><a xlink:href="../../d0/d8c/FIT_2FDD_2simulation_2src_2Digitizer_8cxx.html" target="_top" xlink:title="/home/travis/build\l/AliceO2Group/AliceO2\l/Detectors/FIT/FDD/simulation\l/src/Digitizer.cxx">
<polygon fill="none" stroke="#000000" points="738.1866,-178.5 738.1866,-230.5 900.1866,-230.5 900.1866,-178.5 738.1866,-178.5"/>
<text text-anchor="start" x="746.1866" y="-218.5" font-family="Helvetica,sans-Serif" font-size="10.00" fill="#000000">/home/travis/build</text>
<text text-anchor="start" x="746.1866" y="-207.5" font-family="Helvetica,sans-Serif" font-size="10.00" fill="#000000">/AliceO2Group/AliceO2</text>
<text text-anchor="start" x="746.1866" y="-196.5" font-family="Helvetica,sans-Serif" font-size="10.00" fill="#000000">/Detectors/FIT/FDD/simulation</text>
<text text-anchor="middle" x="819.1866" y="-185.5" font-family="Helvetica,sans-Serif" font-size="10.00" fill="#000000">/src/Digitizer.cxx</text>
</a>
</g>
</g>
<!-- Node19&#45;&gt;Node20 -->
<g id="edge13" class="edge">
<title>Node19&#45;&gt;Node20</title>
<path fill="none" stroke="#191970" d="M821.0331,-262.6645C820.6964,-252.0577 820.335,-240.6746 820.022,-230.8157"/>
<polygon fill="#191970" stroke="#191970" points="817.5433,-263.0434 821.3589,-272.9273 824.5397,-262.8213 817.5433,-263.0434"/>
</g>
<!-- Node19&#45;&gt;Node21 -->
<g id="edge14" class="edge">
<title>Node19&#45;&gt;Node21</title>
<path fill="none" stroke="#191970" d="M877.1975,-267.8711C898.4923,-255.821 922.5959,-242.1816 942.9718,-230.6515"/>
<polygon fill="#191970" stroke="#191970" points="875.2417,-264.9563 868.2622,-272.9273 878.6891,-271.0485 875.2417,-264.9563"/>
</g>
<!-- Node22&#45;&gt;Node15 -->
<g id="edge17" class="edge">
<title>Node22&#45;&gt;Node15</title>
<path fill="none" stroke="#191970" d="M1092.1924,-262.8249C1093.0707,-236.1919 1089.6034,-200.7916 1069.1866,-178 1005.4125,-106.8078 727.4306,-57.5959 589.868,-37.1344"/>
<polygon fill="#191970" stroke="#191970" points="1088.6918,-262.7418 1091.6424,-272.9175 1095.6815,-263.1228 1088.6918,-262.7418"/>
</g>
<!-- Node23 -->
<g id="node15" class="node">
<title>Node23</title>
<g id="a_node15"><a xlink:href="../../dc/d21/FIT_2FDD_2workflow_2src_2DigitReaderSpec_8cxx.html" target="_top" xlink:title="/home/travis/build\l/AliceO2Group/AliceO2\l/Detectors/FIT/FDD/workflow\l/src/DigitReaderSpec.cxx">
<polygon fill="none" stroke="#000000" points="1116.6866,-178.5 1116.6866,-230.5 1271.6866,-230.5 1271.6866,-178.5 1116.6866,-178.5"/>
<text text-anchor="start" x="1124.6866" y="-218.5" font-family="Helvetica,sans-Serif" font-size="10.00" fill="#000000">/home/travis/build</text>
<text text-anchor="start" x="1124.6866" y="-207.5" font-family="Helvetica,sans-Serif" font-size="10.00" fill="#000000">/AliceO2Group/AliceO2</text>
<text text-anchor="start" x="1124.6866" y="-196.5" font-family="Helvetica,sans-Serif" font-size="10.00" fill="#000000">/Detectors/FIT/FDD/workflow</text>
<text text-anchor="middle" x="1194.1866" y="-185.5" font-family="Helvetica,sans-Serif" font-size="10.00" fill="#000000">/src/DigitReaderSpec.cxx</text>
</a>
</g>
</g>
<!-- Node22&#45;&gt;Node23 -->
<g id="edge16" class="edge">
<title>Node22&#45;&gt;Node23</title>
<path fill="none" stroke="#191970" d="M1125.2572,-265.9512C1138.1629,-254.4457 1152.4579,-241.7016 1164.6685,-230.8157"/>
<polygon fill="#191970" stroke="#191970" points="1122.5675,-263.6602 1117.4322,-272.9273 1127.2257,-268.8853 1122.5675,-263.6602"/>
</g>
<!-- Node25 -->
<g id="node17" class="node">
<title>Node25</title>
<g id="a_node17"><a xlink:href="../../d2/dd7/SimpleDigitizerWorkflow_8cxx.html" target="_top" xlink:title="/home/travis/build\l/AliceO2Group/AliceO2\l/Steer/DigitizerWorkflow\l/src/SimpleDigitizerWorkflow.cxx">
<polygon fill="none" stroke="#000000" points="1290.1866,-178.5 1290.1866,-230.5 1466.1866,-230.5 1466.1866,-178.5 1290.1866,-178.5"/>
<text text-anchor="start" x="1298.1866" y="-218.5" font-family="Helvetica,sans-Serif" font-size="10.00" fill="#000000">/home/travis/build</text>
<text text-anchor="start" x="1298.1866" y="-207.5" font-family="Helvetica,sans-Serif" font-size="10.00" fill="#000000">/AliceO2Group/AliceO2</text>
<text text-anchor="start" x="1298.1866" y="-196.5" font-family="Helvetica,sans-Serif" font-size="10.00" fill="#000000">/Steer/DigitizerWorkflow</text>
<text text-anchor="middle" x="1378.1866" y="-185.5" font-family="Helvetica,sans-Serif" font-size="10.00" fill="#000000">/src/SimpleDigitizerWorkflow.cxx</text>
</a>
</g>
</g>
<!-- Node24&#45;&gt;Node25 -->
<g id="edge21" class="edge">
<title>Node24&#45;&gt;Node25</title>
<path fill="none" stroke="#191970" d="M1348.7649,-263.6565C1354.179,-252.7706 1360.0418,-240.9827 1365.0984,-230.8157"/>
<polygon fill="#191970" stroke="#191970" points="1345.4734,-262.4149 1344.154,-272.9273 1351.741,-265.5322 1345.4734,-262.4149"/>
</g>
</g>
</svg>
