<?xml version="1.0" encoding="UTF-8" standalone="no"?>
<!DOCTYPE svg PUBLIC "-//W3C//DTD SVG 1.1//EN"
 "http://www.w3.org/Graphics/SVG/1.1/DTD/svg11.dtd">
<!-- Generated by graphviz version 2.40.1 (20161225.0304)
 -->
<!-- Title: o2::mch::raw::NamedState Pages: 1 -->
<!--zoomable 254 -->
<svg id="main" version="1.1" xmlns="http://www.w3.org/2000/svg" xmlns:xlink="http://www.w3.org/1999/xlink" xml:space="preserve" onload="init(evt)">
<style type="text/css"><![CDATA[
.edge:hover path { stroke: red; }
.edge:hover polygon { stroke: red; fill: red; }
]]></style>
<script type="text/javascript"><![CDATA[
var edges = document.getElementsByTagName('g');
if (edges && edges.length) {
  for (var i=0;i<edges.length;i++) {
    if (edges[i].id.substr(0,4)=='edge') {
      edges[i].setAttribute('class','edge');
    }
  }
}
]]></script>
        <defs>
                <circle id="rim" cx="0" cy="0" r="7"/>
                <circle id="rim2" cx="0" cy="0" r="3.5"/>
                <g id="zoomPlus">
                        <use xlink:href="#rim" fill="#404040">
                                <set attributeName="fill" to="#808080" begin="zoomplus.mouseover" end="zoomplus.mouseout"/>
                        </use>
                        <path d="M-4,0h8M0,-4v8" fill="none" stroke="white" stroke-width="1.5" pointer-events="none"/>
                </g>
                <g id="zoomMin">
                        <use xlink:href="#rim" fill="#404040">
                                <set attributeName="fill" to="#808080" begin="zoomminus.mouseover" end="zoomminus.mouseout"/>
                        </use>
                        <path d="M-4,0h8" fill="none" stroke="white" stroke-width="1.5" pointer-events="none"/>
                </g>
                <g id="dirArrow">
                        <path fill="none" stroke="white" stroke-width="1.5" d="M0,-3.0v7 M-2.5,-0.5L0,-3.0L2.5,-0.5"/>
                </g>
               <g id="resetDef">
                       <use xlink:href="#rim2" fill="#404040">
                               <set attributeName="fill" to="#808080" begin="reset.mouseover" end="reset.mouseout"/>
                       </use>
               </g>
        </defs>

<script type="text/javascript">
var viewWidth = 830;
var viewHeight = 254;
var sectionId = 'dynsection-0';
</script>
<script xlink:href="../../svgpan.js"/>
<svg id="graph" class="graph">
<g id="viewport">
<title>o2::mch::raw::NamedState</title>
<!-- Node0 -->
<g id="node1" class="node">
<title>Node0</title>
<polygon fill="#bfbfbf" stroke="#000000" points="349.5,-94.5 349.5,-151.5 495.5,-151.5 495.5,-94.5 349.5,-94.5"/>
<text text-anchor="middle" x="422.5" y="-139.5" font-family="Helvetica,sans-Serif" font-size="10.00" fill="#000000">o2::mch::raw::NamedState</text>
<polyline fill="none" stroke="#000000" points="349.5,-132.5 495.5,-132.5 "/>
<text text-anchor="start" x="357.5" y="-120.5" font-family="Helvetica,sans-Serif" font-size="10.00" fill="#000000">+ name</text>
<polyline fill="none" stroke="#000000" points="349.5,-113.5 495.5,-113.5 "/>
<text text-anchor="start" x="357.5" y="-101.5" font-family="Helvetica,sans-Serif" font-size="10.00" fill="#000000">+ NamedState()</text>
</g>
<!-- Node2 -->
<g id="node3" class="node">
<title>Node2</title>
<g id="a_node3"><a xlink:href="../../d8/d68/structo2_1_1mch_1_1raw_1_1WaitingHeader.html" target="_top" xlink:title="{o2::mch::raw::WaitingHeader\n||+ WaitingHeader()\l}">
<polygon fill="none" stroke="#000000" points="0,-.5 0,-57.5 157,-57.5 157,-.5 0,-.5"/>
<text text-anchor="middle" x="78.5" y="-45.5" font-family="Helvetica,sans-Serif" font-size="10.00" fill="#000000">o2::mch::raw::WaitingHeader</text>
<polyline fill="none" stroke="#000000" points="0,-38.5 157,-38.5 "/>
<text text-anchor="middle" x="78.5" y="-26.5" font-family="Helvetica,sans-Serif" font-size="10.00" fill="#000000"> </text>
<polyline fill="none" stroke="#000000" points="0,-19.5 157,-19.5 "/>
<text text-anchor="start" x="8" y="-7.5" font-family="Helvetica,sans-Serif" font-size="10.00" fill="#000000">+ WaitingHeader()</text>
</a>
</g>
</g>
<!-- Node0&#45;&gt;Node2 -->
<g id="edge2" class="edge">
<title>Node0&#45;&gt;Node2</title>
<path fill="none" stroke="#191970" d="M339.4547,-103.4673C289.1662,-91.2546 223.8692,-74.7141 166.5,-58 163.4112,-57.1001 160.268,-56.1638 157.0976,-55.2023"/>
<polygon fill="none" stroke="#191970" points="338.7628,-106.9009 349.3055,-105.851 340.4091,-100.0972 338.7628,-106.9009"/>
</g>
<!-- Node3 -->
<g id="node4" class="node">
<title>Node3</title>
<g id="a_node4"><a xlink:href="../../d1/dc8/structo2_1_1mch_1_1raw_1_1WaitingSample.html" target="_top" xlink:title="{o2::mch::raw::WaitingSample\n||+ WaitingSample()\l}">
<polygon fill="none" stroke="#000000" points="175.5,-.5 175.5,-57.5 333.5,-57.5 333.5,-.5 175.5,-.5"/>
<text text-anchor="middle" x="254.5" y="-45.5" font-family="Helvetica,sans-Serif" font-size="10.00" fill="#000000">o2::mch::raw::WaitingSample</text>
<polyline fill="none" stroke="#000000" points="175.5,-38.5 333.5,-38.5 "/>
<text text-anchor="middle" x="254.5" y="-26.5" font-family="Helvetica,sans-Serif" font-size="10.00" fill="#000000"> </text>
<polyline fill="none" stroke="#000000" points="175.5,-19.5 333.5,-19.5 "/>
<text text-anchor="start" x="183.5" y="-7.5" font-family="Helvetica,sans-Serif" font-size="10.00" fill="#000000">+ WaitingSample()</text>
</a>
</g>
</g>
<!-- Node0&#45;&gt;Node3 -->
<g id="edge3" class="edge">
<title>Node0&#45;&gt;Node3</title>
<path fill="none" stroke="#191970" d="M362.2175,-89.2705C343.6455,-78.879 323.3885,-67.5447 305.5041,-57.538"/>
<polygon fill="none" stroke="#191970" points="360.7457,-92.4576 371.1816,-94.2861 364.1638,-86.3488 360.7457,-92.4576"/>
</g>
<!-- Node4 -->
<g id="node5" class="node">
<title>Node4</title>
<g id="a_node5"><a xlink:href="../../dd/d9d/structo2_1_1mch_1_1raw_1_1WaitingSize.html" target="_top" xlink:title="{o2::mch::raw::WaitingSize\n||+ WaitingSize()\l}">
<polygon fill="none" stroke="#000000" points="351.5,-.5 351.5,-57.5 493.5,-57.5 493.5,-.5 351.5,-.5"/>
<text text-anchor="middle" x="422.5" y="-45.5" font-family="Helvetica,sans-Serif" font-size="10.00" fill="#000000">o2::mch::raw::WaitingSize</text>
<polyline fill="none" stroke="#000000" points="351.5,-38.5 493.5,-38.5 "/>
<text text-anchor="middle" x="422.5" y="-26.5" font-family="Helvetica,sans-Serif" font-size="10.00" fill="#000000"> </text>
<polyline fill="none" stroke="#000000" points="351.5,-19.5 493.5,-19.5 "/>
<text text-anchor="start" x="359.5" y="-7.5" font-family="Helvetica,sans-Serif" font-size="10.00" fill="#000000">+ WaitingSize()</text>
</a>
</g>
</g>
<!-- Node0&#45;&gt;Node4 -->
<g id="edge4" class="edge">
<title>Node0&#45;&gt;Node4</title>
<path fill="none" stroke="#191970" d="M422.5,-84.1035C422.5,-75.2052 422.5,-65.9073 422.5,-57.538"/>
<polygon fill="none" stroke="#191970" points="419.0001,-84.2861 422.5,-94.2861 426.0001,-84.2862 419.0001,-84.2861"/>
</g>
<!-- Node5 -->
<g id="node6" class="node">
<title>Node5</title>
<g id="a_node6"><a xlink:href="../../d7/dfe/structo2_1_1mch_1_1raw_1_1WaitingSync.html" target="_top" xlink:title="{o2::mch::raw::WaitingSync\n||+ WaitingSync()\l}">
<polygon fill="none" stroke="#000000" points="512,-.5 512,-57.5 657,-57.5 657,-.5 512,-.5"/>
<text text-anchor="middle" x="584.5" y="-45.5" font-family="Helvetica,sans-Serif" font-size="10.00" fill="#000000">o2::mch::raw::WaitingSync</text>
<polyline fill="none" stroke="#000000" points="512,-38.5 657,-38.5 "/>
<text text-anchor="middle" x="584.5" y="-26.5" font-family="Helvetica,sans-Serif" font-size="10.00" fill="#000000"> </text>
<polyline fill="none" stroke="#000000" points="512,-19.5 657,-19.5 "/>
<text text-anchor="start" x="520" y="-7.5" font-family="Helvetica,sans-Serif" font-size="10.00" fill="#000000">+ WaitingSync()</text>
</a>
</g>
</g>
<!-- Node0&#45;&gt;Node5 -->
<g id="edge5" class="edge">
<title>Node0&#45;&gt;Node5</title>
<path fill="none" stroke="#191970" d="M481.1183,-88.9869C498.8933,-78.673 518.2286,-67.4538 535.3174,-57.538"/>
<polygon fill="none" stroke="#191970" points="478.8784,-86.24 471.9856,-94.2861 482.3916,-92.2946 478.8784,-86.24"/>
</g>
<!-- Node6 -->
<g id="node7" class="node">
<title>Node6</title>
<g id="a_node7"><a xlink:href="../../d7/df3/structo2_1_1mch_1_1raw_1_1WaitingTime.html" target="_top" xlink:title="{o2::mch::raw::WaitingTime\n||+ WaitingTime()\l}">
<polygon fill="none" stroke="#000000" points="675.5,-.5 675.5,-57.5 821.5,-57.5 821.5,-.5 675.5,-.5"/>
<text text-anchor="middle" x="748.5" y="-45.5" font-family="Helvetica,sans-Serif" font-size="10.00" fill="#000000">o2::mch::raw::WaitingTime</text>
<polyline fill="none" stroke="#000000" points="675.5,-38.5 821.5,-38.5 "/>
<text text-anchor="middle" x="748.5" y="-26.5" font-family="Helvetica,sans-Serif" font-size="10.00" fill="#000000"> </text>
<polyline fill="none" stroke="#000000" points="675.5,-19.5 821.5,-19.5 "/>
<text text-anchor="start" x="683.5" y="-7.5" font-family="Helvetica,sans-Serif" font-size="10.00" fill="#000000">+ WaitingTime()</text>
</a>
</g>
</g>
<!-- Node0&#45;&gt;Node6 -->
<g id="edge6" class="edge">
<title>Node0&#45;&gt;Node6</title>
<path fill="none" stroke="#191970" d="M505.4495,-102.6492C552.8777,-90.5782 613.3272,-74.4564 666.5,-58 669.385,-57.1071 672.3198,-56.1767 675.2788,-55.2202"/>
<polygon fill="none" stroke="#191970" points="504.3675,-99.3127 495.5338,-105.1622 506.0872,-106.0982 504.3675,-99.3127"/>
</g>
<!-- Node1 -->
<g id="node2" class="node">
<title>Node1</title>
<polygon fill="none" stroke="#bfbfbf" points="363.5,-188.5 363.5,-245.5 481.5,-245.5 481.5,-188.5 363.5,-188.5"/>
<text text-anchor="middle" x="422.5" y="-233.5" font-family="Helvetica,sans-Serif" font-size="10.00" fill="#000000">msm::front::state&lt;&gt;</text>
<polyline fill="none" stroke="#bfbfbf" points="363.5,-226.5 481.5,-226.5 "/>
<text text-anchor="middle" x="422.5" y="-214.5" font-family="Helvetica,sans-Serif" font-size="10.00" fill="#000000"> </text>
<polyline fill="none" stroke="#bfbfbf" points="363.5,-207.5 481.5,-207.5 "/>
<text text-anchor="middle" x="422.5" y="-195.5" font-family="Helvetica,sans-Serif" font-size="10.00" fill="#000000"> </text>
</g>
<!-- Node1&#45;&gt;Node0 -->
<g id="edge1" class="edge">
<title>Node1&#45;&gt;Node0</title>
<path fill="none" stroke="#191970" d="M422.5,-178.1035C422.5,-169.2052 422.5,-159.9073 422.5,-151.538"/>
<polygon fill="none" stroke="#191970" points="419.0001,-178.2861 422.5,-188.2861 426.0001,-178.2862 419.0001,-178.2861"/>
</g>
</g>
</svg>
        <g id="navigator" transform="translate(0 0)" fill="#404254">
                <rect fill="#f2f5e9" fill-opacity="0.5" stroke="#606060" stroke-width=".5" x="0" y="0" width="60" height="60"/>
                <use id="zoomplus" xlink:href="#zoomPlus" x="17" y="9" onmousedown="handleZoom(evt,'in')"/>
                <use id="zoomminus" xlink:href="#zoomMin" x="42" y="9" onmousedown="handleZoom(evt,'out')"/>
                <use id="reset" xlink:href="#resetDef" x="30" y="36" onmousedown="handleReset()"/>
                <g id="arrowUp" xlink:href="#dirArrow" transform="translate(30 24)" onmousedown="handlePan(0,-1)">
                  <use xlink:href="#rim" fill="#404040">
                        <set attributeName="fill" to="#808080" begin="arrowUp.mouseover" end="arrowUp.mouseout"/>
                  </use>
                  <path fill="none" stroke="white" stroke-width="1.5" d="M0,-3.0v7 M-2.5,-0.5L0,-3.0L2.5,-0.5"/>
                </g>
                <g id="arrowRight" xlink:href="#dirArrow" transform="rotate(90) translate(36 -43)" onmousedown="handlePan(1,0)">
                  <use xlink:href="#rim" fill="#404040">
                        <set attributeName="fill" to="#808080" begin="arrowRight.mouseover" end="arrowRight.mouseout"/>
                  </use>
                  <path fill="none" stroke="white" stroke-width="1.5" d="M0,-3.0v7 M-2.5,-0.5L0,-3.0L2.5,-0.5"/>
                </g>
                <g id="arrowDown" xlink:href="#dirArrow" transform="rotate(180) translate(-30 -48)" onmousedown="handlePan(0,1)">
                  <use xlink:href="#rim" fill="#404040">
                        <set attributeName="fill" to="#808080" begin="arrowDown.mouseover" end="arrowDown.mouseout"/>
                  </use>
                  <path fill="none" stroke="white" stroke-width="1.5" d="M0,-3.0v7 M-2.5,-0.5L0,-3.0L2.5,-0.5"/>
                </g>
                <g id="arrowLeft" xlink:href="#dirArrow" transform="rotate(270) translate(-36 17)" onmousedown="handlePan(-1,0)">
                  <use xlink:href="#rim" fill="#404040">
                        <set attributeName="fill" to="#808080" begin="arrowLeft.mouseover" end="arrowLeft.mouseout"/>
                  </use>
                  <path fill="none" stroke="white" stroke-width="1.5" d="M0,-3.0v7 M-2.5,-0.5L0,-3.0L2.5,-0.5"/>
                </g>
        </g>
        <svg viewBox="0 0 15 15" width="100%" height="30px" preserveAspectRatio="xMaxYMin meet">
         <g id="arrow_out" transform="scale(0.3 0.3)">
          <a xlink:href="structo2_1_1mch_1_1raw_1_1NamedState__inherit__graph_org.svg" target="_base">
           <rect id="button" ry="5" rx="5" y="6" x="6" height="38" width="38"
                fill="#f2f5e9" fill-opacity="0.5" stroke="#606060" stroke-width="1.0"/>
           <path id="arrow"
             d="M 11.500037,31.436501 C 11.940474,20.09759 22.043105,11.32322 32.158766,21.979434 L 37.068811,17.246167 C 37.068811,17.246167 37.088388,32 37.088388,32 L 22.160133,31.978069 C 22.160133,31.978069 26.997745,27.140456 26.997745,27.140456 C 18.528582,18.264221 13.291696,25.230495 11.500037,31.436501 z"
             style="fill:#404040;"/>
          </a>
         </g>
        </svg>
</svg>
