<?xml version="1.0" encoding="UTF-8" standalone="no"?>
<!DOCTYPE svg PUBLIC "-//W3C//DTD SVG 1.1//EN"
 "http://www.w3.org/Graphics/SVG/1.1/DTD/svg11.dtd">
<!-- Generated by graphviz version 2.40.1 (20161225.0304)
 -->
<!-- Title: GPUCA_NAMESPACE::gpu::SplineHelper1D::DataPoint Pages: 1 -->
<svg width="187pt" height="226pt"
 viewBox="0.00 0.00 187.00 226.00" xmlns="http://www.w3.org/2000/svg" xmlns:xlink="http://www.w3.org/1999/xlink">
<g id="graph0" class="graph" transform="scale(1 1) rotate(0) translate(4 222)">
<title>GPUCA_NAMESPACE::gpu::SplineHelper1D::DataPoint</title>
<!-- Node1 -->
<g id="node1" class="node">
<title>Node1</title>
<polygon fill="#bfbfbf" stroke="#000000" points="7,-.5 7,-68.5 159,-68.5 159,-.5 7,-.5"/>
<text text-anchor="start" x="15" y="-56.5" font-family="Helvetica,sans-Serif" font-size="10.00" fill="#000000">GPUCA_NAMESPACE::gpu</text>
<text text-anchor="middle" x="83" y="-45.5" font-family="Helvetica,sans-Serif" font-size="10.00" fill="#000000">::SplineHelper1D::DataPoint</text>
<polyline fill="none" stroke="#000000" points="7,-38.5 159,-38.5 "/>
<text text-anchor="middle" x="83" y="-26.5" font-family="Helvetica,sans-Serif" font-size="10.00" fill="#000000"> </text>
<polyline fill="none" stroke="#000000" points="7,-19.5 159,-19.5 "/>
<text text-anchor="middle" x="83" y="-7.5" font-family="Helvetica,sans-Serif" font-size="10.00" fill="#000000"> </text>
</g>
<!-- Node2 -->
<g id="node2" class="node">
<title>Node2</title>
<polygon fill="none" stroke="#bfbfbf" points="0,-160.5 0,-217.5 50,-217.5 50,-160.5 0,-160.5"/>
<text text-anchor="middle" x="25" y="-205.5" font-family="Helvetica,sans-Serif" font-size="10.00" fill="#000000">double</text>
<polyline fill="none" stroke="#bfbfbf" points="0,-198.5 50,-198.5 "/>
<text text-anchor="middle" x="25" y="-186.5" font-family="Helvetica,sans-Serif" font-size="10.00" fill="#000000"> </text>
<polyline fill="none" stroke="#bfbfbf" points="0,-179.5 50,-179.5 "/>
<text text-anchor="middle" x="25" y="-167.5" font-family="Helvetica,sans-Serif" font-size="10.00" fill="#000000"> </text>
</g>
<!-- Node2&#45;&gt;Node1 -->
<g id="edge1" class="edge">
<title>Node2&#45;&gt;Node1</title>
<path fill="none" stroke="#404040" d="M29.5307,-160.0729C33.4055,-139.2095 39.9709,-110.6708 50,-87 51.0578,-84.5033 52.227,-81.9896 53.4753,-79.4865"/>
<polygon fill="none" stroke="#404040" points="53.626,-79.2091 52.9761,-72.0273 59.3554,-68.6652 60.0053,-75.847 53.626,-79.2091"/>
<text text-anchor="middle" x="64.5" y="-134" font-family="Helvetica,sans-Serif" font-size="10.00" fill="#000000"> +cS0</text>
<text text-anchor="middle" x="64.5" y="-123" font-family="Helvetica,sans-Serif" font-size="10.00" fill="#000000">+cS1</text>
<text text-anchor="middle" x="64.5" y="-112" font-family="Helvetica,sans-Serif" font-size="10.00" fill="#000000">+u</text>
<text text-anchor="middle" x="64.5" y="-101" font-family="Helvetica,sans-Serif" font-size="10.00" fill="#000000">+cZ0</text>
<text text-anchor="middle" x="64.5" y="-90" font-family="Helvetica,sans-Serif" font-size="10.00" fill="#000000">+cZ1</text>
</g>
<!-- Node3 -->
<g id="node3" class="node">
<title>Node3</title>
<polygon fill="none" stroke="#bfbfbf" points="68.5,-160.5 68.5,-217.5 97.5,-217.5 97.5,-160.5 68.5,-160.5"/>
<text text-anchor="middle" x="83" y="-205.5" font-family="Helvetica,sans-Serif" font-size="10.00" fill="#000000">int</text>
<polyline fill="none" stroke="#bfbfbf" points="68.5,-198.5 97.5,-198.5 "/>
<text text-anchor="middle" x="83" y="-186.5" font-family="Helvetica,sans-Serif" font-size="10.00" fill="#000000"> </text>
<polyline fill="none" stroke="#bfbfbf" points="68.5,-179.5 97.5,-179.5 "/>
<text text-anchor="middle" x="83" y="-167.5" font-family="Helvetica,sans-Serif" font-size="10.00" fill="#000000"> </text>
</g>
<!-- Node3&#45;&gt;Node1 -->
<g id="edge2" class="edge">
<title>Node3&#45;&gt;Node1</title>
<path fill="none" stroke="#404040" d="M83,-160.3018C83,-138.0285 83,-106.6993 83,-80.878"/>
<polygon fill="none" stroke="#404040" points="83.0001,-80.7084 79,-74.7085 83,-68.7084 87,-74.7084 83.0001,-80.7084"/>
<text text-anchor="middle" x="101.5" y="-112" font-family="Helvetica,sans-Serif" font-size="10.00" fill="#000000"> +iKnot</text>
</g>
<!-- Node4 -->
<g id="node4" class="node">
<title>Node4</title>
<polygon fill="none" stroke="#bfbfbf" points="124,-160.5 124,-217.5 162,-217.5 162,-160.5 124,-160.5"/>
<text text-anchor="middle" x="143" y="-205.5" font-family="Helvetica,sans-Serif" font-size="10.00" fill="#000000">bool</text>
<polyline fill="none" stroke="#bfbfbf" points="124,-198.5 162,-198.5 "/>
<text text-anchor="middle" x="143" y="-186.5" font-family="Helvetica,sans-Serif" font-size="10.00" fill="#000000"> </text>
<polyline fill="none" stroke="#bfbfbf" points="124,-179.5 162,-179.5 "/>
<text text-anchor="middle" x="143" y="-167.5" font-family="Helvetica,sans-Serif" font-size="10.00" fill="#000000"> </text>
</g>
<!-- Node4&#45;&gt;Node1 -->
<g id="edge3" class="edge">
<title>Node4&#45;&gt;Node1</title>
<path fill="none" stroke="#404040" d="M140.0304,-160.3105C137.1,-139.3074 131.477,-110.4938 121,-87 119.8207,-84.3555 118.4945,-81.7122 117.0628,-79.0965"/>
<polygon fill="none" stroke="#404040" points="116.9034,-78.8329 110.3745,-75.7711 110.6897,-68.5669 117.2186,-71.6287 116.9034,-78.8329"/>
<text text-anchor="middle" x="157.5" y="-112" font-family="Helvetica,sans-Serif" font-size="10.00" fill="#000000"> +isKnot</text>
</g>
</g>
</svg>
