<?xml version="1.0" encoding="UTF-8" standalone="no"?>
<!DOCTYPE svg PUBLIC "-//W3C//DTD SVG 1.1//EN"
 "http://www.w3.org/Graphics/SVG/1.1/DTD/svg11.dtd">
<!-- Generated by graphviz version 2.40.1 (20161225.0304)
 -->
<!-- Title: /home/travis/build/AliceO2Group/AliceO2/Framework/Core/include/Framework/TMessageSerializer.h Pages: 1 -->
<!--zoomable 184 -->
<svg id="main" version="1.1" xmlns="http://www.w3.org/2000/svg" xmlns:xlink="http://www.w3.org/1999/xlink" xml:space="preserve" onload="init(evt)">
<style type="text/css"><![CDATA[
.edge:hover path { stroke: red; }
.edge:hover polygon { stroke: red; fill: red; }
]]></style>
<script type="text/javascript"><![CDATA[
var edges = document.getElementsByTagName('g');
if (edges && edges.length) {
  for (var i=0;i<edges.length;i++) {
    if (edges[i].id.substr(0,4)=='edge') {
      edges[i].setAttribute('class','edge');
    }
  }
}
]]></script>
        <defs>
                <circle id="rim" cx="0" cy="0" r="7"/>
                <circle id="rim2" cx="0" cy="0" r="3.5"/>
                <g id="zoomPlus">
                        <use xlink:href="#rim" fill="#404040">
                                <set attributeName="fill" to="#808080" begin="zoomplus.mouseover" end="zoomplus.mouseout"/>
                        </use>
                        <path d="M-4,0h8M0,-4v8" fill="none" stroke="white" stroke-width="1.5" pointer-events="none"/>
                </g>
                <g id="zoomMin">
                        <use xlink:href="#rim" fill="#404040">
                                <set attributeName="fill" to="#808080" begin="zoomminus.mouseover" end="zoomminus.mouseout"/>
                        </use>
                        <path d="M-4,0h8" fill="none" stroke="white" stroke-width="1.5" pointer-events="none"/>
                </g>
                <g id="dirArrow">
                        <path fill="none" stroke="white" stroke-width="1.5" d="M0,-3.0v7 M-2.5,-0.5L0,-3.0L2.5,-0.5"/>
                </g>
               <g id="resetDef">
                       <use xlink:href="#rim2" fill="#404040">
                               <set attributeName="fill" to="#808080" begin="reset.mouseover" end="reset.mouseout"/>
                       </use>
               </g>
        </defs>

<script type="text/javascript">
var viewWidth = 1836;
var viewHeight = 184;
var sectionId = 'dynsection-0';
</script>
<script xlink:href="../../svgpan.js"/>
<svg id="graph" class="graph">
<g id="viewport">
<title>/home/travis/build/AliceO2Group/AliceO2/Framework/Core/include/Framework/TMessageSerializer.h</title>
<!-- Node0 -->
<g id="node1" class="node">
<title>Node0</title>
<polygon fill="#bfbfbf" stroke="#000000" points="414,-123.5 414,-175.5 593,-175.5 593,-123.5 414,-123.5"/>
<text text-anchor="start" x="422" y="-163.5" font-family="Helvetica,sans-Serif" font-size="10.00" fill="#000000">/home/travis/build</text>
<text text-anchor="start" x="422" y="-152.5" font-family="Helvetica,sans-Serif" font-size="10.00" fill="#000000">/AliceO2Group/AliceO2</text>
<text text-anchor="start" x="422" y="-141.5" font-family="Helvetica,sans-Serif" font-size="10.00" fill="#000000">/Framework/Core/include</text>
<text text-anchor="middle" x="503.5" y="-130.5" font-family="Helvetica,sans-Serif" font-size="10.00" fill="#000000">/Framework/TMessageSerializer.h</text>
</g>
<!-- Node1 -->
<g id="node2" class="node">
<title>Node1</title>
<polygon fill="none" stroke="#bfbfbf" points="0,-67.5 0,-86.5 137,-86.5 137,-67.5 0,-67.5"/>
<text text-anchor="middle" x="68.5" y="-74.5" font-family="Helvetica,sans-Serif" font-size="10.00" fill="#000000">fairmq/FairMQMessage.h</text>
</g>
<!-- Node0&#45;&gt;Node1 -->
<g id="edge1" class="edge">
<title>Node0&#45;&gt;Node1</title>
<path fill="none" stroke="#191970" d="M413.8952,-134.5659C331.3502,-120.8084 210.688,-100.698 136.0101,-88.2517"/>
<polygon fill="#191970" stroke="#191970" points="136.226,-84.7395 125.7867,-86.5478 135.0752,-91.6442 136.226,-84.7395"/>
</g>
<!-- Node2 -->
<g id="node3" class="node">
<title>Node2</title>
<polygon fill="none" stroke="#bfbfbf" points="155,-67.5 155,-86.5 204,-86.5 204,-67.5 155,-67.5"/>
<text text-anchor="middle" x="179.5" y="-74.5" font-family="Helvetica,sans-Serif" font-size="10.00" fill="#000000">TList.h</text>
</g>
<!-- Node0&#45;&gt;Node2 -->
<g id="edge2" class="edge">
<title>Node0&#45;&gt;Node2</title>
<path fill="none" stroke="#191970" d="M413.9354,-131.9753C358.8908,-120.7862 286.769,-105.3786 214.1122,-87.0213"/>
<polygon fill="#191970" stroke="#191970" points="214.8784,-83.6048 204.3241,-84.5309 213.1523,-90.3886 214.8784,-83.6048"/>
</g>
<!-- Node3 -->
<g id="node4" class="node">
<title>Node3</title>
<polygon fill="none" stroke="#bfbfbf" points="222.5,-67.5 222.5,-86.5 296.5,-86.5 296.5,-67.5 222.5,-67.5"/>
<text text-anchor="middle" x="259.5" y="-74.5" font-family="Helvetica,sans-Serif" font-size="10.00" fill="#000000">TMessage.h</text>
</g>
<!-- Node0&#45;&gt;Node3 -->
<g id="edge3" class="edge">
<title>Node0&#45;&gt;Node3</title>
<path fill="none" stroke="#191970" d="M415.7551,-123.4283C376.7976,-111.8528 332.7689,-98.7705 301.4003,-89.4499"/>
<polygon fill="#191970" stroke="#191970" points="302.2657,-86.0559 291.683,-86.5626 300.2719,-92.7659 302.2657,-86.0559"/>
</g>
<!-- Node4 -->
<g id="node5" class="node">
<title>Node4</title>
<polygon fill="none" stroke="#bfbfbf" points="315,-67.5 315,-86.5 388,-86.5 388,-67.5 315,-67.5"/>
<text text-anchor="middle" x="351.5" y="-74.5" font-family="Helvetica,sans-Serif" font-size="10.00" fill="#000000">TObjArray.h</text>
</g>
<!-- Node0&#45;&gt;Node4 -->
<g id="edge4" class="edge">
<title>Node0&#45;&gt;Node4</title>
<path fill="none" stroke="#191970" d="M448.6245,-123.3258C425.6368,-112.3613 399.8482,-100.0608 380.6246,-90.8917"/>
<polygon fill="#191970" stroke="#191970" points="382.0212,-87.6801 371.4885,-86.534 379.0076,-93.9982 382.0212,-87.6801"/>
</g>
<!-- Node5 -->
<g id="node6" class="node">
<title>Node5</title>
<polygon fill="none" stroke="#bfbfbf" points="406,-67.5 406,-86.5 501,-86.5 501,-67.5 406,-67.5"/>
<text text-anchor="middle" x="453.5" y="-74.5" font-family="Helvetica,sans-Serif" font-size="10.00" fill="#000000">TStreamerInfo.h</text>
</g>
<!-- Node0&#45;&gt;Node5 -->
<g id="edge5" class="edge">
<title>Node0&#45;&gt;Node5</title>
<path fill="none" stroke="#191970" d="M485.4489,-123.3258C478.9575,-113.9134 471.7872,-103.5164 465.8869,-94.961"/>
<polygon fill="#191970" stroke="#191970" points="468.6338,-92.7791 460.0752,-86.534 462.8713,-96.7532 468.6338,-92.7791"/>
</g>
<!-- Node6 -->
<g id="node7" class="node">
<title>Node6</title>
<polygon fill="none" stroke="#bfbfbf" points="519,-67.5 519,-86.5 588,-86.5 588,-67.5 519,-67.5"/>
<text text-anchor="middle" x="553.5" y="-74.5" font-family="Helvetica,sans-Serif" font-size="10.00" fill="#000000">gsl/gsl_util</text>
</g>
<!-- Node0&#45;&gt;Node6 -->
<g id="edge6" class="edge">
<title>Node0&#45;&gt;Node6</title>
<path fill="none" stroke="#191970" d="M521.5511,-123.3258C528.0425,-113.9134 535.2128,-103.5164 541.1131,-94.961"/>
<polygon fill="#191970" stroke="#191970" points="544.1287,-96.7532 546.9248,-86.534 538.3662,-92.7791 544.1287,-96.7532"/>
</g>
<!-- Node7 -->
<g id="node8" class="node">
<title>Node7</title>
<polygon fill="none" stroke="#bfbfbf" points="606,-67.5 606,-86.5 663,-86.5 663,-67.5 606,-67.5"/>
<text text-anchor="middle" x="634.5" y="-74.5" font-family="Helvetica,sans-Serif" font-size="10.00" fill="#000000">gsl/span</text>
</g>
<!-- Node0&#45;&gt;Node7 -->
<g id="edge7" class="edge">
<title>Node0&#45;&gt;Node7</title>
<path fill="none" stroke="#191970" d="M550.794,-123.3258C570.1534,-112.6116 591.8178,-100.6218 608.2556,-91.5246"/>
<polygon fill="#191970" stroke="#191970" points="610.2184,-94.4386 617.273,-86.534 606.8288,-88.314 610.2184,-94.4386"/>
</g>
<!-- Node8 -->
<g id="node9" class="node">
<title>Node8</title>
<polygon fill="none" stroke="#bfbfbf" points="681.5,-67.5 681.5,-86.5 739.5,-86.5 739.5,-67.5 681.5,-67.5"/>
<text text-anchor="middle" x="710.5" y="-74.5" font-family="Helvetica,sans-Serif" font-size="10.00" fill="#000000">memory</text>
</g>
<!-- Node0&#45;&gt;Node8 -->
<g id="edge8" class="edge">
<title>Node0&#45;&gt;Node8</title>
<path fill="none" stroke="#191970" d="M577.9393,-123.4283C610.4171,-112.0532 647.0493,-99.2231 673.5614,-89.9374"/>
<polygon fill="#191970" stroke="#191970" points="674.9163,-93.1714 683.1972,-86.5626 672.6023,-86.5649 674.9163,-93.1714"/>
</g>
<!-- Node9 -->
<g id="node10" class="node">
<title>Node9</title>
<polygon fill="none" stroke="#bfbfbf" points="757.5,-67.5 757.5,-86.5 805.5,-86.5 805.5,-67.5 757.5,-67.5"/>
<text text-anchor="middle" x="781.5" y="-74.5" font-family="Helvetica,sans-Serif" font-size="10.00" fill="#000000">mutex</text>
</g>
<!-- Node0&#45;&gt;Node9 -->
<g id="edge9" class="edge">
<title>Node0&#45;&gt;Node9</title>
<path fill="none" stroke="#191970" d="M593.0675,-127.666C637.0249,-116.7081 690.9582,-102.906 747.5403,-87.1892"/>
<polygon fill="#191970" stroke="#191970" points="748.694,-90.5011 757.3856,-84.4425 746.8128,-83.7586 748.694,-90.5011"/>
</g>
<!-- Node10 -->
<g id="node11" class="node">
<title>Node10</title>
<g id="a_node11"><a xlink:href="../../dc/d03/MemoryResources_8h.html" target="_top" xlink:title="MemoryResources/MemoryResources.h">
<polygon fill="none" stroke="#000000" points="824,-67.5 824,-86.5 1031,-86.5 1031,-67.5 824,-67.5"/>
<text text-anchor="middle" x="927.5" y="-74.5" font-family="Helvetica,sans-Serif" font-size="10.00" fill="#000000">MemoryResources/MemoryResources.h</text>
</a>
</g>
</g>
<!-- Node0&#45;&gt;Node10 -->
<g id="edge10" class="edge">
<title>Node0&#45;&gt;Node10</title>
<path fill="none" stroke="#191970" d="M593.1603,-134.1689C673.586,-120.4169 789.7237,-100.5584 861.8081,-88.2327"/>
<polygon fill="#191970" stroke="#191970" points="862.4118,-91.6804 871.6788,-86.5449 861.2319,-84.7805 862.4118,-91.6804"/>
</g>
<!-- Node11 -->
<g id="node12" class="node">
<title>Node11</title>
<polygon fill="none" stroke="#bfbfbf" points="54,-.5 54,-30.5 165,-30.5 165,-.5 54,-.5"/>
<text text-anchor="start" x="62" y="-18.5" font-family="Helvetica,sans-Serif" font-size="10.00" fill="#000000">boost/container/flat</text>
<text text-anchor="middle" x="109.5" y="-7.5" font-family="Helvetica,sans-Serif" font-size="10.00" fill="#000000">_map.hpp</text>
</g>
<!-- Node10&#45;&gt;Node11 -->
<g id="edge11" class="edge">
<title>Node10&#45;&gt;Node11</title>
<path fill="none" stroke="#191970" d="M823.7542,-67.6885C820.635,-67.4503 817.5447,-67.2202 814.5,-67 533.2403,-46.6621 457.5329,-72.1429 175.3562,-31.1153"/>
<polygon fill="#191970" stroke="#191970" points="175.6331,-27.6185 165.2305,-29.6276 174.6155,-34.5442 175.6331,-27.6185"/>
</g>
<!-- Node12 -->
<g id="node13" class="node">
<title>Node12</title>
<polygon fill="none" stroke="#bfbfbf" points="183,-.5 183,-30.5 312,-30.5 312,-.5 183,-.5"/>
<text text-anchor="start" x="191" y="-18.5" font-family="Helvetica,sans-Serif" font-size="10.00" fill="#000000">boost/container/pmr</text>
<text text-anchor="middle" x="247.5" y="-7.5" font-family="Helvetica,sans-Serif" font-size="10.00" fill="#000000">/memory_resource.hpp</text>
</g>
<!-- Node10&#45;&gt;Node12 -->
<g id="edge12" class="edge">
<title>Node10&#45;&gt;Node12</title>
<path fill="none" stroke="#191970" d="M823.749,-67.7555C820.6314,-67.4979 817.5428,-67.2455 814.5,-67 598.3966,-49.5647 540.2051,-61.5575 322.4514,-31.1692"/>
<polygon fill="#191970" stroke="#191970" points="322.6877,-27.6679 312.297,-29.7377 321.7105,-34.5994 322.6877,-27.6679"/>
</g>
<!-- Node13 -->
<g id="node14" class="node">
<title>Node13</title>
<polygon fill="none" stroke="#bfbfbf" points="330,-.5 330,-30.5 503,-30.5 503,-.5 330,-.5"/>
<text text-anchor="start" x="338" y="-18.5" font-family="Helvetica,sans-Serif" font-size="10.00" fill="#000000">boost/container/pmr</text>
<text text-anchor="middle" x="416.5" y="-7.5" font-family="Helvetica,sans-Serif" font-size="10.00" fill="#000000">/monotonic_buffer_resource.hpp</text>
</g>
<!-- Node10&#45;&gt;Node13 -->
<g id="edge13" class="edge">
<title>Node10&#45;&gt;Node13</title>
<path fill="none" stroke="#191970" d="M828.14,-67.4682C746.2224,-59.2717 626.735,-46.5425 513.4342,-31.2277"/>
<polygon fill="#191970" stroke="#191970" points="513.5743,-27.7146 503.1936,-29.834 512.6303,-34.6506 513.5743,-27.7146"/>
</g>
<!-- Node14 -->
<g id="node15" class="node">
<title>Node14</title>
<polygon fill="none" stroke="#bfbfbf" points="521,-.5 521,-30.5 670,-30.5 670,-.5 521,-.5"/>
<text text-anchor="start" x="529" y="-18.5" font-family="Helvetica,sans-Serif" font-size="10.00" fill="#000000">boost/container/pmr</text>
<text text-anchor="middle" x="595.5" y="-7.5" font-family="Helvetica,sans-Serif" font-size="10.00" fill="#000000">/polymorphic_allocator.hpp</text>
</g>
<!-- Node10&#45;&gt;Node14 -->
<g id="edge14" class="edge">
<title>Node10&#45;&gt;Node14</title>
<path fill="none" stroke="#191970" d="M875.5118,-67.4261C827.2993,-58.5407 753.273,-44.8805 680.0157,-31.2799"/>
<polygon fill="#191970" stroke="#191970" points="680.6264,-27.8335 670.1554,-29.4487 679.3482,-34.7158 680.6264,-27.8335"/>
</g>
<!-- Node15 -->
<g id="node16" class="node">
<title>Node15</title>
<polygon fill="none" stroke="#bfbfbf" points="687.5,-6 687.5,-25 737.5,-25 737.5,-6 687.5,-6"/>
<text text-anchor="middle" x="712.5" y="-13" font-family="Helvetica,sans-Serif" font-size="10.00" fill="#000000">cstring</text>
</g>
<!-- Node10&#45;&gt;Node15 -->
<g id="edge15" class="edge">
<title>Node10&#45;&gt;Node15</title>
<path fill="none" stroke="#191970" d="M880.3173,-67.4386C843.3856,-59.3757 791.0009,-46.6568 746.5,-31 744.8592,-30.4227 743.1891,-29.7963 741.5139,-29.1375"/>
<polygon fill="#191970" stroke="#191970" points="742.6047,-25.7986 732.0313,-25.1243 739.8764,-32.2451 742.6047,-25.7986"/>
</g>
<!-- Node16 -->
<g id="node17" class="node">
<title>Node16</title>
<polygon fill="none" stroke="#bfbfbf" points="755.5,-6 755.5,-25 799.5,-25 799.5,-6 755.5,-6"/>
<text text-anchor="middle" x="777.5" y="-13" font-family="Helvetica,sans-Serif" font-size="10.00" fill="#000000">string</text>
</g>
<!-- Node10&#45;&gt;Node16 -->
<g id="edge16" class="edge">
<title>Node10&#45;&gt;Node16</title>
<path fill="none" stroke="#191970" d="M901.0104,-67.3602C876.9333,-58.4364 840.5359,-44.5405 809.5,-31 808.3224,-30.4863 807.1248,-29.9536 805.9183,-29.4085"/>
<polygon fill="#191970" stroke="#191970" points="807.2176,-26.1525 796.6758,-25.0936 804.2564,-32.4953 807.2176,-26.1525"/>
</g>
<!-- Node17 -->
<g id="node18" class="node">
<title>Node17</title>
<polygon fill="none" stroke="#bfbfbf" points="818,-6 818,-25 887,-25 887,-6 818,-6"/>
<text text-anchor="middle" x="852.5" y="-13" font-family="Helvetica,sans-Serif" font-size="10.00" fill="#000000">type_traits</text>
</g>
<!-- Node10&#45;&gt;Node17 -->
<g id="edge17" class="edge">
<title>Node10&#45;&gt;Node17</title>
<path fill="none" stroke="#191970" d="M915.7813,-67.3906C904.1812,-57.8786 886.2021,-43.1357 872.3679,-31.7917"/>
<polygon fill="#191970" stroke="#191970" points="874.336,-28.8792 864.384,-25.2449 869.8974,-34.2921 874.336,-28.8792"/>
</g>
<!-- Node18 -->
<g id="node19" class="node">
<title>Node18</title>
<polygon fill="none" stroke="#bfbfbf" points="905,-6 905,-25 950,-25 950,-6 905,-6"/>
<text text-anchor="middle" x="927.5" y="-13" font-family="Helvetica,sans-Serif" font-size="10.00" fill="#000000">utility</text>
</g>
<!-- Node10&#45;&gt;Node18 -->
<g id="edge18" class="edge">
<title>Node10&#45;&gt;Node18</title>
<path fill="none" stroke="#191970" d="M927.5,-67.3906C927.5,-58.8657 927.5,-46.1392 927.5,-35.4235"/>
<polygon fill="#191970" stroke="#191970" points="931.0001,-35.2448 927.5,-25.2449 924.0001,-35.2449 931.0001,-35.2448"/>
</g>
<!-- Node19 -->
<g id="node20" class="node">
<title>Node19</title>
<polygon fill="none" stroke="#bfbfbf" points="968,-6 968,-25 1015,-25 1015,-6 968,-6"/>
<text text-anchor="middle" x="991.5" y="-13" font-family="Helvetica,sans-Serif" font-size="10.00" fill="#000000">vector</text>
</g>
<!-- Node10&#45;&gt;Node19 -->
<g id="edge19" class="edge">
<title>Node10&#45;&gt;Node19</title>
<path fill="none" stroke="#191970" d="M937.5,-67.3906C947.2119,-58.0581 962.1639,-43.6902 973.8741,-32.4374"/>
<polygon fill="#191970" stroke="#191970" points="976.5736,-34.6974 981.359,-25.2449 971.7234,-29.65 976.5736,-34.6974"/>
</g>
<!-- Node20 -->
<g id="node21" class="node">
<title>Node20</title>
<polygon fill="none" stroke="#bfbfbf" points="1033,-6 1033,-25 1126,-25 1126,-6 1033,-6"/>
<text text-anchor="middle" x="1079.5" y="-13" font-family="Helvetica,sans-Serif" font-size="10.00" fill="#000000">unordered_map</text>
</g>
<!-- Node10&#45;&gt;Node20 -->
<g id="edge20" class="edge">
<title>Node10&#45;&gt;Node20</title>
<path fill="none" stroke="#191970" d="M951.25,-67.3906C976.7939,-57.0554 1017.6009,-40.5447 1046.311,-28.9284"/>
<polygon fill="#191970" stroke="#191970" points="1047.9596,-32.0371 1055.9168,-25.0419 1045.334,-25.5481 1047.9596,-32.0371"/>
</g>
<!-- Node21 -->
<g id="node22" class="node">
<title>Node21</title>
<polygon fill="none" stroke="#bfbfbf" points="1144,-6 1144,-25 1245,-25 1245,-6 1144,-6"/>
<text text-anchor="middle" x="1194.5" y="-13" font-family="Helvetica,sans-Serif" font-size="10.00" fill="#000000">FairMQMessage.h</text>
</g>
<!-- Node10&#45;&gt;Node21 -->
<g id="edge21" class="edge">
<title>Node10&#45;&gt;Node21</title>
<path fill="none" stroke="#191970" d="M973.0632,-67.4616C1015.2834,-58.4956 1079.7815,-44.4746 1135.5,-31 1139.9039,-29.935 1144.4835,-28.7931 1149.0573,-27.6297"/>
<polygon fill="#191970" stroke="#191970" points="1150.1797,-30.9549 1158.9899,-25.0701 1148.4328,-24.1763 1150.1797,-30.9549"/>
</g>
<!-- Node22 -->
<g id="node23" class="node">
<title>Node22</title>
<polygon fill="none" stroke="#bfbfbf" points="1263,-6 1263,-25 1400,-25 1400,-6 1263,-6"/>
<text text-anchor="middle" x="1331.5" y="-13" font-family="Helvetica,sans-Serif" font-size="10.00" fill="#000000">FairMQTransportFactory.h</text>
</g>
<!-- Node10&#45;&gt;Node22 -->
<g id="edge22" class="edge">
<title>Node10&#45;&gt;Node22</title>
<path fill="none" stroke="#191970" d="M1004.3403,-67.4895C1070.7329,-58.9622 1169.1682,-45.5775 1254.5,-31 1261.6156,-29.7844 1269.0809,-28.4088 1276.4471,-26.9913"/>
<polygon fill="#191970" stroke="#191970" points="1277.2479,-30.401 1286.3883,-25.0434 1275.9019,-23.5316 1277.2479,-30.401"/>
</g>
<!-- Node23 -->
<g id="node24" class="node">
<title>Node23</title>
<polygon fill="none" stroke="#bfbfbf" points="1418.5,-6 1418.5,-25 1568.5,-25 1568.5,-6 1418.5,-6"/>
<text text-anchor="middle" x="1493.5" y="-13" font-family="Helvetica,sans-Serif" font-size="10.00" fill="#000000">fairmq/MemoryResources.h</text>
</g>
<!-- Node10&#45;&gt;Node23 -->
<g id="edge23" class="edge">
<title>Node10&#45;&gt;Node23</title>
<path fill="none" stroke="#191970" d="M1031.2319,-69.7323C1129.0515,-62.2568 1279.6265,-49.1443 1409.5,-31 1417.945,-29.8202 1426.834,-28.3884 1435.5417,-26.8773"/>
<polygon fill="#191970" stroke="#191970" points="1436.4119,-30.2775 1445.6429,-25.0774 1435.1839,-23.386 1436.4119,-30.2775"/>
</g>
<!-- Node24 -->
<g id="node25" class="node">
<title>Node24</title>
<polygon fill="none" stroke="#bfbfbf" points="1586.5,-6 1586.5,-25 1756.5,-25 1756.5,-6 1586.5,-6"/>
<text text-anchor="middle" x="1671.5" y="-13" font-family="Helvetica,sans-Serif" font-size="10.00" fill="#000000">fairmq/MemoryResourceTools.h</text>
</g>
<!-- Node10&#45;&gt;Node24 -->
<g id="edge24" class="edge">
<title>Node10&#45;&gt;Node24</title>
<path fill="none" stroke="#191970" d="M1031.0661,-72.6383C1159.5669,-66.544 1385.2316,-53.6059 1577.5,-31 1587.7076,-29.7998 1598.4983,-28.2691 1608.9876,-26.6389"/>
<polygon fill="#191970" stroke="#191970" points="1609.5997,-30.0855 1618.923,-25.053 1608.4963,-23.173 1609.5997,-30.0855"/>
</g>
<!-- Node25 -->
<g id="node26" class="node">
<title>Node25</title>
<g id="a_node26"><a xlink:href="../../d7/df8/Types_8h.html" target="_top" xlink:title="Types.h">
<polygon fill="none" stroke="#000000" points="1775,-6 1775,-25 1828,-25 1828,-6 1775,-6"/>
<text text-anchor="middle" x="1801.5" y="-13" font-family="Helvetica,sans-Serif" font-size="10.00" fill="#000000">Types.h</text>
</a>
</g>
</g>
<!-- Node10&#45;&gt;Node25 -->
<g id="edge25" class="edge">
<title>Node10&#45;&gt;Node25</title>
<path fill="none" stroke="#191970" d="M1031.0261,-75.8381C1223.4111,-72.9313 1628.8857,-63.0885 1765.5,-31 1767.9924,-30.4146 1770.5299,-29.6664 1773.0452,-28.816"/>
<polygon fill="#191970" stroke="#191970" points="1774.4335,-32.0317 1782.4953,-25.1573 1771.9062,-25.5039 1774.4335,-32.0317"/>
</g>
</g>
</svg>
        <g id="navigator" transform="translate(0 0)" fill="#404254">
                <rect fill="#f2f5e9" fill-opacity="0.5" stroke="#606060" stroke-width=".5" x="0" y="0" width="60" height="60"/>
                <use id="zoomplus" xlink:href="#zoomPlus" x="17" y="9" onmousedown="handleZoom(evt,'in')"/>
                <use id="zoomminus" xlink:href="#zoomMin" x="42" y="9" onmousedown="handleZoom(evt,'out')"/>
                <use id="reset" xlink:href="#resetDef" x="30" y="36" onmousedown="handleReset()"/>
                <g id="arrowUp" xlink:href="#dirArrow" transform="translate(30 24)" onmousedown="handlePan(0,-1)">
                  <use xlink:href="#rim" fill="#404040">
                        <set attributeName="fill" to="#808080" begin="arrowUp.mouseover" end="arrowUp.mouseout"/>
                  </use>
                  <path fill="none" stroke="white" stroke-width="1.5" d="M0,-3.0v7 M-2.5,-0.5L0,-3.0L2.5,-0.5"/>
                </g>
                <g id="arrowRight" xlink:href="#dirArrow" transform="rotate(90) translate(36 -43)" onmousedown="handlePan(1,0)">
                  <use xlink:href="#rim" fill="#404040">
                        <set attributeName="fill" to="#808080" begin="arrowRight.mouseover" end="arrowRight.mouseout"/>
                  </use>
                  <path fill="none" stroke="white" stroke-width="1.5" d="M0,-3.0v7 M-2.5,-0.5L0,-3.0L2.5,-0.5"/>
                </g>
                <g id="arrowDown" xlink:href="#dirArrow" transform="rotate(180) translate(-30 -48)" onmousedown="handlePan(0,1)">
                  <use xlink:href="#rim" fill="#404040">
                        <set attributeName="fill" to="#808080" begin="arrowDown.mouseover" end="arrowDown.mouseout"/>
                  </use>
                  <path fill="none" stroke="white" stroke-width="1.5" d="M0,-3.0v7 M-2.5,-0.5L0,-3.0L2.5,-0.5"/>
                </g>
                <g id="arrowLeft" xlink:href="#dirArrow" transform="rotate(270) translate(-36 17)" onmousedown="handlePan(-1,0)">
                  <use xlink:href="#rim" fill="#404040">
                        <set attributeName="fill" to="#808080" begin="arrowLeft.mouseover" end="arrowLeft.mouseout"/>
                  </use>
                  <path fill="none" stroke="white" stroke-width="1.5" d="M0,-3.0v7 M-2.5,-0.5L0,-3.0L2.5,-0.5"/>
                </g>
        </g>
        <svg viewBox="0 0 15 15" width="100%" height="30px" preserveAspectRatio="xMaxYMin meet">
         <g id="arrow_out" transform="scale(0.3 0.3)">
          <a xlink:href="TMessageSerializer_8h__incl_org.svg" target="_base">
           <rect id="button" ry="5" rx="5" y="6" x="6" height="38" width="38"
                fill="#f2f5e9" fill-opacity="0.5" stroke="#606060" stroke-width="1.0"/>
           <path id="arrow"
             d="M 11.500037,31.436501 C 11.940474,20.09759 22.043105,11.32322 32.158766,21.979434 L 37.068811,17.246167 C 37.068811,17.246167 37.088388,32 37.088388,32 L 22.160133,31.978069 C 22.160133,31.978069 26.997745,27.140456 26.997745,27.140456 C 18.528582,18.264221 13.291696,25.230495 11.500037,31.436501 z"
             style="fill:#404040;"/>
          </a>
         </g>
        </svg>
</svg>
