<?xml version="1.0" encoding="UTF-8" standalone="no"?>
<!DOCTYPE svg PUBLIC "-//W3C//DTD SVG 1.1//EN"
 "http://www.w3.org/Graphics/SVG/1.1/DTD/svg11.dtd">
<!-- Generated by graphviz version 2.40.1 (20161225.0304)
 -->
<!-- Title: /home/travis/build/AliceO2Group/AliceO2/Detectors/MUON/MCH/Tracking/src/TrackExtrap.cxx Pages: 1 -->
<svg width="956pt" height="229pt"
 viewBox="0.00 0.00 955.50 229.00" xmlns="http://www.w3.org/2000/svg" xmlns:xlink="http://www.w3.org/1999/xlink">
<g id="graph0" class="graph" transform="scale(1 1) rotate(0) translate(4 225)">
<title>/home/travis/build/AliceO2Group/AliceO2/Detectors/MUON/MCH/Tracking/src/TrackExtrap.cxx</title>
<!-- Node0 -->
<g id="node1" class="node">
<title>Node0</title>
<polygon fill="#bfbfbf" stroke="#000000" points="417.5,-168.5 417.5,-220.5 587.5,-220.5 587.5,-168.5 417.5,-168.5"/>
<text text-anchor="start" x="425.5" y="-208.5" font-family="Helvetica,sans-Serif" font-size="10.00" fill="#000000">/home/travis/build</text>
<text text-anchor="start" x="425.5" y="-197.5" font-family="Helvetica,sans-Serif" font-size="10.00" fill="#000000">/AliceO2Group/AliceO2</text>
<text text-anchor="start" x="425.5" y="-186.5" font-family="Helvetica,sans-Serif" font-size="10.00" fill="#000000">/Detectors/MUON/MCH/Tracking</text>
<text text-anchor="middle" x="502.5" y="-175.5" font-family="Helvetica,sans-Serif" font-size="10.00" fill="#000000">/src/TrackExtrap.cxx</text>
</g>
<!-- Node1 -->
<g id="node2" class="node">
<title>Node1</title>
<g id="a_node2"><a xlink:href="../../d8/d9c/TrackExtrap_8h.html" target="_top" xlink:title="Definition of tools for track extrapolation. ">
<polygon fill="none" stroke="#000000" points="0,-112.5 0,-131.5 83,-131.5 83,-112.5 0,-112.5"/>
<text text-anchor="middle" x="41.5" y="-119.5" font-family="Helvetica,sans-Serif" font-size="10.00" fill="#000000">TrackExtrap.h</text>
</a>
</g>
</g>
<!-- Node0&#45;&gt;Node1 -->
<g id="edge1" class="edge">
<title>Node0&#45;&gt;Node1</title>
<path fill="none" stroke="#191970" d="M417.2991,-182.7222C336.3226,-171.2582 210.8978,-152.8027 93.1277,-132.2333"/>
<polygon fill="#191970" stroke="#191970" points="93.6691,-128.7749 83.2146,-130.4936 92.4591,-135.6695 93.6691,-128.7749"/>
</g>
<!-- Node4 -->
<g id="node5" class="node">
<title>Node4</title>
<polygon fill="none" stroke="#bfbfbf" points="101,-112.5 101,-131.5 226,-131.5 226,-112.5 101,-112.5"/>
<text text-anchor="middle" x="163.5" y="-119.5" font-family="Helvetica,sans-Serif" font-size="10.00" fill="#000000">TGeoGlobalMagField.h</text>
</g>
<!-- Node0&#45;&gt;Node4 -->
<g id="edge4" class="edge">
<title>Node0&#45;&gt;Node4</title>
<path fill="none" stroke="#191970" d="M417.3936,-176.2988C354.9313,-162.9403 271.9408,-145.1916 218.1272,-133.6828"/>
<polygon fill="#191970" stroke="#191970" points="218.6103,-130.2071 208.0994,-131.5382 217.1463,-137.0523 218.6103,-130.2071"/>
</g>
<!-- Node5 -->
<g id="node6" class="node">
<title>Node5</title>
<polygon fill="none" stroke="#bfbfbf" points="244.5,-112.5 244.5,-131.5 336.5,-131.5 336.5,-112.5 244.5,-112.5"/>
<text text-anchor="middle" x="290.5" y="-119.5" font-family="Helvetica,sans-Serif" font-size="10.00" fill="#000000">TGeoManager.h</text>
</g>
<!-- Node0&#45;&gt;Node5 -->
<g id="edge5" class="edge">
<title>Node0&#45;&gt;Node5</title>
<path fill="none" stroke="#191970" d="M426.2626,-168.4283C392.8539,-157.0031 355.1527,-144.11 327.9726,-134.8149"/>
<polygon fill="#191970" stroke="#191970" points="329.0569,-131.4868 318.4623,-131.5626 326.7917,-138.1102 329.0569,-131.4868"/>
</g>
<!-- Node6 -->
<g id="node7" class="node">
<title>Node6</title>
<polygon fill="none" stroke="#bfbfbf" points="355,-112.5 355,-131.5 446,-131.5 446,-112.5 355,-112.5"/>
<text text-anchor="middle" x="400.5" y="-119.5" font-family="Helvetica,sans-Serif" font-size="10.00" fill="#000000">TGeoMaterial.h</text>
</g>
<!-- Node0&#45;&gt;Node6 -->
<g id="edge6" class="edge">
<title>Node0&#45;&gt;Node6</title>
<path fill="none" stroke="#191970" d="M465.6757,-168.3258C451.1654,-158.0122 434.9921,-146.5165 422.3867,-137.5567"/>
<polygon fill="#191970" stroke="#191970" points="424.0919,-134.4747 413.9134,-131.534 420.0365,-140.1803 424.0919,-134.4747"/>
</g>
<!-- Node7 -->
<g id="node8" class="node">
<title>Node7</title>
<polygon fill="none" stroke="#bfbfbf" points="464,-112.5 464,-131.5 541,-131.5 541,-112.5 464,-112.5"/>
<text text-anchor="middle" x="502.5" y="-119.5" font-family="Helvetica,sans-Serif" font-size="10.00" fill="#000000">TGeoNode.h</text>
</g>
<!-- Node0&#45;&gt;Node7 -->
<g id="edge7" class="edge">
<title>Node0&#45;&gt;Node7</title>
<path fill="none" stroke="#191970" d="M502.5,-168.3258C502.5,-159.5142 502.5,-149.8397 502.5,-141.621"/>
<polygon fill="#191970" stroke="#191970" points="506.0001,-141.534 502.5,-131.534 499.0001,-141.534 506.0001,-141.534"/>
</g>
<!-- Node8 -->
<g id="node9" class="node">
<title>Node8</title>
<polygon fill="none" stroke="#bfbfbf" points="559,-112.5 559,-131.5 640,-131.5 640,-112.5 559,-112.5"/>
<text text-anchor="middle" x="599.5" y="-119.5" font-family="Helvetica,sans-Serif" font-size="10.00" fill="#000000">TGeoShape.h</text>
</g>
<!-- Node0&#45;&gt;Node8 -->
<g id="edge8" class="edge">
<title>Node0&#45;&gt;Node8</title>
<path fill="none" stroke="#191970" d="M537.5192,-168.3258C551.3182,-158.0122 566.6987,-146.5165 578.6862,-137.5567"/>
<polygon fill="#191970" stroke="#191970" points="580.8296,-140.3243 586.7442,-131.534 576.6389,-134.7174 580.8296,-140.3243"/>
</g>
<!-- Node9 -->
<g id="node10" class="node">
<title>Node9</title>
<polygon fill="none" stroke="#bfbfbf" points="658.5,-112.5 658.5,-131.5 714.5,-131.5 714.5,-112.5 658.5,-112.5"/>
<text text-anchor="middle" x="686.5" y="-119.5" font-family="Helvetica,sans-Serif" font-size="10.00" fill="#000000">TMath.h</text>
</g>
<!-- Node0&#45;&gt;Node9 -->
<g id="edge9" class="edge">
<title>Node0&#45;&gt;Node9</title>
<path fill="none" stroke="#191970" d="M568.6683,-168.4283C597.1559,-157.2035 629.2393,-144.5619 652.7267,-135.3074"/>
<polygon fill="#191970" stroke="#191970" points="654.2101,-138.4849 662.2308,-131.5626 651.6439,-131.9722 654.2101,-138.4849"/>
</g>
<!-- Node10 -->
<g id="node11" class="node">
<title>Node10</title>
<polygon fill="none" stroke="#bfbfbf" points="733,-112.5 733,-131.5 824,-131.5 824,-112.5 733,-112.5"/>
<text text-anchor="middle" x="778.5" y="-119.5" font-family="Helvetica,sans-Serif" font-size="10.00" fill="#000000">FairMQLogger.h</text>
</g>
<!-- Node0&#45;&gt;Node10 -->
<g id="edge10" class="edge">
<title>Node0&#45;&gt;Node10</title>
<path fill="none" stroke="#191970" d="M587.5612,-172.156C635.207,-159.6404 692.7763,-144.518 732.1617,-134.1722"/>
<polygon fill="#191970" stroke="#191970" points="733.2325,-137.5097 742.0151,-131.5839 731.454,-130.7394 733.2325,-137.5097"/>
</g>
<!-- Node11 -->
<g id="node12" class="node">
<title>Node11</title>
<g id="a_node12"><a xlink:href="../../de/d4b/TrackParam_8h.html" target="_top" xlink:title="Definition of the MCH track parameters for internal use. ">
<polygon fill="none" stroke="#000000" points="842.5,-112.5 842.5,-131.5 924.5,-131.5 924.5,-112.5 842.5,-112.5"/>
<text text-anchor="middle" x="883.5" y="-119.5" font-family="Helvetica,sans-Serif" font-size="10.00" fill="#000000">TrackParam.h</text>
</a>
</g>
</g>
<!-- Node0&#45;&gt;Node11 -->
<g id="edge11" class="edge">
<title>Node0&#45;&gt;Node11</title>
<path fill="none" stroke="#191970" d="M587.6526,-178.5286C651.8997,-166.4419 742.5049,-149.3195 832.2238,-132.0437"/>
<polygon fill="#191970" stroke="#191970" points="833.1515,-135.4294 842.3086,-130.1004 831.8269,-128.5558 833.1515,-135.4294"/>
</g>
<!-- Node2 -->
<g id="node3" class="node">
<title>Node2</title>
<polygon fill="none" stroke="#bfbfbf" points="15,-56.5 15,-75.5 68,-75.5 68,-56.5 15,-56.5"/>
<text text-anchor="middle" x="41.5" y="-63.5" font-family="Helvetica,sans-Serif" font-size="10.00" fill="#000000">cstddef</text>
</g>
<!-- Node1&#45;&gt;Node2 -->
<g id="edge2" class="edge">
<title>Node1&#45;&gt;Node2</title>
<path fill="none" stroke="#191970" d="M41.5,-112.2455C41.5,-104.9382 41.5,-94.6944 41.5,-85.7046"/>
<polygon fill="#191970" stroke="#191970" points="45.0001,-85.6426 41.5,-75.6427 38.0001,-85.6427 45.0001,-85.6426"/>
</g>
<!-- Node3 -->
<g id="node4" class="node">
<title>Node3</title>
<polygon fill="none" stroke="#bfbfbf" points="409.5,-56.5 409.5,-75.5 479.5,-75.5 479.5,-56.5 409.5,-56.5"/>
<text text-anchor="middle" x="444.5" y="-63.5" font-family="Helvetica,sans-Serif" font-size="10.00" fill="#000000">TMatrixD.h</text>
</g>
<!-- Node1&#45;&gt;Node3 -->
<g id="edge3" class="edge">
<title>Node1&#45;&gt;Node3</title>
<path fill="none" stroke="#191970" d="M83.2032,-113.4395C86.0072,-112.9318 88.7923,-112.4467 91.5,-112 201.4762,-93.8582 331.6965,-78.4475 399.0539,-70.9239"/>
<polygon fill="#191970" stroke="#191970" points="399.7592,-74.3672 409.3119,-69.7849 398.9867,-67.41 399.7592,-74.3672"/>
</g>
<!-- Node11&#45;&gt;Node3 -->
<g id="edge12" class="edge">
<title>Node11&#45;&gt;Node3</title>
<path fill="none" stroke="#191970" d="M842.3514,-113.6544C839.0237,-113.0641 835.7088,-112.5041 832.5,-112 709.0713,-92.6109 562.3973,-77.3095 489.824,-70.2509"/>
<polygon fill="#191970" stroke="#191970" points="489.956,-66.7474 479.6658,-69.2698 489.283,-73.715 489.956,-66.7474"/>
</g>
<!-- Node12 -->
<g id="node13" class="node">
<title>Node12</title>
<g id="a_node13"><a xlink:href="../../d6/d45/TrackBlock_8h.html" target="_top" xlink:title="Definition of the MCH track parameters minimal structure. ">
<polygon fill="none" stroke="#000000" points="819.5,-56.5 819.5,-75.5 947.5,-75.5 947.5,-56.5 819.5,-56.5"/>
<text text-anchor="middle" x="883.5" y="-63.5" font-family="Helvetica,sans-Serif" font-size="10.00" fill="#000000">MCHBase/TrackBlock.h</text>
</a>
</g>
</g>
<!-- Node11&#45;&gt;Node12 -->
<g id="edge13" class="edge">
<title>Node11&#45;&gt;Node12</title>
<path fill="none" stroke="#191970" d="M883.5,-112.2455C883.5,-104.9382 883.5,-94.6944 883.5,-85.7046"/>
<polygon fill="#191970" stroke="#191970" points="887.0001,-85.6426 883.5,-75.6427 880.0001,-85.6427 887.0001,-85.6426"/>
</g>
<!-- Node13 -->
<g id="node14" class="node">
<title>Node13</title>
<polygon fill="none" stroke="#bfbfbf" points="853.5,-.5 853.5,-19.5 913.5,-19.5 913.5,-.5 853.5,-.5"/>
<text text-anchor="middle" x="883.5" y="-7.5" font-family="Helvetica,sans-Serif" font-size="10.00" fill="#000000">iostream</text>
</g>
<!-- Node12&#45;&gt;Node13 -->
<g id="edge14" class="edge">
<title>Node12&#45;&gt;Node13</title>
<path fill="none" stroke="#191970" d="M883.5,-56.2455C883.5,-48.9382 883.5,-38.6944 883.5,-29.7046"/>
<polygon fill="#191970" stroke="#191970" points="887.0001,-29.6426 883.5,-19.6427 880.0001,-29.6427 887.0001,-29.6426"/>
</g>
</g>
</svg>
