<?xml version="1.0" encoding="UTF-8" standalone="no"?>
<!DOCTYPE svg PUBLIC "-//W3C//DTD SVG 1.1//EN"
 "http://www.w3.org/Graphics/SVG/1.1/DTD/svg11.dtd">
<!-- Generated by graphviz version 2.40.1 (20161225.0304)
 -->
<!-- Title: o2::framework::InputObjectRoute Pages: 1 -->
<svg width="214pt" height="193pt"
 viewBox="0.00 0.00 213.50 193.00" xmlns="http://www.w3.org/2000/svg" xmlns:xlink="http://www.w3.org/1999/xlink">
<g id="graph0" class="graph" transform="scale(1 1) rotate(0) translate(4 189)">
<title>o2::framework::InputObjectRoute</title>
<!-- Node1 -->
<g id="node1" class="node">
<title>Node1</title>
<polygon fill="#bfbfbf" stroke="#000000" points="45.5,-.5 45.5,-68.5 195.5,-68.5 195.5,-.5 45.5,-.5"/>
<text text-anchor="start" x="53.5" y="-56.5" font-family="Helvetica,sans-Serif" font-size="10.00" fill="#000000">o2::framework::InputObject</text>
<text text-anchor="middle" x="120.5" y="-45.5" font-family="Helvetica,sans-Serif" font-size="10.00" fill="#000000">Route</text>
<polyline fill="none" stroke="#000000" points="45.5,-38.5 195.5,-38.5 "/>
<text text-anchor="middle" x="120.5" y="-26.5" font-family="Helvetica,sans-Serif" font-size="10.00" fill="#000000"> </text>
<polyline fill="none" stroke="#000000" points="45.5,-19.5 195.5,-19.5 "/>
<text text-anchor="start" x="53.5" y="-7.5" font-family="Helvetica,sans-Serif" font-size="10.00" fill="#000000">+ operator&lt;()</text>
</g>
<!-- Node2 -->
<g id="node2" class="node">
<title>Node2</title>
<polygon fill="none" stroke="#bfbfbf" points="0,-127.5 0,-184.5 139,-184.5 139,-127.5 0,-127.5"/>
<text text-anchor="middle" x="69.5" y="-172.5" font-family="Helvetica,sans-Serif" font-size="10.00" fill="#000000">OutputObjHandlingPolicy</text>
<polyline fill="none" stroke="#bfbfbf" points="0,-165.5 139,-165.5 "/>
<text text-anchor="middle" x="69.5" y="-153.5" font-family="Helvetica,sans-Serif" font-size="10.00" fill="#000000"> </text>
<polyline fill="none" stroke="#bfbfbf" points="0,-146.5 139,-146.5 "/>
<text text-anchor="middle" x="69.5" y="-134.5" font-family="Helvetica,sans-Serif" font-size="10.00" fill="#000000"> </text>
</g>
<!-- Node2&#45;&gt;Node1 -->
<g id="edge1" class="edge">
<title>Node2&#45;&gt;Node1</title>
<path fill="none" stroke="#404040" d="M81.5863,-127.2062C87.512,-113.0891 94.7886,-95.7535 101.4398,-79.908"/>
<polygon fill="none" stroke="#404040" points="101.4996,-79.7655 100.1336,-72.685 106.1441,-68.7007 107.5101,-75.7813 101.4996,-79.7655"/>
<text text-anchor="middle" x="119" y="-95.5" font-family="Helvetica,sans-Serif" font-size="10.00" fill="#000000"> +policy</text>
</g>
<!-- Node3 -->
<g id="node3" class="node">
<title>Node3</title>
<polygon fill="none" stroke="#bfbfbf" points="157,-127.5 157,-184.5 186,-184.5 186,-127.5 157,-127.5"/>
<text text-anchor="middle" x="171.5" y="-172.5" font-family="Helvetica,sans-Serif" font-size="10.00" fill="#000000">int</text>
<polyline fill="none" stroke="#bfbfbf" points="157,-165.5 186,-165.5 "/>
<text text-anchor="middle" x="171.5" y="-153.5" font-family="Helvetica,sans-Serif" font-size="10.00" fill="#000000"> </text>
<polyline fill="none" stroke="#bfbfbf" points="157,-146.5 186,-146.5 "/>
<text text-anchor="middle" x="171.5" y="-134.5" font-family="Helvetica,sans-Serif" font-size="10.00" fill="#000000"> </text>
</g>
<!-- Node3&#45;&gt;Node1 -->
<g id="edge2" class="edge">
<title>Node3&#45;&gt;Node1</title>
<path fill="none" stroke="#404040" d="M160.0955,-127.3925C155.0825,-114.9499 149.0776,-100.2217 143.5,-87 142.518,-84.6721 141.5045,-82.2895 140.4754,-79.8859"/>
<polygon fill="none" stroke="#404040" points="140.3645,-79.6291 134.3133,-75.707 135.6063,-68.6128 141.6575,-72.5349 140.3645,-79.6291"/>
<text text-anchor="middle" x="178.5" y="-101" font-family="Helvetica,sans-Serif" font-size="10.00" fill="#000000"> +uniqueId</text>
<text text-anchor="middle" x="178.5" y="-90" font-family="Helvetica,sans-Serif" font-size="10.00" fill="#000000">+directory</text>
</g>
</g>
</svg>
