<?xml version="1.0" encoding="UTF-8" standalone="no"?>
<!DOCTYPE svg PUBLIC "-//W3C//DTD SVG 1.1//EN"
 "http://www.w3.org/Graphics/SVG/1.1/DTD/svg11.dtd">
<!-- Generated by graphviz version 2.40.1 (20161225.0304)
 -->
<!-- Title: MchCathodeSegmentation Pages: 1 -->
<svg width="233pt" height="182pt"
 viewBox="0.00 0.00 233.00 182.00" xmlns="http://www.w3.org/2000/svg" xmlns:xlink="http://www.w3.org/1999/xlink">
<g id="graph0" class="graph" transform="scale(1 1) rotate(0) translate(4 178)">
<title>MchCathodeSegmentation</title>
<!-- Node1 -->
<g id="node1" class="node">
<title>Node1</title>
<polygon fill="#bfbfbf" stroke="#000000" points="30.5,-.5 30.5,-57.5 194.5,-57.5 194.5,-.5 30.5,-.5"/>
<text text-anchor="middle" x="112.5" y="-45.5" font-family="Helvetica,sans-Serif" font-size="10.00" fill="#000000">MchCathodeSegmentation</text>
<polyline fill="none" stroke="#000000" points="30.5,-38.5 194.5,-38.5 "/>
<text text-anchor="middle" x="112.5" y="-26.5" font-family="Helvetica,sans-Serif" font-size="10.00" fill="#000000"> </text>
<polyline fill="none" stroke="#000000" points="30.5,-19.5 194.5,-19.5 "/>
<text text-anchor="start" x="38.5" y="-7.5" font-family="Helvetica,sans-Serif" font-size="10.00" fill="#000000">+ MchCathodeSegmentation()</text>
</g>
<!-- Node2 -->
<g id="node2" class="node">
<title>Node2</title>
<polygon fill="none" stroke="#bfbfbf" points="0,-105.5 0,-173.5 225,-173.5 225,-105.5 0,-105.5"/>
<text text-anchor="start" x="8" y="-161.5" font-family="Helvetica,sans-Serif" font-size="10.00" fill="#000000">unique_ptr&lt; o2::mch</text>
<text text-anchor="middle" x="112.5" y="-150.5" font-family="Helvetica,sans-Serif" font-size="10.00" fill="#000000">::mapping::impl3::CathodeSegmentation &gt;</text>
<polyline fill="none" stroke="#bfbfbf" points="0,-143.5 225,-143.5 "/>
<text text-anchor="middle" x="112.5" y="-131.5" font-family="Helvetica,sans-Serif" font-size="10.00" fill="#000000"> </text>
<polyline fill="none" stroke="#bfbfbf" points="0,-124.5 225,-124.5 "/>
<text text-anchor="middle" x="112.5" y="-112.5" font-family="Helvetica,sans-Serif" font-size="10.00" fill="#000000"> </text>
</g>
<!-- Node2&#45;&gt;Node1 -->
<g id="edge1" class="edge">
<title>Node2&#45;&gt;Node1</title>
<path fill="none" stroke="#404040" d="M112.5,-105.4447C112.5,-94.175 112.5,-81.5186 112.5,-69.7959"/>
<polygon fill="none" stroke="#404040" points="112.5001,-69.5519 108.5,-63.5519 112.5,-57.5519 116.5,-63.5519 112.5001,-69.5519"/>
<text text-anchor="middle" x="129.5" y="-79" font-family="Helvetica,sans-Serif" font-size="10.00" fill="#000000"> +impl</text>
</g>
</g>
</svg>
