<?xml version="1.0" encoding="UTF-8" standalone="no"?>
<!DOCTYPE svg PUBLIC "-//W3C//DTD SVG 1.1//EN"
 "http://www.w3.org/Graphics/SVG/1.1/DTD/svg11.dtd">
<!-- Generated by graphviz version 2.40.1 (20161225.0304)
 -->
<!-- Title: TestPages::RawPage Pages: 1 -->
<!--zoomable 529 -->
<svg id="main" version="1.1" xmlns="http://www.w3.org/2000/svg" xmlns:xlink="http://www.w3.org/1999/xlink" xml:space="preserve" onload="init(evt)">
<style type="text/css"><![CDATA[
.edge:hover path { stroke: red; }
.edge:hover polygon { stroke: red; fill: red; }
]]></style>
<script type="text/javascript"><![CDATA[
var edges = document.getElementsByTagName('g');
if (edges && edges.length) {
  for (var i=0;i<edges.length;i++) {
    if (edges[i].id.substr(0,4)=='edge') {
      edges[i].setAttribute('class','edge');
    }
  }
}
]]></script>
        <defs>
                <circle id="rim" cx="0" cy="0" r="7"/>
                <circle id="rim2" cx="0" cy="0" r="3.5"/>
                <g id="zoomPlus">
                        <use xlink:href="#rim" fill="#404040">
                                <set attributeName="fill" to="#808080" begin="zoomplus.mouseover" end="zoomplus.mouseout"/>
                        </use>
                        <path d="M-4,0h8M0,-4v8" fill="none" stroke="white" stroke-width="1.5" pointer-events="none"/>
                </g>
                <g id="zoomMin">
                        <use xlink:href="#rim" fill="#404040">
                                <set attributeName="fill" to="#808080" begin="zoomminus.mouseover" end="zoomminus.mouseout"/>
                        </use>
                        <path d="M-4,0h8" fill="none" stroke="white" stroke-width="1.5" pointer-events="none"/>
                </g>
                <g id="dirArrow">
                        <path fill="none" stroke="white" stroke-width="1.5" d="M0,-3.0v7 M-2.5,-0.5L0,-3.0L2.5,-0.5"/>
                </g>
               <g id="resetDef">
                       <use xlink:href="#rim2" fill="#404040">
                               <set attributeName="fill" to="#808080" begin="reset.mouseover" end="reset.mouseout"/>
                       </use>
               </g>
        </defs>

<script type="text/javascript">
var viewWidth = 1283;
var viewHeight = 529;
var sectionId = 'dynsection-0';
</script>
<script xlink:href="../../svgpan.js"/>
<svg id="graph" class="graph">
<g id="viewport">
<title>TestPages::RawPage</title>
<!-- Node1 -->
<g id="node1" class="node">
<title>Node1</title>
<polygon fill="#bfbfbf" stroke="#000000" points="422,-.5 422,-57.5 537,-57.5 537,-.5 422,-.5"/>
<text text-anchor="middle" x="479.5" y="-45.5" font-family="Helvetica,sans-Serif" font-size="10.00" fill="#000000">TestPages::RawPage</text>
<polyline fill="none" stroke="#000000" points="422,-38.5 537,-38.5 "/>
<text text-anchor="middle" x="479.5" y="-26.5" font-family="Helvetica,sans-Serif" font-size="10.00" fill="#000000"> </text>
<polyline fill="none" stroke="#000000" points="422,-19.5 537,-19.5 "/>
<text text-anchor="middle" x="479.5" y="-7.5" font-family="Helvetica,sans-Serif" font-size="10.00" fill="#000000"> </text>
</g>
<!-- Node2 -->
<g id="node2" class="node">
<title>Node2</title>
<polygon fill="none" stroke="#bfbfbf" points="432.5,-177 432.5,-234 470.5,-234 470.5,-177 432.5,-177"/>
<text text-anchor="middle" x="451.5" y="-222" font-family="Helvetica,sans-Serif" font-size="10.00" fill="#000000">char</text>
<polyline fill="none" stroke="#bfbfbf" points="432.5,-215 470.5,-215 "/>
<text text-anchor="middle" x="451.5" y="-203" font-family="Helvetica,sans-Serif" font-size="10.00" fill="#000000"> </text>
<polyline fill="none" stroke="#bfbfbf" points="432.5,-196 470.5,-196 "/>
<text text-anchor="middle" x="451.5" y="-184" font-family="Helvetica,sans-Serif" font-size="10.00" fill="#000000"> </text>
</g>
<!-- Node2&#45;&gt;Node1 -->
<g id="edge1" class="edge">
<title>Node2&#45;&gt;Node1</title>
<path fill="none" stroke="#404040" d="M456.061,-176.7494C460.6779,-147.6462 467.8585,-102.3832 473.0557,-69.6223"/>
<polygon fill="none" stroke="#404040" points="473.0607,-69.5901 470.0502,-63.0374 474.941,-57.7383 477.9514,-64.2909 473.0607,-69.5901"/>
<text text-anchor="middle" x="488.5" y="-79" font-family="Helvetica,sans-Serif" font-size="10.00" fill="#000000"> +data</text>
</g>
<!-- Node3 -->
<g id="node3" class="node">
<title>Node3</title>
<g id="a_node3"><a xlink:href="../../d8/d47/structo2_1_1header_1_1RAWDataHeaderV4.html" target="_top" xlink:title="{o2::header::RAWDataHeaderV4\n|+ word0\l+ blockLength\l+ zero0\l+ word1\l+ word2\l+ word3\l+ word4\l+ heartbeatBC\l+ zero42\l+ word5\l+ word6\l+ detectorField\l+ stop\l+ pageCnt\l|}">
<polygon fill="none" stroke="#000000" points="488,-105.5 488,-305.5 655,-305.5 655,-105.5 488,-105.5"/>
<text text-anchor="middle" x="571.5" y="-293.5" font-family="Helvetica,sans-Serif" font-size="10.00" fill="#000000">o2::header::RAWDataHeaderV4</text>
<polyline fill="none" stroke="#000000" points="488,-286.5 655,-286.5 "/>
<text text-anchor="start" x="496" y="-274.5" font-family="Helvetica,sans-Serif" font-size="10.00" fill="#000000">+ word0</text>
<text text-anchor="start" x="496" y="-263.5" font-family="Helvetica,sans-Serif" font-size="10.00" fill="#000000">+ blockLength</text>
<text text-anchor="start" x="496" y="-252.5" font-family="Helvetica,sans-Serif" font-size="10.00" fill="#000000">+ zero0</text>
<text text-anchor="start" x="496" y="-241.5" font-family="Helvetica,sans-Serif" font-size="10.00" fill="#000000">+ word1</text>
<text text-anchor="start" x="496" y="-230.5" font-family="Helvetica,sans-Serif" font-size="10.00" fill="#000000">+ word2</text>
<text text-anchor="start" x="496" y="-219.5" font-family="Helvetica,sans-Serif" font-size="10.00" fill="#000000">+ word3</text>
<text text-anchor="start" x="496" y="-208.5" font-family="Helvetica,sans-Serif" font-size="10.00" fill="#000000">+ word4</text>
<text text-anchor="start" x="496" y="-197.5" font-family="Helvetica,sans-Serif" font-size="10.00" fill="#000000">+ heartbeatBC</text>
<text text-anchor="start" x="496" y="-186.5" font-family="Helvetica,sans-Serif" font-size="10.00" fill="#000000">+ zero42</text>
<text text-anchor="start" x="496" y="-175.5" font-family="Helvetica,sans-Serif" font-size="10.00" fill="#000000">+ word5</text>
<text text-anchor="start" x="496" y="-164.5" font-family="Helvetica,sans-Serif" font-size="10.00" fill="#000000">+ word6</text>
<text text-anchor="start" x="496" y="-153.5" font-family="Helvetica,sans-Serif" font-size="10.00" fill="#000000">+ detectorField</text>
<text text-anchor="start" x="496" y="-142.5" font-family="Helvetica,sans-Serif" font-size="10.00" fill="#000000">+ stop</text>
<text text-anchor="start" x="496" y="-131.5" font-family="Helvetica,sans-Serif" font-size="10.00" fill="#000000">+ pageCnt</text>
<polyline fill="none" stroke="#000000" points="488,-124.5 655,-124.5 "/>
<text text-anchor="middle" x="571.5" y="-112.5" font-family="Helvetica,sans-Serif" font-size="10.00" fill="#000000"> </text>
</a>
</g>
</g>
<!-- Node3&#45;&gt;Node1 -->
<g id="edge2" class="edge">
<title>Node3&#45;&gt;Node1</title>
<path fill="none" stroke="#404040" d="M524.9747,-105.1902C519.9145,-95.2434 514.7073,-85.3685 509.5,-76 508.0391,-73.3718 506.4911,-70.6894 504.8986,-68.0047"/>
<polygon fill="none" stroke="#404040" points="504.8867,-67.9852 498.3439,-64.9535 498.6259,-57.7479 505.1688,-60.7796 504.8867,-67.9852"/>
<text text-anchor="middle" x="528.5" y="-79" font-family="Helvetica,sans-Serif" font-size="10.00" fill="#000000"> +rdh</text>
</g>
<!-- Node4 -->
<g id="node4" class="node">
<title>Node4</title>
<polygon fill="none" stroke="#bfbfbf" points="0,-463.5 0,-520.5 107,-520.5 107,-463.5 0,-463.5"/>
<text text-anchor="middle" x="53.5" y="-508.5" font-family="Helvetica,sans-Serif" font-size="10.00" fill="#000000">anonymous:+@68</text>
<polyline fill="none" stroke="#bfbfbf" points="0,-501.5 107,-501.5 "/>
<text text-anchor="middle" x="53.5" y="-489.5" font-family="Helvetica,sans-Serif" font-size="10.00" fill="#000000"> </text>
<polyline fill="none" stroke="#bfbfbf" points="0,-482.5 107,-482.5 "/>
<text text-anchor="middle" x="53.5" y="-470.5" font-family="Helvetica,sans-Serif" font-size="10.00" fill="#000000"> </text>
</g>
<!-- Node4&#45;&gt;Node3 -->
<g id="edge3" class="edge">
<title>Node4&#45;&gt;Node3</title>
<path fill="none" stroke="#404040" d="M58.8638,-463.2335C67.8256,-424.1932 89.8912,-355.6782 138.5,-324 199.1565,-284.4703 392.0192,-333.4791 476.3186,-306.1868"/>
<polygon fill="none" stroke="#404040" points="476.5397,-306.0997 480.6553,-300.1783 487.7041,-301.6999 483.5885,-307.6212 476.5397,-306.0997"/>
<text text-anchor="middle" x="155.5" y="-382" font-family="Helvetica,sans-Serif" font-size="10.00" fill="#000000"> +@68</text>
</g>
<!-- Node5 -->
<g id="node5" class="node">
<title>Node5</title>
<polygon fill="none" stroke="#bfbfbf" points="125,-463.5 125,-520.5 232,-520.5 232,-463.5 125,-463.5"/>
<text text-anchor="middle" x="178.5" y="-508.5" font-family="Helvetica,sans-Serif" font-size="10.00" fill="#000000">anonymous:+@70</text>
<polyline fill="none" stroke="#bfbfbf" points="125,-501.5 232,-501.5 "/>
<text text-anchor="middle" x="178.5" y="-489.5" font-family="Helvetica,sans-Serif" font-size="10.00" fill="#000000"> </text>
<polyline fill="none" stroke="#bfbfbf" points="125,-482.5 232,-482.5 "/>
<text text-anchor="middle" x="178.5" y="-470.5" font-family="Helvetica,sans-Serif" font-size="10.00" fill="#000000"> </text>
</g>
<!-- Node5&#45;&gt;Node3 -->
<g id="edge4" class="edge">
<title>Node5&#45;&gt;Node3</title>
<path fill="none" stroke="#404040" d="M175.9961,-463.3551C174.4107,-425.1059 178.1268,-358.2103 218.5,-324 260.343,-288.5442 408.9051,-326.4315 476.6888,-305.8301"/>
<polygon fill="none" stroke="#404040" points="476.7932,-305.7898 480.9448,-299.8936 487.9841,-301.4582 483.8325,-307.3543 476.7932,-305.7898"/>
<text text-anchor="middle" x="235.5" y="-382" font-family="Helvetica,sans-Serif" font-size="10.00" fill="#000000"> +@70</text>
</g>
<!-- Node6 -->
<g id="node6" class="node">
<title>Node6</title>
<polygon fill="none" stroke="#bfbfbf" points="250.5,-463.5 250.5,-520.5 306.5,-520.5 306.5,-463.5 250.5,-463.5"/>
<text text-anchor="middle" x="278.5" y="-508.5" font-family="Helvetica,sans-Serif" font-size="10.00" fill="#000000">uint64_t</text>
<polyline fill="none" stroke="#bfbfbf" points="250.5,-501.5 306.5,-501.5 "/>
<text text-anchor="middle" x="278.5" y="-489.5" font-family="Helvetica,sans-Serif" font-size="10.00" fill="#000000"> </text>
<polyline fill="none" stroke="#bfbfbf" points="250.5,-482.5 306.5,-482.5 "/>
<text text-anchor="middle" x="278.5" y="-470.5" font-family="Helvetica,sans-Serif" font-size="10.00" fill="#000000"> </text>
</g>
<!-- Node6&#45;&gt;Node3 -->
<g id="edge5" class="edge">
<title>Node6&#45;&gt;Node3</title>
<path fill="none" stroke="#404040" d="M268.1549,-463.4992C256.703,-426.3427 244.0553,-361.6671 278.5,-324 306.6354,-293.2325 421.443,-321.3032 476.534,-305.7106"/>
<polygon fill="none" stroke="#404040" points="476.7265,-305.6376 480.9166,-299.7687 487.9456,-301.3792 483.7555,-307.248 476.7265,-305.6376"/>
<text text-anchor="middle" x="310.5" y="-437" font-family="Helvetica,sans-Serif" font-size="10.00" fill="#000000"> +word7</text>
<text text-anchor="middle" x="310.5" y="-426" font-family="Helvetica,sans-Serif" font-size="10.00" fill="#000000">+triggerType</text>
<text text-anchor="middle" x="310.5" y="-415" font-family="Helvetica,sans-Serif" font-size="10.00" fill="#000000">+zero6</text>
<text text-anchor="middle" x="310.5" y="-404" font-family="Helvetica,sans-Serif" font-size="10.00" fill="#000000">+par</text>
<text text-anchor="middle" x="310.5" y="-393" font-family="Helvetica,sans-Serif" font-size="10.00" fill="#000000">+feeId</text>
<text text-anchor="middle" x="310.5" y="-382" font-family="Helvetica,sans-Serif" font-size="10.00" fill="#000000">+priority</text>
<text text-anchor="middle" x="310.5" y="-371" font-family="Helvetica,sans-Serif" font-size="10.00" fill="#000000">+headerSize</text>
<text text-anchor="middle" x="310.5" y="-360" font-family="Helvetica,sans-Serif" font-size="10.00" fill="#000000">+version</text>
<text text-anchor="middle" x="310.5" y="-349" font-family="Helvetica,sans-Serif" font-size="10.00" fill="#000000">+triggerBC</text>
<text text-anchor="middle" x="310.5" y="-338" font-family="Helvetica,sans-Serif" font-size="10.00" fill="#000000">+zero41</text>
<text text-anchor="middle" x="310.5" y="-327" font-family="Helvetica,sans-Serif" font-size="10.00" fill="#000000">...</text>
</g>
<!-- Node7 -->
<g id="node7" class="node">
<title>Node7</title>
<polygon fill="none" stroke="#bfbfbf" points="325.5,-463.5 325.5,-520.5 381.5,-520.5 381.5,-463.5 325.5,-463.5"/>
<text text-anchor="middle" x="353.5" y="-508.5" font-family="Helvetica,sans-Serif" font-size="10.00" fill="#000000">uint16_t</text>
<polyline fill="none" stroke="#bfbfbf" points="325.5,-501.5 381.5,-501.5 "/>
<text text-anchor="middle" x="353.5" y="-489.5" font-family="Helvetica,sans-Serif" font-size="10.00" fill="#000000"> </text>
<polyline fill="none" stroke="#bfbfbf" points="325.5,-482.5 381.5,-482.5 "/>
<text text-anchor="middle" x="353.5" y="-470.5" font-family="Helvetica,sans-Serif" font-size="10.00" fill="#000000"> </text>
</g>
<!-- Node7&#45;&gt;Node3 -->
<g id="edge6" class="edge">
<title>Node7&#45;&gt;Node3</title>
<path fill="none" stroke="#404040" d="M348.6235,-463.3013C344.0596,-425.9257 342.5369,-361.0081 378.5,-324 407.7938,-293.8549 434.9608,-322.6703 476.807,-306.258"/>
<polygon fill="none" stroke="#404040" points="476.9338,-306.1978 480.6363,-300.0098 487.7724,-301.0475 484.0699,-307.2355 476.9338,-306.1978"/>
<text text-anchor="middle" x="397" y="-382" font-family="Helvetica,sans-Serif" font-size="10.00" fill="#000000"> +cruID</text>
</g>
<!-- Node8 -->
<g id="node8" class="node">
<title>Node8</title>
<polygon fill="none" stroke="#bfbfbf" points="399.5,-463.5 399.5,-520.5 449.5,-520.5 449.5,-463.5 399.5,-463.5"/>
<text text-anchor="middle" x="424.5" y="-508.5" font-family="Helvetica,sans-Serif" font-size="10.00" fill="#000000">uint8_t</text>
<polyline fill="none" stroke="#bfbfbf" points="399.5,-501.5 449.5,-501.5 "/>
<text text-anchor="middle" x="424.5" y="-489.5" font-family="Helvetica,sans-Serif" font-size="10.00" fill="#000000"> </text>
<polyline fill="none" stroke="#bfbfbf" points="399.5,-482.5 449.5,-482.5 "/>
<text text-anchor="middle" x="424.5" y="-470.5" font-family="Helvetica,sans-Serif" font-size="10.00" fill="#000000"> </text>
</g>
<!-- Node8&#45;&gt;Node3 -->
<g id="edge7" class="edge">
<title>Node8&#45;&gt;Node3</title>
<path fill="none" stroke="#404040" d="M420.5524,-463.3584C417.1762,-427.5013 416.6979,-365.7294 445.5,-324 453.619,-312.2369 462.471,-314.8706 477.9496,-305.9899"/>
<polygon fill="none" stroke="#404040" points="477.9536,-305.9873 480.6627,-299.3043 487.8734,-299.2347 485.1644,-305.9176 477.9536,-305.9873"/>
<text text-anchor="middle" x="485.5" y="-393" font-family="Helvetica,sans-Serif" font-size="10.00" fill="#000000"> +linkID</text>
<text text-anchor="middle" x="485.5" y="-382" font-family="Helvetica,sans-Serif" font-size="10.00" fill="#000000">+endPointID</text>
<text text-anchor="middle" x="485.5" y="-371" font-family="Helvetica,sans-Serif" font-size="10.00" fill="#000000">+packetCounter</text>
</g>
<!-- Node9 -->
<g id="node9" class="node">
<title>Node9</title>
<polygon fill="none" stroke="#bfbfbf" points="468,-463.5 468,-520.5 575,-520.5 575,-463.5 468,-463.5"/>
<text text-anchor="middle" x="521.5" y="-508.5" font-family="Helvetica,sans-Serif" font-size="10.00" fill="#000000">anonymous:+@72</text>
<polyline fill="none" stroke="#bfbfbf" points="468,-501.5 575,-501.5 "/>
<text text-anchor="middle" x="521.5" y="-489.5" font-family="Helvetica,sans-Serif" font-size="10.00" fill="#000000"> </text>
<polyline fill="none" stroke="#bfbfbf" points="468,-482.5 575,-482.5 "/>
<text text-anchor="middle" x="521.5" y="-470.5" font-family="Helvetica,sans-Serif" font-size="10.00" fill="#000000"> </text>
</g>
<!-- Node9&#45;&gt;Node3 -->
<g id="edge8" class="edge">
<title>Node9&#45;&gt;Node3</title>
<path fill="none" stroke="#404040" d="M526.477,-463.4819C532.4132,-429.4672 542.6962,-370.5456 551.9375,-317.593"/>
<polygon fill="none" stroke="#404040" points="551.9509,-317.5157 549.0421,-310.9173 554.0141,-305.6944 556.9229,-312.2927 551.9509,-317.5157"/>
<text text-anchor="middle" x="565.5" y="-382" font-family="Helvetica,sans-Serif" font-size="10.00" fill="#000000"> +@72</text>
</g>
<!-- Node10 -->
<g id="node10" class="node">
<title>Node10</title>
<polygon fill="none" stroke="#bfbfbf" points="593.5,-463.5 593.5,-520.5 649.5,-520.5 649.5,-463.5 593.5,-463.5"/>
<text text-anchor="middle" x="621.5" y="-508.5" font-family="Helvetica,sans-Serif" font-size="10.00" fill="#000000">uint32_t</text>
<polyline fill="none" stroke="#bfbfbf" points="593.5,-501.5 649.5,-501.5 "/>
<text text-anchor="middle" x="621.5" y="-489.5" font-family="Helvetica,sans-Serif" font-size="10.00" fill="#000000"> </text>
<polyline fill="none" stroke="#bfbfbf" points="593.5,-482.5 649.5,-482.5 "/>
<text text-anchor="middle" x="621.5" y="-470.5" font-family="Helvetica,sans-Serif" font-size="10.00" fill="#000000"> </text>
</g>
<!-- Node10&#45;&gt;Node3 -->
<g id="edge9" class="edge">
<title>Node10&#45;&gt;Node3</title>
<path fill="none" stroke="#404040" d="M616.523,-463.4819C610.5868,-429.4672 600.3038,-370.5456 591.0625,-317.593"/>
<polygon fill="none" stroke="#404040" points="591.0491,-317.5157 586.0771,-312.2927 588.9859,-305.6944 593.9579,-310.9173 591.0491,-317.5157"/>
<text text-anchor="middle" x="654" y="-398.5" font-family="Helvetica,sans-Serif" font-size="10.00" fill="#000000"> +heartbeatOrbit</text>
<text text-anchor="middle" x="654" y="-387.5" font-family="Helvetica,sans-Serif" font-size="10.00" fill="#000000">+triggerOrbit</text>
<text text-anchor="middle" x="654" y="-376.5" font-family="Helvetica,sans-Serif" font-size="10.00" fill="#000000">+memorySize</text>
<text text-anchor="middle" x="654" y="-365.5" font-family="Helvetica,sans-Serif" font-size="10.00" fill="#000000">+offsetToNext</text>
</g>
<!-- Node11 -->
<g id="node11" class="node">
<title>Node11</title>
<polygon fill="none" stroke="#bfbfbf" points="668,-463.5 668,-520.5 775,-520.5 775,-463.5 668,-463.5"/>
<text text-anchor="middle" x="721.5" y="-508.5" font-family="Helvetica,sans-Serif" font-size="10.00" fill="#000000">anonymous:+@74</text>
<polyline fill="none" stroke="#bfbfbf" points="668,-501.5 775,-501.5 "/>
<text text-anchor="middle" x="721.5" y="-489.5" font-family="Helvetica,sans-Serif" font-size="10.00" fill="#000000"> </text>
<polyline fill="none" stroke="#bfbfbf" points="668,-482.5 775,-482.5 "/>
<text text-anchor="middle" x="721.5" y="-470.5" font-family="Helvetica,sans-Serif" font-size="10.00" fill="#000000"> </text>
</g>
<!-- Node11&#45;&gt;Node3 -->
<g id="edge10" class="edge">
<title>Node11&#45;&gt;Node3</title>
<path fill="none" stroke="#404040" d="M723.4836,-463.2079C724.6415,-428.2815 722.5293,-368.5539 699.5,-324 690.4605,-306.5116 677.758,-290.2638 663.8357,-275.7542"/>
<polygon fill="none" stroke="#404040" points="663.5162,-275.4347 656.4452,-274.0201 655.0313,-266.949 662.1024,-268.3635 663.5162,-275.4347"/>
<text text-anchor="middle" x="740.5" y="-382" font-family="Helvetica,sans-Serif" font-size="10.00" fill="#000000"> +@74</text>
</g>
<!-- Node12 -->
<g id="node12" class="node">
<title>Node12</title>
<polygon fill="none" stroke="#bfbfbf" points="793,-463.5 793,-520.5 900,-520.5 900,-463.5 793,-463.5"/>
<text text-anchor="middle" x="846.5" y="-508.5" font-family="Helvetica,sans-Serif" font-size="10.00" fill="#000000">anonymous:+@76</text>
<polyline fill="none" stroke="#bfbfbf" points="793,-501.5 900,-501.5 "/>
<text text-anchor="middle" x="846.5" y="-489.5" font-family="Helvetica,sans-Serif" font-size="10.00" fill="#000000"> </text>
<polyline fill="none" stroke="#bfbfbf" points="793,-482.5 900,-482.5 "/>
<text text-anchor="middle" x="846.5" y="-470.5" font-family="Helvetica,sans-Serif" font-size="10.00" fill="#000000"> </text>
</g>
<!-- Node12&#45;&gt;Node3 -->
<g id="edge11" class="edge">
<title>Node12&#45;&gt;Node3</title>
<path fill="none" stroke="#404040" d="M837.4151,-463.3202C824.9169,-427.4233 799.5523,-365.6097 761.5,-324 734.7489,-294.748 699.1656,-269.9989 666.0296,-250.8064"/>
<polygon fill="none" stroke="#404040" points="665.8138,-250.6843 658.6218,-251.2087 655.3715,-244.7717 662.5635,-244.2472 665.8138,-250.6843"/>
<text text-anchor="middle" x="846.5" y="-382" font-family="Helvetica,sans-Serif" font-size="10.00" fill="#000000"> +@76</text>
</g>
<!-- Node13 -->
<g id="node13" class="node">
<title>Node13</title>
<polygon fill="none" stroke="#bfbfbf" points="918,-463.5 918,-520.5 1025,-520.5 1025,-463.5 918,-463.5"/>
<text text-anchor="middle" x="971.5" y="-508.5" font-family="Helvetica,sans-Serif" font-size="10.00" fill="#000000">anonymous:+@78</text>
<polyline fill="none" stroke="#bfbfbf" points="918,-501.5 1025,-501.5 "/>
<text text-anchor="middle" x="971.5" y="-489.5" font-family="Helvetica,sans-Serif" font-size="10.00" fill="#000000"> </text>
<polyline fill="none" stroke="#bfbfbf" points="918,-482.5 1025,-482.5 "/>
<text text-anchor="middle" x="971.5" y="-470.5" font-family="Helvetica,sans-Serif" font-size="10.00" fill="#000000"> </text>
</g>
<!-- Node13&#45;&gt;Node3 -->
<g id="edge12" class="edge">
<title>Node13&#45;&gt;Node3</title>
<path fill="none" stroke="#404040" d="M960.5258,-463.466C945.0058,-426.5721 913.3348,-362.4999 867.5,-324 809.6628,-275.4184 729.3838,-244.9593 667.02,-227.1062"/>
<polygon fill="none" stroke="#404040" points="666.7554,-227.0325 659.9016,-229.2743 655.1962,-223.8099 662.05,-221.5681 666.7554,-227.0325"/>
<text text-anchor="middle" x="967.5" y="-382" font-family="Helvetica,sans-Serif" font-size="10.00" fill="#000000"> +@78</text>
</g>
<!-- Node14 -->
<g id="node14" class="node">
<title>Node14</title>
<polygon fill="none" stroke="#bfbfbf" points="1043,-463.5 1043,-520.5 1150,-520.5 1150,-463.5 1043,-463.5"/>
<text text-anchor="middle" x="1096.5" y="-508.5" font-family="Helvetica,sans-Serif" font-size="10.00" fill="#000000">anonymous:+@66</text>
<polyline fill="none" stroke="#bfbfbf" points="1043,-501.5 1150,-501.5 "/>
<text text-anchor="middle" x="1096.5" y="-489.5" font-family="Helvetica,sans-Serif" font-size="10.00" fill="#000000"> </text>
<polyline fill="none" stroke="#bfbfbf" points="1043,-482.5 1150,-482.5 "/>
<text text-anchor="middle" x="1096.5" y="-470.5" font-family="Helvetica,sans-Serif" font-size="10.00" fill="#000000"> </text>
</g>
<!-- Node14&#45;&gt;Node3 -->
<g id="edge13" class="edge">
<title>Node14&#45;&gt;Node3</title>
<path fill="none" stroke="#404040" d="M1085.6774,-463.3651C1069.9955,-425.7542 1037.3758,-360.2511 988.5,-324 893.43,-253.4868 757.7891,-224.8882 667.3068,-213.3173"/>
<polygon fill="none" stroke="#404040" points="667.0354,-213.2842 660.5941,-216.5261 655.1242,-211.8272 661.5654,-208.5853 667.0354,-213.2842"/>
<text text-anchor="middle" x="1093.5" y="-382" font-family="Helvetica,sans-Serif" font-size="10.00" fill="#000000"> +@66</text>
</g>
<!-- Node15 -->
<g id="node15" class="node">
<title>Node15</title>
<polygon fill="none" stroke="#bfbfbf" points="1168,-463.5 1168,-520.5 1275,-520.5 1275,-463.5 1168,-463.5"/>
<text text-anchor="middle" x="1221.5" y="-508.5" font-family="Helvetica,sans-Serif" font-size="10.00" fill="#000000">anonymous:+@80</text>
<polyline fill="none" stroke="#bfbfbf" points="1168,-501.5 1275,-501.5 "/>
<text text-anchor="middle" x="1221.5" y="-489.5" font-family="Helvetica,sans-Serif" font-size="10.00" fill="#000000"> </text>
<polyline fill="none" stroke="#bfbfbf" points="1168,-482.5 1275,-482.5 "/>
<text text-anchor="middle" x="1221.5" y="-470.5" font-family="Helvetica,sans-Serif" font-size="10.00" fill="#000000"> </text>
</g>
<!-- Node15&#45;&gt;Node3 -->
<g id="edge14" class="edge">
<title>Node15&#45;&gt;Node3</title>
<path fill="none" stroke="#404040" d="M1211.3051,-463.2389C1196.2678,-425.1743 1164.4098,-358.8289 1114.5,-324 1043.1632,-274.2186 802.9448,-235.7768 667.1297,-217.3965"/>
<polygon fill="none" stroke="#404040" points="667.019,-217.3817 660.5407,-220.5491 655.1253,-215.7873 661.6036,-212.62 667.019,-217.3817"/>
<text text-anchor="middle" x="1219.5" y="-382" font-family="Helvetica,sans-Serif" font-size="10.00" fill="#000000"> +@80</text>
</g>
</g>
</svg>
        <g id="navigator" transform="translate(0 0)" fill="#404254">
                <rect fill="#f2f5e9" fill-opacity="0.5" stroke="#606060" stroke-width=".5" x="0" y="0" width="60" height="60"/>
                <use id="zoomplus" xlink:href="#zoomPlus" x="17" y="9" onmousedown="handleZoom(evt,'in')"/>
                <use id="zoomminus" xlink:href="#zoomMin" x="42" y="9" onmousedown="handleZoom(evt,'out')"/>
                <use id="reset" xlink:href="#resetDef" x="30" y="36" onmousedown="handleReset()"/>
                <g id="arrowUp" xlink:href="#dirArrow" transform="translate(30 24)" onmousedown="handlePan(0,-1)">
                  <use xlink:href="#rim" fill="#404040">
                        <set attributeName="fill" to="#808080" begin="arrowUp.mouseover" end="arrowUp.mouseout"/>
                  </use>
                  <path fill="none" stroke="white" stroke-width="1.5" d="M0,-3.0v7 M-2.5,-0.5L0,-3.0L2.5,-0.5"/>
                </g>
                <g id="arrowRight" xlink:href="#dirArrow" transform="rotate(90) translate(36 -43)" onmousedown="handlePan(1,0)">
                  <use xlink:href="#rim" fill="#404040">
                        <set attributeName="fill" to="#808080" begin="arrowRight.mouseover" end="arrowRight.mouseout"/>
                  </use>
                  <path fill="none" stroke="white" stroke-width="1.5" d="M0,-3.0v7 M-2.5,-0.5L0,-3.0L2.5,-0.5"/>
                </g>
                <g id="arrowDown" xlink:href="#dirArrow" transform="rotate(180) translate(-30 -48)" onmousedown="handlePan(0,1)">
                  <use xlink:href="#rim" fill="#404040">
                        <set attributeName="fill" to="#808080" begin="arrowDown.mouseover" end="arrowDown.mouseout"/>
                  </use>
                  <path fill="none" stroke="white" stroke-width="1.5" d="M0,-3.0v7 M-2.5,-0.5L0,-3.0L2.5,-0.5"/>
                </g>
                <g id="arrowLeft" xlink:href="#dirArrow" transform="rotate(270) translate(-36 17)" onmousedown="handlePan(-1,0)">
                  <use xlink:href="#rim" fill="#404040">
                        <set attributeName="fill" to="#808080" begin="arrowLeft.mouseover" end="arrowLeft.mouseout"/>
                  </use>
                  <path fill="none" stroke="white" stroke-width="1.5" d="M0,-3.0v7 M-2.5,-0.5L0,-3.0L2.5,-0.5"/>
                </g>
        </g>
        <svg viewBox="0 0 15 15" width="100%" height="30px" preserveAspectRatio="xMaxYMin meet">
         <g id="arrow_out" transform="scale(0.3 0.3)">
          <a xlink:href="structTestPages_1_1RawPage__coll__graph_org.svg" target="_base">
           <rect id="button" ry="5" rx="5" y="6" x="6" height="38" width="38"
                fill="#f2f5e9" fill-opacity="0.5" stroke="#606060" stroke-width="1.0"/>
           <path id="arrow"
             d="M 11.500037,31.436501 C 11.940474,20.09759 22.043105,11.32322 32.158766,21.979434 L 37.068811,17.246167 C 37.068811,17.246167 37.088388,32 37.088388,32 L 22.160133,31.978069 C 22.160133,31.978069 26.997745,27.140456 26.997745,27.140456 C 18.528582,18.264221 13.291696,25.230495 11.500037,31.436501 z"
             style="fill:#404040;"/>
          </a>
         </g>
        </svg>
</svg>
