<?xml version="1.0" encoding="UTF-8" standalone="no"?>
<!DOCTYPE svg PUBLIC "-//W3C//DTD SVG 1.1//EN"
 "http://www.w3.org/Graphics/SVG/1.1/DTD/svg11.dtd">
<!-- Generated by graphviz version 2.40.1 (20161225.0304)
 -->
<!-- Title: /home/travis/build/AliceO2Group/AliceO2/Detectors/MUON/MCH/Mapping/Interface/include/MCHMappingInterface/Segmentation.h Pages: 1 -->
<svg width="698pt" height="195pt"
 viewBox="0.00 0.00 698.00 195.00" xmlns="http://www.w3.org/2000/svg" xmlns:xlink="http://www.w3.org/1999/xlink">
<g id="graph0" class="graph" transform="scale(1 1) rotate(0) translate(4 191)">
<title>/home/travis/build/AliceO2Group/AliceO2/Detectors/MUON/MCH/Mapping/Interface/include/MCHMappingInterface/Segmentation.h</title>
<!-- Node0 -->
<g id="node1" class="node">
<title>Node0</title>
<polygon fill="#bfbfbf" stroke="#000000" points="354.5,-123.5 354.5,-186.5 566.5,-186.5 566.5,-123.5 354.5,-123.5"/>
<text text-anchor="start" x="362.5" y="-174.5" font-family="Helvetica,sans-Serif" font-size="10.00" fill="#000000">/home/travis/build</text>
<text text-anchor="start" x="362.5" y="-163.5" font-family="Helvetica,sans-Serif" font-size="10.00" fill="#000000">/AliceO2Group/AliceO2</text>
<text text-anchor="start" x="362.5" y="-152.5" font-family="Helvetica,sans-Serif" font-size="10.00" fill="#000000">/Detectors/MUON/MCH/Mapping</text>
<text text-anchor="start" x="362.5" y="-141.5" font-family="Helvetica,sans-Serif" font-size="10.00" fill="#000000">/Interface/include/MCHMappingInterface</text>
<text text-anchor="middle" x="460.5" y="-130.5" font-family="Helvetica,sans-Serif" font-size="10.00" fill="#000000">/Segmentation.h</text>
</g>
<!-- Node1 -->
<g id="node2" class="node">
<title>Node1</title>
<g id="a_node2"><a xlink:href="../../df/db6/CathodeSegmentation_8h.html" target="_top" xlink:title="MCHMappingInterface\l/CathodeSegmentation.h">
<polygon fill="none" stroke="#000000" points="324,-56.5 324,-86.5 461,-86.5 461,-56.5 324,-56.5"/>
<text text-anchor="start" x="332" y="-74.5" font-family="Helvetica,sans-Serif" font-size="10.00" fill="#000000">MCHMappingInterface</text>
<text text-anchor="middle" x="392.5" y="-63.5" font-family="Helvetica,sans-Serif" font-size="10.00" fill="#000000">/CathodeSegmentation.h</text>
</a>
</g>
</g>
<!-- Node0&#45;&gt;Node1 -->
<g id="edge1" class="edge">
<title>Node0&#45;&gt;Node1</title>
<path fill="none" stroke="#191970" d="M434.7921,-123.4322C427.0397,-113.9127 418.6748,-103.6411 411.447,-94.7658"/>
<polygon fill="#191970" stroke="#191970" points="413.9514,-92.2984 404.9228,-86.7545 408.5236,-96.7187 413.9514,-92.2984"/>
</g>
<!-- Node9 -->
<g id="node10" class="node">
<title>Node9</title>
<g id="a_node10"><a xlink:href="../../d0/d5f/Segmentation_8inl.html" target="_top" xlink:title="Segmentation.inl">
<polygon fill="none" stroke="#000000" points="479.5,-62 479.5,-81 579.5,-81 579.5,-62 479.5,-62"/>
<text text-anchor="middle" x="529.5" y="-69" font-family="Helvetica,sans-Serif" font-size="10.00" fill="#000000">Segmentation.inl</text>
</a>
</g>
</g>
<!-- Node0&#45;&gt;Node9 -->
<g id="edge9" class="edge">
<title>Node0&#45;&gt;Node9</title>
<path fill="none" stroke="#191970" d="M486.5859,-123.4322C496.1494,-111.859 506.6315,-99.1741 514.8421,-89.2382"/>
<polygon fill="#191970" stroke="#191970" points="517.7205,-91.2494 521.3925,-81.3112 512.3245,-86.7903 517.7205,-91.2494"/>
</g>
<!-- Node2 -->
<g id="node3" class="node">
<title>Node2</title>
<g id="a_node3"><a xlink:href="../../d0/dc7/CathodeSegmentationCInterface_8h.html" target="_top" xlink:title="CathodeSegmentationCInterface.h">
<polygon fill="none" stroke="#000000" points="0,-.5 0,-19.5 185,-19.5 185,-.5 0,-.5"/>
<text text-anchor="middle" x="92.5" y="-7.5" font-family="Helvetica,sans-Serif" font-size="10.00" fill="#000000">CathodeSegmentationCInterface.h</text>
</a>
</g>
</g>
<!-- Node1&#45;&gt;Node2 -->
<g id="edge2" class="edge">
<title>Node1&#45;&gt;Node2</title>
<path fill="none" stroke="#191970" d="M323.6739,-57.3907C270.7525,-46.5418 198.5404,-31.7383 148.984,-21.5792"/>
<polygon fill="#191970" stroke="#191970" points="149.5771,-18.1281 139.0779,-19.5485 148.1713,-24.9855 149.5771,-18.1281"/>
</g>
<!-- Node3 -->
<g id="node4" class="node">
<title>Node3</title>
<polygon fill="none" stroke="#bfbfbf" points="203,-.5 203,-19.5 268,-19.5 268,-.5 203,-.5"/>
<text text-anchor="middle" x="235.5" y="-7.5" font-family="Helvetica,sans-Serif" font-size="10.00" fill="#000000">stdexcept</text>
</g>
<!-- Node1&#45;&gt;Node3 -->
<g id="edge3" class="edge">
<title>Node1&#45;&gt;Node3</title>
<path fill="none" stroke="#191970" d="M354.0935,-56.4554C328.1274,-46.284 294.161,-32.9787 269.237,-23.2155"/>
<polygon fill="#191970" stroke="#191970" points="270.4171,-19.9188 259.8294,-19.5303 267.864,-26.4366 270.4171,-19.9188"/>
</g>
<!-- Node4 -->
<g id="node5" class="node">
<title>Node4</title>
<polygon fill="none" stroke="#bfbfbf" points="286.5,-.5 286.5,-19.5 344.5,-19.5 344.5,-.5 286.5,-.5"/>
<text text-anchor="middle" x="315.5" y="-7.5" font-family="Helvetica,sans-Serif" font-size="10.00" fill="#000000">memory</text>
</g>
<!-- Node1&#45;&gt;Node4 -->
<g id="edge4" class="edge">
<title>Node1&#45;&gt;Node4</title>
<path fill="none" stroke="#191970" d="M373.4663,-56.2977C361.9985,-47.1384 347.4038,-35.4816 335.7281,-26.1562"/>
<polygon fill="#191970" stroke="#191970" points="337.8266,-23.3529 327.8287,-19.8469 333.4581,-28.8225 337.8266,-23.3529"/>
</g>
<!-- Node5 -->
<g id="node6" class="node">
<title>Node5</title>
<polygon fill="none" stroke="#bfbfbf" points="362.5,-.5 362.5,-19.5 422.5,-19.5 422.5,-.5 362.5,-.5"/>
<text text-anchor="middle" x="392.5" y="-7.5" font-family="Helvetica,sans-Serif" font-size="10.00" fill="#000000">iostream</text>
</g>
<!-- Node1&#45;&gt;Node5 -->
<g id="edge5" class="edge">
<title>Node1&#45;&gt;Node5</title>
<path fill="none" stroke="#191970" d="M392.5,-56.2977C392.5,-48.3834 392.5,-38.6043 392.5,-30.0759"/>
<polygon fill="#191970" stroke="#191970" points="396.0001,-29.8469 392.5,-19.8469 389.0001,-29.847 396.0001,-29.8469"/>
</g>
<!-- Node6 -->
<g id="node7" class="node">
<title>Node6</title>
<polygon fill="none" stroke="#bfbfbf" points="441,-.5 441,-19.5 488,-19.5 488,-.5 441,-.5"/>
<text text-anchor="middle" x="464.5" y="-7.5" font-family="Helvetica,sans-Serif" font-size="10.00" fill="#000000">vector</text>
</g>
<!-- Node1&#45;&gt;Node6 -->
<g id="edge6" class="edge">
<title>Node1&#45;&gt;Node6</title>
<path fill="none" stroke="#191970" d="M410.2978,-56.2977C420.9167,-47.2274 434.4031,-35.7077 445.2667,-26.4285"/>
<polygon fill="#191970" stroke="#191970" points="447.6413,-29.0031 452.9719,-19.8469 443.0949,-23.6805 447.6413,-29.0031"/>
</g>
<!-- Node7 -->
<g id="node8" class="node">
<title>Node7</title>
<polygon fill="none" stroke="#bfbfbf" points="506,-.5 506,-19.5 607,-19.5 607,-.5 506,-.5"/>
<text text-anchor="middle" x="556.5" y="-7.5" font-family="Helvetica,sans-Serif" font-size="10.00" fill="#000000">boost/format.hpp</text>
</g>
<!-- Node1&#45;&gt;Node7 -->
<g id="edge7" class="edge">
<title>Node1&#45;&gt;Node7</title>
<path fill="none" stroke="#191970" d="M432.6189,-56.4554C459.8627,-46.239 495.5377,-32.8609 521.6038,-23.0861"/>
<polygon fill="#191970" stroke="#191970" points="522.9515,-26.3188 531.0858,-19.5303 520.4936,-19.7645 522.9515,-26.3188"/>
</g>
<!-- Node8 -->
<g id="node9" class="node">
<title>Node8</title>
<polygon fill="none" stroke="#bfbfbf" points="625,-.5 625,-19.5 690,-19.5 690,-.5 625,-.5"/>
<text text-anchor="middle" x="657.5" y="-7.5" font-family="Helvetica,sans-Serif" font-size="10.00" fill="#000000">functional</text>
</g>
<!-- Node1&#45;&gt;Node8 -->
<g id="edge8" class="edge">
<title>Node1&#45;&gt;Node8</title>
<path fill="none" stroke="#191970" d="M459.2042,-56.4071C501.3371,-46.8174 557.1852,-34.0032 614.8177,-20.3802"/>
<polygon fill="#191970" stroke="#191970" points="615.9112,-23.7181 624.8357,-18.0082 614.2983,-16.9065 615.9112,-23.7181"/>
</g>
</g>
</svg>
