<?xml version="1.0" encoding="UTF-8" standalone="no"?>
<!DOCTYPE svg PUBLIC "-//W3C//DTD SVG 1.1//EN"
 "http://www.w3.org/Graphics/SVG/1.1/DTD/svg11.dtd">
<!-- Generated by graphviz version 2.40.1 (20161225.0304)
 -->
<!-- Title: /home/travis/build/AliceO2Group/AliceO2/Detectors/FIT/FT0/simulation/src/Digits2Raw.cxx Pages: 1 -->
<!--zoomable 408 -->
<svg id="main" version="1.1" xmlns="http://www.w3.org/2000/svg" xmlns:xlink="http://www.w3.org/1999/xlink" xml:space="preserve" onload="init(evt)">
<style type="text/css"><![CDATA[
.edge:hover path { stroke: red; }
.edge:hover polygon { stroke: red; fill: red; }
]]></style>
<script type="text/javascript"><![CDATA[
var edges = document.getElementsByTagName('g');
if (edges && edges.length) {
  for (var i=0;i<edges.length;i++) {
    if (edges[i].id.substr(0,4)=='edge') {
      edges[i].setAttribute('class','edge');
    }
  }
}
]]></script>
        <defs>
                <circle id="rim" cx="0" cy="0" r="7"/>
                <circle id="rim2" cx="0" cy="0" r="3.5"/>
                <g id="zoomPlus">
                        <use xlink:href="#rim" fill="#404040">
                                <set attributeName="fill" to="#808080" begin="zoomplus.mouseover" end="zoomplus.mouseout"/>
                        </use>
                        <path d="M-4,0h8M0,-4v8" fill="none" stroke="white" stroke-width="1.5" pointer-events="none"/>
                </g>
                <g id="zoomMin">
                        <use xlink:href="#rim" fill="#404040">
                                <set attributeName="fill" to="#808080" begin="zoomminus.mouseover" end="zoomminus.mouseout"/>
                        </use>
                        <path d="M-4,0h8" fill="none" stroke="white" stroke-width="1.5" pointer-events="none"/>
                </g>
                <g id="dirArrow">
                        <path fill="none" stroke="white" stroke-width="1.5" d="M0,-3.0v7 M-2.5,-0.5L0,-3.0L2.5,-0.5"/>
                </g>
               <g id="resetDef">
                       <use xlink:href="#rim2" fill="#404040">
                               <set attributeName="fill" to="#808080" begin="reset.mouseover" end="reset.mouseout"/>
                       </use>
               </g>
        </defs>

<script type="text/javascript">
var viewWidth = 1445;
var viewHeight = 408;
var sectionId = 'dynsection-0';
</script>
<script xlink:href="../../svgpan.js"/>
<svg id="graph" class="graph">
<g id="viewport">
<title>/home/travis/build/AliceO2Group/AliceO2/Detectors/FIT/FT0/simulation/src/Digits2Raw.cxx</title>
<!-- Node0 -->
<g id="node1" class="node">
<title>Node0</title>
<polygon fill="#bfbfbf" stroke="#000000" points="956.5,-347.5 956.5,-399.5 1115.5,-399.5 1115.5,-347.5 956.5,-347.5"/>
<text text-anchor="start" x="964.5" y="-387.5" font-family="Helvetica,sans-Serif" font-size="10.00" fill="#000000">/home/travis/build</text>
<text text-anchor="start" x="964.5" y="-376.5" font-family="Helvetica,sans-Serif" font-size="10.00" fill="#000000">/AliceO2Group/AliceO2</text>
<text text-anchor="start" x="964.5" y="-365.5" font-family="Helvetica,sans-Serif" font-size="10.00" fill="#000000">/Detectors/FIT/FT0/simulation</text>
<text text-anchor="middle" x="1036" y="-354.5" font-family="Helvetica,sans-Serif" font-size="10.00" fill="#000000">/src/Digits2Raw.cxx</text>
</g>
<!-- Node1 -->
<g id="node2" class="node">
<title>Node1</title>
<g id="a_node2"><a xlink:href="../../d4/d78/DataFormats_2Headers_2include_2Headers_2RAWDataHeader_8h.html" target="_top" xlink:title="Headers/RAWDataHeader.h">
<polygon fill="none" stroke="#000000" points="215.5,-179.5 215.5,-198.5 364.5,-198.5 364.5,-179.5 215.5,-179.5"/>
<text text-anchor="middle" x="290" y="-186.5" font-family="Helvetica,sans-Serif" font-size="10.00" fill="#000000">Headers/RAWDataHeader.h</text>
</a>
</g>
</g>
<!-- Node0&#45;&gt;Node1 -->
<g id="edge1" class="edge">
<title>Node0&#45;&gt;Node1</title>
<path fill="none" stroke="#191970" d="M956.1927,-370.0393C790.2287,-361.3282 415.2307,-333.3001 318,-255 303.8025,-243.5667 296.6855,-223.6146 293.1943,-208.6325"/>
<polygon fill="#191970" stroke="#191970" points="296.6217,-207.9227 291.2435,-198.7945 289.7554,-209.2843 296.6217,-207.9227"/>
</g>
<!-- Node3 -->
<g id="node4" class="node">
<title>Node3</title>
<g id="a_node4"><a xlink:href="../../d9/d80/InteractionRecord_8h.html" target="_top" xlink:title="CommonDataFormat/Interaction\lRecord.h">
<polygon fill="none" stroke="#000000" points="332,-112.5 332,-142.5 506,-142.5 506,-112.5 332,-112.5"/>
<text text-anchor="start" x="340" y="-130.5" font-family="Helvetica,sans-Serif" font-size="10.00" fill="#000000">CommonDataFormat/Interaction</text>
<text text-anchor="middle" x="419" y="-119.5" font-family="Helvetica,sans-Serif" font-size="10.00" fill="#000000">Record.h</text>
</a>
</g>
</g>
<!-- Node0&#45;&gt;Node3 -->
<g id="edge3" class="edge">
<title>Node0&#45;&gt;Node3</title>
<path fill="none" stroke="#191970" d="M956.4647,-370.0681C808.3072,-362.9679 495.7815,-344.4651 393,-311 301.2445,-281.1249 254.0713,-283.2371 207,-199 202.664,-191.2404 201.5063,-185.988 207,-179 221.7551,-160.2314 273.3878,-147.459 321.9999,-139.3286"/>
<polygon fill="#191970" stroke="#191970" points="322.6776,-142.7646 331.9911,-137.7138 321.5607,-135.8542 322.6776,-142.7646"/>
</g>
<!-- Node8 -->
<g id="node9" class="node">
<title>Node8</title>
<g id="a_node9"><a xlink:href="../../d1/dfe/RawEventData_8h.html" target="_top" xlink:title="DataFormatsFT0/RawEventData.h">
<polygon fill="none" stroke="#000000" points="354.5,-235.5 354.5,-254.5 535.5,-254.5 535.5,-235.5 354.5,-235.5"/>
<text text-anchor="middle" x="445" y="-242.5" font-family="Helvetica,sans-Serif" font-size="10.00" fill="#000000">DataFormatsFT0/RawEventData.h</text>
</a>
</g>
</g>
<!-- Node0&#45;&gt;Node8 -->
<g id="edge9" class="edge">
<title>Node0&#45;&gt;Node8</title>
<path fill="none" stroke="#191970" d="M956.3104,-360.597C887.1885,-348.9893 784.5982,-330.7621 696,-311 622.3549,-294.5732 537.6534,-271.3953 487.8744,-257.328"/>
<polygon fill="#191970" stroke="#191970" points="488.6739,-253.9168 478.0983,-254.5555 486.764,-260.6512 488.6739,-253.9168"/>
</g>
<!-- Node13 -->
<g id="node14" class="node">
<title>Node13</title>
<polygon fill="none" stroke="#bfbfbf" points="1097,-118 1097,-137 1149,-137 1149,-118 1097,-118"/>
<text text-anchor="middle" x="1123" y="-125" font-family="Helvetica,sans-Serif" font-size="10.00" fill="#000000">cassert</text>
</g>
<!-- Node0&#45;&gt;Node13 -->
<g id="edge46" class="edge">
<title>Node0&#45;&gt;Node13</title>
<path fill="none" stroke="#191970" d="M1113.1314,-347.3478C1130.9027,-338.2243 1148.294,-326.3098 1161,-311 1183.0446,-284.4379 1184.9619,-268.5874 1177,-235 1169.0208,-201.3395 1148.7616,-166.235 1135.453,-145.6458"/>
<polygon fill="#191970" stroke="#191970" points="1138.3394,-143.6652 1129.8965,-137.2646 1132.5051,-147.5333 1138.3394,-143.6652"/>
</g>
<!-- Node16 -->
<g id="node17" class="node">
<title>Node16</title>
<g id="a_node17"><a xlink:href="../../dd/da4/Logger_8h.html" target="_top" xlink:title="Framework/Logger.h">
<polygon fill="none" stroke="#000000" points="979.5,-179.5 979.5,-198.5 1094.5,-198.5 1094.5,-179.5 979.5,-179.5"/>
<text text-anchor="middle" x="1037" y="-186.5" font-family="Helvetica,sans-Serif" font-size="10.00" fill="#000000">Framework/Logger.h</text>
</a>
</g>
</g>
<!-- Node0&#45;&gt;Node16 -->
<g id="edge44" class="edge">
<title>Node0&#45;&gt;Node16</title>
<path fill="none" stroke="#191970" d="M1088.0824,-347.3275C1133.9843,-320.6521 1189.3399,-277.2973 1160,-235 1151.1273,-222.2089 1116.7192,-209.9745 1086.5442,-201.3428"/>
<polygon fill="#191970" stroke="#191970" points="1087.0881,-197.8614 1076.5162,-198.558 1085.215,-204.6062 1087.0881,-197.8614"/>
</g>
<!-- Node18 -->
<g id="node19" class="node">
<title>Node18</title>
<g id="a_node19"><a xlink:href="../../d8/dfe/Digits2Raw_8h.html" target="_top" xlink:title="converts digits to raw format ">
<polygon fill="none" stroke="#000000" points="704.5,-291.5 704.5,-310.5 857.5,-310.5 857.5,-291.5 704.5,-291.5"/>
<text text-anchor="middle" x="781" y="-298.5" font-family="Helvetica,sans-Serif" font-size="10.00" fill="#000000">FT0Simulation/Digits2Raw.h</text>
</a>
</g>
</g>
<!-- Node0&#45;&gt;Node18 -->
<g id="edge28" class="edge">
<title>Node0&#45;&gt;Node18</title>
<path fill="none" stroke="#191970" d="M956.3653,-350.8588C912.6865,-338.4403 860.2403,-323.5291 824.1492,-313.2679"/>
<polygon fill="#191970" stroke="#191970" points="825.0003,-309.8712 814.4243,-310.503 823.0859,-316.6044 825.0003,-309.8712"/>
</g>
<!-- Node19 -->
<g id="node20" class="node">
<title>Node19</title>
<polygon fill="none" stroke="#bfbfbf" points="866.5,-235.5 866.5,-254.5 949.5,-254.5 949.5,-235.5 866.5,-235.5"/>
<text text-anchor="middle" x="908" y="-242.5" font-family="Helvetica,sans-Serif" font-size="10.00" fill="#000000">TStopwatch.h</text>
</g>
<!-- Node0&#45;&gt;Node19 -->
<g id="edge45" class="edge">
<title>Node0&#45;&gt;Node19</title>
<path fill="none" stroke="#191970" d="M1010.0973,-347.4961C984.5935,-321.8926 946.3991,-283.5491 924.6796,-261.7448"/>
<polygon fill="#191970" stroke="#191970" points="927.0141,-259.129 917.4771,-254.5142 922.0547,-264.0691 927.0141,-259.129"/>
</g>
<!-- Node20 -->
<g id="node21" class="node">
<title>Node20</title>
<polygon fill="none" stroke="#bfbfbf" points="967.5,-235.5 967.5,-254.5 1022.5,-254.5 1022.5,-235.5 967.5,-235.5"/>
<text text-anchor="middle" x="995" y="-242.5" font-family="Helvetica,sans-Serif" font-size="10.00" fill="#000000">fstream</text>
</g>
<!-- Node0&#45;&gt;Node20 -->
<g id="edge47" class="edge">
<title>Node0&#45;&gt;Node20</title>
<path fill="none" stroke="#191970" d="M1027.703,-347.4961C1019.8205,-322.791 1008.1532,-286.2242 1001.0941,-264.0998"/>
<polygon fill="#191970" stroke="#191970" points="1004.4098,-262.9771 998.0356,-254.5142 997.741,-265.1049 1004.4098,-262.9771"/>
</g>
<!-- Node23 -->
<g id="node24" class="node">
<title>Node23</title>
<polygon fill="none" stroke="#bfbfbf" points="1041,-235.5 1041,-254.5 1085,-254.5 1085,-235.5 1041,-235.5"/>
<text text-anchor="middle" x="1063" y="-242.5" font-family="Helvetica,sans-Serif" font-size="10.00" fill="#000000">bitset</text>
</g>
<!-- Node0&#45;&gt;Node23 -->
<g id="edge49" class="edge">
<title>Node0&#45;&gt;Node23</title>
<path fill="none" stroke="#191970" d="M1041.4639,-347.4961C1046.6312,-322.9033 1054.2683,-286.5564 1058.9232,-264.4024"/>
<polygon fill="#191970" stroke="#191970" points="1062.3698,-265.0202 1061.0009,-254.5142 1055.5194,-263.5807 1062.3698,-265.0202"/>
</g>
<!-- Node24 -->
<g id="node25" class="node">
<title>Node24</title>
<polygon fill="none" stroke="#bfbfbf" points="1103.5,-235.5 1103.5,-254.5 1150.5,-254.5 1150.5,-235.5 1103.5,-235.5"/>
<text text-anchor="middle" x="1127" y="-242.5" font-family="Helvetica,sans-Serif" font-size="10.00" fill="#000000">vector</text>
</g>
<!-- Node0&#45;&gt;Node24 -->
<g id="edge48" class="edge">
<title>Node0&#45;&gt;Node24</title>
<path fill="none" stroke="#191970" d="M1054.4152,-347.4961C1072.2287,-322.3418 1098.7506,-284.8906 1114.3184,-262.9075"/>
<polygon fill="#191970" stroke="#191970" points="1117.3393,-264.6978 1120.2623,-254.5142 1111.6267,-260.6523 1117.3393,-264.6978"/>
</g>
<!-- Node25 -->
<g id="node26" class="node">
<title>Node25</title>
<g id="a_node26"><a xlink:href="../../de/da4/Triggers_8h.html" target="_top" xlink:title="Definition of the 32 Central Trigger System (CTS) Trigger Types defined in https://twiki.cern.ch/twiki/pub/ALICE/NoteForFEDevelopers/CTS_CRU_FE_interface.pdf. ">
<polygon fill="none" stroke="#000000" points="0,-291.5 0,-310.5 160,-310.5 160,-291.5 0,-291.5"/>
<text text-anchor="middle" x="80" y="-298.5" font-family="Helvetica,sans-Serif" font-size="10.00" fill="#000000">CommonConstants/Triggers.h</text>
</a>
</g>
</g>
<!-- Node0&#45;&gt;Node25 -->
<g id="edge42" class="edge">
<title>Node0&#45;&gt;Node25</title>
<path fill="none" stroke="#191970" d="M956.3039,-368.6197C804.1249,-359.1016 461.69,-336.7249 174,-311 172.8762,-310.8995 171.7449,-310.7972 170.6075,-310.6933"/>
<polygon fill="#191970" stroke="#191970" points="170.5187,-307.1696 160.2349,-309.7179 169.8633,-314.1388 170.5187,-307.1696"/>
</g>
<!-- Node26 -->
<g id="node27" class="node">
<title>Node26</title>
<polygon fill="none" stroke="#bfbfbf" points="1245,-291.5 1245,-310.5 1301,-310.5 1301,-291.5 1245,-291.5"/>
<text text-anchor="middle" x="1273" y="-298.5" font-family="Helvetica,sans-Serif" font-size="10.00" fill="#000000">iomanip</text>
</g>
<!-- Node0&#45;&gt;Node26 -->
<g id="edge50" class="edge">
<title>Node0&#45;&gt;Node26</title>
<path fill="none" stroke="#191970" d="M1115.5769,-349.1569C1155.8625,-336.8332 1202.8999,-322.4441 1234.9958,-312.6258"/>
<polygon fill="#191970" stroke="#191970" points="1236.3253,-315.8792 1244.864,-309.607 1234.2776,-309.1854 1236.3253,-315.8792"/>
</g>
<!-- Node27 -->
<g id="node28" class="node">
<title>Node27</title>
<polygon fill="none" stroke="#bfbfbf" points="1319,-291.5 1319,-310.5 1367,-310.5 1367,-291.5 1319,-291.5"/>
<text text-anchor="middle" x="1343" y="-298.5" font-family="Helvetica,sans-Serif" font-size="10.00" fill="#000000">TFile.h</text>
</g>
<!-- Node0&#45;&gt;Node27 -->
<g id="edge51" class="edge">
<title>Node0&#45;&gt;Node27</title>
<path fill="none" stroke="#191970" d="M1115.7939,-356.8422C1168.1871,-345.5447 1238.3924,-329.7276 1308.9487,-311.1531"/>
<polygon fill="#191970" stroke="#191970" points="1310.1356,-314.4594 1318.905,-308.514 1308.3421,-307.6931 1310.1356,-314.4594"/>
</g>
<!-- Node28 -->
<g id="node29" class="node">
<title>Node28</title>
<polygon fill="none" stroke="#bfbfbf" points="1385,-291.5 1385,-310.5 1437,-310.5 1437,-291.5 1385,-291.5"/>
<text text-anchor="middle" x="1411" y="-298.5" font-family="Helvetica,sans-Serif" font-size="10.00" fill="#000000">TTree.h</text>
</g>
<!-- Node0&#45;&gt;Node28 -->
<g id="edge52" class="edge">
<title>Node0&#45;&gt;Node28</title>
<path fill="none" stroke="#191970" d="M1115.7972,-361.0675C1182.6219,-350.1425 1280.6394,-332.9254 1374.7254,-311.1393"/>
<polygon fill="#191970" stroke="#191970" points="1375.7565,-314.4927 1384.6979,-308.8093 1374.1638,-307.6763 1375.7565,-314.4927"/>
</g>
<!-- Node2 -->
<g id="node3" class="node">
<title>Node2</title>
<polygon fill="none" stroke="#bfbfbf" points="152,-56.5 152,-75.5 202,-75.5 202,-56.5 152,-56.5"/>
<text text-anchor="middle" x="177" y="-63.5" font-family="Helvetica,sans-Serif" font-size="10.00" fill="#000000">cstdint</text>
</g>
<!-- Node1&#45;&gt;Node2 -->
<g id="edge2" class="edge">
<title>Node1&#45;&gt;Node2</title>
<path fill="none" stroke="#191970" d="M281.1331,-179.3484C262.0723,-158.6008 216.9742,-109.5117 192.8586,-83.262"/>
<polygon fill="#191970" stroke="#191970" points="195.1686,-80.603 185.8257,-75.6068 190.0137,-85.3388 195.1686,-80.603"/>
</g>
<!-- Node3&#45;&gt;Node2 -->
<g id="edge7" class="edge">
<title>Node3&#45;&gt;Node2</title>
<path fill="none" stroke="#191970" d="M359.8001,-112.4554C313.4295,-100.6711 250.5062,-84.6803 211.8829,-74.8649"/>
<polygon fill="#191970" stroke="#191970" points="212.6938,-71.4598 202.1398,-72.3888 210.9697,-78.2441 212.6938,-71.4598"/>
</g>
<!-- Node4 -->
<g id="node5" class="node">
<title>Node4</title>
<polygon fill="none" stroke="#bfbfbf" points="670.5,-.5 670.5,-19.5 729.5,-19.5 729.5,-.5 670.5,-.5"/>
<text text-anchor="middle" x="700" y="-7.5" font-family="Helvetica,sans-Serif" font-size="10.00" fill="#000000">Rtypes.h</text>
</g>
<!-- Node3&#45;&gt;Node4 -->
<g id="edge4" class="edge">
<title>Node3&#45;&gt;Node4</title>
<path fill="none" stroke="#191970" d="M450.0016,-112.2899C470.7083,-102.0959 498.5305,-88.332 523,-76 540.3954,-67.2332 544.0414,-63.5463 562,-56 594.5552,-42.3202 632.7176,-29.8607 660.6493,-21.3697"/>
<polygon fill="#191970" stroke="#191970" points="661.8776,-24.6553 670.4478,-18.4261 659.8636,-17.9513 661.8776,-24.6553"/>
</g>
<!-- Node5 -->
<g id="node6" class="node">
<title>Node5</title>
<polygon fill="none" stroke="#bfbfbf" points="570.5,-56.5 570.5,-75.5 619.5,-75.5 619.5,-56.5 570.5,-56.5"/>
<text text-anchor="middle" x="595" y="-63.5" font-family="Helvetica,sans-Serif" font-size="10.00" fill="#000000">iosfwd</text>
</g>
<!-- Node3&#45;&gt;Node5 -->
<g id="edge5" class="edge">
<title>Node3&#45;&gt;Node5</title>
<path fill="none" stroke="#191970" d="M462.0544,-112.4554C492.3269,-101.8773 532.2994,-87.9096 560.482,-78.0617"/>
<polygon fill="#191970" stroke="#191970" points="562.0062,-81.2367 570.2919,-74.6338 559.697,-74.6285 562.0062,-81.2367"/>
</g>
<!-- Node6 -->
<g id="node7" class="node">
<title>Node6</title>
<polygon fill="none" stroke="#bfbfbf" points="258.5,-56.5 258.5,-75.5 305.5,-75.5 305.5,-56.5 258.5,-56.5"/>
<text text-anchor="middle" x="282" y="-63.5" font-family="Helvetica,sans-Serif" font-size="10.00" fill="#000000">cmath</text>
</g>
<!-- Node3&#45;&gt;Node6 -->
<g id="edge6" class="edge">
<title>Node3&#45;&gt;Node6</title>
<path fill="none" stroke="#191970" d="M385.486,-112.4554C363.2288,-102.464 334.2353,-89.4487 312.6015,-79.7372"/>
<polygon fill="#191970" stroke="#191970" points="313.7865,-76.4327 303.2301,-75.5303 310.9197,-82.8187 313.7865,-76.4327"/>
</g>
<!-- Node7 -->
<g id="node8" class="node">
<title>Node7</title>
<g id="a_node8"><a xlink:href="../../d4/dc6/LHCConstants_8h.html" target="_top" xlink:title="Header to collect LHC related constants. ">
<polygon fill="none" stroke="#000000" points="324,-56.5 324,-75.5 514,-75.5 514,-56.5 324,-56.5"/>
<text text-anchor="middle" x="419" y="-63.5" font-family="Helvetica,sans-Serif" font-size="10.00" fill="#000000">CommonConstants/LHCConstants.h</text>
</a>
</g>
</g>
<!-- Node3&#45;&gt;Node7 -->
<g id="edge8" class="edge">
<title>Node3&#45;&gt;Node7</title>
<path fill="none" stroke="#191970" d="M419,-112.2977C419,-104.3834 419,-94.6043 419,-86.0759"/>
<polygon fill="#191970" stroke="#191970" points="422.5001,-85.8469 419,-75.8469 415.5001,-85.847 422.5001,-85.8469"/>
</g>
<!-- Node8&#45;&gt;Node1 -->
<g id="edge17" class="edge">
<title>Node8&#45;&gt;Node1</title>
<path fill="none" stroke="#191970" d="M418.3546,-235.3733C392.8036,-226.1419 354.0488,-212.1402 325.8091,-201.9375"/>
<polygon fill="#191970" stroke="#191970" points="326.8921,-198.6074 316.2978,-198.5011 324.5135,-205.1909 326.8921,-198.6074"/>
</g>
<!-- Node8&#45;&gt;Node3 -->
<g id="edge23" class="edge">
<title>Node8&#45;&gt;Node3</title>
<path fill="none" stroke="#191970" d="M435.0638,-235.4913C426.824,-226.8654 415.7233,-213.3368 411,-199 406.079,-184.0632 407.9336,-166.5239 411.0894,-152.555"/>
<polygon fill="#191970" stroke="#191970" points="414.5302,-153.2306 413.6656,-142.6711 407.7565,-151.4651 414.5302,-153.2306"/>
</g>
<!-- Node8&#45;&gt;Node4 -->
<g id="edge27" class="edge">
<title>Node8&#45;&gt;Node4</title>
<path fill="none" stroke="#191970" d="M456.5236,-235.3529C471.2662,-221.8495 493.2833,-196.9548 479,-179 434.702,-123.3152 385.96,-176.1534 323,-143 278.3383,-119.4822 216.172,-93.4622 250,-56 277.2547,-25.8173 555.0125,-14.3623 660.0531,-11.089"/>
<polygon fill="#191970" stroke="#191970" points="660.3578,-14.5815 670.2472,-10.7803 660.1458,-7.5847 660.3578,-14.5815"/>
</g>
<!-- Node9 -->
<g id="node10" class="node">
<title>Node9</title>
<g id="a_node10"><a xlink:href="../../d0/d0a/DataFormats_2Detectors_2FIT_2FT0_2include_2DataFormatsFT0_2Digit_8h.html" target="_top" xlink:title="DataFormatsFT0/Digit.h">
<polygon fill="none" stroke="#000000" points="564,-179.5 564,-198.5 696,-198.5 696,-179.5 564,-179.5"/>
<text text-anchor="middle" x="630" y="-186.5" font-family="Helvetica,sans-Serif" font-size="10.00" fill="#000000">DataFormatsFT0/Digit.h</text>
</a>
</g>
</g>
<!-- Node8&#45;&gt;Node9 -->
<g id="edge10" class="edge">
<title>Node8&#45;&gt;Node9</title>
<path fill="none" stroke="#191970" d="M476.8026,-235.3733C507.8317,-225.9807 555.1754,-211.6496 589.0147,-201.4064"/>
<polygon fill="#191970" stroke="#191970" points="590.0553,-204.7483 598.6124,-198.5011 588.0272,-198.0485 590.0553,-204.7483"/>
</g>
<!-- Node12 -->
<g id="node13" class="node">
<title>Node12</title>
<g id="a_node13"><a xlink:href="../../df/d27/LookUpTable_8h.html" target="_top" xlink:title="DataFormatsFT0/LookUpTable.h">
<polygon fill="none" stroke="#000000" points="790.5,-179.5 790.5,-198.5 961.5,-198.5 961.5,-179.5 790.5,-179.5"/>
<text text-anchor="middle" x="876" y="-186.5" font-family="Helvetica,sans-Serif" font-size="10.00" fill="#000000">DataFormatsFT0/LookUpTable.h</text>
</a>
</g>
</g>
<!-- Node8&#45;&gt;Node12 -->
<g id="edge18" class="edge">
<title>Node8&#45;&gt;Node12</title>
<path fill="none" stroke="#191970" d="M518.6018,-235.4369C594.6886,-225.5509 713.2587,-210.145 792.7263,-199.8198"/>
<polygon fill="#191970" stroke="#191970" points="793.2361,-203.2831 802.7017,-198.5237 792.3341,-196.3414 793.2361,-203.2831"/>
</g>
<!-- Node14 -->
<g id="node15" class="node">
<title>Node14</title>
<polygon fill="none" stroke="#bfbfbf" points="819,-118 819,-137 879,-137 879,-118 819,-118"/>
<text text-anchor="middle" x="849" y="-125" font-family="Helvetica,sans-Serif" font-size="10.00" fill="#000000">iostream</text>
</g>
<!-- Node8&#45;&gt;Node14 -->
<g id="edge25" class="edge">
<title>Node8&#45;&gt;Node14</title>
<path fill="none" stroke="#191970" d="M535.3022,-235.4727C586.0421,-228.5294 650.0285,-217.0943 705,-199 716.9152,-195.078 783.1026,-161.4076 821.4659,-141.702"/>
<polygon fill="#191970" stroke="#191970" points="823.278,-144.7058 830.5699,-137.0195 820.0763,-138.4809 823.278,-144.7058"/>
</g>
<!-- Node8&#45;&gt;Node16 -->
<g id="edge24" class="edge">
<title>Node8&#45;&gt;Node16</title>
<path fill="none" stroke="#191970" d="M535.9322,-238.7993C638.6799,-231.3957 811.1584,-217.7724 969.0576,-199.1729"/>
<polygon fill="#191970" stroke="#191970" points="969.9186,-202.5953 979.4361,-197.9406 969.0932,-195.6441 969.9186,-202.5953"/>
</g>
<!-- Node17 -->
<g id="node18" class="node">
<title>Node17</title>
<polygon fill="none" stroke="#bfbfbf" points="420,-179.5 420,-198.5 470,-198.5 470,-179.5 420,-179.5"/>
<text text-anchor="middle" x="445" y="-186.5" font-family="Helvetica,sans-Serif" font-size="10.00" fill="#000000">cstring</text>
</g>
<!-- Node8&#45;&gt;Node17 -->
<g id="edge26" class="edge">
<title>Node8&#45;&gt;Node17</title>
<path fill="none" stroke="#191970" d="M445,-235.2455C445,-227.9382 445,-217.6944 445,-208.7046"/>
<polygon fill="#191970" stroke="#191970" points="448.5001,-208.6426 445,-198.6427 441.5001,-208.6427 448.5001,-208.6426"/>
</g>
<!-- Node9&#45;&gt;Node3 -->
<g id="edge11" class="edge">
<title>Node9&#45;&gt;Node3</title>
<path fill="none" stroke="#191970" d="M597.0313,-179.3906C565.9631,-170.3352 518.6298,-156.539 480.5772,-145.4479"/>
<polygon fill="#191970" stroke="#191970" points="481.1963,-141.9827 470.6164,-142.5446 479.2375,-148.7031 481.1963,-141.9827"/>
</g>
<!-- Node9&#45;&gt;Node4 -->
<g id="edge16" class="edge">
<title>Node9&#45;&gt;Node4</title>
<path fill="none" stroke="#191970" d="M679.9315,-179.4252C716.5442,-171.2713 761.7488,-158.4382 773,-143 778.9619,-134.8194 781.1922,-72.4311 772,-56 764.1151,-41.9059 749.9141,-31.4798 736.1955,-24.151"/>
<polygon fill="#191970" stroke="#191970" points="737.3774,-20.8322 726.8586,-19.5651 734.2914,-27.1153 737.3774,-20.8322"/>
</g>
<!-- Node9&#45;&gt;Node5 -->
<g id="edge15" class="edge">
<title>Node9&#45;&gt;Node5</title>
<path fill="none" stroke="#191970" d="M608.2342,-179.3857C593.9336,-171.773 576.3748,-159.6416 568,-143 558.3116,-123.748 569.675,-100.1832 580.4899,-84.2313"/>
<polygon fill="#191970" stroke="#191970" points="583.5674,-85.9513 586.6309,-75.809 577.9112,-81.8272 583.5674,-85.9513"/>
</g>
<!-- Node10 -->
<g id="node11" class="node">
<title>Node10</title>
<g id="a_node11"><a xlink:href="../../df/d5d/common_2include_2CommonDataFormat_2TimeStamp_8h.html" target="_top" xlink:title="CommonDataFormat/TimeStamp.h">
<polygon fill="none" stroke="#000000" points="576.5,-118 576.5,-137 763.5,-137 763.5,-118 576.5,-118"/>
<text text-anchor="middle" x="670" y="-125" font-family="Helvetica,sans-Serif" font-size="10.00" fill="#000000">CommonDataFormat/TimeStamp.h</text>
</a>
</g>
</g>
<!-- Node9&#45;&gt;Node10 -->
<g id="edge12" class="edge">
<title>Node9&#45;&gt;Node10</title>
<path fill="none" stroke="#191970" d="M636.25,-179.3906C642.0865,-170.417 650.9509,-156.7879 658.1306,-145.7491"/>
<polygon fill="#191970" stroke="#191970" points="661.1436,-147.5361 663.6619,-137.2449 655.2755,-143.7194 661.1436,-147.5361"/>
</g>
<!-- Node11 -->
<g id="node12" class="node">
<title>Node11</title>
<g id="a_node12"><a xlink:href="../../d2/d45/GPUCommonRtypes_8h.html" target="_top" xlink:title="GPUCommonRtypes.h">
<polygon fill="none" stroke="#000000" points="637.5,-56.5 637.5,-75.5 762.5,-75.5 762.5,-56.5 637.5,-56.5"/>
<text text-anchor="middle" x="700" y="-63.5" font-family="Helvetica,sans-Serif" font-size="10.00" fill="#000000">GPUCommonRtypes.h</text>
</a>
</g>
</g>
<!-- Node10&#45;&gt;Node11 -->
<g id="edge13" class="edge">
<title>Node10&#45;&gt;Node11</title>
<path fill="none" stroke="#191970" d="M674.6875,-117.8906C678.9773,-109.0965 685.4482,-95.8312 690.7734,-84.9145"/>
<polygon fill="#191970" stroke="#191970" points="694.0078,-86.2671 695.2464,-75.7449 687.7164,-83.1981 694.0078,-86.2671"/>
</g>
<!-- Node11&#45;&gt;Node4 -->
<g id="edge14" class="edge">
<title>Node11&#45;&gt;Node4</title>
<path fill="none" stroke="#191970" d="M700,-56.2455C700,-48.9382 700,-38.6944 700,-29.7046"/>
<polygon fill="#191970" stroke="#191970" points="703.5001,-29.6426 700,-19.6427 696.5001,-29.6427 703.5001,-29.6426"/>
</g>
<!-- Node12&#45;&gt;Node4 -->
<g id="edge19" class="edge">
<title>Node12&#45;&gt;Node4</title>
<path fill="none" stroke="#191970" d="M881.3009,-179.2502C888.8816,-163.8591 900.5881,-133.4769 888,-112 856.3159,-57.943 784.7219,-30.833 739.5954,-18.632"/>
<polygon fill="#191970" stroke="#191970" points="740.3968,-15.2242 729.8395,-16.1144 738.6476,-22.0022 740.3968,-15.2242"/>
</g>
<!-- Node12&#45;&gt;Node13 -->
<g id="edge20" class="edge">
<title>Node12&#45;&gt;Node13</title>
<path fill="none" stroke="#191970" d="M914.3227,-179.4581C961.4377,-167.7271 1040.7997,-147.9669 1086.8815,-136.4931"/>
<polygon fill="#191970" stroke="#191970" points="1087.8795,-139.8515 1096.7376,-134.039 1086.1882,-133.0589 1087.8795,-139.8515"/>
</g>
<!-- Node12&#45;&gt;Node14 -->
<g id="edge21" class="edge">
<title>Node12&#45;&gt;Node14</title>
<path fill="none" stroke="#191970" d="M871.7813,-179.3906C867.9204,-170.5965 862.0966,-157.3312 857.3039,-146.4145"/>
<polygon fill="#191970" stroke="#191970" points="860.5029,-144.9943 853.2782,-137.2449 854.0934,-147.8083 860.5029,-144.9943"/>
</g>
<!-- Node15 -->
<g id="node16" class="node">
<title>Node15</title>
<polygon fill="none" stroke="#bfbfbf" points="935.5,-118 935.5,-137 976.5,-137 976.5,-118 935.5,-118"/>
<text text-anchor="middle" x="956" y="-125" font-family="Helvetica,sans-Serif" font-size="10.00" fill="#000000">tuple</text>
</g>
<!-- Node12&#45;&gt;Node15 -->
<g id="edge22" class="edge">
<title>Node12&#45;&gt;Node15</title>
<path fill="none" stroke="#191970" d="M888.5,-179.3906C901.0636,-169.7324 920.6423,-154.6812 935.4849,-143.271"/>
<polygon fill="#191970" stroke="#191970" points="937.7928,-145.9115 943.5878,-137.0419 933.5265,-140.3618 937.7928,-145.9115"/>
</g>
<!-- Node18&#45;&gt;Node1 -->
<g id="edge29" class="edge">
<title>Node18&#45;&gt;Node1</title>
<path fill="none" stroke="#191970" d="M704.2747,-299.6774C596.4058,-296.6795 406.3411,-286.8966 346,-255 325.7566,-244.2992 309.7718,-222.9545 300.1479,-207.4277"/>
<polygon fill="#191970" stroke="#191970" points="303.0797,-205.5083 294.9965,-198.6591 297.0442,-209.0542 303.0797,-205.5083"/>
</g>
<!-- Node18&#45;&gt;Node3 -->
<g id="edge30" class="edge">
<title>Node18&#45;&gt;Node3</title>
<path fill="none" stroke="#191970" d="M723.514,-291.4649C689.3271,-284.3702 645.79,-272.7859 610,-255 560.6407,-230.4708 558.0233,-209.3295 512,-179 494.8363,-167.6891 475.0044,-156.4723 458.0746,-147.4086"/>
<polygon fill="#191970" stroke="#191970" points="459.4788,-144.1918 449.003,-142.6078 456.2045,-150.3789 459.4788,-144.1918"/>
</g>
<!-- Node18&#45;&gt;Node8 -->
<g id="edge31" class="edge">
<title>Node18&#45;&gt;Node8</title>
<path fill="none" stroke="#191970" d="M723.6213,-291.4369C665.0303,-281.6717 574.1244,-266.5207 512.2034,-256.2006"/>
<polygon fill="#191970" stroke="#191970" points="512.5814,-252.7154 502.142,-254.5237 511.4305,-259.6201 512.5814,-252.7154"/>
</g>
<!-- Node18&#45;&gt;Node9 -->
<g id="edge33" class="edge">
<title>Node18&#45;&gt;Node9</title>
<path fill="none" stroke="#191970" d="M720.9915,-291.4287C680.8858,-283.6663 633.3007,-271.3355 621,-255 610.9241,-241.6191 615.1311,-222.2517 620.6842,-207.9556"/>
<polygon fill="#191970" stroke="#191970" points="623.9757,-209.1644 624.7806,-198.6002 617.5634,-206.3567 623.9757,-209.1644"/>
</g>
<!-- Node18&#45;&gt;Node12 -->
<g id="edge32" class="edge">
<title>Node18&#45;&gt;Node12</title>
<path fill="none" stroke="#191970" d="M786.1137,-291.485C793.5197,-278.1384 808.0959,-253.4289 824,-235 833.3514,-224.1641 845.2162,-213.4831 855.2504,-205.1448"/>
<polygon fill="#191970" stroke="#191970" points="857.5882,-207.7554 863.1533,-198.7398 853.1806,-202.3172 857.5882,-207.7554"/>
</g>
<!-- Node18&#45;&gt;Node13 -->
<g id="edge35" class="edge">
<title>Node18&#45;&gt;Node13</title>
<path fill="none" stroke="#191970" d="M788.8487,-291.4582C801.6346,-276.6421 828.5119,-248.4158 858,-235 958.578,-189.2414 1021.5264,-272.5383 1104,-199 1118.4876,-186.082 1122.4916,-163.4986 1123.3407,-147.1633"/>
<polygon fill="#191970" stroke="#191970" points="1126.8421,-147.1067 1123.5147,-137.048 1119.8432,-146.9863 1126.8421,-147.1067"/>
</g>
<!-- Node18&#45;&gt;Node14 -->
<g id="edge37" class="edge">
<title>Node18&#45;&gt;Node14</title>
<path fill="none" stroke="#191970" d="M778.4129,-291.4847C773.1313,-270.0549 763.1238,-216.9246 782,-179 789.883,-163.162 805.2054,-150.8179 819.2097,-142.1903"/>
<polygon fill="#191970" stroke="#191970" points="821.2081,-145.0786 828.1307,-137.0581 817.7174,-139.011 821.2081,-145.0786"/>
</g>
<!-- Node18&#45;&gt;Node19 -->
<g id="edge34" class="edge">
<title>Node18&#45;&gt;Node19</title>
<path fill="none" stroke="#191970" d="M802.8321,-291.3733C823.3103,-282.3435 854.1399,-268.7494 877.1319,-258.6111"/>
<polygon fill="#191970" stroke="#191970" points="878.715,-261.7383 886.4528,-254.5011 875.8907,-255.3333 878.715,-261.7383"/>
</g>
<!-- Node18&#45;&gt;Node20 -->
<g id="edge36" class="edge">
<title>Node18&#45;&gt;Node20</title>
<path fill="none" stroke="#191970" d="M818.9007,-291.4165C852.8586,-282.783 904.2829,-269.5937 957.5357,-255.3632"/>
<polygon fill="#191970" stroke="#191970" points="958.7429,-258.6633 967.4966,-252.6948 956.9315,-251.9017 958.7429,-258.6633"/>
</g>
<!-- Node21 -->
<g id="node22" class="node">
<title>Node21</title>
<polygon fill="none" stroke="#bfbfbf" points="630,-235.5 630,-254.5 672,-254.5 672,-235.5 630,-235.5"/>
<text text-anchor="middle" x="651" y="-242.5" font-family="Helvetica,sans-Serif" font-size="10.00" fill="#000000">array</text>
</g>
<!-- Node18&#45;&gt;Node21 -->
<g id="edge38" class="edge">
<title>Node18&#45;&gt;Node21</title>
<path fill="none" stroke="#191970" d="M758.6522,-291.3733C737.3414,-282.1932 705.0793,-268.2957 681.4291,-258.1079"/>
<polygon fill="#191970" stroke="#191970" points="682.7642,-254.8722 672.1953,-254.1303 679.9948,-261.301 682.7642,-254.8722"/>
</g>
<!-- Node22 -->
<g id="node23" class="node">
<title>Node22</title>
<polygon fill="none" stroke="#bfbfbf" points="690,-235.5 690,-254.5 734,-254.5 734,-235.5 690,-235.5"/>
<text text-anchor="middle" x="712" y="-242.5" font-family="Helvetica,sans-Serif" font-size="10.00" fill="#000000">string</text>
</g>
<!-- Node18&#45;&gt;Node22 -->
<g id="edge39" class="edge">
<title>Node18&#45;&gt;Node22</title>
<path fill="none" stroke="#191970" d="M768.9811,-291.2455C758.7902,-282.9746 743.9638,-270.9416 731.9893,-261.2232"/>
<polygon fill="#191970" stroke="#191970" points="733.8514,-258.2268 723.8812,-254.6427 729.4402,-263.662 733.8514,-258.2268"/>
</g>
<!-- Node18&#45;&gt;Node23 -->
<g id="edge40" class="edge">
<title>Node18&#45;&gt;Node23</title>
<path fill="none" stroke="#191970" d="M845.9843,-291.4841C894.5669,-283.8227 962.7384,-271.9193 1030.7231,-255.0821"/>
<polygon fill="#191970" stroke="#191970" points="1031.9047,-258.3941 1040.75,-252.5621 1030.1984,-251.6052 1031.9047,-258.3941"/>
</g>
<!-- Node18&#45;&gt;Node24 -->
<g id="edge41" class="edge">
<title>Node18&#45;&gt;Node24</title>
<path fill="none" stroke="#191970" d="M857.7973,-292.9349C919.1547,-285.7517 1007.4272,-273.7664 1093.3917,-254.853"/>
<polygon fill="#191970" stroke="#191970" points="1094.3225,-258.2314 1103.3188,-252.6352 1092.7962,-251.3998 1094.3225,-258.2314"/>
</g>
<!-- Node25&#45;&gt;Node2 -->
<g id="edge43" class="edge">
<title>Node25&#45;&gt;Node2</title>
<path fill="none" stroke="#191970" d="M83.9227,-291.4967C98.4543,-256.2912 149.3967,-132.874 169.1188,-85.0937"/>
<polygon fill="#191970" stroke="#191970" points="172.4483,-86.2005 173.0285,-75.6216 165.9778,-83.5297 172.4483,-86.2005"/>
</g>
</g>
</svg>
        <g id="navigator" transform="translate(0 0)" fill="#404254">
                <rect fill="#f2f5e9" fill-opacity="0.5" stroke="#606060" stroke-width=".5" x="0" y="0" width="60" height="60"/>
                <use id="zoomplus" xlink:href="#zoomPlus" x="17" y="9" onmousedown="handleZoom(evt,'in')"/>
                <use id="zoomminus" xlink:href="#zoomMin" x="42" y="9" onmousedown="handleZoom(evt,'out')"/>
                <use id="reset" xlink:href="#resetDef" x="30" y="36" onmousedown="handleReset()"/>
                <g id="arrowUp" xlink:href="#dirArrow" transform="translate(30 24)" onmousedown="handlePan(0,-1)">
                  <use xlink:href="#rim" fill="#404040">
                        <set attributeName="fill" to="#808080" begin="arrowUp.mouseover" end="arrowUp.mouseout"/>
                  </use>
                  <path fill="none" stroke="white" stroke-width="1.5" d="M0,-3.0v7 M-2.5,-0.5L0,-3.0L2.5,-0.5"/>
                </g>
                <g id="arrowRight" xlink:href="#dirArrow" transform="rotate(90) translate(36 -43)" onmousedown="handlePan(1,0)">
                  <use xlink:href="#rim" fill="#404040">
                        <set attributeName="fill" to="#808080" begin="arrowRight.mouseover" end="arrowRight.mouseout"/>
                  </use>
                  <path fill="none" stroke="white" stroke-width="1.5" d="M0,-3.0v7 M-2.5,-0.5L0,-3.0L2.5,-0.5"/>
                </g>
                <g id="arrowDown" xlink:href="#dirArrow" transform="rotate(180) translate(-30 -48)" onmousedown="handlePan(0,1)">
                  <use xlink:href="#rim" fill="#404040">
                        <set attributeName="fill" to="#808080" begin="arrowDown.mouseover" end="arrowDown.mouseout"/>
                  </use>
                  <path fill="none" stroke="white" stroke-width="1.5" d="M0,-3.0v7 M-2.5,-0.5L0,-3.0L2.5,-0.5"/>
                </g>
                <g id="arrowLeft" xlink:href="#dirArrow" transform="rotate(270) translate(-36 17)" onmousedown="handlePan(-1,0)">
                  <use xlink:href="#rim" fill="#404040">
                        <set attributeName="fill" to="#808080" begin="arrowLeft.mouseover" end="arrowLeft.mouseout"/>
                  </use>
                  <path fill="none" stroke="white" stroke-width="1.5" d="M0,-3.0v7 M-2.5,-0.5L0,-3.0L2.5,-0.5"/>
                </g>
        </g>
        <svg viewBox="0 0 15 15" width="100%" height="30px" preserveAspectRatio="xMaxYMin meet">
         <g id="arrow_out" transform="scale(0.3 0.3)">
          <a xlink:href="Digits2Raw_8cxx__incl_org.svg" target="_base">
           <rect id="button" ry="5" rx="5" y="6" x="6" height="38" width="38"
                fill="#f2f5e9" fill-opacity="0.5" stroke="#606060" stroke-width="1.0"/>
           <path id="arrow"
             d="M 11.500037,31.436501 C 11.940474,20.09759 22.043105,11.32322 32.158766,21.979434 L 37.068811,17.246167 C 37.068811,17.246167 37.088388,32 37.088388,32 L 22.160133,31.978069 C 22.160133,31.978069 26.997745,27.140456 26.997745,27.140456 C 18.528582,18.264221 13.291696,25.230495 11.500037,31.436501 z"
             style="fill:#404040;"/>
          </a>
         </g>
        </svg>
</svg>
