<?xml version="1.0" encoding="UTF-8" standalone="no"?>
<!DOCTYPE svg PUBLIC "-//W3C//DTD SVG 1.1//EN"
 "http://www.w3.org/Graphics/SVG/1.1/DTD/svg11.dtd">
<!-- Generated by graphviz version 2.40.1 (20161225.0304)
 -->
<!-- Title: /home/travis/build/AliceO2Group/AliceO2/CCDB/src/InspectCCDBFile.cxx Pages: 1 -->
<svg width="519pt" height="162pt"
 viewBox="0.00 0.00 518.50 162.00" xmlns="http://www.w3.org/2000/svg" xmlns:xlink="http://www.w3.org/1999/xlink">
<g id="graph0" class="graph" transform="scale(1 1) rotate(0) translate(4 158)">
<title>/home/travis/build/AliceO2Group/AliceO2/CCDB/src/InspectCCDBFile.cxx</title>
<!-- Node0 -->
<g id="node1" class="node">
<title>Node0</title>
<polygon fill="#bfbfbf" stroke="#000000" points="214,-112.5 214,-153.5 381,-153.5 381,-112.5 214,-112.5"/>
<text text-anchor="start" x="222" y="-141.5" font-family="Helvetica,sans-Serif" font-size="10.00" fill="#000000">/home/travis/build</text>
<text text-anchor="start" x="222" y="-130.5" font-family="Helvetica,sans-Serif" font-size="10.00" fill="#000000">/AliceO2Group/AliceO2</text>
<text text-anchor="middle" x="297.5" y="-119.5" font-family="Helvetica,sans-Serif" font-size="10.00" fill="#000000">/CCDB/src/InspectCCDBFile.cxx</text>
</g>
<!-- Node1 -->
<g id="node2" class="node">
<title>Node1</title>
<g id="a_node2"><a xlink:href="../../dd/d3e/CcdbApi_8h.html" target="_top" xlink:title="CCDB/CcdbApi.h">
<polygon fill="none" stroke="#000000" points="204.5,-56.5 204.5,-75.5 300.5,-75.5 300.5,-56.5 204.5,-56.5"/>
<text text-anchor="middle" x="252.5" y="-63.5" font-family="Helvetica,sans-Serif" font-size="10.00" fill="#000000">CCDB/CcdbApi.h</text>
</a>
</g>
</g>
<!-- Node0&#45;&gt;Node1 -->
<g id="edge1" class="edge">
<title>Node0&#45;&gt;Node1</title>
<path fill="none" stroke="#191970" d="M283.5084,-112.168C277.5211,-103.2536 270.5911,-92.9356 264.8029,-84.3177"/>
<polygon fill="#191970" stroke="#191970" points="267.5501,-82.1304 259.069,-75.7805 261.7391,-86.0333 267.5501,-82.1304"/>
</g>
<!-- Node4 -->
<g id="node5" class="node">
<title>Node4</title>
<polygon fill="none" stroke="#bfbfbf" points="77.5,-.5 77.5,-19.5 115.5,-19.5 115.5,-.5 77.5,-.5"/>
<text text-anchor="middle" x="96.5" y="-7.5" font-family="Helvetica,sans-Serif" font-size="10.00" fill="#000000">map</text>
</g>
<!-- Node0&#45;&gt;Node4 -->
<g id="edge12" class="edge">
<title>Node0&#45;&gt;Node4</title>
<path fill="none" stroke="#191970" d="M213.717,-123.3103C155.0285,-114.598 83.9255,-99.5004 65.5,-76 53.8775,-61.1764 66.2389,-41.2876 78.6299,-27.2297"/>
<polygon fill="#191970" stroke="#191970" points="81.4161,-29.3777 85.7479,-19.7089 76.332,-24.5659 81.4161,-29.3777"/>
</g>
<!-- Node8 -->
<g id="node9" class="node">
<title>Node8</title>
<g id="a_node9"><a xlink:href="../../d3/de5/CCDBQuery_8h.html" target="_top" xlink:title="CCDB/CCDBQuery.h">
<polygon fill="none" stroke="#000000" points="74.5,-56.5 74.5,-75.5 186.5,-75.5 186.5,-56.5 74.5,-56.5"/>
<text text-anchor="middle" x="130.5" y="-63.5" font-family="Helvetica,sans-Serif" font-size="10.00" fill="#000000">CCDB/CCDBQuery.h</text>
</a>
</g>
</g>
<!-- Node0&#45;&gt;Node8 -->
<g id="edge8" class="edge">
<title>Node0&#45;&gt;Node8</title>
<path fill="none" stroke="#191970" d="M246.0318,-112.3511C219.3652,-101.6525 187.5611,-88.8928 164.0794,-79.472"/>
<polygon fill="#191970" stroke="#191970" points="165.1487,-76.1299 154.5645,-75.6546 162.5422,-82.6265 165.1487,-76.1299"/>
</g>
<!-- Node10 -->
<g id="node11" class="node">
<title>Node10</title>
<polygon fill="none" stroke="#bfbfbf" points="318.5,-56.5 318.5,-75.5 366.5,-75.5 366.5,-56.5 318.5,-56.5"/>
<text text-anchor="middle" x="342.5" y="-63.5" font-family="Helvetica,sans-Serif" font-size="10.00" fill="#000000">TFile.h</text>
</g>
<!-- Node0&#45;&gt;Node10 -->
<g id="edge13" class="edge">
<title>Node0&#45;&gt;Node10</title>
<path fill="none" stroke="#191970" d="M311.4916,-112.168C317.4789,-103.2536 324.4089,-92.9356 330.1971,-84.3177"/>
<polygon fill="#191970" stroke="#191970" points="333.2609,-86.0333 335.931,-75.7805 327.4499,-82.1304 333.2609,-86.0333"/>
</g>
<!-- Node11 -->
<g id="node12" class="node">
<title>Node11</title>
<polygon fill="none" stroke="#bfbfbf" points="384.5,-56.5 384.5,-75.5 432.5,-75.5 432.5,-56.5 384.5,-56.5"/>
<text text-anchor="middle" x="408.5" y="-63.5" font-family="Helvetica,sans-Serif" font-size="10.00" fill="#000000">TKey.h</text>
</g>
<!-- Node0&#45;&gt;Node11 -->
<g id="edge14" class="edge">
<title>Node0&#45;&gt;Node11</title>
<path fill="none" stroke="#191970" d="M331.7094,-112.3511C348.4844,-102.2256 368.3181,-90.254 383.6262,-81.0139"/>
<polygon fill="#191970" stroke="#191970" points="385.7524,-83.8188 392.505,-75.6546 382.135,-77.8259 385.7524,-83.8188"/>
</g>
<!-- Node12 -->
<g id="node13" class="node">
<title>Node12</title>
<polygon fill="none" stroke="#bfbfbf" points="450.5,-56.5 450.5,-75.5 510.5,-75.5 510.5,-56.5 450.5,-56.5"/>
<text text-anchor="middle" x="480.5" y="-63.5" font-family="Helvetica,sans-Serif" font-size="10.00" fill="#000000">iostream</text>
</g>
<!-- Node0&#45;&gt;Node12 -->
<g id="edge15" class="edge">
<title>Node0&#45;&gt;Node12</title>
<path fill="none" stroke="#191970" d="M353.8993,-112.3511C383.5122,-101.5092 418.9065,-88.5506 444.7324,-79.0953"/>
<polygon fill="#191970" stroke="#191970" points="445.9428,-82.3794 454.1299,-75.6546 443.5361,-75.8061 445.9428,-82.3794"/>
</g>
<!-- Node2 -->
<g id="node3" class="node">
<title>Node2</title>
<polygon fill="none" stroke="#bfbfbf" points="133.5,-.5 133.5,-19.5 177.5,-19.5 177.5,-.5 133.5,-.5"/>
<text text-anchor="middle" x="155.5" y="-7.5" font-family="Helvetica,sans-Serif" font-size="10.00" fill="#000000">string</text>
</g>
<!-- Node1&#45;&gt;Node2 -->
<g id="edge2" class="edge">
<title>Node1&#45;&gt;Node2</title>
<path fill="none" stroke="#191970" d="M235.6039,-56.2455C220.582,-47.5731 198.3957,-34.7645 181.179,-24.825"/>
<polygon fill="#191970" stroke="#191970" points="182.6128,-21.6114 172.2025,-19.6427 179.1129,-27.6737 182.6128,-21.6114"/>
</g>
<!-- Node3 -->
<g id="node4" class="node">
<title>Node3</title>
<polygon fill="none" stroke="#bfbfbf" points="452.5,-.5 452.5,-19.5 510.5,-19.5 510.5,-.5 452.5,-.5"/>
<text text-anchor="middle" x="481.5" y="-7.5" font-family="Helvetica,sans-Serif" font-size="10.00" fill="#000000">memory</text>
</g>
<!-- Node1&#45;&gt;Node3 -->
<g id="edge3" class="edge">
<title>Node1&#45;&gt;Node3</title>
<path fill="none" stroke="#191970" d="M293.1736,-56.4654C329.7661,-47.829 385.2555,-34.5894 442.5175,-20.2124"/>
<polygon fill="#191970" stroke="#191970" points="443.6273,-23.5423 452.4701,-17.7065 441.9181,-16.7541 443.6273,-23.5423"/>
</g>
<!-- Node1&#45;&gt;Node4 -->
<g id="edge4" class="edge">
<title>Node1&#45;&gt;Node4</title>
<path fill="none" stroke="#191970" d="M225.6826,-56.3733C197.629,-46.3027 153.7604,-30.555 125.069,-20.2555"/>
<polygon fill="#191970" stroke="#191970" points="126.1988,-16.9425 115.6043,-16.8579 123.8337,-23.5308 126.1988,-16.9425"/>
</g>
<!-- Node5 -->
<g id="node6" class="node">
<title>Node5</title>
<polygon fill="none" stroke="#bfbfbf" points="196,-.5 196,-19.5 261,-19.5 261,-.5 196,-.5"/>
<text text-anchor="middle" x="228.5" y="-7.5" font-family="Helvetica,sans-Serif" font-size="10.00" fill="#000000">curl/curl.h</text>
</g>
<!-- Node1&#45;&gt;Node5 -->
<g id="edge5" class="edge">
<title>Node1&#45;&gt;Node5</title>
<path fill="none" stroke="#191970" d="M248.3195,-56.2455C245.119,-48.7776 240.604,-38.2427 236.6916,-29.1137"/>
<polygon fill="#191970" stroke="#191970" points="239.7888,-27.4554 232.6326,-19.6427 233.3548,-30.2129 239.7888,-27.4554"/>
</g>
<!-- Node6 -->
<g id="node7" class="node">
<title>Node6</title>
<polygon fill="none" stroke="#bfbfbf" points="279,-.5 279,-19.5 342,-19.5 342,-.5 279,-.5"/>
<text text-anchor="middle" x="310.5" y="-7.5" font-family="Helvetica,sans-Serif" font-size="10.00" fill="#000000">TObject.h</text>
</g>
<!-- Node1&#45;&gt;Node6 -->
<g id="edge6" class="edge">
<title>Node1&#45;&gt;Node6</title>
<path fill="none" stroke="#191970" d="M262.6028,-56.2455C271.0028,-48.1352 283.1494,-36.4075 293.1084,-26.7919"/>
<polygon fill="#191970" stroke="#191970" points="295.75,-29.1066 300.5129,-19.6427 290.8878,-24.0707 295.75,-29.1066"/>
</g>
<!-- Node7 -->
<g id="node8" class="node">
<title>Node7</title>
<polygon fill="none" stroke="#bfbfbf" points="360.5,-.5 360.5,-19.5 434.5,-19.5 434.5,-.5 360.5,-.5"/>
<text text-anchor="middle" x="397.5" y="-7.5" font-family="Helvetica,sans-Serif" font-size="10.00" fill="#000000">TMessage.h</text>
</g>
<!-- Node1&#45;&gt;Node7 -->
<g id="edge7" class="edge">
<title>Node1&#45;&gt;Node7</title>
<path fill="none" stroke="#191970" d="M277.4264,-56.3733C301.1202,-47.2226 336.9511,-33.3844 363.3068,-23.2057"/>
<polygon fill="#191970" stroke="#191970" points="364.8314,-26.3689 372.8989,-19.5011 362.3094,-19.8389 364.8314,-26.3689"/>
</g>
<!-- Node8&#45;&gt;Node2 -->
<g id="edge9" class="edge">
<title>Node8&#45;&gt;Node2</title>
<path fill="none" stroke="#191970" d="M134.8547,-56.2455C138.2244,-48.6973 142.993,-38.0158 147.0983,-28.8197"/>
<polygon fill="#191970" stroke="#191970" points="150.3147,-30.2009 151.1952,-19.6427 143.9227,-27.3473 150.3147,-30.2009"/>
</g>
<!-- Node8&#45;&gt;Node4 -->
<g id="edge10" class="edge">
<title>Node8&#45;&gt;Node4</title>
<path fill="none" stroke="#191970" d="M124.5777,-56.2455C119.8973,-48.5367 113.2327,-37.5598 107.5711,-28.2348"/>
<polygon fill="#191970" stroke="#191970" points="110.5361,-26.3741 102.3545,-19.6427 104.5525,-30.007 110.5361,-26.3741"/>
</g>
<!-- Node9 -->
<g id="node10" class="node">
<title>Node9</title>
<polygon fill="none" stroke="#bfbfbf" points="0,-.5 0,-19.5 59,-19.5 59,-.5 0,-.5"/>
<text text-anchor="middle" x="29.5" y="-7.5" font-family="Helvetica,sans-Serif" font-size="10.00" fill="#000000">Rtypes.h</text>
</g>
<!-- Node8&#45;&gt;Node9 -->
<g id="edge11" class="edge">
<title>Node8&#45;&gt;Node9</title>
<path fill="none" stroke="#191970" d="M112.9071,-56.2455C97.121,-47.4928 73.7361,-34.527 55.7413,-24.5496"/>
<polygon fill="#191970" stroke="#191970" points="57.3341,-21.4308 46.8913,-19.6427 53.9397,-27.5528 57.3341,-21.4308"/>
</g>
</g>
</svg>
