<?xml version="1.0" encoding="UTF-8" standalone="no"?>
<!DOCTYPE svg PUBLIC "-//W3C//DTD SVG 1.1//EN"
 "http://www.w3.org/Graphics/SVG/1.1/DTD/svg11.dtd">
<!-- Generated by graphviz version 2.40.1 (20161225.0304)
 -->
<!-- Title: /home/travis/build/AliceO2Group/AliceO2/Framework/Core/include/Framework/ForwardRoute.h Pages: 1 -->
<!--zoomable 374 -->
<svg id="main" version="1.1" xmlns="http://www.w3.org/2000/svg" xmlns:xlink="http://www.w3.org/1999/xlink" xml:space="preserve" onload="init(evt)">
<style type="text/css"><![CDATA[
.edge:hover path { stroke: red; }
.edge:hover polygon { stroke: red; fill: red; }
]]></style>
<script type="text/javascript"><![CDATA[
var edges = document.getElementsByTagName('g');
if (edges && edges.length) {
  for (var i=0;i<edges.length;i++) {
    if (edges[i].id.substr(0,4)=='edge') {
      edges[i].setAttribute('class','edge');
    }
  }
}
]]></script>
        <defs>
                <circle id="rim" cx="0" cy="0" r="7"/>
                <circle id="rim2" cx="0" cy="0" r="3.5"/>
                <g id="zoomPlus">
                        <use xlink:href="#rim" fill="#404040">
                                <set attributeName="fill" to="#808080" begin="zoomplus.mouseover" end="zoomplus.mouseout"/>
                        </use>
                        <path d="M-4,0h8M0,-4v8" fill="none" stroke="white" stroke-width="1.5" pointer-events="none"/>
                </g>
                <g id="zoomMin">
                        <use xlink:href="#rim" fill="#404040">
                                <set attributeName="fill" to="#808080" begin="zoomminus.mouseover" end="zoomminus.mouseout"/>
                        </use>
                        <path d="M-4,0h8" fill="none" stroke="white" stroke-width="1.5" pointer-events="none"/>
                </g>
                <g id="dirArrow">
                        <path fill="none" stroke="white" stroke-width="1.5" d="M0,-3.0v7 M-2.5,-0.5L0,-3.0L2.5,-0.5"/>
                </g>
               <g id="resetDef">
                       <use xlink:href="#rim2" fill="#404040">
                               <set attributeName="fill" to="#808080" begin="reset.mouseover" end="reset.mouseout"/>
                       </use>
               </g>
        </defs>

<script type="text/javascript">
var viewWidth = 2390;
var viewHeight = 374;
var sectionId = 'dynsection-0';
</script>
<script xlink:href="../../svgpan.js"/>
<svg id="graph" class="graph">
<g id="viewport">
<title>/home/travis/build/AliceO2Group/AliceO2/Framework/Core/include/Framework/ForwardRoute.h</title>
<!-- Node0 -->
<g id="node1" class="node">
<title>Node0</title>
<polygon fill="#bfbfbf" stroke="#000000" points="1787,-313.5 1787,-365.5 1939,-365.5 1939,-313.5 1787,-313.5"/>
<text text-anchor="start" x="1795" y="-353.5" font-family="Helvetica,sans-Serif" font-size="10.00" fill="#000000">/home/travis/build</text>
<text text-anchor="start" x="1795" y="-342.5" font-family="Helvetica,sans-Serif" font-size="10.00" fill="#000000">/AliceO2Group/AliceO2</text>
<text text-anchor="start" x="1795" y="-331.5" font-family="Helvetica,sans-Serif" font-size="10.00" fill="#000000">/Framework/Core/include</text>
<text text-anchor="middle" x="1863" y="-320.5" font-family="Helvetica,sans-Serif" font-size="10.00" fill="#000000">/Framework/ForwardRoute.h</text>
</g>
<!-- Node1 -->
<g id="node2" class="node">
<title>Node1</title>
<g id="a_node2"><a xlink:href="../../d5/d3f/InputSpec_8h.html" target="_top" xlink:title="Framework/InputSpec.h">
<polygon fill="none" stroke="#000000" points="1797.5,-257.5 1797.5,-276.5 1928.5,-276.5 1928.5,-257.5 1797.5,-257.5"/>
<text text-anchor="middle" x="1863" y="-264.5" font-family="Helvetica,sans-Serif" font-size="10.00" fill="#000000">Framework/InputSpec.h</text>
</a>
</g>
</g>
<!-- Node0&#45;&gt;Node1 -->
<g id="edge1" class="edge">
<title>Node0&#45;&gt;Node1</title>
<path fill="none" stroke="#191970" d="M1863,-313.3258C1863,-304.5142 1863,-294.8397 1863,-286.621"/>
<polygon fill="#191970" stroke="#191970" points="1866.5001,-286.534 1863,-276.534 1859.5001,-286.534 1866.5001,-286.534"/>
</g>
<!-- Node11 -->
<g id="node12" class="node">
<title>Node11</title>
<polygon fill="none" stroke="#bfbfbf" points="0,-6 0,-25 44,-25 44,-6 0,-6"/>
<text text-anchor="middle" x="22" y="-13" font-family="Helvetica,sans-Serif" font-size="10.00" fill="#000000">string</text>
</g>
<!-- Node0&#45;&gt;Node11 -->
<g id="edge53" class="edge">
<title>Node0&#45;&gt;Node11</title>
<path fill="none" stroke="#191970" d="M1786.8679,-337.9427C1442.1173,-330.4004 44,-294.3364 44,-205.5 44,-205.5 44,-205.5 44,-138.5 44,-101.4405 34.2028,-59.0675 27.6843,-34.9763"/>
<polygon fill="#191970" stroke="#191970" points="31.0354,-33.9634 24.967,-25.2786 24.295,-35.8521 31.0354,-33.9634"/>
</g>
<!-- Node37 -->
<g id="node38" class="node">
<title>Node37</title>
<polygon fill="none" stroke="#bfbfbf" points="1946.5,-257.5 1946.5,-276.5 1999.5,-276.5 1999.5,-257.5 1946.5,-257.5"/>
<text text-anchor="middle" x="1973" y="-264.5" font-family="Helvetica,sans-Serif" font-size="10.00" fill="#000000">cstddef</text>
</g>
<!-- Node0&#45;&gt;Node37 -->
<g id="edge52" class="edge">
<title>Node0&#45;&gt;Node37</title>
<path fill="none" stroke="#191970" d="M1902.7125,-313.3258C1918.6647,-302.8119 1936.4806,-291.0696 1950.1842,-282.0377"/>
<polygon fill="#191970" stroke="#191970" points="1952.1111,-284.9595 1958.5346,-276.534 1948.2589,-279.1148 1952.1111,-284.9595"/>
</g>
<!-- Node2 -->
<g id="node3" class="node">
<title>Node2</title>
<g id="a_node3"><a xlink:href="../../dc/dca/Lifetime_8h.html" target="_top" xlink:title="Framework/Lifetime.h">
<polygon fill="none" stroke="#000000" points="1966.5,-196 1966.5,-215 2089.5,-215 2089.5,-196 1966.5,-196"/>
<text text-anchor="middle" x="2028" y="-203" font-family="Helvetica,sans-Serif" font-size="10.00" fill="#000000">Framework/Lifetime.h</text>
</a>
</g>
</g>
<!-- Node1&#45;&gt;Node2 -->
<g id="edge2" class="edge">
<title>Node1&#45;&gt;Node2</title>
<path fill="none" stroke="#191970" d="M1888.7813,-257.3906C1916.752,-246.9652 1961.5819,-230.2559 1992.786,-218.6252"/>
<polygon fill="#191970" stroke="#191970" points="1994.2519,-221.8141 2002.3998,-215.0419 1991.8071,-215.2549 1994.2519,-221.8141"/>
</g>
<!-- Node3 -->
<g id="node4" class="node">
<title>Node3</title>
<g id="a_node4"><a xlink:href="../../d0/d1b/ConcreteDataMatcher_8h.html" target="_top" xlink:title="Framework/ConcreteDataMatcher.h">
<polygon fill="none" stroke="#000000" points="1890,-129 1890,-148 2078,-148 2078,-129 1890,-129"/>
<text text-anchor="middle" x="1984" y="-136" font-family="Helvetica,sans-Serif" font-size="10.00" fill="#000000">Framework/ConcreteDataMatcher.h</text>
</a>
</g>
</g>
<!-- Node1&#45;&gt;Node3 -->
<g id="edge3" class="edge">
<title>Node1&#45;&gt;Node3</title>
<path fill="none" stroke="#191970" d="M1862.906,-257.3705C1863.2444,-241.6033 1866.0446,-210.0329 1882,-190 1896.3382,-171.9976 1918.6292,-159.7351 1938.72,-151.7073"/>
<polygon fill="#191970" stroke="#191970" points="1940.2221,-154.8824 1948.3615,-148.1 1937.7691,-148.3262 1940.2221,-154.8824"/>
</g>
<!-- Node1&#45;&gt;Node11 -->
<g id="edge49" class="edge">
<title>Node1&#45;&gt;Node11</title>
<path fill="none" stroke="#191970" d="M1797.2697,-264.3982C1577.983,-254.7006 852.3628,-214.404 268,-87 171.5226,-65.9658 145.4408,-65.7133 53,-31 51.5917,-30.4712 50.1629,-29.8978 48.7309,-29.2936"/>
<polygon fill="#191970" stroke="#191970" points="49.9671,-26.0097 39.42,-25.0054 47.0388,-32.3678 49.9671,-26.0097"/>
</g>
<!-- Node15 -->
<g id="node16" class="node">
<title>Node15</title>
<g id="a_node16"><a xlink:href="../../d3/da3/DataDescriptorMatcher_8h.html" target="_top" xlink:title="Framework/DataDescriptor\lMatcher.h">
<polygon fill="none" stroke="#000000" points="1687.5,-190.5 1687.5,-220.5 1834.5,-220.5 1834.5,-190.5 1687.5,-190.5"/>
<text text-anchor="start" x="1695.5" y="-208.5" font-family="Helvetica,sans-Serif" font-size="10.00" fill="#000000">Framework/DataDescriptor</text>
<text text-anchor="middle" x="1761" y="-197.5" font-family="Helvetica,sans-Serif" font-size="10.00" fill="#000000">Matcher.h</text>
</a>
</g>
</g>
<!-- Node1&#45;&gt;Node15 -->
<g id="edge15" class="edge">
<title>Node1&#45;&gt;Node15</title>
<path fill="none" stroke="#191970" d="M1847.0625,-257.3906C1833.1302,-248.9903 1812.4316,-236.5103 1794.8251,-225.8945"/>
<polygon fill="#191970" stroke="#191970" points="1796.323,-222.7108 1785.952,-220.5446 1792.7086,-228.7054 1796.323,-222.7108"/>
</g>
<!-- Node34 -->
<g id="node35" class="node">
<title>Node34</title>
<polygon fill="none" stroke="#bfbfbf" points="2313.5,-129 2313.5,-148 2364.5,-148 2364.5,-129 2313.5,-129"/>
<text text-anchor="middle" x="2339" y="-136" font-family="Helvetica,sans-Serif" font-size="10.00" fill="#000000">variant</text>
</g>
<!-- Node1&#45;&gt;Node34 -->
<g id="edge51" class="edge">
<title>Node1&#45;&gt;Node34</title>
<path fill="none" stroke="#191970" d="M1922.8776,-257.4655C1970.6568,-249.3342 2039.1042,-236.5116 2098,-221 2189.0603,-197.0171 2210.4059,-185.9101 2299,-154 2301.1065,-153.2413 2303.2698,-152.447 2305.4476,-151.636"/>
<polygon fill="#191970" stroke="#191970" points="2306.8466,-154.8488 2314.9568,-148.0315 2304.3654,-148.3033 2306.8466,-154.8488"/>
</g>
<!-- Node36 -->
<g id="node37" class="node">
<title>Node36</title>
<polygon fill="none" stroke="#bfbfbf" points="1891.5,-196 1891.5,-215 1948.5,-215 1948.5,-196 1891.5,-196"/>
<text text-anchor="middle" x="1920" y="-203" font-family="Helvetica,sans-Serif" font-size="10.00" fill="#000000">ostream</text>
</g>
<!-- Node1&#45;&gt;Node36 -->
<g id="edge50" class="edge">
<title>Node1&#45;&gt;Node36</title>
<path fill="none" stroke="#191970" d="M1871.9063,-257.3906C1880.4728,-248.1478 1893.6169,-233.966 1904.0003,-222.7628"/>
<polygon fill="#191970" stroke="#191970" points="1906.7375,-224.9584 1910.9682,-215.2449 1901.6035,-220.2 1906.7375,-224.9584"/>
</g>
<!-- Node4 -->
<g id="node5" class="node">
<title>Node4</title>
<g id="a_node5"><a xlink:href="../../dc/dcd/DataHeader_8h.html" target="_top" xlink:title="Headers/DataHeader.h">
<polygon fill="none" stroke="#000000" points="1920.5,-67.5 1920.5,-86.5 2047.5,-86.5 2047.5,-67.5 1920.5,-67.5"/>
<text text-anchor="middle" x="1984" y="-74.5" font-family="Helvetica,sans-Serif" font-size="10.00" fill="#000000">Headers/DataHeader.h</text>
</a>
</g>
</g>
<!-- Node3&#45;&gt;Node4 -->
<g id="edge4" class="edge">
<title>Node3&#45;&gt;Node4</title>
<path fill="none" stroke="#191970" d="M1984,-128.8906C1984,-120.3657 1984,-107.6392 1984,-96.9235"/>
<polygon fill="#191970" stroke="#191970" points="1987.5001,-96.7448 1984,-86.7449 1980.5001,-96.7449 1987.5001,-96.7448"/>
</g>
<!-- Node5 -->
<g id="node6" class="node">
<title>Node5</title>
<polygon fill="none" stroke="#bfbfbf" points="2332,-6 2332,-25 2382,-25 2382,-6 2332,-6"/>
<text text-anchor="middle" x="2357" y="-13" font-family="Helvetica,sans-Serif" font-size="10.00" fill="#000000">cstdint</text>
</g>
<!-- Node4&#45;&gt;Node5 -->
<g id="edge5" class="edge">
<title>Node4&#45;&gt;Node5</title>
<path fill="none" stroke="#191970" d="M2047.5596,-70.6192C2130.9852,-61.8569 2272.7167,-45.5301 2323,-31 2324.9632,-30.4327 2326.958,-29.7704 2328.9469,-29.0449"/>
<polygon fill="#191970" stroke="#191970" points="2330.7561,-32.0851 2338.6692,-25.04 2328.0899,-25.6127 2330.7561,-32.0851"/>
</g>
<!-- Node6 -->
<g id="node7" class="node">
<title>Node6</title>
<polygon fill="none" stroke="#bfbfbf" points="2186,-6 2186,-25 2244,-25 2244,-6 2186,-6"/>
<text text-anchor="middle" x="2215" y="-13" font-family="Helvetica,sans-Serif" font-size="10.00" fill="#000000">memory</text>
</g>
<!-- Node4&#45;&gt;Node6 -->
<g id="edge6" class="edge">
<title>Node4&#45;&gt;Node6</title>
<path fill="none" stroke="#191970" d="M2033.3529,-67.4177C2072.6917,-59.2597 2128.9525,-46.4246 2177,-31 2179.1497,-30.3099 2181.3494,-29.5532 2183.5538,-28.7568"/>
<polygon fill="#191970" stroke="#191970" points="2185.0222,-31.9424 2193.1081,-25.0963 2182.5177,-25.4057 2185.0222,-31.9424"/>
</g>
<!-- Node7 -->
<g id="node8" class="node">
<title>Node7</title>
<polygon fill="none" stroke="#bfbfbf" points="2262,-6 2262,-25 2314,-25 2314,-6 2262,-6"/>
<text text-anchor="middle" x="2288" y="-13" font-family="Helvetica,sans-Serif" font-size="10.00" fill="#000000">cassert</text>
</g>
<!-- Node4&#45;&gt;Node7 -->
<g id="edge7" class="edge">
<title>Node4&#45;&gt;Node7</title>
<path fill="none" stroke="#191970" d="M2047.5248,-70.631C2102.6882,-64.0432 2184.2822,-51.7409 2253,-31 2255.1194,-30.3603 2257.2798,-29.6246 2259.4348,-28.8288"/>
<polygon fill="#191970" stroke="#191970" points="2260.7542,-32.0707 2268.7028,-25.0656 2258.1207,-25.5849 2260.7542,-32.0707"/>
</g>
<!-- Node8 -->
<g id="node9" class="node">
<title>Node8</title>
<polygon fill="none" stroke="#bfbfbf" points="1818,-6 1818,-25 1868,-25 1868,-6 1818,-6"/>
<text text-anchor="middle" x="1843" y="-13" font-family="Helvetica,sans-Serif" font-size="10.00" fill="#000000">cstring</text>
</g>
<!-- Node4&#45;&gt;Node8 -->
<g id="edge8" class="edge">
<title>Node4&#45;&gt;Node8</title>
<path fill="none" stroke="#191970" d="M1961.3937,-67.4497C1939.6948,-58.2431 1906.0271,-43.8541 1877,-31 1875.7988,-30.4681 1874.575,-29.9233 1873.3395,-29.3711"/>
<polygon fill="#191970" stroke="#191970" points="1874.3803,-26.0011 1863.8256,-25.0804 1871.5025,-32.3822 1874.3803,-26.0011"/>
</g>
<!-- Node9 -->
<g id="node10" class="node">
<title>Node9</title>
<polygon fill="none" stroke="#bfbfbf" points="1952,-6 1952,-25 2016,-25 2016,-6 1952,-6"/>
<text text-anchor="middle" x="1984" y="-13" font-family="Helvetica,sans-Serif" font-size="10.00" fill="#000000">algorithm</text>
</g>
<!-- Node4&#45;&gt;Node9 -->
<g id="edge9" class="edge">
<title>Node4&#45;&gt;Node9</title>
<path fill="none" stroke="#191970" d="M1984,-67.3906C1984,-58.8657 1984,-46.1392 1984,-35.4235"/>
<polygon fill="#191970" stroke="#191970" points="1987.5001,-35.2448 1984,-25.2449 1980.5001,-35.2449 1987.5001,-35.2448"/>
</g>
<!-- Node10 -->
<g id="node11" class="node">
<title>Node10</title>
<polygon fill="none" stroke="#bfbfbf" points="2034.5,-6 2034.5,-25 2099.5,-25 2099.5,-6 2034.5,-6"/>
<text text-anchor="middle" x="2067" y="-13" font-family="Helvetica,sans-Serif" font-size="10.00" fill="#000000">stdexcept</text>
</g>
<!-- Node4&#45;&gt;Node10 -->
<g id="edge10" class="edge">
<title>Node4&#45;&gt;Node10</title>
<path fill="none" stroke="#191970" d="M1996.9688,-67.3906C2010.0034,-57.7324 2030.3164,-42.6812 2045.7155,-31.271"/>
<polygon fill="#191970" stroke="#191970" points="2048.1713,-33.8075 2054.1223,-25.0419 2044.0039,-28.1832 2048.1713,-33.8075"/>
</g>
<!-- Node4&#45;&gt;Node11 -->
<g id="edge11" class="edge">
<title>Node4&#45;&gt;Node11</title>
<path fill="none" stroke="#191970" d="M1920.4391,-76.2659C1596.9925,-72.4317 145.4924,-54.0007 53,-31 51.073,-30.5208 49.1277,-29.9076 47.2008,-29.2029"/>
<polygon fill="#191970" stroke="#191970" points="48.4534,-25.9303 37.89,-25.1136 45.6384,-32.3394 48.4534,-25.9303"/>
</g>
<!-- Node12 -->
<g id="node13" class="node">
<title>Node12</title>
<polygon fill="none" stroke="#bfbfbf" points="2118,-6 2118,-25 2168,-25 2168,-6 2118,-6"/>
<text text-anchor="middle" x="2143" y="-13" font-family="Helvetica,sans-Serif" font-size="10.00" fill="#000000">climits</text>
</g>
<!-- Node4&#45;&gt;Node12 -->
<g id="edge12" class="edge">
<title>Node4&#45;&gt;Node12</title>
<path fill="none" stroke="#191970" d="M2011.2777,-67.4273C2036.5267,-58.4377 2075.0294,-44.4013 2108,-31 2109.566,-30.3635 2111.1664,-29.7004 2112.7789,-29.0223"/>
<polygon fill="#191970" stroke="#191970" points="2114.1904,-32.2253 2121.9907,-25.0555 2111.4218,-25.7961 2114.1904,-32.2253"/>
</g>
<!-- Node13 -->
<g id="node14" class="node">
<title>Node13</title>
<g id="a_node14"><a xlink:href="../../d7/df8/Types_8h.html" target="_top" xlink:title="MemoryResources/Types.h">
<polygon fill="none" stroke="#000000" points="1654,-6 1654,-25 1800,-25 1800,-6 1654,-6"/>
<text text-anchor="middle" x="1727" y="-13" font-family="Helvetica,sans-Serif" font-size="10.00" fill="#000000">MemoryResources/Types.h</text>
</a>
</g>
</g>
<!-- Node4&#45;&gt;Node13 -->
<g id="edge13" class="edge">
<title>Node4&#45;&gt;Node13</title>
<path fill="none" stroke="#191970" d="M1944.1257,-67.4581C1899.1094,-56.6857 1825.8002,-39.1428 1776.9921,-27.4631"/>
<polygon fill="#191970" stroke="#191970" points="1777.5078,-23.9877 1766.9678,-25.0643 1775.8787,-30.7955 1777.5078,-23.9877"/>
</g>
<!-- Node14 -->
<g id="node15" class="node">
<title>Node14</title>
<polygon fill="none" stroke="#bfbfbf" points="1886.5,-6 1886.5,-25 1933.5,-25 1933.5,-6 1886.5,-6"/>
<text text-anchor="middle" x="1910" y="-13" font-family="Helvetica,sans-Serif" font-size="10.00" fill="#000000">cerrno</text>
</g>
<!-- Node4&#45;&gt;Node14 -->
<g id="edge14" class="edge">
<title>Node4&#45;&gt;Node14</title>
<path fill="none" stroke="#191970" d="M1972.4375,-67.3906C1960.9921,-57.8786 1943.2527,-43.1357 1929.603,-31.7917"/>
<polygon fill="#191970" stroke="#191970" points="1931.6533,-28.9447 1921.7255,-25.2449 1927.1792,-34.3283 1931.6533,-28.9447"/>
</g>
<!-- Node15&#45;&gt;Node3 -->
<g id="edge16" class="edge">
<title>Node15&#45;&gt;Node3</title>
<path fill="none" stroke="#191970" d="M1811.0456,-190.4639C1850.602,-178.5792 1905.1652,-162.1858 1942.3597,-151.0108"/>
<polygon fill="#191970" stroke="#191970" points="1943.793,-154.2348 1952.363,-148.0053 1941.7788,-147.5308 1943.793,-154.2348"/>
</g>
<!-- Node15&#45;&gt;Node4 -->
<g id="edge23" class="edge">
<title>Node15&#45;&gt;Node4</title>
<path fill="none" stroke="#191970" d="M1787.0193,-190.287C1803.4126,-180.4286 1824.8359,-167.0373 1843,-154 1860.707,-141.2908 1862.4431,-134.4325 1881,-123 1902.2071,-109.9347 1927.7658,-98.4973 1948.1175,-90.2952"/>
<polygon fill="#191970" stroke="#191970" points="1949.6301,-93.4611 1957.6482,-86.5357 1947.0614,-86.9494 1949.6301,-93.4611"/>
</g>
<!-- Node15&#45;&gt;Node5 -->
<g id="edge43" class="edge">
<title>Node15&#45;&gt;Node5</title>
<path fill="none" stroke="#191970" d="M1834.5418,-195.7098C1850.1958,-193.7295 1866.6364,-191.727 1882,-190 1964.5331,-180.7225 2181.6752,-194.8278 2254,-154 2302.7647,-126.472 2335.2206,-65.3311 2349.1926,-34.3197"/>
<polygon fill="#191970" stroke="#191970" points="2352.4452,-35.6165 2353.2192,-25.0499 2346.0248,-32.8275 2352.4452,-35.6165"/>
</g>
<!-- Node15&#45;&gt;Node11 -->
<g id="edge45" class="edge">
<title>Node15&#45;&gt;Node11</title>
<path fill="none" stroke="#191970" d="M1687.3999,-202.4243C1542.9353,-196.0525 1212.1831,-179.8122 935,-154 694.2016,-131.576 634.3762,-121.435 395,-87 375.9431,-84.2586 71.3177,-36.9278 53,-31 51.3863,-30.4778 49.7521,-29.8827 48.1215,-29.237"/>
<polygon fill="#191970" stroke="#191970" points="49.5464,-26.0402 38.9897,-25.1424 46.6824,-32.4275 49.5464,-26.0402"/>
</g>
<!-- Node16 -->
<g id="node17" class="node">
<title>Node16</title>
<g id="a_node17"><a xlink:href="../../d6/dc9/DataProcessingHeader_8h.html" target="_top" xlink:title="Framework/DataProcessing\lHeader.h">
<polygon fill="none" stroke="#000000" points="2096.5,-123.5 2096.5,-153.5 2245.5,-153.5 2245.5,-123.5 2096.5,-123.5"/>
<text text-anchor="start" x="2104.5" y="-141.5" font-family="Helvetica,sans-Serif" font-size="10.00" fill="#000000">Framework/DataProcessing</text>
<text text-anchor="middle" x="2171" y="-130.5" font-family="Helvetica,sans-Serif" font-size="10.00" fill="#000000">Header.h</text>
</a>
</g>
</g>
<!-- Node15&#45;&gt;Node16 -->
<g id="edge17" class="edge">
<title>Node15&#45;&gt;Node16</title>
<path fill="none" stroke="#191970" d="M1834.565,-194.4325C1898.3716,-184.706 1993.4764,-169.9047 2086.2342,-154.1063"/>
<polygon fill="#191970" stroke="#191970" points="2087.0952,-157.51 2096.3628,-152.3756 2085.9161,-150.61 2087.0952,-157.51"/>
</g>
<!-- Node18 -->
<g id="node19" class="node">
<title>Node18</title>
<g id="a_node19"><a xlink:href="../../d4/d00/Headers_2include_2Headers_2Stack_8h.html" target="_top" xlink:title="Headers/Stack.h">
<polygon fill="none" stroke="#000000" points="1446,-129 1446,-148 1542,-148 1542,-129 1446,-129"/>
<text text-anchor="middle" x="1494" y="-136" font-family="Helvetica,sans-Serif" font-size="10.00" fill="#000000">Headers/Stack.h</text>
</a>
</g>
</g>
<!-- Node15&#45;&gt;Node18 -->
<g id="edge24" class="edge">
<title>Node15&#45;&gt;Node18</title>
<path fill="none" stroke="#191970" d="M1697.9508,-190.4734C1656.1927,-180.414 1600.2456,-166.732 1551,-154 1546.923,-152.9459 1542.6874,-151.8312 1538.449,-150.7024"/>
<polygon fill="#191970" stroke="#191970" points="1539.1931,-147.2783 1528.6275,-148.065 1537.3776,-154.0388 1539.1931,-147.2783"/>
</g>
<!-- Node26 -->
<g id="node27" class="node">
<title>Node26</title>
<polygon fill="none" stroke="#bfbfbf" points="62.5,-6 62.5,-25 109.5,-25 109.5,-6 62.5,-6"/>
<text text-anchor="middle" x="86" y="-13" font-family="Helvetica,sans-Serif" font-size="10.00" fill="#000000">vector</text>
</g>
<!-- Node15&#45;&gt;Node26 -->
<g id="edge47" class="edge">
<title>Node15&#45;&gt;Node26</title>
<path fill="none" stroke="#191970" d="M1687.3779,-198.3936C1377.8762,-168.4273 194.6636,-52.9156 118,-31 116.2862,-30.5101 114.5519,-29.9335 112.8235,-29.296"/>
<polygon fill="#191970" stroke="#191970" points="113.7434,-25.8823 103.1733,-25.1586 110.9851,-32.316 113.7434,-25.8823"/>
</g>
<!-- Node32 -->
<g id="node33" class="node">
<title>Node32</title>
<polygon fill="none" stroke="#bfbfbf" points="1560,-129 1560,-148 1602,-148 1602,-129 1560,-129"/>
<text text-anchor="middle" x="1581" y="-136" font-family="Helvetica,sans-Serif" font-size="10.00" fill="#000000">array</text>
</g>
<!-- Node15&#45;&gt;Node32 -->
<g id="edge42" class="edge">
<title>Node15&#45;&gt;Node32</title>
<path fill="none" stroke="#191970" d="M1711.3367,-190.4654C1681.7883,-181.0245 1643.7885,-168.0101 1611,-154 1609.9757,-153.5623 1608.9382,-153.1043 1607.8951,-152.6312"/>
<polygon fill="#191970" stroke="#191970" points="1609.0874,-149.32 1598.5611,-148.1164 1606.0393,-155.6215 1609.0874,-149.32"/>
</g>
<!-- Node33 -->
<g id="node34" class="node">
<title>Node33</title>
<polygon fill="none" stroke="#bfbfbf" points="1620.5,-129 1620.5,-148 1669.5,-148 1669.5,-129 1620.5,-129"/>
<text text-anchor="middle" x="1645" y="-136" font-family="Helvetica,sans-Serif" font-size="10.00" fill="#000000">iosfwd</text>
</g>
<!-- Node15&#45;&gt;Node33 -->
<g id="edge44" class="edge">
<title>Node15&#45;&gt;Node33</title>
<path fill="none" stroke="#191970" d="M1734.9673,-190.4639C1715.6794,-179.3234 1689.5322,-164.2212 1670.3972,-153.1691"/>
<polygon fill="#191970" stroke="#191970" points="1672.0376,-150.0747 1661.6277,-148.1039 1668.5365,-156.1363 1672.0376,-150.0747"/>
</g>
<!-- Node15&#45;&gt;Node34 -->
<g id="edge46" class="edge">
<title>Node15&#45;&gt;Node34</title>
<path fill="none" stroke="#191970" d="M1834.5284,-195.5878C1850.1833,-193.6157 1866.6276,-191.6474 1882,-190 2066.9636,-170.1777 2117.7873,-196.0287 2299,-154 2302.0222,-153.2991 2305.1199,-152.4158 2308.1886,-151.4282"/>
<polygon fill="#191970" stroke="#191970" points="2309.5207,-154.6691 2317.7638,-148.0132 2307.1691,-148.0759 2309.5207,-154.6691"/>
</g>
<!-- Node35 -->
<g id="node36" class="node">
<title>Node35</title>
<polygon fill="none" stroke="#bfbfbf" points="1688,-129 1688,-148 1834,-148 1834,-129 1688,-129"/>
<text text-anchor="middle" x="1761" y="-136" font-family="Helvetica,sans-Serif" font-size="10.00" fill="#000000">DataDescriptorMatcher.inc</text>
</g>
<!-- Node15&#45;&gt;Node35 -->
<g id="edge48" class="edge">
<title>Node15&#45;&gt;Node35</title>
<path fill="none" stroke="#191970" d="M1761,-190.2967C1761,-180.7699 1761,-168.3954 1761,-158.1306"/>
<polygon fill="#191970" stroke="#191970" points="1764.5001,-158.0549 1761,-148.055 1757.5001,-158.055 1764.5001,-158.0549"/>
</g>
<!-- Node16&#45;&gt;Node4 -->
<g id="edge18" class="edge">
<title>Node16&#45;&gt;Node4</title>
<path fill="none" stroke="#191970" d="M2125.2547,-123.4554C2093.7795,-113.104 2052.4351,-99.5067 2022.6176,-89.7004"/>
<polygon fill="#191970" stroke="#191970" points="2023.5713,-86.3297 2012.9784,-86.5303 2021.3843,-92.9793 2023.5713,-86.3297"/>
</g>
<!-- Node16&#45;&gt;Node5 -->
<g id="edge19" class="edge">
<title>Node16&#45;&gt;Node5</title>
<path fill="none" stroke="#191970" d="M2190.9666,-123.495C2210.9159,-108.6776 2242.6179,-85.6009 2271,-67 2290.7728,-54.0414 2313.7769,-40.3342 2331.0154,-30.3218"/>
<polygon fill="#191970" stroke="#191970" points="2333.032,-33.199 2339.942,-25.1676 2329.5318,-27.1369 2333.032,-33.199"/>
</g>
<!-- Node16&#45;&gt;Node6 -->
<g id="edge21" class="edge">
<title>Node16&#45;&gt;Node6</title>
<path fill="none" stroke="#191970" d="M2175.8539,-123.3645C2180.5641,-108.8435 2188.0063,-86.3311 2195,-67 2198.882,-56.2697 2203.4753,-44.3904 2207.2803,-34.7473"/>
<polygon fill="#191970" stroke="#191970" points="2210.5856,-35.9071 2211.0288,-25.3215 2204.0811,-33.3203 2210.5856,-35.9071"/>
</g>
<!-- Node16&#45;&gt;Node7 -->
<g id="edge22" class="edge">
<title>Node16&#45;&gt;Node7</title>
<path fill="none" stroke="#191970" d="M2183.3866,-123.3109C2195.5999,-108.5555 2214.9976,-85.7033 2233,-67 2244.7107,-54.8333 2258.5966,-41.8413 2269.4861,-31.9502"/>
<polygon fill="#191970" stroke="#191970" points="2272.0537,-34.3481 2277.1435,-25.0559 2267.3699,-29.1459 2272.0537,-34.3481"/>
</g>
<!-- Node17 -->
<g id="node18" class="node">
<title>Node17</title>
<polygon fill="none" stroke="#bfbfbf" points="2097,-67.5 2097,-86.5 2143,-86.5 2143,-67.5 2097,-67.5"/>
<text text-anchor="middle" x="2120" y="-74.5" font-family="Helvetica,sans-Serif" font-size="10.00" fill="#000000">cstdio</text>
</g>
<!-- Node16&#45;&gt;Node17 -->
<g id="edge20" class="edge">
<title>Node16&#45;&gt;Node17</title>
<path fill="none" stroke="#191970" d="M2158.3933,-123.2977C2151.2402,-114.672 2142.2503,-103.8312 2134.7682,-94.8087"/>
<polygon fill="#191970" stroke="#191970" points="2137.2433,-92.3103 2128.1657,-86.8469 2131.855,-96.7787 2137.2433,-92.3103"/>
</g>
<!-- Node18&#45;&gt;Node4 -->
<g id="edge41" class="edge">
<title>Node18&#45;&gt;Node4</title>
<path fill="none" stroke="#191970" d="M1525.449,-128.9843C1533.7018,-126.7531 1542.6345,-124.5714 1551,-123 1676.0683,-99.5075 1823.879,-87.0207 1910.4458,-81.2237"/>
<polygon fill="#191970" stroke="#191970" points="1910.6866,-84.7155 1920.4352,-80.5663 1910.2269,-77.7306 1910.6866,-84.7155"/>
</g>
<!-- Node19 -->
<g id="node20" class="node">
<title>Node19</title>
<g id="a_node20"><a xlink:href="../../dc/d03/MemoryResources_8h.html" target="_top" xlink:title="MemoryResources/MemoryResources.h">
<polygon fill="none" stroke="#000000" points="819.5,-67.5 819.5,-86.5 1026.5,-86.5 1026.5,-67.5 819.5,-67.5"/>
<text text-anchor="middle" x="923" y="-74.5" font-family="Helvetica,sans-Serif" font-size="10.00" fill="#000000">MemoryResources/MemoryResources.h</text>
</a>
</g>
</g>
<!-- Node18&#45;&gt;Node19 -->
<g id="edge25" class="edge">
<title>Node18&#45;&gt;Node19</title>
<path fill="none" stroke="#191970" d="M1445.809,-133.3095C1352.4477,-123.254 1145.253,-100.9379 1021.5705,-87.6166"/>
<polygon fill="#191970" stroke="#191970" points="1021.6592,-84.106 1011.3419,-86.5149 1020.9095,-91.0658 1021.6592,-84.106"/>
</g>
<!-- Node19&#45;&gt;Node8 -->
<g id="edge30" class="edge">
<title>Node19&#45;&gt;Node8</title>
<path fill="none" stroke="#191970" d="M1026.5997,-73.8015C1244.194,-66.7674 1734.845,-49.1315 1809,-31 1811.3395,-30.428 1813.7154,-29.6959 1816.0681,-28.8622"/>
<polygon fill="#191970" stroke="#191970" points="1817.531,-32.0452 1825.4553,-25.0127 1814.875,-25.5687 1817.531,-32.0452"/>
</g>
<!-- Node19&#45;&gt;Node11 -->
<g id="edge31" class="edge">
<title>Node19&#45;&gt;Node11</title>
<path fill="none" stroke="#191970" d="M819.19,-73.8922C604.4195,-67.1166 125.2504,-50.0838 53,-31 51.0802,-30.4929 49.1402,-29.859 47.2171,-29.1394"/>
<polygon fill="#191970" stroke="#191970" points="48.4753,-25.8687 37.9147,-25.0175 45.6395,-32.2686 48.4753,-25.8687"/>
</g>
<!-- Node19&#45;&gt;Node13 -->
<g id="edge40" class="edge">
<title>Node19&#45;&gt;Node13</title>
<path fill="none" stroke="#191970" d="M1026.6466,-74.3215C1167.0408,-69.797 1425.2572,-58.3011 1644,-31 1652.9731,-29.8801 1662.4411,-28.3999 1671.6445,-26.7981"/>
<polygon fill="#191970" stroke="#191970" points="1672.2708,-30.2417 1681.4914,-25.0235 1671.0292,-23.3526 1672.2708,-30.2417"/>
</g>
<!-- Node20 -->
<g id="node21" class="node">
<title>Node20</title>
<polygon fill="none" stroke="#bfbfbf" points="1524.5,-.5 1524.5,-30.5 1635.5,-30.5 1635.5,-.5 1524.5,-.5"/>
<text text-anchor="start" x="1532.5" y="-18.5" font-family="Helvetica,sans-Serif" font-size="10.00" fill="#000000">boost/container/flat</text>
<text text-anchor="middle" x="1580" y="-7.5" font-family="Helvetica,sans-Serif" font-size="10.00" fill="#000000">_map.hpp</text>
</g>
<!-- Node19&#45;&gt;Node20 -->
<g id="edge26" class="edge">
<title>Node19&#45;&gt;Node20</title>
<path fill="none" stroke="#191970" d="M1026.5048,-73.8631C1142.9195,-69.2225 1337.6652,-58.1188 1514.4387,-30.9126"/>
<polygon fill="#191970" stroke="#191970" points="1515.1035,-34.3513 1524.4448,-29.3522 1514.0249,-27.4349 1515.1035,-34.3513"/>
</g>
<!-- Node21 -->
<g id="node22" class="node">
<title>Node21</title>
<polygon fill="none" stroke="#bfbfbf" points="127.5,-.5 127.5,-30.5 256.5,-30.5 256.5,-.5 127.5,-.5"/>
<text text-anchor="start" x="135.5" y="-18.5" font-family="Helvetica,sans-Serif" font-size="10.00" fill="#000000">boost/container/pmr</text>
<text text-anchor="middle" x="192" y="-7.5" font-family="Helvetica,sans-Serif" font-size="10.00" fill="#000000">/memory_resource.hpp</text>
</g>
<!-- Node19&#45;&gt;Node21 -->
<g id="edge27" class="edge">
<title>Node19&#45;&gt;Node21</title>
<path fill="none" stroke="#191970" d="M819.3247,-70.5501C655.7834,-60.2618 348.8052,-40.451 267.1623,-31.056"/>
<polygon fill="#191970" stroke="#191970" points="267.1551,-27.5274 256.7956,-29.7478 266.2787,-34.4723 267.1551,-27.5274"/>
</g>
<!-- Node22 -->
<g id="node23" class="node">
<title>Node22</title>
<polygon fill="none" stroke="#bfbfbf" points="274.5,-.5 274.5,-30.5 447.5,-30.5 447.5,-.5 274.5,-.5"/>
<text text-anchor="start" x="282.5" y="-18.5" font-family="Helvetica,sans-Serif" font-size="10.00" fill="#000000">boost/container/pmr</text>
<text text-anchor="middle" x="361" y="-7.5" font-family="Helvetica,sans-Serif" font-size="10.00" fill="#000000">/monotonic_buffer_resource.hpp</text>
</g>
<!-- Node19&#45;&gt;Node22 -->
<g id="edge28" class="edge">
<title>Node19&#45;&gt;Node22</title>
<path fill="none" stroke="#191970" d="M819.3756,-68.6941C727.0043,-60.8504 587.8862,-47.9604 457.833,-31.1951"/>
<polygon fill="#191970" stroke="#191970" points="458.0556,-27.6946 447.6879,-29.8769 457.1535,-34.6363 458.0556,-27.6946"/>
</g>
<!-- Node23 -->
<g id="node24" class="node">
<title>Node23</title>
<polygon fill="none" stroke="#bfbfbf" points="465.5,-.5 465.5,-30.5 614.5,-30.5 614.5,-.5 465.5,-.5"/>
<text text-anchor="start" x="473.5" y="-18.5" font-family="Helvetica,sans-Serif" font-size="10.00" fill="#000000">boost/container/pmr</text>
<text text-anchor="middle" x="540" y="-7.5" font-family="Helvetica,sans-Serif" font-size="10.00" fill="#000000">/polymorphic_allocator.hpp</text>
</g>
<!-- Node19&#45;&gt;Node23 -->
<g id="edge29" class="edge">
<title>Node19&#45;&gt;Node23</title>
<path fill="none" stroke="#191970" d="M856.7661,-67.4747C798.1696,-58.9037 710.0907,-45.6703 624.5172,-31.231"/>
<polygon fill="#191970" stroke="#191970" points="625.0805,-27.7766 614.6363,-29.5564 623.9108,-34.6782 625.0805,-27.7766"/>
</g>
<!-- Node24 -->
<g id="node25" class="node">
<title>Node24</title>
<polygon fill="none" stroke="#bfbfbf" points="632.5,-6 632.5,-25 701.5,-25 701.5,-6 632.5,-6"/>
<text text-anchor="middle" x="667" y="-13" font-family="Helvetica,sans-Serif" font-size="10.00" fill="#000000">type_traits</text>
</g>
<!-- Node19&#45;&gt;Node24 -->
<g id="edge32" class="edge">
<title>Node19&#45;&gt;Node24</title>
<path fill="none" stroke="#191970" d="M869.1124,-67.4227C825.7539,-59.2246 763.457,-46.3331 710,-31 707.2111,-30.2 704.3416,-29.3124 701.4716,-28.3785"/>
<polygon fill="#191970" stroke="#191970" points="702.422,-25.0046 691.8275,-25.0849 700.1597,-31.629 702.422,-25.0046"/>
</g>
<!-- Node25 -->
<g id="node26" class="node">
<title>Node25</title>
<polygon fill="none" stroke="#bfbfbf" points="719.5,-6 719.5,-25 764.5,-25 764.5,-6 719.5,-6"/>
<text text-anchor="middle" x="742" y="-13" font-family="Helvetica,sans-Serif" font-size="10.00" fill="#000000">utility</text>
</g>
<!-- Node19&#45;&gt;Node25 -->
<g id="edge33" class="edge">
<title>Node19&#45;&gt;Node25</title>
<path fill="none" stroke="#191970" d="M885.7302,-67.4271C855.0138,-59.0983 810.5549,-46.0262 773,-31 771.6383,-30.4552 770.2548,-29.8735 768.8661,-29.2671"/>
<polygon fill="#191970" stroke="#191970" points="770.3415,-26.0933 759.8,-25.0313 767.3784,-32.4352 770.3415,-26.0933"/>
</g>
<!-- Node19&#45;&gt;Node26 -->
<g id="edge34" class="edge">
<title>Node19&#45;&gt;Node26</title>
<path fill="none" stroke="#191970" d="M819.2943,-70.4173C800.5582,-69.2568 781.1981,-68.0765 763,-67 619.6941,-58.5226 256.9716,-66.9909 118,-31 116.028,-30.4893 114.0326,-29.8527 112.0527,-29.1311"/>
<polygon fill="#191970" stroke="#191970" points="113.0308,-25.7418 102.4616,-25.005 110.2645,-32.172 113.0308,-25.7418"/>
</g>
<!-- Node27 -->
<g id="node28" class="node">
<title>Node27</title>
<polygon fill="none" stroke="#bfbfbf" points="782.5,-6 782.5,-25 875.5,-25 875.5,-6 782.5,-6"/>
<text text-anchor="middle" x="829" y="-13" font-family="Helvetica,sans-Serif" font-size="10.00" fill="#000000">unordered_map</text>
</g>
<!-- Node19&#45;&gt;Node27 -->
<g id="edge35" class="edge">
<title>Node19&#45;&gt;Node27</title>
<path fill="none" stroke="#191970" d="M908.3125,-67.3906C893.2744,-57.5519 869.6824,-42.1167 852.1333,-30.6351"/>
<polygon fill="#191970" stroke="#191970" points="853.8687,-27.588 843.5844,-25.0419 850.0363,-33.4457 853.8687,-27.588"/>
</g>
<!-- Node28 -->
<g id="node29" class="node">
<title>Node28</title>
<polygon fill="none" stroke="#bfbfbf" points="893.5,-6 893.5,-25 994.5,-25 994.5,-6 893.5,-6"/>
<text text-anchor="middle" x="944" y="-13" font-family="Helvetica,sans-Serif" font-size="10.00" fill="#000000">FairMQMessage.h</text>
</g>
<!-- Node19&#45;&gt;Node28 -->
<g id="edge36" class="edge">
<title>Node19&#45;&gt;Node28</title>
<path fill="none" stroke="#191970" d="M926.2813,-67.3906C929.2535,-58.6862 933.7214,-45.6015 937.427,-34.7494"/>
<polygon fill="#191970" stroke="#191970" points="940.7532,-35.8394 940.6725,-25.2449 934.1288,-33.5773 940.7532,-35.8394"/>
</g>
<!-- Node29 -->
<g id="node30" class="node">
<title>Node29</title>
<polygon fill="none" stroke="#bfbfbf" points="1012.5,-6 1012.5,-25 1149.5,-25 1149.5,-6 1012.5,-6"/>
<text text-anchor="middle" x="1081" y="-13" font-family="Helvetica,sans-Serif" font-size="10.00" fill="#000000">FairMQTransportFactory.h</text>
</g>
<!-- Node19&#45;&gt;Node29 -->
<g id="edge37" class="edge">
<title>Node19&#45;&gt;Node29</title>
<path fill="none" stroke="#191970" d="M947.6875,-67.3906C974.3557,-57.0103 1017.0282,-40.4004 1046.8911,-28.7766"/>
<polygon fill="#191970" stroke="#191970" points="1048.4365,-31.9309 1056.4859,-25.0419 1045.8973,-25.4076 1048.4365,-31.9309"/>
</g>
<!-- Node30 -->
<g id="node31" class="node">
<title>Node30</title>
<polygon fill="none" stroke="#bfbfbf" points="1168,-6 1168,-25 1318,-25 1318,-6 1168,-6"/>
<text text-anchor="middle" x="1243" y="-13" font-family="Helvetica,sans-Serif" font-size="10.00" fill="#000000">fairmq/MemoryResources.h</text>
</g>
<!-- Node19&#45;&gt;Node30 -->
<g id="edge38" class="edge">
<title>Node19&#45;&gt;Node30</title>
<path fill="none" stroke="#191970" d="M972.6489,-67.4581C1029.6044,-56.512 1122.9338,-38.5752 1183.6694,-26.9026"/>
<polygon fill="#191970" stroke="#191970" points="1184.3382,-30.3382 1193.4979,-25.0137 1183.017,-23.464 1184.3382,-30.3382"/>
</g>
<!-- Node31 -->
<g id="node32" class="node">
<title>Node31</title>
<polygon fill="none" stroke="#bfbfbf" points="1336,-6 1336,-25 1506,-25 1506,-6 1336,-6"/>
<text text-anchor="middle" x="1421" y="-13" font-family="Helvetica,sans-Serif" font-size="10.00" fill="#000000">fairmq/MemoryResourceTools.h</text>
</g>
<!-- Node19&#45;&gt;Node31 -->
<g id="edge39" class="edge">
<title>Node19&#45;&gt;Node31</title>
<path fill="none" stroke="#191970" d="M1018.6744,-67.4696C1100.6428,-58.9786 1221.7748,-45.6567 1327,-31 1336.3619,-29.696 1346.2284,-28.2018 1355.9076,-26.6672"/>
<polygon fill="#191970" stroke="#191970" points="1356.5807,-30.104 1365.8976,-25.0597 1355.4686,-23.1929 1356.5807,-30.104"/>
</g>
</g>
</svg>
        <g id="navigator" transform="translate(0 0)" fill="#404254">
                <rect fill="#f2f5e9" fill-opacity="0.5" stroke="#606060" stroke-width=".5" x="0" y="0" width="60" height="60"/>
                <use id="zoomplus" xlink:href="#zoomPlus" x="17" y="9" onmousedown="handleZoom(evt,'in')"/>
                <use id="zoomminus" xlink:href="#zoomMin" x="42" y="9" onmousedown="handleZoom(evt,'out')"/>
                <use id="reset" xlink:href="#resetDef" x="30" y="36" onmousedown="handleReset()"/>
                <g id="arrowUp" xlink:href="#dirArrow" transform="translate(30 24)" onmousedown="handlePan(0,-1)">
                  <use xlink:href="#rim" fill="#404040">
                        <set attributeName="fill" to="#808080" begin="arrowUp.mouseover" end="arrowUp.mouseout"/>
                  </use>
                  <path fill="none" stroke="white" stroke-width="1.5" d="M0,-3.0v7 M-2.5,-0.5L0,-3.0L2.5,-0.5"/>
                </g>
                <g id="arrowRight" xlink:href="#dirArrow" transform="rotate(90) translate(36 -43)" onmousedown="handlePan(1,0)">
                  <use xlink:href="#rim" fill="#404040">
                        <set attributeName="fill" to="#808080" begin="arrowRight.mouseover" end="arrowRight.mouseout"/>
                  </use>
                  <path fill="none" stroke="white" stroke-width="1.5" d="M0,-3.0v7 M-2.5,-0.5L0,-3.0L2.5,-0.5"/>
                </g>
                <g id="arrowDown" xlink:href="#dirArrow" transform="rotate(180) translate(-30 -48)" onmousedown="handlePan(0,1)">
                  <use xlink:href="#rim" fill="#404040">
                        <set attributeName="fill" to="#808080" begin="arrowDown.mouseover" end="arrowDown.mouseout"/>
                  </use>
                  <path fill="none" stroke="white" stroke-width="1.5" d="M0,-3.0v7 M-2.5,-0.5L0,-3.0L2.5,-0.5"/>
                </g>
                <g id="arrowLeft" xlink:href="#dirArrow" transform="rotate(270) translate(-36 17)" onmousedown="handlePan(-1,0)">
                  <use xlink:href="#rim" fill="#404040">
                        <set attributeName="fill" to="#808080" begin="arrowLeft.mouseover" end="arrowLeft.mouseout"/>
                  </use>
                  <path fill="none" stroke="white" stroke-width="1.5" d="M0,-3.0v7 M-2.5,-0.5L0,-3.0L2.5,-0.5"/>
                </g>
        </g>
        <svg viewBox="0 0 15 15" width="100%" height="30px" preserveAspectRatio="xMaxYMin meet">
         <g id="arrow_out" transform="scale(0.3 0.3)">
          <a xlink:href="ForwardRoute_8h__incl_org.svg" target="_base">
           <rect id="button" ry="5" rx="5" y="6" x="6" height="38" width="38"
                fill="#f2f5e9" fill-opacity="0.5" stroke="#606060" stroke-width="1.0"/>
           <path id="arrow"
             d="M 11.500037,31.436501 C 11.940474,20.09759 22.043105,11.32322 32.158766,21.979434 L 37.068811,17.246167 C 37.068811,17.246167 37.088388,32 37.088388,32 L 22.160133,31.978069 C 22.160133,31.978069 26.997745,27.140456 26.997745,27.140456 C 18.528582,18.264221 13.291696,25.230495 11.500037,31.436501 z"
             style="fill:#404040;"/>
          </a>
         </g>
        </svg>
</svg>
