<?xml version="1.0" encoding="UTF-8" standalone="no"?>
<!DOCTYPE svg PUBLIC "-//W3C//DTD SVG 1.1//EN"
 "http://www.w3.org/Graphics/SVG/1.1/DTD/svg11.dtd">
<!-- Generated by graphviz version 2.40.1 (20161225.0304)
 -->
<!-- Title: o2::tof::Digitizer Pages: 1 -->
<svg width="1283pt" height="772pt"
 viewBox="0.00 0.00 1283.00 772.00" xmlns="http://www.w3.org/2000/svg" xmlns:xlink="http://www.w3.org/1999/xlink">
<g id="graph0" class="graph" transform="scale(1 1) rotate(0) translate(4 768)">
<title>o2::tof::Digitizer</title>
<!-- Node2 -->
<g id="node1" class="node">
<title>Node2</title>
<polygon fill="#bfbfbf" stroke="#000000" points="579.5,-.5 579.5,-332.5 740.5,-332.5 740.5,-.5 579.5,-.5"/>
<text text-anchor="middle" x="660" y="-320.5" font-family="Helvetica,sans-Serif" font-size="10.00" fill="#000000">o2::tof::Digitizer</text>
<polyline fill="none" stroke="#000000" points="579.5,-313.5 740.5,-313.5 "/>
<text text-anchor="middle" x="660" y="-301.5" font-family="Helvetica,sans-Serif" font-size="10.00" fill="#000000"> </text>
<polyline fill="none" stroke="#000000" points="579.5,-294.5 740.5,-294.5 "/>
<text text-anchor="start" x="587.5" y="-282.5" font-family="Helvetica,sans-Serif" font-size="10.00" fill="#000000">+ Digitizer()</text>
<text text-anchor="start" x="587.5" y="-271.5" font-family="Helvetica,sans-Serif" font-size="10.00" fill="#000000">+ ~Digitizer()</text>
<text text-anchor="start" x="587.5" y="-260.5" font-family="Helvetica,sans-Serif" font-size="10.00" fill="#000000">+ init()</text>
<text text-anchor="start" x="587.5" y="-249.5" font-family="Helvetica,sans-Serif" font-size="10.00" fill="#000000">+ process()</text>
<text text-anchor="start" x="587.5" y="-238.5" font-family="Helvetica,sans-Serif" font-size="10.00" fill="#000000">+ setCalibApi()</text>
<text text-anchor="start" x="587.5" y="-227.5" font-family="Helvetica,sans-Serif" font-size="10.00" fill="#000000">+ setMCTruthContainer()</text>
<text text-anchor="start" x="587.5" y="-216.5" font-family="Helvetica,sans-Serif" font-size="10.00" fill="#000000">+ getMCTruthPerTimeFrame()</text>
<text text-anchor="start" x="587.5" y="-205.5" font-family="Helvetica,sans-Serif" font-size="10.00" fill="#000000">+ fillOutputContainer()</text>
<text text-anchor="start" x="587.5" y="-194.5" font-family="Helvetica,sans-Serif" font-size="10.00" fill="#000000">+ flushOutputContainer()</text>
<text text-anchor="start" x="587.5" y="-183.5" font-family="Helvetica,sans-Serif" font-size="10.00" fill="#000000">+ initParameters()</text>
<text text-anchor="start" x="587.5" y="-172.5" font-family="Helvetica,sans-Serif" font-size="10.00" fill="#000000">+ printParameters()</text>
<text text-anchor="start" x="587.5" y="-161.5" font-family="Helvetica,sans-Serif" font-size="10.00" fill="#000000">+ getShowerTimeSmeared()</text>
<text text-anchor="start" x="587.5" y="-150.5" font-family="Helvetica,sans-Serif" font-size="10.00" fill="#000000">+ getDigitTimeSmeared()</text>
<text text-anchor="start" x="587.5" y="-139.5" font-family="Helvetica,sans-Serif" font-size="10.00" fill="#000000">+ getCharge()</text>
<text text-anchor="start" x="587.5" y="-128.5" font-family="Helvetica,sans-Serif" font-size="10.00" fill="#000000">+ isFired()</text>
<text text-anchor="start" x="587.5" y="-117.5" font-family="Helvetica,sans-Serif" font-size="10.00" fill="#000000">+ getEffX()</text>
<text text-anchor="start" x="587.5" y="-106.5" font-family="Helvetica,sans-Serif" font-size="10.00" fill="#000000">+ getEffZ()</text>
<text text-anchor="start" x="587.5" y="-95.5" font-family="Helvetica,sans-Serif" font-size="10.00" fill="#000000">+ getFractionOfCharge()</text>
<text text-anchor="start" x="587.5" y="-84.5" font-family="Helvetica,sans-Serif" font-size="10.00" fill="#000000">+ getTimeLastHit()</text>
<text text-anchor="start" x="587.5" y="-73.5" font-family="Helvetica,sans-Serif" font-size="10.00" fill="#000000">+ getTotLastHit()</text>
<text text-anchor="start" x="587.5" y="-62.5" font-family="Helvetica,sans-Serif" font-size="10.00" fill="#000000">+ getXshift()</text>
<text text-anchor="start" x="587.5" y="-51.5" font-family="Helvetica,sans-Serif" font-size="10.00" fill="#000000">+ getZshift()</text>
<text text-anchor="start" x="587.5" y="-40.5" font-family="Helvetica,sans-Serif" font-size="10.00" fill="#000000">+ setEventID()</text>
<text text-anchor="start" x="587.5" y="-29.5" font-family="Helvetica,sans-Serif" font-size="10.00" fill="#000000">+ setSrcID()</text>
<text text-anchor="start" x="587.5" y="-18.5" font-family="Helvetica,sans-Serif" font-size="10.00" fill="#000000">+ test()</text>
<text text-anchor="start" x="587.5" y="-7.5" font-family="Helvetica,sans-Serif" font-size="10.00" fill="#000000">+ testFromHits()</text>
</g>
<!-- Node3 -->
<g id="node2" class="node">
<title>Node3</title>
<g id="a_node2"><a xlink:href="../../db/d26/classo2_1_1tof_1_1WindowFiller.html" target="_top" xlink:title="{o2::tof::WindowFiller\n||+ WindowFiller()\l+ ~WindowFiller()\l+ initObj()\l+ getCurrentReadoutWindow()\l+ setCurrentReadoutWindow()\l+ setEventTime()\l+ getDigitPerTimeFrame()\l+ getReadoutWindowData()\l+ fillOutputContainer()\l+ flushOutputContainer()\l+ setContinuous()\l+ isContinuous()\l+ resizeVectorFutureDigit()\l# fillDigitsInStrip()\l# checkIfReuseFutureDigits()\l# checkIfReuseFutureDigitsRO()\l# insertDigitInFuture()\l# isMergable()\l# ClassDefNV()\l}">
<polygon fill="none" stroke="#000000" points="573.5,-370.5 573.5,-625.5 746.5,-625.5 746.5,-370.5 573.5,-370.5"/>
<text text-anchor="middle" x="660" y="-613.5" font-family="Helvetica,sans-Serif" font-size="10.00" fill="#000000">o2::tof::WindowFiller</text>
<polyline fill="none" stroke="#000000" points="573.5,-606.5 746.5,-606.5 "/>
<text text-anchor="middle" x="660" y="-594.5" font-family="Helvetica,sans-Serif" font-size="10.00" fill="#000000"> </text>
<polyline fill="none" stroke="#000000" points="573.5,-587.5 746.5,-587.5 "/>
<text text-anchor="start" x="581.5" y="-575.5" font-family="Helvetica,sans-Serif" font-size="10.00" fill="#000000">+ WindowFiller()</text>
<text text-anchor="start" x="581.5" y="-564.5" font-family="Helvetica,sans-Serif" font-size="10.00" fill="#000000">+ ~WindowFiller()</text>
<text text-anchor="start" x="581.5" y="-553.5" font-family="Helvetica,sans-Serif" font-size="10.00" fill="#000000">+ initObj()</text>
<text text-anchor="start" x="581.5" y="-542.5" font-family="Helvetica,sans-Serif" font-size="10.00" fill="#000000">+ getCurrentReadoutWindow()</text>
<text text-anchor="start" x="581.5" y="-531.5" font-family="Helvetica,sans-Serif" font-size="10.00" fill="#000000">+ setCurrentReadoutWindow()</text>
<text text-anchor="start" x="581.5" y="-520.5" font-family="Helvetica,sans-Serif" font-size="10.00" fill="#000000">+ setEventTime()</text>
<text text-anchor="start" x="581.5" y="-509.5" font-family="Helvetica,sans-Serif" font-size="10.00" fill="#000000">+ getDigitPerTimeFrame()</text>
<text text-anchor="start" x="581.5" y="-498.5" font-family="Helvetica,sans-Serif" font-size="10.00" fill="#000000">+ getReadoutWindowData()</text>
<text text-anchor="start" x="581.5" y="-487.5" font-family="Helvetica,sans-Serif" font-size="10.00" fill="#000000">+ fillOutputContainer()</text>
<text text-anchor="start" x="581.5" y="-476.5" font-family="Helvetica,sans-Serif" font-size="10.00" fill="#000000">+ flushOutputContainer()</text>
<text text-anchor="start" x="581.5" y="-465.5" font-family="Helvetica,sans-Serif" font-size="10.00" fill="#000000">+ setContinuous()</text>
<text text-anchor="start" x="581.5" y="-454.5" font-family="Helvetica,sans-Serif" font-size="10.00" fill="#000000">+ isContinuous()</text>
<text text-anchor="start" x="581.5" y="-443.5" font-family="Helvetica,sans-Serif" font-size="10.00" fill="#000000">+ resizeVectorFutureDigit()</text>
<text text-anchor="start" x="581.5" y="-432.5" font-family="Helvetica,sans-Serif" font-size="10.00" fill="#000000"># fillDigitsInStrip()</text>
<text text-anchor="start" x="581.5" y="-421.5" font-family="Helvetica,sans-Serif" font-size="10.00" fill="#000000"># checkIfReuseFutureDigits()</text>
<text text-anchor="start" x="581.5" y="-410.5" font-family="Helvetica,sans-Serif" font-size="10.00" fill="#000000"># checkIfReuseFutureDigitsRO()</text>
<text text-anchor="start" x="581.5" y="-399.5" font-family="Helvetica,sans-Serif" font-size="10.00" fill="#000000"># insertDigitInFuture()</text>
<text text-anchor="start" x="581.5" y="-388.5" font-family="Helvetica,sans-Serif" font-size="10.00" fill="#000000"># isMergable()</text>
<text text-anchor="start" x="581.5" y="-377.5" font-family="Helvetica,sans-Serif" font-size="10.00" fill="#000000"># ClassDefNV()</text>
</a>
</g>
</g>
<!-- Node3&#45;&gt;Node2 -->
<g id="edge1" class="edge">
<title>Node3&#45;&gt;Node2</title>
<path fill="none" stroke="#191970" d="M660,-360.1479C660,-351.1011 660,-341.94 660,-332.7769"/>
<polygon fill="none" stroke="#191970" points="656.5001,-360.3076 660,-370.3076 663.5001,-360.3077 656.5001,-360.3076"/>
</g>
<!-- Node4 -->
<g id="node3" class="node">
<title>Node4</title>
<polygon fill="none" stroke="#bfbfbf" points="0,-701 0,-758 138,-758 138,-701 0,-701"/>
<text text-anchor="middle" x="69" y="-746" font-family="Helvetica,sans-Serif" font-size="10.00" fill="#000000">vector&lt; o2::tof::Strip &gt; *</text>
<polyline fill="none" stroke="#bfbfbf" points="0,-739 138,-739 "/>
<text text-anchor="middle" x="69" y="-727" font-family="Helvetica,sans-Serif" font-size="10.00" fill="#000000"> </text>
<polyline fill="none" stroke="#bfbfbf" points="0,-720 138,-720 "/>
<text text-anchor="middle" x="69" y="-708" font-family="Helvetica,sans-Serif" font-size="10.00" fill="#000000"> </text>
</g>
<!-- Node4&#45;&gt;Node3 -->
<g id="edge2" class="edge">
<title>Node4&#45;&gt;Node3</title>
<path fill="none" stroke="#404040" d="M105.6794,-700.911C130.4031,-682.6944 164.3499,-659.6586 197,-644 317.1902,-586.3583 465.5856,-544.2147 561.4646,-520.4197"/>
<polygon fill="none" stroke="#404040" points="561.5289,-520.404 566.4001,-515.0869 573.1817,-517.5383 568.3106,-522.8554 561.5289,-520.404"/>
<text text-anchor="middle" x="238" y="-663.5" font-family="Helvetica,sans-Serif" font-size="10.00" fill="#000000"> #mStripsNext</text>
<text text-anchor="middle" x="238" y="-652.5" font-family="Helvetica,sans-Serif" font-size="10.00" fill="#000000">#mStripsCurrent</text>
</g>
<!-- Node5 -->
<g id="node4" class="node">
<title>Node5</title>
<polygon fill="none" stroke="#bfbfbf" points="156,-701 156,-758 286,-758 286,-701 156,-701"/>
<text text-anchor="middle" x="221" y="-746" font-family="Helvetica,sans-Serif" font-size="10.00" fill="#000000">vector&lt; o2::tof::Strip &gt;</text>
<polyline fill="none" stroke="#bfbfbf" points="156,-739 286,-739 "/>
<text text-anchor="middle" x="221" y="-727" font-family="Helvetica,sans-Serif" font-size="10.00" fill="#000000"> </text>
<polyline fill="none" stroke="#bfbfbf" points="156,-720 286,-720 "/>
<text text-anchor="middle" x="221" y="-708" font-family="Helvetica,sans-Serif" font-size="10.00" fill="#000000"> </text>
</g>
<!-- Node5&#45;&gt;Node3 -->
<g id="edge3" class="edge">
<title>Node5&#45;&gt;Node3</title>
<path fill="none" stroke="#404040" d="M252.9732,-700.6264C273.6744,-682.8577 301.761,-660.4216 329,-644 403.4907,-599.0917 494.2535,-560.0448 561.8835,-533.66"/>
<polygon fill="none" stroke="#404040" points="562.1902,-533.5413 566.3416,-527.645 573.381,-529.2092 569.2297,-535.1055 562.1902,-533.5413"/>
<text text-anchor="middle" x="353.5" y="-658" font-family="Helvetica,sans-Serif" font-size="10.00" fill="#000000"> #mStrips</text>
</g>
<!-- Node6 -->
<g id="node5" class="node">
<title>Node6</title>
<polygon fill="none" stroke="#bfbfbf" points="304,-695.5 304,-763.5 440,-763.5 440,-695.5 304,-695.5"/>
<text text-anchor="start" x="312" y="-751.5" font-family="Helvetica,sans-Serif" font-size="10.00" fill="#000000">vector&lt; o2::tof::Readout</text>
<text text-anchor="middle" x="372" y="-740.5" font-family="Helvetica,sans-Serif" font-size="10.00" fill="#000000">WindowData &gt;</text>
<polyline fill="none" stroke="#bfbfbf" points="304,-733.5 440,-733.5 "/>
<text text-anchor="middle" x="372" y="-721.5" font-family="Helvetica,sans-Serif" font-size="10.00" fill="#000000"> </text>
<polyline fill="none" stroke="#bfbfbf" points="304,-714.5 440,-714.5 "/>
<text text-anchor="middle" x="372" y="-702.5" font-family="Helvetica,sans-Serif" font-size="10.00" fill="#000000"> </text>
</g>
<!-- Node6&#45;&gt;Node3 -->
<g id="edge4" class="edge">
<title>Node6&#45;&gt;Node3</title>
<path fill="none" stroke="#404040" d="M377.1374,-695.4292C381.0903,-678.5021 388.0017,-658.6025 400,-644 442.2769,-592.5468 507.7156,-555.9385 562.364,-532.2481"/>
<polygon fill="none" stroke="#404040" points="562.4439,-532.2143 566.4092,-526.1913 573.4941,-527.5351 569.5288,-533.5581 562.4439,-532.2143"/>
<text text-anchor="middle" x="462" y="-658" font-family="Helvetica,sans-Serif" font-size="10.00" fill="#000000"> #mReadoutWindowData</text>
</g>
<!-- Node7 -->
<g id="node6" class="node">
<title>Node7</title>
<polygon fill="none" stroke="#bfbfbf" points="458.5,-701 458.5,-758 589.5,-758 589.5,-701 458.5,-701"/>
<text text-anchor="middle" x="524" y="-746" font-family="Helvetica,sans-Serif" font-size="10.00" fill="#000000">vector&lt; o2::tof::Digit &gt;</text>
<polyline fill="none" stroke="#bfbfbf" points="458.5,-739 589.5,-739 "/>
<text text-anchor="middle" x="524" y="-727" font-family="Helvetica,sans-Serif" font-size="10.00" fill="#000000"> </text>
<polyline fill="none" stroke="#bfbfbf" points="458.5,-720 589.5,-720 "/>
<text text-anchor="middle" x="524" y="-708" font-family="Helvetica,sans-Serif" font-size="10.00" fill="#000000"> </text>
</g>
<!-- Node7&#45;&gt;Node3 -->
<g id="edge5" class="edge">
<title>Node7&#45;&gt;Node3</title>
<path fill="none" stroke="#404040" d="M524.9224,-700.6737C526.3798,-683.5507 529.8629,-661.7804 538,-644 545.4984,-627.6152 555.3408,-611.5839 566.1878,-596.4993"/>
<polygon fill="none" stroke="#404040" points="566.2899,-596.3617 566.6572,-589.1599 573.4463,-586.7291 573.079,-593.9308 566.2899,-596.3617"/>
<text text-anchor="middle" x="597" y="-663.5" font-family="Helvetica,sans-Serif" font-size="10.00" fill="#000000"> #mFutureDigits</text>
<text text-anchor="middle" x="597" y="-652.5" font-family="Helvetica,sans-Serif" font-size="10.00" fill="#000000">#mDigitsPerTimeFrame</text>
</g>
<!-- Node8 -->
<g id="node7" class="node">
<title>Node8</title>
<polygon fill="none" stroke="#bfbfbf" points="630,-701 630,-758 690,-758 690,-701 630,-701"/>
<text text-anchor="middle" x="660" y="-746" font-family="Helvetica,sans-Serif" font-size="10.00" fill="#000000">Double_t</text>
<polyline fill="none" stroke="#bfbfbf" points="630,-739 690,-739 "/>
<text text-anchor="middle" x="660" y="-727" font-family="Helvetica,sans-Serif" font-size="10.00" fill="#000000"> </text>
<polyline fill="none" stroke="#bfbfbf" points="630,-720 690,-720 "/>
<text text-anchor="middle" x="660" y="-708" font-family="Helvetica,sans-Serif" font-size="10.00" fill="#000000"> </text>
</g>
<!-- Node8&#45;&gt;Node3 -->
<g id="edge6" class="edge">
<title>Node8&#45;&gt;Node3</title>
<path fill="none" stroke="#404040" d="M660,-700.6484C660,-683.9546 660,-661.5779 660,-637.7837"/>
<polygon fill="none" stroke="#404040" points="660.0001,-637.6228 656,-631.6229 660,-625.6228 664,-631.6228 660.0001,-637.6228"/>
<text text-anchor="middle" x="697" y="-658" font-family="Helvetica,sans-Serif" font-size="10.00" fill="#000000"> #mEventTime</text>
</g>
<!-- Node9 -->
<g id="node8" class="node">
<title>Node9</title>
<polygon fill="none" stroke="#bfbfbf" points="742.5,-701 742.5,-758 771.5,-758 771.5,-701 742.5,-701"/>
<text text-anchor="middle" x="757" y="-746" font-family="Helvetica,sans-Serif" font-size="10.00" fill="#000000">int</text>
<polyline fill="none" stroke="#bfbfbf" points="742.5,-739 771.5,-739 "/>
<text text-anchor="middle" x="757" y="-727" font-family="Helvetica,sans-Serif" font-size="10.00" fill="#000000"> </text>
<polyline fill="none" stroke="#bfbfbf" points="742.5,-720 771.5,-720 "/>
<text text-anchor="middle" x="757" y="-708" font-family="Helvetica,sans-Serif" font-size="10.00" fill="#000000"> </text>
</g>
<!-- Node9&#45;&gt;Node3 -->
<g id="edge7" class="edge">
<title>Node9&#45;&gt;Node3</title>
<path fill="none" stroke="#404040" d="M751.3152,-700.897C747.5557,-684.0483 742.0243,-662.4824 735,-644 734.1458,-641.7525 733.2665,-639.4945 732.3645,-637.2293"/>
<polygon fill="none" stroke="#404040" points="732.2502,-636.9516 726.2661,-632.9278 727.6787,-625.8564 733.6628,-629.8802 732.2502,-636.9516"/>
<text text-anchor="middle" x="814" y="-658" font-family="Helvetica,sans-Serif" font-size="10.00" fill="#000000"> #mIcurrentReadoutWindow</text>
</g>
<!-- Node10 -->
<g id="node9" class="node">
<title>Node10</title>
<polygon fill="none" stroke="#bfbfbf" points="899,-701 899,-758 937,-758 937,-701 899,-701"/>
<text text-anchor="middle" x="918" y="-746" font-family="Helvetica,sans-Serif" font-size="10.00" fill="#000000">bool</text>
<polyline fill="none" stroke="#bfbfbf" points="899,-739 937,-739 "/>
<text text-anchor="middle" x="918" y="-727" font-family="Helvetica,sans-Serif" font-size="10.00" fill="#000000"> </text>
<polyline fill="none" stroke="#bfbfbf" points="899,-720 937,-720 "/>
<text text-anchor="middle" x="918" y="-708" font-family="Helvetica,sans-Serif" font-size="10.00" fill="#000000"> </text>
</g>
<!-- Node10&#45;&gt;Node3 -->
<g id="edge8" class="edge">
<title>Node10&#45;&gt;Node3</title>
<path fill="none" stroke="#404040" d="M912.4792,-700.6211C907.9543,-682.8503 900.0987,-660.4139 887,-644 852.6362,-600.9388 801.9554,-566.6352 757.1941,-542.1279"/>
<polygon fill="none" stroke="#404040" points="757.1301,-542.0936 749.9521,-542.7837 746.5543,-536.4232 753.7324,-535.7332 757.1301,-542.0936"/>
<text text-anchor="middle" x="957" y="-663.5" font-family="Helvetica,sans-Serif" font-size="10.00" fill="#000000"> #mFutureToBeSorted</text>
<text text-anchor="middle" x="957" y="-652.5" font-family="Helvetica,sans-Serif" font-size="10.00" fill="#000000">#mContinuous</text>
</g>
<!-- Node11 -->
<g id="node10" class="node">
<title>Node11</title>
<polygon fill="none" stroke="#bfbfbf" points="1025,-701 1025,-758 1069,-758 1069,-701 1025,-701"/>
<text text-anchor="middle" x="1047" y="-746" font-family="Helvetica,sans-Serif" font-size="10.00" fill="#000000">static</text>
<polyline fill="none" stroke="#bfbfbf" points="1025,-739 1069,-739 "/>
<text text-anchor="middle" x="1047" y="-727" font-family="Helvetica,sans-Serif" font-size="10.00" fill="#000000"> </text>
<polyline fill="none" stroke="#bfbfbf" points="1025,-720 1069,-720 "/>
<text text-anchor="middle" x="1047" y="-708" font-family="Helvetica,sans-Serif" font-size="10.00" fill="#000000"> </text>
</g>
<!-- Node11&#45;&gt;Node3 -->
<g id="edge9" class="edge">
<title>Node11&#45;&gt;Node3</title>
<path fill="none" stroke="#404040" d="M1042.0152,-700.9532C1037.4936,-682.6379 1029.1254,-659.4747 1014,-644 945.048,-573.4558 837.0982,-535.6392 758.5236,-516.311"/>
<polygon fill="none" stroke="#404040" points="758.336,-516.2663 751.5709,-518.7631 746.6642,-513.4787 753.4293,-510.9819 758.336,-516.2663"/>
<text text-anchor="middle" x="1075.5" y="-658" font-family="Helvetica,sans-Serif" font-size="10.00" fill="#000000"> #MAXWINDOWS</text>
</g>
<!-- Node12 -->
<g id="node11" class="node">
<title>Node12</title>
<polygon fill="none" stroke="#bfbfbf" points="1136,-701 1136,-758 1174,-758 1174,-701 1136,-701"/>
<text text-anchor="middle" x="1155" y="-746" font-family="Helvetica,sans-Serif" font-size="10.00" fill="#000000">Int_t</text>
<polyline fill="none" stroke="#bfbfbf" points="1136,-739 1174,-739 "/>
<text text-anchor="middle" x="1155" y="-727" font-family="Helvetica,sans-Serif" font-size="10.00" fill="#000000"> </text>
<polyline fill="none" stroke="#bfbfbf" points="1136,-720 1174,-720 "/>
<text text-anchor="middle" x="1155" y="-708" font-family="Helvetica,sans-Serif" font-size="10.00" fill="#000000"> </text>
</g>
<!-- Node12&#45;&gt;Node3 -->
<g id="edge10" class="edge">
<title>Node12&#45;&gt;Node3</title>
<path fill="none" stroke="#404040" d="M1150.5352,-700.9272C1146.2198,-682.3634 1137.8859,-658.9263 1122,-644 1069.1777,-594.3683 878.1132,-545.3967 758.8644,-518.6875"/>
<polygon fill="none" stroke="#404040" points="758.555,-518.6188 751.83,-521.2217 746.8408,-516.0152 753.5657,-513.4123 758.555,-518.6188"/>
<text text-anchor="middle" x="1208.5" y="-669" font-family="Helvetica,sans-Serif" font-size="10.00" fill="#000000"> #mFirstBunch</text>
<text text-anchor="middle" x="1208.5" y="-658" font-family="Helvetica,sans-Serif" font-size="10.00" fill="#000000">#mReadoutWindowCurrent</text>
<text text-anchor="middle" x="1208.5" y="-647" font-family="Helvetica,sans-Serif" font-size="10.00" fill="#000000">#mFirstOrbit</text>
</g>
</g>
</svg>
