<?xml version="1.0" encoding="UTF-8" standalone="no"?>
<!DOCTYPE svg PUBLIC "-//W3C//DTD SVG 1.1//EN"
 "http://www.w3.org/Graphics/SVG/1.1/DTD/svg11.dtd">
<!-- Generated by graphviz version 2.40.1 (20161225.0304)
 -->
<!-- Title: /home/travis/build/AliceO2Group/AliceO2/Detectors/EMCAL/reconstruction/include/EMCALReconstruction/Bunch.h Pages: 1 -->
<svg width="842pt" height="350pt"
 viewBox="0.00 0.00 842.00 350.00" xmlns="http://www.w3.org/2000/svg" xmlns:xlink="http://www.w3.org/1999/xlink">
<g id="graph0" class="graph" transform="scale(1 1) rotate(0) translate(4 346)">
<title>/home/travis/build/AliceO2Group/AliceO2/Detectors/EMCAL/reconstruction/include/EMCALReconstruction/Bunch.h</title>
<!-- Node5 -->
<g id="node1" class="node">
<title>Node5</title>
<polygon fill="#bfbfbf" stroke="#000000" points="295.5,-289.5 295.5,-341.5 500.5,-341.5 500.5,-289.5 295.5,-289.5"/>
<text text-anchor="start" x="303.5" y="-329.5" font-family="Helvetica,sans-Serif" font-size="10.00" fill="#000000">/home/travis/build</text>
<text text-anchor="start" x="303.5" y="-318.5" font-family="Helvetica,sans-Serif" font-size="10.00" fill="#000000">/AliceO2Group/AliceO2</text>
<text text-anchor="start" x="303.5" y="-307.5" font-family="Helvetica,sans-Serif" font-size="10.00" fill="#000000">/Detectors/EMCAL/reconstruction</text>
<text text-anchor="middle" x="398" y="-296.5" font-family="Helvetica,sans-Serif" font-size="10.00" fill="#000000">/include/EMCALReconstruction/Bunch.h</text>
</g>
<!-- Node6 -->
<g id="node2" class="node">
<title>Node6</title>
<g id="a_node2"><a xlink:href="../../db/d4a/AltroDecoder_8h.html" target="_top" xlink:title="/home/travis/build\l/AliceO2Group/AliceO2\l/Detectors/EMCAL/reconstruction\l/include/EMCALReconstruction\l/AltroDecoder.h">
<polygon fill="none" stroke="#000000" points="426,-89.5 426,-152.5 602,-152.5 602,-89.5 426,-89.5"/>
<text text-anchor="start" x="434" y="-140.5" font-family="Helvetica,sans-Serif" font-size="10.00" fill="#000000">/home/travis/build</text>
<text text-anchor="start" x="434" y="-129.5" font-family="Helvetica,sans-Serif" font-size="10.00" fill="#000000">/AliceO2Group/AliceO2</text>
<text text-anchor="start" x="434" y="-118.5" font-family="Helvetica,sans-Serif" font-size="10.00" fill="#000000">/Detectors/EMCAL/reconstruction</text>
<text text-anchor="start" x="434" y="-107.5" font-family="Helvetica,sans-Serif" font-size="10.00" fill="#000000">/include/EMCALReconstruction</text>
<text text-anchor="middle" x="514" y="-96.5" font-family="Helvetica,sans-Serif" font-size="10.00" fill="#000000">/AltroDecoder.h</text>
</a>
</g>
</g>
<!-- Node5&#45;&gt;Node6 -->
<g id="edge1" class="edge">
<title>Node5&#45;&gt;Node6</title>
<path fill="none" stroke="#191970" d="M410.9058,-279.6595C421.0759,-253.5226 436.5867,-217.7907 455,-189 463.0843,-176.3595 473.4023,-163.6369 483.1418,-152.6713"/>
<polygon fill="#191970" stroke="#191970" points="407.571,-278.5817 407.2746,-289.1724 414.1107,-281.078 407.571,-278.5817"/>
</g>
<!-- Node9 -->
<g id="node5" class="node">
<title>Node9</title>
<g id="a_node5"><a xlink:href="../../d4/d18/CaloRawFitter_8h.html" target="_top" xlink:title="/home/travis/build\l/AliceO2Group/AliceO2\l/Detectors/EMCAL/reconstruction\l/include/EMCALReconstruction\l/CaloRawFitter.h">
<polygon fill="none" stroke="#000000" points="156,-189.5 156,-252.5 332,-252.5 332,-189.5 156,-189.5"/>
<text text-anchor="start" x="164" y="-240.5" font-family="Helvetica,sans-Serif" font-size="10.00" fill="#000000">/home/travis/build</text>
<text text-anchor="start" x="164" y="-229.5" font-family="Helvetica,sans-Serif" font-size="10.00" fill="#000000">/AliceO2Group/AliceO2</text>
<text text-anchor="start" x="164" y="-218.5" font-family="Helvetica,sans-Serif" font-size="10.00" fill="#000000">/Detectors/EMCAL/reconstruction</text>
<text text-anchor="start" x="164" y="-207.5" font-family="Helvetica,sans-Serif" font-size="10.00" fill="#000000">/include/EMCALReconstruction</text>
<text text-anchor="middle" x="244" y="-196.5" font-family="Helvetica,sans-Serif" font-size="10.00" fill="#000000">/CaloRawFitter.h</text>
</a>
</g>
</g>
<!-- Node5&#45;&gt;Node9 -->
<g id="edge4" class="edge">
<title>Node5&#45;&gt;Node9</title>
<path fill="none" stroke="#191970" d="M346.5631,-283.9365C330.0904,-273.8282 311.8569,-262.6395 295.3876,-252.5333"/>
<polygon fill="#191970" stroke="#191970" points="345.1573,-287.1802 355.5112,-289.4273 348.8185,-281.214 345.1573,-287.1802"/>
</g>
<!-- Node10 -->
<g id="node6" class="node">
<title>Node10</title>
<g id="a_node6"><a xlink:href="../../dd/d8f/CaloRawFitterStandard_8h.html" target="_top" xlink:title="/home/travis/build\l/AliceO2Group/AliceO2\l/Detectors/EMCAL/reconstruction\l/include/EMCALReconstruction\l/CaloRawFitterStandard.h">
<polygon fill="none" stroke="#000000" points="0,-89.5 0,-152.5 176,-152.5 176,-89.5 0,-89.5"/>
<text text-anchor="start" x="8" y="-140.5" font-family="Helvetica,sans-Serif" font-size="10.00" fill="#000000">/home/travis/build</text>
<text text-anchor="start" x="8" y="-129.5" font-family="Helvetica,sans-Serif" font-size="10.00" fill="#000000">/AliceO2Group/AliceO2</text>
<text text-anchor="start" x="8" y="-118.5" font-family="Helvetica,sans-Serif" font-size="10.00" fill="#000000">/Detectors/EMCAL/reconstruction</text>
<text text-anchor="start" x="8" y="-107.5" font-family="Helvetica,sans-Serif" font-size="10.00" fill="#000000">/include/EMCALReconstruction</text>
<text text-anchor="middle" x="88" y="-96.5" font-family="Helvetica,sans-Serif" font-size="10.00" fill="#000000">/CaloRawFitterStandard.h</text>
</a>
</g>
</g>
<!-- Node5&#45;&gt;Node10 -->
<g id="edge8" class="edge">
<title>Node5&#45;&gt;Node10</title>
<path fill="none" stroke="#191970" d="M285.3023,-297.3699C229.0868,-286.4023 168.5561,-271.0554 147,-253 116.4996,-227.4527 101.1505,-182.9399 93.883,-152.7394"/>
<polygon fill="#191970" stroke="#191970" points="284.8923,-300.8549 295.372,-299.2977 286.2085,-293.9798 284.8923,-300.8549"/>
</g>
<!-- Node11 -->
<g id="node7" class="node">
<title>Node11</title>
<g id="a_node7"><a xlink:href="../../d5/dcd/CaloRawFitterStandard_8cxx.html" target="_top" xlink:title="/home/travis/build\l/AliceO2Group/AliceO2\l/Detectors/EMCAL/reconstruction\l/src/CaloRawFitterStandard.cxx">
<polygon fill="none" stroke="#000000" points="116,-.5 116,-52.5 292,-52.5 292,-.5 116,-.5"/>
<text text-anchor="start" x="124" y="-40.5" font-family="Helvetica,sans-Serif" font-size="10.00" fill="#000000">/home/travis/build</text>
<text text-anchor="start" x="124" y="-29.5" font-family="Helvetica,sans-Serif" font-size="10.00" fill="#000000">/AliceO2Group/AliceO2</text>
<text text-anchor="start" x="124" y="-18.5" font-family="Helvetica,sans-Serif" font-size="10.00" fill="#000000">/Detectors/EMCAL/reconstruction</text>
<text text-anchor="middle" x="204" y="-7.5" font-family="Helvetica,sans-Serif" font-size="10.00" fill="#000000">/src/CaloRawFitterStandard.cxx</text>
</a>
</g>
</g>
<!-- Node5&#45;&gt;Node11 -->
<g id="edge14" class="edge">
<title>Node5&#45;&gt;Node11</title>
<path fill="none" stroke="#191970" d="M405.9881,-279.1606C414.4412,-230.5399 421.3665,-144.0724 379,-89 367.4433,-73.9773 329.6286,-59.5783 292.0946,-48.3953"/>
<polygon fill="#191970" stroke="#191970" points="402.5039,-278.754 404.1216,-289.2246 409.3866,-280.0305 402.5039,-278.754"/>
</g>
<!-- Node12 -->
<g id="node8" class="node">
<title>Node12</title>
<g id="a_node8"><a xlink:href="../../d0/dd0/CaloRawFitter_8cxx.html" target="_top" xlink:title="/home/travis/build\l/AliceO2Group/AliceO2\l/Detectors/EMCAL/reconstruction\l/src/CaloRawFitter.cxx">
<polygon fill="none" stroke="#000000" points="194,-95 194,-147 370,-147 370,-95 194,-95"/>
<text text-anchor="start" x="202" y="-135" font-family="Helvetica,sans-Serif" font-size="10.00" fill="#000000">/home/travis/build</text>
<text text-anchor="start" x="202" y="-124" font-family="Helvetica,sans-Serif" font-size="10.00" fill="#000000">/AliceO2Group/AliceO2</text>
<text text-anchor="start" x="202" y="-113" font-family="Helvetica,sans-Serif" font-size="10.00" fill="#000000">/Detectors/EMCAL/reconstruction</text>
<text text-anchor="middle" x="282" y="-102" font-family="Helvetica,sans-Serif" font-size="10.00" fill="#000000">/src/CaloRawFitter.cxx</text>
</a>
</g>
</g>
<!-- Node5&#45;&gt;Node12 -->
<g id="edge13" class="edge">
<title>Node5&#45;&gt;Node12</title>
<path fill="none" stroke="#191970" d="M385.0942,-279.6595C374.9241,-253.5226 359.4133,-217.7907 341,-189 331.4841,-174.1211 318.8734,-159.1284 307.7541,-147.0213"/>
<polygon fill="#191970" stroke="#191970" points="381.8893,-281.078 388.7254,-289.1724 388.429,-278.5817 381.8893,-281.078"/>
</g>
<!-- Node13 -->
<g id="node9" class="node">
<title>Node13</title>
<g id="a_node9"><a xlink:href="../../de/d03/Channel_8h.html" target="_top" xlink:title="/home/travis/build\l/AliceO2Group/AliceO2\l/Detectors/EMCAL/reconstruction\l/include/EMCALReconstruction\l/Channel.h">
<polygon fill="none" stroke="#000000" points="464,-189.5 464,-252.5 640,-252.5 640,-189.5 464,-189.5"/>
<text text-anchor="start" x="472" y="-240.5" font-family="Helvetica,sans-Serif" font-size="10.00" fill="#000000">/home/travis/build</text>
<text text-anchor="start" x="472" y="-229.5" font-family="Helvetica,sans-Serif" font-size="10.00" fill="#000000">/AliceO2Group/AliceO2</text>
<text text-anchor="start" x="472" y="-218.5" font-family="Helvetica,sans-Serif" font-size="10.00" fill="#000000">/Detectors/EMCAL/reconstruction</text>
<text text-anchor="start" x="472" y="-207.5" font-family="Helvetica,sans-Serif" font-size="10.00" fill="#000000">/include/EMCALReconstruction</text>
<text text-anchor="middle" x="552" y="-196.5" font-family="Helvetica,sans-Serif" font-size="10.00" fill="#000000">/Channel.h</text>
</a>
</g>
</g>
<!-- Node5&#45;&gt;Node13 -->
<g id="edge9" class="edge">
<title>Node5&#45;&gt;Node13</title>
<path fill="none" stroke="#191970" d="M449.4369,-283.9365C465.9096,-273.8282 484.1431,-262.6395 500.6124,-252.5333"/>
<polygon fill="#191970" stroke="#191970" points="447.1815,-281.214 440.4888,-289.4273 450.8427,-287.1802 447.1815,-281.214"/>
</g>
<!-- Node15 -->
<g id="node11" class="node">
<title>Node15</title>
<g id="a_node11"><a xlink:href="../../db/d6f/Bunch_8cxx.html" target="_top" xlink:title="/home/travis/build\l/AliceO2Group/AliceO2\l/Detectors/EMCAL/reconstruction\l/src/Bunch.cxx">
<polygon fill="none" stroke="#000000" points="658,-195 658,-247 834,-247 834,-195 658,-195"/>
<text text-anchor="start" x="666" y="-235" font-family="Helvetica,sans-Serif" font-size="10.00" fill="#000000">/home/travis/build</text>
<text text-anchor="start" x="666" y="-224" font-family="Helvetica,sans-Serif" font-size="10.00" fill="#000000">/AliceO2Group/AliceO2</text>
<text text-anchor="start" x="666" y="-213" font-family="Helvetica,sans-Serif" font-size="10.00" fill="#000000">/Detectors/EMCAL/reconstruction</text>
<text text-anchor="middle" x="746" y="-202" font-family="Helvetica,sans-Serif" font-size="10.00" fill="#000000">/src/Bunch.cxx</text>
</a>
</g>
</g>
<!-- Node5&#45;&gt;Node15 -->
<g id="edge12" class="edge">
<title>Node5&#45;&gt;Node15</title>
<path fill="none" stroke="#191970" d="M510.4842,-289.3871C553.953,-278.8011 603.9788,-266.0118 649,-253 655.4736,-251.129 662.1626,-249.1084 668.8605,-247.0239"/>
<polygon fill="#191970" stroke="#191970" points="509.6326,-285.9921 500.7391,-291.7503 511.2823,-292.795 509.6326,-285.9921"/>
</g>
<!-- Node7 -->
<g id="node3" class="node">
<title>Node7</title>
<g id="a_node3"><a xlink:href="../../d0/d27/rawReaderFile_8cxx.html" target="_top" xlink:title="/home/travis/build\l/AliceO2Group/AliceO2\l/Detectors/EMCAL/reconstruction\l/run/rawReaderFile.cxx">
<polygon fill="none" stroke="#000000" points="523,-.5 523,-52.5 699,-52.5 699,-.5 523,-.5"/>
<text text-anchor="start" x="531" y="-40.5" font-family="Helvetica,sans-Serif" font-size="10.00" fill="#000000">/home/travis/build</text>
<text text-anchor="start" x="531" y="-29.5" font-family="Helvetica,sans-Serif" font-size="10.00" fill="#000000">/AliceO2Group/AliceO2</text>
<text text-anchor="start" x="531" y="-18.5" font-family="Helvetica,sans-Serif" font-size="10.00" fill="#000000">/Detectors/EMCAL/reconstruction</text>
<text text-anchor="middle" x="611" y="-7.5" font-family="Helvetica,sans-Serif" font-size="10.00" fill="#000000">/run/rawReaderFile.cxx</text>
</a>
</g>
</g>
<!-- Node6&#45;&gt;Node7 -->
<g id="edge2" class="edge">
<title>Node6&#45;&gt;Node7</title>
<path fill="none" stroke="#191970" d="M553.8754,-82.1523C564.0736,-72.217 574.7973,-61.7696 584.1642,-52.6442"/>
<polygon fill="#191970" stroke="#191970" points="551.2899,-79.7848 546.5694,-89.27 556.1746,-84.7988 551.2899,-79.7848"/>
</g>
<!-- Node8 -->
<g id="node4" class="node">
<title>Node8</title>
<g id="a_node4"><a xlink:href="../../df/df1/AltroDecoder_8cxx.html" target="_top" xlink:title="/home/travis/build\l/AliceO2Group/AliceO2\l/Detectors/EMCAL/reconstruction\l/src/AltroDecoder.cxx">
<polygon fill="none" stroke="#000000" points="329,-.5 329,-52.5 505,-52.5 505,-.5 329,-.5"/>
<text text-anchor="start" x="337" y="-40.5" font-family="Helvetica,sans-Serif" font-size="10.00" fill="#000000">/home/travis/build</text>
<text text-anchor="start" x="337" y="-29.5" font-family="Helvetica,sans-Serif" font-size="10.00" fill="#000000">/AliceO2Group/AliceO2</text>
<text text-anchor="start" x="337" y="-18.5" font-family="Helvetica,sans-Serif" font-size="10.00" fill="#000000">/Detectors/EMCAL/reconstruction</text>
<text text-anchor="middle" x="417" y="-7.5" font-family="Helvetica,sans-Serif" font-size="10.00" fill="#000000">/src/AltroDecoder.cxx</text>
</a>
</g>
</g>
<!-- Node6&#45;&gt;Node8 -->
<g id="edge3" class="edge">
<title>Node6&#45;&gt;Node8</title>
<path fill="none" stroke="#191970" d="M474.1246,-82.1523C463.9264,-72.217 453.2027,-61.7696 443.8358,-52.6442"/>
<polygon fill="#191970" stroke="#191970" points="471.8254,-84.7988 481.4306,-89.27 476.7101,-79.7848 471.8254,-84.7988"/>
</g>
<!-- Node9&#45;&gt;Node10 -->
<g id="edge5" class="edge">
<title>Node9&#45;&gt;Node10</title>
<path fill="none" stroke="#191970" d="M185.9027,-183.7581C169.9196,-173.5126 152.7417,-162.5011 137.3058,-152.6063"/>
<polygon fill="#191970" stroke="#191970" points="184.333,-186.9093 194.6406,-189.3594 188.1107,-181.0161 184.333,-186.9093"/>
</g>
<!-- Node9&#45;&gt;Node12 -->
<g id="edge7" class="edge">
<title>Node9&#45;&gt;Node12</title>
<path fill="none" stroke="#191970" d="M259.6426,-179.8352C263.8522,-168.7573 268.2889,-157.0819 272.0904,-147.078"/>
<polygon fill="#191970" stroke="#191970" points="256.3039,-178.7682 256.0234,-189.3594 262.8474,-181.2548 256.3039,-178.7682"/>
</g>
<!-- Node10&#45;&gt;Node11 -->
<g id="edge6" class="edge">
<title>Node10&#45;&gt;Node11</title>
<path fill="none" stroke="#191970" d="M134.9764,-82.7304C147.3831,-72.6232 160.4886,-61.9468 171.9077,-52.6442"/>
<polygon fill="#191970" stroke="#191970" points="132.4914,-80.2404 126.949,-89.27 136.9126,-85.6675 132.4914,-80.2404"/>
</g>
<!-- Node13&#45;&gt;Node6 -->
<g id="edge10" class="edge">
<title>Node13&#45;&gt;Node6</title>
<path fill="none" stroke="#191970" d="M536.3391,-179.7872C532.9126,-170.7701 529.3365,-161.3593 526.0756,-152.778"/>
<polygon fill="#191970" stroke="#191970" points="533.1526,-181.2548 539.9766,-189.3594 539.6961,-178.7682 533.1526,-181.2548"/>
</g>
<!-- Node14 -->
<g id="node10" class="node">
<title>Node14</title>
<g id="a_node10"><a xlink:href="../../db/d93/Channel_8cxx.html" target="_top" xlink:title="/home/travis/build\l/AliceO2Group/AliceO2\l/Detectors/EMCAL/reconstruction\l/src/Channel.cxx">
<polygon fill="none" stroke="#000000" points="620,-95 620,-147 796,-147 796,-95 620,-95"/>
<text text-anchor="start" x="628" y="-135" font-family="Helvetica,sans-Serif" font-size="10.00" fill="#000000">/home/travis/build</text>
<text text-anchor="start" x="628" y="-124" font-family="Helvetica,sans-Serif" font-size="10.00" fill="#000000">/AliceO2Group/AliceO2</text>
<text text-anchor="start" x="628" y="-113" font-family="Helvetica,sans-Serif" font-size="10.00" fill="#000000">/Detectors/EMCAL/reconstruction</text>
<text text-anchor="middle" x="708" y="-102" font-family="Helvetica,sans-Serif" font-size="10.00" fill="#000000">/src/Channel.cxx</text>
</a>
</g>
</g>
<!-- Node13&#45;&gt;Node14 -->
<g id="edge11" class="edge">
<title>Node13&#45;&gt;Node14</title>
<path fill="none" stroke="#191970" d="M609.9804,-183.8331C629.0448,-171.6123 649.8207,-158.2944 667.3184,-147.078"/>
<polygon fill="#191970" stroke="#191970" points="607.8893,-181.0161 601.3594,-189.3594 611.667,-186.9093 607.8893,-181.0161"/>
</g>
</g>
</svg>
