<?xml version="1.0" encoding="UTF-8" standalone="no"?>
<!DOCTYPE svg PUBLIC "-//W3C//DTD SVG 1.1//EN"
 "http://www.w3.org/Graphics/SVG/1.1/DTD/svg11.dtd">
<!-- Generated by graphviz version 2.40.1 (20161225.0304)
 -->
<!-- Title: /home/travis/build/AliceO2Group/AliceO2/DataFormats/Detectors/TPC/include/DataFormatsTPC/TrackTPC.h Pages: 1 -->
<svg width="2317pt" height="361pt"
 viewBox="0.00 0.00 2317.00 361.00" xmlns="http://www.w3.org/2000/svg" xmlns:xlink="http://www.w3.org/1999/xlink">
<g id="graph0" class="graph" transform="scale(1 1) rotate(0) translate(4 357)">
<title>/home/travis/build/AliceO2Group/AliceO2/DataFormats/Detectors/TPC/include/DataFormatsTPC/TrackTPC.h</title>
<!-- Node49 -->
<g id="node1" class="node">
<title>Node49</title>
<polygon fill="#bfbfbf" stroke="#000000" points="1145,-289.5 1145,-352.5 1306,-352.5 1306,-289.5 1145,-289.5"/>
<text text-anchor="start" x="1153" y="-340.5" font-family="Helvetica,sans-Serif" font-size="10.00" fill="#000000">/home/travis/build</text>
<text text-anchor="start" x="1153" y="-329.5" font-family="Helvetica,sans-Serif" font-size="10.00" fill="#000000">/AliceO2Group/AliceO2</text>
<text text-anchor="start" x="1153" y="-318.5" font-family="Helvetica,sans-Serif" font-size="10.00" fill="#000000">/DataFormats/Detectors</text>
<text text-anchor="start" x="1153" y="-307.5" font-family="Helvetica,sans-Serif" font-size="10.00" fill="#000000">/TPC/include/DataFormatsTPC</text>
<text text-anchor="middle" x="1225.5" y="-296.5" font-family="Helvetica,sans-Serif" font-size="10.00" fill="#000000">/TrackTPC.h</text>
</g>
<!-- Node50 -->
<g id="node2" class="node">
<title>Node50</title>
<g id="a_node2"><a xlink:href="../../d6/da8/TrackTPC_8cxx.html" target="_top" xlink:title="Implementation of the TPC track. ">
<polygon fill="none" stroke="#000000" points="188,-195 188,-247 321,-247 321,-195 188,-195"/>
<text text-anchor="start" x="196" y="-235" font-family="Helvetica,sans-Serif" font-size="10.00" fill="#000000">/home/travis/build</text>
<text text-anchor="start" x="196" y="-224" font-family="Helvetica,sans-Serif" font-size="10.00" fill="#000000">/AliceO2Group/AliceO2</text>
<text text-anchor="start" x="196" y="-213" font-family="Helvetica,sans-Serif" font-size="10.00" fill="#000000">/DataFormats/Detectors</text>
<text text-anchor="middle" x="254.5" y="-202" font-family="Helvetica,sans-Serif" font-size="10.00" fill="#000000">/TPC/src/TrackTPC.cxx</text>
</a>
</g>
</g>
<!-- Node49&#45;&gt;Node50 -->
<g id="edge1" class="edge">
<title>Node49&#45;&gt;Node50</title>
<path fill="none" stroke="#191970" d="M1134.5921,-317.5099C939.3742,-309.4524 485.6221,-287.5567 335.5,-253 328.722,-251.4398 321.7645,-249.407 314.911,-247.122"/>
<polygon fill="#191970" stroke="#191970" points="1134.6845,-321.0165 1144.8194,-317.9291 1134.9712,-314.0224 1134.6845,-321.0165"/>
</g>
<!-- Node51 -->
<g id="node3" class="node">
<title>Node51</title>
<g id="a_node3"><a xlink:href="../../d0/d74/MatchTOF_8h.html" target="_top" xlink:title="Class to perform TOF matching to global tracks. ">
<polygon fill="none" stroke="#000000" points="82.5,-95 82.5,-147 270.5,-147 270.5,-95 82.5,-95"/>
<text text-anchor="start" x="90.5" y="-135" font-family="Helvetica,sans-Serif" font-size="10.00" fill="#000000">/home/travis/build</text>
<text text-anchor="start" x="90.5" y="-124" font-family="Helvetica,sans-Serif" font-size="10.00" fill="#000000">/AliceO2Group/AliceO2</text>
<text text-anchor="start" x="90.5" y="-113" font-family="Helvetica,sans-Serif" font-size="10.00" fill="#000000">/Detectors/GlobalTracking</text>
<text text-anchor="middle" x="176.5" y="-102" font-family="Helvetica,sans-Serif" font-size="10.00" fill="#000000">/include/GlobalTracking/MatchTOF.h</text>
</a>
</g>
</g>
<!-- Node49&#45;&gt;Node51 -->
<g id="edge2" class="edge">
<title>Node49&#45;&gt;Node51</title>
<path fill="none" stroke="#191970" d="M1134.5205,-318.4309C927.1902,-311.9169 432.5756,-292.4039 368.5,-253 340.1262,-235.5513 354.5233,-210.9856 329.5,-189 309.3011,-171.2531 283.7236,-157.4532 259.2916,-147.0649"/>
<polygon fill="#191970" stroke="#191970" points="1134.6677,-321.9371 1144.7717,-318.7497 1134.8854,-314.9405 1134.6677,-321.9371"/>
</g>
<!-- Node54 -->
<g id="node6" class="node">
<title>Node54</title>
<g id="a_node6"><a xlink:href="../../d3/dac/MatchTPCITS_8h.html" target="_top" xlink:title="Class to perform TPC ITS matching. ">
<polygon fill="none" stroke="#000000" points="378,-195 378,-247 583,-247 583,-195 378,-195"/>
<text text-anchor="start" x="386" y="-235" font-family="Helvetica,sans-Serif" font-size="10.00" fill="#000000">/home/travis/build</text>
<text text-anchor="start" x="386" y="-224" font-family="Helvetica,sans-Serif" font-size="10.00" fill="#000000">/AliceO2Group/AliceO2</text>
<text text-anchor="start" x="386" y="-213" font-family="Helvetica,sans-Serif" font-size="10.00" fill="#000000">/Detectors/GlobalTracking</text>
<text text-anchor="middle" x="480.5" y="-202" font-family="Helvetica,sans-Serif" font-size="10.00" fill="#000000">/include/GlobalTracking/MatchTPCITS.h</text>
</a>
</g>
</g>
<!-- Node49&#45;&gt;Node54 -->
<g id="edge5" class="edge">
<title>Node49&#45;&gt;Node54</title>
<path fill="none" stroke="#191970" d="M1134.9333,-310.8674C1025.9802,-298.4271 837.6001,-276.1193 676.5,-253 646.1255,-248.641 613.1812,-243.4452 583.1252,-238.5213"/>
<polygon fill="#191970" stroke="#191970" points="1134.5699,-314.3485 1144.9019,-312.0034 1135.3625,-307.3935 1134.5699,-314.3485"/>
</g>
<!-- Node58 -->
<g id="node10" class="node">
<title>Node58</title>
<g id="a_node10"><a xlink:href="../../d6/d73/TPCITSMatchingSpec_8cxx.html" target="_top" xlink:title="/home/travis/build\l/AliceO2Group/AliceO2\l/Detectors/GlobalTrackingWorkflow\l/src/TPCITSMatchingSpec.cxx">
<polygon fill="none" stroke="#000000" points="704,-.5 704,-52.5 891,-52.5 891,-.5 704,-.5"/>
<text text-anchor="start" x="712" y="-40.5" font-family="Helvetica,sans-Serif" font-size="10.00" fill="#000000">/home/travis/build</text>
<text text-anchor="start" x="712" y="-29.5" font-family="Helvetica,sans-Serif" font-size="10.00" fill="#000000">/AliceO2Group/AliceO2</text>
<text text-anchor="start" x="712" y="-18.5" font-family="Helvetica,sans-Serif" font-size="10.00" fill="#000000">/Detectors/GlobalTrackingWorkflow</text>
<text text-anchor="middle" x="797.5" y="-7.5" font-family="Helvetica,sans-Serif" font-size="10.00" fill="#000000">/src/TPCITSMatchingSpec.cxx</text>
</a>
</g>
</g>
<!-- Node49&#45;&gt;Node58 -->
<g id="edge12" class="edge">
<title>Node49&#45;&gt;Node58</title>
<path fill="none" stroke="#191970" d="M1134.5784,-311.738C1054.8143,-301.7488 946.9311,-283.0958 916.5,-253 863.3021,-200.3881 918.9162,-151.9647 878.5,-89 869.385,-74.7997 855.8805,-62.5318 842.4996,-52.7176"/>
<polygon fill="#191970" stroke="#191970" points="1134.2988,-315.2298 1144.6503,-312.9724 1135.1503,-308.2818 1134.2988,-315.2298"/>
</g>
<!-- Node59 -->
<g id="node11" class="node">
<title>Node59</title>
<g id="a_node11"><a xlink:href="../../d3/d0c/TrackInterpolation_8h.html" target="_top" xlink:title="Definition of the TrackInterpolation class. ">
<polygon fill="none" stroke="#000000" points="926,-189.5 926,-252.5 1105,-252.5 1105,-189.5 926,-189.5"/>
<text text-anchor="start" x="934" y="-240.5" font-family="Helvetica,sans-Serif" font-size="10.00" fill="#000000">/home/travis/build</text>
<text text-anchor="start" x="934" y="-229.5" font-family="Helvetica,sans-Serif" font-size="10.00" fill="#000000">/AliceO2Group/AliceO2</text>
<text text-anchor="start" x="934" y="-218.5" font-family="Helvetica,sans-Serif" font-size="10.00" fill="#000000">/Detectors/TPC/calibration</text>
<text text-anchor="start" x="934" y="-207.5" font-family="Helvetica,sans-Serif" font-size="10.00" fill="#000000">/SpacePoints/include/SpacePoints</text>
<text text-anchor="middle" x="1015.5" y="-196.5" font-family="Helvetica,sans-Serif" font-size="10.00" fill="#000000">/TrackInterpolation.h</text>
</a>
</g>
</g>
<!-- Node49&#45;&gt;Node59 -->
<g id="edge13" class="edge">
<title>Node49&#45;&gt;Node59</title>
<path fill="none" stroke="#191970" d="M1150.2101,-285.1476C1127.8149,-274.4833 1103.4547,-262.8832 1081.6852,-252.5168"/>
<polygon fill="#191970" stroke="#191970" points="1148.8095,-288.3573 1159.3429,-289.4966 1151.8191,-282.0372 1148.8095,-288.3573"/>
</g>
<!-- Node62 -->
<g id="node14" class="node">
<title>Node62</title>
<g id="a_node14"><a xlink:href="../../d4/d15/TrackInterpolation_8cxx.html" target="_top" xlink:title="Implementation of the TrackInterpolation class. ">
<polygon fill="none" stroke="#000000" points="1123,-95 1123,-147 1330,-147 1330,-95 1123,-95"/>
<text text-anchor="start" x="1131" y="-135" font-family="Helvetica,sans-Serif" font-size="10.00" fill="#000000">/home/travis/build</text>
<text text-anchor="start" x="1131" y="-124" font-family="Helvetica,sans-Serif" font-size="10.00" fill="#000000">/AliceO2Group/AliceO2</text>
<text text-anchor="start" x="1131" y="-113" font-family="Helvetica,sans-Serif" font-size="10.00" fill="#000000">/Detectors/TPC/calibration</text>
<text text-anchor="middle" x="1226.5" y="-102" font-family="Helvetica,sans-Serif" font-size="10.00" fill="#000000">/SpacePoints/src/TrackInterpolation.cxx</text>
</a>
</g>
</g>
<!-- Node49&#45;&gt;Node62 -->
<g id="edge17" class="edge">
<title>Node49&#45;&gt;Node62</title>
<path fill="none" stroke="#191970" d="M1172.5597,-282.0457C1164.3993,-273.4536 1157.1502,-263.6868 1152.5,-253 1141.1508,-226.9178 1141.0624,-215.0436 1152.5,-189 1159.7263,-172.5457 1173.1168,-158.3241 1186.5415,-147.2022"/>
<polygon fill="#191970" stroke="#191970" points="1170.3394,-284.7711 1179.9233,-289.2876 1175.2477,-279.7803 1170.3394,-284.7711"/>
</g>
<!-- Node63 -->
<g id="node15" class="node">
<title>Node63</title>
<g id="a_node15"><a xlink:href="../../d2/d14/Detectors_2TPC_2qc_2src_2PID_8cxx.html" target="_top" xlink:title="/home/travis/build\l/AliceO2Group/AliceO2\l/Detectors/TPC/qc/src\l/PID.cxx">
<polygon fill="none" stroke="#000000" points="1162,-195 1162,-247 1289,-247 1289,-195 1162,-195"/>
<text text-anchor="start" x="1170" y="-235" font-family="Helvetica,sans-Serif" font-size="10.00" fill="#000000">/home/travis/build</text>
<text text-anchor="start" x="1170" y="-224" font-family="Helvetica,sans-Serif" font-size="10.00" fill="#000000">/AliceO2Group/AliceO2</text>
<text text-anchor="start" x="1170" y="-213" font-family="Helvetica,sans-Serif" font-size="10.00" fill="#000000">/Detectors/TPC/qc/src</text>
<text text-anchor="middle" x="1225.5" y="-202" font-family="Helvetica,sans-Serif" font-size="10.00" fill="#000000">/PID.cxx</text>
</a>
</g>
</g>
<!-- Node49&#45;&gt;Node63 -->
<g id="edge18" class="edge">
<title>Node49&#45;&gt;Node63</title>
<path fill="none" stroke="#191970" d="M1225.5,-279.1631C1225.5,-268.2863 1225.5,-256.8798 1225.5,-247.078"/>
<polygon fill="#191970" stroke="#191970" points="1222.0001,-279.3593 1225.5,-289.3594 1229.0001,-279.3594 1222.0001,-279.3593"/>
</g>
<!-- Node64 -->
<g id="node16" class="node">
<title>Node64</title>
<g id="a_node16"><a xlink:href="../../d2/d68/TrackCuts_8cxx.html" target="_top" xlink:title="/home/travis/build\l/AliceO2Group/AliceO2\l/Detectors/TPC/qc/src\l/TrackCuts.cxx">
<polygon fill="none" stroke="#000000" points="1307,-195 1307,-247 1434,-247 1434,-195 1307,-195"/>
<text text-anchor="start" x="1315" y="-235" font-family="Helvetica,sans-Serif" font-size="10.00" fill="#000000">/home/travis/build</text>
<text text-anchor="start" x="1315" y="-224" font-family="Helvetica,sans-Serif" font-size="10.00" fill="#000000">/AliceO2Group/AliceO2</text>
<text text-anchor="start" x="1315" y="-213" font-family="Helvetica,sans-Serif" font-size="10.00" fill="#000000">/Detectors/TPC/qc/src</text>
<text text-anchor="middle" x="1370.5" y="-202" font-family="Helvetica,sans-Serif" font-size="10.00" fill="#000000">/TrackCuts.cxx</text>
</a>
</g>
</g>
<!-- Node49&#45;&gt;Node64 -->
<g id="edge19" class="edge">
<title>Node49&#45;&gt;Node64</title>
<path fill="none" stroke="#191970" d="M1279.8713,-283.5025C1297.4599,-271.3725 1316.5696,-258.1934 1332.687,-247.078"/>
<polygon fill="#191970" stroke="#191970" points="1277.624,-280.8008 1271.3789,-289.3594 1281.5981,-286.5633 1277.624,-280.8008"/>
</g>
<!-- Node65 -->
<g id="node17" class="node">
<title>Node65</title>
<g id="a_node17"><a xlink:href="../../db/d71/Tracks_8cxx.html" target="_top" xlink:title="/home/travis/build\l/AliceO2Group/AliceO2\l/Detectors/TPC/qc/src\l/Tracks.cxx">
<polygon fill="none" stroke="#000000" points="1452,-195 1452,-247 1579,-247 1579,-195 1452,-195"/>
<text text-anchor="start" x="1460" y="-235" font-family="Helvetica,sans-Serif" font-size="10.00" fill="#000000">/home/travis/build</text>
<text text-anchor="start" x="1460" y="-224" font-family="Helvetica,sans-Serif" font-size="10.00" fill="#000000">/AliceO2Group/AliceO2</text>
<text text-anchor="start" x="1460" y="-213" font-family="Helvetica,sans-Serif" font-size="10.00" fill="#000000">/Detectors/TPC/qc/src</text>
<text text-anchor="middle" x="1515.5" y="-202" font-family="Helvetica,sans-Serif" font-size="10.00" fill="#000000">/Tracks.cxx</text>
</a>
</g>
</g>
<!-- Node49&#45;&gt;Node65 -->
<g id="edge20" class="edge">
<title>Node49&#45;&gt;Node65</title>
<path fill="none" stroke="#191970" d="M1315.8998,-295.0887C1355.1429,-283.2208 1401.4299,-268.3839 1442.5,-253 1447.4242,-251.1555 1452.4951,-249.1535 1457.5604,-247.0814"/>
<polygon fill="#191970" stroke="#191970" points="1314.6508,-291.8094 1306.082,-298.0405 1316.6663,-298.513 1314.6508,-291.8094"/>
</g>
<!-- Node66 -->
<g id="node18" class="node">
<title>Node66</title>
<g id="a_node18"><a xlink:href="../../d3/d64/GPUCATracking_8h.html" target="_top" xlink:title="Wrapper class for TPC CA Tracker algorithm. ">
<polygon fill="none" stroke="#000000" points="1597,-189.5 1597,-252.5 1758,-252.5 1758,-189.5 1597,-189.5"/>
<text text-anchor="start" x="1605" y="-240.5" font-family="Helvetica,sans-Serif" font-size="10.00" fill="#000000">/home/travis/build</text>
<text text-anchor="start" x="1605" y="-229.5" font-family="Helvetica,sans-Serif" font-size="10.00" fill="#000000">/AliceO2Group/AliceO2</text>
<text text-anchor="start" x="1605" y="-218.5" font-family="Helvetica,sans-Serif" font-size="10.00" fill="#000000">/Detectors/TPC/reconstruction</text>
<text text-anchor="start" x="1605" y="-207.5" font-family="Helvetica,sans-Serif" font-size="10.00" fill="#000000">/include/TPCReconstruction</text>
<text text-anchor="middle" x="1677.5" y="-196.5" font-family="Helvetica,sans-Serif" font-size="10.00" fill="#000000">/GPUCATracking.h</text>
</a>
</g>
</g>
<!-- Node49&#45;&gt;Node66 -->
<g id="edge21" class="edge">
<title>Node49&#45;&gt;Node66</title>
<path fill="none" stroke="#191970" d="M1316.297,-307.9696C1390.0505,-296.4252 1496.4015,-277.5904 1587.5,-253 1590.5419,-252.1789 1593.6281,-251.3034 1596.7352,-250.3861"/>
<polygon fill="#191970" stroke="#191970" points="1315.4564,-304.5581 1306.1113,-309.55 1316.5298,-311.4753 1315.4564,-304.5581"/>
</g>
<!-- Node68 -->
<g id="node20" class="node">
<title>Node68</title>
<g id="a_node20"><a xlink:href="../../d1/df6/testGPUCATracking_8cxx.html" target="_top" xlink:title="This task tests the TPC CA Tracking library. ">
<polygon fill="none" stroke="#000000" points="1735,-95 1735,-147 1896,-147 1896,-95 1735,-95"/>
<text text-anchor="start" x="1743" y="-135" font-family="Helvetica,sans-Serif" font-size="10.00" fill="#000000">/home/travis/build</text>
<text text-anchor="start" x="1743" y="-124" font-family="Helvetica,sans-Serif" font-size="10.00" fill="#000000">/AliceO2Group/AliceO2</text>
<text text-anchor="start" x="1743" y="-113" font-family="Helvetica,sans-Serif" font-size="10.00" fill="#000000">/Detectors/TPC/reconstruction</text>
<text text-anchor="middle" x="1815.5" y="-102" font-family="Helvetica,sans-Serif" font-size="10.00" fill="#000000">/test/testGPUCATracking.cxx</text>
</a>
</g>
</g>
<!-- Node49&#45;&gt;Node68 -->
<g id="edge25" class="edge">
<title>Node49&#45;&gt;Node68</title>
<path fill="none" stroke="#191970" d="M1316.2399,-314.7661C1461.3619,-304.0382 1732.9542,-280.5617 1767.5,-253 1784.3694,-239.5411 1800.8576,-181.5917 1809.4275,-147.1078"/>
<polygon fill="#191970" stroke="#191970" points="1315.7317,-311.2939 1306.0147,-315.5164 1316.244,-318.2751 1315.7317,-311.2939"/>
</g>
<!-- Node70 -->
<g id="node22" class="node">
<title>Node70</title>
<g id="a_node22"><a xlink:href="../../d5/daf/TPC_2workflow_2include_2TPCWorkflow_2TrackReaderSpec_8h.html" target="_top" xlink:title="/home/travis/build\l/AliceO2Group/AliceO2\l/Detectors/TPC/workflow\l/include/TPCWorkflow/TrackReader\lSpec.h">
<polygon fill="none" stroke="#000000" points="685.5,-189.5 685.5,-252.5 869.5,-252.5 869.5,-189.5 685.5,-189.5"/>
<text text-anchor="start" x="693.5" y="-240.5" font-family="Helvetica,sans-Serif" font-size="10.00" fill="#000000">/home/travis/build</text>
<text text-anchor="start" x="693.5" y="-229.5" font-family="Helvetica,sans-Serif" font-size="10.00" fill="#000000">/AliceO2Group/AliceO2</text>
<text text-anchor="start" x="693.5" y="-218.5" font-family="Helvetica,sans-Serif" font-size="10.00" fill="#000000">/Detectors/TPC/workflow</text>
<text text-anchor="start" x="693.5" y="-207.5" font-family="Helvetica,sans-Serif" font-size="10.00" fill="#000000">/include/TPCWorkflow/TrackReader</text>
<text text-anchor="middle" x="777.5" y="-196.5" font-family="Helvetica,sans-Serif" font-size="10.00" fill="#000000">Spec.h</text>
</a>
</g>
</g>
<!-- Node49&#45;&gt;Node70 -->
<g id="edge26" class="edge">
<title>Node49&#45;&gt;Node70</title>
<path fill="none" stroke="#191970" d="M1134.848,-305.4499C1065.6091,-292.9765 968.0303,-274.1101 883.5,-253 878.9307,-251.8589 874.2651,-250.6431 869.5635,-249.3774"/>
<polygon fill="#191970" stroke="#191970" points="1134.3923,-308.9239 1144.853,-307.2434 1135.6275,-302.0338 1134.3923,-308.9239"/>
</g>
<!-- Node72 -->
<g id="node24" class="node">
<title>Node72</title>
<g id="a_node24"><a xlink:href="../../d0/d80/TPC_2workflow_2src_2RecoWorkflow_8cxx.html" target="_top" xlink:title="/home/travis/build\l/AliceO2Group/AliceO2\l/Detectors/TPC/workflow\l/src/RecoWorkflow.cxx">
<polygon fill="none" stroke="#000000" points="1814.5,-195 1814.5,-247 1950.5,-247 1950.5,-195 1814.5,-195"/>
<text text-anchor="start" x="1822.5" y="-235" font-family="Helvetica,sans-Serif" font-size="10.00" fill="#000000">/home/travis/build</text>
<text text-anchor="start" x="1822.5" y="-224" font-family="Helvetica,sans-Serif" font-size="10.00" fill="#000000">/AliceO2Group/AliceO2</text>
<text text-anchor="start" x="1822.5" y="-213" font-family="Helvetica,sans-Serif" font-size="10.00" fill="#000000">/Detectors/TPC/workflow</text>
<text text-anchor="middle" x="1882.5" y="-202" font-family="Helvetica,sans-Serif" font-size="10.00" fill="#000000">/src/RecoWorkflow.cxx</text>
</a>
</g>
</g>
<!-- Node49&#45;&gt;Node72 -->
<g id="edge29" class="edge">
<title>Node49&#45;&gt;Node72</title>
<path fill="none" stroke="#191970" d="M1316.3033,-317.3867C1430.7228,-311.2166 1632.705,-294.9331 1800.5,-253 1807.0233,-251.3698 1813.7266,-249.3546 1820.3553,-247.135"/>
<polygon fill="#191970" stroke="#191970" points="1315.9886,-313.8983 1306.186,-317.9181 1316.3559,-320.8887 1315.9886,-313.8983"/>
</g>
<!-- Node73 -->
<g id="node25" class="node">
<title>Node73</title>
<g id="a_node25"><a xlink:href="../../d5/df5/DataInterpreterTPC_8cxx.html" target="_top" xlink:title="converting TPC data to Event Visualisation primitives ">
<polygon fill="none" stroke="#000000" points="1969,-195 1969,-247 2130,-247 2130,-195 1969,-195"/>
<text text-anchor="start" x="1977" y="-235" font-family="Helvetica,sans-Serif" font-size="10.00" fill="#000000">/home/travis/build</text>
<text text-anchor="start" x="1977" y="-224" font-family="Helvetica,sans-Serif" font-size="10.00" fill="#000000">/AliceO2Group/AliceO2</text>
<text text-anchor="start" x="1977" y="-213" font-family="Helvetica,sans-Serif" font-size="10.00" fill="#000000">/EventVisualisation/Detectors</text>
<text text-anchor="middle" x="2049.5" y="-202" font-family="Helvetica,sans-Serif" font-size="10.00" fill="#000000">/src/DataInterpreterTPC.cxx</text>
</a>
</g>
</g>
<!-- Node49&#45;&gt;Node73 -->
<g id="edge30" class="edge">
<title>Node49&#45;&gt;Node73</title>
<path fill="none" stroke="#191970" d="M1316.2023,-315.4302C1484.5538,-304.6231 1839.1702,-279.529 1959.5,-253 1966.7875,-251.3933 1974.2938,-249.3628 1981.717,-247.1069"/>
<polygon fill="#191970" stroke="#191970" points="1315.8779,-311.9437 1306.1216,-316.0746 1316.3245,-318.9295 1315.8779,-311.9437"/>
</g>
<!-- Node74 -->
<g id="node26" class="node">
<title>Node74</title>
<g id="a_node26"><a xlink:href="../../df/d85/DataReaderTPC_8cxx.html" target="_top" xlink:title="TPC Detector&#45;specific reading from file(s) ">
<polygon fill="none" stroke="#000000" points="2148,-195 2148,-247 2309,-247 2309,-195 2148,-195"/>
<text text-anchor="start" x="2156" y="-235" font-family="Helvetica,sans-Serif" font-size="10.00" fill="#000000">/home/travis/build</text>
<text text-anchor="start" x="2156" y="-224" font-family="Helvetica,sans-Serif" font-size="10.00" fill="#000000">/AliceO2Group/AliceO2</text>
<text text-anchor="start" x="2156" y="-213" font-family="Helvetica,sans-Serif" font-size="10.00" fill="#000000">/EventVisualisation/Detectors</text>
<text text-anchor="middle" x="2228.5" y="-202" font-family="Helvetica,sans-Serif" font-size="10.00" fill="#000000">/src/DataReaderTPC.cxx</text>
</a>
</g>
</g>
<!-- Node49&#45;&gt;Node74 -->
<g id="edge31" class="edge">
<title>Node49&#45;&gt;Node74</title>
<path fill="none" stroke="#191970" d="M1316.2653,-317.3732C1515.1773,-308.9167 1984.1365,-286.0674 2139.5,-253 2146.8876,-251.4276 2154.4939,-249.3871 2162.0018,-247.0975"/>
<polygon fill="#191970" stroke="#191970" points="1315.9811,-313.882 1306.1379,-317.8012 1316.2768,-320.8757 1315.9811,-313.882"/>
</g>
<!-- Node52 -->
<g id="node4" class="node">
<title>Node52</title>
<g id="a_node4"><a xlink:href="../../db/d6a/MatchTOF_8cxx.html" target="_top" xlink:title="/home/travis/build\l/AliceO2Group/AliceO2\l/Detectors/GlobalTracking\l/src/MatchTOF.cxx">
<polygon fill="none" stroke="#000000" points="227.5,-.5 227.5,-52.5 369.5,-52.5 369.5,-.5 227.5,-.5"/>
<text text-anchor="start" x="235.5" y="-40.5" font-family="Helvetica,sans-Serif" font-size="10.00" fill="#000000">/home/travis/build</text>
<text text-anchor="start" x="235.5" y="-29.5" font-family="Helvetica,sans-Serif" font-size="10.00" fill="#000000">/AliceO2Group/AliceO2</text>
<text text-anchor="start" x="235.5" y="-18.5" font-family="Helvetica,sans-Serif" font-size="10.00" fill="#000000">/Detectors/GlobalTracking</text>
<text text-anchor="middle" x="298.5" y="-7.5" font-family="Helvetica,sans-Serif" font-size="10.00" fill="#000000">/src/MatchTOF.cxx</text>
</a>
</g>
</g>
<!-- Node51&#45;&gt;Node52 -->
<g id="edge3" class="edge">
<title>Node51&#45;&gt;Node52</title>
<path fill="none" stroke="#191970" d="M218.3271,-88.6011C233.3982,-76.9272 250.2074,-63.907 264.5263,-52.8157"/>
<polygon fill="#191970" stroke="#191970" points="215.9224,-86.0366 210.16,-94.9273 220.209,-91.5706 215.9224,-86.0366"/>
</g>
<!-- Node53 -->
<g id="node5" class="node">
<title>Node53</title>
<g id="a_node5"><a xlink:href="../../d8/d84/RecoWorkflowSpec_8cxx.html" target="_top" xlink:title="/home/travis/build\l/AliceO2Group/AliceO2\l/Detectors/GlobalTrackingWorkflow\l/tofworkflow/src/RecoWorkflowSpec.cxx">
<polygon fill="none" stroke="#000000" points="0,-.5 0,-52.5 209,-52.5 209,-.5 0,-.5"/>
<text text-anchor="start" x="8" y="-40.5" font-family="Helvetica,sans-Serif" font-size="10.00" fill="#000000">/home/travis/build</text>
<text text-anchor="start" x="8" y="-29.5" font-family="Helvetica,sans-Serif" font-size="10.00" fill="#000000">/AliceO2Group/AliceO2</text>
<text text-anchor="start" x="8" y="-18.5" font-family="Helvetica,sans-Serif" font-size="10.00" fill="#000000">/Detectors/GlobalTrackingWorkflow</text>
<text text-anchor="middle" x="104.5" y="-7.5" font-family="Helvetica,sans-Serif" font-size="10.00" fill="#000000">/tofworkflow/src/RecoWorkflowSpec.cxx</text>
</a>
</g>
</g>
<!-- Node51&#45;&gt;Node53 -->
<g id="edge4" class="edge">
<title>Node51&#45;&gt;Node53</title>
<path fill="none" stroke="#191970" d="M150.5735,-86.9714C142.0054,-75.7258 132.6093,-63.3935 124.55,-52.8157"/>
<polygon fill="#191970" stroke="#191970" points="147.7906,-89.0941 156.6351,-94.9273 153.3586,-84.8518 147.7906,-89.0941"/>
</g>
<!-- Node54&#45;&gt;Node51 -->
<g id="edge6" class="edge">
<title>Node54&#45;&gt;Node51</title>
<path fill="none" stroke="#191970" d="M391.8013,-191.8228C348.7446,-177.6594 297.4373,-160.782 255.7104,-147.0561"/>
<polygon fill="#191970" stroke="#191970" points="390.8282,-195.1871 401.4212,-194.9872 393.0156,-188.5377 390.8282,-195.1871"/>
</g>
<!-- Node54&#45;&gt;Node52 -->
<g id="edge7" class="edge">
<title>Node54&#45;&gt;Node52</title>
<path fill="none" stroke="#191970" d="M388.1143,-191.3782C356.9215,-179.5657 327.4539,-165.764 317.5,-153 295.1026,-124.2794 293.6042,-80.4414 295.42,-52.6422"/>
<polygon fill="#191970" stroke="#191970" points="387.2374,-194.7858 397.8305,-194.977 389.6688,-188.2215 387.2374,-194.7858"/>
</g>
<!-- Node55 -->
<g id="node7" class="node">
<title>Node55</title>
<g id="a_node7"><a xlink:href="../../dc/d59/MatchTPCITS_8cxx.html" target="_top" xlink:title="/home/travis/build\l/AliceO2Group/AliceO2\l/Detectors/GlobalTracking\l/src/MatchTPCITS.cxx">
<polygon fill="none" stroke="#000000" points="326.5,-95 326.5,-147 468.5,-147 468.5,-95 326.5,-95"/>
<text text-anchor="start" x="334.5" y="-135" font-family="Helvetica,sans-Serif" font-size="10.00" fill="#000000">/home/travis/build</text>
<text text-anchor="start" x="334.5" y="-124" font-family="Helvetica,sans-Serif" font-size="10.00" fill="#000000">/AliceO2Group/AliceO2</text>
<text text-anchor="start" x="334.5" y="-113" font-family="Helvetica,sans-Serif" font-size="10.00" fill="#000000">/Detectors/GlobalTracking</text>
<text text-anchor="middle" x="397.5" y="-102" font-family="Helvetica,sans-Serif" font-size="10.00" fill="#000000">/src/MatchTPCITS.cxx</text>
</a>
</g>
</g>
<!-- Node54&#45;&gt;Node55 -->
<g id="edge8" class="edge">
<title>Node54&#45;&gt;Node55</title>
<path fill="none" stroke="#191970" d="M452.3824,-187.1234C441.5692,-174.0954 429.3985,-159.4319 419.2708,-147.2299"/>
<polygon fill="#191970" stroke="#191970" points="449.8295,-189.5277 458.9094,-194.9872 455.2159,-185.057 449.8295,-189.5277"/>
</g>
<!-- Node56 -->
<g id="node8" class="node">
<title>Node56</title>
<g id="a_node8"><a xlink:href="../../da/d20/TPCITSMatchingSpec_8h.html" target="_top" xlink:title="/home/travis/build\l/AliceO2Group/AliceO2\l/Detectors/GlobalTrackingWorkflow\l/include/GlobalTrackingWorkflow\l/TPCITSMatchingSpec.h">
<polygon fill="none" stroke="#000000" points="487,-89.5 487,-152.5 674,-152.5 674,-89.5 487,-89.5"/>
<text text-anchor="start" x="495" y="-140.5" font-family="Helvetica,sans-Serif" font-size="10.00" fill="#000000">/home/travis/build</text>
<text text-anchor="start" x="495" y="-129.5" font-family="Helvetica,sans-Serif" font-size="10.00" fill="#000000">/AliceO2Group/AliceO2</text>
<text text-anchor="start" x="495" y="-118.5" font-family="Helvetica,sans-Serif" font-size="10.00" fill="#000000">/Detectors/GlobalTrackingWorkflow</text>
<text text-anchor="start" x="495" y="-107.5" font-family="Helvetica,sans-Serif" font-size="10.00" fill="#000000">/include/GlobalTrackingWorkflow</text>
<text text-anchor="middle" x="580.5" y="-96.5" font-family="Helvetica,sans-Serif" font-size="10.00" fill="#000000">/TPCITSMatchingSpec.h</text>
</a>
</g>
</g>
<!-- Node54&#45;&gt;Node56 -->
<g id="edge9" class="edge">
<title>Node54&#45;&gt;Node56</title>
<path fill="none" stroke="#191970" d="M513.745,-187.755C525.0786,-176.4214 537.711,-163.789 548.9109,-152.5891"/>
<polygon fill="#191970" stroke="#191970" points="511.109,-185.4412 506.5128,-194.9872 516.0588,-190.391 511.109,-185.4412"/>
</g>
<!-- Node57 -->
<g id="node9" class="node">
<title>Node57</title>
<g id="a_node9"><a xlink:href="../../d5/db4/MatchTPCITSWorkflow_8cxx.html" target="_top" xlink:title="/home/travis/build\l/AliceO2Group/AliceO2\l/Detectors/GlobalTrackingWorkflow\l/src/MatchTPCITSWorkflow.cxx">
<polygon fill="none" stroke="#000000" points="493,-.5 493,-52.5 680,-52.5 680,-.5 493,-.5"/>
<text text-anchor="start" x="501" y="-40.5" font-family="Helvetica,sans-Serif" font-size="10.00" fill="#000000">/home/travis/build</text>
<text text-anchor="start" x="501" y="-29.5" font-family="Helvetica,sans-Serif" font-size="10.00" fill="#000000">/AliceO2Group/AliceO2</text>
<text text-anchor="start" x="501" y="-18.5" font-family="Helvetica,sans-Serif" font-size="10.00" fill="#000000">/Detectors/GlobalTrackingWorkflow</text>
<text text-anchor="middle" x="586.5" y="-7.5" font-family="Helvetica,sans-Serif" font-size="10.00" fill="#000000">/src/MatchTPCITSWorkflow.cxx</text>
</a>
</g>
</g>
<!-- Node56&#45;&gt;Node57 -->
<g id="edge10" class="edge">
<title>Node56&#45;&gt;Node57</title>
<path fill="none" stroke="#191970" d="M583.1511,-79.2457C583.7253,-70.2008 584.3169,-60.8836 584.8401,-52.6442"/>
<polygon fill="#191970" stroke="#191970" points="579.6554,-79.0683 582.5146,-89.27 586.6413,-79.5119 579.6554,-79.0683"/>
</g>
<!-- Node56&#45;&gt;Node58 -->
<g id="edge11" class="edge">
<title>Node56&#45;&gt;Node58</title>
<path fill="none" stroke="#191970" d="M662.5185,-85.2823C687.4846,-74.4099 714.443,-62.67 737.6546,-52.5617"/>
<polygon fill="#191970" stroke="#191970" points="660.8305,-82.1998 653.0596,-89.4015 663.6254,-88.6177 660.8305,-82.1998"/>
</g>
<!-- Node60 -->
<g id="node12" class="node">
<title>Node60</title>
<g id="a_node12"><a xlink:href="../../da/ddb/TrackResiduals_8h.html" target="_top" xlink:title="Definition of the TrackResiduals class. ">
<polygon fill="none" stroke="#000000" points="926,-89.5 926,-152.5 1105,-152.5 1105,-89.5 926,-89.5"/>
<text text-anchor="start" x="934" y="-140.5" font-family="Helvetica,sans-Serif" font-size="10.00" fill="#000000">/home/travis/build</text>
<text text-anchor="start" x="934" y="-129.5" font-family="Helvetica,sans-Serif" font-size="10.00" fill="#000000">/AliceO2Group/AliceO2</text>
<text text-anchor="start" x="934" y="-118.5" font-family="Helvetica,sans-Serif" font-size="10.00" fill="#000000">/Detectors/TPC/calibration</text>
<text text-anchor="start" x="934" y="-107.5" font-family="Helvetica,sans-Serif" font-size="10.00" fill="#000000">/SpacePoints/include/SpacePoints</text>
<text text-anchor="middle" x="1015.5" y="-96.5" font-family="Helvetica,sans-Serif" font-size="10.00" fill="#000000">/TrackResiduals.h</text>
</a>
</g>
</g>
<!-- Node59&#45;&gt;Node60 -->
<g id="edge14" class="edge">
<title>Node59&#45;&gt;Node60</title>
<path fill="none" stroke="#191970" d="M1015.5,-179.2111C1015.5,-170.37 1015.5,-161.1767 1015.5,-152.778"/>
<polygon fill="#191970" stroke="#191970" points="1012.0001,-179.3593 1015.5,-189.3594 1019.0001,-179.3594 1012.0001,-179.3593"/>
</g>
<!-- Node59&#45;&gt;Node62 -->
<g id="edge16" class="edge">
<title>Node59&#45;&gt;Node62</title>
<path fill="none" stroke="#191970" d="M1091.2067,-185.12C1117.6702,-172.5781 1146.858,-158.745 1171.3282,-147.1478"/>
<polygon fill="#191970" stroke="#191970" points="1089.5097,-182.0511 1081.9721,-189.4966 1092.5076,-188.3767 1089.5097,-182.0511"/>
</g>
<!-- Node61 -->
<g id="node13" class="node">
<title>Node61</title>
<g id="a_node13"><a xlink:href="../../d9/df0/TrackResiduals_8cxx.html" target="_top" xlink:title="Implementation of the TrackResiduals class. ">
<polygon fill="none" stroke="#000000" points="920,-.5 920,-52.5 1111,-52.5 1111,-.5 920,-.5"/>
<text text-anchor="start" x="928" y="-40.5" font-family="Helvetica,sans-Serif" font-size="10.00" fill="#000000">/home/travis/build</text>
<text text-anchor="start" x="928" y="-29.5" font-family="Helvetica,sans-Serif" font-size="10.00" fill="#000000">/AliceO2Group/AliceO2</text>
<text text-anchor="start" x="928" y="-18.5" font-family="Helvetica,sans-Serif" font-size="10.00" fill="#000000">/Detectors/TPC/calibration</text>
<text text-anchor="middle" x="1015.5" y="-7.5" font-family="Helvetica,sans-Serif" font-size="10.00" fill="#000000">/SpacePoints/src/TrackResiduals.cxx</text>
</a>
</g>
</g>
<!-- Node60&#45;&gt;Node61 -->
<g id="edge15" class="edge">
<title>Node60&#45;&gt;Node61</title>
<path fill="none" stroke="#191970" d="M1015.5,-79.2457C1015.5,-70.2008 1015.5,-60.8836 1015.5,-52.6442"/>
<polygon fill="#191970" stroke="#191970" points="1012.0001,-79.2699 1015.5,-89.27 1019.0001,-79.27 1012.0001,-79.2699"/>
</g>
<!-- Node67 -->
<g id="node19" class="node">
<title>Node67</title>
<g id="a_node19"><a xlink:href="../../d4/d2e/GPUCATracking_8cxx.html" target="_top" xlink:title="/home/travis/build\l/AliceO2Group/AliceO2\l/Detectors/TPC/reconstruction\l/src/GPUCATracking.cxx">
<polygon fill="none" stroke="#000000" points="1401,-95 1401,-147 1562,-147 1562,-95 1401,-95"/>
<text text-anchor="start" x="1409" y="-135" font-family="Helvetica,sans-Serif" font-size="10.00" fill="#000000">/home/travis/build</text>
<text text-anchor="start" x="1409" y="-124" font-family="Helvetica,sans-Serif" font-size="10.00" fill="#000000">/AliceO2Group/AliceO2</text>
<text text-anchor="start" x="1409" y="-113" font-family="Helvetica,sans-Serif" font-size="10.00" fill="#000000">/Detectors/TPC/reconstruction</text>
<text text-anchor="middle" x="1481.5" y="-102" font-family="Helvetica,sans-Serif" font-size="10.00" fill="#000000">/src/GPUCATracking.cxx</text>
</a>
</g>
</g>
<!-- Node66&#45;&gt;Node67 -->
<g id="edge22" class="edge">
<title>Node66&#45;&gt;Node67</title>
<path fill="none" stroke="#191970" d="M1606.5306,-184.7911C1582.1198,-172.3367 1555.2817,-158.6437 1532.7497,-147.1478"/>
<polygon fill="#191970" stroke="#191970" points="1605.2551,-188.0695 1615.7534,-189.4966 1608.4364,-181.8342 1605.2551,-188.0695"/>
</g>
<!-- Node66&#45;&gt;Node68 -->
<g id="edge23" class="edge">
<title>Node66&#45;&gt;Node68</title>
<path fill="none" stroke="#191970" d="M1729.7034,-183.1715C1746.3164,-171.133 1764.3126,-158.0923 1779.5124,-147.078"/>
<polygon fill="#191970" stroke="#191970" points="1727.2079,-180.6575 1721.1641,-189.3594 1731.3153,-186.3257 1727.2079,-180.6575"/>
</g>
<!-- Node69 -->
<g id="node21" class="node">
<title>Node69</title>
<g id="a_node21"><a xlink:href="../../da/d78/CATrackerSpec_8cxx.html" target="_top" xlink:title="Processor spec for running TPC CA tracking. ">
<polygon fill="none" stroke="#000000" points="1580.5,-95 1580.5,-147 1716.5,-147 1716.5,-95 1580.5,-95"/>
<text text-anchor="start" x="1588.5" y="-135" font-family="Helvetica,sans-Serif" font-size="10.00" fill="#000000">/home/travis/build</text>
<text text-anchor="start" x="1588.5" y="-124" font-family="Helvetica,sans-Serif" font-size="10.00" fill="#000000">/AliceO2Group/AliceO2</text>
<text text-anchor="start" x="1588.5" y="-113" font-family="Helvetica,sans-Serif" font-size="10.00" fill="#000000">/Detectors/TPC/workflow</text>
<text text-anchor="middle" x="1648.5" y="-102" font-family="Helvetica,sans-Serif" font-size="10.00" fill="#000000">/src/CATrackerSpec.cxx</text>
</a>
</g>
</g>
<!-- Node66&#45;&gt;Node69 -->
<g id="edge24" class="edge">
<title>Node66&#45;&gt;Node69</title>
<path fill="none" stroke="#191970" d="M1665.4648,-179.4993C1662.2813,-168.5216 1658.9344,-156.9808 1656.0626,-147.078"/>
<polygon fill="#191970" stroke="#191970" points="1662.1774,-180.7299 1668.3242,-189.3594 1668.9004,-178.7802 1662.1774,-180.7299"/>
</g>
<!-- Node70&#45;&gt;Node57 -->
<g id="edge27" class="edge">
<title>Node70&#45;&gt;Node57</title>
<path fill="none" stroke="#191970" d="M742.57,-181.5127C735.004,-172.3711 727.253,-162.5252 720.5,-153 701.3675,-126.0135 705.4035,-112.8694 682.5,-89 669.1438,-75.0805 652.1264,-62.7363 636.1398,-52.7719"/>
<polygon fill="#191970" stroke="#191970" points="740.0308,-183.9315 749.1416,-189.3393 745.3916,-179.4302 740.0308,-183.9315"/>
</g>
<!-- Node71 -->
<g id="node23" class="node">
<title>Node71</title>
<g id="a_node23"><a xlink:href="../../d4/d3e/TPC_2workflow_2src_2TrackReaderSpec_8cxx.html" target="_top" xlink:title="/home/travis/build\l/AliceO2Group/AliceO2\l/Detectors/TPC/workflow\l/src/TrackReaderSpec.cxx">
<polygon fill="none" stroke="#000000" points="729.5,-95 729.5,-147 869.5,-147 869.5,-95 729.5,-95"/>
<text text-anchor="start" x="737.5" y="-135" font-family="Helvetica,sans-Serif" font-size="10.00" fill="#000000">/home/travis/build</text>
<text text-anchor="start" x="737.5" y="-124" font-family="Helvetica,sans-Serif" font-size="10.00" fill="#000000">/AliceO2Group/AliceO2</text>
<text text-anchor="start" x="737.5" y="-113" font-family="Helvetica,sans-Serif" font-size="10.00" fill="#000000">/Detectors/TPC/workflow</text>
<text text-anchor="middle" x="799.5" y="-102" font-family="Helvetica,sans-Serif" font-size="10.00" fill="#000000">/src/TrackReaderSpec.cxx</text>
</a>
</g>
</g>
<!-- Node70&#45;&gt;Node71 -->
<g id="edge28" class="edge">
<title>Node70&#45;&gt;Node71</title>
<path fill="none" stroke="#191970" d="M786.6302,-179.4993C789.0452,-168.5216 791.5842,-156.9808 793.7628,-147.078"/>
<polygon fill="#191970" stroke="#191970" points="783.1914,-178.8409 784.4609,-189.3594 790.0279,-180.345 783.1914,-178.8409"/>
</g>
</g>
</svg>
