<?xml version="1.0" encoding="UTF-8" standalone="no"?>
<!DOCTYPE svg PUBLIC "-//W3C//DTD SVG 1.1//EN"
 "http://www.w3.org/Graphics/SVG/1.1/DTD/svg11.dtd">
<!-- Generated by graphviz version 2.40.1 (20161225.0304)
 -->
<!-- Title: /home/travis/build/AliceO2Group/AliceO2/Detectors/EMCAL/reconstruction/include/EMCALReconstruction/CaloFitResults.h Pages: 1 -->
<svg width="610pt" height="361pt"
 viewBox="0.00 0.00 610.00 361.00" xmlns="http://www.w3.org/2000/svg" xmlns:xlink="http://www.w3.org/1999/xlink">
<g id="graph0" class="graph" transform="scale(1 1) rotate(0) translate(4 357)">
<title>/home/travis/build/AliceO2Group/AliceO2/Detectors/EMCAL/reconstruction/include/EMCALReconstruction/CaloFitResults.h</title>
<!-- Node6 -->
<g id="node1" class="node">
<title>Node6</title>
<polygon fill="#bfbfbf" stroke="#000000" points="262,-289.5 262,-352.5 438,-352.5 438,-289.5 262,-289.5"/>
<text text-anchor="start" x="270" y="-340.5" font-family="Helvetica,sans-Serif" font-size="10.00" fill="#000000">/home/travis/build</text>
<text text-anchor="start" x="270" y="-329.5" font-family="Helvetica,sans-Serif" font-size="10.00" fill="#000000">/AliceO2Group/AliceO2</text>
<text text-anchor="start" x="270" y="-318.5" font-family="Helvetica,sans-Serif" font-size="10.00" fill="#000000">/Detectors/EMCAL/reconstruction</text>
<text text-anchor="start" x="270" y="-307.5" font-family="Helvetica,sans-Serif" font-size="10.00" fill="#000000">/include/EMCALReconstruction</text>
<text text-anchor="middle" x="350" y="-296.5" font-family="Helvetica,sans-Serif" font-size="10.00" fill="#000000">/CaloFitResults.h</text>
</g>
<!-- Node7 -->
<g id="node2" class="node">
<title>Node7</title>
<g id="a_node2"><a xlink:href="../../d4/d18/CaloRawFitter_8h.html" target="_top" xlink:title="/home/travis/build\l/AliceO2Group/AliceO2\l/Detectors/EMCAL/reconstruction\l/include/EMCALReconstruction\l/CaloRawFitter.h">
<polygon fill="none" stroke="#000000" points="146,-189.5 146,-252.5 322,-252.5 322,-189.5 146,-189.5"/>
<text text-anchor="start" x="154" y="-240.5" font-family="Helvetica,sans-Serif" font-size="10.00" fill="#000000">/home/travis/build</text>
<text text-anchor="start" x="154" y="-229.5" font-family="Helvetica,sans-Serif" font-size="10.00" fill="#000000">/AliceO2Group/AliceO2</text>
<text text-anchor="start" x="154" y="-218.5" font-family="Helvetica,sans-Serif" font-size="10.00" fill="#000000">/Detectors/EMCAL/reconstruction</text>
<text text-anchor="start" x="154" y="-207.5" font-family="Helvetica,sans-Serif" font-size="10.00" fill="#000000">/include/EMCALReconstruction</text>
<text text-anchor="middle" x="234" y="-196.5" font-family="Helvetica,sans-Serif" font-size="10.00" fill="#000000">/CaloRawFitter.h</text>
</a>
</g>
</g>
<!-- Node6&#45;&gt;Node7 -->
<g id="edge1" class="edge">
<title>Node6&#45;&gt;Node7</title>
<path fill="none" stroke="#191970" d="M305.5142,-282.6502C294.0668,-272.7817 281.8757,-262.2722 270.8625,-252.778"/>
<polygon fill="#191970" stroke="#191970" points="303.4375,-285.4809 313.2969,-289.3594 308.0081,-280.179 303.4375,-285.4809"/>
</g>
<!-- Node8 -->
<g id="node3" class="node">
<title>Node8</title>
<g id="a_node3"><a xlink:href="../../dd/d8f/CaloRawFitterStandard_8h.html" target="_top" xlink:title="/home/travis/build\l/AliceO2Group/AliceO2\l/Detectors/EMCAL/reconstruction\l/include/EMCALReconstruction\l/CaloRawFitterStandard.h">
<polygon fill="none" stroke="#000000" points="0,-89.5 0,-152.5 176,-152.5 176,-89.5 0,-89.5"/>
<text text-anchor="start" x="8" y="-140.5" font-family="Helvetica,sans-Serif" font-size="10.00" fill="#000000">/home/travis/build</text>
<text text-anchor="start" x="8" y="-129.5" font-family="Helvetica,sans-Serif" font-size="10.00" fill="#000000">/AliceO2Group/AliceO2</text>
<text text-anchor="start" x="8" y="-118.5" font-family="Helvetica,sans-Serif" font-size="10.00" fill="#000000">/Detectors/EMCAL/reconstruction</text>
<text text-anchor="start" x="8" y="-107.5" font-family="Helvetica,sans-Serif" font-size="10.00" fill="#000000">/include/EMCALReconstruction</text>
<text text-anchor="middle" x="88" y="-96.5" font-family="Helvetica,sans-Serif" font-size="10.00" fill="#000000">/CaloRawFitterStandard.h</text>
</a>
</g>
</g>
<!-- Node6&#45;&gt;Node8 -->
<g id="edge5" class="edge">
<title>Node6&#45;&gt;Node8</title>
<path fill="none" stroke="#191970" d="M252.0799,-298.5784C204.7033,-286.0191 154.37,-269.5817 137,-253 109.1516,-226.4153 97.0226,-182.5785 91.8118,-152.7804"/>
<polygon fill="#191970" stroke="#191970" points="251.2583,-301.9811 261.8179,-301.1177 253.0246,-295.2076 251.2583,-301.9811"/>
</g>
<!-- Node9 -->
<g id="node4" class="node">
<title>Node9</title>
<g id="a_node4"><a xlink:href="../../d5/dcd/CaloRawFitterStandard_8cxx.html" target="_top" xlink:title="/home/travis/build\l/AliceO2Group/AliceO2\l/Detectors/EMCAL/reconstruction\l/src/CaloRawFitterStandard.cxx">
<polygon fill="none" stroke="#000000" points="155,-.5 155,-52.5 331,-52.5 331,-.5 155,-.5"/>
<text text-anchor="start" x="163" y="-40.5" font-family="Helvetica,sans-Serif" font-size="10.00" fill="#000000">/home/travis/build</text>
<text text-anchor="start" x="163" y="-29.5" font-family="Helvetica,sans-Serif" font-size="10.00" fill="#000000">/AliceO2Group/AliceO2</text>
<text text-anchor="start" x="163" y="-18.5" font-family="Helvetica,sans-Serif" font-size="10.00" fill="#000000">/Detectors/EMCAL/reconstruction</text>
<text text-anchor="middle" x="243" y="-7.5" font-family="Helvetica,sans-Serif" font-size="10.00" fill="#000000">/src/CaloRawFitterStandard.cxx</text>
</a>
</g>
</g>
<!-- Node6&#45;&gt;Node9 -->
<g id="edge8" class="edge">
<title>Node6&#45;&gt;Node9</title>
<path fill="none" stroke="#191970" d="M370.1689,-279.8496C391.1849,-230.4928 416.2722,-147.1484 379,-89 367.7118,-71.3893 350.075,-58.674 331.1986,-49.5168"/>
<polygon fill="#191970" stroke="#191970" points="366.8568,-278.6869 366.0396,-289.2502 373.2658,-281.5021 366.8568,-278.6869"/>
</g>
<!-- Node10 -->
<g id="node5" class="node">
<title>Node10</title>
<g id="a_node5"><a xlink:href="../../d0/dd0/CaloRawFitter_8cxx.html" target="_top" xlink:title="/home/travis/build\l/AliceO2Group/AliceO2\l/Detectors/EMCAL/reconstruction\l/src/CaloRawFitter.cxx">
<polygon fill="none" stroke="#000000" points="194,-95 194,-147 370,-147 370,-95 194,-95"/>
<text text-anchor="start" x="202" y="-135" font-family="Helvetica,sans-Serif" font-size="10.00" fill="#000000">/home/travis/build</text>
<text text-anchor="start" x="202" y="-124" font-family="Helvetica,sans-Serif" font-size="10.00" fill="#000000">/AliceO2Group/AliceO2</text>
<text text-anchor="start" x="202" y="-113" font-family="Helvetica,sans-Serif" font-size="10.00" fill="#000000">/Detectors/EMCAL/reconstruction</text>
<text text-anchor="middle" x="282" y="-102" font-family="Helvetica,sans-Serif" font-size="10.00" fill="#000000">/src/CaloRawFitter.cxx</text>
</a>
</g>
</g>
<!-- Node6&#45;&gt;Node10 -->
<g id="edge7" class="edge">
<title>Node6&#45;&gt;Node10</title>
<path fill="none" stroke="#191970" d="M349.0701,-279.087C347.2575,-252.4548 342.5918,-217.7146 331,-189 324.9537,-174.0225 314.9385,-159.249 305.5329,-147.3185"/>
<polygon fill="#191970" stroke="#191970" points="345.5849,-279.4474 349.6506,-289.2311 352.5735,-279.0474 345.5849,-279.4474"/>
</g>
<!-- Node11 -->
<g id="node6" class="node">
<title>Node11</title>
<g id="a_node6"><a xlink:href="../../d2/dc3/CaloFitResults_8cxx.html" target="_top" xlink:title="/home/travis/build\l/AliceO2Group/AliceO2\l/Detectors/EMCAL/reconstruction\l/src/CaloFitResults.cxx">
<polygon fill="none" stroke="#000000" points="426,-195 426,-247 602,-247 602,-195 426,-195"/>
<text text-anchor="start" x="434" y="-235" font-family="Helvetica,sans-Serif" font-size="10.00" fill="#000000">/home/travis/build</text>
<text text-anchor="start" x="434" y="-224" font-family="Helvetica,sans-Serif" font-size="10.00" fill="#000000">/AliceO2Group/AliceO2</text>
<text text-anchor="start" x="434" y="-213" font-family="Helvetica,sans-Serif" font-size="10.00" fill="#000000">/Detectors/EMCAL/reconstruction</text>
<text text-anchor="middle" x="514" y="-202" font-family="Helvetica,sans-Serif" font-size="10.00" fill="#000000">/src/CaloFitResults.cxx</text>
</a>
</g>
</g>
<!-- Node6&#45;&gt;Node11 -->
<g id="edge6" class="edge">
<title>Node6&#45;&gt;Node11</title>
<path fill="none" stroke="#191970" d="M410.683,-283.9982C430.799,-271.7323 452.7543,-258.345 471.2321,-247.078"/>
<polygon fill="#191970" stroke="#191970" points="408.6065,-281.165 401.8906,-289.3594 412.2507,-287.1415 408.6065,-281.165"/>
</g>
<!-- Node7&#45;&gt;Node8 -->
<g id="edge2" class="edge">
<title>Node7&#45;&gt;Node8</title>
<path fill="none" stroke="#191970" d="M179.2111,-183.4733C164.3708,-173.3087 148.4578,-162.4095 134.1452,-152.6063"/>
<polygon fill="#191970" stroke="#191970" points="177.5765,-186.5961 187.8047,-189.3594 181.5322,-180.8208 177.5765,-186.5961"/>
</g>
<!-- Node7&#45;&gt;Node10 -->
<g id="edge4" class="edge">
<title>Node7&#45;&gt;Node10</title>
<path fill="none" stroke="#191970" d="M253.5981,-180.1707C258.9632,-168.9933 264.6322,-157.1829 269.4826,-147.078"/>
<polygon fill="#191970" stroke="#191970" points="250.3595,-178.8296 249.1875,-189.3594 256.6702,-181.8587 250.3595,-178.8296"/>
</g>
<!-- Node8&#45;&gt;Node9 -->
<g id="edge3" class="edge">
<title>Node8&#45;&gt;Node9</title>
<path fill="none" stroke="#191970" d="M148.8798,-83.883C166.0107,-73.4387 184.2785,-62.3012 200.1181,-52.6442"/>
<polygon fill="#191970" stroke="#191970" points="146.7603,-81.076 140.0439,-89.27 150.4042,-87.0527 146.7603,-81.076"/>
</g>
</g>
</svg>
