<?xml version="1.0" encoding="UTF-8" standalone="no"?>
<!DOCTYPE svg PUBLIC "-//W3C//DTD SVG 1.1//EN"
 "http://www.w3.org/Graphics/SVG/1.1/DTD/svg11.dtd">
<!-- Generated by graphviz version 2.40.1 (20161225.0304)
 -->
<!-- Title: GPUCA_NAMESPACE::gpu::GPUTPCCFClusterizer::GPUSharedMemory Pages: 1 -->
<svg width="418pt" height="375pt"
 viewBox="0.00 0.00 418.00 375.00" xmlns="http://www.w3.org/2000/svg" xmlns:xlink="http://www.w3.org/1999/xlink">
<g id="graph0" class="graph" transform="scale(1 1) rotate(0) translate(4 371)">
<title>GPUCA_NAMESPACE::gpu::GPUTPCCFClusterizer::GPUSharedMemory</title>
<!-- Node1 -->
<g id="node1" class="node">
<title>Node1</title>
<polygon fill="#bfbfbf" stroke="#000000" points="158,-.5 158,-79.5 298,-79.5 298,-.5 158,-.5"/>
<text text-anchor="start" x="166" y="-67.5" font-family="Helvetica,sans-Serif" font-size="10.00" fill="#000000">GPUCA_NAMESPACE::gpu</text>
<text text-anchor="start" x="166" y="-56.5" font-family="Helvetica,sans-Serif" font-size="10.00" fill="#000000">::GPUTPCCFClusterizer</text>
<text text-anchor="middle" x="228" y="-45.5" font-family="Helvetica,sans-Serif" font-size="10.00" fill="#000000">::GPUSharedMemory</text>
<polyline fill="none" stroke="#000000" points="158,-38.5 298,-38.5 "/>
<text text-anchor="middle" x="228" y="-26.5" font-family="Helvetica,sans-Serif" font-size="10.00" fill="#000000"> </text>
<polyline fill="none" stroke="#000000" points="158,-19.5 298,-19.5 "/>
<text text-anchor="middle" x="228" y="-7.5" font-family="Helvetica,sans-Serif" font-size="10.00" fill="#000000"> </text>
</g>
<!-- Node2 -->
<g id="node2" class="node">
<title>Node2</title>
<g id="a_node2"><a xlink:href="../../da/dca/classGPUCA__NAMESPACE_1_1gpu_1_1PackedCharge.html" target="_top" xlink:title="{GPUCA_NAMESPACE::gpu\l::PackedCharge\n|+ mVal\l|+ GPUdDefault()\l+ GPUdi()\l+ GPUdi()\l+ GPUdi()\l+ GPUdi()\l+ GPUdi()\l}">
<polygon fill="none" stroke="#000000" points="0,-127.5 0,-250.5 140,-250.5 140,-127.5 0,-127.5"/>
<text text-anchor="start" x="8" y="-238.5" font-family="Helvetica,sans-Serif" font-size="10.00" fill="#000000">GPUCA_NAMESPACE::gpu</text>
<text text-anchor="middle" x="70" y="-227.5" font-family="Helvetica,sans-Serif" font-size="10.00" fill="#000000">::PackedCharge</text>
<polyline fill="none" stroke="#000000" points="0,-220.5 140,-220.5 "/>
<text text-anchor="start" x="8" y="-208.5" font-family="Helvetica,sans-Serif" font-size="10.00" fill="#000000">+ mVal</text>
<polyline fill="none" stroke="#000000" points="0,-201.5 140,-201.5 "/>
<text text-anchor="start" x="8" y="-189.5" font-family="Helvetica,sans-Serif" font-size="10.00" fill="#000000">+ GPUdDefault()</text>
<text text-anchor="start" x="8" y="-178.5" font-family="Helvetica,sans-Serif" font-size="10.00" fill="#000000">+ GPUdi()</text>
<text text-anchor="start" x="8" y="-167.5" font-family="Helvetica,sans-Serif" font-size="10.00" fill="#000000">+ GPUdi()</text>
<text text-anchor="start" x="8" y="-156.5" font-family="Helvetica,sans-Serif" font-size="10.00" fill="#000000">+ GPUdi()</text>
<text text-anchor="start" x="8" y="-145.5" font-family="Helvetica,sans-Serif" font-size="10.00" fill="#000000">+ GPUdi()</text>
<text text-anchor="start" x="8" y="-134.5" font-family="Helvetica,sans-Serif" font-size="10.00" fill="#000000">+ GPUdi()</text>
</a>
</g>
</g>
<!-- Node2&#45;&gt;Node1 -->
<g id="edge1" class="edge">
<title>Node2&#45;&gt;Node1</title>
<path fill="none" stroke="#404040" d="M135.6336,-127.105C149.4113,-114.1122 163.7476,-100.5925 176.9001,-88.1891"/>
<polygon fill="none" stroke="#404040" points="177.0648,-88.0338 178.6856,-81.0072 185.7951,-79.8008 184.1743,-86.8274 177.0648,-88.0338"/>
<text text-anchor="middle" x="178" y="-101" font-family="Helvetica,sans-Serif" font-size="10.00" fill="#000000"> +buf</text>
</g>
<!-- Node3 -->
<g id="node3" class="node">
<title>Node3</title>
<polygon fill="none" stroke="#bfbfbf" points="51,-309.5 51,-366.5 89,-366.5 89,-309.5 51,-309.5"/>
<text text-anchor="middle" x="70" y="-354.5" font-family="Helvetica,sans-Serif" font-size="10.00" fill="#000000">bool</text>
<polyline fill="none" stroke="#bfbfbf" points="51,-347.5 89,-347.5 "/>
<text text-anchor="middle" x="70" y="-335.5" font-family="Helvetica,sans-Serif" font-size="10.00" fill="#000000"> </text>
<polyline fill="none" stroke="#bfbfbf" points="51,-328.5 89,-328.5 "/>
<text text-anchor="middle" x="70" y="-316.5" font-family="Helvetica,sans-Serif" font-size="10.00" fill="#000000"> </text>
</g>
<!-- Node3&#45;&gt;Node2 -->
<g id="edge2" class="edge">
<title>Node3&#45;&gt;Node2</title>
<path fill="none" stroke="#404040" d="M70,-309.2713C70,-295.8656 70,-279.2317 70,-262.6537"/>
<polygon fill="none" stroke="#404040" points="70.0001,-262.6392 66,-256.6392 70,-250.6392 74,-256.6391 70.0001,-262.6392"/>
<text text-anchor="middle" x="97" y="-283" font-family="Helvetica,sans-Serif" font-size="10.00" fill="#000000"> +peak3x3</text>
<text text-anchor="middle" x="97" y="-272" font-family="Helvetica,sans-Serif" font-size="10.00" fill="#000000">+wasSplit</text>
</g>
<!-- Node4 -->
<g id="node4" class="node">
<title>Node4</title>
<g id="a_node4"><a xlink:href="../../dd/d68/structGPUCA__NAMESPACE_1_1gpu_1_1ChargePos.html" target="_top" xlink:title="{GPUCA_NAMESPACE::gpu\l::ChargePos\n||+ GPUdDefault()\l+ GPUdi()\l+ GPUdi()\l+ time()\l+ GPUdi()\l}">
<polygon fill="none" stroke="#000000" points="158,-133 158,-245 298,-245 298,-133 158,-133"/>
<text text-anchor="start" x="166" y="-233" font-family="Helvetica,sans-Serif" font-size="10.00" fill="#000000">GPUCA_NAMESPACE::gpu</text>
<text text-anchor="middle" x="228" y="-222" font-family="Helvetica,sans-Serif" font-size="10.00" fill="#000000">::ChargePos</text>
<polyline fill="none" stroke="#000000" points="158,-215 298,-215 "/>
<text text-anchor="middle" x="228" y="-203" font-family="Helvetica,sans-Serif" font-size="10.00" fill="#000000"> </text>
<polyline fill="none" stroke="#000000" points="158,-196 298,-196 "/>
<text text-anchor="start" x="166" y="-184" font-family="Helvetica,sans-Serif" font-size="10.00" fill="#000000">+ GPUdDefault()</text>
<text text-anchor="start" x="166" y="-173" font-family="Helvetica,sans-Serif" font-size="10.00" fill="#000000">+ GPUdi()</text>
<text text-anchor="start" x="166" y="-162" font-family="Helvetica,sans-Serif" font-size="10.00" fill="#000000">+ GPUdi()</text>
<text text-anchor="start" x="166" y="-151" font-family="Helvetica,sans-Serif" font-size="10.00" fill="#000000">+ time()</text>
<text text-anchor="start" x="166" y="-140" font-family="Helvetica,sans-Serif" font-size="10.00" fill="#000000">+ GPUdi()</text>
</a>
</g>
</g>
<!-- Node4&#45;&gt;Node1 -->
<g id="edge3" class="edge">
<title>Node4&#45;&gt;Node1</title>
<path fill="none" stroke="#404040" d="M228,-132.6695C228,-119.3048 228,-105.1093 228,-91.9502"/>
<polygon fill="none" stroke="#404040" points="228.0001,-91.7121 224,-85.7122 228,-79.7121 232,-85.7121 228.0001,-91.7121"/>
<text text-anchor="middle" x="256" y="-101" font-family="Helvetica,sans-Serif" font-size="10.00" fill="#000000"> +posBcast</text>
</g>
<!-- Node5 -->
<g id="node5" class="node">
<title>Node5</title>
<g id="a_node5"><a xlink:href="../../dc/d10/classshort.html" target="_top" xlink:title="{short\n||}">
<polygon fill="none" stroke="#000000" points="177.5,-309.5 177.5,-366.5 218.5,-366.5 218.5,-309.5 177.5,-309.5"/>
<text text-anchor="middle" x="198" y="-354.5" font-family="Helvetica,sans-Serif" font-size="10.00" fill="#000000">short</text>
<polyline fill="none" stroke="#000000" points="177.5,-347.5 218.5,-347.5 "/>
<text text-anchor="middle" x="198" y="-335.5" font-family="Helvetica,sans-Serif" font-size="10.00" fill="#000000"> </text>
<polyline fill="none" stroke="#000000" points="177.5,-328.5 218.5,-328.5 "/>
<text text-anchor="middle" x="198" y="-316.5" font-family="Helvetica,sans-Serif" font-size="10.00" fill="#000000"> </text>
</a>
</g>
</g>
<!-- Node5&#45;&gt;Node4 -->
<g id="edge4" class="edge">
<title>Node5&#45;&gt;Node4</title>
<path fill="none" stroke="#404040" d="M196.8704,-309.2569C196.8843,-296.7903 197.5815,-282.0808 200,-269 200.7223,-265.0932 201.6038,-261.1205 202.6027,-257.1394"/>
<polygon fill="none" stroke="#404040" points="202.6995,-256.7906 200.4508,-249.9391 205.9104,-245.2281 208.1591,-252.0797 202.6995,-256.7906"/>
<text text-anchor="middle" x="218" y="-283" font-family="Helvetica,sans-Serif" font-size="10.00" fill="#000000"> +gpad</text>
<text text-anchor="middle" x="218" y="-272" font-family="Helvetica,sans-Serif" font-size="10.00" fill="#000000">+time</text>
</g>
<!-- Node6 -->
<g id="node6" class="node">
<title>Node6</title>
<polygon fill="none" stroke="#bfbfbf" points="236.5,-309.5 236.5,-366.5 279.5,-366.5 279.5,-309.5 236.5,-309.5"/>
<text text-anchor="middle" x="258" y="-354.5" font-family="Helvetica,sans-Serif" font-size="10.00" fill="#000000">const</text>
<polyline fill="none" stroke="#bfbfbf" points="236.5,-347.5 279.5,-347.5 "/>
<text text-anchor="middle" x="258" y="-335.5" font-family="Helvetica,sans-Serif" font-size="10.00" fill="#000000"> </text>
<polyline fill="none" stroke="#bfbfbf" points="236.5,-328.5 279.5,-328.5 "/>
<text text-anchor="middle" x="258" y="-316.5" font-family="Helvetica,sans-Serif" font-size="10.00" fill="#000000"> </text>
</g>
<!-- Node6&#45;&gt;Node4 -->
<g id="edge5" class="edge">
<title>Node6&#45;&gt;Node4</title>
<path fill="none" stroke="#404040" d="M252.2157,-309.2713C249.2128,-294.3567 245.4053,-275.4461 241.7038,-257.0623"/>
<polygon fill="none" stroke="#404040" points="241.6649,-256.8689 236.5593,-251.7764 239.2963,-245.1049 244.4019,-250.1973 241.6649,-256.8689"/>
<text text-anchor="middle" x="256" y="-277.5" font-family="Helvetica,sans-Serif" font-size="10.00" fill="#000000"> +t</text>
</g>
<!-- Node7 -->
<g id="node7" class="node">
<title>Node7</title>
<polygon fill="none" stroke="#bfbfbf" points="316.5,-160.5 316.5,-217.5 377.5,-217.5 377.5,-160.5 316.5,-160.5"/>
<text text-anchor="middle" x="347" y="-205.5" font-family="Helvetica,sans-Serif" font-size="10.00" fill="#000000">unsigned</text>
<polyline fill="none" stroke="#bfbfbf" points="316.5,-198.5 377.5,-198.5 "/>
<text text-anchor="middle" x="347" y="-186.5" font-family="Helvetica,sans-Serif" font-size="10.00" fill="#000000"> </text>
<polyline fill="none" stroke="#bfbfbf" points="316.5,-179.5 377.5,-179.5 "/>
<text text-anchor="middle" x="347" y="-167.5" font-family="Helvetica,sans-Serif" font-size="10.00" fill="#000000"> </text>
</g>
<!-- Node7&#45;&gt;Node1 -->
<g id="edge6" class="edge">
<title>Node7&#45;&gt;Node1</title>
<path fill="none" stroke="#404040" d="M328.5215,-160.2659C321.7658,-149.7854 314.0521,-137.8468 307,-127 298.601,-114.0815 297.8222,-109.8725 288,-98 285.3809,-94.8343 282.6058,-91.6581 279.7414,-88.5128"/>
<polygon fill="none" stroke="#404040" points="279.7226,-88.4928 272.6956,-86.8735 271.4877,-79.7642 278.5147,-81.3836 279.7226,-88.4928"/>
<text text-anchor="middle" x="352.5" y="-101" font-family="Helvetica,sans-Serif" font-size="10.00" fill="#000000"> +innerAboveThreshold</text>
</g>
</g>
</svg>
