<?xml version="1.0" encoding="UTF-8" standalone="no"?>
<!DOCTYPE svg PUBLIC "-//W3C//DTD SVG 1.1//EN"
 "http://www.w3.org/Graphics/SVG/1.1/DTD/svg11.dtd">
<!-- Generated by graphviz version 2.40.1 (20161225.0304)
 -->
<!-- Title: /home/travis/build/AliceO2Group/AliceO2/DataFormats/simulation/include/SimulationDataFormat/RunContext.h Pages: 1 -->
<svg width="711pt" height="195pt"
 viewBox="0.00 0.00 710.50 195.00" xmlns="http://www.w3.org/2000/svg" xmlns:xlink="http://www.w3.org/1999/xlink">
<g id="graph0" class="graph" transform="scale(1 1) rotate(0) translate(4 191)">
<title>/home/travis/build/AliceO2Group/AliceO2/DataFormats/simulation/include/SimulationDataFormat/RunContext.h</title>
<!-- Node0 -->
<g id="node1" class="node">
<title>Node0</title>
<polygon fill="#bfbfbf" stroke="#000000" points="90.5,-123.5 90.5,-186.5 258.5,-186.5 258.5,-123.5 90.5,-123.5"/>
<text text-anchor="start" x="98.5" y="-174.5" font-family="Helvetica,sans-Serif" font-size="10.00" fill="#000000">/home/travis/build</text>
<text text-anchor="start" x="98.5" y="-163.5" font-family="Helvetica,sans-Serif" font-size="10.00" fill="#000000">/AliceO2Group/AliceO2</text>
<text text-anchor="start" x="98.5" y="-152.5" font-family="Helvetica,sans-Serif" font-size="10.00" fill="#000000">/DataFormats/simulation</text>
<text text-anchor="start" x="98.5" y="-141.5" font-family="Helvetica,sans-Serif" font-size="10.00" fill="#000000">/include/SimulationDataFormat</text>
<text text-anchor="middle" x="174.5" y="-130.5" font-family="Helvetica,sans-Serif" font-size="10.00" fill="#000000">/RunContext.h</text>
</g>
<!-- Node1 -->
<g id="node2" class="node">
<title>Node1</title>
<polygon fill="none" stroke="#bfbfbf" points="0,-62 0,-81 47,-81 47,-62 0,-62"/>
<text text-anchor="middle" x="23.5" y="-69" font-family="Helvetica,sans-Serif" font-size="10.00" fill="#000000">vector</text>
</g>
<!-- Node0&#45;&gt;Node1 -->
<g id="edge1" class="edge">
<title>Node0&#45;&gt;Node1</title>
<path fill="none" stroke="#191970" d="M117.4134,-123.4322C94.122,-110.5526 68.3407,-96.296 49.6923,-85.9838"/>
<polygon fill="#191970" stroke="#191970" points="51.3425,-82.8969 40.8976,-81.1205 47.955,-89.0227 51.3425,-82.8969"/>
</g>
<!-- Node2 -->
<g id="node3" class="node">
<title>Node2</title>
<polygon fill="none" stroke="#bfbfbf" points="65,-62 65,-81 124,-81 124,-62 65,-62"/>
<text text-anchor="middle" x="94.5" y="-69" font-family="Helvetica,sans-Serif" font-size="10.00" fill="#000000">TChain.h</text>
</g>
<!-- Node0&#45;&gt;Node2 -->
<g id="edge2" class="edge">
<title>Node0&#45;&gt;Node2</title>
<path fill="none" stroke="#191970" d="M144.2554,-123.4322C132.9433,-111.6252 120.5227,-98.6612 110.921,-88.6394"/>
<polygon fill="#191970" stroke="#191970" points="113.3454,-86.1107 103.9,-81.3112 108.2908,-90.9534 113.3454,-86.1107"/>
</g>
<!-- Node3 -->
<g id="node4" class="node">
<title>Node3</title>
<polygon fill="none" stroke="#bfbfbf" points="142,-62 142,-81 207,-81 207,-62 142,-62"/>
<text text-anchor="middle" x="174.5" y="-69" font-family="Helvetica,sans-Serif" font-size="10.00" fill="#000000">TBranch.h</text>
</g>
<!-- Node0&#45;&gt;Node3 -->
<g id="edge3" class="edge">
<title>Node0&#45;&gt;Node3</title>
<path fill="none" stroke="#191970" d="M174.5,-123.4322C174.5,-112.6773 174.5,-100.9624 174.5,-91.3857"/>
<polygon fill="#191970" stroke="#191970" points="178.0001,-91.3112 174.5,-81.3112 171.0001,-91.3112 178.0001,-91.3112"/>
</g>
<!-- Node4 -->
<g id="node5" class="node">
<title>Node4</title>
<g id="a_node5"><a xlink:href="../../d9/d80/InteractionRecord_8h.html" target="_top" xlink:title="CommonDataFormat/Interaction\lRecord.h">
<polygon fill="none" stroke="#000000" points="225.5,-56.5 225.5,-86.5 399.5,-86.5 399.5,-56.5 225.5,-56.5"/>
<text text-anchor="start" x="233.5" y="-74.5" font-family="Helvetica,sans-Serif" font-size="10.00" fill="#000000">CommonDataFormat/Interaction</text>
<text text-anchor="middle" x="312.5" y="-63.5" font-family="Helvetica,sans-Serif" font-size="10.00" fill="#000000">Record.h</text>
</a>
</g>
</g>
<!-- Node0&#45;&gt;Node4 -->
<g id="edge4" class="edge">
<title>Node0&#45;&gt;Node4</title>
<path fill="none" stroke="#191970" d="M226.6719,-123.4322C244.1542,-112.8541 263.1715,-101.3473 278.8517,-91.8597"/>
<polygon fill="#191970" stroke="#191970" points="280.9177,-94.7005 287.6615,-86.5291 277.2939,-88.7115 280.9177,-94.7005"/>
</g>
<!-- Node10 -->
<g id="node11" class="node">
<title>Node10</title>
<g id="a_node11"><a xlink:href="../../d4/d5f/BunchFilling_8h.html" target="_top" xlink:title="CommonDataFormat/BunchFilling.h">
<polygon fill="none" stroke="#000000" points="471,-62 471,-81 660,-81 660,-62 471,-62"/>
<text text-anchor="middle" x="565.5" y="-69" font-family="Helvetica,sans-Serif" font-size="10.00" fill="#000000">CommonDataFormat/BunchFilling.h</text>
</a>
</g>
</g>
<!-- Node0&#45;&gt;Node10 -->
<g id="edge10" class="edge">
<title>Node0&#45;&gt;Node10</title>
<path fill="none" stroke="#191970" d="M258.8598,-136.9845C335.149,-120.6926 445.2491,-97.1802 510.6724,-83.2087"/>
<polygon fill="#191970" stroke="#191970" points="511.7283,-86.5622 520.7768,-81.0509 510.2664,-79.7166 511.7283,-86.5622"/>
</g>
<!-- Node5 -->
<g id="node6" class="node">
<title>Node5</title>
<polygon fill="none" stroke="#bfbfbf" points="111,-.5 111,-19.5 170,-19.5 170,-.5 111,-.5"/>
<text text-anchor="middle" x="140.5" y="-7.5" font-family="Helvetica,sans-Serif" font-size="10.00" fill="#000000">Rtypes.h</text>
</g>
<!-- Node4&#45;&gt;Node5 -->
<g id="edge5" class="edge">
<title>Node4&#45;&gt;Node5</title>
<path fill="none" stroke="#191970" d="M270.4241,-56.4554C241.7254,-46.194 204.1063,-32.7429 176.7377,-22.9571"/>
<polygon fill="#191970" stroke="#191970" points="177.7485,-19.6015 167.1539,-19.5303 175.3917,-26.1929 177.7485,-19.6015"/>
</g>
<!-- Node6 -->
<g id="node7" class="node">
<title>Node6</title>
<polygon fill="none" stroke="#bfbfbf" points="188,-.5 188,-19.5 237,-19.5 237,-.5 188,-.5"/>
<text text-anchor="middle" x="212.5" y="-7.5" font-family="Helvetica,sans-Serif" font-size="10.00" fill="#000000">iosfwd</text>
</g>
<!-- Node4&#45;&gt;Node6 -->
<g id="edge6" class="edge">
<title>Node4&#45;&gt;Node6</title>
<path fill="none" stroke="#191970" d="M288.0372,-56.4554C272.3765,-46.8241 252.1468,-34.3828 236.5644,-24.7996"/>
<polygon fill="#191970" stroke="#191970" points="238.348,-21.7876 227.9965,-19.5303 234.681,-27.7503 238.348,-21.7876"/>
</g>
<!-- Node7 -->
<g id="node8" class="node">
<title>Node7</title>
<polygon fill="none" stroke="#bfbfbf" points="255,-.5 255,-19.5 302,-19.5 302,-.5 255,-.5"/>
<text text-anchor="middle" x="278.5" y="-7.5" font-family="Helvetica,sans-Serif" font-size="10.00" fill="#000000">cmath</text>
</g>
<!-- Node4&#45;&gt;Node7 -->
<g id="edge7" class="edge">
<title>Node4&#45;&gt;Node7</title>
<path fill="none" stroke="#191970" d="M304.0955,-56.2977C299.4743,-47.9388 293.7031,-37.4997 288.8111,-28.6509"/>
<polygon fill="#191970" stroke="#191970" points="291.8452,-26.9051 283.9438,-19.8469 285.7191,-30.292 291.8452,-26.9051"/>
</g>
<!-- Node8 -->
<g id="node9" class="node">
<title>Node8</title>
<polygon fill="none" stroke="#bfbfbf" points="320.5,-.5 320.5,-19.5 370.5,-19.5 370.5,-.5 320.5,-.5"/>
<text text-anchor="middle" x="345.5" y="-7.5" font-family="Helvetica,sans-Serif" font-size="10.00" fill="#000000">cstdint</text>
</g>
<!-- Node4&#45;&gt;Node8 -->
<g id="edge8" class="edge">
<title>Node4&#45;&gt;Node8</title>
<path fill="none" stroke="#191970" d="M320.6573,-56.2977C325.0949,-48.0277 330.625,-37.7215 335.3404,-28.9339"/>
<polygon fill="#191970" stroke="#191970" points="338.5721,-30.3134 340.2163,-19.8469 332.404,-27.0037 338.5721,-30.3134"/>
</g>
<!-- Node9 -->
<g id="node10" class="node">
<title>Node9</title>
<g id="a_node10"><a xlink:href="../../d4/dc6/LHCConstants_8h.html" target="_top" xlink:title="Header to collect LHC related constants. ">
<polygon fill="none" stroke="#000000" points="388.5,-.5 388.5,-19.5 578.5,-19.5 578.5,-.5 388.5,-.5"/>
<text text-anchor="middle" x="483.5" y="-7.5" font-family="Helvetica,sans-Serif" font-size="10.00" fill="#000000">CommonConstants/LHCConstants.h</text>
</a>
</g>
</g>
<!-- Node4&#45;&gt;Node9 -->
<g id="edge9" class="edge">
<title>Node4&#45;&gt;Node9</title>
<path fill="none" stroke="#191970" d="M354.3313,-56.4554C382.8631,-46.194 420.2635,-32.7429 447.4729,-22.9571"/>
<polygon fill="#191970" stroke="#191970" points="448.7757,-26.2081 457.0011,-19.5303 446.4066,-19.6212 448.7757,-26.2081"/>
</g>
<!-- Node10&#45;&gt;Node9 -->
<g id="edge11" class="edge">
<title>Node10&#45;&gt;Node9</title>
<path fill="none" stroke="#191970" d="M552.6875,-61.8906C539.8099,-52.2324 519.7416,-37.1812 504.528,-25.771"/>
<polygon fill="#191970" stroke="#191970" points="506.3226,-22.7419 496.2225,-19.5419 502.1225,-28.3419 506.3226,-22.7419"/>
</g>
<!-- Node11 -->
<g id="node12" class="node">
<title>Node11</title>
<polygon fill="none" stroke="#bfbfbf" points="596.5,-.5 596.5,-19.5 640.5,-19.5 640.5,-.5 596.5,-.5"/>
<text text-anchor="middle" x="618.5" y="-7.5" font-family="Helvetica,sans-Serif" font-size="10.00" fill="#000000">bitset</text>
</g>
<!-- Node10&#45;&gt;Node11 -->
<g id="edge12" class="edge">
<title>Node10&#45;&gt;Node11</title>
<path fill="none" stroke="#191970" d="M573.7813,-61.8906C581.6693,-52.7376 593.7314,-38.7409 603.3412,-27.59"/>
<polygon fill="#191970" stroke="#191970" points="606.2251,-29.6049 610.102,-19.7449 600.9225,-25.0352 606.2251,-29.6049"/>
</g>
<!-- Node12 -->
<g id="node13" class="node">
<title>Node12</title>
<polygon fill="none" stroke="#bfbfbf" points="658.5,-.5 658.5,-19.5 702.5,-19.5 702.5,-.5 658.5,-.5"/>
<text text-anchor="middle" x="680.5" y="-7.5" font-family="Helvetica,sans-Serif" font-size="10.00" fill="#000000">string</text>
</g>
<!-- Node10&#45;&gt;Node12 -->
<g id="edge13" class="edge">
<title>Node10&#45;&gt;Node12</title>
<path fill="none" stroke="#191970" d="M583.4688,-61.8906C602.2884,-51.8262 632.0585,-35.9057 653.6641,-24.3514"/>
<polygon fill="#191970" stroke="#191970" points="655.4898,-27.3442 662.6574,-19.5419 652.1886,-21.1714 655.4898,-27.3442"/>
</g>
</g>
</svg>
