<?xml version="1.0" encoding="UTF-8" standalone="no"?>
<!DOCTYPE svg PUBLIC "-//W3C//DTD SVG 1.1//EN"
 "http://www.w3.org/Graphics/SVG/1.1/DTD/svg11.dtd">
<!-- Generated by graphviz version 2.40.1 (20161225.0304)
 -->
<!-- Title: /home/travis/build/AliceO2Group/AliceO2/Detectors/MUON/MID/Raw/include/MIDRaw/Encoder.h Pages: 1 -->
<svg width="1387pt" height="296pt"
 viewBox="0.00 0.00 1387.00 296.00" xmlns="http://www.w3.org/2000/svg" xmlns:xlink="http://www.w3.org/1999/xlink">
<g id="graph0" class="graph" transform="scale(1 1) rotate(0) translate(4 292)">
<title>/home/travis/build/AliceO2Group/AliceO2/Detectors/MUON/MID/Raw/include/MIDRaw/Encoder.h</title>
<!-- Node0 -->
<g id="node1" class="node">
<title>Node0</title>
<polygon fill="#bfbfbf" stroke="#000000" points="752.5,-235.5 752.5,-287.5 900.5,-287.5 900.5,-235.5 752.5,-235.5"/>
<text text-anchor="start" x="760.5" y="-275.5" font-family="Helvetica,sans-Serif" font-size="10.00" fill="#000000">/home/travis/build</text>
<text text-anchor="start" x="760.5" y="-264.5" font-family="Helvetica,sans-Serif" font-size="10.00" fill="#000000">/AliceO2Group/AliceO2</text>
<text text-anchor="start" x="760.5" y="-253.5" font-family="Helvetica,sans-Serif" font-size="10.00" fill="#000000">/Detectors/MUON/MID/Raw</text>
<text text-anchor="middle" x="826.5" y="-242.5" font-family="Helvetica,sans-Serif" font-size="10.00" fill="#000000">/include/MIDRaw/Encoder.h</text>
</g>
<!-- Node1 -->
<g id="node2" class="node">
<title>Node1</title>
<polygon fill="none" stroke="#bfbfbf" points="709.5,-.5 709.5,-19.5 759.5,-19.5 759.5,-.5 709.5,-.5"/>
<text text-anchor="middle" x="734.5" y="-7.5" font-family="Helvetica,sans-Serif" font-size="10.00" fill="#000000">cstdint</text>
</g>
<!-- Node0&#45;&gt;Node1 -->
<g id="edge1" class="edge">
<title>Node0&#45;&gt;Node1</title>
<path fill="none" stroke="#191970" d="M900.6995,-258.3125C988.8654,-252.7866 1128.1397,-237.9774 1160.5,-199 1166.178,-192.1609 1162.2211,-187.7207 1160.5,-179 1145.8914,-104.9795 1113.4674,-84.2312 1043.5,-56 994.3433,-36.1657 840.1085,-19.8023 769.9158,-13.1727"/>
<polygon fill="#191970" stroke="#191970" points="770.0775,-9.6727 759.7958,-12.2295 769.4279,-16.6425 770.0775,-9.6727"/>
</g>
<!-- Node2 -->
<g id="node3" class="node">
<title>Node2</title>
<polygon fill="none" stroke="#bfbfbf" points="841.5,-123.5 841.5,-142.5 889.5,-142.5 889.5,-123.5 841.5,-123.5"/>
<text text-anchor="middle" x="865.5" y="-130.5" font-family="Helvetica,sans-Serif" font-size="10.00" fill="#000000">gsl/gsl</text>
</g>
<!-- Node0&#45;&gt;Node2 -->
<g id="edge2" class="edge">
<title>Node0&#45;&gt;Node2</title>
<path fill="none" stroke="#191970" d="M834.3922,-235.4961C841.8903,-210.791 852.9884,-174.2242 859.7032,-152.0998"/>
<polygon fill="#191970" stroke="#191970" points="863.0573,-153.0997 862.6124,-142.5142 856.359,-151.0667 863.0573,-153.0997"/>
</g>
<!-- Node3 -->
<g id="node4" class="node">
<title>Node3</title>
<polygon fill="none" stroke="#bfbfbf" points="1075.5,-123.5 1075.5,-142.5 1113.5,-142.5 1113.5,-123.5 1075.5,-123.5"/>
<text text-anchor="middle" x="1094.5" y="-130.5" font-family="Helvetica,sans-Serif" font-size="10.00" fill="#000000">map</text>
</g>
<!-- Node0&#45;&gt;Node3 -->
<g id="edge3" class="edge">
<title>Node0&#45;&gt;Node3</title>
<path fill="none" stroke="#191970" d="M880.7338,-235.4961C936.7589,-208.6333 1022.0328,-167.7464 1066.0295,-146.6509"/>
<polygon fill="#191970" stroke="#191970" points="1067.7693,-149.6983 1075.2732,-142.2188 1064.7429,-143.3864 1067.7693,-149.6983"/>
</g>
<!-- Node4 -->
<g id="node5" class="node">
<title>Node4</title>
<g id="a_node5"><a xlink:href="../../d9/d80/InteractionRecord_8h.html" target="_top" xlink:title="CommonDataFormat/Interaction\lRecord.h">
<polygon fill="none" stroke="#000000" points="57.5,-56.5 57.5,-86.5 231.5,-86.5 231.5,-56.5 57.5,-56.5"/>
<text text-anchor="start" x="65.5" y="-74.5" font-family="Helvetica,sans-Serif" font-size="10.00" fill="#000000">CommonDataFormat/Interaction</text>
<text text-anchor="middle" x="144.5" y="-63.5" font-family="Helvetica,sans-Serif" font-size="10.00" fill="#000000">Record.h</text>
</a>
</g>
</g>
<!-- Node0&#45;&gt;Node4 -->
<g id="edge4" class="edge">
<title>Node0&#45;&gt;Node4</title>
<path fill="none" stroke="#191970" d="M752.1826,-255.4038C570.0063,-239.699 112.8575,-195.3956 69.5,-143 53.8717,-124.1139 76.1307,-105.0754 100.371,-91.3977"/>
<polygon fill="#191970" stroke="#191970" points="102.1558,-94.4124 109.3248,-86.6113 98.8558,-88.2391 102.1558,-94.4124"/>
</g>
<!-- Node9 -->
<g id="node10" class="node">
<title>Node9</title>
<g id="a_node10"><a xlink:href="../../d1/dec/HBFUtils_8h.html" target="_top" xlink:title="DetectorsRaw/HBFUtils.h">
<polygon fill="none" stroke="#000000" points="260,-123.5 260,-142.5 399,-142.5 399,-123.5 260,-123.5"/>
<text text-anchor="middle" x="329.5" y="-130.5" font-family="Helvetica,sans-Serif" font-size="10.00" fill="#000000">DetectorsRaw/HBFUtils.h</text>
</a>
</g>
</g>
<!-- Node0&#45;&gt;Node9 -->
<g id="edge10" class="edge">
<title>Node0&#45;&gt;Node9</title>
<path fill="none" stroke="#191970" d="M752.3122,-248.6649C691.0275,-237.4495 601.9949,-219.7405 525.5,-199 468.2397,-183.4747 403.2424,-160.4952 364.3506,-146.1519"/>
<polygon fill="#191970" stroke="#191970" points="365.1668,-142.7217 354.5738,-142.5251 362.7321,-149.2847 365.1668,-142.7217"/>
</g>
<!-- Node12 -->
<g id="node13" class="node">
<title>Node12</title>
<g id="a_node13"><a xlink:href="../../d3/d53/ColumnData_8h.html" target="_top" xlink:title="Strip pattern (aka digits) ">
<polygon fill="none" stroke="#000000" points="1208,-123.5 1208,-142.5 1379,-142.5 1379,-123.5 1208,-123.5"/>
<text text-anchor="middle" x="1293.5" y="-130.5" font-family="Helvetica,sans-Serif" font-size="10.00" fill="#000000">DataFormatsMID/ColumnData.h</text>
</a>
</g>
</g>
<!-- Node0&#45;&gt;Node12 -->
<g id="edge17" class="edge">
<title>Node0&#45;&gt;Node12</title>
<path fill="none" stroke="#191970" d="M900.6231,-257.8543C976.5082,-252.0816 1096.712,-237.2132 1193.5,-199 1224.2045,-186.8774 1255.2694,-164.422 1274.4487,-149.1029"/>
<polygon fill="#191970" stroke="#191970" points="1276.8463,-151.6639 1282.3805,-142.6294 1272.4202,-146.2408 1276.8463,-151.6639"/>
</g>
<!-- Node15 -->
<g id="node16" class="node">
<title>Node15</title>
<g id="a_node16"><a xlink:href="../../d2/df9/MUON_2MID_2include_2DataFormatsMID_2ROFRecord_8h.html" target="_top" xlink:title="Definition of the MID event record. ">
<polygon fill="none" stroke="#000000" points="79,-123.5 79,-142.5 242,-142.5 242,-123.5 79,-123.5"/>
<text text-anchor="middle" x="160.5" y="-130.5" font-family="Helvetica,sans-Serif" font-size="10.00" fill="#000000">DataFormatsMID/ROFRecord.h</text>
</a>
</g>
</g>
<!-- Node0&#45;&gt;Node15 -->
<g id="edge21" class="edge">
<title>Node0&#45;&gt;Node15</title>
<path fill="none" stroke="#191970" d="M752.2327,-250.1195C677.378,-238.3755 558.6314,-218.9982 456.5,-199 369.3136,-181.9282 268.4628,-158.6874 209.8397,-144.827"/>
<polygon fill="#191970" stroke="#191970" points="210.6379,-141.4193 200.1003,-142.5186 209.0235,-148.2306 210.6379,-141.4193"/>
</g>
<!-- Node16 -->
<g id="node17" class="node">
<title>Node16</title>
<g id="a_node17"><a xlink:href="../../db/d83/CrateMapper_8h.html" target="_top" xlink:title="Mapper to convert the RO Ids to a format suitable for O2. ">
<polygon fill="none" stroke="#000000" points="1021.5,-179.5 1021.5,-198.5 1151.5,-198.5 1151.5,-179.5 1021.5,-179.5"/>
<text text-anchor="middle" x="1086.5" y="-186.5" font-family="Helvetica,sans-Serif" font-size="10.00" fill="#000000">MIDRaw/CrateMapper.h</text>
</a>
</g>
</g>
<!-- Node0&#45;&gt;Node16 -->
<g id="edge23" class="edge">
<title>Node0&#45;&gt;Node16</title>
<path fill="none" stroke="#191970" d="M900.6576,-240.8214C946.4016,-228.0659 1003.5349,-212.1345 1042.2908,-201.3276"/>
<polygon fill="#191970" stroke="#191970" points="1043.5268,-204.6165 1052.2192,-198.5591 1041.6465,-197.8738 1043.5268,-204.6165"/>
</g>
<!-- Node17 -->
<g id="node18" class="node">
<title>Node17</title>
<g id="a_node18"><a xlink:href="../../d2/da5/CrateParameters_8h.html" target="_top" xlink:title="MID RO crate parameters. ">
<polygon fill="none" stroke="#000000" points="907.5,-123.5 907.5,-142.5 1057.5,-142.5 1057.5,-123.5 907.5,-123.5"/>
<text text-anchor="middle" x="982.5" y="-130.5" font-family="Helvetica,sans-Serif" font-size="10.00" fill="#000000">MIDRaw/CrateParameters.h</text>
</a>
</g>
</g>
<!-- Node0&#45;&gt;Node17 -->
<g id="edge26" class="edge">
<title>Node0&#45;&gt;Node17</title>
<path fill="none" stroke="#191970" d="M858.0689,-235.4961C889.5607,-209.5558 936.9287,-170.5379 963.2061,-148.8928"/>
<polygon fill="#191970" stroke="#191970" points="965.4564,-151.5737 970.9497,-142.5142 961.0058,-146.1706 965.4564,-151.5737"/>
</g>
<!-- Node18 -->
<g id="node19" class="node">
<title>Node18</title>
<g id="a_node19"><a xlink:href="../../dd/dee/CRUUserLogicEncoder_8h.html" target="_top" xlink:title="Raw data encoder for MID CRU user logic. ">
<polygon fill="none" stroke="#000000" points="555.5,-179.5 555.5,-198.5 731.5,-198.5 731.5,-179.5 555.5,-179.5"/>
<text text-anchor="middle" x="643.5" y="-186.5" font-family="Helvetica,sans-Serif" font-size="10.00" fill="#000000">MIDRaw/CRUUserLogicEncoder.h</text>
</a>
</g>
</g>
<!-- Node0&#45;&gt;Node18 -->
<g id="edge29" class="edge">
<title>Node0&#45;&gt;Node18</title>
<path fill="none" stroke="#191970" d="M760.6913,-235.4283C732.3586,-224.2035 700.4495,-211.5619 677.0898,-202.3074"/>
<polygon fill="#191970" stroke="#191970" points="678.2234,-198.9919 667.6373,-198.5626 675.6451,-205.4998 678.2234,-198.9919"/>
</g>
<!-- Node20 -->
<g id="node21" class="node">
<title>Node20</title>
<g id="a_node21"><a xlink:href="../../d3/d4a/LocalBoardRO_8h.html" target="_top" xlink:title="Structure to store the FEE local board information. ">
<polygon fill="none" stroke="#000000" points="687.5,-123.5 687.5,-142.5 823.5,-142.5 823.5,-123.5 687.5,-123.5"/>
<text text-anchor="middle" x="755.5" y="-130.5" font-family="Helvetica,sans-Serif" font-size="10.00" fill="#000000">MIDRaw/LocalBoardRO.h</text>
</a>
</g>
</g>
<!-- Node0&#45;&gt;Node20 -->
<g id="edge42" class="edge">
<title>Node0&#45;&gt;Node20</title>
<path fill="none" stroke="#191970" d="M812.1321,-235.4961C798.3577,-210.5664 777.9097,-173.5584 765.7218,-151.5"/>
<polygon fill="#191970" stroke="#191970" points="768.6566,-149.5743 760.7569,-142.5142 762.5296,-152.9596 768.6566,-149.5743"/>
</g>
<!-- Node21 -->
<g id="node22" class="node">
<title>Node21</title>
<g id="a_node22"><a xlink:href="../../df/db7/RawUnit_8h.html" target="_top" xlink:title="Raw data format MID. ">
<polygon fill="none" stroke="#000000" points="455.5,-123.5 455.5,-142.5 565.5,-142.5 565.5,-123.5 455.5,-123.5"/>
<text text-anchor="middle" x="510.5" y="-130.5" font-family="Helvetica,sans-Serif" font-size="10.00" fill="#000000">MIDRaw/RawUnit.h</text>
</a>
</g>
</g>
<!-- Node0&#45;&gt;Node21 -->
<g id="edge43" class="edge">
<title>Node0&#45;&gt;Node21</title>
<path fill="none" stroke="#191970" d="M752.3385,-251.9842C680.6984,-241.5658 578.4773,-223.0846 546.5,-199 531.2312,-187.4999 521.6504,-167.5574 516.2468,-152.5958"/>
<polygon fill="#191970" stroke="#191970" points="519.4683,-151.1869 513.0287,-142.7736 512.8162,-153.3663 519.4683,-151.1869"/>
</g>
<!-- Node4&#45;&gt;Node1 -->
<g id="edge8" class="edge">
<title>Node4&#45;&gt;Node1</title>
<path fill="none" stroke="#191970" d="M231.584,-57.1777C234.5904,-56.7668 237.5692,-56.3726 240.5,-56 411.8197,-34.2181 617.803,-18.339 699.0664,-12.4775"/>
<polygon fill="#191970" stroke="#191970" points="699.5189,-15.9542 709.2435,-11.749 699.019,-8.972 699.5189,-15.9542"/>
</g>
<!-- Node5 -->
<g id="node6" class="node">
<title>Node5</title>
<polygon fill="none" stroke="#bfbfbf" points="0,-.5 0,-19.5 59,-19.5 59,-.5 0,-.5"/>
<text text-anchor="middle" x="29.5" y="-7.5" font-family="Helvetica,sans-Serif" font-size="10.00" fill="#000000">Rtypes.h</text>
</g>
<!-- Node4&#45;&gt;Node5 -->
<g id="edge5" class="edge">
<title>Node4&#45;&gt;Node5</title>
<path fill="none" stroke="#191970" d="M116.3678,-56.4554C98.0214,-46.644 74.2223,-33.9167 56.1749,-24.2653"/>
<polygon fill="#191970" stroke="#191970" points="57.7897,-21.1598 47.3209,-19.5303 54.4886,-27.3326 57.7897,-21.1598"/>
</g>
<!-- Node6 -->
<g id="node7" class="node">
<title>Node6</title>
<polygon fill="none" stroke="#bfbfbf" points="77,-.5 77,-19.5 126,-19.5 126,-.5 77,-.5"/>
<text text-anchor="middle" x="101.5" y="-7.5" font-family="Helvetica,sans-Serif" font-size="10.00" fill="#000000">iosfwd</text>
</g>
<!-- Node4&#45;&gt;Node6 -->
<g id="edge6" class="edge">
<title>Node4&#45;&gt;Node6</title>
<path fill="none" stroke="#191970" d="M133.8708,-56.2977C127.9019,-47.7609 120.4162,-37.0545 114.1471,-28.0883"/>
<polygon fill="#191970" stroke="#191970" points="116.9835,-26.0368 108.3848,-19.8469 111.2466,-30.048 116.9835,-26.0368"/>
</g>
<!-- Node7 -->
<g id="node8" class="node">
<title>Node7</title>
<polygon fill="none" stroke="#bfbfbf" points="144,-.5 144,-19.5 191,-19.5 191,-.5 144,-.5"/>
<text text-anchor="middle" x="167.5" y="-7.5" font-family="Helvetica,sans-Serif" font-size="10.00" fill="#000000">cmath</text>
</g>
<!-- Node4&#45;&gt;Node7 -->
<g id="edge7" class="edge">
<title>Node4&#45;&gt;Node7</title>
<path fill="none" stroke="#191970" d="M150.1854,-56.2977C153.245,-48.1166 157.0498,-37.943 160.3128,-29.2179"/>
<polygon fill="#191970" stroke="#191970" points="163.5927,-30.4394 163.8174,-19.8469 157.0362,-27.9873 163.5927,-30.4394"/>
</g>
<!-- Node8 -->
<g id="node9" class="node">
<title>Node8</title>
<g id="a_node9"><a xlink:href="../../d4/dc6/LHCConstants_8h.html" target="_top" xlink:title="Header to collect LHC related constants. ">
<polygon fill="none" stroke="#000000" points="209.5,-.5 209.5,-19.5 399.5,-19.5 399.5,-.5 209.5,-.5"/>
<text text-anchor="middle" x="304.5" y="-7.5" font-family="Helvetica,sans-Serif" font-size="10.00" fill="#000000">CommonConstants/LHCConstants.h</text>
</a>
</g>
</g>
<!-- Node4&#45;&gt;Node8 -->
<g id="edge9" class="edge">
<title>Node4&#45;&gt;Node8</title>
<path fill="none" stroke="#191970" d="M183.6404,-56.4554C210.1026,-46.284 244.7181,-32.9787 270.1183,-23.2155"/>
<polygon fill="#191970" stroke="#191970" points="271.6272,-26.3852 279.7057,-19.5303 269.1157,-19.8512 271.6272,-26.3852"/>
</g>
<!-- Node9&#45;&gt;Node4 -->
<g id="edge12" class="edge">
<title>Node9&#45;&gt;Node4</title>
<path fill="none" stroke="#191970" d="M300.5938,-123.3906C273.5857,-114.4123 232.5585,-100.7735 199.3431,-89.7316"/>
<polygon fill="#191970" stroke="#191970" points="200.3496,-86.378 189.7561,-86.5446 198.1414,-93.0205 200.3496,-86.378"/>
</g>
<!-- Node9&#45;&gt;Node5 -->
<g id="edge11" class="edge">
<title>Node9&#45;&gt;Node5</title>
<path fill="none" stroke="#191970" d="M259.7031,-123.5246C179.0325,-112.2845 56.2633,-94.1682 48.5,-87 32.8247,-72.5262 29.1645,-47.3634 28.7171,-29.7542"/>
<polygon fill="#191970" stroke="#191970" points="32.2173,-29.7184 28.7839,-19.6953 25.2175,-29.6718 32.2173,-29.7184"/>
</g>
<!-- Node10 -->
<g id="node11" class="node">
<title>Node10</title>
<g id="a_node11"><a xlink:href="../../d4/d78/DataFormats_2Headers_2include_2Headers_2RAWDataHeader_8h.html" target="_top" xlink:title="Headers/RAWDataHeader.h">
<polygon fill="none" stroke="#000000" points="428,-62 428,-81 577,-81 577,-62 428,-62"/>
<text text-anchor="middle" x="502.5" y="-69" font-family="Helvetica,sans-Serif" font-size="10.00" fill="#000000">Headers/RAWDataHeader.h</text>
</a>
</g>
</g>
<!-- Node9&#45;&gt;Node10 -->
<g id="edge13" class="edge">
<title>Node9&#45;&gt;Node10</title>
<path fill="none" stroke="#191970" d="M356.5313,-123.3906C385.9851,-112.92 433.2689,-96.1111 466.0027,-84.4745"/>
<polygon fill="#191970" stroke="#191970" points="467.4086,-87.6893 475.6586,-81.0419 465.0639,-81.0937 467.4086,-87.6893"/>
</g>
<!-- Node11 -->
<g id="node12" class="node">
<title>Node11</title>
<g id="a_node12"><a xlink:href="../../de/da4/Triggers_8h.html" target="_top" xlink:title="Definition of the 32 Central Trigger System (CTS) Trigger Types defined in https://twiki.cern.ch/twiki/pub/ALICE/NoteForFEDevelopers/CTS_CRU_FE_interface.pdf. ">
<polygon fill="none" stroke="#000000" points="249.5,-62 249.5,-81 409.5,-81 409.5,-62 249.5,-62"/>
<text text-anchor="middle" x="329.5" y="-69" font-family="Helvetica,sans-Serif" font-size="10.00" fill="#000000">CommonConstants/Triggers.h</text>
</a>
</g>
</g>
<!-- Node9&#45;&gt;Node11 -->
<g id="edge15" class="edge">
<title>Node9&#45;&gt;Node11</title>
<path fill="none" stroke="#191970" d="M329.5,-123.3906C329.5,-114.8657 329.5,-102.1392 329.5,-91.4235"/>
<polygon fill="#191970" stroke="#191970" points="333.0001,-91.2448 329.5,-81.2449 326.0001,-91.2449 333.0001,-91.2448"/>
</g>
<!-- Node10&#45;&gt;Node1 -->
<g id="edge14" class="edge">
<title>Node10&#45;&gt;Node1</title>
<path fill="none" stroke="#191970" d="M538.4954,-61.9581C582.3276,-50.3388 655.874,-30.8427 699.3294,-19.3232"/>
<polygon fill="#191970" stroke="#191970" points="700.4004,-22.6603 709.1697,-16.7147 698.6067,-15.894 700.4004,-22.6603"/>
</g>
<!-- Node11&#45;&gt;Node1 -->
<g id="edge16" class="edge">
<title>Node11&#45;&gt;Node1</title>
<path fill="none" stroke="#191970" d="M382.6395,-61.9958C394.436,-59.9556 406.8845,-57.8565 418.5,-56 520.2852,-39.7315 640.9058,-22.8298 699.3124,-14.796"/>
<polygon fill="#191970" stroke="#191970" points="700.0443,-18.2284 709.4756,-13.4012 699.0925,-11.2934 700.0443,-18.2284"/>
</g>
<!-- Node12&#45;&gt;Node1 -->
<g id="edge18" class="edge">
<title>Node12&#45;&gt;Node1</title>
<path fill="none" stroke="#191970" d="M1284.7024,-123.349C1268.535,-106.3379 1232.1923,-71.366 1193.5,-56 1116.3653,-25.3673 863.264,-14.184 769.6879,-11.0361"/>
<polygon fill="#191970" stroke="#191970" points="769.7075,-7.535 759.5987,-10.7073 769.4794,-14.5313 769.7075,-7.535"/>
</g>
<!-- Node13 -->
<g id="node14" class="node">
<title>Node13</title>
<polygon fill="none" stroke="#bfbfbf" points="1263.5,-62 1263.5,-81 1323.5,-81 1323.5,-62 1263.5,-62"/>
<text text-anchor="middle" x="1293.5" y="-69" font-family="Helvetica,sans-Serif" font-size="10.00" fill="#000000">iostream</text>
</g>
<!-- Node12&#45;&gt;Node13 -->
<g id="edge19" class="edge">
<title>Node12&#45;&gt;Node13</title>
<path fill="none" stroke="#191970" d="M1293.5,-123.3906C1293.5,-114.8657 1293.5,-102.1392 1293.5,-91.4235"/>
<polygon fill="#191970" stroke="#191970" points="1297.0001,-91.2448 1293.5,-81.2449 1290.0001,-91.2449 1297.0001,-91.2448"/>
</g>
<!-- Node14 -->
<g id="node15" class="node">
<title>Node14</title>
<polygon fill="none" stroke="#bfbfbf" points="912.5,-62 912.5,-81 954.5,-81 954.5,-62 912.5,-62"/>
<text text-anchor="middle" x="933.5" y="-69" font-family="Helvetica,sans-Serif" font-size="10.00" fill="#000000">array</text>
</g>
<!-- Node12&#45;&gt;Node14 -->
<g id="edge20" class="edge">
<title>Node12&#45;&gt;Node14</title>
<path fill="none" stroke="#191970" d="M1237.645,-123.4581C1161.0722,-110.3769 1026.0586,-87.3121 965.0256,-76.8856"/>
<polygon fill="#191970" stroke="#191970" points="965.3075,-73.3831 954.8609,-75.1492 964.1287,-80.2832 965.3075,-73.3831"/>
</g>
<!-- Node15&#45;&gt;Node4 -->
<g id="edge22" class="edge">
<title>Node15&#45;&gt;Node4</title>
<path fill="none" stroke="#191970" d="M158,-123.3906C156.1153,-116.1463 153.4412,-105.8679 150.9696,-96.3676"/>
<polygon fill="#191970" stroke="#191970" points="154.3192,-95.3412 148.414,-86.5446 147.5447,-97.1037 154.3192,-95.3412"/>
</g>
<!-- Node16&#45;&gt;Node1 -->
<g id="edge24" class="edge">
<title>Node16&#45;&gt;Node1</title>
<path fill="none" stroke="#191970" d="M1098.4129,-179.4016C1113.0861,-166.375 1134.6627,-142.4875 1122.5,-123 1084.3943,-61.9458 858.1708,-26.1755 769.8208,-14.376"/>
<polygon fill="#191970" stroke="#191970" points="770.122,-10.8856 759.7518,-13.0558 769.2119,-17.8262 770.122,-10.8856"/>
</g>
<!-- Node16&#45;&gt;Node3 -->
<g id="edge25" class="edge">
<title>Node16&#45;&gt;Node3</title>
<path fill="none" stroke="#191970" d="M1087.8935,-179.2455C1088.9374,-171.9382 1090.4008,-161.6944 1091.6851,-152.7046"/>
<polygon fill="#191970" stroke="#191970" points="1095.173,-153.0372 1093.1225,-142.6427 1088.2434,-152.0472 1095.173,-153.0372"/>
</g>
<!-- Node17&#45;&gt;Node1 -->
<g id="edge27" class="edge">
<title>Node17&#45;&gt;Node1</title>
<path fill="none" stroke="#191970" d="M983.1486,-123.3765C983.6809,-107.0359 982.1994,-73.8998 963.5,-56 936.1298,-29.8001 826.6979,-17.3393 769.5912,-12.52"/>
<polygon fill="#191970" stroke="#191970" points="769.8188,-9.027 759.5687,-11.7074 769.2531,-16.0041 769.8188,-9.027"/>
</g>
<!-- Node17&#45;&gt;Node14 -->
<g id="edge28" class="edge">
<title>Node17&#45;&gt;Node14</title>
<path fill="none" stroke="#191970" d="M974.8438,-123.3906C967.5511,-114.2376 956.3993,-100.2409 947.5148,-89.09"/>
<polygon fill="#191970" stroke="#191970" points="950.233,-86.8849 941.2642,-81.2449 944.7583,-91.247 950.233,-86.8849"/>
</g>
<!-- Node18&#45;&gt;Node1 -->
<g id="edge30" class="edge">
<title>Node18&#45;&gt;Node1</title>
<path fill="none" stroke="#191970" d="M648.3926,-179.3762C662.897,-150.8455 705.8453,-66.3648 725.0429,-28.6024"/>
<polygon fill="#191970" stroke="#191970" points="728.1714,-30.1718 729.5833,-19.6714 721.9314,-26.9995 728.1714,-30.1718"/>
</g>
<!-- Node18&#45;&gt;Node2 -->
<g id="edge32" class="edge">
<title>Node18&#45;&gt;Node2</title>
<path fill="none" stroke="#191970" d="M685.7089,-179.4341C722.0245,-171.0454 776.0225,-158.1972 831.7146,-143.1133"/>
<polygon fill="#191970" stroke="#191970" points="832.6674,-146.4813 841.3941,-140.4734 830.8255,-139.728 832.6674,-146.4813"/>
</g>
<!-- Node18&#45;&gt;Node10 -->
<g id="edge33" class="edge">
<title>Node18&#45;&gt;Node10</title>
<path fill="none" stroke="#191970" d="M557.3527,-179.4952C511.074,-172.422 460.6617,-160.8494 446.5,-143 431.0823,-123.5675 455.7639,-101.016 477.0817,-86.5182"/>
<polygon fill="#191970" stroke="#191970" points="479.0939,-89.385 485.5878,-81.0136 475.2908,-83.5082 479.0939,-89.385"/>
</g>
<!-- Node18&#45;&gt;Node15 -->
<g id="edge34" class="edge">
<title>Node18&#45;&gt;Node15</title>
<path fill="none" stroke="#191970" d="M561.2921,-179.4686C475.5944,-169.5327 341.5906,-153.996 252.4379,-143.6595"/>
<polygon fill="#191970" stroke="#191970" points="252.6719,-140.1632 242.3353,-142.4882 251.8657,-147.1167 252.6719,-140.1632"/>
</g>
<!-- Node19 -->
<g id="node20" class="node">
<title>Node19</title>
<polygon fill="none" stroke="#bfbfbf" points="584,-123.5 584,-142.5 631,-142.5 631,-123.5 584,-123.5"/>
<text text-anchor="middle" x="607.5" y="-130.5" font-family="Helvetica,sans-Serif" font-size="10.00" fill="#000000">vector</text>
</g>
<!-- Node18&#45;&gt;Node19 -->
<g id="edge31" class="edge">
<title>Node18&#45;&gt;Node19</title>
<path fill="none" stroke="#191970" d="M637.2293,-179.2455C632.2736,-171.5367 625.217,-160.5598 619.2224,-151.2348"/>
<polygon fill="#191970" stroke="#191970" points="622.0506,-149.1618 613.6989,-142.6427 616.1624,-152.9471 622.0506,-149.1618"/>
</g>
<!-- Node18&#45;&gt;Node20 -->
<g id="edge35" class="edge">
<title>Node18&#45;&gt;Node20</title>
<path fill="none" stroke="#191970" d="M662.7535,-179.3733C680.5712,-170.4644 707.2747,-157.1127 727.4594,-147.0203"/>
<polygon fill="#191970" stroke="#191970" points="729.1187,-150.1038 736.4978,-142.5011 725.9882,-143.8428 729.1187,-150.1038"/>
</g>
<!-- Node18&#45;&gt;Node21 -->
<g id="edge38" class="edge">
<title>Node18&#45;&gt;Node21</title>
<path fill="none" stroke="#191970" d="M620.6365,-179.3733C599.095,-170.3032 566.6162,-156.6279 542.5044,-146.4755"/>
<polygon fill="#191970" stroke="#191970" points="543.6397,-143.156 533.0652,-142.5011 540.9233,-149.6075 543.6397,-143.156"/>
</g>
<!-- Node20&#45;&gt;Node1 -->
<g id="edge36" class="edge">
<title>Node20&#45;&gt;Node1</title>
<path fill="none" stroke="#191970" d="M753.8522,-123.3484C750.4172,-103.2295 742.4323,-56.4608 737.8651,-29.7098"/>
<polygon fill="#191970" stroke="#191970" points="741.2733,-28.8751 736.1402,-19.6068 734.3731,-30.0532 741.2733,-28.8751"/>
</g>
<!-- Node20&#45;&gt;Node14 -->
<g id="edge37" class="edge">
<title>Node20&#45;&gt;Node14</title>
<path fill="none" stroke="#191970" d="M783.3125,-123.3906C815.6557,-112.2159 868.8945,-93.8215 902.5297,-82.2004"/>
<polygon fill="#191970" stroke="#191970" points="903.9853,-85.4006 912.294,-78.8268 901.6993,-78.7844 903.9853,-85.4006"/>
</g>
<!-- Node21&#45;&gt;Node1 -->
<g id="edge39" class="edge">
<title>Node21&#45;&gt;Node1</title>
<path fill="none" stroke="#191970" d="M527.5954,-123.3956C543.0729,-114.4956 566.3172,-100.6147 585.5,-87 603.2742,-74.385 604.7896,-67.1796 623.5,-56 647.678,-41.5535 677.2292,-29.5499 699.76,-21.4308"/>
<polygon fill="#191970" stroke="#191970" points="700.9907,-24.7082 709.2611,-18.0863 698.6663,-18.1054 700.9907,-24.7082"/>
</g>
<!-- Node21&#45;&gt;Node10 -->
<g id="edge41" class="edge">
<title>Node21&#45;&gt;Node10</title>
<path fill="none" stroke="#191970" d="M509.25,-123.3906C508.1411,-114.8657 506.4856,-102.1392 505.0917,-91.4235"/>
<polygon fill="#191970" stroke="#191970" points="508.5284,-90.7098 503.7676,-81.2449 501.5869,-91.6128 508.5284,-90.7098"/>
</g>
<!-- Node22 -->
<g id="node23" class="node">
<title>Node22</title>
<polygon fill="none" stroke="#bfbfbf" points="633,-62 633,-81 686,-81 686,-62 633,-62"/>
<text text-anchor="middle" x="659.5" y="-69" font-family="Helvetica,sans-Serif" font-size="10.00" fill="#000000">cstddef</text>
</g>
<!-- Node21&#45;&gt;Node22 -->
<g id="edge40" class="edge">
<title>Node21&#45;&gt;Node22</title>
<path fill="none" stroke="#191970" d="M533.7813,-123.3906C558.821,-113.0554 598.8225,-96.5447 626.966,-84.9284"/>
<polygon fill="#191970" stroke="#191970" points="628.474,-88.0925 636.3822,-81.0419 625.8033,-81.622 628.474,-88.0925"/>
</g>
</g>
</svg>
