<?xml version="1.0" encoding="UTF-8" standalone="no"?>
<!DOCTYPE svg PUBLIC "-//W3C//DTD SVG 1.1//EN"
 "http://www.w3.org/Graphics/SVG/1.1/DTD/svg11.dtd">
<!-- Generated by graphviz version 2.40.1 (20161225.0304)
 -->
<!-- Title: GPUCA_NAMESPACE::gpu::IrregularSpline1D Pages: 1 -->
<!--zoomable 826 -->
<svg id="main" version="1.1" xmlns="http://www.w3.org/2000/svg" xmlns:xlink="http://www.w3.org/1999/xlink" xml:space="preserve" onload="init(evt)">
<style type="text/css"><![CDATA[
.edge:hover path { stroke: red; }
.edge:hover polygon { stroke: red; fill: red; }
]]></style>
<script type="text/javascript"><![CDATA[
var edges = document.getElementsByTagName('g');
if (edges && edges.length) {
  for (var i=0;i<edges.length;i++) {
    if (edges[i].id.substr(0,4)=='edge') {
      edges[i].setAttribute('class','edge');
    }
  }
}
]]></script>
        <defs>
                <circle id="rim" cx="0" cy="0" r="7"/>
                <circle id="rim2" cx="0" cy="0" r="3.5"/>
                <g id="zoomPlus">
                        <use xlink:href="#rim" fill="#404040">
                                <set attributeName="fill" to="#808080" begin="zoomplus.mouseover" end="zoomplus.mouseout"/>
                        </use>
                        <path d="M-4,0h8M0,-4v8" fill="none" stroke="white" stroke-width="1.5" pointer-events="none"/>
                </g>
                <g id="zoomMin">
                        <use xlink:href="#rim" fill="#404040">
                                <set attributeName="fill" to="#808080" begin="zoomminus.mouseover" end="zoomminus.mouseout"/>
                        </use>
                        <path d="M-4,0h8" fill="none" stroke="white" stroke-width="1.5" pointer-events="none"/>
                </g>
                <g id="dirArrow">
                        <path fill="none" stroke="white" stroke-width="1.5" d="M0,-3.0v7 M-2.5,-0.5L0,-3.0L2.5,-0.5"/>
                </g>
               <g id="resetDef">
                       <use xlink:href="#rim2" fill="#404040">
                               <set attributeName="fill" to="#808080" begin="reset.mouseover" end="reset.mouseout"/>
                       </use>
               </g>
        </defs>

<script type="text/javascript">
var viewWidth = 370;
var viewHeight = 826;
var sectionId = 'dynsection-1';
</script>
<script xlink:href="../../svgpan.js"/>
<svg id="graph" class="graph">
<g id="viewport">
<title>GPUCA_NAMESPACE::gpu::IrregularSpline1D</title>
<!-- Node2 -->
<g id="node1" class="node">
<title>Node2</title>
<polygon fill="#bfbfbf" stroke="#000000" points="198,-.5 198,-255.5 356,-255.5 356,-.5 198,-.5"/>
<text text-anchor="start" x="206" y="-243.5" font-family="Helvetica,sans-Serif" font-size="10.00" fill="#000000">GPUCA_NAMESPACE::gpu</text>
<text text-anchor="middle" x="277" y="-232.5" font-family="Helvetica,sans-Serif" font-size="10.00" fill="#000000">::IrregularSpline1D</text>
<polyline fill="none" stroke="#000000" points="198,-225.5 356,-225.5 "/>
<text text-anchor="middle" x="277" y="-213.5" font-family="Helvetica,sans-Serif" font-size="10.00" fill="#000000"> </text>
<polyline fill="none" stroke="#000000" points="198,-206.5 356,-206.5 "/>
<text text-anchor="start" x="206" y="-194.5" font-family="Helvetica,sans-Serif" font-size="10.00" fill="#000000">+ IrregularSpline1D()</text>
<text text-anchor="start" x="206" y="-183.5" font-family="Helvetica,sans-Serif" font-size="10.00" fill="#000000">+ IrregularSpline1D()</text>
<text text-anchor="start" x="206" y="-172.5" font-family="Helvetica,sans-Serif" font-size="10.00" fill="#000000">+ operator=()</text>
<text text-anchor="start" x="206" y="-161.5" font-family="Helvetica,sans-Serif" font-size="10.00" fill="#000000">+ ~IrregularSpline1D()</text>
<text text-anchor="start" x="206" y="-150.5" font-family="Helvetica,sans-Serif" font-size="10.00" fill="#000000">+ cloneFromObject()</text>
<text text-anchor="start" x="206" y="-139.5" font-family="Helvetica,sans-Serif" font-size="10.00" fill="#000000">+ destroy()</text>
<text text-anchor="start" x="206" y="-128.5" font-family="Helvetica,sans-Serif" font-size="10.00" fill="#000000">+ construct()</text>
<text text-anchor="start" x="206" y="-117.5" font-family="Helvetica,sans-Serif" font-size="10.00" fill="#000000">+ constructRegular()</text>
<text text-anchor="start" x="206" y="-106.5" font-family="Helvetica,sans-Serif" font-size="10.00" fill="#000000">+ GPUd()</text>
<text text-anchor="start" x="206" y="-95.5" font-family="Helvetica,sans-Serif" font-size="10.00" fill="#000000">+ GPUd()</text>
<text text-anchor="start" x="206" y="-84.5" font-family="Helvetica,sans-Serif" font-size="10.00" fill="#000000">+ GPUd()</text>
<text text-anchor="start" x="206" y="-73.5" font-family="Helvetica,sans-Serif" font-size="10.00" fill="#000000">+ GPUd()</text>
<text text-anchor="start" x="206" y="-62.5" font-family="Helvetica,sans-Serif" font-size="10.00" fill="#000000">+ GPUd()</text>
<text text-anchor="start" x="206" y="-51.5" font-family="Helvetica,sans-Serif" font-size="10.00" fill="#000000">+ getNumberOfAxisBins()</text>
<text text-anchor="start" x="206" y="-40.5" font-family="Helvetica,sans-Serif" font-size="10.00" fill="#000000">+ GPUd()</text>
<text text-anchor="start" x="206" y="-29.5" font-family="Helvetica,sans-Serif" font-size="10.00" fill="#000000">+ print()</text>
<text text-anchor="start" x="206" y="-18.5" font-family="Helvetica,sans-Serif" font-size="10.00" fill="#000000">+ getBufferAlignmentBytes()</text>
<text text-anchor="start" x="206" y="-7.5" font-family="Helvetica,sans-Serif" font-size="10.00" fill="#000000">+ getDataAlignmentBytes()</text>
</g>
<!-- Node3 -->
<g id="node2" class="node">
<title>Node3</title>
<g id="a_node2"><a xlink:href="../../dc/d5e/classGPUCA__NAMESPACE_1_1gpu_1_1FlatObject.html" target="_top" xlink:title="GPUCA_GPUCODE. ">
<polygon fill="none" stroke="#000000" points="76,-369.5 76,-701.5 234,-701.5 234,-369.5 76,-369.5"/>
<text text-anchor="start" x="84" y="-689.5" font-family="Helvetica,sans-Serif" font-size="10.00" fill="#000000">GPUCA_NAMESPACE::gpu</text>
<text text-anchor="middle" x="155" y="-678.5" font-family="Helvetica,sans-Serif" font-size="10.00" fill="#000000">::FlatObject</text>
<polyline fill="none" stroke="#000000" points="76,-671.5 234,-671.5 "/>
<text text-anchor="middle" x="155" y="-659.5" font-family="Helvetica,sans-Serif" font-size="10.00" fill="#000000"> </text>
<polyline fill="none" stroke="#000000" points="76,-652.5 234,-652.5 "/>
<text text-anchor="start" x="84" y="-640.5" font-family="Helvetica,sans-Serif" font-size="10.00" fill="#000000">+ FlatObject()</text>
<text text-anchor="start" x="84" y="-629.5" font-family="Helvetica,sans-Serif" font-size="10.00" fill="#000000">+ ~FlatObject()</text>
<text text-anchor="start" x="84" y="-618.5" font-family="Helvetica,sans-Serif" font-size="10.00" fill="#000000">+ FlatObject()</text>
<text text-anchor="start" x="84" y="-607.5" font-family="Helvetica,sans-Serif" font-size="10.00" fill="#000000">+ operator=()</text>
<text text-anchor="start" x="84" y="-596.5" font-family="Helvetica,sans-Serif" font-size="10.00" fill="#000000">+ getFlatBufferSize()</text>
<text text-anchor="start" x="84" y="-585.5" font-family="Helvetica,sans-Serif" font-size="10.00" fill="#000000">+ getFlatBufferPtr()</text>
<text text-anchor="start" x="84" y="-574.5" font-family="Helvetica,sans-Serif" font-size="10.00" fill="#000000">+ isConstructed()</text>
<text text-anchor="start" x="84" y="-563.5" font-family="Helvetica,sans-Serif" font-size="10.00" fill="#000000">+ isBufferInternal()</text>
<text text-anchor="start" x="84" y="-552.5" font-family="Helvetica,sans-Serif" font-size="10.00" fill="#000000">+ adoptInternalBuffer()</text>
<text text-anchor="start" x="84" y="-541.5" font-family="Helvetica,sans-Serif" font-size="10.00" fill="#000000">+ clearInternalBufferPtr()</text>
<text text-anchor="start" x="84" y="-530.5" font-family="Helvetica,sans-Serif" font-size="10.00" fill="#000000">+ printC()</text>
<text text-anchor="start" x="84" y="-519.5" font-family="Helvetica,sans-Serif" font-size="10.00" fill="#000000">+ alignSize()</text>
<text text-anchor="start" x="84" y="-508.5" font-family="Helvetica,sans-Serif" font-size="10.00" fill="#000000">+ relocatePointer()</text>
<text text-anchor="start" x="84" y="-497.5" font-family="Helvetica,sans-Serif" font-size="10.00" fill="#000000">+ stressTest()</text>
<text text-anchor="start" x="84" y="-486.5" font-family="Helvetica,sans-Serif" font-size="10.00" fill="#000000"># startConstruction()</text>
<text text-anchor="start" x="84" y="-475.5" font-family="Helvetica,sans-Serif" font-size="10.00" fill="#000000"># finishConstruction()</text>
<text text-anchor="start" x="84" y="-464.5" font-family="Helvetica,sans-Serif" font-size="10.00" fill="#000000"># destroy()</text>
<text text-anchor="start" x="84" y="-453.5" font-family="Helvetica,sans-Serif" font-size="10.00" fill="#000000"># cloneFromObject()</text>
<text text-anchor="start" x="84" y="-442.5" font-family="Helvetica,sans-Serif" font-size="10.00" fill="#000000"># releaseInternalBuffer()</text>
<text text-anchor="start" x="84" y="-431.5" font-family="Helvetica,sans-Serif" font-size="10.00" fill="#000000"># moveBufferTo()</text>
<text text-anchor="start" x="84" y="-420.5" font-family="Helvetica,sans-Serif" font-size="10.00" fill="#000000"># setActualBufferAddress()</text>
<text text-anchor="start" x="84" y="-409.5" font-family="Helvetica,sans-Serif" font-size="10.00" fill="#000000"># setFutureBufferAddress()</text>
<text text-anchor="start" x="84" y="-398.5" font-family="Helvetica,sans-Serif" font-size="10.00" fill="#000000"># ClassDefNV()</text>
<text text-anchor="start" x="84" y="-387.5" font-family="Helvetica,sans-Serif" font-size="10.00" fill="#000000"># getClassAlignmentBytes()</text>
<text text-anchor="start" x="84" y="-376.5" font-family="Helvetica,sans-Serif" font-size="10.00" fill="#000000"># getBufferAlignmentBytes()</text>
</a>
</g>
</g>
<!-- Node3&#45;&gt;Node2 -->
<g id="edge1" class="edge">
<title>Node3&#45;&gt;Node2</title>
<path fill="none" stroke="#191970" d="M207.653,-359.6303C218.1224,-324.6609 228.9261,-288.5748 238.799,-255.5975"/>
<polygon fill="none" stroke="#191970" points="204.2252,-358.8766 204.71,-369.4603 210.9312,-360.8843 204.2252,-358.8766"/>
</g>
<!-- Node4 -->
<g id="node3" class="node">
<title>Node4</title>
<polygon fill="none" stroke="#bfbfbf" points="0,-760.5 0,-817.5 38,-817.5 38,-760.5 0,-760.5"/>
<text text-anchor="middle" x="19" y="-805.5" font-family="Helvetica,sans-Serif" font-size="10.00" fill="#000000">char</text>
<polyline fill="none" stroke="#bfbfbf" points="0,-798.5 38,-798.5 "/>
<text text-anchor="middle" x="19" y="-786.5" font-family="Helvetica,sans-Serif" font-size="10.00" fill="#000000"> </text>
<polyline fill="none" stroke="#bfbfbf" points="0,-779.5 38,-779.5 "/>
<text text-anchor="middle" x="19" y="-767.5" font-family="Helvetica,sans-Serif" font-size="10.00" fill="#000000"> </text>
</g>
<!-- Node4&#45;&gt;Node3 -->
<g id="edge2" class="edge">
<title>Node4&#45;&gt;Node3</title>
<path fill="none" stroke="#404040" d="M24.8401,-760.4803C27.9461,-747.7859 32.3144,-732.8376 38,-720 46.9834,-699.7164 57.9692,-679.0705 69.5734,-659.2868"/>
<polygon fill="none" stroke="#404040" points="69.7346,-659.0164 69.373,-651.8144 75.882,-648.7106 76.2436,-655.9126 69.7346,-659.0164"/>
<text text-anchor="middle" x="94.5" y="-734" font-family="Helvetica,sans-Serif" font-size="10.00" fill="#000000"> #mFlatBufferPtr</text>
<text text-anchor="middle" x="94.5" y="-723" font-family="Helvetica,sans-Serif" font-size="10.00" fill="#000000">#mFlatBufferContainer</text>
</g>
<!-- Node5 -->
<g id="node4" class="node">
<title>Node5</title>
<polygon fill="none" stroke="#bfbfbf" points="140.5,-760.5 140.5,-817.5 169.5,-817.5 169.5,-760.5 140.5,-760.5"/>
<text text-anchor="middle" x="155" y="-805.5" font-family="Helvetica,sans-Serif" font-size="10.00" fill="#000000">int</text>
<polyline fill="none" stroke="#bfbfbf" points="140.5,-798.5 169.5,-798.5 "/>
<text text-anchor="middle" x="155" y="-786.5" font-family="Helvetica,sans-Serif" font-size="10.00" fill="#000000"> </text>
<polyline fill="none" stroke="#bfbfbf" points="140.5,-779.5 169.5,-779.5 "/>
<text text-anchor="middle" x="155" y="-767.5" font-family="Helvetica,sans-Serif" font-size="10.00" fill="#000000"> </text>
</g>
<!-- Node5&#45;&gt;Node3 -->
<g id="edge3" class="edge">
<title>Node5&#45;&gt;Node3</title>
<path fill="none" stroke="#404040" d="M155,-760.4131C155,-747.6747 155,-731.5279 155,-713.7529"/>
<polygon fill="none" stroke="#404040" points="155.0001,-713.5344 151,-707.5344 155,-701.5344 159,-707.5344 155.0001,-713.5344"/>
<text text-anchor="middle" x="199.5" y="-728.5" font-family="Helvetica,sans-Serif" font-size="10.00" fill="#000000"> #mFlatBufferSize</text>
</g>
<!-- Node6 -->
<g id="node5" class="node">
<title>Node6</title>
<polygon fill="none" stroke="#bfbfbf" points="236.5,-760.5 236.5,-817.5 297.5,-817.5 297.5,-760.5 236.5,-760.5"/>
<text text-anchor="middle" x="267" y="-805.5" font-family="Helvetica,sans-Serif" font-size="10.00" fill="#000000">unsigned</text>
<polyline fill="none" stroke="#bfbfbf" points="236.5,-798.5 297.5,-798.5 "/>
<text text-anchor="middle" x="267" y="-786.5" font-family="Helvetica,sans-Serif" font-size="10.00" fill="#000000"> </text>
<polyline fill="none" stroke="#bfbfbf" points="236.5,-779.5 297.5,-779.5 "/>
<text text-anchor="middle" x="267" y="-767.5" font-family="Helvetica,sans-Serif" font-size="10.00" fill="#000000"> </text>
</g>
<!-- Node6&#45;&gt;Node3 -->
<g id="edge4" class="edge">
<title>Node6&#45;&gt;Node3</title>
<path fill="none" stroke="#404040" d="M258.9218,-760.4722C255.1056,-747.912 250.2397,-733.071 245,-720 243.0068,-715.0276 240.9373,-710.0031 238.8075,-704.9497"/>
<polygon fill="none" stroke="#404040" points="238.7781,-704.881 232.7393,-700.9398 234.0546,-693.8497 240.0935,-697.7908 238.7781,-704.881"/>
<text text-anchor="middle" x="307.5" y="-728.5" font-family="Helvetica,sans-Serif" font-size="10.00" fill="#000000"> #mConstructionMask</text>
</g>
<!-- Node7 -->
<g id="node6" class="node">
<title>Node7</title>
<polygon fill="none" stroke="#bfbfbf" points="252,-507 252,-564 302,-564 302,-507 252,-507"/>
<text text-anchor="middle" x="277" y="-552" font-family="Helvetica,sans-Serif" font-size="10.00" fill="#000000">double</text>
<polyline fill="none" stroke="#bfbfbf" points="252,-545 302,-545 "/>
<text text-anchor="middle" x="277" y="-533" font-family="Helvetica,sans-Serif" font-size="10.00" fill="#000000"> </text>
<polyline fill="none" stroke="#bfbfbf" points="252,-526 302,-526 "/>
<text text-anchor="middle" x="277" y="-514" font-family="Helvetica,sans-Serif" font-size="10.00" fill="#000000"> </text>
</g>
<!-- Node7&#45;&gt;Node2 -->
<g id="edge5" class="edge">
<title>Node7&#45;&gt;Node2</title>
<path fill="none" stroke="#404040" d="M277,-506.8454C277,-457.7062 277,-354.3067 277,-267.929"/>
<polygon fill="none" stroke="#404040" points="277.0001,-267.8611 273,-261.8611 277,-255.8611 281,-261.8611 277.0001,-267.8611"/>
<text text-anchor="middle" x="288.5" y="-343" font-family="Helvetica,sans-Serif" font-size="10.00" fill="#000000"> +c0</text>
<text text-anchor="middle" x="288.5" y="-332" font-family="Helvetica,sans-Serif" font-size="10.00" fill="#000000">+u1</text>
<text text-anchor="middle" x="288.5" y="-321" font-family="Helvetica,sans-Serif" font-size="10.00" fill="#000000">+c1</text>
<text text-anchor="middle" x="288.5" y="-310" font-family="Helvetica,sans-Serif" font-size="10.00" fill="#000000">+u2</text>
<text text-anchor="middle" x="288.5" y="-299" font-family="Helvetica,sans-Serif" font-size="10.00" fill="#000000">+c2</text>
<text text-anchor="middle" x="288.5" y="-288" font-family="Helvetica,sans-Serif" font-size="10.00" fill="#000000">+u3</text>
<text text-anchor="middle" x="288.5" y="-277" font-family="Helvetica,sans-Serif" font-size="10.00" fill="#000000">+c3</text>
</g>
<!-- Node8 -->
<g id="node7" class="node">
<title>Node8</title>
<polygon fill="none" stroke="#bfbfbf" points="320.5,-507 320.5,-564 349.5,-564 349.5,-507 320.5,-507"/>
<text text-anchor="middle" x="335" y="-552" font-family="Helvetica,sans-Serif" font-size="10.00" fill="#000000">T</text>
<polyline fill="none" stroke="#bfbfbf" points="320.5,-545 349.5,-545 "/>
<text text-anchor="middle" x="335" y="-533" font-family="Helvetica,sans-Serif" font-size="10.00" fill="#000000"> </text>
<polyline fill="none" stroke="#bfbfbf" points="320.5,-526 349.5,-526 "/>
<text text-anchor="middle" x="335" y="-514" font-family="Helvetica,sans-Serif" font-size="10.00" fill="#000000"> </text>
</g>
<!-- Node8&#45;&gt;Node2 -->
<g id="edge6" class="edge">
<title>Node8&#45;&gt;Node2</title>
<path fill="none" stroke="#404040" d="M332.2115,-506.7839C327.3907,-458.5593 316.7778,-358.2997 304,-274 303.6879,-271.9412 303.3687,-269.867 303.043,-267.7803"/>
<polygon fill="none" stroke="#404040" points="303.0085,-267.5641 298.1109,-262.2713 301.1128,-255.7148 306.0104,-261.0075 303.0085,-267.5641"/>
<text text-anchor="middle" x="332" y="-310" font-family="Helvetica,sans-Serif" font-size="10.00" fill="#000000"> +const</text>
</g>
</g>
</svg>
        <g id="navigator" transform="translate(0 0)" fill="#404254">
                <rect fill="#f2f5e9" fill-opacity="0.5" stroke="#606060" stroke-width=".5" x="0" y="0" width="60" height="60"/>
                <use id="zoomplus" xlink:href="#zoomPlus" x="17" y="9" onmousedown="handleZoom(evt,'in')"/>
                <use id="zoomminus" xlink:href="#zoomMin" x="42" y="9" onmousedown="handleZoom(evt,'out')"/>
                <use id="reset" xlink:href="#resetDef" x="30" y="36" onmousedown="handleReset()"/>
                <g id="arrowUp" xlink:href="#dirArrow" transform="translate(30 24)" onmousedown="handlePan(0,-1)">
                  <use xlink:href="#rim" fill="#404040">
                        <set attributeName="fill" to="#808080" begin="arrowUp.mouseover" end="arrowUp.mouseout"/>
                  </use>
                  <path fill="none" stroke="white" stroke-width="1.5" d="M0,-3.0v7 M-2.5,-0.5L0,-3.0L2.5,-0.5"/>
                </g>
                <g id="arrowRight" xlink:href="#dirArrow" transform="rotate(90) translate(36 -43)" onmousedown="handlePan(1,0)">
                  <use xlink:href="#rim" fill="#404040">
                        <set attributeName="fill" to="#808080" begin="arrowRight.mouseover" end="arrowRight.mouseout"/>
                  </use>
                  <path fill="none" stroke="white" stroke-width="1.5" d="M0,-3.0v7 M-2.5,-0.5L0,-3.0L2.5,-0.5"/>
                </g>
                <g id="arrowDown" xlink:href="#dirArrow" transform="rotate(180) translate(-30 -48)" onmousedown="handlePan(0,1)">
                  <use xlink:href="#rim" fill="#404040">
                        <set attributeName="fill" to="#808080" begin="arrowDown.mouseover" end="arrowDown.mouseout"/>
                  </use>
                  <path fill="none" stroke="white" stroke-width="1.5" d="M0,-3.0v7 M-2.5,-0.5L0,-3.0L2.5,-0.5"/>
                </g>
                <g id="arrowLeft" xlink:href="#dirArrow" transform="rotate(270) translate(-36 17)" onmousedown="handlePan(-1,0)">
                  <use xlink:href="#rim" fill="#404040">
                        <set attributeName="fill" to="#808080" begin="arrowLeft.mouseover" end="arrowLeft.mouseout"/>
                  </use>
                  <path fill="none" stroke="white" stroke-width="1.5" d="M0,-3.0v7 M-2.5,-0.5L0,-3.0L2.5,-0.5"/>
                </g>
        </g>
        <svg viewBox="0 0 15 15" width="100%" height="30px" preserveAspectRatio="xMaxYMin meet">
         <g id="arrow_out" transform="scale(0.3 0.3)">
          <a xlink:href="classGPUCA__NAMESPACE_1_1gpu_1_1IrregularSpline1D__coll__graph_org.svg" target="_base">
           <rect id="button" ry="5" rx="5" y="6" x="6" height="38" width="38"
                fill="#f2f5e9" fill-opacity="0.5" stroke="#606060" stroke-width="1.0"/>
           <path id="arrow"
             d="M 11.500037,31.436501 C 11.940474,20.09759 22.043105,11.32322 32.158766,21.979434 L 37.068811,17.246167 C 37.068811,17.246167 37.088388,32 37.088388,32 L 22.160133,31.978069 C 22.160133,31.978069 26.997745,27.140456 26.997745,27.140456 C 18.528582,18.264221 13.291696,25.230495 11.500037,31.436501 z"
             style="fill:#404040;"/>
          </a>
         </g>
        </svg>
</svg>
