<?xml version="1.0" encoding="UTF-8" standalone="no"?>
<!DOCTYPE svg PUBLIC "-//W3C//DTD SVG 1.1//EN"
 "http://www.w3.org/Graphics/SVG/1.1/DTD/svg11.dtd">
<!-- Generated by graphviz version 2.40.1 (20161225.0304)
 -->
<!-- Title: /home/travis/build/AliceO2Group/AliceO2/Detectors/CPV/simulation/include/CPVSimulation/Digitizer.h Pages: 1 -->
<svg width="1850pt" height="385pt"
 viewBox="0.00 0.00 1849.50 385.00" xmlns="http://www.w3.org/2000/svg" xmlns:xlink="http://www.w3.org/1999/xlink">
<g id="graph0" class="graph" transform="scale(1 1) rotate(0) translate(4 381)">
<title>/home/travis/build/AliceO2Group/AliceO2/Detectors/CPV/simulation/include/CPVSimulation/Digitizer.h</title>
<!-- Node0 -->
<g id="node1" class="node">
<title>Node0</title>
<polygon fill="#bfbfbf" stroke="#000000" points="526.5,-324.5 526.5,-376.5 708.5,-376.5 708.5,-324.5 526.5,-324.5"/>
<text text-anchor="start" x="534.5" y="-364.5" font-family="Helvetica,sans-Serif" font-size="10.00" fill="#000000">/home/travis/build</text>
<text text-anchor="start" x="534.5" y="-353.5" font-family="Helvetica,sans-Serif" font-size="10.00" fill="#000000">/AliceO2Group/AliceO2</text>
<text text-anchor="start" x="534.5" y="-342.5" font-family="Helvetica,sans-Serif" font-size="10.00" fill="#000000">/Detectors/CPV/simulation</text>
<text text-anchor="middle" x="617.5" y="-331.5" font-family="Helvetica,sans-Serif" font-size="10.00" fill="#000000">/include/CPVSimulation/Digitizer.h</text>
</g>
<!-- Node1 -->
<g id="node2" class="node">
<title>Node1</title>
<g id="a_node2"><a xlink:href="../../de/dfb/DataFormats_2Detectors_2CPV_2include_2DataFormatsCPV_2Digit_8h.html" target="_top" xlink:title="DataFormatsCPV/Digit.h">
<polygon fill="none" stroke="#000000" points="161.5,-263 161.5,-282 295.5,-282 295.5,-263 161.5,-263"/>
<text text-anchor="middle" x="228.5" y="-270" font-family="Helvetica,sans-Serif" font-size="10.00" fill="#000000">DataFormatsCPV/Digit.h</text>
</a>
</g>
</g>
<!-- Node0&#45;&gt;Node1 -->
<g id="edge1" class="edge">
<title>Node0&#45;&gt;Node1</title>
<path fill="none" stroke="#191970" d="M526.2968,-332.2125C451.9039,-317.2956 349.1088,-296.6838 285.8095,-283.9914"/>
<polygon fill="#191970" stroke="#191970" points="286.4928,-280.5588 275.9999,-282.0244 285.1166,-287.4222 286.4928,-280.5588"/>
</g>
<!-- Node6 -->
<g id="node7" class="node">
<title>Node6</title>
<g id="a_node7"><a xlink:href="../../de/ddd/CPV_2base_2include_2CPVBase_2Geometry_8h.html" target="_top" xlink:title="CPVBase/Geometry.h">
<polygon fill="none" stroke="#000000" points="339,-263 339,-282 458,-282 458,-263 339,-263"/>
<text text-anchor="middle" x="398.5" y="-270" font-family="Helvetica,sans-Serif" font-size="10.00" fill="#000000">CPVBase/Geometry.h</text>
</a>
</g>
</g>
<!-- Node0&#45;&gt;Node6 -->
<g id="edge6" class="edge">
<title>Node0&#45;&gt;Node6</title>
<path fill="none" stroke="#191970" d="M544.2717,-324.4187C507.5169,-311.3279 464.6156,-296.048 434.9148,-285.4697"/>
<polygon fill="#191970" stroke="#191970" points="435.9711,-282.1306 425.3764,-282.0724 433.6224,-288.7248 435.9711,-282.1306"/>
</g>
<!-- Node10 -->
<g id="node11" class="node">
<title>Node10</title>
<g id="a_node11"><a xlink:href="../../dc/d40/CPV_2calib_2include_2CPVCalib_2CalibParams_8h.html" target="_top" xlink:title="CPVCalib/CalibParams.h">
<polygon fill="none" stroke="#000000" points="476.5,-263 476.5,-282 610.5,-282 610.5,-263 476.5,-263"/>
<text text-anchor="middle" x="543.5" y="-270" font-family="Helvetica,sans-Serif" font-size="10.00" fill="#000000">CPVCalib/CalibParams.h</text>
</a>
</g>
</g>
<!-- Node0&#45;&gt;Node10 -->
<g id="edge10" class="edge">
<title>Node0&#45;&gt;Node10</title>
<path fill="none" stroke="#191970" d="M592.447,-324.0928C581.5951,-312.6543 569.2072,-299.5968 559.6091,-289.4799"/>
<polygon fill="#191970" stroke="#191970" points="562.0142,-286.9296 552.5924,-282.0839 556.9359,-291.7475 562.0142,-286.9296"/>
</g>
<!-- Node13 -->
<g id="node14" class="node">
<title>Node13</title>
<g id="a_node14"><a xlink:href="../../db/dd0/Detectors_2CPV_2base_2include_2CPVBase_2Hit_8h.html" target="_top" xlink:title="CPVBase/Hit.h">
<polygon fill="none" stroke="#000000" points="774.5,-263 774.5,-282 860.5,-282 860.5,-263 774.5,-263"/>
<text text-anchor="middle" x="817.5" y="-270" font-family="Helvetica,sans-Serif" font-size="10.00" fill="#000000">CPVBase/Hit.h</text>
</a>
</g>
</g>
<!-- Node0&#45;&gt;Node13 -->
<g id="edge13" class="edge">
<title>Node0&#45;&gt;Node13</title>
<path fill="none" stroke="#191970" d="M684.3752,-324.4187C717.5481,-311.4812 756.2038,-296.4055 783.2868,-285.8432"/>
<polygon fill="#191970" stroke="#191970" points="784.6647,-289.0626 792.7095,-282.1683 782.1212,-282.541 784.6647,-289.0626"/>
</g>
<!-- Node33 -->
<g id="node34" class="node">
<title>Node33</title>
<g id="a_node34"><a xlink:href="../../d7/dcd/MCCompLabel_8h.html" target="_top" xlink:title="SimulationDataFormat\l/MCCompLabel.h">
<polygon fill="none" stroke="#000000" points="629,-257.5 629,-287.5 756,-287.5 756,-257.5 629,-257.5"/>
<text text-anchor="start" x="637" y="-275.5" font-family="Helvetica,sans-Serif" font-size="10.00" fill="#000000">SimulationDataFormat</text>
<text text-anchor="middle" x="692.5" y="-264.5" font-family="Helvetica,sans-Serif" font-size="10.00" fill="#000000">/MCCompLabel.h</text>
</a>
</g>
</g>
<!-- Node0&#45;&gt;Node33 -->
<g id="edge34" class="edge">
<title>Node0&#45;&gt;Node33</title>
<path fill="none" stroke="#191970" d="M642.8916,-324.0928C652.0548,-314.563 662.2986,-303.9094 671.0876,-294.7689"/>
<polygon fill="#191970" stroke="#191970" points="673.6644,-297.1388 678.0725,-287.5046 668.6185,-292.287 673.6644,-297.1388"/>
</g>
<!-- Node34 -->
<g id="node35" class="node">
<title>Node34</title>
<g id="a_node35"><a xlink:href="../../db/d14/MCTruthContainer_8h.html" target="_top" xlink:title="Definition of a container to keep Monte Carlo truth external to simulation objects. ">
<polygon fill="none" stroke="#000000" points="1298,-257.5 1298,-287.5 1425,-287.5 1425,-257.5 1298,-257.5"/>
<text text-anchor="start" x="1306" y="-275.5" font-family="Helvetica,sans-Serif" font-size="10.00" fill="#000000">SimulationDataFormat</text>
<text text-anchor="middle" x="1361.5" y="-264.5" font-family="Helvetica,sans-Serif" font-size="10.00" fill="#000000">/MCTruthContainer.h</text>
</a>
</g>
</g>
<!-- Node0&#45;&gt;Node34 -->
<g id="edge36" class="edge">
<title>Node0&#45;&gt;Node34</title>
<path fill="none" stroke="#191970" d="M708.729,-340.9357C857.8789,-325.299 1150.9944,-294.5691 1287.8497,-280.2214"/>
<polygon fill="#191970" stroke="#191970" points="1288.2453,-283.6992 1297.8258,-279.1755 1287.5154,-276.7374 1288.2453,-283.6992"/>
</g>
<!-- Node2 -->
<g id="node3" class="node">
<title>Node2</title>
<polygon fill="none" stroke="#bfbfbf" points="205,-196 205,-215 252,-215 252,-196 205,-196"/>
<text text-anchor="middle" x="228.5" y="-203" font-family="Helvetica,sans-Serif" font-size="10.00" fill="#000000">cmath</text>
</g>
<!-- Node1&#45;&gt;Node2 -->
<g id="edge2" class="edge">
<title>Node1&#45;&gt;Node2</title>
<path fill="none" stroke="#191970" d="M228.5,-262.9005C228.5,-253.149 228.5,-237.7597 228.5,-225.3695"/>
<polygon fill="#191970" stroke="#191970" points="232.0001,-225.0816 228.5,-215.0817 225.0001,-225.0817 232.0001,-225.0816"/>
</g>
<!-- Node3 -->
<g id="node4" class="node">
<title>Node3</title>
<g id="a_node4"><a xlink:href="../../df/d5d/common_2include_2CommonDataFormat_2TimeStamp_8h.html" target="_top" xlink:title="CommonDataFormat/TimeStamp.h">
<polygon fill="none" stroke="#000000" points="0,-196 0,-215 187,-215 187,-196 0,-196"/>
<text text-anchor="middle" x="93.5" y="-203" font-family="Helvetica,sans-Serif" font-size="10.00" fill="#000000">CommonDataFormat/TimeStamp.h</text>
</a>
</g>
</g>
<!-- Node1&#45;&gt;Node3 -->
<g id="edge3" class="edge">
<title>Node1&#45;&gt;Node3</title>
<path fill="none" stroke="#191970" d="M209.1578,-262.9005C186.3013,-251.5569 148.073,-232.5844 121.8666,-219.5783"/>
<polygon fill="#191970" stroke="#191970" points="123.3198,-216.3922 112.8063,-215.0817 120.2079,-222.6624 123.3198,-216.3922"/>
</g>
<!-- Node4 -->
<g id="node5" class="node">
<title>Node4</title>
<g id="a_node5"><a xlink:href="../../d2/d45/GPUCommonRtypes_8h.html" target="_top" xlink:title="GPUCommonRtypes.h">
<polygon fill="none" stroke="#000000" points="31,-134.5 31,-153.5 156,-153.5 156,-134.5 31,-134.5"/>
<text text-anchor="middle" x="93.5" y="-141.5" font-family="Helvetica,sans-Serif" font-size="10.00" fill="#000000">GPUCommonRtypes.h</text>
</a>
</g>
</g>
<!-- Node3&#45;&gt;Node4 -->
<g id="edge4" class="edge">
<title>Node3&#45;&gt;Node4</title>
<path fill="none" stroke="#191970" d="M93.5,-195.8906C93.5,-187.3657 93.5,-174.6392 93.5,-163.9235"/>
<polygon fill="#191970" stroke="#191970" points="97.0001,-163.7448 93.5,-153.7449 90.0001,-163.7449 97.0001,-163.7448"/>
</g>
<!-- Node5 -->
<g id="node6" class="node">
<title>Node5</title>
<polygon fill="none" stroke="#bfbfbf" points="59,-73 59,-92 118,-92 118,-73 59,-73"/>
<text text-anchor="middle" x="88.5" y="-80" font-family="Helvetica,sans-Serif" font-size="10.00" fill="#000000">Rtypes.h</text>
</g>
<!-- Node4&#45;&gt;Node5 -->
<g id="edge5" class="edge">
<title>Node4&#45;&gt;Node5</title>
<path fill="none" stroke="#191970" d="M92.7188,-134.3906C92.0257,-125.8657 90.991,-113.1392 90.1198,-102.4235"/>
<polygon fill="#191970" stroke="#191970" points="93.5912,-101.9283 89.2923,-92.2449 86.6142,-102.4956 93.5912,-101.9283"/>
</g>
<!-- Node7 -->
<g id="node8" class="node">
<title>Node7</title>
<polygon fill="none" stroke="#bfbfbf" points="446.5,-196 446.5,-215 490.5,-215 490.5,-196 446.5,-196"/>
<text text-anchor="middle" x="468.5" y="-203" font-family="Helvetica,sans-Serif" font-size="10.00" fill="#000000">string</text>
</g>
<!-- Node6&#45;&gt;Node7 -->
<g id="edge7" class="edge">
<title>Node6&#45;&gt;Node7</title>
<path fill="none" stroke="#191970" d="M408.5293,-262.9005C419.6531,-252.2535 437.7987,-234.8856 451.221,-222.0385"/>
<polygon fill="#191970" stroke="#191970" points="453.6852,-224.5247 458.4893,-215.0817 448.845,-219.4678 453.6852,-224.5247"/>
</g>
<!-- Node8 -->
<g id="node9" class="node">
<title>Node8</title>
<polygon fill="none" stroke="#bfbfbf" points="270.5,-196 270.5,-215 354.5,-215 354.5,-196 270.5,-196"/>
<text text-anchor="middle" x="312.5" y="-203" font-family="Helvetica,sans-Serif" font-size="10.00" fill="#000000">RStringView.h</text>
</g>
<!-- Node6&#45;&gt;Node8 -->
<g id="edge8" class="edge">
<title>Node6&#45;&gt;Node8</title>
<path fill="none" stroke="#191970" d="M386.1783,-262.9005C372.2565,-252.0544 349.3824,-234.2339 332.81,-221.3229"/>
<polygon fill="#191970" stroke="#191970" points="334.8385,-218.4664 324.7988,-215.0817 330.5364,-223.9885 334.8385,-218.4664"/>
</g>
<!-- Node9 -->
<g id="node10" class="node">
<title>Node9</title>
<polygon fill="none" stroke="#bfbfbf" points="372.5,-196 372.5,-215 428.5,-215 428.5,-196 372.5,-196"/>
<text text-anchor="middle" x="400.5" y="-203" font-family="Helvetica,sans-Serif" font-size="10.00" fill="#000000">TMath.h</text>
</g>
<!-- Node6&#45;&gt;Node9 -->
<g id="edge9" class="edge">
<title>Node6&#45;&gt;Node9</title>
<path fill="none" stroke="#191970" d="M398.7866,-262.9005C399.0776,-253.149 399.537,-237.7597 399.9069,-225.3695"/>
<polygon fill="#191970" stroke="#191970" points="403.414,-225.1817 400.214,-215.0817 396.4171,-224.9727 403.414,-225.1817"/>
</g>
<!-- Node11 -->
<g id="node12" class="node">
<title>Node11</title>
<polygon fill="none" stroke="#bfbfbf" points="592.5,-196 592.5,-215 634.5,-215 634.5,-196 592.5,-196"/>
<text text-anchor="middle" x="613.5" y="-203" font-family="Helvetica,sans-Serif" font-size="10.00" fill="#000000">array</text>
</g>
<!-- Node10&#45;&gt;Node11 -->
<g id="edge11" class="edge">
<title>Node10&#45;&gt;Node11</title>
<path fill="none" stroke="#191970" d="M553.5293,-262.9005C564.6531,-252.2535 582.7987,-234.8856 596.221,-222.0385"/>
<polygon fill="#191970" stroke="#191970" points="598.6852,-224.5247 603.4893,-215.0817 593.845,-219.4678 598.6852,-224.5247"/>
</g>
<!-- Node12 -->
<g id="node13" class="node">
<title>Node12</title>
<polygon fill="none" stroke="#bfbfbf" points="511,-196 511,-215 574,-215 574,-196 511,-196"/>
<text text-anchor="middle" x="542.5" y="-203" font-family="Helvetica,sans-Serif" font-size="10.00" fill="#000000">TObject.h</text>
</g>
<!-- Node10&#45;&gt;Node12 -->
<g id="edge12" class="edge">
<title>Node10&#45;&gt;Node12</title>
<path fill="none" stroke="#191970" d="M543.3567,-262.9005C543.2112,-253.149 542.9815,-237.7597 542.7966,-225.3695"/>
<polygon fill="#191970" stroke="#191970" points="546.292,-225.0283 542.643,-215.0817 539.2927,-225.1328 546.292,-225.0283"/>
</g>
<!-- Node14 -->
<g id="node15" class="node">
<title>Node14</title>
<g id="a_node15"><a xlink:href="../../d4/d25/BaseHits_8h.html" target="_top" xlink:title="SimulationDataFormat\l/BaseHits.h">
<polygon fill="none" stroke="#000000" points="727,-190.5 727,-220.5 854,-220.5 854,-190.5 727,-190.5"/>
<text text-anchor="start" x="735" y="-208.5" font-family="Helvetica,sans-Serif" font-size="10.00" fill="#000000">SimulationDataFormat</text>
<text text-anchor="middle" x="790.5" y="-197.5" font-family="Helvetica,sans-Serif" font-size="10.00" fill="#000000">/BaseHits.h</text>
</a>
</g>
</g>
<!-- Node13&#45;&gt;Node14 -->
<g id="edge14" class="edge">
<title>Node13&#45;&gt;Node14</title>
<path fill="none" stroke="#191970" d="M813.6316,-262.9005C810.1805,-254.3368 804.9773,-241.4252 800.3793,-230.0152"/>
<polygon fill="#191970" stroke="#191970" points="803.5377,-228.4887 796.5535,-220.5218 797.0451,-231.1052 803.5377,-228.4887"/>
</g>
<!-- Node26 -->
<g id="node27" class="node">
<title>Node26</title>
<g id="a_node27"><a xlink:href="../../d0/d91/ShmAllocator_8h.html" target="_top" xlink:title="CommonUtils/ShmAllocator.h">
<polygon fill="none" stroke="#000000" points="883.5,-196 883.5,-215 1043.5,-215 1043.5,-196 883.5,-196"/>
<text text-anchor="middle" x="963.5" y="-203" font-family="Helvetica,sans-Serif" font-size="10.00" fill="#000000">CommonUtils/ShmAllocator.h</text>
</a>
</g>
</g>
<!-- Node13&#45;&gt;Node26 -->
<g id="edge27" class="edge">
<title>Node13&#45;&gt;Node26</title>
<path fill="none" stroke="#191970" d="M838.4182,-262.9005C863.2456,-251.5072 904.8433,-232.4178 933.1942,-219.4075"/>
<polygon fill="#191970" stroke="#191970" points="934.9917,-222.4336 942.6206,-215.0817 932.0721,-216.0715 934.9917,-222.4336"/>
</g>
<!-- Node15 -->
<g id="node16" class="node">
<title>Node15</title>
<g id="a_node16"><a xlink:href="../../dd/d76/Cartesian3D_8h.html" target="_top" xlink:title="MathUtils/Cartesian3D.h">
<polygon fill="none" stroke="#000000" points="569,-134.5 569,-153.5 704,-153.5 704,-134.5 569,-134.5"/>
<text text-anchor="middle" x="636.5" y="-141.5" font-family="Helvetica,sans-Serif" font-size="10.00" fill="#000000">MathUtils/Cartesian3D.h</text>
</a>
</g>
</g>
<!-- Node14&#45;&gt;Node15 -->
<g id="edge15" class="edge">
<title>Node14&#45;&gt;Node15</title>
<path fill="none" stroke="#191970" d="M752.8274,-190.4554C727.4702,-180.329 694.3348,-167.0964 669.9174,-157.3453"/>
<polygon fill="#191970" stroke="#191970" points="670.9495,-153.9887 660.3645,-153.5303 668.3533,-160.4895 670.9495,-153.9887"/>
</g>
<!-- Node15&#45;&gt;Node5 -->
<g id="edge21" class="edge">
<title>Node15&#45;&gt;Node5</title>
<path fill="none" stroke="#191970" d="M568.798,-140.3048C450.155,-133.4254 209.4904,-117.5621 127.5,-98 124.643,-97.3184 121.7188,-96.467 118.8192,-95.5164"/>
<polygon fill="#191970" stroke="#191970" points="119.784,-92.1428 109.1901,-92.0038 117.3851,-98.7189 119.784,-92.1428"/>
</g>
<!-- Node16 -->
<g id="node17" class="node">
<title>Node16</title>
<polygon fill="none" stroke="#bfbfbf" points="457.5,-67.5 457.5,-97.5 621.5,-97.5 621.5,-67.5 457.5,-67.5"/>
<text text-anchor="start" x="465.5" y="-85.5" font-family="Helvetica,sans-Serif" font-size="10.00" fill="#000000">Math/GenVector/Displacement</text>
<text text-anchor="middle" x="539.5" y="-74.5" font-family="Helvetica,sans-Serif" font-size="10.00" fill="#000000">Vector3D.h</text>
</g>
<!-- Node15&#45;&gt;Node16 -->
<g id="edge16" class="edge">
<title>Node15&#45;&gt;Node16</title>
<path fill="none" stroke="#191970" d="M621.3438,-134.3906C608.216,-126.0673 588.7711,-113.7389 572.1285,-103.1872"/>
<polygon fill="#191970" stroke="#191970" points="573.5486,-99.9433 563.2289,-97.5446 569.8003,-105.8553 573.5486,-99.9433"/>
</g>
<!-- Node17 -->
<g id="node18" class="node">
<title>Node17</title>
<polygon fill="none" stroke="#bfbfbf" points="640,-73 640,-92 829,-92 829,-73 640,-73"/>
<text text-anchor="middle" x="734.5" y="-80" font-family="Helvetica,sans-Serif" font-size="10.00" fill="#000000">Math/GenVector/PositionVector3D.h</text>
</g>
<!-- Node15&#45;&gt;Node17 -->
<g id="edge17" class="edge">
<title>Node15&#45;&gt;Node17</title>
<path fill="none" stroke="#191970" d="M651.8125,-134.3906C667.5624,-124.5067 692.3123,-108.9749 710.6337,-97.4773"/>
<polygon fill="#191970" stroke="#191970" points="712.6852,-100.3221 719.295,-92.0419 708.9643,-94.3929 712.6852,-100.3221"/>
</g>
<!-- Node18 -->
<g id="node19" class="node">
<title>Node18</title>
<polygon fill="none" stroke="#bfbfbf" points="847.5,-73 847.5,-92 1007.5,-92 1007.5,-73 847.5,-73"/>
<text text-anchor="middle" x="927.5" y="-80" font-family="Helvetica,sans-Serif" font-size="10.00" fill="#000000">Math/GenVector/Rotation3D.h</text>
</g>
<!-- Node15&#45;&gt;Node18 -->
<g id="edge18" class="edge">
<title>Node15&#45;&gt;Node18</title>
<path fill="none" stroke="#191970" d="M681.6495,-134.4581C733.0478,-123.5956 817.0205,-105.8488 872.2758,-94.1711"/>
<polygon fill="#191970" stroke="#191970" points="873.1845,-97.5565 882.2446,-92.0643 871.737,-90.7077 873.1845,-97.5565"/>
</g>
<!-- Node19 -->
<g id="node20" class="node">
<title>Node19</title>
<polygon fill="none" stroke="#bfbfbf" points="1025.5,-73 1025.5,-92 1193.5,-92 1193.5,-73 1025.5,-73"/>
<text text-anchor="middle" x="1109.5" y="-80" font-family="Helvetica,sans-Serif" font-size="10.00" fill="#000000">Math/GenVector/Transform3D.h</text>
</g>
<!-- Node15&#45;&gt;Node19 -->
<g id="edge19" class="edge">
<title>Node15&#45;&gt;Node19</title>
<path fill="none" stroke="#191970" d="M704.2337,-136.7248C780.33,-128.3366 907.474,-113.6764 1016.5,-98 1025.7591,-96.6687 1035.5189,-95.1593 1045.0944,-93.6177"/>
<polygon fill="#191970" stroke="#191970" points="1045.6715,-97.0699 1054.9777,-92.0057 1044.5446,-90.1612 1045.6715,-97.0699"/>
</g>
<!-- Node20 -->
<g id="node21" class="node">
<title>Node20</title>
<polygon fill="none" stroke="#bfbfbf" points="1212,-73 1212,-92 1385,-92 1385,-73 1212,-73"/>
<text text-anchor="middle" x="1298.5" y="-80" font-family="Helvetica,sans-Serif" font-size="10.00" fill="#000000">Math/GenVector/Translation3D.h</text>
</g>
<!-- Node15&#45;&gt;Node20 -->
<g id="edge20" class="edge">
<title>Node15&#45;&gt;Node20</title>
<path fill="none" stroke="#191970" d="M704.1961,-140.232C810.5468,-133.9222 1023.1496,-119.7325 1202.5,-98 1212.7877,-96.7534 1223.6612,-95.2135 1234.2481,-93.5926"/>
<polygon fill="#191970" stroke="#191970" points="1234.9445,-97.0263 1244.2822,-92.0206 1233.861,-90.1106 1234.9445,-97.0263"/>
</g>
<!-- Node21 -->
<g id="node22" class="node">
<title>Node21</title>
<polygon fill="none" stroke="#bfbfbf" points="136.5,-73 136.5,-92 218.5,-92 218.5,-73 136.5,-73"/>
<text text-anchor="middle" x="177.5" y="-80" font-family="Helvetica,sans-Serif" font-size="10.00" fill="#000000">TGeoMatrix.h</text>
</g>
<!-- Node15&#45;&gt;Node21 -->
<g id="edge22" class="edge">
<title>Node15&#45;&gt;Node21</title>
<path fill="none" stroke="#191970" d="M568.9339,-140.3148C487.3287,-134.9674 346.2222,-122.8461 227.5,-98 223.347,-97.1309 219.0457,-96.0632 214.7885,-94.8983"/>
<polygon fill="#191970" stroke="#191970" points="215.6052,-91.4908 205.0252,-92.0516 213.6457,-98.211 215.6052,-91.4908"/>
</g>
<!-- Node22 -->
<g id="node23" class="node">
<title>Node22</title>
<polygon fill="none" stroke="#bfbfbf" points="237,-73 237,-92 286,-92 286,-73 237,-73"/>
<text text-anchor="middle" x="261.5" y="-80" font-family="Helvetica,sans-Serif" font-size="10.00" fill="#000000">iosfwd</text>
</g>
<!-- Node15&#45;&gt;Node22 -->
<g id="edge23" class="edge">
<title>Node15&#45;&gt;Node22</title>
<path fill="none" stroke="#191970" d="M568.7145,-140.976C498.7862,-136.4526 387.1692,-125.2914 294.5,-98 292.5874,-97.4367 290.6458,-96.7774 288.7113,-96.0542"/>
<polygon fill="#191970" stroke="#191970" points="289.8388,-92.7308 279.2656,-92.0545 287.1094,-99.1767 289.8388,-92.7308"/>
</g>
<!-- Node23 -->
<g id="node24" class="node">
<title>Node23</title>
<g id="a_node24"><a xlink:href="../../d2/dd0/Cartesian2D_8h.html" target="_top" xlink:title="MathUtils/Cartesian2D.h">
<polygon fill="none" stroke="#000000" points="304,-73 304,-92 439,-92 439,-73 304,-73"/>
<text text-anchor="middle" x="371.5" y="-80" font-family="Helvetica,sans-Serif" font-size="10.00" fill="#000000">MathUtils/Cartesian2D.h</text>
</a>
</g>
</g>
<!-- Node15&#45;&gt;Node23 -->
<g id="edge24" class="edge">
<title>Node15&#45;&gt;Node23</title>
<path fill="none" stroke="#191970" d="M595.3845,-134.4581C548.8698,-123.6632 473.0592,-106.0694 422.7327,-94.3899"/>
<polygon fill="#191970" stroke="#191970" points="423.2443,-90.9156 412.7119,-92.0643 421.6618,-97.7344 423.2443,-90.9156"/>
</g>
<!-- Node24 -->
<g id="node25" class="node">
<title>Node24</title>
<polygon fill="none" stroke="#bfbfbf" points="191.5,-.5 191.5,-30.5 355.5,-30.5 355.5,-.5 191.5,-.5"/>
<text text-anchor="start" x="199.5" y="-18.5" font-family="Helvetica,sans-Serif" font-size="10.00" fill="#000000">Math/GenVector/Displacement</text>
<text text-anchor="middle" x="273.5" y="-7.5" font-family="Helvetica,sans-Serif" font-size="10.00" fill="#000000">Vector2D.h</text>
</g>
<!-- Node23&#45;&gt;Node24 -->
<g id="edge25" class="edge">
<title>Node23&#45;&gt;Node24</title>
<path fill="none" stroke="#191970" d="M357.459,-72.9005C343.5412,-63.3853 321.772,-48.5023 303.888,-36.2755"/>
<polygon fill="#191970" stroke="#191970" points="305.7026,-33.2763 295.4721,-30.5218 301.7519,-39.0549 305.7026,-33.2763"/>
</g>
<!-- Node25 -->
<g id="node26" class="node">
<title>Node25</title>
<polygon fill="none" stroke="#bfbfbf" points="374,-6 374,-25 563,-25 563,-6 374,-6"/>
<text text-anchor="middle" x="468.5" y="-13" font-family="Helvetica,sans-Serif" font-size="10.00" fill="#000000">Math/GenVector/PositionVector2D.h</text>
</g>
<!-- Node23&#45;&gt;Node25 -->
<g id="edge26" class="edge">
<title>Node23&#45;&gt;Node25</title>
<path fill="none" stroke="#191970" d="M385.3977,-72.9005C401.3164,-61.9052 427.6121,-43.7422 446.3599,-30.7927"/>
<polygon fill="#191970" stroke="#191970" points="448.3892,-33.6448 454.628,-25.0817 444.4108,-27.8852 448.3892,-33.6448"/>
</g>
<!-- Node27 -->
<g id="node28" class="node">
<title>Node27</title>
<g id="a_node28"><a xlink:href="../../de/d61/ShmManager_8h.html" target="_top" xlink:title="CommonUtils/ShmManager.h">
<polygon fill="none" stroke="#000000" points="1471.5,-134.5 1471.5,-153.5 1629.5,-153.5 1629.5,-134.5 1471.5,-134.5"/>
<text text-anchor="middle" x="1550.5" y="-141.5" font-family="Helvetica,sans-Serif" font-size="10.00" fill="#000000">CommonUtils/ShmManager.h</text>
</a>
</g>
</g>
<!-- Node26&#45;&gt;Node27 -->
<g id="edge28" class="edge">
<title>Node26&#45;&gt;Node27</title>
<path fill="none" stroke="#191970" d="M1014.7955,-195.9518C1027.4208,-193.7991 1040.9254,-191.6621 1053.5,-190 1195.5222,-171.2271 1361.3826,-157.5169 1461.0627,-150.1596"/>
<polygon fill="#191970" stroke="#191970" points="1461.3776,-153.646 1471.0949,-149.4241 1460.8657,-146.6647 1461.3776,-153.646"/>
</g>
<!-- Node32 -->
<g id="node33" class="node">
<title>Node32</title>
<polygon fill="none" stroke="#bfbfbf" points="1647.5,-134.5 1647.5,-153.5 1699.5,-153.5 1699.5,-134.5 1647.5,-134.5"/>
<text text-anchor="middle" x="1673.5" y="-141.5" font-family="Helvetica,sans-Serif" font-size="10.00" fill="#000000">cassert</text>
</g>
<!-- Node26&#45;&gt;Node32 -->
<g id="edge33" class="edge">
<title>Node26&#45;&gt;Node32</title>
<path fill="none" stroke="#191970" d="M1012.8742,-195.9989C1026.034,-193.7402 1040.2713,-191.5415 1053.5,-190 1308.9563,-160.2321 1379.9624,-197.0812 1637.2498,-153.8625"/>
<polygon fill="#191970" stroke="#191970" points="1637.9982,-157.2855 1647.2681,-152.1553 1636.8222,-150.385 1637.9982,-157.2855"/>
</g>
<!-- Node28 -->
<g id="node29" class="node">
<title>Node28</title>
<polygon fill="none" stroke="#bfbfbf" points="1809.5,-73 1809.5,-92 1841.5,-92 1841.5,-73 1809.5,-73"/>
<text text-anchor="middle" x="1825.5" y="-80" font-family="Helvetica,sans-Serif" font-size="10.00" fill="#000000">list</text>
</g>
<!-- Node27&#45;&gt;Node28 -->
<g id="edge29" class="edge">
<title>Node27&#45;&gt;Node28</title>
<path fill="none" stroke="#191970" d="M1618.0608,-134.4588C1680.369,-125.137 1767.9764,-110.5579 1800.5,-98 1801.3545,-97.67 1802.2121,-97.3102 1803.068,-96.9264"/>
<polygon fill="#191970" stroke="#191970" points="1804.8054,-99.9662 1811.9659,-92.1574 1801.4986,-93.7965 1804.8054,-99.9662"/>
</g>
<!-- Node29 -->
<g id="node30" class="node">
<title>Node29</title>
<polygon fill="none" stroke="#bfbfbf" points="1403,-73 1403,-92 1456,-92 1456,-73 1403,-73"/>
<text text-anchor="middle" x="1429.5" y="-80" font-family="Helvetica,sans-Serif" font-size="10.00" fill="#000000">cstddef</text>
</g>
<!-- Node27&#45;&gt;Node29 -->
<g id="edge30" class="edge">
<title>Node27&#45;&gt;Node29</title>
<path fill="none" stroke="#191970" d="M1531.5938,-134.3906C1511.7034,-124.2811 1480.1877,-108.2628 1457.4308,-96.6962"/>
<polygon fill="#191970" stroke="#191970" points="1458.774,-93.4528 1448.2735,-92.0419 1455.6022,-99.693 1458.774,-93.4528"/>
</g>
<!-- Node30 -->
<g id="node31" class="node">
<title>Node30</title>
<polygon fill="none" stroke="#bfbfbf" points="1474,-67.5 1474,-97.5 1639,-97.5 1639,-67.5 1474,-67.5"/>
<text text-anchor="start" x="1482" y="-85.5" font-family="Helvetica,sans-Serif" font-size="10.00" fill="#000000">boost/interprocess</text>
<text text-anchor="middle" x="1556.5" y="-74.5" font-family="Helvetica,sans-Serif" font-size="10.00" fill="#000000">/managed_external_buffer.hpp</text>
</g>
<!-- Node27&#45;&gt;Node30 -->
<g id="edge31" class="edge">
<title>Node27&#45;&gt;Node30</title>
<path fill="none" stroke="#191970" d="M1551.4375,-134.3906C1552.1367,-127.2234 1553.1257,-117.0862 1554.0443,-107.671"/>
<polygon fill="#191970" stroke="#191970" points="1557.5446,-107.8372 1555.0322,-97.5446 1550.5777,-107.1575 1557.5446,-107.8372"/>
</g>
<!-- Node31 -->
<g id="node32" class="node">
<title>Node31</title>
<polygon fill="none" stroke="#bfbfbf" points="1657.5,-67.5 1657.5,-97.5 1791.5,-97.5 1791.5,-67.5 1657.5,-67.5"/>
<text text-anchor="start" x="1665.5" y="-85.5" font-family="Helvetica,sans-Serif" font-size="10.00" fill="#000000">boost/interprocess</text>
<text text-anchor="middle" x="1724.5" y="-74.5" font-family="Helvetica,sans-Serif" font-size="10.00" fill="#000000">/allocators/allocator.hpp</text>
</g>
<!-- Node27&#45;&gt;Node31 -->
<g id="edge32" class="edge">
<title>Node27&#45;&gt;Node31</title>
<path fill="none" stroke="#191970" d="M1577.6875,-134.3906C1602.8716,-125.4893 1641.0159,-112.0073 1672.1118,-101.0165"/>
<polygon fill="#191970" stroke="#191970" points="1673.6728,-104.1771 1681.9348,-97.5446 1671.34,-97.5772 1673.6728,-104.1771"/>
</g>
<!-- Node33&#45;&gt;Node4 -->
<g id="edge35" class="edge">
<title>Node33&#45;&gt;Node4</title>
<path fill="none" stroke="#191970" d="M688.2017,-257.2618C681.8782,-237.9632 668.0719,-205.376 643.5,-190 603.977,-165.2682 306.6437,-151.5536 166.3564,-146.3993"/>
<polygon fill="#191970" stroke="#191970" points="166.2461,-142.8931 156.1258,-146.0284 165.9924,-149.8885 166.2461,-142.8931"/>
</g>
<!-- Node34&#45;&gt;Node32 -->
<g id="edge39" class="edge">
<title>Node34&#45;&gt;Node32</title>
<path fill="none" stroke="#191970" d="M1425.2846,-269.2761C1501.2877,-264.1101 1622.0911,-251.2789 1654.5,-221 1670.0162,-206.5036 1673.7332,-181.5291 1674.2361,-163.9618"/>
<polygon fill="#191970" stroke="#191970" points="1677.735,-163.6574 1674.1942,-153.6718 1670.7351,-163.686 1677.735,-163.6574"/>
</g>
<!-- Node35 -->
<g id="node36" class="node">
<title>Node35</title>
<polygon fill="none" stroke="#bfbfbf" points="1062,-196 1062,-215 1129,-215 1129,-196 1062,-196"/>
<text text-anchor="middle" x="1095.5" y="-203" font-family="Helvetica,sans-Serif" font-size="10.00" fill="#000000">TNamed.h</text>
</g>
<!-- Node34&#45;&gt;Node35 -->
<g id="edge37" class="edge">
<title>Node34&#45;&gt;Node35</title>
<path fill="none" stroke="#191970" d="M1297.5366,-259.8405C1252.6707,-250.448 1191.4799,-236.6061 1138.5,-221 1135.7168,-220.1802 1132.8515,-219.2783 1129.9843,-218.3347"/>
<polygon fill="#191970" stroke="#191970" points="1130.94,-214.9623 1120.3454,-215.0234 1128.6657,-221.5825 1130.94,-214.9623"/>
</g>
<!-- Node36 -->
<g id="node37" class="node">
<title>Node36</title>
<polygon fill="none" stroke="#bfbfbf" points="1147.5,-196 1147.5,-215 1197.5,-215 1197.5,-196 1147.5,-196"/>
<text text-anchor="middle" x="1172.5" y="-203" font-family="Helvetica,sans-Serif" font-size="10.00" fill="#000000">cstdint</text>
</g>
<!-- Node34&#45;&gt;Node36 -->
<g id="edge38" class="edge">
<title>Node34&#45;&gt;Node36</title>
<path fill="none" stroke="#191970" d="M1312.53,-257.4236C1282.0566,-247.7221 1242.197,-234.4502 1207.5,-221 1205.8812,-220.3725 1204.2283,-219.7116 1202.5651,-219.0308"/>
<polygon fill="#191970" stroke="#191970" points="1203.6653,-215.6954 1193.0929,-215.0053 1200.9274,-222.1378 1203.6653,-215.6954"/>
</g>
<!-- Node37 -->
<g id="node38" class="node">
<title>Node37</title>
<polygon fill="none" stroke="#bfbfbf" points="1216,-196 1216,-215 1281,-215 1281,-196 1216,-196"/>
<text text-anchor="middle" x="1248.5" y="-203" font-family="Helvetica,sans-Serif" font-size="10.00" fill="#000000">stdexcept</text>
</g>
<!-- Node34&#45;&gt;Node37 -->
<g id="edge40" class="edge">
<title>Node34&#45;&gt;Node37</title>
<path fill="none" stroke="#191970" d="M1336.1406,-257.4639C1317.4369,-246.3741 1292.1119,-231.3584 1273.495,-220.32"/>
<polygon fill="#191970" stroke="#191970" points="1275.0844,-217.1935 1264.6977,-215.1039 1271.5143,-223.2147 1275.0844,-217.1935"/>
</g>
<!-- Node38 -->
<g id="node39" class="node">
<title>Node38</title>
<polygon fill="none" stroke="#bfbfbf" points="1299.5,-196 1299.5,-215 1347.5,-215 1347.5,-196 1299.5,-196"/>
<text text-anchor="middle" x="1323.5" y="-203" font-family="Helvetica,sans-Serif" font-size="10.00" fill="#000000">gsl/gsl</text>
</g>
<!-- Node34&#45;&gt;Node38 -->
<g id="edge41" class="edge">
<title>Node34&#45;&gt;Node38</title>
<path fill="none" stroke="#191970" d="M1352.8772,-257.2967C1347.244,-247.3645 1339.8553,-234.3371 1333.8973,-223.8321"/>
<polygon fill="#191970" stroke="#191970" points="1336.8971,-222.0266 1328.9192,-215.055 1330.8083,-225.4801 1336.8971,-222.0266"/>
</g>
<!-- Node39 -->
<g id="node40" class="node">
<title>Node39</title>
<polygon fill="none" stroke="#bfbfbf" points="1366,-196 1366,-215 1435,-215 1435,-196 1366,-196"/>
<text text-anchor="middle" x="1400.5" y="-203" font-family="Helvetica,sans-Serif" font-size="10.00" fill="#000000">type_traits</text>
</g>
<!-- Node34&#45;&gt;Node39 -->
<g id="edge42" class="edge">
<title>Node34&#45;&gt;Node39</title>
<path fill="none" stroke="#191970" d="M1370.3497,-257.2967C1376.1311,-247.3645 1383.7142,-234.3371 1389.8291,-223.8321"/>
<polygon fill="#191970" stroke="#191970" points="1392.9323,-225.4582 1394.9382,-215.055 1386.8825,-221.9367 1392.9323,-225.4582"/>
</g>
<!-- Node40 -->
<g id="node41" class="node">
<title>Node40</title>
<polygon fill="none" stroke="#bfbfbf" points="1453.5,-196 1453.5,-215 1503.5,-215 1503.5,-196 1453.5,-196"/>
<text text-anchor="middle" x="1478.5" y="-203" font-family="Helvetica,sans-Serif" font-size="10.00" fill="#000000">cstring</text>
</g>
<!-- Node34&#45;&gt;Node40 -->
<g id="edge43" class="edge">
<title>Node34&#45;&gt;Node40</title>
<path fill="none" stroke="#191970" d="M1387.7571,-257.4639C1407.2113,-246.3234 1433.5839,-231.2212 1452.8839,-220.1691"/>
<polygon fill="#191970" stroke="#191970" points="1454.7904,-223.1106 1461.729,-215.1039 1451.3118,-217.0361 1454.7904,-223.1106"/>
</g>
<!-- Node41 -->
<g id="node42" class="node">
<title>Node41</title>
<polygon fill="none" stroke="#bfbfbf" points="1521.5,-196 1521.5,-215 1579.5,-215 1579.5,-196 1521.5,-196"/>
<text text-anchor="middle" x="1550.5" y="-203" font-family="Helvetica,sans-Serif" font-size="10.00" fill="#000000">memory</text>
</g>
<!-- Node34&#45;&gt;Node41 -->
<g id="edge44" class="edge">
<title>Node34&#45;&gt;Node41</title>
<path fill="none" stroke="#191970" d="M1408.0105,-257.42C1437.9951,-247.5057 1477.7376,-234.005 1512.5,-221 1514.3518,-220.3072 1516.2487,-219.5825 1518.1591,-218.8409"/>
<polygon fill="#191970" stroke="#191970" points="1519.6747,-222.005 1527.6776,-215.0621 1517.0918,-215.4989 1519.6747,-222.005"/>
</g>
<!-- Node42 -->
<g id="node43" class="node">
<title>Node42</title>
<polygon fill="none" stroke="#bfbfbf" points="1598,-196 1598,-215 1645,-215 1645,-196 1598,-196"/>
<text text-anchor="middle" x="1621.5" y="-203" font-family="Helvetica,sans-Serif" font-size="10.00" fill="#000000">vector</text>
</g>
<!-- Node34&#45;&gt;Node42 -->
<g id="edge45" class="edge">
<title>Node34&#45;&gt;Node42</title>
<path fill="none" stroke="#191970" d="M1425.1469,-261.8733C1471.2251,-253.2652 1534.6151,-239.5234 1588.5,-221 1590.1461,-220.4341 1591.8194,-219.811 1593.4949,-219.1494"/>
<polygon fill="#191970" stroke="#191970" points="1595.1498,-222.2473 1602.944,-215.0708 1592.3757,-215.8204 1595.1498,-222.2473"/>
</g>
</g>
</svg>
