<?xml version="1.0" encoding="UTF-8" standalone="no"?>
<!DOCTYPE svg PUBLIC "-//W3C//DTD SVG 1.1//EN"
 "http://www.w3.org/Graphics/SVG/1.1/DTD/svg11.dtd">
<!-- Generated by graphviz version 2.40.1 (20161225.0304)
 -->
<!-- Title: /home/travis/build/AliceO2Group/AliceO2/Steer/include/Steer/InteractionSampler.h Pages: 1 -->
<svg width="692pt" height="184pt"
 viewBox="0.00 0.00 691.81 184.00" xmlns="http://www.w3.org/2000/svg" xmlns:xlink="http://www.w3.org/1999/xlink">
<g id="graph0" class="graph" transform="scale(1 1) rotate(0) translate(4 180)">
<title>/home/travis/build/AliceO2Group/AliceO2/Steer/include/Steer/InteractionSampler.h</title>
<!-- Node0 -->
<g id="node1" class="node">
<title>Node0</title>
<polygon fill="#bfbfbf" stroke="#000000" points="118.8095,-123.5 118.8095,-175.5 285.8095,-175.5 285.8095,-123.5 118.8095,-123.5"/>
<text text-anchor="start" x="126.8095" y="-163.5" font-family="Helvetica,sans-Serif" font-size="10.00" fill="#000000">/home/travis/build</text>
<text text-anchor="start" x="126.8095" y="-152.5" font-family="Helvetica,sans-Serif" font-size="10.00" fill="#000000">/AliceO2Group/AliceO2</text>
<text text-anchor="start" x="126.8095" y="-141.5" font-family="Helvetica,sans-Serif" font-size="10.00" fill="#000000">/Steer/include/Steer/Interaction</text>
<text text-anchor="middle" x="202.3095" y="-130.5" font-family="Helvetica,sans-Serif" font-size="10.00" fill="#000000">Sampler.h</text>
</g>
<!-- Node1 -->
<g id="node2" class="node">
<title>Node1</title>
<polygon fill="none" stroke="#bfbfbf" points="26.8095,-.5 26.8095,-19.5 85.8095,-19.5 85.8095,-.5 26.8095,-.5"/>
<text text-anchor="middle" x="56.3095" y="-7.5" font-family="Helvetica,sans-Serif" font-size="10.00" fill="#000000">Rtypes.h</text>
</g>
<!-- Node0&#45;&gt;Node1 -->
<g id="edge1" class="edge">
<title>Node0&#45;&gt;Node1</title>
<path fill="none" stroke="#191970" d="M118.8037,-133.2906C71.6289,-122.2514 19.3487,-106.1828 5.3095,-87 -2.8275,-75.8817 -.289,-68.589 5.3095,-56 10.7602,-43.7432 21.2694,-33.3755 31.3384,-25.6036"/>
<polygon fill="#191970" stroke="#191970" points="33.4838,-28.3721 39.5721,-19.7012 29.4055,-22.6828 33.4838,-28.3721"/>
</g>
<!-- Node2 -->
<g id="node3" class="node">
<title>Node2</title>
<polygon fill="none" stroke="#bfbfbf" points="14.3095,-62 14.3095,-81 70.3095,-81 70.3095,-62 14.3095,-62"/>
<text text-anchor="middle" x="42.3095" y="-69" font-family="Helvetica,sans-Serif" font-size="10.00" fill="#000000">TMath.h</text>
</g>
<!-- Node0&#45;&gt;Node2 -->
<g id="edge2" class="edge">
<title>Node0&#45;&gt;Node2</title>
<path fill="none" stroke="#191970" d="M148.5867,-123.3101C122.7642,-110.7217 92.8326,-96.13 71.3271,-85.6461"/>
<polygon fill="#191970" stroke="#191970" points="72.6066,-82.3761 62.0841,-81.1401 69.5391,-88.6683 72.6066,-82.3761"/>
</g>
<!-- Node3 -->
<g id="node4" class="node">
<title>Node3</title>
<polygon fill="none" stroke="#bfbfbf" points="88.3095,-62 88.3095,-81 160.3095,-81 160.3095,-62 88.3095,-62"/>
<text text-anchor="middle" x="124.3095" y="-69" font-family="Helvetica,sans-Serif" font-size="10.00" fill="#000000">TRandom.h</text>
</g>
<!-- Node0&#45;&gt;Node3 -->
<g id="edge3" class="edge">
<title>Node0&#45;&gt;Node3</title>
<path fill="none" stroke="#191970" d="M175.9022,-123.0928C164.3505,-111.541 151.1475,-98.338 140.9897,-88.1802"/>
<polygon fill="#191970" stroke="#191970" points="143.4393,-85.6801 133.8934,-81.0839 138.4896,-90.6298 143.4393,-85.6801"/>
</g>
<!-- Node4 -->
<g id="node5" class="node">
<title>Node4</title>
<polygon fill="none" stroke="#bfbfbf" points="178.8095,-62 178.8095,-81 225.8095,-81 225.8095,-62 178.8095,-62"/>
<text text-anchor="middle" x="202.3095" y="-69" font-family="Helvetica,sans-Serif" font-size="10.00" fill="#000000">vector</text>
</g>
<!-- Node0&#45;&gt;Node4 -->
<g id="edge4" class="edge">
<title>Node0&#45;&gt;Node4</title>
<path fill="none" stroke="#191970" d="M202.3095,-123.0928C202.3095,-112.6735 202.3095,-100.911 202.3095,-91.2512"/>
<polygon fill="#191970" stroke="#191970" points="205.8096,-91.0838 202.3095,-81.0839 198.8096,-91.0839 205.8096,-91.0838"/>
</g>
<!-- Node5 -->
<g id="node6" class="node">
<title>Node5</title>
<g id="a_node6"><a xlink:href="../../d9/d80/InteractionRecord_8h.html" target="_top" xlink:title="CommonDataFormat/Interaction\lRecord.h">
<polygon fill="none" stroke="#000000" points="244.3095,-56.5 244.3095,-86.5 418.3095,-86.5 418.3095,-56.5 244.3095,-56.5"/>
<text text-anchor="start" x="252.3095" y="-74.5" font-family="Helvetica,sans-Serif" font-size="10.00" fill="#000000">CommonDataFormat/Interaction</text>
<text text-anchor="middle" x="331.3095" y="-63.5" font-family="Helvetica,sans-Serif" font-size="10.00" fill="#000000">Record.h</text>
</a>
</g>
</g>
<!-- Node0&#45;&gt;Node5 -->
<g id="edge5" class="edge">
<title>Node0&#45;&gt;Node5</title>
<path fill="none" stroke="#191970" d="M245.6235,-123.3101C262.511,-113.0991 281.5781,-101.5701 297.4314,-91.9844"/>
<polygon fill="#191970" stroke="#191970" points="299.607,-94.759 306.3534,-86.5897 295.9851,-88.7689 299.607,-94.759"/>
</g>
<!-- Node9 -->
<g id="node10" class="node">
<title>Node9</title>
<g id="a_node10"><a xlink:href="../../d4/dc6/LHCConstants_8h.html" target="_top" xlink:title="Header to collect LHC related constants. ">
<polygon fill="none" stroke="#000000" points="368.3095,-.5 368.3095,-19.5 558.3095,-19.5 558.3095,-.5 368.3095,-.5"/>
<text text-anchor="middle" x="463.3095" y="-7.5" font-family="Helvetica,sans-Serif" font-size="10.00" fill="#000000">CommonConstants/LHCConstants.h</text>
</a>
</g>
</g>
<!-- Node0&#45;&gt;Node9 -->
<g id="edge15" class="edge">
<title>Node0&#45;&gt;Node9</title>
<path fill="none" stroke="#191970" d="M285.9836,-133.8601C340.6171,-122.243 405.683,-105.2973 427.3095,-87 444.8489,-72.1606 454.3696,-46.8919 459.1379,-29.3676"/>
<polygon fill="#191970" stroke="#191970" points="462.546,-30.1646 461.5219,-19.6194 455.7464,-28.5017 462.546,-30.1646"/>
</g>
<!-- Node10 -->
<g id="node11" class="node">
<title>Node10</title>
<g id="a_node11"><a xlink:href="../../d4/d5f/BunchFilling_8h.html" target="_top" xlink:title="CommonDataFormat/BunchFilling.h">
<polygon fill="none" stroke="#000000" points="494.8095,-62 494.8095,-81 683.8095,-81 683.8095,-62 494.8095,-62"/>
<text text-anchor="middle" x="589.3095" y="-69" font-family="Helvetica,sans-Serif" font-size="10.00" fill="#000000">CommonDataFormat/BunchFilling.h</text>
</a>
</g>
</g>
<!-- Node0&#45;&gt;Node10 -->
<g id="edge11" class="edge">
<title>Node0&#45;&gt;Node10</title>
<path fill="none" stroke="#191970" d="M286.2827,-132.5752C360.5602,-117.6045 466.9428,-96.1631 531.8951,-83.0719"/>
<polygon fill="#191970" stroke="#191970" points="532.8412,-86.4517 541.9525,-81.0448 531.4581,-79.5897 532.8412,-86.4517"/>
</g>
<!-- Node5&#45;&gt;Node1 -->
<g id="edge6" class="edge">
<title>Node5&#45;&gt;Node1</title>
<path fill="none" stroke="#191970" d="M264.0369,-56.4554C211.3361,-44.6696 139.8207,-28.6761 95.932,-18.861"/>
<polygon fill="#191970" stroke="#191970" points="96.456,-15.3918 85.9331,-16.6249 94.9282,-22.2231 96.456,-15.3918"/>
</g>
<!-- Node6 -->
<g id="node7" class="node">
<title>Node6</title>
<polygon fill="none" stroke="#bfbfbf" points="167.8095,-.5 167.8095,-19.5 216.8095,-19.5 216.8095,-.5 167.8095,-.5"/>
<text text-anchor="middle" x="192.3095" y="-7.5" font-family="Helvetica,sans-Serif" font-size="10.00" fill="#000000">iosfwd</text>
</g>
<!-- Node5&#45;&gt;Node6 -->
<g id="edge7" class="edge">
<title>Node5&#45;&gt;Node6</title>
<path fill="none" stroke="#191970" d="M297.3063,-56.4554C274.6224,-46.419 245.0422,-33.3314 223.0615,-23.6061"/>
<polygon fill="#191970" stroke="#191970" points="224.4106,-20.3758 213.8496,-19.5303 221.5783,-26.7772 224.4106,-20.3758"/>
</g>
<!-- Node7 -->
<g id="node8" class="node">
<title>Node7</title>
<polygon fill="none" stroke="#bfbfbf" points="234.8095,-.5 234.8095,-19.5 281.8095,-19.5 281.8095,-.5 234.8095,-.5"/>
<text text-anchor="middle" x="258.3095" y="-7.5" font-family="Helvetica,sans-Serif" font-size="10.00" fill="#000000">cmath</text>
</g>
<!-- Node5&#45;&gt;Node7 -->
<g id="edge8" class="edge">
<title>Node5&#45;&gt;Node7</title>
<path fill="none" stroke="#191970" d="M313.2645,-56.2977C302.4981,-47.2274 288.8244,-35.7077 277.81,-26.4285"/>
<polygon fill="#191970" stroke="#191970" points="279.9005,-23.6132 269.9977,-19.8469 275.3904,-28.9667 279.9005,-23.6132"/>
</g>
<!-- Node8 -->
<g id="node9" class="node">
<title>Node8</title>
<polygon fill="none" stroke="#bfbfbf" points="300.3095,-.5 300.3095,-19.5 350.3095,-19.5 350.3095,-.5 300.3095,-.5"/>
<text text-anchor="middle" x="325.3095" y="-7.5" font-family="Helvetica,sans-Serif" font-size="10.00" fill="#000000">cstdint</text>
</g>
<!-- Node5&#45;&gt;Node8 -->
<g id="edge9" class="edge">
<title>Node5&#45;&gt;Node8</title>
<path fill="none" stroke="#191970" d="M329.8263,-56.2977C329.0542,-48.3834 328.1002,-38.6043 327.2681,-30.0759"/>
<polygon fill="#191970" stroke="#191970" points="330.7247,-29.4598 326.2702,-19.8469 323.7578,-30.1396 330.7247,-29.4598"/>
</g>
<!-- Node5&#45;&gt;Node9 -->
<g id="edge10" class="edge">
<title>Node5&#45;&gt;Node9</title>
<path fill="none" stroke="#191970" d="M363.6003,-56.4554C384.9487,-46.509 412.7291,-33.5659 433.5427,-23.8686"/>
<polygon fill="#191970" stroke="#191970" points="435.2678,-26.9262 442.8542,-19.5303 432.3116,-20.581 435.2678,-26.9262"/>
</g>
<!-- Node10&#45;&gt;Node9 -->
<g id="edge12" class="edge">
<title>Node10&#45;&gt;Node9</title>
<path fill="none" stroke="#191970" d="M569.622,-61.8906C548.8173,-51.7359 515.7985,-35.6196 492.0776,-24.0416"/>
<polygon fill="#191970" stroke="#191970" points="493.3806,-20.783 482.8587,-19.5419 490.3102,-27.0736 493.3806,-20.783"/>
</g>
<!-- Node11 -->
<g id="node12" class="node">
<title>Node11</title>
<polygon fill="none" stroke="#bfbfbf" points="576.3095,-.5 576.3095,-19.5 620.3095,-19.5 620.3095,-.5 576.3095,-.5"/>
<text text-anchor="middle" x="598.3095" y="-7.5" font-family="Helvetica,sans-Serif" font-size="10.00" fill="#000000">bitset</text>
</g>
<!-- Node10&#45;&gt;Node11 -->
<g id="edge13" class="edge">
<title>Node10&#45;&gt;Node11</title>
<path fill="none" stroke="#191970" d="M590.7157,-61.8906C591.9633,-53.3657 593.8257,-40.6392 595.3939,-29.9235"/>
<polygon fill="#191970" stroke="#191970" points="598.8985,-30.1463 596.8834,-19.7449 591.9722,-29.1326 598.8985,-30.1463"/>
</g>
<!-- Node12 -->
<g id="node13" class="node">
<title>Node12</title>
<polygon fill="none" stroke="#bfbfbf" points="638.3095,-.5 638.3095,-19.5 682.3095,-19.5 682.3095,-.5 638.3095,-.5"/>
<text text-anchor="middle" x="660.3095" y="-7.5" font-family="Helvetica,sans-Serif" font-size="10.00" fill="#000000">string</text>
</g>
<!-- Node10&#45;&gt;Node12 -->
<g id="edge14" class="edge">
<title>Node10&#45;&gt;Node12</title>
<path fill="none" stroke="#191970" d="M600.4032,-61.8906C611.281,-52.4683 628.0843,-37.9134 641.1295,-26.6137"/>
<polygon fill="#191970" stroke="#191970" points="643.7922,-28.9377 649.0593,-19.7449 639.2091,-23.6466 643.7922,-28.9377"/>
</g>
</g>
</svg>
