<?xml version="1.0" encoding="UTF-8" standalone="no"?>
<!DOCTYPE svg PUBLIC "-//W3C//DTD SVG 1.1//EN"
 "http://www.w3.org/Graphics/SVG/1.1/DTD/svg11.dtd">
<!-- Generated by graphviz version 2.40.1 (20161225.0304)
 -->
<!-- Title: /home/travis/build/AliceO2Group/AliceO2/Detectors/ITSMFT/common/reconstruction/include/ITSMFTReconstruction/AlpideCoder.h Pages: 1 -->
<svg width="1000pt" height="383pt"
 viewBox="0.00 0.00 1000.00 383.00" xmlns="http://www.w3.org/2000/svg" xmlns:xlink="http://www.w3.org/1999/xlink">
<g id="graph0" class="graph" transform="scale(1 1) rotate(0) translate(4 379)">
<title>/home/travis/build/AliceO2Group/AliceO2/Detectors/ITSMFT/common/reconstruction/include/ITSMFTReconstruction/AlpideCoder.h</title>
<!-- Node19 -->
<g id="node1" class="node">
<title>Node19</title>
<polygon fill="#bfbfbf" stroke="#000000" points="294.5,-311.5 294.5,-374.5 491.5,-374.5 491.5,-311.5 294.5,-311.5"/>
<text text-anchor="start" x="302.5" y="-362.5" font-family="Helvetica,sans-Serif" font-size="10.00" fill="#000000">/home/travis/build</text>
<text text-anchor="start" x="302.5" y="-351.5" font-family="Helvetica,sans-Serif" font-size="10.00" fill="#000000">/AliceO2Group/AliceO2</text>
<text text-anchor="start" x="302.5" y="-340.5" font-family="Helvetica,sans-Serif" font-size="10.00" fill="#000000">/Detectors/ITSMFT/common</text>
<text text-anchor="start" x="302.5" y="-329.5" font-family="Helvetica,sans-Serif" font-size="10.00" fill="#000000">/reconstruction/include</text>
<text text-anchor="middle" x="393" y="-318.5" font-family="Helvetica,sans-Serif" font-size="10.00" fill="#000000">/ITSMFTReconstruction/AlpideCoder.h</text>
</g>
<!-- Node20 -->
<g id="node2" class="node">
<title>Node20</title>
<g id="a_node2"><a xlink:href="../../dd/db8/RawPixelReader_8h.html" target="_top" xlink:title="Definition of the Alpide pixel reader for raw data processing. ">
<polygon fill="none" stroke="#000000" points="285,-211.5 285,-274.5 501,-274.5 501,-211.5 285,-211.5"/>
<text text-anchor="start" x="293" y="-262.5" font-family="Helvetica,sans-Serif" font-size="10.00" fill="#000000">/home/travis/build</text>
<text text-anchor="start" x="293" y="-251.5" font-family="Helvetica,sans-Serif" font-size="10.00" fill="#000000">/AliceO2Group/AliceO2</text>
<text text-anchor="start" x="293" y="-240.5" font-family="Helvetica,sans-Serif" font-size="10.00" fill="#000000">/Detectors/ITSMFT/common</text>
<text text-anchor="start" x="293" y="-229.5" font-family="Helvetica,sans-Serif" font-size="10.00" fill="#000000">/reconstruction/include</text>
<text text-anchor="middle" x="393" y="-218.5" font-family="Helvetica,sans-Serif" font-size="10.00" fill="#000000">/ITSMFTReconstruction/RawPixelReader.h</text>
</a>
</g>
</g>
<!-- Node19&#45;&gt;Node20 -->
<g id="edge1" class="edge">
<title>Node19&#45;&gt;Node20</title>
<path fill="none" stroke="#191970" d="M393,-301.2111C393,-292.37 393,-283.1767 393,-274.778"/>
<polygon fill="#191970" stroke="#191970" points="389.5001,-301.3593 393,-311.3594 396.5001,-301.3594 389.5001,-301.3593"/>
</g>
<!-- Node21 -->
<g id="node3" class="node">
<title>Node21</title>
<g id="a_node3"><a xlink:href="../../df/d56/MC2RawEncoder_8h.html" target="_top" xlink:title="Definition of the ITS/MFT Alpide pixel MC&#45;&gt;raw converter. ">
<polygon fill="none" stroke="#000000" points="71,-106 71,-169 271,-169 271,-106 71,-106"/>
<text text-anchor="start" x="79" y="-157" font-family="Helvetica,sans-Serif" font-size="10.00" fill="#000000">/home/travis/build</text>
<text text-anchor="start" x="79" y="-146" font-family="Helvetica,sans-Serif" font-size="10.00" fill="#000000">/AliceO2Group/AliceO2</text>
<text text-anchor="start" x="79" y="-135" font-family="Helvetica,sans-Serif" font-size="10.00" fill="#000000">/Detectors/ITSMFT/common</text>
<text text-anchor="start" x="79" y="-124" font-family="Helvetica,sans-Serif" font-size="10.00" fill="#000000">/simulation/include/ITSMFTSimulation</text>
<text text-anchor="middle" x="171" y="-113" font-family="Helvetica,sans-Serif" font-size="10.00" fill="#000000">/MC2RawEncoder.h</text>
</a>
</g>
</g>
<!-- Node19&#45;&gt;Node21 -->
<g id="edge13" class="edge">
<title>Node19&#45;&gt;Node21</title>
<path fill="none" stroke="#191970" d="M319.4392,-306.1866C304.3112,-297.0238 289.0378,-286.4941 276,-275 240.5144,-243.7162 208.9489,-198.8805 189.9116,-169.0095"/>
<polygon fill="#191970" stroke="#191970" points="317.9201,-309.354 328.3115,-311.4205 321.4768,-303.3249 317.9201,-309.354"/>
</g>
<!-- Node30 -->
<g id="node12" class="node">
<title>Node30</title>
<g id="a_node12"><a xlink:href="../../d9/d0f/AlpideCoder_8cxx.html" target="_top" xlink:title="Implementation of the ALPIDE data decoding/encoding. ">
<polygon fill="none" stroke="#000000" points="519,-217 519,-269 707,-269 707,-217 519,-217"/>
<text text-anchor="start" x="527" y="-257" font-family="Helvetica,sans-Serif" font-size="10.00" fill="#000000">/home/travis/build</text>
<text text-anchor="start" x="527" y="-246" font-family="Helvetica,sans-Serif" font-size="10.00" fill="#000000">/AliceO2Group/AliceO2</text>
<text text-anchor="start" x="527" y="-235" font-family="Helvetica,sans-Serif" font-size="10.00" fill="#000000">/Detectors/ITSMFT/common</text>
<text text-anchor="middle" x="613" y="-224" font-family="Helvetica,sans-Serif" font-size="10.00" fill="#000000">/reconstruction/src/AlpideCoder.cxx</text>
</a>
</g>
</g>
<!-- Node19&#45;&gt;Node30 -->
<g id="edge12" class="edge">
<title>Node19&#45;&gt;Node30</title>
<path fill="none" stroke="#191970" d="M471.5746,-307.2843C499.2623,-294.699 529.8496,-280.7957 555.4749,-269.1478"/>
<polygon fill="#191970" stroke="#191970" points="469.9628,-304.1723 462.3074,-311.4966 472.8594,-310.5448 469.9628,-304.1723"/>
</g>
<!-- Node20&#45;&gt;Node21 -->
<g id="edge2" class="edge">
<title>Node20&#45;&gt;Node21</title>
<path fill="none" stroke="#191970" d="M317.6156,-207.1754C291.5756,-194.8005 262.6105,-181.0356 237.3483,-169.0304"/>
<polygon fill="#191970" stroke="#191970" points="316.1591,-210.3583 326.6934,-211.4894 319.1637,-204.0359 316.1591,-210.3583"/>
</g>
<!-- Node23 -->
<g id="node5" class="node">
<title>Node23</title>
<g id="a_node5"><a xlink:href="../../dd/d69/TestDataReader_8h.html" target="_top" xlink:title="/home/travis/build\l/AliceO2Group/AliceO2\l/Detectors/ITSMFT/ITS\l/QC/TestDataReaderWorkflow\l/include/ITSQCDataReaderWorkflow\l/TestDataReader.h">
<polygon fill="none" stroke="#000000" points="327.5,-100.5 327.5,-174.5 516.5,-174.5 516.5,-100.5 327.5,-100.5"/>
<text text-anchor="start" x="335.5" y="-162.5" font-family="Helvetica,sans-Serif" font-size="10.00" fill="#000000">/home/travis/build</text>
<text text-anchor="start" x="335.5" y="-151.5" font-family="Helvetica,sans-Serif" font-size="10.00" fill="#000000">/AliceO2Group/AliceO2</text>
<text text-anchor="start" x="335.5" y="-140.5" font-family="Helvetica,sans-Serif" font-size="10.00" fill="#000000">/Detectors/ITSMFT/ITS</text>
<text text-anchor="start" x="335.5" y="-129.5" font-family="Helvetica,sans-Serif" font-size="10.00" fill="#000000">/QC/TestDataReaderWorkflow</text>
<text text-anchor="start" x="335.5" y="-118.5" font-family="Helvetica,sans-Serif" font-size="10.00" fill="#000000">/include/ITSQCDataReaderWorkflow</text>
<text text-anchor="middle" x="422" y="-107.5" font-family="Helvetica,sans-Serif" font-size="10.00" fill="#000000">/TestDataReader.h</text>
</a>
</g>
</g>
<!-- Node20&#45;&gt;Node23 -->
<g id="edge4" class="edge">
<title>Node20&#45;&gt;Node23</title>
<path fill="none" stroke="#191970" d="M404.385,-201.5823C406.8224,-192.7149 409.3832,-183.399 411.7738,-174.7023"/>
<polygon fill="#191970" stroke="#191970" points="400.9767,-200.7765 401.701,-211.3465 407.7264,-202.6319 400.9767,-200.7765"/>
</g>
<!-- Node24 -->
<g id="node6" class="node">
<title>Node24</title>
<g id="a_node6"><a xlink:href="../../d0/dd9/TestDataReader_8cxx.html" target="_top" xlink:title="/home/travis/build\l/AliceO2Group/AliceO2\l/Detectors/ITSMFT/ITS\l/QC/TestDataReaderWorkflow\l/src/TestDataReader.cxx">
<polygon fill="none" stroke="#000000" points="210,-.5 210,-63.5 368,-63.5 368,-.5 210,-.5"/>
<text text-anchor="start" x="218" y="-51.5" font-family="Helvetica,sans-Serif" font-size="10.00" fill="#000000">/home/travis/build</text>
<text text-anchor="start" x="218" y="-40.5" font-family="Helvetica,sans-Serif" font-size="10.00" fill="#000000">/AliceO2Group/AliceO2</text>
<text text-anchor="start" x="218" y="-29.5" font-family="Helvetica,sans-Serif" font-size="10.00" fill="#000000">/Detectors/ITSMFT/ITS</text>
<text text-anchor="start" x="218" y="-18.5" font-family="Helvetica,sans-Serif" font-size="10.00" fill="#000000">/QC/TestDataReaderWorkflow</text>
<text text-anchor="middle" x="289" y="-7.5" font-family="Helvetica,sans-Serif" font-size="10.00" fill="#000000">/src/TestDataReader.cxx</text>
</a>
</g>
</g>
<!-- Node20&#45;&gt;Node24 -->
<g id="edge7" class="edge">
<title>Node20&#45;&gt;Node24</title>
<path fill="none" stroke="#191970" d="M341.2105,-204.2315C332.3354,-195.4909 324.0425,-185.6224 318,-175 298.2102,-140.2106 291.8018,-93.8928 289.7954,-63.5289"/>
<polygon fill="#191970" stroke="#191970" points="339.0723,-207.024 348.7659,-211.3001 343.8546,-201.9123 339.0723,-207.024"/>
</g>
<!-- Node26 -->
<g id="node8" class="node">
<title>Node26</title>
<g id="a_node8"><a xlink:href="../../d6/d67/ITSMFT_2ITS_2reconstruction_2include_2ITSReconstruction_2ClustererTask_8h.html" target="_top" xlink:title="/home/travis/build\l/AliceO2Group/AliceO2\l/Detectors/ITSMFT/ITS\l/reconstruction/include\l/ITSReconstruction/ClustererTask.h">
<polygon fill="none" stroke="#000000" points="565.5,-106 565.5,-169 750.5,-169 750.5,-106 565.5,-106"/>
<text text-anchor="start" x="573.5" y="-157" font-family="Helvetica,sans-Serif" font-size="10.00" fill="#000000">/home/travis/build</text>
<text text-anchor="start" x="573.5" y="-146" font-family="Helvetica,sans-Serif" font-size="10.00" fill="#000000">/AliceO2Group/AliceO2</text>
<text text-anchor="start" x="573.5" y="-135" font-family="Helvetica,sans-Serif" font-size="10.00" fill="#000000">/Detectors/ITSMFT/ITS</text>
<text text-anchor="start" x="573.5" y="-124" font-family="Helvetica,sans-Serif" font-size="10.00" fill="#000000">/reconstruction/include</text>
<text text-anchor="middle" x="658" y="-113" font-family="Helvetica,sans-Serif" font-size="10.00" fill="#000000">/ITSReconstruction/ClustererTask.h</text>
</a>
</g>
</g>
<!-- Node20&#45;&gt;Node26 -->
<g id="edge8" class="edge">
<title>Node20&#45;&gt;Node26</title>
<path fill="none" stroke="#191970" d="M481.7661,-207.661C513.1631,-195.1615 548.2501,-181.1929 578.8005,-169.0304"/>
<polygon fill="#191970" stroke="#191970" points="480.146,-204.5388 472.1498,-211.4894 482.7352,-211.0424 480.146,-204.5388"/>
</g>
<!-- Node28 -->
<g id="node10" class="node">
<title>Node28</title>
<g id="a_node10"><a xlink:href="../../db/d12/ITSMFT_2MFT_2reconstruction_2include_2MFTReconstruction_2ClustererTask_8h.html" target="_top" xlink:title="/home/travis/build\l/AliceO2Group/AliceO2\l/Detectors/ITSMFT/MFT\l/reconstruction/include\l/MFTReconstruction/ClustererTask.h">
<polygon fill="none" stroke="#000000" points="788.5,-106 788.5,-169 977.5,-169 977.5,-106 788.5,-106"/>
<text text-anchor="start" x="796.5" y="-157" font-family="Helvetica,sans-Serif" font-size="10.00" fill="#000000">/home/travis/build</text>
<text text-anchor="start" x="796.5" y="-146" font-family="Helvetica,sans-Serif" font-size="10.00" fill="#000000">/AliceO2Group/AliceO2</text>
<text text-anchor="start" x="796.5" y="-135" font-family="Helvetica,sans-Serif" font-size="10.00" fill="#000000">/Detectors/ITSMFT/MFT</text>
<text text-anchor="start" x="796.5" y="-124" font-family="Helvetica,sans-Serif" font-size="10.00" fill="#000000">/reconstruction/include</text>
<text text-anchor="middle" x="883" y="-113" font-family="Helvetica,sans-Serif" font-size="10.00" fill="#000000">/MFTReconstruction/ClustererTask.h</text>
</a>
</g>
</g>
<!-- Node20&#45;&gt;Node28 -->
<g id="edge10" class="edge">
<title>Node20&#45;&gt;Node28</title>
<path fill="none" stroke="#191970" d="M511.0872,-210.8752C621.2532,-188.8044 652.9357,-198.5654 759,-175 768.5506,-172.8781 778.4357,-170.3945 788.266,-167.7335"/>
<polygon fill="#191970" stroke="#191970" points="510.3463,-207.4542 501.2508,-212.8877 511.7495,-214.3121 510.3463,-207.4542"/>
</g>
<!-- Node22 -->
<g id="node4" class="node">
<title>Node22</title>
<g id="a_node4"><a xlink:href="../../d8/d6b/MC2RawEncoder_8cxx.html" target="_top" xlink:title="/home/travis/build\l/AliceO2Group/AliceO2\l/Detectors/ITSMFT/common\l/simulation/src/MC2RawEncoder.cxx">
<polygon fill="none" stroke="#000000" points="0,-6 0,-58 192,-58 192,-6 0,-6"/>
<text text-anchor="start" x="8" y="-46" font-family="Helvetica,sans-Serif" font-size="10.00" fill="#000000">/home/travis/build</text>
<text text-anchor="start" x="8" y="-35" font-family="Helvetica,sans-Serif" font-size="10.00" fill="#000000">/AliceO2Group/AliceO2</text>
<text text-anchor="start" x="8" y="-24" font-family="Helvetica,sans-Serif" font-size="10.00" fill="#000000">/Detectors/ITSMFT/common</text>
<text text-anchor="middle" x="96" y="-13" font-family="Helvetica,sans-Serif" font-size="10.00" fill="#000000">/simulation/src/MC2RawEncoder.cxx</text>
</a>
</g>
</g>
<!-- Node21&#45;&gt;Node22 -->
<g id="edge3" class="edge">
<title>Node21&#45;&gt;Node22</title>
<path fill="none" stroke="#191970" d="M142.5168,-97.4337C133.2032,-84.3324 123.1007,-70.1216 114.6975,-58.3011"/>
<polygon fill="#191970" stroke="#191970" points="139.8508,-99.7241 148.4975,-105.8465 145.556,-95.6682 139.8508,-99.7241"/>
</g>
<!-- Node23&#45;&gt;Node24 -->
<g id="edge5" class="edge">
<title>Node23&#45;&gt;Node24</title>
<path fill="none" stroke="#191970" d="M367.206,-94.0356C354.3594,-83.8452 340.911,-73.1775 328.8607,-63.6189"/>
<polygon fill="#191970" stroke="#191970" points="365.0996,-96.8321 375.1092,-100.3046 369.4498,-91.348 365.0996,-96.8321"/>
</g>
<!-- Node25 -->
<g id="node7" class="node">
<title>Node25</title>
<g id="a_node7"><a xlink:href="../../d1/dc6/TestDataReaderWorkflow_8cxx.html" target="_top" xlink:title="/home/travis/build\l/AliceO2Group/AliceO2\l/Detectors/ITSMFT/ITS\l/QC/TestDataReaderWorkflow\l/src/TestDataReaderWorkflow.cxx">
<polygon fill="none" stroke="#000000" points="386,-.5 386,-63.5 564,-63.5 564,-.5 386,-.5"/>
<text text-anchor="start" x="394" y="-51.5" font-family="Helvetica,sans-Serif" font-size="10.00" fill="#000000">/home/travis/build</text>
<text text-anchor="start" x="394" y="-40.5" font-family="Helvetica,sans-Serif" font-size="10.00" fill="#000000">/AliceO2Group/AliceO2</text>
<text text-anchor="start" x="394" y="-29.5" font-family="Helvetica,sans-Serif" font-size="10.00" fill="#000000">/Detectors/ITSMFT/ITS</text>
<text text-anchor="start" x="394" y="-18.5" font-family="Helvetica,sans-Serif" font-size="10.00" fill="#000000">/QC/TestDataReaderWorkflow</text>
<text text-anchor="middle" x="475" y="-7.5" font-family="Helvetica,sans-Serif" font-size="10.00" fill="#000000">/src/TestDataReaderWorkflow.cxx</text>
</a>
</g>
</g>
<!-- Node23&#45;&gt;Node25 -->
<g id="edge6" class="edge">
<title>Node23&#45;&gt;Node25</title>
<path fill="none" stroke="#191970" d="M445.2898,-91.1401C449.9607,-81.8423 454.7667,-72.2758 459.1156,-63.6189"/>
<polygon fill="#191970" stroke="#191970" points="442.0474,-89.7977 440.6858,-100.3046 448.3025,-92.94 442.0474,-89.7977"/>
</g>
<!-- Node27 -->
<g id="node9" class="node">
<title>Node27</title>
<g id="a_node9"><a xlink:href="../../d8/d95/ITSMFT_2ITS_2reconstruction_2src_2ClustererTask_8cxx.html" target="_top" xlink:title="/home/travis/build\l/AliceO2Group/AliceO2\l/Detectors/ITSMFT/ITS\l/reconstruction/src/ClustererTask.cxx">
<polygon fill="none" stroke="#000000" points="582,-6 582,-58 778,-58 778,-6 582,-6"/>
<text text-anchor="start" x="590" y="-46" font-family="Helvetica,sans-Serif" font-size="10.00" fill="#000000">/home/travis/build</text>
<text text-anchor="start" x="590" y="-35" font-family="Helvetica,sans-Serif" font-size="10.00" fill="#000000">/AliceO2Group/AliceO2</text>
<text text-anchor="start" x="590" y="-24" font-family="Helvetica,sans-Serif" font-size="10.00" fill="#000000">/Detectors/ITSMFT/ITS</text>
<text text-anchor="middle" x="680" y="-13" font-family="Helvetica,sans-Serif" font-size="10.00" fill="#000000">/reconstruction/src/ClustererTask.cxx</text>
</a>
</g>
</g>
<!-- Node26&#45;&gt;Node27 -->
<g id="edge9" class="edge">
<title>Node26&#45;&gt;Node27</title>
<path fill="none" stroke="#191970" d="M666.6683,-95.9317C669.3121,-83.2532 672.1444,-69.6713 674.5154,-58.3011"/>
<polygon fill="#191970" stroke="#191970" points="663.2159,-95.3426 664.6007,-105.8465 670.0685,-96.7716 663.2159,-95.3426"/>
</g>
<!-- Node29 -->
<g id="node11" class="node">
<title>Node29</title>
<g id="a_node11"><a xlink:href="../../d9/d5e/ITSMFT_2MFT_2reconstruction_2src_2ClustererTask_8cxx.html" target="_top" xlink:title="/home/travis/build\l/AliceO2Group/AliceO2\l/Detectors/ITSMFT/MFT\l/reconstruction/src/ClustererTask.cxx">
<polygon fill="none" stroke="#000000" points="796,-6 796,-58 992,-58 992,-6 796,-6"/>
<text text-anchor="start" x="804" y="-46" font-family="Helvetica,sans-Serif" font-size="10.00" fill="#000000">/home/travis/build</text>
<text text-anchor="start" x="804" y="-35" font-family="Helvetica,sans-Serif" font-size="10.00" fill="#000000">/AliceO2Group/AliceO2</text>
<text text-anchor="start" x="804" y="-24" font-family="Helvetica,sans-Serif" font-size="10.00" fill="#000000">/Detectors/ITSMFT/MFT</text>
<text text-anchor="middle" x="894" y="-13" font-family="Helvetica,sans-Serif" font-size="10.00" fill="#000000">/reconstruction/src/ClustererTask.cxx</text>
</a>
</g>
</g>
<!-- Node28&#45;&gt;Node29 -->
<g id="edge11" class="edge">
<title>Node28&#45;&gt;Node29</title>
<path fill="none" stroke="#191970" d="M887.3734,-95.5549C888.6841,-82.9844 890.0839,-69.5587 891.2577,-58.3011"/>
<polygon fill="#191970" stroke="#191970" points="883.8564,-95.5374 886.3004,-105.8465 890.8186,-96.2634 883.8564,-95.5374"/>
</g>
</g>
</svg>
