<?xml version="1.0" encoding="UTF-8" standalone="no"?>
<!DOCTYPE svg PUBLIC "-//W3C//DTD SVG 1.1//EN"
 "http://www.w3.org/Graphics/SVG/1.1/DTD/svg11.dtd">
<!-- Generated by graphviz version 2.40.1 (20161225.0304)
 -->
<!-- Title: o2::eventgen::TriggerParticle Pages: 1 -->
<!--zoomable 508 -->
<svg id="main" version="1.1" xmlns="http://www.w3.org/2000/svg" xmlns:xlink="http://www.w3.org/1999/xlink" xml:space="preserve" onload="init(evt)">
<style type="text/css"><![CDATA[
.edge:hover path { stroke: red; }
.edge:hover polygon { stroke: red; fill: red; }
]]></style>
<script type="text/javascript"><![CDATA[
var edges = document.getElementsByTagName('g');
if (edges && edges.length) {
  for (var i=0;i<edges.length;i++) {
    if (edges[i].id.substr(0,4)=='edge') {
      edges[i].setAttribute('class','edge');
    }
  }
}
]]></script>
        <defs>
                <circle id="rim" cx="0" cy="0" r="7"/>
                <circle id="rim2" cx="0" cy="0" r="3.5"/>
                <g id="zoomPlus">
                        <use xlink:href="#rim" fill="#404040">
                                <set attributeName="fill" to="#808080" begin="zoomplus.mouseover" end="zoomplus.mouseout"/>
                        </use>
                        <path d="M-4,0h8M0,-4v8" fill="none" stroke="white" stroke-width="1.5" pointer-events="none"/>
                </g>
                <g id="zoomMin">
                        <use xlink:href="#rim" fill="#404040">
                                <set attributeName="fill" to="#808080" begin="zoomminus.mouseover" end="zoomminus.mouseout"/>
                        </use>
                        <path d="M-4,0h8" fill="none" stroke="white" stroke-width="1.5" pointer-events="none"/>
                </g>
                <g id="dirArrow">
                        <path fill="none" stroke="white" stroke-width="1.5" d="M0,-3.0v7 M-2.5,-0.5L0,-3.0L2.5,-0.5"/>
                </g>
               <g id="resetDef">
                       <use xlink:href="#rim2" fill="#404040">
                               <set attributeName="fill" to="#808080" begin="reset.mouseover" end="reset.mouseout"/>
                       </use>
               </g>
        </defs>

<script type="text/javascript">
var viewWidth = 294;
var viewHeight = 508;
var sectionId = 'dynsection-1';
</script>
<script xlink:href="../../svgpan.js"/>
<svg id="graph" class="graph">
<g id="viewport">
<title>o2::eventgen::TriggerParticle</title>
<!-- Node3 -->
<g id="node1" class="node">
<title>Node3</title>
<polygon fill="#bfbfbf" stroke="#000000" points="92,-.5 92,-167.5 247,-167.5 247,-.5 92,-.5"/>
<text text-anchor="middle" x="169.5" y="-155.5" font-family="Helvetica,sans-Serif" font-size="10.00" fill="#000000">o2::eventgen::TriggerParticle</text>
<polyline fill="none" stroke="#000000" points="92,-148.5 247,-148.5 "/>
<text text-anchor="middle" x="169.5" y="-136.5" font-family="Helvetica,sans-Serif" font-size="10.00" fill="#000000"> </text>
<polyline fill="none" stroke="#000000" points="92,-129.5 247,-129.5 "/>
<text text-anchor="start" x="100" y="-117.5" font-family="Helvetica,sans-Serif" font-size="10.00" fill="#000000">+ TriggerParticle()</text>
<text text-anchor="start" x="100" y="-106.5" font-family="Helvetica,sans-Serif" font-size="10.00" fill="#000000">+ ~TriggerParticle()</text>
<text text-anchor="start" x="100" y="-95.5" font-family="Helvetica,sans-Serif" font-size="10.00" fill="#000000">+ fired()</text>
<text text-anchor="start" x="100" y="-84.5" font-family="Helvetica,sans-Serif" font-size="10.00" fill="#000000">+ setPDG()</text>
<text text-anchor="start" x="100" y="-73.5" font-family="Helvetica,sans-Serif" font-size="10.00" fill="#000000">+ setPtRange()</text>
<text text-anchor="start" x="100" y="-62.5" font-family="Helvetica,sans-Serif" font-size="10.00" fill="#000000">+ setEtaRange()</text>
<text text-anchor="start" x="100" y="-51.5" font-family="Helvetica,sans-Serif" font-size="10.00" fill="#000000">+ setPhiRange()</text>
<text text-anchor="start" x="100" y="-40.5" font-family="Helvetica,sans-Serif" font-size="10.00" fill="#000000">+ setYRange()</text>
<text text-anchor="start" x="100" y="-29.5" font-family="Helvetica,sans-Serif" font-size="10.00" fill="#000000"># TriggerParticle()</text>
<text text-anchor="start" x="100" y="-18.5" font-family="Helvetica,sans-Serif" font-size="10.00" fill="#000000"># operator=()</text>
<text text-anchor="start" x="100" y="-7.5" font-family="Helvetica,sans-Serif" font-size="10.00" fill="#000000"># ClassDefOverride()</text>
</g>
<!-- Node4 -->
<g id="node2" class="node">
<title>Node4</title>
<g id="a_node2"><a xlink:href="../../d6/d55/classo2_1_1eventgen_1_1Trigger.html" target="_top" xlink:title="{o2::eventgen::Trigger\n||+ Trigger()\l+ ~Trigger()\l+ fired()\l# Trigger()\l# operator=()\l# ClassDefOverride()\l}">
<polygon fill="none" stroke="#000000" points="0,-292.5 0,-404.5 121,-404.5 121,-292.5 0,-292.5"/>
<text text-anchor="middle" x="60.5" y="-392.5" font-family="Helvetica,sans-Serif" font-size="10.00" fill="#000000">o2::eventgen::Trigger</text>
<polyline fill="none" stroke="#000000" points="0,-385.5 121,-385.5 "/>
<text text-anchor="middle" x="60.5" y="-373.5" font-family="Helvetica,sans-Serif" font-size="10.00" fill="#000000"> </text>
<polyline fill="none" stroke="#000000" points="0,-366.5 121,-366.5 "/>
<text text-anchor="start" x="8" y="-354.5" font-family="Helvetica,sans-Serif" font-size="10.00" fill="#000000">+ Trigger()</text>
<text text-anchor="start" x="8" y="-343.5" font-family="Helvetica,sans-Serif" font-size="10.00" fill="#000000">+ ~Trigger()</text>
<text text-anchor="start" x="8" y="-332.5" font-family="Helvetica,sans-Serif" font-size="10.00" fill="#000000">+ fired()</text>
<text text-anchor="start" x="8" y="-321.5" font-family="Helvetica,sans-Serif" font-size="10.00" fill="#000000"># Trigger()</text>
<text text-anchor="start" x="8" y="-310.5" font-family="Helvetica,sans-Serif" font-size="10.00" fill="#000000"># operator=()</text>
<text text-anchor="start" x="8" y="-299.5" font-family="Helvetica,sans-Serif" font-size="10.00" fill="#000000"># ClassDefOverride()</text>
</a>
</g>
</g>
<!-- Node4&#45;&gt;Node3 -->
<g id="edge1" class="edge">
<title>Node4&#45;&gt;Node3</title>
<path fill="none" stroke="#191970" d="M87.5675,-282.8179C101.917,-247.9974 119.6986,-204.8484 135.0258,-167.6554"/>
<polygon fill="none" stroke="#191970" points="84.1903,-281.8271 83.6161,-292.4064 90.6623,-284.4942 84.1903,-281.8271"/>
</g>
<!-- Node5 -->
<g id="node3" class="node">
<title>Node5</title>
<polygon fill="none" stroke="#bfbfbf" points="31.5,-442.5 31.5,-499.5 89.5,-499.5 89.5,-442.5 31.5,-442.5"/>
<text text-anchor="middle" x="60.5" y="-487.5" font-family="Helvetica,sans-Serif" font-size="10.00" fill="#000000">TNamed</text>
<polyline fill="none" stroke="#bfbfbf" points="31.5,-480.5 89.5,-480.5 "/>
<text text-anchor="middle" x="60.5" y="-468.5" font-family="Helvetica,sans-Serif" font-size="10.00" fill="#000000"> </text>
<polyline fill="none" stroke="#bfbfbf" points="31.5,-461.5 89.5,-461.5 "/>
<text text-anchor="middle" x="60.5" y="-449.5" font-family="Helvetica,sans-Serif" font-size="10.00" fill="#000000"> </text>
</g>
<!-- Node5&#45;&gt;Node4 -->
<g id="edge2" class="edge">
<title>Node5&#45;&gt;Node4</title>
<path fill="none" stroke="#191970" d="M60.5,-432.1358C60.5,-423.4939 60.5,-414.1625 60.5,-404.9752"/>
<polygon fill="none" stroke="#191970" points="57.0001,-432.2792 60.5,-442.2792 64.0001,-432.2792 57.0001,-432.2792"/>
</g>
<!-- Node6 -->
<g id="node4" class="node">
<title>Node6</title>
<polygon fill="none" stroke="#bfbfbf" points="139.5,-320 139.5,-377 199.5,-377 199.5,-320 139.5,-320"/>
<text text-anchor="middle" x="169.5" y="-365" font-family="Helvetica,sans-Serif" font-size="10.00" fill="#000000">Double_t</text>
<polyline fill="none" stroke="#bfbfbf" points="139.5,-358 199.5,-358 "/>
<text text-anchor="middle" x="169.5" y="-346" font-family="Helvetica,sans-Serif" font-size="10.00" fill="#000000"> </text>
<polyline fill="none" stroke="#bfbfbf" points="139.5,-339 199.5,-339 "/>
<text text-anchor="middle" x="169.5" y="-327" font-family="Helvetica,sans-Serif" font-size="10.00" fill="#000000"> </text>
</g>
<!-- Node6&#45;&gt;Node3 -->
<g id="edge3" class="edge">
<title>Node6&#45;&gt;Node3</title>
<path fill="none" stroke="#404040" d="M169.5,-319.9426C169.5,-286.4994 169.5,-229.3482 169.5,-179.6707"/>
<polygon fill="none" stroke="#404040" points="169.5001,-179.5526 165.5,-173.5526 169.5,-167.5526 173.5,-173.5525 169.5001,-179.5526"/>
<text text-anchor="middle" x="197" y="-266" font-family="Helvetica,sans-Serif" font-size="10.00" fill="#000000"> #mYMax</text>
<text text-anchor="middle" x="197" y="-255" font-family="Helvetica,sans-Serif" font-size="10.00" fill="#000000">#mEtaMax</text>
<text text-anchor="middle" x="197" y="-244" font-family="Helvetica,sans-Serif" font-size="10.00" fill="#000000">#mPhiMax</text>
<text text-anchor="middle" x="197" y="-233" font-family="Helvetica,sans-Serif" font-size="10.00" fill="#000000">#mEtaMin</text>
<text text-anchor="middle" x="197" y="-222" font-family="Helvetica,sans-Serif" font-size="10.00" fill="#000000">#mPhiMin</text>
<text text-anchor="middle" x="197" y="-211" font-family="Helvetica,sans-Serif" font-size="10.00" fill="#000000">#mPtMax</text>
<text text-anchor="middle" x="197" y="-200" font-family="Helvetica,sans-Serif" font-size="10.00" fill="#000000">#mPtMin</text>
<text text-anchor="middle" x="197" y="-189" font-family="Helvetica,sans-Serif" font-size="10.00" fill="#000000">#mYMin</text>
</g>
<!-- Node7 -->
<g id="node5" class="node">
<title>Node7</title>
<polygon fill="none" stroke="#bfbfbf" points="228.5,-320 228.5,-377 266.5,-377 266.5,-320 228.5,-320"/>
<text text-anchor="middle" x="247.5" y="-365" font-family="Helvetica,sans-Serif" font-size="10.00" fill="#000000">Int_t</text>
<polyline fill="none" stroke="#bfbfbf" points="228.5,-358 266.5,-358 "/>
<text text-anchor="middle" x="247.5" y="-346" font-family="Helvetica,sans-Serif" font-size="10.00" fill="#000000"> </text>
<polyline fill="none" stroke="#bfbfbf" points="228.5,-339 266.5,-339 "/>
<text text-anchor="middle" x="247.5" y="-327" font-family="Helvetica,sans-Serif" font-size="10.00" fill="#000000"> </text>
</g>
<!-- Node7&#45;&gt;Node3 -->
<g id="edge4" class="edge">
<title>Node7&#45;&gt;Node3</title>
<path fill="none" stroke="#404040" d="M246.7811,-319.904C245.2373,-286.8808 240.4247,-231.2901 225.5,-186 224.7097,-183.6017 223.863,-181.1943 222.9674,-178.7847"/>
<polygon fill="none" stroke="#404040" points="222.9143,-178.6523 216.968,-174.5729 218.4466,-167.5149 224.3929,-171.5944 222.9143,-178.6523"/>
<text text-anchor="middle" x="264" y="-227.5" font-family="Helvetica,sans-Serif" font-size="10.00" fill="#000000"> #mPDG</text>
</g>
</g>
</svg>
        <g id="navigator" transform="translate(0 0)" fill="#404254">
                <rect fill="#f2f5e9" fill-opacity="0.5" stroke="#606060" stroke-width=".5" x="0" y="0" width="60" height="60"/>
                <use id="zoomplus" xlink:href="#zoomPlus" x="17" y="9" onmousedown="handleZoom(evt,'in')"/>
                <use id="zoomminus" xlink:href="#zoomMin" x="42" y="9" onmousedown="handleZoom(evt,'out')"/>
                <use id="reset" xlink:href="#resetDef" x="30" y="36" onmousedown="handleReset()"/>
                <g id="arrowUp" xlink:href="#dirArrow" transform="translate(30 24)" onmousedown="handlePan(0,-1)">
                  <use xlink:href="#rim" fill="#404040">
                        <set attributeName="fill" to="#808080" begin="arrowUp.mouseover" end="arrowUp.mouseout"/>
                  </use>
                  <path fill="none" stroke="white" stroke-width="1.5" d="M0,-3.0v7 M-2.5,-0.5L0,-3.0L2.5,-0.5"/>
                </g>
                <g id="arrowRight" xlink:href="#dirArrow" transform="rotate(90) translate(36 -43)" onmousedown="handlePan(1,0)">
                  <use xlink:href="#rim" fill="#404040">
                        <set attributeName="fill" to="#808080" begin="arrowRight.mouseover" end="arrowRight.mouseout"/>
                  </use>
                  <path fill="none" stroke="white" stroke-width="1.5" d="M0,-3.0v7 M-2.5,-0.5L0,-3.0L2.5,-0.5"/>
                </g>
                <g id="arrowDown" xlink:href="#dirArrow" transform="rotate(180) translate(-30 -48)" onmousedown="handlePan(0,1)">
                  <use xlink:href="#rim" fill="#404040">
                        <set attributeName="fill" to="#808080" begin="arrowDown.mouseover" end="arrowDown.mouseout"/>
                  </use>
                  <path fill="none" stroke="white" stroke-width="1.5" d="M0,-3.0v7 M-2.5,-0.5L0,-3.0L2.5,-0.5"/>
                </g>
                <g id="arrowLeft" xlink:href="#dirArrow" transform="rotate(270) translate(-36 17)" onmousedown="handlePan(-1,0)">
                  <use xlink:href="#rim" fill="#404040">
                        <set attributeName="fill" to="#808080" begin="arrowLeft.mouseover" end="arrowLeft.mouseout"/>
                  </use>
                  <path fill="none" stroke="white" stroke-width="1.5" d="M0,-3.0v7 M-2.5,-0.5L0,-3.0L2.5,-0.5"/>
                </g>
        </g>
        <svg viewBox="0 0 15 15" width="100%" height="30px" preserveAspectRatio="xMaxYMin meet">
         <g id="arrow_out" transform="scale(0.3 0.3)">
          <a xlink:href="classo2_1_1eventgen_1_1TriggerParticle__coll__graph_org.svg" target="_base">
           <rect id="button" ry="5" rx="5" y="6" x="6" height="38" width="38"
                fill="#f2f5e9" fill-opacity="0.5" stroke="#606060" stroke-width="1.0"/>
           <path id="arrow"
             d="M 11.500037,31.436501 C 11.940474,20.09759 22.043105,11.32322 32.158766,21.979434 L 37.068811,17.246167 C 37.068811,17.246167 37.088388,32 37.088388,32 L 22.160133,31.978069 C 22.160133,31.978069 26.997745,27.140456 26.997745,27.140456 C 18.528582,18.264221 13.291696,25.230495 11.500037,31.436501 z"
             style="fill:#404040;"/>
          </a>
         </g>
        </svg>
</svg>
