<?xml version="1.0" encoding="UTF-8" standalone="no"?>
<!DOCTYPE svg PUBLIC "-//W3C//DTD SVG 1.1//EN"
 "http://www.w3.org/Graphics/SVG/1.1/DTD/svg11.dtd">
<!-- Generated by graphviz version 2.40.1 (20161225.0304)
 -->
<!-- Title: /home/travis/build/AliceO2Group/AliceO2/Detectors/Passive/src/Magnet.cxx Pages: 1 -->
<!--zoomable 296 -->
<svg id="main" version="1.1" xmlns="http://www.w3.org/2000/svg" xmlns:xlink="http://www.w3.org/1999/xlink" xml:space="preserve" onload="init(evt)">
<style type="text/css"><![CDATA[
.edge:hover path { stroke: red; }
.edge:hover polygon { stroke: red; fill: red; }
]]></style>
<script type="text/javascript"><![CDATA[
var edges = document.getElementsByTagName('g');
if (edges && edges.length) {
  for (var i=0;i<edges.length;i++) {
    if (edges[i].id.substr(0,4)=='edge') {
      edges[i].setAttribute('class','edge');
    }
  }
}
]]></script>
        <defs>
                <circle id="rim" cx="0" cy="0" r="7"/>
                <circle id="rim2" cx="0" cy="0" r="3.5"/>
                <g id="zoomPlus">
                        <use xlink:href="#rim" fill="#404040">
                                <set attributeName="fill" to="#808080" begin="zoomplus.mouseover" end="zoomplus.mouseout"/>
                        </use>
                        <path d="M-4,0h8M0,-4v8" fill="none" stroke="white" stroke-width="1.5" pointer-events="none"/>
                </g>
                <g id="zoomMin">
                        <use xlink:href="#rim" fill="#404040">
                                <set attributeName="fill" to="#808080" begin="zoomminus.mouseover" end="zoomminus.mouseout"/>
                        </use>
                        <path d="M-4,0h8" fill="none" stroke="white" stroke-width="1.5" pointer-events="none"/>
                </g>
                <g id="dirArrow">
                        <path fill="none" stroke="white" stroke-width="1.5" d="M0,-3.0v7 M-2.5,-0.5L0,-3.0L2.5,-0.5"/>
                </g>
               <g id="resetDef">
                       <use xlink:href="#rim2" fill="#404040">
                               <set attributeName="fill" to="#808080" begin="reset.mouseover" end="reset.mouseout"/>
                       </use>
               </g>
        </defs>

<script type="text/javascript">
var viewWidth = 2399;
var viewHeight = 296;
var sectionId = 'dynsection-0';
</script>
<script xlink:href="../../svgpan.js"/>
<svg id="graph" class="graph">
<g id="viewport">
<title>/home/travis/build/AliceO2Group/AliceO2/Detectors/Passive/src/Magnet.cxx</title>
<!-- Node0 -->
<g id="node1" class="node">
<title>Node0</title>
<polygon fill="#bfbfbf" stroke="#000000" points="1784.5,-235.5 1784.5,-287.5 1911.5,-287.5 1911.5,-235.5 1784.5,-235.5"/>
<text text-anchor="start" x="1792.5" y="-275.5" font-family="Helvetica,sans-Serif" font-size="10.00" fill="#000000">/home/travis/build</text>
<text text-anchor="start" x="1792.5" y="-264.5" font-family="Helvetica,sans-Serif" font-size="10.00" fill="#000000">/AliceO2Group/AliceO2</text>
<text text-anchor="start" x="1792.5" y="-253.5" font-family="Helvetica,sans-Serif" font-size="10.00" fill="#000000">/Detectors/Passive/src</text>
<text text-anchor="middle" x="1848" y="-242.5" font-family="Helvetica,sans-Serif" font-size="10.00" fill="#000000">/Magnet.cxx</text>
</g>
<!-- Node1 -->
<g id="node2" class="node">
<title>Node1</title>
<g id="a_node2"><a xlink:href="../../d1/d3a/Base_2include_2DetectorsBase_2Detector_8h.html" target="_top" xlink:title="DetectorsBase/Detector.h">
<polygon fill="none" stroke="#000000" points="668.5,-179.5 668.5,-198.5 809.5,-198.5 809.5,-179.5 668.5,-179.5"/>
<text text-anchor="middle" x="739" y="-186.5" font-family="Helvetica,sans-Serif" font-size="10.00" fill="#000000">DetectorsBase/Detector.h</text>
</a>
</g>
</g>
<!-- Node0&#45;&gt;Node1 -->
<g id="edge1" class="edge">
<title>Node0&#45;&gt;Node1</title>
<path fill="none" stroke="#191970" d="M1784.3922,-257.3417C1594.315,-244.9155 1030.716,-208.0707 819.8403,-194.2849"/>
<polygon fill="#191970" stroke="#191970" points="819.9737,-190.7862 809.7667,-193.6263 819.517,-197.7713 819.9737,-190.7862"/>
</g>
<!-- Node8 -->
<g id="node9" class="node">
<title>Node8</title>
<g id="a_node9"><a xlink:href="../../d0/d9a/MaterialManager_8h.html" target="_top" xlink:title="DetectorsBase/MaterialManager.h">
<polygon fill="none" stroke="#000000" points="29.5,-123.5 29.5,-142.5 210.5,-142.5 210.5,-123.5 29.5,-123.5"/>
<text text-anchor="middle" x="120" y="-130.5" font-family="Helvetica,sans-Serif" font-size="10.00" fill="#000000">DetectorsBase/MaterialManager.h</text>
</a>
</g>
</g>
<!-- Node0&#45;&gt;Node8 -->
<g id="edge30" class="edge">
<title>Node0&#45;&gt;Node8</title>
<path fill="none" stroke="#191970" d="M1784.4117,-259.7095C1606.4115,-254.3625 1088.0932,-236.5033 659,-199 493.3518,-184.5222 300.1039,-158.665 195.9173,-143.9809"/>
<polygon fill="#191970" stroke="#191970" points="196.2013,-140.4863 185.8098,-142.552 195.2213,-147.4174 196.2013,-140.4863"/>
</g>
<!-- Node22 -->
<g id="node23" class="node">
<title>Node22</title>
<polygon fill="none" stroke="#bfbfbf" points="1462,-67.5 1462,-86.5 1514,-86.5 1514,-67.5 1462,-67.5"/>
<text text-anchor="middle" x="1488" y="-74.5" font-family="Helvetica,sans-Serif" font-size="10.00" fill="#000000">cassert</text>
</g>
<!-- Node0&#45;&gt;Node22 -->
<g id="edge41" class="edge">
<title>Node0&#45;&gt;Node22</title>
<path fill="none" stroke="#191970" d="M1784.2437,-255.5672C1739.7461,-248.4927 1681.334,-232.9859 1641,-199 1612.1206,-174.6659 1630.7904,-148.5708 1603,-123 1580.8868,-102.6529 1548.6473,-90.8126 1523.9267,-84.2549"/>
<polygon fill="#191970" stroke="#191970" points="1524.7317,-80.8486 1514.1831,-81.8367 1523.0456,-87.6425 1524.7317,-80.8486"/>
</g>
<!-- Node25 -->
<g id="node26" class="node">
<title>Node25</title>
<g id="a_node26"><a xlink:href="../../dd/db0/Magnet_8h.html" target="_top" xlink:title="DetectorsPassive/Magnet.h">
<polygon fill="none" stroke="#000000" points="1445.5,-179.5 1445.5,-198.5 1594.5,-198.5 1594.5,-179.5 1445.5,-179.5"/>
<text text-anchor="middle" x="1520" y="-186.5" font-family="Helvetica,sans-Serif" font-size="10.00" fill="#000000">DetectorsPassive/Magnet.h</text>
</a>
</g>
</g>
<!-- Node0&#45;&gt;Node25 -->
<g id="edge31" class="edge">
<title>Node0&#45;&gt;Node25</title>
<path fill="none" stroke="#191970" d="M1784.3694,-247.4353C1722.8585,-233.8392 1630.7397,-213.4775 1573.0697,-200.7303"/>
<polygon fill="#191970" stroke="#191970" points="1573.5883,-197.2606 1563.0686,-198.5197 1572.0774,-204.0956 1573.5883,-197.2606"/>
</g>
<!-- Node27 -->
<g id="node28" class="node">
<title>Node27</title>
<polygon fill="none" stroke="#bfbfbf" points="1650,-179.5 1650,-198.5 1784,-198.5 1784,-179.5 1650,-179.5"/>
<text text-anchor="middle" x="1717" y="-186.5" font-family="Helvetica,sans-Serif" font-size="10.00" fill="#000000">TGeoCompositeShape.h</text>
</g>
<!-- Node0&#45;&gt;Node27 -->
<g id="edge34" class="edge">
<title>Node0&#45;&gt;Node27</title>
<path fill="none" stroke="#191970" d="M1800.706,-235.3258C1781.3466,-224.6116 1759.6822,-212.6218 1743.2444,-203.5246"/>
<polygon fill="#191970" stroke="#191970" points="1744.6712,-200.314 1734.227,-198.534 1741.2816,-206.4386 1744.6712,-200.314"/>
</g>
<!-- Node28 -->
<g id="node29" class="node">
<title>Node28</title>
<polygon fill="none" stroke="#bfbfbf" points="1802,-179.5 1802,-198.5 1894,-198.5 1894,-179.5 1802,-179.5"/>
<text text-anchor="middle" x="1848" y="-186.5" font-family="Helvetica,sans-Serif" font-size="10.00" fill="#000000">TGeoManager.h</text>
</g>
<!-- Node0&#45;&gt;Node28 -->
<g id="edge35" class="edge">
<title>Node0&#45;&gt;Node28</title>
<path fill="none" stroke="#191970" d="M1848,-235.3258C1848,-226.5142 1848,-216.8397 1848,-208.621"/>
<polygon fill="#191970" stroke="#191970" points="1851.5001,-208.534 1848,-198.534 1844.5001,-208.534 1851.5001,-208.534"/>
</g>
<!-- Node29 -->
<g id="node30" class="node">
<title>Node29</title>
<polygon fill="none" stroke="#bfbfbf" points="1912,-179.5 1912,-198.5 1994,-198.5 1994,-179.5 1912,-179.5"/>
<text text-anchor="middle" x="1953" y="-186.5" font-family="Helvetica,sans-Serif" font-size="10.00" fill="#000000">TGeoMatrix.h</text>
</g>
<!-- Node0&#45;&gt;Node29 -->
<g id="edge36" class="edge">
<title>Node0&#45;&gt;Node29</title>
<path fill="none" stroke="#191970" d="M1885.9074,-235.3258C1900.9895,-224.912 1917.8168,-213.2931 1930.8465,-204.2965"/>
<polygon fill="#191970" stroke="#191970" points="1932.9518,-207.0961 1939.1921,-198.534 1928.9745,-201.3358 1932.9518,-207.0961"/>
</g>
<!-- Node30 -->
<g id="node31" class="node">
<title>Node30</title>
<polygon fill="none" stroke="#bfbfbf" points="2012,-179.5 2012,-198.5 2102,-198.5 2102,-179.5 2012,-179.5"/>
<text text-anchor="middle" x="2057" y="-186.5" font-family="Helvetica,sans-Serif" font-size="10.00" fill="#000000">TGeoMedium.h</text>
</g>
<!-- Node0&#45;&gt;Node30 -->
<g id="edge37" class="edge">
<title>Node0&#45;&gt;Node30</title>
<path fill="none" stroke="#191970" d="M1911.5581,-239.4523C1946.9488,-227.1757 1989.7811,-212.3175 2019.765,-201.9165"/>
<polygon fill="#191970" stroke="#191970" points="2021.1109,-205.1542 2029.4115,-198.5702 2018.8167,-198.5408 2021.1109,-205.1542"/>
</g>
<!-- Node31 -->
<g id="node32" class="node">
<title>Node31</title>
<polygon fill="none" stroke="#bfbfbf" points="2120.5,-179.5 2120.5,-198.5 2195.5,-198.5 2195.5,-179.5 2120.5,-179.5"/>
<text text-anchor="middle" x="2158" y="-186.5" font-family="Helvetica,sans-Serif" font-size="10.00" fill="#000000">TGeoPgon.h</text>
</g>
<!-- Node0&#45;&gt;Node31 -->
<g id="edge38" class="edge">
<title>Node0&#45;&gt;Node31</title>
<path fill="none" stroke="#191970" d="M1911.8563,-246.5659C1970.8014,-232.7803 2057.0214,-212.616 2110.2145,-200.1756"/>
<polygon fill="#191970" stroke="#191970" points="2111.1314,-203.5557 2120.0715,-197.8704 2109.5372,-196.7397 2111.1314,-203.5557"/>
</g>
<!-- Node32 -->
<g id="node33" class="node">
<title>Node32</title>
<polygon fill="none" stroke="#bfbfbf" points="2213,-179.5 2213,-198.5 2301,-198.5 2301,-179.5 2213,-179.5"/>
<text text-anchor="middle" x="2257" y="-186.5" font-family="Helvetica,sans-Serif" font-size="10.00" fill="#000000">TGeoVolume.h</text>
</g>
<!-- Node0&#45;&gt;Node32 -->
<g id="edge39" class="edge">
<title>Node0&#45;&gt;Node32</title>
<path fill="none" stroke="#191970" d="M1911.5781,-250.6985C1980.8561,-238.8544 2095.2375,-219.0831 2202.711,-199.4033"/>
<polygon fill="#191970" stroke="#191970" points="2203.5505,-202.8078 2212.7548,-197.5607 2202.2873,-195.9227 2203.5505,-202.8078"/>
</g>
<!-- Node33 -->
<g id="node34" class="node">
<title>Node33</title>
<polygon fill="none" stroke="#bfbfbf" points="2319.5,-179.5 2319.5,-198.5 2390.5,-198.5 2390.5,-179.5 2319.5,-179.5"/>
<text text-anchor="middle" x="2355" y="-186.5" font-family="Helvetica,sans-Serif" font-size="10.00" fill="#000000">TGeoXtru.h</text>
</g>
<!-- Node0&#45;&gt;Node33 -->
<g id="edge40" class="edge">
<title>Node0&#45;&gt;Node33</title>
<path fill="none" stroke="#191970" d="M1911.7856,-254.5923C1999.1492,-244.7491 2161.086,-225.1414 2309.0194,-199.051"/>
<polygon fill="#191970" stroke="#191970" points="2309.9603,-202.4386 2319.1933,-197.2423 2308.7351,-195.5467 2309.9603,-202.4386"/>
</g>
<!-- Node2 -->
<g id="node3" class="node">
<title>Node2</title>
<polygon fill="none" stroke="#bfbfbf" points="0,-67.5 0,-86.5 38,-86.5 38,-67.5 0,-67.5"/>
<text text-anchor="middle" x="19" y="-74.5" font-family="Helvetica,sans-Serif" font-size="10.00" fill="#000000">map</text>
</g>
<!-- Node1&#45;&gt;Node2 -->
<g id="edge2" class="edge">
<title>Node1&#45;&gt;Node2</title>
<path fill="none" stroke="#191970" d="M668.3659,-187.0427C491.5063,-181.802 42.1457,-166.2523 20,-143 8.4253,-130.847 9.7667,-110.9986 13.0342,-96.2371"/>
<polygon fill="#191970" stroke="#191970" points="16.4175,-97.1332 15.5967,-86.5702 9.6512,-95.3396 16.4175,-97.1332"/>
</g>
<!-- Node3 -->
<g id="node4" class="node">
<title>Node3</title>
<polygon fill="none" stroke="#bfbfbf" points="479.5,-123.5 479.5,-142.5 526.5,-142.5 526.5,-123.5 479.5,-123.5"/>
<text text-anchor="middle" x="503" y="-130.5" font-family="Helvetica,sans-Serif" font-size="10.00" fill="#000000">vector</text>
</g>
<!-- Node1&#45;&gt;Node3 -->
<g id="edge3" class="edge">
<title>Node1&#45;&gt;Node3</title>
<path fill="none" stroke="#191970" d="M696.4284,-179.4854C656.2736,-170.4221 594.4384,-156.2359 541,-143 539.5515,-142.6412 538.0731,-142.2708 536.5804,-141.8932"/>
<polygon fill="#191970" stroke="#191970" points="537.2463,-138.4506 526.6895,-139.3477 535.5016,-145.2297 537.2463,-138.4506"/>
</g>
<!-- Node4 -->
<g id="node5" class="node">
<title>Node4</title>
<polygon fill="none" stroke="#bfbfbf" points="349.5,-67.5 349.5,-86.5 432.5,-86.5 432.5,-67.5 349.5,-67.5"/>
<text text-anchor="middle" x="391" y="-74.5" font-family="Helvetica,sans-Serif" font-size="10.00" fill="#000000">initializer_list</text>
</g>
<!-- Node1&#45;&gt;Node4 -->
<g id="edge4" class="edge">
<title>Node1&#45;&gt;Node4</title>
<path fill="none" stroke="#191970" d="M695.8366,-179.4977C662.0871,-171.4669 614.2959,-158.7624 574,-143 555.8589,-135.9038 553.0056,-130.4334 535,-123 502.6669,-109.6516 464.9676,-97.7335 436.2546,-89.3747"/>
<polygon fill="#191970" stroke="#191970" points="437.0745,-85.9687 426.4967,-86.57 435.1407,-92.6963 437.0745,-85.9687"/>
</g>
<!-- Node5 -->
<g id="node6" class="node">
<title>Node5</title>
<polygon fill="none" stroke="#bfbfbf" points="583,-123.5 583,-142.5 641,-142.5 641,-123.5 583,-123.5"/>
<text text-anchor="middle" x="612" y="-130.5" font-family="Helvetica,sans-Serif" font-size="10.00" fill="#000000">memory</text>
</g>
<!-- Node1&#45;&gt;Node5 -->
<g id="edge5" class="edge">
<title>Node1&#45;&gt;Node5</title>
<path fill="none" stroke="#191970" d="M717.1679,-179.3733C696.6897,-170.3435 665.8601,-156.7494 642.8681,-146.6111"/>
<polygon fill="#191970" stroke="#191970" points="644.1093,-143.3333 633.5472,-142.5011 641.285,-149.7383 644.1093,-143.3333"/>
</g>
<!-- Node6 -->
<g id="node7" class="node">
<title>Node6</title>
<polygon fill="none" stroke="#bfbfbf" points="697,-123.5 697,-142.5 781,-142.5 781,-123.5 697,-123.5"/>
<text text-anchor="middle" x="739" y="-130.5" font-family="Helvetica,sans-Serif" font-size="10.00" fill="#000000">FairDetector.h</text>
</g>
<!-- Node1&#45;&gt;Node6 -->
<g id="edge6" class="edge">
<title>Node1&#45;&gt;Node6</title>
<path fill="none" stroke="#191970" d="M739,-179.2455C739,-171.9382 739,-161.6944 739,-152.7046"/>
<polygon fill="#191970" stroke="#191970" points="742.5001,-152.6426 739,-142.6427 735.5001,-152.6427 742.5001,-152.6426"/>
</g>
<!-- Node7 -->
<g id="node8" class="node">
<title>Node7</title>
<polygon fill="none" stroke="#bfbfbf" points="799,-123.5 799,-142.5 905,-142.5 905,-123.5 799,-123.5"/>
<text text-anchor="middle" x="852" y="-130.5" font-family="Helvetica,sans-Serif" font-size="10.00" fill="#000000">FairRootManager.h</text>
</g>
<!-- Node1&#45;&gt;Node7 -->
<g id="edge7" class="edge">
<title>Node1&#45;&gt;Node7</title>
<path fill="none" stroke="#191970" d="M758.4254,-179.3733C776.4021,-170.4644 803.3441,-157.1127 823.709,-147.0203"/>
<polygon fill="#191970" stroke="#191970" points="825.4222,-150.0776 832.8281,-142.5011 822.3139,-143.8055 825.4222,-150.0776"/>
</g>
<!-- Node1&#45;&gt;Node8 -->
<g id="edge8" class="edge">
<title>Node1&#45;&gt;Node8</title>
<path fill="none" stroke="#191970" d="M668.462,-183.0017C570.6479,-174.6274 387.9887,-158.7853 221.201,-143.1043"/>
<polygon fill="#191970" stroke="#191970" points="221.0308,-139.5729 210.7466,-142.1197 220.3743,-146.5421 221.0308,-139.5729"/>
</g>
<!-- Node9 -->
<g id="node10" class="node">
<title>Node9</title>
<polygon fill="none" stroke="#bfbfbf" points="639.5,-67.5 639.5,-86.5 698.5,-86.5 698.5,-67.5 639.5,-67.5"/>
<text text-anchor="middle" x="669" y="-74.5" font-family="Helvetica,sans-Serif" font-size="10.00" fill="#000000">Rtypes.h</text>
</g>
<!-- Node1&#45;&gt;Node9 -->
<g id="edge13" class="edge">
<title>Node1&#45;&gt;Node9</title>
<path fill="none" stroke="#191970" d="M724.4218,-179.3369C712.9372,-171.001 697.3529,-157.9647 688,-143 679.124,-128.7984 674.2683,-110.3133 671.6933,-96.5198"/>
<polygon fill="#191970" stroke="#191970" points="675.1455,-95.9426 670.0839,-86.635 668.2365,-97.0675 675.1455,-95.9426"/>
</g>
<!-- Node11 -->
<g id="node12" class="node">
<title>Node11</title>
<polygon fill="none" stroke="#bfbfbf" points="923,-123.5 923,-142.5 981,-142.5 981,-123.5 923,-123.5"/>
<text text-anchor="middle" x="952" y="-130.5" font-family="Helvetica,sans-Serif" font-size="10.00" fill="#000000">cxxabi.h</text>
</g>
<!-- Node1&#45;&gt;Node11 -->
<g id="edge14" class="edge">
<title>Node1&#45;&gt;Node11</title>
<path fill="none" stroke="#191970" d="M775.1983,-179.4882C808.514,-170.7331 859.5736,-157.3134 912.962,-143.2725"/>
<polygon fill="#191970" stroke="#191970" points="914.1733,-146.5731 922.9541,-140.6446 912.3927,-139.8033 914.1733,-146.5731"/>
</g>
<!-- Node12 -->
<g id="node13" class="node">
<title>Node12</title>
<polygon fill="none" stroke="#bfbfbf" points="1037.5,-123.5 1037.5,-142.5 1094.5,-142.5 1094.5,-123.5 1037.5,-123.5"/>
<text text-anchor="middle" x="1066" y="-130.5" font-family="Helvetica,sans-Serif" font-size="10.00" fill="#000000">typeinfo</text>
</g>
<!-- Node1&#45;&gt;Node12 -->
<g id="edge15" class="edge">
<title>Node1&#45;&gt;Node12</title>
<path fill="none" stroke="#191970" d="M805.7923,-179.4908C863.4896,-170.9642 949.001,-157.5799 1023,-143 1024.457,-142.7129 1025.9397,-142.412 1027.436,-142.1011"/>
<polygon fill="#191970" stroke="#191970" points="1028.348,-145.4847 1037.3773,-139.9418 1026.8622,-138.6441 1028.348,-145.4847"/>
</g>
<!-- Node13 -->
<g id="node14" class="node">
<title>Node13</title>
<polygon fill="none" stroke="#bfbfbf" points="1112.5,-123.5 1112.5,-142.5 1181.5,-142.5 1181.5,-123.5 1112.5,-123.5"/>
<text text-anchor="middle" x="1147" y="-130.5" font-family="Helvetica,sans-Serif" font-size="10.00" fill="#000000">type_traits</text>
</g>
<!-- Node1&#45;&gt;Node13 -->
<g id="edge16" class="edge">
<title>Node1&#45;&gt;Node13</title>
<path fill="none" stroke="#191970" d="M809.7684,-182.128C881.1137,-174.7307 994.5683,-161.6891 1102.3967,-142.9528"/>
<polygon fill="#191970" stroke="#191970" points="1103.2342,-146.3593 1112.4775,-141.1814 1102.0227,-139.465 1103.2342,-146.3593"/>
</g>
<!-- Node14 -->
<g id="node15" class="node">
<title>Node14</title>
<polygon fill="none" stroke="#bfbfbf" points="1200,-123.5 1200,-142.5 1244,-142.5 1244,-123.5 1200,-123.5"/>
<text text-anchor="middle" x="1222" y="-130.5" font-family="Helvetica,sans-Serif" font-size="10.00" fill="#000000">string</text>
</g>
<!-- Node1&#45;&gt;Node14 -->
<g id="edge17" class="edge">
<title>Node1&#45;&gt;Node14</title>
<path fill="none" stroke="#191970" d="M809.5833,-186.1959C898.925,-181.6448 1057.1946,-170.2342 1190,-143 1190.0998,-142.9795 1190.1997,-142.9589 1190.2997,-142.9381"/>
<polygon fill="#191970" stroke="#191970" points="1190.9153,-146.3918 1199.7705,-140.5748 1189.2206,-139.6001 1190.9153,-146.3918"/>
</g>
<!-- Node15 -->
<g id="node16" class="node">
<title>Node15</title>
<polygon fill="none" stroke="#bfbfbf" points="229,-123.5 229,-142.5 303,-142.5 303,-123.5 229,-123.5"/>
<text text-anchor="middle" x="266" y="-130.5" font-family="Helvetica,sans-Serif" font-size="10.00" fill="#000000">TMessage.h</text>
</g>
<!-- Node1&#45;&gt;Node15 -->
<g id="edge18" class="edge">
<title>Node1&#45;&gt;Node15</title>
<path fill="none" stroke="#191970" d="M668.4219,-183.7193C585.6538,-177.0054 444.1646,-163.9073 313.2975,-143.0642"/>
<polygon fill="#191970" stroke="#191970" points="313.5218,-139.5553 303.0923,-141.4194 312.4079,-146.4661 313.5218,-139.5553"/>
</g>
<!-- Node16 -->
<g id="node17" class="node">
<title>Node16</title>
<g id="a_node17"><a xlink:href="../../de/d61/ShmManager_8h.html" target="_top" xlink:title="CommonUtils/ShmManager.h">
<polygon fill="none" stroke="#000000" points="1108,-67.5 1108,-86.5 1266,-86.5 1266,-67.5 1108,-67.5"/>
<text text-anchor="middle" x="1187" y="-74.5" font-family="Helvetica,sans-Serif" font-size="10.00" fill="#000000">CommonUtils/ShmManager.h</text>
</a>
</g>
</g>
<!-- Node1&#45;&gt;Node16 -->
<g id="edge19" class="edge">
<title>Node1&#45;&gt;Node16</title>
<path fill="none" stroke="#191970" d="M809.7059,-181.8485C860.8154,-175.2926 930.9628,-163.411 990,-143 1008.0377,-136.7638 1010.2979,-130.1331 1028,-123 1062.9939,-108.8992 1103.9144,-97.1628 1135.4785,-89.0744"/>
<polygon fill="#191970" stroke="#191970" points="1136.5377,-92.4169 1145.3785,-86.5781 1134.8262,-85.6294 1136.5377,-92.4169"/>
</g>
<!-- Node21 -->
<g id="node22" class="node">
<title>Node21</title>
<g id="a_node22"><a xlink:href="../../d0/d91/ShmAllocator_8h.html" target="_top" xlink:title="CommonUtils/ShmAllocator.h">
<polygon fill="none" stroke="#000000" points="1300,-123.5 1300,-142.5 1460,-142.5 1460,-123.5 1300,-123.5"/>
<text text-anchor="middle" x="1380" y="-130.5" font-family="Helvetica,sans-Serif" font-size="10.00" fill="#000000">CommonUtils/ShmAllocator.h</text>
</a>
</g>
</g>
<!-- Node1&#45;&gt;Node21 -->
<g id="edge24" class="edge">
<title>Node1&#45;&gt;Node21</title>
<path fill="none" stroke="#191970" d="M809.7393,-182.82C926.7946,-172.5936 1160.6305,-152.1649 1289.5319,-140.9036"/>
<polygon fill="#191970" stroke="#191970" points="1290.1116,-144.3664 1299.769,-140.0093 1289.5023,-137.3929 1290.1116,-144.3664"/>
</g>
<!-- Node1&#45;&gt;Node22 -->
<g id="edge29" class="edge">
<title>Node1&#45;&gt;Node22</title>
<path fill="none" stroke="#191970" d="M809.7192,-186.7319C988.0135,-180.722 1443.5529,-163.4401 1469,-143 1482.4823,-132.1705 1486.7865,-112.4284 1487.9847,-97.348"/>
<polygon fill="#191970" stroke="#191970" points="1491.498,-97.0801 1488.3962,-86.9495 1484.5035,-96.8032 1491.498,-97.0801"/>
</g>
<!-- Node23 -->
<g id="node24" class="node">
<title>Node23</title>
<polygon fill="none" stroke="#bfbfbf" points="321,-123.5 321,-142.5 387,-142.5 387,-123.5 321,-123.5"/>
<text text-anchor="middle" x="354" y="-130.5" font-family="Helvetica,sans-Serif" font-size="10.00" fill="#000000">sys/shm.h</text>
</g>
<!-- Node1&#45;&gt;Node23 -->
<g id="edge27" class="edge">
<title>Node1&#45;&gt;Node23</title>
<path fill="none" stroke="#191970" d="M668.382,-181.628C601.0461,-174.1216 496.6257,-161.2431 397.3093,-143.1032"/>
<polygon fill="#191970" stroke="#191970" points="397.8757,-139.6487 387.4062,-141.2736 396.6038,-146.5322 397.8757,-139.6487"/>
</g>
<!-- Node24 -->
<g id="node25" class="node">
<title>Node24</title>
<polygon fill="none" stroke="#bfbfbf" points="405,-123.5 405,-142.5 461,-142.5 461,-123.5 405,-123.5"/>
<text text-anchor="middle" x="433" y="-130.5" font-family="Helvetica,sans-Serif" font-size="10.00" fill="#000000">unistd.h</text>
</g>
<!-- Node1&#45;&gt;Node24 -->
<g id="edge28" class="edge">
<title>Node1&#45;&gt;Node24</title>
<path fill="none" stroke="#191970" d="M672.8848,-179.4794C620.5731,-171.5379 545.5004,-159.2384 471.2131,-143.1152"/>
<polygon fill="#191970" stroke="#191970" points="471.7318,-139.6458 461.2139,-140.9204 470.231,-146.483 471.7318,-139.6458"/>
</g>
<!-- Node8&#45;&gt;Node2 -->
<g id="edge10" class="edge">
<title>Node8&#45;&gt;Node2</title>
<path fill="none" stroke="#191970" d="M102.4071,-123.2455C86.621,-114.4928 63.2361,-101.527 45.2413,-91.5496"/>
<polygon fill="#191970" stroke="#191970" points="46.8341,-88.4308 36.3913,-86.6427 43.4397,-94.5528 46.8341,-88.4308"/>
</g>
<!-- Node8&#45;&gt;Node4 -->
<g id="edge12" class="edge">
<title>Node8&#45;&gt;Node4</title>
<path fill="none" stroke="#191970" d="M166.2786,-123.4369C214.3648,-113.5003 289.4376,-97.9871 339.4059,-87.6615"/>
<polygon fill="#191970" stroke="#191970" points="340.2741,-91.0561 349.3589,-85.6048 338.8574,-84.201 340.2741,-91.0561"/>
</g>
<!-- Node8&#45;&gt;Node9 -->
<g id="edge9" class="edge">
<title>Node8&#45;&gt;Node9</title>
<path fill="none" stroke="#191970" d="M210.6562,-123.7527C332.1088,-111.3641 542.4258,-89.911 629.4963,-81.0295"/>
<polygon fill="#191970" stroke="#191970" points="629.8963,-84.507 639.4894,-80.0102 629.1859,-77.5431 629.8963,-84.507"/>
</g>
<!-- Node10 -->
<g id="node11" class="node">
<title>Node10</title>
<polygon fill="none" stroke="#bfbfbf" points="73.5,-67.5 73.5,-86.5 166.5,-86.5 166.5,-67.5 73.5,-67.5"/>
<text text-anchor="middle" x="120" y="-74.5" font-family="Helvetica,sans-Serif" font-size="10.00" fill="#000000">unordered_map</text>
</g>
<!-- Node8&#45;&gt;Node10 -->
<g id="edge11" class="edge">
<title>Node8&#45;&gt;Node10</title>
<path fill="none" stroke="#191970" d="M120,-123.2455C120,-115.9382 120,-105.6944 120,-96.7046"/>
<polygon fill="#191970" stroke="#191970" points="123.5001,-96.6426 120,-86.6427 116.5001,-96.6427 123.5001,-96.6426"/>
</g>
<!-- Node17 -->
<g id="node18" class="node">
<title>Node17</title>
<polygon fill="none" stroke="#bfbfbf" points="1047,-6 1047,-25 1079,-25 1079,-6 1047,-6"/>
<text text-anchor="middle" x="1063" y="-13" font-family="Helvetica,sans-Serif" font-size="10.00" fill="#000000">list</text>
</g>
<!-- Node16&#45;&gt;Node17 -->
<g id="edge20" class="edge">
<title>Node16&#45;&gt;Node17</title>
<path fill="none" stroke="#191970" d="M1164.2095,-67.3418C1143.8951,-58.5146 1113.5167,-44.774 1088,-31 1087.5843,-30.7756 1087.166,-30.5472 1086.7459,-30.3154"/>
<polygon fill="#191970" stroke="#191970" points="1088.2977,-27.1683 1077.8985,-25.1414 1084.7639,-33.2109 1088.2977,-27.1683"/>
</g>
<!-- Node18 -->
<g id="node19" class="node">
<title>Node18</title>
<polygon fill="none" stroke="#bfbfbf" points="1097.5,-6 1097.5,-25 1150.5,-25 1150.5,-6 1097.5,-6"/>
<text text-anchor="middle" x="1124" y="-13" font-family="Helvetica,sans-Serif" font-size="10.00" fill="#000000">cstddef</text>
</g>
<!-- Node16&#45;&gt;Node18 -->
<g id="edge21" class="edge">
<title>Node16&#45;&gt;Node18</title>
<path fill="none" stroke="#191970" d="M1177.1563,-67.3906C1167.5961,-58.0581 1152.8777,-43.6902 1141.3505,-32.4374"/>
<polygon fill="#191970" stroke="#191970" points="1143.5832,-29.7257 1133.9825,-25.2449 1138.6934,-34.7348 1143.5832,-29.7257"/>
</g>
<!-- Node19 -->
<g id="node20" class="node">
<title>Node19</title>
<polygon fill="none" stroke="#bfbfbf" points="1168.5,-.5 1168.5,-30.5 1333.5,-30.5 1333.5,-.5 1168.5,-.5"/>
<text text-anchor="start" x="1176.5" y="-18.5" font-family="Helvetica,sans-Serif" font-size="10.00" fill="#000000">boost/interprocess</text>
<text text-anchor="middle" x="1251" y="-7.5" font-family="Helvetica,sans-Serif" font-size="10.00" fill="#000000">/managed_external_buffer.hpp</text>
</g>
<!-- Node16&#45;&gt;Node19 -->
<g id="edge22" class="edge">
<title>Node16&#45;&gt;Node19</title>
<path fill="none" stroke="#191970" d="M1197,-67.3906C1205.2606,-59.4527 1217.3122,-47.8718 1227.9355,-37.6635"/>
<polygon fill="#191970" stroke="#191970" points="1230.5584,-39.9971 1235.3438,-30.5446 1225.7082,-34.9498 1230.5584,-39.9971"/>
</g>
<!-- Node20 -->
<g id="node21" class="node">
<title>Node20</title>
<polygon fill="none" stroke="#bfbfbf" points="1352,-.5 1352,-30.5 1486,-30.5 1486,-.5 1352,-.5"/>
<text text-anchor="start" x="1360" y="-18.5" font-family="Helvetica,sans-Serif" font-size="10.00" fill="#000000">boost/interprocess</text>
<text text-anchor="middle" x="1419" y="-7.5" font-family="Helvetica,sans-Serif" font-size="10.00" fill="#000000">/allocators/allocator.hpp</text>
</g>
<!-- Node16&#45;&gt;Node20 -->
<g id="edge23" class="edge">
<title>Node16&#45;&gt;Node20</title>
<path fill="none" stroke="#191970" d="M1222.9954,-67.4581C1257.4013,-58.3376 1310.1154,-44.3638 1352.2135,-33.2042"/>
<polygon fill="#191970" stroke="#191970" points="1353.3495,-36.524 1362.1188,-30.5784 1351.5558,-29.7577 1353.3495,-36.524"/>
</g>
<!-- Node21&#45;&gt;Node16 -->
<g id="edge25" class="edge">
<title>Node21&#45;&gt;Node16</title>
<path fill="none" stroke="#191970" d="M1346.8221,-123.3733C1314.4513,-113.9807 1265.0602,-99.6496 1229.7576,-89.4064"/>
<polygon fill="#191970" stroke="#191970" points="1230.3242,-85.9264 1219.7449,-86.5011 1228.3735,-92.6492 1230.3242,-85.9264"/>
</g>
<!-- Node21&#45;&gt;Node22 -->
<g id="edge26" class="edge">
<title>Node21&#45;&gt;Node22</title>
<path fill="none" stroke="#191970" d="M1398.8122,-123.2455C1415.8473,-114.4125 1441.1575,-101.2887 1460.4681,-91.2758"/>
<polygon fill="#191970" stroke="#191970" points="1462.137,-94.353 1469.4034,-86.6427 1458.9147,-88.1388 1462.137,-94.353"/>
</g>
<!-- Node25&#45;&gt;Node9 -->
<g id="edge33" class="edge">
<title>Node25&#45;&gt;Node9</title>
<path fill="none" stroke="#191970" d="M1445.3281,-179.5281C1399.8487,-172.412 1341.0569,-160.7834 1291,-143 1273.0159,-136.6109 1271.3338,-128.3026 1253,-123 1150.3244,-93.3038 822.5662,-81.3621 708.5481,-78.0391"/>
<polygon fill="#191970" stroke="#191970" points="708.6037,-74.5394 698.508,-77.7528 708.4041,-81.5365 708.6037,-74.5394"/>
</g>
<!-- Node26 -->
<g id="node27" class="node">
<title>Node26</title>
<polygon fill="none" stroke="#bfbfbf" points="1516,-123.5 1516,-142.5 1594,-142.5 1594,-123.5 1516,-123.5"/>
<text text-anchor="middle" x="1555" y="-130.5" font-family="Helvetica,sans-Serif" font-size="10.00" fill="#000000">FairModule.h</text>
</g>
<!-- Node25&#45;&gt;Node26 -->
<g id="edge32" class="edge">
<title>Node25&#45;&gt;Node26</title>
<path fill="none" stroke="#191970" d="M1526.0965,-179.2455C1530.9145,-171.5367 1537.7751,-160.5598 1543.6032,-151.2348"/>
<polygon fill="#191970" stroke="#191970" points="1546.6413,-152.9777 1548.9733,-142.6427 1540.7053,-149.2677 1546.6413,-152.9777"/>
</g>
</g>
</svg>
        <g id="navigator" transform="translate(0 0)" fill="#404254">
                <rect fill="#f2f5e9" fill-opacity="0.5" stroke="#606060" stroke-width=".5" x="0" y="0" width="60" height="60"/>
                <use id="zoomplus" xlink:href="#zoomPlus" x="17" y="9" onmousedown="handleZoom(evt,'in')"/>
                <use id="zoomminus" xlink:href="#zoomMin" x="42" y="9" onmousedown="handleZoom(evt,'out')"/>
                <use id="reset" xlink:href="#resetDef" x="30" y="36" onmousedown="handleReset()"/>
                <g id="arrowUp" xlink:href="#dirArrow" transform="translate(30 24)" onmousedown="handlePan(0,-1)">
                  <use xlink:href="#rim" fill="#404040">
                        <set attributeName="fill" to="#808080" begin="arrowUp.mouseover" end="arrowUp.mouseout"/>
                  </use>
                  <path fill="none" stroke="white" stroke-width="1.5" d="M0,-3.0v7 M-2.5,-0.5L0,-3.0L2.5,-0.5"/>
                </g>
                <g id="arrowRight" xlink:href="#dirArrow" transform="rotate(90) translate(36 -43)" onmousedown="handlePan(1,0)">
                  <use xlink:href="#rim" fill="#404040">
                        <set attributeName="fill" to="#808080" begin="arrowRight.mouseover" end="arrowRight.mouseout"/>
                  </use>
                  <path fill="none" stroke="white" stroke-width="1.5" d="M0,-3.0v7 M-2.5,-0.5L0,-3.0L2.5,-0.5"/>
                </g>
                <g id="arrowDown" xlink:href="#dirArrow" transform="rotate(180) translate(-30 -48)" onmousedown="handlePan(0,1)">
                  <use xlink:href="#rim" fill="#404040">
                        <set attributeName="fill" to="#808080" begin="arrowDown.mouseover" end="arrowDown.mouseout"/>
                  </use>
                  <path fill="none" stroke="white" stroke-width="1.5" d="M0,-3.0v7 M-2.5,-0.5L0,-3.0L2.5,-0.5"/>
                </g>
                <g id="arrowLeft" xlink:href="#dirArrow" transform="rotate(270) translate(-36 17)" onmousedown="handlePan(-1,0)">
                  <use xlink:href="#rim" fill="#404040">
                        <set attributeName="fill" to="#808080" begin="arrowLeft.mouseover" end="arrowLeft.mouseout"/>
                  </use>
                  <path fill="none" stroke="white" stroke-width="1.5" d="M0,-3.0v7 M-2.5,-0.5L0,-3.0L2.5,-0.5"/>
                </g>
        </g>
        <svg viewBox="0 0 15 15" width="100%" height="30px" preserveAspectRatio="xMaxYMin meet">
         <g id="arrow_out" transform="scale(0.3 0.3)">
          <a xlink:href="Magnet_8cxx__incl_org.svg" target="_base">
           <rect id="button" ry="5" rx="5" y="6" x="6" height="38" width="38"
                fill="#f2f5e9" fill-opacity="0.5" stroke="#606060" stroke-width="1.0"/>
           <path id="arrow"
             d="M 11.500037,31.436501 C 11.940474,20.09759 22.043105,11.32322 32.158766,21.979434 L 37.068811,17.246167 C 37.068811,17.246167 37.088388,32 37.088388,32 L 22.160133,31.978069 C 22.160133,31.978069 26.997745,27.140456 26.997745,27.140456 C 18.528582,18.264221 13.291696,25.230495 11.500037,31.436501 z"
             style="fill:#404040;"/>
          </a>
         </g>
        </svg>
</svg>
