<?xml version="1.0" encoding="UTF-8" standalone="no"?>
<!DOCTYPE svg PUBLIC "-//W3C//DTD SVG 1.1//EN"
 "http://www.w3.org/Graphics/SVG/1.1/DTD/svg11.dtd">
<!-- Generated by graphviz version 2.40.1 (20161225.0304)
 -->
<!-- Title: /home/travis/build/AliceO2Group/AliceO2/Detectors/TPC/reconstruction/include/TPCReconstruction/HwClustererParam.h Pages: 1 -->
<!--zoomable 262 -->
<svg id="main" version="1.1" xmlns="http://www.w3.org/2000/svg" xmlns:xlink="http://www.w3.org/1999/xlink" xml:space="preserve" onload="init(evt)">
<style type="text/css"><![CDATA[
.edge:hover path { stroke: red; }
.edge:hover polygon { stroke: red; fill: red; }
]]></style>
<script type="text/javascript"><![CDATA[
var edges = document.getElementsByTagName('g');
if (edges && edges.length) {
  for (var i=0;i<edges.length;i++) {
    if (edges[i].id.substr(0,4)=='edge') {
      edges[i].setAttribute('class','edge');
    }
  }
}
]]></script>
        <defs>
                <circle id="rim" cx="0" cy="0" r="7"/>
                <circle id="rim2" cx="0" cy="0" r="3.5"/>
                <g id="zoomPlus">
                        <use xlink:href="#rim" fill="#404040">
                                <set attributeName="fill" to="#808080" begin="zoomplus.mouseover" end="zoomplus.mouseout"/>
                        </use>
                        <path d="M-4,0h8M0,-4v8" fill="none" stroke="white" stroke-width="1.5" pointer-events="none"/>
                </g>
                <g id="zoomMin">
                        <use xlink:href="#rim" fill="#404040">
                                <set attributeName="fill" to="#808080" begin="zoomminus.mouseover" end="zoomminus.mouseout"/>
                        </use>
                        <path d="M-4,0h8" fill="none" stroke="white" stroke-width="1.5" pointer-events="none"/>
                </g>
                <g id="dirArrow">
                        <path fill="none" stroke="white" stroke-width="1.5" d="M0,-3.0v7 M-2.5,-0.5L0,-3.0L2.5,-0.5"/>
                </g>
               <g id="resetDef">
                       <use xlink:href="#rim2" fill="#404040">
                               <set attributeName="fill" to="#808080" begin="reset.mouseover" end="reset.mouseout"/>
                       </use>
               </g>
        </defs>

<script type="text/javascript">
var viewWidth = 650;
var viewHeight = 262;
var sectionId = 'dynsection-0';
</script>
<script xlink:href="../../svgpan.js"/>
<svg id="graph" class="graph">
<g id="viewport">
<title>/home/travis/build/AliceO2Group/AliceO2/Detectors/TPC/reconstruction/include/TPCReconstruction/HwClustererParam.h</title>
<!-- Node0 -->
<g id="node1" class="node">
<title>Node0</title>
<polygon fill="#bfbfbf" stroke="#000000" points="293,-190.5 293,-253.5 454,-253.5 454,-190.5 293,-190.5"/>
<text text-anchor="start" x="301" y="-241.5" font-family="Helvetica,sans-Serif" font-size="10.00" fill="#000000">/home/travis/build</text>
<text text-anchor="start" x="301" y="-230.5" font-family="Helvetica,sans-Serif" font-size="10.00" fill="#000000">/AliceO2Group/AliceO2</text>
<text text-anchor="start" x="301" y="-219.5" font-family="Helvetica,sans-Serif" font-size="10.00" fill="#000000">/Detectors/TPC/reconstruction</text>
<text text-anchor="start" x="301" y="-208.5" font-family="Helvetica,sans-Serif" font-size="10.00" fill="#000000">/include/TPCReconstruction</text>
<text text-anchor="middle" x="373.5" y="-197.5" font-family="Helvetica,sans-Serif" font-size="10.00" fill="#000000">/HwClustererParam.h</text>
</g>
<!-- Node1 -->
<g id="node2" class="node">
<title>Node1</title>
<g id="a_node2"><a xlink:href="../../db/d2c/ConfigurableParam_8h.html" target="_top" xlink:title="SimConfig/ConfigurableParam.h">
<polygon fill="none" stroke="#000000" points="204.5,-67.5 204.5,-86.5 374.5,-86.5 374.5,-67.5 204.5,-67.5"/>
<text text-anchor="middle" x="289.5" y="-74.5" font-family="Helvetica,sans-Serif" font-size="10.00" fill="#000000">SimConfig/ConfigurableParam.h</text>
</a>
</g>
</g>
<!-- Node0&#45;&gt;Node1 -->
<g id="edge1" class="edge">
<title>Node0&#45;&gt;Node1</title>
<path fill="none" stroke="#191970" d="M355.0658,-190.1791C338.2571,-161.164 314.0029,-119.2966 300.193,-95.4582"/>
<polygon fill="#191970" stroke="#191970" points="303.1678,-93.611 295.1266,-86.7125 297.1108,-97.1199 303.1678,-93.611"/>
</g>
<!-- Node8 -->
<g id="node9" class="node">
<title>Node8</title>
<g id="a_node9"><a xlink:href="../../da/d6b/ConfigurableParamHelper_8h.html" target="_top" xlink:title="SimConfig/ConfigurableParam\lHelper.h">
<polygon fill="none" stroke="#000000" points="350,-123.5 350,-153.5 511,-153.5 511,-123.5 350,-123.5"/>
<text text-anchor="start" x="358" y="-141.5" font-family="Helvetica,sans-Serif" font-size="10.00" fill="#000000">SimConfig/ConfigurableParam</text>
<text text-anchor="middle" x="430.5" y="-130.5" font-family="Helvetica,sans-Serif" font-size="10.00" fill="#000000">Helper.h</text>
</a>
</g>
</g>
<!-- Node0&#45;&gt;Node8 -->
<g id="edge8" class="edge">
<title>Node0&#45;&gt;Node8</title>
<path fill="none" stroke="#191970" d="M395.0493,-190.4322C401.4806,-181.0109 408.4149,-170.8528 414.4303,-162.0407"/>
<polygon fill="#191970" stroke="#191970" points="417.3395,-163.9869 420.0868,-153.7545 411.558,-160.0403 417.3395,-163.9869"/>
</g>
<!-- Node2 -->
<g id="node3" class="node">
<title>Node2</title>
<polygon fill="none" stroke="#bfbfbf" points="0,-6 0,-25 47,-25 47,-6 0,-6"/>
<text text-anchor="middle" x="23.5" y="-13" font-family="Helvetica,sans-Serif" font-size="10.00" fill="#000000">vector</text>
</g>
<!-- Node1&#45;&gt;Node2 -->
<g id="edge2" class="edge">
<title>Node1&#45;&gt;Node2</title>
<path fill="none" stroke="#191970" d="M217.7348,-67.4737C171.0634,-60.1515 109.2918,-48.32 56.5,-31 54.6506,-30.3933 52.7694,-29.7086 50.8907,-28.9736"/>
<polygon fill="#191970" stroke="#191970" points="52.2456,-25.7464 41.6767,-25.0055 49.4767,-32.1755 52.2456,-25.7464"/>
</g>
<!-- Node3 -->
<g id="node4" class="node">
<title>Node3</title>
<polygon fill="none" stroke="#bfbfbf" points="65.5,-6 65.5,-25 103.5,-25 103.5,-6 65.5,-6"/>
<text text-anchor="middle" x="84.5" y="-13" font-family="Helvetica,sans-Serif" font-size="10.00" fill="#000000">map</text>
</g>
<!-- Node1&#45;&gt;Node3 -->
<g id="edge3" class="edge">
<title>Node1&#45;&gt;Node3</title>
<path fill="none" stroke="#191970" d="M239.2213,-67.4607C203.1967,-59.7833 153.9278,-47.543 112.5,-31 111.468,-30.5879 110.4263,-30.1456 109.3828,-29.6803"/>
<polygon fill="#191970" stroke="#191970" points="110.6623,-26.407 100.1524,-25.0676 107.5331,-32.6687 110.6623,-26.407"/>
</g>
<!-- Node4 -->
<g id="node5" class="node">
<title>Node4</title>
<polygon fill="none" stroke="#bfbfbf" points="122,-6 122,-25 215,-25 215,-6 122,-6"/>
<text text-anchor="middle" x="168.5" y="-13" font-family="Helvetica,sans-Serif" font-size="10.00" fill="#000000">unordered_map</text>
</g>
<!-- Node1&#45;&gt;Node4 -->
<g id="edge4" class="edge">
<title>Node1&#45;&gt;Node4</title>
<path fill="none" stroke="#191970" d="M270.5938,-67.3906C250.7034,-57.2811 219.1877,-41.2628 196.4308,-29.6962"/>
<polygon fill="#191970" stroke="#191970" points="197.774,-26.4528 187.2735,-25.0419 194.6022,-32.693 197.774,-26.4528"/>
</g>
<!-- Node5 -->
<g id="node6" class="node">
<title>Node5</title>
<polygon fill="none" stroke="#bfbfbf" points="233,-.5 233,-30.5 346,-30.5 346,-.5 233,-.5"/>
<text text-anchor="start" x="241" y="-18.5" font-family="Helvetica,sans-Serif" font-size="10.00" fill="#000000">boost/property_tree</text>
<text text-anchor="middle" x="289.5" y="-7.5" font-family="Helvetica,sans-Serif" font-size="10.00" fill="#000000">/ptree.hpp</text>
</g>
<!-- Node1&#45;&gt;Node5 -->
<g id="edge5" class="edge">
<title>Node1&#45;&gt;Node5</title>
<path fill="none" stroke="#191970" d="M289.5,-67.3906C289.5,-60.2234 289.5,-50.0862 289.5,-40.671"/>
<polygon fill="#191970" stroke="#191970" points="293.0001,-40.5446 289.5,-30.5446 286.0001,-40.5446 293.0001,-40.5446"/>
</g>
<!-- Node6 -->
<g id="node7" class="node">
<title>Node6</title>
<polygon fill="none" stroke="#bfbfbf" points="443,-6 443,-25 500,-25 500,-6 443,-6"/>
<text text-anchor="middle" x="471.5" y="-13" font-family="Helvetica,sans-Serif" font-size="10.00" fill="#000000">typeinfo</text>
</g>
<!-- Node1&#45;&gt;Node6 -->
<g id="edge6" class="edge">
<title>Node1&#45;&gt;Node6</title>
<path fill="none" stroke="#191970" d="M321.7709,-67.4801C351.1159,-58.637 395.5095,-44.7922 433.5,-31 435.3585,-30.3253 437.2606,-29.6147 439.1749,-28.884"/>
<polygon fill="#191970" stroke="#191970" points="440.68,-32.0531 448.7046,-25.1352 438.1174,-25.539 440.68,-32.0531"/>
</g>
<!-- Node7 -->
<g id="node8" class="node">
<title>Node7</title>
<polygon fill="none" stroke="#bfbfbf" points="364.5,-6 364.5,-25 424.5,-25 424.5,-6 364.5,-6"/>
<text text-anchor="middle" x="394.5" y="-13" font-family="Helvetica,sans-Serif" font-size="10.00" fill="#000000">iostream</text>
</g>
<!-- Node1&#45;&gt;Node7 -->
<g id="edge7" class="edge">
<title>Node1&#45;&gt;Node7</title>
<path fill="none" stroke="#191970" d="M305.9063,-67.3906C322.9353,-57.4165 349.7841,-41.6908 369.4651,-30.1633"/>
<polygon fill="#191970" stroke="#191970" points="371.349,-33.1161 378.209,-25.0419 367.8112,-27.0759 371.349,-33.1161"/>
</g>
<!-- Node8&#45;&gt;Node1 -->
<g id="edge9" class="edge">
<title>Node8&#45;&gt;Node1</title>
<path fill="none" stroke="#191970" d="M396.0075,-123.4554C372.9972,-113.419 342.9914,-100.3314 320.6945,-90.6061"/>
<polygon fill="#191970" stroke="#191970" points="321.9154,-87.3202 311.35,-86.5303 319.1167,-93.7364 321.9154,-87.3202"/>
</g>
<!-- Node8&#45;&gt;Node6 -->
<g id="edge12" class="edge">
<title>Node8&#45;&gt;Node6</title>
<path fill="none" stroke="#191970" d="M424.3826,-123.4232C419.3059,-108.5513 414.0234,-85.4342 421.5,-67 427.2477,-52.8284 438.9747,-40.4093 449.6275,-31.3189"/>
<polygon fill="#191970" stroke="#191970" points="451.8396,-34.0314 457.4476,-25.0425 447.458,-28.5723 451.8396,-34.0314"/>
</g>
<!-- Node9 -->
<g id="node10" class="node">
<title>Node9</title>
<polygon fill="none" stroke="#bfbfbf" points="431,-67.5 431,-86.5 488,-86.5 488,-67.5 431,-67.5"/>
<text text-anchor="middle" x="459.5" y="-74.5" font-family="Helvetica,sans-Serif" font-size="10.00" fill="#000000">TClass.h</text>
</g>
<!-- Node8&#45;&gt;Node9 -->
<g id="edge10" class="edge">
<title>Node8&#45;&gt;Node9</title>
<path fill="none" stroke="#191970" d="M437.6685,-123.2977C441.5682,-115.0277 446.428,-104.7215 450.5718,-95.9339"/>
<polygon fill="#191970" stroke="#191970" points="453.7573,-97.3846 454.8567,-86.8469 447.4259,-94.399 453.7573,-97.3846"/>
</g>
<!-- Node10 -->
<g id="node11" class="node">
<title>Node10</title>
<polygon fill="none" stroke="#bfbfbf" points="506,-67.5 506,-86.5 575,-86.5 575,-67.5 506,-67.5"/>
<text text-anchor="middle" x="540.5" y="-74.5" font-family="Helvetica,sans-Serif" font-size="10.00" fill="#000000">type_traits</text>
</g>
<!-- Node8&#45;&gt;Node10 -->
<g id="edge11" class="edge">
<title>Node8&#45;&gt;Node10</title>
<path fill="none" stroke="#191970" d="M457.409,-123.4554C474.7968,-113.734 497.3049,-101.15 514.5084,-91.5317"/>
<polygon fill="#191970" stroke="#191970" points="516.4335,-94.4653 523.4539,-86.5303 513.0174,-88.3554 516.4335,-94.4653"/>
</g>
<!-- Node11 -->
<g id="node12" class="node">
<title>Node11</title>
<polygon fill="none" stroke="#bfbfbf" points="593.5,-67.5 593.5,-86.5 641.5,-86.5 641.5,-67.5 593.5,-67.5"/>
<text text-anchor="middle" x="617.5" y="-74.5" font-family="Helvetica,sans-Serif" font-size="10.00" fill="#000000">TFile.h</text>
</g>
<!-- Node8&#45;&gt;Node11 -->
<g id="edge13" class="edge">
<title>Node8&#45;&gt;Node11</title>
<path fill="none" stroke="#191970" d="M476.2453,-123.4554C509.4691,-112.5289 553.6892,-97.9859 583.7416,-88.1024"/>
<polygon fill="#191970" stroke="#191970" points="584.9478,-91.3902 593.3538,-84.9411 582.7609,-84.7405 584.9478,-91.3902"/>
</g>
</g>
</svg>
        <g id="navigator" transform="translate(0 0)" fill="#404254">
                <rect fill="#f2f5e9" fill-opacity="0.5" stroke="#606060" stroke-width=".5" x="0" y="0" width="60" height="60"/>
                <use id="zoomplus" xlink:href="#zoomPlus" x="17" y="9" onmousedown="handleZoom(evt,'in')"/>
                <use id="zoomminus" xlink:href="#zoomMin" x="42" y="9" onmousedown="handleZoom(evt,'out')"/>
                <use id="reset" xlink:href="#resetDef" x="30" y="36" onmousedown="handleReset()"/>
                <g id="arrowUp" xlink:href="#dirArrow" transform="translate(30 24)" onmousedown="handlePan(0,-1)">
                  <use xlink:href="#rim" fill="#404040">
                        <set attributeName="fill" to="#808080" begin="arrowUp.mouseover" end="arrowUp.mouseout"/>
                  </use>
                  <path fill="none" stroke="white" stroke-width="1.5" d="M0,-3.0v7 M-2.5,-0.5L0,-3.0L2.5,-0.5"/>
                </g>
                <g id="arrowRight" xlink:href="#dirArrow" transform="rotate(90) translate(36 -43)" onmousedown="handlePan(1,0)">
                  <use xlink:href="#rim" fill="#404040">
                        <set attributeName="fill" to="#808080" begin="arrowRight.mouseover" end="arrowRight.mouseout"/>
                  </use>
                  <path fill="none" stroke="white" stroke-width="1.5" d="M0,-3.0v7 M-2.5,-0.5L0,-3.0L2.5,-0.5"/>
                </g>
                <g id="arrowDown" xlink:href="#dirArrow" transform="rotate(180) translate(-30 -48)" onmousedown="handlePan(0,1)">
                  <use xlink:href="#rim" fill="#404040">
                        <set attributeName="fill" to="#808080" begin="arrowDown.mouseover" end="arrowDown.mouseout"/>
                  </use>
                  <path fill="none" stroke="white" stroke-width="1.5" d="M0,-3.0v7 M-2.5,-0.5L0,-3.0L2.5,-0.5"/>
                </g>
                <g id="arrowLeft" xlink:href="#dirArrow" transform="rotate(270) translate(-36 17)" onmousedown="handlePan(-1,0)">
                  <use xlink:href="#rim" fill="#404040">
                        <set attributeName="fill" to="#808080" begin="arrowLeft.mouseover" end="arrowLeft.mouseout"/>
                  </use>
                  <path fill="none" stroke="white" stroke-width="1.5" d="M0,-3.0v7 M-2.5,-0.5L0,-3.0L2.5,-0.5"/>
                </g>
        </g>
        <svg viewBox="0 0 15 15" width="100%" height="30px" preserveAspectRatio="xMaxYMin meet">
         <g id="arrow_out" transform="scale(0.3 0.3)">
          <a xlink:href="HwClustererParam_8h__incl_org.svg" target="_base">
           <rect id="button" ry="5" rx="5" y="6" x="6" height="38" width="38"
                fill="#f2f5e9" fill-opacity="0.5" stroke="#606060" stroke-width="1.0"/>
           <path id="arrow"
             d="M 11.500037,31.436501 C 11.940474,20.09759 22.043105,11.32322 32.158766,21.979434 L 37.068811,17.246167 C 37.068811,17.246167 37.088388,32 37.088388,32 L 22.160133,31.978069 C 22.160133,31.978069 26.997745,27.140456 26.997745,27.140456 C 18.528582,18.264221 13.291696,25.230495 11.500037,31.436501 z"
             style="fill:#404040;"/>
          </a>
         </g>
        </svg>
</svg>
