<?xml version="1.0" encoding="UTF-8" standalone="no"?>
<!DOCTYPE svg PUBLIC "-//W3C//DTD SVG 1.1//EN"
 "http://www.w3.org/Graphics/SVG/1.1/DTD/svg11.dtd">
<!-- Generated by graphviz version 2.40.1 (20161225.0304)
 -->
<!-- Title: GPUCA_NAMESPACE::gpu::GPUTPCSliceData Pages: 1 -->
<!--zoomable 622 -->
<svg id="main" version="1.1" xmlns="http://www.w3.org/2000/svg" xmlns:xlink="http://www.w3.org/1999/xlink" xml:space="preserve" onload="init(evt)">
<style type="text/css"><![CDATA[
.edge:hover path { stroke: red; }
.edge:hover polygon { stroke: red; fill: red; }
]]></style>
<script type="text/javascript"><![CDATA[
var edges = document.getElementsByTagName('g');
if (edges && edges.length) {
  for (var i=0;i<edges.length;i++) {
    if (edges[i].id.substr(0,4)=='edge') {
      edges[i].setAttribute('class','edge');
    }
  }
}
]]></script>
        <defs>
                <circle id="rim" cx="0" cy="0" r="7"/>
                <circle id="rim2" cx="0" cy="0" r="3.5"/>
                <g id="zoomPlus">
                        <use xlink:href="#rim" fill="#404040">
                                <set attributeName="fill" to="#808080" begin="zoomplus.mouseover" end="zoomplus.mouseout"/>
                        </use>
                        <path d="M-4,0h8M0,-4v8" fill="none" stroke="white" stroke-width="1.5" pointer-events="none"/>
                </g>
                <g id="zoomMin">
                        <use xlink:href="#rim" fill="#404040">
                                <set attributeName="fill" to="#808080" begin="zoomminus.mouseover" end="zoomminus.mouseout"/>
                        </use>
                        <path d="M-4,0h8" fill="none" stroke="white" stroke-width="1.5" pointer-events="none"/>
                </g>
                <g id="dirArrow">
                        <path fill="none" stroke="white" stroke-width="1.5" d="M0,-3.0v7 M-2.5,-0.5L0,-3.0L2.5,-0.5"/>
                </g>
               <g id="resetDef">
                       <use xlink:href="#rim2" fill="#404040">
                               <set attributeName="fill" to="#808080" begin="reset.mouseover" end="reset.mouseout"/>
                       </use>
               </g>
        </defs>

<script type="text/javascript">
var viewWidth = 560;
var viewHeight = 622;
var sectionId = 'dynsection-0';
</script>
<script xlink:href="../../svgpan.js"/>
<svg id="graph" class="graph">
<g id="viewport">
<title>GPUCA_NAMESPACE::gpu::GPUTPCSliceData</title>
<!-- Node1 -->
<g id="node1" class="node">
<title>Node1</title>
<polygon fill="#bfbfbf" stroke="#000000" points="225.5,-.5 225.5,-475.5 374.5,-475.5 374.5,-.5 225.5,-.5"/>
<text text-anchor="start" x="233.5" y="-463.5" font-family="Helvetica,sans-Serif" font-size="10.00" fill="#000000">GPUCA_NAMESPACE::gpu</text>
<text text-anchor="middle" x="300" y="-452.5" font-family="Helvetica,sans-Serif" font-size="10.00" fill="#000000">::GPUTPCSliceData</text>
<polyline fill="none" stroke="#000000" points="225.5,-445.5 374.5,-445.5 "/>
<text text-anchor="middle" x="300" y="-433.5" font-family="Helvetica,sans-Serif" font-size="10.00" fill="#000000"> </text>
<polyline fill="none" stroke="#000000" points="225.5,-426.5 374.5,-426.5 "/>
<text text-anchor="start" x="233.5" y="-414.5" font-family="Helvetica,sans-Serif" font-size="10.00" fill="#000000">+ GPUTPCSliceData()</text>
<text text-anchor="start" x="233.5" y="-403.5" font-family="Helvetica,sans-Serif" font-size="10.00" fill="#000000">+ ~GPUTPCSliceData()</text>
<text text-anchor="start" x="233.5" y="-392.5" font-family="Helvetica,sans-Serif" font-size="10.00" fill="#000000">+ InitializeRows()</text>
<text text-anchor="start" x="233.5" y="-381.5" font-family="Helvetica,sans-Serif" font-size="10.00" fill="#000000">+ SetMaxData()</text>
<text text-anchor="start" x="233.5" y="-370.5" font-family="Helvetica,sans-Serif" font-size="10.00" fill="#000000">+ SetClusterData()</text>
<text text-anchor="start" x="233.5" y="-359.5" font-family="Helvetica,sans-Serif" font-size="10.00" fill="#000000">+ SetPointersInput()</text>
<text text-anchor="start" x="233.5" y="-348.5" font-family="Helvetica,sans-Serif" font-size="10.00" fill="#000000">+ SetPointersScratch()</text>
<text text-anchor="start" x="233.5" y="-337.5" font-family="Helvetica,sans-Serif" font-size="10.00" fill="#000000">+ SetPointersScratchHost()</text>
<text text-anchor="start" x="233.5" y="-326.5" font-family="Helvetica,sans-Serif" font-size="10.00" fill="#000000">+ SetPointersRows()</text>
<text text-anchor="start" x="233.5" y="-315.5" font-family="Helvetica,sans-Serif" font-size="10.00" fill="#000000">+ InitFromClusterData()</text>
<text text-anchor="start" x="233.5" y="-304.5" font-family="Helvetica,sans-Serif" font-size="10.00" fill="#000000">+ GPUhd()</text>
<text text-anchor="start" x="233.5" y="-293.5" font-family="Helvetica,sans-Serif" font-size="10.00" fill="#000000">+ GPUhd()</text>
<text text-anchor="start" x="233.5" y="-282.5" font-family="Helvetica,sans-Serif" font-size="10.00" fill="#000000">+ GPUhd()</text>
<text text-anchor="start" x="233.5" y="-271.5" font-family="Helvetica,sans-Serif" font-size="10.00" fill="#000000">+ GPUd()</text>
<text text-anchor="start" x="233.5" y="-260.5" font-family="Helvetica,sans-Serif" font-size="10.00" fill="#000000">+ GPUd()</text>
<text text-anchor="start" x="233.5" y="-249.5" font-family="Helvetica,sans-Serif" font-size="10.00" fill="#000000">+ GPUhdi()</text>
<text text-anchor="start" x="233.5" y="-238.5" font-family="Helvetica,sans-Serif" font-size="10.00" fill="#000000">+ GPUhd()</text>
<text text-anchor="start" x="233.5" y="-227.5" font-family="Helvetica,sans-Serif" font-size="10.00" fill="#000000">+ GPUdi()</text>
<text text-anchor="start" x="233.5" y="-216.5" font-family="Helvetica,sans-Serif" font-size="10.00" fill="#000000">+ GPUdi()</text>
<text text-anchor="start" x="233.5" y="-205.5" font-family="Helvetica,sans-Serif" font-size="10.00" fill="#000000">+ GPUdi()</text>
<text text-anchor="start" x="233.5" y="-194.5" font-family="Helvetica,sans-Serif" font-size="10.00" fill="#000000">+ GPUd()</text>
<text text-anchor="start" x="233.5" y="-183.5" font-family="Helvetica,sans-Serif" font-size="10.00" fill="#000000">+ GPUd()</text>
<text text-anchor="start" x="233.5" y="-172.5" font-family="Helvetica,sans-Serif" font-size="10.00" fill="#000000">+ GPUd()</text>
<text text-anchor="start" x="233.5" y="-161.5" font-family="Helvetica,sans-Serif" font-size="10.00" fill="#000000">+ GPUd()</text>
<text text-anchor="start" x="233.5" y="-150.5" font-family="Helvetica,sans-Serif" font-size="10.00" fill="#000000">+ GPUd()</text>
<text text-anchor="start" x="233.5" y="-139.5" font-family="Helvetica,sans-Serif" font-size="10.00" fill="#000000">+ GPUd()</text>
<text text-anchor="start" x="233.5" y="-128.5" font-family="Helvetica,sans-Serif" font-size="10.00" fill="#000000">+ GPUd()</text>
<text text-anchor="start" x="233.5" y="-117.5" font-family="Helvetica,sans-Serif" font-size="10.00" fill="#000000">+ GPUd()</text>
<text text-anchor="start" x="233.5" y="-106.5" font-family="Helvetica,sans-Serif" font-size="10.00" fill="#000000">+ GPUd()</text>
<text text-anchor="start" x="233.5" y="-95.5" font-family="Helvetica,sans-Serif" font-size="10.00" fill="#000000">+ GPUhd()</text>
<text text-anchor="start" x="233.5" y="-84.5" font-family="Helvetica,sans-Serif" font-size="10.00" fill="#000000">+ GPUhdi()</text>
<text text-anchor="start" x="233.5" y="-73.5" font-family="Helvetica,sans-Serif" font-size="10.00" fill="#000000">+ GPUhdi()</text>
<text text-anchor="start" x="233.5" y="-62.5" font-family="Helvetica,sans-Serif" font-size="10.00" fill="#000000">+ GPUhdi()</text>
<text text-anchor="start" x="233.5" y="-51.5" font-family="Helvetica,sans-Serif" font-size="10.00" fill="#000000">+ GPUhdi()</text>
<text text-anchor="start" x="233.5" y="-40.5" font-family="Helvetica,sans-Serif" font-size="10.00" fill="#000000">+ GPUhdi()</text>
<text text-anchor="start" x="233.5" y="-29.5" font-family="Helvetica,sans-Serif" font-size="10.00" fill="#000000">+ GPUhdi()</text>
<text text-anchor="start" x="233.5" y="-18.5" font-family="Helvetica,sans-Serif" font-size="10.00" fill="#000000">+ GPUhdi()</text>
<text text-anchor="start" x="233.5" y="-7.5" font-family="Helvetica,sans-Serif" font-size="10.00" fill="#000000">+ MaxZ()</text>
</g>
<!-- Node2 -->
<g id="node2" class="node">
<title>Node2</title>
<polygon fill="none" stroke="#bfbfbf" points="0,-551 0,-608 86,-608 86,-551 0,-551"/>
<text text-anchor="middle" x="43" y="-596" font-family="Helvetica,sans-Serif" font-size="10.00" fill="#000000">const calink &amp;</text>
<polyline fill="none" stroke="#bfbfbf" points="0,-589 86,-589 "/>
<text text-anchor="middle" x="43" y="-577" font-family="Helvetica,sans-Serif" font-size="10.00" fill="#000000"> </text>
<polyline fill="none" stroke="#bfbfbf" points="0,-570 86,-570 "/>
<text text-anchor="middle" x="43" y="-558" font-family="Helvetica,sans-Serif" font-size="10.00" fill="#000000"> </text>
</g>
<!-- Node2&#45;&gt;Node1 -->
<g id="edge1" class="edge">
<title>Node2&#45;&gt;Node1</title>
<path fill="none" stroke="#404040" d="M64.4696,-550.9713C97.8834,-506.5712 164.0717,-418.6207 217.7966,-347.2313"/>
<polygon fill="none" stroke="#404040" points="218.0743,-346.8623 218.4861,-339.663 225.29,-337.2741 224.8782,-344.4735 218.0743,-346.8623"/>
<text text-anchor="middle" x="132" y="-508" font-family="Helvetica,sans-Serif" font-size="10.00" fill="#000000"> +hitIndex</text>
</g>
<!-- Node3 -->
<g id="node3" class="node">
<title>Node3</title>
<polygon fill="none" stroke="#bfbfbf" points="104.5,-551 104.5,-608 229.5,-608 229.5,-551 104.5,-551"/>
<text text-anchor="middle" x="167" y="-596" font-family="Helvetica,sans-Serif" font-size="10.00" fill="#000000">const calink &amp;hitIndex</text>
<polyline fill="none" stroke="#bfbfbf" points="104.5,-589 229.5,-589 "/>
<text text-anchor="middle" x="167" y="-577" font-family="Helvetica,sans-Serif" font-size="10.00" fill="#000000"> </text>
<polyline fill="none" stroke="#bfbfbf" points="104.5,-570 229.5,-570 "/>
<text text-anchor="middle" x="167" y="-558" font-family="Helvetica,sans-Serif" font-size="10.00" fill="#000000"> </text>
</g>
<!-- Node3&#45;&gt;Node1 -->
<g id="edge2" class="edge">
<title>Node3&#45;&gt;Node1</title>
<path fill="none" stroke="#404040" d="M178.1107,-550.9713C188.1902,-525.0907 204.0324,-484.413 221.001,-440.8434"/>
<polygon fill="none" stroke="#404040" points="221.0999,-440.5893 219.55,-433.5467 225.4548,-429.4074 227.0046,-436.45 221.0999,-440.5893"/>
<text text-anchor="middle" x="219" y="-508" font-family="Helvetica,sans-Serif" font-size="10.00" fill="#000000"> +const</text>
</g>
<!-- Node4 -->
<g id="node4" class="node">
<title>Node4</title>
<polygon fill="none" stroke="#bfbfbf" points="248,-545.5 248,-613.5 352,-613.5 352,-545.5 248,-545.5"/>
<text text-anchor="start" x="256" y="-601.5" font-family="Helvetica,sans-Serif" font-size="10.00" fill="#000000">const calink const</text>
<text text-anchor="middle" x="300" y="-590.5" font-family="Helvetica,sans-Serif" font-size="10.00" fill="#000000"> calink &amp;</text>
<polyline fill="none" stroke="#bfbfbf" points="248,-583.5 352,-583.5 "/>
<text text-anchor="middle" x="300" y="-571.5" font-family="Helvetica,sans-Serif" font-size="10.00" fill="#000000"> </text>
<polyline fill="none" stroke="#bfbfbf" points="248,-564.5 352,-564.5 "/>
<text text-anchor="middle" x="300" y="-552.5" font-family="Helvetica,sans-Serif" font-size="10.00" fill="#000000"> </text>
</g>
<!-- Node4&#45;&gt;Node1 -->
<g id="edge3" class="edge">
<title>Node4&#45;&gt;Node1</title>
<path fill="none" stroke="#404040" d="M300,-545.1921C300,-529.7078 300,-509.9398 300,-487.9149"/>
<polygon fill="none" stroke="#404040" points="300.0001,-487.8328 296,-481.8329 300,-475.8328 304,-481.8328 300.0001,-487.8328"/>
<text text-anchor="middle" x="319.5" y="-508" font-family="Helvetica,sans-Serif" font-size="10.00" fill="#000000"> +value</text>
</g>
<!-- Node5 -->
<g id="node5" class="node">
<title>Node5</title>
<polygon fill="none" stroke="#bfbfbf" points="370.5,-551 370.5,-608 431.5,-608 431.5,-551 370.5,-551"/>
<text text-anchor="middle" x="401" y="-596" font-family="Helvetica,sans-Serif" font-size="10.00" fill="#000000">unsigned</text>
<polyline fill="none" stroke="#bfbfbf" points="370.5,-589 431.5,-589 "/>
<text text-anchor="middle" x="401" y="-577" font-family="Helvetica,sans-Serif" font-size="10.00" fill="#000000"> </text>
<polyline fill="none" stroke="#bfbfbf" points="370.5,-570 431.5,-570 "/>
<text text-anchor="middle" x="401" y="-558" font-family="Helvetica,sans-Serif" font-size="10.00" fill="#000000"> </text>
</g>
<!-- Node5&#45;&gt;Node1 -->
<g id="edge4" class="edge">
<title>Node5&#45;&gt;Node1</title>
<path fill="none" stroke="#404040" d="M392.5625,-550.9713C387.7316,-534.6371 381.1575,-512.4088 373.7253,-487.2793"/>
<polygon fill="none" stroke="#404040" points="373.6568,-487.0471 368.1193,-482.428 370.2534,-475.5399 375.7908,-480.159 373.6568,-487.0471"/>
<text text-anchor="middle" x="410" y="-519" font-family="Helvetica,sans-Serif" font-size="10.00" fill="#000000"> +hitIndex</text>
<text text-anchor="middle" x="410" y="-508" font-family="Helvetica,sans-Serif" font-size="10.00" fill="#000000">+const</text>
<text text-anchor="middle" x="410" y="-497" font-family="Helvetica,sans-Serif" font-size="10.00" fill="#000000">+weight</text>
</g>
<!-- Node6 -->
<g id="node6" class="node">
<title>Node6</title>
<polygon fill="none" stroke="#bfbfbf" points="450,-551 450,-608 552,-608 552,-551 450,-551"/>
<text text-anchor="middle" x="501" y="-596" font-family="Helvetica,sans-Serif" font-size="10.00" fill="#000000">calink binIndexes</text>
<polyline fill="none" stroke="#bfbfbf" points="450,-589 552,-589 "/>
<text text-anchor="middle" x="501" y="-577" font-family="Helvetica,sans-Serif" font-size="10.00" fill="#000000"> </text>
<polyline fill="none" stroke="#bfbfbf" points="450,-570 552,-570 "/>
<text text-anchor="middle" x="501" y="-558" font-family="Helvetica,sans-Serif" font-size="10.00" fill="#000000"> </text>
</g>
<!-- Node6&#45;&gt;Node1 -->
<g id="edge5" class="edge">
<title>Node6&#45;&gt;Node1</title>
<path fill="none" stroke="#404040" d="M484.2086,-550.9713C461.4153,-512.2455 419.1222,-440.3892 380.8047,-375.2875"/>
<polygon fill="none" stroke="#404040" points="380.7796,-375.2449 374.2889,-372.103 374.6927,-364.9032 381.1833,-368.045 380.7796,-375.2449"/>
<text text-anchor="middle" x="486" y="-508" font-family="Helvetica,sans-Serif" font-size="10.00" fill="#000000"> +const</text>
</g>
</g>
</svg>
        <g id="navigator" transform="translate(0 0)" fill="#404254">
                <rect fill="#f2f5e9" fill-opacity="0.5" stroke="#606060" stroke-width=".5" x="0" y="0" width="60" height="60"/>
                <use id="zoomplus" xlink:href="#zoomPlus" x="17" y="9" onmousedown="handleZoom(evt,'in')"/>
                <use id="zoomminus" xlink:href="#zoomMin" x="42" y="9" onmousedown="handleZoom(evt,'out')"/>
                <use id="reset" xlink:href="#resetDef" x="30" y="36" onmousedown="handleReset()"/>
                <g id="arrowUp" xlink:href="#dirArrow" transform="translate(30 24)" onmousedown="handlePan(0,-1)">
                  <use xlink:href="#rim" fill="#404040">
                        <set attributeName="fill" to="#808080" begin="arrowUp.mouseover" end="arrowUp.mouseout"/>
                  </use>
                  <path fill="none" stroke="white" stroke-width="1.5" d="M0,-3.0v7 M-2.5,-0.5L0,-3.0L2.5,-0.5"/>
                </g>
                <g id="arrowRight" xlink:href="#dirArrow" transform="rotate(90) translate(36 -43)" onmousedown="handlePan(1,0)">
                  <use xlink:href="#rim" fill="#404040">
                        <set attributeName="fill" to="#808080" begin="arrowRight.mouseover" end="arrowRight.mouseout"/>
                  </use>
                  <path fill="none" stroke="white" stroke-width="1.5" d="M0,-3.0v7 M-2.5,-0.5L0,-3.0L2.5,-0.5"/>
                </g>
                <g id="arrowDown" xlink:href="#dirArrow" transform="rotate(180) translate(-30 -48)" onmousedown="handlePan(0,1)">
                  <use xlink:href="#rim" fill="#404040">
                        <set attributeName="fill" to="#808080" begin="arrowDown.mouseover" end="arrowDown.mouseout"/>
                  </use>
                  <path fill="none" stroke="white" stroke-width="1.5" d="M0,-3.0v7 M-2.5,-0.5L0,-3.0L2.5,-0.5"/>
                </g>
                <g id="arrowLeft" xlink:href="#dirArrow" transform="rotate(270) translate(-36 17)" onmousedown="handlePan(-1,0)">
                  <use xlink:href="#rim" fill="#404040">
                        <set attributeName="fill" to="#808080" begin="arrowLeft.mouseover" end="arrowLeft.mouseout"/>
                  </use>
                  <path fill="none" stroke="white" stroke-width="1.5" d="M0,-3.0v7 M-2.5,-0.5L0,-3.0L2.5,-0.5"/>
                </g>
        </g>
        <svg viewBox="0 0 15 15" width="100%" height="30px" preserveAspectRatio="xMaxYMin meet">
         <g id="arrow_out" transform="scale(0.3 0.3)">
          <a xlink:href="classGPUCA__NAMESPACE_1_1gpu_1_1GPUTPCSliceData__coll__graph_org.svg" target="_base">
           <rect id="button" ry="5" rx="5" y="6" x="6" height="38" width="38"
                fill="#f2f5e9" fill-opacity="0.5" stroke="#606060" stroke-width="1.0"/>
           <path id="arrow"
             d="M 11.500037,31.436501 C 11.940474,20.09759 22.043105,11.32322 32.158766,21.979434 L 37.068811,17.246167 C 37.068811,17.246167 37.088388,32 37.088388,32 L 22.160133,31.978069 C 22.160133,31.978069 26.997745,27.140456 26.997745,27.140456 C 18.528582,18.264221 13.291696,25.230495 11.500037,31.436501 z"
             style="fill:#404040;"/>
          </a>
         </g>
        </svg>
</svg>
