<?xml version="1.0" encoding="UTF-8" standalone="no"?>
<!DOCTYPE svg PUBLIC "-//W3C//DTD SVG 1.1//EN"
 "http://www.w3.org/Graphics/SVG/1.1/DTD/svg11.dtd">
<!-- Generated by graphviz version 2.40.1 (20161225.0304)
 -->
<!-- Title: o2::trd::SignalArray Pages: 1 -->
<svg width="229pt" height="171pt"
 viewBox="0.00 0.00 229.00 171.00" xmlns="http://www.w3.org/2000/svg" xmlns:xlink="http://www.w3.org/1999/xlink">
<g id="graph0" class="graph" transform="scale(1 1) rotate(0) translate(4 167)">
<title>o2::trd::SignalArray</title>
<!-- Node1 -->
<g id="node1" class="node">
<title>Node1</title>
<polygon fill="#bfbfbf" stroke="#000000" points="73,-.5 73,-57.5 183,-57.5 183,-.5 73,-.5"/>
<text text-anchor="middle" x="128" y="-45.5" font-family="Helvetica,sans-Serif" font-size="10.00" fill="#000000">o2::trd::SignalArray</text>
<polyline fill="none" stroke="#000000" points="73,-38.5 183,-38.5 "/>
<text text-anchor="middle" x="128" y="-26.5" font-family="Helvetica,sans-Serif" font-size="10.00" fill="#000000"> </text>
<polyline fill="none" stroke="#000000" points="73,-19.5 183,-19.5 "/>
<text text-anchor="middle" x="128" y="-7.5" font-family="Helvetica,sans-Serif" font-size="10.00" fill="#000000"> </text>
</g>
<!-- Node2 -->
<g id="node2" class="node">
<title>Node2</title>
<polygon fill="none" stroke="#bfbfbf" points="0,-105.5 0,-162.5 144,-162.5 144,-105.5 0,-105.5"/>
<text text-anchor="middle" x="72" y="-150.5" font-family="Helvetica,sans-Serif" font-size="10.00" fill="#000000">array&lt; float, kTimeBins &gt;</text>
<polyline fill="none" stroke="#bfbfbf" points="0,-143.5 144,-143.5 "/>
<text text-anchor="middle" x="72" y="-131.5" font-family="Helvetica,sans-Serif" font-size="10.00" fill="#000000"> </text>
<polyline fill="none" stroke="#bfbfbf" points="0,-124.5 144,-124.5 "/>
<text text-anchor="middle" x="72" y="-112.5" font-family="Helvetica,sans-Serif" font-size="10.00" fill="#000000"> </text>
</g>
<!-- Node2&#45;&gt;Node1 -->
<g id="edge1" class="edge">
<title>Node2&#45;&gt;Node1</title>
<path fill="none" stroke="#404040" d="M87.3022,-105.3083C93.352,-93.9651 100.405,-80.7406 106.9239,-68.5178"/>
<polygon fill="none" stroke="#404040" points="107.0691,-68.2453 106.3633,-61.0688 112.7163,-57.657 113.4221,-64.8335 107.0691,-68.2453"/>
<text text-anchor="middle" x="125" y="-79" font-family="Helvetica,sans-Serif" font-size="10.00" fill="#000000"> +signals</text>
</g>
<!-- Node3 -->
<g id="node3" class="node">
<title>Node3</title>
<polygon fill="none" stroke="#bfbfbf" points="162.5,-105.5 162.5,-162.5 207.5,-162.5 207.5,-105.5 162.5,-105.5"/>
<text text-anchor="middle" x="185" y="-150.5" font-family="Helvetica,sans-Serif" font-size="10.00" fill="#000000">size_t</text>
<polyline fill="none" stroke="#bfbfbf" points="162.5,-143.5 207.5,-143.5 "/>
<text text-anchor="middle" x="185" y="-131.5" font-family="Helvetica,sans-Serif" font-size="10.00" fill="#000000"> </text>
<polyline fill="none" stroke="#bfbfbf" points="162.5,-124.5 207.5,-124.5 "/>
<text text-anchor="middle" x="185" y="-112.5" font-family="Helvetica,sans-Serif" font-size="10.00" fill="#000000"> </text>
</g>
<!-- Node3&#45;&gt;Node1 -->
<g id="edge2" class="edge">
<title>Node3&#45;&gt;Node1</title>
<path fill="none" stroke="#404040" d="M169.4245,-105.3083C163.2667,-93.9651 156.0877,-80.7406 149.4525,-68.5178"/>
<polygon fill="none" stroke="#404040" points="149.2818,-68.2033 142.9038,-64.8385 143.5567,-57.657 149.9347,-61.0218 149.2818,-68.2033"/>
<text text-anchor="middle" x="189.5" y="-79" font-family="Helvetica,sans-Serif" font-size="10.00" fill="#000000"> +labelIndex</text>
</g>
</g>
</svg>
