<?xml version="1.0" encoding="UTF-8" standalone="no"?>
<!DOCTYPE svg PUBLIC "-//W3C//DTD SVG 1.1//EN"
 "http://www.w3.org/Graphics/SVG/1.1/DTD/svg11.dtd">
<!-- Generated by graphviz version 2.40.1 (20161225.0304)
 -->
<!-- Title: /home/travis/build/AliceO2Group/AliceO2/DataFormats/Reconstruction/include/ReconstructionDataFormats/MatchInfoTOF.h Pages: 1 -->
<svg width="1374pt" height="361pt"
 viewBox="0.00 0.00 1373.50 361.00" xmlns="http://www.w3.org/2000/svg" xmlns:xlink="http://www.w3.org/1999/xlink">
<g id="graph0" class="graph" transform="scale(1 1) rotate(0) translate(4 357)">
<title>/home/travis/build/AliceO2Group/AliceO2/DataFormats/Reconstruction/include/ReconstructionDataFormats/MatchInfoTOF.h</title>
<!-- Node46 -->
<g id="node1" class="node">
<title>Node46</title>
<polygon fill="#bfbfbf" stroke="#000000" points="488.5,-289.5 488.5,-352.5 681.5,-352.5 681.5,-289.5 488.5,-289.5"/>
<text text-anchor="start" x="496.5" y="-340.5" font-family="Helvetica,sans-Serif" font-size="10.00" fill="#000000">/home/travis/build</text>
<text text-anchor="start" x="496.5" y="-329.5" font-family="Helvetica,sans-Serif" font-size="10.00" fill="#000000">/AliceO2Group/AliceO2</text>
<text text-anchor="start" x="496.5" y="-318.5" font-family="Helvetica,sans-Serif" font-size="10.00" fill="#000000">/DataFormats/Reconstruction</text>
<text text-anchor="start" x="496.5" y="-307.5" font-family="Helvetica,sans-Serif" font-size="10.00" fill="#000000">/include/ReconstructionDataFormats</text>
<text text-anchor="middle" x="585" y="-296.5" font-family="Helvetica,sans-Serif" font-size="10.00" fill="#000000">/MatchInfoTOF.h</text>
</g>
<!-- Node47 -->
<g id="node2" class="node">
<title>Node47</title>
<g id="a_node2"><a xlink:href="../../d1/d4c/MatchInfoTOF_8cxx.html" target="_top" xlink:title="Class to store the output of the matching to TOF. ">
<polygon fill="none" stroke="#000000" points="0,-195 0,-247 158,-247 158,-195 0,-195"/>
<text text-anchor="start" x="8" y="-235" font-family="Helvetica,sans-Serif" font-size="10.00" fill="#000000">/home/travis/build</text>
<text text-anchor="start" x="8" y="-224" font-family="Helvetica,sans-Serif" font-size="10.00" fill="#000000">/AliceO2Group/AliceO2</text>
<text text-anchor="start" x="8" y="-213" font-family="Helvetica,sans-Serif" font-size="10.00" fill="#000000">/DataFormats/Reconstruction</text>
<text text-anchor="middle" x="79" y="-202" font-family="Helvetica,sans-Serif" font-size="10.00" fill="#000000">/src/MatchInfoTOF.cxx</text>
</a>
</g>
</g>
<!-- Node46&#45;&gt;Node47 -->
<g id="edge1" class="edge">
<title>Node46&#45;&gt;Node47</title>
<path fill="none" stroke="#191970" d="M478.5372,-309.2756C393.3732,-298.5618 271.3648,-280.2074 167,-253 160.3931,-251.2776 153.5854,-249.259 146.8207,-247.0879"/>
<polygon fill="#191970" stroke="#191970" points="478.1208,-312.7507 488.4765,-310.5124 478.9852,-305.8043 478.1208,-312.7507"/>
</g>
<!-- Node48 -->
<g id="node3" class="node">
<title>Node48</title>
<g id="a_node3"><a xlink:href="../../d0/d74/MatchTOF_8h.html" target="_top" xlink:title="Class to perform TOF matching to global tracks. ">
<polygon fill="none" stroke="#000000" points="176,-195 176,-247 364,-247 364,-195 176,-195"/>
<text text-anchor="start" x="184" y="-235" font-family="Helvetica,sans-Serif" font-size="10.00" fill="#000000">/home/travis/build</text>
<text text-anchor="start" x="184" y="-224" font-family="Helvetica,sans-Serif" font-size="10.00" fill="#000000">/AliceO2Group/AliceO2</text>
<text text-anchor="start" x="184" y="-213" font-family="Helvetica,sans-Serif" font-size="10.00" fill="#000000">/Detectors/GlobalTracking</text>
<text text-anchor="middle" x="270" y="-202" font-family="Helvetica,sans-Serif" font-size="10.00" fill="#000000">/include/GlobalTracking/MatchTOF.h</text>
</a>
</g>
</g>
<!-- Node46&#45;&gt;Node48 -->
<g id="edge2" class="edge">
<title>Node46&#45;&gt;Node48</title>
<path fill="none" stroke="#191970" d="M478.7909,-287.2828C437.4508,-274.159 390.8185,-259.3551 352.1271,-247.0721"/>
<polygon fill="#191970" stroke="#191970" points="477.7586,-290.6272 488.3489,-290.3171 479.8767,-283.9553 477.7586,-290.6272"/>
</g>
<!-- Node51 -->
<g id="node6" class="node">
<title>Node51</title>
<g id="a_node6"><a xlink:href="../../df/d12/RecoWorkflowSpec_8h.html" target="_top" xlink:title="/home/travis/build\l/AliceO2Group/AliceO2\l/Detectors/GlobalTrackingWorkflow\l/tofworkflow/include/TOFWorkflow\l/RecoWorkflowSpec.h">
<polygon fill="none" stroke="#000000" points="382.5,-189.5 382.5,-252.5 569.5,-252.5 569.5,-189.5 382.5,-189.5"/>
<text text-anchor="start" x="390.5" y="-240.5" font-family="Helvetica,sans-Serif" font-size="10.00" fill="#000000">/home/travis/build</text>
<text text-anchor="start" x="390.5" y="-229.5" font-family="Helvetica,sans-Serif" font-size="10.00" fill="#000000">/AliceO2Group/AliceO2</text>
<text text-anchor="start" x="390.5" y="-218.5" font-family="Helvetica,sans-Serif" font-size="10.00" fill="#000000">/Detectors/GlobalTrackingWorkflow</text>
<text text-anchor="start" x="390.5" y="-207.5" font-family="Helvetica,sans-Serif" font-size="10.00" fill="#000000">/tofworkflow/include/TOFWorkflow</text>
<text text-anchor="middle" x="476" y="-196.5" font-family="Helvetica,sans-Serif" font-size="10.00" fill="#000000">/RecoWorkflowSpec.h</text>
</a>
</g>
</g>
<!-- Node46&#45;&gt;Node51 -->
<g id="edge5" class="edge">
<title>Node46&#45;&gt;Node51</title>
<path fill="none" stroke="#191970" d="M542.8882,-282.3653C532.2219,-272.5797 520.8871,-262.1809 510.638,-252.778"/>
<polygon fill="#191970" stroke="#191970" points="540.7768,-285.1781 550.5117,-289.3594 545.5091,-280.02 540.7768,-285.1781"/>
</g>
<!-- Node53 -->
<g id="node8" class="node">
<title>Node53</title>
<g id="a_node8"><a xlink:href="../../dc/d9f/TOFCalibWriterSpec_8cxx.html" target="_top" xlink:title="/home/travis/build\l/AliceO2Group/AliceO2\l/Detectors/GlobalTrackingWorkflow\l/tofworkflow/src/TOFCalibWriterSpec.cxx">
<polygon fill="none" stroke="#000000" points="587,-195 587,-247 801,-247 801,-195 587,-195"/>
<text text-anchor="start" x="595" y="-235" font-family="Helvetica,sans-Serif" font-size="10.00" fill="#000000">/home/travis/build</text>
<text text-anchor="start" x="595" y="-224" font-family="Helvetica,sans-Serif" font-size="10.00" fill="#000000">/AliceO2Group/AliceO2</text>
<text text-anchor="start" x="595" y="-213" font-family="Helvetica,sans-Serif" font-size="10.00" fill="#000000">/Detectors/GlobalTrackingWorkflow</text>
<text text-anchor="middle" x="694" y="-202" font-family="Helvetica,sans-Serif" font-size="10.00" fill="#000000">/tofworkflow/src/TOFCalibWriterSpec.cxx</text>
</a>
</g>
</g>
<!-- Node46&#45;&gt;Node53 -->
<g id="edge8" class="edge">
<title>Node46&#45;&gt;Node53</title>
<path fill="none" stroke="#191970" d="M626.9565,-282.5078C639.8759,-270.6552 653.7896,-257.8902 665.575,-247.078"/>
<polygon fill="#191970" stroke="#191970" points="624.4909,-280.02 619.4883,-289.3594 629.2232,-285.1781 624.4909,-280.02"/>
</g>
<!-- Node54 -->
<g id="node9" class="node">
<title>Node54</title>
<g id="a_node9"><a xlink:href="../../d1/dd9/TOFMatchedWriterSpec_8cxx.html" target="_top" xlink:title="/home/travis/build\l/AliceO2Group/AliceO2\l/Detectors/GlobalTrackingWorkflow\l/tofworkflow/src/TOFMatchedWriterSpec.cxx">
<polygon fill="none" stroke="#000000" points="819,-195 819,-247 1049,-247 1049,-195 819,-195"/>
<text text-anchor="start" x="827" y="-235" font-family="Helvetica,sans-Serif" font-size="10.00" fill="#000000">/home/travis/build</text>
<text text-anchor="start" x="827" y="-224" font-family="Helvetica,sans-Serif" font-size="10.00" fill="#000000">/AliceO2Group/AliceO2</text>
<text text-anchor="start" x="827" y="-213" font-family="Helvetica,sans-Serif" font-size="10.00" fill="#000000">/Detectors/GlobalTrackingWorkflow</text>
<text text-anchor="middle" x="934" y="-202" font-family="Helvetica,sans-Serif" font-size="10.00" fill="#000000">/tofworkflow/src/TOFMatchedWriterSpec.cxx</text>
</a>
</g>
</g>
<!-- Node46&#45;&gt;Node54 -->
<g id="edge9" class="edge">
<title>Node46&#45;&gt;Node54</title>
<path fill="none" stroke="#191970" d="M691.6336,-290.4459C740.0405,-276.5758 796.7009,-260.3407 843.0608,-247.0571"/>
<polygon fill="#191970" stroke="#191970" points="690.4016,-287.1581 681.7525,-293.2772 692.3297,-293.8873 690.4016,-287.1581"/>
</g>
<!-- Node55 -->
<g id="node10" class="node">
<title>Node55</title>
<g id="a_node10"><a xlink:href="../../d3/d0c/TrackInterpolation_8h.html" target="_top" xlink:title="Definition of the TrackInterpolation class. ">
<polygon fill="none" stroke="#000000" points="1067.5,-189.5 1067.5,-252.5 1246.5,-252.5 1246.5,-189.5 1067.5,-189.5"/>
<text text-anchor="start" x="1075.5" y="-240.5" font-family="Helvetica,sans-Serif" font-size="10.00" fill="#000000">/home/travis/build</text>
<text text-anchor="start" x="1075.5" y="-229.5" font-family="Helvetica,sans-Serif" font-size="10.00" fill="#000000">/AliceO2Group/AliceO2</text>
<text text-anchor="start" x="1075.5" y="-218.5" font-family="Helvetica,sans-Serif" font-size="10.00" fill="#000000">/Detectors/TPC/calibration</text>
<text text-anchor="start" x="1075.5" y="-207.5" font-family="Helvetica,sans-Serif" font-size="10.00" fill="#000000">/SpacePoints/include/SpacePoints</text>
<text text-anchor="middle" x="1157" y="-196.5" font-family="Helvetica,sans-Serif" font-size="10.00" fill="#000000">/TrackInterpolation.h</text>
</a>
</g>
</g>
<!-- Node46&#45;&gt;Node55 -->
<g id="edge10" class="edge">
<title>Node46&#45;&gt;Node55</title>
<path fill="none" stroke="#191970" d="M691.9736,-310.8651C788.4729,-300.485 933.8873,-281.7603 1058,-253 1061.0794,-252.2864 1064.2005,-251.5208 1067.3431,-250.7137"/>
<polygon fill="#191970" stroke="#191970" points="691.4887,-307.3968 681.9154,-311.9358 692.2298,-314.3575 691.4887,-307.3968"/>
</g>
<!-- Node49 -->
<g id="node4" class="node">
<title>Node49</title>
<g id="a_node4"><a xlink:href="../../db/d6a/MatchTOF_8cxx.html" target="_top" xlink:title="/home/travis/build\l/AliceO2Group/AliceO2\l/Detectors/GlobalTracking\l/src/MatchTOF.cxx">
<polygon fill="none" stroke="#000000" points="102,-95 102,-147 244,-147 244,-95 102,-95"/>
<text text-anchor="start" x="110" y="-135" font-family="Helvetica,sans-Serif" font-size="10.00" fill="#000000">/home/travis/build</text>
<text text-anchor="start" x="110" y="-124" font-family="Helvetica,sans-Serif" font-size="10.00" fill="#000000">/AliceO2Group/AliceO2</text>
<text text-anchor="start" x="110" y="-113" font-family="Helvetica,sans-Serif" font-size="10.00" fill="#000000">/Detectors/GlobalTracking</text>
<text text-anchor="middle" x="173" y="-102" font-family="Helvetica,sans-Serif" font-size="10.00" fill="#000000">/src/MatchTOF.cxx</text>
</a>
</g>
</g>
<!-- Node48&#45;&gt;Node49 -->
<g id="edge3" class="edge">
<title>Node48&#45;&gt;Node49</title>
<path fill="none" stroke="#191970" d="M237.497,-187.4917C224.7712,-174.3723 210.3906,-159.5471 198.443,-147.2299"/>
<polygon fill="#191970" stroke="#191970" points="235.2927,-190.2462 244.7676,-194.9872 240.3173,-185.3724 235.2927,-190.2462"/>
</g>
<!-- Node50 -->
<g id="node5" class="node">
<title>Node50</title>
<g id="a_node5"><a xlink:href="../../d8/d84/RecoWorkflowSpec_8cxx.html" target="_top" xlink:title="/home/travis/build\l/AliceO2Group/AliceO2\l/Detectors/GlobalTrackingWorkflow\l/tofworkflow/src/RecoWorkflowSpec.cxx">
<polygon fill="none" stroke="#000000" points="262.5,-95 262.5,-147 471.5,-147 471.5,-95 262.5,-95"/>
<text text-anchor="start" x="270.5" y="-135" font-family="Helvetica,sans-Serif" font-size="10.00" fill="#000000">/home/travis/build</text>
<text text-anchor="start" x="270.5" y="-124" font-family="Helvetica,sans-Serif" font-size="10.00" fill="#000000">/AliceO2Group/AliceO2</text>
<text text-anchor="start" x="270.5" y="-113" font-family="Helvetica,sans-Serif" font-size="10.00" fill="#000000">/Detectors/GlobalTrackingWorkflow</text>
<text text-anchor="middle" x="367" y="-102" font-family="Helvetica,sans-Serif" font-size="10.00" fill="#000000">/tofworkflow/src/RecoWorkflowSpec.cxx</text>
</a>
</g>
</g>
<!-- Node48&#45;&gt;Node50 -->
<g id="edge4" class="edge">
<title>Node48&#45;&gt;Node50</title>
<path fill="none" stroke="#191970" d="M302.503,-187.4917C315.2288,-174.3723 329.6094,-159.5471 341.557,-147.2299"/>
<polygon fill="#191970" stroke="#191970" points="299.6827,-185.3724 295.2324,-194.9872 304.7073,-190.2462 299.6827,-185.3724"/>
</g>
<!-- Node51&#45;&gt;Node50 -->
<g id="edge6" class="edge">
<title>Node51&#45;&gt;Node50</title>
<path fill="none" stroke="#191970" d="M434.0435,-182.5078C421.1241,-170.6552 407.2104,-157.8902 395.425,-147.078"/>
<polygon fill="#191970" stroke="#191970" points="431.7768,-185.1781 441.5117,-189.3594 436.5091,-180.02 431.7768,-185.1781"/>
</g>
<!-- Node52 -->
<g id="node7" class="node">
<title>Node52</title>
<g id="a_node7"><a xlink:href="../../da/dfd/tof-reco-workflow_8cxx.html" target="_top" xlink:title="Basic DPL workflow for TOF reconstruction starting from digits. ">
<polygon fill="none" stroke="#000000" points="489.5,-95 489.5,-147 692.5,-147 692.5,-95 489.5,-95"/>
<text text-anchor="start" x="497.5" y="-135" font-family="Helvetica,sans-Serif" font-size="10.00" fill="#000000">/home/travis/build</text>
<text text-anchor="start" x="497.5" y="-124" font-family="Helvetica,sans-Serif" font-size="10.00" fill="#000000">/AliceO2Group/AliceO2</text>
<text text-anchor="start" x="497.5" y="-113" font-family="Helvetica,sans-Serif" font-size="10.00" fill="#000000">/Detectors/GlobalTrackingWorkflow</text>
<text text-anchor="middle" x="591" y="-102" font-family="Helvetica,sans-Serif" font-size="10.00" fill="#000000">/tofworkflow/src/tof&#45;reco&#45;workflow.cxx</text>
</a>
</g>
</g>
<!-- Node51&#45;&gt;Node52 -->
<g id="edge7" class="edge">
<title>Node51&#45;&gt;Node52</title>
<path fill="none" stroke="#191970" d="M520.266,-182.5078C533.8966,-170.6552 548.5762,-157.8902 561.0103,-147.078"/>
<polygon fill="#191970" stroke="#191970" points="517.6362,-180.1564 512.3867,-189.3594 522.2294,-185.4387 517.6362,-180.1564"/>
</g>
<!-- Node56 -->
<g id="node11" class="node">
<title>Node56</title>
<g id="a_node11"><a xlink:href="../../da/ddb/TrackResiduals_8h.html" target="_top" xlink:title="Definition of the TrackResiduals class. ">
<polygon fill="none" stroke="#000000" points="961.5,-89.5 961.5,-152.5 1140.5,-152.5 1140.5,-89.5 961.5,-89.5"/>
<text text-anchor="start" x="969.5" y="-140.5" font-family="Helvetica,sans-Serif" font-size="10.00" fill="#000000">/home/travis/build</text>
<text text-anchor="start" x="969.5" y="-129.5" font-family="Helvetica,sans-Serif" font-size="10.00" fill="#000000">/AliceO2Group/AliceO2</text>
<text text-anchor="start" x="969.5" y="-118.5" font-family="Helvetica,sans-Serif" font-size="10.00" fill="#000000">/Detectors/TPC/calibration</text>
<text text-anchor="start" x="969.5" y="-107.5" font-family="Helvetica,sans-Serif" font-size="10.00" fill="#000000">/SpacePoints/include/SpacePoints</text>
<text text-anchor="middle" x="1051" y="-96.5" font-family="Helvetica,sans-Serif" font-size="10.00" fill="#000000">/TrackResiduals.h</text>
</a>
</g>
</g>
<!-- Node55&#45;&gt;Node56 -->
<g id="edge11" class="edge">
<title>Node55&#45;&gt;Node56</title>
<path fill="none" stroke="#191970" d="M1116.0473,-182.3653C1105.6745,-172.5797 1094.6517,-162.1809 1084.6847,-152.778"/>
<polygon fill="#191970" stroke="#191970" points="1113.7852,-185.043 1123.4609,-189.3594 1118.5888,-179.9513 1113.7852,-185.043"/>
</g>
<!-- Node58 -->
<g id="node13" class="node">
<title>Node58</title>
<g id="a_node13"><a xlink:href="../../d4/d15/TrackInterpolation_8cxx.html" target="_top" xlink:title="Implementation of the TrackInterpolation class. ">
<polygon fill="none" stroke="#000000" points="1158.5,-95 1158.5,-147 1365.5,-147 1365.5,-95 1158.5,-95"/>
<text text-anchor="start" x="1166.5" y="-135" font-family="Helvetica,sans-Serif" font-size="10.00" fill="#000000">/home/travis/build</text>
<text text-anchor="start" x="1166.5" y="-124" font-family="Helvetica,sans-Serif" font-size="10.00" fill="#000000">/AliceO2Group/AliceO2</text>
<text text-anchor="start" x="1166.5" y="-113" font-family="Helvetica,sans-Serif" font-size="10.00" fill="#000000">/Detectors/TPC/calibration</text>
<text text-anchor="middle" x="1262" y="-102" font-family="Helvetica,sans-Serif" font-size="10.00" fill="#000000">/SpacePoints/src/TrackInterpolation.cxx</text>
</a>
</g>
</g>
<!-- Node55&#45;&gt;Node58 -->
<g id="edge13" class="edge">
<title>Node55&#45;&gt;Node58</title>
<path fill="none" stroke="#191970" d="M1197.766,-182.1752C1210.1124,-170.4167 1223.3713,-157.7892 1234.6181,-147.078"/>
<polygon fill="#191970" stroke="#191970" points="1195.0503,-179.9283 1190.2227,-189.3594 1199.8779,-184.9973 1195.0503,-179.9283"/>
</g>
<!-- Node57 -->
<g id="node12" class="node">
<title>Node57</title>
<g id="a_node12"><a xlink:href="../../d9/df0/TrackResiduals_8cxx.html" target="_top" xlink:title="Implementation of the TrackResiduals class. ">
<polygon fill="none" stroke="#000000" points="955.5,-.5 955.5,-52.5 1146.5,-52.5 1146.5,-.5 955.5,-.5"/>
<text text-anchor="start" x="963.5" y="-40.5" font-family="Helvetica,sans-Serif" font-size="10.00" fill="#000000">/home/travis/build</text>
<text text-anchor="start" x="963.5" y="-29.5" font-family="Helvetica,sans-Serif" font-size="10.00" fill="#000000">/AliceO2Group/AliceO2</text>
<text text-anchor="start" x="963.5" y="-18.5" font-family="Helvetica,sans-Serif" font-size="10.00" fill="#000000">/Detectors/TPC/calibration</text>
<text text-anchor="middle" x="1051" y="-7.5" font-family="Helvetica,sans-Serif" font-size="10.00" fill="#000000">/SpacePoints/src/TrackResiduals.cxx</text>
</a>
</g>
</g>
<!-- Node56&#45;&gt;Node57 -->
<g id="edge12" class="edge">
<title>Node56&#45;&gt;Node57</title>
<path fill="none" stroke="#191970" d="M1051,-79.2457C1051,-70.2008 1051,-60.8836 1051,-52.6442"/>
<polygon fill="#191970" stroke="#191970" points="1047.5001,-79.2699 1051,-89.27 1054.5001,-79.27 1047.5001,-79.2699"/>
</g>
</g>
</svg>
