<?xml version="1.0" encoding="UTF-8" standalone="no"?>
<!DOCTYPE svg PUBLIC "-//W3C//DTD SVG 1.1//EN"
 "http://www.w3.org/Graphics/SVG/1.1/DTD/svg11.dtd">
<!-- Generated by graphviz version 2.40.1 (20161225.0304)
 -->
<!-- Title: /home/travis/build/AliceO2Group/AliceO2/GPU/GPUTracking/dEdx/GPUdEdx.cxx Pages: 1 -->
<svg width="1060pt" height="453pt"
 viewBox="0.00 0.00 1060.00 453.00" xmlns="http://www.w3.org/2000/svg" xmlns:xlink="http://www.w3.org/1999/xlink">
<g id="graph0" class="graph" transform="scale(1 1) rotate(0) translate(4 449)">
<title>/home/travis/build/AliceO2Group/AliceO2/GPU/GPUTracking/dEdx/GPUdEdx.cxx</title>
<!-- Node0 -->
<g id="node1" class="node">
<title>Node0</title>
<polygon fill="#bfbfbf" stroke="#000000" points="255.5,-392.5 255.5,-444.5 387.5,-444.5 387.5,-392.5 255.5,-392.5"/>
<text text-anchor="start" x="263.5" y="-432.5" font-family="Helvetica,sans-Serif" font-size="10.00" fill="#000000">/home/travis/build</text>
<text text-anchor="start" x="263.5" y="-421.5" font-family="Helvetica,sans-Serif" font-size="10.00" fill="#000000">/AliceO2Group/AliceO2</text>
<text text-anchor="start" x="263.5" y="-410.5" font-family="Helvetica,sans-Serif" font-size="10.00" fill="#000000">/GPU/GPUTracking/dEdx</text>
<text text-anchor="middle" x="321.5" y="-399.5" font-family="Helvetica,sans-Serif" font-size="10.00" fill="#000000">/GPUdEdx.cxx</text>
</g>
<!-- Node1 -->
<g id="node2" class="node">
<title>Node1</title>
<g id="a_node2"><a xlink:href="../../dc/d55/GPUdEdx_8h.html" target="_top" xlink:title="GPUdEdx.h">
<polygon fill="none" stroke="#000000" points="286,-336.5 286,-355.5 357,-355.5 357,-336.5 286,-336.5"/>
<text text-anchor="middle" x="321.5" y="-343.5" font-family="Helvetica,sans-Serif" font-size="10.00" fill="#000000">GPUdEdx.h</text>
</a>
</g>
</g>
<!-- Node0&#45;&gt;Node1 -->
<g id="edge1" class="edge">
<title>Node0&#45;&gt;Node1</title>
<path fill="none" stroke="#191970" d="M321.5,-392.3258C321.5,-383.5142 321.5,-373.8397 321.5,-365.621"/>
<polygon fill="#191970" stroke="#191970" points="325.0001,-365.534 321.5,-355.534 318.0001,-365.534 325.0001,-365.534"/>
</g>
<!-- Node11 -->
<g id="node12" class="node">
<title>Node11</title>
<g id="a_node12"><a xlink:href="../../d6/d1b/GPUTPCGeometry_8h.html" target="_top" xlink:title="GPUTPCGeometry.h">
<polygon fill="none" stroke="#000000" points="102,-224.5 102,-243.5 215,-243.5 215,-224.5 102,-224.5"/>
<text text-anchor="middle" x="158.5" y="-231.5" font-family="Helvetica,sans-Serif" font-size="10.00" fill="#000000">GPUTPCGeometry.h</text>
</a>
</g>
</g>
<!-- Node0&#45;&gt;Node11 -->
<g id="edge28" class="edge">
<title>Node0&#45;&gt;Node11</title>
<path fill="none" stroke="#191970" d="M291.243,-392.453C265.5352,-369.5183 228.4617,-334.4873 200.5,-300 188.386,-285.0589 176.8211,-266.4496 168.9054,-252.8037"/>
<polygon fill="#191970" stroke="#191970" points="171.8125,-250.8351 163.8308,-243.8679 165.7256,-254.2919 171.8125,-250.8351"/>
</g>
<!-- Node15 -->
<g id="node16" class="node">
<title>Node15</title>
<g id="a_node16"><a xlink:href="../../df/d13/GPUParam_8h.html" target="_top" xlink:title="GPUParam.h">
<polygon fill="none" stroke="#000000" points="347,-280.5 347,-299.5 424,-299.5 424,-280.5 347,-280.5"/>
<text text-anchor="middle" x="385.5" y="-287.5" font-family="Helvetica,sans-Serif" font-size="10.00" fill="#000000">GPUParam.h</text>
</a>
</g>
</g>
<!-- Node0&#45;&gt;Node15 -->
<g id="edge32" class="edge">
<title>Node0&#45;&gt;Node15</title>
<path fill="none" stroke="#191970" d="M342.7646,-392.2939C350.7298,-381.5307 359.3334,-368.6423 365.5,-356 372.7173,-341.2037 377.9514,-323.2617 381.2505,-309.8218"/>
<polygon fill="#191970" stroke="#191970" points="384.7344,-310.2894 383.5678,-299.759 377.9129,-308.7185 384.7344,-310.2894"/>
</g>
<!-- Node19 -->
<g id="node20" class="node">
<title>Node19</title>
<g id="a_node20"><a xlink:href="../../d3/d1f/GPUdEdxInfo_8h.html" target="_top" xlink:title="GPUdEdxInfo.h">
<polygon fill="none" stroke="#000000" points="704,-280.5 704,-299.5 793,-299.5 793,-280.5 704,-280.5"/>
<text text-anchor="middle" x="748.5" y="-287.5" font-family="Helvetica,sans-Serif" font-size="10.00" fill="#000000">GPUdEdxInfo.h</text>
</a>
</g>
</g>
<!-- Node0&#45;&gt;Node19 -->
<g id="edge29" class="edge">
<title>Node0&#45;&gt;Node19</title>
<path fill="none" stroke="#191970" d="M387.7502,-398.5629C476.7939,-371.7664 632.4641,-324.9195 706.7503,-302.564"/>
<polygon fill="#191970" stroke="#191970" points="708.1097,-305.81 716.6769,-299.5767 706.0925,-299.107 708.1097,-305.81"/>
</g>
<!-- Node20 -->
<g id="node21" class="node">
<title>Node20</title>
<g id="a_node21"><a xlink:href="../../dd/d0b/GPUCommonAlgorithm_8h.html" target="_top" xlink:title="GPUCommonAlgorithm.h">
<polygon fill="none" stroke="#000000" points="0,-336.5 0,-355.5 139,-355.5 139,-336.5 0,-336.5"/>
<text text-anchor="middle" x="69.5" y="-343.5" font-family="Helvetica,sans-Serif" font-size="10.00" fill="#000000">GPUCommonAlgorithm.h</text>
</a>
</g>
</g>
<!-- Node0&#45;&gt;Node20 -->
<g id="edge30" class="edge">
<title>Node0&#45;&gt;Node20</title>
<path fill="none" stroke="#191970" d="M255.29,-399.4515C210.0817,-386.4451 151.505,-369.5927 112.3235,-358.3202"/>
<polygon fill="#191970" stroke="#191970" points="113.1317,-354.9109 102.5538,-355.5095 111.1963,-361.638 113.1317,-354.9109"/>
</g>
<!-- Node2 -->
<g id="node3" class="node">
<title>Node2</title>
<g id="a_node3"><a xlink:href="../../d2/d6d/GPUDef_8h.html" target="_top" xlink:title="GPUDef.h">
<polygon fill="none" stroke="#000000" points="606,-112.5 606,-131.5 669,-131.5 669,-112.5 606,-112.5"/>
<text text-anchor="middle" x="637.5" y="-119.5" font-family="Helvetica,sans-Serif" font-size="10.00" fill="#000000">GPUDef.h</text>
</a>
</g>
</g>
<!-- Node1&#45;&gt;Node2 -->
<g id="edge2" class="edge">
<title>Node1&#45;&gt;Node2</title>
<path fill="none" stroke="#191970" d="M357.0422,-338.8904C431.106,-323.4092 598.4159,-284.754 638.5,-244 662.7711,-219.3233 661.9177,-202.0123 655.5,-168 653.7559,-158.7566 650.2019,-148.9893 646.7091,-140.844"/>
<polygon fill="#191970" stroke="#191970" points="649.8024,-139.1923 642.4585,-131.5556 643.4372,-142.1052 649.8024,-139.1923"/>
</g>
<!-- Node1&#45;&gt;Node11 -->
<g id="edge11" class="edge">
<title>Node1&#45;&gt;Node11</title>
<path fill="none" stroke="#191970" d="M297.7899,-336.3877C278.5742,-328.0812 251.2187,-315.0597 229.5,-300 208.9213,-285.7308 188.2784,-265.7519 174.5982,-251.5214"/>
<polygon fill="#191970" stroke="#191970" points="176.8096,-248.7651 167.4012,-243.8936 171.7181,-253.569 176.8096,-248.7651"/>
</g>
<!-- Node12 -->
<g id="node13" class="node">
<title>Node12</title>
<g id="a_node13"><a xlink:href="../../d6/da2/GPUCommonMath_8h.html" target="_top" xlink:title="GPUCommonMath.h">
<polygon fill="none" stroke="#000000" points="253,-168.5 253,-187.5 368,-187.5 368,-168.5 253,-168.5"/>
<text text-anchor="middle" x="310.5" y="-175.5" font-family="Helvetica,sans-Serif" font-size="10.00" fill="#000000">GPUCommonMath.h</text>
</a>
</g>
</g>
<!-- Node1&#45;&gt;Node12 -->
<g id="edge13" class="edge">
<title>Node1&#45;&gt;Node12</title>
<path fill="none" stroke="#191970" d="M313.5509,-336.3707C299.9045,-319.1427 272.5222,-281.343 262.5,-244 260.1959,-235.4149 259.0112,-232.1756 262.5,-224 267.6156,-212.0122 277.5575,-201.6498 287.0727,-193.8114"/>
<polygon fill="#191970" stroke="#191970" points="289.3797,-196.4532 295.1926,-187.5954 285.1246,-190.8949 289.3797,-196.4532"/>
</g>
<!-- Node1&#45;&gt;Node15 -->
<g id="edge17" class="edge">
<title>Node1&#45;&gt;Node15</title>
<path fill="none" stroke="#191970" d="M332.6479,-336.2455C342.0087,-328.0549 355.5858,-316.1749 366.6349,-306.5069"/>
<polygon fill="#191970" stroke="#191970" points="369.2588,-308.8618 374.4798,-299.6427 364.6492,-303.5937 369.2588,-308.8618"/>
</g>
<!-- Node1&#45;&gt;Node19 -->
<g id="edge27" class="edge">
<title>Node1&#45;&gt;Node19</title>
<path fill="none" stroke="#191970" d="M357.0946,-342.0725C422.8667,-334.6992 567.8332,-317.9062 689.5,-300 690.8009,-299.8085 692.1173,-299.6116 693.4446,-299.4101"/>
<polygon fill="#191970" stroke="#191970" points="694.4171,-302.8005 703.7546,-297.7943 693.3333,-295.8849 694.4171,-302.8005"/>
</g>
<!-- Node3 -->
<g id="node4" class="node">
<title>Node3</title>
<g id="a_node4"><a xlink:href="../../df/d21/GPUCommonDef_8h.html" target="_top" xlink:title="GPUCommonDef.h">
<polygon fill="none" stroke="#000000" points="272,-56.5 272,-75.5 379,-75.5 379,-56.5 272,-56.5"/>
<text text-anchor="middle" x="325.5" y="-63.5" font-family="Helvetica,sans-Serif" font-size="10.00" fill="#000000">GPUCommonDef.h</text>
</a>
</g>
</g>
<!-- Node2&#45;&gt;Node3 -->
<g id="edge3" class="edge">
<title>Node2&#45;&gt;Node3</title>
<path fill="none" stroke="#191970" d="M605.8668,-116.3222C555.0289,-107.1975 454.1867,-89.0976 388.322,-77.2757"/>
<polygon fill="#191970" stroke="#191970" points="388.9276,-73.8286 378.4666,-75.5068 387.6909,-80.7185 388.9276,-73.8286"/>
</g>
<!-- Node6 -->
<g id="node7" class="node">
<title>Node6</title>
<g id="a_node7"><a xlink:href="../../d2/d37/GPUDefConstantsAndSettings_8h.html" target="_top" xlink:title="GPUDefConstantsAndSettings.h">
<polygon fill="none" stroke="#000000" points="881,-56.5 881,-75.5 1052,-75.5 1052,-56.5 881,-56.5"/>
<text text-anchor="middle" x="966.5" y="-63.5" font-family="Helvetica,sans-Serif" font-size="10.00" fill="#000000">GPUDefConstantsAndSettings.h</text>
</a>
</g>
</g>
<!-- Node2&#45;&gt;Node6 -->
<g id="edge6" class="edge">
<title>Node2&#45;&gt;Node6</title>
<path fill="none" stroke="#191970" d="M669.0459,-116.6305C722.0853,-107.6025 830.2037,-89.1994 900.4434,-77.2437"/>
<polygon fill="#191970" stroke="#191970" points="901.2499,-80.6568 910.5208,-75.5284 900.0752,-73.7561 901.2499,-80.6568"/>
</g>
<!-- Node7 -->
<g id="node8" class="node">
<title>Node7</title>
<g id="a_node8"><a xlink:href="../../dc/de9/GPUDefGPUParameters_8h.html" target="_top" xlink:title="GPUDefGPUParameters.h">
<polygon fill="none" stroke="#000000" points="397.5,-56.5 397.5,-75.5 537.5,-75.5 537.5,-56.5 397.5,-56.5"/>
<text text-anchor="middle" x="467.5" y="-63.5" font-family="Helvetica,sans-Serif" font-size="10.00" fill="#000000">GPUDefGPUParameters.h</text>
</a>
</g>
</g>
<!-- Node2&#45;&gt;Node7 -->
<g id="edge7" class="edge">
<title>Node2&#45;&gt;Node7</title>
<path fill="none" stroke="#191970" d="M608.276,-112.3733C580.0075,-103.0613 537.0035,-88.8953 505.9656,-78.671"/>
<polygon fill="#191970" stroke="#191970" points="506.9357,-75.3056 496.3427,-75.5011 504.7456,-81.9542 506.9357,-75.3056"/>
</g>
<!-- Node8 -->
<g id="node9" class="node">
<title>Node8</title>
<g id="a_node9"><a xlink:href="../../d3/d4c/GPUDefOpenCL12Templates_8h.html" target="_top" xlink:title="GPUDefOpenCL12Templates.h">
<polygon fill="none" stroke="#000000" points="555.5,-56.5 555.5,-75.5 719.5,-75.5 719.5,-56.5 555.5,-56.5"/>
<text text-anchor="middle" x="637.5" y="-63.5" font-family="Helvetica,sans-Serif" font-size="10.00" fill="#000000">GPUDefOpenCL12Templates.h</text>
</a>
</g>
</g>
<!-- Node2&#45;&gt;Node8 -->
<g id="edge8" class="edge">
<title>Node2&#45;&gt;Node8</title>
<path fill="none" stroke="#191970" d="M637.5,-112.2455C637.5,-104.9382 637.5,-94.6944 637.5,-85.7046"/>
<polygon fill="#191970" stroke="#191970" points="641.0001,-85.6426 637.5,-75.6427 634.0001,-85.6427 641.0001,-85.6426"/>
</g>
<!-- Node9 -->
<g id="node10" class="node">
<title>Node9</title>
<g id="a_node10"><a xlink:href="../../d2/d45/GPUCommonRtypes_8h.html" target="_top" xlink:title="GPUCommonRtypes.h">
<polygon fill="none" stroke="#000000" points="738,-56.5 738,-75.5 863,-75.5 863,-56.5 738,-56.5"/>
<text text-anchor="middle" x="800.5" y="-63.5" font-family="Helvetica,sans-Serif" font-size="10.00" fill="#000000">GPUCommonRtypes.h</text>
</a>
</g>
</g>
<!-- Node2&#45;&gt;Node9 -->
<g id="edge9" class="edge">
<title>Node2&#45;&gt;Node9</title>
<path fill="none" stroke="#191970" d="M665.5207,-112.3733C692.5078,-103.1016 733.5017,-89.0178 763.2311,-78.804"/>
<polygon fill="#191970" stroke="#191970" points="764.5248,-82.0605 772.8449,-75.5011 762.2503,-75.4403 764.5248,-82.0605"/>
</g>
<!-- Node4 -->
<g id="node5" class="node">
<title>Node4</title>
<g id="a_node5"><a xlink:href="../../d5/d93/GPUCommonDefSettings_8h.html" target="_top" xlink:title="GPUCommonDefSettings.h">
<polygon fill="none" stroke="#000000" points="328.5,-.5 328.5,-19.5 476.5,-19.5 476.5,-.5 328.5,-.5"/>
<text text-anchor="middle" x="402.5" y="-7.5" font-family="Helvetica,sans-Serif" font-size="10.00" fill="#000000">GPUCommonDefSettings.h</text>
</a>
</g>
</g>
<!-- Node3&#45;&gt;Node4 -->
<g id="edge4" class="edge">
<title>Node3&#45;&gt;Node4</title>
<path fill="none" stroke="#191970" d="M338.9124,-56.2455C350.5057,-47.814 367.4748,-35.4729 380.9678,-25.6598"/>
<polygon fill="#191970" stroke="#191970" points="383.2126,-28.355 389.2413,-19.6427 379.0953,-22.6938 383.2126,-28.355"/>
</g>
<!-- Node5 -->
<g id="node6" class="node">
<title>Node5</title>
<g id="a_node6"><a xlink:href="../../da/d5a/GPUCommonDefAPI_8h.html" target="_top" xlink:title="GPUCommonDefAPI.h">
<polygon fill="none" stroke="#000000" points="186.5,-.5 186.5,-19.5 310.5,-19.5 310.5,-.5 186.5,-.5"/>
<text text-anchor="middle" x="248.5" y="-7.5" font-family="Helvetica,sans-Serif" font-size="10.00" fill="#000000">GPUCommonDefAPI.h</text>
</a>
</g>
</g>
<!-- Node3&#45;&gt;Node5 -->
<g id="edge5" class="edge">
<title>Node3&#45;&gt;Node5</title>
<path fill="none" stroke="#191970" d="M312.0876,-56.2455C300.4943,-47.814 283.5252,-35.4729 270.0322,-25.6598"/>
<polygon fill="#191970" stroke="#191970" points="271.9047,-22.6938 261.7587,-19.6427 267.7874,-28.355 271.9047,-22.6938"/>
</g>
<!-- Node10 -->
<g id="node11" class="node">
<title>Node10</title>
<polygon fill="none" stroke="#bfbfbf" points="771,-.5 771,-19.5 830,-19.5 830,-.5 771,-.5"/>
<text text-anchor="middle" x="800.5" y="-7.5" font-family="Helvetica,sans-Serif" font-size="10.00" fill="#000000">Rtypes.h</text>
</g>
<!-- Node9&#45;&gt;Node10 -->
<g id="edge10" class="edge">
<title>Node9&#45;&gt;Node10</title>
<path fill="none" stroke="#191970" d="M800.5,-56.2455C800.5,-48.9382 800.5,-38.6944 800.5,-29.7046"/>
<polygon fill="#191970" stroke="#191970" points="804.0001,-29.6426 800.5,-19.6427 797.0001,-29.6427 804.0001,-29.6426"/>
</g>
<!-- Node11&#45;&gt;Node3 -->
<g id="edge12" class="edge">
<title>Node11&#45;&gt;Node3</title>
<path fill="none" stroke="#191970" d="M157.9585,-224.3323C157.2334,-201.6358 158.6619,-144.4177 188.5,-112 200.2919,-99.1886 239.5699,-86.7472 273.0627,-78.0406"/>
<polygon fill="#191970" stroke="#191970" points="273.9481,-81.427 282.78,-75.5747 272.2263,-74.642 273.9481,-81.427"/>
</g>
<!-- Node12&#45;&gt;Node3 -->
<g id="edge14" class="edge">
<title>Node12&#45;&gt;Node3</title>
<path fill="none" stroke="#191970" d="M317.8819,-168.4183C324.2273,-159.5336 332.9061,-145.6624 336.5,-132 340.604,-116.3985 337.0182,-98.3012 332.878,-85.0072"/>
<polygon fill="#191970" stroke="#191970" points="336.167,-83.8093 329.575,-75.515 329.5558,-86.1098 336.167,-83.8093"/>
</g>
<!-- Node13 -->
<g id="node14" class="node">
<title>Node13</title>
<polygon fill="none" stroke="#bfbfbf" points="198,-112.5 198,-131.5 245,-131.5 245,-112.5 198,-112.5"/>
<text text-anchor="middle" x="221.5" y="-119.5" font-family="Helvetica,sans-Serif" font-size="10.00" fill="#000000">cmath</text>
</g>
<!-- Node12&#45;&gt;Node13 -->
<g id="edge15" class="edge">
<title>Node12&#45;&gt;Node13</title>
<path fill="none" stroke="#191970" d="M294.9974,-168.2455C281.342,-159.6534 261.2343,-147.0014 245.5011,-137.1018"/>
<polygon fill="#191970" stroke="#191970" points="247.1529,-134.006 236.825,-131.6427 243.4249,-139.9307 247.1529,-134.006"/>
</g>
<!-- Node14 -->
<g id="node15" class="node">
<title>Node14</title>
<polygon fill="none" stroke="#bfbfbf" points="263.5,-112.5 263.5,-131.5 327.5,-131.5 327.5,-112.5 263.5,-112.5"/>
<text text-anchor="middle" x="295.5" y="-119.5" font-family="Helvetica,sans-Serif" font-size="10.00" fill="#000000">algorithm</text>
</g>
<!-- Node12&#45;&gt;Node14 -->
<g id="edge16" class="edge">
<title>Node12&#45;&gt;Node14</title>
<path fill="none" stroke="#191970" d="M307.8872,-168.2455C305.9084,-160.8579 303.1256,-150.4689 300.6988,-141.4087"/>
<polygon fill="#191970" stroke="#191970" points="304.0511,-140.3966 298.0829,-131.6427 297.2895,-142.2078 304.0511,-140.3966"/>
</g>
<!-- Node15&#45;&gt;Node2 -->
<g id="edge20" class="edge">
<title>Node15&#45;&gt;Node2</title>
<path fill="none" stroke="#191970" d="M424.1894,-287.6233C483.3518,-283.1535 592.2244,-271.3597 618.5,-244 644.7439,-216.6732 643.8058,-168.9243 640.71,-141.9799"/>
<polygon fill="#191970" stroke="#191970" points="644.1444,-141.2609 639.324,-131.8262 637.2087,-142.2077 644.1444,-141.2609"/>
</g>
<!-- Node15&#45;&gt;Node3 -->
<g id="edge18" class="edge">
<title>Node15&#45;&gt;Node3</title>
<path fill="none" stroke="#191970" d="M385.9884,-280.1405C386.5166,-267.2223 387.0869,-243.8742 385.5,-224 383.4936,-198.8717 383.6991,-192.1584 376.5,-168 368.716,-141.8787 363.7751,-136.3359 351.5,-112 346.8677,-102.8163 341.3055,-92.853 336.5166,-84.5547"/>
<polygon fill="#191970" stroke="#191970" points="339.422,-82.5896 331.3522,-75.7245 333.3796,-86.1236 339.422,-82.5896"/>
</g>
<!-- Node15&#45;&gt;Node11 -->
<g id="edge23" class="edge">
<title>Node15&#45;&gt;Node11</title>
<path fill="none" stroke="#191970" d="M346.9925,-280.5004C308.4297,-270.9871 248.9613,-256.3164 207.1555,-246.0031"/>
<polygon fill="#191970" stroke="#191970" points="207.7436,-242.5433 197.1964,-243.5462 206.067,-249.3396 207.7436,-242.5433"/>
</g>
<!-- Node15&#45;&gt;Node12 -->
<g id="edge19" class="edge">
<title>Node15&#45;&gt;Node12</title>
<path fill="none" stroke="#191970" d="M384.5311,-280.2912C382.7921,-266.7145 378.1617,-241.7333 366.5,-224 358.4814,-211.8065 346.2326,-201.2191 335.2332,-193.2856"/>
<polygon fill="#191970" stroke="#191970" points="337.0156,-190.2644 326.7845,-187.5121 333.0661,-196.0439 337.0156,-190.2644"/>
</g>
<!-- Node16 -->
<g id="node17" class="node">
<title>Node16</title>
<g id="a_node17"><a xlink:href="../../dd/dc6/GPUSettings_8h.html" target="_top" xlink:title="GPUSettings.h">
<polygon fill="none" stroke="#000000" points="271.5,-224.5 271.5,-243.5 357.5,-243.5 357.5,-224.5 271.5,-224.5"/>
<text text-anchor="middle" x="314.5" y="-231.5" font-family="Helvetica,sans-Serif" font-size="10.00" fill="#000000">GPUSettings.h</text>
</a>
</g>
</g>
<!-- Node15&#45;&gt;Node16 -->
<g id="edge21" class="edge">
<title>Node15&#45;&gt;Node16</title>
<path fill="none" stroke="#191970" d="M373.1327,-280.2455C362.5446,-271.8943 347.0936,-259.7076 334.7107,-249.9408"/>
<polygon fill="#191970" stroke="#191970" points="336.7447,-247.0875 326.7255,-243.6427 332.4097,-252.5837 336.7447,-247.0875"/>
</g>
<!-- Node17 -->
<g id="node18" class="node">
<title>Node17</title>
<g id="a_node18"><a xlink:href="../../d9/d9c/GPUTPCGMPolynomialField_8h.html" target="_top" xlink:title="GPUTPCGMPolynomialField.h">
<polygon fill="none" stroke="#000000" points="451.5,-224.5 451.5,-243.5 609.5,-243.5 609.5,-224.5 451.5,-224.5"/>
<text text-anchor="middle" x="530.5" y="-231.5" font-family="Helvetica,sans-Serif" font-size="10.00" fill="#000000">GPUTPCGMPolynomialField.h</text>
</a>
</g>
</g>
<!-- Node15&#45;&gt;Node17 -->
<g id="edge24" class="edge">
<title>Node15&#45;&gt;Node17</title>
<path fill="none" stroke="#191970" d="M410.4264,-280.3733C434.1202,-271.2226 469.9511,-257.3844 496.3068,-247.2057"/>
<polygon fill="#191970" stroke="#191970" points="497.8314,-250.3689 505.8989,-243.5011 495.3094,-243.8389 497.8314,-250.3689"/>
</g>
<!-- Node16&#45;&gt;Node12 -->
<g id="edge22" class="edge">
<title>Node16&#45;&gt;Node12</title>
<path fill="none" stroke="#191970" d="M313.8033,-224.2455C313.2813,-216.9382 312.5496,-206.6944 311.9075,-197.7046"/>
<polygon fill="#191970" stroke="#191970" points="315.3924,-197.3679 311.1888,-187.6427 308.4102,-197.8667 315.3924,-197.3679"/>
</g>
<!-- Node18 -->
<g id="node19" class="node">
<title>Node18</title>
<g id="a_node19"><a xlink:href="../../da/dab/GPUTPCDef_8h.html" target="_top" xlink:title="GPUTPCDef.h">
<polygon fill="none" stroke="#000000" points="508.5,-168.5 508.5,-187.5 590.5,-187.5 590.5,-168.5 508.5,-168.5"/>
<text text-anchor="middle" x="549.5" y="-175.5" font-family="Helvetica,sans-Serif" font-size="10.00" fill="#000000">GPUTPCDef.h</text>
</a>
</g>
</g>
<!-- Node17&#45;&gt;Node18 -->
<g id="edge25" class="edge">
<title>Node17&#45;&gt;Node18</title>
<path fill="none" stroke="#191970" d="M533.8095,-224.2455C536.3433,-216.7776 539.9177,-206.2427 543.015,-197.1137"/>
<polygon fill="#191970" stroke="#191970" points="546.3298,-198.237 546.2284,-187.6427 539.7009,-195.9879 546.3298,-198.237"/>
</g>
<!-- Node18&#45;&gt;Node2 -->
<g id="edge26" class="edge">
<title>Node18&#45;&gt;Node2</title>
<path fill="none" stroke="#191970" d="M564.8284,-168.2455C578.3303,-159.6534 598.2122,-147.0014 613.7686,-137.1018"/>
<polygon fill="#191970" stroke="#191970" points="615.7897,-139.9643 622.3472,-131.6427 612.0315,-134.0587 615.7897,-139.9643"/>
</g>
<!-- Node20&#45;&gt;Node3 -->
<g id="edge31" class="edge">
<title>Node20&#45;&gt;Node3</title>
<path fill="none" stroke="#191970" d="M69.7866,-336.4127C70.3396,-317.0567 71.5,-271.9227 71.5,-234 71.5,-234 71.5,-234 71.5,-178 71.5,-134.3876 198.4551,-96.4613 272.8554,-77.9797"/>
<polygon fill="#191970" stroke="#191970" points="274.1037,-81.2777 282.9861,-75.5024 272.4409,-74.478 274.1037,-81.2777"/>
</g>
</g>
</svg>
