<?xml version="1.0" encoding="UTF-8" standalone="no"?>
<!DOCTYPE svg PUBLIC "-//W3C//DTD SVG 1.1//EN"
 "http://www.w3.org/Graphics/SVG/1.1/DTD/svg11.dtd">
<!-- Generated by graphviz version 2.40.1 (20161225.0304)
 -->
<!-- Title: /home/travis/build/AliceO2Group/AliceO2/DataFormats/simulation/test/testMCTruthContainer.cxx Pages: 1 -->
<!--zoomable 184 -->
<svg id="main" version="1.1" xmlns="http://www.w3.org/2000/svg" xmlns:xlink="http://www.w3.org/1999/xlink" xml:space="preserve" onload="init(evt)">
<style type="text/css"><![CDATA[
.edge:hover path { stroke: red; }
.edge:hover polygon { stroke: red; fill: red; }
]]></style>
<script type="text/javascript"><![CDATA[
var edges = document.getElementsByTagName('g');
if (edges && edges.length) {
  for (var i=0;i<edges.length;i++) {
    if (edges[i].id.substr(0,4)=='edge') {
      edges[i].setAttribute('class','edge');
    }
  }
}
]]></script>
        <defs>
                <circle id="rim" cx="0" cy="0" r="7"/>
                <circle id="rim2" cx="0" cy="0" r="3.5"/>
                <g id="zoomPlus">
                        <use xlink:href="#rim" fill="#404040">
                                <set attributeName="fill" to="#808080" begin="zoomplus.mouseover" end="zoomplus.mouseout"/>
                        </use>
                        <path d="M-4,0h8M0,-4v8" fill="none" stroke="white" stroke-width="1.5" pointer-events="none"/>
                </g>
                <g id="zoomMin">
                        <use xlink:href="#rim" fill="#404040">
                                <set attributeName="fill" to="#808080" begin="zoomminus.mouseover" end="zoomminus.mouseout"/>
                        </use>
                        <path d="M-4,0h8" fill="none" stroke="white" stroke-width="1.5" pointer-events="none"/>
                </g>
                <g id="dirArrow">
                        <path fill="none" stroke="white" stroke-width="1.5" d="M0,-3.0v7 M-2.5,-0.5L0,-3.0L2.5,-0.5"/>
                </g>
               <g id="resetDef">
                       <use xlink:href="#rim2" fill="#404040">
                               <set attributeName="fill" to="#808080" begin="reset.mouseover" end="reset.mouseout"/>
                       </use>
               </g>
        </defs>

<script type="text/javascript">
var viewWidth = 733;
var viewHeight = 184;
var sectionId = 'dynsection-0';
</script>
<script xlink:href="../../svgpan.js"/>
<svg id="graph" class="graph">
<g id="viewport">
<title>/home/travis/build/AliceO2Group/AliceO2/DataFormats/simulation/test/testMCTruthContainer.cxx</title>
<!-- Node0 -->
<g id="node1" class="node">
<title>Node0</title>
<polygon fill="#bfbfbf" stroke="#000000" points="311.5,-123.5 311.5,-175.5 477.5,-175.5 477.5,-123.5 311.5,-123.5"/>
<text text-anchor="start" x="319.5" y="-163.5" font-family="Helvetica,sans-Serif" font-size="10.00" fill="#000000">/home/travis/build</text>
<text text-anchor="start" x="319.5" y="-152.5" font-family="Helvetica,sans-Serif" font-size="10.00" fill="#000000">/AliceO2Group/AliceO2</text>
<text text-anchor="start" x="319.5" y="-141.5" font-family="Helvetica,sans-Serif" font-size="10.00" fill="#000000">/DataFormats/simulation</text>
<text text-anchor="middle" x="394.5" y="-130.5" font-family="Helvetica,sans-Serif" font-size="10.00" fill="#000000">/test/testMCTruthContainer.cxx</text>
</g>
<!-- Node1 -->
<g id="node2" class="node">
<title>Node1</title>
<polygon fill="none" stroke="#bfbfbf" points="35.5,-62 35.5,-81 167.5,-81 167.5,-62 35.5,-62"/>
<text text-anchor="middle" x="101.5" y="-69" font-family="Helvetica,sans-Serif" font-size="10.00" fill="#000000">boost/test/unit_test.hpp</text>
</g>
<!-- Node0&#45;&gt;Node1 -->
<g id="edge1" class="edge">
<title>Node0&#45;&gt;Node1</title>
<path fill="none" stroke="#191970" d="M311.3217,-127.357C258.1121,-113.192 191.1024,-95.3532 147.3232,-83.6987"/>
<polygon fill="#191970" stroke="#191970" points="148.0969,-80.2828 137.5331,-81.0924 146.2961,-87.0472 148.0969,-80.2828"/>
</g>
<!-- Node2 -->
<g id="node3" class="node">
<title>Node2</title>
<g id="a_node3"><a xlink:href="../../db/d14/MCTruthContainer_8h.html" target="_top" xlink:title="Definition of a container to keep Monte Carlo truth external to simulation objects. ">
<polygon fill="none" stroke="#000000" points="331,-56.5 331,-86.5 458,-86.5 458,-56.5 331,-56.5"/>
<text text-anchor="start" x="339" y="-74.5" font-family="Helvetica,sans-Serif" font-size="10.00" fill="#000000">SimulationDataFormat</text>
<text text-anchor="middle" x="394.5" y="-63.5" font-family="Helvetica,sans-Serif" font-size="10.00" fill="#000000">/MCTruthContainer.h</text>
</a>
</g>
</g>
<!-- Node0&#45;&gt;Node2 -->
<g id="edge2" class="edge">
<title>Node0&#45;&gt;Node2</title>
<path fill="none" stroke="#191970" d="M394.5,-123.0928C394.5,-114.516 394.5,-105.0289 394.5,-96.5538"/>
<polygon fill="#191970" stroke="#191970" points="398.0001,-96.5045 394.5,-86.5046 391.0001,-96.5046 398.0001,-96.5045"/>
</g>
<!-- Node12 -->
<g id="node13" class="node">
<title>Node12</title>
<g id="a_node13"><a xlink:href="../../db/ded/LabelContainer_8h.html" target="_top" xlink:title="SimulationDataFormat\l/LabelContainer.h">
<polygon fill="none" stroke="#000000" points="186,-56.5 186,-86.5 313,-86.5 313,-56.5 186,-56.5"/>
<text text-anchor="start" x="194" y="-74.5" font-family="Helvetica,sans-Serif" font-size="10.00" fill="#000000">SimulationDataFormat</text>
<text text-anchor="middle" x="249.5" y="-63.5" font-family="Helvetica,sans-Serif" font-size="10.00" fill="#000000">/LabelContainer.h</text>
</a>
</g>
</g>
<!-- Node0&#45;&gt;Node12 -->
<g id="edge12" class="edge">
<title>Node0&#45;&gt;Node12</title>
<path fill="none" stroke="#191970" d="M345.8137,-123.3101C326.4769,-112.9083 304.5975,-101.1387 286.5846,-91.449"/>
<polygon fill="#191970" stroke="#191970" points="288.0162,-88.2448 277.5514,-86.5897 284.7,-94.4095 288.0162,-88.2448"/>
</g>
<!-- Node14 -->
<g id="node15" class="node">
<title>Node14</title>
<polygon fill="none" stroke="#bfbfbf" points="476.5,-62 476.5,-81 540.5,-81 540.5,-62 476.5,-62"/>
<text text-anchor="middle" x="508.5" y="-69" font-family="Helvetica,sans-Serif" font-size="10.00" fill="#000000">algorithm</text>
</g>
<!-- Node0&#45;&gt;Node14 -->
<g id="edge19" class="edge">
<title>Node0&#45;&gt;Node14</title>
<path fill="none" stroke="#191970" d="M432.7775,-123.3101C450.513,-111.1753 470.969,-97.1791 486.1455,-86.7952"/>
<polygon fill="#191970" stroke="#191970" points="488.1339,-89.6756 494.4106,-81.1401 484.1811,-83.8984 488.1339,-89.6756"/>
</g>
<!-- Node15 -->
<g id="node16" class="node">
<title>Node15</title>
<polygon fill="none" stroke="#bfbfbf" points="558.5,-62 558.5,-81 618.5,-81 618.5,-62 558.5,-62"/>
<text text-anchor="middle" x="588.5" y="-69" font-family="Helvetica,sans-Serif" font-size="10.00" fill="#000000">iostream</text>
</g>
<!-- Node0&#45;&gt;Node15 -->
<g id="edge20" class="edge">
<title>Node0&#45;&gt;Node15</title>
<path fill="none" stroke="#191970" d="M459.3689,-123.4187C491.4056,-110.538 528.7138,-95.5377 554.9669,-84.9824"/>
<polygon fill="#191970" stroke="#191970" points="556.4807,-88.1461 564.4532,-81.1683 553.8694,-81.6514 556.4807,-88.1461"/>
</g>
<!-- Node3 -->
<g id="node4" class="node">
<title>Node3</title>
<polygon fill="none" stroke="#bfbfbf" points="379,-.5 379,-19.5 446,-19.5 446,-.5 379,-.5"/>
<text text-anchor="middle" x="412.5" y="-7.5" font-family="Helvetica,sans-Serif" font-size="10.00" fill="#000000">TNamed.h</text>
</g>
<!-- Node2&#45;&gt;Node3 -->
<g id="edge3" class="edge">
<title>Node2&#45;&gt;Node3</title>
<path fill="none" stroke="#191970" d="M398.9494,-56.2977C401.3179,-48.2055 404.2569,-38.1639 406.7918,-29.5029"/>
<polygon fill="#191970" stroke="#191970" points="410.168,-30.4275 409.618,-19.8469 403.4498,-28.4611 410.168,-30.4275"/>
</g>
<!-- Node4 -->
<g id="node5" class="node">
<title>Node4</title>
<polygon fill="none" stroke="#bfbfbf" points="606.5,-.5 606.5,-19.5 656.5,-19.5 656.5,-.5 606.5,-.5"/>
<text text-anchor="middle" x="631.5" y="-7.5" font-family="Helvetica,sans-Serif" font-size="10.00" fill="#000000">cstdint</text>
</g>
<!-- Node2&#45;&gt;Node4 -->
<g id="edge4" class="edge">
<title>Node2&#45;&gt;Node4</title>
<path fill="none" stroke="#191970" d="M456.4012,-56.4369C494.3318,-47.0583 544.0924,-34.4913 596.4707,-20.2173"/>
<polygon fill="#191970" stroke="#191970" points="597.5579,-23.5485 606.2791,-17.5325 595.7098,-16.7969 597.5579,-23.5485"/>
</g>
<!-- Node5 -->
<g id="node6" class="node">
<title>Node5</title>
<polygon fill="none" stroke="#bfbfbf" points="71.5,-.5 71.5,-19.5 123.5,-19.5 123.5,-.5 71.5,-.5"/>
<text text-anchor="middle" x="97.5" y="-7.5" font-family="Helvetica,sans-Serif" font-size="10.00" fill="#000000">cassert</text>
</g>
<!-- Node2&#45;&gt;Node5 -->
<g id="edge5" class="edge">
<title>Node2&#45;&gt;Node5</title>
<path fill="none" stroke="#191970" d="M330.914,-57.7254C328.0716,-57.1368 325.2569,-56.5592 322.5,-56 238.6965,-39.0007 216.7665,-39.4598 133.5,-20 133.4013,-19.9769 133.3025,-19.9538 133.2035,-19.9305"/>
<polygon fill="#191970" stroke="#191970" points="134.3323,-16.6052 123.7815,-17.5708 132.6316,-23.3955 134.3323,-16.6052"/>
</g>
<!-- Node6 -->
<g id="node7" class="node">
<title>Node6</title>
<polygon fill="none" stroke="#bfbfbf" points="142,-.5 142,-19.5 207,-19.5 207,-.5 142,-.5"/>
<text text-anchor="middle" x="174.5" y="-7.5" font-family="Helvetica,sans-Serif" font-size="10.00" fill="#000000">stdexcept</text>
</g>
<!-- Node2&#45;&gt;Node6 -->
<g id="edge6" class="edge">
<title>Node2&#45;&gt;Node6</title>
<path fill="none" stroke="#191970" d="M340.6819,-56.4554C302.7063,-45.8395 252.5187,-31.8098 217.2706,-21.9563"/>
<polygon fill="#191970" stroke="#191970" points="217.8682,-18.4893 207.2951,-19.1677 215.9836,-25.2308 217.8682,-18.4893"/>
</g>
<!-- Node7 -->
<g id="node8" class="node">
<title>Node7</title>
<polygon fill="none" stroke="#bfbfbf" points="225.5,-.5 225.5,-19.5 273.5,-19.5 273.5,-.5 225.5,-.5"/>
<text text-anchor="middle" x="249.5" y="-7.5" font-family="Helvetica,sans-Serif" font-size="10.00" fill="#000000">gsl/gsl</text>
</g>
<!-- Node2&#45;&gt;Node7 -->
<g id="edge7" class="edge">
<title>Node2&#45;&gt;Node7</title>
<path fill="none" stroke="#191970" d="M359.029,-56.4554C335.2598,-46.374 304.232,-33.2139 281.2715,-23.4755"/>
<polygon fill="#191970" stroke="#191970" points="282.5427,-20.2129 271.9699,-19.5303 279.8094,-26.6572 282.5427,-20.2129"/>
</g>
<!-- Node8 -->
<g id="node9" class="node">
<title>Node8</title>
<polygon fill="none" stroke="#bfbfbf" points="292,-.5 292,-19.5 361,-19.5 361,-.5 292,-.5"/>
<text text-anchor="middle" x="326.5" y="-7.5" font-family="Helvetica,sans-Serif" font-size="10.00" fill="#000000">type_traits</text>
</g>
<!-- Node2&#45;&gt;Node8 -->
<g id="edge8" class="edge">
<title>Node2&#45;&gt;Node8</title>
<path fill="none" stroke="#191970" d="M377.691,-56.2977C367.7603,-47.3163 355.1743,-35.9334 344.9673,-26.702"/>
<polygon fill="#191970" stroke="#191970" points="347.152,-23.9588 337.3877,-19.8469 342.4566,-29.1505 347.152,-23.9588"/>
</g>
<!-- Node9 -->
<g id="node10" class="node">
<title>Node9</title>
<polygon fill="none" stroke="#bfbfbf" points="674.5,-.5 674.5,-19.5 724.5,-19.5 724.5,-.5 674.5,-.5"/>
<text text-anchor="middle" x="699.5" y="-7.5" font-family="Helvetica,sans-Serif" font-size="10.00" fill="#000000">cstring</text>
</g>
<!-- Node2&#45;&gt;Node9 -->
<g id="edge9" class="edge">
<title>Node2&#45;&gt;Node9</title>
<path fill="none" stroke="#191970" d="M458.1787,-57.8642C461.3288,-57.2257 464.4492,-56.6011 467.5,-56 552.1704,-39.3174 576.761,-40.5354 664.4823,-20.0541"/>
<polygon fill="#191970" stroke="#191970" points="665.4019,-23.4333 674.3287,-17.7269 663.7918,-16.6209 665.4019,-23.4333"/>
</g>
<!-- Node10 -->
<g id="node11" class="node">
<title>Node10</title>
<polygon fill="none" stroke="#bfbfbf" points="464.5,-.5 464.5,-19.5 522.5,-19.5 522.5,-.5 464.5,-.5"/>
<text text-anchor="middle" x="493.5" y="-7.5" font-family="Helvetica,sans-Serif" font-size="10.00" fill="#000000">memory</text>
</g>
<!-- Node2&#45;&gt;Node10 -->
<g id="edge10" class="edge">
<title>Node2&#45;&gt;Node10</title>
<path fill="none" stroke="#191970" d="M418.7181,-56.4554C434.0773,-46.9141 453.8757,-34.6151 469.2425,-25.0691"/>
<polygon fill="#191970" stroke="#191970" points="471.511,-27.7802 478.1585,-19.5303 467.8172,-21.8341 471.511,-27.7802"/>
</g>
<!-- Node11 -->
<g id="node12" class="node">
<title>Node11</title>
<polygon fill="none" stroke="#bfbfbf" points="541,-.5 541,-19.5 588,-19.5 588,-.5 541,-.5"/>
<text text-anchor="middle" x="564.5" y="-7.5" font-family="Helvetica,sans-Serif" font-size="10.00" fill="#000000">vector</text>
</g>
<!-- Node2&#45;&gt;Node11 -->
<g id="edge11" class="edge">
<title>Node2&#45;&gt;Node11</title>
<path fill="none" stroke="#191970" d="M436.0867,-56.4554C465.3271,-45.8773 503.9369,-31.9096 531.1588,-22.0617"/>
<polygon fill="#191970" stroke="#191970" points="532.4213,-25.327 540.6342,-18.6338 530.0399,-18.7445 532.4213,-25.327"/>
</g>
<!-- Node12&#45;&gt;Node3 -->
<g id="edge13" class="edge">
<title>Node12&#45;&gt;Node3</title>
<path fill="none" stroke="#191970" d="M289.3743,-56.4554C316.452,-46.239 351.9094,-32.8609 377.8166,-23.0861"/>
<polygon fill="#191970" stroke="#191970" points="379.1201,-26.3352 387.2408,-19.5303 376.649,-19.7858 379.1201,-26.3352"/>
</g>
<!-- Node12&#45;&gt;Node5 -->
<g id="edge14" class="edge">
<title>Node12&#45;&gt;Node5</title>
<path fill="none" stroke="#191970" d="M212.3166,-56.4554C187.2887,-46.329 154.5837,-33.0964 130.4834,-23.3453"/>
<polygon fill="#191970" stroke="#191970" points="131.6373,-20.0366 121.0546,-19.5303 129.0118,-26.5256 131.6373,-20.0366"/>
</g>
<!-- Node12&#45;&gt;Node6 -->
<g id="edge15" class="edge">
<title>Node12&#45;&gt;Node6</title>
<path fill="none" stroke="#191970" d="M230.9607,-56.2977C219.8992,-47.2274 205.8509,-35.7077 194.5347,-26.4285"/>
<polygon fill="#191970" stroke="#191970" points="196.4604,-23.4813 186.5084,-19.8469 192.0219,-28.8942 196.4604,-23.4813"/>
</g>
<!-- Node12&#45;&gt;Node7 -->
<g id="edge18" class="edge">
<title>Node12&#45;&gt;Node7</title>
<path fill="none" stroke="#191970" d="M249.5,-56.2977C249.5,-48.3834 249.5,-38.6043 249.5,-30.0759"/>
<polygon fill="#191970" stroke="#191970" points="253.0001,-29.8469 249.5,-19.8469 246.0001,-29.847 253.0001,-29.8469"/>
</g>
<!-- Node12&#45;&gt;Node8 -->
<g id="edge16" class="edge">
<title>Node12&#45;&gt;Node8</title>
<path fill="none" stroke="#191970" d="M268.5337,-56.2977C280.0015,-47.1384 294.5962,-35.4816 306.2719,-26.1562"/>
<polygon fill="#191970" stroke="#191970" points="308.5419,-28.8225 314.1713,-19.8469 304.1734,-23.3529 308.5419,-28.8225"/>
</g>
<!-- Node13 -->
<g id="node14" class="node">
<title>Node13</title>
<polygon fill="none" stroke="#bfbfbf" points="0,-.5 0,-19.5 53,-19.5 53,-.5 0,-.5"/>
<text text-anchor="middle" x="26.5" y="-7.5" font-family="Helvetica,sans-Serif" font-size="10.00" fill="#000000">iterator</text>
</g>
<!-- Node12&#45;&gt;Node13 -->
<g id="edge17" class="edge">
<title>Node12&#45;&gt;Node13</title>
<path fill="none" stroke="#191970" d="M194.6683,-56.4335C159.6498,-46.8034 113.0223,-33.9662 62.9555,-20.122"/>
<polygon fill="#191970" stroke="#191970" points="63.8057,-16.7258 53.2345,-17.4333 61.9396,-23.4725 63.8057,-16.7258"/>
</g>
</g>
</svg>
        <g id="navigator" transform="translate(0 0)" fill="#404254">
                <rect fill="#f2f5e9" fill-opacity="0.5" stroke="#606060" stroke-width=".5" x="0" y="0" width="60" height="60"/>
                <use id="zoomplus" xlink:href="#zoomPlus" x="17" y="9" onmousedown="handleZoom(evt,'in')"/>
                <use id="zoomminus" xlink:href="#zoomMin" x="42" y="9" onmousedown="handleZoom(evt,'out')"/>
                <use id="reset" xlink:href="#resetDef" x="30" y="36" onmousedown="handleReset()"/>
                <g id="arrowUp" xlink:href="#dirArrow" transform="translate(30 24)" onmousedown="handlePan(0,-1)">
                  <use xlink:href="#rim" fill="#404040">
                        <set attributeName="fill" to="#808080" begin="arrowUp.mouseover" end="arrowUp.mouseout"/>
                  </use>
                  <path fill="none" stroke="white" stroke-width="1.5" d="M0,-3.0v7 M-2.5,-0.5L0,-3.0L2.5,-0.5"/>
                </g>
                <g id="arrowRight" xlink:href="#dirArrow" transform="rotate(90) translate(36 -43)" onmousedown="handlePan(1,0)">
                  <use xlink:href="#rim" fill="#404040">
                        <set attributeName="fill" to="#808080" begin="arrowRight.mouseover" end="arrowRight.mouseout"/>
                  </use>
                  <path fill="none" stroke="white" stroke-width="1.5" d="M0,-3.0v7 M-2.5,-0.5L0,-3.0L2.5,-0.5"/>
                </g>
                <g id="arrowDown" xlink:href="#dirArrow" transform="rotate(180) translate(-30 -48)" onmousedown="handlePan(0,1)">
                  <use xlink:href="#rim" fill="#404040">
                        <set attributeName="fill" to="#808080" begin="arrowDown.mouseover" end="arrowDown.mouseout"/>
                  </use>
                  <path fill="none" stroke="white" stroke-width="1.5" d="M0,-3.0v7 M-2.5,-0.5L0,-3.0L2.5,-0.5"/>
                </g>
                <g id="arrowLeft" xlink:href="#dirArrow" transform="rotate(270) translate(-36 17)" onmousedown="handlePan(-1,0)">
                  <use xlink:href="#rim" fill="#404040">
                        <set attributeName="fill" to="#808080" begin="arrowLeft.mouseover" end="arrowLeft.mouseout"/>
                  </use>
                  <path fill="none" stroke="white" stroke-width="1.5" d="M0,-3.0v7 M-2.5,-0.5L0,-3.0L2.5,-0.5"/>
                </g>
        </g>
        <svg viewBox="0 0 15 15" width="100%" height="30px" preserveAspectRatio="xMaxYMin meet">
         <g id="arrow_out" transform="scale(0.3 0.3)">
          <a xlink:href="testMCTruthContainer_8cxx__incl_org.svg" target="_base">
           <rect id="button" ry="5" rx="5" y="6" x="6" height="38" width="38"
                fill="#f2f5e9" fill-opacity="0.5" stroke="#606060" stroke-width="1.0"/>
           <path id="arrow"
             d="M 11.500037,31.436501 C 11.940474,20.09759 22.043105,11.32322 32.158766,21.979434 L 37.068811,17.246167 C 37.068811,17.246167 37.088388,32 37.088388,32 L 22.160133,31.978069 C 22.160133,31.978069 26.997745,27.140456 26.997745,27.140456 C 18.528582,18.264221 13.291696,25.230495 11.500037,31.436501 z"
             style="fill:#404040;"/>
          </a>
         </g>
        </svg>
</svg>
